# https://github.com/mikedh/trimesh
v 0.07416382 0.49263791 1.08981391
v 0.06457218 0.50059850 1.09801165
v 0.07496895 0.50232776 1.08981391
v 0.07741937 0.47633993 1.08981391
v 0.06460719 0.48745019 1.09801165
v -0.18421527 0.50664466 1.30059540
v -0.18421527 0.51862573 1.30047745
v 0.07552905 0.50759574 1.08981391
v 0.07741937 0.46683535 1.09538718
v 0.04937959 0.47016413 1.11505580
v 0.04745426 0.48092237 1.11334548
v 0.08907636 0.46556311 1.08981391
v -0.18421527 0.47634609 1.30932391
v -0.18421527 0.51975592 1.30136212
v 0.04829440 0.51681621 1.11402371
v 0.06544733 0.51136295 1.09883730
v 0.07909966 0.51451262 1.08981391
v 0.03212164 0.46815081 1.13015374
v -0.18421527 0.46648334 1.31631259
v -0.17826426 0.46787906 1.30734818
v 0.10493407 0.46314220 1.08981391
v -0.16951276 0.46403154 1.31592925
v -0.18421527 0.46639071 1.31672543
v -0.18421527 0.47298026 1.31041498
v -0.18421527 0.52353550 1.31592925
v 0.08781615 0.52078727 1.08981391
v 0.08718604 0.52060200 1.08981391
v 0.07622917 0.51892216 1.09435511
v 0.12096681 0.46254934 1.08981391
v -0.13723726 0.46295693 1.29979922
v -0.18421527 0.46346336 1.33208878
v -0.18421527 0.52535734 1.33208878
v 0.10503908 0.52410983 1.08981391
v 0.12107182 0.46254934 1.08981391
v -0.18421527 0.46278403 1.34824831
v -0.16951276 0.46280255 1.33208878
v -0.15334001 0.46285193 1.31592925
v -0.18421527 0.52563525 1.34677386
v 0.12117684 0.52467185 1.08981391
v 0.08879632 0.52432600 1.10609139
v 0.13720958 0.46285814 1.08981391
v -0.15334001 0.46289519 1.33208878
v -0.16951276 0.46298162 1.34824831
v -0.18421527 0.46333367 1.36440780
v -0.18421527 0.52561677 1.34824831
v 0.13734960 0.52448037 1.08981391
v 0.15401244 0.46477882 1.08981391
v -0.18421527 0.46648950 1.39106514
v -0.00806521 0.46362390 1.21914906
v -0.10492675 0.46353126 1.29979922
v -0.18421527 0.52517828 1.36290390
v 0.10493407 0.52398631 1.12225092
v 0.15628783 0.52140486 1.08981391
v 0.15642785 0.46548284 1.08981391
v 0.14914662 0.46686625 1.10101943
v -0.18348015 0.46812607 1.39106514
v -0.18421527 0.50955343 1.39106514
v 0.08091997 0.46815697 1.16276767
v 0.15989345 0.47128811 1.09662569
v 0.17064028 0.47649430 1.08981391
v -0.18421527 0.52486948 1.36446679
v -0.02420297 0.52354166 1.23530859
v 0.08879632 0.52364050 1.13838095
v 0.15971842 0.52054642 1.08981391
v 0.07265856 0.52318965 1.15451098
v 0.05648580 0.52267090 1.17067049
v 0.00831758 0.52056494 1.21947345
v 0.12131686 0.52059579 1.12260476
v 0.16864494 0.47387576 1.08981391
v -0.18095971 0.48674617 1.39106514
v 0.16213383 0.48205256 1.09857191
v 0.04899452 0.48255895 1.19538160
v -0.18365518 0.50884325 1.39106514
v -0.14479855 0.51705090 1.35671139
v -0.17315339 0.51871837 1.37570178
v -0.18421527 0.52128133 1.38036093
v 0.17340575 0.49248969 1.08981391
v -0.18421527 0.52150365 1.37983015
v -0.13723726 0.52331318 1.33208878
v -0.04034072 0.52302291 1.25140912
v 0.10458400 0.52016967 1.13829248
v 0.15058186 0.51905801 1.10225791
v 0.16706967 0.51823046 1.08981391
v 0.00082630 0.52036731 1.22649162
v -0.13576701 0.50862709 1.35072533
v 0.03184159 0.49248969 1.21065646
v 0.01423359 0.49248969 1.22557750
v 0.04899452 0.50439665 1.19538160
v -0.04825207 0.51682237 1.27570739
v -0.12768063 0.51769318 1.34137758
v -0.13853248 0.51903332 1.34733419
v 0.00306669 0.51847752 1.22967632
v 0.17200552 0.50946700 1.08981391
v 0.00082630 0.51878631 1.23079689
v -0.00848529 0.52010793 1.23519064
v 0.17137541 0.51212260 1.08981391
v 0.06509727 0.51708175 1.17919259
v 0.16132869 0.51609982 1.09789368
v 0.00537708 0.50862088 1.23165206
v 0.04808437 0.51516111 1.19455592
v -0.03123917 0.51743996 1.26037354
f 1 2 3
f 1 3 8
f 1 8 17
f 1 17 27
f 1 27 26
f 1 26 33
f 1 33 39
f 1 39 46
f 1 46 53
f 1 53 64
f 1 64 83
f 1 83 96
f 1 96 93
f 1 93 77
f 1 77 60
f 1 60 69
f 1 69 54
f 1 54 47
f 1 47 41
f 1 41 34
f 1 34 29
f 1 29 21
f 1 21 12
f 1 12 4
f 1 4 5
f 1 5 6
f 1 6 7
f 1 7 2
f 2 8 3
f 2 7 8
f 4 9 10
f 4 10 11
f 4 11 5
f 4 12 9
f 5 11 6
f 6 13 24
f 6 24 19
f 6 19 23
f 6 23 31
f 6 31 35
f 6 35 44
f 6 44 48
f 6 48 57
f 6 57 76
f 6 76 78
f 6 78 61
f 6 61 51
f 6 51 45
f 6 45 38
f 6 38 32
f 6 32 25
f 6 25 14
f 6 14 7
f 6 11 13
f 7 14 15
f 7 15 16
f 7 16 8
f 8 16 17
f 9 18 10
f 9 12 19
f 9 19 20
f 9 20 18
f 10 18 11
f 11 18 13
f 12 21 22
f 12 22 23
f 12 23 19
f 13 18 24
f 14 25 26
f 14 26 27
f 14 27 28
f 14 28 15
f 15 28 17
f 15 17 16
f 17 28 27
f 18 20 24
f 19 24 20
f 21 29 30
f 21 30 31
f 21 31 22
f 22 31 23
f 25 32 33
f 25 33 26
f 29 34 35
f 29 35 36
f 29 36 37
f 29 37 30
f 30 37 31
f 31 37 36
f 31 36 35
f 32 38 39
f 32 39 40
f 32 40 33
f 33 40 39
f 34 41 42
f 34 42 35
f 35 42 43
f 35 43 44
f 38 45 46
f 38 46 39
f 41 47 48
f 41 48 49
f 41 49 50
f 41 50 44
f 41 44 43
f 41 43 42
f 44 50 48
f 45 51 46
f 46 52 53
f 46 51 52
f 47 54 55
f 47 55 48
f 48 56 70
f 48 70 73
f 48 73 57
f 48 50 49
f 48 55 58
f 48 58 59
f 48 59 60
f 48 60 56
f 51 61 62
f 51 62 63
f 51 63 52
f 52 63 53
f 53 63 65
f 53 65 66
f 53 66 67
f 53 67 68
f 53 68 64
f 54 59 55
f 54 69 59
f 55 59 58
f 56 60 71
f 56 71 72
f 56 72 70
f 57 73 74
f 57 74 75
f 57 75 76
f 59 69 60
f 60 77 71
f 61 78 79
f 61 79 62
f 62 79 80
f 62 80 66
f 62 66 65
f 62 65 63
f 64 68 81
f 64 81 82
f 64 82 83
f 66 80 78
f 66 78 67
f 67 81 68
f 67 78 84
f 67 84 81
f 70 85 73
f 70 72 86
f 70 86 87
f 70 87 88
f 70 88 85
f 71 77 72
f 72 77 86
f 73 85 89
f 73 89 74
f 74 89 90
f 74 90 76
f 74 76 75
f 76 90 91
f 76 91 92
f 76 92 78
f 77 88 86
f 77 93 88
f 78 94 95
f 78 95 84
f 78 80 79
f 78 92 94
f 81 84 82
f 82 92 83
f 82 84 95
f 82 95 94
f 82 94 92
f 83 92 97
f 83 97 98
f 83 98 96
f 85 88 99
f 85 99 89
f 86 88 87
f 88 93 100
f 88 100 99
f 89 101 90
f 89 99 100
f 89 100 98
f 89 98 97
f 89 97 101
f 90 101 92
f 90 92 91
f 92 101 97
f 93 96 98
f 93 98 100

