# https://github.com/mikedh/trimesh
v -0.18573938 -0.44404219 0.52195677
v -0.18573938 -0.42772775 0.52211490
v -0.18568439 -0.44404219 0.52195677
v -0.18573938 -0.46018747 0.52395960
v -0.18573938 -0.42772775 0.62942452
v -0.18568439 -0.42772775 0.52211490
v -0.18568439 -0.46018747 0.52395960
v 0.00153499 -0.44404219 0.52237841
v -0.18573938 -0.47097767 0.52947267
v -0.18573938 -0.44316844 0.62963534
v -0.18568439 -0.42772775 0.62942452
v 0.00153499 -0.42772775 0.52276844
v 0.00153499 -0.46018747 0.52439178
v 0.00153499 -0.47074279 0.52975726
v -0.18573938 -0.47461823 0.54088879
v -0.18573938 -0.44335636 0.62963534
v 0.00153499 -0.44404219 0.62805417
v 0.00153499 -0.43441701 0.62779064
v 0.00153499 -0.42779353 0.62760090
v -0.00790665 -0.42772775 0.62761144
v 0.00153499 -0.42772775 0.56488062
v 0.00153499 -0.47282377 0.53641933
v -0.18568439 -0.47462761 0.54093097
v -0.18573938 -0.47563759 0.55702741
v 0.00153499 -0.47422835 0.54093097
v -0.18573938 -0.45854334 0.62799092
v 0.00153499 -0.45056230 0.62718979
v 0.00153499 -0.47530873 0.55708013
v -0.18573938 -0.47571276 0.57317657
v 0.00153499 -0.47539333 0.57321873
v -0.18573938 -0.45886749 0.62792767
v 0.00153499 -0.46018747 0.62590376
v -0.18573938 -0.47569394 0.58931517
v 0.00153499 -0.47534631 0.58935735
v -0.18573938 -0.47163531 0.61938928
v -0.18568439 -0.47162121 0.61943144
v -0.16953278 -0.46018747 0.62718979
v 0.00153499 -0.46468768 0.62293114
v -0.18573938 -0.47532754 0.60545379
v 0.00153499 -0.47483430 0.60550648
v -0.18568439 -0.47532283 0.60550648
v 0.00153499 -0.47273922 0.61326483
v 0.00153499 -0.47131587 0.61852490
f 1 2 6
f 1 6 3
f 1 3 7
f 1 7 4
f 1 4 9
f 1 9 15
f 1 15 24
f 1 24 29
f 1 29 33
f 1 33 39
f 1 39 35
f 1 35 31
f 1 31 26
f 1 26 16
f 1 16 10
f 1 10 5
f 1 5 2
f 2 5 11
f 2 11 20
f 2 20 21
f 2 21 12
f 2 12 6
f 3 6 8
f 3 8 7
f 4 7 9
f 5 10 11
f 6 12 8
f 7 8 13
f 7 13 14
f 7 14 9
f 8 12 21
f 8 21 19
f 8 19 18
f 8 18 17
f 8 17 27
f 8 27 32
f 8 32 38
f 8 38 43
f 8 43 42
f 8 42 40
f 8 40 34
f 8 34 30
f 8 30 28
f 8 28 25
f 8 25 22
f 8 22 14
f 8 14 13
f 9 14 15
f 10 16 17
f 10 17 11
f 11 17 18
f 11 18 19
f 11 19 20
f 14 22 15
f 15 23 24
f 15 22 25
f 15 25 23
f 16 26 17
f 17 26 27
f 19 21 20
f 23 25 28
f 23 28 24
f 24 28 30
f 24 30 29
f 26 31 32
f 26 32 27
f 29 30 33
f 30 34 33
f 31 35 36
f 31 36 37
f 31 37 32
f 32 37 38
f 33 34 39
f 34 40 39
f 35 39 41
f 35 41 40
f 35 40 42
f 35 42 43
f 35 43 36
f 36 43 37
f 37 43 38
f 39 40 41

