# https://github.com/mikedh/trimesh
v -0.17949240 -0.44404402 0.96230681
v -0.17949240 -0.46018820 0.96378331
v -0.17949240 -0.43409335 0.96250029
v 0.00037990 -0.44404402 0.96287704
v 0.00037990 -0.45249184 0.96353892
v 0.00037990 -0.46018820 0.96414988
v -0.17949240 -0.46388472 0.96506633
v 0.00037990 -0.46969547 0.96736764
v -0.17949240 -0.42812384 0.96265303
v 0.00037990 -0.43645964 0.96323345
v -0.17949240 -0.46990085 0.96716397
v 0.00037990 -0.47153439 0.97235718
v -0.17949240 -0.47356937 0.97689868
v -0.17949240 -0.42812384 1.06621153
v 0.00037990 -0.42812384 0.96364075
v 0.00037990 -0.47320528 0.97689868
v -0.17949240 -0.47439547 0.98309997
v 0.00037990 -0.47433946 0.98535036
v 0.00037990 -0.47537090 0.99304852
v -0.17949240 -0.44404402 1.06632353
v 0.00037990 -0.44404402 1.06507104
v 0.00037990 -0.43559152 1.06484704
v 0.00037990 -0.42812384 1.06464339
v -0.17949240 -0.47569765 0.99304852
v 0.00037990 -0.47541291 1.00150019
v -0.17949240 -0.47580034 1.00918815
v -0.17949240 -0.47573966 0.99923962
v -0.17949240 -0.45406003 1.06603841
v -0.11027959 -0.45222111 1.06571256
v 0.00037990 -0.46018820 1.06272903
v 0.00037990 -0.47545026 1.00918815
v -0.17949240 -0.47576767 1.02532780
v -0.17949240 -0.45903539 1.06465356
v 0.00037990 -0.47139441 1.05482722
v -0.17949240 -0.46213448 1.06373711
v 0.00037990 -0.47543158 1.01763985
v -0.17949240 -0.47542225 1.04147764
v 0.00037990 -0.47540824 1.02532780
v 0.00037990 -0.47309330 1.04847317
v -0.17949240 -0.47168376 1.05566220
v -0.17949240 -0.47400809 1.04686432
v 0.00037990 -0.47517490 1.03377948
v 0.00037990 -0.47495552 1.04147764
f 1 2 7
f 1 7 11
f 1 11 13
f 1 13 17
f 1 17 24
f 1 24 27
f 1 27 26
f 1 26 32
f 1 32 37
f 1 37 41
f 1 41 40
f 1 40 35
f 1 35 33
f 1 33 28
f 1 28 20
f 1 20 14
f 1 14 9
f 1 9 3
f 1 3 4
f 1 4 5
f 1 5 6
f 1 6 2
f 2 6 8
f 2 8 7
f 3 9 4
f 4 10 15
f 4 15 23
f 4 23 22
f 4 22 21
f 4 21 30
f 4 30 34
f 4 34 39
f 4 39 43
f 4 43 42
f 4 42 38
f 4 38 36
f 4 36 31
f 4 31 25
f 4 25 19
f 4 19 18
f 4 18 16
f 4 16 12
f 4 12 8
f 4 8 6
f 4 6 5
f 4 9 10
f 7 8 11
f 8 12 13
f 8 13 11
f 9 14 23
f 9 23 15
f 9 15 10
f 12 16 13
f 13 16 18
f 13 18 19
f 13 19 17
f 14 20 21
f 14 21 22
f 14 22 23
f 17 19 24
f 19 25 26
f 19 26 27
f 19 27 24
f 20 28 29
f 20 29 21
f 21 29 30
f 25 31 26
f 26 31 32
f 28 33 30
f 28 30 29
f 30 33 35
f 30 35 34
f 31 36 32
f 32 36 38
f 32 38 37
f 34 35 40
f 34 40 39
f 37 38 42
f 37 42 43
f 37 43 41
f 39 40 43
f 40 41 43

