# https://github.com/mikedh/trimesh
v 0.23413062 0.42803665 1.39958462
v 0.25014338 0.42803665 1.40065388
v 0.19102836 0.42803665 1.40132215
v 0.23413062 0.45738308 1.33751418
v 0.25027553 0.42803665 1.40068059
v 0.23951745 0.45764727 1.33751418
v 0.25027553 0.45817565 1.33751418
v 0.19102836 0.46063789 1.39974501
v 0.20784952 0.49247829 1.33751418
v 0.20867346 0.47634147 1.33751418
v 0.20932643 0.47071945 1.33751418
v 0.20966068 0.46790847 1.33751418
v 0.21798575 0.46261406 1.33751418
v 0.22337255 0.46085983 1.33751418
v 0.19102836 0.42803665 1.50626986
v 0.26006973 0.42803665 1.40338046
v 0.25456633 0.46003555 1.33751418
v 0.26014747 0.42803665 1.40340722
v 0.19102836 0.47199814 1.40142908
v 0.20789615 0.50862569 1.33751418
v 0.20197299 0.42803665 1.50659064
v 0.23413062 0.45767893 1.59047396
v 0.23413062 0.46314244 1.60410700
v 0.22075299 0.46491780 1.60218232
v 0.20998714 0.46924000 1.59771816
v 0.19102836 0.48064250 1.53677045
v 0.26313236 0.46375537 1.33751418
v 0.26560423 0.42803665 1.41278995
v 0.19102836 0.47592931 1.40781787
v 0.20896886 0.51946815 1.33751418
v 0.20824595 0.51223988 1.33751418
v 0.21798575 0.42803665 1.50704505
v 0.25027553 0.45836587 1.59047396
v 0.25027553 0.46349118 1.60370600
v 0.23413062 0.42803665 1.50731237
v 0.25027553 0.42803665 1.50552137
v 0.23413062 0.47634147 1.61012160
v 0.21641556 0.47530584 1.60327830
v 0.20970731 0.47999786 1.59884089
v 0.19102836 0.48600033 1.53778625
v 0.26893116 0.47634147 1.33751418
v 0.26564309 0.42803665 1.41287013
v 0.19102836 0.52012333 1.49584457
v 0.21259892 0.52484711 1.33751418
v 0.19102836 0.52182472 1.50413133
v 0.19102836 0.52281810 1.50971822
v 0.26133677 0.46538280 1.60164769
v 0.25964998 0.42803665 1.50258089
v 0.25027553 0.47634147 1.60931960
v 0.23413062 0.49247829 1.61057601
v 0.21798575 0.49247829 1.60496241
v 0.20959848 0.49247829 1.59902799
v 0.19102836 0.49247829 1.53853474
v 0.27005826 0.49247829 1.33751418
v 0.26960741 0.42803665 1.42901594
v 0.26957633 0.42803665 1.42888231
v 0.21442563 0.52754183 1.33751418
v 0.19102836 0.52036639 1.52439377
v 0.22281289 0.53419948 1.59047396
v 0.22243978 0.53429461 1.57432814
v 0.22238535 0.53431574 1.54203656
v 0.22239312 0.53431574 1.52586403
v 0.22250195 0.53428403 1.33751418
v 0.26316345 0.47634147 1.60343873
v 0.26481915 0.42803665 1.49357240
v 0.26485801 0.42803665 1.49343877
v 0.26928095 0.42803665 1.47742663
v 0.26310128 0.46374478 1.59047396
v 0.26861245 0.47634147 1.59047396
v 0.25027553 0.49247829 1.60977406
v 0.23413062 0.50862569 1.61057601
v 0.21798575 0.50862569 1.60496241
v 0.20959848 0.50862569 1.59902799
v 0.19102836 0.50595209 1.53730508
v 0.20971508 0.51732288 1.59884089
v 0.26990281 0.50323620 1.33751418
v 0.27009715 0.49247829 1.34828691
v 0.26990281 0.42803665 1.44502808
v 0.19102836 0.51593856 1.52965988
v 0.21473656 0.52656963 1.59047396
v 0.22414988 0.53367110 1.59988340
v 0.23413062 0.53574236 1.59047396
v 0.23413062 0.53593258 1.57432814
v 0.23413062 0.53596429 1.54203656
v 0.23413062 0.53597483 1.52586403
v 0.23413062 0.53597483 1.39672436
v 0.23413062 0.53596429 1.33751418
v 0.26935092 0.49247829 1.59047396
v 0.26348993 0.49247829 1.60367929
v 0.26928873 0.42803665 1.47729295
v 0.26928095 0.47634147 1.57432814
v 0.27019041 0.49247829 1.57432814
v 0.25027553 0.50862569 1.60977406
v 0.23413062 0.52477310 1.60675341
v 0.21845214 0.52353670 1.60191501
v 0.19102836 0.51329663 1.53185187
v 0.26980175 0.50862569 1.33751418
v 0.27038475 0.49247829 1.50971822
v 0.26990281 0.42803665 1.44516176
v 0.27043138 0.49247829 1.54203656
v 0.23413062 0.53418889 1.60071211
v 0.25027553 0.53498150 1.59047396
v 0.25027553 0.53521398 1.57432814
v 0.25027553 0.53379790 1.60009725
v 0.25027553 0.53525623 1.52586403
v 0.25027553 0.53525623 1.34828691
v 0.24488873 0.53548876 1.33751418
v 0.26918767 0.50862569 1.59047396
v 0.26348216 0.50862569 1.60367929
v 0.26985615 0.42803665 1.46130753
v 0.27037698 0.49247829 1.55818233
v 0.26989504 0.50862569 1.57432814
v 0.26126680 0.52477310 1.60151406
v 0.25027553 0.52477310 1.60573761
v 0.26659143 0.51938360 1.33751418
v 0.27002718 0.50862569 1.49357240
v 0.27006604 0.50862569 1.54203656
v 0.27001941 0.50862569 1.55818233
v 0.25924578 0.53343862 1.59047396
v 0.25881825 0.53316385 1.59905474
v 0.25944787 0.53357601 1.57432814
v 0.25947898 0.53359714 1.52586403
v 0.25944010 0.53357601 1.33751418
v 0.25637749 0.53413605 1.33751418
v 0.25027553 0.53524569 1.33751418
v 0.26458595 0.52477310 1.59047396
v 0.26503681 0.52477310 1.57432814
v 0.26498238 0.52477310 1.33751418
v 0.26500570 0.52477310 1.36443272
v 0.26506789 0.52477310 1.52586403
v 0.26506789 0.52477310 1.54203656
v 0.26502901 0.52477310 1.41287013
v 0.25945564 0.53357601 1.36443272
v 0.25944787 0.53357601 1.34828691
f 1 2 5
f 1 5 16
f 1 16 18
f 1 18 28
f 1 28 42
f 1 42 56
f 1 56 55
f 1 55 78
f 1 78 99
f 1 99 110
f 1 110 90
f 1 90 67
f 1 67 66
f 1 66 65
f 1 65 48
f 1 48 36
f 1 36 35
f 1 35 32
f 1 32 21
f 1 21 15
f 1 15 3
f 1 3 4
f 1 4 2
f 2 4 6
f 2 6 7
f 2 7 5
f 3 8 9
f 3 9 10
f 3 10 11
f 3 11 12
f 3 12 13
f 3 13 14
f 3 14 4
f 3 15 26
f 3 26 40
f 3 40 53
f 3 53 74
f 3 74 96
f 3 96 79
f 3 79 58
f 3 58 46
f 3 46 45
f 3 45 43
f 3 43 29
f 3 29 19
f 3 19 8
f 4 14 13
f 4 13 12
f 4 12 11
f 4 11 10
f 4 10 9
f 4 9 20
f 4 20 31
f 4 31 30
f 4 30 44
f 4 44 57
f 4 57 63
f 4 63 87
f 4 87 107
f 4 107 125
f 4 125 124
f 4 124 123
f 4 123 128
f 4 128 115
f 4 115 97
f 4 97 76
f 4 76 54
f 4 54 41
f 4 41 27
f 4 27 17
f 4 17 7
f 4 7 6
f 5 7 16
f 7 17 18
f 7 18 16
f 8 19 20
f 8 20 9
f 15 21 22
f 15 22 23
f 15 23 24
f 15 24 25
f 15 25 26
f 17 27 18
f 18 27 28
f 19 29 30
f 19 30 31
f 19 31 20
f 21 32 22
f 22 33 34
f 22 34 23
f 22 32 35
f 22 35 36
f 22 36 33
f 23 34 37
f 23 37 24
f 24 37 38
f 24 38 25
f 25 38 39
f 25 39 26
f 26 39 40
f 27 41 42
f 27 42 28
f 29 43 30
f 30 43 45
f 30 45 46
f 30 46 44
f 33 47 34
f 33 36 48
f 33 48 47
f 34 47 49
f 34 49 37
f 37 49 70
f 37 70 50
f 37 50 51
f 37 51 38
f 38 51 39
f 39 51 52
f 39 52 53
f 39 53 40
f 41 54 55
f 41 55 56
f 41 56 42
f 44 46 57
f 46 58 59
f 46 59 60
f 46 60 61
f 46 61 62
f 46 62 63
f 46 63 57
f 47 64 49
f 47 48 65
f 47 65 66
f 47 66 67
f 47 67 68
f 47 68 69
f 47 69 64
f 49 64 70
f 50 71 72
f 50 72 51
f 50 70 93
f 50 93 71
f 51 72 73
f 51 73 52
f 52 73 53
f 53 73 75
f 53 75 74
f 54 76 77
f 54 77 78
f 54 78 55
f 58 79 75
f 58 75 80
f 58 80 81
f 58 81 59
f 59 81 82
f 59 82 83
f 59 83 60
f 60 83 84
f 60 84 61
f 61 84 85
f 61 85 86
f 61 86 62
f 62 86 87
f 62 87 63
f 64 69 88
f 64 88 89
f 64 89 70
f 67 90 69
f 67 69 68
f 69 90 91
f 69 91 92
f 69 92 88
f 70 89 93
f 71 94 95
f 71 95 72
f 71 93 94
f 72 95 75
f 72 75 73
f 74 75 96
f 75 95 81
f 75 81 80
f 75 79 96
f 76 97 98
f 76 98 77
f 77 98 78
f 78 98 100
f 78 100 99
f 81 95 94
f 81 94 101
f 81 101 82
f 82 102 103
f 82 103 83
f 82 101 104
f 82 104 102
f 83 103 84
f 84 103 105
f 84 105 85
f 85 105 106
f 85 106 86
f 86 106 87
f 87 106 107
f 88 108 109
f 88 109 89
f 88 92 108
f 89 109 93
f 90 110 91
f 91 110 92
f 92 111 112
f 92 112 108
f 92 110 111
f 93 109 113
f 93 113 114
f 93 114 94
f 94 114 104
f 94 104 101
f 97 115 116
f 97 116 98
f 98 116 100
f 99 100 110
f 100 116 117
f 100 117 118
f 100 118 111
f 100 111 110
f 102 119 103
f 102 104 120
f 102 120 119
f 103 119 121
f 103 121 105
f 104 114 120
f 105 121 122
f 105 122 106
f 106 123 124
f 106 124 125
f 106 125 107
f 106 122 123
f 108 126 113
f 108 113 109
f 108 112 126
f 111 118 112
f 112 118 127
f 112 127 126
f 113 120 114
f 113 126 120
f 115 128 116
f 116 128 129
f 116 129 117
f 117 130 131
f 117 131 127
f 117 127 118
f 117 129 132
f 117 132 130
f 119 126 127
f 119 127 121
f 119 120 126
f 121 127 131
f 121 131 122
f 122 131 130
f 122 130 133
f 122 133 134
f 122 134 123
f 123 134 129
f 123 129 128
f 129 134 133
f 129 133 132
f 130 132 133

