# https://github.com/mikedh/trimesh
v -0.23428651 0.42806648 0.52099453
v -0.23412973 0.42806648 0.52099453
v -0.25027030 0.42806648 0.52257100
v -0.25027030 0.45710085 0.42733926
v -0.21798914 0.42806648 0.52128116
v -0.26247476 0.42806648 0.52851849
v -0.25072416 0.45731008 0.42733926
v -0.23468260 0.45739381 0.42733926
v -0.18569147 0.42806648 0.52224853
v -0.26253253 0.42806648 0.52862597
v -0.26332471 0.46321116 0.42733926
v -0.23412973 0.45740425 0.42733926
v -0.22193351 0.46329484 0.42733926
v -0.22149618 0.46351456 0.42733926
v -0.19250748 0.51441623 0.42733926
v -0.18569147 0.44404325 0.52206937
v -0.18569147 0.42806648 0.62919611
v -0.26776420 0.42806648 0.54095091
v -0.26895245 0.47634200 0.42733926
v -0.19250748 0.51921869 0.42733926
v -0.18569147 0.46019782 0.52260680
v -0.18569147 0.50842103 0.79336155
v -0.22157869 0.46352501 0.79336155
v -0.22618322 0.46128600 0.79336155
v -0.23412973 0.45742519 0.79336155
v -0.25027030 0.45712178 0.79336155
v -0.21786537 0.42806648 0.63005600
v -0.26778071 0.42806648 0.54109422
v -0.26974463 0.49247569 0.42733926
v -0.26902673 0.42806648 0.55707368
v -0.18569147 0.47953315 0.54095091
v -0.18569147 0.47322409 0.52808854
v -0.20184031 0.52701350 0.42733926
v -0.18569147 0.52631251 0.78311465
v -0.18569147 0.52542312 0.79336155
v -0.26332471 0.46322160 0.79336155
v -0.26256554 0.42806648 0.61952247
v -0.26247476 0.42806648 0.61959412
v -0.25149159 0.42806648 0.62758384
v -0.24341305 0.42806648 0.63002017
v -0.23412973 0.42806648 0.63030680
v -0.23396470 0.42806648 0.63030680
v -0.26989316 0.50806531 0.42733926
v -0.26906799 0.42806648 0.57323225
v -0.26998394 0.49247569 0.54095091
v -0.21798914 0.53244371 0.42733926
v -0.20885435 0.53153343 0.79336155
v -0.19592374 0.52840504 0.79336155
v -0.26896070 0.47634200 0.79336155
v -0.26768168 0.42806648 0.60551358
v -0.26990966 0.50861982 0.44407111
v -0.26989316 0.50861982 0.42733926
v -0.26906799 0.42806648 0.57341140
v -0.26997569 0.49247569 0.55707368
v -0.26989316 0.50861982 0.76695607
v -0.26993442 0.50861982 0.60551358
v -0.26993442 0.50861982 0.49251101
v -0.26992617 0.50861982 0.47635244
v -0.23412973 0.53261112 0.42733926
v -0.23398118 0.53494431 0.79336155
v -0.22850196 0.53455721 0.79336155
v -0.22166121 0.53368881 0.78612423
v -0.21685039 0.53307150 0.79336155
v -0.26971162 0.49247569 0.79336155
v -0.26878742 0.42806648 0.58939084
v -0.26877916 0.42806648 0.58953415
v -0.26412514 0.52382235 0.42733926
v -0.26972813 0.49247569 0.78311465
v -0.26986015 0.49247569 0.68623483
v -0.26983541 0.50861982 0.79336155
v -0.26620460 0.51823518 0.79336155
v -0.26414990 0.52382235 0.76695607
v -0.26414990 0.52382235 0.47635244
v -0.24971743 0.53180547 0.42733926
v -0.24680453 0.53433749 0.79336155
v -0.25027030 0.53177409 0.42733926
v -0.25488309 0.53185778 0.79336155
v -0.26410038 0.52378049 0.79336155
v -0.26413339 0.52384324 0.62163634
v -0.24976695 0.53354233 0.79336155
f 1 2 5
f 1 5 9
f 1 9 17
f 1 17 27
f 1 27 42
f 1 42 41
f 1 41 40
f 1 40 39
f 1 39 38
f 1 38 37
f 1 37 50
f 1 50 66
f 1 66 65
f 1 65 53
f 1 53 44
f 1 44 30
f 1 30 28
f 1 28 18
f 1 18 10
f 1 10 6
f 1 6 3
f 1 3 4
f 1 4 2
f 2 4 5
f 3 6 4
f 4 7 11
f 4 11 19
f 4 19 29
f 4 29 43
f 4 43 52
f 4 52 67
f 4 67 76
f 4 76 74
f 4 74 59
f 4 59 46
f 4 46 33
f 4 33 20
f 4 20 15
f 4 15 14
f 4 14 13
f 4 13 12
f 4 12 8
f 4 8 9
f 4 9 5
f 4 6 7
f 6 10 11
f 6 11 7
f 8 12 9
f 9 12 13
f 9 13 14
f 9 14 15
f 9 15 16
f 9 16 21
f 9 21 32
f 9 32 31
f 9 31 34
f 9 34 35
f 9 35 22
f 9 22 17
f 10 18 11
f 11 18 19
f 15 20 16
f 16 20 21
f 17 22 23
f 17 23 24
f 17 24 25
f 17 25 26
f 17 26 27
f 18 28 19
f 19 28 30
f 19 30 29
f 20 31 32
f 20 32 21
f 20 33 34
f 20 34 31
f 22 35 48
f 22 48 47
f 22 47 63
f 22 63 61
f 22 61 60
f 22 60 75
f 22 75 80
f 22 80 77
f 22 77 78
f 22 78 71
f 22 71 70
f 22 70 64
f 22 64 49
f 22 49 36
f 22 36 26
f 22 26 25
f 22 25 24
f 22 24 23
f 26 36 37
f 26 37 38
f 26 38 39
f 26 39 40
f 26 40 41
f 26 41 42
f 26 42 27
f 29 30 44
f 29 44 45
f 29 45 43
f 33 46 34
f 34 47 48
f 34 48 35
f 34 46 47
f 36 49 50
f 36 50 37
f 43 51 52
f 43 45 51
f 44 53 45
f 45 53 54
f 45 54 55
f 45 55 56
f 45 56 57
f 45 57 58
f 45 58 51
f 46 59 60
f 46 60 61
f 46 61 62
f 46 62 63
f 46 63 47
f 49 64 53
f 49 53 65
f 49 65 66
f 49 66 50
f 51 58 67
f 51 67 52
f 53 64 68
f 53 68 69
f 53 69 54
f 54 69 55
f 55 69 68
f 55 68 64
f 55 64 70
f 55 70 71
f 55 71 72
f 55 72 56
f 56 72 73
f 56 73 57
f 57 73 67
f 57 67 58
f 59 74 75
f 59 75 60
f 61 63 62
f 67 73 77
f 67 77 76
f 71 78 72
f 72 78 77
f 72 77 79
f 72 79 73
f 73 79 77
f 74 76 75
f 75 76 80
f 76 77 80

