# https://github.com/mikedh/trimesh
v -0.23413053 -0.53463031 1.60364080
v -0.22163999 -0.53363987 1.59322720
v -0.22163999 -0.53363987 1.60153114
v -0.21695151 -0.53158594 1.60678281
v -0.23413053 -0.53143998 1.61172030
v -0.24639479 -0.53443219 1.60236153
v -0.23413053 -0.53273282 1.39159804
v -0.21799239 -0.53233659 1.39159804
v -0.17747056 -0.52426695 1.50973872
v -0.20184520 -0.52672747 1.59046664
v -0.20044228 -0.52330779 1.60750103
v -0.20489542 -0.52103490 1.61753312
v -0.21799239 -0.52331818 1.61901431
v -0.23413053 -0.52337035 1.61905925
v -0.25027772 -0.52244241 1.61849815
v -0.25117379 -0.53063717 1.60729901
v -0.25434167 -0.53201340 1.59046664
v -0.25027772 -0.53197173 1.39159804
v -0.20184520 -0.52800986 1.39159804
v -0.17747056 -0.52260925 1.50085120
v -0.17747056 -0.52101406 1.52600999
v -0.18891116 -0.52044064 1.39159804
v -0.19305658 -0.51816781 1.60272061
v -0.20489542 -0.51266292 1.61753312
v -0.23413053 -0.50862810 1.62085468
v -0.25027772 -0.50862810 1.62029358
v -0.26074985 -0.51996106 1.61685980
v -0.26301264 -0.52275521 1.60660327
v -0.26406256 -0.52394377 1.59046664
v -0.26407163 -0.52394377 1.57433007
v -0.26408972 -0.52392288 1.41287412
v -0.26408067 -0.52392288 1.39159804
v -0.17747056 -0.52097239 1.49393875
v -0.18518210 -0.51426850 1.39159804
v -0.17747056 -0.51832420 1.52980285
v -0.19305658 -0.51536322 1.60272061
v -0.17747056 -0.51511299 1.53321420
v -0.17747056 -0.50806507 1.53819659
v -0.17747056 -0.50104844 1.53878011
v -0.22523329 -0.46736233 1.61533366
v -0.23413053 -0.47633906 1.61795948
v -0.25027772 -0.47633906 1.61818392
v -0.26005293 -0.47633906 1.61593961
v -0.26103043 -0.50862810 1.61694959
v -0.26673264 -0.50862810 1.60660327
v -0.26982812 -0.50862810 1.59046664
v -0.26989147 -0.50862810 1.57433007
v -0.26408972 -0.52392288 1.54203439
v -0.26990052 -0.50862810 1.54203439
v -0.26982812 -0.50862810 1.41287412
v -0.26799076 -0.51346573 1.39159804
v -0.18386065 -0.50878449 1.39159804
v -0.17747056 -0.47386811 1.40385196
v -0.17747056 -0.48630624 1.53649091
v -0.17747056 -0.48037388 1.53512189
v -0.17747056 -0.47626606 1.53328157
v -0.17747056 -0.47230425 1.53148610
v -0.17747056 -0.42811922 1.50605803
v -0.23413053 -0.46106512 1.60660327
v -0.23413053 -0.46606954 1.61625385
v -0.25027772 -0.46591315 1.61636607
v -0.25941029 -0.46715382 1.61546831
v -0.26540212 -0.47633906 1.60660327
v -0.26988243 -0.49247838 1.59046664
v -0.26992769 -0.49247838 1.57433007
v -0.26991864 -0.49247838 1.54203439
v -0.26976477 -0.49247838 1.41287412
v -0.26980096 -0.50862810 1.39671507
v -0.26979191 -0.50862810 1.39159804
v -0.18269305 -0.49913011 1.39159804
v -0.17747056 -0.47160571 1.40147301
v -0.21820961 -0.42811922 1.50704554
v -0.25027772 -0.46071061 1.60660327
v -0.17747056 -0.42811922 1.40183210
v -0.25925642 -0.42811922 1.50244466
v -0.26161877 -0.46508949 1.60660327
v -0.26904973 -0.47633906 1.59046664
v -0.26897733 -0.42811922 1.46130642
v -0.26908594 -0.42811922 1.44516979
v -0.26971951 -0.49247838 1.39671507
v -0.26972856 -0.49759748 1.39159804
v -0.18227670 -0.47608883 1.39159804
v -0.17747056 -0.46135702 1.39925113
v -0.23413053 -0.42811922 1.50720260
v -0.23434775 -0.42811922 1.50718018
v -0.25027772 -0.42811922 1.50520517
v -0.18576138 -0.46224324 1.39159804
v -0.19881308 -0.45899035 1.39159804
v -0.20184520 -0.45846904 1.39159804
v -0.23390426 -0.42811922 1.39978976
v -0.26406256 -0.42811922 1.49360209
v -0.26412591 -0.42811922 1.49337765
v -0.26842520 -0.42811922 1.47746547
v -0.26843425 -0.42811922 1.47724103
v -0.26885060 -0.42811922 1.42901074
v -0.26969235 -0.49247838 1.39159804
v -0.21799239 -0.45663407 1.39159804
v -0.23413053 -0.42811922 1.39978976
v -0.23413053 -0.45495553 1.39159804
v -0.26879630 -0.42811922 1.42878630
v -0.26879630 -0.47633906 1.39159804
v -0.26910403 -0.48144777 1.39159804
v -0.25027772 -0.45532044 1.39159804
v -0.25005145 -0.42811922 1.40104656
v -0.26485002 -0.42811922 1.41287412
v -0.26490433 -0.46558996 1.39159804
v -0.26477760 -0.42811922 1.41273947
v -0.25971803 -0.42811922 1.40371732
v -0.26297642 -0.46123191 1.39159804
v -0.25027772 -0.42811922 1.40106903
v -0.25958225 -0.42811922 1.40364999
f 1 2 3
f 1 3 4
f 1 4 5
f 1 5 6
f 1 6 7
f 1 7 8
f 1 8 2
f 2 9 3
f 2 8 9
f 3 9 4
f 4 10 11
f 4 11 12
f 4 12 13
f 4 13 5
f 4 9 10
f 5 13 14
f 5 14 15
f 5 15 16
f 5 16 6
f 6 16 17
f 6 17 18
f 6 18 7
f 7 18 32
f 7 32 51
f 7 51 69
f 7 69 81
f 7 81 96
f 7 96 102
f 7 102 101
f 7 101 106
f 7 106 109
f 7 109 103
f 7 103 99
f 7 99 97
f 7 97 89
f 7 89 88
f 7 88 87
f 7 87 82
f 7 82 70
f 7 70 52
f 7 52 34
f 7 34 22
f 7 22 19
f 7 19 8
f 8 19 9
f 9 20 33
f 9 33 53
f 9 53 71
f 9 71 83
f 9 83 74
f 9 74 58
f 9 58 57
f 9 57 56
f 9 56 55
f 9 55 54
f 9 54 39
f 9 39 38
f 9 38 37
f 9 37 35
f 9 35 21
f 9 21 11
f 9 11 10
f 9 19 22
f 9 22 20
f 11 23 12
f 11 21 23
f 12 23 36
f 12 36 24
f 12 24 25
f 12 25 13
f 13 25 14
f 14 25 26
f 14 26 15
f 15 26 27
f 15 27 16
f 16 27 28
f 16 28 17
f 17 28 29
f 17 29 30
f 17 30 31
f 17 31 32
f 17 32 18
f 20 22 34
f 20 34 33
f 21 35 23
f 23 35 37
f 23 37 38
f 23 38 39
f 23 39 36
f 24 40 41
f 24 41 25
f 24 36 40
f 25 42 26
f 25 41 42
f 26 42 43
f 26 43 44
f 26 44 27
f 27 44 45
f 27 45 28
f 28 45 46
f 28 46 29
f 29 46 47
f 29 47 30
f 30 47 48
f 30 48 31
f 31 48 49
f 31 49 32
f 32 49 50
f 32 50 51
f 33 34 52
f 33 52 53
f 36 39 54
f 36 54 55
f 36 55 56
f 36 56 57
f 36 57 58
f 36 58 40
f 40 59 60
f 40 60 41
f 40 58 59
f 41 60 42
f 42 61 62
f 42 62 43
f 42 60 61
f 43 62 63
f 43 63 44
f 44 63 45
f 45 63 64
f 45 64 46
f 46 64 47
f 47 64 65
f 47 65 49
f 47 49 48
f 49 65 66
f 49 66 50
f 50 67 68
f 50 68 51
f 50 66 67
f 51 68 69
f 52 70 71
f 52 71 53
f 58 72 73
f 58 73 59
f 58 74 90
f 58 90 98
f 58 98 104
f 58 104 110
f 58 110 111
f 58 111 108
f 58 108 107
f 58 107 105
f 58 105 100
f 58 100 95
f 58 95 79
f 58 79 78
f 58 78 94
f 58 94 93
f 58 93 92
f 58 92 91
f 58 91 75
f 58 75 86
f 58 86 85
f 58 85 84
f 58 84 72
f 59 73 60
f 60 73 61
f 61 73 62
f 62 73 75
f 62 75 76
f 62 76 63
f 63 76 77
f 63 77 64
f 64 77 78
f 64 78 79
f 64 79 65
f 65 79 66
f 66 79 67
f 67 79 80
f 67 80 69
f 67 69 68
f 69 80 81
f 70 82 83
f 70 83 71
f 72 84 73
f 73 84 85
f 73 85 86
f 73 86 75
f 74 83 82
f 74 82 87
f 74 87 88
f 74 88 89
f 74 89 90
f 75 91 76
f 76 91 92
f 76 92 93
f 76 93 77
f 77 93 94
f 77 94 78
f 79 95 96
f 79 96 80
f 80 96 81
f 89 97 90
f 90 97 99
f 90 99 98
f 95 100 101
f 95 101 102
f 95 102 96
f 98 99 103
f 98 103 104
f 100 105 101
f 101 105 107
f 101 107 108
f 101 108 106
f 103 109 110
f 103 110 104
f 106 108 109
f 108 111 109
f 109 111 110

