# https://github.com/mikedh/trimesh
v -0.17747056 -0.46135197 1.39924064
v -0.17747056 -0.47162020 1.40148086
v -0.17747056 -0.42811922 1.40184966
v 0.18921903 -0.42812865 1.40127595
v 0.18921903 -0.44758265 1.40007392
v 0.18921903 -0.46051436 1.40137157
v 0.18921903 -0.46327198 1.40169943
v -0.17747056 -0.47386955 1.40385769
v 0.18921903 -0.46979431 1.40329760
v -0.17747056 -0.42811922 1.50603334
v 0.00038251 -0.42811922 1.40260099
v 0.18921903 -0.42812865 1.50616991
v -0.17747056 -0.52097523 1.49391705
v 0.18921903 -0.52056109 1.49487323
v -0.17747056 -0.47229780 1.53149529
v 0.18921903 -0.47957309 1.53644014
v 0.00038251 -0.42811922 1.50392970
v -0.17747056 -0.52261286 1.50084259
v 0.18921903 -0.52371403 1.50973516
v -0.17747056 -0.47624133 1.53327103
v 0.18921903 -0.49247656 1.53810665
v -0.17747056 -0.48035425 1.53511516
v -0.17747056 -0.48631187 1.53648114
v -0.17747056 -0.50104117 1.53878964
v -0.17747056 -0.52426931 1.50973516
v 0.18921903 -0.52299875 1.51373749
v -0.17747056 -0.50805290 1.53820226
v 0.18921903 -0.50238709 1.53719142
v -0.17747056 -0.52101286 1.52601769
v 0.18921903 -0.52051403 1.52484294
v -0.17747056 -0.51510230 1.53320275
v 0.18921903 -0.51238232 1.53444578
v 0.18921903 -0.50631176 1.53668604
v -0.17747056 -0.51832112 1.52978779
f 1 2 8
f 1 8 13
f 1 13 18
f 1 18 25
f 1 25 29
f 1 29 34
f 1 34 31
f 1 31 27
f 1 27 24
f 1 24 23
f 1 23 22
f 1 22 20
f 1 20 15
f 1 15 10
f 1 10 3
f 1 3 4
f 1 4 5
f 1 5 6
f 1 6 7
f 1 7 2
f 2 7 9
f 2 9 8
f 3 10 17
f 3 17 11
f 3 11 4
f 4 12 16
f 4 16 21
f 4 21 28
f 4 28 33
f 4 33 32
f 4 32 30
f 4 30 26
f 4 26 19
f 4 19 14
f 4 14 9
f 4 9 7
f 4 7 6
f 4 6 5
f 4 11 17
f 4 17 12
f 8 9 14
f 8 14 13
f 10 15 16
f 10 16 12
f 10 12 17
f 13 14 18
f 14 19 18
f 15 20 16
f 16 20 22
f 16 22 23
f 16 23 24
f 16 24 21
f 18 19 25
f 19 26 25
f 21 24 27
f 21 27 28
f 25 26 29
f 26 30 29
f 27 31 32
f 27 32 33
f 27 33 28
f 29 30 34
f 30 32 34
f 31 34 32

