# https://github.com/mikedh/trimesh
v -0.23425839 0.42802611 0.96127483
v -0.23412928 0.42802611 0.96127483
v -0.25027743 0.42802611 0.96265696
v -0.25027743 0.45716331 0.93176754
v -0.21811782 0.42802611 0.96175748
v -0.24695818 0.45720426 0.93176754
v -0.23412928 0.45742937 0.93176754
v -0.26104034 0.42802611 0.96651814
v -0.26066056 0.46200417 0.93176754
v -0.19236887 0.42802611 0.96270083
v -0.22156620 0.46351885 0.93176754
v -0.26108591 0.42802611 0.96660589
v -0.26332661 0.46325273 0.93176754
v -0.19247519 0.51431195 0.93176754
v -0.19236887 0.45072592 0.96256920
v -0.19236887 0.42802611 1.06644805
v -0.26628889 0.42802611 0.97689505
v -0.26449633 0.46593413 0.93176754
v -0.19247519 0.51926542 0.93176754
v -0.19236887 0.46019267 0.96263503
v -0.19236887 0.44404286 1.06657969
v -0.19249039 0.51430175 1.15589136
v -0.22158898 0.46346769 1.15589136
v -0.23305070 0.45788995 1.15589136
v -0.23412928 0.45736797 1.15589136
v -0.25027743 0.45708145 1.15589136
v -0.21798871 0.42802611 1.06701846
v -0.26631167 0.42802611 0.97702669
v -0.26897771 0.47634248 0.93176754
v -0.19236887 0.47199290 0.96579416
v -0.19439688 0.52086195 0.93176754
v -0.19246760 0.51929612 0.94460156
v -0.19236887 0.47803117 0.97689505
v -0.19236887 0.45945578 1.06651386
v -0.19249039 0.51925517 1.15589136
v -0.26351650 0.46318113 1.15589136
v -0.26272655 0.42802611 1.05587370
v -0.25285233 0.42802611 1.06394706
v -0.24477824 0.42802611 1.06629449
v -0.24467191 0.42802611 1.06631641
v -0.23412928 0.42802611 1.06704038
v -0.26895493 0.42802611 0.99304180
v -0.26915240 0.47965841 0.93176754
v -0.26896251 0.42802611 0.99317343
v -0.20184053 0.52702303 0.93176754
v -0.20184053 0.52705373 0.94460156
v -0.20184053 0.52706398 0.96074831
v -0.19246001 0.51929612 0.96074831
v -0.19236887 0.47987337 0.98367406
v -0.19236887 0.46388727 1.06618480
v -0.19248280 0.51925517 1.13836247
v -0.19328792 0.51992040 1.15589136
v -0.19236887 0.46702923 1.06554858
v -0.19236887 0.46869742 1.06383737
v -0.19236887 0.47373274 1.05819916
v -0.19236887 0.48088657 1.04128457
v -0.26921317 0.47634248 1.15589136
v -0.26786875 0.42802611 1.04148202
v -0.26783078 0.42802611 1.04161366
v -0.26977524 0.49248209 0.93176754
v -0.26904607 0.42802611 1.00918853
v -0.21798871 0.53237561 0.93176754
v -0.21798871 0.53238586 0.96074831
v -0.21798871 0.53239607 0.99304180
v -0.21798871 0.53235516 1.15589136
v -0.20184053 0.52705373 0.99304180
v -0.19236887 0.48230915 1.02533529
v -0.19236887 0.48252406 1.00918853
v -0.19236887 0.48240125 1.00431819
v -0.19236887 0.48142895 0.99271272
v -0.20184053 0.52699233 1.15589136
v -0.26926635 0.47772415 1.15589136
v -0.26904607 0.42802611 1.00932017
v -0.26882579 0.42802611 1.02533529
v -0.26881819 0.42802611 1.02546692
v -0.26980563 0.49248209 0.94460156
v -0.26993474 0.50862165 0.96074831
v -0.26972967 0.50862165 0.93176754
v -0.26984359 0.49248209 0.97689505
v -0.26983601 0.49248209 0.96074831
v -0.26987398 0.49248209 1.12219380
v -0.22130035 0.53241657 0.93176754
v -0.23412928 0.53257007 0.93176754
v -0.23412928 0.53257007 1.08990031
v -0.23412928 0.53255982 1.15589136
v -0.20322293 0.52745290 1.15589136
v -0.26982081 0.49248209 1.15589136
v -0.26413934 0.52379921 0.96074831
v -0.26395705 0.52376851 0.93176754
v -0.26854476 0.51173291 0.93176754
v -0.26995755 0.50862165 0.97689505
v -0.26419251 0.52386061 1.00918853
v -0.26416972 0.52379921 0.97689505
v -0.26982841 0.50862165 1.15589136
v -0.26994994 0.50862165 1.00918853
v -0.25027743 0.53173083 0.93176754
v -0.25027743 0.53176153 0.96074831
v -0.25027743 0.53181273 1.00918853
v -0.25027743 0.53180248 1.13836247
v -0.23551165 0.53249842 1.15589136
v -0.26933471 0.50993167 1.15589136
v -0.26405580 0.52382991 1.15589136
v -0.26404819 0.52386061 1.12219380
v -0.25027743 0.53178203 1.15589136
f 1 2 5
f 1 5 10
f 1 10 16
f 1 16 27
f 1 27 41
f 1 41 40
f 1 40 39
f 1 39 38
f 1 38 37
f 1 37 59
f 1 59 58
f 1 58 75
f 1 75 74
f 1 74 73
f 1 73 61
f 1 61 44
f 1 44 42
f 1 42 28
f 1 28 17
f 1 17 12
f 1 12 8
f 1 8 3
f 1 3 4
f 1 4 2
f 2 4 6
f 2 6 7
f 2 7 5
f 3 8 4
f 4 9 13
f 4 13 18
f 4 18 29
f 4 29 43
f 4 43 60
f 4 60 78
f 4 78 90
f 4 90 89
f 4 89 96
f 4 96 83
f 4 83 82
f 4 82 62
f 4 62 45
f 4 45 31
f 4 31 19
f 4 19 14
f 4 14 11
f 4 11 7
f 4 7 6
f 4 8 9
f 5 7 10
f 7 11 10
f 8 12 13
f 8 13 9
f 10 11 14
f 10 14 15
f 10 15 20
f 10 20 30
f 10 30 33
f 10 33 49
f 10 49 70
f 10 70 69
f 10 69 68
f 10 68 67
f 10 67 56
f 10 56 55
f 10 55 54
f 10 54 53
f 10 53 50
f 10 50 34
f 10 34 21
f 10 21 16
f 12 17 13
f 13 17 18
f 14 19 15
f 15 19 20
f 16 21 22
f 16 22 23
f 16 23 24
f 16 24 25
f 16 25 26
f 16 26 27
f 17 28 29
f 17 29 18
f 19 30 20
f 19 31 32
f 19 32 33
f 19 33 30
f 21 34 35
f 21 35 22
f 22 35 52
f 22 52 71
f 22 71 86
f 22 86 65
f 22 65 85
f 22 85 100
f 22 100 104
f 22 104 102
f 22 102 101
f 22 101 94
f 22 94 87
f 22 87 72
f 22 72 57
f 22 57 36
f 22 36 26
f 22 26 25
f 22 25 24
f 22 24 23
f 26 36 37
f 26 37 38
f 26 38 39
f 26 39 40
f 26 40 41
f 26 41 27
f 28 42 29
f 29 42 44
f 29 44 43
f 31 45 32
f 32 45 46
f 32 46 47
f 32 47 48
f 32 48 49
f 32 49 33
f 34 50 35
f 35 51 52
f 35 50 53
f 35 53 54
f 35 54 55
f 35 55 56
f 35 56 51
f 36 57 58
f 36 58 59
f 36 59 37
f 43 44 60
f 44 61 60
f 45 62 46
f 46 62 47
f 47 62 63
f 47 63 64
f 47 64 65
f 47 65 66
f 47 66 52
f 47 52 48
f 48 67 68
f 48 68 69
f 48 69 70
f 48 70 49
f 48 52 51
f 48 51 67
f 51 56 67
f 52 66 71
f 57 72 73
f 57 73 74
f 57 74 75
f 57 75 58
f 60 61 76
f 60 76 77
f 60 77 78
f 61 79 80
f 61 80 76
f 61 73 81
f 61 81 79
f 62 82 63
f 63 82 64
f 64 82 83
f 64 83 84
f 64 84 85
f 64 85 65
f 65 86 66
f 66 86 71
f 72 87 73
f 73 87 81
f 76 80 77
f 77 88 89
f 77 89 90
f 77 90 78
f 77 80 91
f 77 91 92
f 77 92 93
f 77 93 88
f 79 91 80
f 79 81 91
f 81 87 94
f 81 94 95
f 81 95 91
f 83 96 97
f 83 97 98
f 83 98 84
f 84 98 99
f 84 99 100
f 84 100 85
f 88 96 89
f 88 93 92
f 88 92 96
f 91 95 92
f 92 98 97
f 92 97 96
f 92 95 101
f 92 101 102
f 92 102 103
f 92 103 99
f 92 99 98
f 94 101 95
f 99 103 102
f 99 102 104
f 99 104 100

