# https://github.com/mikedh/trimesh
v 0.23399795 0.42802606 0.96093244
v 0.23412634 0.42802606 0.96093244
v 0.21785940 0.42802606 0.96135856
v 0.23412634 0.45742572 0.79336158
v 0.25014403 0.42802606 0.96226406
v 0.19293796 0.42802606 0.96226406
v 0.22822069 0.45933846 0.79336158
v 0.24435924 0.45788013 0.79336158
v 0.26120011 0.42802606 0.96625891
v 0.25027242 0.45814432 0.79336158
v 0.19293796 0.50646031 0.79336158
v 0.20967310 0.46793007 0.79336158
v 0.21798779 0.46265675 0.79336158
v 0.19293796 0.42802606 1.06639661
v 0.26129072 0.42802606 0.96631218
v 0.25847384 0.46167395 0.79336158
v 0.26685651 0.42802606 0.97680532
v 0.19293796 0.52492227 0.79336158
v 0.21811618 0.42802606 1.06703578
v 0.23412634 0.45738342 1.33751413
v 0.22337235 0.46086022 1.33751413
v 0.21798779 0.46261449 1.33751413
v 0.21243711 0.46614413 1.33751413
v 0.20966554 0.46790895 1.33751413
v 0.20932570 0.47071998 1.33751413
v 0.20866867 0.47634205 1.33751413
v 0.20785306 0.49247911 1.33751413
v 0.19293796 0.47634205 1.07742241
v 0.26320892 0.46371355 0.79336158
v 0.26690184 0.42802606 0.97691187
v 0.22265491 0.53426420 0.79336158
v 0.19293796 0.52570430 1.03427797
v 0.23412634 0.42802606 1.06708906
v 0.23951843 0.45764761 1.33751413
v 0.23423206 0.42802606 1.06708906
v 0.24553734 0.42802606 1.06629009
v 0.25354242 0.42802606 1.06442583
v 0.20789083 0.50862670 1.33751413
v 0.19293796 0.49247911 1.07806159
v 0.19293796 0.48498655 1.07779528
v 0.26530080 0.46834224 0.79336158
v 0.26974136 0.42802606 0.99305108
v 0.23412634 0.53591280 0.79336158
v 0.22254918 0.53430650 0.84774488
v 0.22251896 0.53430650 0.86388409
v 0.19293796 0.52566200 1.04152198
v 0.22249632 0.53428533 1.33751413
v 0.22248876 0.53428533 1.33208113
v 0.22249632 0.53429591 1.29980269
v 0.22247365 0.53431704 1.12216481
v 0.22242835 0.53430650 1.07374716
v 0.22242835 0.53430650 1.05766121
v 0.25027242 0.45817603 1.33751413
v 0.26318626 0.42802606 1.05632958
v 0.20824578 0.51223035 1.33751413
v 0.19293796 0.52056831 1.07321450
v 0.19293796 0.51325544 1.07582448
v 0.19293796 0.50862670 1.07720935
v 0.19293796 0.49971806 1.07768874
v 0.26891066 0.47634205 0.79336158
v 0.26989994 0.42802606 1.00919029
v 0.26980933 0.49247911 0.79336158
v 0.24003952 0.53566974 0.79336158
v 0.23412634 0.53594447 0.83160566
v 0.23412634 0.53597618 0.91235500
v 0.23412634 0.53595506 0.84774488
v 0.19293796 0.52509137 1.05041720
v 0.21442327 0.52754308 1.33751413
v 0.23412634 0.53595506 1.33751413
v 0.23412634 0.53596564 1.31594191
v 0.23412634 0.53598677 1.12216481
v 0.25456192 0.46003594 1.33751413
v 0.26323157 0.42802606 1.05622306
v 0.26878982 0.42802606 1.04152198
v 0.20897076 0.51946931 1.33751413
v 0.19293796 0.52462637 1.05766121
v 0.26971872 0.42802606 1.02538276
v 0.26986219 0.49247911 0.79932723
v 0.27007366 0.49247911 1.17063572
v 0.27008119 0.49247911 1.18677492
v 0.27008119 0.49247911 1.21905335
v 0.27005855 0.49247911 1.33751413
v 0.26963564 0.50862670 0.79336158
v 0.26972627 0.50862670 0.79932723
v 0.25027242 0.53522587 0.79336158
v 0.25027242 0.53524704 0.91235500
v 0.25027242 0.53523645 0.84774488
v 0.25027242 0.53525758 1.08988636
v 0.21260325 0.52484831 1.33751413
v 0.24488786 0.53549010 1.33751413
v 0.25027242 0.53525758 1.31594191
v 0.26313340 0.46375580 1.33751413
v 0.26893330 0.47634205 1.33751413
v 0.26980933 0.50862670 0.83160566
v 0.26992261 0.50862670 1.31594191
v 0.26989994 0.50323711 1.33751413
v 0.26796665 0.51453413 0.79336158
v 0.26496852 0.52477435 0.79336158
v 0.26499119 0.52477435 0.79932723
v 0.26509691 0.52477435 0.83160566
v 0.25364058 0.53462353 0.79336158
v 0.25945560 0.53358785 0.84774488
v 0.25027242 0.53524704 1.33751413
v 0.25638196 0.53413740 1.33751413
v 0.25944804 0.53358785 1.31594191
v 0.25945560 0.53358785 1.29980269
v 0.26510447 0.52477435 0.84774488
v 0.26510447 0.52477435 1.31594191
v 0.26659220 0.51938476 1.33751413
v 0.26980178 0.50862670 1.33751413
v 0.26296726 0.52799750 0.79336158
v 0.25944049 0.53356672 0.79336158
v 0.25944049 0.53357731 1.33751413
v 0.26497608 0.52477435 1.33751413
f 1 2 5
f 1 5 9
f 1 9 15
f 1 15 17
f 1 17 30
f 1 30 42
f 1 42 61
f 1 61 77
f 1 77 74
f 1 74 73
f 1 73 54
f 1 54 37
f 1 37 36
f 1 36 35
f 1 35 33
f 1 33 19
f 1 19 14
f 1 14 6
f 1 6 3
f 1 3 4
f 1 4 2
f 2 4 5
f 3 6 4
f 4 7 13
f 4 13 12
f 4 12 11
f 4 11 18
f 4 18 31
f 4 31 43
f 4 43 63
f 4 63 85
f 4 85 101
f 4 101 112
f 4 112 111
f 4 111 98
f 4 98 97
f 4 97 83
f 4 83 62
f 4 62 60
f 4 60 41
f 4 41 29
f 4 29 16
f 4 16 10
f 4 10 8
f 4 8 5
f 4 6 7
f 5 8 10
f 5 10 9
f 6 11 12
f 6 12 13
f 6 13 7
f 6 14 28
f 6 28 40
f 6 40 39
f 6 39 59
f 6 59 58
f 6 58 57
f 6 57 56
f 6 56 76
f 6 76 67
f 6 67 46
f 6 46 32
f 6 32 18
f 6 18 11
f 9 10 15
f 10 16 17
f 10 17 15
f 14 19 20
f 14 20 21
f 14 21 22
f 14 22 23
f 14 23 24
f 14 24 25
f 14 25 26
f 14 26 27
f 14 27 28
f 16 29 17
f 17 29 30
f 18 32 31
f 19 33 20
f 20 34 53
f 20 53 72
f 20 72 92
f 20 92 93
f 20 93 82
f 20 82 96
f 20 96 110
f 20 110 109
f 20 109 114
f 20 114 113
f 20 113 104
f 20 104 103
f 20 103 90
f 20 90 69
f 20 69 47
f 20 47 68
f 20 68 89
f 20 89 75
f 20 75 55
f 20 55 38
f 20 38 27
f 20 27 26
f 20 26 25
f 20 25 24
f 20 24 23
f 20 23 22
f 20 22 21
f 20 33 35
f 20 35 36
f 20 36 37
f 20 37 34
f 27 38 39
f 27 39 40
f 27 40 28
f 29 41 42
f 29 42 30
f 31 32 44
f 31 44 43
f 32 45 44
f 32 46 47
f 32 47 48
f 32 48 49
f 32 49 50
f 32 50 51
f 32 51 52
f 32 52 45
f 34 37 53
f 37 54 53
f 38 55 56
f 38 56 57
f 38 57 58
f 38 58 59
f 38 59 39
f 41 60 42
f 42 60 62
f 42 62 61
f 43 44 64
f 43 64 63
f 44 45 65
f 44 65 66
f 44 66 64
f 45 52 65
f 46 67 68
f 46 68 47
f 47 69 70
f 47 70 49
f 47 49 48
f 49 70 50
f 50 70 71
f 50 71 65
f 50 65 52
f 50 52 51
f 53 54 73
f 53 73 74
f 53 74 72
f 55 75 56
f 56 75 76
f 61 62 78
f 61 78 79
f 61 79 80
f 61 80 81
f 61 81 82
f 61 82 77
f 62 83 84
f 62 84 78
f 63 64 66
f 63 66 85
f 65 86 87
f 65 87 85
f 65 85 66
f 65 71 88
f 65 88 86
f 67 76 68
f 68 76 89
f 69 90 70
f 70 90 91
f 70 91 71
f 71 91 88
f 72 74 92
f 74 77 93
f 74 93 92
f 75 89 76
f 77 82 93
f 78 84 94
f 78 94 79
f 79 94 80
f 80 94 95
f 80 95 81
f 81 95 82
f 82 95 96
f 83 97 84
f 84 97 98
f 84 98 99
f 84 99 100
f 84 100 94
f 85 87 101
f 86 102 101
f 86 101 87
f 86 88 102
f 88 91 106
f 88 106 102
f 90 103 91
f 91 103 104
f 91 104 105
f 91 105 106
f 94 100 107
f 94 107 95
f 95 108 109
f 95 109 110
f 95 110 96
f 95 107 108
f 98 111 99
f 99 111 100
f 100 102 107
f 100 111 112
f 100 112 102
f 101 102 112
f 102 106 108
f 102 108 107
f 104 113 105
f 105 108 106
f 105 113 108
f 108 113 114
f 108 114 109

