# https://github.com/mikedh/trimesh
v -0.19236887 0.45072351 0.96255397
v -0.19236887 0.42802611 0.96268635
v -0.19236887 0.46018877 0.96263544
v 0.00083913 0.46018877 0.96337882
v -0.19236887 0.42802611 1.06645474
v 0.00083913 0.44404339 0.96368432
v 0.00083913 0.42802611 0.96428514
v -0.19236887 0.47199102 0.96579227
v 0.00083913 0.47169219 0.96619961
v 0.00083913 0.46534290 0.96464156
v -0.19236887 0.44404339 1.06658712
v 0.00083913 0.42802611 1.06464209
v 0.00083913 0.43680838 1.06480503
v 0.00083913 0.44404339 1.06493741
v -0.19236887 0.47802549 0.97690231
v -0.16954173 0.47803617 0.97690231
v -0.15339062 0.47801486 0.97690231
v 0.00083913 0.47779075 0.97690231
v 0.00083913 0.47442935 0.97099597
v -0.19236887 0.45945246 1.06652601
v 0.00083913 0.45295910 1.06484576
v -0.19236887 0.47986095 0.98367425
v 0.00083913 0.48053321 0.99304293
v -0.19236887 0.48142958 0.99271706
v -0.19236887 0.46387562 1.06618997
v 0.00083913 0.46018877 1.06476429
v 0.00083913 0.48061324 1.00919373
v -0.19236887 0.48240067 1.00431590
v -0.19236887 0.48252873 1.00919373
v -0.19236887 0.46702360 1.06554841
v 0.00083913 0.47402917 1.05697403
v 0.00083913 0.48059722 1.02532417
v -0.19236887 0.48231531 1.02532417
v -0.19236887 0.46868828 1.06383761
v 0.00083913 0.47742792 1.04842002
v -0.19236887 0.48088537 1.04126112
v -0.16954173 0.47415188 1.05736100
v -0.19236887 0.47371970 1.05819603
v 0.00083913 0.48018640 1.04147497
f 1 2 5
f 1 5 11
f 1 11 20
f 1 20 25
f 1 25 30
f 1 30 34
f 1 34 38
f 1 38 36
f 1 36 33
f 1 33 29
f 1 29 28
f 1 28 24
f 1 24 22
f 1 22 15
f 1 15 8
f 1 8 3
f 1 3 4
f 1 4 2
f 2 4 6
f 2 6 7
f 2 7 12
f 2 12 5
f 3 8 9
f 3 9 10
f 3 10 4
f 4 10 9
f 4 9 19
f 4 19 18
f 4 18 23
f 4 23 27
f 4 27 32
f 4 32 39
f 4 39 35
f 4 35 31
f 4 31 26
f 4 26 21
f 4 21 14
f 4 14 13
f 4 13 12
f 4 12 7
f 4 7 6
f 5 12 13
f 5 13 14
f 5 14 11
f 8 15 16
f 8 16 17
f 8 17 18
f 8 18 19
f 8 19 9
f 11 14 20
f 14 21 20
f 15 22 16
f 16 22 17
f 17 22 18
f 18 22 24
f 18 24 23
f 20 21 26
f 20 26 25
f 23 24 28
f 23 28 29
f 23 29 27
f 25 26 30
f 26 31 30
f 27 29 32
f 29 33 32
f 30 31 34
f 31 35 36
f 31 36 37
f 31 37 38
f 31 38 34
f 32 33 39
f 33 36 39
f 35 39 36
f 36 38 37

