# https://github.com/mikedh/trimesh
v 0.23412957 -0.53623926 1.47742524
v 0.25027745 -0.53557249 1.57431443
v 0.23412957 -0.53621814 1.57431443
v 0.22225776 -0.53442935 1.57431443
v 0.22222614 -0.53442935 1.52586981
v 0.23412957 -0.53622872 1.38058951
v 0.25027745 -0.53558307 1.34827526
v 0.25976225 -0.53378370 1.57431443
v 0.25950141 -0.53361436 1.59047155
v 0.25027745 -0.53526552 1.59047155
v 0.23412957 -0.53596410 1.59047155
v 0.22261342 -0.53431295 1.59047155
v 0.18922693 -0.52371788 1.50973944
v 0.22230518 -0.53442935 1.42903413
v 0.23412957 -0.53621814 1.34827526
v 0.23412957 -0.53620755 1.33741471
v 0.23941735 -0.53599586 1.33741471
v 0.25027745 -0.53555131 1.33741471
v 0.25971483 -0.53374136 1.33741471
v 0.25971483 -0.53375194 1.34827526
v 0.26539779 -0.52477632 1.49358232
v 0.26538990 -0.52477632 1.52586981
v 0.26531875 -0.52477632 1.57431443
v 0.26538198 -0.52477632 1.33741471
v 0.26481290 -0.52477632 1.59047155
v 0.25894024 -0.53324387 1.59919208
v 0.25027745 -0.53391070 1.60023536
v 0.23412957 -0.53428119 1.60082389
v 0.22400453 -0.53373077 1.59996785
v 0.18922693 -0.52300876 1.51372522
v 0.18922693 -0.52056374 1.49486635
v 0.20908969 -0.51921951 1.33741471
v 0.21078904 -0.52186563 1.33741471
v 0.21428261 -0.52729545 1.33741471
v 0.21971267 -0.53206903 1.33741471
v 0.22235260 -0.53438701 1.33741471
v 0.22231307 -0.53441877 1.39671988
v 0.22620976 -0.53499031 1.33741471
v 0.26840134 -0.51391673 1.33741471
v 0.26986356 -0.50862449 1.33741471
v 0.26976082 -0.50862449 1.50973944
v 0.26974499 -0.50862449 1.52586981
v 0.26961064 -0.50862449 1.57431443
v 0.26908106 -0.50862449 1.59047155
v 0.26135886 -0.52477632 1.60159962
v 0.25027745 -0.52477632 1.60587966
v 0.23412957 -0.52477632 1.60689619
v 0.21836899 -0.52351678 1.60197410
v 0.20972990 -0.51730373 1.59881760
v 0.21453554 -0.52632165 1.59047155
v 0.18922693 -0.52052139 1.52482658
v 0.18922693 -0.46979017 1.40330044
v 0.20869449 -0.51575840 1.33741471
v 0.26996630 -0.49247266 1.33741471
v 0.26979244 -0.49247266 1.57431443
v 0.26918382 -0.49247266 1.59047155
v 0.26348502 -0.50862449 1.60371288
v 0.25027745 -0.50862449 1.60981193
v 0.23412957 -0.50862449 1.61066792
v 0.21798960 -0.50862449 1.60497016
v 0.20964297 -0.50862449 1.59897809
v 0.18922693 -0.49247266 1.53809466
v 0.18922693 -0.50239027 1.53718516
v 0.18922693 -0.50631710 1.53670366
v 0.18922693 -0.51239257 1.53445666
v 0.18922693 -0.46327015 1.40169543
v 0.20790409 -0.50862449 1.33741471
v 0.26878073 -0.47634195 1.33741471
v 0.26957902 -0.42811927 1.42903413
v 0.26958691 -0.42811927 1.42924813
v 0.26983984 -0.42811927 1.44516450
v 0.26983984 -0.42811927 1.44540525
v 0.26986356 -0.46019012 1.44516450
v 0.26829857 -0.47634195 1.59047155
v 0.26976872 -0.42811927 1.46132158
v 0.26306612 -0.47634195 1.60339186
v 0.26346922 -0.49247266 1.60368613
v 0.25027745 -0.49247266 1.60981193
v 0.23412957 -0.49247266 1.61069468
v 0.21798960 -0.49247266 1.60502367
v 0.20961925 -0.49247266 1.59900484
v 0.20970620 -0.47976071 1.59887111
v 0.18922693 -0.47958079 1.53643615
v 0.18922693 -0.46050763 1.40137441
v 0.20782505 -0.50333225 1.33741471
v 0.18922693 -0.44757346 1.40006367
v 0.26489985 -0.46799085 1.33741471
v 0.26565864 -0.42811927 1.41287701
v 0.26288432 -0.46402167 1.59047155
v 0.26124820 -0.46555642 1.60154610
v 0.26919963 -0.42811927 1.47742524
v 0.25027745 -0.47634195 1.60925016
v 0.23412957 -0.47634195 1.61013295
v 0.21640880 -0.47516706 1.60333835
v 0.20996702 -0.46899636 1.59721259
v 0.18922693 -0.42811927 1.50615495
v 0.20767486 -0.49247266 1.33741471
v 0.18922693 -0.42811927 1.40126744
v 0.26301078 -0.46392639 1.33741471
v 0.26023649 -0.42811927 1.40354119
v 0.25027745 -0.46369353 1.60360591
v 0.26914429 -0.42811927 1.47766599
v 0.26471805 -0.42811927 1.49358232
v 0.26464692 -0.42811927 1.49371609
v 0.25953302 -0.42811927 1.50259716
v 0.23412957 -0.46328074 1.60406066
v 0.22073227 -0.46500600 1.60216139
v 0.23412957 -0.45796738 1.59047155
v 0.20162040 -0.42811927 1.50652943
v 0.20876561 -0.47634195 1.33741471
v 0.23412957 -0.42811927 1.39963563
v 0.23412957 -0.45770275 1.33741471
v 0.21798960 -0.46299499 1.33741471
v 0.20982475 -0.46813902 1.33741471
v 0.25884539 -0.46214819 1.33741471
v 0.26015745 -0.42811927 1.40340741
v 0.25027745 -0.45879295 1.59047155
v 0.25939867 -0.42811927 1.50267743
v 0.23390036 -0.42811927 1.50722493
v 0.21798960 -0.42811927 1.50701094
v 0.25027745 -0.42811927 1.50540593
v 0.25004822 -0.42811927 1.50543269
v 0.23412957 -0.42811927 1.50722493
v 0.25027745 -0.42811927 1.40067891
v 0.24498966 -0.45823200 1.33741471
v 0.25027745 -0.45849657 1.33741471
f 1 2 3
f 1 3 4
f 1 4 5
f 1 5 6
f 1 6 7
f 1 7 2
f 2 8 9
f 2 9 10
f 2 10 11
f 2 11 3
f 2 7 8
f 3 11 12
f 3 12 4
f 4 12 13
f 4 13 5
f 5 13 14
f 5 14 6
f 6 14 15
f 6 15 7
f 7 15 16
f 7 16 17
f 7 17 18
f 7 18 19
f 7 19 20
f 7 20 8
f 8 21 22
f 8 22 23
f 8 23 9
f 8 20 24
f 8 24 21
f 9 25 26
f 9 26 10
f 9 23 25
f 10 26 27
f 10 27 11
f 11 27 28
f 11 28 29
f 11 29 12
f 12 29 13
f 13 29 30
f 13 30 51
f 13 51 65
f 13 65 64
f 13 64 63
f 13 63 62
f 13 62 83
f 13 83 96
f 13 96 98
f 13 98 86
f 13 86 84
f 13 84 66
f 13 66 52
f 13 52 31
f 13 31 32
f 13 32 33
f 13 33 34
f 13 34 35
f 13 35 36
f 13 36 37
f 13 37 14
f 14 37 15
f 15 38 16
f 15 37 38
f 16 38 36
f 16 36 35
f 16 35 34
f 16 34 33
f 16 33 32
f 16 32 53
f 16 53 67
f 16 67 85
f 16 85 97
f 16 97 110
f 16 110 114
f 16 114 113
f 16 113 112
f 16 112 125
f 16 125 126
f 16 126 115
f 16 115 99
f 16 99 87
f 16 87 68
f 16 68 54
f 16 54 40
f 16 40 39
f 16 39 24
f 16 24 19
f 16 19 18
f 16 18 17
f 19 24 20
f 21 24 39
f 21 39 40
f 21 40 22
f 22 40 41
f 22 41 42
f 22 42 23
f 23 43 25
f 23 42 43
f 25 44 45
f 25 45 26
f 25 43 44
f 26 45 46
f 26 46 27
f 27 46 47
f 27 47 28
f 28 47 29
f 29 47 48
f 29 48 49
f 29 49 50
f 29 50 51
f 29 51 30
f 31 52 32
f 32 52 53
f 36 38 37
f 40 54 41
f 41 55 42
f 41 54 55
f 42 55 43
f 43 55 44
f 44 56 57
f 44 57 45
f 44 55 56
f 45 57 58
f 45 58 46
f 46 58 47
f 47 58 59
f 47 59 48
f 48 59 60
f 48 60 49
f 49 60 61
f 49 61 62
f 49 62 63
f 49 63 64
f 49 64 65
f 49 65 51
f 49 51 50
f 52 66 67
f 52 67 53
f 54 68 69
f 54 69 70
f 54 70 71
f 54 71 72
f 54 72 73
f 54 73 55
f 55 74 56
f 55 73 72
f 55 72 75
f 55 75 74
f 56 74 76
f 56 76 77
f 56 77 57
f 57 77 78
f 57 78 58
f 58 78 79
f 58 79 59
f 59 79 80
f 59 80 60
f 60 80 61
f 61 80 81
f 61 81 62
f 62 81 82
f 62 82 83
f 66 84 67
f 67 84 86
f 67 86 85
f 68 87 88
f 68 88 69
f 69 88 100
f 69 100 116
f 69 116 124
f 69 124 111
f 69 111 98
f 69 98 96
f 69 96 109
f 69 109 120
f 69 120 119
f 69 119 123
f 69 123 122
f 69 122 121
f 69 121 118
f 69 118 105
f 69 105 104
f 69 104 103
f 69 103 102
f 69 102 91
f 69 91 75
f 69 75 72
f 69 72 71
f 69 71 70
f 74 89 90
f 74 90 76
f 74 75 91
f 74 91 89
f 76 90 92
f 76 92 78
f 76 78 77
f 78 92 93
f 78 93 79
f 79 93 80
f 80 93 94
f 80 94 82
f 80 82 81
f 82 94 95
f 82 95 83
f 83 95 96
f 85 86 97
f 86 98 97
f 87 99 88
f 88 99 100
f 89 91 90
f 90 101 92
f 90 91 102
f 90 102 103
f 90 103 104
f 90 104 105
f 90 105 101
f 92 101 93
f 93 106 107
f 93 107 94
f 93 101 106
f 94 107 95
f 95 107 96
f 96 107 106
f 96 106 108
f 96 108 109
f 97 98 110
f 98 111 112
f 98 112 113
f 98 113 114
f 98 114 110
f 99 115 116
f 99 116 100
f 101 105 117
f 101 117 108
f 101 108 106
f 105 118 117
f 108 119 120
f 108 120 109
f 108 117 121
f 108 121 122
f 108 122 123
f 108 123 119
f 111 124 112
f 112 124 125
f 115 126 116
f 116 126 124
f 117 118 121
f 124 126 125

