# https://github.com/mikedh/trimesh
v -0.18519764 -0.47093446 1.39159799
v -0.18576074 -0.46223693 1.39159799
v -0.18519764 -0.51431556 1.39159799
v -0.18519764 -0.46538997 1.38042633
v -0.19881983 -0.45898486 1.39159799
v -0.18519764 -0.46532144 1.38014934
v -0.18519764 -0.46280814 1.36443051
v -0.18519764 -0.46273196 1.36392268
v -0.18519764 -0.46248827 1.34827310
v -0.18519764 -0.46248827 1.34776532
v -0.18890750 -0.52044647 1.39159799
v -0.18519764 -0.52144418 1.38081872
v -0.20184238 -0.45846698 1.39159799
v -0.23412988 -0.45816997 1.15579247
v -0.18519764 -0.46340220 1.33211573
v -0.20184238 -0.52800924 1.39159799
v -0.18519764 -0.52487141 1.36443051
v -0.21799027 -0.45663152 1.39159799
v -0.22182435 -0.46388202 1.15579247
v -0.25027776 -0.45797195 1.15579247
v -0.23412988 -0.45495596 1.39159799
v -0.18519764 -0.46347833 1.33151561
v -0.21799027 -0.53233514 1.39159799
v -0.20184238 -0.52886224 1.38056483
v -0.18519764 -0.52538169 1.34827310
v -0.19255113 -0.51439934 1.15579247
v -0.18519764 -0.46624297 1.31907440
v -0.18519764 -0.46641814 1.31856661
v -0.26303047 -0.46369160 1.15579247
v -0.25027776 -0.45531394 1.39159799
v -0.20184238 -0.52928875 1.36440741
v -0.22310790 -0.53246464 1.39159799
v -0.21799027 -0.53238086 1.20297204
v -0.18519764 -0.52508468 1.33211573
v -0.20184238 -0.52926589 1.34827310
v -0.21799027 -0.53235800 1.15579247
v -0.19255113 -0.51919747 1.15579247
v -0.18519764 -0.47469681 1.31191898
v -0.18519764 -0.47479580 1.31187283
v -0.18519764 -0.50915186 1.30148594
v -0.26815637 -0.47533654 1.15579247
v -0.26490195 -0.46558799 1.39159799
v -0.26298078 -0.46123162 1.39159799
v -0.21799027 -0.53238846 1.17065726
v -0.23412988 -0.53273119 1.39159799
v -0.23412988 -0.53273879 1.38056483
v -0.18519764 -0.52299788 1.31595832
v -0.20184238 -0.52685922 1.15579247
v -0.23284633 -0.53272358 1.15579247
v -0.18519764 -0.51938784 1.30162443
v -0.18519764 -0.51970775 1.30261694
v -0.26859527 -0.47634186 1.15579247
v -0.26880229 -0.47634186 1.39159799
v -0.26866151 -0.47634186 1.21910633
v -0.25027776 -0.53196961 1.39159799
v -0.23412988 -0.53274644 1.17065726
v -0.23412988 -0.53274644 1.15579247
v -0.26955585 -0.49248791 1.15579247
v -0.26910868 -0.48145985 1.39159799
v -0.26408214 -0.52391942 1.39159799
v -0.26299733 -0.52455915 1.15579247
v -0.25027776 -0.53196961 1.15579247
v -0.26972148 -0.50734686 1.15579247
v -0.26969663 -0.49248791 1.39159799
v -0.26799076 -0.51347016 1.39159799
v -0.26409042 -0.52391942 1.15579247
v -0.26972976 -0.50862637 1.15579247
v -0.26972976 -0.49759830 1.39159799
v -0.26978772 -0.50862637 1.39159799
v -0.26453759 -0.52270848 1.15579247
f 1 2 5
f 1 5 13
f 1 13 18
f 1 18 21
f 1 21 30
f 1 30 43
f 1 43 42
f 1 42 53
f 1 53 59
f 1 59 64
f 1 64 68
f 1 68 69
f 1 69 65
f 1 65 60
f 1 60 55
f 1 55 45
f 1 45 32
f 1 32 23
f 1 23 16
f 1 16 11
f 1 11 3
f 1 3 12
f 1 12 17
f 1 17 25
f 1 25 34
f 1 34 47
f 1 47 51
f 1 51 50
f 1 50 40
f 1 40 39
f 1 39 38
f 1 38 28
f 1 28 27
f 1 27 22
f 1 22 15
f 1 15 10
f 1 10 9
f 1 9 8
f 1 8 7
f 1 7 6
f 1 6 4
f 1 4 2
f 2 4 6
f 2 6 7
f 2 7 8
f 2 8 9
f 2 9 10
f 2 10 5
f 3 11 12
f 5 10 14
f 5 14 13
f 10 15 14
f 11 16 12
f 12 16 17
f 13 14 18
f 14 19 26
f 14 26 37
f 14 37 48
f 14 48 36
f 14 36 49
f 14 49 57
f 14 57 62
f 14 62 61
f 14 61 66
f 14 66 70
f 14 70 67
f 14 67 63
f 14 63 58
f 14 58 52
f 14 52 41
f 14 41 29
f 14 29 20
f 14 20 21
f 14 21 18
f 14 15 19
f 15 22 19
f 16 23 24
f 16 24 17
f 17 24 25
f 19 22 27
f 19 27 28
f 19 28 26
f 20 29 30
f 20 30 21
f 23 31 24
f 23 32 33
f 23 33 31
f 24 31 25
f 25 31 35
f 25 35 36
f 25 36 34
f 26 28 38
f 26 38 39
f 26 39 40
f 26 40 37
f 29 41 42
f 29 42 43
f 29 43 30
f 31 33 44
f 31 44 35
f 32 45 46
f 32 46 44
f 32 44 33
f 34 36 48
f 34 48 37
f 34 37 47
f 35 44 36
f 36 44 49
f 37 40 50
f 37 50 51
f 37 51 47
f 41 52 42
f 42 52 54
f 42 54 53
f 44 46 49
f 45 55 46
f 46 55 56
f 46 56 49
f 49 56 57
f 52 58 54
f 53 54 59
f 54 58 59
f 55 60 61
f 55 61 62
f 55 62 57
f 55 57 56
f 58 63 64
f 58 64 59
f 60 65 66
f 60 66 61
f 63 67 68
f 63 68 64
f 65 69 66
f 66 69 70
f 67 69 68
f 67 70 69

