# https://github.com/mikedh/trimesh
v -0.17676925 0.49248401 0.25851491
v -0.17676925 0.47662645 0.25337276
v -0.17676925 0.49347653 0.25846544
v -0.19250532 0.51922119 0.42731453
v -0.19250532 0.51441888 0.42731453
v -0.17676925 0.47223639 0.24993648
v -0.17676925 0.50862406 0.25760016
v -0.20183748 0.52701639 0.42731453
v -0.17676925 0.52171780 0.25129616
v -0.17676925 0.52562682 0.23413931
v -0.22149616 0.46350980 0.42731453
v -0.17676925 0.46743408 0.24528879
v -0.21799318 0.53244476 0.42731453
v -0.17676925 0.52601623 0.21799604
v -0.22193404 0.46329604 0.42731453
v -0.17676925 0.46689204 0.24185246
v -0.21799318 0.53249058 0.34714212
v -0.23413062 0.53261271 0.42731453
v -0.17676925 0.52408462 0.20113586
v -0.20183748 0.52858150 0.17480729
v -0.20183748 0.52955876 0.18570951
v -0.21799318 0.53246767 0.17480729
v -0.21799318 0.53248293 0.18570951
v -0.23413062 0.45739429 0.42731453
v -0.17676925 0.46618961 0.23389211
v -0.25027719 0.53179579 0.29873706
v -0.24972073 0.53180340 0.42731453
v -0.23413062 0.53257455 0.18570951
v -0.17676925 0.52041986 0.18790974
v -0.18819043 0.52099251 0.17480729
v -0.23413062 0.53256690 0.17480729
v -0.25027719 0.45709652 0.42731453
v -0.23413062 0.45461521 0.17480729
v -0.19868114 0.46024974 0.17480729
v -0.18641157 0.46269289 0.17480729
v -0.17676925 0.46559410 0.22692056
v -0.26416142 0.52384791 0.29873706
v -0.26416142 0.52384791 0.31485559
v -0.25027719 0.53177289 0.42731453
v -0.25027719 0.53175759 0.18570951
v -0.17676925 0.50862406 0.18093824
v -0.18385732 0.51376231 0.17480729
v -0.23936685 0.53229968 0.17480729
v -0.26332216 0.46320442 0.42731453
v -0.25027719 0.45495880 0.17480729
v -0.18287211 0.47674098 0.17480729
v -0.17676925 0.47633632 0.18454761
v -0.17676925 0.46935044 0.18983807
v -0.17676925 0.46749520 0.19159327
v -0.17676925 0.46680807 0.19572182
v -0.17676925 0.46556359 0.21077730
v -0.17676925 0.46555594 0.21799604
v -0.26995411 0.50862406 0.29873706
v -0.26407933 0.52381740 0.18570951
v -0.26413404 0.52381740 0.25028258
v -0.26995411 0.50862406 0.31485559
v -0.26432561 0.52329821 0.42731453
v -0.26412492 0.52381740 0.42731453
v -0.26365056 0.52409222 0.42731453
v -0.25027719 0.53173468 0.17480729
v -0.17676925 0.49248401 0.17987523
v -0.18185952 0.49825593 0.17480729
v -0.18255282 0.50855534 0.17480729
v -0.26875907 0.47588585 0.42731453
v -0.26500981 0.46567047 0.17480729
v -0.26303025 0.46108191 0.17480729
v -0.18199635 0.49248401 0.17480729
v -0.26979903 0.49248401 0.29873706
v -0.26797457 0.51355615 0.17480729
v -0.26984465 0.50862406 0.17480729
v -0.26979903 0.49772149 0.17480729
v -0.26976256 0.49248401 0.17480729
v -0.26406107 0.52379449 0.17480729
v -0.26989937 0.50862406 0.42731453
v -0.26979903 0.49248401 0.31485559
v -0.26895065 0.47633632 0.42731453
v -0.26896891 0.47633632 0.20185278
v -0.26894153 0.47633632 0.17480729
v -0.26904189 0.47633632 0.31485559
v -0.26974429 0.49248401 0.42731453
f 1 2 6
f 1 6 12
f 1 12 16
f 1 16 25
f 1 25 36
f 1 36 52
f 1 52 51
f 1 51 50
f 1 50 49
f 1 49 48
f 1 48 47
f 1 47 61
f 1 61 41
f 1 41 29
f 1 29 19
f 1 19 14
f 1 14 10
f 1 10 9
f 1 9 7
f 1 7 3
f 1 3 4
f 1 4 5
f 1 5 2
f 2 5 6
f 3 7 4
f 4 8 13
f 4 13 18
f 4 18 27
f 4 27 39
f 4 39 59
f 4 59 58
f 4 58 57
f 4 57 74
f 4 74 80
f 4 80 76
f 4 76 64
f 4 64 44
f 4 44 32
f 4 32 24
f 4 24 15
f 4 15 11
f 4 11 5
f 4 7 9
f 4 9 10
f 4 10 8
f 5 11 12
f 5 12 6
f 8 10 13
f 10 14 13
f 11 15 16
f 11 16 12
f 13 17 18
f 13 14 17
f 14 19 20
f 14 20 21
f 14 21 22
f 14 22 23
f 14 23 17
f 15 24 16
f 16 24 25
f 17 23 18
f 18 26 27
f 18 23 28
f 18 28 26
f 19 29 20
f 20 30 42
f 20 42 63
f 20 63 62
f 20 62 67
f 20 67 46
f 20 46 35
f 20 35 34
f 20 34 33
f 20 33 45
f 20 45 66
f 20 66 65
f 20 65 78
f 20 78 72
f 20 72 71
f 20 71 70
f 20 70 69
f 20 69 73
f 20 73 60
f 20 60 43
f 20 43 31
f 20 31 22
f 20 22 21
f 20 29 30
f 22 31 23
f 23 31 28
f 24 32 33
f 24 33 34
f 24 34 35
f 24 35 36
f 24 36 25
f 26 37 38
f 26 38 39
f 26 39 27
f 26 28 40
f 26 40 37
f 28 31 40
f 29 41 42
f 29 42 30
f 31 43 40
f 32 44 45
f 32 45 33
f 35 46 47
f 35 47 48
f 35 48 49
f 35 49 50
f 35 50 51
f 35 51 52
f 35 52 36
f 37 53 56
f 37 56 38
f 37 40 54
f 37 54 55
f 37 55 53
f 38 56 57
f 38 57 58
f 38 58 59
f 38 59 39
f 40 43 60
f 40 60 54
f 41 61 62
f 41 62 63
f 41 63 42
f 44 64 65
f 44 65 66
f 44 66 45
f 46 67 61
f 46 61 47
f 53 68 75
f 53 75 56
f 53 55 69
f 53 69 70
f 53 70 71
f 53 71 72
f 53 72 68
f 54 60 73
f 54 73 69
f 54 69 55
f 56 74 57
f 56 75 80
f 56 80 74
f 61 67 62
f 64 76 65
f 65 77 78
f 65 76 79
f 65 79 77
f 68 79 75
f 68 72 79
f 72 78 77
f 72 77 79
f 75 79 80
f 76 80 79

