# https://github.com/mikedh/trimesh
v 0.23397021 0.42806658 0.52057938
v 0.23412738 0.42806658 0.52057938
v 0.21783152 0.42806658 0.52094539
v 0.23412738 0.45745786 0.25919579
v 0.25027432 0.42806658 0.52214801
v 0.18557067 0.42806658 0.52193884
v 0.21798868 0.46257123 0.25919579
v 0.24304460 0.45784876 0.25919579
v 0.26265752 0.42806658 0.52821330
v 0.25027432 0.45816573 0.25919579
v 0.18557067 0.49248021 0.51216115
v 0.20768174 0.49248021 0.25919579
v 0.20853376 0.47633719 0.25919579
v 0.20960086 0.46783253 0.25919579
v 0.18557067 0.42806658 0.62933671
v 0.26278160 0.42806658 0.52831789
v 0.26315385 0.46371225 0.25919579
v 0.26839003 0.42806658 0.54091908
v 0.26834041 0.42806658 0.54076223
v 0.18557067 0.50528474 0.51299775
v 0.20771485 0.50139689 0.25919579
v 0.21798868 0.42806658 0.63033016
v 0.23412738 0.45742620 0.79330929
v 0.22821287 0.45933841 0.79330929
v 0.21798868 0.46265574 0.79330929
v 0.21494457 0.46458912 0.79330929
v 0.20967531 0.46793816 0.79330929
v 0.18557067 0.50948953 0.79325701
v 0.26891116 0.47633719 0.25919579
v 0.26968046 0.42806658 0.55686668
v 0.18557067 0.50862324 0.51325917
v 0.20776447 0.50862324 0.25919579
v 0.23412738 0.42806658 0.63053931
v 0.24435984 0.45788047 0.79330929
v 0.24394624 0.42806658 0.63001644
v 0.18569475 0.50950011 0.79330929
v 0.18557067 0.52389993 0.79330929
v 0.26941577 0.48356349 0.25919579
v 0.26968874 0.42806658 0.55702354
v 0.18557067 0.51467686 0.51566439
v 0.20840143 0.51463461 0.25919579
v 0.18557067 0.52091007 0.52282773
v 0.25027432 0.45814456 0.79330929
v 0.25193700 0.42806658 0.62792495
v 0.18557067 0.52419573 0.79330929
v 0.26997826 0.49248021 0.25919579
v 0.26979627 0.42806658 0.57302342
v 0.20892256 0.51949443 0.25919579
v 0.18557067 0.52136439 0.52423947
v 0.26321176 0.46371225 0.79330929
v 0.26302977 0.42806658 0.61982044
v 0.22265409 0.53426401 0.79330929
v 0.18557067 0.52578048 0.78311328
v 0.26973838 0.50862324 0.25919579
v 0.26984590 0.50862324 0.36335184
v 0.27006926 0.49248021 0.36335184
v 0.26979627 0.42806658 0.57318028
v 0.21139588 0.52310755 0.25919579
v 0.18557067 0.52513603 0.54091908
v 0.26891116 0.47633719 0.79330929
v 0.26855547 0.42806658 0.60549376
v 0.23412738 0.53591213 0.79330929
v 0.23412738 0.53592267 0.78311328
v 0.22257137 0.53428513 0.73464308
v 0.18557067 0.52554805 0.55702354
v 0.22251348 0.53429572 0.65391168
v 0.22253828 0.53429572 0.25919579
v 0.26497369 0.52477680 0.25919579
v 0.26503161 0.52477680 0.26646371
v 0.27006098 0.49248021 0.47634443
v 0.26512258 0.52477680 0.54091908
v 0.26977974 0.50862324 0.55702354
v 0.27003618 0.49248021 0.55702354
v 0.26959774 0.42806658 0.58933702
v 0.26981282 0.49248021 0.79330929
v 0.21446480 0.52756594 0.25919579
v 0.24004185 0.53566912 0.79330929
v 0.23412738 0.53594379 0.73464308
v 0.25027432 0.53524651 0.78311328
v 0.23412738 0.53596492 0.65391168
v 0.23412738 0.53598605 0.26646371
v 0.23412738 0.53597551 0.25919579
v 0.26253346 0.52871749 0.25919579
v 0.25950588 0.53361956 0.33103836
v 0.25950588 0.53363010 0.34719510
v 0.25951416 0.53361956 0.57318028
v 0.25945627 0.53359844 0.76695656
v 0.25945627 0.53358785 0.78311328
v 0.26296360 0.52799908 0.79330929
v 0.26496542 0.52477680 0.79330929
v 0.26796817 0.51453952 0.79330929
v 0.26963910 0.50862324 0.79330929
v 0.25027432 0.53522539 0.79330929
v 0.25364104 0.53462319 0.79330929
v 0.25027432 0.53530993 0.34719510
v 0.25027432 0.53528881 0.29872488
v 0.25027432 0.53526768 0.25919579
v 0.25944799 0.53358785 0.25919579
v 0.25945627 0.53358785 0.26646371
v 0.25438553 0.53451756 0.25919579
v 0.25943972 0.53356672 0.79330929
f 1 2 5
f 1 5 9
f 1 9 16
f 1 16 19
f 1 19 18
f 1 18 30
f 1 30 39
f 1 39 47
f 1 47 57
f 1 57 74
f 1 74 61
f 1 61 51
f 1 51 44
f 1 44 35
f 1 35 33
f 1 33 22
f 1 22 15
f 1 15 6
f 1 6 3
f 1 3 4
f 1 4 2
f 2 4 5
f 3 6 4
f 4 7 14
f 4 14 13
f 4 13 12
f 4 12 21
f 4 21 32
f 4 32 41
f 4 41 48
f 4 48 58
f 4 58 76
f 4 76 67
f 4 67 82
f 4 82 97
f 4 97 100
f 4 100 98
f 4 98 83
f 4 83 68
f 4 68 54
f 4 54 46
f 4 46 38
f 4 38 29
f 4 29 17
f 4 17 10
f 4 10 8
f 4 8 5
f 4 6 7
f 5 8 10
f 5 10 9
f 6 11 12
f 6 12 13
f 6 13 14
f 6 14 7
f 6 15 28
f 6 28 37
f 6 37 45
f 6 45 53
f 6 53 65
f 6 65 59
f 6 59 49
f 6 49 42
f 6 42 40
f 6 40 31
f 6 31 20
f 6 20 11
f 9 10 16
f 10 17 18
f 10 18 19
f 10 19 16
f 11 20 21
f 11 21 12
f 15 22 23
f 15 23 24
f 15 24 25
f 15 25 26
f 15 26 27
f 15 27 28
f 17 29 30
f 17 30 18
f 20 31 21
f 21 31 32
f 22 33 23
f 23 34 43
f 23 43 50
f 23 50 60
f 23 60 75
f 23 75 92
f 23 92 91
f 23 91 90
f 23 90 89
f 23 89 101
f 23 101 94
f 23 94 93
f 23 93 77
f 23 77 62
f 23 62 52
f 23 52 45
f 23 45 37
f 23 37 36
f 23 36 27
f 23 27 26
f 23 26 25
f 23 25 24
f 23 33 35
f 23 35 34
f 27 36 28
f 28 36 37
f 29 38 39
f 29 39 30
f 31 40 32
f 32 40 42
f 32 42 41
f 34 35 43
f 35 44 43
f 38 46 39
f 39 46 47
f 41 42 48
f 42 49 48
f 43 44 51
f 43 51 50
f 45 52 53
f 46 54 55
f 46 55 56
f 46 56 47
f 47 56 57
f 48 49 59
f 48 59 58
f 50 51 61
f 50 61 60
f 52 62 63
f 52 63 64
f 52 64 53
f 53 64 66
f 53 66 67
f 53 67 65
f 54 68 69
f 54 69 55
f 55 70 56
f 55 69 71
f 55 71 72
f 55 72 73
f 55 73 70
f 56 70 57
f 57 70 73
f 57 73 75
f 57 75 74
f 58 59 76
f 59 65 67
f 59 67 76
f 60 61 74
f 60 74 75
f 62 77 63
f 63 78 64
f 63 77 79
f 63 79 78
f 64 78 80
f 64 80 66
f 66 80 81
f 66 81 67
f 67 81 82
f 68 83 69
f 69 83 84
f 69 84 85
f 69 85 71
f 71 86 87
f 71 87 88
f 71 88 89
f 71 89 90
f 71 90 91
f 71 91 72
f 71 85 86
f 72 91 92
f 72 92 73
f 73 92 75
f 77 93 79
f 78 79 80
f 79 93 94
f 79 94 88
f 79 88 87
f 79 87 86
f 79 86 95
f 79 95 80
f 80 95 81
f 81 95 96
f 81 96 97
f 81 97 82
f 83 98 99
f 83 99 84
f 84 99 98
f 84 98 85
f 85 98 100
f 85 100 96
f 85 96 95
f 85 95 86
f 88 94 101
f 88 101 89
f 96 100 97

