# https://github.com/mikedh/trimesh
v 0.23412807 -0.53618104 0.75083367
v 0.22230191 -0.53439004 0.70510928
v 0.22428606 -0.53468984 0.70510928
v 0.23412807 -0.53617334 0.70510928
v 0.25027350 -0.53555074 0.76697724
v 0.23412807 -0.53618104 0.79288085
v 0.22230191 -0.53439004 0.71854651
v 0.19683021 -0.52656510 0.78312082
v 0.21422919 -0.52759510 0.70510928
v 0.23684284 -0.53606574 0.70510928
v 0.25968571 -0.53374439 0.78312082
v 0.25027350 -0.53555074 0.78312082
v 0.25027350 -0.53554304 0.75083367
v 0.25967140 -0.53373669 0.71854651
v 0.25027350 -0.53554304 0.79288085
v 0.22239505 -0.53436699 0.79288085
v 0.22233056 -0.53439004 0.73469009
v 0.19683021 -0.52609620 0.78985662
v 0.19683021 -0.52071561 0.76979528
v 0.20897153 -0.51951651 0.70510928
v 0.20985259 -0.52087701 0.70510928
v 0.25027350 -0.53549694 0.70510928
v 0.25027350 -0.53551999 0.71854651
v 0.26533018 -0.52477411 0.78312082
v 0.26532303 -0.52477411 0.79288085
v 0.25967140 -0.53372899 0.79288085
v 0.26531586 -0.52477411 0.71854651
v 0.25185654 -0.53519714 0.70510928
v 0.25964991 -0.53371364 0.70510928
v 0.19683021 -0.52588100 0.79288085
v 0.19683021 -0.51017728 0.76923683
v 0.20766069 -0.49249046 0.70510928
v 0.20781112 -0.50591124 0.70510928
v 0.20784695 -0.50862459 0.70510928
v 0.26982141 -0.50862459 0.79288085
v 0.26982141 -0.50862459 0.71854651
v 0.26513678 -0.52477411 0.70510928
v 0.26890455 -0.51133798 0.70510928
v 0.26966381 -0.50862459 0.70510928
v 0.19683021 -0.50483509 0.79288085
v 0.19683021 -0.50866303 0.77170261
v 0.20963053 -0.46788566 0.70510928
v 0.20869218 -0.47491889 0.70510928
v 0.20850595 -0.47634089 0.70510928
v 0.26989304 -0.50222935 0.79288085
v 0.27000764 -0.49249046 0.73469009
v 0.26994318 -0.49520381 0.70510928
v 0.26999330 -0.49249046 0.71854651
v 0.20967350 -0.46793181 0.79288085
v 0.19683021 -0.50375129 0.78359336
v 0.19683021 -0.50373594 0.78312082
v 0.20963053 -0.46787796 0.71854651
v 0.21798979 -0.46272027 0.73469009
v 0.21798979 -0.46273567 0.71854651
v 0.21798979 -0.46275102 0.70510928
v 0.26999330 -0.49249046 0.79288085
v 0.26886872 -0.47634089 0.73469009
v 0.26997181 -0.49249046 0.70510928
v 0.21798979 -0.46278177 0.79288085
v 0.20964485 -0.46789336 0.76697724
v 0.20963053 -0.46787796 0.75083367
v 0.23412807 -0.45766248 0.73469009
v 0.21798979 -0.46272027 0.75083367
v 0.23142045 -0.45854647 0.70510928
v 0.26953489 -0.48609518 0.79288085
v 0.26886155 -0.47634089 0.75083367
v 0.26303085 -0.46392706 0.73469009
v 0.26303802 -0.46391936 0.75083367
v 0.26880426 -0.47634089 0.70510928
v 0.26399071 -0.46601016 0.70510928
v 0.23412807 -0.45767787 0.79288085
v 0.21798979 -0.46274332 0.76697724
v 0.25027350 -0.45848497 0.73469009
v 0.24755874 -0.45835427 0.70510928
v 0.23412807 -0.45770093 0.70510928
v 0.24052464 -0.45800072 0.79288085
v 0.25027350 -0.45849267 0.78312082
v 0.25027350 -0.45848497 0.75083367
v 0.26883289 -0.47634089 0.79288085
v 0.26300936 -0.46392706 0.70510928
v 0.26086763 -0.46301237 0.70510928
v 0.25027350 -0.45849267 0.70510928
v 0.26300936 -0.46393476 0.79288085
v 0.25027350 -0.45850032 0.79288085
f 1 2 3
f 1 3 4
f 1 4 5
f 1 5 12
f 1 12 6
f 1 6 7
f 1 7 2
f 2 7 8
f 2 8 9
f 2 9 21
f 2 21 20
f 2 20 34
f 2 34 33
f 2 33 32
f 2 32 44
f 2 44 43
f 2 43 42
f 2 42 55
f 2 55 64
f 2 64 75
f 2 75 74
f 2 74 82
f 2 82 81
f 2 81 80
f 2 80 70
f 2 70 69
f 2 69 58
f 2 58 47
f 2 47 39
f 2 39 38
f 2 38 37
f 2 37 29
f 2 29 28
f 2 28 22
f 2 22 10
f 2 10 4
f 2 4 3
f 4 10 5
f 5 11 12
f 5 10 13
f 5 13 14
f 5 14 11
f 6 12 15
f 6 15 26
f 6 26 25
f 6 25 35
f 6 35 45
f 6 45 56
f 6 56 65
f 6 65 79
f 6 79 83
f 6 83 84
f 6 84 76
f 6 76 71
f 6 71 59
f 6 59 49
f 6 49 40
f 6 40 30
f 6 30 16
f 6 16 17
f 6 17 7
f 7 17 8
f 8 16 18
f 8 18 30
f 8 30 40
f 8 40 50
f 8 50 51
f 8 51 41
f 8 41 31
f 8 31 19
f 8 19 20
f 8 20 21
f 8 21 9
f 8 17 16
f 10 22 23
f 10 23 13
f 11 24 25
f 11 25 26
f 11 26 15
f 11 15 12
f 11 14 27
f 11 27 24
f 13 23 14
f 14 23 28
f 14 28 29
f 14 29 27
f 16 30 18
f 19 31 32
f 19 32 33
f 19 33 34
f 19 34 20
f 22 28 23
f 24 35 25
f 24 27 36
f 24 36 35
f 27 29 37
f 27 37 38
f 27 38 39
f 27 39 36
f 31 41 42
f 31 42 43
f 31 43 44
f 31 44 32
f 35 36 46
f 35 46 45
f 36 39 47
f 36 47 48
f 36 48 46
f 40 49 50
f 41 51 42
f 42 52 53
f 42 53 54
f 42 54 55
f 42 51 52
f 45 46 56
f 46 48 57
f 46 57 56
f 47 58 48
f 48 58 57
f 49 59 60
f 49 60 51
f 49 51 50
f 51 60 61
f 51 61 52
f 52 61 63
f 52 63 53
f 53 62 54
f 53 63 62
f 54 62 55
f 55 62 64
f 56 57 66
f 56 66 65
f 57 67 68
f 57 68 66
f 57 58 69
f 57 69 70
f 57 70 67
f 59 71 72
f 59 72 61
f 59 61 60
f 61 72 63
f 62 73 74
f 62 74 75
f 62 75 64
f 62 63 71
f 62 71 76
f 62 76 77
f 62 77 78
f 62 78 73
f 63 72 71
f 65 66 79
f 66 68 79
f 67 70 80
f 67 80 68
f 68 80 81
f 68 81 82
f 68 82 73
f 68 73 78
f 68 78 77
f 68 77 83
f 68 83 79
f 73 82 74
f 76 84 77
f 77 84 83

