# https://github.com/mikedh/trimesh
v 0.08845782 0.49209163 0.50851458
v 0.08903288 0.49931697 0.50851458
v 0.08849376 0.49045948 0.50851458
v 0.00200152 0.44404344 0.52254369
v 0.00200152 0.46019315 0.52266219
v 0.08987750 0.50827950 0.50851458
v 0.09047053 0.47839492 0.50851458
v 0.00200152 0.43408829 0.52288730
v 0.00200152 0.46512775 0.52468835
v 0.10094736 0.52101214 0.50851458
v 0.09715557 0.47061599 0.50851458
v 0.00200152 0.42805604 0.52310060
v 0.00200152 0.47326942 0.52804157
v 0.10400234 0.52182347 0.50851458
v 0.00200152 0.47558880 0.53289964
v 0.00200152 0.47939715 0.54093320
v 0.00200152 0.47984575 0.54702354
v 0.00200152 0.48058066 0.55707142
v 0.00200152 0.48061887 0.57320963
v 0.00200152 0.48060929 0.57929997
v 0.00200152 0.48059024 0.58935971
v 0.00200152 0.48041844 0.59545004
v 0.00200152 0.48012254 0.60550978
v 0.10470320 0.46528049 0.50851458
v 0.00200152 0.42805604 0.62745396
v 0.10517043 0.46514685 0.50851458
v 0.12098452 0.46207346 0.50851458
v 0.12109233 0.46206389 0.50851458
v 0.13712207 0.46165350 0.50851458
v 0.18551675 0.42805604 0.52191570
v 0.10393046 0.52156573 0.50968762
v 0.12109233 0.52523093 0.50863305
v 0.12109233 0.52524045 0.50851458
v 0.00200152 0.47397571 0.62041570
v 0.18557066 0.51888367 0.58748758
v 0.18557066 0.52394237 0.57320963
v 0.16954093 0.52445780 0.55707142
v 0.15338541 0.52476323 0.54093320
v 0.13724786 0.52503050 0.52478313
v 0.00200152 0.44404344 0.62788051
v 0.18557066 0.42805604 0.62933792
v 0.15329555 0.46232163 0.50851458
v 0.18557066 0.42805604 0.52191570
v 0.18557066 0.52554588 0.55707142
v 0.16954093 0.52555546 0.54093320
v 0.13724786 0.52556499 0.50863305
v 0.13724786 0.52555546 0.50851458
v 0.00200152 0.46877384 0.62317650
v 0.16954093 0.46019315 0.62885212
v 0.18557066 0.47400434 0.62104369
v 0.00200152 0.46019315 0.62771463
v 0.18557066 0.44385259 0.62956306
v 0.16724070 0.46510869 0.50851458
v 0.17496804 0.47269673 0.50851458
v 0.17707060 0.47634282 0.50851458
v 0.17890358 0.48352047 0.50851458
v 0.18109599 0.49248296 0.50851458
v 0.18557066 0.49248296 0.51214036
v 0.16763606 0.46523275 0.50851458
v 0.18557066 0.52513545 0.54093320
v 0.15338541 0.52477276 0.50863305
v 0.16954093 0.52497323 0.52478313
v 0.15338541 0.52474413 0.50851458
v 0.18557066 0.45907639 0.62919575
v 0.18557066 0.47389939 0.62110294
v 0.18557066 0.45872327 0.62920759
v 0.18073658 0.49827662 0.50851458
v 0.18557066 0.50528243 0.51295793
v 0.18557066 0.52136530 0.52420254
v 0.16346688 0.52239612 0.50851458
v 0.17990994 0.50862309 0.50851458
v 0.18557066 0.50862309 0.51323044
v 0.18557066 0.52090714 0.52280436
v 0.16973861 0.52091671 0.50851458
v 0.18120382 0.51890277 0.51370442
v 0.18557066 0.51468398 0.51562392
f 1 2 6
f 1 6 10
f 1 10 14
f 1 14 33
f 1 33 47
f 1 47 63
f 1 63 70
f 1 70 74
f 1 74 71
f 1 71 67
f 1 67 57
f 1 57 56
f 1 56 55
f 1 55 54
f 1 54 59
f 1 59 53
f 1 53 42
f 1 42 29
f 1 29 28
f 1 28 27
f 1 27 26
f 1 26 24
f 1 24 11
f 1 11 7
f 1 7 3
f 1 3 4
f 1 4 5
f 1 5 2
f 2 5 6
f 3 7 4
f 4 8 12
f 4 12 25
f 4 25 40
f 4 40 51
f 4 51 48
f 4 48 34
f 4 34 23
f 4 23 22
f 4 22 21
f 4 21 20
f 4 20 19
f 4 19 18
f 4 18 17
f 4 17 16
f 4 16 15
f 4 15 13
f 4 13 9
f 4 9 5
f 4 7 8
f 5 9 10
f 5 10 6
f 7 11 12
f 7 12 8
f 9 13 10
f 10 13 15
f 10 15 16
f 10 16 17
f 10 17 18
f 10 18 19
f 10 19 20
f 10 20 21
f 10 21 22
f 10 22 23
f 10 23 14
f 11 24 12
f 12 24 26
f 12 26 27
f 12 27 28
f 12 28 29
f 12 29 30
f 12 30 43
f 12 43 41
f 12 41 25
f 14 23 31
f 14 31 32
f 14 32 33
f 23 34 35
f 23 35 36
f 23 36 37
f 23 37 38
f 23 38 39
f 23 39 31
f 25 41 40
f 29 42 43
f 29 43 30
f 31 39 32
f 32 39 33
f 33 39 44
f 33 44 45
f 33 45 46
f 33 46 47
f 34 48 49
f 34 49 50
f 34 50 35
f 35 50 65
f 35 65 64
f 35 64 66
f 35 66 52
f 35 52 41
f 35 41 43
f 35 43 58
f 35 58 68
f 35 68 72
f 35 72 76
f 35 76 73
f 35 73 69
f 35 69 60
f 35 60 44
f 35 44 36
f 36 44 37
f 37 44 38
f 38 44 39
f 40 41 52
f 40 52 51
f 42 53 43
f 43 54 55
f 43 55 56
f 43 56 57
f 43 57 58
f 43 53 59
f 43 59 54
f 44 60 45
f 45 60 46
f 46 61 47
f 46 60 62
f 46 62 61
f 47 61 63
f 48 51 49
f 49 64 65
f 49 65 50
f 49 51 64
f 51 52 66
f 51 66 64
f 57 67 58
f 58 67 68
f 60 69 62
f 61 62 69
f 61 69 63
f 63 69 70
f 67 71 68
f 68 71 72
f 69 73 74
f 69 74 70
f 71 74 75
f 71 75 76
f 71 76 72
f 73 76 75
f 73 75 74

