# https://github.com/mikedh/trimesh
v -0.23412670 -0.53276636 1.02534046
v -0.25027047 -0.53195715 0.96075135
v -0.25027047 -0.53194690 0.93143260
v -0.23412670 -0.53272541 0.96075135
v -0.21799179 -0.53232590 0.96075135
v -0.21799179 -0.53237711 1.07376583
v -0.21799179 -0.53237711 1.12221317
v -0.23412670 -0.53275611 1.10604943
v -0.25027047 -0.53196740 1.15579247
v -0.25027047 -0.53196740 1.15449674
v -0.26409030 -0.52392625 0.93143260
v -0.23412670 -0.53270491 0.93143260
v -0.21799179 -0.53230540 0.93143260
v -0.20183918 -0.52687635 0.93143260
v -0.20183918 -0.52690710 0.99305689
v -0.20183918 -0.52693785 1.07376583
v -0.21799179 -0.53235661 1.15579247
v -0.23284546 -0.53271516 1.15579247
v -0.23412670 -0.53274586 1.15579247
v -0.20183918 -0.52693785 1.08990763
v -0.26299461 -0.52456136 1.15579247
v -0.26409030 -0.52392625 1.15449674
v -0.26513298 -0.52109905 0.93143260
v -0.26409915 -0.52391600 1.13835497
v -0.26410798 -0.52389555 1.07376583
v -0.26976316 -0.50862256 1.08990763
v -0.19251697 -0.51924501 0.93143260
v -0.19249930 -0.51927571 0.99305689
v -0.20183918 -0.52685590 1.15579247
v -0.19249930 -0.51926546 1.04148226
v -0.19250814 -0.51926546 1.07376583
v -0.19251697 -0.51924501 1.10604943
v -0.19252582 -0.51923476 1.12221317
v -0.19253465 -0.51922451 1.13835497
v -0.26409030 -0.52391600 1.15579247
v -0.26973664 -0.50862256 1.15449674
v -0.26974547 -0.50862256 1.13835497
v -0.26970130 -0.50862256 0.94460958
v -0.26969247 -0.50862256 0.93143260
v -0.26963946 -0.49247887 1.10604943
v -0.19251697 -0.51435887 0.93143260
v -0.17949240 -0.44404782 0.96231064
v -0.17949240 -0.46019147 0.96378206
v -0.17949240 -0.46991250 0.96716415
v -0.17949240 -0.47357967 0.97689315
v -0.17949240 -0.47440938 0.98310829
v -0.17949240 -0.47571031 0.99305689
v -0.17949240 -0.47580251 1.00919869
v -0.19255232 -0.51920401 1.15449674
v -0.19255232 -0.51919376 1.15579247
v -0.17949240 -0.47579226 1.01539186
v -0.17949240 -0.47577176 1.02534046
v -0.26972781 -0.50862256 1.15579247
v -0.26971898 -0.50734209 1.15579247
v -0.26960412 -0.49247887 1.13835497
v -0.26962178 -0.49247887 1.12221317
v -0.26955992 -0.49247887 0.94460958
v -0.26966595 -0.50564171 0.93143260
v -0.26898558 -0.42811922 1.00919869
v -0.26898558 -0.42811922 1.00897907
v -0.22178251 -0.46387913 0.93143260
v -0.17949240 -0.42811922 0.96266202
v -0.17949240 -0.43410138 0.96250829
v -0.19255232 -0.51439987 1.15579247
v -0.17949240 -0.47543375 1.04148226
v -0.17949240 -0.47402012 1.04686285
v -0.17949240 -0.47168463 1.05564750
v -0.17949240 -0.46214800 1.06372939
v -0.17949240 -0.45904420 1.06465176
v -0.17949240 -0.45406590 1.06603536
v -0.17949240 -0.44404782 1.06632084
v -0.26955109 -0.49247887 1.15579247
v -0.26954226 -0.49247887 0.93143260
v -0.26880886 -0.42811922 1.02534046
v -0.26883535 -0.42811922 0.99305689
v -0.23412670 -0.45817353 0.93143260
v -0.23412670 -0.42811922 0.96112470
v -0.17949240 -0.42811922 1.06621105
v -0.22182671 -0.46388938 1.15579247
v -0.26948039 -0.49119844 1.15579247
v -0.26866747 -0.47634542 0.93143260
v -0.26859678 -0.47634542 1.15579247
v -0.26788987 -0.42811922 1.04148226
v -0.26880000 -0.42811922 0.99283728
v -0.25027047 -0.45795842 0.93143260
v -0.25004957 -0.42811922 0.96257418
v -0.21821269 -0.42811922 1.06706754
v -0.25027047 -0.45797888 1.15579247
v -0.23540797 -0.45815303 1.15579247
v -0.23412670 -0.45817353 1.15579247
v -0.22279869 -0.46342843 1.15579247
v -0.26763363 -0.47399967 0.93143260
v -0.26618449 -0.42811922 0.97689315
v -0.26815498 -0.47533130 1.15579247
v -0.26302996 -0.46369473 1.15579247
v -0.26274720 -0.42811922 1.05582320
v -0.26307414 -0.46367423 0.93143260
v -0.26101532 -0.42811922 0.96652726
v -0.26086508 -0.42811922 0.96646138
v -0.25027047 -0.42811922 0.96259613
v -0.23412670 -0.42811922 1.06706754
v -0.24473900 -0.42811922 1.06629890
v -0.25280647 -0.42811922 1.06390508
v -0.25128664 -0.45842959 1.15579247
f 1 2 3
f 1 3 4
f 1 4 5
f 1 5 6
f 1 6 7
f 1 7 8
f 1 8 9
f 1 9 10
f 1 10 2
f 2 11 3
f 2 10 11
f 3 11 23
f 3 23 39
f 3 39 58
f 3 58 73
f 3 73 81
f 3 81 92
f 3 92 97
f 3 97 85
f 3 85 76
f 3 76 61
f 3 61 41
f 3 41 27
f 3 27 14
f 3 14 13
f 3 13 12
f 3 12 4
f 4 12 13
f 4 13 5
f 5 13 14
f 5 14 15
f 5 15 6
f 6 16 20
f 6 20 7
f 6 15 16
f 7 17 18
f 7 18 19
f 7 19 8
f 7 20 17
f 8 19 9
f 9 19 18
f 9 18 17
f 9 17 29
f 9 29 50
f 9 50 64
f 9 64 79
f 9 79 91
f 9 91 90
f 9 90 89
f 9 89 88
f 9 88 104
f 9 104 95
f 9 95 94
f 9 94 82
f 9 82 80
f 9 80 72
f 9 72 54
f 9 54 53
f 9 53 35
f 9 35 21
f 9 21 22
f 9 22 11
f 9 11 10
f 11 22 24
f 11 24 25
f 11 25 26
f 11 26 23
f 14 27 28
f 14 28 15
f 15 28 16
f 16 28 20
f 17 20 29
f 20 28 30
f 20 30 31
f 20 31 32
f 20 32 33
f 20 33 34
f 20 34 29
f 21 35 22
f 22 35 36
f 22 36 37
f 22 37 26
f 22 26 24
f 23 38 39
f 23 26 38
f 24 26 25
f 26 37 40
f 26 40 38
f 27 41 42
f 27 42 43
f 27 43 44
f 27 44 45
f 27 45 46
f 27 46 47
f 27 47 48
f 27 48 28
f 28 48 30
f 29 34 49
f 29 49 50
f 30 48 31
f 31 48 32
f 32 48 51
f 32 51 52
f 32 52 33
f 33 52 34
f 34 52 49
f 35 53 36
f 36 53 54
f 36 54 55
f 36 55 56
f 36 56 40
f 36 40 37
f 38 57 39
f 38 40 57
f 39 57 58
f 40 56 59
f 40 59 60
f 40 60 57
f 41 61 62
f 41 62 63
f 41 63 42
f 42 63 62
f 42 62 78
f 42 78 71
f 42 71 70
f 42 70 69
f 42 69 68
f 42 68 67
f 42 67 66
f 42 66 65
f 42 65 52
f 42 52 51
f 42 51 48
f 42 48 47
f 42 47 46
f 42 46 45
f 42 45 44
f 42 44 43
f 49 52 50
f 50 52 65
f 50 65 66
f 50 66 67
f 50 67 68
f 50 68 69
f 50 69 70
f 50 70 71
f 50 71 64
f 54 72 55
f 55 72 59
f 55 59 56
f 57 60 73
f 57 73 58
f 59 74 83
f 59 83 96
f 59 96 103
f 59 103 102
f 59 102 101
f 59 101 87
f 59 87 78
f 59 78 62
f 59 62 77
f 59 77 86
f 59 86 100
f 59 100 99
f 59 99 98
f 59 98 93
f 59 93 84
f 59 84 75
f 59 75 60
f 59 72 74
f 60 75 73
f 61 76 62
f 62 76 77
f 64 71 78
f 64 78 79
f 72 80 74
f 73 75 81
f 74 80 82
f 74 82 83
f 75 84 81
f 76 85 77
f 77 85 86
f 78 87 88
f 78 88 89
f 78 89 90
f 78 90 91
f 78 91 79
f 81 84 93
f 81 93 92
f 82 94 83
f 83 94 95
f 83 95 96
f 85 97 98
f 85 98 99
f 85 99 100
f 85 100 86
f 87 101 88
f 88 101 102
f 88 102 103
f 88 103 96
f 88 96 104
f 92 93 97
f 93 98 97
f 95 104 96

