# https://github.com/mikedh/trimesh
v -0.26910086 0.39555383 0.57323186
v -0.26883710 0.39555383 0.58935593
v -0.26904812 0.42805604 0.57339365
v -0.26904812 0.42805604 0.57323186
v -0.26899535 0.42805604 0.55708624
v -0.26899535 0.33096830 0.55708624
v -0.26904812 -0.34713774 0.57323186
v -0.26767653 0.42805604 0.60550155
v -0.26878436 0.42805604 0.58935593
v -0.26873160 -0.42772304 0.58952849
v -0.26767653 -0.33097042 0.60550155
v -0.26778203 0.42805604 0.54110240
v -0.26894261 -0.36322129 0.55708624
v -0.26899535 -0.42772304 0.57323186
v -0.26899535 -0.42772304 0.57340445
v -0.26261224 0.07262624 0.61953326
v -0.26255947 0.37938650 0.61954405
v -0.26255947 0.42805604 0.61952248
v -0.26762378 -0.42772304 0.60550155
v -0.26757102 -0.42772304 0.60565256
v -0.26255947 -0.39555594 0.61952248
v -0.26255947 -0.36322129 0.61954405
v -0.26772929 0.42805604 0.54094062
v -0.26772929 0.02420804 0.54094062
v -0.26767653 -0.31480311 0.54092984
v -0.26762378 -0.42772304 0.54092984
v -0.26888987 -0.42772304 0.55708624
v -0.25153408 0.34705185 0.62761147
v -0.25158684 -0.36322129 0.62762226
v -0.25148134 0.42805604 0.62758990
v -0.26250673 -0.42772304 0.61951170
v -0.25158684 -0.39555594 0.62760068
v -0.26240123 -0.42772304 0.61959798
v -0.25158684 -0.42772304 0.62757912
v -0.26250673 0.42805604 0.52863456
v -0.26245399 0.41172110 0.52850513
v -0.26245399 0.28255010 0.52848357
v -0.26245399 0.12112820 0.52847279
v -0.26245399 -0.21796671 0.52846199
v -0.26240123 -0.42772304 0.52853749
v -0.24341011 0.42805604 0.63001660
v -0.25148134 0.41172110 0.62760068
v -0.24351562 -0.37938862 0.63002739
v -0.25148134 -0.42772304 0.62761147
v -0.24346285 -0.42772304 0.63003817
v -0.24351562 -0.39555594 0.63002739
v -0.26245399 0.42805604 0.52851594
v -0.25026802 0.37938650 0.52236831
v -0.25026802 0.28255010 0.52234672
v -0.25026802 0.10496088 0.52231436
v -0.25021525 -0.21796671 0.52231436
v -0.25021525 -0.37938862 0.52237909
v -0.26240123 -0.37938862 0.52850513
v -0.25021525 -0.39555594 0.52238987
v -0.25021525 -0.41163949 0.52241142
v -0.25037353 -0.42772304 0.52262715
v -0.24325184 0.42805604 0.63003817
v -0.23407281 -0.42772304 0.63038330
v -0.25026802 0.42805604 0.52256243
v -0.25026802 0.41172110 0.52241142
v -0.23412557 0.37938650 0.52073972
v -0.23412557 0.05645891 0.52064264
v -0.23407281 -0.05654480 0.52065344
v -0.23407281 -0.37938862 0.52070736
v -0.23407281 -0.41163949 0.52072892
v -0.25021525 -0.42772304 0.52256243
v -0.23412557 0.42805604 0.63031859
v 0.23411092 -0.42772304 0.63037252
v 0.23405818 0.42805604 0.63052350
v -0.23412557 0.42805604 0.52097699
v -0.23412557 0.41172110 0.52080442
v -0.23412557 0.39555383 0.52076128
v 0.23405818 0.39555383 0.52047007
v 0.23405818 0.04037536 0.52035143
v 0.23411092 -0.41163949 0.52048087
v 0.23411092 -0.42772304 0.52050243
v -0.23407281 -0.42772304 0.52089070
v -0.23428382 -0.42772304 0.52091229
v 0.24350097 -0.42772304 0.62999503
v 0.24355373 -0.39555594 0.63000581
v 0.24376475 0.42780465 0.63007053
v 0.24387023 0.42805604 0.63004895
v 0.23389990 0.42805604 0.52055635
v 0.23405818 0.41172110 0.52050243
v 0.25004235 0.42805604 0.52214180
v 0.25020062 0.41172110 0.52213102
v 0.25020062 0.39555383 0.52210946
v 0.25020062 0.07262624 0.52202318
v 0.25025337 -0.00050367 0.52202318
v 0.25025337 -0.07262835 0.52202318
v 0.25025337 -0.31480311 0.52203396
v 0.25025337 -0.41163949 0.52207710
v 0.25009512 -0.42772304 0.52208788
v 0.25157219 -0.42772304 0.62789189
v 0.24355373 -0.41163949 0.62999503
v 0.25167770 -0.39555594 0.62788111
v 0.25162496 -0.25021759 0.62792425
v 0.25188871 0.42805604 0.62791346
v 0.23405818 0.42805604 0.52055635
v 0.25020062 0.42805604 0.52216338
v 0.26275586 0.41172110 0.52833257
v 0.26259759 0.42805604 0.52827865
v 0.26275586 0.36321917 0.52828943
v 0.26275586 0.39555383 0.52831101
v 0.26280860 -0.00050367 0.52824628
v 0.26280860 -0.33097042 0.52824628
v 0.26280860 -0.41163949 0.52828943
v 0.26280860 -0.42772304 0.52830023
v 0.25025337 -0.42772304 0.52210946
v 0.26296687 -0.42772304 0.61981369
v 0.26296687 0.41172110 0.61985683
v 0.26296687 0.42805604 0.61983525
v 0.26296687 -0.25021759 0.61984604
v 0.26270309 0.42805604 0.52834337
v 0.26829491 0.42805604 0.54081119
v 0.26840042 -0.00050367 0.54092984
v 0.26834768 -0.42772304 0.54080041
v 0.26845319 -0.42772304 0.60550155
v 0.26850593 -0.02421016 0.60550155
v 0.26301961 -0.02421016 0.61975975
v 0.26301961 0.34705185 0.61979210
v 0.26850593 0.42805604 0.60550155
v 0.26301961 0.28255010 0.61981369
v 0.26301961 0.29871743 0.61981369
v 0.26834768 0.42805604 0.54094062
v 0.26961376 0.42805604 0.55692448
v 0.26966651 -0.18571584 0.55708624
v 0.26966651 -0.42772304 0.55691367
v 0.26840042 -0.42772304 0.54092984
v 0.26956100 -0.42772304 0.58935593
v 0.26956100 0.42805604 0.58935593
v 0.26971925 0.42805604 0.57307010
v 0.26977201 0.39555383 0.57323186
v 0.26982475 -0.39555594 0.57323186
v 0.26977201 -0.42772304 0.57305930
v 0.26977201 -0.42772304 0.57323186
v 0.26971925 0.42805604 0.57323186
f 1 2 3
f 1 3 4
f 1 4 5
f 1 5 6
f 1 6 7
f 1 7 2
f 2 8 9
f 2 9 3
f 2 7 10
f 2 10 11
f 2 11 8
f 3 9 8
f 3 8 18
f 3 18 30
f 3 30 41
f 3 41 57
f 3 57 67
f 3 67 69
f 3 69 82
f 3 82 98
f 3 98 112
f 3 112 122
f 3 122 131
f 3 131 137
f 3 137 132
f 3 132 126
f 3 126 125
f 3 125 115
f 3 115 114
f 3 114 102
f 3 102 100
f 3 100 85
f 3 85 99
f 3 99 83
f 3 83 70
f 3 70 59
f 3 59 47
f 3 47 35
f 3 35 23
f 3 23 12
f 3 12 5
f 3 5 4
f 5 12 6
f 6 12 13
f 6 13 7
f 7 13 14
f 7 14 15
f 7 15 10
f 8 16 17
f 8 17 18
f 8 11 16
f 10 15 14
f 10 14 27
f 10 27 26
f 10 26 40
f 10 40 56
f 10 56 66
f 10 66 78
f 10 78 77
f 10 77 76
f 10 76 93
f 10 93 109
f 10 109 108
f 10 108 117
f 10 117 129
f 10 129 128
f 10 128 135
f 10 135 136
f 10 136 130
f 10 130 118
f 10 118 110
f 10 110 94
f 10 94 79
f 10 79 68
f 10 68 58
f 10 58 45
f 10 45 44
f 10 44 34
f 10 34 33
f 10 33 31
f 10 31 20
f 10 20 19
f 10 19 11
f 11 19 20
f 11 20 21
f 11 21 22
f 11 22 16
f 12 23 24
f 12 24 13
f 13 25 26
f 13 26 27
f 13 27 14
f 13 24 25
f 16 28 17
f 16 22 29
f 16 29 28
f 17 28 18
f 18 28 30
f 20 31 21
f 21 32 29
f 21 29 22
f 21 31 33
f 21 33 34
f 21 34 32
f 23 35 36
f 23 36 37
f 23 37 38
f 23 38 39
f 23 39 24
f 24 39 25
f 25 39 40
f 25 40 26
f 28 41 42
f 28 42 30
f 28 29 43
f 28 43 41
f 29 32 44
f 29 44 45
f 29 45 46
f 29 46 43
f 30 42 41
f 32 34 44
f 35 47 36
f 36 47 48
f 36 48 49
f 36 49 50
f 36 50 37
f 37 50 38
f 38 50 39
f 39 51 52
f 39 52 53
f 39 53 40
f 39 50 51
f 40 53 54
f 40 54 55
f 40 55 56
f 41 43 45
f 41 45 57
f 43 46 45
f 45 58 57
f 47 59 60
f 47 60 48
f 48 60 72
f 48 72 61
f 48 61 62
f 48 62 49
f 49 62 50
f 50 62 51
f 51 63 64
f 51 64 52
f 51 62 63
f 52 64 54
f 52 54 53
f 54 65 55
f 54 64 65
f 55 65 66
f 55 66 56
f 57 58 67
f 58 68 69
f 58 69 67
f 59 70 71
f 59 71 60
f 60 71 72
f 61 72 73
f 61 73 74
f 61 74 62
f 62 74 63
f 63 74 64
f 64 75 65
f 64 74 75
f 65 75 76
f 65 76 77
f 65 77 78
f 65 78 66
f 68 79 80
f 68 80 69
f 69 81 82
f 69 80 81
f 70 83 71
f 71 84 72
f 71 83 84
f 72 84 73
f 73 84 85
f 73 85 86
f 73 86 87
f 73 87 74
f 74 87 88
f 74 88 89
f 74 89 90
f 74 90 91
f 74 91 75
f 75 91 92
f 75 92 76
f 76 92 93
f 79 94 95
f 79 95 80
f 80 95 94
f 80 94 96
f 80 96 97
f 80 97 82
f 80 82 81
f 82 97 98
f 83 99 84
f 84 99 85
f 85 100 86
f 86 101 104
f 86 104 87
f 86 100 102
f 86 102 101
f 87 103 89
f 87 89 88
f 87 104 103
f 89 103 105
f 89 105 106
f 89 106 90
f 90 106 91
f 91 106 92
f 92 106 107
f 92 107 108
f 92 108 109
f 92 109 93
f 94 110 96
f 96 110 98
f 96 98 97
f 98 111 112
f 98 110 113
f 98 113 111
f 101 102 114
f 101 114 115
f 101 115 104
f 103 104 115
f 103 115 105
f 105 116 117
f 105 117 106
f 105 115 116
f 106 117 107
f 107 117 108
f 110 118 119
f 110 119 120
f 110 120 113
f 111 121 122
f 111 122 112
f 111 113 123
f 111 123 124
f 111 124 121
f 113 120 123
f 115 125 116
f 116 125 126
f 116 126 127
f 116 127 128
f 116 128 129
f 116 129 117
f 118 130 119
f 119 130 131
f 119 131 122
f 119 122 124
f 119 124 123
f 119 123 120
f 121 124 122
f 126 132 133
f 126 133 127
f 127 134 128
f 127 133 134
f 128 134 135
f 130 136 134
f 130 134 131
f 131 133 137
f 131 134 133
f 132 137 133
f 134 136 135

