# https://github.com/mikedh/trimesh
v -0.23412283 0.42805604 0.06576388
v -0.18173397 0.42805604 0.06759761
v -0.25028104 0.42805604 0.06705831
v -0.25027237 0.46295481 -0.00444029
v -0.23412283 0.46302647 -0.00438640
v -0.22257014 0.46500167 -0.00289414
v -0.20781175 0.48160166 -0.00212111
v -0.19301879 0.49955252 -0.00089863
v -0.19052161 0.50862006 -0.00289414
v -0.19018462 0.52109563 -0.00294813
v -0.18173397 0.50407607 0.05905807
v -0.18173397 0.42805604 0.16478679
v -0.26317303 0.42805604 0.07469894
v -0.26171275 0.46489936 -0.00294813
v -0.25027237 0.47634123 -0.00888087
v -0.23412283 0.47634123 -0.00882688
v -0.21750667 0.47626958 -0.00478186
v -0.20219526 0.49349385 -0.00359527
v -0.20184099 0.50862006 -0.00733472
v -0.20184099 0.53080790 0.00809042
v -0.18897491 0.52295823 0.00809042
v -0.18173397 0.50673696 0.05921990
v -0.20184099 0.52388958 -0.00444029
v -0.18173397 0.46101031 0.16942511
v -0.18200183 0.49248065 0.17476460
v -0.18286590 0.47674035 0.17476460
v -0.18640861 0.46268875 0.17476460
v -0.19867847 0.46025302 0.17476460
v -0.23412283 0.45462416 0.17476460
v -0.21799056 0.42805604 0.16582954
v -0.26856485 0.42805604 0.08879371
v -0.26898825 0.47634123 0.00809042
v -0.26351000 0.47634123 -0.00444029
v -0.25027237 0.50862006 -0.00888087
v -0.23412283 0.49248065 -0.00888087
v -0.26367419 0.49248065 -0.00444029
v -0.26370010 0.50862006 -0.00444029
v -0.21799056 0.50862006 -0.00888087
v -0.21799056 0.49248065 -0.00825163
v -0.18173397 0.52142310 0.08879371
v -0.21799056 0.53245564 0.00809042
v -0.21799056 0.53254775 0.02423465
v -0.21799056 0.53246589 0.17476460
v -0.20184099 0.52857683 0.17476460
v -0.18173397 0.52126959 0.08609702
v -0.18173397 0.52013358 0.07419559
v -0.18173397 0.51415681 0.06590772
v -0.21799056 0.52452411 -0.00444029
v -0.18173397 0.47569649 0.16712392
v -0.18185493 0.49825276 0.17476460
v -0.25027237 0.45496188 0.17476460
v -0.23412283 0.42805604 0.16615311
v -0.26857349 0.42805604 0.08895550
v -0.26994737 0.49248065 0.02423465
v -0.26948942 0.49248065 0.00809042
v -0.26913514 0.42805604 0.10493799
v -0.26190283 0.52127984 -0.00294813
v -0.25027237 0.52406354 -0.00444029
v -0.23412283 0.52455482 -0.00444029
v -0.26950669 0.50862006 0.00809042
v -0.18818860 0.52099328 0.17476460
v -0.18385095 0.51375764 0.17476460
v -0.18173397 0.51930463 0.10207946
v -0.23412283 0.53250679 0.00809042
v -0.23412283 0.53260915 0.02423465
v -0.23412283 0.53256820 0.17476460
v -0.18255484 0.50855866 0.17476460
v -0.26303477 0.46108196 0.17476460
v -0.25027237 0.42805604 0.16449917
v -0.25011684 0.42805604 0.16451712
v -0.26995601 0.50862006 0.02423465
v -0.26999922 0.49248065 0.12110021
v -0.26913514 0.42805604 0.10509977
v -0.26389021 0.52369512 0.00809042
v -0.25027237 0.53160619 0.00809042
v -0.25027237 0.53175970 0.02423465
v -0.25027237 0.53172900 0.17476460
v -0.23936776 0.53230213 0.17476460
v -0.26500485 0.46566691 0.17476460
v -0.25917235 0.42805604 0.16212604
v -0.25907731 0.42805604 0.16216199
v -0.26407165 0.52380768 0.02423465
v -0.26992145 0.50862006 0.12110021
v -0.26406301 0.52379748 0.17476460
v -0.26407165 0.52378723 0.13724449
v -0.26998194 0.49248065 0.13724449
v -0.26909193 0.42805604 0.12110021
v -0.25474830 0.52916021 0.17476460
v -0.26894504 0.47634123 0.17476460
v -0.26416672 0.42805604 0.15338872
v -0.26990415 0.50862006 0.13724449
v -0.26797729 0.51355298 0.17476460
v -0.26989552 0.49248065 0.15338872
v -0.26984369 0.50862006 0.17476460
v -0.26985233 0.50862006 0.16953299
v -0.26868583 0.42805604 0.13724449
v -0.26976593 0.49248065 0.17476460
v -0.26864262 0.42805604 0.13740628
v -0.26980048 0.49772058 0.17476460
f 1 2 12
f 1 12 30
f 1 30 52
f 1 52 70
f 1 70 69
f 1 69 81
f 1 81 80
f 1 80 90
f 1 90 98
f 1 98 96
f 1 96 87
f 1 87 73
f 1 73 56
f 1 56 53
f 1 53 31
f 1 31 13
f 1 13 3
f 1 3 4
f 1 4 5
f 1 5 2
f 2 5 6
f 2 6 7
f 2 7 8
f 2 8 9
f 2 9 10
f 2 10 11
f 2 11 22
f 2 22 47
f 2 47 46
f 2 46 45
f 2 45 40
f 2 40 63
f 2 63 49
f 2 49 24
f 2 24 12
f 3 13 14
f 3 14 4
f 4 14 15
f 4 15 16
f 4 16 5
f 5 16 6
f 6 16 17
f 6 17 7
f 7 17 18
f 7 18 8
f 8 18 9
f 9 18 19
f 9 19 10
f 10 20 21
f 10 21 22
f 10 22 11
f 10 19 23
f 10 23 20
f 12 24 25
f 12 25 26
f 12 26 27
f 12 27 28
f 12 28 29
f 12 29 30
f 13 31 14
f 14 32 33
f 14 33 15
f 14 31 32
f 15 34 38
f 15 38 35
f 15 35 16
f 15 33 36
f 15 36 37
f 15 37 34
f 16 38 39
f 16 39 17
f 16 35 38
f 17 39 19
f 17 19 18
f 19 39 38
f 19 38 23
f 20 40 21
f 20 23 41
f 20 41 42
f 20 42 43
f 20 43 44
f 20 44 40
f 21 40 45
f 21 45 46
f 21 46 47
f 21 47 22
f 23 38 48
f 23 48 41
f 24 49 50
f 24 50 25
f 25 50 67
f 25 67 62
f 25 62 61
f 25 61 44
f 25 44 43
f 25 43 66
f 25 66 78
f 25 78 77
f 25 77 88
f 25 88 84
f 25 84 92
f 25 92 94
f 25 94 99
f 25 99 97
f 25 97 89
f 25 89 79
f 25 79 68
f 25 68 51
f 25 51 29
f 25 29 28
f 25 28 27
f 25 27 26
f 29 51 52
f 29 52 30
f 31 53 32
f 32 54 55
f 32 55 33
f 32 53 56
f 32 56 54
f 33 55 36
f 34 37 57
f 34 57 58
f 34 58 59
f 34 59 38
f 36 55 37
f 37 55 60
f 37 60 57
f 38 59 48
f 40 44 61
f 40 61 62
f 40 62 63
f 41 64 65
f 41 65 42
f 41 48 64
f 42 65 66
f 42 66 43
f 48 59 64
f 49 63 50
f 50 63 67
f 51 68 69
f 51 69 70
f 51 70 52
f 54 71 60
f 54 60 55
f 54 56 72
f 54 72 71
f 56 73 72
f 57 60 74
f 57 74 75
f 57 75 58
f 58 75 64
f 58 64 59
f 60 71 74
f 62 67 63
f 64 75 76
f 64 76 65
f 65 76 77
f 65 77 78
f 65 78 66
f 68 79 80
f 68 80 81
f 68 81 69
f 71 82 74
f 71 72 83
f 71 83 84
f 71 84 85
f 71 85 82
f 72 73 86
f 72 86 91
f 72 91 83
f 73 87 86
f 74 82 75
f 75 82 76
f 76 82 84
f 76 84 88
f 76 88 77
f 79 89 80
f 80 89 90
f 82 85 84
f 83 91 84
f 84 91 92
f 86 87 93
f 86 93 94
f 86 94 95
f 86 95 91
f 87 96 97
f 87 97 93
f 89 97 96
f 89 96 98
f 89 98 90
f 91 95 92
f 92 95 94
f 93 97 99
f 93 99 94

