# https://github.com/mikedh/trimesh
v -0.26917485 -0.16946475 0.10496229
v -0.26885818 -0.00050367 0.09637029
v -0.26859430 -0.00804284 0.08881286
v -0.26859430 -0.28246846 0.08881286
v -0.26912208 -0.42772304 0.10496229
v -0.26912208 -0.42772304 0.10513967
v -0.26906929 -0.42772304 0.12126941
v -0.26906929 0.36321917 0.12109203
v -0.26912208 0.34705185 0.10497215
v -0.26321102 -0.26638491 0.07462416
v -0.26854154 0.41172110 0.08881286
v -0.26854154 -0.42772304 0.08881286
v -0.26859430 -0.42772304 0.13724151
v -0.26864707 0.41172110 0.13723164
v -0.26864707 0.42805604 0.13723164
v -0.26901652 0.42805604 0.12124968
v -0.26906929 0.42805604 0.10512980
v -0.26906929 0.42805604 0.10497215
v -0.26315825 -0.08879567 0.07461434
v -0.25022781 -0.08879567 0.06696823
v -0.25022781 -0.10496300 0.06696823
v -0.25038613 -0.42772304 0.06707660
v -0.26315825 -0.37938862 0.07465376
v -0.26310546 0.39555383 0.07468330
v -0.26848875 0.42805604 0.08881286
v -0.26315825 0.42805604 0.07485081
v -0.26310546 0.42805604 0.07471285
v -0.26310546 0.41172110 0.07469317
v -0.26310546 -0.42772304 0.07465376
v -0.26405546 -0.42772304 0.15339093
v -0.26410822 -0.00804284 0.15339093
v -0.26410822 0.42805604 0.15339093
v -0.25022781 0.26638280 0.06701750
v -0.23413072 -0.08879567 0.06568732
v -0.23407795 0.23404814 0.06571687
v -0.23407795 0.08879356 0.06569714
v -0.23413072 -0.23405026 0.06568732
v -0.25022781 -0.42772304 0.06699777
v -0.25022781 0.42805604 0.06706673
v -0.25022781 0.39555383 0.06704705
v -0.25914716 -0.42772304 0.16209135
v -0.26183880 -0.00050367 0.15749976
v -0.25914716 0.26638280 0.16213076
v -0.25909439 0.42805604 0.16212089
v -0.25919995 -0.00050367 0.16216031
v 0.23410947 -0.02421016 0.06555922
v -0.23407795 0.42805604 0.06576615
v 0.23405668 0.29871743 0.06563805
v 0.23410947 -0.21796671 0.06556909
v 0.23410947 -0.37938862 0.06562818
v -0.23413072 -0.42772304 0.06576615
v -0.23428906 -0.42772304 0.06577596
v -0.25904160 -0.42772304 0.16212089
v -0.25919995 -0.00804284 0.16216031
v -0.25898884 0.42805604 0.16216031
v -0.25503053 -0.00050367 0.16326388
v -0.25022781 0.42805604 0.16450538
v 0.25025931 -0.04029371 0.06672189
v 0.25025931 -0.05654480 0.06672189
v 0.25025931 -0.37938862 0.06673176
v 0.25020654 0.37938650 0.06679085
v 0.23405668 0.42805604 0.06569714
v 0.23410947 -0.42772304 0.06568732
v -0.25022781 -0.42772304 0.16448569
v -0.25022781 -0.00050367 0.16452511
v -0.25022781 0.00804072 0.16452511
v -0.25006947 0.42805604 0.16452511
v 0.26355920 -0.36322129 0.07440742
v 0.26345365 0.37938650 0.07443697
v 0.26345365 0.33096830 0.07442710
v 0.26355920 -0.39555594 0.07441729
v 0.25025931 -0.42772304 0.06679085
v 0.24994264 0.42805604 0.06685986
v 0.25020654 0.42805604 0.06687954
v 0.26329530 0.42805604 0.07441729
v 0.26345365 0.39555383 0.07445670
v -0.25006947 -0.42772304 0.16450538
v -0.23413072 -0.42772304 0.16615090
v -0.23407795 0.42805604 0.16616072
v 0.26936471 -0.34713774 0.08881286
v 0.26936471 -0.37938862 0.08881286
v 0.26925915 0.39555383 0.08881286
v 0.26931192 -0.41163949 0.08881286
v 0.26350641 -0.42772304 0.07443697
v 0.26340086 0.42805604 0.07450593
v 0.26915360 0.42805604 0.08867490
v 0.23410947 -0.42772304 0.16615090
v 0.23405668 0.08879356 0.16620013
v 0.23405668 0.42805604 0.16618045
v 0.26999802 -0.34713774 0.10496229
v 0.26994525 0.37938650 0.10497215
v 0.26994525 -0.42772304 0.10479478
v 0.26920637 0.42805604 0.08881286
v 0.26989246 0.42805604 0.10480464
v 0.26925915 -0.42772304 0.08881286
v 0.26920637 -0.42772304 0.08866503
v 0.23426779 -0.42772304 0.16614104
v 0.25020654 0.10496088 0.16462361
v 0.25025931 -0.42772304 0.16464334
v 0.25020654 0.42805604 0.16458420
v 0.26994525 -0.34713774 0.12109203
v 0.26994525 -0.36322129 0.12109203
v 0.26994525 -0.42772304 0.10496229
v 0.26989246 0.41172110 0.12109203
v 0.26989246 0.42805604 0.10497215
v 0.25928423 0.33096830 0.16222927
v 0.25036486 -0.42772304 0.16462361
v 0.25938979 -0.41163949 0.16226872
v 0.25923147 0.42805604 0.16221945
v 0.26941748 -0.13721387 0.13724151
v 0.26941748 -0.42772304 0.13724151
v 0.26989246 -0.42772304 0.12109203
v 0.26983970 0.42805604 0.12109203
v 0.26936471 0.42805604 0.13723164
v 0.25928423 0.41172110 0.16220958
v 0.25938979 -0.23405026 0.16224899
v 0.25938979 -0.42772304 0.16226872
v 0.26472029 -0.41163949 0.15339093
v 0.26456196 0.42805604 0.15339093
v 0.26477307 -0.42772304 0.15322342
v 0.26461473 0.42805604 0.15322342
v 0.26461473 0.34705185 0.15339093
v 0.26472029 -0.42772304 0.15339093
f 1 2 3
f 1 3 4
f 1 4 5
f 1 5 6
f 1 6 7
f 1 7 8
f 1 8 9
f 1 9 2
f 2 9 3
f 3 10 4
f 3 9 11
f 3 11 10
f 4 10 12
f 4 12 5
f 5 12 29
f 5 29 22
f 5 22 38
f 5 38 52
f 5 52 51
f 5 51 63
f 5 63 72
f 5 72 84
f 5 84 96
f 5 96 95
f 5 95 92
f 5 92 103
f 5 103 112
f 5 112 111
f 5 111 120
f 5 120 123
f 5 123 117
f 5 117 107
f 5 107 99
f 5 99 97
f 5 97 87
f 5 87 78
f 5 78 77
f 5 77 64
f 5 64 53
f 5 53 41
f 5 41 30
f 5 30 13
f 5 13 7
f 5 7 6
f 7 13 14
f 7 14 15
f 7 15 8
f 8 15 16
f 8 16 17
f 8 17 9
f 9 17 18
f 9 18 11
f 10 19 20
f 10 20 21
f 10 21 22
f 10 22 23
f 10 23 12
f 10 11 24
f 10 24 19
f 11 18 25
f 11 25 26
f 11 26 27
f 11 27 28
f 11 28 24
f 12 23 29
f 13 30 31
f 13 31 14
f 14 31 32
f 14 32 15
f 15 32 44
f 15 44 55
f 15 55 57
f 15 57 67
f 15 67 79
f 15 79 89
f 15 89 100
f 15 100 109
f 15 109 119
f 15 119 121
f 15 121 114
f 15 114 113
f 15 113 105
f 15 105 94
f 15 94 93
f 15 93 86
f 15 86 85
f 15 85 75
f 15 75 74
f 15 74 73
f 15 73 62
f 15 62 47
f 15 47 39
f 15 39 27
f 15 27 26
f 15 26 25
f 15 25 18
f 15 18 17
f 15 17 16
f 19 24 33
f 19 33 20
f 20 34 37
f 20 37 21
f 20 33 35
f 20 35 36
f 20 36 34
f 21 37 38
f 21 38 22
f 22 29 23
f 24 28 39
f 24 39 40
f 24 40 33
f 27 39 28
f 30 41 42
f 30 42 31
f 31 42 32
f 32 43 44
f 32 42 45
f 32 45 43
f 33 40 35
f 34 46 37
f 34 36 46
f 35 40 47
f 35 47 48
f 35 48 46
f 35 46 36
f 37 46 49
f 37 49 50
f 37 50 51
f 37 51 52
f 37 52 38
f 39 47 40
f 41 53 54
f 41 54 42
f 42 54 45
f 43 45 44
f 44 45 55
f 45 56 57
f 45 57 55
f 45 54 56
f 46 58 59
f 46 59 60
f 46 60 49
f 46 48 61
f 46 61 58
f 47 62 48
f 48 62 61
f 49 60 50
f 50 60 72
f 50 72 63
f 50 63 51
f 53 64 54
f 54 64 56
f 56 64 65
f 56 65 66
f 56 66 57
f 57 66 67
f 58 68 59
f 58 61 69
f 58 69 70
f 58 70 68
f 59 68 60
f 60 68 71
f 60 71 72
f 61 62 73
f 61 73 74
f 61 74 75
f 61 75 76
f 61 76 69
f 64 77 65
f 65 77 78
f 65 78 79
f 65 79 66
f 66 79 67
f 68 80 81
f 68 81 71
f 68 70 69
f 68 69 82
f 68 82 80
f 69 76 82
f 71 81 83
f 71 83 84
f 71 84 72
f 75 85 76
f 76 85 86
f 76 86 82
f 78 87 88
f 78 88 79
f 79 88 89
f 80 90 81
f 80 82 91
f 80 91 90
f 81 92 83
f 81 90 92
f 82 86 93
f 82 93 94
f 82 94 91
f 83 92 95
f 83 95 96
f 83 96 84
f 87 97 88
f 88 98 89
f 88 97 99
f 88 99 98
f 89 98 100
f 90 101 102
f 90 102 103
f 90 103 92
f 90 91 104
f 90 104 101
f 91 94 105
f 91 105 104
f 98 106 100
f 98 99 107
f 98 107 108
f 98 108 106
f 100 106 109
f 101 104 110
f 101 110 111
f 101 111 102
f 102 111 112
f 102 112 103
f 104 105 113
f 104 113 114
f 104 114 110
f 106 115 109
f 106 108 116
f 106 116 115
f 107 117 108
f 108 118 116
f 108 117 123
f 108 123 118
f 109 115 119
f 110 120 111
f 110 114 120
f 114 121 122
f 114 122 120
f 115 116 122
f 115 122 119
f 116 118 122
f 118 123 120
f 118 120 122
f 119 122 121

