# https://github.com/mikedh/trimesh
v -0.17676923 0.49249186 0.17989140
v -0.17676923 0.50862117 0.18095292
v -0.16177603 0.50862117 0.19410946
v -0.14482112 0.50862117 0.20948552
v -0.14461092 0.49249186 0.20932465
v -0.14485615 0.48320493 0.20951766
v -0.17676923 0.47634368 0.18458784
v -0.17676923 0.52042202 0.18793327
v -0.17260057 0.51942653 0.18954164
v -0.14510136 0.51686852 0.20977502
v 0.18072034 0.49826945 0.50851458
v 0.18110568 0.49249186 0.50851458
v -0.12828655 0.48221574 0.22527976
v 0.17889874 0.48353255 0.50851458
v 0.17704211 0.47634368 0.50851458
v 0.17494025 0.47269567 0.50851458
v -0.17676923 0.46935010 0.18986334
v -0.13196479 0.47144186 0.22878600
v -0.14846432 0.47244365 0.21305610
v -0.15336863 0.51896032 0.20607575
v -0.17676923 0.52408264 0.20115410
v -0.15336863 0.52338955 0.21800990
v 0.16958054 0.52094496 0.50841807
v 0.16422083 0.51864527 0.49802798
v -0.12860184 0.51718988 0.22556926
v 0.14758119 0.51841217 0.48233022
v 0.17987961 0.50862747 0.50851458
v 0.16761881 0.46523588 0.50851458
v 0.16187377 0.46802699 0.50015102
v -0.17571830 0.46757335 0.19217939
v -0.17676923 0.46749775 0.19160039
v -0.17676923 0.52601685 0.21800990
v -0.16951784 0.52562625 0.21800990
v -0.12107021 0.52392509 0.25030606
v -0.13721942 0.52366678 0.23415798
v 0.13721206 0.52459298 0.49246298
v 0.12106285 0.52430944 0.47631491
v 0.15336126 0.52474417 0.50851458
v 0.16345014 0.52238780 0.50851458
v 0.16972067 0.52091975 0.50851458
v 0.16723347 0.46511615 0.50851458
v 0.15336126 0.46235021 0.50851458
v -0.17676923 0.46681100 0.19574998
v 0.15325617 0.46233135 0.50851458
v -0.17676923 0.52561994 0.23415798
v 0.05650104 0.52550652 0.44401875
v 0.13721206 0.52555065 0.50851458
v 0.12106285 0.52554434 0.49246298
v 0.08879946 0.52552543 0.46016683
v 0.07265025 0.52550652 0.44401875
v -0.17676923 0.46556349 0.21077220
v 0.13710696 0.46165716 0.50851458
v -0.17676923 0.52171361 0.25130324
v 0.05650104 0.52345259 0.46016683
v 0.04035183 0.52371090 0.44401875
v 0.12106285 0.52523559 0.50851458
v 0.10491364 0.52533011 0.49246298
v 0.08879946 0.52539945 0.47631491
v -0.17676923 0.46555719 0.21800990
v 0.12106285 0.46206672 0.50851458
v -0.17676923 0.46560132 0.22695247
v -0.17676923 0.50862117 0.25760806
v 0.01505957 0.51763091 0.43697406
v 0.04795351 0.51712058 0.46869122
v 0.04168300 0.51906739 0.45900878
v 0.09191720 0.51935093 0.50497614
v 0.10092012 0.52101426 0.50851458
v 0.07265025 0.52309976 0.47631491
v 0.10400284 0.52182073 0.50851458
v 0.12095775 0.46207303 0.50851458
v -0.17676923 0.46619355 0.23390063
v -0.17676923 0.49249186 0.25854094
v 0.04735799 0.50862747 0.46927022
v 0.06452309 0.51676145 0.48445328
v 0.08119777 0.51327093 0.50008668
v 0.08985038 0.50828095 0.50851458
v 0.10515884 0.46515398 0.50851458
v -0.16300210 0.46764264 0.25985982
v -0.17676923 0.46743476 0.24532011
v -0.17676923 0.46689291 0.24187816
v -0.17676923 0.47662717 0.25339413
v 0.03099860 0.48128329 0.45334730
v 0.04742805 0.48185661 0.46920588
v 0.06389254 0.48254336 0.48503231
v 0.06354223 0.49249186 0.48535398
v 0.08053218 0.50250340 0.50073004
v 0.06403267 0.50862747 0.48490363
v 0.08900964 0.49931533 0.50851458
v 0.10470344 0.46528626 0.50851458
v -0.09756453 0.46792618 0.32358363
v -0.13028332 0.46777498 0.29173780
v -0.17676923 0.47224202 0.24992003
v -0.04845131 0.46826009 0.37135238
v -0.13336602 0.47634368 0.29463285
v -0.01832480 0.47975855 0.40570725
v 0.09044591 0.47841023 0.50851458
v -0.10026191 0.47634368 0.32615704
v 0.08049715 0.48375304 0.50076221
v 0.08848418 0.49047570 0.50851458
v 0.08844915 0.49210125 0.50851458
v 0.09713679 0.47061652 0.50851458
v 0.09461458 0.46741584 0.50249926
f 1 2 3
f 1 3 4
f 1 4 5
f 1 5 6
f 1 6 7
f 1 7 17
f 1 17 31
f 1 31 43
f 1 43 51
f 1 51 59
f 1 59 61
f 1 61 71
f 1 71 80
f 1 80 79
f 1 79 92
f 1 92 81
f 1 81 72
f 1 72 62
f 1 62 53
f 1 53 45
f 1 45 32
f 1 32 21
f 1 21 8
f 1 8 2
f 2 8 9
f 2 9 10
f 2 10 3
f 3 10 4
f 4 10 11
f 4 11 12
f 4 12 5
f 5 12 6
f 6 13 7
f 6 12 14
f 6 14 15
f 6 15 16
f 6 16 13
f 7 13 16
f 7 16 18
f 7 18 19
f 7 19 17
f 8 20 9
f 8 21 22
f 8 22 23
f 8 23 24
f 8 24 20
f 9 20 10
f 10 20 25
f 10 25 24
f 10 24 26
f 10 26 27
f 10 27 11
f 11 27 40
f 11 40 39
f 11 39 38
f 11 38 47
f 11 47 56
f 11 56 69
f 11 69 67
f 11 67 76
f 11 76 88
f 11 88 100
f 11 100 99
f 11 99 96
f 11 96 101
f 11 101 89
f 11 89 77
f 11 77 70
f 11 70 60
f 11 60 52
f 11 52 44
f 11 44 42
f 11 42 41
f 11 41 28
f 11 28 16
f 11 16 15
f 11 15 14
f 11 14 12
f 16 28 29
f 16 29 18
f 17 19 30
f 17 30 31
f 18 30 19
f 18 29 30
f 20 24 25
f 21 32 33
f 21 33 34
f 21 34 35
f 21 35 22
f 22 35 36
f 22 36 37
f 22 37 23
f 23 37 36
f 23 36 38
f 23 38 39
f 23 39 40
f 23 40 24
f 24 40 27
f 24 27 26
f 28 41 30
f 28 30 29
f 30 41 42
f 30 42 31
f 31 42 44
f 31 44 43
f 32 45 46
f 32 46 47
f 32 47 48
f 32 48 49
f 32 49 50
f 32 50 33
f 33 50 38
f 33 38 36
f 33 36 34
f 34 36 35
f 38 50 49
f 38 49 47
f 43 44 51
f 44 52 51
f 45 53 54
f 45 54 55
f 45 55 56
f 45 56 57
f 45 57 58
f 45 58 46
f 46 58 47
f 47 58 57
f 47 57 56
f 47 49 48
f 51 52 59
f 52 60 61
f 52 61 59
f 53 62 63
f 53 63 64
f 53 64 65
f 53 65 66
f 53 66 67
f 53 67 68
f 53 68 54
f 54 68 56
f 54 56 55
f 56 68 69
f 60 70 61
f 61 70 71
f 62 72 73
f 62 73 74
f 62 74 64
f 62 64 63
f 64 74 66
f 64 66 65
f 66 74 75
f 66 75 76
f 66 76 67
f 67 69 68
f 70 77 78
f 70 78 79
f 70 79 80
f 70 80 71
f 72 81 82
f 72 82 83
f 72 83 84
f 72 84 85
f 72 85 73
f 73 85 86
f 73 86 87
f 73 87 74
f 74 87 86
f 74 86 75
f 75 86 76
f 76 86 88
f 77 89 90
f 77 90 91
f 77 91 78
f 78 91 81
f 78 81 92
f 78 92 79
f 81 91 90
f 81 90 93
f 81 93 94
f 81 94 95
f 81 95 82
f 82 96 83
f 82 95 97
f 82 97 96
f 83 96 84
f 84 96 98
f 84 98 85
f 85 98 99
f 85 99 100
f 85 100 86
f 86 100 88
f 89 101 102
f 89 102 93
f 89 93 90
f 93 97 94
f 93 102 101
f 93 101 96
f 93 96 97
f 94 97 95
f 96 99 98

