# https://github.com/mikedh/trimesh
v -0.23412701 0.42802606 1.39980097
v -0.17934704 0.42802606 1.40195683
v -0.25035714 0.42802606 1.40108101
v -0.25027702 0.45498806 1.39108761
v -0.23460778 0.45464360 1.39108761
v -0.23412701 0.45463316 1.39108761
v -0.22038974 0.45625111 1.39108761
v -0.20562860 0.45837006 1.39108761
v -0.20184484 0.45903813 1.39108761
v -0.18603318 0.46240969 1.39108761
v -0.18349583 0.46811943 1.39108761
v -0.18100300 0.48673082 1.39108761
v -0.17934704 0.45419477 1.39800440
v -0.17934704 0.42802606 1.50613526
v -0.25973196 0.42802606 1.40370846
v -0.26333767 0.46112580 1.39108761
v -0.25175491 0.45567702 1.39108761
v -0.17934704 0.47418403 1.39905985
v -0.17934704 0.47046802 1.39849841
v -0.17934704 0.46073957 1.39748786
v -0.18367389 0.50883906 1.39108761
v -0.17934704 0.52048814 1.49470461
v -0.17934704 0.48219019 1.53479048
v -0.19303981 0.51534210 1.60274564
v -0.22515283 0.46716951 1.61541143
v -0.23412701 0.45998801 1.60660827
v -0.25027702 0.45943480 1.60660827
v -0.21786130 0.42802606 1.50705598
v -0.25977647 0.42802606 1.40377583
v -0.26919583 0.47634474 1.39108761
v -0.18880200 0.52046730 1.39108761
v -0.17934704 0.52327516 1.50972837
v -0.17934704 0.49248233 1.53685654
v -0.19303981 0.51816044 1.60274564
v -0.20490748 0.51254463 1.61745506
v -0.17934704 0.50731510 1.53867559
v -0.23412701 0.47634474 1.61815119
v -0.23412701 0.46557249 1.61644451
v -0.25027702 0.46529064 1.61662410
v -0.25966964 0.46678333 1.61565849
v -0.26199332 0.46445559 1.60660827
v -0.25920669 0.42802606 1.50238494
v -0.25027702 0.42802606 1.50516960
v -0.25014346 0.42802606 1.50519208
v -0.23412701 0.42802606 1.50723566
v -0.23399348 0.42802606 1.50723566
v -0.26483337 0.42802606 1.41287099
v -0.26981903 0.49248233 1.39108761
v -0.26881299 0.42802606 1.42901763
v -0.26882190 0.42802606 1.42915237
v -0.19595109 0.52542548 1.39108761
v -0.20184484 0.52931892 1.50972837
v -0.22199227 0.53381782 1.60142065
v -0.20184484 0.52660500 1.59046164
v -0.20044708 0.52305597 1.60752899
v -0.17934704 0.52159461 1.52035058
v -0.20184484 0.52805592 1.39108761
v -0.21234145 0.53113518 1.39108761
v -0.20490748 0.52075955 1.61745506
v -0.17934704 0.51058227 1.53712602
v -0.17934704 0.52066561 1.52529114
v -0.21798594 0.52289943 1.61884732
v -0.23412701 0.50861987 1.62046431
v -0.25027702 0.47634474 1.61855542
v -0.26039079 0.47634474 1.61617503
v -0.26598185 0.47634474 1.60660827
v -0.26955193 0.47634474 1.59046164
v -0.26838565 0.42802606 1.47745758
v -0.26835004 0.42802606 1.47759232
v -0.26397868 0.42802606 1.49360421
v -0.26992586 0.49248233 1.41287099
v -0.26993476 0.50861987 1.39108761
v -0.26908900 0.42802606 1.44516426
v -0.22199227 0.53381782 1.59342594
v -0.23412701 0.53466332 1.60337444
v -0.21715796 0.53116651 1.60674301
v -0.21798594 0.53231474 1.39108761
v -0.23412701 0.52300380 1.61875753
v -0.23412701 0.53108301 1.61143652
v -0.25027702 0.50861987 1.61992535
v -0.26110302 0.50861987 1.61687116
v -0.26705020 0.50861987 1.60660827
v -0.27027308 0.49248233 1.59046164
v -0.26897324 0.42802606 1.46131089
v -0.26974781 0.47634474 1.42901763
v -0.26998818 0.49248233 1.42901763
v -0.26418344 0.52384930 1.39108761
v -0.27001488 0.50861987 1.41287099
v -0.27011283 0.49248233 1.47745758
v -0.27029979 0.49248233 1.57431496
v -0.27028198 0.49248233 1.55816832
v -0.23412701 0.53257566 1.39108761
v -0.24627957 0.53429798 1.60209440
v -0.22847365 0.53249216 1.39108761
v -0.25027702 0.52209565 1.61815119
v -0.25110498 0.53036278 1.60712476
v -0.26064897 0.51969485 1.61662410
v -0.26301716 0.52255492 1.60660827
v -0.27013064 0.50861987 1.59046164
v -0.27025528 0.50861987 1.55816832
v -0.25027702 0.53181370 1.39108761
v -0.27013064 0.50861987 1.47745758
v -0.26421015 0.52383886 1.41287099
v -0.26421015 0.52389102 1.49360421
v -0.25380259 0.53197024 1.59046164
v -0.24462362 0.53208505 1.39108761
v -0.26410332 0.52390147 1.59046164
v -0.26419234 0.52391191 1.55816832
v -0.26420124 0.52390147 1.50972837
f 1 2 14
f 1 14 28
f 1 28 46
f 1 46 45
f 1 45 44
f 1 44 43
f 1 43 42
f 1 42 70
f 1 70 69
f 1 69 68
f 1 68 84
f 1 84 73
f 1 73 50
f 1 50 49
f 1 49 47
f 1 47 29
f 1 29 15
f 1 15 3
f 1 3 4
f 1 4 5
f 1 5 6
f 1 6 7
f 1 7 2
f 2 7 8
f 2 8 9
f 2 9 10
f 2 10 11
f 2 11 12
f 2 12 13
f 2 13 20
f 2 20 19
f 2 19 18
f 2 18 22
f 2 22 32
f 2 32 56
f 2 56 61
f 2 61 60
f 2 60 36
f 2 36 33
f 2 33 23
f 2 23 14
f 3 15 16
f 3 16 17
f 3 17 4
f 4 17 16
f 4 16 30
f 4 30 48
f 4 48 72
f 4 72 87
f 4 87 101
f 4 101 106
f 4 106 92
f 4 92 94
f 4 94 77
f 4 77 58
f 4 58 57
f 4 57 51
f 4 51 31
f 4 31 21
f 4 21 12
f 4 12 11
f 4 11 10
f 4 10 9
f 4 9 8
f 4 8 7
f 4 7 6
f 4 6 5
f 12 18 19
f 12 19 20
f 12 20 13
f 12 21 22
f 12 22 18
f 14 23 24
f 14 24 25
f 14 25 26
f 14 26 27
f 14 27 28
f 15 29 30
f 15 30 16
f 21 31 22
f 22 31 32
f 23 33 24
f 24 34 59
f 24 59 35
f 24 35 25
f 24 33 36
f 24 36 34
f 25 35 37
f 25 37 38
f 25 38 26
f 26 38 27
f 27 38 39
f 27 39 40
f 27 40 41
f 27 41 42
f 27 42 43
f 27 43 44
f 27 44 45
f 27 45 46
f 27 46 28
f 29 47 30
f 30 47 49
f 30 49 50
f 30 50 48
f 31 51 32
f 32 52 53
f 32 53 54
f 32 54 55
f 32 55 56
f 32 51 57
f 32 57 58
f 32 58 52
f 34 55 59
f 34 36 60
f 34 60 61
f 34 61 56
f 34 56 55
f 35 59 62
f 35 62 63
f 35 63 37
f 37 63 64
f 37 64 38
f 38 64 39
f 39 64 40
f 40 64 65
f 40 65 66
f 40 66 41
f 41 66 67
f 41 67 68
f 41 68 69
f 41 69 70
f 41 70 42
f 48 71 72
f 48 50 73
f 48 73 71
f 52 74 53
f 52 58 74
f 53 74 75
f 53 75 76
f 53 76 54
f 54 76 55
f 55 76 59
f 58 77 74
f 59 76 62
f 62 78 63
f 62 76 79
f 62 79 78
f 63 78 80
f 63 80 64
f 64 80 65
f 65 80 81
f 65 81 66
f 66 81 82
f 66 82 83
f 66 83 67
f 67 83 84
f 67 84 68
f 71 73 85
f 71 85 86
f 71 86 72
f 72 86 88
f 72 88 87
f 73 89 86
f 73 86 85
f 73 84 83
f 73 83 90
f 73 90 91
f 73 91 89
f 74 77 75
f 75 92 93
f 75 93 79
f 75 79 76
f 75 77 94
f 75 94 92
f 78 79 95
f 78 95 80
f 79 93 96
f 79 96 95
f 80 95 97
f 80 97 81
f 81 97 82
f 82 97 98
f 82 98 99
f 82 99 83
f 83 99 100
f 83 100 90
f 86 89 88
f 87 88 102
f 87 102 100
f 87 100 103
f 87 103 104
f 87 104 105
f 87 105 101
f 88 89 91
f 88 91 102
f 90 100 91
f 91 100 102
f 92 106 93
f 93 105 96
f 93 106 101
f 93 101 105
f 95 96 97
f 96 105 98
f 96 98 97
f 98 105 107
f 98 107 99
f 99 107 100
f 100 107 108
f 100 108 104
f 100 104 103
f 104 108 109
f 104 109 105
f 105 109 108
f 105 108 107

