# https://github.com/mikedh/trimesh
v -0.18568321 0.44403882 0.52204991
v -0.18568321 0.42805604 0.52221802
v -0.18568321 0.46017795 0.52258579
v 0.00198355 0.46018839 0.52265935
v 0.00198355 0.45013267 0.52258579
v 0.00198355 0.44404402 0.52254376
v -0.18568321 0.42805604 0.52695684
v 0.00198355 0.43398830 0.52289050
v 0.00198355 0.42805604 0.52310065
v -0.18568321 0.47321019 0.52807062
v -0.16953610 0.47324147 0.52802858
v -0.15338896 0.47327274 0.52801809
v -0.12109470 0.47327274 0.52800758
v -0.10494756 0.47327274 0.52800758
v 0.00198355 0.47325711 0.52803910
v -0.18551789 0.42805604 0.62921428
v -0.18568321 0.42806648 0.62921428
v 0.00198355 0.42805604 0.62745956
v -0.18568321 0.47952824 0.54092110
v -0.13724183 0.47328319 0.52801809
v -0.04037741 0.47328319 0.52803910
v -0.05652454 0.47327799 0.52802858
v 0.00198355 0.47557686 0.53289350
v -0.04037741 0.47945004 0.54093162
v -0.18568321 0.44404402 0.62938240
v 0.00198355 0.44404402 0.62787986
v -0.18568321 0.48109734 0.55707089
v 0.00198355 0.47940312 0.54093162
v -0.16953610 0.46018839 0.62873094
v -0.18568321 0.46018839 0.62875197
v 0.00198355 0.46018839 0.62772224
v -0.18568321 0.48131105 0.57322067
v 0.00198355 0.48058124 0.55708138
v 0.00198355 0.47985142 0.54701536
v -0.15338896 0.47401820 0.62083993
v -0.16953610 0.47401300 0.62088197
v 0.00198355 0.47397128 0.62041964
v -0.18568321 0.47372629 0.62079790
v -0.18568321 0.48114946 0.58934943
v 0.00198355 0.48059168 0.58935995
v 0.00198355 0.48061772 0.57322067
v 0.00198355 0.48059688 0.56316515
v -0.02423028 0.47399736 0.62046167
v -0.13724183 0.47402340 0.62077689
v 0.00198355 0.48012249 0.60550973
v -0.02423028 0.48015377 0.60550973
v -0.16953610 0.48017986 0.60550973
v -0.18568321 0.48008602 0.60549922
v -0.08881880 0.48018505 0.60550973
v -0.10494756 0.48019030 0.60550973
v -0.12109470 0.48019549 0.60550973
v -0.13724183 0.48019549 0.60550973
f 1 2 7
f 1 7 17
f 1 17 25
f 1 25 30
f 1 30 38
f 1 38 48
f 1 48 39
f 1 39 32
f 1 32 27
f 1 27 19
f 1 19 10
f 1 10 3
f 1 3 4
f 1 4 5
f 1 5 6
f 1 6 2
f 2 6 8
f 2 8 9
f 2 9 18
f 2 18 16
f 2 16 7
f 3 10 11
f 3 11 12
f 3 12 13
f 3 13 14
f 3 14 15
f 3 15 4
f 4 15 23
f 4 23 28
f 4 28 34
f 4 34 33
f 4 33 42
f 4 42 41
f 4 41 40
f 4 40 45
f 4 45 37
f 4 37 31
f 4 31 26
f 4 26 18
f 4 18 9
f 4 9 8
f 4 8 6
f 4 6 5
f 7 16 17
f 10 19 11
f 11 19 12
f 12 20 13
f 12 19 20
f 13 20 14
f 14 20 21
f 14 21 22
f 14 22 15
f 15 22 21
f 15 21 24
f 15 24 23
f 16 25 17
f 16 18 26
f 16 26 25
f 19 27 24
f 19 24 21
f 19 21 20
f 23 24 28
f 24 27 28
f 25 29 30
f 25 26 31
f 25 31 29
f 27 32 33
f 27 33 34
f 27 34 28
f 29 35 36
f 29 36 30
f 29 31 37
f 29 37 35
f 30 36 38
f 32 39 40
f 32 40 41
f 32 41 42
f 32 42 33
f 35 37 43
f 35 43 44
f 35 44 45
f 35 45 46
f 35 46 36
f 36 47 48
f 36 48 38
f 36 46 49
f 36 49 50
f 36 50 51
f 36 51 52
f 36 52 47
f 37 45 43
f 39 48 47
f 39 47 52
f 39 52 51
f 39 51 50
f 39 50 49
f 39 49 46
f 39 46 45
f 39 45 40
f 43 45 44

