# https://github.com/mikedh/trimesh
v -0.18573610 -0.52085926 0.76810529
v -0.18573610 -0.52115886 0.76863455
v -0.18663980 -0.52552875 0.79287285
v -0.18573610 -0.51251971 0.76810529
v 0.19682235 -0.51018147 0.76924006
v 0.19682235 -0.52071884 0.76980520
v -0.18573610 -0.52615602 0.78308154
v 0.19682235 -0.52657266 0.78313088
v -0.18663980 -0.52506062 0.79926881
v -0.18663980 -0.50753896 0.79287285
v 0.19802724 -0.52599919 0.79287733
v 0.19802724 -0.52581897 0.79546084
v -0.18573610 -0.50697954 0.78313088
v 0.19682235 -0.50374249 0.78313088
v 0.19682235 -0.50866943 0.77170695
v 0.19802724 -0.50266114 0.79287733
v -0.18663980 -0.51980130 0.81392661
v 0.19802724 -0.52549598 0.79776626
v 0.19802724 -0.52528064 0.79927330
v -0.18663980 -0.50758106 0.79334380
v 0.19802724 -0.50343590 0.79927330
v -0.18663980 -0.50813345 0.79926881
v -0.18663980 -0.51367833 0.81389073
v 0.19802724 -0.52117056 0.80971945
v 0.19802724 -0.51949000 0.81214597
v 0.19802724 -0.51139625 0.81274699
v 0.19802724 -0.51115050 0.81274699
v 0.19802724 -0.50390634 0.80104049
v -0.18663980 -0.50826921 0.80038564
f 1 2 3
f 1 3 10
f 1 10 4
f 1 4 5
f 1 5 6
f 1 6 2
f 2 7 3
f 2 6 8
f 2 8 7
f 3 9 17
f 3 17 23
f 3 23 29
f 3 29 22
f 3 22 20
f 3 20 10
f 3 7 11
f 3 11 12
f 3 12 9
f 4 10 13
f 4 13 14
f 4 14 15
f 4 15 5
f 5 15 16
f 5 16 11
f 5 11 6
f 6 11 8
f 7 8 11
f 9 12 18
f 9 18 19
f 9 19 17
f 10 20 16
f 10 16 13
f 11 16 21
f 11 21 28
f 11 28 27
f 11 27 26
f 11 26 25
f 11 25 24
f 11 24 19
f 11 19 18
f 11 18 12
f 13 16 14
f 14 16 15
f 16 20 22
f 16 22 21
f 17 19 24
f 17 24 25
f 17 25 26
f 17 26 27
f 17 27 23
f 21 22 29
f 21 29 28
f 23 27 28
f 23 28 29

