# https://github.com/mikedh/trimesh
v 0.08889287 -0.49247420 0.50866684
v 0.08889287 -0.49238041 0.50866684
v 0.09088813 -0.50320352 0.50866684
v 0.00155332 -0.44404214 0.52238132
v 0.08934462 -0.47732744 0.50866684
v 0.09186693 -0.50784602 0.50866684
v 0.00155332 -0.45367414 0.52358331
v 0.00155332 -0.42773242 0.52276596
v 0.09367396 -0.46666380 0.50866684
v 0.09589509 -0.51391408 0.50866684
v 0.00155332 -0.46019243 0.52440063
v 0.12106168 -0.46036124 0.50866684
v 0.10491139 -0.46285597 0.50866684
v 0.00155332 -0.42773242 0.56488302
v 0.19385091 -0.42773242 0.52156400
v 0.13719314 -0.46007049 0.50866684
v 0.10417729 -0.51931628 0.50866684
v 0.00155332 -0.47075294 0.52976142
v 0.00155332 -0.42779811 0.62760186
v 0.00808497 -0.42773242 0.62758984
v 0.19385091 -0.42773242 0.60264894
v 0.19385091 -0.47633329 0.51736910
v 0.18297112 -0.49247420 0.50866684
v 0.18231231 -0.48796297 0.50866684
v 0.18059939 -0.47633329 0.50866684
v 0.16936195 -0.46388765 0.50866684
v 0.16924902 -0.46380325 0.50866684
v 0.15334344 -0.46059569 0.50866684
v 0.10447846 -0.51938192 0.50866684
v 0.10474199 -0.51938192 0.50891926
v 0.00155332 -0.47484209 0.60550964
v 0.00155332 -0.47535791 0.58935516
v 0.00155332 -0.47537668 0.58284046
v 0.00155332 -0.47539544 0.57321269
v 0.00155332 -0.47536729 0.56669798
v 0.00155332 -0.47531104 0.55708222
v 0.00155332 -0.47487958 0.55055554
v 0.00155332 -0.47423244 0.54092774
v 0.00155332 -0.44404214 0.62805861
v 0.19385091 -0.45929207 0.63144816
v 0.19385091 -0.42776995 0.62957310
v 0.18581341 -0.42773242 0.62935674
v 0.19385091 -0.49200525 0.51686428
v 0.17899941 -0.50862444 0.50866684
v 0.19385091 -0.49247420 0.51685225
v 0.19385091 -0.49510025 0.51716478
v 0.19385091 -0.50862444 0.51881148
v 0.11966876 -0.52126704 0.50866684
v 0.19385091 -0.52299278 0.57321269
v 0.19385091 -0.52157656 0.58244381
v 0.19385091 -0.52042298 0.58766036
v 0.00155332 -0.47132502 0.61852698
v 0.00155332 -0.45056976 0.62719318
v 0.00155332 -0.46019243 0.62590708
v 0.19385091 -0.47463575 0.62136363
v 0.17638301 -0.51249791 0.50866684
v 0.19385091 -0.51192579 0.52028990
v 0.12109932 -0.52143590 0.50866684
v 0.19385091 -0.52353675 0.56524360
v 0.19385091 -0.51425175 0.59522077
v 0.00155332 -0.46469422 0.62292619
v 0.19385091 -0.52060118 0.52474920
v 0.16872197 -0.51883795 0.50866684
v 0.13723079 -0.52167035 0.50866684
v 0.19385091 -0.52336789 0.54908912
v 0.19385091 -0.52348983 0.55708222
v 0.19385091 -0.52205489 0.53300675
v 0.15338108 -0.52109823 0.50866684
v 0.15426576 -0.52097634 0.50866684
v 0.16853373 -0.51888487 0.50866684
v 0.19385091 -0.52318031 0.54092774
f 1 2 5
f 1 5 9
f 1 9 13
f 1 13 12
f 1 12 16
f 1 16 28
f 1 28 27
f 1 27 26
f 1 26 25
f 1 25 24
f 1 24 23
f 1 23 44
f 1 44 56
f 1 56 63
f 1 63 70
f 1 70 69
f 1 69 68
f 1 68 64
f 1 64 58
f 1 58 48
f 1 48 29
f 1 29 17
f 1 17 10
f 1 10 6
f 1 6 3
f 1 3 4
f 1 4 2
f 2 4 5
f 3 6 4
f 4 7 11
f 4 11 18
f 4 18 38
f 4 38 37
f 4 37 36
f 4 36 35
f 4 35 34
f 4 34 33
f 4 33 32
f 4 32 31
f 4 31 52
f 4 52 61
f 4 61 54
f 4 54 53
f 4 53 39
f 4 39 19
f 4 19 14
f 4 14 8
f 4 8 5
f 4 6 7
f 5 8 9
f 6 10 11
f 6 11 7
f 8 12 13
f 8 13 9
f 8 14 20
f 8 20 42
f 8 42 21
f 8 21 15
f 8 15 16
f 8 16 12
f 10 17 18
f 10 18 11
f 14 19 20
f 15 21 41
f 15 41 40
f 15 40 55
f 15 55 60
f 15 60 51
f 15 51 50
f 15 50 49
f 15 49 59
f 15 59 66
f 15 66 65
f 15 65 71
f 15 71 67
f 15 67 62
f 15 62 57
f 15 57 47
f 15 47 46
f 15 46 45
f 15 45 43
f 15 43 22
f 15 22 23
f 15 23 24
f 15 24 25
f 15 25 26
f 15 26 27
f 15 27 28
f 15 28 16
f 17 29 30
f 17 30 31
f 17 31 32
f 17 32 33
f 17 33 34
f 17 34 35
f 17 35 36
f 17 36 37
f 17 37 38
f 17 38 18
f 19 39 40
f 19 40 41
f 19 41 20
f 20 41 42
f 21 42 41
f 22 43 23
f 23 43 45
f 23 45 46
f 23 46 47
f 23 47 44
f 29 48 49
f 29 49 50
f 29 50 30
f 30 50 51
f 30 51 31
f 31 51 52
f 39 53 40
f 40 53 54
f 40 54 55
f 44 47 57
f 44 57 56
f 48 58 49
f 49 58 59
f 51 60 52
f 52 60 61
f 54 61 60
f 54 60 55
f 56 57 62
f 56 62 63
f 58 64 65
f 58 65 66
f 58 66 59
f 62 67 68
f 62 68 69
f 62 69 70
f 62 70 63
f 64 68 71
f 64 71 65
f 67 71 68

