# https://github.com/mikedh/trimesh
v 0.23413106 -0.53624542 0.91233077
v 0.23413106 -0.53624542 0.92848129
v 0.22232910 -0.53442483 0.86387920
v 0.22233615 -0.53442483 0.84772866
v 0.23413106 -0.53623488 0.84772866
v 0.25027591 -0.53553625 0.79293414
v 0.25027591 -0.53556801 1.13833151
v 0.25027591 -0.53556801 1.15448204
v 0.23413106 -0.53623488 1.21908414
v 0.22235730 -0.53442483 1.21908414
v 0.19803428 -0.52599914 0.79293414
v 0.22236435 -0.53439307 0.81542762
v 0.23413106 -0.53618195 0.79293414
v 0.25594425 -0.53444600 0.79293414
v 0.25972310 -0.53375796 1.13833151
v 0.25027591 -0.53555743 1.33741471
v 0.23413106 -0.53620312 1.33741471
v 0.22621375 -0.53499642 1.33741471
v 0.22237845 -0.53442483 1.23523463
v 0.22235025 -0.53439307 1.33208450
v 0.19803428 -0.52588269 1.04148166
v 0.19803428 -0.50264853 0.79293414
v 0.22239962 -0.53436131 0.79293414
v 0.22237845 -0.53437190 0.79927709
v 0.25967376 -0.53372620 0.79293414
v 0.26537734 -0.52477127 1.23523463
v 0.26537734 -0.52477127 1.33741471
v 0.26352314 -0.52771391 1.33741471
v 0.25972310 -0.53374737 1.23523463
v 0.25970900 -0.53374737 1.33741471
v 0.26532799 -0.52477127 0.79293414
v 0.22235730 -0.53439307 1.33741471
v 0.19803428 -0.52507824 1.05384775
v 0.21428489 -0.52730108 1.33741471
v 0.20966703 -0.46792959 0.79293414
v 0.19803428 -0.42811927 0.96195498
v 0.26987533 -0.50862906 1.33208450
v 0.26983303 -0.50862906 0.79927709
v 0.26840187 -0.51391100 1.33741471
v 0.26981893 -0.50862906 0.79293414
v 0.19803428 -0.52482420 1.05763219
v 0.21078800 -0.52187097 1.33741471
v 0.21798620 -0.46278528 0.79293414
v 0.21798620 -0.42811927 0.96131536
v 0.23413106 -0.45768326 0.79293414
v 0.22438070 -0.46076354 0.79293414
v 0.19803428 -0.42811927 1.06669354
v 0.26997403 -0.49247631 1.33208450
v 0.26993173 -0.49776884 1.33741471
v 0.26986123 -0.50862906 1.33741471
v 0.27005158 -0.49247631 0.81542762
v 0.26988943 -0.50222511 0.79293414
v 0.20908892 -0.51922470 1.33741471
v 0.19803428 -0.52092889 1.07303647
v 0.23413106 -0.42811927 0.96088894
v 0.24052555 -0.45800082 0.79293414
v 0.25027591 -0.42811927 0.96222149
v 0.19803428 -0.46625717 1.07527517
v 0.20767183 -0.49247631 1.33741471
v 0.20876460 -0.47634469 1.33741471
v 0.20982213 -0.46814128 1.33741471
v 0.21798620 -0.46299697 1.33741471
v 0.23413106 -0.45770444 1.33741471
v 0.20184137 -0.42811927 1.06680013
v 0.26995993 -0.49247631 1.33741471
v 0.26986123 -0.42811927 1.00923391
v 0.26999518 -0.49247631 0.79293414
v 0.20869411 -0.51575281 1.33741471
v 0.20790450 -0.50862906 1.33741471
v 0.20782695 -0.50333653 1.33741471
v 0.19803428 -0.50862906 1.07703414
v 0.25027591 -0.45849830 0.79293414
v 0.26136579 -0.42811927 0.96627246
v 0.19803428 -0.47634469 1.07740725
v 0.19803428 -0.47850406 1.07751384
v 0.19803428 -0.49247631 1.07804686
v 0.21798620 -0.42811927 1.06717324
v 0.24498829 -0.45823368 1.33741471
v 0.25327929 -0.42811927 1.06440155
v 0.24513634 -0.42811927 1.06632043
v 0.23413106 -0.42811927 1.06711995
v 0.26969908 -0.42811927 1.02538444
v 0.26878256 -0.47634469 1.33741471
v 0.26975548 -0.42811927 0.99308338
v 0.26953694 -0.48608295 0.79293414
v 0.26300847 -0.46393905 0.79293414
v 0.26701297 -0.42811927 0.97693287
v 0.25027591 -0.45849830 1.33741471
v 0.25339208 -0.42811927 1.06434826
v 0.26869796 -0.42811927 1.04148166
v 0.26301555 -0.46392846 1.33741471
v 0.26883191 -0.47634469 0.79293414
v 0.26652651 -0.47142266 0.79293414
v 0.26862746 -0.42811927 1.04169486
v 0.26310015 -0.42811927 1.05629963
v 0.26299437 -0.42811927 1.05640624
f 1 2 3
f 1 3 4
f 1 4 5
f 1 5 6
f 1 6 7
f 1 7 8
f 1 8 2
f 2 8 9
f 2 9 10
f 2 10 3
f 3 11 4
f 3 10 11
f 4 11 12
f 4 12 13
f 4 13 5
f 5 13 6
f 6 13 23
f 6 23 11
f 6 11 22
f 6 22 35
f 6 35 43
f 6 43 46
f 6 46 45
f 6 45 56
f 6 56 72
f 6 72 86
f 6 86 93
f 6 93 92
f 6 92 85
f 6 85 67
f 6 67 52
f 6 52 40
f 6 40 31
f 6 31 25
f 6 25 14
f 6 14 15
f 6 15 7
f 7 15 8
f 8 15 16
f 8 16 9
f 9 16 17
f 9 17 18
f 9 18 10
f 10 18 19
f 10 19 20
f 10 20 11
f 11 21 33
f 11 33 41
f 11 41 54
f 11 54 71
f 11 71 76
f 11 76 75
f 11 75 74
f 11 74 58
f 11 58 47
f 11 47 36
f 11 36 22
f 11 23 24
f 11 24 12
f 11 20 21
f 12 24 13
f 13 24 23
f 14 25 15
f 15 26 27
f 15 27 28
f 15 28 29
f 15 29 30
f 15 30 16
f 15 25 31
f 15 31 26
f 16 30 28
f 16 28 27
f 16 27 39
f 16 39 50
f 16 50 49
f 16 49 65
f 16 65 83
f 16 83 91
f 16 91 88
f 16 88 78
f 16 78 63
f 16 63 62
f 16 62 61
f 16 61 60
f 16 60 59
f 16 59 70
f 16 70 69
f 16 69 68
f 16 68 53
f 16 53 42
f 16 42 34
f 16 34 32
f 16 32 18
f 16 18 17
f 18 32 19
f 19 32 20
f 20 32 21
f 21 32 34
f 21 34 33
f 22 36 35
f 26 37 27
f 26 31 38
f 26 38 37
f 27 37 39
f 28 30 29
f 31 40 38
f 33 34 41
f 34 42 41
f 35 36 43
f 36 44 45
f 36 45 46
f 36 46 43
f 36 47 64
f 36 64 77
f 36 77 81
f 36 81 80
f 36 80 79
f 36 79 89
f 36 89 96
f 36 96 95
f 36 95 94
f 36 94 90
f 36 90 82
f 36 82 66
f 36 66 84
f 36 84 87
f 36 87 73
f 36 73 57
f 36 57 55
f 36 55 44
f 37 48 49
f 37 49 50
f 37 50 39
f 37 38 51
f 37 51 48
f 38 40 51
f 40 52 51
f 41 42 53
f 41 53 54
f 44 55 45
f 45 55 57
f 45 57 56
f 47 58 59
f 47 59 60
f 47 60 61
f 47 61 62
f 47 62 63
f 47 63 64
f 48 65 49
f 48 51 66
f 48 66 65
f 51 52 67
f 51 67 66
f 53 68 54
f 54 68 69
f 54 69 70
f 54 70 59
f 54 59 71
f 56 57 72
f 57 73 72
f 58 74 59
f 59 74 75
f 59 75 76
f 59 76 71
f 63 77 64
f 63 78 79
f 63 79 80
f 63 80 81
f 63 81 77
f 65 66 82
f 65 82 83
f 66 67 84
f 67 85 84
f 72 73 87
f 72 87 86
f 78 88 79
f 79 88 89
f 82 90 83
f 83 90 91
f 84 85 92
f 84 92 93
f 84 93 86
f 84 86 87
f 88 91 90
f 88 90 94
f 88 94 95
f 88 95 96
f 88 96 89

