# https://github.com/mikedh/trimesh
v 0.07461036 -0.49308813 1.08958348
v 0.06459883 -0.48857484 1.09803864
v 0.07682344 -0.48159468 1.08958348
v 0.07629652 -0.50767288 1.08958348
v 0.06456370 -0.50060620 1.09800907
v -0.18519762 -0.51938894 1.30158329
v -0.18519762 -0.50914435 1.30146505
v 0.04749141 -0.48111241 1.11335253
v 0.07791241 -0.47634566 1.08958348
v 0.08845086 -0.52050797 1.08958348
v 0.07650729 -0.51877068 1.09463884
v 0.06572294 -0.51136392 1.09904381
v 0.04843987 -0.51661294 1.11418032
v -0.18519762 -0.51969808 1.30258845
v -0.18519762 -0.47480615 1.31184184
v 0.03217553 -0.46818459 1.13020372
v 0.08089831 -0.47196215 1.08958348
v 0.04949372 -0.47034853 1.11512635
v 0.08975061 -0.52075531 1.08958348
v -0.18519762 -0.52298720 1.31592160
v -0.18519762 -0.47470725 1.31190098
v -0.17750456 -0.46838863 1.30796905
v 0.07742062 -0.46681822 1.09540749
v -0.18519762 -0.46642256 1.31852321
v 0.08904804 -0.46539622 1.08958348
v 0.10492598 -0.52363020 1.08958348
v 0.10492598 -0.52372293 1.08993826
v -0.18519762 -0.52507694 1.33209283
v -0.18519762 -0.46625563 1.31905534
v 0.08946958 -0.46527876 1.08958348
v 0.12108494 -0.52428557 1.08958348
v 0.08880215 -0.52399497 1.10607991
v -0.18519762 -0.52537370 1.34823450
v 0.12108494 -0.52430410 1.08993826
v -0.18519762 -0.46348584 1.33150155
v 0.10492598 -0.46282426 1.08958348
v 0.13720878 -0.52398881 1.08958348
v -0.18519762 -0.52486053 1.36440573
v 0.10492598 -0.52431647 1.10607991
v 0.13720878 -0.52398260 1.08993826
v -0.18519762 -0.46341163 1.33209283
v 0.10534753 -0.46280573 1.08958348
v -0.13721254 -0.46276247 1.29977992
v 0.15459722 -0.52119428 1.08958348
v -0.18519762 -0.52143537 1.38078392
v 0.12108494 -0.52379714 1.10607991
v 0.10492598 -0.52356221 1.12225116
v 0.08880215 -0.52324071 1.13839281
v 0.07264319 -0.52288210 1.15453449
v -0.18519762 -0.46249044 1.34773192
v -0.16953044 -0.46256459 1.33209283
v 0.12108494 -0.46222456 1.08958348
v 0.15979618 -0.52016794 1.08958348
v 0.15473774 -0.52086041 1.09132773
v -0.11090153 -0.51797931 1.32576626
v -0.14508124 -0.51685408 1.35648272
v -0.18519762 -0.51430685 1.39157461
v 0.05651936 -0.52236277 1.17067615
v 0.10453956 -0.51992064 1.13824501
v 0.08792394 -0.51944457 1.15394322
v 0.07130832 -0.51885725 1.16970055
v 0.08202241 -0.51757745 1.16369916
v -0.18519762 -0.46249044 1.34823450
v 0.12150648 -0.46221836 1.08958348
v 0.16106080 -0.51515384 1.09765432
v 0.15027644 -0.51881394 1.10197058
v 0.12122545 -0.52031635 1.12251723
v 0.16885927 -0.51375658 1.08958348
v 0.06505550 -0.51703338 1.17913131
v -0.18512736 -0.51426975 1.39157461
v -0.18519762 -0.47093586 1.39157461
v 0.11595624 -0.51834408 1.13277575
v -0.18519762 -0.46273773 1.36390319
v -0.16953044 -0.46265116 1.34823450
v 0.13763031 -0.46241623 1.08958348
v 0.17202079 -0.50908251 1.08958348
v 0.06603909 -0.50862502 1.17998865
v -0.18382761 -0.50878579 1.39157461
v -0.18519762 -0.46540243 1.38039962
v -0.18224686 -0.47609215 1.39157461
v 0.08131985 -0.46789403 1.16310789
v -0.03224954 -0.46826495 1.25948492
v -0.12864126 -0.46796819 1.34054801
v -0.17395661 -0.46673786 1.37534424
v -0.18519762 -0.46281189 1.36440573
v -0.13721254 -0.46391244 1.33209283
v -0.12108869 -0.46349820 1.31592160
v -0.10492974 -0.46309629 1.29977992
v 0.08880215 -0.46341779 1.13839281
v 0.15529978 -0.46445650 1.08958348
v -0.02420519 -0.46359709 1.23530195
v 0.17261799 -0.50329563 1.08958348
v 0.16207951 -0.50438992 1.09854123
v 0.04893167 -0.50349966 1.19533210
v -0.18266839 -0.49912236 1.39157461
v -0.18519762 -0.46532823 1.38010396
v -0.09453180 -0.46709030 1.30977241
v -0.08901668 -0.46553842 1.29975038
v 0.04036039 -0.49248844 1.20292993
v 0.06674165 -0.49248844 1.18057992
v 0.17367183 -0.49248844 1.08958348
v 0.04882628 -0.48288685 1.19524342
v 0.16204438 -0.48228095 1.09851166
v 0.17089669 -0.47659295 1.08958348
v 0.17029950 -0.47484945 1.08958348
v 0.16000695 -0.47151702 1.09667872
v 0.16576797 -0.46866682 1.08958348
v 0.09828676 -0.46745506 1.14764620
v 0.08750241 -0.46644109 1.15361801
v 0.14925773 -0.46664513 1.10120193
v -0.00910008 -0.46621237 1.23459244
v 0.17289899 -0.48788858 1.08958348
f 1 2 3
f 1 3 9
f 1 9 17
f 1 17 25
f 1 25 30
f 1 30 36
f 1 36 42
f 1 42 52
f 1 52 64
f 1 64 75
f 1 75 90
f 1 90 107
f 1 107 105
f 1 105 104
f 1 104 112
f 1 112 101
f 1 101 92
f 1 92 76
f 1 76 68
f 1 68 53
f 1 53 44
f 1 44 37
f 1 37 31
f 1 31 26
f 1 26 19
f 1 19 10
f 1 10 4
f 1 4 5
f 1 5 6
f 1 6 7
f 1 7 2
f 2 8 9
f 2 9 3
f 2 7 8
f 4 10 11
f 4 11 12
f 4 12 13
f 4 13 6
f 4 6 5
f 6 14 20
f 6 20 28
f 6 28 33
f 6 33 38
f 6 38 45
f 6 45 57
f 6 57 71
f 6 71 79
f 6 79 96
f 6 96 85
f 6 85 73
f 6 73 63
f 6 63 50
f 6 50 41
f 6 41 35
f 6 35 29
f 6 29 24
f 6 24 21
f 6 21 15
f 6 15 7
f 6 13 11
f 6 11 10
f 6 10 14
f 7 15 8
f 8 16 9
f 8 15 16
f 9 16 18
f 9 18 17
f 10 19 20
f 10 20 14
f 11 13 12
f 15 21 22
f 15 22 16
f 16 23 18
f 16 22 24
f 16 24 23
f 17 18 23
f 17 23 25
f 19 26 27
f 19 27 20
f 20 27 28
f 21 24 22
f 23 24 25
f 24 29 30
f 24 30 25
f 26 31 27
f 27 31 32
f 27 32 28
f 28 32 34
f 28 34 33
f 29 35 30
f 30 35 36
f 31 37 34
f 31 34 32
f 33 34 39
f 33 39 40
f 33 40 38
f 34 37 40
f 34 40 39
f 35 41 36
f 36 41 43
f 36 43 42
f 37 44 40
f 38 40 46
f 38 46 47
f 38 47 48
f 38 48 49
f 38 49 45
f 40 44 46
f 41 50 51
f 41 51 43
f 42 43 51
f 42 51 52
f 44 53 54
f 44 54 46
f 45 55 56
f 45 56 57
f 45 49 58
f 45 58 59
f 45 59 60
f 45 60 61
f 45 61 62
f 45 62 55
f 46 54 47
f 47 54 48
f 48 54 49
f 49 54 58
f 50 63 64
f 50 64 52
f 50 52 51
f 53 65 66
f 53 66 59
f 53 59 67
f 53 67 54
f 53 68 65
f 54 67 58
f 55 62 69
f 55 69 56
f 56 70 57
f 56 69 70
f 57 70 78
f 57 78 95
f 57 95 80
f 57 80 71
f 58 67 59
f 59 66 60
f 60 66 72
f 60 72 61
f 61 72 62
f 62 72 66
f 62 66 65
f 62 65 69
f 63 73 74
f 63 74 64
f 64 74 75
f 65 68 76
f 65 76 69
f 69 76 77
f 69 77 70
f 70 77 78
f 71 80 81
f 71 81 82
f 71 82 83
f 71 83 84
f 71 84 79
f 73 85 86
f 73 86 87
f 73 87 88
f 73 88 75
f 73 75 74
f 75 89 90
f 75 88 91
f 75 91 89
f 76 92 93
f 76 93 94
f 76 94 77
f 77 94 78
f 78 94 95
f 79 84 97
f 79 97 98
f 79 98 90
f 79 90 96
f 80 95 99
f 80 99 100
f 80 100 101
f 80 101 102
f 80 102 103
f 80 103 104
f 80 104 105
f 80 105 81
f 81 105 106
f 81 106 107
f 81 107 108
f 81 108 97
f 81 97 83
f 81 83 82
f 83 97 84
f 85 96 86
f 86 96 90
f 86 90 91
f 86 91 87
f 87 91 88
f 89 91 90
f 90 109 108
f 90 108 110
f 90 110 107
f 90 98 111
f 90 111 109
f 92 101 93
f 93 101 94
f 94 101 100
f 94 100 99
f 94 99 95
f 97 111 98
f 97 108 109
f 97 109 111
f 101 112 103
f 101 103 102
f 103 112 104
f 105 107 106
f 107 110 108

