# https://github.com/mikedh/trimesh
v -0.17146027 -0.49247242 0.18565730
v -0.17146027 -0.47634287 0.18818673
v -0.14526661 -0.48423835 0.20990856
v -0.17010723 -0.49247242 0.18685876
v -0.14526661 -0.50068228 0.20990856
v -0.17146027 -0.50862612 0.18853455
v -0.17146027 -0.46925746 0.19217068
v -0.13031368 -0.47122228 0.22717219
v -0.09683436 -0.46825393 0.25834788
v -0.12857899 -0.48198943 0.22559130
v 0.18057559 -0.47634287 0.50863883
v 0.18231026 -0.48797452 0.50863883
v 0.18296943 -0.49247843 0.50863883
v -0.12857899 -0.50274988 0.22559130
v -0.17146027 -0.51884916 0.19751417
v -0.09718129 -0.51619520 0.25869570
v -0.11390360 -0.51499211 0.24310786
v -0.13059122 -0.51351698 0.22745678
v -0.15806854 -0.51811766 0.20687318
v -0.17146027 -0.46585381 0.19688180
v -0.15779099 -0.46663372 0.20662025
v 0.16926549 -0.46381648 0.50860721
v 0.16371450 -0.46698434 0.49858422
v 0.16933488 -0.46388298 0.50863883
v 0.17897968 -0.50862612 0.50863883
v -0.17146027 -0.51958066 0.19960097
v -0.08049368 -0.51684811 0.27431516
v 0.16319411 -0.51760983 0.49905848
v -0.17146027 -0.46485630 0.20156130
v -0.16920519 -0.46519488 0.20149807
v 0.16923079 -0.46379834 0.50863883
v 0.17637767 -0.51250132 0.50863883
v 0.14643710 -0.51734382 0.48343900
v -0.17146027 -0.51992526 0.20165620
v 0.16871038 -0.51883708 0.50863883
v 0.16850223 -0.51887938 0.50863883
v -0.17146027 -0.46271011 0.21800288
v -0.16951743 -0.46271618 0.21800288
v 0.15334113 -0.46059420 0.50863883
v -0.17146027 -0.52179335 0.21610577
v 0.15337582 -0.52109813 0.50860721
v 0.15424314 -0.52097119 0.50863883
v -0.17146027 -0.46301848 0.23422309
v -0.16951743 -0.46274640 0.23415986
v 0.13717390 -0.46006823 0.50863883
v -0.17146027 -0.52182963 0.21800288
v 0.10494357 -0.52163618 0.47632487
v 0.13720859 -0.52166640 0.50860721
v 0.15337582 -0.52109813 0.50863883
v -0.17146027 -0.46538227 0.25006391
v -0.16993375 -0.46519488 0.25075951
v 0.12104139 -0.46036447 0.50863883
v -0.17146027 -0.52169061 0.23223114
v 0.13720859 -0.52166640 0.50863883
v -0.04035319 -0.52175105 0.34713226
v -0.17146027 -0.47244953 0.25866409
v -0.16483378 -0.46667602 0.26157295
v 0.10490887 -0.46286126 0.50863883
v -0.17146027 -0.52164220 0.23415986
v 0.02421158 -0.52167848 0.41172856
v 0.04034410 -0.52166034 0.42785393
v 0.08881104 -0.52158782 0.47632487
v 0.12107608 -0.52143667 0.50863883
v 0.12107608 -0.52144273 0.50860721
v 0.10494357 -0.52155154 0.49245023
v -0.17146027 -0.47634287 0.26094059
v -0.14845843 -0.46673646 0.27741377
v 0.09363345 -0.46666394 0.50863883
v -0.10495267 -0.52140039 0.29875616
v -0.07265292 -0.52118879 0.33100689
v -0.17146027 -0.51973181 0.24841973
v 0.11965365 -0.52126136 0.50863883
v 0.10445785 -0.51938120 0.50863883
v 0.08836003 -0.51949606 0.49295614
v -0.00805346 -0.52064468 0.39557158
v -0.02422067 -0.52079583 0.37941460
v -0.04035319 -0.52094092 0.36325762
v -0.11549951 -0.46691182 0.30915860
v -0.17146027 -0.48250933 0.26201563
v -0.16781745 -0.47634287 0.26441863
v 0.01602389 -0.46817530 0.43607471
v 0.08933145 -0.47734038 0.50863883
v -0.09908944 -0.46702668 0.32496780
v -0.17146027 -0.51941142 0.25028522
v 0.10418031 -0.51932071 0.50863883
v 0.09339060 -0.51815996 0.50370640
v 0.07680706 -0.51822647 0.48789719
v -0.17146027 -0.49247242 0.26362819
v -0.15935221 -0.47634287 0.27248129
v 0.08051928 -0.48330132 0.50073425
v 0.08926206 -0.47946842 0.50863883
v -0.13173611 -0.51796651 0.29303323
v -0.14821556 -0.51803908 0.27722408
v -0.16424400 -0.51801487 0.26128841
v -0.17146027 -0.50862612 0.26037150
v 0.09585384 -0.51391601 0.50863883
v 0.08267028 -0.51206000 0.49867907
v 0.06605205 -0.51348676 0.48293312
v 0.04946851 -0.51462335 0.46725040
v 0.03291967 -0.51549993 0.45144125
v 0.01640552 -0.51624356 0.43566366
v -0.00007394 -0.51675740 0.41988612
v -0.01655339 -0.51697506 0.40404530
v -0.03299815 -0.51716851 0.38817291
v -0.09877720 -0.51774284 0.32471483
v -0.11525664 -0.51785771 0.30887405
v -0.16753989 -0.50862612 0.26419727
v -0.15921343 -0.50862612 0.27225998
v -0.15112983 -0.50862612 0.27997486
v 0.06400512 -0.50271961 0.48492507
v 0.08051928 -0.50129290 0.50070263
v 0.06372758 -0.49247843 0.48517802
v 0.07233159 -0.49247843 0.49327232
v 0.08041519 -0.49247843 0.50082910
v 0.08888043 -0.49237569 0.50863883
v 0.09186408 -0.50784020 0.50863883
v -0.14256050 -0.50862612 0.28806914
v 0.09085796 -0.50320930 0.50863883
v 0.08888043 -0.49247843 0.50863883
f 1 2 3
f 1 3 4
f 1 4 5
f 1 5 6
f 1 6 15
f 1 15 26
f 1 26 34
f 1 34 40
f 1 40 46
f 1 46 53
f 1 53 59
f 1 59 71
f 1 71 84
f 1 84 95
f 1 95 88
f 1 88 79
f 1 79 66
f 1 66 56
f 1 56 50
f 1 50 43
f 1 43 37
f 1 37 29
f 1 29 20
f 1 20 7
f 1 7 2
f 2 7 8
f 2 8 9
f 2 9 10
f 2 10 3
f 3 10 11
f 3 11 12
f 3 12 13
f 3 13 4
f 4 13 5
f 5 14 6
f 5 13 14
f 6 14 16
f 6 16 17
f 6 17 18
f 6 18 19
f 6 19 15
f 7 20 21
f 7 21 9
f 7 9 8
f 9 21 22
f 9 22 23
f 9 23 11
f 9 11 10
f 11 23 22
f 11 22 24
f 11 24 31
f 11 31 39
f 11 39 45
f 11 45 52
f 11 52 58
f 11 58 68
f 11 68 82
f 11 82 91
f 11 91 115
f 11 115 119
f 11 119 118
f 11 118 116
f 11 116 96
f 11 96 85
f 11 85 73
f 11 73 72
f 11 72 63
f 11 63 54
f 11 54 49
f 11 49 42
f 11 42 36
f 11 36 35
f 11 35 32
f 11 32 25
f 11 25 13
f 11 13 12
f 13 25 14
f 14 25 16
f 15 19 26
f 16 27 19
f 16 19 17
f 16 25 27
f 17 19 18
f 19 27 28
f 19 28 26
f 20 29 30
f 20 30 31
f 20 31 22
f 20 22 21
f 22 31 24
f 25 32 28
f 25 28 33
f 25 33 27
f 26 28 35
f 26 35 36
f 26 36 34
f 27 33 28
f 28 32 35
f 29 37 38
f 29 38 39
f 29 39 30
f 30 39 31
f 34 36 41
f 34 41 40
f 36 42 41
f 37 43 44
f 37 44 45
f 37 45 38
f 38 45 39
f 40 41 47
f 40 47 48
f 40 48 46
f 41 42 49
f 41 49 54
f 41 54 48
f 41 48 47
f 43 50 51
f 43 51 52
f 43 52 44
f 44 52 45
f 46 48 54
f 46 54 55
f 46 55 53
f 50 56 57
f 50 57 58
f 50 58 51
f 51 58 52
f 53 55 60
f 53 60 61
f 53 61 62
f 53 62 59
f 54 63 64
f 54 64 65
f 54 65 62
f 54 62 61
f 54 61 60
f 54 60 55
f 56 66 67
f 56 67 57
f 57 67 58
f 58 67 68
f 59 69 70
f 59 70 71
f 59 62 65
f 59 65 69
f 63 72 64
f 64 72 73
f 64 73 74
f 64 74 75
f 64 75 76
f 64 76 77
f 64 77 70
f 64 70 69
f 64 69 65
f 66 78 67
f 66 79 80
f 66 80 81
f 66 81 78
f 67 78 68
f 68 81 82
f 68 78 83
f 68 83 81
f 70 77 71
f 71 77 76
f 71 76 75
f 71 75 74
f 71 74 84
f 73 85 86
f 73 86 87
f 73 87 84
f 73 84 74
f 78 81 83
f 79 88 82
f 79 82 89
f 79 89 80
f 80 89 81
f 81 89 82
f 82 90 91
f 82 88 90
f 84 92 93
f 84 93 94
f 84 94 95
f 84 87 92
f 85 96 86
f 86 96 97
f 86 97 98
f 86 98 99
f 86 99 100
f 86 100 101
f 86 101 102
f 86 102 103
f 86 103 104
f 86 104 105
f 86 105 106
f 86 106 92
f 86 92 87
f 88 95 107
f 88 107 108
f 88 108 109
f 88 109 110
f 88 110 111
f 88 111 112
f 88 112 90
f 90 112 113
f 90 113 114
f 90 114 115
f 90 115 91
f 92 106 104
f 92 104 93
f 93 108 107
f 93 107 95
f 93 95 94
f 93 104 108
f 96 116 97
f 97 116 111
f 97 111 98
f 98 111 99
f 99 111 110
f 99 110 100
f 100 110 101
f 101 110 117
f 101 117 109
f 101 109 102
f 102 109 103
f 103 109 108
f 103 108 104
f 104 106 105
f 109 117 110
f 111 116 118
f 111 118 119
f 111 119 114
f 111 114 113
f 111 113 112
f 114 119 115

