# https://github.com/mikedh/trimesh
v -0.18663980 -0.51979779 0.81392944
v -0.18663980 -0.52015451 0.81295295
v -0.18663980 -0.51367285 0.81390231
v -0.19251209 -0.51436354 0.93143258
v -0.19251209 -0.51924376 0.93143258
v -0.18663980 -0.52505754 0.79928223
v -0.18663980 -0.50826136 0.80039433
v -0.22178407 -0.46388390 0.93143258
v -0.20011679 -0.52546740 0.93143258
v -0.18663980 -0.52552808 0.79288086
v -0.20184106 -0.52687149 0.93143258
v -0.18663980 -0.50812474 0.79928223
v -0.22406954 -0.46282132 0.93143258
v -0.18663980 -0.50753270 0.79288086
v -0.22175154 -0.46388390 0.81543484
v -0.20184106 -0.52945958 0.79928223
v -0.20184106 -0.52952031 0.79288086
v -0.21500898 -0.53131150 0.93143258
v -0.21798579 -0.53231334 0.93143258
v -0.23413053 -0.45815361 0.88000461
v -0.23413053 -0.45816877 0.93143258
v -0.22175154 -0.46388390 0.79288086
v -0.21329284 -0.53243480 0.79928223
v -0.21471618 -0.53243480 0.79288086
v -0.23413053 -0.53270044 0.93143258
v -0.23413053 -0.53545555 0.79928223
v -0.22136928 -0.53369468 0.79928223
v -0.25027526 -0.45792589 0.86385199
v -0.25027526 -0.45792589 0.88000461
v -0.23413053 -0.45816877 0.79288086
v -0.25027526 -0.45796386 0.93143258
v -0.25027526 -0.45794110 0.91229628
v -0.22167021 -0.53374025 0.79288086
v -0.25027526 -0.53194906 0.93143258
v -0.24785964 -0.53460548 0.79928223
v -0.23859575 -0.53488627 0.79288086
v -0.23462666 -0.53504570 0.79288086
v -0.26306906 -0.46364858 0.86385199
v -0.25027526 -0.45794866 0.79288086
v -0.25800196 -0.46139442 0.79288086
v -0.26308532 -0.46366379 0.79288086
v -0.26307719 -0.46367139 0.93143258
v -0.25264206 -0.45901884 0.93143258
v -0.26409386 -0.52392663 0.93143258
v -0.25592796 -0.53201735 0.79928223
v -0.25496008 -0.53200219 0.79288086
v -0.24689177 -0.53437021 0.79288086
v -0.26865667 -0.47633873 0.79288086
v -0.26866480 -0.47633873 0.93143258
v -0.26763187 -0.47399346 0.93143258
v -0.26512679 -0.52110323 0.93143258
v -0.26411826 -0.52394940 0.79928223
v -0.25915690 -0.52880686 0.79288086
v -0.26953509 -0.49248979 0.79288086
v -0.26938054 -0.48950701 0.93143258
v -0.26968960 -0.50862564 0.93143258
v -0.26972213 -0.50862564 0.79928223
v -0.26971400 -0.50862564 0.79288086
v -0.26410199 -0.52392663 0.79288086
v -0.26953509 -0.49248979 0.93143258
v -0.26966521 -0.50564286 0.93143258
f 1 2 6
f 1 6 10
f 1 10 14
f 1 14 12
f 1 12 7
f 1 7 3
f 1 3 4
f 1 4 5
f 1 5 2
f 2 5 6
f 3 7 4
f 4 8 13
f 4 13 21
f 4 21 31
f 4 31 43
f 4 43 42
f 4 42 50
f 4 50 49
f 4 49 55
f 4 55 60
f 4 60 61
f 4 61 56
f 4 56 51
f 4 51 44
f 4 44 34
f 4 34 25
f 4 25 19
f 4 19 18
f 4 18 11
f 4 11 9
f 4 9 5
f 4 7 8
f 5 9 6
f 6 9 11
f 6 11 10
f 7 12 8
f 8 12 14
f 8 14 15
f 8 15 13
f 10 16 17
f 10 17 24
f 10 24 33
f 10 33 37
f 10 37 36
f 10 36 47
f 10 47 46
f 10 46 53
f 10 53 59
f 10 59 58
f 10 58 54
f 10 54 48
f 10 48 41
f 10 41 40
f 10 40 39
f 10 39 30
f 10 30 22
f 10 22 14
f 10 11 18
f 10 18 19
f 10 19 16
f 13 20 21
f 13 15 20
f 14 22 15
f 15 22 20
f 16 23 17
f 16 19 23
f 17 23 24
f 19 25 26
f 19 26 27
f 19 27 23
f 20 28 29
f 20 29 21
f 20 22 30
f 20 30 28
f 21 29 32
f 21 32 31
f 23 27 33
f 23 33 24
f 25 34 26
f 26 35 36
f 26 36 37
f 26 37 33
f 26 33 27
f 26 34 35
f 28 38 29
f 28 30 39
f 28 39 40
f 28 40 41
f 28 41 38
f 29 38 42
f 29 42 32
f 31 32 43
f 32 42 43
f 34 44 45
f 34 45 35
f 35 45 46
f 35 46 47
f 35 47 36
f 38 41 42
f 41 48 49
f 41 49 50
f 41 50 42
f 44 51 52
f 44 52 45
f 45 52 53
f 45 53 46
f 48 54 49
f 49 54 55
f 51 56 57
f 51 57 52
f 52 57 58
f 52 58 59
f 52 59 53
f 54 58 57
f 54 57 60
f 54 60 55
f 56 61 57
f 57 61 60

