# https://github.com/mikedh/trimesh
v 0.19934402 0.49247343 0.05635656
v 0.19934402 0.49333307 0.05642297
v 0.19934402 0.47661172 0.05809438
v -0.18172534 0.50407395 0.05906846
v -0.18172534 0.50673605 0.05921235
v 0.19934402 0.50732761 0.05831579
v 0.19934402 0.42805604 0.06692737
v -0.18172534 0.42805604 0.06760262
v -0.18172534 0.51414925 0.06589800
v 0.19934402 0.50800237 0.05883599
v 0.19934402 0.42805604 0.16526387
v -0.18172534 0.42805604 0.16478790
v -0.18172534 0.52012978 0.07421075
v 0.19934402 0.52105410 0.07387871
v 0.19934402 0.45767196 0.16907156
v -0.18172534 0.46101810 0.16943685
v -0.18172534 0.52126670 0.08612093
v 0.19934402 0.52248683 0.08882177
v 0.19934402 0.46129538 0.16893874
v -0.18172534 0.47568740 0.16713451
v 0.19934402 0.47308998 0.16782077
v -0.18172534 0.52142382 0.08882177
v 0.19934402 0.52231119 0.09015002
v -0.18172534 0.51929785 0.10209341
v 0.19934402 0.47453195 0.16755514
v 0.19934402 0.52004658 0.10239230
f 1 2 6
f 1 6 10
f 1 10 14
f 1 14 18
f 1 18 23
f 1 23 26
f 1 26 25
f 1 25 21
f 1 21 19
f 1 19 15
f 1 15 11
f 1 11 7
f 1 7 3
f 1 3 4
f 1 4 5
f 1 5 2
f 2 5 6
f 3 7 8
f 3 8 4
f 4 8 12
f 4 12 16
f 4 16 20
f 4 20 24
f 4 24 22
f 4 22 17
f 4 17 13
f 4 13 9
f 4 9 5
f 5 9 10
f 5 10 6
f 7 11 12
f 7 12 8
f 9 13 14
f 9 14 10
f 11 15 16
f 11 16 12
f 13 17 18
f 13 18 14
f 15 19 16
f 16 19 21
f 16 21 20
f 17 22 18
f 18 22 23
f 20 21 25
f 20 25 26
f 20 26 24
f 22 24 23
f 23 24 26

