# https://github.com/mikedh/trimesh
v 0.23412815 -0.53625004 0.37946859
v 0.22226608 -0.53443325 0.37946859
v 0.22227356 -0.53441203 0.33406922
v 0.23412815 -0.53623941 0.36334275
v 0.25027788 -0.53554881 0.33406922
v 0.25027788 -0.53555945 0.37946859
v 0.23412815 -0.53625004 0.46020687
v 0.22226608 -0.53443325 0.44404469
v 0.19385092 -0.52353276 0.56520655
v 0.21419868 -0.52736816 0.33406922
v 0.23412815 -0.53620755 0.33406922
v 0.19385092 -0.52349027 0.55707098
v 0.19385092 -0.52336279 0.54908070
v 0.19385092 -0.52318219 0.54090881
v 0.25971225 -0.53374271 0.33406922
v 0.25971225 -0.53374271 0.37946859
v 0.25970479 -0.53374271 0.42791882
v 0.25968237 -0.53373207 0.55707098
v 0.25027788 -0.53553822 0.54090881
v 0.23412815 -0.53621814 0.58935901
v 0.22229596 -0.53439076 0.70510928
v 0.19385092 -0.52299095 0.57319683
v 0.20907439 -0.51929371 0.33406922
v 0.19385092 -0.52204536 0.53299114
v 0.26415680 -0.52646506 0.33406922
v 0.26531461 -0.52477579 0.36334275
v 0.26536690 -0.52477579 0.37946859
v 0.26536690 -0.52477579 0.46020687
v 0.26532956 -0.52477579 0.67009728
v 0.25965251 -0.53371085 0.70510928
v 0.25185402 -0.53519824 0.70510928
v 0.25027788 -0.53549568 0.70510928
v 0.23412815 -0.53617565 0.70510928
v 0.21422857 -0.52759125 0.70510928
v 0.19385092 -0.52157791 0.58242199
v 0.20796886 -0.50862694 0.33406922
v 0.19385092 -0.52060046 0.52471030
v 0.26518762 -0.52477579 0.33406922
v 0.26990108 -0.50862694 0.36334275
v 0.26996084 -0.50862694 0.37946859
v 0.26987122 -0.50862694 0.67009728
v 0.26513534 -0.52477579 0.70510928
v 0.20985127 -0.52087672 0.70510928
v 0.19385092 -0.52041986 0.58765201
v 0.20896982 -0.51951680 0.70510928
v 0.20792404 -0.50556712 0.33406922
v 0.19385092 -0.51193108 0.52027932
v 0.19385092 -0.50862694 0.51882654
v 0.26888520 -0.51167608 0.33406922
v 0.26974422 -0.50862694 0.33406922
v 0.27005047 -0.49553782 0.33406922
v 0.27011770 -0.49247805 0.33406922
v 0.27015506 -0.49247805 0.37946859
v 0.26996830 -0.49247805 0.70510928
v 0.26993844 -0.49519784 0.70510928
v 0.26966205 -0.50862694 0.70510928
v 0.19385092 -0.51425777 0.59520648
v 0.20784935 -0.50862694 0.70510928
v 0.20774476 -0.49247805 0.33406922
v 0.19385092 -0.49247805 0.51686529
v 0.26887023 -0.47633979 0.33406922
v 0.26969191 -0.42772313 0.55707098
v 0.26981145 -0.42772313 0.57301524
v 0.26981145 -0.42772313 0.57319683
v 0.26956494 -0.42772313 0.58935901
v 0.26880301 -0.47633979 0.70510928
v 0.19385092 -0.47463988 0.62135651
v 0.20781199 -0.50590710 0.70510928
v 0.19385092 -0.45929842 0.63141701
v 0.20790164 -0.48941822 0.33406922
v 0.19385092 -0.49199996 0.51686529
v 0.19385092 -0.47633979 0.51737377
v 0.19385092 -0.42772313 0.52155050
v 0.26412692 -0.46627858 0.33406922
v 0.26842205 -0.42772313 0.54090881
v 0.26847434 -0.42772313 0.60548488
v 0.26399247 -0.46601300 0.70510928
v 0.20766259 -0.49247805 0.70510928
v 0.19385092 -0.42777621 0.62956471
v 0.20857392 -0.47633979 0.33406922
v 0.21781407 -0.42772313 0.52082410
v 0.23412815 -0.45780039 0.33406922
v 0.23108047 -0.45873535 0.33406922
v 0.21798589 -0.46280443 0.33406922
v 0.21640976 -0.46376061 0.33406922
v 0.20963462 -0.46789345 0.33406922
v 0.19385092 -0.42772313 0.60261564
v 0.26302139 -0.46394126 0.33406922
v 0.26836231 -0.42772313 0.54076353
v 0.26305125 -0.42772313 0.61964950
v 0.26301391 -0.46393063 0.70510928
v 0.20849921 -0.47633979 0.70510928
v 0.19657741 -0.42772313 0.62963735
v 0.20963462 -0.46788287 0.70510928
v 0.21798589 -0.46275130 0.70510928
v 0.23412815 -0.45770482 0.70510928
v 0.23395635 -0.42772313 0.52046093
v 0.24721527 -0.45840601 0.33406922
v 0.23412815 -0.42772313 0.52046093
v 0.25010609 -0.42772313 0.52205898
v 0.25027788 -0.42772313 0.52209529
v 0.26060864 -0.46292132 0.33406922
v 0.26280475 -0.42772313 0.52826962
v 0.25027788 -0.45855475 0.33406922
v 0.26299151 -0.42772313 0.61979478
v 0.25027788 -0.45849099 0.70510928
v 0.21798589 -0.42772313 0.63025479
v 0.24755888 -0.45835288 0.70510928
v 0.24359240 -0.42772313 0.62996423
v 0.23422526 -0.42772313 0.63036375
v 0.23412815 -0.42772313 0.63036375
v 0.26267030 -0.42772313 0.52819698
v 0.25157763 -0.42772313 0.62789402
f 1 2 3
f 1 3 4
f 1 4 5
f 1 5 6
f 1 6 7
f 1 7 8
f 1 8 2
f 2 8 9
f 2 9 3
f 3 10 23
f 3 23 36
f 3 36 46
f 3 46 59
f 3 59 70
f 3 70 80
f 3 80 86
f 3 86 85
f 3 85 84
f 3 84 83
f 3 83 82
f 3 82 98
f 3 98 104
f 3 104 102
f 3 102 88
f 3 88 74
f 3 74 61
f 3 61 52
f 3 52 51
f 3 51 50
f 3 50 49
f 3 49 38
f 3 38 25
f 3 25 15
f 3 15 5
f 3 5 11
f 3 11 4
f 3 9 12
f 3 12 13
f 3 13 14
f 3 14 10
f 4 11 5
f 5 15 6
f 6 15 16
f 6 16 17
f 6 17 18
f 6 18 19
f 6 19 7
f 7 19 20
f 7 20 21
f 7 21 8
f 8 21 9
f 9 21 22
f 9 22 35
f 9 35 44
f 9 44 57
f 9 57 67
f 9 67 69
f 9 69 79
f 9 79 87
f 9 87 73
f 9 73 72
f 9 72 71
f 9 71 60
f 9 60 48
f 9 48 47
f 9 47 37
f 9 37 24
f 9 24 14
f 9 14 13
f 9 13 12
f 10 14 23
f 14 24 23
f 15 25 26
f 15 26 27
f 15 27 28
f 15 28 16
f 16 28 17
f 17 28 29
f 17 29 18
f 18 29 30
f 18 30 19
f 19 30 31
f 19 31 32
f 19 32 20
f 20 32 33
f 20 33 21
f 21 33 32
f 21 32 31
f 21 31 30
f 21 30 42
f 21 42 56
f 21 56 55
f 21 55 54
f 21 54 66
f 21 66 77
f 21 77 91
f 21 91 106
f 21 106 108
f 21 108 96
f 21 96 95
f 21 95 94
f 21 94 92
f 21 92 78
f 21 78 68
f 21 68 58
f 21 58 45
f 21 45 43
f 21 43 34
f 21 34 22
f 22 34 35
f 23 24 37
f 23 37 36
f 25 38 26
f 26 38 39
f 26 39 40
f 26 40 27
f 27 40 28
f 28 40 29
f 29 41 42
f 29 42 30
f 29 40 41
f 34 43 35
f 35 43 45
f 35 45 44
f 36 37 47
f 36 47 48
f 36 48 46
f 38 49 39
f 39 49 50
f 39 50 51
f 39 51 52
f 39 52 40
f 40 52 53
f 40 53 41
f 41 54 55
f 41 55 56
f 41 56 42
f 41 53 54
f 44 45 57
f 45 58 57
f 46 48 59
f 48 60 59
f 52 61 62
f 52 62 63
f 52 63 53
f 53 63 64
f 53 64 54
f 54 64 65
f 54 65 66
f 57 58 67
f 58 68 69
f 58 69 67
f 59 60 71
f 59 71 72
f 59 72 73
f 59 73 70
f 61 74 75
f 61 75 62
f 62 75 89
f 62 89 103
f 62 103 112
f 62 112 101
f 62 101 100
f 62 100 99
f 62 99 97
f 62 97 81
f 62 81 73
f 62 73 87
f 62 87 93
f 62 93 107
f 62 107 111
f 62 111 110
f 62 110 109
f 62 109 113
f 62 113 105
f 62 105 90
f 62 90 76
f 62 76 65
f 62 65 64
f 62 64 63
f 65 76 66
f 66 76 77
f 68 78 69
f 69 78 79
f 70 73 80
f 73 81 82
f 73 82 83
f 73 83 84
f 73 84 85
f 73 85 86
f 73 86 80
f 74 88 75
f 75 88 89
f 76 90 91
f 76 91 77
f 78 92 79
f 79 93 87
f 79 92 94
f 79 94 95
f 79 95 96
f 79 96 93
f 81 97 82
f 82 97 99
f 82 99 100
f 82 100 101
f 82 101 98
f 88 102 89
f 89 102 104
f 89 104 103
f 90 105 91
f 91 105 106
f 93 96 107
f 96 108 109
f 96 109 110
f 96 110 111
f 96 111 107
f 98 101 104
f 101 112 104
f 103 104 112
f 105 113 106
f 106 113 109
f 106 109 108

