# https://github.com/mikedh/trimesh
v 0.19789900 -0.49247492 0.05703503
v 0.19789900 -0.47605053 0.05790801
v 0.19789900 -0.50638346 0.05909358
v -0.17501625 -0.50395682 0.06186342
v 0.19789900 -0.42772308 0.06695052
v -0.17501625 -0.49247492 0.06259632
v -0.17501625 -0.42773199 0.06766181
v 0.19789900 -0.51440382 0.07012992
v -0.17501625 -0.50934540 0.06780194
v 0.19789900 -0.42772308 0.09021951
v 0.00158555 -0.42772308 0.06850249
v -0.17501625 -0.42773199 0.10033976
v 0.19789900 -0.51526924 0.07266267
v -0.17501625 -0.51449303 0.08032563
v -0.17501625 -0.51171848 0.07267345
v 0.19789900 -0.42776769 0.16524299
v 0.18581649 -0.42772308 0.16491966
v 0.00158555 -0.42772308 0.10652615
v -0.17501625 -0.42778555 0.16460711
v -0.16950429 -0.42773199 0.16448853
v 0.19789900 -0.51826684 0.08314937
v -0.17501625 -0.51607215 0.08881840
v 0.19789900 -0.46176731 0.16713985
v -0.17501625 -0.44975015 0.16649319
v 0.00811959 -0.42772308 0.16318443
v 0.19789900 -0.51886456 0.08881840
v -0.17501625 -0.50857815 0.10389639
v -0.17501625 -0.46116959 0.16521065
v -0.17501625 -0.46623696 0.16458555
v 0.19789900 -0.46373005 0.16655787
v 0.19789900 -0.50995202 0.10569629
v -0.17501625 -0.46833348 0.16177259
v 0.19789900 -0.47595241 0.15471317
v 0.19789900 -0.47489074 0.15583407
f 1 2 5
f 1 5 10
f 1 10 16
f 1 16 23
f 1 23 30
f 1 30 34
f 1 34 33
f 1 33 31
f 1 31 26
f 1 26 21
f 1 21 13
f 1 13 8
f 1 8 3
f 1 3 4
f 1 4 2
f 2 4 6
f 2 6 7
f 2 7 5
f 3 8 9
f 3 9 4
f 4 9 15
f 4 15 14
f 4 14 22
f 4 22 27
f 4 27 32
f 4 32 29
f 4 29 28
f 4 28 24
f 4 24 19
f 4 19 12
f 4 12 7
f 4 7 6
f 5 7 11
f 5 11 18
f 5 18 25
f 5 25 17
f 5 17 10
f 7 12 18
f 7 18 11
f 8 13 14
f 8 14 15
f 8 15 9
f 10 17 16
f 12 19 20
f 12 20 18
f 13 21 14
f 14 21 22
f 16 17 20
f 16 20 19
f 16 19 24
f 16 24 23
f 17 25 20
f 18 20 25
f 21 26 22
f 22 26 27
f 23 24 28
f 23 28 29
f 23 29 30
f 26 31 27
f 27 31 33
f 27 33 32
f 29 32 33
f 29 33 34
f 29 34 30

