# https://github.com/mikedh/trimesh
v -0.17146028 -0.49248642 0.26362275
v -0.17146028 -0.50862766 0.26034176
v -0.17146028 -0.48250587 0.26201928
v -0.19252205 -0.51447576 0.42641581
v -0.19252205 -0.51921826 0.42641581
v -0.17146028 -0.51941647 0.25025197
v -0.17146028 -0.47633757 0.26093380
v -0.22181410 -0.46391710 0.42641581
v -0.17146028 -0.47244904 0.25863955
v -0.17146028 -0.46538102 0.25005462
v -0.19336915 -0.51992733 0.42641581
v -0.17146028 -0.52164287 0.23414292
v -0.17146028 -0.51973672 0.24840178
v -0.23412579 -0.45822155 0.42641581
v -0.17146028 -0.46301742 0.23419224
v -0.20184005 -0.52693434 0.42641581
v -0.17146028 -0.52169624 0.23221867
v -0.24879588 -0.45802329 0.42641581
v -0.17146028 -0.46270482 0.21798445
v -0.20445833 -0.45784033 0.17439373
v -0.21945570 -0.45630015 0.17439373
v -0.23412579 -0.45487435 0.17439373
v -0.20332247 -0.52743755 0.42641581
v -0.17146028 -0.52183348 0.21798445
v -0.21799256 -0.53241642 0.42641581
v -0.25027829 -0.45800804 0.42641581
v -0.17146028 -0.46485495 0.20153003
v -0.18568757 -0.46210248 0.17439373
v -0.20184005 -0.45818344 0.17439373
v -0.25027829 -0.45533184 0.17439373
v -0.20184005 -0.52925217 0.23414292
v -0.20184005 -0.52930559 0.21798445
v -0.20184005 -0.52923697 0.20185071
v -0.17146028 -0.52179537 0.21608494
v -0.23412579 -0.53271377 0.42641581
v -0.21799256 -0.53249265 0.37944535
v -0.26184879 -0.46317752 0.42641581
v -0.17146028 -0.46585376 0.19686751
v -0.18329068 -0.46772175 0.17439373
v -0.17146028 -0.46925434 0.19215566
v -0.25157780 -0.45591893 0.17439373
v -0.26301353 -0.46370363 0.42641581
v -0.21799256 -0.53248504 0.17439373
v -0.21799256 -0.53253076 0.31486103
v -0.21314104 -0.53140995 0.17439373
v -0.20184005 -0.52884810 0.18569229
v -0.20184005 -0.52809326 0.17439373
v -0.17146028 -0.51992733 0.20165336
v -0.23560820 -0.53263749 0.42641581
v -0.25027829 -0.53192842 0.41173756
v -0.23412579 -0.53272902 0.41173756
v -0.23412579 -0.53276713 0.36328693
v -0.18233770 -0.47616982 0.17439373
v -0.17146028 -0.47633757 0.18815920
v -0.17146028 -0.49036680 0.18596364
v -0.17146028 -0.49248642 0.18564296
v -0.26276325 -0.46122560 0.17439373
v -0.26352371 -0.46485495 0.42641581
v -0.23412579 -0.53275188 0.17439373
v -0.23412579 -0.53275953 0.21798445
v -0.19692115 -0.52575252 0.17439373
v -0.17146028 -0.51958422 0.19958114
v -0.25027829 -0.53185219 0.42641581
v -0.25153930 -0.53112021 0.42641581
v -0.26409165 -0.52389973 0.41173756
v -0.26412052 -0.52396075 0.25030129
v -0.25027829 -0.53199704 0.23414292
v -0.25027829 -0.53200469 0.20185071
v -0.18123071 -0.48601318 0.17439373
v -0.18432067 -0.50855144 0.17439373
v -0.17146028 -0.50663003 0.18815920
v -0.26868326 -0.47633757 0.17439373
v -0.26864476 -0.47633757 0.31486103
v -0.26858701 -0.47633757 0.42641581
v -0.25027829 -0.53192081 0.17439373
v -0.18915294 -0.52029330 0.17439373
v -0.17146028 -0.51885224 0.19750892
v -0.26382212 -0.52383876 0.42641581
v -0.26958812 -0.50862766 0.41173756
v -0.26973250 -0.50862766 0.39557914
v -0.26411090 -0.52388448 0.39557914
v -0.26414939 -0.52390739 0.31486103
v -0.26413014 -0.52395310 0.23414292
v -0.26413014 -0.52394550 0.21798445
v -0.26407240 -0.52394550 0.20185071
v -0.17146028 -0.50862766 0.18852926
v -0.26935708 -0.49248642 0.17439373
v -0.26953999 -0.49248642 0.20185071
v -0.26963624 -0.49248642 0.21798445
v -0.26956887 -0.49248642 0.29872724
v -0.26948222 -0.49248642 0.39557914
v -0.26866401 -0.47781674 0.42641581
v -0.26368735 -0.52386922 0.17439373
v -0.17466576 -0.51805169 0.19116888
v -0.26919344 -0.50862766 0.42641581
v -0.26929934 -0.49395798 0.42641581
v -0.26939558 -0.49248642 0.41173756
v -0.26979025 -0.50862766 0.21798445
v -0.26962661 -0.50862766 0.20185071
v -0.26907793 -0.50862766 0.17439373
v -0.26928009 -0.49248642 0.42641581
v -0.26531416 -0.51928688 0.17439373
f 1 2 6
f 1 6 13
f 1 13 12
f 1 12 17
f 1 17 24
f 1 24 34
f 1 34 48
f 1 48 62
f 1 62 77
f 1 77 86
f 1 86 71
f 1 71 56
f 1 56 55
f 1 55 54
f 1 54 40
f 1 40 38
f 1 38 27
f 1 27 19
f 1 19 15
f 1 15 10
f 1 10 9
f 1 9 7
f 1 7 3
f 1 3 4
f 1 4 5
f 1 5 2
f 2 5 6
f 3 7 4
f 4 8 14
f 4 14 18
f 4 18 26
f 4 26 37
f 4 37 42
f 4 42 58
f 4 58 74
f 4 74 92
f 4 92 101
f 4 101 96
f 4 96 95
f 4 95 78
f 4 78 64
f 4 64 63
f 4 63 49
f 4 49 35
f 4 35 25
f 4 25 23
f 4 23 16
f 4 16 11
f 4 11 5
f 4 7 9
f 4 9 10
f 4 10 8
f 5 11 12
f 5 12 13
f 5 13 6
f 8 10 15
f 8 15 14
f 11 16 12
f 12 16 17
f 14 15 19
f 14 19 20
f 14 20 21
f 14 21 22
f 14 22 18
f 16 23 17
f 17 23 25
f 17 25 24
f 18 22 26
f 19 27 28
f 19 28 29
f 19 29 20
f 20 29 28
f 20 28 39
f 20 39 53
f 20 53 69
f 20 69 70
f 20 70 76
f 20 76 61
f 20 61 47
f 20 47 45
f 20 45 43
f 20 43 59
f 20 59 75
f 20 75 93
f 20 93 102
f 20 102 100
f 20 100 87
f 20 87 72
f 20 72 57
f 20 57 41
f 20 41 30
f 20 30 22
f 20 22 21
f 22 30 26
f 24 25 31
f 24 31 32
f 24 32 33
f 24 33 34
f 25 35 36
f 25 36 32
f 25 32 31
f 26 30 37
f 27 38 28
f 28 38 40
f 28 40 39
f 30 41 42
f 30 42 37
f 32 43 33
f 32 36 44
f 32 44 43
f 33 43 45
f 33 45 46
f 33 46 34
f 34 46 47
f 34 47 48
f 35 49 50
f 35 50 51
f 35 51 36
f 36 51 52
f 36 52 44
f 39 40 54
f 39 54 55
f 39 55 56
f 39 56 53
f 41 57 42
f 42 57 58
f 43 44 59
f 44 52 60
f 44 60 59
f 45 47 46
f 47 61 62
f 47 62 48
f 49 63 50
f 50 52 51
f 50 63 64
f 50 64 65
f 50 65 66
f 50 66 67
f 50 67 52
f 52 67 68
f 52 68 60
f 53 56 69
f 56 70 69
f 56 71 70
f 57 72 73
f 57 73 74
f 57 74 58
f 59 60 68
f 59 68 75
f 61 76 77
f 61 77 62
f 64 78 65
f 65 78 79
f 65 79 80
f 65 80 81
f 65 81 82
f 65 82 66
f 66 83 68
f 66 68 67
f 66 82 83
f 68 84 85
f 68 85 75
f 68 83 84
f 70 71 86
f 70 86 76
f 72 87 88
f 72 88 89
f 72 89 73
f 73 89 74
f 74 89 90
f 74 90 91
f 74 91 92
f 75 85 93
f 76 86 94
f 76 94 77
f 77 94 86
f 78 95 79
f 79 96 80
f 79 95 96
f 80 82 81
f 80 96 97
f 80 97 91
f 80 91 90
f 80 90 89
f 80 89 98
f 80 98 82
f 82 98 83
f 83 98 84
f 84 98 85
f 85 98 99
f 85 99 93
f 87 98 88
f 87 100 99
f 87 99 98
f 88 98 89
f 91 97 92
f 92 97 101
f 93 99 102
f 96 101 97
f 99 100 102

