# https://github.com/mikedh/trimesh
v -0.17934707 0.46073953 1.39749575
v -0.17934707 0.45419497 1.39802095
v -0.17934707 0.47047244 1.39850472
v 0.19102836 0.46064631 1.39973481
v 0.19102836 0.42802611 1.40133813
v -0.17934707 0.42802611 1.40196010
v -0.17934707 0.47418287 1.39905759
v 0.19102836 0.47200137 1.40142104
v 0.19102836 0.42802611 1.50625802
v -0.17934707 0.42802611 1.50611982
v -0.17934707 0.52047948 1.49467550
v 0.19102836 0.52011587 1.49583653
v 0.19102836 0.47590756 1.40782047
v 0.19102836 0.48062489 1.53677618
v -0.17934707 0.48219110 1.53477205
v -0.17934707 0.52325765 1.50972727
v 0.19102836 0.52182193 1.50414331
v 0.19102836 0.48598541 1.53778514
v -0.17934707 0.49247405 1.53684528
v -0.17934707 0.52158888 1.52034225
v 0.19102836 0.52281016 1.50972727
v 0.19102836 0.49247405 1.53855913
v -0.17934707 0.50730648 1.53868353
v -0.17934707 0.52065662 1.52527656
v 0.19102836 0.52036760 1.52439199
v 0.19102836 0.50594536 1.53730138
v -0.17934707 0.51057876 1.53712169
v 0.19102836 0.51593929 1.52965805
v 0.19102836 0.51329167 1.53185568
f 1 2 6
f 1 6 10
f 1 10 15
f 1 15 19
f 1 19 23
f 1 23 27
f 1 27 24
f 1 24 20
f 1 20 16
f 1 16 11
f 1 11 7
f 1 7 3
f 1 3 4
f 1 4 5
f 1 5 2
f 2 5 6
f 3 7 8
f 3 8 4
f 4 8 13
f 4 13 12
f 4 12 17
f 4 17 21
f 4 21 25
f 4 25 28
f 4 28 29
f 4 29 26
f 4 26 22
f 4 22 18
f 4 18 14
f 4 14 9
f 4 9 5
f 5 9 10
f 5 10 6
f 7 11 12
f 7 12 13
f 7 13 8
f 9 14 10
f 10 14 15
f 11 16 17
f 11 17 12
f 14 18 19
f 14 19 15
f 16 20 21
f 16 21 17
f 18 22 23
f 18 23 19
f 20 24 25
f 20 25 21
f 22 26 23
f 23 26 27
f 24 27 28
f 24 28 25
f 26 29 27
f 27 29 28

