# https://github.com/mikedh/trimesh
v 0.23394896 0.42805604 0.06569565
v 0.23413633 0.42805604 0.06569565
v 0.21782959 0.42805604 0.06624674
v 0.23413633 0.46317535 -0.00441989
v 0.24999895 0.42805604 0.06685028
v 0.25027651 0.46337617 -0.00436744
v 0.19934402 0.42805604 0.06692901
v 0.21798921 0.46563779 -0.00234690
v 0.23413633 0.47634373 -0.00888087
v 0.25027651 0.47634373 -0.00880215
v 0.25028344 0.42805604 0.06687651
v 0.26153162 0.46518338 -0.00287171
v 0.19934402 0.47662909 0.05808582
v 0.20955135 0.47634373 -0.00056254
v 0.20980808 0.46811087 -0.00016891
v 0.19934402 0.42805604 0.16525348
v 0.21798921 0.47634373 -0.00499725
v 0.25027651 0.49248190 -0.00888087
v 0.21798921 0.49248190 -0.00536461
v 0.23413633 0.50862011 -0.00888087
v 0.26348149 0.49248190 -0.00441989
v 0.26330108 0.47634373 -0.00436744
v 0.26334270 0.42805604 0.07440761
v 0.26864413 0.47634373 0.00809697
v 0.26926863 0.42805604 0.08881388
v 0.26347456 0.42805604 0.07451261
v 0.19934402 0.49248190 0.05638014
v 0.20931541 0.49248190 -0.00090363
v 0.20200167 0.42805604 0.16535848
v 0.23413633 0.45745777 0.25919579
v 0.21798921 0.46256238 0.25919579
v 0.20960686 0.46783609 0.25919579
v 0.20853131 0.47634373 0.25919579
v 0.20767780 0.49248190 0.25919579
v 0.19934402 0.45767970 0.16905842
v 0.25027651 0.50862011 -0.00888087
v 0.20932929 0.50862011 -0.00090363
v 0.21798921 0.50862011 -0.00533834
v 0.23413633 0.52476881 -0.00662415
v 0.26347456 0.50862011 -0.00441989
v 0.26933803 0.49248190 0.00809697
v 0.27002499 0.49248190 0.02423509
v 0.26996255 0.42805604 0.10497822
v 0.26995560 0.42805604 0.10479454
v 0.19934402 0.49333798 0.05643264
v 0.21814881 0.42805604 0.16588330
v 0.25027651 0.45816583 0.25919579
v 0.23413633 0.42805604 0.16617193
v 0.25027651 0.42805604 0.16457126
v 0.20771249 0.50139121 0.25919579
v 0.19934402 0.46129413 0.16892724
v 0.25027651 0.52476881 -0.00620434
v 0.26151773 0.52476881 -0.00281926
v 0.20954439 0.51793100 -0.00056254
v 0.19934402 0.50734127 0.05832200
v 0.21816267 0.52389165 -0.00295044
v 0.22366532 0.53383664 -0.00140227
v 0.23413633 0.53439678 -0.00218944
v 0.26933110 0.50862011 0.00809697
v 0.26993478 0.50862011 0.02423509
v 0.27002499 0.50862011 0.05653759
v 0.27014296 0.49248190 0.07267571
v 0.27023316 0.49248190 0.12111638
v 0.27008745 0.49248190 0.21797141
v 0.26993478 0.42805604 0.12111638
v 0.26315534 0.46371432 0.25919579
v 0.25931806 0.42805604 0.16220954
v 0.20776107 0.50862011 0.25919579
v 0.19934402 0.47308863 0.16782511
v 0.25027651 0.53407970 -0.00174336
v 0.25916542 0.53340335 -0.00082490
v 0.26507052 0.52476881 0.00809697
v 0.21432539 0.52700936 0.00809697
v 0.19934402 0.50801767 0.05884681
v 0.19934402 0.52105925 0.07388280
v 0.22240241 0.53434394 0.00809697
v 0.23413633 0.53599264 0.00809697
v 0.26536197 0.52476881 0.02423509
v 0.27010133 0.50862011 0.10497822
v 0.26986539 0.50862011 0.21797141
v 0.27001806 0.49248190 0.25027391
v 0.26997641 0.49248190 0.25919579
v 0.26941435 0.48356205 0.25919579
v 0.26891475 0.47634373 0.25919579
v 0.26942823 0.42805604 0.13707082
v 0.26463335 0.42805604 0.15339262
v 0.26468193 0.42805604 0.15323516
v 0.26942130 0.42805604 0.13722827
v 0.19934402 0.47453652 0.16756270
v 0.20892682 0.51949510 0.25919579
v 0.19934402 0.52005524 0.10238041
v 0.25027651 0.53534795 0.00809697
v 0.25960951 0.53368866 0.00809697
v 0.19934402 0.52248601 0.08881388
v 0.22236078 0.53435448 0.02423509
v 0.23413633 0.53601376 0.02423509
v 0.21436008 0.53064491 0.08881388
v 0.25965809 0.53370979 0.02423509
v 0.26526481 0.52476881 0.10497822
v 0.26497338 0.52476881 0.25919579
v 0.26974049 0.50862011 0.25919579
v 0.21139711 0.52310957 0.25919579
v 0.19934402 0.52231691 0.09015214
v 0.25027651 0.53536908 0.02423509
v 0.21446417 0.52756950 0.25919579
v 0.22254119 0.53429110 0.25919579
v 0.23413633 0.53601376 0.04037325
v 0.22252733 0.53429110 0.25027391
v 0.22773161 0.53505200 0.25919579
v 0.23413633 0.53598205 0.25919579
v 0.25027651 0.53527394 0.25919579
v 0.25944992 0.53358299 0.25919579
v 0.26253084 0.52872149 0.25919579
f 1 2 5
f 1 5 11
f 1 11 23
f 1 23 26
f 1 26 25
f 1 25 44
f 1 44 43
f 1 43 65
f 1 65 85
f 1 85 88
f 1 88 87
f 1 87 86
f 1 86 67
f 1 67 49
f 1 49 48
f 1 48 46
f 1 46 29
f 1 29 16
f 1 16 7
f 1 7 3
f 1 3 4
f 1 4 2
f 2 4 6
f 2 6 5
f 3 7 4
f 4 8 9
f 4 9 10
f 4 10 6
f 4 7 8
f 5 6 11
f 6 10 12
f 6 12 11
f 7 13 14
f 7 14 15
f 7 15 8
f 7 16 35
f 7 35 51
f 7 51 69
f 7 69 89
f 7 89 91
f 7 91 103
f 7 103 94
f 7 94 75
f 7 75 74
f 7 74 55
f 7 55 45
f 7 45 27
f 7 27 13
f 8 15 17
f 8 17 9
f 9 18 10
f 9 17 19
f 9 19 20
f 9 20 36
f 9 36 18
f 10 18 21
f 10 21 22
f 10 22 12
f 11 12 23
f 12 22 24
f 12 24 25
f 12 25 26
f 12 26 23
f 13 27 14
f 14 28 17
f 14 17 15
f 14 27 28
f 16 29 30
f 16 30 31
f 16 31 32
f 16 32 33
f 16 33 34
f 16 34 35
f 17 28 19
f 18 36 21
f 19 28 37
f 19 37 38
f 19 38 20
f 20 38 39
f 20 39 36
f 21 36 40
f 21 40 59
f 21 59 41
f 21 41 22
f 22 41 24
f 24 41 42
f 24 42 43
f 24 43 44
f 24 44 25
f 27 45 37
f 27 37 28
f 29 46 30
f 30 47 66
f 30 66 84
f 30 84 83
f 30 83 82
f 30 82 101
f 30 101 100
f 30 100 113
f 30 113 112
f 30 112 111
f 30 111 110
f 30 110 109
f 30 109 106
f 30 106 105
f 30 105 102
f 30 102 90
f 30 90 68
f 30 68 50
f 30 50 34
f 30 34 33
f 30 33 32
f 30 32 31
f 30 46 48
f 30 48 49
f 30 49 47
f 34 50 51
f 34 51 35
f 36 39 52
f 36 52 53
f 36 53 40
f 37 54 38
f 37 45 55
f 37 55 54
f 38 54 56
f 38 56 39
f 39 56 57
f 39 57 58
f 39 58 52
f 40 53 59
f 41 59 42
f 42 59 60
f 42 60 61
f 42 61 62
f 42 62 43
f 43 63 64
f 43 64 65
f 43 62 63
f 47 49 67
f 47 67 66
f 50 68 51
f 51 68 69
f 52 58 70
f 52 70 71
f 52 71 53
f 53 71 72
f 53 72 59
f 54 73 57
f 54 57 56
f 54 55 74
f 54 74 75
f 54 75 73
f 57 73 76
f 57 76 77
f 57 77 58
f 58 77 70
f 59 72 60
f 60 72 78
f 60 78 61
f 61 78 79
f 61 79 63
f 61 63 62
f 63 79 64
f 64 80 81
f 64 81 65
f 64 79 80
f 65 81 82
f 65 82 83
f 65 83 84
f 65 84 85
f 66 67 86
f 66 86 87
f 66 87 88
f 66 88 84
f 68 89 69
f 68 90 91
f 68 91 89
f 70 77 92
f 70 92 71
f 71 92 93
f 71 93 72
f 72 93 78
f 73 75 76
f 75 94 76
f 76 95 96
f 76 96 77
f 76 94 97
f 76 97 95
f 77 96 104
f 77 104 92
f 78 93 98
f 78 98 99
f 78 99 79
f 79 99 100
f 79 100 80
f 80 100 101
f 80 101 81
f 81 101 82
f 84 88 85
f 90 102 94
f 90 94 103
f 90 103 91
f 92 104 98
f 92 98 93
f 94 102 105
f 94 105 106
f 94 106 97
f 95 107 96
f 95 97 108
f 95 108 106
f 95 106 109
f 95 109 110
f 95 110 107
f 96 107 104
f 97 106 108
f 98 104 111
f 98 111 112
f 98 112 99
f 99 112 113
f 99 113 100
f 104 107 110
f 104 110 111

