# https://github.com/mikedh/trimesh
v -0.18651732 0.51978648 0.81388671
v -0.18651732 0.51378001 0.81388671
v -0.18651732 0.51984769 0.81380543
v -0.19247235 0.51927384 0.93176752
v -0.18651732 0.50857694 0.79928201
v -0.19247235 0.51431561 0.93176752
v -0.18651732 0.52506606 0.80010844
v -0.20184193 0.52702486 0.93176752
v -0.18651732 0.52514257 0.79928201
v -0.18651732 0.52566292 0.79336155
v -0.18651732 0.50817907 0.79336155
v -0.22156947 0.46351687 0.93176752
v -0.21799157 0.53238096 0.93176752
v -0.19592774 0.52840215 0.79336155
v -0.22157765 0.46352453 0.79336155
v -0.22156131 0.46348627 0.86385160
v -0.22156131 0.46348627 0.84772952
v -0.23153537 0.45868107 0.93176752
v -0.23412487 0.53257989 0.93176752
v -0.21290243 0.53257224 0.79928201
v -0.23412487 0.53527327 0.79928201
v -0.20885072 0.53153931 0.79336155
v -0.23412487 0.45742620 0.79336155
v -0.23412487 0.45742620 0.93176752
v -0.23412487 0.45740324 0.86385160
v -0.23412487 0.45740324 0.84772952
v -0.25027452 0.53173059 0.93176752
v -0.21684793 0.53307728 0.79336155
v -0.22128358 0.53364348 0.79336155
v -0.22850476 0.53456169 0.79336155
v -0.23397784 0.53494426 0.79336155
v -0.24681095 0.53433975 0.79336155
v -0.24743995 0.53451578 0.79928201
v -0.25027452 0.45712014 0.79928201
v -0.25027452 0.45712779 0.79336155
v -0.25027452 0.45711249 0.81543118
v -0.24695799 0.45720431 0.93176752
v -0.25027452 0.45710484 0.86385160
v -0.26395719 0.52377293 0.93176752
v -0.25551885 0.53186066 0.79928201
v -0.24976806 0.53354401 0.79336155
v -0.25505322 0.45935439 0.79336155
v -0.26335269 0.46320312 0.81543118
v -0.26336903 0.46319547 0.86385160
v -0.25027452 0.45716605 0.93176752
v -0.25027452 0.45715840 0.92844828
v -0.26973250 0.50862285 0.93176752
v -0.26419407 0.52384949 0.91229910
v -0.25488169 0.53185301 0.79336155
v -0.26410423 0.52378063 0.79336155
v -0.26413691 0.52383419 0.81543118
v -0.26416140 0.52388775 0.88000076
v -0.26332001 0.46321842 0.79336155
v -0.26896463 0.47634089 0.79336155
v -0.26334453 0.46324143 0.92844828
v -0.26898096 0.47634089 0.93176752
v -0.26898096 0.47634089 0.92844828
v -0.26897281 0.47634089 0.81543118
v -0.26065700 0.46199421 0.93176752
v -0.26977334 0.49248570 0.93176752
v -0.26996123 0.50862285 0.91229910
v -0.26418592 0.52385715 0.89614993
v -0.26620359 0.51823320 0.79336155
v -0.26983053 0.50862285 0.79336155
v -0.26995305 0.50862285 0.89614993
v -0.26971617 0.49248570 0.79336155
v -0.26332819 0.46324903 0.93176752
v -0.26449633 0.46592710 0.93176752
v -0.26915252 0.47965403 0.93176752
v -0.26978967 0.50270821 0.79336155
f 1 2 5
f 1 5 11
f 1 11 10
f 1 10 9
f 1 9 7
f 1 7 3
f 1 3 4
f 1 4 6
f 1 6 2
f 2 6 5
f 3 7 4
f 4 8 13
f 4 13 19
f 4 19 27
f 4 27 39
f 4 39 47
f 4 47 60
f 4 60 69
f 4 69 56
f 4 56 68
f 4 68 67
f 4 67 59
f 4 59 45
f 4 45 37
f 4 37 24
f 4 24 18
f 4 18 12
f 4 12 6
f 4 7 9
f 4 9 10
f 4 10 8
f 5 6 12
f 5 12 11
f 8 10 13
f 10 11 15
f 10 15 23
f 10 23 35
f 10 35 42
f 10 42 53
f 10 53 54
f 10 54 66
f 10 66 70
f 10 70 64
f 10 64 63
f 10 63 50
f 10 50 49
f 10 49 41
f 10 41 32
f 10 32 31
f 10 31 30
f 10 30 29
f 10 29 28
f 10 28 22
f 10 22 14
f 10 14 13
f 11 12 16
f 11 16 17
f 11 17 15
f 12 18 16
f 13 14 20
f 13 20 21
f 13 21 19
f 14 22 20
f 15 17 23
f 16 18 24
f 16 24 25
f 16 25 26
f 16 26 17
f 17 26 23
f 19 21 27
f 20 22 28
f 20 28 29
f 20 29 21
f 21 29 30
f 21 30 31
f 21 31 32
f 21 32 33
f 21 33 27
f 23 34 35
f 23 26 36
f 23 36 34
f 24 37 38
f 24 38 25
f 25 38 26
f 26 38 36
f 27 33 40
f 27 40 39
f 32 41 33
f 33 41 40
f 34 42 35
f 34 36 43
f 34 43 42
f 36 38 44
f 36 44 43
f 37 45 46
f 37 46 38
f 38 46 44
f 39 40 48
f 39 48 47
f 40 41 49
f 40 49 50
f 40 50 51
f 40 51 52
f 40 52 48
f 42 43 53
f 43 54 53
f 43 44 54
f 44 46 55
f 44 55 56
f 44 56 57
f 44 57 58
f 44 58 54
f 45 59 46
f 46 59 55
f 47 48 61
f 47 61 60
f 48 52 62
f 48 62 61
f 50 63 51
f 51 63 64
f 51 64 65
f 51 65 62
f 51 62 52
f 54 58 60
f 54 60 66
f 55 59 67
f 55 67 68
f 55 68 56
f 56 69 57
f 57 69 58
f 58 69 60
f 60 61 66
f 61 62 65
f 61 65 66
f 64 70 65
f 65 70 66

