# https://github.com/mikedh/trimesh
v -0.18566308 0.51279953 0.76815404
v -0.18566308 0.51248477 0.76871808
v -0.18651733 0.50818889 0.79336123
v -0.18566308 0.52089193 0.76815404
v 0.18556512 0.51384483 0.77334230
v 0.18556512 0.50808981 0.78306079
v -0.18566308 0.50762933 0.78313242
v 0.16952005 0.50803538 0.78313689
v -0.18651733 0.50858330 0.79927469
v -0.18651733 0.52566186 0.79336123
v 0.19291912 0.50646546 0.79335675
v -0.18566308 0.52631275 0.78313242
v 0.18556512 0.52578620 0.78313689
v 0.18556512 0.51979028 0.77334230
v -0.18651733 0.51378848 0.81388600
v 0.19291912 0.50731067 0.79927021
v -0.18651733 0.52514700 0.79927469
v 0.19291912 0.52444558 0.79927021
v 0.19291912 0.52492550 0.79335675
v 0.19291912 0.52466126 0.79662012
v -0.18651733 0.51978638 0.81388600
v 0.19291912 0.51020178 0.80617746
v 0.19291912 0.51326968 0.81060920
v -0.18651733 0.52506731 0.80010284
v 0.19291912 0.51851958 0.81026898
v -0.18651733 0.51985048 0.81379199
f 1 2 3
f 1 3 10
f 1 10 4
f 1 4 14
f 1 14 5
f 1 5 6
f 1 6 2
f 2 7 3
f 2 6 8
f 2 8 7
f 3 9 15
f 3 15 21
f 3 21 26
f 3 26 24
f 3 24 17
f 3 17 10
f 3 7 11
f 3 11 9
f 4 10 12
f 4 12 13
f 4 13 14
f 5 14 19
f 5 19 11
f 5 11 6
f 6 11 8
f 7 8 11
f 9 11 16
f 9 16 15
f 10 17 18
f 10 18 13
f 10 13 12
f 11 19 20
f 11 20 18
f 11 18 25
f 11 25 23
f 11 23 22
f 11 22 16
f 13 18 20
f 13 20 19
f 13 19 14
f 15 16 22
f 15 22 23
f 15 23 21
f 17 24 18
f 18 24 26
f 18 26 25
f 21 23 25
f 21 25 26

