# https://github.com/mikedh/trimesh
v -0.23462462 -0.53504926 0.79288087
v -0.22198329 -0.53377807 0.78638810
v -0.22167036 -0.53373606 0.79288087
v -0.23859406 -0.53488117 0.79288087
v -0.23413048 -0.53270650 0.42641581
v -0.21947151 -0.53244385 0.42641581
v -0.21798914 -0.53241233 0.42641581
v -0.21471144 -0.53243336 0.79288087
v -0.24688710 -0.53436636 0.79288087
v -0.25027184 -0.53185551 0.42641581
v -0.23560462 -0.53263297 0.42641581
v -0.20332191 -0.52743264 0.42641581
v -0.18574761 -0.52615092 0.78305203
v -0.20183954 -0.52951275 0.79288087
v -0.25495777 -0.53200262 0.79288087
v -0.25154009 -0.53112012 0.42641581
v -0.20183954 -0.52692837 0.42641581
v -0.18574761 -0.52534199 0.79284499
v -0.19251709 -0.51921720 0.42641581
v -0.18574761 -0.47463103 0.54091819
v -0.19208886 -0.52668671 0.79288087
v -0.25915782 -0.52879839 0.79288087
v -0.26400022 -0.52390272 0.46020691
v -0.26382729 -0.52383968 0.42641581
v -0.18574761 -0.50803914 0.79288087
v -0.19251709 -0.51446859 0.42641581
v -0.18574761 -0.44404892 0.52197794
v -0.18574761 -0.46019618 0.52398676
v -0.18574761 -0.47098552 0.52947512
v -0.26409906 -0.52392375 0.79288087
v -0.26418965 -0.52391321 0.55709632
v -0.26418965 -0.52391321 0.54095407
v -0.26410729 -0.52390272 0.49249142
v -0.26967440 -0.50862742 0.47634917
v -0.26918851 -0.50862742 0.42641581
v -0.26951793 -0.50862742 0.46020691
v -0.18574761 -0.50788154 0.79288087
v -0.22182683 -0.46391518 0.42641581
v -0.18574761 -0.42772308 0.52212144
v -0.26970734 -0.50862742 0.79288087
v -0.26987206 -0.50862742 0.55709632
v -0.26956735 -0.49248016 0.47634917
v -0.26930381 -0.49396150 0.42641581
v -0.22175272 -0.46388371 0.79288087
v -0.18574761 -0.42773357 0.62941363
v -0.23413048 -0.45822112 0.42641581
v -0.21798914 -0.42772308 0.52118879
v -0.18574761 -0.42772308 0.59885095
v -0.24879771 -0.45802151 0.42641581
v -0.26953441 -0.49248016 0.79288087
v -0.26966617 -0.49248016 0.70237662
v -0.26902382 -0.42772308 0.57323858
v -0.26968263 -0.49248016 0.67009211
v -0.26928735 -0.49248016 0.42641581
v -0.26894145 -0.42772308 0.55709632
v -0.23413048 -0.45816857 0.79288087
v -0.19643714 -0.42772308 0.62962886
v -0.20456545 -0.42772308 0.62984409
v -0.25027184 -0.45794798 0.79288087
v -0.23413048 -0.42772308 0.52090180
v -0.25027184 -0.45801102 0.42641581
v -0.26865321 -0.47634344 0.79288087
v -0.26877673 -0.42772308 0.58938083
v -0.26866146 -0.47782473 0.42641581
v -0.26767321 -0.42772308 0.54095407
v -0.26858733 -0.47634344 0.42641581
v -0.21787384 -0.42772308 0.63016694
v -0.23413048 -0.42772308 0.63038217
v -0.24352707 -0.42772308 0.63002344
v -0.25151538 -0.42772308 0.62762005
v -0.25159774 -0.42772308 0.62758417
v -0.26256727 -0.42772308 0.61951305
v -0.25800487 -0.46139384 0.79288087
v -0.23395755 -0.42772308 0.63038217
v -0.23429520 -0.42772308 0.52090180
v -0.26185078 -0.46317978 0.42641581
v -0.26241903 -0.42772308 0.52854247
v -0.25040360 -0.42772308 0.52262364
v -0.25027184 -0.42772308 0.52258777
v -0.26307787 -0.46366307 0.79288087
v -0.26765675 -0.42772308 0.60552310
v -0.26302022 -0.46370508 0.42641581
v -0.26760733 -0.42772308 0.60566658
f 1 2 3
f 1 3 8
f 1 8 14
f 1 14 21
f 1 21 25
f 1 25 37
f 1 37 44
f 1 44 56
f 1 56 59
f 1 59 73
f 1 73 80
f 1 80 62
f 1 62 50
f 1 50 40
f 1 40 30
f 1 30 22
f 1 22 15
f 1 15 9
f 1 9 4
f 1 4 5
f 1 5 6
f 1 6 7
f 1 7 2
f 2 7 3
f 3 7 8
f 4 9 10
f 4 10 11
f 4 11 5
f 5 11 10
f 5 10 16
f 5 16 24
f 5 24 35
f 5 35 43
f 5 43 54
f 5 54 64
f 5 64 66
f 5 66 82
f 5 82 76
f 5 76 61
f 5 61 49
f 5 49 46
f 5 46 38
f 5 38 26
f 5 26 19
f 5 19 17
f 5 17 12
f 5 12 7
f 5 7 6
f 7 12 13
f 7 13 8
f 8 13 14
f 9 15 10
f 10 15 16
f 12 17 13
f 13 18 14
f 13 17 19
f 13 19 20
f 13 20 29
f 13 29 28
f 13 28 27
f 13 27 39
f 13 39 48
f 13 48 45
f 13 45 37
f 13 37 25
f 13 25 18
f 14 18 21
f 15 22 23
f 15 23 24
f 15 24 16
f 18 25 21
f 19 26 27
f 19 27 28
f 19 28 29
f 19 29 20
f 22 30 31
f 22 31 32
f 22 32 33
f 22 33 23
f 23 33 34
f 23 34 24
f 24 34 36
f 24 36 35
f 26 38 39
f 26 39 27
f 30 40 41
f 30 41 31
f 31 41 32
f 32 41 33
f 33 41 34
f 34 42 43
f 34 43 36
f 34 41 42
f 35 36 43
f 37 45 44
f 38 46 39
f 39 47 60
f 39 60 75
f 39 75 79
f 39 79 78
f 39 78 77
f 39 77 65
f 39 65 55
f 39 55 52
f 39 52 63
f 39 63 81
f 39 81 83
f 39 83 72
f 39 72 71
f 39 71 70
f 39 70 69
f 39 69 68
f 39 68 74
f 39 74 67
f 39 67 58
f 39 58 57
f 39 57 48
f 39 46 49
f 39 49 47
f 40 50 51
f 40 51 41
f 41 52 42
f 41 51 53
f 41 53 52
f 42 54 43
f 42 52 55
f 42 55 54
f 44 45 56
f 45 57 58
f 45 58 59
f 45 59 56
f 45 48 57
f 47 49 61
f 47 61 60
f 50 62 52
f 50 52 51
f 51 52 53
f 52 62 63
f 54 55 64
f 55 65 66
f 55 66 64
f 58 67 59
f 59 68 69
f 59 69 70
f 59 70 71
f 59 71 72
f 59 72 73
f 59 67 74
f 59 74 68
f 60 61 75
f 61 76 77
f 61 77 78
f 61 78 79
f 61 79 75
f 62 80 81
f 62 81 63
f 65 77 82
f 65 82 66
f 72 83 80
f 72 80 73
f 76 82 77
f 80 83 81

