# https://github.com/mikedh/trimesh
v 0.23412478 -0.53631404 0.02425260
v 0.22192925 -0.53448575 0.02425260
v 0.23412478 -0.53630341 0.00810549
v 0.25027464 -0.53565497 0.00810549
v 0.23412478 -0.53626087 0.26639230
v 0.22207073 -0.53447512 0.00810549
v 0.22195755 -0.53448575 0.04039977
v 0.22227587 -0.53441136 0.33406922
v 0.21401349 -0.53070165 0.08884111
v 0.22349968 -0.53393303 -0.00149553
v 0.23412478 -0.53457078 -0.00236836
v 0.25027464 -0.53425188 -0.00196549
v 0.25930810 -0.53349719 -0.00095839
v 0.25981742 -0.53382673 0.00810549
v 0.25976083 -0.53377355 0.28253942
v 0.25027464 -0.53558057 0.28253942
v 0.25027464 -0.53554872 0.33406922
v 0.23412478 -0.53620774 0.33406922
v 0.22225465 -0.53444321 0.26639230
v 0.21399226 -0.52706634 0.00810549
v 0.20258904 -0.52263384 0.08884111
v 0.19789900 -0.51887101 0.08884111
v 0.21420448 -0.52737461 0.33406922
v 0.21806688 -0.52387750 -0.00300617
v 0.23412478 -0.52477040 -0.00679951
v 0.20957103 -0.51789308 -0.00052193
v 0.25027464 -0.52477040 -0.00639673
v 0.26164251 -0.52477040 -0.00293899
v 0.26525023 -0.52477040 0.00810549
v 0.26539878 -0.52477040 0.10498823
v 0.26544122 -0.52477040 0.29868653
v 0.25973961 -0.53376292 0.31483365
v 0.25971131 -0.53374169 0.33406922
v 0.19789900 -0.51827574 0.08313421
v 0.19789900 -0.50995284 0.10569321
v 0.21004500 -0.52082682 0.33406922
v 0.20907586 -0.51929621 0.33406922
v 0.20886364 -0.51727659 0.33406922
v 0.20797233 -0.50862420 0.33406922
v 0.21798907 -0.50862420 -0.00525528
v 0.23412478 -0.50862420 -0.00888087
v 0.25027464 -0.50862420 -0.00888087
v 0.19789900 -0.50639198 0.05909815
v 0.19789900 -0.49247795 0.05705043
v 0.20937296 -0.50862420 -0.00082413
v 0.19789900 -0.51527824 0.07269400
v 0.19789900 -0.51440661 0.07014268
v 0.26351712 -0.50862420 -0.00441604
v 0.26933899 -0.50862420 0.00810549
v 0.26948754 -0.50862420 0.02425260
v 0.26988368 -0.50862420 0.10498823
v 0.26998979 -0.50862420 0.26639230
v 0.26997564 -0.50862420 0.29868653
v 0.26995442 -0.50862420 0.31483365
v 0.26538463 -0.52477040 0.31483365
v 0.25971839 -0.53374169 0.33098076
v 0.26415377 -0.52647112 0.33406922
v 0.19789900 -0.50986781 0.10582747
v 0.20792281 -0.50557352 0.33406922
v 0.19789900 -0.46372519 0.16655541
v 0.19789900 -0.47490739 0.15584663
v 0.19789900 -0.47597036 0.15473882
v 0.21798907 -0.49247795 -0.00528887
v 0.20936589 -0.49247795 -0.00085763
v 0.23412478 -0.47634238 -0.00888087
v 0.25027464 -0.49247795 -0.00888087
v 0.26359493 -0.49247795 -0.00441604
v 0.19789900 -0.47606602 0.05792321
v 0.26948754 -0.49247795 0.00810549
v 0.26989075 -0.49247795 0.02425260
v 0.27013834 -0.49247795 0.12113534
v 0.27016664 -0.49247795 0.25024518
v 0.27012419 -0.49247795 0.33098076
v 0.27011712 -0.49247795 0.33406922
v 0.26974928 -0.50862420 0.33406922
v 0.26888626 -0.51168547 0.33406922
v 0.26518656 -0.52477040 0.33406922
v 0.20774596 -0.49247795 0.33406922
v 0.19789900 -0.46175870 0.16712609
v 0.21798907 -0.47634238 -0.00491958
v 0.20959225 -0.47634238 -0.00048834
v 0.25027464 -0.47634238 -0.00878011
v 0.21798907 -0.46574477 -0.00226759
v 0.23412478 -0.46326808 -0.00441604
v 0.26334025 -0.47634238 -0.00431537
v 0.19789900 -0.42773367 0.06695355
v 0.26870941 -0.47634238 0.00810549
v 0.26994734 -0.42773367 0.10478679
v 0.26995442 -0.42773367 0.10498823
v 0.26992612 -0.42773367 0.12093395
v 0.26887211 -0.47634238 0.33406922
v 0.20790159 -0.48941668 0.33406922
v 0.19789900 -0.42776558 0.16521262
v 0.20985401 -0.46817891 -0.00008556
v 0.25027464 -0.46351259 -0.00431537
v 0.26146567 -0.46531961 -0.00280473
v 0.21781929 -0.42773367 0.06624857
v 0.23412478 -0.42773367 0.06567789
v 0.19789900 -0.42773367 0.09021749
v 0.26930362 -0.42773367 0.08884111
v 0.26941680 -0.42773367 0.13728246
v 0.26302192 -0.46393775 0.33406922
v 0.20857361 -0.47634238 0.33406922
v 0.20963469 -0.46789191 0.33406922
v 0.21798907 -0.46280039 0.33406922
v 0.23412478 -0.45779390 0.33406922
v 0.20183921 -0.42773367 0.16534688
v 0.25010486 -0.42773367 0.06678570
v 0.25027464 -0.42773367 0.06681924
v 0.26352419 -0.42773367 0.07443961
v 0.26923995 -0.42773367 0.08867326
v 0.26472676 -0.42773367 0.15342957
v 0.26060970 -0.46291733 0.33406922
v 0.23412478 -0.42773367 0.16615258
v 0.21815884 -0.42773367 0.16585048
v 0.24721869 -0.45841043 0.33406922
v 0.25941421 -0.42773367 0.16229206
v 0.25027464 -0.42773367 0.16464195
v 0.23430162 -0.42773367 0.16615258
v 0.25027464 -0.45855923 0.33406922
f 1 2 3
f 1 3 4
f 1 4 5
f 1 5 2
f 2 6 3
f 2 5 7
f 2 7 8
f 2 8 9
f 2 9 6
f 3 6 10
f 3 10 11
f 3 11 12
f 3 12 4
f 4 12 13
f 4 13 14
f 4 14 15
f 4 15 16
f 4 16 5
f 5 16 17
f 5 17 18
f 5 18 8
f 5 8 19
f 5 19 7
f 6 20 10
f 6 9 21
f 6 21 22
f 6 22 20
f 7 19 8
f 8 18 17
f 8 17 33
f 8 33 57
f 8 57 77
f 8 77 76
f 8 76 75
f 8 75 74
f 8 74 91
f 8 91 102
f 8 102 113
f 8 113 120
f 8 120 116
f 8 116 106
f 8 106 105
f 8 105 104
f 8 104 103
f 8 103 92
f 8 92 78
f 8 78 59
f 8 59 39
f 8 39 38
f 8 38 37
f 8 37 36
f 8 36 23
f 8 23 22
f 8 22 21
f 8 21 9
f 10 24 25
f 10 25 11
f 10 20 26
f 10 26 24
f 11 25 27
f 11 27 12
f 12 27 13
f 13 27 28
f 13 28 29
f 13 29 14
f 14 29 30
f 14 30 31
f 14 31 15
f 15 31 32
f 15 32 16
f 16 32 17
f 17 32 33
f 20 22 34
f 20 34 26
f 22 35 58
f 22 58 62
f 22 62 61
f 22 61 60
f 22 60 79
f 22 79 93
f 22 93 99
f 22 99 86
f 22 86 68
f 22 68 44
f 22 44 43
f 22 43 47
f 22 47 46
f 22 46 34
f 22 23 36
f 22 36 37
f 22 37 38
f 22 38 39
f 22 39 35
f 24 26 40
f 24 40 25
f 25 41 42
f 25 42 27
f 25 40 41
f 26 43 44
f 26 44 45
f 26 45 40
f 26 34 46
f 26 46 47
f 26 47 43
f 27 42 28
f 28 42 48
f 28 48 49
f 28 49 29
f 29 49 50
f 29 50 51
f 29 51 30
f 30 51 52
f 30 52 31
f 31 52 53
f 31 53 54
f 31 54 55
f 31 55 33
f 31 33 56
f 31 56 32
f 32 56 33
f 33 55 57
f 35 39 58
f 39 59 60
f 39 60 61
f 39 61 62
f 39 62 58
f 40 63 41
f 40 45 64
f 40 64 63
f 41 63 65
f 41 65 66
f 41 66 42
f 42 66 67
f 42 67 48
f 44 68 64
f 44 64 45
f 48 67 69
f 48 69 49
f 49 69 70
f 49 70 50
f 50 70 51
f 51 70 71
f 51 71 52
f 52 72 53
f 52 71 72
f 53 72 73
f 53 73 54
f 54 73 74
f 54 74 75
f 54 75 76
f 54 76 77
f 54 77 55
f 55 77 57
f 59 78 79
f 59 79 60
f 63 64 80
f 63 80 65
f 64 81 80
f 64 68 81
f 65 82 66
f 65 80 83
f 65 83 84
f 65 84 82
f 66 82 67
f 67 82 85
f 67 85 69
f 68 86 81
f 69 85 87
f 69 87 88
f 69 88 89
f 69 89 70
f 70 89 71
f 71 89 72
f 72 89 73
f 73 89 90
f 73 90 74
f 74 90 91
f 78 92 93
f 78 93 79
f 80 81 94
f 80 94 83
f 81 86 94
f 82 84 95
f 82 95 96
f 82 96 85
f 83 94 86
f 83 86 84
f 84 86 97
f 84 97 98
f 84 98 95
f 85 96 87
f 86 99 107
f 86 107 115
f 86 115 114
f 86 114 119
f 86 119 118
f 86 118 117
f 86 117 112
f 86 112 101
f 86 101 90
f 86 90 89
f 86 89 88
f 86 88 100
f 86 100 111
f 86 111 110
f 86 110 109
f 86 109 108
f 86 108 98
f 86 98 97
f 87 96 100
f 87 100 88
f 90 101 91
f 91 101 102
f 92 103 93
f 93 103 104
f 93 104 105
f 93 105 106
f 93 106 107
f 93 107 99
f 95 98 108
f 95 108 109
f 95 109 96
f 96 109 110
f 96 110 111
f 96 111 100
f 101 112 102
f 102 112 113
f 106 114 115
f 106 115 107
f 106 116 117
f 106 117 118
f 106 118 119
f 106 119 114
f 112 117 120
f 112 120 113
f 116 120 117

