# https://github.com/mikedh/trimesh
v 0.19802724 -0.45634120 0.95950175
v 0.19802724 -0.42812875 0.96194592
v 0.19802724 -0.46108793 0.95984546
v 0.00037990 -0.44404373 0.96287523
v 0.00037990 -0.43634944 0.96324439
v 0.00037990 -0.42812875 0.96363903
v 0.19802724 -0.42812875 1.06670177
v 0.19802724 -0.47200733 0.96186955
v 0.00037990 -0.46019792 0.96414824
v 0.00037990 -0.45250363 0.96353719
v 0.00037990 -0.42812875 1.06463949
v 0.12108485 -0.46222678 1.08953955
v 0.12151048 -0.46222678 1.08953955
v 0.13723946 -0.46240863 1.08953955
v 0.13766510 -0.46241816 1.08953955
v 0.15530941 -0.46445660 1.08953955
v 0.16579540 -0.46866740 1.08953955
v 0.17030322 -0.47484965 1.08953955
v 0.19802724 -0.46625577 1.07528186
v 0.19802724 -0.47439985 0.96272246
v 0.00037990 -0.46970095 0.96736895
v 0.00037990 -0.43559340 1.06484319
v 0.07463308 -0.49308053 1.08953955
v 0.07685797 -0.48158694 1.08953955
v 0.07792204 -0.47634258 1.08953955
v 0.08090145 -0.47195950 1.08953955
v 0.08910452 -0.46539444 1.08953955
v 0.08951080 -0.46527962 1.08953955
v 0.10494959 -0.46282012 1.08953955
v 0.17090297 -0.47659141 1.08953955
v 0.19802724 -0.47634258 1.07744597
v 0.19802724 -0.50986637 0.98734244
v 0.00037990 -0.47321317 0.97690378
v 0.19802724 -0.52073794 0.99503141
v 0.00037990 -0.44404373 1.06507232
v 0.07631625 -0.50767485 1.08953955
v 0.17289570 -0.48787448 1.08953955
v 0.19802724 -0.49247766 1.07806975
v 0.17366957 -0.49247766 1.08953955
v 0.08856281 -0.52051783 1.08950136
v 0.08848542 -0.52050826 1.08953955
v 0.00037990 -0.47537600 0.99304552
v 0.19802724 -0.52443196 1.00911089
v 0.00037990 -0.46019792 1.06272999
v 0.00037990 -0.47140442 1.05482460
v 0.17260550 -0.50330135 1.08953955
v 0.17202509 -0.50908165 1.08953955
v 0.19802724 -0.50862228 1.07705134
v 0.10494959 -0.52363766 1.08953955
v 0.08978166 -0.52075709 1.08953955
v 0.00037990 -0.47309835 1.04847231
v 0.00037990 -0.47496447 1.04147076
v 0.00037990 -0.47518457 1.03378179
v 0.00037990 -0.47541426 1.02532901
v 0.00037990 -0.47543341 1.01765277
v 0.00037990 -0.47545256 1.00918726
v 0.00037990 -0.47542384 1.00149829
v 0.19802724 -0.52581002 1.02532901
v 0.16887155 -0.51376139 1.08953955
v 0.19802724 -0.52092932 1.07307954
v 0.12108485 -0.52427884 1.08953955
v 0.19802724 -0.52588663 1.04147076
v 0.15977854 -0.52017328 1.08953955
v 0.19802724 -0.52482435 1.05762524
v 0.15463228 -0.52119731 1.08953955
v 0.13723946 -0.52399174 1.08953955
f 1 2 7
f 1 7 19
f 1 19 31
f 1 31 38
f 1 38 48
f 1 48 60
f 1 60 64
f 1 64 62
f 1 62 58
f 1 58 43
f 1 43 34
f 1 34 32
f 1 32 20
f 1 20 8
f 1 8 3
f 1 3 4
f 1 4 5
f 1 5 6
f 1 6 2
f 2 6 11
f 2 11 7
f 3 8 9
f 3 9 10
f 3 10 4
f 4 10 9
f 4 9 21
f 4 21 33
f 4 33 42
f 4 42 57
f 4 57 56
f 4 56 55
f 4 55 54
f 4 54 53
f 4 53 52
f 4 52 51
f 4 51 45
f 4 45 44
f 4 44 35
f 4 35 22
f 4 22 11
f 4 11 6
f 4 6 5
f 7 12 13
f 7 13 14
f 7 14 15
f 7 15 16
f 7 16 17
f 7 17 18
f 7 18 19
f 7 11 12
f 8 20 21
f 8 21 9
f 11 22 23
f 11 23 24
f 11 24 25
f 11 25 26
f 11 26 27
f 11 27 28
f 11 28 29
f 11 29 12
f 12 29 28
f 12 28 27
f 12 27 26
f 12 26 25
f 12 25 24
f 12 24 23
f 12 23 36
f 12 36 41
f 12 41 50
f 12 50 49
f 12 49 61
f 12 61 66
f 12 66 65
f 12 65 63
f 12 63 59
f 12 59 47
f 12 47 46
f 12 46 39
f 12 39 37
f 12 37 30
f 12 30 18
f 12 18 17
f 12 17 16
f 12 16 15
f 12 15 14
f 12 14 13
f 18 30 31
f 18 31 19
f 20 32 21
f 21 32 34
f 21 34 33
f 22 35 23
f 23 35 36
f 30 37 31
f 31 37 39
f 31 39 38
f 33 40 41
f 33 41 42
f 33 34 43
f 33 43 40
f 35 44 36
f 36 44 45
f 36 45 41
f 38 39 46
f 38 46 47
f 38 47 48
f 40 49 50
f 40 50 41
f 40 43 49
f 41 45 51
f 41 51 52
f 41 52 53
f 41 53 54
f 41 54 55
f 41 55 56
f 41 56 57
f 41 57 42
f 43 58 49
f 47 59 60
f 47 60 48
f 49 58 61
f 58 62 61
f 59 63 60
f 60 63 65
f 60 65 66
f 60 66 64
f 61 62 66
f 62 64 66

