# https://github.com/mikedh/trimesh
v -0.26910772 0.37941953 1.44516084
v -0.26900218 0.37941953 1.46129521
v -0.26900218 0.41168419 1.46129521
v -0.26905495 0.42802606 1.44528740
v -0.26905495 0.42802606 1.44516084
v -0.26879112 0.42802606 1.42902653
v -0.26879112 -0.41169358 1.42901599
v -0.26879112 -0.42811922 1.42901599
v -0.26905495 -0.42786783 1.44516084
v -0.26894942 -0.42811922 1.46129521
v -0.26842181 0.39559379 1.47742952
v -0.26836905 -0.42811922 1.47742952
v -0.26836905 0.42802606 1.47742952
v -0.26894942 0.42802606 1.46143231
v -0.26483400 0.42802606 1.41287109
v -0.26873838 -0.42811922 1.42879453
v -0.26900218 -0.42811922 1.44493939
v -0.26900218 -0.42811922 1.44516084
v -0.26404256 0.33098062 1.49358496
v -0.26398980 0.41168419 1.49358496
v -0.26404256 -0.36325466 1.49358496
v -0.26398980 -0.42811922 1.49358496
v -0.26393706 0.42802606 1.49358496
v -0.25976887 0.42802606 1.40378103
v -0.26483400 0.33098062 1.41287109
v -0.26478123 -0.42811922 1.41287109
v -0.25929400 0.31480639 1.50244302
v -0.25929400 0.33098062 1.50243249
v -0.25929400 -0.04035648 1.50247469
v -0.25918847 0.42802606 1.50236921
v -0.25924124 -0.36325466 1.50246410
v -0.25918847 -0.42811922 1.50241141
v -0.25971610 0.42802606 1.40370721
v -0.25971610 0.08878604 1.40370721
v -0.26472847 -0.42811922 1.41273399
v -0.25027172 0.29863215 1.50518481
v -0.25027172 0.42802606 1.50515319
v -0.25021896 -0.36325466 1.50518481
v -0.25021896 -0.04035648 1.50519535
v -0.25021896 -0.42811922 1.50517427
v -0.25032449 0.42802606 1.40108145
v -0.25027172 0.42777467 1.40106032
v -0.25971610 0.02417288 1.40371775
v -0.25021896 -0.42811922 1.40106032
v -0.25950504 -0.42811922 1.40366506
v -0.25966334 -0.42811922 1.40371775
v -0.23412661 0.42802606 1.50724115
v -0.25011345 0.42802606 1.50517427
v -0.23407384 -0.42811922 1.50719895
v -0.23412661 0.42802606 1.39980545
v -0.23407384 -0.42811922 1.39978437
v -0.25000792 -0.42811922 1.40103924
v 0.23408204 0.42802606 1.50731497
v 0.23408204 -0.42811922 1.50724115
v 0.23408204 0.42802606 1.39958399
v 0.23408204 -0.42811922 1.39962620
v 0.25022716 0.42802606 1.50552229
v 0.25001613 -0.42811922 1.50543788
v 0.25022716 -0.39551935 1.50542734
v 0.25012166 0.42802606 1.40064907
v 0.25022716 -0.29864149 1.40067015
v 0.25022716 -0.42811922 1.40068069
v 0.25961878 0.41168419 1.50266448
v 0.25956601 0.42777467 1.50266448
v 0.25961878 0.42802606 1.50259066
v 0.25956601 -0.34708043 1.50265394
v 0.25022716 -0.42811922 1.50540627
v 0.25022716 0.42802606 1.40065961
v 0.26019917 -0.29864149 1.40336978
v 0.26014641 -0.39551935 1.40338032
v 0.26009364 -0.42811922 1.40341194
v 0.26478944 0.34707107 1.49358496
v 0.26478944 0.42802606 1.49358496
v 0.26473669 -0.39551935 1.49358496
v 0.25956601 -0.36325466 1.50264340
v 0.25935497 -0.42811922 1.50266448
v 0.26004088 0.42802606 1.40335919
v 0.26568640 -0.39551935 1.41287109
v 0.26019917 -0.31481575 1.40338032
v 0.26014641 0.42802606 1.40340140
v 0.26568640 0.36324530 1.41287109
v 0.26014641 -0.41169358 1.40341194
v 0.26019917 -0.42811922 1.40354903
v 0.26484220 0.42802606 1.49344786
v 0.25951327 -0.42811922 1.50261174
v 0.26468393 -0.42811922 1.49358496
v 0.26911592 -0.42811922 1.47766152
v 0.26927419 0.41168419 1.47742952
v 0.26959076 -0.39551935 1.42901599
v 0.26563364 -0.42811922 1.41287109
v 0.26563364 0.42802606 1.41287109
v 0.26959076 0.42802606 1.42902653
v 0.26959076 -0.31481575 1.42901599
v 0.26927419 0.42802606 1.47742952
v 0.26916869 -0.42811922 1.47742952
v 0.26985459 0.41168419 1.46129521
v 0.26990736 0.42777467 1.44516084
v 0.26985459 -0.36325466 1.44516084
v 0.26980182 -0.42811922 1.44516084
v 0.26953802 -0.42811922 1.42901599
v 0.26985459 0.42802606 1.44504487
v 0.26985459 0.42802606 1.46129521
v 0.26974906 -0.42811922 1.46129521
v 0.26980182 -0.42811922 1.44539284
f 1 2 3
f 1 3 4
f 1 4 5
f 1 5 6
f 1 6 7
f 1 7 8
f 1 8 9
f 1 9 10
f 1 10 2
f 2 11 3
f 2 10 12
f 2 12 11
f 3 11 13
f 3 13 14
f 3 14 4
f 4 14 13
f 4 13 23
f 4 23 30
f 4 30 37
f 4 37 48
f 4 48 47
f 4 47 53
f 4 53 57
f 4 57 65
f 4 65 73
f 4 73 84
f 4 84 94
f 4 94 102
f 4 102 101
f 4 101 92
f 4 92 91
f 4 91 80
f 4 80 77
f 4 77 68
f 4 68 60
f 4 60 55
f 4 55 50
f 4 50 41
f 4 41 33
f 4 33 24
f 4 24 15
f 4 15 6
f 4 6 5
f 6 15 16
f 6 16 7
f 7 16 8
f 8 17 9
f 8 16 26
f 8 26 35
f 8 35 46
f 8 46 45
f 8 45 44
f 8 44 52
f 8 52 51
f 8 51 56
f 8 56 62
f 8 62 71
f 8 71 83
f 8 83 90
f 8 90 100
f 8 100 99
f 8 99 104
f 8 104 103
f 8 103 95
f 8 95 87
f 8 87 86
f 8 86 85
f 8 85 76
f 8 76 67
f 8 67 58
f 8 58 54
f 8 54 49
f 8 49 40
f 8 40 32
f 8 32 22
f 8 22 12
f 8 12 10
f 8 10 18
f 8 18 17
f 9 17 18
f 9 18 10
f 11 19 20
f 11 20 13
f 11 12 21
f 11 21 19
f 12 22 21
f 13 20 23
f 15 24 25
f 15 25 16
f 16 25 26
f 19 27 28
f 19 28 20
f 19 21 29
f 19 29 27
f 20 28 30
f 20 30 23
f 21 22 31
f 21 31 29
f 22 32 31
f 24 33 34
f 24 34 25
f 25 34 35
f 25 35 26
f 27 36 37
f 27 37 28
f 27 29 36
f 28 37 30
f 29 31 38
f 29 38 39
f 29 39 36
f 31 32 40
f 31 40 38
f 33 41 42
f 33 42 34
f 34 43 35
f 34 42 44
f 34 44 45
f 34 45 46
f 34 46 43
f 35 43 46
f 36 47 48
f 36 48 37
f 36 39 47
f 38 40 49
f 38 49 47
f 38 47 39
f 41 50 42
f 42 50 51
f 42 51 52
f 42 52 44
f 47 49 53
f 49 54 53
f 50 55 51
f 51 55 56
f 53 54 57
f 54 58 59
f 54 59 57
f 55 60 61
f 55 61 56
f 56 61 62
f 57 63 64
f 57 64 65
f 57 59 66
f 57 66 63
f 58 67 59
f 59 67 66
f 60 68 61
f 61 69 62
f 61 68 69
f 62 70 71
f 62 69 70
f 63 72 73
f 63 73 65
f 63 65 64
f 63 66 74
f 63 74 72
f 66 67 75
f 66 75 74
f 67 76 75
f 68 77 69
f 69 78 79
f 69 79 70
f 69 77 80
f 69 80 81
f 69 81 78
f 70 79 78
f 70 78 82
f 70 82 71
f 71 82 83
f 72 84 73
f 72 74 84
f 74 75 85
f 74 85 86
f 74 86 87
f 74 87 88
f 74 88 84
f 75 76 85
f 78 89 100
f 78 100 90
f 78 90 82
f 78 81 93
f 78 93 89
f 80 91 81
f 81 91 92
f 81 92 93
f 82 90 83
f 84 88 94
f 87 95 88
f 88 96 102
f 88 102 94
f 88 95 103
f 88 103 96
f 89 93 97
f 89 97 98
f 89 98 99
f 89 99 100
f 92 101 97
f 92 97 93
f 96 97 102
f 96 103 98
f 96 98 97
f 97 101 102
f 98 103 104
f 98 104 99

