# https://github.com/mikedh/trimesh
v -0.26906700 0.36324530 1.00919161
v -0.26880320 0.42802606 1.02544929
v -0.26901424 0.42802606 1.00932693
v -0.26901424 0.42802606 1.00919161
v -0.26896147 0.42802606 0.99304844
v -0.26896147 0.37941953 0.99304844
v -0.26901424 -0.34708043 1.00919161
v -0.26880320 -0.42811922 1.02531399
v -0.26785357 0.42802606 1.04146758
v -0.26790633 0.08878604 1.04146758
v -0.26790633 0.10496028 1.04146758
v -0.26627082 0.42802606 0.97690525
v -0.26627082 0.20183810 0.97690525
v -0.26621808 -0.36325466 0.97690525
v -0.26885597 -0.34708043 0.99305885
v -0.26896147 -0.42811922 1.00897304
v -0.26896147 -0.42811922 1.00919161
v -0.26785357 -0.42811922 1.04146758
v -0.26273606 0.41168419 1.05590380
v -0.26268329 0.42802606 1.05587257
v -0.26273606 -0.42811922 1.05584136
v -0.26273606 -0.34708043 1.05586217
v -0.26104780 0.42802606 0.96661151
v -0.26104780 0.37941953 0.96649702
v -0.26110057 0.20183810 0.96645538
v -0.26099503 -0.34708043 0.96648661
v -0.26099503 -0.42811922 0.96653864
v -0.26616531 -0.42811922 0.97690525
v -0.26880320 -0.42811922 0.99305885
v -0.25297585 0.39559379 1.06401181
v -0.25281758 0.42802606 1.06395977
v -0.25276482 -0.42811922 1.06390775
v -0.25292309 -0.36325466 1.06397019
v -0.26099503 0.42802606 0.96651783
v -0.26104780 0.33098062 0.96646579
v -0.25023243 0.42802606 0.96265637
v -0.25023243 0.20183810 0.96258351
v -0.25023243 -0.34708043 0.96256270
v -0.25023243 -0.42811922 0.96258351
v -0.26083676 -0.42811922 0.96645538
v -0.24490389 0.34707107 1.06628083
v -0.24490389 0.36324530 1.06628083
v -0.24490389 0.39559379 1.06627041
v -0.24474561 0.42802606 1.06629122
v -0.24485114 -0.36325466 1.06628083
v -0.24469287 -0.42811922 1.06630164
v -0.23424681 0.42802606 0.96128249
v -0.23408854 -0.02418224 0.96118881
v -0.23408854 -0.42811922 0.96112636
v -0.24464011 0.42802606 1.06631203
v -0.23408854 -0.42811922 1.06707185
v -0.23408854 0.42802606 0.96127207
v 0.23408467 0.28254170 0.96086616
v 0.23408467 -0.05644691 0.96085575
v 0.23408467 -0.23411215 0.96086616
v 0.23408467 -0.36325466 0.96087656
v 0.23408467 -0.42811922 0.96089737
v -0.23408854 0.42802606 1.06705102
v 0.21794075 -0.42811922 1.06718633
v 0.23408467 0.42802606 0.96091820
v 0.23408467 0.33098062 0.96087656
v 0.25022856 0.33098062 0.96222964
v 0.25022856 -0.42811922 0.96222964
v 0.23408467 0.42802606 1.06711348
v 0.23408467 -0.42811922 1.06712387
v 0.25012305 0.42802606 0.96227128
v 0.25022856 0.42802606 0.96229209
v 0.26130773 0.39559379 0.96627845
v 0.26136047 0.34707107 0.96626803
v 0.26130773 -0.42786783 0.96623681
v 0.26130773 -0.42811922 0.96623681
v 0.24553313 0.39559379 1.06633285
v 0.24542759 0.42777467 1.06633285
v 0.24553313 0.42802606 1.06632245
v 0.24505831 -0.42811922 1.06634326
v 0.24553313 0.37941953 1.06633285
v 0.26120220 0.42802606 0.96626803
v 0.26125496 0.42802606 0.96629926
v 0.26690006 0.42802606 0.97690525
v 0.26695280 0.34707107 0.97690525
v 0.26136047 0.31480639 0.96626803
v 0.26695280 -0.42811922 0.97690525
v 0.25360507 0.39559379 1.06439693
v 0.25349956 0.42802606 1.06439693
v 0.24526932 -0.42811922 1.06630164
v 0.24532209 -0.37942889 1.06630164
v 0.25339403 -0.39551935 1.06439693
v 0.26969622 0.42802606 0.99292354
v 0.26974899 0.41168419 0.99304844
v 0.26700556 -0.42811922 0.97713424
v 0.26315423 0.39559379 1.05632013
v 0.26315423 0.42802606 1.05630973
v 0.26315423 -0.36325466 1.05633054
v 0.26315423 -0.34708043 1.05633054
v 0.25323576 -0.42811922 1.06437612
v 0.25334129 -0.42811922 1.06432407
v 0.26315423 -0.39551935 1.05630973
v 0.26985449 0.42802606 1.00906672
v 0.26990726 0.39559379 1.00919161
v 0.26974899 0.39559379 0.99304844
v 0.26969622 -0.42811922 0.99305885
v 0.26320700 0.42802606 1.05619523
v 0.26874659 -0.39551935 1.04146758
v 0.26294322 -0.42811922 1.05636177
v 0.26304873 -0.42811922 1.05625769
v 0.26858831 -0.42811922 1.04168615
v 0.26985449 0.42802606 1.00919161
v 0.26985449 -0.36325466 1.00919161
v 0.26969622 0.42802606 1.02532439
v 0.26969622 0.36324530 1.02532439
v 0.26964346 -0.42811922 1.02555338
v 0.26980173 -0.42811922 1.00919161
v 0.26874659 0.42802606 1.04146758
v 0.26864105 -0.42811922 1.04146758
v 0.26980173 -0.42811922 1.00943102
f 1 2 3
f 1 3 4
f 1 4 5
f 1 5 6
f 1 6 7
f 1 7 8
f 1 8 2
f 2 9 20
f 2 20 31
f 2 31 44
f 2 44 50
f 2 50 58
f 2 58 64
f 2 64 74
f 2 74 84
f 2 84 92
f 2 92 102
f 2 102 113
f 2 113 109
f 2 109 107
f 2 107 98
f 2 98 88
f 2 88 79
f 2 79 78
f 2 78 77
f 2 77 67
f 2 67 66
f 2 66 60
f 2 60 52
f 2 52 47
f 2 47 36
f 2 36 34
f 2 34 23
f 2 23 12
f 2 12 5
f 2 5 4
f 2 4 3
f 2 8 10
f 2 10 11
f 2 11 9
f 5 12 13
f 5 13 6
f 6 13 14
f 6 14 15
f 6 15 7
f 7 15 16
f 7 16 17
f 7 17 8
f 8 17 16
f 8 16 29
f 8 29 28
f 8 28 27
f 8 27 40
f 8 40 39
f 8 39 49
f 8 49 57
f 8 57 63
f 8 63 71
f 8 71 82
f 8 82 90
f 8 90 101
f 8 101 112
f 8 112 115
f 8 115 111
f 8 111 114
f 8 114 106
f 8 106 105
f 8 105 104
f 8 104 96
f 8 96 95
f 8 95 85
f 8 85 75
f 8 75 65
f 8 65 59
f 8 59 51
f 8 51 46
f 8 46 32
f 8 32 21
f 8 21 18
f 8 18 10
f 9 19 20
f 9 11 19
f 10 19 11
f 10 18 21
f 10 21 22
f 10 22 19
f 12 23 24
f 12 24 25
f 12 25 13
f 13 25 14
f 14 26 27
f 14 27 28
f 14 28 29
f 14 29 15
f 14 25 26
f 15 29 16
f 19 30 20
f 19 22 30
f 20 30 31
f 21 32 33
f 21 33 22
f 22 33 30
f 23 34 24
f 24 35 25
f 24 34 36
f 24 36 35
f 25 35 37
f 25 37 38
f 25 38 26
f 26 38 39
f 26 39 40
f 26 40 27
f 30 41 42
f 30 42 43
f 30 43 44
f 30 44 31
f 30 33 45
f 30 45 41
f 32 46 33
f 33 46 45
f 35 36 37
f 36 47 37
f 37 47 48
f 37 48 49
f 37 49 38
f 38 49 39
f 41 50 42
f 41 45 46
f 41 46 50
f 42 50 44
f 42 44 43
f 46 51 50
f 47 52 48
f 48 52 53
f 48 53 49
f 49 53 54
f 49 54 55
f 49 55 56
f 49 56 57
f 50 51 58
f 51 59 58
f 52 60 61
f 52 61 53
f 53 61 62
f 53 62 54
f 54 63 55
f 54 62 63
f 55 63 56
f 56 63 57
f 58 59 64
f 59 65 64
f 60 66 62
f 60 62 61
f 62 66 67
f 62 67 68
f 62 68 69
f 62 69 70
f 62 70 71
f 62 71 63
f 64 72 73
f 64 73 74
f 64 65 72
f 65 75 76
f 65 76 72
f 67 77 68
f 68 77 78
f 68 78 79
f 68 79 69
f 69 80 82
f 69 82 81
f 69 81 71
f 69 71 70
f 69 79 80
f 71 81 82
f 72 76 83
f 72 83 74
f 72 74 73
f 74 83 84
f 75 85 86
f 75 86 76
f 76 86 87
f 76 87 83
f 79 88 89
f 79 89 80
f 80 89 90
f 80 90 82
f 83 91 92
f 83 92 84
f 83 87 93
f 83 93 94
f 83 94 91
f 85 95 87
f 85 87 86
f 87 95 96
f 87 96 97
f 87 97 93
f 88 98 89
f 89 99 100
f 89 100 90
f 89 98 99
f 90 100 101
f 91 102 92
f 91 94 102
f 93 97 103
f 93 103 102
f 93 102 94
f 96 104 97
f 97 104 105
f 97 105 106
f 97 106 103
f 98 107 99
f 99 108 101
f 99 101 100
f 99 107 109
f 99 109 110
f 99 110 111
f 99 111 108
f 101 108 112
f 102 103 113
f 103 106 114
f 103 114 111
f 103 111 110
f 103 110 109
f 103 109 113
f 108 111 115
f 108 115 112

