# https://github.com/mikedh/trimesh
v 0.19293793 0.46069987 0.96069955
v 0.19293793 0.47392427 0.96359402
v 0.19293793 0.42802606 0.96225422
v 0.00083913 0.42802606 0.96428921
v 0.00083913 0.44404262 0.96368251
v 0.00083913 0.45128114 0.96354347
v 0.00083913 0.46019306 0.96337916
v 0.19293793 0.51918183 0.99762006
v 0.00083913 0.47169632 0.96619780
v 0.19293793 0.42802606 1.06641785
v 0.00083913 0.42802606 1.06463566
v 0.19293793 0.52133330 1.00170267
v 0.00083913 0.47443108 0.97098825
v 0.00083913 0.47778739 0.97690361
v 0.19293793 0.47634349 1.07746493
v 0.17067433 0.47649647 1.08981391
v 0.16866234 0.47387648 1.08981391
v 0.15643992 0.46548092 1.08981391
v 0.15403304 0.46478286 1.08981391
v 0.13724131 0.46285135 1.08981391
v 0.12108892 0.46254534 1.08981391
v 0.12097610 0.46254534 1.08981391
v 0.10495534 0.46313820 1.08981391
v 0.08910379 0.46555743 1.08981391
v 0.07746429 0.47634349 1.08981391
v 0.07417364 0.49262780 1.08981391
v 0.00083913 0.44404262 1.06493900
v 0.19293793 0.52315014 1.00897049
v 0.00083913 0.47902089 0.98413351
v 0.08786275 0.52078828 1.08981391
v 0.13724131 0.52324576 1.05762064
v 0.19293793 0.48498765 1.07780621
v 0.17341967 0.49247482 1.08981391
v 0.07500100 0.50232381 1.08981391
v 0.00083913 0.46019306 1.06476206
v 0.19293793 0.52516774 1.01809633
v 0.00083913 0.48053172 0.99304449
v 0.08722342 0.52060662 1.08981391
v 0.10185272 0.52349436 1.08981391
v 0.12108892 0.52371427 1.07377416
v 0.19293793 0.49247482 1.07809691
v 0.17204701 0.50946672 1.08981391
v 0.07556512 0.50759252 1.08981391
v 0.00083913 0.47403904 1.05696337
v 0.07911902 0.51451551 1.08981391
v 0.19293793 0.52551196 1.02532624
v 0.10504935 0.52410632 1.08981391
v 0.00083913 0.48060819 1.00919801
v 0.00083913 0.48058908 1.02532624
v 0.00083913 0.48018746 1.04147976
v 0.19293793 0.49972292 1.07771773
v 0.17137007 0.51212496 1.08981391
v 0.19293793 0.50862526 1.07725006
v 0.19293793 0.52571277 1.03422458
v 0.12120175 0.52467050 1.08981391
v 0.19293793 0.51325332 1.07582179
v 0.19293793 0.52056836 1.07321801
v 0.16710163 0.51823518 1.08981391
v 0.19293793 0.52566494 1.04147976
v 0.13735414 0.52447926 1.08981391
v 0.19293793 0.52462267 1.05762064
v 0.15628949 0.52140982 1.08981391
v 0.15971176 0.52053963 1.08981391
v 0.19293793 0.52509123 1.05037810
f 1 2 8
f 1 8 12
f 1 12 28
f 1 28 36
f 1 36 46
f 1 46 54
f 1 54 59
f 1 59 64
f 1 64 61
f 1 61 57
f 1 57 56
f 1 56 53
f 1 53 51
f 1 51 41
f 1 41 32
f 1 32 15
f 1 15 10
f 1 10 3
f 1 3 4
f 1 4 5
f 1 5 6
f 1 6 7
f 1 7 2
f 2 7 9
f 2 9 8
f 3 10 11
f 3 11 4
f 4 11 27
f 4 27 35
f 4 35 44
f 4 44 50
f 4 50 49
f 4 49 48
f 4 48 37
f 4 37 29
f 4 29 14
f 4 14 13
f 4 13 9
f 4 9 7
f 4 7 6
f 4 6 5
f 8 9 13
f 8 13 14
f 8 14 12
f 10 15 16
f 10 16 17
f 10 17 18
f 10 18 19
f 10 19 20
f 10 20 21
f 10 21 22
f 10 22 11
f 11 22 23
f 11 23 24
f 11 24 25
f 11 25 26
f 11 26 27
f 12 14 28
f 14 29 30
f 14 30 31
f 14 31 28
f 15 32 33
f 15 33 16
f 16 33 42
f 16 42 52
f 16 52 58
f 16 58 63
f 16 63 62
f 16 62 60
f 16 60 55
f 16 55 47
f 16 47 39
f 16 39 30
f 16 30 38
f 16 38 45
f 16 45 43
f 16 43 34
f 16 34 26
f 16 26 25
f 16 25 24
f 16 24 23
f 16 23 22
f 16 22 21
f 16 21 20
f 16 20 19
f 16 19 18
f 16 18 17
f 26 34 35
f 26 35 27
f 28 31 36
f 29 37 30
f 30 37 38
f 30 39 40
f 30 40 31
f 31 40 36
f 32 41 33
f 33 41 42
f 34 43 35
f 35 43 45
f 35 45 44
f 36 40 47
f 36 47 46
f 37 48 38
f 38 48 49
f 38 49 50
f 38 50 44
f 38 44 45
f 39 47 40
f 41 51 42
f 42 51 53
f 42 53 52
f 46 47 55
f 46 55 54
f 52 53 56
f 52 56 57
f 52 57 58
f 54 55 59
f 55 60 59
f 57 61 60
f 57 60 62
f 57 62 63
f 57 63 58
f 59 60 64
f 60 61 64

