# https://github.com/mikedh/trimesh
v -0.18421528 0.50956488 1.39106514
v -0.18879844 0.52047043 1.39106514
v -0.18421528 0.46649220 1.39106514
v -0.18421528 0.52128701 1.38038379
v -0.19595857 0.52542332 1.39106514
v -0.18421528 0.52150832 1.37985431
v -0.18602839 0.46240170 1.39106514
v -0.18421528 0.46333276 1.36445385
v -0.20184282 0.52805625 1.39106514
v -0.18421528 0.52488147 1.36449990
v -0.18421528 0.52517910 1.36293450
v -0.20184282 0.45904376 1.39106514
v -0.18421528 0.46278326 1.34827069
v -0.21233541 0.53113941 1.39106514
v -0.20184282 0.52896441 1.38054495
v -0.18421528 0.52562177 1.34827069
v -0.20562014 0.45836457 1.39106514
v -0.18421528 0.46346250 1.33211053
v -0.23412639 0.45736484 1.15589136
v -0.21798462 0.53232229 1.39106514
v -0.20184282 0.52943754 1.36440780
v -0.18421528 0.52562937 1.34679740
v -0.22039371 0.45625063 1.39106514
v -0.18421528 0.46638536 1.31673308
v -0.22158566 0.46346250 1.15589136
v -0.24889154 0.45710537 1.15589136
v -0.23412639 0.45464038 1.39106514
v -0.23412639 0.53258177 1.39106514
v -0.21798462 0.53233755 1.38054495
v -0.20184282 0.52942228 1.34827069
v -0.21798462 0.53235280 1.15589136
v -0.21798462 0.53236046 1.17067027
v -0.21798462 0.53236046 1.26753906
v -0.18421528 0.52536230 1.33211053
v -0.18421528 0.46648459 1.31634175
v -0.19249183 0.51430411 1.15589136
v -0.25027658 0.45708246 1.15589136
v -0.23461324 0.45464038 1.39106514
v -0.24462738 0.53208573 1.39106514
v -0.23412639 0.53258937 1.38054495
v -0.23412639 0.53256651 1.15589136
v -0.23412639 0.53258177 1.17067027
v -0.20321944 0.52745333 1.15589136
v -0.23412639 0.53258937 1.18680740
v -0.18421528 0.52353834 1.31597343
v -0.19249183 0.51925699 1.15589136
v -0.20184282 0.52699546 1.15589136
v -0.18421528 0.47297906 1.31044862
v -0.18421528 0.51862357 1.30050392
v -0.18421528 0.50664962 1.30064203
v -0.18421528 0.47633695 1.30934364
v -0.26351402 0.46317247 1.15589136
v -0.25027658 0.45498378 1.39106514
v -0.25027658 0.53181860 1.39106514
v -0.25027658 0.53183386 1.28367617
v -0.25027658 0.53178044 1.15589136
v -0.25027658 0.53182621 1.18680740
v -0.25027658 0.53183386 1.23526480
v -0.18421528 0.51976068 1.30140168
v -0.26921358 0.47633695 1.15589136
v -0.25176232 0.45567062 1.39106514
v -0.26333775 0.46112720 1.39106514
v -0.26419393 0.52385888 1.33211053
v -0.26417716 0.52385123 1.39106514
v -0.25146014 0.53110125 1.15589136
v -0.26408481 0.52386648 1.18680740
v -0.26416036 0.52387413 1.28367617
v -0.26926394 0.47633695 1.28367617
v -0.26981797 0.49248541 1.15589136
v -0.26919679 0.47633695 1.39106514
v -0.26996065 0.50862622 1.31597343
v -0.26996065 0.50862622 1.33211053
v -0.26993548 0.50862622 1.39106514
v -0.26405962 0.52382832 1.15589136
v -0.26408481 0.52384358 1.17067027
v -0.26982637 0.49248541 1.39106514
v -0.26983474 0.49248541 1.29981327
v -0.26984314 0.50862622 1.17067027
v -0.26982637 0.50862622 1.15589136
f 1 2 5
f 1 5 9
f 1 9 14
f 1 14 20
f 1 20 28
f 1 28 39
f 1 39 54
f 1 54 64
f 1 64 73
f 1 73 76
f 1 76 70
f 1 70 62
f 1 62 61
f 1 61 53
f 1 53 38
f 1 38 27
f 1 27 23
f 1 23 17
f 1 17 12
f 1 12 7
f 1 7 3
f 1 3 8
f 1 8 13
f 1 13 18
f 1 18 24
f 1 24 35
f 1 35 48
f 1 48 51
f 1 51 50
f 1 50 49
f 1 49 59
f 1 59 45
f 1 45 34
f 1 34 22
f 1 22 16
f 1 16 11
f 1 11 10
f 1 10 6
f 1 6 4
f 1 4 2
f 2 4 6
f 2 6 5
f 3 7 8
f 5 6 10
f 5 10 11
f 5 11 9
f 7 12 13
f 7 13 8
f 9 11 15
f 9 15 14
f 11 16 15
f 12 17 13
f 13 17 19
f 13 19 18
f 14 15 21
f 14 21 20
f 15 16 21
f 16 22 21
f 17 23 19
f 18 19 25
f 18 25 24
f 19 26 37
f 19 37 52
f 19 52 60
f 19 60 69
f 19 69 79
f 19 79 74
f 19 74 65
f 19 65 56
f 19 56 41
f 19 41 31
f 19 31 43
f 19 43 47
f 19 47 46
f 19 46 36
f 19 36 25
f 19 23 27
f 19 27 26
f 20 21 29
f 20 29 28
f 21 22 30
f 21 30 31
f 21 31 32
f 21 32 33
f 21 33 29
f 22 34 31
f 22 31 30
f 24 25 35
f 25 36 35
f 26 27 37
f 27 38 37
f 28 29 40
f 28 40 39
f 29 33 40
f 31 41 42
f 31 42 32
f 31 34 43
f 32 42 44
f 32 44 40
f 32 40 33
f 34 45 46
f 34 46 47
f 34 47 43
f 35 36 48
f 36 46 49
f 36 49 50
f 36 50 51
f 36 51 48
f 37 38 53
f 37 53 52
f 39 40 54
f 40 44 58
f 40 58 55
f 40 55 54
f 41 56 57
f 41 57 42
f 42 57 44
f 44 57 58
f 45 59 46
f 46 59 49
f 52 53 61
f 52 61 62
f 52 62 60
f 54 63 64
f 54 55 63
f 55 58 63
f 56 65 57
f 57 65 66
f 57 66 67
f 57 67 58
f 58 67 63
f 60 68 69
f 60 62 68
f 62 70 68
f 63 71 72
f 63 72 64
f 63 67 71
f 64 72 73
f 65 74 75
f 65 75 66
f 66 75 67
f 67 75 71
f 68 70 76
f 68 76 77
f 68 77 69
f 69 78 79
f 69 77 71
f 69 71 78
f 71 77 72
f 71 75 78
f 72 77 76
f 72 76 73
f 74 79 75
f 75 79 78

