# https://github.com/mikedh/trimesh
v -0.24273694 -0.53288720 0.00809033
v -0.25080997 -0.53208424 0.00809033
v -0.24269981 -0.53287690 -0.00005438
v -0.23412569 -0.53287690 -0.00003648
v -0.23390298 -0.53287690 0.00728304
v -0.23412569 -0.53274307 0.17437583
v -0.25027175 -0.53191952 0.17437583
v -0.26404230 -0.52402398 0.02423634
v -0.26385672 -0.52400339 0.00809033
v -0.26189879 -0.52154311 -0.00294274
v -0.26403303 -0.52392105 0.10494819
v -0.24896337 -0.52606223 -0.00357064
v -0.23412569 -0.52477545 -0.00448553
v -0.22583924 -0.53284600 -0.00000058
v -0.22583924 -0.53284600 0.00138081
v -0.21798892 -0.53250631 0.16953203
v -0.21798892 -0.53248572 0.17437583
v -0.26368040 -0.52386956 0.17437583
v -0.26980478 -0.50862406 0.02423634
v -0.26940576 -0.50862406 0.00809033
v -0.26367113 -0.50862406 -0.00443173
v -0.25027175 -0.50862406 -0.00888087
v -0.26965630 -0.50862406 0.10494819
v -0.26977695 -0.50862406 0.04038225
v -0.23412569 -0.50862406 -0.00888087
v -0.20184287 -0.52397254 -0.00443173
v -0.21947360 -0.52628869 -0.00355264
v -0.20184287 -0.53083865 0.00809033
v -0.21947360 -0.53265044 0.00728304
v -0.21798892 -0.53260924 0.02423634
v -0.21313582 -0.53140485 0.17437583
v -0.26531358 -0.51928871 0.17437583
v -0.26973982 -0.49248300 0.04038225
v -0.26975837 -0.49248300 0.02423634
v -0.26932224 -0.49248300 0.00809033
v -0.26360617 -0.49248300 -0.00443173
v -0.25027175 -0.49248300 -0.00888087
v -0.26907172 -0.50862406 0.17437583
v -0.26935008 -0.49248300 0.17437583
v -0.26955424 -0.49248300 0.10494819
v -0.26969343 -0.49248300 0.05652826
v -0.23412569 -0.49248300 -0.00888087
v -0.19026223 -0.52118283 -0.00294274
v -0.18912086 -0.52299456 0.00809033
v -0.17501627 -0.51607696 0.08880223
v -0.19692480 -0.52575338 0.17437583
v -0.20184287 -0.52809013 0.17437583
v -0.26913666 -0.42773333 0.10510964
v -0.26913666 -0.42773333 0.10494819
v -0.26860773 -0.47634190 0.00809033
v -0.26338346 -0.47634190 -0.00441382
v -0.25027175 -0.47634190 -0.00884497
v -0.26868198 -0.47634190 0.17437583
v -0.26862631 -0.42773333 0.13724011
v -0.26908098 -0.42773333 0.12127355
v -0.23412569 -0.47634190 -0.00870147
v -0.19026223 -0.51290641 -0.00294274
v -0.17501627 -0.50395057 0.06187435
v -0.17501627 -0.50934468 0.06779453
v -0.17501627 -0.51172257 0.07267422
v -0.17501627 -0.51450199 0.08031663
v -0.17501627 -0.50858291 0.10387180
v -0.18432345 -0.50855202 0.17437583
v -0.18914870 -0.52028723 0.17437583
v -0.26854279 -0.42773333 0.08880223
v -0.26158328 -0.46512140 -0.00292474
v -0.25027175 -0.46328902 -0.00441382
v -0.26276175 -0.46121993 0.17437583
v -0.25915209 -0.42773333 0.16210487
v -0.26409797 -0.42773333 0.15338607
v -0.26857992 -0.42773333 0.13741951
v -0.23412569 -0.46349493 -0.00425233
v -0.22335238 -0.46539930 -0.00270954
v -0.17501627 -0.42773333 0.06766893
v -0.17501627 -0.49248300 0.06259194
v -0.17501627 -0.46833314 0.16178197
v -0.17501627 -0.46623316 0.16459854
v -0.18123343 -0.48600803 0.17437583
v -0.26314220 -0.42773333 0.07464760
v -0.25041094 -0.42773333 0.06707693
v -0.25027175 -0.42773333 0.06700519
v -0.23430201 -0.42773333 0.06576730
v -0.23412569 -0.42773333 0.06576730
v -0.25158013 -0.45591849 0.17437583
v -0.25027175 -0.42773333 0.16449089
v -0.17501627 -0.42773333 0.10031965
v -0.17501627 -0.46116844 0.16520848
v -0.18233767 -0.47616688 0.17437583
v -0.17501627 -0.44974207 0.16648222
v -0.17501627 -0.42778482 0.16459854
v -0.25027175 -0.45533175 0.17437583
v -0.25010472 -0.42773333 0.16450884
v -0.18552049 -0.42773333 0.16484969
v -0.18329344 -0.46772580 0.17437583
v -0.21781260 -0.42773333 0.16576463
v -0.23412569 -0.45487878 0.17437583
v -0.21945505 -0.45629938 0.17437583
v -0.20445963 -0.45784346 0.17437583
v -0.20184287 -0.45818320 0.17437583
v -0.18568752 -0.46210522 0.17437583
v -0.23412569 -0.42773333 0.16615932
v -0.23395866 -0.42773333 0.16615932
f 1 2 3
f 1 3 4
f 1 4 5
f 1 5 6
f 1 6 7
f 1 7 2
f 2 8 9
f 2 9 10
f 2 10 3
f 2 7 11
f 2 11 8
f 3 10 12
f 3 12 13
f 3 13 4
f 4 14 5
f 4 13 14
f 5 14 15
f 5 15 6
f 6 16 17
f 6 17 31
f 6 31 47
f 6 47 46
f 6 46 64
f 6 64 63
f 6 63 78
f 6 78 88
f 6 88 94
f 6 94 100
f 6 100 99
f 6 99 98
f 6 98 97
f 6 97 96
f 6 96 91
f 6 91 84
f 6 84 68
f 6 68 53
f 6 53 39
f 6 39 38
f 6 38 32
f 6 32 18
f 6 18 7
f 6 15 16
f 7 18 11
f 8 19 9
f 8 11 19
f 9 19 20
f 9 20 10
f 10 21 22
f 10 22 12
f 10 20 21
f 11 18 23
f 11 23 24
f 11 24 19
f 12 22 13
f 13 22 25
f 13 25 26
f 13 26 27
f 13 27 14
f 14 28 29
f 14 29 30
f 14 30 15
f 14 27 26
f 14 26 28
f 15 30 16
f 16 30 28
f 16 28 17
f 17 28 31
f 18 32 23
f 19 24 33
f 19 33 34
f 19 34 20
f 20 34 35
f 20 35 36
f 20 36 21
f 21 37 22
f 21 36 37
f 22 37 42
f 22 42 25
f 23 32 38
f 23 38 39
f 23 39 40
f 23 40 41
f 23 41 33
f 23 33 24
f 25 42 57
f 25 57 43
f 25 43 26
f 26 43 28
f 28 30 29
f 28 43 44
f 28 44 45
f 28 45 46
f 28 46 47
f 28 47 31
f 33 41 48
f 33 48 34
f 34 48 49
f 34 49 35
f 35 49 50
f 35 50 51
f 35 51 36
f 36 51 52
f 36 52 37
f 37 52 42
f 39 53 54
f 39 54 55
f 39 55 48
f 39 48 40
f 40 48 41
f 42 52 56
f 42 56 57
f 43 57 58
f 43 58 59
f 43 59 60
f 43 60 44
f 44 60 61
f 44 61 45
f 45 61 60
f 45 60 59
f 45 59 58
f 45 58 75
f 45 75 74
f 45 74 86
f 45 86 90
f 45 90 89
f 45 89 87
f 45 87 77
f 45 77 76
f 45 76 62
f 45 62 63
f 45 63 64
f 45 64 46
f 48 55 54
f 48 54 71
f 48 71 70
f 48 70 69
f 48 69 85
f 48 85 92
f 48 92 101
f 48 101 102
f 48 102 95
f 48 95 93
f 48 93 86
f 48 86 74
f 48 74 83
f 48 83 82
f 48 82 81
f 48 81 80
f 48 80 79
f 48 79 65
f 48 65 49
f 49 65 50
f 50 65 66
f 50 66 51
f 51 66 52
f 52 66 67
f 52 67 56
f 53 68 69
f 53 69 70
f 53 70 71
f 53 71 54
f 56 67 72
f 56 72 73
f 56 73 57
f 57 73 74
f 57 74 75
f 57 75 58
f 62 76 63
f 63 76 77
f 63 77 78
f 65 79 66
f 66 79 80
f 66 80 81
f 66 81 67
f 67 81 82
f 67 82 83
f 67 83 74
f 67 74 72
f 68 84 85
f 68 85 69
f 72 74 73
f 77 87 78
f 78 87 89
f 78 89 90
f 78 90 88
f 84 91 85
f 85 91 92
f 86 93 90
f 88 90 94
f 90 93 95
f 90 95 96
f 90 96 97
f 90 97 98
f 90 98 99
f 90 99 100
f 90 100 94
f 91 96 101
f 91 101 92
f 95 102 96
f 96 102 101

