# https://github.com/mikedh/trimesh
v -0.31293847 0.28659425 -0.00209470
v -0.30878427 0.30947075 -0.00217955
v -0.30878427 0.28659425 -0.00209470
v -0.32610487 0.28659425 -0.00200993
v -0.33580374 0.28659425 -0.00192516
v -0.33580374 0.33580107 -0.00192516
v -0.30947090 0.34897693 -0.00209470
v -0.30878427 0.34897693 -0.00209470
v -0.30878427 0.28659425 0.65225941
v -0.34897014 0.28659425 -0.00175554
v -0.34897014 0.33580107 -0.00175554
v -0.34897014 0.37530725 -0.00158593
v -0.30947090 0.36215274 -0.00200993
v -0.30878427 0.36215274 -0.00200993
v -0.30878427 0.50437921 0.74655016
v -0.31259513 0.28659425 0.66073879
v -0.36213654 0.28659425 -0.00116200
v -0.36213654 0.29629491 -0.00124677
v -0.36213654 0.33580107 -0.00124677
v -0.36213654 0.36215274 -0.00116200
v -0.34897014 0.38848307 -0.00150116
v -0.30947090 0.37530725 -0.00192516
v -0.30878427 0.37530725 -0.00192516
v -0.45593216 0.50437921 0.86034349
v -0.45917656 0.28659425 0.85864763
v -0.35645454 0.28659425 0.73713804
v -0.35118455 0.28659425 0.73052413
v -0.34943362 0.28659425 0.72823468
v -0.34459277 0.28659425 0.72179035
v -0.34345980 0.28659425 0.72009449
v -0.34026693 0.28659425 0.71526123
v -0.33873912 0.28659425 0.71263263
v -0.33455060 0.28659425 0.70525556
v -0.33336614 0.28659425 0.70313571
v -0.33008741 0.28659425 0.69694575
v -0.32921194 0.28659425 0.69524989
v -0.32679152 0.28659425 0.69041663
v -0.32526374 0.28659425 0.68736407
v -0.32117820 0.28659425 0.67896947
v -0.32011390 0.28659425 0.67676483
v -0.31702401 0.28659425 0.67032050
v -0.30878427 0.50437921 -0.00082284
v -0.36447111 0.28659425 -0.00082284
v -0.37097710 0.29629491 0.00002517
v -0.37106293 0.30947075 0.00002517
v -0.37109723 0.33580107 0.00002517
v -0.37109723 0.34897693 0.00002517
v -0.37106293 0.36215274 0.00002517
v -0.37092557 0.38848307 0.00010993
v -0.36213654 0.38848307 -0.00099238
v -0.34897014 0.41479208 -0.00116200
v -0.30947090 0.50437921 -0.00082284
v -0.45804359 0.50437921 0.86110665
v -0.46746776 0.28659425 0.86322648
v -0.46528769 0.28659425 0.86203939
v -0.37083974 0.28659425 0.00010993
v -0.37257351 0.28659425 0.00078825
v -0.37763751 0.30947075 0.00273850
v -0.37767185 0.32264656 0.00265373
v -0.37760321 0.37530725 0.00256896
v -0.37751738 0.38848307 0.00256896
v -0.37070242 0.40163758 0.00019470
v -0.36213654 0.40163758 -0.00082284
v -0.34897014 0.44114376 -0.00073800
v -0.32263732 0.49380445 -0.00065323
v -0.32313513 0.50437921 -0.00005968
v -0.46746776 0.50437921 0.86365045
v -0.46746776 0.49380445 0.86390483
v -0.46746776 0.48064994 0.86407445
v -0.47608518 0.28659425 0.86186978
v -0.37755168 0.29629491 0.00282335
v -0.37743155 0.28659425 0.00290811
v -0.38812602 0.33580107 0.00918287
v -0.38821185 0.34897693 0.00918287
v -0.38826333 0.36215274 0.00918287
v -0.38829767 0.37530725 0.00918287
v -0.38833201 0.38848307 0.00918287
v -0.37768904 0.33580107 0.00265373
v -0.37729419 0.40163758 0.00265373
v -0.38824618 0.40163758 0.00926764
v -0.37029042 0.41479208 0.00036432
v -0.36213654 0.42796794 -0.00031407
v -0.36963813 0.42796794 0.00053386
v -0.34897014 0.45429826 -0.00048361
v -0.33580374 0.48064994 -0.00039884
v -0.33612987 0.49393238 0.00019470
v -0.33017324 0.50437921 0.00044909
v -0.46942472 0.50437921 0.86305690
v -0.47805929 0.48064994 0.86093708
v -0.47843690 0.46747408 0.86110665
v -0.47860856 0.45429826 0.86119146
v -0.47893473 0.41479208 0.86127623
v -0.47912358 0.38848307 0.86127623
v -0.47915792 0.33580107 0.86136104
v -0.47917507 0.30947075 0.86136104
v -0.47915792 0.28659425 0.86136104
v -0.38764538 0.28659425 0.00952202
v -0.38773121 0.29629491 0.00943725
v -0.38800585 0.32264656 0.00926764
v -0.39470064 0.33580107 0.01427053
v -0.39483796 0.36215274 0.01418568
v -0.39492379 0.38848307 0.01410091
v -0.38793721 0.41479208 0.00943725
v -0.37688224 0.41479208 0.00282335
v -0.39483796 0.40163758 0.01418568
v -0.36907163 0.43766856 0.00070348
v -0.36316649 0.44169810 0.00019470
v -0.34897014 0.46747408 -0.00005968
v -0.34859248 0.47958392 0.00044909
v -0.34395763 0.48962570 0.00061871
v -0.33195850 0.50356903 0.00053386
v -0.33281683 0.50437921 0.00087310
v -0.47673747 0.50437921 0.86000434
v -0.47740695 0.49380445 0.86051311
v -0.48181866 0.48064994 0.85016824
v -0.48257397 0.46747408 0.85016824
v -0.48295159 0.45429826 0.85016824
v -0.48326061 0.44114376 0.85016824
v -0.48350094 0.42796794 0.85016824
v -0.47874592 0.44114376 0.86119146
v -0.48380992 0.40163758 0.85016824
v -0.47886609 0.42796794 0.86119146
v -0.48406741 0.37530725 0.85016824
v -0.47919222 0.36215274 0.86127623
v -0.48413609 0.36215274 0.85016824
v -0.48415324 0.30947075 0.85016824
v -0.48410175 0.28659425 0.85016824
v -0.40925749 0.28659425 0.02639603
v -0.40163577 0.34897693 0.01969727
v -0.40956651 0.34897693 0.02605687
v -0.40163577 0.38848307 0.01952773
v -0.39452898 0.41479208 0.01444007
v -0.38737070 0.42796794 0.00986118
v -0.37622990 0.42796794 0.00333212
v -0.40163577 0.40163758 0.01969727
v -0.36824767 0.44645249 0.00087310
v -0.35976762 0.45429826 0.00036432
v -0.35698671 0.46747408 0.00061871
v -0.35575076 0.47450972 0.00078825
v -0.34073038 0.49840959 0.00104264
v -0.33772632 0.50437921 0.00172103
v -0.47735546 0.50437921 0.85796928
v -0.48049684 0.49380445 0.85016824
v -0.45812942 0.48064994 0.54728462
v -0.46103050 0.47553312 0.57831917
v -0.45811227 0.46747408 0.53405678
v -0.45162347 0.45429826 0.44188587
v -0.45200113 0.44114376 0.44188587
v -0.42556531 0.38848307 0.08643006
v -0.42573697 0.37530725 0.08643006
v -0.48394724 0.38848307 0.85016824
v -0.42757376 0.28659425 0.09965788
v -0.42856937 0.28659425 0.11280093
v -0.41583212 0.28659425 0.03284032
v -0.40951498 0.33580107 0.02614164
v -0.41614110 0.34897693 0.03292517
v -0.40960081 0.37530725 0.02605687
v -0.40958366 0.38848307 0.02605687
v -0.40948068 0.40163758 0.02614164
v -0.39394533 0.42796794 0.01494884
v -0.40912018 0.41479208 0.02639603
v -0.38649526 0.44114376 0.01053957
v -0.37420431 0.44169810 0.00341689
v -0.36635939 0.45429826 0.00129702
v -0.37530293 0.45429826 0.00536714
v -0.36356133 0.46747408 0.00222980
v -0.35274666 0.48327230 0.00138179
v -0.34859248 0.49393238 0.00248411
v -0.34890146 0.50437921 0.00613030
v -0.47917507 0.50437921 0.85016824
v -0.46091033 0.48740843 0.59290371
v -0.46060135 0.48431701 0.58416994
v -0.45708228 0.48064994 0.53405678
v -0.45708228 0.46747408 0.52091374
v -0.45086816 0.46747408 0.44188587
v -0.45061067 0.45429826 0.42882761
v -0.45098833 0.44114376 0.42882761
v -0.42328222 0.40163758 0.06014397
v -0.42455251 0.38848307 0.07328701
v -0.42472417 0.37530725 0.07328701
v -0.42656092 0.28659425 0.08643006
v -0.41742857 0.28659425 0.03453626
v -0.42197760 0.28659425 0.03936946
v -0.42189177 0.34897693 0.03953908
v -0.41615829 0.36215274 0.03300994
v -0.41617544 0.37530725 0.03317956
v -0.41617544 0.38848307 0.03334910
v -0.41708526 0.40219191 0.03496019
v -0.40288887 0.42884205 0.02241068
v -0.40812453 0.43380966 0.02724396
v -0.39306985 0.44114376 0.01562716
v -0.40863954 0.42504708 0.02681996
v -0.41533429 0.41479208 0.03377310
v -0.38519063 0.45429826 0.01147227
v -0.37530293 0.46747408 0.00774139
v -0.36093493 0.47958392 0.00367128
v -0.36314934 0.49467855 0.00926764
v -0.35949294 0.50437921 0.01155712
v -0.45368341 0.50437921 0.54465601
v -0.44770959 0.50037102 0.46172763
v -0.45524552 0.49380445 0.53405678
v -0.45603514 0.48064994 0.52091374
v -0.44982102 0.46747408 0.42882761
v -0.44767525 0.46005471 0.39643636
v -0.44954634 0.45429826 0.41568457
v -0.42283589 0.41479208 0.06014397
v -0.42388303 0.41479208 0.07328701
v -0.44892839 0.44114376 0.40245673
v -0.42202909 0.40219191 0.04598337
v -0.42242389 0.38848307 0.04691615
v -0.42261274 0.37530725 0.04691615
v -0.42580565 0.28659425 0.07676358
v -0.42276725 0.36215274 0.04691615
v -0.42321355 0.28659425 0.04691615
v -0.42184028 0.36215274 0.03962385
v -0.42175441 0.37530725 0.03970862
v -0.42163428 0.38848307 0.03987823
v -0.42153126 0.39818373 0.04013262
v -0.41291389 0.42884205 0.03250116
v -0.41279372 0.44114376 0.03453626
v -0.40745504 0.44114376 0.02792227
v -0.40088046 0.44114376 0.02224115
v -0.39178241 0.45429826 0.01672948
v -0.42132526 0.40694631 0.04089578
v -0.38328516 0.46747408 0.01299860
v -0.38206641 0.47442448 0.01384653
v -0.37537161 0.47954126 0.01113312
v -0.37102859 0.49086228 0.01240505
v -0.36819618 0.49964617 0.01435530
v -0.36620489 0.50437921 0.01562716
v -0.45256759 0.50437921 0.53151296
v -0.44889405 0.50437921 0.48869207
v -0.44824175 0.50437921 0.48139980
v -0.44676543 0.50437921 0.46520417
v -0.44576982 0.50437921 0.45511371
v -0.43457753 0.50043499 0.32987320
v -0.43413120 0.49898524 0.32105463
v -0.43456034 0.48728049 0.29044405
v -0.44741776 0.49898524 0.45511371
v -0.44786410 0.48789876 0.43374566
v -0.45414690 0.49380445 0.52091374
v -0.45495370 0.48064994 0.50777069
v -0.44769240 0.47376351 0.40932503
v -0.44805291 0.46497966 0.40517012
v -0.42424353 0.42796794 0.08643006
v -0.42532497 0.42796794 0.09965788
v -0.42314487 0.42796794 0.07328701
v -0.42156560 0.42346938 0.05200373
v -0.42184028 0.41479208 0.04954471
v -0.42553097 0.28659425 0.07328701
v -0.42287023 0.34897693 0.04691615
v -0.42353971 0.28659425 0.05039264
v -0.41142045 0.45429826 0.03606251
v -0.40604744 0.45429826 0.02944860
v -0.39945566 0.45429826 0.02334346
v -0.38987698 0.46747408 0.01834057
v -0.42101629 0.41479208 0.04293080
v -0.39591944 0.47613007 0.02639603
v -0.38805738 0.47966920 0.02096921
v -0.37980047 0.48320833 0.01562716
v -0.37537161 0.49467855 0.01732310
v -0.38278738 0.50190606 0.02648080
v -0.37544025 0.50437921 0.02215630
v -0.37317436 0.50437921 0.02046044
v -0.44444804 0.50437921 0.44188587
v -0.43504102 0.50437921 0.34979975
v -0.43366771 0.50437921 0.33665670
v -0.43253474 0.50437921 0.32597268
v -0.43080097 0.50437921 0.31028582
v -0.42755657 0.50437921 0.28137110
v -0.42189177 0.50143704 0.22065872
v -0.42134245 0.50028574 0.21184017
v -0.42602880 0.49380445 0.23134274
v -0.43045765 0.49380445 0.27077189
v -0.44152977 0.50437921 0.41305596
v -0.43358188 0.49717301 0.31028582
v -0.43459468 0.47427523 0.26373399
v -0.43536714 0.48067125 0.28518683
v -0.44681696 0.49621363 0.44188587
v -0.43241457 0.49252521 0.28518683
v -0.42146262 0.47427523 0.13187957
v -0.42158275 0.46173899 0.10415200
v -0.43493800 0.47591685 0.27077189
v -0.44746925 0.48538298 0.42501190
v -0.44843056 0.48086312 0.42916679
v -0.44952919 0.48064994 0.44188587
v -0.43735844 0.46747408 0.28399972
v -0.43852571 0.46747408 0.29714277
v -0.42614897 0.45429826 0.13908702
v -0.42307623 0.44114376 0.08643006
v -0.42424353 0.44114376 0.09965788
v -0.42539365 0.44114376 0.11280093
v -0.42650943 0.44114376 0.12594397
v -0.42159994 0.43621880 0.06446847
v -0.42197760 0.42790397 0.06005920
v -0.42043263 0.42790397 0.04734007
v -0.42117080 0.43225328 0.05564992
v -0.42472417 0.28659425 0.06362054
v -0.42443234 0.28659425 0.06014397
v -0.41859588 0.44114376 0.04691615
v -0.41608961 0.45429826 0.04691615
v -0.40958366 0.46747408 0.03843676
v -0.40409052 0.46747408 0.03182285
v -0.39749870 0.46747408 0.02495456
v -0.39403116 0.48491396 0.02817666
v -0.38507047 0.49380445 0.02453055
v -0.39166224 0.49380445 0.03063569
v -0.38584293 0.50437921 0.03105969
v -0.37887350 0.50437921 0.02478494
v -0.42335086 0.50437921 0.24440102
v -0.42254406 0.50280152 0.23134274
v -0.40815887 0.50028574 0.10661102
v -0.40918886 0.48930589 0.07328701
v -0.42151411 0.48755764 0.17088471
v -0.43289525 0.49497705 0.29714277
v -0.42103344 0.48610788 0.16206616
v -0.42115361 0.45954303 0.09541822
v -0.42371137 0.45429826 0.11280093
v -0.42149692 0.44830733 0.07879860
v -0.42048412 0.48440225 0.15231488
v -0.41720543 0.48064994 0.11280093
v -0.41569480 0.48064994 0.09965788
v -0.41416703 0.48064994 0.08643006
v -0.41675909 0.46747408 0.07328701
v -0.41825256 0.46747408 0.08643006
v -0.42098195 0.47239904 0.12306102
v -0.41990051 0.46666394 0.09974273
v -0.42196041 0.44082395 0.07396533
v -0.42103344 0.44500269 0.07006483
v -0.42053565 0.44082395 0.06005920
v -0.41830405 0.45429826 0.06014397
v -0.41517983 0.46747408 0.06014397
v -0.41265640 0.46747408 0.04691615
v -0.40841635 0.47459504 0.04004785
v -0.40125811 0.47975448 0.03411226
v -0.39758453 0.49380445 0.03716482
v -0.38838350 0.50437921 0.03368825
v -0.39566195 0.50141573 0.03953908
v -0.42328222 0.50437921 0.24380744
v -0.42173726 0.50437921 0.23134274
v -0.40941200 0.50252437 0.12594397
v -0.40833052 0.50437921 0.12594397
v -0.39940417 0.50437921 0.06005920
v -0.40683709 0.49762072 0.08643006
v -0.40597876 0.49587251 0.07328701
v -0.40858801 0.48800535 0.06404446
v -0.41258772 0.48064994 0.07328701
v -0.42067297 0.45702726 0.08643006
v -0.42002064 0.45333888 0.07396533
v -0.41049348 0.48158802 0.05980481
v -0.40942915 0.47728137 0.04691615
v -0.40683709 0.48386926 0.04691615
v -0.40220224 0.49380445 0.04691615
v -0.39066659 0.50437921 0.03614728
v -0.39700092 0.50369697 0.04691615
v -0.39657173 0.50437921 0.04691615
v -0.41006430 0.50437921 0.13908702
v -0.41025314 0.50405940 0.13908702
v -0.39744721 0.50437921 0.05081665
v -0.40556680 0.49297296 0.05980481
v -0.40797006 0.48659825 0.05531069
f 1 2 3
f 1 3 9
f 1 9 16
f 1 16 41
f 1 41 40
f 1 40 39
f 1 39 38
f 1 38 37
f 1 37 36
f 1 36 35
f 1 35 34
f 1 34 33
f 1 33 32
f 1 32 31
f 1 31 30
f 1 30 29
f 1 29 28
f 1 28 27
f 1 27 26
f 1 26 25
f 1 25 55
f 1 55 54
f 1 54 70
f 1 70 96
f 1 96 127
f 1 127 153
f 1 153 152
f 1 152 181
f 1 181 212
f 1 212 250
f 1 250 298
f 1 298 299
f 1 299 252
f 1 252 214
f 1 214 183
f 1 183 182
f 1 182 154
f 1 154 128
f 1 128 97
f 1 97 72
f 1 72 57
f 1 57 56
f 1 56 43
f 1 43 17
f 1 17 10
f 1 10 5
f 1 5 4
f 1 4 2
f 2 4 5
f 2 5 6
f 2 6 7
f 2 7 8
f 2 8 14
f 2 14 23
f 2 23 42
f 2 42 15
f 2 15 9
f 2 9 3
f 5 10 11
f 5 11 6
f 6 11 12
f 6 12 7
f 7 12 21
f 7 21 13
f 7 13 14
f 7 14 8
f 9 15 16
f 10 17 18
f 10 18 19
f 10 19 11
f 11 19 20
f 11 20 12
f 12 20 21
f 13 22 23
f 13 23 14
f 13 21 22
f 15 24 25
f 15 25 26
f 15 26 27
f 15 27 28
f 15 28 29
f 15 29 30
f 15 30 31
f 15 31 32
f 15 32 33
f 15 33 34
f 15 34 35
f 15 35 36
f 15 36 37
f 15 37 38
f 15 38 39
f 15 39 40
f 15 40 41
f 15 41 16
f 15 42 52
f 15 52 66
f 15 66 87
f 15 87 112
f 15 112 141
f 15 141 169
f 15 169 198
f 15 198 230
f 15 230 264
f 15 264 263
f 15 263 309
f 15 309 308
f 15 308 337
f 15 337 354
f 15 354 356
f 15 356 359
f 15 359 343
f 15 343 342
f 15 342 357
f 15 357 340
f 15 340 339
f 15 339 310
f 15 310 270
f 15 270 269
f 15 269 268
f 15 268 267
f 15 267 266
f 15 266 275
f 15 275 265
f 15 265 235
f 15 235 234
f 15 234 233
f 15 233 232
f 15 232 231
f 15 231 199
f 15 199 170
f 15 170 142
f 15 142 113
f 15 113 88
f 15 88 67
f 15 67 53
f 15 53 24
f 17 43 44
f 17 44 18
f 18 44 45
f 18 45 46
f 18 46 47
f 18 47 19
f 19 47 48
f 19 48 20
f 20 48 49
f 20 49 50
f 20 50 21
f 21 50 63
f 21 63 51
f 21 51 52
f 21 52 22
f 22 52 42
f 22 42 23
f 24 53 54
f 24 54 55
f 24 55 25
f 43 56 44
f 44 56 57
f 44 57 58
f 44 58 59
f 44 59 45
f 45 59 60
f 45 60 46
f 46 60 47
f 47 60 48
f 48 60 61
f 48 61 49
f 49 61 79
f 49 79 62
f 49 62 50
f 50 62 63
f 51 63 64
f 51 64 65
f 51 65 52
f 52 65 66
f 53 67 68
f 53 68 69
f 53 69 54
f 54 69 70
f 57 71 58
f 57 72 71
f 58 71 73
f 58 73 59
f 59 73 74
f 59 74 75
f 59 75 76
f 59 76 77
f 59 77 78
f 59 78 60
f 60 78 77
f 60 77 61
f 61 77 80
f 61 80 79
f 62 79 104
f 62 104 81
f 62 81 63
f 63 82 64
f 63 81 83
f 63 83 82
f 64 82 84
f 64 84 65
f 65 84 85
f 65 85 86
f 65 86 66
f 66 86 87
f 67 88 68
f 68 88 89
f 68 89 90
f 68 90 69
f 69 90 91
f 69 91 92
f 69 92 93
f 69 93 94
f 69 94 95
f 69 95 96
f 69 96 70
f 71 72 97
f 71 97 98
f 71 98 99
f 71 99 73
f 73 99 100
f 73 100 101
f 73 101 102
f 73 102 74
f 74 102 75
f 75 102 76
f 76 102 77
f 77 102 105
f 77 105 80
f 79 80 103
f 79 103 104
f 80 105 103
f 81 104 83
f 82 83 106
f 82 106 107
f 82 107 84
f 83 104 106
f 84 107 108
f 84 108 85
f 85 108 86
f 86 109 110
f 86 110 111
f 86 111 87
f 86 108 109
f 87 111 112
f 88 113 114
f 88 114 89
f 89 114 115
f 89 115 116
f 89 116 90
f 90 116 117
f 90 117 118
f 90 118 119
f 90 119 91
f 91 120 92
f 91 119 121
f 91 121 151
f 91 151 120
f 92 120 122
f 92 122 123
f 92 123 93
f 93 124 94
f 93 123 125
f 93 125 124
f 94 124 95
f 95 124 125
f 95 125 126
f 95 126 96
f 96 126 127
f 97 128 98
f 98 128 100
f 98 100 99
f 100 129 101
f 100 128 129
f 101 129 102
f 102 129 130
f 102 130 131
f 102 131 105
f 103 105 132
f 103 132 133
f 103 133 104
f 104 133 134
f 104 134 106
f 105 131 135
f 105 135 132
f 106 136 107
f 106 134 136
f 107 136 137
f 107 137 108
f 108 137 138
f 108 138 139
f 108 139 109
f 109 139 110
f 110 139 140
f 110 140 111
f 111 140 141
f 111 141 112
f 113 142 115
f 113 115 114
f 115 142 143
f 115 143 144
f 115 144 145
f 115 145 146
f 115 146 116
f 116 146 147
f 116 147 148
f 116 148 117
f 117 148 118
f 118 148 119
f 119 148 149
f 119 149 150
f 119 150 121
f 120 151 123
f 120 123 122
f 121 150 151
f 123 151 152
f 123 152 125
f 125 152 153
f 125 153 126
f 126 153 127
f 128 154 155
f 128 155 130
f 128 130 129
f 130 155 154
f 130 154 156
f 130 156 157
f 130 157 131
f 131 157 158
f 131 158 159
f 131 159 135
f 132 160 133
f 132 135 161
f 132 161 160
f 133 162 134
f 133 160 191
f 133 191 162
f 134 163 136
f 134 162 163
f 135 159 161
f 136 164 139
f 136 139 138
f 136 138 137
f 136 163 165
f 136 165 164
f 139 164 166
f 139 166 167
f 139 167 140
f 140 167 168
f 140 168 141
f 141 168 169
f 142 170 143
f 143 170 171
f 143 171 172
f 143 172 144
f 144 173 145
f 144 172 173
f 145 174 146
f 145 173 175
f 145 175 174
f 146 174 176
f 146 176 147
f 147 176 177
f 147 177 148
f 148 177 178
f 148 178 179
f 148 179 149
f 149 179 180
f 149 180 150
f 150 180 181
f 150 181 152
f 150 152 151
f 154 182 156
f 156 182 183
f 156 183 184
f 156 184 185
f 156 185 158
f 156 158 157
f 158 185 186
f 158 186 187
f 158 187 159
f 159 187 188
f 159 188 161
f 160 189 190
f 160 190 191
f 160 161 192
f 160 192 189
f 161 188 193
f 161 193 192
f 162 194 165
f 162 165 163
f 162 191 194
f 164 165 166
f 165 194 195
f 165 195 166
f 166 195 196
f 166 196 167
f 167 196 168
f 168 196 197
f 168 197 169
f 169 197 198
f 170 199 200
f 170 200 201
f 170 201 171
f 171 201 202
f 171 202 173
f 171 173 172
f 173 202 175
f 174 175 176
f 175 203 204
f 175 204 176
f 175 202 203
f 176 204 205
f 176 205 206
f 176 206 207
f 176 207 178
f 176 178 208
f 176 208 177
f 177 208 178
f 178 207 206
f 178 206 209
f 178 209 210
f 178 210 179
f 179 210 211
f 179 211 180
f 180 212 181
f 180 211 213
f 180 213 212
f 183 214 184
f 184 214 215
f 184 215 185
f 185 215 186
f 186 215 187
f 187 215 216
f 187 216 217
f 187 217 188
f 188 217 218
f 188 218 193
f 189 192 190
f 190 192 219
f 190 219 220
f 190 220 221
f 190 221 222
f 190 222 191
f 191 222 223
f 191 223 194
f 192 193 219
f 193 218 224
f 193 224 219
f 194 225 195
f 194 223 225
f 195 225 226
f 195 226 227
f 195 227 196
f 196 227 197
f 197 227 228
f 197 228 229
f 197 229 198
f 198 229 230
f 199 231 200
f 200 232 233
f 200 233 234
f 200 234 235
f 200 235 236
f 200 236 237
f 200 237 238
f 200 238 239
f 200 239 240
f 200 240 241
f 200 241 201
f 200 231 232
f 201 241 240
f 201 240 202
f 202 240 242
f 202 242 243
f 202 243 203
f 203 243 244
f 203 244 204
f 204 244 245
f 204 245 246
f 204 246 206
f 204 206 205
f 206 246 245
f 206 245 247
f 206 247 248
f 206 248 249
f 206 249 209
f 209 224 218
f 209 218 210
f 209 249 224
f 210 218 211
f 211 218 217
f 211 217 213
f 212 213 250
f 213 251 250
f 213 217 216
f 213 216 251
f 214 251 215
f 214 252 251
f 215 251 216
f 219 224 220
f 220 224 253
f 220 253 221
f 221 253 254
f 221 254 255
f 221 255 222
f 222 255 223
f 223 255 256
f 223 256 225
f 224 249 248
f 224 248 257
f 224 257 253
f 225 256 226
f 226 228 227
f 226 256 258
f 226 258 259
f 226 259 260
f 226 260 228
f 228 260 261
f 228 261 229
f 229 261 262
f 229 262 263
f 229 263 264
f 229 264 230
f 235 265 236
f 236 266 267
f 236 267 268
f 236 268 269
f 236 269 270
f 236 270 271
f 236 271 272
f 236 272 273
f 236 273 274
f 236 274 237
f 236 265 275
f 236 275 266
f 237 274 276
f 237 276 238
f 238 277 278
f 238 278 240
f 238 240 279
f 238 279 239
f 238 276 280
f 238 280 281
f 238 281 282
f 238 282 277
f 239 279 240
f 240 278 283
f 240 283 277
f 240 277 284
f 240 284 285
f 240 285 286
f 240 286 242
f 242 286 243
f 243 286 285
f 243 285 284
f 243 284 277
f 243 277 287
f 243 287 288
f 243 288 289
f 243 289 290
f 243 290 291
f 243 291 292
f 243 292 293
f 243 293 244
f 244 293 247
f 244 247 245
f 247 294 295
f 247 295 248
f 247 293 292
f 247 292 291
f 247 291 294
f 248 296 257
f 248 295 297
f 248 297 296
f 250 251 298
f 251 252 299
f 251 299 298
f 253 257 300
f 253 300 301
f 253 301 302
f 253 302 254
f 254 303 304
f 254 304 255
f 254 302 303
f 255 304 256
f 256 304 258
f 257 296 300
f 258 304 303
f 258 303 305
f 258 305 259
f 259 306 260
f 259 305 306
f 260 306 261
f 261 306 262
f 262 305 307
f 262 307 308
f 262 308 309
f 262 309 263
f 262 306 305
f 270 310 311
f 270 311 271
f 271 311 312
f 271 312 272
f 272 312 313
f 272 313 314
f 272 314 273
f 273 314 274
f 274 280 315
f 274 315 276
f 274 314 316
f 274 316 281
f 274 281 280
f 276 315 280
f 277 283 278
f 277 282 317
f 277 317 318
f 277 318 319
f 277 319 289
f 277 289 287
f 281 316 320
f 281 320 321
f 281 321 322
f 281 322 323
f 281 323 324
f 281 324 325
f 281 325 326
f 281 326 282
f 282 326 327
f 282 327 325
f 282 325 317
f 287 289 288
f 289 319 290
f 290 319 328
f 290 328 294
f 290 294 291
f 294 329 330
f 294 330 297
f 294 297 295
f 294 328 319
f 294 319 329
f 296 297 300
f 297 330 300
f 300 330 331
f 300 331 301
f 301 331 332
f 301 332 333
f 301 333 334
f 301 334 302
f 302 334 303
f 303 335 305
f 303 334 335
f 305 335 336
f 305 336 307
f 307 337 308
f 307 336 338
f 307 338 337
f 310 339 311
f 311 339 340
f 311 340 312
f 312 341 342
f 312 342 343
f 312 343 344
f 312 344 313
f 312 340 341
f 313 344 345
f 313 345 346
f 313 346 347
f 313 347 323
f 313 323 314
f 314 323 316
f 316 323 322
f 316 322 321
f 316 321 320
f 317 325 324
f 317 324 331
f 317 331 348
f 317 348 319
f 317 319 318
f 319 348 349
f 319 349 331
f 319 331 329
f 323 347 332
f 323 332 324
f 324 332 331
f 325 327 326
f 329 331 330
f 331 349 348
f 332 347 350
f 332 350 333
f 333 350 351
f 333 351 334
f 334 338 336
f 334 336 335
f 334 351 352
f 334 352 353
f 334 353 338
f 337 338 354
f 338 353 355
f 338 355 356
f 338 356 354
f 340 357 358
f 340 358 341
f 341 358 342
f 342 358 357
f 343 359 355
f 343 355 360
f 343 360 345
f 343 345 344
f 345 360 346
f 346 360 361
f 346 361 350
f 346 350 347
f 350 361 351
f 351 361 352
f 352 361 353
f 353 361 355
f 355 361 360
f 355 359 356

