# https://github.com/mikedh/trimesh
v 0.20941844 0.25519814 0.47770613
v -0.20700428 0.25519814 0.47544149
v 0.20941844 -0.00479523 0.46270298
v 0.20941844 0.25519814 -0.00291332
v -0.20700428 -0.00479523 0.45940040
v -0.20700428 0.25519814 -0.00324356
v 0.20941844 -0.00479523 -0.00362102
v 0.20472990 0.25519814 -0.00296049
v -0.20700428 -0.00479523 -0.00380971
v -0.20455809 0.25519814 -0.00329074
v -0.20700428 0.24654527 -0.00329074
v 0.20407759 -0.00479523 -0.00366820
v 0.19249897 0.25519814 -0.00300770
v -0.20700428 -0.00225027 -0.00380971
v -0.19094098 -0.00479523 -0.00395127
v -0.20410961 0.24359311 -0.00333791
v -0.20700428 0.23336237 -0.00333791
v -0.19094098 0.25519814 -0.00343229
v -0.13826640 -0.00479523 -0.00423435
v -0.08400180 0.25519814 -0.00357385
v 0.17933034 0.25519814 -0.00305487
v -0.20700428 0.16752417 -0.00347947
v -0.17952542 -0.00479523 -0.00404566
v -0.20700428 0.19093784 -0.00343229
v -0.17777232 0.25519814 -0.00352668
v -0.15318814 -0.00479523 -0.00418717
v -0.16460369 0.24359311 -0.00362102
v -0.15143504 0.25519814 -0.00362102
v -0.12350772 0.25519814 -0.00362102
v -0.09876046 0.24359311 -0.00362102
v -0.16635679 -0.00479523 -0.00414000
f 1 2 3
f 1 3 7
f 1 7 4
f 1 4 8
f 1 8 13
f 1 13 21
f 1 21 20
f 1 20 29
f 1 29 28
f 1 28 25
f 1 25 18
f 1 18 10
f 1 10 6
f 1 6 2
f 2 5 3
f 2 6 11
f 2 11 17
f 2 17 24
f 2 24 22
f 2 22 14
f 2 14 9
f 2 9 5
f 3 5 9
f 3 9 15
f 3 15 23
f 3 23 31
f 3 31 26
f 3 26 19
f 3 19 12
f 3 12 7
f 4 7 8
f 6 10 11
f 7 12 8
f 8 12 13
f 9 14 15
f 10 16 17
f 10 17 11
f 10 18 16
f 12 19 20
f 12 20 21
f 12 21 13
f 14 22 15
f 15 22 23
f 16 18 17
f 17 18 24
f 18 25 31
f 18 31 23
f 18 23 22
f 18 22 24
f 19 26 27
f 19 27 28
f 19 28 29
f 19 29 30
f 19 30 20
f 20 30 29
f 25 28 27
f 25 27 31
f 26 31 27

