# https://github.com/mikedh/trimesh
v -0.30125434 -0.50669676 0.74816795
v -0.30125434 -0.32918037 0.63722743
v -0.32668685 -0.32918037 0.69091106
v -0.32981395 -0.32918037 0.69746200
v -0.33191074 -0.32918037 0.70137555
v -0.33402558 -0.32918037 0.70528910
v -0.34002671 -0.32918037 0.71532819
v -0.34481678 -0.32918037 0.72187913
v -0.35139631 -0.32918037 0.72996145
v -0.46032051 -0.32918037 0.85732183
v -0.45697651 -0.50669676 0.85927860
v -0.30125434 -0.50669676 -0.00535978
v -0.30125434 -0.32918037 -0.00655083
v -0.46747848 -0.32918037 0.86098015
v -0.45712109 -0.50669676 0.85936368
v -0.30974994 -0.50669676 -0.00501945
v -0.30125434 -0.50202254 -0.00561499
v -0.30125434 -0.34897198 -0.00655083
v -0.30946070 -0.32918037 -0.00655083
v -0.47967956 -0.32918037 0.86046969
v -0.46747848 -0.50669676 0.86242645
v -0.46727966 -0.50669676 0.86242645
v -0.32292711 -0.50669676 -0.00348806
v -0.32263789 -0.49380354 -0.00510453
v -0.32263789 -0.48064966 -0.00561499
v -0.30946070 -0.48064966 -0.00578516
v -0.30125434 -0.48885127 -0.00578516
v -0.30946070 -0.33580076 -0.00655083
v -0.30125434 -0.37034486 -0.00646579
v -0.30946070 -0.36214325 -0.00646579
v -0.32263789 -0.32918037 -0.00646579
v -0.47987842 -0.36214325 0.86038460
v -0.47993262 -0.37531447 0.86038460
v -0.48551803 -0.32918037 0.85017537
v -0.48584341 -0.36214325 0.85017537
v -0.48591570 -0.37531447 0.85017537
v -0.47966151 -0.44113595 0.86029952
v -0.47946269 -0.45430717 0.86029952
v -0.47904693 -0.46747844 0.86029952
v -0.47855888 -0.48064966 0.86029952
v -0.47796239 -0.49380354 0.86012939
v -0.47691400 -0.50669676 0.85987414
v -0.33579699 -0.49380354 -0.00348806
v -0.33485707 -0.50669676 -0.00076562
v -0.33518241 -0.50640136 -0.00076562
v -0.33579699 -0.48064966 -0.00493436
v -0.33579699 -0.46747844 -0.00544486
v -0.33579699 -0.45430717 -0.00570008
v -0.30125434 -0.48064966 -0.00587024
v -0.32263789 -0.33580076 -0.00646579
v -0.30125434 -0.38848574 -0.00638070
v -0.32263789 -0.36214325 -0.00638070
v -0.32925360 -0.32918037 -0.00638070
v -0.47993262 -0.38848574 0.86029952
v -0.48589761 -0.38848574 0.85017537
v -0.42763965 -0.32918037 0.07325146
v -0.48582532 -0.40163958 0.85017537
v -0.48573493 -0.41481084 0.85017537
v -0.48562646 -0.42796468 0.85017537
v -0.48546379 -0.44113595 0.85017537
v -0.48506612 -0.45430717 0.85017537
v -0.47714896 -0.50669676 0.85978906
v -0.48427081 -0.46747844 0.85017537
v -0.34897418 -0.46747844 -0.00442390
v -0.34834155 -0.49279569 -0.00051037
v -0.34897418 -0.48064966 -0.00289252
v -0.34100282 -0.50669676 0.00161656
v -0.34351533 -0.50162287 0.00034038
v -0.34897418 -0.45430717 -0.00518961
v -0.34897418 -0.41481084 -0.00578516
v -0.34897418 -0.38848574 -0.00595533
v -0.33579699 -0.38848574 -0.00612545
v -0.34897418 -0.44113595 -0.00544486
v -0.30125434 -0.46747844 -0.00595533
v -0.33579699 -0.34897198 -0.00629562
v -0.33579699 -0.37531447 -0.00621054
v -0.34241270 -0.32918037 -0.00621054
v -0.42762156 -0.33580076 0.07325146
v -0.42662740 -0.32918037 0.06014958
v -0.48468654 -0.42796468 0.83698840
v -0.48450578 -0.44113595 0.83698840
v -0.48405391 -0.45430717 0.83698840
v -0.48327666 -0.46747844 0.83698840
v -0.48320433 -0.48064966 0.85017537
v -0.48183059 -0.49380354 0.85017537
v -0.48005918 -0.50669676 0.85017537
v -0.36215137 -0.45430717 -0.00314777
v -0.36215137 -0.44113595 -0.00425377
v -0.35591527 -0.48772184 0.00068072
v -0.35801203 -0.48064966 -0.00025516
v -0.36256713 -0.46723516 -0.00119100
v -0.35230013 -0.49649686 0.00280765
v -0.34940800 -0.50669676 0.00680626
v -0.36215137 -0.41481084 -0.00510453
v -0.36215137 -0.42796468 -0.00484932
v -0.36215137 -0.40163958 -0.00535978
v -0.36215137 -0.38848574 -0.00544486
v -0.34897418 -0.36214325 -0.00604037
v -0.34897418 -0.32918037 -0.00604037
v -0.42753118 -0.34897198 0.07325146
v -0.42657317 -0.33580076 0.06014958
v -0.42505481 -0.32918037 0.04696265
v -0.42742275 -0.36214325 0.07325146
v -0.42827229 -0.37531447 0.08643842
v -0.42906763 -0.38848574 0.09962534
v -0.42979064 -0.40163958 0.11281231
v -0.47402190 -0.45993713 0.71226541
v -0.43239354 -0.41481084 0.15228807
v -0.45186106 -0.44113595 0.41568671
v -0.47378690 -0.46747844 0.71532819
v -0.47407610 -0.47420306 0.72485683
v -0.47364228 -0.48327348 0.73166298
v -0.47394957 -0.48621008 0.73974531
v -0.46086276 -0.48697465 0.58056609
v -0.45140919 -0.48064966 0.45507740
v -0.45900097 -0.49380354 0.57358977
v -0.45788029 -0.49380354 0.56040283
v -0.45448205 -0.49380354 0.52092706
v -0.46073624 -0.49964197 0.60813107
v -0.46113391 -0.50132747 0.61697908
v -0.46026628 -0.50669676 0.62310463
v -0.37095426 -0.45430717 -0.00034021
v -0.37292448 -0.44113595 -0.00119100
v -0.37531047 -0.41481084 -0.00221193
v -0.36175370 -0.49326486 0.00757193
v -0.37062887 -0.49001548 0.01242134
v -0.36459160 -0.48064966 0.00357332
v -0.36724873 -0.47145758 0.00161656
v -0.36950819 -0.46268256 0.00042547
v -0.35878932 -0.50415983 0.01157058
v -0.35105292 -0.50669676 0.00791227
v -0.37531047 -0.40163958 -0.00272239
v -0.37531047 -0.38848574 -0.00289252
v -0.36215137 -0.36214325 -0.00552991
v -0.35558989 -0.32918037 -0.00578516
v -0.42628397 -0.36214325 0.06014958
v -0.42391603 -0.32918037 0.04270879
v -0.42257844 -0.34897198 0.03854001
v -0.42480176 -0.34897198 0.04696265
v -0.42726004 -0.37531447 0.07325146
v -0.42805538 -0.38848574 0.08643842
v -0.42876034 -0.40163958 0.09962534
v -0.43035098 -0.41481084 0.12599923
v -0.45218644 -0.45430717 0.42878858
v -0.45083076 -0.44113595 0.40249976
v -0.45211415 -0.46747844 0.44189044
v -0.45466281 -0.48064966 0.49455316
v -0.45101152 -0.46747844 0.42878858
v -0.44799286 -0.47554104 0.40615808
v -0.45027042 -0.48064966 0.44189044
v -0.44759523 -0.48650547 0.42368396
v -0.44799286 -0.48829525 0.43236182
v -0.45220450 -0.49380354 0.49455316
v -0.45712109 -0.50669676 0.58720210
v -0.45106576 -0.49380354 0.48145129
v -0.44772176 -0.50042393 0.46154325
v -0.37950405 -0.44113595 0.00238223
v -0.38091393 -0.43050165 0.00144639
v -0.38194428 -0.42172659 0.00085084
v -0.37605157 -0.42685259 -0.00119100
v -0.38236000 -0.41481084 0.00051055
v -0.38282996 -0.40163958 0.00017025
v -0.36757407 -0.49880793 0.01497365
v -0.37512975 -0.47939857 0.01088995
v -0.37594314 -0.49474186 0.01999322
v -0.37941367 -0.48294335 0.01624982
v -0.38194428 -0.47416829 0.01395272
v -0.37446093 -0.46723516 0.00553008
v -0.37753379 -0.45430717 0.00399870
v -0.35770474 -0.50669676 0.01242134
v -0.36341667 -0.50669676 0.01693041
v -0.37531047 -0.33580076 -0.00297760
v -0.38292034 -0.38848574 0.00008517
v -0.36876708 -0.32918037 -0.00425377
v -0.36215137 -0.32918037 -0.00552991
v -0.42606706 -0.37531447 0.06014958
v -0.42270497 -0.32918037 0.03836985
v -0.42239768 -0.36214325 0.03879523
v -0.41990326 -0.32918037 0.03505186
v -0.41695689 -0.34897198 0.03198905
v -0.41688460 -0.36214325 0.03215922
v -0.42451256 -0.36214325 0.04696265
v -0.42698893 -0.38848574 0.07325146
v -0.42771194 -0.40163958 0.08643842
v -0.42930259 -0.41481084 0.11281231
v -0.43167052 -0.42796468 0.15228807
v -0.43060404 -0.42796468 0.13910111
v -0.45005351 -0.45430717 0.40249976
v -0.44777595 -0.46129246 0.38208125
v -0.44989084 -0.46747844 0.41568671
v -0.44759523 -0.47302146 0.39739514
v -0.43843082 -0.46747844 0.28398738
v -0.43445418 -0.47356014 0.25199841
v -0.43488800 -0.47538465 0.26076135
v -0.43467109 -0.48758283 0.28943233
v -0.44732409 -0.49880793 0.45278032
v -0.44842668 -0.49011976 0.44189044
v -0.45591002 -0.50669676 0.57358977
v -0.44990889 -0.49380354 0.46826435
v -0.44877015 -0.49416844 0.45635355
v -0.43499643 -0.50153598 0.33920242
v -0.44392585 -0.50669676 0.44512338
v -0.44705294 -0.50669676 0.47651682
v -0.44804710 -0.50137963 0.46826435
v -0.38570400 -0.45430717 0.01054966
v -0.38751159 -0.44113595 0.00901827
v -0.39492261 -0.43383788 0.01412289
v -0.38845152 -0.42779094 0.00748689
v -0.39562757 -0.42506286 0.01344226
v -0.38895762 -0.41481084 0.00629580
v -0.38940953 -0.40163958 0.00587042
v -0.37200261 -0.50669676 0.02416196
v -0.38127546 -0.49946823 0.02782028
v -0.38404107 -0.49069317 0.02501276
v -0.38333610 -0.46747844 0.01267659
v -0.38579438 -0.47939857 0.02058873
v -0.39494070 -0.47380338 0.02730981
v -0.39674826 -0.46502836 0.02535305
v -0.38293843 -0.37531447 0.00008517
v -0.37914252 -0.32918037 -0.00144621
v -0.37531047 -0.32918037 -0.00297760
v -0.38949991 -0.38848574 0.00578533
v -0.42575977 -0.38848574 0.06014958
v -0.42212653 -0.37531447 0.03913556
v -0.41679421 -0.37531447 0.03258460
v -0.41666769 -0.38848574 0.03300998
v -0.41704727 -0.32918037 0.03173384
v -0.41008812 -0.38848574 0.02535305
v -0.40988930 -0.40163958 0.02552322
v -0.42413294 -0.37531447 0.04696265
v -0.42660931 -0.40163958 0.07325146
v -0.42823614 -0.41481084 0.09962534
v -0.42953759 -0.42796468 0.12599923
v -0.43049560 -0.44113595 0.15228807
v -0.42935683 -0.44113595 0.13910111
v -0.44862553 -0.46817347 0.40207438
v -0.43958769 -0.46747844 0.29717434
v -0.42821805 -0.44113595 0.12599923
v -0.43441804 -0.45983285 0.22613499
v -0.43481567 -0.46238716 0.23489788
v -0.43723784 -0.46747844 0.27080044
v -0.43579178 -0.46848625 0.25684780
v -0.42740465 -0.45430717 0.13910111
v -0.42613935 -0.45430717 0.12599923
v -0.42485599 -0.45430717 0.11281231
v -0.42142161 -0.46101445 0.09273409
v -0.42585015 -0.46747844 0.15228807
v -0.43327926 -0.48012837 0.25684780
v -0.43058598 -0.49380354 0.27080044
v -0.43244777 -0.49270884 0.28466801
v -0.43284545 -0.49531527 0.29717434
v -0.42449447 -0.46747844 0.13910111
v -0.42160234 -0.47468958 0.13050834
v -0.42209039 -0.47606234 0.13910111
v -0.45119228 -0.50669676 0.52118229
v -0.43407460 -0.50669676 0.34983705
v -0.43555678 -0.50297824 0.34983705
v -0.44096142 -0.50669676 0.41594194
v -0.42841690 -0.50669676 0.29751464
v -0.44802905 -0.50669676 0.48672607
v -0.44875206 -0.50669676 0.49455316
v -0.39228357 -0.45430717 0.01684537
v -0.39407307 -0.44113595 0.01497365
v -0.40795518 -0.43305596 0.02747998
v -0.40867824 -0.42426355 0.02671431
v -0.39624215 -0.41481084 0.01284672
v -0.40934701 -0.41481084 0.02603368
v -0.39665787 -0.40163958 0.01242134
v -0.37860027 -0.50669676 0.03028754
v -0.38499908 -0.50669676 0.03692354
v -0.38523404 -0.50669676 0.03717876
v -0.38908419 -0.49477663 0.03309506
v -0.39663982 -0.49010237 0.03836985
v -0.39331387 -0.48064966 0.02909645
v -0.39886314 -0.48064966 0.03564737
v -0.40202638 -0.46848625 0.03318015
v -0.40907591 -0.46315174 0.03913556
v -0.40518962 -0.45430717 0.03071292
v -0.39861005 -0.45430717 0.02339629
v -0.38295649 -0.33580076 0.00008517
v -0.38951800 -0.37531447 0.00578533
v -0.38293843 -0.32918037 0.00008517
v -0.39674826 -0.38848574 0.01233625
v -0.42532596 -0.40163958 0.06014958
v -0.42369913 -0.38848574 0.04696265
v -0.42185543 -0.38848574 0.03956094
v -0.41739070 -0.40216087 0.03488170
v -0.41375750 -0.32918037 0.02841582
v -0.41021465 -0.37531447 0.02526797
v -0.42597668 -0.41481084 0.07325146
v -0.42711546 -0.41481084 0.08643842
v -0.42843496 -0.42796468 0.11281231
v -0.42727813 -0.42796468 0.09962534
v -0.42610321 -0.42796468 0.08643842
v -0.42700698 -0.44113595 0.11281231
v -0.42861572 -0.45430717 0.15228807
v -0.42980873 -0.45430717 0.16547500
v -0.43526758 -0.46494147 0.24451161
v -0.42575977 -0.44113595 0.09962534
v -0.42449447 -0.44113595 0.08643842
v -0.42189157 -0.45003259 0.07554855
v -0.42351836 -0.45430717 0.09962534
v -0.42227115 -0.45437668 0.08754439
v -0.42091547 -0.45880765 0.08397116
v -0.41713765 -0.46747844 0.07325146
v -0.41928868 -0.46622734 0.08754439
v -0.42062627 -0.47140547 0.11281231
v -0.42111432 -0.47312574 0.12174537
v -0.42913992 -0.49380354 0.25761349
v -0.41587235 -0.48064966 0.09962534
v -0.41742685 -0.48064966 0.11281231
v -0.42106008 -0.48633174 0.16156147
v -0.42158428 -0.48770445 0.17032440
v -0.43468914 -0.50669676 0.35570736
v -0.42767580 -0.49380354 0.24451161
v -0.42689855 -0.50669676 0.28398738
v -0.40043569 -0.44113595 0.02160965
v -0.40701526 -0.44113595 0.02858599
v -0.41204029 -0.44113595 0.03513691
v -0.41256449 -0.42838174 0.03266968
v -0.41534815 -0.41481084 0.03377569
v -0.39409112 -0.49887743 0.04202816
v -0.39134365 -0.50669676 0.04653724
v -0.39897157 -0.49422056 0.04662232
v -0.40555114 -0.48091029 0.04679249
v -0.40732255 -0.47194414 0.04228341
v -0.41037736 -0.45430717 0.03726384
v -0.41084732 -0.46751317 0.04679249
v -0.41493242 -0.45430717 0.04696265
v -0.38951800 -0.34897198 0.00578533
v -0.38624629 -0.32918037 0.00297778
v -0.39674826 -0.37531447 0.01233625
v -0.41035926 -0.34897198 0.02518292
v -0.41044965 -0.32918037 0.02518292
v -0.42453061 -0.41481084 0.06014958
v -0.42279535 -0.40216087 0.04585665
v -0.42160234 -0.39811218 0.03998632
v -0.42489214 -0.42796468 0.07325146
v -0.42281344 -0.44243916 0.07197528
v -0.42138543 -0.44770417 0.06670054
v -0.42049974 -0.45437668 0.07197528
v -0.41251029 -0.48064966 0.07325146
v -0.41426361 -0.48064966 0.08643842
v -0.41986707 -0.46890327 0.09962534
v -0.41858372 -0.45430717 0.06014958
v -0.41489628 -0.46747844 0.06014958
v -0.40996159 -0.49083217 0.08643842
v -0.42133123 -0.50026754 0.21192710
v -0.42402451 -0.49505464 0.21703172
v -0.42617550 -0.49380354 0.23132469
v -0.42189157 -0.50141436 0.22077512
v -0.42420527 -0.50669676 0.26135689
v -0.41988516 -0.42796468 0.04526110
v -0.42080703 -0.41481084 0.04236846
v -0.42127699 -0.40688724 0.04075203
v -0.39635059 -0.50245694 0.05087618
v -0.39150632 -0.50669676 0.04687757
v -0.40746717 -0.48548027 0.05674651
v -0.40925663 -0.47670525 0.05104635
v -0.41867410 -0.43997174 0.04815370
v -0.42143966 -0.43481096 0.05334341
v -0.38953606 -0.32918037 0.00587042
v -0.39315120 -0.32918037 0.00910332
v -0.40003806 -0.32918037 0.01548411
v -0.42252420 -0.41481084 0.04891942
v -0.42183734 -0.42796468 0.05181202
v -0.42328340 -0.42796468 0.06014958
v -0.42196386 -0.43802557 0.06014958
v -0.42077089 -0.44461118 0.06014958
v -0.41016045 -0.48091029 0.06074512
v -0.40846133 -0.48770445 0.06559453
v -0.40905782 -0.48897293 0.07325146
v -0.40668992 -0.49741783 0.08643842
v -0.40808171 -0.50014588 0.10719719
v -0.42131314 -0.50669676 0.23770548
v -0.42261459 -0.50669676 0.24816993
v -0.39499494 -0.50669676 0.05530021
v -0.39654944 -0.50669676 0.06014958
v -0.39781474 -0.50473324 0.06014958
v -0.40471966 -0.49277834 0.06074512
v -0.40571381 -0.49555855 0.07325146
v -0.39920657 -0.50669676 0.07350667
v -0.39944153 -0.50669676 0.07503809
v -0.40117680 -0.50669676 0.08643842
v -0.40124913 -0.50669676 0.08694888
v -0.40513538 -0.50669676 0.11493924
v -0.40866014 -0.50117108 0.11596016
v -0.41769799 -0.50669676 0.20988525
v -0.39703749 -0.50669676 0.06236159
v -0.39823047 -0.50669676 0.06840205
v -0.40625610 -0.50669676 0.12310663
v -0.40761175 -0.50669676 0.13323078
v -0.41110037 -0.50669676 0.15968979
f 1 2 3
f 1 3 4
f 1 4 5
f 1 5 6
f 1 6 7
f 1 7 8
f 1 8 9
f 1 9 10
f 1 10 11
f 1 11 15
f 1 15 22
f 1 22 21
f 1 21 42
f 1 42 62
f 1 62 86
f 1 86 121
f 1 121 154
f 1 154 198
f 1 198 255
f 1 255 261
f 1 261 260
f 1 260 203
f 1 203 202
f 1 202 258
f 1 258 314
f 1 314 256
f 1 256 259
f 1 259 316
f 1 316 352
f 1 352 376
f 1 376 375
f 1 375 388
f 1 388 393
f 1 393 392
f 1 392 391
f 1 391 386
f 1 386 385
f 1 385 384
f 1 384 383
f 1 383 382
f 1 382 390
f 1 390 389
f 1 389 378
f 1 378 377
f 1 377 357
f 1 357 323
f 1 323 271
f 1 271 270
f 1 270 269
f 1 269 212
f 1 212 171
f 1 171 170
f 1 170 131
f 1 131 93
f 1 93 67
f 1 67 44
f 1 44 23
f 1 23 16
f 1 16 12
f 1 12 17
f 1 17 27
f 1 27 49
f 1 49 74
f 1 74 51
f 1 51 29
f 1 29 18
f 1 18 13
f 1 13 2
f 2 13 19
f 2 19 31
f 2 31 53
f 2 53 77
f 2 77 99
f 2 99 135
f 2 135 175
f 2 175 174
f 2 174 221
f 2 221 220
f 2 220 282
f 2 282 331
f 2 331 362
f 2 362 363
f 2 363 364
f 2 364 334
f 2 334 288
f 2 288 227
f 2 227 179
f 2 179 177
f 2 177 137
f 2 137 102
f 2 102 79
f 2 79 56
f 2 56 34
f 2 34 20
f 2 20 14
f 2 14 10
f 2 10 9
f 2 9 8
f 2 8 7
f 2 7 6
f 2 6 5
f 2 5 4
f 2 4 3
f 10 14 15
f 10 15 11
f 12 16 17
f 13 18 28
f 13 28 19
f 14 20 21
f 14 21 22
f 14 22 15
f 16 23 24
f 16 24 17
f 17 24 25
f 17 25 26
f 17 26 27
f 18 29 30
f 18 30 28
f 19 28 50
f 19 50 31
f 20 32 33
f 20 33 21
f 20 34 35
f 20 35 36
f 20 36 32
f 21 33 37
f 21 37 38
f 21 38 39
f 21 39 40
f 21 40 41
f 21 41 42
f 23 43 24
f 23 44 45
f 23 45 43
f 24 43 46
f 24 46 25
f 25 46 47
f 25 47 48
f 25 48 26
f 26 48 49
f 26 49 27
f 28 30 52
f 28 52 50
f 29 51 30
f 30 51 52
f 31 50 53
f 32 36 33
f 33 54 37
f 33 36 55
f 33 55 54
f 34 56 35
f 35 56 36
f 36 56 55
f 37 54 55
f 37 55 57
f 37 57 58
f 37 58 59
f 37 59 60
f 37 60 38
f 38 60 61
f 38 61 39
f 39 61 40
f 40 61 41
f 41 62 42
f 41 61 63
f 41 63 62
f 43 64 46
f 43 45 65
f 43 65 66
f 43 66 64
f 44 67 68
f 44 68 45
f 45 68 65
f 46 64 69
f 46 69 47
f 47 69 73
f 47 73 48
f 48 70 71
f 48 71 72
f 48 72 49
f 48 73 70
f 49 72 76
f 49 76 74
f 50 52 76
f 50 76 75
f 50 75 53
f 51 74 52
f 52 74 76
f 53 75 77
f 55 56 78
f 55 78 57
f 56 79 78
f 57 78 80
f 57 80 58
f 58 80 59
f 59 80 60
f 60 80 81
f 60 81 61
f 61 81 82
f 61 82 83
f 61 83 63
f 62 63 84
f 62 84 85
f 62 85 86
f 63 83 84
f 64 66 87
f 64 87 88
f 64 88 69
f 65 68 89
f 65 89 90
f 65 90 66
f 66 90 91
f 66 91 87
f 67 92 68
f 67 93 92
f 68 92 89
f 69 94 96
f 69 96 73
f 69 88 95
f 69 95 94
f 70 73 96
f 70 96 97
f 70 97 71
f 71 98 75
f 71 75 76
f 71 76 72
f 71 97 134
f 71 134 98
f 75 98 77
f 77 98 99
f 78 79 100
f 78 100 80
f 79 101 100
f 79 102 101
f 80 100 103
f 80 103 104
f 80 104 81
f 81 104 105
f 81 105 106
f 81 106 82
f 82 107 83
f 82 106 108
f 82 108 109
f 82 109 107
f 83 107 110
f 83 110 111
f 83 111 84
f 84 111 85
f 85 112 113
f 85 113 86
f 85 111 112
f 86 113 114
f 86 114 115
f 86 115 116
f 86 116 117
f 86 117 118
f 86 118 119
f 86 119 120
f 86 120 121
f 87 91 122
f 87 122 123
f 87 123 88
f 88 123 124
f 88 124 95
f 89 92 125
f 89 125 126
f 89 126 127
f 89 127 128
f 89 128 90
f 90 128 129
f 90 129 91
f 91 129 122
f 92 93 130
f 92 130 125
f 93 131 130
f 94 95 132
f 94 132 96
f 95 124 132
f 96 132 133
f 96 133 97
f 97 133 134
f 98 134 135
f 98 135 99
f 100 101 103
f 101 136 103
f 101 102 136
f 102 137 138
f 102 138 139
f 102 139 136
f 103 136 140
f 103 140 104
f 104 140 141
f 104 141 105
f 105 141 106
f 106 141 142
f 106 142 143
f 106 143 108
f 107 109 144
f 107 144 110
f 108 143 109
f 109 143 145
f 109 145 144
f 110 144 111
f 111 144 146
f 111 146 112
f 112 146 113
f 113 146 114
f 114 146 147
f 114 147 115
f 115 147 146
f 115 146 148
f 115 148 149
f 115 149 150
f 115 150 151
f 115 151 152
f 115 152 117
f 115 117 116
f 117 152 118
f 118 120 119
f 118 152 153
f 118 153 120
f 120 154 121
f 120 153 155
f 120 155 156
f 120 156 154
f 122 129 157
f 122 157 158
f 122 158 123
f 123 158 159
f 123 159 160
f 123 160 124
f 124 160 161
f 124 161 162
f 124 162 132
f 125 130 163
f 125 163 126
f 126 164 127
f 126 163 165
f 126 165 166
f 126 166 167
f 126 167 164
f 127 164 128
f 128 164 167
f 128 167 168
f 128 168 129
f 129 168 169
f 129 169 157
f 130 131 170
f 130 170 171
f 130 171 163
f 132 162 133
f 133 172 134
f 133 162 173
f 133 173 172
f 134 172 174
f 134 174 175
f 134 175 135
f 136 176 140
f 136 139 176
f 137 177 138
f 138 178 139
f 138 177 179
f 138 179 180
f 138 180 181
f 138 181 178
f 139 182 176
f 139 178 182
f 140 176 183
f 140 183 141
f 141 184 142
f 141 183 184
f 142 184 185
f 142 185 143
f 143 185 144
f 143 144 145
f 144 185 186
f 144 186 187
f 144 187 188
f 144 188 146
f 146 188 189
f 146 189 148
f 148 189 190
f 148 190 191
f 148 191 149
f 149 151 150
f 149 191 192
f 149 192 193
f 149 193 151
f 151 193 194
f 151 194 152
f 152 194 195
f 152 195 196
f 152 196 197
f 152 197 153
f 153 197 155
f 154 156 198
f 155 197 199
f 155 199 156
f 156 199 200
f 156 200 196
f 156 196 195
f 156 195 201
f 156 201 202
f 156 202 203
f 156 203 204
f 156 204 198
f 157 169 205
f 157 205 206
f 157 206 158
f 158 206 207
f 158 207 208
f 158 208 159
f 159 161 160
f 159 208 209
f 159 209 210
f 159 210 161
f 161 210 211
f 161 211 162
f 162 211 222
f 162 222 173
f 163 171 212
f 163 212 213
f 163 213 165
f 165 214 166
f 165 213 214
f 166 214 167
f 167 215 168
f 167 214 216
f 167 216 217
f 167 217 218
f 167 218 215
f 168 215 169
f 169 215 205
f 172 173 219
f 172 219 220
f 172 220 221
f 172 221 174
f 173 222 281
f 173 281 219
f 176 223 183
f 176 182 223
f 178 224 182
f 178 181 225
f 178 225 226
f 178 226 224
f 179 227 180
f 180 227 228
f 180 228 181
f 181 228 229
f 181 229 225
f 182 230 223
f 182 224 230
f 183 223 231
f 183 231 184
f 184 232 185
f 184 231 232
f 185 232 187
f 185 187 186
f 187 232 233
f 187 233 188
f 188 233 189
f 189 233 234
f 189 234 235
f 189 235 190
f 190 236 191
f 190 235 236
f 191 237 192
f 191 236 235
f 191 235 238
f 191 238 237
f 192 237 239
f 192 239 240
f 192 240 241
f 192 241 193
f 193 241 242
f 193 242 243
f 193 243 244
f 193 244 245
f 193 245 246
f 193 246 194
f 194 246 247
f 194 247 248
f 194 248 195
f 195 249 250
f 195 250 251
f 195 251 201
f 195 248 252
f 195 252 253
f 195 253 254
f 195 254 249
f 196 200 197
f 197 200 199
f 198 204 255
f 201 256 257
f 201 257 258
f 201 258 202
f 201 251 249
f 201 249 259
f 201 259 256
f 203 260 204
f 204 260 261
f 204 261 255
f 205 215 262
f 205 262 263
f 205 263 206
f 206 263 207
f 207 209 208
f 207 263 264
f 207 264 265
f 207 265 209
f 209 266 210
f 209 265 267
f 209 267 266
f 210 266 211
f 211 266 268
f 211 268 283
f 211 283 222
f 212 269 213
f 213 269 270
f 213 270 271
f 213 271 272
f 213 272 214
f 214 272 273
f 214 273 274
f 214 274 216
f 215 218 262
f 216 274 217
f 217 274 275
f 217 275 276
f 217 276 218
f 218 276 277
f 218 277 278
f 218 278 279
f 218 279 262
f 219 280 220
f 219 281 280
f 220 280 282
f 222 283 281
f 223 284 231
f 223 230 285
f 223 285 284
f 224 286 230
f 224 226 286
f 225 229 226
f 226 229 287
f 226 287 286
f 227 288 289
f 227 289 228
f 228 289 268
f 228 268 229
f 229 267 287
f 229 268 266
f 229 266 267
f 230 286 285
f 231 284 290
f 231 290 291
f 231 291 232
f 232 291 292
f 232 292 233
f 233 292 234
f 234 292 235
f 235 292 238
f 237 238 239
f 238 292 293
f 238 293 294
f 238 294 338
f 238 338 295
f 238 295 243
f 238 243 296
f 238 296 297
f 238 297 239
f 239 297 240
f 240 298 241
f 240 297 296
f 240 296 298
f 241 298 242
f 242 298 243
f 243 295 299
f 243 299 300
f 243 300 244
f 243 298 296
f 244 300 245
f 245 300 301
f 245 301 302
f 245 302 246
f 246 302 303
f 246 303 301
f 246 301 304
f 246 304 305
f 246 305 306
f 246 306 307
f 246 307 308
f 246 308 253
f 246 253 252
f 246 252 247
f 247 252 248
f 249 309 259
f 249 251 250
f 249 254 309
f 253 308 310
f 253 310 311
f 253 311 312
f 253 312 313
f 253 313 254
f 254 313 309
f 256 314 257
f 257 314 258
f 259 309 315
f 259 315 316
f 262 279 263
f 263 279 317
f 263 317 264
f 264 318 319
f 264 319 320
f 264 320 265
f 264 317 318
f 265 320 321
f 265 321 267
f 267 321 287
f 268 289 283
f 271 322 273
f 271 273 272
f 271 323 322
f 273 322 324
f 273 324 325
f 273 325 326
f 273 326 277
f 273 277 275
f 273 275 274
f 275 277 276
f 277 327 278
f 277 326 328
f 277 328 329
f 277 329 327
f 278 318 279
f 278 327 318
f 279 318 317
f 280 330 282
f 280 281 330
f 281 283 332
f 281 332 330
f 282 330 331
f 283 289 333
f 283 333 334
f 283 334 332
f 284 335 290
f 284 285 336
f 284 336 335
f 285 286 337
f 285 337 336
f 286 287 337
f 287 321 337
f 288 334 333
f 288 333 289
f 290 335 338
f 290 338 294
f 290 294 293
f 290 293 292
f 290 292 291
f 295 338 299
f 299 338 300
f 300 338 339
f 300 339 301
f 301 339 340
f 301 340 304
f 301 303 302
f 304 340 341
f 304 341 305
f 305 342 343
f 305 343 310
f 305 310 307
f 305 307 344
f 305 344 306
f 305 341 345
f 305 345 346
f 305 346 342
f 306 344 307
f 307 310 308
f 309 313 315
f 310 343 313
f 310 313 311
f 311 313 312
f 313 343 347
f 313 347 348
f 313 348 349
f 313 349 350
f 313 350 315
f 315 350 351
f 315 351 316
f 316 351 352
f 318 327 319
f 319 327 353
f 319 353 354
f 319 354 355
f 319 355 320
f 320 355 321
f 321 355 337
f 322 323 356
f 322 356 324
f 323 357 356
f 324 356 358
f 324 358 325
f 325 358 359
f 325 359 326
f 326 359 328
f 327 329 360
f 327 360 353
f 328 359 346
f 328 346 329
f 329 346 345
f 329 345 361
f 329 361 360
f 330 362 331
f 330 332 363
f 330 363 362
f 332 334 364
f 332 364 363
f 335 336 365
f 335 365 366
f 335 366 367
f 335 367 338
f 336 337 355
f 336 355 365
f 338 367 368
f 338 368 339
f 339 368 340
f 340 368 361
f 340 361 369
f 340 369 345
f 340 345 341
f 342 346 370
f 342 370 371
f 342 371 372
f 342 372 343
f 343 372 347
f 345 369 361
f 346 359 370
f 347 372 373
f 347 373 374
f 347 374 348
f 348 351 349
f 348 374 351
f 349 351 350
f 351 375 376
f 351 376 352
f 351 374 375
f 353 360 361
f 353 361 354
f 354 361 366
f 354 366 355
f 355 366 365
f 356 377 378
f 356 378 379
f 356 379 380
f 356 380 358
f 356 357 377
f 358 380 371
f 358 371 370
f 358 370 359
f 361 368 367
f 361 367 366
f 371 380 381
f 371 381 372
f 372 381 373
f 373 381 382
f 373 382 383
f 373 383 384
f 373 384 374
f 374 384 385
f 374 385 386
f 374 386 387
f 374 387 375
f 375 387 388
f 378 389 379
f 379 389 390
f 379 390 382
f 379 382 381
f 379 381 380
f 386 391 387
f 387 391 392
f 387 392 393
f 387 393 388

