# https://github.com/mikedh/trimesh
v -0.20704503 -0.00479523 -0.00382710
v -0.33581198 -0.00479523 -0.00323273
v -0.20704503 0.16460200 -0.00348747
v -0.20704503 -0.00479523 0.45933284
v -0.20704503 0.27287475 -0.00323273
v -0.20704503 0.24361030 -0.00331766
v -0.35075332 -0.00479523 -0.00306292
v -0.34896036 0.28659425 -0.00178933
v -0.23046215 0.28659425 -0.00297803
v -0.22076389 0.28659425 -0.00306292
v -0.20704503 0.28659425 0.49754035
v -0.33980541 -0.00479523 0.71370994
v -0.20976164 0.28659425 -0.00314785
v -0.20704503 0.28659425 -0.00314785
v -0.36210871 -0.00479523 -0.00272333
v -0.36210871 0.28659425 -0.00119501
v -0.34026721 0.28659425 0.71523825
v -0.34026721 0.17775103 0.71523825
v -0.34029441 0.12512637 0.71523825
v -0.34032156 0.08562222 0.71523825
v -0.34037588 0.05926710 0.71523825
v -0.34048455 -0.00479523 0.71498352
v -0.36363001 -0.00479523 -0.00246859
v -0.37082902 0.28659425 0.00007858
v -0.36444498 0.28659425 -0.00085538
v -0.34458661 0.28659425 0.72186089
v -0.34461381 0.19092860 0.72186089
v -0.34464096 0.05926710 0.72177598
v -0.34466812 0.04611807 0.72177598
v -0.34477679 -0.00479523 0.72160617
v -0.37335543 -0.00479523 -0.00077049
v -0.37221446 0.13827541 -0.00034598
v -0.37878865 0.13827541 0.00211630
v -0.37740318 0.28659425 0.00288045
v -0.35116080 0.28659425 0.73052125
v -0.35116080 0.26993690 0.73052125
v -0.35118796 0.05926710 0.73026653
v -0.35116080 0.19092860 0.73043635
v -0.35121512 0.04611807 0.73026653
v -0.35132379 -0.00479523 0.73018163
v -0.37992962 -0.00479523 0.00169179
v -0.38845976 0.13827541 0.00865404
v -0.38761759 0.28659425 0.00950311
v -0.35643100 0.28659425 0.73714387
v -0.35670269 0.07244466 0.73688917
v -0.45906424 0.00658540 0.85881358
v -0.35605067 -0.00479523 0.73587029
v -0.38109776 -0.00479523 0.00254082
v -0.38845976 -0.00479523 0.00797478
v -0.39506111 0.14620476 0.01400308
v -0.40924176 0.28659425 0.02639929
v -0.45917295 0.28659425 0.85864377
v -0.45914575 0.25675935 0.85872865
v -0.45911859 0.24361030 0.85872865
v -0.45909143 0.23043276 0.85872865
v -0.45903708 0.16460200 0.85881358
v -0.45900992 0.07244466 0.85889847
v -0.45903708 0.05926710 0.85889847
v -0.46745854 0.03294051 0.86348336
v -0.46745854 0.00658540 0.86339847
v -0.46745854 -0.00479523 0.86331355
v -0.45909143 -0.00479523 0.85872865
v -0.39541427 -0.00479523 0.01366345
v -0.40964924 0.13827541 0.02597477
v -0.41614196 0.16460200 0.03217288
v -0.41581595 0.28311446 0.03276721
v -0.41098040 0.28659425 0.02809743
v -0.46528530 0.28659425 0.86203996
v -0.46745854 0.26993690 0.86331355
v -0.46745854 0.24361030 0.86339847
v -0.45909143 0.19092860 0.85881358
v -0.46745854 0.08562222 0.86356829
v -0.47930297 0.01976295 0.86136075
v -0.47933012 -0.00479523 0.86127582
v -0.40989374 -0.00479523 0.02580496
v -0.41641361 0.03294051 0.03174836
v -0.41635926 0.04611807 0.03174836
v -0.42271611 0.07244466 0.03845587
v -0.42228147 0.24361030 0.03896531
v -0.42222712 0.25675935 0.03905024
v -0.41584311 0.28659425 0.03285213
v -0.46745854 0.28659425 0.86322866
v -0.47607019 0.28659425 0.86187015
v -0.47916710 0.28659425 0.86136075
v -0.48457316 -0.00479523 0.85015319
v -0.41649509 -0.00479523 0.03174836
v -0.42277047 0.04611807 0.03837099
v -0.42483508 0.04611807 0.04694645
v -0.42467205 0.08562222 0.04694645
v -0.42426457 0.16460200 0.04694645
v -0.42211845 0.26993690 0.03922005
v -0.42195546 0.28659425 0.03938987
v -0.42377558 0.24361030 0.04694645
v -0.42363975 0.25675935 0.04694645
v -0.48280736 0.28659425 0.85312488
v -0.48411132 0.28659425 0.85015319
v -0.43301204 0.11194882 0.15231429
v -0.43301204 0.09877126 0.15231429
v -0.43203405 0.08562222 0.13915389
v -0.43309351 -0.00479523 0.15409728
v -0.42274327 -0.00479523 0.03837099
v -0.42277047 0.03294051 0.03837099
v -0.42483508 0.03294051 0.04694645
v -0.42594885 0.04611807 0.06010680
v -0.42592170 0.05926710 0.06010680
v -0.42584022 0.08562222 0.06010680
v -0.42554137 0.16460200 0.06010680
v -0.42347676 0.26993690 0.04694645
v -0.42228147 0.28659425 0.04134267
v -0.42491655 0.24361030 0.06010680
v -0.42464489 0.26993690 0.06010680
v -0.42882847 0.28659425 0.11622942
v -0.42779616 0.26993690 0.09958790
v -0.42812217 0.24361030 0.09958790
v -0.42839383 0.21725519 0.09958790
v -0.42863833 0.19092860 0.09958790
v -0.42874696 0.17775103 0.09958790
v -0.42983362 0.16460200 0.11274826
v -0.42991513 0.15142444 0.11274826
v -0.43097459 0.13827541 0.12599354
v -0.43195258 0.13827541 0.13915389
v -0.43298488 0.12512637 0.15231429
v -0.43105606 0.11194882 0.12599354
v -0.43105606 0.08562222 0.12599354
v -0.42996944 -0.00479523 0.11274826
v -0.42480792 -0.00479523 0.04694645
v -0.42497090 -0.00479523 0.04872947
v -0.42594885 -0.00479523 0.06010680
v -0.43005096 0.09877126 0.11274826
v -0.42901861 0.09877126 0.09958790
v -0.42899145 0.12512637 0.09958790
v -0.42785048 0.15142444 0.08642755
v -0.42779616 0.16460200 0.08642755
v -0.42771465 0.17775103 0.08642755
v -0.42448191 0.28311446 0.06010680
v -0.42442756 0.28659425 0.06010680
v -0.42353112 0.28659425 0.05042757
v -0.42320511 0.28659425 0.04694645
v -0.42760602 0.19092860 0.08642755
v -0.42603037 0.24361030 0.07326719
v -0.42575871 0.26993690 0.07326719
v -0.42581303 0.28659425 0.07674832
v -0.42679102 0.26993690 0.08642755
v -0.42711703 0.24361030 0.08642755
v -0.42882847 0.16460200 0.09958790
v -0.42890998 0.15142444 0.09958790
v -0.43002376 0.12512637 0.11274826
v -0.43102891 0.12512637 0.12599354
v -0.43005096 0.08562222 0.11274826
v -0.42554137 0.28659425 0.07326719
v -0.42472641 0.28659425 0.06358792
f 1 2 3
f 1 3 6
f 1 6 5
f 1 5 14
f 1 14 11
f 1 11 4
f 1 4 12
f 1 12 22
f 1 22 30
f 1 30 40
f 1 40 47
f 1 47 62
f 1 62 61
f 1 61 74
f 1 74 85
f 1 85 100
f 1 100 125
f 1 125 128
f 1 128 127
f 1 127 126
f 1 126 101
f 1 101 86
f 1 86 75
f 1 75 63
f 1 63 49
f 1 49 48
f 1 48 41
f 1 41 31
f 1 31 23
f 1 23 15
f 1 15 7
f 1 7 2
f 2 5 6
f 2 6 3
f 2 7 8
f 2 8 9
f 2 9 10
f 2 10 5
f 4 11 12
f 5 10 13
f 5 13 14
f 7 15 8
f 8 15 16
f 8 16 25
f 8 25 24
f 8 24 34
f 8 34 43
f 8 43 51
f 8 51 67
f 8 67 81
f 8 81 92
f 8 92 109
f 8 109 138
f 8 138 137
f 8 137 136
f 8 136 151
f 8 151 150
f 8 150 142
f 8 142 112
f 8 112 96
f 8 96 95
f 8 95 84
f 8 84 83
f 8 83 82
f 8 82 68
f 8 68 52
f 8 52 44
f 8 44 35
f 8 35 26
f 8 26 17
f 8 17 11
f 8 11 14
f 8 14 13
f 8 13 10
f 8 10 9
f 11 17 18
f 11 18 19
f 11 19 20
f 11 20 21
f 11 21 22
f 11 22 12
f 15 23 24
f 15 24 25
f 15 25 16
f 17 26 18
f 18 26 27
f 18 27 19
f 19 27 28
f 19 28 20
f 20 28 21
f 21 28 29
f 21 29 22
f 22 29 30
f 23 31 32
f 23 32 24
f 24 32 33
f 24 33 34
f 26 35 36
f 26 36 27
f 27 36 28
f 28 37 39
f 28 39 29
f 28 36 38
f 28 38 37
f 29 39 40
f 29 40 30
f 31 41 33
f 31 33 32
f 33 41 42
f 33 42 43
f 33 43 34
f 35 44 36
f 36 44 38
f 37 38 44
f 37 44 39
f 39 44 45
f 39 45 46
f 39 46 47
f 39 47 40
f 41 48 42
f 42 48 49
f 42 49 50
f 42 50 51
f 42 51 43
f 44 52 53
f 44 53 54
f 44 54 55
f 44 55 56
f 44 56 57
f 44 57 46
f 44 46 45
f 46 57 58
f 46 58 59
f 46 59 60
f 46 60 61
f 46 61 62
f 46 62 47
f 49 63 50
f 50 63 64
f 50 64 51
f 51 64 65
f 51 65 66
f 51 66 67
f 52 68 69
f 52 69 53
f 53 69 70
f 53 70 71
f 53 71 54
f 54 71 56
f 54 56 55
f 56 71 70
f 56 70 57
f 57 70 72
f 57 72 58
f 58 72 59
f 59 72 73
f 59 73 60
f 60 73 74
f 60 74 61
f 63 75 64
f 64 75 76
f 64 76 77
f 64 77 65
f 65 77 78
f 65 78 79
f 65 79 66
f 66 79 80
f 66 80 81
f 66 81 67
f 68 82 69
f 69 82 83
f 69 83 70
f 70 83 84
f 70 84 72
f 72 84 73
f 73 84 85
f 73 85 74
f 75 86 76
f 76 86 87
f 76 87 77
f 77 87 78
f 78 88 79
f 78 87 88
f 79 88 89
f 79 89 90
f 79 90 80
f 80 91 92
f 80 92 81
f 80 90 93
f 80 93 94
f 80 94 91
f 84 95 85
f 85 95 96
f 85 96 97
f 85 97 98
f 85 98 99
f 85 99 100
f 86 101 102
f 86 102 87
f 87 102 103
f 87 103 88
f 88 103 128
f 88 128 104
f 88 104 105
f 88 105 106
f 88 106 107
f 88 107 89
f 89 107 90
f 90 107 93
f 91 94 92
f 92 94 108
f 92 108 109
f 93 107 110
f 93 110 111
f 93 111 94
f 94 111 135
f 94 135 108
f 96 112 113
f 96 113 114
f 96 114 115
f 96 115 116
f 96 116 117
f 96 117 118
f 96 118 119
f 96 119 120
f 96 120 121
f 96 121 122
f 96 122 97
f 97 122 148
f 97 148 123
f 97 123 124
f 97 124 99
f 97 99 98
f 99 124 100
f 100 124 125
f 101 126 103
f 101 103 102
f 103 126 127
f 103 127 128
f 104 128 149
f 104 149 129
f 104 129 130
f 104 130 131
f 104 131 105
f 105 131 132
f 105 132 106
f 106 132 107
f 107 132 133
f 107 133 134
f 107 134 110
f 108 135 136
f 108 136 137
f 108 137 138
f 108 138 109
f 110 134 139
f 110 139 140
f 110 140 141
f 110 141 111
f 111 141 135
f 112 142 143
f 112 143 113
f 113 143 144
f 113 144 114
f 114 144 115
f 115 144 116
f 116 144 139
f 116 139 134
f 116 134 117
f 117 145 118
f 117 134 133
f 117 133 145
f 118 145 146
f 118 146 119
f 119 146 147
f 119 147 148
f 119 148 120
f 120 148 122
f 120 122 121
f 123 148 147
f 123 147 129
f 123 129 149
f 123 149 124
f 124 149 125
f 125 149 128
f 129 147 131
f 129 131 130
f 131 147 146
f 131 146 132
f 132 146 133
f 133 146 145
f 135 141 150
f 135 150 151
f 135 151 136
f 139 144 140
f 140 144 141
f 141 144 143
f 141 143 150
f 142 150 143

