# https://github.com/mikedh/trimesh
v -0.20806321 -0.32918037 0.53563882
v -0.20806321 -0.23623103 0.46856936
v -0.27471582 -0.23623103 0.57300688
v -0.26351117 -0.32918037 0.57300688
v -0.20806321 -0.32918037 -0.00687982
v -0.20806321 -0.23623103 -0.00710698
v -0.46296874 -0.23623103 0.57300688
v -0.46356899 -0.32918037 0.57300688
v -0.23047251 -0.32918037 -0.00687982
v -0.20806321 -0.32262043 -0.00693661
v -0.20806321 -0.26995883 -0.00710698
v -0.23047251 -0.24361893 -0.00716376
v -0.25100601 -0.23623103 -0.00710698
v -0.46311881 -0.25679344 0.57300688
v -0.44183498 -0.23623103 0.27082520
v -0.46329384 -0.28311513 0.57300688
v -0.43955904 -0.23623103 0.23868182
v -0.43903382 -0.23623103 0.23129910
v -0.43468200 -0.24361893 0.17030623
v -0.42777917 -0.28311513 0.07325142
v -0.42775413 -0.29628963 0.07325142
v -0.42772913 -0.30945503 0.07325142
v -0.43808342 -0.32918037 0.21812372
v -0.25680841 -0.32918037 -0.00682304
v -0.25680841 -0.30945503 -0.00693661
v -0.21729204 -0.32262043 -0.00693661
v -0.20806321 -0.30945503 -0.00699340
v -0.24362794 -0.26995883 -0.00710698
v -0.20806321 -0.29233181 -0.00705019
v -0.25680841 -0.24361893 -0.00710698
v -0.26418646 -0.23623103 -0.00705019
v -0.46321885 -0.27059572 0.57300688
v -0.43525726 -0.23623103 0.17859760
v -0.42772913 -0.25679344 0.07325142
v -0.42680377 -0.26995883 0.06007607
v -0.42680377 -0.28311513 0.06007607
v -0.42677873 -0.29628963 0.06007607
v -0.42767913 -0.32262043 0.07325142
v -0.42765414 -0.32918037 0.07325142
v -0.28314431 -0.32918037 -0.00670946
v -0.25680841 -0.29628963 -0.00699340
v -0.26996384 -0.30945503 -0.00687982
v -0.21729204 -0.30945503 -0.00699340
v -0.25680841 -0.26995883 -0.00705019
v -0.26996384 -0.26995883 -0.00699340
v -0.28314431 -0.25679344 -0.00693661
v -0.27734191 -0.23623103 -0.00699340
v -0.43445693 -0.23623103 0.16752348
v -0.42762910 -0.23623103 0.07325142
v -0.42675373 -0.25679344 0.06007607
v -0.42545319 -0.24361893 0.04695747
v -0.42547823 -0.25679344 0.04695747
v -0.42547823 -0.26995883 0.04695747
v -0.42667870 -0.32262043 0.06007607
v -0.42660370 -0.32918037 0.06007607
v -0.29629975 -0.32918037 -0.00665263
v -0.26996384 -0.29628963 -0.00693661
v -0.28314431 -0.28311513 -0.00687982
v -0.30948020 -0.30945503 -0.00665263
v -0.30948020 -0.28311513 -0.00670946
v -0.29052236 -0.23623103 -0.00687982
v -0.42662870 -0.23623103 0.06007607
v -0.42667870 -0.24361893 0.06007607
v -0.42610348 -0.23623103 0.05434023
v -0.42540319 -0.23623103 0.04695747
v -0.42435275 -0.23623103 0.04292535
v -0.42302721 -0.23623103 0.03787100
v -0.42305221 -0.24361893 0.03787100
v -0.42305221 -0.25679344 0.03781421
v -0.42527812 -0.30945503 0.04695747
v -0.42287714 -0.30945503 0.03809815
v -0.42515308 -0.32262043 0.04695747
v -0.42505304 -0.32918037 0.04695747
v -0.30948020 -0.32262043 -0.00659589
v -0.32263565 -0.32918037 -0.00648231
v -0.32263565 -0.30945503 -0.00653906
v -0.32263565 -0.24361893 -0.00659589
v -0.31685825 -0.23623103 -0.00665263
v -0.42052615 -0.23623103 0.03497471
v -0.42300217 -0.26995883 0.03787100
v -0.41734985 -0.25679344 0.03122656
v -0.41734985 -0.26995883 0.03128331
v -0.41714978 -0.30945503 0.03151046
v -0.41704974 -0.32918037 0.03173765
v -0.41990090 -0.32918037 0.03503150
v -0.42277710 -0.32262043 0.03826856
v -0.42390257 -0.32918037 0.04269820
v -0.33581610 -0.32918037 -0.00631191
v -0.33581610 -0.30945503 -0.00636870
v -0.32263565 -0.23623103 -0.00659589
v -0.33581610 -0.23623103 -0.00642548
v -0.41732485 -0.23623103 0.03128331
v -0.41442365 -0.23623103 0.02850059
v -0.41074712 -0.23623103 0.02497959
v -0.41077212 -0.25679344 0.02497959
v -0.41077212 -0.26995883 0.02497959
v -0.41057205 -0.30945503 0.02509317
v -0.41044698 -0.32918037 0.02514996
v -0.41377336 -0.32918037 0.02844380
v -0.42270206 -0.32918037 0.03832534
v -0.34239383 -0.32918037 -0.00619833
v -0.34894655 -0.30945503 -0.00614154
v -0.34894655 -0.23623103 -0.00614154
v -0.39674131 -0.23623103 0.01242891
v -0.38951333 -0.32918037 0.00584122
v -0.39313982 -0.32918037 0.00913507
v -0.39671631 -0.32918037 0.01242891
v -0.34894655 -0.32918037 -0.00608476
v -0.35557427 -0.32918037 -0.00585761
v -0.36212700 -0.30945503 -0.00563045
v -0.35634960 -0.23623103 -0.00585761
v -0.39348997 -0.23623103 0.00953262
v -0.38623699 -0.32918037 0.00294493
v -0.36212700 -0.32918037 -0.00557363
v -0.36872972 -0.32918037 -0.00426747
v -0.37528245 -0.32918037 -0.00296127
v -0.36212700 -0.23623103 -0.00563045
v -0.38931326 -0.23623103 0.00584122
v -0.38293561 -0.32918037 0.00004863
v -0.37528245 -0.30945503 -0.00296127
v -0.37528245 -0.23623103 -0.00284770
v -0.38273554 -0.23623103 0.00021896
v -0.38291061 -0.32262043 0.00004863
v -0.37945915 -0.23623103 -0.00114399
f 1 2 3
f 1 3 4
f 1 4 8
f 1 8 23
f 1 23 39
f 1 39 55
f 1 55 73
f 1 73 87
f 1 87 100
f 1 100 85
f 1 85 84
f 1 84 99
f 1 99 98
f 1 98 107
f 1 107 106
f 1 106 105
f 1 105 113
f 1 113 119
f 1 119 116
f 1 116 115
f 1 115 114
f 1 114 109
f 1 109 108
f 1 108 101
f 1 101 88
f 1 88 75
f 1 75 56
f 1 56 40
f 1 40 24
f 1 24 9
f 1 9 5
f 1 5 10
f 1 10 27
f 1 27 29
f 1 29 11
f 1 11 6
f 1 6 2
f 2 6 13
f 2 13 31
f 2 31 47
f 2 47 61
f 2 61 78
f 2 78 90
f 2 90 91
f 2 91 103
f 2 103 111
f 2 111 117
f 2 117 121
f 2 121 124
f 2 124 122
f 2 122 118
f 2 118 112
f 2 112 104
f 2 104 94
f 2 94 93
f 2 93 92
f 2 92 79
f 2 79 67
f 2 67 66
f 2 66 65
f 2 65 64
f 2 64 62
f 2 62 49
f 2 49 48
f 2 48 33
f 2 33 18
f 2 18 17
f 2 17 15
f 2 15 7
f 2 7 3
f 3 7 14
f 3 14 32
f 3 32 16
f 3 16 8
f 3 8 4
f 5 9 26
f 5 26 10
f 6 11 12
f 6 12 13
f 7 15 14
f 8 16 15
f 8 15 17
f 8 17 18
f 8 18 19
f 8 19 20
f 8 20 21
f 8 21 22
f 8 22 23
f 9 24 25
f 9 25 26
f 10 26 43
f 10 43 27
f 11 28 12
f 11 29 28
f 12 28 30
f 12 30 13
f 13 30 31
f 14 15 32
f 15 16 32
f 18 33 19
f 19 33 34
f 19 34 20
f 20 34 35
f 20 35 36
f 20 36 37
f 20 37 21
f 21 37 22
f 22 37 54
f 22 54 38
f 22 38 23
f 23 38 39
f 24 40 25
f 25 41 43
f 25 43 26
f 25 40 56
f 25 56 42
f 25 42 57
f 25 57 41
f 27 43 29
f 28 44 30
f 28 29 43
f 28 43 41
f 28 41 44
f 30 44 45
f 30 45 46
f 30 46 47
f 30 47 31
f 33 48 34
f 34 49 50
f 34 50 35
f 34 48 49
f 35 50 51
f 35 51 52
f 35 52 53
f 35 53 36
f 36 53 37
f 37 53 54
f 38 54 39
f 39 54 55
f 41 57 45
f 41 45 44
f 42 56 57
f 45 57 46
f 46 57 58
f 46 58 59
f 46 59 60
f 46 60 47
f 47 60 61
f 49 62 63
f 49 63 50
f 50 63 64
f 50 64 51
f 51 65 66
f 51 66 67
f 51 67 68
f 51 68 52
f 51 64 65
f 52 68 69
f 52 69 53
f 53 70 54
f 53 69 71
f 53 71 70
f 54 70 72
f 54 72 55
f 55 72 73
f 56 74 59
f 56 59 57
f 56 75 74
f 57 59 58
f 59 74 75
f 59 75 76
f 59 76 60
f 60 76 77
f 60 77 78
f 60 78 61
f 62 64 63
f 67 79 69
f 67 69 68
f 69 80 71
f 69 79 81
f 69 81 82
f 69 82 80
f 70 71 72
f 71 80 82
f 71 82 83
f 71 83 84
f 71 84 85
f 71 85 86
f 71 86 72
f 72 86 87
f 72 87 73
f 75 88 89
f 75 89 76
f 76 89 77
f 77 90 78
f 77 89 91
f 77 91 90
f 79 92 81
f 81 92 93
f 81 93 94
f 81 94 95
f 81 95 96
f 81 96 82
f 82 97 98
f 82 98 83
f 82 96 97
f 83 98 99
f 83 99 84
f 85 100 86
f 86 100 87
f 88 101 89
f 89 101 102
f 89 102 91
f 91 102 103
f 94 104 105
f 94 105 95
f 95 105 96
f 96 105 106
f 96 106 107
f 96 107 97
f 97 107 98
f 101 108 102
f 102 108 109
f 102 109 110
f 102 110 111
f 102 111 103
f 104 112 105
f 105 112 113
f 109 114 110
f 110 114 115
f 110 115 116
f 110 116 120
f 110 120 117
f 110 117 111
f 112 118 113
f 113 118 119
f 116 119 120
f 117 120 121
f 118 122 123
f 118 123 119
f 119 123 120
f 120 123 121
f 121 123 124
f 122 124 123

