# https://github.com/mikedh/trimesh
v -0.20806325 -0.50669676 -0.00634342
v -0.24391300 -0.50669676 -0.00619559
v -0.30124523 -0.34897198 -0.00656520
v -0.28311966 -0.34897198 -0.00663909
v -0.28311966 -0.32918037 -0.00671303
v -0.26339775 -0.32918037 -0.00678693
v -0.24362109 -0.32918037 -0.00686087
v -0.20806325 -0.32918037 -0.00693477
v -0.20806325 -0.50669676 0.73401742
v -0.25706701 -0.50669676 -0.00612169
v -0.30124523 -0.38351608 -0.00641736
v -0.29628282 -0.32918037 -0.00663909
v -0.30124523 -0.32918037 -0.00656520
v -0.20806325 -0.32918037 0.53562200
v -0.20806325 -0.50553255 0.73283473
v -0.30124523 -0.32918037 0.63725900
v -0.25678423 -0.50669676 0.74155704
v -0.28311966 -0.50669676 -0.00589991
v -0.28311966 -0.49380354 -0.00597385
v -0.30124523 -0.47568005 -0.00589991
v -0.20806325 -0.41110967 0.62957154
v -0.20806325 -0.50115373 0.72825183
v -0.30124523 -0.50669676 0.74820965
v -0.20806325 -0.49925968 0.72625606
v -0.20806325 -0.48643597 0.71272908
v -0.20806325 -0.47309097 0.69846295
v -0.20806325 -0.46372515 0.68833621
v -0.20806325 -0.45887715 0.68301413
v -0.20806325 -0.44999786 0.67325698
v -0.20806325 -0.44535837 0.66815666
v -0.20806325 -0.44242178 0.66490428
v -0.20806325 -0.43592305 0.65766032
v -0.20806325 -0.43036264 0.65145123
v -0.20806325 -0.42346424 0.64368985
v -0.20806325 -0.41769528 0.63711117
v -0.29657473 -0.50669676 -0.00560424
v -0.30124523 -0.50202254 -0.00560424
v -0.30124523 -0.49380354 -0.00575208
v -0.29628282 -0.49380354 -0.00582601
v -0.30124523 -0.50669676 -0.00538250
f 1 2 3
f 1 3 4
f 1 4 5
f 1 5 6
f 1 6 7
f 1 7 8
f 1 8 14
f 1 14 21
f 1 21 35
f 1 35 34
f 1 34 33
f 1 33 32
f 1 32 31
f 1 31 30
f 1 30 29
f 1 29 28
f 1 28 27
f 1 27 26
f 1 26 25
f 1 25 24
f 1 24 22
f 1 22 15
f 1 15 9
f 1 9 17
f 1 17 23
f 1 23 40
f 1 40 36
f 1 36 18
f 1 18 10
f 1 10 2
f 2 10 11
f 2 11 3
f 3 12 5
f 3 5 4
f 3 11 20
f 3 20 38
f 3 38 37
f 3 37 40
f 3 40 23
f 3 23 16
f 3 16 13
f 3 13 12
f 5 12 13
f 5 13 16
f 5 16 14
f 5 14 8
f 5 8 7
f 5 7 6
f 9 15 16
f 9 16 17
f 10 18 19
f 10 19 11
f 11 19 20
f 14 16 21
f 15 22 16
f 16 23 17
f 16 22 24
f 16 24 25
f 16 25 26
f 16 26 27
f 16 27 28
f 16 28 29
f 16 29 30
f 16 30 31
f 16 31 32
f 16 32 33
f 16 33 34
f 16 34 35
f 16 35 21
f 18 36 37
f 18 37 38
f 18 38 39
f 18 39 20
f 18 20 19
f 20 39 38
f 36 40 37

