# https://github.com/mikedh/trimesh
v 0.28464159 -0.61857749 0.85433210
v 0.28464159 -0.61792041 0.85373926
v 0.20406405 -0.61857749 0.85560250
v 0.28464159 -0.61857749 0.47372057
v 0.28464159 -0.61327696 0.84941990
v -0.13823378 -0.61857749 0.85865146
v 0.28464159 -0.50669676 0.74321453
v 0.28088320 -0.61857749 0.47050222
v 0.28310408 -0.61665004 0.44187589
v 0.28310408 -0.61580674 0.42874844
v 0.28464159 -0.61662814 0.44340037
v -0.15138813 -0.61857749 0.85856677
v -0.29711099 -0.50669676 0.74736450
v 0.28464159 -0.50669676 -0.00428819
v 0.26994973 -0.61857749 0.46279513
v 0.26994973 -0.61731807 0.44187589
v 0.26994973 -0.61651861 0.42874844
v 0.26994973 -0.61568630 0.41570568
v 0.26994973 -0.61484304 0.40249352
v 0.28464159 -0.61577390 0.43027292
v 0.28310408 -0.61491969 0.41570568
v -0.29711099 -0.61834751 0.85721167
v -0.29711099 -0.61857749 0.85729636
v -0.29711099 -0.50669676 -0.00555860
v 0.28464159 -0.50674055 -0.00555860
v 0.28310408 -0.50669676 -0.00564329
v 0.25633978 -0.61857749 0.45695130
v 0.25673843 -0.61695667 0.42874844
v 0.25673843 -0.61616815 0.41570568
v 0.25673843 -0.61533584 0.40249352
v 0.25673843 -0.61271842 0.36302647
v 0.25673843 -0.61183137 0.34981431
v 0.23042973 -0.60308111 0.20498883
v 0.26994973 -0.61302509 0.37615392
v 0.28464159 -0.61487589 0.41714546
v 0.28310408 -0.61398879 0.40249352
v 0.28464159 -0.61477730 0.41570568
v -0.29711099 -0.61857749 0.50658155
v -0.29654154 -0.50669676 -0.00564329
v -0.29711099 -0.50699243 -0.00555860
v 0.28464159 -0.50699243 -0.00555860
v 0.28310408 -0.50699243 -0.00564329
v 0.26994973 -0.50669676 -0.00572798
v 0.25594117 -0.61857749 0.45678190
v 0.24358408 -0.61720854 0.42874844
v 0.24358408 -0.61644197 0.41570568
v 0.23042973 -0.61349599 0.36302647
v 0.23042973 -0.61266368 0.34981431
v 0.24358408 -0.61231322 0.34981431
v 0.23042973 -0.60552329 0.24123755
v 0.23042973 -0.60396817 0.21811630
v 0.21727538 -0.60355201 0.20498883
v 0.21727538 -0.60265396 0.19177667
v 0.23042973 -0.60216116 0.19177667
v 0.26994973 -0.61209419 0.36302647
v 0.24358408 -0.60239114 0.20498883
v 0.28464159 -0.61383550 0.40249352
v 0.28464159 -0.61394499 0.40401800
v 0.28310408 -0.61302509 0.38936607
v 0.28464159 -0.61298125 0.39080586
v -0.29688321 -0.61857749 0.50632747
v -0.29711099 -0.61148091 0.40249352
v -0.29625682 -0.61159044 0.40249352
v -0.26994812 -0.59722204 0.15230962
v -0.25673682 -0.59671825 0.12597003
v -0.25673682 -0.59760535 0.13909750
v -0.29625682 -0.50699243 -0.00564329
v -0.29711099 -0.51934575 -0.00454227
v -0.28338719 -0.50669676 -0.00589736
v 0.28464159 -0.52015616 -0.00462700
v 0.28310408 -0.52015616 -0.00479638
v 0.26994973 -0.52015616 -0.00538921
v 0.26994973 -0.50699243 -0.00572798
v -0.05925073 -0.50669676 -0.00649024
v 0.24358408 -0.61857749 0.45322479
v 0.23042973 -0.61857749 0.45068399
v 0.21727538 -0.61525920 0.38936607
v 0.21727538 -0.61450353 0.37615392
v 0.21727538 -0.61372597 0.36302647
v 0.23042973 -0.61429545 0.37615392
v 0.21727538 -0.61290460 0.34981431
v 0.21727538 -0.61039672 0.31034726
v 0.20406405 -0.60588466 0.23581720
v 0.21260584 -0.60579707 0.23717230
v 0.22143235 -0.60568754 0.23886616
v 0.20406405 -0.60300442 0.19177667
v 0.21727538 -0.60442812 0.21811630
v 0.20406405 -0.60120837 0.16543709
v 0.21727538 -0.60173406 0.17864924
v 0.21727538 -0.60080316 0.16543709
v 0.23042973 -0.60121932 0.17864924
v 0.24358408 -0.60144933 0.19177667
v 0.26994973 -0.61111950 0.34981431
v 0.25673843 -0.60144933 0.20498883
v 0.25673843 -0.60047464 0.19177667
v 0.28310408 -0.61203944 0.37615392
v 0.28464159 -0.61198466 0.37767839
v -0.29044842 -0.61857749 0.50006017
v -0.24358247 -0.59766009 0.12597003
v -0.29711099 -0.60862256 0.36192545
v -0.29625682 -0.60883064 0.36302647
v -0.26994812 -0.59632399 0.13909750
v -0.26994812 -0.59534930 0.12597003
v -0.25673682 -0.59573261 0.11275787
v -0.24358247 -0.59671825 0.11275787
v -0.28310247 -0.52015616 -0.00538921
v -0.28310247 -0.50699243 -0.00589736
v -0.26994812 -0.52015616 -0.00581267
v -0.26994812 -0.53333084 -0.00403412
v -0.29625682 -0.52015616 -0.00445757
v -0.29711099 -0.52023284 -0.00437288
v -0.27023284 -0.50669676 -0.00598205
v -0.24358247 -0.52015616 -0.00615147
v 0.26994973 -0.53333084 -0.00284840
v 0.28464159 -0.53285994 -0.00115454
v 0.25673843 -0.53333084 -0.00361066
v 0.23042973 -0.53333084 -0.00454227
v 0.21727538 -0.53333084 -0.00479638
v 0.19090970 -0.53333084 -0.00521983
v 0.17775535 -0.53333084 -0.00538921
v 0.23042973 -0.52015616 -0.00564329
v -0.07240508 -0.52015616 -0.00649024
v -0.05925073 -0.50699243 -0.00649024
v -0.12507943 -0.50669676 -0.00657493
v 0.22746857 -0.61857749 0.45026053
v 0.20406405 -0.61539059 0.38936607
v 0.20406405 -0.61464591 0.37615392
v 0.20406405 -0.61386835 0.36302647
v 0.20406405 -0.61307983 0.34981431
v 0.20406405 -0.61226942 0.33668686
v 0.20406405 -0.61144806 0.32347472
v 0.20406405 -0.61061575 0.31034726
v 0.19090970 -0.60664033 0.24445588
v 0.19090970 -0.60413245 0.20498883
v 0.19090970 -0.60327824 0.19177667
v 0.20406405 -0.60388053 0.20498883
v 0.19090970 -0.60241304 0.17864924
v 0.19090970 -0.60152598 0.16543709
v 0.19090970 -0.60060603 0.15230962
v 0.20406405 -0.60027751 0.15230962
v 0.20406405 -0.59932472 0.13909750
v 0.21727538 -0.59889761 0.13909750
v 0.23042973 -0.60026656 0.16543709
v 0.23042973 -0.59930282 0.15230962
v 0.23042973 -0.59832813 0.13909750
v 0.24358408 -0.59949995 0.16543709
v 0.24358408 -0.59851430 0.15230962
v 0.24358408 -0.59751771 0.13909750
v 0.25673843 -0.59947805 0.17864924
v 0.28310408 -0.61104285 0.36302647
v 0.28464159 -0.61097716 0.36455095
v -0.28355803 -0.61857749 0.49472449
v -0.24358247 -0.59848146 0.13909750
v -0.23042812 -0.59735343 0.11275787
v -0.23042812 -0.59825148 0.12597003
v -0.29711099 -0.60775740 0.34981431
v -0.29625682 -0.60787785 0.34981431
v -0.28310247 -0.59735343 0.17864924
v -0.28310247 -0.59638973 0.16543709
v -0.28310247 -0.59542599 0.15230962
v -0.28310247 -0.59444034 0.13909750
v -0.27894547 -0.59302760 0.11275787
v -0.27712323 -0.59268809 0.10496610
v -0.26994812 -0.59430891 0.11275787
v -0.25673682 -0.59465937 0.09963041
v -0.24358247 -0.59565596 0.09963041
v -0.23042812 -0.59630209 0.09963041
v -0.25673682 -0.53333084 -0.00488107
v -0.21727377 -0.53333084 -0.00564329
v -0.24358247 -0.53333084 -0.00530452
v -0.25673682 -0.54362528 -0.00149331
v -0.26994812 -0.54246440 -0.00081578
v -0.28412748 -0.53452456 -0.00191680
v -0.29625682 -0.53148004 -0.00132393
v -0.29711099 -0.53128291 -0.00123924
v -0.23042812 -0.52015616 -0.00623616
v -0.21755850 -0.50669676 -0.00632086
v 0.28224987 -0.53359370 -0.00123924
v 0.27729564 -0.54018650 0.00062401
v 0.26994973 -0.54093121 0.00011586
v 0.25673843 -0.54191686 -0.00047702
v 0.28464159 -0.53643015 0.00079339
v 0.24358408 -0.54267248 -0.00090047
v 0.23042973 -0.54338435 -0.00132393
v 0.21727538 -0.54384430 -0.00166273
v 0.20406405 -0.54400858 -0.00183211
v 0.19090970 -0.54410717 -0.00200149
v -0.13823378 -0.53333084 -0.00581267
v 0.17775535 -0.54416191 -0.00208619
v -0.16459943 -0.52015616 -0.00649024
v -0.16488415 -0.50669676 -0.00649024
v 0.21727538 -0.61857749 0.44890544
v 0.19090970 -0.61546727 0.38936607
v 0.19090970 -0.61472256 0.37615392
v 0.19090970 -0.61318933 0.34981431
v 0.19090970 -0.61241180 0.33668686
v 0.19090970 -0.61160139 0.32347472
v 0.17775535 -0.60681556 0.24445588
v 0.17775535 -0.60432957 0.20498883
v 0.17775535 -0.60347536 0.19177667
v 0.17775535 -0.60174501 0.16543709
v 0.17775535 -0.60084700 0.15230962
v 0.19090970 -0.59966423 0.13909750
v 0.20406405 -0.59830623 0.12597003
v 0.21727538 -0.59787912 0.12597003
v 0.23042973 -0.59728774 0.12597003
v 0.24358408 -0.59645543 0.12597003
v 0.25673843 -0.59638973 0.13909750
v 0.25673843 -0.59743012 0.15230962
v 0.25673843 -0.59845956 0.16543709
v 0.26994973 -0.59914949 0.19177667
v 0.26994973 -0.59812005 0.17864924
v 0.28464159 -0.61085667 0.36302647
v -0.26994812 -0.61857749 0.48684801
v -0.21727377 -0.59671825 0.09963041
v -0.21727377 -0.59774769 0.11275787
v -0.21727377 -0.59863479 0.12597003
v -0.23042812 -0.59903999 0.13909750
v -0.29711099 -0.60604894 0.32643899
v -0.28993592 -0.59264429 0.13181387
v -0.28338719 -0.59341090 0.12681694
v -0.29711099 -0.60557804 0.32017167
v -0.28794281 -0.59225003 0.12300577
v -0.28213441 -0.59125344 0.10013859
v -0.27438985 -0.59229383 0.09615799
v -0.27000506 -0.59324662 0.10013859
v -0.28555113 -0.59179008 0.11275787
v -0.26562028 -0.59288521 0.09014477
v -0.25702155 -0.59332327 0.08599483
v -0.24358247 -0.59437465 0.08641829
v -0.23042812 -0.59503173 0.08641829
v -0.21727377 -0.59546978 0.08641829
v -0.24358247 -0.54431525 -0.00174742
v -0.20406248 -0.53333084 -0.00572798
v -0.21727377 -0.54493948 -0.00208619
v -0.23042812 -0.54474235 -0.00200149
v -0.24358247 -0.55090804 0.00265663
v -0.25673682 -0.55020716 0.00333420
v -0.28048301 -0.54111739 0.00003117
v -0.26994812 -0.54904629 0.00443518
v -0.28925258 -0.53971559 0.00096277
v -0.29711099 -0.53736100 0.00197910
v -0.19090813 -0.52015616 -0.00640555
v 0.28464159 -0.54082168 0.00409642
v 0.28464159 -0.56142150 0.02255954
v 0.28429992 -0.57310679 0.03323093
v 0.27991514 -0.56711629 0.02645545
v 0.26994973 -0.57478236 0.03119826
v 0.25673843 -0.54849870 0.00511275
v 0.24358408 -0.54925437 0.00426580
v 0.25673843 -0.57585560 0.03018197
v 0.23042973 -0.54996620 0.00367296
v 0.21727538 -0.55042619 0.00324951
v 0.20406405 -0.55059047 0.00316482
v -0.17775378 -0.53333084 -0.00581267
v -0.16459943 -0.54498328 -0.00217088
v -0.19090813 -0.54502707 -0.00217088
v 0.19090970 -0.55068901 0.00316482
v -0.16459943 -0.55156512 0.00206379
v -0.19090813 -0.55160896 0.00197910
v 0.21277667 -0.61857749 0.44848196
v 0.17775535 -0.61548917 0.38936607
v 0.17775535 -0.61475540 0.37615392
v 0.20406405 -0.61857749 0.44771972
v 0.17775535 -0.61399974 0.36302647
v 0.17775535 -0.61323316 0.34981431
v 0.17775535 -0.61246655 0.33668686
v 0.17775535 -0.61168898 0.32347472
v 0.17775535 -0.61090047 0.31034726
v 0.17775535 -0.60926870 0.28400765
v 0.16460101 -0.60570947 0.22531523
v 0.16460101 -0.60441717 0.20498883
v 0.16460101 -0.60357391 0.19177667
v 0.16460101 -0.60185454 0.16543709
v 0.16460101 -0.60097839 0.15230962
v 0.16460101 -0.60005848 0.13909750
v 0.17775535 -0.59990515 0.13909750
v 0.17775535 -0.59890856 0.12597003
v 0.19090970 -0.59864574 0.12597003
v 0.20406405 -0.59717820 0.11275787
v 0.21727538 -0.59676205 0.11275787
v 0.23042973 -0.59617066 0.11275787
v 0.24358408 -0.59532740 0.11275787
v 0.25673843 -0.59419942 0.11275787
v 0.25673843 -0.59531645 0.12597003
v 0.26994973 -0.59705776 0.16543709
v 0.28464159 -0.60992578 0.35133879
v -0.26584806 -0.61857749 0.48506946
v -0.20406248 -0.59697013 0.09963041
v -0.20406248 -0.59799957 0.11275787
v -0.20406248 -0.59885381 0.12597003
v -0.24483526 -0.61857749 0.47803992
v -0.25730627 -0.61857749 0.48176642
v -0.25753405 -0.61857749 0.48185111
v -0.29625682 -0.59695918 0.20498883
v -0.29625682 -0.59592974 0.19177667
v -0.29711099 -0.59463747 0.17771760
v -0.29711099 -0.59367373 0.16594523
v -0.29711099 -0.59291806 0.15679836
v -0.29711099 -0.59218433 0.14807495
v -0.29711099 -0.59139582 0.13909750
v -0.29711099 -0.59112205 0.13613323
v -0.29511793 -0.59079349 0.12681694
v -0.29625682 -0.58915076 0.11275787
v -0.29711099 -0.60282919 0.28400765
v -0.29625682 -0.59998180 0.24445588
v -0.28310247 -0.58959977 0.08641829
v -0.27000506 -0.59184483 0.08599483
v -0.29625682 -0.58780371 0.09963041
v -0.26157717 -0.59241431 0.08133667
v -0.25280760 -0.59280857 0.07820302
v -0.24358247 -0.59312614 0.07591632
v -0.23020035 -0.59332327 0.07244391
v -0.21727377 -0.59387086 0.07329082
v -0.20406248 -0.59572166 0.08641829
v -0.20406248 -0.59413368 0.07329082
v -0.23042812 -0.55132420 0.00223318
v -0.21727377 -0.55152132 0.00206379
v -0.24358247 -0.55779655 0.00917804
v -0.25673682 -0.55707377 0.00994026
v -0.26994812 -0.55592385 0.01104128
v -0.28412748 -0.54590318 0.00519744
v -0.28310247 -0.55427017 0.01281983
v -0.29625682 -0.53807287 0.00214849
v -0.29711099 -0.53778811 0.00223318
v -0.29010675 -0.55324073 0.01383617
v -0.29517487 -0.54692167 0.00968619
v -0.29711099 -0.54637412 0.00985557
v 0.28464159 -0.57261395 0.03289212
v 0.28464159 -0.57305200 0.03331562
v 0.27991514 -0.58031287 0.03907473
v 0.26994973 -0.58138615 0.03780436
v 0.25673843 -0.58236080 0.03670334
v 0.24358408 -0.57653462 0.02958910
v 0.23042973 -0.57691789 0.02933502
v 0.21727538 -0.57713696 0.02916564
v 0.20406405 -0.57722455 0.02908095
v -0.13823378 -0.57898776 0.02755647
v -0.15138813 -0.57905345 0.02755647
v -0.16459943 -0.57905345 0.02755647
v -0.17775378 -0.57900966 0.02755647
v 0.16460101 -0.61547822 0.38936607
v 0.16460101 -0.61475540 0.37615392
v 0.19090970 -0.61857749 0.44738096
v 0.17775535 -0.61619005 0.40249352
v 0.16460101 -0.61619005 0.40249352
v 0.16460101 -0.61401073 0.36302647
v 0.16460101 -0.61325506 0.34981431
v 0.16460101 -0.61173278 0.32347472
v 0.16460101 -0.61015575 0.29713510
v 0.16460101 -0.60934534 0.28400765
v 0.15138972 -0.60527138 0.21811630
v 0.15138972 -0.60443907 0.20498883
v 0.13823537 -0.60106603 0.15230962
v 0.15138972 -0.60104413 0.15230962
v 0.15138972 -0.60014608 0.13909750
v 0.15138972 -0.59917139 0.12597003
v 0.16460101 -0.59907284 0.12597003
v 0.16460101 -0.59797767 0.11275787
v 0.17775535 -0.59779149 0.11275787
v 0.19090970 -0.59751771 0.11275787
v 0.20406405 -0.59589689 0.09963041
v 0.21727538 -0.59551358 0.09963041
v 0.23042973 -0.59495508 0.09963041
v 0.24358408 -0.59412273 0.09963041
v 0.25155639 -0.59272093 0.09175394
v 0.25622589 -0.59308234 0.10013859
v 0.26431212 -0.59270998 0.10488141
v 0.26994973 -0.59598452 0.15230962
v 0.28310408 -0.59730964 0.19177667
v 0.28464159 -0.59712346 0.19330115
v -0.19090813 -0.59710156 0.09963041
v -0.19090813 -0.59814195 0.11275787
v -0.19090813 -0.59899616 0.12597003
v -0.19090813 -0.59976277 0.13909750
v -0.20406248 -0.59960944 0.13909750
v -0.24358247 -0.61857749 0.47770114
v -0.29711099 -0.59676205 0.20498883
v -0.29711099 -0.59979562 0.24445588
v -0.29711099 -0.59878808 0.23132846
v -0.29711099 -0.58887695 0.11275787
v -0.29625682 -0.58630337 0.08641829
v -0.28310247 -0.58791324 0.07329082
v -0.26994812 -0.59024590 0.07329082
v -0.29711099 -0.58752994 0.09963041
v -0.25673682 -0.58987354 0.06007866
v -0.25702155 -0.59179008 0.07362958
v -0.24358247 -0.59096872 0.06007866
v -0.23441429 -0.59246906 0.06744698
v -0.23020035 -0.59183388 0.06109499
v -0.21727377 -0.59196531 0.05846949
v -0.20406248 -0.59210765 0.05736851
v -0.19090813 -0.59585309 0.08641829
v -0.19090813 -0.59427606 0.07329082
v -0.23042812 -0.55822365 0.00883924
v -0.20406248 -0.57885632 0.02772585
v -0.19090813 -0.57897681 0.02764116
v -0.23042812 -0.57834159 0.02831869
v -0.24358247 -0.57780499 0.02882688
v -0.25673682 -0.57698362 0.02975848
v -0.26994812 -0.56919707 0.02433813
v -0.28310247 -0.56754340 0.02594730
v -0.29033453 -0.56648111 0.02696359
v -0.29460542 -0.55904501 0.02120448
v -0.29711099 -0.55474108 0.01790142
v -0.29711099 -0.54932006 0.01265045
v 0.28464159 -0.57351200 0.03390846
v 0.28464159 -0.58064143 0.04618897
v 0.26994973 -0.58403641 0.04695123
v 0.25673843 -0.58597481 0.04695123
v 0.24358408 -0.58714663 0.04695123
v 0.24358408 -0.58295219 0.03619519
v 0.23042973 -0.58333549 0.03585639
v 0.21727538 -0.58355452 0.03568701
v 0.19090970 -0.58376260 0.03560232
v -0.15138813 -0.58452921 0.03407784
v -0.16459943 -0.58448542 0.03407784
v 0.15138972 -0.61473351 0.37615392
v 0.15138972 -0.61324411 0.34981431
v 0.17775535 -0.61857749 0.44746565
v 0.15138972 -0.61614625 0.40249352
v 0.15138972 -0.61544537 0.38936607
v 0.16460101 -0.61857749 0.44780443
v 0.15987456 -0.61857749 0.44797381
v 0.15138972 -0.61857749 0.44839727
v 0.14728966 -0.61857749 0.44865136
v 0.15138972 -0.61248845 0.33668686
v 0.15138972 -0.61172183 0.32347472
v 0.15138972 -0.61094427 0.31034726
v 0.15138972 -0.61014484 0.29713510
v -0.01973073 -0.60024466 0.13909750
v 0.01973232 -0.60026656 0.13909750
v 0.04604102 -0.60027751 0.13909750
v 0.07240667 -0.60027751 0.13909750
v 0.09871537 -0.60025561 0.13909750
v 0.12508101 -0.60022273 0.13909750
v 0.13823537 -0.60018988 0.13909750
v 0.13823537 -0.59923712 0.12597003
v 0.13823537 -0.59816385 0.11275787
v 0.15138972 -0.59808720 0.11275787
v 0.15138972 -0.59676205 0.09963041
v 0.16460101 -0.59664160 0.09963041
v 0.17775535 -0.59644448 0.09963041
v 0.19090970 -0.59619260 0.09963041
v 0.20406405 -0.59436370 0.08641829
v 0.21727538 -0.59404609 0.08641829
v 0.23151168 -0.59336711 0.08523257
v 0.23663675 -0.59255669 0.07998161
v 0.24358408 -0.59302760 0.08887437
v 0.24358408 -0.59231573 0.08226831
v 0.25622589 -0.59172438 0.08701112
v 0.26032595 -0.59226098 0.09607330
v 0.26994973 -0.58989544 0.08641829
v 0.26915246 -0.59148342 0.10013859
v 0.27342336 -0.59211860 0.11275787
v 0.27581508 -0.59248001 0.12046496
v 0.26681773 -0.59306044 0.11275787
v 0.26994973 -0.59488935 0.13909750
v 0.27809286 -0.59287426 0.12918837
v 0.28310408 -0.59621450 0.17864924
v 0.28464159 -0.59590784 0.17864924
v -0.17775378 -0.59720014 0.09963041
v -0.17775378 -0.59824053 0.11275787
v -0.17775378 -0.59910569 0.12597003
v -0.17775378 -0.59986136 0.13909750
v -0.21727377 -0.61857749 0.47295833
v -0.23042812 -0.61857749 0.47482157
v -0.29711099 -0.58588721 0.08540196
v -0.29711099 -0.58424449 0.07329082
v -0.29625682 -0.58451826 0.07329082
v -0.29711099 -0.58601861 0.08650298
v -0.28310247 -0.58571198 0.06007866
v -0.26994812 -0.58821987 0.06007866
v -0.25673682 -0.58717948 0.04695123
v -0.24358247 -0.58849368 0.04695123
v -0.23042812 -0.58940264 0.04695123
v -0.21727377 -0.58999402 0.04695123
v -0.20406248 -0.59034448 0.04695123
v -0.19090813 -0.59048682 0.04695123
v -0.19090813 -0.59216244 0.05686032
v -0.17775378 -0.59595164 0.08641829
v -0.17775378 -0.59436370 0.07329082
v -0.21727377 -0.57864825 0.02797993
v -0.19090813 -0.58432114 0.03416253
v -0.20406248 -0.58423354 0.03433191
v -0.21727377 -0.58402546 0.03450129
v -0.23042812 -0.58366405 0.03484010
v -0.24358247 -0.58316026 0.03543294
v -0.25673682 -0.58243749 0.03636458
v -0.26994812 -0.58139710 0.03763494
v -0.26994812 -0.57577895 0.03111357
v -0.28384275 -0.57501234 0.03433191
v -0.29711099 -0.56521074 0.02823400
v -0.29711099 -0.56222097 0.02526973
v -0.29534570 -0.57034699 0.03331562
v 0.28464159 -0.58512060 0.07320613
v 0.28310408 -0.58555865 0.07329082
v 0.26994973 -0.58816512 0.07329082
v 0.25673843 -0.58991738 0.07329082
v 0.23042973 -0.58785846 0.04695123
v 0.24358408 -0.59105631 0.07329082
v 0.21727538 -0.58826370 0.04695123
v 0.20406405 -0.58849368 0.04695123
v 0.20406405 -0.58368595 0.03568701
v 0.19090970 -0.58861412 0.04695123
v -0.13823378 -0.59073874 0.04695123
v -0.15138813 -0.59080444 0.04695123
v -0.16459943 -0.59074969 0.04695123
v 0.12508101 -0.61464591 0.37615392
v 0.13823537 -0.61395594 0.36302647
v 0.13823537 -0.61321126 0.34981431
v 0.13823537 -0.61610246 0.40249352
v 0.12508101 -0.61535774 0.38936607
v -0.17775378 -0.61857749 0.46940121
v 0.13823537 -0.61245560 0.33668686
v 0.13823537 -0.61168898 0.32347472
v 0.13823537 -0.61091142 0.31034726
v -0.13823378 -0.59926997 0.12597003
v -0.11192508 -0.60011323 0.13909750
v -0.08555944 -0.60016798 0.13909750
v -0.07240508 -0.60018988 0.13909750
v -0.07240508 -0.59937946 0.12597003
v -0.05925073 -0.59939041 0.12597003
v -0.03288509 -0.59941231 0.12597003
v 0.01973232 -0.59941231 0.12597003
v 0.04604102 -0.59940136 0.12597003
v 0.05925232 -0.59939041 0.12597003
v 0.08556102 -0.59936852 0.12597003
v 0.09871537 -0.59934662 0.12597003
v 0.11192666 -0.59931377 0.12597003
v 0.12508101 -0.59928092 0.12597003
v 0.12508101 -0.59822958 0.11275787
v 0.12508101 -0.59692633 0.09963041
v 0.13823537 -0.59684968 0.09963041
v 0.13823537 -0.59519601 0.08641829
v 0.15138972 -0.59508648 0.08641829
v 0.16460101 -0.59496603 0.08641829
v 0.17775535 -0.59481270 0.08641829
v 0.19090970 -0.59460462 0.08641829
v 0.21727538 -0.59291806 0.07786425
v 0.22786718 -0.59274287 0.07888059
v 0.28310408 -0.58735471 0.08641829
v 0.28310408 -0.58888794 0.09963041
v 0.28310408 -0.59031163 0.11275787
v 0.28270547 -0.59161485 0.12529246
v 0.28464159 -0.59181198 0.13139038
v 0.28464159 -0.59252384 0.13909750
v 0.28464159 -0.59368468 0.15222493
v 0.28042764 -0.59331232 0.13909750
v 0.28310408 -0.59510837 0.16543709
v 0.28464159 -0.59494409 0.16713095
v -0.16459943 -0.59726584 0.09963041
v -0.16459943 -0.59832813 0.11275787
v -0.16459943 -0.59918234 0.12597003
v -0.16459943 -0.59993800 0.13909750
v -0.20406248 -0.61857749 0.47151854
v -0.29711099 -0.58408021 0.07227449
v -0.29711099 -0.58201038 0.06067154
v -0.29711099 -0.58178036 0.05940113
v -0.29335264 -0.58057573 0.04991550
v -0.28384275 -0.58197749 0.04610428
v -0.26994812 -0.58525203 0.04695123
v -0.17775378 -0.59220623 0.05652156
v -0.16459943 -0.59599547 0.08641829
v -0.16459943 -0.59439655 0.07329082
v -0.16459943 -0.59225003 0.05626749
v -0.27997051 -0.58032382 0.03907473
v -0.29711099 -0.57013891 0.03382377
v -0.28874008 -0.57911915 0.04110739
v 0.28464159 -0.58536152 0.07481530
v 0.28464159 -0.58694950 0.08641829
v 0.20406405 -0.59304949 0.07718673
v 0.11192666 -0.59537124 0.08641829
v -0.15138813 -0.59227193 0.05618279
v 0.11192666 -0.61459112 0.37615392
v -0.19090813 -0.61857749 0.47033283
v 0.11192666 -0.61310173 0.34981431
v -0.15138813 -0.59999275 0.13909750
v -0.15138813 -0.59923712 0.12597003
v 0.12508101 -0.61164519 0.32347472
v -0.15138813 -0.59837192 0.11275787
v -0.11192508 -0.59932472 0.12597003
v -0.09871379 -0.59934662 0.12597003
v -0.11192508 -0.59842671 0.11275787
v -0.09871379 -0.59843766 0.11275787
v -0.01973073 -0.59843766 0.11275787
v 0.05925232 -0.59837192 0.11275787
v 0.07240667 -0.59836097 0.11275787
v 0.08556102 -0.59833908 0.11275787
v 0.11192666 -0.59827338 0.11275787
v 0.11192666 -0.59698107 0.09963041
v 0.28464159 -0.58713568 0.08794277
v 0.28464159 -0.58850463 0.09963041
v 0.28464159 -0.58867986 0.10115488
v 0.28464159 -0.59009261 0.11428235
v 0.28464159 -0.59480175 0.16543709
v -0.13823378 -0.59733153 0.09963041
v -0.29711099 -0.57998435 0.05186343
v -0.15138813 -0.59602832 0.08641829
v -0.15138813 -0.59440749 0.07329082
v -0.12507943 -0.59606117 0.08641829
v -0.13823378 -0.59605022 0.08641829
v -0.29711099 -0.57798022 0.04601959
v 0.07240667 -0.59553548 0.08641829
v -0.08555944 -0.59600642 0.08641829
v -0.09871379 -0.59603927 0.08641829
v -0.11192508 -0.59606117 0.08641829
v -0.13823378 -0.59839382 0.11275787
v -0.12507943 -0.59735343 0.09963041
v -0.11192508 -0.59735343 0.09963041
v -0.09871379 -0.59734248 0.09963041
v -0.08555944 -0.59733153 0.09963041
v 0.05925232 -0.59712346 0.09963041
v 0.07240667 -0.59710156 0.09963041
v 0.08556102 -0.59706871 0.09963041
f 1 2 3
f 1 3 6
f 1 6 12
f 1 12 23
f 1 23 38
f 1 38 61
f 1 61 98
f 1 98 152
f 1 152 214
f 1 214 288
f 1 288 294
f 1 294 293
f 1 293 292
f 1 292 377
f 1 377 467
f 1 467 466
f 1 466 556
f 1 556 576
f 1 576 514
f 1 514 426
f 1 426 425
f 1 425 424
f 1 424 423
f 1 423 420
f 1 420 344
f 1 344 264
f 1 264 261
f 1 261 192
f 1 192 125
f 1 125 76
f 1 76 75
f 1 75 44
f 1 44 27
f 1 27 15
f 1 15 8
f 1 8 4
f 1 4 11
f 1 11 20
f 1 20 35
f 1 35 37
f 1 37 58
f 1 58 57
f 1 57 60
f 1 60 97
f 1 97 151
f 1 151 213
f 1 213 287
f 1 287 371
f 1 371 461
f 1 461 551
f 1 551 596
f 1 596 548
f 1 548 547
f 1 547 546
f 1 546 595
f 1 595 594
f 1 594 593
f 1 593 592
f 1 592 571
f 1 571 570
f 1 570 496
f 1 496 408
f 1 408 407
f 1 407 330
f 1 330 329
f 1 329 245
f 1 245 244
f 1 244 182
f 1 182 115
f 1 115 70
f 1 70 41
f 1 41 25
f 1 25 14
f 1 14 7
f 1 7 5
f 1 5 2
f 2 5 3
f 3 5 7
f 3 7 6
f 4 8 9
f 4 9 10
f 4 10 11
f 6 7 13
f 6 13 12
f 7 14 26
f 7 26 43
f 7 43 74
f 7 74 124
f 7 124 191
f 7 191 177
f 7 177 112
f 7 112 69
f 7 69 39
f 7 39 24
f 7 24 13
f 8 15 16
f 8 16 17
f 8 17 9
f 9 17 18
f 9 18 19
f 9 19 10
f 10 20 11
f 10 19 21
f 10 21 20
f 12 22 23
f 12 13 22
f 13 24 40
f 13 40 68
f 13 68 111
f 13 111 175
f 13 175 242
f 13 242 325
f 13 325 328
f 13 328 406
f 13 406 405
f 13 405 494
f 13 494 493
f 13 493 568
f 13 568 603
f 13 603 598
f 13 598 559
f 13 559 558
f 13 558 557
f 13 557 469
f 13 469 468
f 13 468 471
f 13 471 385
f 13 385 381
f 13 381 302
f 13 302 301
f 13 301 300
f 13 300 299
f 13 299 298
f 13 298 297
f 13 297 378
f 13 378 380
f 13 380 379
f 13 379 305
f 13 305 222
f 13 222 219
f 13 219 156
f 13 156 100
f 13 100 62
f 13 62 38
f 13 38 23
f 13 23 22
f 14 25 26
f 15 27 28
f 15 28 16
f 16 28 29
f 16 29 17
f 17 29 30
f 17 30 18
f 18 30 19
f 19 30 31
f 19 31 32
f 19 32 33
f 19 33 34
f 19 34 21
f 20 21 35
f 21 34 36
f 21 36 37
f 21 37 35
f 24 39 40
f 25 41 42
f 25 42 26
f 26 42 73
f 26 73 43
f 27 44 28
f 28 45 46
f 28 46 29
f 28 44 45
f 29 46 47
f 29 47 48
f 29 48 30
f 30 48 49
f 30 49 31
f 31 49 50
f 31 50 32
f 32 50 51
f 32 51 33
f 33 51 52
f 33 52 53
f 33 53 54
f 33 54 34
f 34 55 36
f 34 54 56
f 34 56 55
f 36 57 58
f 36 58 37
f 36 55 59
f 36 59 60
f 36 60 57
f 38 62 63
f 38 63 64
f 38 64 65
f 38 65 66
f 38 66 61
f 39 67 68
f 39 68 40
f 39 69 107
f 39 107 67
f 41 70 71
f 41 71 42
f 42 71 72
f 42 72 73
f 43 73 123
f 43 123 74
f 44 75 45
f 45 75 76
f 45 76 77
f 45 77 78
f 45 78 46
f 46 78 79
f 46 79 80
f 46 80 47
f 47 80 79
f 47 79 81
f 47 81 48
f 48 81 82
f 48 82 83
f 48 83 84
f 48 84 85
f 48 85 49
f 49 85 50
f 50 85 51
f 51 85 52
f 52 86 53
f 52 85 87
f 52 87 86
f 53 86 88
f 53 88 89
f 53 89 54
f 54 89 90
f 54 90 91
f 54 91 92
f 54 92 56
f 55 93 59
f 55 56 92
f 55 92 94
f 55 94 95
f 55 95 93
f 59 93 95
f 59 95 96
f 59 96 60
f 60 96 150
f 60 150 97
f 61 66 99
f 61 99 98
f 62 100 101
f 62 101 63
f 63 101 102
f 63 102 64
f 64 102 65
f 65 99 66
f 65 102 103
f 65 103 104
f 65 104 105
f 65 105 99
f 67 106 68
f 67 107 108
f 67 108 106
f 68 109 110
f 68 110 111
f 68 106 109
f 69 112 176
f 69 176 113
f 69 113 107
f 70 114 71
f 70 115 114
f 71 114 116
f 71 116 72
f 72 116 117
f 72 117 118
f 72 118 119
f 72 119 120
f 72 120 121
f 72 121 73
f 73 121 122
f 73 122 123
f 74 123 124
f 76 125 126
f 76 126 77
f 77 126 127
f 77 127 78
f 78 127 128
f 78 128 79
f 79 128 129
f 79 129 130
f 79 130 131
f 79 131 81
f 81 131 132
f 81 132 83
f 81 83 82
f 83 132 133
f 83 133 134
f 83 134 135
f 83 135 136
f 83 136 84
f 84 136 87
f 84 87 85
f 86 87 136
f 86 136 137
f 86 137 138
f 86 138 88
f 88 138 139
f 88 139 140
f 88 140 90
f 88 90 89
f 90 140 141
f 90 141 142
f 90 142 143
f 90 143 91
f 91 143 92
f 92 143 144
f 92 144 145
f 92 145 146
f 92 146 95
f 92 95 94
f 95 146 147
f 95 147 148
f 95 148 149
f 95 149 150
f 95 150 96
f 97 150 151
f 98 99 153
f 98 153 152
f 99 105 154
f 99 154 155
f 99 155 153
f 100 156 101
f 101 156 157
f 101 157 102
f 102 158 159
f 102 159 160
f 102 160 103
f 102 157 158
f 103 160 161
f 103 161 162
f 103 162 163
f 103 163 164
f 103 164 104
f 104 164 165
f 104 165 166
f 104 166 105
f 105 166 167
f 105 167 154
f 106 168 109
f 106 108 170
f 106 170 168
f 107 113 108
f 108 113 169
f 108 169 170
f 109 111 110
f 109 168 171
f 109 171 172
f 109 172 173
f 109 173 174
f 109 174 111
f 111 174 175
f 112 177 176
f 113 176 169
f 114 115 178
f 114 178 179
f 114 179 180
f 114 180 181
f 114 181 116
f 115 182 179
f 115 179 178
f 116 181 183
f 116 183 184
f 116 184 185
f 116 185 117
f 117 185 118
f 118 185 186
f 118 186 119
f 119 186 187
f 119 187 120
f 120 188 122
f 120 122 121
f 120 187 189
f 120 189 188
f 122 188 255
f 122 255 190
f 122 190 124
f 122 124 123
f 124 190 191
f 125 192 126
f 126 193 194
f 126 194 127
f 126 192 193
f 127 194 195
f 127 195 196
f 127 196 128
f 128 196 129
f 129 196 197
f 129 197 130
f 130 197 131
f 131 197 198
f 131 198 199
f 131 199 133
f 131 133 132
f 133 199 134
f 134 199 200
f 134 200 135
f 135 200 201
f 135 201 137
f 135 137 136
f 137 201 138
f 138 201 202
f 138 202 139
f 139 202 277
f 139 277 203
f 139 203 140
f 140 203 141
f 141 203 279
f 141 279 204
f 141 204 205
f 141 205 142
f 142 205 145
f 142 145 144
f 142 144 143
f 145 205 206
f 145 206 148
f 145 148 147
f 145 147 146
f 148 206 207
f 148 207 208
f 148 208 209
f 148 209 210
f 148 210 149
f 149 210 150
f 150 210 211
f 150 211 212
f 150 212 151
f 151 212 213
f 152 153 155
f 152 155 214
f 154 167 215
f 154 215 216
f 154 216 155
f 155 216 217
f 155 217 218
f 155 218 214
f 156 219 159
f 156 159 158
f 156 158 157
f 159 219 160
f 160 219 161
f 161 220 221
f 161 221 162
f 161 219 222
f 161 222 220
f 162 221 220
f 162 220 223
f 162 223 163
f 163 224 225
f 163 225 226
f 163 226 164
f 163 223 227
f 163 227 224
f 164 226 165
f 165 228 229
f 165 229 166
f 165 226 228
f 166 229 230
f 166 230 231
f 166 231 167
f 167 231 232
f 167 232 215
f 168 170 233
f 168 233 171
f 169 234 235
f 169 235 236
f 169 236 170
f 169 176 234
f 170 236 233
f 171 233 237
f 171 237 238
f 171 238 172
f 172 239 173
f 172 238 240
f 172 240 239
f 173 239 174
f 174 239 241
f 174 241 175
f 175 241 242
f 176 177 243
f 176 243 234
f 177 191 190
f 177 190 243
f 179 182 244
f 179 244 245
f 179 245 246
f 179 246 247
f 179 247 248
f 179 248 180
f 180 249 250
f 180 250 181
f 180 248 251
f 180 251 249
f 181 250 252
f 181 252 183
f 183 252 184
f 184 252 253
f 184 253 185
f 185 253 186
f 186 253 187
f 187 253 254
f 187 254 189
f 188 189 256
f 188 256 257
f 188 257 255
f 189 254 258
f 189 258 259
f 189 259 260
f 189 260 256
f 190 255 234
f 190 234 243
f 192 261 193
f 193 262 263
f 193 263 194
f 193 261 264
f 193 264 262
f 194 263 265
f 194 265 266
f 194 266 195
f 195 266 267
f 195 267 268
f 195 268 196
f 196 268 269
f 196 269 197
f 197 269 270
f 197 270 198
f 198 270 271
f 198 271 199
f 199 272 273
f 199 273 200
f 199 271 272
f 200 273 274
f 200 274 201
f 201 274 275
f 201 275 202
f 202 275 276
f 202 276 277
f 203 277 278
f 203 278 279
f 204 279 361
f 204 361 280
f 204 280 281
f 204 281 205
f 205 281 282
f 205 282 206
f 206 282 207
f 207 282 283
f 207 283 284
f 207 284 285
f 207 285 208
f 208 285 369
f 208 369 286
f 208 286 212
f 208 212 209
f 209 212 211
f 209 211 210
f 212 286 287
f 212 287 213
f 214 218 217
f 214 217 288
f 215 289 290
f 215 290 216
f 215 232 315
f 215 315 289
f 216 290 217
f 217 290 291
f 217 291 292
f 217 292 293
f 217 293 294
f 217 294 288
f 220 295 296
f 220 296 297
f 220 297 298
f 220 298 299
f 220 299 300
f 220 300 301
f 220 301 302
f 220 302 303
f 220 303 304
f 220 304 223
f 220 222 305
f 220 305 306
f 220 306 295
f 223 304 227
f 224 227 307
f 224 307 225
f 225 228 226
f 225 307 308
f 225 308 228
f 227 304 309
f 227 309 307
f 228 308 310
f 228 310 229
f 229 310 311
f 229 311 230
f 230 311 312
f 230 312 231
f 231 312 313
f 231 313 314
f 231 314 232
f 232 314 316
f 232 316 315
f 233 236 317
f 233 317 237
f 234 257 235
f 234 255 257
f 235 257 260
f 235 260 318
f 235 318 236
f 236 318 317
f 237 317 319
f 237 319 238
f 238 319 320
f 238 320 321
f 238 321 240
f 239 240 241
f 240 322 241
f 240 321 323
f 240 323 322
f 241 324 325
f 241 325 242
f 241 322 326
f 241 326 327
f 241 327 328
f 241 328 324
f 245 329 246
f 246 248 247
f 246 329 330
f 246 330 331
f 246 331 248
f 248 331 332
f 248 332 251
f 249 251 250
f 250 251 252
f 251 332 333
f 251 333 334
f 251 334 252
f 252 334 253
f 253 334 335
f 253 335 336
f 253 336 254
f 254 336 337
f 254 337 338
f 254 338 258
f 256 260 257
f 258 338 259
f 259 338 260
f 260 338 339
f 260 339 340
f 260 340 341
f 260 341 318
f 262 342 343
f 262 343 263
f 262 264 344
f 262 344 345
f 262 345 346
f 262 346 342
f 263 343 347
f 263 347 348
f 263 348 265
f 265 348 349
f 265 349 266
f 266 349 267
f 267 349 268
f 268 349 350
f 268 350 269
f 269 350 351
f 269 351 271
f 269 271 270
f 271 351 352
f 271 352 353
f 271 353 272
f 272 353 273
f 273 353 354
f 273 354 355
f 273 355 274
f 274 355 275
f 275 355 356
f 275 356 276
f 276 356 357
f 276 357 358
f 276 358 277
f 277 358 278
f 278 358 359
f 278 359 360
f 278 360 279
f 279 360 361
f 280 361 362
f 280 362 363
f 280 363 281
f 281 363 364
f 281 364 282
f 282 364 365
f 282 365 283
f 283 365 366
f 283 366 284
f 284 366 367
f 284 367 368
f 284 368 285
f 285 368 369
f 286 370 287
f 286 369 370
f 287 370 371
f 289 315 393
f 289 393 372
f 289 372 373
f 289 373 290
f 290 373 374
f 290 374 291
f 291 374 375
f 291 375 376
f 291 376 377
f 291 377 292
f 295 378 297
f 295 297 296
f 295 306 305
f 295 305 379
f 295 379 380
f 295 380 378
f 302 381 304
f 302 304 303
f 304 381 385
f 304 385 309
f 307 382 383
f 307 383 384
f 307 384 308
f 307 309 382
f 308 384 310
f 309 385 382
f 310 384 386
f 310 386 387
f 310 387 311
f 311 387 386
f 311 386 388
f 311 388 312
f 312 389 313
f 312 388 390
f 312 390 389
f 313 389 390
f 313 390 391
f 313 391 314
f 314 391 392
f 314 392 316
f 315 316 394
f 315 394 393
f 316 392 394
f 317 395 319
f 317 318 396
f 317 396 395
f 318 341 397
f 318 397 396
f 319 395 398
f 319 398 399
f 319 399 320
f 320 399 400
f 320 400 321
f 321 400 401
f 321 401 402
f 321 402 323
f 322 323 326
f 323 402 403
f 323 403 326
f 324 328 325
f 326 404 405
f 326 405 406
f 326 406 328
f 326 328 327
f 326 403 404
f 330 407 331
f 331 407 408
f 331 408 409
f 331 409 410
f 331 410 332
f 332 410 333
f 333 410 411
f 333 411 412
f 333 412 334
f 334 412 413
f 334 413 335
f 335 413 414
f 335 414 336
f 336 414 337
f 337 414 415
f 337 415 338
f 338 415 416
f 338 416 339
f 339 416 340
f 340 416 417
f 340 417 341
f 341 417 397
f 342 418 343
f 342 346 418
f 343 418 419
f 343 419 347
f 344 420 346
f 344 346 345
f 346 421 422
f 346 422 418
f 346 420 423
f 346 423 424
f 346 424 425
f 346 425 426
f 346 426 421
f 347 419 348
f 348 419 427
f 348 427 349
f 349 428 429
f 349 429 350
f 349 427 428
f 350 430 352
f 350 352 351
f 350 429 430
f 352 430 431
f 352 431 432
f 352 432 433
f 352 433 434
f 352 434 353
f 353 434 435
f 353 435 354
f 354 435 436
f 354 436 355
f 355 436 437
f 355 437 356
f 356 437 531
f 356 531 438
f 356 438 357
f 357 438 532
f 357 532 439
f 357 439 440
f 357 440 358
f 358 440 359
f 359 440 441
f 359 441 442
f 359 442 360
f 360 442 443
f 360 443 444
f 360 444 361
f 361 444 362
f 362 444 445
f 362 445 446
f 362 446 363
f 363 446 447
f 363 447 364
f 364 447 448
f 364 448 449
f 364 449 365
f 365 449 366
f 366 449 450
f 366 450 451
f 366 451 452
f 366 452 367
f 367 452 368
f 368 452 453
f 368 453 454
f 368 454 455
f 368 455 456
f 368 456 457
f 368 457 458
f 368 458 369
f 369 458 459
f 369 459 370
f 370 459 460
f 370 460 461
f 370 461 371
f 372 393 481
f 372 481 462
f 372 462 463
f 372 463 373
f 373 463 464
f 373 464 374
f 374 464 375
f 375 464 465
f 375 465 466
f 375 466 467
f 375 467 376
f 376 467 377
f 382 468 469
f 382 469 470
f 382 470 383
f 382 385 471
f 382 471 468
f 383 470 472
f 383 472 473
f 383 473 384
f 384 473 386
f 386 473 474
f 386 474 475
f 386 475 388
f 388 475 476
f 388 476 390
f 390 476 477
f 390 477 391
f 391 477 478
f 391 478 392
f 392 478 479
f 392 479 480
f 392 480 394
f 393 394 481
f 394 482 481
f 394 480 482
f 395 396 483
f 395 483 398
f 396 397 484
f 396 484 485
f 396 485 486
f 396 486 483
f 397 417 484
f 398 483 486
f 398 486 487
f 398 487 399
f 399 487 488
f 399 488 489
f 399 489 400
f 400 489 490
f 400 490 491
f 400 491 401
f 401 491 402
f 402 491 492
f 402 492 403
f 403 493 494
f 403 494 404
f 403 492 495
f 403 495 493
f 404 494 405
f 408 496 497
f 408 497 409
f 409 497 498
f 409 498 410
f 410 498 499
f 410 499 411
f 411 500 412
f 411 499 501
f 411 501 448
f 411 448 500
f 412 500 413
f 413 500 502
f 413 502 414
f 414 502 503
f 414 503 504
f 414 504 415
f 415 504 505
f 415 505 506
f 415 506 507
f 415 507 416
f 416 507 417
f 417 507 508
f 417 508 484
f 418 422 513
f 418 513 509
f 418 509 510
f 418 510 511
f 418 511 419
f 419 511 515
f 419 515 427
f 421 512 513
f 421 513 422
f 421 426 512
f 426 514 512
f 427 515 516
f 427 516 428
f 428 516 517
f 428 517 429
f 429 517 579
f 429 579 518
f 429 518 519
f 429 519 520
f 429 520 430
f 430 520 521
f 430 521 431
f 431 521 522
f 431 522 523
f 431 523 524
f 431 524 432
f 432 524 433
f 433 524 525
f 433 525 434
f 434 525 526
f 434 526 527
f 434 527 528
f 434 528 435
f 435 528 436
f 436 528 529
f 436 529 530
f 436 530 531
f 436 531 437
f 438 531 590
f 438 590 532
f 439 532 533
f 439 533 534
f 439 534 440
f 440 534 441
f 441 534 573
f 441 573 535
f 441 535 536
f 441 536 537
f 441 537 442
f 442 537 538
f 442 538 443
f 443 538 539
f 443 539 445
f 443 445 444
f 445 539 540
f 445 540 446
f 446 540 541
f 446 541 448
f 446 448 447
f 448 501 450
f 448 450 449
f 448 541 500
f 450 501 499
f 450 499 451
f 451 453 452
f 451 499 453
f 453 542 543
f 453 543 455
f 453 455 454
f 453 499 498
f 453 498 542
f 455 544 456
f 455 543 544
f 456 544 545
f 456 545 459
f 456 459 458
f 456 458 457
f 459 545 546
f 459 546 547
f 459 547 548
f 459 548 549
f 459 549 550
f 459 550 460
f 460 550 551
f 460 551 461
f 462 481 552
f 462 552 553
f 462 553 463
f 463 553 464
f 464 553 554
f 464 554 555
f 464 555 465
f 465 555 556
f 465 556 466
f 469 557 470
f 470 557 558
f 470 558 472
f 472 558 559
f 472 559 560
f 472 560 561
f 472 561 562
f 472 562 473
f 473 562 474
f 474 562 490
f 474 490 489
f 474 489 475
f 475 489 488
f 475 488 476
f 476 488 487
f 476 487 477
f 477 487 486
f 477 486 478
f 478 486 485
f 478 485 484
f 478 484 479
f 479 508 480
f 479 484 508
f 480 508 563
f 480 563 482
f 481 564 552
f 481 482 564
f 482 565 564
f 482 563 566
f 482 566 565
f 490 562 567
f 490 567 491
f 491 567 492
f 492 567 495
f 493 495 568
f 495 567 569
f 495 569 568
f 496 570 497
f 497 570 571
f 497 571 542
f 497 542 498
f 500 541 540
f 500 540 502
f 502 540 572
f 502 572 503
f 503 505 504
f 503 572 538
f 503 538 537
f 503 537 505
f 505 537 536
f 505 536 535
f 505 535 573
f 505 573 506
f 506 574 507
f 506 573 574
f 507 574 566
f 507 566 508
f 508 566 563
f 509 575 577
f 509 577 511
f 509 511 510
f 509 513 514
f 509 514 576
f 509 576 575
f 511 577 555
f 511 555 578
f 511 578 579
f 511 579 515
f 512 514 513
f 515 579 580
f 515 580 516
f 516 580 579
f 516 579 517
f 518 579 581
f 518 581 582
f 518 582 519
f 519 582 520
f 520 582 521
f 521 582 583
f 521 583 522
f 522 583 608
f 522 608 584
f 522 584 523
f 523 584 524
f 524 584 585
f 524 585 586
f 524 586 525
f 525 586 526
f 526 586 527
f 527 586 587
f 527 587 588
f 527 588 528
f 528 588 589
f 528 589 529
f 529 589 530
f 530 589 590
f 530 590 531
f 532 590 591
f 532 591 533
f 533 591 573
f 533 573 534
f 538 572 539
f 539 572 540
f 542 571 592
f 542 592 593
f 542 593 543
f 543 593 594
f 543 594 544
f 544 595 546
f 544 546 545
f 544 594 595
f 548 596 550
f 548 550 549
f 550 596 551
f 552 564 597
f 552 597 581
f 552 581 553
f 553 581 579
f 553 579 554
f 554 579 578
f 554 578 555
f 555 577 576
f 555 576 556
f 559 598 560
f 560 598 569
f 560 569 561
f 561 569 567
f 561 567 562
f 564 565 599
f 564 599 597
f 565 600 601
f 565 601 602
f 565 602 599
f 565 566 574
f 565 574 600
f 568 569 603
f 569 598 603
f 573 591 604
f 573 604 574
f 574 604 605
f 574 605 606
f 574 606 607
f 574 607 601
f 574 601 600
f 575 576 577
f 581 597 609
f 581 609 608
f 581 608 582
f 582 608 583
f 584 608 609
f 584 609 585
f 585 609 610
f 585 610 586
f 586 610 611
f 586 611 587
f 587 611 612
f 587 612 588
f 588 612 613
f 588 613 614
f 588 614 589
f 589 614 590
f 590 614 615
f 590 615 591
f 591 615 604
f 597 599 602
f 597 602 609
f 601 607 610
f 601 610 609
f 601 609 602
f 604 615 605
f 605 615 614
f 605 614 606
f 606 614 613
f 606 613 607
f 607 613 612
f 607 612 611
f 607 611 610

