# https://github.com/mikedh/trimesh
v 0.19062376 -0.50667278 0.73642970
v 0.19062376 -0.50461194 0.73453699
v -0.20806321 -0.50667278 0.73402739
v 0.19062376 -0.50667278 0.00532346
v 0.19062376 -0.49783025 0.72798520
v -0.20806321 -0.50552254 0.73286263
v -0.20806321 -0.50667278 -0.00632415
v 0.17774526 -0.50667278 -0.00574175
v 0.19062376 -0.50664884 -0.00574175
v 0.19062376 -0.49107251 0.72085102
v -0.20806321 -0.26190900 0.47799825
v -0.20806321 -0.33581261 -0.00690655
v -0.20408261 -0.49380437 -0.00639695
v -0.17805243 -0.50667278 -0.00646975
v -0.05925807 -0.50667278 -0.00646975
v 0.19062376 -0.36214858 -0.00668815
v 0.19062376 -0.48505768 0.71429924
v 0.19062376 -0.47863545 0.70716509
v 0.19062376 -0.47257266 0.70039491
v 0.19062376 -0.26190900 0.46445789
v -0.20806321 -0.26190900 -0.00712491
v -0.20806321 -0.29234272 -0.00705211
v -0.13855838 -0.50667278 -0.00654255
v -0.08556142 -0.50667278 -0.00654255
v 0.19062376 -0.28314071 -0.00712491
v 0.19062376 -0.26190900 -0.00712491
v -0.20806321 -0.26600677 -0.00712491
v -0.12509450 -0.48064837 -0.00661535
v -0.15143688 -0.36214858 -0.00690655
v -0.11190380 -0.48064837 -0.00661535
f 1 2 3
f 1 3 7
f 1 7 14
f 1 14 23
f 1 23 24
f 1 24 15
f 1 15 8
f 1 8 4
f 1 4 9
f 1 9 16
f 1 16 25
f 1 25 26
f 1 26 20
f 1 20 19
f 1 19 18
f 1 18 17
f 1 17 10
f 1 10 5
f 1 5 2
f 2 5 3
f 3 5 6
f 3 6 11
f 3 11 21
f 3 21 27
f 3 27 22
f 3 22 12
f 3 12 7
f 4 8 9
f 5 10 11
f 5 11 6
f 7 12 13
f 7 13 14
f 8 15 9
f 9 15 16
f 10 17 11
f 11 17 18
f 11 18 19
f 11 19 20
f 11 20 26
f 11 26 21
f 12 22 13
f 13 22 14
f 14 22 23
f 15 24 16
f 16 24 25
f 21 26 25
f 21 25 27
f 22 27 23
f 23 28 30
f 23 30 24
f 23 27 29
f 23 29 28
f 24 30 25
f 25 29 27
f 25 30 28
f 25 28 29

