# https://github.com/mikedh/trimesh
v 0.18562522 -0.61858142 0.44748529
v 0.19089400 -0.61858142 0.44748529
v 0.12507365 -0.65150811 0.62632293
v 0.17776139 -0.61858142 0.44756753
v 0.20410526 -0.61858142 0.44781427
v 0.13820626 -0.65127581 0.62632293
v 0.15141752 -0.65168137 0.63952295
v 0.13820626 -0.65191367 0.63952295
v 0.15126024 -0.65879982 0.86750083
v 0.11186240 -0.65141757 0.62632293
v 0.16455014 -0.61858142 0.44785540
v 0.17264989 -0.61858142 0.44764979
v 0.21275548 -0.61858142 0.44855445
v 0.15141752 -0.65022459 0.62632293
v 0.21723786 -0.61858142 0.44900679
v 0.22746086 -0.61858142 0.45036381
v 0.23037049 -0.61858142 0.45077502
v 0.24358175 -0.61858142 0.45332456
v 0.25553478 -0.61858142 0.45673765
v 0.25632116 -0.61858142 0.45698437
v 0.26992561 -0.61858142 0.46286475
v 0.16455014 -0.65032302 0.63952295
v 0.16455014 -0.65157113 0.65268185
v 0.15141752 -0.65220502 0.65268185
v 0.15825906 -0.65845336 0.85598679
v 0.15542808 -0.65845336 0.85598679
v 0.15865226 -0.65858326 0.86334755
v 0.15880953 -0.65865414 0.86750083
v 0.14025087 -0.65864621 0.86750083
v -0.12507514 -0.64890172 0.62632293
v 0.15141752 -0.61858142 0.44847221
v 0.15983183 -0.61858142 0.44806100
v -0.12507514 -0.64703942 0.61604254
v 0.28085635 -0.61858142 0.47055448
v 0.28235047 -0.61858142 0.47178814
v 0.28455234 -0.61858142 0.47376197
v 0.29430351 -0.61858142 0.48330217
v 0.29862862 -0.61858142 0.48819563
v 0.30161689 -0.61858142 0.49218441
v 0.16455014 -0.65202783 0.66579962
v 0.31286217 -0.61858142 0.50813959
v 0.31537861 -0.61886096 0.51545922
v 0.32261334 -0.62210520 0.57364622
v 0.32261334 -0.62402260 0.60000513
v 0.33574597 -0.62485731 0.63952295
v 0.34895723 -0.63675153 0.83698864
v 0.33574597 -0.63862565 0.83698864
v 0.32261334 -0.64007454 0.83698864
v 0.16329192 -0.65661861 0.86750083
v 0.34895723 -0.63592079 0.85014754
v 0.35784335 -0.63266081 0.85726157
v 0.37530109 -0.62263670 0.85837184
v 0.38041258 -0.61858142 0.85865970
v 0.13820626 -0.65861474 0.86750083
v -0.13820775 -0.64868909 0.62632293
v 0.13160064 -0.65850846 0.86750083
v 0.14732832 -0.61858142 0.44871895
v -0.20410675 -0.61858142 0.47162364
v -0.19089549 -0.61858142 0.47043112
v -0.17776288 -0.61858142 0.46948533
v 0.31781641 -0.61858142 0.51726857
v 0.32858985 -0.61883341 0.54181814
v 0.33574597 -0.62389266 0.62632293
v 0.33574597 -0.62292020 0.61316403
v 0.36295484 -0.63370415 0.83674190
v 0.36956046 -0.63235764 0.84097742
v 0.36956046 -0.63235764 0.84525406
v 0.36216848 -0.63349548 0.84985968
v 0.17280716 -0.64799221 0.86750083
v 0.36665087 -0.63092845 0.85405408
v 0.39582572 -0.61930584 0.85705595
v 0.38843370 -0.62050274 0.85771389
v 0.38843370 -0.61858142 0.85808399
v 0.14717104 -0.62622351 0.86750083
v 0.15141752 -0.62647943 0.86750083
v 0.16038230 -0.62777475 0.86750083
v 0.16297737 -0.62829840 0.86750083
v 0.16934707 -0.63452704 0.86750083
v 0.17414403 -0.63935007 0.86750083
v 0.17469448 -0.64149981 0.86750083
v 0.17469448 -0.64272818 0.86750083
v -0.38843519 -0.61858142 0.86046904
v -0.13820775 -0.62039647 0.86750083
v -0.12829931 -0.62048700 0.86750083
v -0.09102471 -0.62088467 0.86750083
v -0.08607049 -0.62096340 0.86750083
v -0.05021137 -0.62169572 0.86750083
v -0.03707876 -0.62199100 0.86750083
v -0.11186389 -0.65327590 0.82382974
v -0.15141901 -0.64872060 0.63952295
v -0.15173356 -0.64722446 0.62595283
v -0.29045172 -0.61858142 0.50016201
v -0.28361018 -0.61858142 0.49485732
v -0.28337426 -0.61858142 0.49469285
v -0.26992710 -0.61858142 0.48692087
v -0.26583790 -0.61858142 0.48515264
v -0.25726632 -0.61858142 0.48182179
v -0.24484144 -0.61858142 0.47812085
v -0.24358322 -0.61858142 0.47775075
v -0.23351750 -0.61858142 0.47557131
v -0.23037196 -0.61858142 0.47491336
v -0.21723936 -0.61858142 0.47306290
v 0.09865114 -0.65796119 0.86750083
v 0.08952908 -0.65780762 0.86750083
v 0.07655375 -0.65757925 0.86750083
v 0.32693845 -0.61858142 0.53614337
v 0.33189268 -0.61959327 0.56048733
v 0.33574597 -0.62190438 0.60000513
v 0.32984809 -0.61858142 0.54280506
v 0.34101475 -0.61858142 0.57492099
v 0.34345254 -0.61927040 0.58972475
v 0.34494664 -0.61972714 0.60000513
v 0.37443605 -0.63025124 0.83674190
v 0.38843370 -0.62469981 0.83698864
v 0.34974358 -0.62051063 0.62665190
v 0.35587740 -0.61907355 0.63125751
v 0.39731982 -0.62017202 0.85014754
v 0.38843370 -0.62390844 0.85014754
v 0.39999356 -0.61858142 0.85014754
v 0.39771302 -0.61858142 0.85545221
v 0.39629753 -0.61858142 0.85717931
v 0.39126469 -0.61858142 0.85783726
v -0.39889410 -0.61858142 0.85890641
v -0.38843519 -0.62221936 0.85952325
v -0.36209133 -0.62550693 0.86075690
v -0.16486618 -0.65022067 0.86750083
v -0.17147181 -0.64764575 0.86750083
v -0.17312320 -0.64672051 0.86750083
v -0.17666194 -0.63910204 0.86750083
v -0.17611147 -0.63572394 0.86750083
v -0.17485325 -0.62844800 0.86750083
v -0.16486618 -0.62366826 0.86750083
v -0.15141901 -0.62054607 0.86750083
v -0.12507514 -0.65327987 0.83698864
v -0.12507514 -0.65301214 0.82382974
v -0.13820775 -0.65296096 0.83698864
v -0.15141901 -0.65255148 0.83698864
v -0.16455163 -0.65179161 0.82382974
v -0.30940358 -0.64140923 0.83698864
v -0.32261483 -0.64012571 0.83698864
v -0.33574746 -0.63847604 0.83698864
v -0.32261483 -0.62653453 0.65268185
v -0.31632375 -0.61897905 0.53992655
v -0.31372869 -0.61867195 0.53112654
v -0.31231319 -0.61858142 0.52775457
v -0.30610076 -0.61858142 0.51821437
v -0.30326977 -0.61858142 0.51397885
v -0.29690007 -0.61858142 0.50641249
v 0.06342113 -0.65733123 0.86750083
v 0.34313795 -0.61858142 0.58178829
v 0.34510394 -0.61858142 0.58844998
v 0.35446191 -0.61858142 0.62068928
v 0.39739847 -0.62027045 0.83698864
v 0.36861681 -0.61889640 0.68582581
v 0.36940321 -0.61858142 0.68652489
v 0.35682105 -0.61858142 0.63043508
v 0.40030811 -0.61858142 0.83698864
v 0.40015081 -0.61858142 0.84463725
v -0.40306194 -0.61858142 0.85014754
v -0.39779316 -0.62052244 0.85841296
v -0.36916876 -0.63224344 0.85693260
v -0.36209133 -0.63319627 0.85791950
v -0.34895872 -0.63446405 0.85898867
v -0.16038379 -0.65154354 0.86750083
v -0.12507514 -0.65348065 0.85014754
v -0.13820775 -0.65316963 0.85014754
v -0.15141901 -0.65275226 0.85014754
v -0.16455163 -0.65200813 0.83698864
v -0.30940358 -0.64106277 0.85014754
v -0.32261483 -0.64002729 0.85014754
v -0.15141901 -0.65293337 0.86750083
v -0.33574746 -0.63874377 0.85014754
v -0.34895872 -0.63709803 0.85014754
v -0.34895872 -0.63637356 0.83698864
v -0.31797517 -0.61858142 0.53836393
v -0.33574746 -0.62542424 0.66579962
v -0.31404324 -0.61858142 0.53071532
v -0.12090730 -0.65379170 0.86750083
v -0.12507514 -0.65365784 0.86334755
v 0.36783042 -0.61858142 0.67924637
v -0.39889410 -0.62113663 0.85014754
v -0.38104317 -0.61858142 0.74931750
v -0.38843519 -0.62549512 0.85014754
v -0.36940470 -0.63232613 0.85014754
v -0.36209133 -0.63435377 0.85014754
v -0.13820775 -0.65334286 0.86334755
v -0.15141901 -0.65291371 0.86334755
v -0.13820775 -0.65339403 0.86750083
v -0.14717254 -0.65309875 0.86750083
v -0.36916876 -0.63225133 0.84258117
v -0.36224858 -0.63342460 0.83768769
v -0.33574746 -0.62334543 0.63952295
v -0.33574746 -0.62440450 0.65268185
v -0.32749042 -0.61862867 0.56048733
v -0.32717587 -0.61858142 0.55921256
v -0.12507514 -0.65370901 0.86750083
v -0.13403992 -0.65349638 0.86750083
v -0.37003380 -0.61858142 0.69919032
v -0.36885421 -0.61899086 0.69799780
v -0.35658664 -0.61930584 0.65527250
v -0.35540705 -0.61888458 0.64647249
v -0.34266764 -0.61901056 0.60555654
v -0.33574746 -0.62227054 0.62632293
v -0.32898454 -0.61888851 0.56747799
v -0.33087188 -0.61858142 0.56895837
v -0.32992819 -0.61858142 0.56644995
v -0.36759601 -0.61858142 0.68928002
v -0.35823804 -0.61858142 0.65403885
v -0.35603615 -0.61858142 0.64581455
v -0.35438475 -0.61858142 0.64009865
v -0.34376858 -0.61858142 0.60448739
v -0.34117350 -0.61858142 0.59663317
v -0.34085895 -0.61858142 0.59568737
v -0.33063594 -0.61925074 0.57623688
f 1 2 3
f 1 3 4
f 1 4 12
f 1 12 11
f 1 11 32
f 1 32 31
f 1 31 57
f 1 57 60
f 1 60 59
f 1 59 58
f 1 58 102
f 1 102 101
f 1 101 100
f 1 100 99
f 1 99 98
f 1 98 97
f 1 97 96
f 1 96 95
f 1 95 94
f 1 94 93
f 1 93 92
f 1 92 148
f 1 148 147
f 1 147 146
f 1 146 145
f 1 145 177
f 1 177 175
f 1 175 195
f 1 195 206
f 1 206 205
f 1 205 213
f 1 213 212
f 1 212 211
f 1 211 210
f 1 210 209
f 1 209 208
f 1 208 207
f 1 207 198
f 1 198 182
f 1 182 159
f 1 159 123
f 1 123 82
f 1 82 53
f 1 53 73
f 1 73 122
f 1 122 121
f 1 121 120
f 1 120 119
f 1 119 158
f 1 158 157
f 1 157 155
f 1 155 180
f 1 180 156
f 1 156 152
f 1 152 151
f 1 151 150
f 1 150 110
f 1 110 109
f 1 109 106
f 1 106 61
f 1 61 41
f 1 41 39
f 1 39 38
f 1 38 37
f 1 37 36
f 1 36 35
f 1 35 34
f 1 34 21
f 1 21 20
f 1 20 19
f 1 19 18
f 1 18 17
f 1 17 16
f 1 16 15
f 1 15 13
f 1 13 5
f 1 5 2
f 2 5 3
f 3 6 7
f 3 7 8
f 3 8 9
f 3 9 10
f 3 10 11
f 3 11 12
f 3 12 4
f 3 5 13
f 3 13 6
f 6 14 7
f 6 13 15
f 6 15 16
f 6 16 17
f 6 17 18
f 6 18 19
f 6 19 20
f 6 20 21
f 6 21 14
f 7 14 22
f 7 22 23
f 7 23 24
f 7 24 8
f 8 24 25
f 8 25 26
f 8 26 9
f 9 26 25
f 9 25 27
f 9 27 28
f 9 28 49
f 9 49 69
f 9 69 81
f 9 81 80
f 9 80 79
f 9 79 78
f 9 78 77
f 9 77 76
f 9 76 75
f 9 75 74
f 9 74 88
f 9 88 87
f 9 87 86
f 9 86 85
f 9 85 84
f 9 84 83
f 9 83 133
f 9 133 132
f 9 132 131
f 9 131 130
f 9 130 129
f 9 129 128
f 9 128 127
f 9 127 126
f 9 126 164
f 9 164 171
f 9 171 189
f 9 189 188
f 9 188 197
f 9 197 196
f 9 196 178
f 9 178 149
f 9 149 105
f 9 105 104
f 9 104 103
f 9 103 56
f 9 56 54
f 9 54 29
f 9 29 30
f 9 30 10
f 10 31 32
f 10 32 11
f 10 30 33
f 10 33 31
f 14 21 34
f 14 34 35
f 14 35 36
f 14 36 22
f 22 36 37
f 22 37 38
f 22 38 39
f 22 39 23
f 23 40 24
f 23 39 41
f 23 41 42
f 23 42 43
f 23 43 44
f 23 44 45
f 23 45 46
f 23 46 47
f 23 47 40
f 24 40 25
f 25 40 48
f 25 48 27
f 27 48 28
f 28 48 47
f 28 47 50
f 28 50 51
f 28 51 52
f 28 52 53
f 28 53 49
f 29 54 30
f 30 55 33
f 30 54 56
f 30 56 55
f 31 33 57
f 33 55 58
f 33 58 59
f 33 59 60
f 33 60 57
f 40 47 48
f 41 61 42
f 42 61 62
f 42 62 43
f 43 62 63
f 43 63 45
f 43 45 44
f 45 63 46
f 46 63 64
f 46 64 65
f 46 65 66
f 46 66 67
f 46 67 68
f 46 68 50
f 46 50 47
f 49 53 69
f 50 68 51
f 51 68 70
f 51 70 71
f 51 71 72
f 51 72 52
f 52 72 73
f 52 73 53
f 53 74 75
f 53 75 76
f 53 76 77
f 53 77 78
f 53 78 79
f 53 79 80
f 53 80 81
f 53 81 69
f 53 82 83
f 53 83 84
f 53 84 85
f 53 85 86
f 53 86 87
f 53 87 88
f 53 88 74
f 55 89 90
f 55 90 91
f 55 91 92
f 55 92 93
f 55 93 94
f 55 94 95
f 55 95 96
f 55 96 97
f 55 97 98
f 55 98 99
f 55 99 100
f 55 100 101
f 55 101 102
f 55 102 58
f 55 56 103
f 55 103 104
f 55 104 105
f 55 105 89
f 61 106 62
f 62 107 108
f 62 108 64
f 62 64 63
f 62 106 109
f 62 109 110
f 62 110 111
f 62 111 107
f 64 108 112
f 64 112 65
f 65 112 66
f 66 113 114
f 66 114 67
f 66 112 115
f 66 115 116
f 66 116 113
f 67 114 117
f 67 117 118
f 67 118 71
f 67 71 70
f 67 70 68
f 71 117 119
f 71 119 120
f 71 120 121
f 71 121 122
f 71 122 72
f 71 118 117
f 72 122 73
f 82 123 124
f 82 124 125
f 82 125 126
f 82 126 127
f 82 127 128
f 82 128 129
f 82 129 130
f 82 130 131
f 82 131 132
f 82 132 133
f 82 133 83
f 89 134 135
f 89 135 90
f 89 105 134
f 90 135 134
f 90 134 136
f 90 136 137
f 90 137 138
f 90 138 139
f 90 139 140
f 90 140 141
f 90 141 142
f 90 142 143
f 90 143 144
f 90 144 145
f 90 145 146
f 90 146 147
f 90 147 148
f 90 148 91
f 91 148 92
f 105 149 134
f 107 111 108
f 108 111 112
f 110 150 111
f 111 150 151
f 111 151 152
f 111 152 112
f 112 152 116
f 112 116 115
f 113 116 114
f 114 153 117
f 114 116 154
f 114 154 155
f 114 155 153
f 116 152 156
f 116 156 154
f 117 153 157
f 117 157 158
f 117 158 119
f 123 159 160
f 123 160 124
f 124 160 161
f 124 161 162
f 124 162 163
f 124 163 125
f 125 163 164
f 125 164 126
f 134 165 166
f 134 166 136
f 134 149 165
f 136 166 137
f 137 167 168
f 137 168 138
f 137 166 167
f 138 168 139
f 139 169 170
f 139 170 140
f 139 168 171
f 139 171 169
f 140 170 172
f 140 172 173
f 140 173 141
f 141 143 142
f 141 173 174
f 141 174 143
f 143 175 144
f 143 174 176
f 143 176 175
f 144 175 177
f 144 177 145
f 149 178 179
f 149 179 165
f 153 155 157
f 154 180 155
f 154 156 180
f 159 181 160
f 159 182 181
f 160 181 183
f 160 183 161
f 161 183 184
f 161 184 185
f 161 185 173
f 161 173 162
f 162 173 172
f 162 172 163
f 163 172 171
f 163 171 164
f 165 179 166
f 166 186 167
f 166 179 186
f 167 187 168
f 167 186 188
f 167 188 187
f 168 187 171
f 169 171 170
f 170 171 172
f 171 187 189
f 173 185 174
f 174 185 190
f 174 190 191
f 174 191 192
f 174 192 193
f 174 193 176
f 175 194 195
f 175 176 193
f 175 193 194
f 178 196 179
f 179 196 197
f 179 197 186
f 181 182 198
f 181 198 199
f 181 199 183
f 183 199 190
f 183 190 184
f 184 190 185
f 186 197 188
f 187 188 189
f 190 199 200
f 190 200 201
f 190 201 202
f 190 202 192
f 190 192 191
f 192 203 204
f 192 204 194
f 192 194 193
f 192 202 203
f 194 204 205
f 194 205 206
f 194 206 195
f 198 207 199
f 199 207 208
f 199 208 201
f 199 201 200
f 201 208 209
f 201 209 210
f 201 210 211
f 201 211 202
f 202 211 212
f 202 212 213
f 202 213 204
f 202 204 214
f 202 214 203
f 203 214 204
f 204 213 205

