# https://github.com/mikedh/trimesh
v -0.20806325 -0.23623103 0.46857084
v -0.20806325 -0.00479523 0.45976844
v -0.27566121 -0.00479523 0.57300688
v -0.27471299 -0.23623103 0.57300688
v -0.20806325 -0.23623103 -0.00709873
v -0.20806325 -0.00479523 -0.00380493
v -0.46233544 -0.00479523 0.57300688
v -0.46295924 -0.23623103 0.57300688
v -0.23047114 -0.23623103 -0.00715552
v -0.20806325 -0.22648972 -0.00709873
v -0.20806325 -0.14747168 -0.00636045
v -0.24362141 -0.15143618 -0.00641724
v -0.26997190 -0.15143618 -0.00636045
v -0.28314715 -0.15143618 -0.00630367
v -0.29629744 -0.15143618 -0.00624688
v -0.33577324 -0.00479523 -0.00323705
v -0.44521760 -0.00479523 0.32517714
v -0.44182399 -0.17776041 0.27077271
v -0.44184891 -0.19092253 0.27077271
v -0.44184891 -0.21726942 0.27077271
v -0.44182399 -0.23623103 0.27077271
v -0.25679665 -0.23623103 -0.00709873
v -0.25679665 -0.23043154 -0.00709873
v -0.24362141 -0.21726942 -0.00709873
v -0.21729589 -0.21726942 -0.00709873
v -0.20806325 -0.20410730 -0.00704195
v -0.20806325 -0.16063380 -0.00658764
v -0.24362141 -0.16459829 -0.00664439
v -0.28314715 -0.16459829 -0.00653082
v -0.30947267 -0.16459829 -0.00636045
v -0.30947267 -0.13825140 -0.00590615
v -0.34894851 -0.00479523 -0.00312347
v -0.44232303 -0.00479523 0.28389111
v -0.43496186 -0.00479523 0.17968222
v -0.43446282 -0.23623103 0.16752925
v -0.43578534 -0.23623103 0.18598585
v -0.43902923 -0.23043154 0.23130397
v -0.43902923 -0.23623103 0.23130397
v -0.43955323 -0.23623103 0.23868661
v -0.27735802 -0.23623103 -0.00698512
v -0.26997190 -0.23043154 -0.00704195
v -0.25679665 -0.19092253 -0.00692837
v -0.24362141 -0.20410730 -0.00704195
v -0.23047114 -0.19092253 -0.00698512
v -0.20806325 -0.19092253 -0.00698512
v -0.20806325 -0.16459829 -0.00664439
v -0.24362141 -0.17776041 -0.00681480
v -0.26997190 -0.17776041 -0.00675797
v -0.28314715 -0.17776041 -0.00670122
v -0.32264792 -0.17776041 -0.00636045
v -0.32264792 -0.15143618 -0.00601973
v -0.32264792 -0.13825140 -0.00579254
v -0.36212374 -0.00479523 -0.00272592
v -0.33577324 -0.12508929 -0.00539506
v -0.33577324 -0.13825140 -0.00562221
v -0.33577324 -0.15143618 -0.00584936
v -0.34894851 -0.15143618 -0.00562221
v -0.43296561 -0.00479523 0.15230966
v -0.42762564 -0.23623103 0.07325852
v -0.30947267 -0.23623103 -0.00675797
v -0.29629744 -0.23043154 -0.00687154
v -0.28314715 -0.21726942 -0.00692837
v -0.28314715 -0.19092253 -0.00681480
v -0.33577324 -0.17776041 -0.00619009
v -0.32264792 -0.19092253 -0.00647407
v -0.37335265 -0.00479523 -0.00079506
v -0.36212374 -0.15143618 -0.00516787
v -0.34894851 -0.17776041 -0.00596294
v -0.43096937 -0.00479523 0.12595928
v -0.42537988 -0.13825140 0.04690814
v -0.42662752 -0.23623103 0.06008337
v -0.30947267 -0.21726942 -0.00675797
v -0.32264792 -0.23623103 -0.00658764
v -0.29629744 -0.20410730 -0.00681480
v -0.30947267 -0.20410730 -0.00670122
v -0.33577324 -0.19092253 -0.00630367
v -0.32264792 -0.21726942 -0.00658764
v -0.37529897 -0.15143618 -0.00249877
v -0.37994026 -0.00479523 0.00170368
v -0.36212374 -0.17776041 -0.00550864
v -0.34894851 -0.19092253 -0.00607652
v -0.42909789 -0.00479523 0.10136936
v -0.42540484 -0.15143618 0.04690814
v -0.42595380 -0.00479523 0.06008337
v -0.42532996 -0.12508929 0.04690814
v -0.42313411 -0.12508929 0.03782183
v -0.42315903 -0.13825140 0.03776504
v -0.42610352 -0.23623103 0.05434761
v -0.33577324 -0.23623103 -0.00641724
v -0.33577324 -0.21726942 -0.00641724
v -0.37529897 -0.16459829 -0.00266913
v -0.38251043 -0.15143618 0.00034070
v -0.38111306 -0.00479523 0.00255550
v -0.36212374 -0.19092253 -0.00556539
v -0.37529897 -0.19092253 -0.00289632
v -0.34894851 -0.20410730 -0.00613330
v -0.42540484 -0.23623103 0.04690814
v -0.42480596 -0.00479523 0.04690814
v -0.42275979 -0.00658492 0.03833292
v -0.41717030 -0.13825140 0.03117743
v -0.42315903 -0.15143618 0.03776504
v -0.41724514 -0.15143618 0.03117743
v -0.41729506 -0.16459829 0.03117743
v -0.34894851 -0.23623103 -0.00613330
v -0.38275995 -0.17776041 0.00017033
v -0.40990896 -0.00479523 0.02583922
v -0.40309675 -0.00479523 0.02010346
v -0.39543613 -0.00479523 0.01368625
v -0.38844928 -0.00479523 0.00795049
v -0.36212374 -0.20410730 -0.00562221
v -0.37529897 -0.21726942 -0.00289632
v -0.38280987 -0.19092253 0.00017033
v -0.35633461 -0.23623103 -0.00584936
v -0.42303427 -0.23623103 0.03787862
v -0.42303427 -0.00479523 0.03952550
v -0.42273483 -0.00479523 0.03833292
v -0.41649658 -0.00479523 0.03174534
v -0.41068249 -0.15143618 0.02510094
v -0.41070745 -0.16459829 0.02504419
v -0.41732002 -0.23623103 0.03129104
v -0.42313411 -0.16459829 0.03776504
v -0.41070745 -0.17776041 0.02498736
v -0.41073241 -0.23043154 0.02498736
v -0.41073241 -0.23623103 0.02498736
v -0.41442545 -0.23623103 0.02850836
v -0.38939748 -0.19092253 0.00579252
v -0.38934760 -0.17776041 0.00584930
v -0.38924776 -0.16459829 0.00590609
v -0.41080725 -0.00479523 0.02663429
v -0.36212374 -0.23623103 -0.00562221
v -0.37529897 -0.23623103 -0.00283950
v -0.37946614 -0.23623103 -0.00113582
v -0.38278491 -0.21726942 0.00017033
v -0.38280987 -0.20410730 0.00017033
v -0.41060765 -0.13825140 0.02515777
v -0.39675866 -0.17776041 0.01243692
v -0.39678362 -0.19092253 0.01238009
v -0.39680858 -0.20410730 0.01238009
v -0.39678362 -0.21726942 0.01238009
v -0.39675866 -0.23623103 0.01243692
v -0.38939748 -0.20410730 0.00579252
v -0.39668382 -0.16459829 0.01249367
v -0.38273503 -0.23623103 0.00022712
v -0.38642807 -0.23623103 0.00335056
v -0.38937252 -0.21726942 0.00579252
v -0.39348981 -0.23623103 0.00954063
v -0.38929768 -0.23623103 0.00584930
f 1 2 3
f 1 3 4
f 1 4 8
f 1 8 21
f 1 21 39
f 1 39 38
f 1 38 36
f 1 36 35
f 1 35 59
f 1 59 71
f 1 71 88
f 1 88 97
f 1 97 114
f 1 114 120
f 1 120 125
f 1 125 124
f 1 124 140
f 1 140 146
f 1 146 147
f 1 147 144
f 1 144 143
f 1 143 132
f 1 132 131
f 1 131 130
f 1 130 113
f 1 113 104
f 1 104 89
f 1 89 73
f 1 73 60
f 1 60 40
f 1 40 22
f 1 22 9
f 1 9 5
f 1 5 10
f 1 10 26
f 1 26 45
f 1 45 46
f 1 46 27
f 1 27 11
f 1 11 6
f 1 6 2
f 2 6 16
f 2 16 32
f 2 32 53
f 2 53 66
f 2 66 79
f 2 79 93
f 2 93 109
f 2 109 108
f 2 108 107
f 2 107 106
f 2 106 129
f 2 129 117
f 2 117 116
f 2 116 115
f 2 115 98
f 2 98 84
f 2 84 82
f 2 82 69
f 2 69 58
f 2 58 34
f 2 34 33
f 2 33 17
f 2 17 7
f 2 7 3
f 3 7 8
f 3 8 4
f 5 9 10
f 6 11 12
f 6 12 13
f 6 13 14
f 6 14 15
f 6 15 16
f 7 17 8
f 8 17 18
f 8 18 19
f 8 19 20
f 8 20 21
f 9 22 23
f 9 23 24
f 9 24 25
f 9 25 10
f 10 25 26
f 11 27 28
f 11 28 12
f 12 28 13
f 13 28 29
f 13 29 14
f 14 29 15
f 15 29 30
f 15 30 31
f 15 31 16
f 16 31 52
f 16 52 32
f 17 33 18
f 18 33 34
f 18 34 19
f 19 34 35
f 19 35 36
f 19 36 37
f 19 37 38
f 19 38 20
f 20 38 39
f 20 39 21
f 22 40 41
f 22 41 23
f 23 41 63
f 23 63 42
f 23 42 24
f 24 42 43
f 24 43 44
f 24 44 45
f 24 45 25
f 25 45 26
f 27 46 28
f 28 46 45
f 28 45 44
f 28 44 47
f 28 47 48
f 28 48 29
f 29 48 49
f 29 49 30
f 30 50 51
f 30 51 52
f 30 52 31
f 30 49 50
f 32 52 54
f 32 54 55
f 32 55 56
f 32 56 57
f 32 57 53
f 34 58 59
f 34 59 35
f 36 38 37
f 40 60 61
f 40 61 41
f 41 61 72
f 41 72 62
f 41 62 63
f 42 63 49
f 42 49 48
f 42 48 44
f 42 44 43
f 44 48 47
f 49 63 65
f 49 65 50
f 50 64 56
f 50 56 51
f 50 65 76
f 50 76 64
f 51 56 55
f 51 55 52
f 52 55 54
f 53 57 67
f 53 67 66
f 56 64 68
f 56 68 57
f 57 68 80
f 57 80 67
f 58 69 70
f 58 70 59
f 59 70 71
f 60 72 61
f 60 73 77
f 60 77 72
f 62 72 74
f 62 74 63
f 63 74 75
f 63 75 65
f 64 76 81
f 64 81 68
f 65 75 72
f 65 72 77
f 65 77 90
f 65 90 76
f 66 78 79
f 66 67 78
f 67 80 91
f 67 91 78
f 68 81 80
f 69 82 70
f 70 83 71
f 70 82 84
f 70 84 85
f 70 85 86
f 70 86 87
f 70 87 83
f 71 83 88
f 72 75 74
f 73 89 90
f 73 90 77
f 76 90 81
f 78 91 92
f 78 92 79
f 79 92 93
f 80 81 94
f 80 94 95
f 80 95 91
f 81 90 96
f 81 96 110
f 81 110 94
f 83 97 88
f 83 87 101
f 83 101 97
f 84 98 85
f 85 98 99
f 85 99 86
f 86 100 87
f 86 99 100
f 87 100 102
f 87 102 103
f 87 103 101
f 89 104 96
f 89 96 90
f 91 95 105
f 91 105 92
f 92 105 106
f 92 106 107
f 92 107 108
f 92 108 109
f 92 109 93
f 94 110 95
f 95 111 134
f 95 134 112
f 95 112 105
f 95 110 130
f 95 130 111
f 96 104 113
f 96 113 110
f 97 101 114
f 98 115 99
f 99 115 116
f 99 116 117
f 99 117 100
f 100 117 118
f 100 118 119
f 100 119 102
f 101 103 120
f 101 120 121
f 101 121 114
f 102 119 122
f 102 122 103
f 103 122 123
f 103 123 124
f 103 124 125
f 103 125 120
f 105 112 126
f 105 126 127
f 105 127 128
f 105 128 106
f 106 128 127
f 106 127 129
f 110 113 130
f 111 131 132
f 111 132 133
f 111 133 134
f 111 130 131
f 112 134 141
f 112 141 126
f 114 121 120
f 117 129 135
f 117 135 118
f 118 135 136
f 118 136 137
f 118 137 119
f 119 137 122
f 122 137 138
f 122 138 123
f 123 138 124
f 124 138 139
f 124 139 140
f 126 141 138
f 126 138 137
f 126 137 136
f 126 136 127
f 127 136 142
f 127 142 129
f 129 142 135
f 132 143 133
f 133 143 144
f 133 144 145
f 133 145 141
f 133 141 134
f 135 142 136
f 138 141 145
f 138 145 139
f 139 145 140
f 140 145 146
f 144 147 145
f 145 147 146

