# https://github.com/mikedh/trimesh
v -0.46747055 -0.00479525 0.86331439
v -0.45914602 -0.01978250 0.85871084
v -0.45910258 -0.00660515 0.85876766
v -0.45910258 -0.00479525 0.85876766
v -0.47772951 -0.00479525 0.86155254
v -0.47968565 -0.32918037 0.86047269
v -0.47355638 -0.32918037 0.86075686
v -0.46747055 -0.32918037 0.86101260
v -0.45988501 -0.24360696 0.85774466
v -0.35418747 -0.32918037 0.73325004
v -0.35123152 -0.15146076 0.73012417
v -0.35140538 -0.32918037 0.72998208
v -0.35138368 -0.32260757 0.72998208
v -0.35134019 -0.29628463 0.73001051
v -0.35131845 -0.26992991 0.73003892
v -0.35125326 -0.20410667 0.73009575
v -0.35683915 -0.00479525 0.73677373
v -0.47933789 -0.00479525 0.86126836
v -0.47933789 -0.00660515 0.86126836
v -0.48259815 -0.32918037 0.85535765
v -0.47942486 -0.01978250 0.86121154
v -0.47946831 -0.03292809 0.86115471
v -0.46031973 -0.32918037 0.85731842
v -0.35136193 -0.00479525 0.73018101
v -0.35607842 -0.00479525 0.73586439
v -0.34471098 -0.25678431 0.72196851
v -0.34466753 -0.17775195 0.72196851
v -0.34807994 -0.32918037 0.72591846
v -0.34475446 -0.29628463 0.72196851
v -0.48385878 -0.00479525 0.85169186
v -0.48470648 -0.01978250 0.85015735
v -0.48479340 -0.03292809 0.85015735
v -0.48553239 -0.32918037 0.85015735
v -0.34477620 -0.00479525 0.72159909
v -0.34466753 -0.13828341 0.72194009
v -0.34001624 -0.30943022 0.71537578
v -0.34003798 -0.29628463 0.71540419
v -0.34481969 -0.32918037 0.72191167
v -0.34479794 -0.32260757 0.72191167
v -0.34003798 -0.32918037 0.71534736
v -0.48455432 -0.00479525 0.85015735
v -0.48457602 -0.00660515 0.85015735
v -0.46238457 -0.00479525 0.57366048
v -0.46355824 -0.32918037 0.57300688
v -0.34418937 -0.00479525 0.72071817
v -0.34019009 -0.13828341 0.71537578
v -0.34021183 -0.12510606 0.71534736
v -0.34016835 -0.15146076 0.71537578
v -0.34005968 -0.26992991 0.71540419
v -0.34014665 -0.17775195 0.71540419
v -0.33701681 -0.32918037 0.71031756
v -0.33403908 -0.32918037 0.70534459
v -0.46231935 -0.00479525 0.57300688
v -0.26348711 -0.32918037 0.57300688
v -0.34049440 -0.00479525 0.71503477
v -0.33410431 -0.30943022 0.70534459
v -0.33414775 -0.29628463 0.70534459
v -0.33462591 -0.16460635 0.70534459
v -0.32980076 -0.32918037 0.69752994
v -0.27565874 -0.00479525 0.57300688
v -0.32714908 -0.00479525 0.68752717
v -0.33032241 -0.00479525 0.69454616
v -0.33073534 -0.00479525 0.69542708
v -0.33477807 -0.00479525 0.70400900
v -0.33540838 -0.00479525 0.70534459
v -0.33979886 -0.00479525 0.71372759
v -0.33473462 -0.13828341 0.70534459
f 1 2 3
f 1 3 4
f 1 4 17
f 1 17 25
f 1 25 24
f 1 24 34
f 1 34 45
f 1 45 55
f 1 55 66
f 1 66 65
f 1 65 64
f 1 64 63
f 1 63 62
f 1 62 61
f 1 61 60
f 1 60 53
f 1 53 43
f 1 43 41
f 1 41 30
f 1 30 18
f 1 18 5
f 1 5 6
f 1 6 7
f 1 7 8
f 1 8 9
f 1 9 2
f 2 9 10
f 2 10 3
f 3 11 4
f 3 10 12
f 3 12 13
f 3 13 14
f 3 14 15
f 3 15 16
f 3 16 11
f 4 11 17
f 5 18 19
f 5 19 6
f 6 20 33
f 6 33 44
f 6 44 54
f 6 54 59
f 6 59 52
f 6 52 51
f 6 51 40
f 6 40 38
f 6 38 28
f 6 28 12
f 6 12 10
f 6 10 23
f 6 23 8
f 6 8 7
f 6 19 21
f 6 21 22
f 6 22 20
f 8 23 9
f 9 23 10
f 11 24 25
f 11 25 17
f 11 16 26
f 11 26 27
f 11 27 24
f 12 28 13
f 13 28 29
f 13 29 14
f 14 29 15
f 15 29 16
f 16 29 26
f 18 30 31
f 18 31 32
f 18 32 21
f 18 21 19
f 20 22 33
f 21 32 33
f 21 33 22
f 24 27 35
f 24 35 34
f 26 29 36
f 26 36 27
f 27 36 37
f 27 37 35
f 28 38 29
f 29 38 39
f 29 39 40
f 29 40 36
f 30 41 42
f 30 42 31
f 31 42 43
f 31 43 32
f 32 43 44
f 32 44 33
f 34 35 46
f 34 46 47
f 34 47 45
f 35 48 46
f 35 37 49
f 35 49 50
f 35 50 48
f 36 40 51
f 36 51 52
f 36 52 37
f 37 52 49
f 38 40 39
f 41 43 42
f 43 53 44
f 44 53 60
f 44 60 54
f 45 47 55
f 46 48 52
f 46 52 47
f 47 52 56
f 47 56 57
f 47 57 58
f 47 58 55
f 48 50 52
f 49 52 50
f 52 59 56
f 54 60 61
f 54 61 62
f 54 62 63
f 54 63 64
f 54 64 65
f 54 65 66
f 54 66 67
f 54 67 58
f 54 58 59
f 55 58 67
f 55 67 66
f 56 59 57
f 57 59 58

