# https://github.com/mikedh/trimesh
v -0.29711103 -0.61857749 0.85726179
v -0.29711103 -0.61834751 0.85717682
v -0.46747942 -0.50669676 0.86244607
v -0.38848279 -0.61232417 0.86210609
v -0.34897551 -0.61857749 0.85964146
v -0.29711103 -0.61857749 0.50660185
v -0.45712804 -0.50669676 0.85938648
v -0.29711103 -0.50669676 0.74737249
v -0.47715029 -0.50669676 0.85981143
v -0.46747942 -0.50699243 0.86244607
v -0.45429842 -0.54649457 0.86261604
v -0.44113528 -0.57282203 0.86219110
v -0.41479114 -0.59916044 0.86168118
v -0.40198619 -0.61292650 0.86040634
v -0.38848279 -0.61857749 0.86049135
v -0.36213865 -0.61857749 0.86006640
v -0.30330753 -0.61857749 0.51391080
v -0.29711103 -0.61148091 0.40249172
v -0.29711103 -0.50669676 -0.00562005
v -0.47713239 -0.50699243 0.85981143
v -0.47997995 -0.50669676 0.85037779
v -0.46747942 -0.52015616 0.86210609
v -0.46477519 -0.54649457 0.85972646
v -0.45496104 -0.56003066 0.86040634
v -0.45073453 -0.57282203 0.85904654
v -0.44023982 -0.58517535 0.85896157
v -0.42680809 -0.59826243 0.85862159
v -0.41479114 -0.60829400 0.85853663
v -0.39888794 -0.61857749 0.85887657
v -0.30613716 -0.61857749 0.51816020
v -0.29711103 -0.60862256 0.36186750
v -0.30821461 -0.61857749 0.52130475
v -0.31238741 -0.61857749 0.52767884
v -0.29711103 -0.51934575 -0.00451519
v -0.30946823 -0.50699243 -0.00502514
v -0.30975478 -0.50669676 -0.00502514
v -0.47587875 -0.52015616 0.85879156
v -0.48005157 -0.50669676 0.85012282
v -0.48001574 -0.50699243 0.85012282
v -0.46832115 -0.53348417 0.86015137
v -0.47476842 -0.52920213 0.85760177
v -0.46244701 -0.55588005 0.85828165
v -0.44844214 -0.58024717 0.85751676
v -0.43526114 -0.59327947 0.85734679
v -0.42165029 -0.60596135 0.85700685
v -0.40306072 -0.61857749 0.85012282
v -0.29711103 -0.60775740 0.34979922
v -0.31412459 -0.61857749 0.53065342
v -0.29711103 -0.52023284 -0.00434522
v -0.32263137 -0.50699243 -0.00349536
v -0.32293582 -0.50669676 -0.00349536
v -0.46026212 -0.50669676 0.62312021
v -0.47734730 -0.52015616 0.85012282
v -0.47487588 -0.52953069 0.85012282
v -0.47272677 -0.53612348 0.85012282
v -0.46821370 -0.54649457 0.85012282
v -0.46296638 -0.55683280 0.85012282
v -0.45915175 -0.56340374 0.85012282
v -0.45334924 -0.57282203 0.85012282
v -0.44849591 -0.58030192 0.85012282
v -0.44206657 -0.58688380 0.85012282
v -0.43547605 -0.59350945 0.85012282
v -0.42820498 -0.60009133 0.85012282
v -0.42161446 -0.60592850 0.85012282
v -0.41479114 -0.61065954 0.85012282
v -0.40549636 -0.61705521 0.85012282
v -0.38106848 -0.61857749 0.74932721
v -0.39516287 -0.60581897 0.69807952
v -0.38210718 -0.60587371 0.63170399
v -0.37352878 -0.60815166 0.61309165
v -0.37531965 -0.61415307 0.67895724
v -0.37626884 -0.61643098 0.70530348
v -0.38056701 -0.61836941 0.74482285
v -0.30234045 -0.60566564 0.33101690
v -0.29729011 -0.60671701 0.33594621
v -0.29711103 -0.60604894 0.32651255
v -0.31801085 -0.61857749 0.53830233
v -0.31061443 -0.52134988 -0.00196558
v -0.29711103 -0.53128291 -0.00128566
v -0.32263137 -0.51745115 -0.00069074
v -0.33486323 -0.50669676 -0.00077575
v -0.45707431 -0.50669676 0.58674541
v -0.45591022 -0.50669676 0.57357229
v -0.45583860 -0.50699243 0.57357229
v -0.45109268 -0.50699243 0.52096480
v -0.44803026 -0.50669676 0.48671468
v -0.44752879 -0.51300483 0.50311734
v -0.44742133 -0.52603713 0.55674469
v -0.44786908 -0.52704467 0.56549844
v -0.44795860 -0.51415475 0.51187109
v -0.45274031 -0.55966925 0.77116909
v -0.44792281 -0.56652491 0.76309522
v -0.43440148 -0.52646427 0.43665683
v -0.44803026 -0.57976532 0.84255890
v -0.43508203 -0.59311519 0.84179401
v -0.42143539 -0.60577517 0.84340879
v -0.37007234 -0.61857749 0.69918435
v -0.40359799 -0.60261017 0.71847661
v -0.40239811 -0.60179975 0.70530348
v -0.38248327 -0.59297285 0.52436431
v -0.36867545 -0.59254574 0.44881009
v -0.36863962 -0.60570947 0.56736818
v -0.37069916 -0.60676081 0.58674541
v -0.34295809 -0.57974338 0.20871936
v -0.35540485 -0.59250191 0.38345442
v -0.35588839 -0.60589561 0.51280596
v -0.37408394 -0.61615720 0.69298024
v -0.36964253 -0.61857749 0.69722963
v -0.30416717 -0.60600515 0.33985565
v -0.29711103 -0.59463747 0.17769877
v -0.29711103 -0.59676205 0.20497988
v -0.29711103 -0.59878808 0.23132614
v -0.29711103 -0.60282919 0.28401862
v -0.29711103 -0.60557804 0.32022346
v -0.32723397 -0.61857749 0.55912435
v -0.30697889 -0.52886262 -0.00026580
v -0.29711103 -0.53736100 0.00194386
v -0.31575431 -0.52654092 0.00092404
v -0.33038594 -0.51454901 0.00032912
v -0.34100600 -0.50669676 0.00160392
v -0.45116434 -0.50669676 0.52096480
v -0.44706314 -0.50669676 0.47651614
v -0.44711691 -0.51177826 0.49461856
v -0.44217402 -0.50699243 0.42875296
v -0.44083082 -0.50699243 0.41566483
v -0.43465221 -0.51377144 0.38183966
v -0.44693780 -0.52489819 0.54722605
v -0.43579841 -0.51613698 0.40249172
v -0.43651475 -0.51760448 0.41566483
v -0.44357091 -0.52015616 0.49461856
v -0.44625724 -0.52336496 0.53413791
v -0.45082405 -0.56057824 0.75842092
v -0.43425823 -0.53944178 0.50362727
v -0.42279645 -0.52886262 0.34979922
v -0.42122048 -0.53968275 0.39722247
v -0.43397166 -0.52562097 0.42875296
v -0.42152490 -0.52695707 0.32889220
v -0.43425823 -0.57909725 0.74031848
v -0.43551184 -0.58041145 0.75799598
v -0.40825435 -0.53996747 0.30339584
v -0.40873789 -0.54050411 0.31027987
v -0.40868416 -0.55356925 0.39280309
v -0.42161446 -0.59278667 0.74983712
v -0.42161446 -0.57963389 0.65762530
v -0.41914304 -0.59059636 0.71847661
v -0.40934678 -0.59348755 0.67895724
v -0.40861254 -0.59289616 0.67011850
v -0.38332500 -0.58047715 0.42875296
v -0.39519866 -0.59268809 0.59243959
v -0.38101475 -0.57879063 0.40249172
v -0.35699876 -0.56725867 0.17863366
v -0.35612119 -0.56664539 0.16894505
v -0.34897551 -0.57241682 0.17863366
v -0.34897551 -0.57401575 0.19180677
v -0.35046196 -0.57626081 0.21815299
v -0.34800843 -0.57615131 0.20455494
v -0.33181871 -0.58078381 0.16546055
v -0.34281481 -0.59278667 0.32812732
v -0.34541162 -0.56818953 0.12594119
v -0.34118511 -0.57875778 0.19180677
v -0.33042177 -0.58005004 0.15228745
v -0.32902488 -0.59251286 0.26489633
v -0.36761881 -0.61857749 0.68924077
v -0.34177611 -0.60554519 0.45067983
v -0.31464394 -0.60546851 0.35999776
v -0.32773542 -0.61857749 0.56039917
v -0.29711103 -0.59367373 0.16588550
v -0.31630949 -0.60580802 0.36875151
v -0.29711103 -0.53778811 0.00219884
v -0.31061443 -0.53328704 0.00398359
v -0.31754520 -0.54076693 0.01324725
v -0.32221946 -0.53354987 0.00967779
v -0.33260667 -0.52931166 0.01188745
v -0.32263137 -0.52403303 0.00262378
v -0.33588403 -0.52023284 0.00721311
v -0.33916140 -0.51040931 0.00262378
v -0.34940533 -0.50669676 0.00678817
v -0.44647215 -0.50988366 0.48144544
v -0.44364254 -0.50669676 0.44226603
v -0.44093827 -0.50669676 0.41566483
v -0.43468805 -0.50669676 0.35566339
v -0.43366724 -0.50669676 0.34597476
v -0.43363141 -0.51129641 0.36297235
v -0.43291503 -0.50957700 0.34979922
v -0.42841989 -0.50669676 0.29753169
v -0.42825871 -0.50699243 0.29719173
v -0.42679015 -0.50699243 0.28401862
v -0.42258154 -0.51567699 0.28401862
v -0.42336954 -0.51708974 0.29719173
v -0.43321949 -0.52419727 0.41566483
v -0.42199055 -0.52766890 0.33662611
v -0.42098764 -0.52610286 0.32005349
v -0.41894603 -0.53662727 0.36297235
v -0.40762753 -0.53924469 0.29464209
v -0.40802151 -0.55287932 0.38396435
v -0.39451811 -0.55258361 0.29404717
v -0.40350847 -0.56182671 0.41566483
v -0.39527032 -0.56643731 0.39450285
v -0.38989762 -0.57537375 0.42875296
v -0.36593535 -0.56415940 0.20497988
v -0.36477126 -0.56326136 0.19180677
v -0.36358927 -0.56237430 0.17863366
v -0.35857476 -0.55542006 0.09959493
v -0.35529740 -0.56606495 0.16019126
v -0.34224175 -0.56615255 0.09373076
v -0.33978818 -0.57798022 0.17863366
v -0.33701229 -0.57640319 0.15228745
v -0.32954425 -0.57957914 0.14421358
v -0.32082257 -0.58160517 0.12594119
v -0.32263137 -0.58362026 0.15228745
v -0.32263137 -0.58502205 0.16546055
v -0.32263137 -0.58636907 0.17863366
v -0.31573639 -0.59248001 0.21262880
v -0.35827030 -0.61857749 0.65397081
v -0.32940097 -0.60580802 0.40844085
v -0.35606747 -0.61857749 0.64572699
v -0.33000990 -0.61857749 0.56643331
v -0.34089855 -0.61857749 0.59566914
v -0.30320007 -0.59267714 0.17098474
v -0.29711103 -0.59291806 0.15679177
v -0.34120301 -0.61857749 0.59651901
v -0.34129257 -0.61857749 0.59677397
v -0.29711103 -0.54637412 0.00984776
v -0.30946823 -0.54273822 0.01129253
v -0.32632062 -0.53808382 0.01562692
v -0.31786756 -0.55407304 0.02625039
v -0.32664298 -0.55163086 0.02863006
v -0.33749583 -0.53461219 0.01953637
v -0.34138208 -0.52590573 0.01469206
v -0.34619962 -0.51712259 0.01137753
v -0.34924415 -0.50729909 0.00704314
v -0.35105296 -0.50669676 0.00789304
v -0.42693344 -0.50669676 0.28427357
v -0.42383519 -0.50669676 0.25826730
v -0.42190099 -0.51448327 0.27339513
v -0.41862367 -0.52226982 0.28401862
v -0.41950119 -0.52367162 0.29719173
v -0.41203315 -0.53171001 0.28401862
v -0.40854088 -0.52717610 0.23557553
v -0.40023111 -0.54522420 0.28401862
v -0.39525239 -0.52698992 0.14429854
v -0.39417786 -0.53895993 0.20497988
v -0.39480468 -0.53966085 0.21305375
v -0.38343245 -0.54145686 0.15228745
v -0.38155202 -0.55276979 0.21373367
v -0.37087824 -0.55488346 0.16546055
v -0.37420933 -0.55758847 0.20497988
v -0.38205346 -0.56637158 0.31588906
v -0.36974998 -0.55395256 0.15228745
v -0.35737484 -0.55450015 0.08642182
v -0.36828143 -0.55272599 0.13503488
v -0.35198424 -0.56376515 0.12594119
v -0.34808006 -0.56279045 0.09874507
v -0.34897551 -0.56047966 0.08642182
v -0.34141792 -0.56563785 0.08642182
v -0.33482740 -0.56948183 0.08642182
v -0.33703023 -0.56979940 0.09874507
v -0.33581241 -0.57228543 0.11276804
v -0.33581241 -0.57390625 0.12594119
v -0.32854134 -0.57907535 0.13545983
v -0.32741306 -0.57853871 0.12594119
v -0.31922866 -0.58087141 0.11276804
v -0.30946823 -0.58482489 0.11276804
v -0.30946823 -0.58620479 0.12594119
v -0.30946823 -0.58754089 0.13911430
v -0.30946823 -0.58881125 0.15228745
v -0.30833997 -0.59051971 0.16614044
v -0.34379982 -0.61857749 0.60442289
v -0.34471318 -0.61857749 0.60748244
v -0.35441984 -0.61857749 0.64003281
v -0.29711103 -0.58887695 0.11276804
v -0.29775575 -0.59123154 0.13911430
v -0.29711103 -0.59139582 0.13911430
v -0.29711103 -0.59218433 0.14803802
v -0.29711103 -0.54932006 0.01265234
v -0.29891984 -0.55159801 0.01554192
v -0.30946823 -0.55605528 0.02429567
v -0.33359168 -0.54284771 0.02446568
v -0.34238500 -0.53990177 0.02718529
v -0.30946823 -0.56263712 0.03092473
v -0.31736613 -0.56687537 0.03959351
v -0.32200455 -0.55932978 0.03406928
v -0.33581241 -0.55515723 0.03806373
v -0.33711975 -0.54694361 0.03066979
v -0.34994259 -0.52096657 0.01698673
v -0.34897551 -0.53058203 0.02395573
v -0.35633610 -0.52748276 0.02659037
v -0.35497504 -0.51296103 0.01443709
v -0.35769720 -0.50669676 0.01239740
v -0.42261737 -0.50669676 0.24823873
v -0.42132793 -0.51347573 0.26464138
v -0.40843342 -0.51389192 0.17047483
v -0.41081533 -0.51753874 0.20497988
v -0.40730517 -0.52546768 0.21815299
v -0.39458977 -0.52616856 0.13554483
v -0.38429208 -0.52943211 0.08642182
v -0.38026254 -0.53824810 0.11276804
v -0.38187438 -0.53989082 0.13265521
v -0.38257283 -0.54060265 0.14149397
v -0.37152296 -0.54251919 0.08642182
v -0.36749342 -0.55205796 0.12594119
v -0.36632933 -0.55108327 0.11276804
v -0.36516524 -0.55009763 0.09959493
v -0.36396536 -0.54910104 0.08642182
v -0.35635404 -0.55370069 0.07613829
v -0.35067687 -0.56288900 0.11276804
v -0.35021123 -0.55742419 0.07231385
v -0.33971656 -0.56461936 0.07324871
v -0.33312604 -0.56848524 0.07324871
v -0.32153891 -0.57652367 0.08693173
v -0.32409991 -0.57692888 0.09959493
v -0.32581916 -0.57776119 0.11276804
v -0.32263137 -0.57401575 0.07324871
v -0.31750939 -0.58008289 0.09959493
v -0.30946823 -0.58332454 0.09959493
v -0.29711103 -0.58752994 0.09959493
v -0.29711103 -0.59112205 0.13613971
v -0.29711103 -0.55474108 0.01792159
v -0.29711103 -0.56521074 0.02820511
v -0.29915264 -0.56482744 0.02863006
v -0.34243872 -0.55310930 0.04035840
v -0.34768607 -0.54582654 0.03695887
v -0.35683758 -0.54099691 0.03916856
v -0.34897551 -0.53717482 0.02956492
v -0.30946823 -0.56859474 0.03755378
v -0.29720057 -0.57796927 0.04605260
v -0.30946823 -0.57346816 0.04698746
v -0.32211200 -0.56809098 0.04800732
v -0.32614154 -0.56458651 0.04435281
v -0.36129692 -0.51918147 0.02421070
v -0.36097456 -0.53221380 0.03466420
v -0.36511155 -0.52291596 0.03015984
v -0.36341020 -0.50669676 0.01690172
v -0.36919478 -0.51413285 0.02676034
v -0.42131000 -0.50669676 0.23770022
v -0.42088018 -0.51261057 0.25767238
v -0.40760963 -0.50669676 0.13316516
v -0.40626642 -0.50669676 0.12313657
v -0.40513817 -0.50669676 0.11489277
v -0.40100118 -0.50699243 0.08642182
v -0.39534195 -0.51397952 0.07809301
v -0.39387339 -0.52524861 0.12594119
v -0.39595083 -0.51481183 0.08642182
v -0.38321755 -0.52823839 0.07324871
v -0.37809558 -0.53601399 0.08642182
v -0.37918801 -0.53714198 0.09959493
v -0.37035887 -0.54143496 0.07324871
v -0.36129692 -0.54896964 0.07231385
v -0.35542275 -0.55297787 0.06729954
v -0.34770397 -0.55673426 0.06007556
v -0.33746004 -0.56331610 0.06007556
v -0.33086952 -0.56719294 0.06007556
v -0.31519913 -0.57906440 0.08285231
v -0.32263137 -0.57143118 0.06007556
v -0.31346194 -0.57835257 0.07324871
v -0.31027415 -0.58149564 0.08693173
v -0.29711103 -0.58588721 0.08540196
v -0.29711103 -0.58601861 0.08650682
v -0.29711103 -0.57013891 0.03381431
v -0.33463039 -0.56116963 0.04800732
v -0.34455200 -0.55455490 0.04698746
v -0.35114251 -0.54975812 0.04698746
v -0.35950601 -0.54317627 0.04698746
v -0.37007234 -0.52817269 0.03899859
v -0.36609653 -0.53740480 0.04698746
v -0.29711103 -0.57761881 0.04545768
v -0.29711103 -0.57803496 0.04613756
v -0.30219718 -0.57918489 0.05455137
v -0.32945470 -0.56637158 0.05319157
v -0.37200650 -0.50669676 0.02421070
v -0.37191694 -0.50699243 0.02429567
v -0.37403021 -0.51862297 0.03491918
v -0.38246537 -0.51432998 0.03967848
v -0.37848956 -0.50699243 0.03041481
v -0.42003845 -0.50669676 0.22784164
v -0.41889230 -0.50669676 0.21900289
v -0.41690438 -0.50699243 0.20497988
v -0.41036758 -0.50669676 0.15407216
v -0.40118029 -0.50669676 0.08642182
v -0.39849392 -0.50791237 0.07358865
v -0.39458977 -0.51291723 0.06933926
v -0.39056024 -0.51908292 0.07358865
v -0.39086470 -0.52140463 0.08642182
v -0.38241165 -0.52731848 0.06466493
v -0.37694939 -0.53482027 0.07324871
v -0.36940968 -0.54054791 0.06381504
v -0.36831726 -0.53954036 0.05506129
v -0.36321319 -0.54481900 0.05973562
v -0.35429449 -0.55215651 0.06007556
v -0.30687144 -0.58096995 0.07324871
v -0.30923543 -0.57739978 0.05939568
v -0.30466863 -0.58010479 0.06339009
v -0.29711103 -0.58424449 0.07324871
v -0.37257959 -0.53082295 0.04698746
v -0.37915222 -0.52347449 0.04698746
v -0.29711103 -0.57998435 0.05183176
v -0.29720057 -0.58175847 0.05939568
v -0.37859702 -0.50669676 0.03032981
v -0.38443536 -0.51689261 0.04698746
v -0.39149152 -0.50669676 0.04681749
v -0.38524126 -0.50669676 0.03721384
v -0.38490101 -0.50699243 0.03704387
v -0.39921030 -0.50669676 0.07350365
v -0.39704330 -0.50669676 0.06228526
v -0.39353314 -0.51134020 0.06007556
v -0.38624417 -0.52104326 0.06016057
v -0.38128339 -0.52602618 0.05582617
v -0.37535548 -0.53342942 0.05982062
v -0.29711103 -0.58408021 0.07231385
v -0.29711103 -0.58178036 0.05939568
v -0.29711103 -0.58201038 0.06067048
v -0.38500846 -0.50669676 0.03695887
v -0.39500169 -0.50669676 0.05523126
v -0.39654187 -0.50669676 0.06007556
f 1 2 3
f 1 3 4
f 1 4 5
f 1 5 16
f 1 16 15
f 1 15 29
f 1 29 46
f 1 46 67
f 1 67 97
f 1 97 108
f 1 108 163
f 1 163 214
f 1 214 216
f 1 216 270
f 1 270 269
f 1 269 268
f 1 268 222
f 1 222 221
f 1 221 218
f 1 218 217
f 1 217 166
f 1 166 115
f 1 115 77
f 1 77 48
f 1 48 33
f 1 33 32
f 1 32 30
f 1 30 17
f 1 17 6
f 1 6 18
f 1 18 31
f 1 31 47
f 1 47 76
f 1 76 114
f 1 114 113
f 1 113 112
f 1 112 111
f 1 111 110
f 1 110 167
f 1 167 220
f 1 220 274
f 1 274 273
f 1 273 317
f 1 317 271
f 1 271 316
f 1 316 358
f 1 358 357
f 1 357 393
f 1 393 409
f 1 409 411
f 1 411 410
f 1 410 396
f 1 396 367
f 1 367 366
f 1 366 359
f 1 359 319
f 1 319 318
f 1 318 275
f 1 275 223
f 1 223 169
f 1 169 117
f 1 117 79
f 1 79 49
f 1 49 34
f 1 34 19
f 1 19 8
f 1 8 2
f 2 7 3
f 2 8 7
f 3 9 10
f 3 10 11
f 3 11 4
f 3 7 8
f 3 8 19
f 3 19 36
f 3 36 51
f 3 51 81
f 3 81 120
f 3 120 177
f 3 177 232
f 3 232 289
f 3 289 333
f 3 333 370
f 3 370 398
f 3 398 412
f 3 412 401
f 3 401 400
f 3 400 413
f 3 413 414
f 3 414 404
f 3 404 403
f 3 403 379
f 3 379 339
f 3 339 338
f 3 338 337
f 3 337 378
f 3 378 376
f 3 376 375
f 3 375 335
f 3 335 290
f 3 290 234
f 3 234 233
f 3 233 185
f 3 185 182
f 3 182 181
f 3 181 180
f 3 180 179
f 3 179 122
f 3 122 86
f 3 86 121
f 3 121 83
f 3 83 82
f 3 82 52
f 3 52 38
f 3 38 21
f 3 21 9
f 4 11 12
f 4 12 13
f 4 13 14
f 4 14 15
f 4 15 16
f 4 16 5
f 6 17 18
f 9 20 10
f 9 21 20
f 10 20 22
f 10 22 11
f 11 22 23
f 11 23 24
f 11 24 12
f 12 24 25
f 12 25 26
f 12 26 13
f 13 26 27
f 13 27 28
f 13 28 14
f 14 28 29
f 14 29 15
f 17 30 18
f 18 30 32
f 18 32 33
f 18 33 31
f 19 34 35
f 19 35 36
f 20 21 37
f 20 37 22
f 21 38 39
f 21 39 37
f 22 37 40
f 22 40 23
f 23 40 37
f 23 37 41
f 23 41 42
f 23 42 25
f 23 25 24
f 25 42 43
f 25 43 26
f 26 43 44
f 26 44 27
f 27 44 45
f 27 45 28
f 28 45 29
f 29 45 46
f 31 33 48
f 31 48 47
f 34 49 50
f 34 50 35
f 35 50 51
f 35 51 36
f 37 39 41
f 38 52 39
f 39 53 41
f 39 52 53
f 41 53 54
f 41 54 55
f 41 55 56
f 41 56 42
f 42 56 57
f 42 57 43
f 43 57 58
f 43 58 59
f 43 59 60
f 43 60 61
f 43 61 62
f 43 62 44
f 44 62 45
f 45 62 63
f 45 63 64
f 45 64 65
f 45 65 66
f 45 66 46
f 46 66 68
f 46 68 69
f 46 69 70
f 46 70 71
f 46 71 72
f 46 72 73
f 46 73 67
f 47 74 75
f 47 75 76
f 47 48 74
f 48 77 74
f 49 78 50
f 49 79 78
f 50 78 80
f 50 80 81
f 50 81 51
f 52 82 53
f 53 82 83
f 53 83 84
f 53 84 85
f 53 85 54
f 54 85 86
f 54 86 87
f 54 87 55
f 55 88 89
f 55 89 56
f 55 87 90
f 55 90 88
f 56 89 57
f 57 91 92
f 57 92 58
f 57 89 93
f 57 93 91
f 58 92 59
f 59 92 94
f 59 94 60
f 60 94 95
f 60 95 61
f 61 95 62
f 62 95 96
f 62 96 63
f 63 96 64
f 64 96 65
f 65 96 66
f 66 96 68
f 67 73 97
f 68 98 99
f 68 99 100
f 68 100 101
f 68 101 69
f 68 96 98
f 69 102 103
f 69 103 70
f 69 101 104
f 69 104 105
f 69 105 102
f 70 103 71
f 71 103 102
f 71 102 106
f 71 106 107
f 71 107 72
f 72 107 108
f 72 108 97
f 72 97 73
f 74 109 110
f 74 110 111
f 74 111 112
f 74 112 113
f 74 113 114
f 74 114 76
f 74 76 75
f 74 77 115
f 74 115 109
f 78 79 116
f 78 116 80
f 79 117 116
f 80 116 118
f 80 118 119
f 80 119 81
f 81 119 120
f 83 121 85
f 83 85 84
f 85 121 86
f 86 122 87
f 87 122 123
f 87 123 124
f 87 124 125
f 87 125 126
f 87 126 90
f 88 127 128
f 88 128 129
f 88 129 89
f 88 90 127
f 89 129 93
f 90 126 128
f 90 128 130
f 90 130 131
f 90 131 127
f 91 132 92
f 91 93 132
f 92 132 93
f 92 93 133
f 92 133 134
f 92 134 135
f 92 135 94
f 93 129 136
f 93 136 137
f 93 137 134
f 93 134 133
f 94 138 139
f 94 139 95
f 94 135 140
f 94 140 141
f 94 141 142
f 94 142 138
f 95 143 96
f 95 139 138
f 95 138 144
f 95 144 143
f 96 143 145
f 96 145 146
f 96 146 147
f 96 147 148
f 96 148 149
f 96 149 99
f 96 99 98
f 99 149 148
f 99 148 100
f 100 148 150
f 100 150 151
f 100 151 152
f 100 152 153
f 100 153 154
f 100 154 155
f 100 155 101
f 101 155 156
f 101 156 104
f 102 105 157
f 102 157 158
f 102 158 106
f 104 156 154
f 104 154 153
f 104 153 159
f 104 159 160
f 104 160 161
f 104 161 157
f 104 157 105
f 106 158 162
f 106 162 108
f 106 108 107
f 108 162 164
f 108 164 163
f 109 165 110
f 109 115 166
f 109 166 165
f 110 165 168
f 110 168 167
f 116 117 169
f 116 169 118
f 118 169 170
f 118 170 171
f 118 171 172
f 118 172 173
f 118 173 174
f 118 174 119
f 119 174 175
f 119 175 176
f 119 176 120
f 120 176 177
f 122 178 123
f 122 179 178
f 123 178 124
f 124 179 180
f 124 180 125
f 124 178 179
f 125 180 181
f 125 181 126
f 126 181 182
f 126 182 183
f 126 183 184
f 126 184 185
f 126 185 186
f 126 186 187
f 126 187 188
f 126 188 189
f 126 189 190
f 126 190 128
f 127 131 128
f 128 190 136
f 128 136 129
f 128 131 130
f 134 137 191
f 134 191 135
f 135 191 137
f 135 137 192
f 135 192 193
f 135 193 140
f 136 190 189
f 136 189 192
f 136 192 137
f 138 142 144
f 140 193 194
f 140 194 195
f 140 195 142
f 140 142 141
f 142 195 196
f 142 196 197
f 142 197 144
f 143 144 198
f 143 198 145
f 144 197 198
f 145 198 146
f 146 198 147
f 147 198 199
f 147 199 150
f 147 150 148
f 150 199 200
f 150 200 152
f 150 152 151
f 152 200 201
f 152 201 202
f 152 202 203
f 152 203 204
f 152 204 205
f 152 205 159
f 152 159 153
f 154 156 155
f 157 161 158
f 158 161 162
f 159 205 160
f 160 206 161
f 160 205 206
f 161 207 208
f 161 208 209
f 161 209 210
f 161 210 211
f 161 211 162
f 161 206 207
f 162 211 212
f 162 212 213
f 162 213 164
f 163 164 214
f 164 213 215
f 164 215 216
f 164 216 214
f 165 166 217
f 165 217 218
f 165 218 168
f 167 168 219
f 167 219 220
f 168 218 221
f 168 221 222
f 168 222 219
f 169 223 224
f 169 224 170
f 170 224 171
f 171 225 172
f 171 224 226
f 171 226 227
f 171 227 225
f 172 225 173
f 173 175 174
f 173 225 228
f 173 228 229
f 173 229 175
f 175 229 230
f 175 230 176
f 176 230 231
f 176 231 177
f 177 231 232
f 182 184 183
f 182 185 184
f 185 233 187
f 185 187 186
f 187 233 234
f 187 234 235
f 187 235 188
f 188 236 237
f 188 237 192
f 188 192 189
f 188 235 236
f 192 238 193
f 192 237 239
f 192 239 238
f 193 238 194
f 194 240 195
f 194 238 239
f 194 239 241
f 194 241 242
f 194 242 243
f 194 243 240
f 195 240 196
f 196 198 197
f 196 240 243
f 196 243 244
f 196 244 245
f 196 245 198
f 198 245 246
f 198 246 247
f 198 247 248
f 198 248 199
f 199 248 200
f 200 247 246
f 200 246 201
f 200 248 247
f 201 246 202
f 202 246 249
f 202 249 203
f 203 250 204
f 203 249 251
f 203 251 250
f 204 252 205
f 204 250 252
f 205 253 254
f 205 254 255
f 205 255 256
f 205 256 257
f 205 257 258
f 205 258 259
f 205 259 206
f 205 252 253
f 206 259 207
f 207 259 208
f 208 259 260
f 208 260 209
f 209 260 261
f 209 261 262
f 209 262 211
f 209 211 210
f 211 262 263
f 211 263 264
f 211 264 212
f 212 264 265
f 212 265 213
f 213 265 266
f 213 266 267
f 213 267 219
f 213 219 215
f 215 219 268
f 215 268 269
f 215 269 270
f 215 270 216
f 219 267 265
f 219 265 271
f 219 271 272
f 219 272 273
f 219 273 274
f 219 274 220
f 219 222 268
f 223 275 224
f 224 275 276
f 224 276 277
f 224 277 226
f 225 227 278
f 225 278 279
f 225 279 228
f 226 277 280
f 226 280 281
f 226 281 282
f 226 282 227
f 227 282 283
f 227 283 284
f 227 284 278
f 228 279 229
f 229 285 230
f 229 279 286
f 229 286 287
f 229 287 285
f 230 285 288
f 230 288 231
f 231 288 232
f 232 288 289
f 234 290 291
f 234 291 235
f 235 291 292
f 235 292 236
f 236 292 293
f 236 293 294
f 236 294 237
f 237 294 239
f 239 294 241
f 241 294 295
f 241 295 296
f 241 296 242
f 242 296 243
f 243 296 297
f 243 297 298
f 243 298 299
f 243 299 244
f 244 299 245
f 245 299 300
f 245 300 301
f 245 301 251
f 245 251 246
f 246 251 249
f 250 251 301
f 250 301 302
f 250 302 303
f 250 303 304
f 250 304 305
f 250 305 254
f 250 254 306
f 250 306 252
f 252 306 253
f 253 306 254
f 254 305 307
f 254 307 255
f 255 307 308
f 255 308 309
f 255 309 256
f 256 310 311
f 256 311 312
f 256 312 258
f 256 258 257
f 256 309 313
f 256 313 310
f 258 312 261
f 258 261 259
f 259 261 260
f 261 312 262
f 262 312 314
f 262 314 263
f 263 314 315
f 263 315 316
f 263 316 264
f 264 316 271
f 264 271 265
f 265 267 266
f 271 317 272
f 272 317 273
f 275 318 276
f 276 318 319
f 276 319 320
f 276 320 277
f 277 320 280
f 278 284 279
f 279 284 321
f 279 321 322
f 279 322 323
f 279 323 324
f 279 324 286
f 280 320 325
f 280 325 281
f 281 283 282
f 281 325 326
f 281 326 327
f 281 327 328
f 281 328 329
f 281 329 321
f 281 321 283
f 283 321 284
f 285 287 288
f 286 324 287
f 287 330 288
f 287 324 323
f 287 323 331
f 287 331 332
f 287 332 330
f 288 333 289
f 288 330 334
f 288 334 333
f 290 335 291
f 291 335 336
f 291 336 337
f 291 337 338
f 291 338 292
f 292 338 339
f 292 339 340
f 292 340 341
f 292 341 294
f 292 294 293
f 294 342 295
f 294 341 343
f 294 343 342
f 295 342 296
f 296 344 345
f 296 345 346
f 296 346 297
f 296 342 344
f 297 346 300
f 297 300 298
f 298 300 299
f 300 346 345
f 300 345 347
f 300 347 304
f 300 304 303
f 300 303 302
f 300 302 301
f 304 347 348
f 304 348 305
f 305 348 349
f 305 349 307
f 307 349 308
f 308 349 350
f 308 350 351
f 308 351 352
f 308 352 309
f 309 352 313
f 310 313 353
f 310 353 311
f 311 353 314
f 311 314 312
f 313 352 354
f 313 354 355
f 313 355 353
f 314 353 315
f 315 353 356
f 315 356 357
f 315 357 358
f 315 358 316
f 319 359 320
f 320 359 325
f 321 323 322
f 321 329 360
f 321 360 361
f 321 361 362
f 321 362 363
f 321 363 323
f 323 364 331
f 323 363 365
f 323 365 364
f 325 359 366
f 325 366 326
f 326 366 367
f 326 367 368
f 326 368 327
f 327 368 328
f 328 368 369
f 328 369 329
f 329 369 360
f 330 332 334
f 331 364 332
f 332 364 334
f 333 334 371
f 333 371 370
f 334 364 372
f 334 372 373
f 334 373 374
f 334 374 371
f 335 375 336
f 336 375 376
f 336 376 377
f 336 377 378
f 336 378 337
f 339 379 340
f 340 379 380
f 340 380 341
f 341 380 381
f 341 381 382
f 341 382 383
f 341 383 342
f 341 342 343
f 342 383 344
f 344 382 384
f 344 384 385
f 344 385 345
f 344 383 382
f 345 385 347
f 347 385 386
f 347 386 348
f 348 386 349
f 349 386 387
f 349 387 388
f 349 388 389
f 349 389 350
f 350 389 361
f 350 361 369
f 350 369 351
f 351 369 352
f 352 369 354
f 353 355 390
f 353 390 356
f 354 369 391
f 354 391 355
f 355 391 392
f 355 392 390
f 356 390 357
f 357 390 393
f 360 369 361
f 361 389 362
f 362 389 387
f 362 387 363
f 363 387 365
f 364 365 394
f 364 394 395
f 364 395 373
f 364 373 372
f 365 387 394
f 367 396 368
f 368 396 397
f 368 397 392
f 368 392 391
f 368 391 369
f 370 371 398
f 371 374 398
f 373 395 399
f 373 399 400
f 373 400 401
f 373 401 402
f 373 402 374
f 374 402 412
f 374 412 398
f 376 378 377
f 379 403 380
f 380 403 404
f 380 404 381
f 381 404 405
f 381 405 406
f 381 406 384
f 381 384 382
f 384 406 407
f 384 407 408
f 384 408 386
f 384 386 385
f 386 408 387
f 387 389 388
f 387 408 407
f 387 407 394
f 390 392 393
f 392 409 393
f 392 397 409
f 394 407 395
f 395 407 399
f 396 410 397
f 397 410 411
f 397 411 409
f 399 407 413
f 399 413 400
f 401 412 402
f 404 414 405
f 405 414 413
f 405 413 407
f 405 407 406

