# https://github.com/mikedh/trimesh
v -0.17434094 0.63870190 0.87588691
v -0.17125910 0.64542114 0.88352041
v -0.17253201 0.64625204 0.87588691
v -0.17336947 0.63033880 0.87588691
v -0.11947081 0.63986069 1.12666593
v -0.11853286 0.64503937 1.13334169
v -0.11853286 0.64529988 1.13334169
v -0.17219706 0.64673711 0.87588691
v -0.11930331 0.64641373 1.12669407
v -0.16536339 0.62639532 0.87588691
v -0.11977229 0.63075652 1.11353968
v -0.11903532 0.63151109 1.12227173
v -0.11752791 0.63626305 1.13103195
v -0.11414458 0.63986069 1.13858092
v -0.10650698 0.63114728 1.14782001
v -0.10721045 0.63867498 1.14858055
v -0.10670798 0.64702011 1.14793269
v -0.11143123 0.64837203 1.13858092
v -0.11190020 0.65148012 1.12669407
v -0.16241555 0.64974192 0.90287179
v -0.16459293 0.65165076 0.87588691
v -0.12067674 0.64813848 1.11353968
v -0.16459293 0.62616625 0.87588691
v -0.13826331 0.62436968 0.96870023
v -0.13826331 0.62550152 0.98188280
v -0.11263717 0.62962916 1.12666593
v -0.11190020 0.62803020 1.11353968
v -0.10875137 0.63008727 1.13987667
v -0.09873539 0.62798530 1.13987667
v -0.09873539 0.63037926 1.14979177
v -0.08557058 0.63423741 1.15855200
v -0.09277271 0.64366947 1.15998856
v -0.09277271 0.64592866 1.15998856
v -0.09779744 0.64893794 1.15260855
v -0.09873539 0.65460168 1.13987667
v -0.11190020 0.65316888 1.11353968
v -0.15142812 0.65364948 0.91602620
v -0.15142812 0.65465109 0.90287179
v -0.15142812 0.65501038 0.88968920
v -0.15142812 0.65493405 0.87653477
v -0.15142812 0.65492506 0.87588691
v -0.15223209 0.62304916 0.87588691
v -0.15142812 0.62490864 0.91602620
v -0.13826331 0.62383968 0.95554580
v -0.10365964 0.61915510 0.95554580
v -0.12509851 0.62502092 1.02134604
v -0.11190020 0.62713192 1.10035707
v -0.09873539 0.62720377 1.12669407
v -0.08557058 0.62833113 1.13987667
v -0.08557058 0.63031187 1.15196069
v -0.07240578 0.63227464 1.15908718
v -0.08557058 0.64082188 1.16159412
v -0.07240578 0.63885912 1.16334053
v -0.08557058 0.64808455 1.16159412
v -0.08557058 0.65375277 1.15303106
v -0.07240578 0.65605690 1.15303106
v -0.08557058 0.65644766 1.13987667
v -0.09873539 0.65569757 1.12669407
v -0.11190020 0.65406720 1.10035707
v -0.09873539 0.66161283 0.95554580
v 0.09873674 0.66424932 0.95554580
v 0.07240712 0.65669471 0.87588691
v -0.15142812 0.62296832 0.87588691
v -0.09706049 0.61836459 0.95554580
v -0.11190020 0.62646267 1.08720264
v -0.09568705 0.61859813 0.96278496
v -0.09149977 0.61859813 0.96278496
v 0.09873674 0.62352077 0.95554580
v -0.01016604 0.63197371 1.14694681
v -0.07240578 0.63074753 1.15249588
v 0.07240712 0.63421944 1.13987667
v -0.05924097 0.63918250 1.16362223
v 0.07240712 0.63683795 1.15303106
v 0.07240712 0.64224119 1.16187582
v 0.05924231 0.64199414 1.16215749
v 0.03291269 0.64152704 1.16263636
v 0.01974789 0.64126653 1.16283352
v -0.07240578 0.65020003 1.16334053
v -0.05924097 0.65652850 1.15303106
v 0.05924231 0.65794333 1.15858017
v -0.01368336 0.65843735 1.14660879
v 0.08557193 0.66154996 1.13987667
v 0.09873674 0.66184187 1.12669407
v 0.11190154 0.66119511 1.10035707
v 0.13183300 0.65850477 1.01813493
v 0.13190000 0.65853617 1.00821979
v 0.15142948 0.65524845 0.88968920
v 0.15142948 0.65521701 0.87653477
v 0.15142948 0.65519904 0.87588691
v 0.13890113 0.65590867 0.87588691
v 0.13826467 0.65594461 0.87588691
v 0.12509986 0.65635783 0.87588691
v 0.11190154 0.65662281 0.87588691
v 0.09940670 0.65675758 0.87588691
v 0.09873674 0.65676205 0.87588691
v 0.08624189 0.65679349 0.87588691
v 0.08557193 0.65679349 0.87588691
v -0.13906728 0.62251021 0.87588691
v -0.09515108 0.61850383 0.94813765
v -0.09099731 0.61836459 0.95554580
v 0.12509986 0.62723972 0.87588691
v 0.13826467 0.62767538 0.87588691
v 0.15142948 0.62876232 0.87588691
v 0.11190154 0.63638432 1.11353968
v 0.09873674 0.63492012 1.12669407
v 0.08557193 0.63474944 1.13987667
v -0.09129879 0.61850383 0.94813765
v -0.04607616 0.63962267 1.16353770
v -0.05924097 0.65053239 1.16362223
v 0.08557193 0.63840097 1.15303106
v 0.08557193 0.64352572 1.16083359
v 0.07240712 0.65105341 1.16187582
v 0.05924231 0.65135886 1.16215749
v 0.03291269 0.65104442 1.16263636
v 0.01974789 0.65095012 1.16283352
v -0.00658173 0.65852722 1.14742568
v 0.05924231 0.65949289 1.15201705
v 0.00658308 0.65869339 1.14863690
v 0.07240712 0.65763789 1.15852382
v 0.08557193 0.66003188 1.15077765
v 0.07240712 0.65973990 1.15193251
v -0.04607616 0.65063121 1.16353770
v -0.03291135 0.65073902 1.16339689
v -0.01974654 0.65082434 1.16325604
v 0.09873674 0.66118616 1.13987667
v 0.11190154 0.66099299 1.11353968
v 0.12084558 0.65969947 1.08720264
v 0.12024261 0.65960968 1.10035707
v 0.13123003 0.65827570 1.03452865
v 0.15142948 0.65483971 0.90287179
v 0.16549873 0.64953529 0.87588691
v 0.15209944 0.65504633 0.87588691
v -0.13826331 0.62250570 0.87588691
v 0.11190154 0.62691634 0.87588691
v 0.16040700 0.63074306 0.87588691
v 0.11190154 0.63798328 1.12669407
v 0.09873674 0.63637984 1.13987667
v -0.12586897 0.62271680 0.87588691
v -0.12509851 0.62273030 0.87588691
v 0.09873674 0.62665132 0.87588691
v 0.09769829 0.64197169 1.15266491
v 0.09260656 0.64483274 1.15987589
v 0.08557193 0.64859659 1.16083359
v 0.08557193 0.65518106 1.15736895
v 0.09873674 0.65939407 1.14835520
v 0.10550339 0.65852722 1.14658065
v 0.10804925 0.65943896 1.13987667
v 0.11267201 0.66013062 1.12680674
v 0.11957265 0.65927727 1.11353968
v 0.16593420 0.64932870 0.87588691
v 0.16090948 0.63132244 0.87588691
v 0.12164953 0.64155848 1.11353968
v 0.11170056 0.64172915 1.13920064
v 0.12017561 0.64299575 1.12669407
v 0.11907017 0.64441054 1.13435574
v 0.10717829 0.64351226 1.14801718
v 0.09260656 0.64612630 1.15987589
v 0.10680982 0.65183941 1.14773552
v 0.11387794 0.65216731 1.13920064
v 0.11759625 0.65677555 1.13125730
v 0.11896968 0.65883710 1.12246889
v 0.16636970 0.64896039 0.87588691
v 0.16740813 0.63890401 0.87588691
v 0.16787711 0.63983377 0.87588691
v 0.15826311 0.64475189 0.93709579
v 0.13200049 0.64469801 1.06940053
v 0.11907017 0.64799472 1.13435574
v 0.12010862 0.65216731 1.12680674
v 0.15826311 0.64567714 0.93709579
v 0.15906708 0.64680002 0.92920880
v 0.16040700 0.64835853 0.91602620
v 0.16174692 0.64936461 0.90287179
v 0.16787711 0.64009428 0.87588691
v 0.13200049 0.64649458 1.06940053
f 1 2 3
f 1 3 8
f 1 8 21
f 1 21 41
f 1 41 62
f 1 62 97
f 1 97 96
f 1 96 95
f 1 95 94
f 1 94 93
f 1 93 92
f 1 92 91
f 1 91 90
f 1 90 89
f 1 89 132
f 1 132 131
f 1 131 150
f 1 150 162
f 1 162 173
f 1 173 164
f 1 164 163
f 1 163 151
f 1 151 135
f 1 135 103
f 1 103 102
f 1 102 101
f 1 101 134
f 1 134 140
f 1 140 139
f 1 139 138
f 1 138 133
f 1 133 98
f 1 98 63
f 1 63 42
f 1 42 23
f 1 23 10
f 1 10 4
f 1 4 5
f 1 5 6
f 1 6 7
f 1 7 2
f 2 7 3
f 3 7 9
f 3 9 8
f 4 10 11
f 4 11 12
f 4 12 5
f 5 12 13
f 5 13 6
f 6 13 14
f 6 14 15
f 6 15 16
f 6 16 7
f 7 16 17
f 7 17 18
f 7 18 19
f 7 19 9
f 8 20 21
f 8 9 22
f 8 22 20
f 9 19 22
f 10 23 24
f 10 24 25
f 10 25 11
f 11 26 12
f 11 25 27
f 11 27 26
f 12 26 28
f 12 28 15
f 12 15 13
f 13 15 14
f 15 28 29
f 15 29 30
f 15 30 31
f 15 31 32
f 15 32 16
f 16 32 33
f 16 33 17
f 17 33 34
f 17 34 35
f 17 35 18
f 18 35 19
f 19 35 36
f 19 36 22
f 20 22 36
f 20 36 21
f 21 37 38
f 21 38 39
f 21 39 40
f 21 40 41
f 21 36 37
f 23 42 43
f 23 43 24
f 24 43 42
f 24 42 44
f 24 44 45
f 24 45 46
f 24 46 47
f 24 47 27
f 24 27 25
f 26 27 28
f 27 47 29
f 27 29 28
f 29 47 48
f 29 48 49
f 29 49 50
f 29 50 30
f 30 50 51
f 30 51 31
f 31 52 32
f 31 51 53
f 31 53 52
f 32 52 54
f 32 54 33
f 33 54 34
f 34 54 55
f 34 55 35
f 35 55 56
f 35 56 57
f 35 57 58
f 35 58 36
f 36 59 38
f 36 38 37
f 36 58 59
f 38 59 58
f 38 58 60
f 38 60 39
f 39 60 40
f 40 60 41
f 41 60 61
f 41 61 62
f 42 63 64
f 42 64 45
f 42 45 44
f 45 64 65
f 45 65 46
f 46 65 47
f 47 65 48
f 48 66 67
f 48 67 68
f 48 68 49
f 48 65 66
f 49 69 70
f 49 70 50
f 49 68 71
f 49 71 69
f 50 70 51
f 51 72 53
f 51 70 69
f 51 69 73
f 51 73 74
f 51 74 75
f 51 75 76
f 51 76 77
f 51 77 72
f 52 53 78
f 52 78 54
f 53 72 109
f 53 109 78
f 54 78 55
f 55 78 56
f 56 79 57
f 56 78 80
f 56 80 79
f 57 60 58
f 57 79 81
f 57 81 60
f 60 81 82
f 60 82 61
f 61 82 83
f 61 83 84
f 61 84 85
f 61 85 86
f 61 86 87
f 61 87 88
f 61 88 89
f 61 89 90
f 61 90 91
f 61 91 92
f 61 92 93
f 61 93 94
f 61 94 95
f 61 95 96
f 61 96 97
f 61 97 62
f 63 98 99
f 63 99 64
f 64 99 107
f 64 107 100
f 64 100 67
f 64 67 66
f 64 66 65
f 67 100 68
f 68 101 102
f 68 102 103
f 68 103 104
f 68 104 105
f 68 105 106
f 68 106 71
f 68 100 107
f 68 107 101
f 69 71 106
f 69 106 73
f 72 77 108
f 72 108 122
f 72 122 109
f 73 106 110
f 73 110 74
f 74 110 111
f 74 111 143
f 74 143 112
f 74 112 113
f 74 113 75
f 75 113 114
f 75 114 76
f 76 114 115
f 76 115 77
f 77 115 124
f 77 124 123
f 77 123 122
f 77 122 108
f 78 109 80
f 79 116 81
f 79 80 117
f 79 117 118
f 79 118 116
f 80 115 114
f 80 114 113
f 80 113 119
f 80 119 120
f 80 120 121
f 80 121 117
f 80 109 122
f 80 122 123
f 80 123 124
f 80 124 115
f 81 116 82
f 82 118 117
f 82 117 121
f 82 121 120
f 82 120 125
f 82 125 83
f 82 116 118
f 83 125 126
f 83 126 84
f 84 126 127
f 84 127 85
f 85 127 128
f 85 128 129
f 85 129 87
f 85 87 86
f 87 130 131
f 87 131 132
f 87 132 88
f 87 129 130
f 88 132 89
f 98 133 99
f 99 133 107
f 101 107 134
f 103 135 104
f 104 136 137
f 104 137 105
f 104 135 136
f 105 137 106
f 106 137 110
f 107 133 138
f 107 138 139
f 107 139 140
f 107 140 134
f 110 137 141
f 110 141 142
f 110 142 111
f 111 142 157
f 111 157 143
f 112 119 113
f 112 143 119
f 119 143 144
f 119 144 145
f 119 145 120
f 120 145 125
f 125 145 146
f 125 146 147
f 125 147 148
f 125 148 126
f 126 148 149
f 126 149 128
f 126 128 127
f 128 149 129
f 129 149 150
f 129 150 131
f 129 131 130
f 135 151 152
f 135 152 136
f 136 153 137
f 136 152 154
f 136 154 155
f 136 155 153
f 137 153 156
f 137 156 141
f 141 156 142
f 142 156 157
f 143 157 144
f 144 157 146
f 144 146 145
f 146 158 159
f 146 159 160
f 146 160 147
f 146 157 158
f 147 160 161
f 147 161 148
f 148 161 149
f 149 161 150
f 150 161 162
f 151 163 152
f 152 163 154
f 153 155 156
f 154 163 164
f 154 164 165
f 154 165 155
f 155 165 166
f 155 166 174
f 155 174 167
f 155 167 156
f 156 167 158
f 156 158 157
f 158 167 159
f 159 167 160
f 160 167 168
f 160 168 161
f 161 168 169
f 161 169 170
f 161 170 171
f 161 171 172
f 161 172 162
f 162 172 171
f 162 171 170
f 162 170 169
f 162 169 173
f 164 173 169
f 164 169 165
f 165 169 174
f 165 174 166
f 167 174 169
f 167 169 168

