# https://github.com/mikedh/trimesh
v 0.45528587 -0.32304098 0.55460302
v 0.45520816 -0.29629094 0.55460302
v 0.24904320 -0.32304098 0.55460302
v 0.45062268 -0.32304098 0.49460606
v 0.45062268 -0.32262417 0.49460606
v 0.45054497 -0.28312433 0.49460606
v 0.45518226 -0.29041100 0.55460302
v 0.45046723 -0.25679110 0.49460606
v 0.45147760 -0.25679110 0.50774930
v 0.25875819 -0.24701847 0.55460302
v 0.19062376 -0.32304098 0.51781296
v 0.44437917 -0.32304098 0.41558167
v 0.44437917 -0.32262417 0.41558167
v 0.44953461 -0.29629094 0.48146281
v 0.43712533 -0.32304098 0.32385395
v 0.44725482 -0.24701847 0.45440645
v 0.45505271 -0.26408521 0.55460302
v 0.45041543 -0.24701847 0.49460606
v 0.44792838 -0.24701847 0.46293031
v 0.45142579 -0.24701847 0.50774930
v 0.45168485 -0.24701847 0.51115884
v 0.45494907 -0.24701847 0.55460302
v 0.19062376 -0.24701847 0.45864089
v 0.19062376 -0.32304098 -0.00692672
v 0.43606316 -0.32304098 0.31065572
v 0.43699578 -0.29629094 0.32341401
v 0.43689217 -0.26995772 0.32341401
v 0.43707352 -0.24701847 0.32682355
v 0.45466411 -0.24701847 0.55069854
v 0.45497497 -0.25091859 0.55460302
v 0.19062376 -0.24701847 -0.00714665
v 0.19062376 -0.30945756 -0.00703669
v 0.20412111 -0.32304098 -0.00698171
v 0.43593361 -0.29629094 0.31027077
v 0.43448287 -0.32304098 0.29140831
v 0.41528602 -0.24701847 0.06010931
v 0.43601135 -0.24701847 0.31362533
v 0.20751488 -0.24701847 -0.00714665
v 0.19062376 -0.25679110 -0.00720167
v 0.19062376 -0.29629094 -0.00709171
v 0.25722970 -0.32304098 -0.00698171
v 0.43510459 -0.24701847 0.30240682
v 0.41520832 -0.32304098 0.06010931
v 0.41526012 -0.30945756 0.06010931
v 0.41528602 -0.28312433 0.06010931
v 0.41401660 -0.26995772 0.04691109
v 0.41396480 -0.24701847 0.04691109
v 0.24702249 -0.24701847 -0.00692672
v 0.28313632 -0.26995772 -0.00681672
v 0.30948336 -0.30945756 -0.00681672
v 0.28313632 -0.30945756 -0.00692672
v 0.28355083 -0.32304098 -0.00692672
v 0.21728166 -0.29629094 -0.00709171
v 0.41393889 -0.32304098 0.04691109
v 0.41401660 -0.30945756 0.04691109
v 0.41075238 -0.29629094 0.03668242
v 0.41072648 -0.26995772 0.03679243
v 0.41150365 -0.24701847 0.03943210
v 0.25678930 -0.24701847 -0.00687170
v 0.30948336 -0.26995772 -0.00665177
v 0.32264393 -0.30945756 -0.00670671
v 0.30989787 -0.32304098 -0.00681672
v 0.29673730 -0.32304098 -0.00687170
v 0.41070058 -0.32304098 0.03668242
v 0.41075238 -0.30945756 0.03668242
v 0.40554514 -0.32304098 0.03030328
v 0.40536379 -0.30945756 0.03008335
v 0.40523428 -0.24701847 0.03024834
v 0.40663321 -0.24701847 0.03195307
v 0.41064874 -0.24701847 0.03684741
v 0.27336953 -0.24701847 -0.00676174
v 0.32264393 -0.24701847 -0.00637678
v 0.32264393 -0.26995772 -0.00654177
v 0.32303254 -0.32304098 -0.00670671
v 0.33577858 -0.28312433 -0.00648678
v 0.33577858 -0.30945756 -0.00654177
v 0.33619309 -0.32304098 -0.00654177
v 0.40536379 -0.32304098 0.03008335
v 0.39899076 -0.32304098 0.02386919
v 0.39878351 -0.30945756 0.02370420
v 0.39865400 -0.24701847 0.02381417
v 0.33577858 -0.24701847 -0.00626678
v 0.33577858 -0.26995772 -0.00643176
v 0.34893917 -0.28312433 -0.00626678
v 0.34893917 -0.32304098 -0.00626678
v 0.39168508 -0.32304098 0.01710505
v 0.39168508 -0.30945756 0.01710505
v 0.39339495 -0.24701847 0.01891983
v 0.33917235 -0.24701847 -0.00621179
v 0.34893917 -0.26995772 -0.00621179
v 0.36212563 -0.26995772 -0.00450702
v 0.34937958 -0.32304098 -0.00621179
v 0.38531206 -0.32304098 0.01122087
v 0.37782506 -0.24701847 0.00451175
v 0.38497530 -0.24701847 0.01111090
v 0.34893917 -0.24701847 -0.00604685
v 0.36212563 -0.24701847 -0.00439706
v 0.36212563 -0.25679110 -0.00445204
v 0.36212563 -0.30945756 -0.00439706
v 0.37124479 -0.24701847 -0.00104250
v 0.37119295 -0.26995772 -0.00104250
v 0.36212563 -0.32304098 -0.00434204
v 0.37772142 -0.32304098 0.00445677
v 0.37114114 -0.30945756 -0.00093250
v 0.37134840 -0.32304098 -0.00071257
v 0.37114114 -0.32304098 -0.00087751
f 1 2 7
f 1 7 17
f 1 17 30
f 1 30 22
f 1 22 10
f 1 10 3
f 1 3 11
f 1 11 24
f 1 24 33
f 1 33 41
f 1 41 52
f 1 52 63
f 1 63 62
f 1 62 74
f 1 74 77
f 1 77 85
f 1 85 92
f 1 92 102
f 1 102 106
f 1 106 105
f 1 105 103
f 1 103 93
f 1 93 86
f 1 86 79
f 1 79 78
f 1 78 66
f 1 66 64
f 1 64 54
f 1 54 43
f 1 43 35
f 1 35 25
f 1 25 15
f 1 15 12
f 1 12 4
f 1 4 5
f 1 5 6
f 1 6 2
f 2 6 8
f 2 8 9
f 2 9 7
f 3 10 11
f 4 12 13
f 4 13 5
f 5 13 14
f 5 14 6
f 6 14 15
f 6 15 16
f 6 16 8
f 7 9 17
f 8 18 20
f 8 20 9
f 8 16 19
f 8 19 18
f 9 20 21
f 9 21 17
f 10 22 29
f 10 29 21
f 10 21 20
f 10 20 18
f 10 18 19
f 10 19 16
f 10 16 28
f 10 28 37
f 10 37 42
f 10 42 36
f 10 36 47
f 10 47 58
f 10 58 70
f 10 70 69
f 10 69 68
f 10 68 81
f 10 81 88
f 10 88 95
f 10 95 94
f 10 94 100
f 10 100 97
f 10 97 96
f 10 96 89
f 10 89 82
f 10 82 72
f 10 72 71
f 10 71 59
f 10 59 48
f 10 48 38
f 10 38 31
f 10 31 23
f 10 23 11
f 11 23 31
f 11 31 39
f 11 39 40
f 11 40 32
f 11 32 24
f 12 15 13
f 13 15 14
f 15 25 26
f 15 26 16
f 16 26 27
f 16 27 28
f 17 29 30
f 17 21 29
f 22 30 29
f 24 32 33
f 25 34 26
f 25 35 36
f 25 36 34
f 26 34 37
f 26 37 27
f 27 37 28
f 31 38 39
f 32 40 33
f 33 40 53
f 33 53 41
f 34 42 37
f 34 36 42
f 35 43 44
f 35 44 45
f 35 45 36
f 36 45 55
f 36 55 46
f 36 46 47
f 38 48 49
f 38 49 50
f 38 50 51
f 38 51 39
f 39 51 52
f 39 52 41
f 39 41 53
f 39 53 40
f 43 54 55
f 43 55 44
f 44 55 45
f 46 55 65
f 46 65 56
f 46 56 47
f 47 56 57
f 47 57 58
f 48 59 49
f 49 59 60
f 49 60 50
f 50 61 62
f 50 62 63
f 50 63 51
f 50 60 73
f 50 73 61
f 51 63 52
f 54 64 55
f 55 64 65
f 56 65 66
f 56 66 67
f 56 67 68
f 56 68 57
f 57 68 69
f 57 69 70
f 57 70 58
f 59 71 60
f 60 72 73
f 60 71 72
f 61 74 62
f 61 73 83
f 61 83 75
f 61 75 76
f 61 76 77
f 61 77 74
f 64 66 65
f 66 78 67
f 67 78 79
f 67 79 80
f 67 80 81
f 67 81 68
f 72 82 83
f 72 83 73
f 75 83 90
f 75 90 84
f 75 84 76
f 76 84 77
f 77 84 85
f 79 86 87
f 79 87 80
f 80 88 81
f 80 87 88
f 82 89 83
f 83 89 90
f 84 90 98
f 84 98 91
f 84 91 92
f 84 92 85
f 86 93 87
f 87 93 94
f 87 94 95
f 87 95 88
f 89 96 90
f 90 96 97
f 90 97 98
f 91 99 92
f 91 98 100
f 91 100 101
f 91 101 99
f 92 99 102
f 93 103 94
f 94 103 100
f 97 100 98
f 99 101 104
f 99 104 106
f 99 106 102
f 100 103 101
f 101 105 104
f 101 103 105
f 104 105 106

