# https://github.com/mikedh/trimesh
v -0.17672809 -0.63910263 0.86754194
v -0.17487014 -0.62845165 0.86754194
v -0.17314983 -0.64672008 0.86754194
v -0.11885668 -0.64576399 1.12168407
v -0.11885668 -0.64268128 1.12168407
v -0.16485790 -0.62367120 0.86754194
v -0.11792772 -0.63390669 1.11855509
v -0.11902871 -0.63154331 1.10977662
v -0.17149832 -0.64764489 0.86754194
v -0.12092106 -0.64799782 1.10036072
v -0.11968244 -0.64673346 1.11354297
v -0.11266355 -0.64890925 1.12631959
v -0.10908529 -0.64827482 1.13987848
v -0.10688330 -0.64666200 1.14801961
v -0.11176898 -0.63867372 1.13987848
v -0.11655146 -0.63844590 1.12631959
v -0.15140505 -0.62054383 0.86754194
v -0.11015189 -0.62960432 1.12669623
v -0.11190661 -0.62809425 1.10036072
v -0.10626398 -0.63134673 1.14735323
v -0.10801870 -0.63033256 1.13987848
v -0.16492673 -0.65021827 0.86754194
v -0.15140505 -0.65176858 0.91604103
v -0.11190661 -0.65269339 1.10036072
v -0.11190661 -0.65128606 1.11354297
v -0.09876340 -0.65315354 1.13987848
v -0.10719295 -0.63867372 1.14828036
v -0.09793766 -0.64844459 1.15265510
v -0.09298315 -0.64599185 1.16018781
v -0.13826183 -0.62039639 0.86754194
v -0.11190661 -0.62723643 1.08720743
v -0.09876340 -0.62730346 1.12669623
v -0.09339602 -0.61871654 0.96257002
v -0.09415296 -0.61861379 0.95555879
v -0.09876340 -0.62818357 1.13987848
v -0.09298315 -0.64307444 1.16018781
v -0.09002420 -0.63429985 1.15844949
v -0.08125060 -0.63151650 1.16027474
v -0.09876340 -0.63050680 1.14952616
v -0.16038509 -0.65154519 0.86754194
v -0.15140505 -0.65261298 0.90285878
v -0.11190661 -0.65360478 1.08720743
v -0.09876340 -0.65447598 1.12669623
v -0.08558579 -0.65555719 1.13987848
v -0.08558579 -0.65262188 1.15303177
v -0.08558579 -0.64754658 1.16125979
v -0.08562020 -0.63868267 1.16131776
v -0.12835282 -0.62049022 0.86754194
v -0.09360246 -0.61872101 0.94848964
v -0.09167571 -0.61872101 0.94848964
v -0.08558579 -0.62809868 1.13987848
v -0.09167571 -0.61871654 0.96257002
v -0.09140045 -0.61861379 0.95555879
v -0.08562020 -0.63021192 1.15364015
v -0.07240818 -0.62975173 1.15303177
v -0.07240818 -0.63867372 1.16314297
v -0.07240818 -0.63138244 1.16044856
v -0.15140505 -0.65293463 0.86754194
v -0.09876340 -0.66425129 0.95555879
v -0.10939495 -0.66143662 0.95555879
v -0.07240818 -0.65651324 1.13987848
v -0.05923056 -0.65623181 1.15303177
v -0.07240818 -0.65490489 1.15303177
v -0.07240818 -0.64928451 1.16230277
v -0.12508422 -0.62052150 0.86754194
v -0.03710731 -0.62199135 0.86754194
v -0.05025052 -0.62169650 0.86754194
v -0.08610188 -0.62096379 0.86754194
v -0.09109080 -0.62088781 0.86754194
v -0.11551927 -0.62062424 0.86754194
v 0.14724165 -0.62622225 0.86754194
v 0.00245993 -0.63199007 1.14712145
v 0.01123354 -0.63216428 1.14448504
v 0.09876317 -0.62374270 0.95555879
v -0.05923056 -0.63167286 1.16015885
v -0.04853020 -0.63190519 1.15986914
v -0.03975660 -0.63211515 1.15955043
v -0.05923056 -0.63867372 1.16314297
v -0.05923056 -0.65021380 1.16262148
v 0.03290951 -0.65184004 1.16343268
v 0.05923033 -0.65184004 1.16351961
v 0.03290951 -0.64080481 1.16273737
v 0.04608712 -0.64112651 1.16267941
v 0.05923033 -0.64143478 1.16259252
v -0.14724188 -0.65309993 0.86754194
v -0.02836811 -0.65849692 1.14764298
v -0.05923056 -0.65729065 1.13987848
v -0.13826183 -0.65339482 0.86754194
v -0.12508422 -0.65370752 0.86754194
v -0.12088666 -0.65379241 0.86754194
v 0.06342790 -0.65733083 0.86754194
v 0.07660551 -0.65757659 0.86754194
v 0.08954228 -0.65780888 0.86754194
v 0.09865995 -0.65796080 0.86754194
v 0.13158678 -0.65850587 0.86754194
v 0.13826160 -0.65861309 0.86754194
v 0.14029157 -0.65864433 0.86754194
v 0.15126718 -0.65879629 0.86754194
v 0.15140481 -0.65909557 0.87652325
v 0.15140481 -0.65945301 0.88970549
v 0.13826160 -0.66085587 0.95555879
v 0.12508398 -0.66199955 1.02135413
v 0.11190637 -0.66264741 1.08720743
v 0.11190637 -0.66263847 1.10036072
v 0.09876317 -0.66268313 1.12669623
v 0.08558555 -0.66225873 1.13987848
v -0.04608736 -0.65707174 1.15303177
v -0.01095852 -0.65828692 1.15856542
v -0.00218492 -0.65849245 1.15972429
v 0.15140481 -0.62648139 0.86754194
v 0.05923033 -0.63588143 1.15303177
v 0.08558555 -0.63505489 1.13987848
v 0.07240794 -0.63442049 1.13987848
v 0.09876317 -0.63530955 1.12669623
v 0.16041926 -0.62777703 0.86754194
v 0.07240794 -0.64188602 1.16233178
v 0.07240794 -0.63659624 1.15303177
v -0.04608736 -0.65074098 1.16270837
v 0.01973190 -0.65184004 1.16328783
v 0.05923033 -0.65921621 1.16053548
v 0.07240794 -0.65912689 1.16039063
v 0.07240794 -0.65184004 1.16308505
v -0.01973213 -0.65863538 1.14984483
v 0.15883657 -0.65865328 0.86754194
v 0.15911182 -0.65880516 0.87652325
v 0.15907742 -0.65897046 0.88970549
v 0.13826160 -0.66091396 0.96871208
v 0.12508398 -0.66202192 1.03453638
v 0.12508398 -0.66160200 1.04768967
v 0.13385759 -0.66016335 1.03453638
v 0.12109286 -0.66056098 1.10036072
v 0.11190637 -0.66191023 1.11354297
v 0.09996739 -0.66099880 1.14112428
v 0.08506946 -0.66018572 1.15349530
v 0.07240794 -0.66079779 1.15303177
v 0.05923033 -0.66065925 1.15303177
v 0.03290951 -0.65999358 1.15303177
v 0.01973190 -0.65962726 1.15303177
v -0.00658892 -0.65879181 1.15372708
v 0.01973190 -0.65883647 1.16012989
v 0.08558555 -0.63828504 1.15303177
v 0.09876317 -0.63683752 1.13987848
v 0.11190637 -0.63687327 1.11354297
v 0.11190637 -0.63581887 1.10036072
v 0.16303413 -0.62829973 0.86754194
v 0.08558555 -0.64323079 1.16117287
v 0.03290951 -0.65899283 1.16030370
v 0.08035580 -0.65877839 1.16001400
v 0.08506946 -0.65147816 1.16108598
v 0.09308613 -0.64684963 1.16004296
v 0.16330939 -0.65662050 0.86754194
v 0.15866454 -0.65884542 0.90285878
v 0.14638149 -0.65956023 0.96871208
v 0.14569337 -0.65917155 0.98189429
v 0.13299744 -0.65964508 1.04768967
v 0.11988864 -0.65974343 1.11354297
v 0.13220609 -0.65898835 1.05739528
v 0.11221604 -0.66049843 1.12608781
v 0.10801846 -0.65996234 1.13756070
v 0.09642354 -0.65981038 1.14938126
v 0.09308613 -0.64460237 1.16004296
v 0.09797183 -0.64198876 1.15291584
v 0.10702068 -0.64362395 1.14842521
v 0.11159672 -0.64216748 1.13892239
v 0.11190637 -0.63874970 1.12669623
v 0.12143692 -0.64190835 1.11354297
v 0.16936489 -0.63452771 0.86754194
v 0.10519715 -0.65826012 1.14633921
v 0.08912940 -0.65562865 1.15815978
v 0.09914164 -0.65255489 1.15329252
v 0.10702068 -0.64948109 1.14842521
v 0.17280553 -0.64799335 0.86754194
v 0.15821725 -0.65858177 0.91192700
v 0.14514286 -0.65873373 0.99023825
v 0.11889085 -0.65885876 1.12130743
v 0.17476669 -0.64272594 0.86754194
v 0.13110510 -0.65673219 1.06617379
v 0.12281317 -0.65184004 1.11354297
v 0.11882205 -0.64478109 1.13388127
v 0.11988864 -0.64348545 1.12669623
v 0.17414738 -0.63935282 0.86754194
v 0.11682648 -0.65509252 1.13008595
v 0.11882205 -0.64631350 1.13388127
v 0.15728829 -0.65802779 0.92070551
v 0.11985423 -0.65115647 1.12608781
v 0.17476669 -0.64150181 0.86754194
f 1 2 6
f 1 6 17
f 1 17 30
f 1 30 48
f 1 48 65
f 1 65 70
f 1 70 69
f 1 69 68
f 1 68 67
f 1 67 66
f 1 66 71
f 1 71 110
f 1 110 115
f 1 115 145
f 1 145 167
f 1 167 181
f 1 181 186
f 1 186 176
f 1 176 172
f 1 172 151
f 1 151 124
f 1 124 98
f 1 98 97
f 1 97 96
f 1 96 95
f 1 95 94
f 1 94 93
f 1 93 92
f 1 92 91
f 1 91 90
f 1 90 89
f 1 89 88
f 1 88 85
f 1 85 58
f 1 58 40
f 1 40 22
f 1 22 9
f 1 9 3
f 1 3 4
f 1 4 5
f 1 5 2
f 2 5 7
f 2 7 8
f 2 8 6
f 3 9 10
f 3 10 11
f 3 11 4
f 4 11 12
f 4 12 13
f 4 13 14
f 4 14 15
f 4 15 5
f 5 15 16
f 5 16 7
f 6 8 18
f 6 18 19
f 6 19 17
f 7 16 15
f 7 15 20
f 7 20 21
f 7 21 8
f 8 21 18
f 9 22 23
f 9 23 24
f 9 24 25
f 9 25 10
f 10 25 11
f 11 25 12
f 12 25 26
f 12 26 13
f 13 26 14
f 14 27 15
f 14 26 28
f 14 28 29
f 14 29 27
f 15 27 20
f 17 19 31
f 17 31 32
f 17 32 33
f 17 33 34
f 17 34 30
f 18 21 35
f 18 35 19
f 19 35 32
f 19 32 31
f 20 27 36
f 20 36 37
f 20 37 38
f 20 38 39
f 20 39 35
f 20 35 21
f 22 40 41
f 22 41 23
f 23 41 42
f 23 42 24
f 24 42 43
f 24 43 26
f 24 26 25
f 26 44 45
f 26 45 28
f 26 43 44
f 27 29 36
f 28 45 29
f 29 45 46
f 29 46 47
f 29 47 36
f 30 34 49
f 30 49 50
f 30 50 48
f 32 35 51
f 32 51 52
f 32 52 33
f 33 52 53
f 33 53 34
f 34 53 50
f 34 50 49
f 35 39 54
f 35 54 55
f 35 55 51
f 36 47 37
f 37 47 38
f 38 54 39
f 38 47 56
f 38 56 57
f 38 57 55
f 38 55 54
f 40 58 59
f 40 59 41
f 41 59 60
f 41 60 42
f 42 60 59
f 42 59 43
f 43 59 44
f 44 59 61
f 44 61 62
f 44 62 63
f 44 63 45
f 45 63 64
f 45 64 46
f 46 64 56
f 46 56 47
f 48 50 65
f 50 66 67
f 50 67 68
f 50 68 69
f 50 69 70
f 50 70 65
f 50 53 71
f 50 71 66
f 51 55 72
f 51 72 73
f 51 73 74
f 51 74 52
f 52 74 53
f 53 74 71
f 55 57 75
f 55 75 76
f 55 76 77
f 55 77 72
f 56 78 57
f 56 64 79
f 56 79 80
f 56 80 81
f 56 81 78
f 57 78 82
f 57 82 83
f 57 83 84
f 57 84 75
f 58 85 59
f 59 86 87
f 59 87 61
f 59 85 88
f 59 88 89
f 59 89 90
f 59 90 91
f 59 91 92
f 59 92 93
f 59 93 94
f 59 94 95
f 59 95 96
f 59 96 97
f 59 97 98
f 59 98 99
f 59 99 100
f 59 100 101
f 59 101 102
f 59 102 103
f 59 103 104
f 59 104 105
f 59 105 106
f 59 106 86
f 61 87 107
f 61 107 62
f 62 107 108
f 62 108 63
f 63 108 64
f 64 108 109
f 64 109 79
f 71 74 110
f 72 77 111
f 72 111 112
f 72 112 113
f 72 113 73
f 73 113 74
f 74 113 112
f 74 112 114
f 74 114 115
f 74 115 110
f 75 84 76
f 76 84 116
f 76 116 77
f 77 116 117
f 77 117 111
f 78 81 82
f 79 118 80
f 79 109 118
f 80 119 120
f 80 120 81
f 80 118 119
f 81 120 121
f 81 121 122
f 81 122 116
f 81 116 84
f 81 84 83
f 81 83 82
f 86 123 108
f 86 108 107
f 86 107 87
f 86 106 123
f 98 124 99
f 99 124 100
f 100 124 125
f 100 125 126
f 100 126 101
f 101 126 127
f 101 127 102
f 102 127 128
f 102 128 103
f 103 128 104
f 104 128 129
f 104 129 130
f 104 130 131
f 104 131 132
f 104 132 105
f 105 132 133
f 105 133 106
f 106 133 134
f 106 134 135
f 106 135 136
f 106 136 137
f 106 137 138
f 106 138 123
f 108 123 139
f 108 139 109
f 109 139 138
f 109 138 137
f 109 137 136
f 109 136 140
f 109 140 118
f 111 117 112
f 112 117 141
f 112 141 142
f 112 142 114
f 114 142 143
f 114 143 144
f 114 144 115
f 115 144 145
f 116 122 146
f 116 146 141
f 116 141 117
f 118 140 147
f 118 147 119
f 119 147 120
f 120 135 121
f 120 147 135
f 121 135 134
f 121 134 148
f 121 148 122
f 122 148 149
f 122 149 150
f 122 150 146
f 123 138 139
f 124 151 125
f 125 151 126
f 126 151 152
f 126 152 128
f 126 128 127
f 128 152 153
f 128 153 130
f 128 130 129
f 130 153 154
f 130 154 155
f 130 155 131
f 131 156 132
f 131 155 157
f 131 157 156
f 132 156 158
f 132 158 133
f 133 158 159
f 133 159 160
f 133 160 134
f 134 160 148
f 135 147 136
f 136 147 140
f 141 146 161
f 141 161 162
f 141 162 142
f 142 163 164
f 142 164 165
f 142 165 143
f 142 162 163
f 143 165 145
f 143 145 144
f 145 166 167
f 145 165 166
f 146 150 161
f 148 160 168
f 148 168 169
f 148 169 150
f 148 150 149
f 150 169 170
f 150 170 171
f 150 171 163
f 150 163 161
f 151 172 152
f 152 172 173
f 152 173 153
f 153 173 154
f 154 173 174
f 154 174 155
f 155 174 157
f 156 175 158
f 156 157 175
f 157 174 172
f 157 172 176
f 157 176 177
f 157 177 178
f 157 178 175
f 158 175 159
f 159 168 160
f 159 175 168
f 161 163 162
f 163 171 183
f 163 183 179
f 163 179 164
f 164 179 165
f 165 179 180
f 165 180 166
f 166 181 167
f 166 180 181
f 168 175 182
f 168 182 183
f 168 183 171
f 168 171 170
f 168 170 169
f 172 184 173
f 172 174 184
f 173 184 174
f 175 178 185
f 175 185 183
f 175 183 182
f 176 178 177
f 176 186 179
f 176 179 183
f 176 183 178
f 178 183 185
f 179 186 181
f 179 181 180

