# https://github.com/mikedh/trimesh
v 0.47207872 0.50440056 0.83700077
v 0.47176719 0.50699733 0.83700077
v 0.47193037 0.50440056 0.83960782
v 0.44613142 0.50440056 0.53685235
v 0.46946770 0.52015949 0.83700077
v 0.46853303 0.52015949 0.85012015
v 0.47065451 0.50699733 0.85012015
v 0.47104025 0.50440056 0.85012015
v 0.44228901 0.50440056 0.49455068
v 0.44288244 0.50699733 0.50775418
v 0.46614453 0.53333284 0.83700077
v 0.46564012 0.53333284 0.85012015
v 0.46145650 0.54130149 0.85718443
v 0.46246530 0.53333284 0.85785725
v 0.46374116 0.52015949 0.85844593
v 0.46475000 0.50699733 0.85869824
v 0.46495768 0.50440056 0.85869824
v 0.44107249 0.50440056 0.48143128
v 0.44166591 0.50699733 0.49455068
v 0.46253951 0.54388712 0.83700077
v 0.46243563 0.54366421 0.85012015
v 0.44043456 0.50699733 0.48143128
v 0.44825290 0.56703517 0.85710033
v 0.44991446 0.55966838 0.85785725
v 0.45442448 0.54601582 0.85836183
v 0.45915701 0.55025088 0.85012015
v 0.45430580 0.53333284 0.85920281
v 0.45430580 0.52015949 0.85911871
v 0.46292521 0.50440056 0.85869824
v 0.43085081 0.50440056 0.37613965
v 0.45978011 0.55047379 0.83700077
v 0.43650317 0.51830944 0.48143128
v 0.43429265 0.52614434 0.49059804
v 0.45525526 0.55966838 0.83700077
v 0.43596909 0.58125613 0.85752084
v 0.44067195 0.57198356 0.85802542
v 0.45430580 0.55966838 0.85012015
v 0.44946942 0.56878496 0.85012015
v 0.44455883 0.57537159 0.85012015
v 0.43797188 0.58370805 0.85012015
v 0.44113183 0.55966838 0.85895051
v 0.38848060 0.61232829 0.85903461
v 0.45362337 0.50440056 0.85844593
v 0.34897359 0.61824626 0.85819362
v 0.32091962 0.61824626 0.85718443
v 0.42935243 0.50440056 0.36302025
v 0.42991619 0.50699733 0.37613965
v 0.42429353 0.51881095 0.37613965
v 0.42123739 0.52650100 0.38429723
v 0.43125139 0.53221836 0.49480297
v 0.44978095 0.56923074 0.83700077
v 0.43233440 0.59029472 0.85012015
v 0.42328470 0.59458551 0.85752084
v 0.42779471 0.58578098 0.85827773
v 0.44515226 0.57580627 0.83700077
v 0.43858015 0.58435445 0.83700077
v 0.43307617 0.59094109 0.83700077
v 0.41460594 0.59904349 0.85819362
v 0.40061602 0.61178215 0.85794136
v 0.38848060 0.61824626 0.85810952
v 0.37493576 0.61824626 0.85836183
v 0.36808175 0.61824626 0.85836183
v 0.32053390 0.61824626 0.85710033
v 0.45064140 0.50440056 0.85743674
v 0.42834363 0.50699733 0.36302025
v 0.42297317 0.50440056 0.31029035
v 0.42006542 0.51075318 0.31029035
v 0.41508065 0.52015949 0.31029035
v 0.40981407 0.52872997 0.31029035
v 0.42186049 0.54059936 0.45973380
v 0.42243908 0.54142409 0.46822777
v 0.42898156 0.53333284 0.48143128
v 0.39456313 0.51273698 0.12325474
v 0.42574741 0.59708197 0.85012015
v 0.42648918 0.59778411 0.83700077
v 0.41008109 0.60703443 0.85743674
v 0.41916042 0.60365750 0.85012015
v 0.41757303 0.54801073 0.46822777
v 0.41098605 0.55632489 0.46822777
v 0.40511120 0.56290042 0.46822777
v 0.39755992 0.56874037 0.45510837
v 0.39622473 0.61824626 0.85710033
v 0.32053390 0.61187132 0.85180212
v 0.44371322 0.50440056 0.85281131
v 0.32053390 0.61824626 0.49926020
v 0.39726319 0.50440056 0.10836928
v 0.38448983 0.51726183 0.07330008
v 0.37965346 0.52384850 0.07330008
v 0.38135952 0.52606632 0.09684773
v 0.39385102 0.51152214 0.11282651
v 0.41985769 0.60437078 0.83700077
v 0.41258831 0.60900709 0.85012015
v 0.41000692 0.55521037 0.45510837
v 0.40414687 0.56178590 0.45510837
v 0.36699874 0.53816977 0.07330008
v 0.39075042 0.57532701 0.45510837
v 0.40383534 0.61559376 0.85012015
v 0.40018582 0.61824626 0.85012015
v 0.32053390 0.60421474 0.84507424
v 0.32053390 0.50440056 0.75399529
v 0.32381254 0.61824626 0.50481072
v 0.32053390 0.61805679 0.49665314
v 0.39609121 0.50440056 0.09962299
v 0.39165537 0.50590510 0.07363649
v 0.38343649 0.51577954 0.06009660
v 0.37857045 0.52236621 0.06009660
v 0.37198346 0.53042403 0.06009660
v 0.37306647 0.53158309 0.07330008
v 0.39488953 0.50440056 0.09070853
v 0.39370267 0.50440056 0.08213044
v 0.39782695 0.60813777 0.73162503
v 0.39889512 0.60904052 0.74482854
v 0.41327074 0.60969808 0.83700077
v 0.38416343 0.58144560 0.45510837
v 0.37650831 0.58803228 0.45510837
v 0.36919439 0.59295833 0.44602571
v 0.36593060 0.53701066 0.06009660
v 0.35934361 0.54341904 0.06009660
v 0.40451778 0.61628475 0.83700077
v 0.40169903 0.61824626 0.83700077
v 0.32053390 0.50440056 0.00005009
v 0.32499939 0.61824626 0.50733368
v 0.32264054 0.61659679 0.48143128
v 0.32134984 0.61790075 0.49589626
v 0.32053390 0.61472444 0.45510837
v 0.39238231 0.50440056 0.07262730
v 0.39095810 0.50440056 0.06337643
v 0.38891080 0.50699733 0.06009660
v 0.38250187 0.51446443 0.05210718
v 0.37048508 0.52875226 0.05000474
v 0.39008282 0.61562720 0.74482854
v 0.39121033 0.61642960 0.75794794
v 0.35173300 0.55000568 0.06009660
v 0.34514601 0.55513239 0.06009660
v 0.36094584 0.59668077 0.42886956
v 0.36324537 0.59670306 0.44173666
v 0.35731115 0.54158009 0.04697717
v 0.34388502 0.55419620 0.05042521
v 0.38701185 0.61824626 0.75079953
v 0.32053390 0.50630631 0.00030239
v 0.32327847 0.50440056 0.00047056
v 0.32878245 0.61824626 0.51616405
v 0.32264054 0.61446809 0.45510837
v 0.32053390 0.61365454 0.44190487
v 0.39039435 0.50440056 0.06009660
v 0.38759044 0.50440056 0.05109803
v 0.38637395 0.50440056 0.04731358
v 0.38502392 0.50693046 0.04739769
v 0.38027655 0.51127698 0.04336093
v 0.37538084 0.52027095 0.04672487
v 0.36817075 0.52606632 0.04125845
v 0.35573859 0.54009784 0.04016520
v 0.38469752 0.61824626 0.73751195
v 0.36214752 0.59913265 0.45510837
v 0.35349844 0.60474969 0.45510837
v 0.32872311 0.56596527 0.05673262
v 0.35192585 0.60403641 0.44190487
v 0.33161604 0.58110013 0.17859171
v 0.34855818 0.54877974 0.04638850
v 0.34164483 0.55247989 0.04167896
v 0.33667494 0.55784058 0.04638850
v 0.32676481 0.56477277 0.04697717
v 0.32053390 0.51098719 0.00139565
v 0.32731373 0.50440056 0.00173206
v 0.33579966 0.61503652 0.49455068
v 0.33170505 0.61824626 0.52440573
v 0.32264054 0.61337590 0.44190487
v 0.32053390 0.61255116 0.42886956
v 0.38400025 0.50440056 0.04260405
v 0.38257604 0.50440056 0.03982879
v 0.37150875 0.51729527 0.03764220
v 0.35857217 0.53333284 0.03764220
v 0.35410666 0.52514131 0.02813906
v 0.34941867 0.53370061 0.03091433
v 0.34050252 0.53832577 0.02822317
v 0.34897359 0.54289520 0.03772630
v 0.33286224 0.55580105 0.03772630
v 0.38269472 0.61824626 0.72666321
v 0.34535373 0.60702328 0.44190487
v 0.34691145 0.60769198 0.45510837
v 0.38095899 0.61824626 0.71842153
v 0.38238319 0.61824626 0.72506532
v 0.32053390 0.56828340 0.04739769
v 0.32053390 0.57040095 0.06060117
v 0.32053390 0.58630482 0.16841575
v 0.32264054 0.58478909 0.16547233
v 0.32264054 0.58663915 0.17859171
v 0.33026601 0.58014164 0.16547233
v 0.34271301 0.60588651 0.42121657
v 0.34369213 0.60631000 0.42886956
v 0.32906432 0.59251254 0.25158942
v 0.32053390 0.56634418 0.04176306
v 0.32053390 0.56818309 0.04697717
v 0.32053390 0.51808653 0.00518010
v 0.32249219 0.52004804 0.00719847
v 0.33688263 0.50803380 0.00862814
v 0.32614172 0.50699733 0.00232073
v 0.34529440 0.50440056 0.01182391
v 0.33579966 0.61389970 0.48143128
v 0.32264054 0.61225027 0.42886956
v 0.33579966 0.61603955 0.50775418
v 0.35685123 0.61824626 0.61809172
v 0.35760788 0.61824626 0.62111929
v 0.36711741 0.61824626 0.66005701
v 0.33977558 0.61824626 0.55333570
v 0.32053390 0.61139209 0.41566606
v 0.37928255 0.50440056 0.03654895
v 0.37495059 0.50650693 0.03385779
v 0.36649432 0.51050797 0.02889595
v 0.36294864 0.52121829 0.03293270
v 0.35771172 0.51635907 0.02578428
v 0.34198607 0.51311589 0.01426276
v 0.34532407 0.52955471 0.02553201
v 0.32053390 0.52940981 0.01190801
v 0.33173472 0.54183644 0.02595248
v 0.32544445 0.55060750 0.02898005
v 0.33668978 0.54715259 0.03301681
v 0.32053390 0.56110605 0.03553976
v 0.32155755 0.55901083 0.03419416
v 0.33579966 0.61028876 0.44190487
v 0.33579966 0.61155928 0.45510837
v 0.33579966 0.61272949 0.46822777
v 0.38035073 0.61824626 0.71564627
v 0.32053390 0.58774249 0.17859171
v 0.32053390 0.59172124 0.21248348
v 0.32053390 0.59275775 0.22215486
v 0.32053390 0.59439604 0.23779724
v 0.32053390 0.58958144 0.19398178
v 0.32053390 0.59061790 0.20272807
v 0.32053390 0.52049386 0.00652569
v 0.33320343 0.51737328 0.01157160
v 0.34542791 0.50440056 0.01190801
v 0.32264054 0.61106891 0.41566606
v 0.32053390 0.61015501 0.40246256
v 0.37260656 0.50440056 0.03066202
v 0.36866034 0.50440056 0.02729808
v 0.36538168 0.50440056 0.02502739
v 0.36211785 0.50646234 0.02385004
v 0.32053390 0.53052430 0.01266489
v 0.32053390 0.55219010 0.02780266
v 0.32053390 0.55786287 0.03268040
v 0.32053390 0.59767265 0.27084802
v 0.36205852 0.50440056 0.02284085
f 1 2 3
f 1 3 8
f 1 8 17
f 1 17 29
f 1 29 43
f 1 43 64
f 1 64 84
f 1 84 100
f 1 100 121
f 1 121 141
f 1 141 164
f 1 164 198
f 1 198 232
f 1 232 243
f 1 243 237
f 1 237 236
f 1 236 235
f 1 235 207
f 1 207 170
f 1 170 169
f 1 169 147
f 1 147 146
f 1 146 145
f 1 145 127
f 1 127 126
f 1 126 110
f 1 110 109
f 1 109 103
f 1 103 86
f 1 86 66
f 1 66 46
f 1 46 30
f 1 30 18
f 1 18 9
f 1 9 4
f 1 4 2
f 2 5 6
f 2 6 7
f 2 7 8
f 2 8 3
f 2 4 5
f 4 9 10
f 4 10 5
f 5 11 12
f 5 12 6
f 5 10 11
f 6 12 13
f 6 13 14
f 6 14 7
f 7 14 8
f 8 14 15
f 8 15 16
f 8 16 17
f 9 18 19
f 9 19 10
f 10 19 11
f 11 20 21
f 11 21 12
f 11 19 22
f 11 22 20
f 12 21 13
f 13 23 24
f 13 24 25
f 13 25 14
f 13 21 26
f 13 26 23
f 14 25 27
f 14 27 15
f 15 27 16
f 16 27 17
f 17 27 28
f 17 28 29
f 18 22 19
f 18 30 22
f 20 31 21
f 20 22 32
f 20 32 33
f 20 33 31
f 21 31 34
f 21 34 26
f 22 30 32
f 23 35 36
f 23 36 24
f 23 26 37
f 23 37 38
f 23 38 39
f 23 39 40
f 23 40 35
f 24 36 41
f 24 41 25
f 25 41 27
f 26 34 37
f 27 41 42
f 27 42 28
f 28 43 29
f 28 42 44
f 28 44 45
f 28 45 43
f 30 46 47
f 30 47 32
f 31 33 34
f 32 47 33
f 33 47 48
f 33 48 49
f 33 49 50
f 33 50 51
f 33 51 34
f 34 51 38
f 34 38 37
f 35 40 52
f 35 52 53
f 35 53 54
f 35 54 36
f 36 54 41
f 38 51 55
f 38 55 39
f 39 55 56
f 39 56 40
f 40 56 57
f 40 57 52
f 41 54 42
f 42 54 58
f 42 58 59
f 42 59 60
f 42 60 61
f 42 61 62
f 42 62 44
f 43 45 63
f 43 63 64
f 44 62 61
f 44 61 60
f 44 60 82
f 44 82 98
f 44 98 120
f 44 120 139
f 44 139 153
f 44 153 178
f 44 178 182
f 44 182 181
f 44 181 223
f 44 223 204
f 44 204 203
f 44 203 202
f 44 202 205
f 44 205 166
f 44 166 142
f 44 142 122
f 44 122 101
f 44 101 85
f 44 85 63
f 44 63 45
f 46 65 47
f 46 66 65
f 47 65 48
f 48 65 67
f 48 67 68
f 48 68 49
f 49 69 70
f 49 70 71
f 49 71 72
f 49 72 50
f 49 68 73
f 49 73 69
f 50 72 51
f 51 72 71
f 51 71 55
f 52 74 53
f 52 57 75
f 52 75 74
f 53 76 58
f 53 58 54
f 53 74 77
f 53 77 76
f 55 71 78
f 55 78 56
f 56 78 79
f 56 79 57
f 57 79 80
f 57 80 81
f 57 81 75
f 58 76 59
f 59 76 82
f 59 82 60
f 63 83 84
f 63 84 64
f 63 85 102
f 63 102 125
f 63 125 144
f 63 144 168
f 63 168 206
f 63 206 234
f 63 234 242
f 63 242 227
f 63 227 226
f 63 226 225
f 63 225 229
f 63 229 228
f 63 228 224
f 63 224 185
f 63 185 184
f 63 184 183
f 63 183 193
f 63 193 192
f 63 192 218
f 63 218 241
f 63 241 240
f 63 240 239
f 63 239 214
f 63 214 230
f 63 230 194
f 63 194 163
f 63 163 140
f 63 140 121
f 63 121 100
f 63 100 99
f 63 99 83
f 65 66 67
f 66 86 67
f 67 86 68
f 68 86 73
f 69 78 71
f 69 71 70
f 69 73 87
f 69 87 88
f 69 88 89
f 69 89 78
f 73 86 90
f 73 90 87
f 74 75 77
f 75 91 77
f 75 81 91
f 76 77 92
f 76 92 82
f 77 91 92
f 78 89 93
f 78 93 79
f 79 93 94
f 79 94 80
f 80 94 81
f 81 94 95
f 81 95 96
f 81 96 91
f 82 92 97
f 82 97 98
f 83 99 84
f 84 99 100
f 85 101 102
f 86 103 90
f 87 90 104
f 87 104 105
f 87 105 88
f 88 105 106
f 88 106 107
f 88 107 108
f 88 108 89
f 89 108 93
f 90 103 109
f 90 109 110
f 90 110 104
f 91 111 112
f 91 112 113
f 91 113 92
f 91 96 114
f 91 114 115
f 91 115 116
f 91 116 111
f 92 113 119
f 92 119 97
f 93 108 94
f 94 108 95
f 95 108 117
f 95 117 118
f 95 118 96
f 96 118 114
f 97 119 98
f 98 119 120
f 101 122 123
f 101 123 124
f 101 124 102
f 102 124 123
f 102 123 125
f 104 110 126
f 104 126 127
f 104 127 128
f 104 128 105
f 105 128 129
f 105 129 106
f 106 129 130
f 106 130 107
f 107 117 108
f 107 130 117
f 111 116 112
f 112 131 132
f 112 132 119
f 112 119 113
f 112 116 131
f 114 118 133
f 114 133 115
f 115 133 116
f 116 133 134
f 116 134 135
f 116 135 136
f 116 136 131
f 117 130 137
f 117 137 118
f 118 137 138
f 118 138 133
f 119 132 120
f 120 132 139
f 121 140 141
f 122 142 143
f 122 143 123
f 123 143 125
f 125 143 144
f 127 145 128
f 128 145 129
f 129 146 147
f 129 147 148
f 129 148 149
f 129 149 150
f 129 150 130
f 129 145 146
f 130 150 151
f 130 151 152
f 130 152 137
f 131 153 132
f 131 136 154
f 131 154 155
f 131 155 153
f 132 153 139
f 133 138 134
f 134 138 156
f 134 156 135
f 135 157 155
f 135 155 154
f 135 154 136
f 135 156 158
f 135 158 157
f 137 159 138
f 137 152 159
f 138 159 160
f 138 160 161
f 138 161 162
f 138 162 156
f 140 163 141
f 141 163 164
f 142 165 143
f 142 166 165
f 143 167 144
f 143 165 167
f 144 167 168
f 147 169 148
f 148 169 170
f 148 170 149
f 149 170 151
f 149 151 150
f 151 170 171
f 151 171 152
f 152 160 159
f 152 171 172
f 152 172 173
f 152 173 174
f 152 174 175
f 152 175 176
f 152 176 177
f 152 177 160
f 153 155 178
f 155 157 179
f 155 179 180
f 155 180 181
f 155 181 182
f 155 182 178
f 156 162 183
f 156 183 184
f 156 184 185
f 156 185 186
f 156 186 187
f 156 187 188
f 156 188 158
f 157 189 190
f 157 190 179
f 157 158 191
f 157 191 189
f 158 188 187
f 158 187 191
f 160 177 192
f 160 192 162
f 160 162 161
f 162 192 193
f 162 193 183
f 163 194 195
f 163 195 196
f 163 196 197
f 163 197 164
f 164 197 196
f 164 196 198
f 165 180 199
f 165 199 200
f 165 200 167
f 165 166 201
f 165 201 202
f 165 202 203
f 165 203 204
f 165 204 180
f 166 205 201
f 167 200 168
f 168 200 206
f 170 207 171
f 171 207 208
f 171 208 209
f 171 209 210
f 171 210 172
f 172 210 173
f 173 211 212
f 173 212 213
f 173 213 175
f 173 175 174
f 173 210 209
f 173 209 211
f 175 213 195
f 175 195 214
f 175 214 215
f 175 215 216
f 175 216 217
f 175 217 176
f 176 217 177
f 177 218 192
f 177 217 216
f 177 216 219
f 177 219 218
f 179 220 221
f 179 221 180
f 179 190 220
f 180 221 222
f 180 222 199
f 180 204 223
f 180 223 181
f 185 224 186
f 186 224 187
f 187 224 191
f 189 220 190
f 189 191 225
f 189 225 226
f 189 226 227
f 189 227 220
f 191 224 228
f 191 228 229
f 191 229 225
f 194 230 195
f 195 230 214
f 195 213 231
f 195 231 196
f 196 231 212
f 196 212 198
f 198 212 211
f 198 211 232
f 199 222 200
f 200 233 206
f 200 222 221
f 200 221 233
f 201 205 202
f 206 233 234
f 207 235 208
f 208 235 209
f 209 235 236
f 209 236 237
f 209 237 211
f 211 237 238
f 211 238 232
f 212 231 213
f 214 239 215
f 215 239 216
f 216 239 240
f 216 240 219
f 218 219 241
f 219 240 241
f 220 227 242
f 220 242 221
f 221 242 233
f 232 238 243
f 233 242 234
f 237 243 238

