# https://github.com/mikedh/trimesh
v 0.47631602 -0.50669676 0.85009927
v 0.47519027 -0.50669676 0.85772845
v 0.47436475 -0.51486658 0.85713506
v 0.47625970 -0.50699243 0.85009927
v 0.47442102 -0.51507466 0.84162235
v 0.47513399 -0.50669676 0.83721438
v 0.47513399 -0.50669676 0.85789799
v 0.47511523 -0.50699243 0.85789799
v 0.46451460 -0.53333084 0.85899999
v 0.46265713 -0.54426046 0.85815230
v 0.46085597 -0.55304360 0.85654168
v 0.46899876 -0.53333084 0.85009927
v 0.47252603 -0.52224793 0.85009927
v 0.47457110 -0.51566604 0.85009927
v 0.46852970 -0.53333084 0.83696007
v 0.43560207 -0.50669676 0.42871298
v 0.44196245 -0.50669676 0.49432412
v 0.46747903 -0.50669676 0.86010200
v 0.46747903 -0.50699243 0.86010200
v 0.45430796 -0.53333084 0.86035631
v 0.45560254 -0.54778687 0.85916953
v 0.45209402 -0.55966925 0.85857615
v 0.44918588 -0.56864952 0.85781322
v 0.44594003 -0.57734503 0.85009927
v 0.45061181 -0.57076315 0.85009927
v 0.45791031 -0.55877124 0.85137077
v 0.46124996 -0.55378828 0.84781049
v 0.46355773 -0.54778687 0.85137077
v 0.46124996 -0.55378828 0.84179189
v 0.43436376 -0.51299388 0.43727463
v 0.43393222 -0.51176731 0.42871298
v 0.43423241 -0.50669676 0.41565857
v 0.31657479 -0.61857749 0.85696552
v 0.32195954 -0.61857749 0.85721983
v 0.45642810 -0.50669676 0.85891522
v 0.28466033 -0.61857749 0.85433771
v 0.33580601 -0.61857749 0.85781322
v 0.34578751 -0.61857749 0.85823707
v 0.35715738 -0.61857749 0.85857615
v 0.38845269 -0.61232417 0.85916953
v 0.44113689 -0.55966925 0.85984769
v 0.44136208 -0.57295346 0.85883045
v 0.43712180 -0.58264556 0.85789799
v 0.43336937 -0.59142867 0.85323570
v 0.43847269 -0.58662094 0.84933634
v 0.43468271 -0.59272093 0.84441975
v 0.44609014 -0.57714790 0.83696007
v 0.45057429 -0.57056602 0.83696007
v 0.42169931 -0.54038363 0.44600584
v 0.42458866 -0.53440412 0.44168262
v 0.42991713 -0.53333084 0.48143925
v 0.43184964 -0.53244378 0.49364596
v 0.43447636 -0.52657376 0.48872937
v 0.43320050 -0.50970843 0.41565857
v 0.43034867 -0.52015616 0.42871298
v 0.42139908 -0.51359621 0.32995720
v 0.42194318 -0.50669676 0.31029080
v 0.42320028 -0.50669676 0.32097169
v 0.44984256 -0.50669676 0.85518540
v 0.28466033 -0.61792041 0.85374432
v 0.28466033 -0.61857749 0.47372528
v 0.38047878 -0.61857749 0.85866092
v 0.38845269 -0.61857749 0.85806753
v 0.40077948 -0.61217084 0.85823707
v 0.41520757 -0.59963138 0.85866092
v 0.42856627 -0.58662094 0.85874569
v 0.42458866 -0.59555738 0.85789799
v 0.42006699 -0.60453765 0.85009927
v 0.42856627 -0.59697013 0.84933634
v 0.41109864 -0.60766977 0.85772845
v 0.42008575 -0.60465810 0.83696007
v 0.43468271 -0.59272093 0.84297867
v 0.42085499 -0.55235364 0.50525931
v 0.42014202 -0.55138989 0.49457843
v 0.41926022 -0.55018526 0.48143925
v 0.41734647 -0.54546513 0.44168262
v 0.42113642 -0.53950752 0.43718988
v 0.42438227 -0.53198383 0.42871298
v 0.42357550 -0.53050534 0.41565857
v 0.42879138 -0.52015616 0.41565857
v 0.41526385 -0.50699243 0.25764932
v 0.41933526 -0.50899656 0.29715162
v 0.42034841 -0.50669676 0.29715162
v 0.40807794 -0.51332244 0.22569144
v 0.40177387 -0.50699243 0.15228156
v 0.41036696 -0.50669676 0.21814699
v 0.41359405 -0.50699243 0.24451012
v 0.41368784 -0.50669676 0.24417104
v 0.28466033 -0.61327696 0.84942111
v 0.28466033 -0.50669676 0.74320566
v 0.28466033 -0.61662814 0.44346277
v 0.29437914 -0.61857749 0.48321939
v 0.39130456 -0.61857749 0.85781322
v 0.39633281 -0.61857749 0.85713506
v 0.41348145 -0.60958631 0.85009927
v 0.41350021 -0.60978344 0.83696007
v 0.39772122 -0.61857749 0.85543971
v 0.38683917 -0.58335739 0.48143925
v 0.39434402 -0.57880158 0.49237444
v 0.39740228 -0.56850714 0.44193693
v 0.40700851 -0.56493693 0.48143925
v 0.40903482 -0.55404020 0.42871298
v 0.41477603 -0.54649457 0.42871298
v 0.42055480 -0.53857662 0.42871298
v 0.38274900 -0.52782223 0.11277922
v 0.39470052 -0.52624520 0.18771496
v 0.39218640 -0.52263123 0.15228156
v 0.39100437 -0.51901723 0.12642700
v 0.39522586 -0.51385904 0.13117410
v 0.39462549 -0.51287340 0.12244287
v 0.41757162 -0.50669676 0.27502692
v 0.41691493 -0.50699243 0.27078849
v 0.39678311 -0.50669676 0.11277922
v 0.39781502 -0.50669676 0.12057798
v 0.40021659 -0.50669676 0.13914236
v 0.40186767 -0.50669676 0.15194248
v 0.28466033 -0.50669676 -0.00428666
v 0.28466033 -0.61577390 0.43023882
v 0.29867568 -0.61857749 0.48813599
v 0.40395025 -0.61616815 0.85009927
v 0.40402533 -0.61636528 0.83696007
v 0.39498195 -0.60569852 0.69904106
v 0.38141690 -0.59225003 0.51695742
v 0.39999144 -0.61857749 0.85009927
v 0.37940935 -0.59083728 0.49457843
v 0.38571342 -0.58245938 0.46821529
v 0.38458771 -0.58156134 0.45507611
v 0.38344320 -0.58066333 0.44193693
v 0.39342470 -0.57800211 0.48143925
v 0.39635161 -0.56748865 0.42871298
v 0.40601412 -0.56386369 0.46821529
v 0.40398781 -0.56171718 0.44193693
v 0.40845320 -0.55335023 0.42082947
v 0.37918420 -0.53681345 0.13914236
v 0.37815229 -0.53563068 0.12591842
v 0.38212987 -0.52704467 0.10472619
v 0.38822758 -0.52015616 0.11277922
v 0.39124828 -0.52127323 0.13914236
v 0.39395004 -0.51173446 0.11277922
v 0.39490691 -0.50669676 0.09964006
v 0.29601146 -0.50669676 -0.00530390
v 0.28466033 -0.50674055 -0.00564297
v 0.28466033 -0.61477730 0.41565857
v 0.30167764 -0.61857749 0.49212013
v 0.40016031 -0.61857749 0.84458929
v 0.40029166 -0.61857749 0.83696007
v 0.38128555 -0.60538091 0.62274904
v 0.37282382 -0.59523981 0.49457843
v 0.37156676 -0.59442939 0.48143925
v 0.36933406 -0.59298380 0.45846687
v 0.36847098 -0.59242526 0.44965090
v 0.34308576 -0.56672203 0.12591842
v 0.35342372 -0.56464126 0.16550549
v 0.38254261 -0.57994051 0.43167989
v 0.39229895 -0.57703837 0.46821529
v 0.40293710 -0.56062204 0.42871298
v 0.39117321 -0.57607463 0.45507611
v 0.36698877 -0.55148848 0.15228156
v 0.36588182 -0.55045904 0.13914236
v 0.37156676 -0.54281486 0.12591842
v 0.37047853 -0.54170878 0.11277922
v 0.37706406 -0.53441506 0.11277922
v 0.37682015 -0.53219190 0.10006387
v 0.37291761 -0.53413030 0.08768763
v 0.38136062 -0.52609191 0.09599497
v 0.38530068 -0.51839299 0.08641609
v 0.38561962 -0.52108705 0.10006387
v 0.39295564 -0.51006984 0.09964006
v 0.39280553 -0.50669676 0.08641609
v 0.29629289 -0.50669676 -0.00530390
v 0.29629289 -0.50699243 -0.00530390
v 0.28466033 -0.52015616 -0.00462574
v 0.28466033 -0.61394499 0.40404522
v 0.29629289 -0.61552202 0.44193693
v 0.31289740 -0.61857749 0.50805668
v 0.36944661 -0.61857749 0.68649525
v 0.37719541 -0.61666099 0.70531395
v 0.37531918 -0.61488684 0.67895082
v 0.37531918 -0.61351789 0.66581163
v 0.37376193 -0.60865541 0.61308537
v 0.37244855 -0.60791070 0.59994618
v 0.36214815 -0.59987231 0.48143925
v 0.36214815 -0.59828433 0.46821529
v 0.36331138 -0.59595164 0.45448273
v 0.32910793 -0.57934913 0.15931735
v 0.33775728 -0.57672076 0.17864469
v 0.33580601 -0.57457429 0.15228156
v 0.33580601 -0.57292061 0.13914236
v 0.34242907 -0.56626208 0.11922167
v 0.35092835 -0.56280140 0.13914236
v 0.35218541 -0.56372131 0.15228156
v 0.35817054 -0.55527771 0.12591842
v 0.36475607 -0.54939675 0.12591842
v 0.36355529 -0.54830157 0.11277922
v 0.36933406 -0.54053696 0.09964006
v 0.36875241 -0.53993462 0.09294331
v 0.36788937 -0.53904756 0.08412731
v 0.37267370 -0.53125006 0.07327689
v 0.38051630 -0.52497484 0.08641609
v 0.39188617 -0.50827378 0.08641609
v 0.38411865 -0.51672833 0.07327689
v 0.39143591 -0.50669676 0.07861733
v 0.30946394 -0.50669676 -0.00437143
v 0.30946394 -0.50699243 -0.00437143
v 0.29629289 -0.52015616 -0.00343897
v 0.28466033 -0.53285994 -0.00115023
v 0.28466033 -0.61383550 0.40251938
v 0.29629289 -0.61362742 0.41565857
v 0.29629289 -0.61264178 0.40251938
v 0.31790690 -0.61857749 0.51721173
v 0.36787061 -0.61857749 0.67920512
v 0.36214815 -0.61454733 0.61308537
v 0.37449366 -0.61654051 0.69098801
v 0.36214815 -0.61315648 0.59994618
v 0.35548754 -0.60572042 0.50144471
v 0.36214815 -0.60141645 0.49457843
v 0.32008332 -0.58129851 0.13914236
v 0.32826364 -0.57894392 0.15228156
v 0.32666884 -0.57814450 0.13914236
v 0.33580601 -0.57119025 0.12591842
v 0.34768250 -0.56156389 0.11396600
v 0.34967129 -0.56185956 0.12591842
v 0.33653774 -0.56910947 0.11396600
v 0.34141591 -0.56560500 0.11040568
v 0.35696975 -0.55428112 0.11277922
v 0.35608795 -0.55353641 0.10353942
v 0.36115372 -0.54812634 0.09938575
v 0.36295491 -0.54433714 0.08768763
v 0.36014057 -0.54415096 0.07327689
v 0.36672610 -0.53783194 0.07327689
v 0.37119149 -0.52955259 0.06013773
v 0.37925924 -0.52332116 0.07327689
v 0.39061035 -0.50669676 0.07403981
v 0.38271148 -0.51475708 0.06013773
v 0.32304775 -0.50669676 -0.00182834
v 0.32308528 -0.50749622 -0.00165881
v 0.30895734 -0.52020000 -0.00115023
v 0.29629289 -0.52926783 -0.00055684
v 0.28466033 -0.53643015 0.00079947
v 0.28466033 -0.61298125 0.39082127
v 0.28466033 -0.61198466 0.37768210
v 0.28466033 -0.61097716 0.36454290
v 0.28466033 -0.61085667 0.36301707
v 0.28466033 -0.60992578 0.35131897
v 0.28466033 -0.59712346 0.19330971
v 0.29629289 -0.61156850 0.38929543
v 0.32698780 -0.61857749 0.53603042
v 0.29629289 -0.60942203 0.36301707
v 0.30946394 -0.61051716 0.40251938
v 0.32263499 -0.61701141 0.50780238
v 0.35685720 -0.61857749 0.63037824
v 0.36104116 -0.61637623 0.62656363
v 0.35498097 -0.61857749 0.62257950
v 0.34473684 -0.60673891 0.46821529
v 0.34227899 -0.60570947 0.44888798
v 0.30946394 -0.58558055 0.13914236
v 0.31843226 -0.58053190 0.12591842
v 0.32499902 -0.57729025 0.12591842
v 0.33349828 -0.56885760 0.09964006
v 0.35006527 -0.55742419 0.09938575
v 0.33182844 -0.56783911 0.08641609
v 0.34008382 -0.56473980 0.09964006
v 0.34246662 -0.55314215 0.04030181
v 0.34766374 -0.55707377 0.08641609
v 0.35518736 -0.55276979 0.09480820
v 0.35850828 -0.54265058 0.06013773
v 0.35424924 -0.55201416 0.08641609
v 0.35685720 -0.54113929 0.04691375
v 0.36509378 -0.53613443 0.06013773
v 0.36982188 -0.52800841 0.04945684
v 0.37777703 -0.52133893 0.06013773
v 0.38760841 -0.50699243 0.06013773
v 0.38772097 -0.50669676 0.05979865
v 0.38192348 -0.51362906 0.05335620
v 0.32481140 -0.50669676 -0.00140450
v 0.31899511 -0.51583032 -0.00021776
v 0.30421052 -0.52747177 0.00037562
v 0.28610502 -0.53816047 0.00207102
v 0.28466033 -0.54082168 0.00402068
v 0.28466033 -0.59590784 0.17864469
v 0.32991469 -0.61857749 0.54272717
v 0.28466033 -0.59373942 0.15287491
v 0.28897563 -0.59243621 0.14719542
v 0.29077680 -0.59285237 0.15601138
v 0.35447439 -0.61857749 0.62062982
v 0.35340496 -0.61821608 0.61308537
v 0.35154748 -0.61756995 0.59994618
v 0.33580601 -0.60992578 0.46821529
v 0.32965202 -0.60590660 0.40752075
v 0.30946394 -0.58694950 0.15228156
v 0.29629289 -0.58844984 0.12591842
v 0.29629289 -0.58703710 0.11277922
v 0.30946394 -0.58413496 0.12591842
v 0.31706260 -0.57989671 0.11566135
v 0.32192202 -0.57693983 0.11184676
v 0.32263499 -0.57483711 0.09964006
v 0.33841397 -0.56364466 0.08641609
v 0.32263499 -0.57283298 0.08641609
v 0.33038375 -0.56695201 0.07590474
v 0.32552435 -0.56425795 0.04691375
v 0.31745663 -0.56694106 0.03936934
v 0.33580601 -0.55522293 0.03792826
v 0.33665034 -0.54681218 0.03072289
v 0.34160355 -0.53926659 0.02758645
v 0.34770126 -0.54539943 0.03767395
v 0.35591908 -0.54027413 0.03996273
v 0.32907041 -0.56615255 0.06717352
v 0.36443713 -0.53277234 0.04581179
v 0.36863985 -0.52663946 0.04064089
v 0.38458771 -0.50727719 0.04818530
v 0.38488790 -0.50669676 0.04810053
v 0.38064765 -0.51184396 0.04462502
v 0.33531820 -0.50669676 0.00300348
v 0.32777583 -0.51221631 0.00156240
v 0.31299121 -0.52460248 0.00224055
v 0.29629289 -0.53584971 0.00402068
v 0.32627484 -0.55141183 0.02843415
v 0.31749414 -0.55383212 0.02665399
v 0.30946394 -0.55562813 0.02521291
v 0.30946394 -0.56222097 0.03080766
v 0.29629289 -0.56475075 0.02834938
v 0.28873172 -0.56598831 0.02741691
v 0.28466033 -0.56142150 0.02258509
v 0.30276583 -0.59254574 0.18559572
v 0.33580601 -0.61502922 0.52094156
v 0.33580601 -0.61623389 0.53408074
v 0.34104069 -0.61857749 0.57485459
v 0.28466033 -0.59341090 0.14914509
v 0.28466033 -0.59252384 0.13914236
v 0.28466033 -0.59181198 0.13134364
v 0.28706188 -0.59206385 0.13914236
v 0.28466033 -0.59009261 0.11430507
v 0.29629289 -0.58977500 0.13914236
v 0.29561744 -0.59118774 0.15185771
v 0.34848927 -0.61857749 0.59994618
v 0.34513082 -0.61857749 0.58841762
v 0.33580601 -0.61122903 0.48143925
v 0.30946394 -0.58829655 0.16550549
v 0.28466033 -0.58867986 0.10116587
v 0.28466033 -0.58850463 0.09964006
v 0.28466033 -0.58713568 0.08794194
v 0.29629289 -0.58549296 0.09964006
v 0.30803800 -0.58147374 0.09964006
v 0.31066470 -0.58198848 0.11184676
v 0.31584306 -0.57931628 0.10684539
v 0.31462354 -0.57880158 0.09964006
v 0.31235330 -0.57781594 0.08641609
v 0.32385453 -0.56978846 0.07225965
v 0.31893884 -0.56770768 0.04691375
v 0.30946394 -0.56867142 0.03733487
v 0.32186574 -0.55924214 0.03385936
v 0.30946394 -0.57198972 0.04691375
v 0.28875048 -0.57909725 0.04250578
v 0.34625657 -0.53049439 0.02470433
v 0.35503728 -0.52621235 0.02758645
v 0.34999024 -0.53426173 0.03004477
v 0.33282283 -0.54262868 0.02529768
v 0.33034623 -0.52764700 0.01334529
v 0.33516812 -0.51978380 0.01080220
v 0.33912694 -0.52391255 0.01588833
v 0.34393004 -0.51512940 0.01300621
v 0.35905238 -0.53333084 0.03699580
v 0.36366788 -0.52203985 0.03224874
v 0.37188570 -0.51786730 0.03699580
v 0.38443760 -0.50669676 0.04682898
v 0.37698902 -0.50669676 0.03411367
v 0.33653774 -0.50669676 0.00359687
v 0.33614376 -0.50749622 0.00376641
v 0.32308528 -0.52020000 0.00427498
v 0.32263499 -0.53026442 0.01122605
v 0.29629289 -0.57121215 0.03496137
v 0.28466033 -0.57305200 0.03326597
v 0.28466033 -0.57261395 0.03284213
v 0.33580601 -0.61379166 0.50780238
v 0.34316079 -0.61857749 0.58172088
v 0.28466033 -0.58694950 0.08641609
v 0.29629289 -0.58380640 0.08641609
v 0.30576779 -0.58058668 0.08641609
v 0.30402289 -0.57987482 0.07709152
v 0.30882603 -0.57710407 0.07293781
v 0.30210916 -0.57914105 0.06827552
v 0.28466033 -0.58064143 0.04623560
v 0.28466033 -0.57351200 0.03385936
v 0.29715593 -0.58153944 0.07293781
v 0.28466033 -0.58512060 0.07327689
v 0.35869587 -0.51742925 0.02478910
v 0.36747659 -0.51185490 0.02817984
v 0.35271075 -0.51024503 0.01597310
v 0.34837671 -0.50669676 0.01105651
v 0.37471881 -0.50669676 0.03190966
v 0.28466033 -0.58536152 0.07480274
v 0.36181041 -0.50669676 0.02072016
v 0.36269225 -0.50669676 0.02148309
v 0.34899584 -0.50669676 0.01148036
f 1 2 3
f 1 3 4
f 1 4 5
f 1 5 6
f 1 6 17
f 1 17 16
f 1 16 32
f 1 32 58
f 1 58 57
f 1 57 83
f 1 83 111
f 1 111 88
f 1 88 86
f 1 86 116
f 1 116 115
f 1 115 114
f 1 114 113
f 1 113 140
f 1 140 169
f 1 169 202
f 1 202 233
f 1 233 273
f 1 273 311
f 1 311 365
f 1 365 366
f 1 366 390
f 1 390 393
f 1 393 392
f 1 392 394
f 1 394 389
f 1 389 367
f 1 367 313
f 1 313 275
f 1 275 235
f 1 235 203
f 1 203 170
f 1 170 141
f 1 141 117
f 1 117 90
f 1 90 59
f 1 59 35
f 1 35 18
f 1 18 7
f 1 7 2
f 2 7 8
f 2 8 3
f 3 8 9
f 3 9 10
f 3 10 11
f 3 11 12
f 3 12 13
f 3 13 14
f 3 14 4
f 4 14 5
f 5 14 13
f 5 13 15
f 5 15 16
f 5 16 17
f 5 17 6
f 7 18 19
f 7 19 8
f 8 19 9
f 9 19 20
f 9 20 21
f 9 21 22
f 9 22 10
f 10 22 23
f 10 23 11
f 11 23 24
f 11 24 25
f 11 25 26
f 11 26 27
f 11 27 28
f 11 28 12
f 12 28 29
f 12 29 15
f 12 15 13
f 15 29 30
f 15 30 31
f 15 31 16
f 16 31 32
f 18 33 34
f 18 34 20
f 18 20 19
f 18 35 36
f 18 36 33
f 20 34 37
f 20 37 38
f 20 38 39
f 20 39 40
f 20 40 41
f 20 41 21
f 21 41 42
f 21 42 22
f 22 42 23
f 23 43 44
f 23 44 24
f 23 42 43
f 24 44 45
f 24 45 46
f 24 46 47
f 24 47 25
f 25 47 48
f 25 48 29
f 25 29 27
f 25 27 26
f 27 29 28
f 29 48 49
f 29 49 50
f 29 50 51
f 29 51 52
f 29 52 53
f 29 53 30
f 30 53 31
f 31 54 32
f 31 53 55
f 31 55 56
f 31 56 57
f 31 57 54
f 32 54 58
f 33 36 61
f 33 61 92
f 33 92 119
f 33 119 144
f 33 144 175
f 33 175 210
f 33 210 247
f 33 247 281
f 33 281 327
f 33 327 375
f 33 375 336
f 33 336 335
f 33 335 285
f 33 285 253
f 33 253 251
f 33 251 211
f 33 211 176
f 33 176 146
f 33 146 145
f 33 145 124
f 33 124 97
f 33 97 94
f 33 94 93
f 33 93 63
f 33 63 62
f 33 62 39
f 33 39 38
f 33 38 37
f 33 37 34
f 35 59 36
f 36 59 60
f 36 60 89
f 36 89 90
f 36 90 117
f 36 117 142
f 36 142 172
f 36 172 206
f 36 206 239
f 36 239 279
f 36 279 323
f 36 323 373
f 36 373 372
f 36 372 383
f 36 383 382
f 36 382 385
f 36 385 391
f 36 391 376
f 36 376 341
f 36 341 340
f 36 340 339
f 36 339 332
f 36 332 330
f 36 330 329
f 36 329 328
f 36 328 282
f 36 282 280
f 36 280 245
f 36 245 244
f 36 244 243
f 36 243 242
f 36 242 241
f 36 241 240
f 36 240 207
f 36 207 173
f 36 173 143
f 36 143 118
f 36 118 91
f 36 91 61
f 39 62 40
f 40 62 63
f 40 63 64
f 40 64 65
f 40 65 41
f 41 65 66
f 41 66 42
f 42 66 43
f 43 66 67
f 43 67 44
f 44 68 69
f 44 69 46
f 44 46 45
f 44 67 70
f 44 70 68
f 46 71 72
f 46 72 47
f 46 69 68
f 46 68 71
f 47 72 73
f 47 73 49
f 47 49 48
f 49 73 74
f 49 74 75
f 49 75 76
f 49 76 77
f 49 77 50
f 50 77 78
f 50 78 51
f 51 78 53
f 51 53 52
f 53 78 79
f 53 79 80
f 53 80 55
f 54 57 58
f 55 80 56
f 56 81 82
f 56 82 83
f 56 83 57
f 56 80 79
f 56 79 84
f 56 84 85
f 56 85 86
f 56 86 87
f 56 87 88
f 56 88 81
f 59 89 60
f 59 90 89
f 61 91 92
f 63 93 64
f 64 93 94
f 64 94 70
f 64 70 65
f 65 70 67
f 65 67 66
f 68 95 96
f 68 96 71
f 68 70 95
f 70 94 97
f 70 97 95
f 71 96 98
f 71 98 99
f 71 99 72
f 72 99 100
f 72 100 101
f 72 101 102
f 72 102 73
f 73 102 74
f 74 102 75
f 75 102 103
f 75 103 76
f 76 103 77
f 77 104 79
f 77 79 78
f 77 103 105
f 77 105 106
f 77 106 107
f 77 107 108
f 77 108 109
f 77 109 104
f 79 104 109
f 79 109 110
f 79 110 84
f 81 111 112
f 81 112 82
f 81 88 111
f 82 112 83
f 83 112 111
f 84 110 113
f 84 113 114
f 84 114 85
f 85 114 115
f 85 115 116
f 85 116 86
f 86 88 87
f 91 118 92
f 92 118 119
f 95 97 120
f 95 120 121
f 95 121 96
f 96 121 122
f 96 122 123
f 96 123 98
f 97 124 120
f 98 125 126
f 98 126 99
f 98 123 125
f 99 126 127
f 99 127 128
f 99 128 129
f 99 129 130
f 99 130 100
f 100 130 131
f 100 131 101
f 101 131 102
f 102 131 132
f 102 132 133
f 102 133 103
f 103 133 105
f 105 134 135
f 105 135 136
f 105 136 137
f 105 137 107
f 105 107 106
f 105 133 134
f 107 137 138
f 107 138 108
f 108 110 109
f 108 138 137
f 108 137 110
f 110 137 139
f 110 139 113
f 113 139 140
f 117 141 142
f 118 143 119
f 119 143 144
f 120 124 145
f 120 145 121
f 121 145 146
f 121 146 147
f 121 147 122
f 122 147 148
f 122 148 125
f 122 125 123
f 125 148 149
f 125 149 150
f 125 150 151
f 125 151 152
f 125 152 153
f 125 153 154
f 125 154 128
f 125 128 127
f 125 127 126
f 128 154 129
f 129 155 130
f 129 154 155
f 130 156 132
f 130 132 131
f 130 155 157
f 130 157 158
f 130 158 159
f 130 159 160
f 130 160 156
f 132 156 133
f 133 156 160
f 133 160 134
f 134 160 161
f 134 161 135
f 135 161 162
f 135 162 136
f 136 163 164
f 136 164 165
f 136 165 166
f 136 166 167
f 136 167 137
f 136 162 163
f 137 167 139
f 139 167 166
f 139 166 168
f 139 168 140
f 140 168 169
f 141 170 142
f 142 170 171
f 142 171 172
f 143 173 174
f 143 174 144
f 144 174 175
f 146 176 177
f 146 177 178
f 146 178 179
f 146 179 180
f 146 180 147
f 147 180 181
f 147 181 148
f 148 181 149
f 149 182 150
f 149 181 182
f 150 182 151
f 151 182 183
f 151 183 184
f 151 184 185
f 151 185 186
f 151 186 187
f 151 187 188
f 151 188 152
f 152 188 189
f 152 189 190
f 152 190 191
f 152 191 153
f 153 191 154
f 154 157 155
f 154 191 192
f 154 192 157
f 157 192 158
f 158 192 159
f 159 192 193
f 159 193 160
f 160 193 161
f 161 194 195
f 161 195 162
f 161 193 194
f 162 195 196
f 162 196 163
f 163 196 164
f 164 196 197
f 164 197 198
f 164 198 199
f 164 199 165
f 165 199 166
f 166 200 168
f 166 199 201
f 166 201 200
f 168 200 169
f 169 200 202
f 170 203 204
f 170 204 171
f 171 204 172
f 172 204 205
f 172 205 206
f 173 207 174
f 174 207 208
f 174 208 175
f 175 208 209
f 175 209 210
f 176 211 212
f 176 212 178
f 176 178 213
f 176 213 177
f 177 213 178
f 178 212 179
f 179 212 214
f 179 214 180
f 180 214 181
f 181 214 215
f 181 215 216
f 181 216 182
f 182 216 215
f 182 215 185
f 182 185 183
f 183 185 184
f 185 217 218
f 185 218 188
f 185 188 187
f 185 187 186
f 185 215 217
f 188 218 219
f 188 219 220
f 188 220 189
f 189 221 222
f 189 222 190
f 189 220 223
f 189 223 224
f 189 224 221
f 190 222 192
f 190 192 191
f 192 222 225
f 192 225 193
f 193 225 194
f 194 225 226
f 194 226 227
f 194 227 196
f 194 196 195
f 196 227 228
f 196 228 197
f 197 228 229
f 197 229 230
f 197 230 198
f 198 230 231
f 198 231 232
f 198 232 199
f 199 232 201
f 200 201 233
f 200 233 202
f 201 232 234
f 201 234 233
f 203 235 204
f 204 235 236
f 204 236 237
f 204 237 205
f 205 237 238
f 205 238 206
f 206 238 239
f 207 240 208
f 208 240 209
f 209 240 241
f 209 241 242
f 209 242 243
f 209 243 244
f 209 244 245
f 209 245 246
f 209 246 210
f 210 246 248
f 210 248 249
f 210 249 250
f 210 250 247
f 211 251 252
f 211 252 212
f 212 252 251
f 212 251 253
f 212 253 215
f 212 215 214
f 215 254 255
f 215 255 217
f 215 253 254
f 217 256 257
f 217 257 218
f 217 255 256
f 218 257 219
f 219 257 258
f 219 258 220
f 220 258 259
f 220 259 223
f 221 224 260
f 221 260 226
f 221 226 225
f 221 225 222
f 223 259 224
f 224 259 261
f 224 261 262
f 224 262 263
f 224 263 264
f 224 264 260
f 226 260 265
f 226 265 227
f 227 265 228
f 228 265 229
f 229 266 230
f 229 265 267
f 229 267 263
f 229 263 266
f 230 266 268
f 230 268 269
f 230 269 231
f 231 269 270
f 231 270 271
f 231 271 232
f 232 271 234
f 233 234 272
f 233 272 273
f 234 271 274
f 234 274 273
f 234 273 272
f 235 275 236
f 236 275 276
f 236 276 237
f 237 276 277
f 237 277 238
f 238 277 278
f 238 278 239
f 239 278 279
f 245 280 248
f 245 248 246
f 247 250 281
f 248 280 249
f 249 280 282
f 249 282 283
f 249 283 284
f 249 284 281
f 249 281 250
f 253 285 254
f 254 285 255
f 255 285 286
f 255 286 287
f 255 287 288
f 255 288 289
f 255 289 290
f 255 290 256
f 256 290 291
f 256 291 292
f 256 292 293
f 256 293 257
f 257 293 294
f 257 294 258
f 258 294 295
f 258 295 296
f 258 296 259
f 259 296 261
f 260 264 265
f 261 297 262
f 261 296 298
f 261 298 299
f 261 299 263
f 261 263 297
f 262 297 263
f 263 300 301
f 263 301 302
f 263 302 303
f 263 303 304
f 263 304 305
f 263 305 306
f 263 306 268
f 263 268 266
f 263 267 265
f 263 265 264
f 263 299 307
f 263 307 300
f 268 306 269
f 269 306 308
f 269 308 270
f 270 308 309
f 270 309 271
f 271 309 274
f 273 274 310
f 273 310 311
f 274 309 312
f 274 312 310
f 275 313 314
f 275 314 276
f 276 314 315
f 276 315 277
f 277 316 278
f 277 315 317
f 277 317 318
f 277 318 316
f 278 316 318
f 278 318 319
f 278 319 320
f 278 320 321
f 278 321 279
f 279 321 322
f 279 322 323
f 281 284 324
f 281 324 325
f 281 325 326
f 281 326 327
f 282 328 283
f 283 328 329
f 283 329 330
f 283 330 331
f 283 331 332
f 283 332 291
f 283 291 333
f 283 333 284
f 284 333 334
f 284 334 324
f 285 335 286
f 286 335 287
f 287 335 336
f 287 336 337
f 287 337 288
f 288 337 289
f 289 337 324
f 289 324 338
f 289 338 290
f 290 338 324
f 290 324 291
f 291 324 333
f 291 332 339
f 291 339 292
f 292 339 340
f 292 340 341
f 292 341 342
f 292 342 293
f 293 342 343
f 293 343 344
f 293 344 294
f 294 344 345
f 294 345 295
f 295 345 296
f 296 345 298
f 298 345 346
f 298 346 347
f 298 347 348
f 298 348 299
f 299 348 307
f 300 349 301
f 300 307 349
f 301 350 320
f 301 320 351
f 301 351 302
f 301 349 352
f 301 352 353
f 301 353 350
f 302 351 317
f 302 317 303
f 303 317 304
f 304 354 355
f 304 355 356
f 304 356 305
f 304 317 357
f 304 357 358
f 304 358 359
f 304 359 360
f 304 360 361
f 304 361 354
f 305 356 306
f 306 356 355
f 306 355 362
f 306 362 309
f 306 309 308
f 307 348 349
f 309 362 363
f 309 363 364
f 309 364 312
f 310 312 365
f 310 365 311
f 312 364 366
f 312 366 365
f 313 367 314
f 314 367 368
f 314 368 361
f 314 361 359
f 314 359 358
f 314 358 369
f 314 369 315
f 315 369 370
f 315 370 357
f 315 357 317
f 317 351 320
f 317 320 318
f 318 320 319
f 320 350 321
f 321 350 371
f 321 371 372
f 321 372 322
f 322 372 373
f 322 373 323
f 324 334 333
f 324 337 374
f 324 374 325
f 325 327 326
f 325 374 327
f 327 374 375
f 330 332 331
f 336 375 337
f 337 375 374
f 341 376 342
f 342 376 377
f 342 377 378
f 342 378 343
f 343 378 345
f 343 345 344
f 345 378 346
f 346 378 347
f 347 378 379
f 347 379 380
f 347 380 349
f 347 349 348
f 349 380 352
f 350 353 371
f 352 380 381
f 352 381 353
f 353 382 383
f 353 383 371
f 353 381 384
f 353 384 385
f 353 385 382
f 354 361 355
f 355 386 387
f 355 387 363
f 355 363 362
f 355 361 388
f 355 388 386
f 357 370 369
f 357 369 358
f 359 361 360
f 361 389 388
f 361 368 389
f 363 387 364
f 364 387 366
f 366 387 390
f 367 389 368
f 371 383 372
f 376 391 377
f 377 391 384
f 377 384 379
f 377 379 378
f 379 384 381
f 379 381 380
f 384 391 385
f 386 392 387
f 386 388 392
f 387 392 393
f 387 393 390
f 388 389 394
f 388 394 392

