# https://github.com/mikedh/trimesh
v -0.33170490 0.61824626 0.86162779
v -0.36938100 0.61824626 0.86306409
v -0.46746871 0.50440056 0.86365547
v -0.45805693 0.50440056 0.86112086
v -0.45593494 0.50440056 0.86036049
v -0.33170490 0.61569403 0.86044498
v -0.33170490 0.61824626 0.55502661
v -0.38256038 0.61824626 0.86289510
v -0.38847887 0.61232829 0.86323304
v -0.45430376 0.54649504 0.86373997
v -0.46746871 0.50699733 0.86365547
v -0.46943191 0.50440056 0.86297959
v -0.33170490 0.61467986 0.85993805
v -0.45065160 0.50440056 0.85622067
v -0.33170490 0.61014386 0.85622067
v -0.33241221 0.61824626 0.55696980
v -0.33170490 0.61266262 0.49047900
v -0.40281309 0.61352079 0.86078292
v -0.41479436 0.59916609 0.86230367
v -0.39683687 0.61824626 0.86044498
v -0.44113877 0.57281940 0.86314854
v -0.45538638 0.56067141 0.86120536
v -0.46488480 0.54649504 0.86044498
v -0.46746871 0.52015949 0.86289510
v -0.47657739 0.50699733 0.85993805
v -0.47673618 0.50440056 0.86002255
v -0.33170490 0.60809319 0.85436198
v -0.33170490 0.50440056 0.75534389
v -0.33981754 0.61824626 0.57851383
v -0.33170490 0.60654402 0.42060874
v -0.33580452 0.61196048 0.49461883
v -0.33580452 0.61425636 0.52089410
v -0.40066225 0.61824626 0.85968461
v -0.41479436 0.60978724 0.85926217
v -0.42746855 0.59863114 0.85934667
v -0.44064797 0.58559154 0.85968461
v -0.45174870 0.57281940 0.85976910
v -0.46287832 0.55694901 0.85883974
v -0.47462863 0.52848477 0.85757243
v -0.47552362 0.52015949 0.85875524
v -0.47734243 0.50440056 0.85799487
v -0.33170490 0.50440056 0.00062679
v -0.34186735 0.61824626 0.58501929
v -0.33170490 0.60609824 0.41562403
v -0.33580452 0.60843870 0.45507918
v -0.33580452 0.61079027 0.48143895
v -0.34396045 0.61824626 0.59177820
v -0.40772109 0.61824626 0.85039112
v -0.42273377 0.60696756 0.85782592
v -0.44907819 0.58094409 0.85807936
v -0.46003453 0.56482849 0.85013763
v -0.46355675 0.55825297 0.85013763
v -0.46847919 0.54649504 0.85013763
v -0.47468636 0.52867424 0.85013763
v -0.47663512 0.52015949 0.85013763
v -0.47884372 0.50699733 0.85013763
v -0.47917573 0.50440056 0.85013763
v -0.33772440 0.50440056 0.00172511
v -0.33170490 0.51021819 0.00147166
v -0.33170490 0.60515094 0.40523221
v -0.34241588 0.60575276 0.44840476
v -0.35350217 0.61824626 0.62405200
v -0.40785099 0.61824626 0.85013763
v -0.41479436 0.61353194 0.85013763
v -0.42329675 0.60741334 0.85013763
v -0.42987926 0.60116104 0.85013763
v -0.43656279 0.59457437 0.85013763
v -0.44314526 0.58789853 0.85013763
v -0.44936687 0.58131186 0.85013763
v -0.45508325 0.57281940 0.85013763
v -0.43256422 0.53664289 0.46825907
v -0.43459959 0.52683533 0.43488694
v -0.43983960 0.52015949 0.45507918
v -0.44121094 0.52015949 0.46825907
v -0.44253900 0.52015949 0.48143895
v -0.44759134 0.51314933 0.50256055
v -0.47432546 0.52758205 0.84244939
v -0.44889052 0.50440056 0.48870478
v -0.45164765 0.50440056 0.52089410
v -0.45368302 0.50440056 0.54471927
v -0.34889734 0.50440056 0.00611837
v -0.33613654 0.50757687 0.00214754
v -0.33580452 0.52015949 0.00704777
v -0.33170490 0.52019293 0.00552702
v -0.33170490 0.59360474 0.28399421
v -0.35558087 0.60575276 0.50112428
v -0.35653358 0.61824626 0.63579563
v -0.35407958 0.61824626 0.62624865
v -0.36923661 0.61824626 0.68859962
v -0.34232927 0.59255712 0.31711289
v -0.35604278 0.59283577 0.38047769
v -0.34250250 0.57948409 0.19781807
v -0.36851486 0.59246796 0.43632320
v -0.36933767 0.57982960 0.33662923
v -0.38238716 0.57977388 0.40633052
v -0.42257499 0.60674464 0.84075965
v -0.43585543 0.59392796 0.84008377
v -0.40738907 0.56543032 0.45507918
v -0.41264353 0.55786287 0.44189930
v -0.41171966 0.55683755 0.42880391
v -0.42013543 0.55156599 0.45507918
v -0.42269049 0.54163582 0.41562403
v -0.42139131 0.53990837 0.39593870
v -0.42817590 0.53333284 0.41562403
v -0.43094747 0.53409070 0.44189930
v -0.43073092 0.53207346 0.42990223
v -0.42150677 0.52691335 0.32910994
v -0.42094380 0.52605518 0.32032338
v -0.42342669 0.51708350 0.29717409
v -0.42139131 0.51359511 0.26413990
v -0.43472949 0.51395177 0.38115357
v -0.43592764 0.51645938 0.40252865
v -0.43664940 0.51800851 0.41562403
v -0.43845382 0.52015949 0.44189930
v -0.44103772 0.50699733 0.41562403
v -0.44238022 0.50699733 0.42880391
v -0.44370823 0.50699733 0.44189930
v -0.44497856 0.50699733 0.45507918
v -0.44676853 0.50440056 0.46521755
v -0.44824093 0.50440056 0.48143895
v -0.35949282 0.50440056 0.01152549
v -0.34896951 0.50699733 0.00704777
v -0.34774251 0.51890012 0.01237036
v -0.34251694 0.52686877 0.01397564
v -0.33580452 0.52939867 0.01220145
v -0.33170490 0.53090325 0.01127204
v -0.33170490 0.59227848 0.27081433
v -0.36695584 0.61823512 0.67896817
v -0.36698473 0.61824626 0.67922164
v -0.33170490 0.59130889 0.26143632
v -0.33170490 0.58267154 0.17863963
v -0.33379800 0.58173539 0.17863963
v -0.33661290 0.58188024 0.19274889
v -0.33231119 0.58098867 0.16545977
v -0.34154978 0.57896029 0.18903147
v -0.33778217 0.56342422 0.04692533
v -0.34772807 0.57562794 0.19274889
v -0.35562415 0.57945065 0.26388644
v -0.35760180 0.58068774 0.28399421
v -0.36873141 0.57940607 0.33003930
v -0.35744301 0.56757012 0.17863963
v -0.36523804 0.56361366 0.19181953
v -0.35436827 0.55216781 0.04692533
v -0.37130087 0.55522151 0.16545977
v -0.39207326 0.57704336 0.44189930
v -0.39319920 0.57793493 0.45507918
v -0.39768857 0.56859548 0.41562403
v -0.39979611 0.57045668 0.44189930
v -0.40637863 0.56443840 0.44189930
v -0.41076694 0.55581219 0.41562403
v -0.41922600 0.55047379 0.44189930
v -0.41830213 0.54935927 0.42880391
v -0.40824077 0.53994180 0.30359505
v -0.39617284 0.52810586 0.15227991
v -0.40916460 0.52797211 0.24445455
v -0.40792320 0.52633382 0.22679690
v -0.42030866 0.52502986 0.31035397
v -0.40796649 0.51316047 0.16072853
v -0.40995857 0.50440056 0.13825514
v -0.41042049 0.50440056 0.14188807
v -0.42173773 0.50440056 0.23127469
v -0.42332563 0.50448969 0.24445455
v -0.42530327 0.50699733 0.27081433
v -0.42686229 0.50699733 0.28399421
v -0.41942811 0.52367017 0.29717409
v -0.42834909 0.50699733 0.29717409
v -0.42980709 0.50699733 0.31035397
v -0.43253533 0.50440056 0.32598394
v -0.43278073 0.50440056 0.32826509
v -0.43367572 0.50440056 0.33662923
v -0.43604310 0.50440056 0.35960955
v -0.44152852 0.50440056 0.41308944
v -0.44178836 0.50440056 0.41562403
v -0.44287102 0.50440056 0.42626932
v -0.44445887 0.50440056 0.44189930
v -0.44577249 0.50440056 0.45507918
v -0.36620524 0.50440056 0.01558085
v -0.35852567 0.50699733 0.01211691
v -0.35565304 0.51367313 0.01397564
v -0.35130801 0.52245538 0.01659471
v -0.35846790 0.52979987 0.02538131
v -0.35406514 0.53858212 0.02808483
v -0.34528851 0.54217077 0.02563475
v -0.33580452 0.53598534 0.01667916
v -0.33170490 0.53748992 0.01566538
v -0.33170490 0.58116700 0.16461490
v -0.33170490 0.58068774 0.16030610
v -0.33170490 0.57972929 0.15227991
v -0.33170490 0.56704632 0.04692533
v -0.33170490 0.56379199 0.03771630
v -0.34549058 0.55524381 0.03771630
v -0.34778580 0.55684870 0.04692533
v -0.34896951 0.57307575 0.17863963
v -0.36815400 0.53931769 0.04244754
v -0.36311606 0.54476755 0.04692533
v -0.36927994 0.54043217 0.05123414
v -0.39504690 0.56623273 0.38284331
v -0.40828406 0.55315973 0.38233638
v -0.40978534 0.55477573 0.40252865
v -0.38484116 0.54287291 0.16545977
v -0.38232943 0.52724768 0.05207901
v -0.39547997 0.52725883 0.14281743
v -0.39448393 0.51267011 0.06010519
v -0.40444427 0.51914532 0.16520632
v -0.40854390 0.51408552 0.16951513
v -0.39852583 0.50608343 0.06010519
v -0.40832738 0.50440056 0.12592011
v -0.42328230 0.50440056 0.24377867
v -0.42756960 0.50440056 0.28137512
v -0.43080309 0.50440056 0.31035397
v -0.37317746 0.50440056 0.02048108
v -0.37117097 0.51642595 0.02546576
v -0.36510814 0.50699733 0.01625673
v -0.36145602 0.51943507 0.02098797
v -0.36724457 0.52519704 0.02825382
v -0.36331817 0.53455878 0.03256262
v -0.35937733 0.54330759 0.03687143
v -0.34977788 0.54713030 0.03290060
v -0.33928341 0.55095301 0.02892970
v -0.33525595 0.54653962 0.02369157
v -0.33170490 0.54293978 0.01938276
v -0.33170490 0.55982438 0.03349203
v -0.33463525 0.55894396 0.03433690
v -0.37210924 0.53053544 0.03704042
v -0.38088591 0.52552023 0.04329241
v -0.38380183 0.54183644 0.15227991
v -0.38577947 0.52073903 0.04734777
v -0.39483038 0.52645642 0.13403083
v -0.39301153 0.51029620 0.04692533
v -0.39659147 0.50440056 0.04692533
v -0.39745761 0.50440056 0.05081170
v -0.39942081 0.50440056 0.06010519
v -0.40619096 0.50440056 0.11012119
v -0.37886494 0.50440056 0.02470543
v -0.37545823 0.50658495 0.02326913
v -0.37994760 0.51069745 0.02884524
v -0.37603564 0.52097309 0.03298506
v -0.33170490 0.55535526 0.02884524
v -0.33170490 0.55202292 0.02588820
v -0.38417713 0.51673798 0.03763184
v -0.39067303 0.50440056 0.03611109
v -0.38583720 0.50440056 0.03112641
v -0.38787257 0.50606114 0.03416791
f 1 2 3
f 1 3 4
f 1 4 5
f 1 5 6
f 1 6 13
f 1 13 15
f 1 15 27
f 1 27 28
f 1 28 42
f 1 42 59
f 1 59 84
f 1 84 126
f 1 126 185
f 1 185 221
f 1 221 239
f 1 239 238
f 1 238 222
f 1 222 190
f 1 190 189
f 1 189 188
f 1 188 187
f 1 187 186
f 1 186 131
f 1 131 130
f 1 130 127
f 1 127 85
f 1 85 60
f 1 60 44
f 1 44 30
f 1 30 17
f 1 17 7
f 1 7 16
f 1 16 29
f 1 29 43
f 1 43 47
f 1 47 62
f 1 62 88
f 1 88 87
f 1 87 129
f 1 129 89
f 1 89 63
f 1 63 48
f 1 48 33
f 1 33 20
f 1 20 8
f 1 8 2
f 2 8 9
f 2 9 10
f 2 10 3
f 3 11 12
f 3 12 26
f 3 26 41
f 3 41 57
f 3 57 80
f 3 80 79
f 3 79 78
f 3 78 120
f 3 120 119
f 3 119 176
f 3 176 175
f 3 175 174
f 3 174 173
f 3 173 172
f 3 172 171
f 3 171 170
f 3 170 169
f 3 169 168
f 3 168 210
f 3 210 209
f 3 209 208
f 3 208 161
f 3 161 160
f 3 160 159
f 3 159 207
f 3 207 233
f 3 233 232
f 3 232 231
f 3 231 230
f 3 230 241
f 3 241 242
f 3 242 234
f 3 234 211
f 3 211 177
f 3 177 121
f 3 121 81
f 3 81 58
f 3 58 42
f 3 42 28
f 3 28 14
f 3 14 5
f 3 5 4
f 3 10 11
f 5 13 6
f 5 14 15
f 5 15 13
f 7 17 16
f 8 18 19
f 8 19 9
f 8 20 18
f 9 19 21
f 9 21 10
f 10 21 22
f 10 22 23
f 10 23 24
f 10 24 11
f 11 24 25
f 11 25 26
f 11 26 12
f 14 27 15
f 14 28 27
f 16 17 29
f 17 30 31
f 17 31 32
f 17 32 29
f 18 20 33
f 18 33 34
f 18 34 19
f 19 34 35
f 19 35 21
f 21 35 36
f 21 36 37
f 21 37 22
f 22 37 38
f 22 38 23
f 23 38 39
f 23 39 40
f 23 40 24
f 24 40 25
f 25 40 41
f 25 41 26
f 29 32 31
f 29 31 43
f 30 44 45
f 30 45 46
f 30 46 31
f 31 46 47
f 31 47 43
f 33 48 49
f 33 49 34
f 34 49 35
f 35 49 36
f 36 49 50
f 36 50 37
f 37 50 38
f 38 50 51
f 38 51 52
f 38 52 53
f 38 53 39
f 39 53 54
f 39 54 55
f 39 55 56
f 39 56 40
f 40 56 57
f 40 57 41
f 42 58 59
f 44 60 45
f 45 61 62
f 45 62 47
f 45 47 46
f 45 60 61
f 48 63 49
f 49 63 64
f 49 64 65
f 49 65 66
f 49 66 67
f 49 67 50
f 50 67 68
f 50 68 69
f 50 69 70
f 50 70 51
f 51 70 71
f 51 71 72
f 51 72 52
f 52 72 73
f 52 73 74
f 52 74 75
f 52 75 53
f 53 75 76
f 53 76 54
f 54 77 55
f 54 76 77
f 55 77 78
f 55 78 79
f 55 79 80
f 55 80 56
f 56 80 57
f 58 81 82
f 58 82 59
f 59 82 83
f 59 83 84
f 60 85 61
f 61 85 86
f 61 86 87
f 61 87 88
f 61 88 62
f 63 89 86
f 63 86 90
f 63 90 91
f 63 91 92
f 63 92 93
f 63 93 94
f 63 94 95
f 63 95 64
f 64 96 65
f 64 95 96
f 65 96 66
f 66 97 67
f 66 96 98
f 66 98 97
f 67 97 68
f 68 97 98
f 68 98 99
f 68 99 69
f 69 99 100
f 69 100 101
f 69 101 102
f 69 102 71
f 69 71 70
f 71 102 103
f 71 103 104
f 71 104 105
f 71 105 72
f 72 105 106
f 72 106 107
f 72 107 108
f 72 108 109
f 72 109 110
f 72 110 111
f 72 111 112
f 72 112 113
f 72 113 114
f 72 114 73
f 73 114 113
f 73 113 74
f 74 113 112
f 74 112 76
f 74 76 75
f 76 112 111
f 76 111 115
f 76 115 116
f 76 116 117
f 76 117 118
f 76 118 119
f 76 119 77
f 77 119 120
f 77 120 78
f 81 121 122
f 81 122 82
f 82 122 83
f 83 122 123
f 83 123 124
f 83 124 125
f 83 125 126
f 83 126 84
f 85 127 86
f 86 127 90
f 86 89 128
f 86 128 87
f 87 128 129
f 89 129 128
f 90 127 130
f 90 130 131
f 90 131 132
f 90 132 91
f 91 132 133
f 91 133 92
f 92 133 132
f 92 132 134
f 92 134 135
f 92 135 136
f 92 136 137
f 92 137 138
f 92 138 139
f 92 139 93
f 93 139 140
f 93 140 94
f 94 140 95
f 95 140 141
f 95 141 142
f 95 142 143
f 95 143 144
f 95 144 145
f 95 145 146
f 95 146 96
f 96 146 147
f 96 147 148
f 96 148 98
f 98 148 147
f 98 147 149
f 98 149 150
f 98 150 100
f 98 100 99
f 100 150 101
f 101 150 151
f 101 151 102
f 102 151 103
f 103 108 107
f 103 107 104
f 103 151 152
f 103 152 153
f 103 153 154
f 103 154 155
f 103 155 156
f 103 156 108
f 104 107 106
f 104 106 105
f 108 156 157
f 108 157 110
f 108 110 109
f 110 158 159
f 110 159 160
f 110 160 161
f 110 161 162
f 110 162 163
f 110 163 164
f 110 164 111
f 110 157 165
f 110 165 158
f 111 166 167
f 111 167 168
f 111 168 169
f 111 169 170
f 111 170 115
f 111 164 166
f 115 170 171
f 115 171 172
f 115 172 173
f 115 173 116
f 116 173 174
f 116 174 175
f 116 175 117
f 117 175 176
f 117 176 119
f 117 119 118
f 121 177 178
f 121 178 122
f 122 178 123
f 123 178 179
f 123 179 124
f 124 179 180
f 124 180 181
f 124 181 182
f 124 182 183
f 124 183 125
f 125 183 184
f 125 184 185
f 125 185 126
f 131 186 134
f 131 134 132
f 134 186 187
f 134 187 188
f 134 188 135
f 135 188 189
f 135 189 136
f 136 189 190
f 136 190 191
f 136 191 192
f 136 192 141
f 136 141 193
f 136 193 137
f 137 193 140
f 137 140 138
f 138 140 139
f 140 193 141
f 141 192 143
f 141 143 142
f 143 192 191
f 143 191 194
f 143 194 195
f 143 195 196
f 143 196 144
f 144 196 197
f 144 197 145
f 145 197 147
f 145 147 146
f 147 197 149
f 149 198 199
f 149 199 150
f 149 197 196
f 149 196 200
f 149 200 198
f 150 199 151
f 151 199 198
f 151 198 152
f 152 198 153
f 153 198 201
f 153 201 154
f 154 201 202
f 154 202 156
f 154 156 155
f 156 202 203
f 156 203 204
f 156 204 157
f 157 204 205
f 157 205 165
f 158 165 205
f 158 205 203
f 158 203 206
f 158 206 207
f 158 207 159
f 161 208 162
f 162 209 164
f 162 164 163
f 162 208 209
f 164 209 166
f 166 210 168
f 166 168 167
f 166 209 210
f 177 211 212
f 177 212 213
f 177 213 178
f 178 213 179
f 179 213 212
f 179 212 214
f 179 214 181
f 179 181 180
f 181 215 182
f 181 214 215
f 182 215 216
f 182 216 217
f 182 217 218
f 182 218 219
f 182 219 183
f 183 219 220
f 183 220 221
f 183 221 184
f 184 221 185
f 190 222 223
f 190 223 191
f 191 223 219
f 191 219 218
f 191 218 217
f 191 217 194
f 194 217 224
f 194 224 225
f 194 225 201
f 194 201 196
f 194 196 195
f 196 201 226
f 196 226 200
f 198 200 201
f 200 226 201
f 201 225 227
f 201 227 203
f 201 203 228
f 201 228 202
f 202 228 203
f 203 227 229
f 203 229 206
f 203 205 204
f 206 229 230
f 206 230 231
f 206 231 232
f 206 232 233
f 206 233 207
f 211 234 235
f 211 235 212
f 212 235 236
f 212 236 215
f 212 215 214
f 215 236 237
f 215 237 224
f 215 224 216
f 216 224 217
f 219 238 239
f 219 239 220
f 219 223 238
f 220 239 221
f 222 238 223
f 224 240 225
f 224 237 240
f 225 240 229
f 225 229 227
f 229 240 230
f 230 240 241
f 234 242 236
f 234 236 235
f 236 242 243
f 236 243 240
f 236 240 237
f 240 243 241
f 241 243 242

