# https://github.com/mikedh/trimesh
v 0.32053390 0.61824622 0.85716742
v -0.16123921 0.61824622 0.86072256
v -0.33170490 0.61466907 0.85996074
v -0.33170490 0.61013350 0.85623629
v 0.32053390 0.61186080 0.85175006
v 0.32053390 0.61824622 0.49928292
v -0.33125797 0.61824622 0.86165365
v -0.33170490 0.61568316 0.86046861
v -0.33170490 0.60808306 0.85437411
v 0.32053390 0.60420497 0.84497835
v 0.32053390 0.61051241 0.85056501
v 0.32053390 0.61804564 0.49665889
v 0.31951237 0.61824622 0.49759000
v -0.33170490 0.61824622 0.86156904
v -0.33170490 0.61793422 0.86148439
v -0.33170490 0.50441167 0.75533794
v 0.32053390 0.50441167 0.75398359
v 0.32053390 0.61793422 0.49521990
v 0.29620900 0.59629283 0.17864277
v 0.28305697 0.59793096 0.17864277
v 0.30942489 0.61411186 0.42877256
v 0.30942489 0.61510367 0.44189274
v 0.30942489 0.61607318 0.45501292
v 0.31376634 0.61824622 0.49039506
v -0.33170490 0.61824622 0.55498018
v -0.33170490 0.50441167 0.00063166
v 0.32053390 0.50441167 0.00012375
v 0.32053390 0.61471365 0.45501292
v 0.30667955 0.59389692 0.17864277
v 0.30482806 0.59328398 0.16780804
v 0.29754975 0.59436495 0.16425290
v 0.26990493 0.58611849 0.04693318
v 0.25675290 0.58816897 0.04693318
v 0.28305697 0.59663831 0.16552264
v 0.32053390 0.61364382 0.44189274
v 0.32053390 0.61254060 0.42877256
v 0.24360086 0.58970683 0.04693318
v 0.23038499 0.59070978 0.04693318
v 0.26990493 0.59886708 0.17864277
v 0.28305697 0.59893391 0.19184759
v 0.28963298 0.60573169 0.29062982
v 0.30910567 0.61824622 0.48463912
v 0.29620900 0.61239571 0.38932740
v 0.29620900 0.61336522 0.40261687
v -0.32889573 0.61824622 0.54719272
v -0.32257510 0.61200569 0.45509756
v -0.31676522 0.60595456 0.36723473
v -0.32844882 0.60554225 0.39804597
v -0.32978957 0.60593227 0.40684919
v -0.33170490 0.61265202 0.49047970
v -0.33170490 0.51022878 0.00147810
v -0.32806575 0.51236839 0.00097027
v -0.33010879 0.50441167 0.00046236
v 0.31255328 0.50441167 -0.00089199
v 0.31951237 0.50700821 0.00020844
v 0.32053390 0.50631729 0.00029305
v 0.31593705 0.59253735 0.19870395
v 0.31325559 0.59152325 0.17864277
v 0.32053390 0.61138162 0.41573704
v 0.29972048 0.57805035 0.04693318
v 0.29308061 0.58062455 0.04693318
v 0.28305697 0.58345511 0.04693318
v 0.29097374 0.57990021 0.03982290
v 0.28305697 0.58094774 0.03855316
v 0.26990493 0.58235185 0.03711420
v 0.25675290 0.58343282 0.03601376
v 0.24360086 0.58419061 0.03525202
v 0.20408092 0.59179071 0.04583275
v 0.21595606 0.59166814 0.04828753
v 0.21072077 0.59257078 0.05353555
v 0.25675290 0.59956914 0.17864277
v 0.26990493 0.59985888 0.19184759
v 0.27667248 0.60575398 0.27717108
v 0.28439772 0.60652291 0.29587790
v 0.28305697 0.60768186 0.31035242
v 0.30763723 0.61824622 0.48311549
v 0.29620900 0.61431244 0.41573704
v 0.29620900 0.61524856 0.42877256
v 0.29620900 0.61618464 0.44189274
v -0.32583119 0.61824622 0.53881274
v -0.32257510 0.61309777 0.46821774
v -0.30303858 0.60578741 0.32956712
v -0.29627103 0.59462126 0.17864277
v -0.30291090 0.59259307 0.17178644
v -0.30399624 0.59290511 0.17864277
v -0.31587140 0.59253735 0.21199343
v -0.33170490 0.60514105 0.40524090
v -0.33170490 0.60608831 0.41565240
v -0.33170490 0.60653405 0.42064653
v -0.33170490 0.52020255 0.00554115
v -0.30501777 0.52785838 0.00054705
v -0.31925517 0.51595673 0.00046236
v -0.32321354 0.52026942 0.00240923
v -0.31382835 0.52472696 0.00122418
v -0.32321354 0.50758770 0.00012375
v -0.32308585 0.50441167 -0.00004555
v 0.30942489 0.50441167 -0.00114591
v 0.30942489 0.50700821 -0.00106130
v 0.31632012 0.51395083 0.00071627
v 0.32053390 0.51099771 0.00139349
v 0.32053390 0.59766355 0.27090724
v 0.32053390 0.59438724 0.23789519
v 0.32053390 0.59274907 0.22223563
v 0.32053390 0.59171273 0.21250130
v 0.32053390 0.59060947 0.20276701
v 0.32053390 0.58957308 0.19396377
v 0.32053390 0.58773437 0.17864277
v 0.32053390 0.61014465 0.40261687
v 0.32053390 0.58629678 0.16848526
v 0.32053390 0.57039448 0.06064583
v 0.30942489 0.57567668 0.06022261
v 0.30942489 0.57360391 0.04693318
v 0.31759702 0.56707363 0.03948429
v 0.30942489 0.56909068 0.03745281
v 0.29486827 0.57218865 0.03423619
v 0.29001605 0.56638272 0.02712591
v 0.28305697 0.57397168 0.03195079
v 0.26990493 0.57557641 0.03042714
v 0.25675290 0.57683563 0.02941139
v 0.24360086 0.57769373 0.02873426
v 0.23038499 0.58466979 0.03482872
v 0.19092889 0.59193560 0.04447840
v 0.23038499 0.57821749 0.02831096
v 0.19092889 0.59288282 0.05099623
v 0.20408092 0.59270453 0.05243520
v 0.25675290 0.60812760 0.29714760
v 0.26154126 0.60566481 0.26523594
v 0.25675290 0.60053865 0.19184759
v 0.26990493 0.60372579 0.24449760
v 0.26990493 0.60755929 0.29714760
v 0.28305697 0.61332064 0.38932740
v 0.28305697 0.60862908 0.32347258
v 0.26990493 0.60593227 0.27463169
v 0.29620900 0.61708727 0.45501292
v 0.29620900 0.61824622 0.47194217
v -0.31951054 0.61824622 0.52315317
v -0.32168127 0.61765562 0.52120631
v -0.32257510 0.61528196 0.49454273
v -0.28995038 0.60577627 0.30324212
v -0.28305514 0.59591396 0.16543795
v -0.29058884 0.59278251 0.14334528
v -0.29627103 0.59572448 0.19184759
v -0.30942306 0.61465792 0.45509756
v -0.29244033 0.59318371 0.15240243
v -0.29652640 0.59352915 0.16662300
v -0.30118707 0.59219191 0.16298324
v -0.30942306 0.58870388 0.15240243
v -0.30814616 0.59052030 0.16662300
v -0.31057226 0.59096605 0.17864277
v -0.31267915 0.59160127 0.19184759
v -0.32257510 0.58670912 0.17864277
v -0.32257510 0.58805751 0.19184759
v -0.32927880 0.59261536 0.26379696
v -0.33170490 0.59359602 0.28402741
v -0.33170490 0.53091181 0.01129708
v -0.32302200 0.53407665 0.00943490
v -0.29627103 0.53651715 0.00207062
v -0.28752428 0.53867905 0.00113957
v -0.27871370 0.54043979 0.00063166
v -0.29627103 0.52993115 0.00012375
v -0.30942306 0.52026942 0.00003914
v -0.30942306 0.53268365 0.00367889
v -0.29627103 0.52016911 -0.00080730
v -0.30942306 0.50700821 -0.00072269
v -0.30942306 0.50441167 -0.00080730
v 0.29882665 0.50441167 -0.00190774
v 0.29697514 0.52094919 -0.00063808
v 0.30942489 0.51648050 0.00020844
v 0.29620900 0.50700821 -0.00199235
v 0.28305697 0.52016911 -0.00199235
v 0.29308061 0.52853814 0.00012375
v 0.30189119 0.52586362 0.00113957
v 0.30942489 0.52306650 0.00257853
v 0.32053390 0.52050344 0.00655689
v 0.32053390 0.51809634 0.00520254
v 0.32053390 0.56827716 0.04735640
v 0.32015083 0.56837747 0.04693318
v 0.32053390 0.56817685 0.04693318
v 0.32053390 0.56633814 0.04185439
v 0.32053390 0.56111166 0.03559054
v 0.32053390 0.55926177 0.03389766
v 0.30942489 0.56188059 0.03085036
v 0.29876280 0.56446595 0.02873426
v 0.29518749 0.55993042 0.02374007
v 0.28701535 0.55221887 0.01476761
v 0.28280160 0.54730439 0.00951951
v 0.27820477 0.55363413 0.01358256
v 0.28305697 0.56738567 0.02636416
v 0.26990493 0.55468166 0.01265143
v 0.25675290 0.55607463 0.01129708
v 0.24360086 0.55697730 0.01036595
v 0.23038499 0.55752332 0.00985812
v 0.21723296 0.58499297 0.03449019
v 0.21723296 0.57856293 0.02797243
v 0.17771300 0.59201358 0.04388587
v 0.21723296 0.55794682 0.00943490
v 0.17771300 0.59294965 0.05048832
v 0.20408092 0.60892997 0.29714760
v 0.21723296 0.61055700 0.32347258
v 0.21723296 0.60882966 0.29714760
v 0.23038499 0.61042325 0.32347258
v 0.23038499 0.60955405 0.31035242
v 0.24360086 0.60936457 0.31035242
v 0.24360086 0.60846193 0.29714760
v 0.25675290 0.60903028 0.31035242
v 0.26990493 0.61392243 0.38932740
v 0.26990493 0.60939801 0.32347258
v 0.26990493 0.60848422 0.31035242
v 0.28305697 0.61423446 0.40261687
v 0.29416598 0.61824622 0.47016460
v -0.31759520 0.61824622 0.51883622
v -0.28305514 0.60708011 0.31043705
v -0.26990311 0.59752980 0.16543795
v -0.26990311 0.59652685 0.15240243
v -0.30686926 0.61824622 0.49665889
v -0.29627103 0.61647438 0.45509756
v -0.26990311 0.59546817 0.13919761
v -0.27743680 0.59272678 0.11769747
v -0.27973522 0.59310569 0.12599279
v -0.28305514 0.59483299 0.15240243
v -0.28860965 0.59239249 0.13454208
v -0.29550488 0.59122240 0.13902831
v -0.31255145 0.61824622 0.50774755
v -0.31140225 0.61824622 0.50537746
v -0.29627103 0.58975137 0.12599279
v -0.29627103 0.58842528 0.11287263
v -0.29627103 0.58706571 0.09966785
v -0.30942306 0.58732202 0.13919761
v -0.30393241 0.57979994 0.05141945
v -0.33170490 0.58266389 0.17864277
v -0.32257510 0.58529383 0.16543795
v -0.33170490 0.59226989 0.27082259
v -0.33170490 0.53749781 0.01569866
v -0.32774653 0.53895765 0.01468292
v -0.31893593 0.54172134 0.01265143
v -0.30942306 0.54412840 0.01070456
v -0.29659025 0.54747158 0.00926560
v -0.28311899 0.54549911 0.00469471
v -0.26990311 0.54132017 0.00029305
v -0.26990311 0.53334116 -0.00089199
v -0.26990311 0.54790618 0.00393288
v -0.25675107 0.54885340 0.00300175
v -0.25675107 0.53334116 -0.00123060
v -0.28305514 0.52016911 -0.00114591
v -0.29627103 0.50700821 -0.00106130
v -0.29627103 0.50441167 -0.00106130
v 0.28567462 0.50441167 -0.00241565
v 0.28305697 0.50700821 -0.00241565
v 0.26990493 0.52016911 -0.00233096
v 0.24360086 0.53334116 -0.00173843
v 0.25675290 0.53334116 -0.00131521
v 0.28305697 0.53072233 -0.00038408
v 0.27437407 0.53904682 0.00113957
v 0.28305697 0.53730837 0.00215531
v 0.29697514 0.53308485 0.00384819
v 0.30942489 0.53379805 0.00951951
v 0.31976775 0.52971938 0.01172030
v 0.32053390 0.52941853 0.01197422
v 0.32053390 0.55219658 0.02788774
v 0.31663934 0.55344469 0.02704130
v 0.30942489 0.55532799 0.02560234
v 0.29620900 0.54354894 0.01104317
v 0.26996878 0.54547682 0.00520254
v 0.25675290 0.54779476 0.00461002
v 0.24360086 0.54861938 0.00376358
v 0.23038499 0.54915429 0.00325567
v 0.21723296 0.54963347 0.00283245
v 0.20408092 0.58520470 0.03440550
v 0.20408092 0.57873011 0.02780313
v 0.20408092 0.55815854 0.00918090
v 0.19092889 0.58536070 0.03432088
v 0.17771300 0.58543872 0.03432088
v 0.16456097 0.59201358 0.04380126
v 0.16456097 0.59299424 0.05031902
v 0.20408092 0.54991208 0.00257853
v 0.19092889 0.60900799 0.29714760
v 0.19092889 0.60814989 0.28402741
v 0.20408092 0.61064612 0.32347258
v 0.20408092 0.61149307 0.33676206
v 0.21723296 0.61139276 0.33676206
v 0.23038499 0.61127020 0.33676206
v 0.24360086 0.61023381 0.32347258
v 0.25675290 0.61512596 0.40261687
v 0.24360086 0.61109187 0.33676206
v 0.25675290 0.60992177 0.32347258
v 0.26990493 0.61654122 0.42877256
v 0.28305697 0.61692013 0.44189274
v 0.28305697 0.61602864 0.42877256
v 0.28356772 0.61824622 0.46229249
v 0.28305697 0.61778933 0.45501292
v -0.28305514 0.60804962 0.32347258
v -0.27807524 0.60590998 0.28834438
v -0.25675107 0.59761897 0.15240243
v -0.25675107 0.59661602 0.13919761
v -0.27443610 0.60557569 0.27954118
v -0.26990311 0.60725840 0.29723223
v -0.25675107 0.59556848 0.12599279
v -0.29614334 0.61824622 0.47939104
v -0.28305514 0.61385555 0.40253222
v -0.28305514 0.61289719 0.38941205
v -0.28305514 0.61192767 0.37620723
v -0.25675107 0.58902702 0.04701779
v -0.26990311 0.59436495 0.12599279
v -0.26990311 0.58726629 0.04701779
v -0.28631123 0.59199129 0.12599279
v -0.28375743 0.59358488 0.13902831
v -0.28305514 0.58606276 0.06022261
v -0.29627103 0.58289791 0.06022261
v -0.30942306 0.58588447 0.12599279
v -0.29665410 0.58114832 0.04701779
v -0.30137861 0.57893069 0.04270083
v -0.30878460 0.57713652 0.04701779
v -0.32257510 0.57145316 0.04701779
v -0.31165762 0.57777175 0.06022261
v -0.31631830 0.57954363 0.09188035
v -0.33170490 0.58124863 0.16543795
v -0.32257510 0.58383398 0.15240243
v -0.32972572 0.57968848 0.14342993
v -0.33170490 0.58068028 0.16027454
v -0.33170490 0.54294716 0.01942311
v -0.33170490 0.55202939 0.02585625
v -0.33042801 0.55387929 0.02661808
v -0.32257510 0.55595206 0.02500981
v -0.30942306 0.55071444 0.01586797
v -0.30118707 0.55250861 0.01451362
v -0.29244033 0.55403529 0.01324396
v -0.28305514 0.55540601 0.01197422
v -0.26990311 0.55704414 0.01053526
v -0.25675107 0.54226739 -0.00004555
v -0.25675107 0.55810282 0.00960412
v -0.24353520 0.54937716 0.00249384
v -0.24353520 0.53334116 -0.00139983
v -0.26990311 0.52016911 -0.00139983
v -0.28305514 0.50441167 -0.00123060
v 0.26990493 0.50441167 -0.00266956
v 0.21723296 0.52016911 -0.00283887
v 0.21723296 0.53334116 -0.00224634
v 0.21723296 0.54304747 -0.00046877
v 0.23038499 0.54256829 -0.00029947
v 0.24360086 0.54203337 -0.00013017
v 0.26996878 0.53413238 -0.00046877
v 0.25675290 0.54120872 0.00020844
v 0.26562733 0.54039520 0.00063166
v 0.30501960 0.54123101 0.01299004
v 0.32053390 0.53053289 0.01273605
v -0.19086321 0.57995594 0.02670269
v 0.19092889 0.55822538 0.00909629
v 0.08558491 0.55851513 0.00875768
v 0.19092889 0.55004578 0.00249384
v -0.16455914 0.58605161 0.03381297
v -0.09873512 0.59218076 0.04430917
v -0.17771118 0.58608505 0.03381297
v 0.15140893 0.59299424 0.05040371
v -0.12510303 0.61103618 0.32347258
v -0.07243105 0.61191653 0.33667740
v -0.01969522 0.61187195 0.33667740
v 0.15140893 0.60910826 0.29714760
v 0.16456097 0.60908601 0.29714760
v 0.17771300 0.60905257 0.29714760
v 0.19092889 0.61071300 0.32347258
v 0.19092889 0.61154880 0.33676206
v 0.24360086 0.61824622 0.45078060
v 0.25675290 0.61824622 0.45188101
v 0.25675290 0.61762219 0.44189274
v 0.25675290 0.61596176 0.41573704
v 0.25675290 0.61426790 0.38932740
v 0.26990493 0.61739931 0.44189274
v 0.26990493 0.61824622 0.45526685
v 0.26990493 0.61823512 0.45501292
v -0.25675107 0.59856619 0.16543795
v -0.24353520 0.59830988 0.15240243
v -0.24353520 0.59734036 0.13919761
v -0.26990311 0.60822791 0.31043705
v -0.24353520 0.59632627 0.12599279
v -0.24353520 0.59006341 0.04701779
v -0.28331053 0.61824622 0.46390078
v -0.28305514 0.61668611 0.44189274
v -0.25675107 0.58390086 0.03440550
v -0.26990311 0.58293135 0.03550593
v -0.28305514 0.58463635 0.04701779
v -0.28305514 0.58149380 0.03736811
v -0.29256803 0.58025683 0.03914568
v -0.32257510 0.56827716 0.03753742
v -0.32991728 0.56665018 0.03973821
v -0.33113031 0.56735223 0.04701779
v -0.32359661 0.58188381 0.13911300
v -0.33170490 0.56704020 0.04701779
v -0.33170490 0.55536142 0.02890348
v -0.32257510 0.56251578 0.03101966
v -0.31255145 0.56487830 0.02848026
v -0.30865692 0.56017559 0.02323224
v -0.30374087 0.56656101 0.02695669
v -0.29627103 0.56764198 0.02594086
v -0.28305514 0.56943611 0.02441729
v -0.26990311 0.57106314 0.02297825
v -0.25675107 0.57875240 0.02780313
v -0.23038317 0.54968920 0.00223993
v -0.24353520 0.54279116 -0.00013017
v -0.24353520 0.55860429 0.00909629
v -0.24736588 0.57920930 0.02737991
v -0.23038317 0.54311430 -0.00013017
v 0.13825690 0.53334116 -0.00233096
v 0.16456097 0.52016911 -0.00283887
v -0.20407908 0.52016911 -0.00173843
v -0.23038317 0.52016911 -0.00165382
v -0.21723111 0.50441167 -0.00165382
v 0.23300263 0.50441167 -0.00292348
v 0.23038499 0.50700821 -0.00292348
v 0.21723296 0.50700821 -0.00300817
v 0.19092889 0.50441167 -0.00309278
v 0.20408092 0.53334116 -0.00233096
v 0.19092889 0.54345978 -0.00055339
v -0.21723111 0.57985562 0.02678738
v -0.19086321 0.58600703 0.03381297
v 0.07243288 0.55855971 0.00875768
v -0.19086321 0.55911691 0.00858838
v -0.20407908 0.55909462 0.00858838
v 0.08558491 0.55031324 0.00215531
v -0.11188715 0.59218076 0.04439378
v -0.09873512 0.59278251 0.05091154
v -0.15140710 0.61099160 0.32347258
v -0.12510303 0.61190538 0.33667740
v -0.11188715 0.59277136 0.05099623
v -0.15140710 0.61441276 0.37620723
v -0.03291110 0.61271889 0.34988222
v -0.01969522 0.61270775 0.34988222
v 0.17771300 0.61074643 0.32347258
v 0.17771300 0.61158220 0.33676206
v -0.03291110 0.61430130 0.37620723
v -0.16404838 0.61824622 0.44130022
v -0.01969522 0.61351012 0.36308704
v 0.26901110 0.61824622 0.45501292
v -0.26064560 0.60559798 0.26616705
v -0.25675107 0.60709126 0.28402741
v -0.25183503 0.60582085 0.26303513
v -0.24353520 0.60596571 0.26100363
v -0.23038317 0.59871104 0.15240243
v -0.23038317 0.59775267 0.13919761
v -0.25675107 0.60803848 0.29723223
v -0.21723111 0.59127809 0.04701779
v -0.23038317 0.59079890 0.04701779
v -0.26990311 0.60916399 0.32347258
v -0.23038317 0.58512668 0.03381297
v -0.26952003 0.61824622 0.45315070
v -0.26990311 0.61474708 0.40253222
v -0.26990311 0.61383326 0.38941205
v -0.26990311 0.61290833 0.37620723
v -0.24321596 0.58351084 0.03262793
v -0.26990311 0.57763800 0.02890348
v -0.28305514 0.57602216 0.03076574
v -0.29665410 0.57497463 0.03432088
v -0.30865692 0.57016046 0.03322045
v -0.33170490 0.55983011 0.03355906
v -0.33170490 0.56378618 0.03779141
v -0.21723111 0.54988978 0.00207062
v -0.23038317 0.55887175 0.00884238
v -0.20407908 0.55000124 0.00198601
v -0.23855531 0.57951019 0.02712591
v -0.23038317 0.57967733 0.02695669
v -0.21723111 0.54330378 -0.00013017
v -0.20407908 0.54341520 -0.00013017
v 0.07243288 0.54376067 -0.00046877
v 0.13825690 0.54359349 -0.00055339
v 0.16456097 0.50700821 -0.00300817
v 0.15402657 0.50441167 -0.00300817
v -0.17515738 0.50441167 -0.00182312
v 0.21978674 0.50441167 -0.00300817
v 0.15140893 0.54359349 -0.00055339
v 0.17771300 0.54351551 -0.00055339
v -0.21723111 0.58556128 0.03381297
v -0.20407908 0.58582874 0.03381297
v -0.21723111 0.55902775 0.00867307
v 0.07243288 0.55034668 0.00215531
v -0.15140710 0.59215847 0.04557883
v -0.17771118 0.61092472 0.32347258
v -0.17771118 0.61437932 0.37620723
v -0.13825506 0.61188309 0.33667740
v -0.16455914 0.61440161 0.37620723
v -0.16455914 0.59214733 0.04608674
v -0.12510303 0.59274907 0.05150406
v -0.19086321 0.61086900 0.32347258
v -0.16455914 0.61520398 0.38941205
v -0.16455914 0.61599520 0.40253222
v -0.15140710 0.61520398 0.38941205
v -0.03291110 0.61352126 0.36308704
v -0.17707272 0.61824622 0.44121557
v -0.24353520 0.60665662 0.27082259
v -0.25675107 0.60988834 0.32347258
v -0.21723111 0.59891162 0.15240243
v -0.19086321 0.59192445 0.04701779
v -0.24353520 0.60850652 0.29723223
v -0.23038317 0.60611060 0.25880282
v -0.20407908 0.59162356 0.04701779
v -0.26530628 0.61824622 0.45128848
v -0.25675107 0.61528196 0.40253222
v -0.25675107 0.61354355 0.37620723
v -0.25675107 0.61172709 0.34988222
v -0.25675107 0.61081327 0.33667740
v -0.19086321 0.55000124 0.00198601
v -0.20407908 0.61429015 0.37620723
v -0.19086321 0.61434588 0.37620723
v -0.19086321 0.61517054 0.38941205
v -0.17771118 0.61519283 0.38941205
v -0.17739196 0.59220305 0.04811823
v -0.16455914 0.59262651 0.05268911
v -0.15140710 0.59265995 0.05218128
v -0.20407908 0.61080212 0.32347258
v -0.20407908 0.61168251 0.33667740
v -0.19086321 0.61597291 0.40253222
v -0.19086321 0.61824622 0.44113092
v -0.19016092 0.61824622 0.44113092
v -0.22163642 0.60572054 0.25135395
v -0.24353520 0.61123676 0.33667740
v -0.23038317 0.61057929 0.32347258
v -0.25675107 0.61824622 0.44781798
v -0.24353520 0.61391128 0.37620723
v -0.21723111 0.61421217 0.37620723
v -0.20407908 0.61512596 0.38941205
v -0.21723111 0.61071300 0.32347258
v -0.21723111 0.61160449 0.33667740
v -0.20407908 0.61592833 0.40253222
v -0.20407908 0.61824622 0.44189274
v -0.23038317 0.61147078 0.33667740
v -0.24896201 0.61824622 0.44646364
v -0.23038317 0.61493652 0.38941205
v -0.24353520 0.61558285 0.40253222
v -0.24353520 0.61475823 0.38941205
v -0.23038317 0.61410072 0.37620723
v -0.23038317 0.61323152 0.36308704
v -0.21723111 0.61504794 0.38941205
v -0.21723111 0.61585031 0.40253222
v -0.24353520 0.61824622 0.44561718
v -0.23038317 0.61573889 0.40253222
f 1 2 3
f 1 3 4
f 1 4 5
f 1 5 11
f 1 11 10
f 1 10 17
f 1 17 27
f 1 27 56
f 1 56 100
f 1 100 175
f 1 175 174
f 1 174 258
f 1 258 345
f 1 345 259
f 1 259 181
f 1 181 180
f 1 180 179
f 1 179 178
f 1 178 176
f 1 176 110
f 1 110 109
f 1 109 107
f 1 107 106
f 1 106 105
f 1 105 104
f 1 104 103
f 1 103 102
f 1 102 101
f 1 101 108
f 1 108 59
f 1 59 36
f 1 36 35
f 1 35 28
f 1 28 18
f 1 18 12
f 1 12 6
f 1 6 13
f 1 13 24
f 1 24 42
f 1 42 76
f 1 76 135
f 1 135 210
f 1 210 289
f 1 289 368
f 1 368 432
f 1 432 363
f 1 363 362
f 1 362 430
f 1 430 486
f 1 486 511
f 1 511 510
f 1 510 522
f 1 522 532
f 1 532 524
f 1 524 515
f 1 515 494
f 1 494 444
f 1 444 376
f 1 376 298
f 1 298 215
f 1 215 224
f 1 224 223
f 1 223 211
f 1 211 136
f 1 136 80
f 1 80 45
f 1 45 25
f 1 25 14
f 1 14 7
f 1 7 2
f 2 7 8
f 2 8 3
f 3 8 15
f 3 15 14
f 3 14 25
f 3 25 50
f 3 50 89
f 3 89 88
f 3 88 87
f 3 87 154
f 3 154 232
f 3 232 230
f 3 230 316
f 3 316 319
f 3 319 387
f 3 387 454
f 3 454 453
f 3 453 388
f 3 388 321
f 3 321 320
f 3 320 233
f 3 233 155
f 3 155 90
f 3 90 51
f 3 51 26
f 3 26 16
f 3 16 9
f 3 9 4
f 4 9 10
f 4 10 11
f 4 11 5
f 6 12 13
f 7 14 15
f 7 15 8
f 9 16 17
f 9 17 10
f 12 18 13
f 13 18 19
f 13 19 20
f 13 20 21
f 13 21 22
f 13 22 23
f 13 23 24
f 16 26 53
f 16 53 96
f 16 96 165
f 16 165 246
f 16 246 334
f 16 334 406
f 16 406 466
f 16 466 465
f 16 465 410
f 16 410 467
f 16 467 407
f 16 407 335
f 16 335 247
f 16 247 166
f 16 166 97
f 16 97 54
f 16 54 27
f 16 27 17
f 18 28 19
f 19 29 30
f 19 30 31
f 19 31 32
f 19 32 33
f 19 33 34
f 19 34 20
f 19 28 35
f 19 35 36
f 19 36 29
f 20 34 33
f 20 33 37
f 20 37 38
f 20 38 39
f 20 39 40
f 20 40 21
f 21 40 41
f 21 41 22
f 22 41 23
f 23 42 24
f 23 41 43
f 23 43 44
f 23 44 42
f 25 45 46
f 25 46 47
f 25 47 48
f 25 48 49
f 25 49 50
f 26 51 52
f 26 52 53
f 27 54 55
f 27 55 56
f 29 57 58
f 29 58 30
f 29 36 59
f 29 59 57
f 30 58 60
f 30 60 61
f 30 61 62
f 30 62 31
f 31 62 32
f 32 62 63
f 32 63 64
f 32 64 33
f 33 64 65
f 33 65 66
f 33 66 37
f 37 66 67
f 37 67 38
f 38 67 68
f 38 68 69
f 38 69 70
f 38 70 39
f 39 71 72
f 39 72 40
f 39 70 71
f 40 72 73
f 40 73 41
f 41 73 74
f 41 74 75
f 41 75 44
f 41 44 43
f 42 44 77
f 42 77 78
f 42 78 79
f 42 79 76
f 44 75 132
f 44 132 77
f 45 80 46
f 46 80 81
f 46 81 47
f 47 82 83
f 47 83 84
f 47 84 85
f 47 85 48
f 47 81 82
f 48 85 86
f 48 86 49
f 49 86 87
f 49 87 88
f 49 88 89
f 49 89 50
f 51 90 52
f 52 91 92
f 52 92 53
f 52 90 93
f 52 93 94
f 52 94 91
f 53 92 95
f 53 95 96
f 54 97 98
f 54 98 55
f 55 99 56
f 55 98 99
f 56 99 100
f 57 101 102
f 57 102 103
f 57 103 104
f 57 104 105
f 57 105 106
f 57 106 107
f 57 107 58
f 57 59 108
f 57 108 101
f 58 107 109
f 58 109 110
f 58 110 111
f 58 111 60
f 60 111 112
f 60 112 63
f 60 63 61
f 61 63 62
f 63 113 114
f 63 114 115
f 63 115 116
f 63 116 117
f 63 117 64
f 63 112 113
f 64 117 118
f 64 118 65
f 65 118 119
f 65 119 66
f 66 119 120
f 66 120 67
f 67 121 122
f 67 122 68
f 67 120 123
f 67 123 121
f 68 122 124
f 68 124 125
f 68 125 69
f 69 125 70
f 70 125 126
f 70 126 127
f 70 127 128
f 70 128 71
f 71 128 129
f 71 129 72
f 72 129 73
f 73 130 131
f 73 131 132
f 73 132 75
f 73 75 74
f 73 129 133
f 73 133 130
f 76 134 135
f 76 79 134
f 77 132 78
f 78 132 79
f 79 132 131
f 79 131 134
f 80 136 137
f 80 137 82
f 80 82 138
f 80 138 81
f 81 138 82
f 82 139 140
f 82 140 141
f 82 141 142
f 82 142 83
f 82 137 136
f 82 136 143
f 82 143 139
f 83 142 144
f 83 144 145
f 83 145 84
f 84 145 144
f 84 144 146
f 84 146 147
f 84 147 148
f 84 148 149
f 84 149 150
f 84 150 86
f 84 86 85
f 86 150 147
f 86 147 151
f 86 151 152
f 86 152 153
f 86 153 87
f 87 153 154
f 90 155 156
f 90 156 93
f 91 94 157
f 91 157 158
f 91 158 159
f 91 159 160
f 91 160 161
f 91 161 92
f 92 161 95
f 93 156 162
f 93 162 94
f 94 162 157
f 95 161 163
f 95 163 164
f 95 164 96
f 96 164 165
f 97 166 98
f 98 167 168
f 98 168 99
f 98 166 169
f 98 169 170
f 98 170 167
f 99 168 171
f 99 171 172
f 99 172 173
f 99 173 174
f 99 174 175
f 99 175 100
f 110 176 112
f 110 112 111
f 112 176 177
f 112 177 113
f 113 177 178
f 113 178 179
f 113 179 180
f 113 180 181
f 113 181 182
f 113 182 114
f 114 182 183
f 114 183 115
f 115 183 116
f 116 184 185
f 116 185 186
f 116 186 187
f 116 187 188
f 116 188 117
f 116 183 184
f 117 188 187
f 117 187 118
f 118 187 189
f 118 189 190
f 118 190 119
f 119 190 191
f 119 191 120
f 120 191 192
f 120 192 123
f 121 193 122
f 121 123 194
f 121 194 193
f 122 195 124
f 122 193 195
f 123 192 196
f 123 196 194
f 124 195 197
f 124 197 198
f 124 198 199
f 124 199 200
f 124 200 201
f 124 201 202
f 124 202 203
f 124 203 125
f 125 203 204
f 125 204 126
f 126 204 203
f 126 203 205
f 126 205 206
f 126 206 207
f 126 207 208
f 126 208 130
f 126 130 127
f 127 133 128
f 127 130 133
f 128 133 129
f 130 208 131
f 131 209 210
f 131 210 134
f 131 208 207
f 131 207 209
f 134 210 135
f 136 211 143
f 139 212 213
f 139 213 214
f 139 214 140
f 139 143 215
f 139 215 216
f 139 216 212
f 140 214 217
f 140 217 218
f 140 218 219
f 140 219 220
f 140 220 141
f 141 221 222
f 141 222 146
f 141 146 144
f 141 144 142
f 141 220 221
f 143 211 223
f 143 223 224
f 143 224 215
f 146 222 225
f 146 225 226
f 146 226 227
f 146 227 147
f 147 228 151
f 147 150 149
f 147 149 148
f 147 227 229
f 147 229 228
f 151 230 153
f 151 153 152
f 151 228 231
f 151 231 316
f 151 316 230
f 153 230 232
f 153 232 154
f 155 233 234
f 155 234 156
f 156 234 235
f 156 235 162
f 157 162 236
f 157 236 237
f 157 237 158
f 158 237 238
f 158 238 159
f 159 239 240
f 159 240 160
f 159 238 241
f 159 241 242
f 159 242 239
f 160 240 163
f 160 163 161
f 162 235 236
f 163 240 243
f 163 243 244
f 163 244 165
f 163 165 164
f 165 244 245
f 165 245 246
f 166 247 169
f 167 170 171
f 167 171 168
f 169 247 170
f 170 247 248
f 170 248 249
f 170 249 250
f 170 250 251
f 170 251 252
f 170 252 171
f 171 253 254
f 171 254 172
f 171 252 253
f 172 254 255
f 172 255 256
f 172 256 173
f 173 256 257
f 173 257 174
f 174 257 258
f 176 178 177
f 181 259 260
f 181 260 182
f 182 260 261
f 182 261 183
f 183 261 262
f 183 262 184
f 184 262 185
f 185 262 186
f 186 254 253
f 186 253 263
f 186 263 187
f 186 262 254
f 187 263 189
f 189 263 190
f 190 263 264
f 190 264 191
f 191 264 265
f 191 265 192
f 192 265 266
f 192 266 267
f 192 267 196
f 193 268 195
f 193 194 269
f 193 269 268
f 194 196 270
f 194 270 269
f 195 268 271
f 195 271 272
f 195 272 273
f 195 273 274
f 195 274 197
f 196 267 275
f 196 275 270
f 197 274 276
f 197 276 277
f 197 277 198
f 198 277 276
f 198 276 278
f 198 278 199
f 199 201 200
f 199 278 279
f 199 279 280
f 199 280 281
f 199 281 201
f 201 282 203
f 201 203 202
f 201 281 283
f 201 283 284
f 201 284 282
f 203 282 285
f 203 285 205
f 205 285 206
f 206 286 287
f 206 287 288
f 206 288 209
f 206 209 207
f 206 285 286
f 209 288 210
f 210 288 287
f 210 287 290
f 210 290 289
f 212 291 292
f 212 292 213
f 212 216 291
f 213 293 294
f 213 294 214
f 213 292 295
f 213 295 296
f 213 296 293
f 214 294 297
f 214 297 217
f 215 298 216
f 216 298 299
f 216 299 300
f 216 300 301
f 216 301 291
f 217 297 302
f 217 302 303
f 217 303 218
f 218 302 304
f 218 304 305
f 218 305 219
f 218 303 302
f 219 305 221
f 219 221 306
f 219 306 220
f 220 306 221
f 221 305 307
f 221 307 226
f 221 226 225
f 221 225 222
f 226 307 227
f 227 307 308
f 227 308 229
f 228 309 231
f 228 229 309
f 229 308 310
f 229 310 311
f 229 311 312
f 229 312 313
f 229 313 314
f 229 314 315
f 229 315 231
f 229 231 309
f 231 315 317
f 231 317 318
f 231 318 319
f 231 319 316
f 233 320 234
f 234 320 321
f 234 321 235
f 235 321 322
f 235 322 323
f 235 323 236
f 236 323 324
f 236 324 325
f 236 325 237
f 237 325 326
f 237 326 327
f 237 327 238
f 238 327 328
f 238 328 241
f 239 242 329
f 239 329 240
f 240 329 243
f 241 328 330
f 241 330 242
f 242 330 331
f 242 331 329
f 243 332 333
f 243 333 244
f 243 329 332
f 244 333 245
f 245 333 246
f 246 333 334
f 247 335 248
f 248 335 249
f 249 335 336
f 249 336 337
f 249 337 250
f 250 337 338
f 250 338 339
f 250 339 340
f 250 340 251
f 251 341 252
f 251 340 342
f 251 342 341
f 252 341 342
f 252 342 343
f 252 343 253
f 253 343 264
f 253 264 263
f 254 262 255
f 255 262 344
f 255 344 256
f 256 344 260
f 256 260 259
f 256 259 257
f 257 259 345
f 257 345 258
f 260 344 262
f 260 262 261
f 264 343 342
f 264 342 265
f 265 342 340
f 265 340 266
f 266 340 267
f 267 340 339
f 267 339 338
f 267 338 275
f 268 269 271
f 269 346 271
f 269 270 347
f 269 347 348
f 269 348 346
f 270 275 349
f 270 349 347
f 271 346 272
f 272 346 350
f 272 350 273
f 273 351 274
f 273 350 352
f 273 352 351
f 274 351 419
f 274 419 353
f 274 353 354
f 274 354 355
f 274 355 356
f 274 356 357
f 274 357 358
f 274 358 359
f 274 359 276
f 275 338 349
f 276 359 360
f 276 360 278
f 278 360 279
f 279 360 361
f 279 361 362
f 279 362 363
f 279 363 280
f 280 363 364
f 280 364 281
f 281 364 365
f 281 365 283
f 282 284 283
f 282 283 366
f 282 366 285
f 283 365 369
f 283 369 367
f 283 367 366
f 285 366 286
f 286 367 290
f 286 290 287
f 286 366 367
f 289 290 367
f 289 367 369
f 289 369 368
f 291 301 292
f 292 301 300
f 292 300 295
f 293 370 371
f 293 371 372
f 293 372 294
f 293 296 373
f 293 373 370
f 294 372 374
f 294 374 375
f 294 375 297
f 295 300 373
f 295 373 296
f 297 375 302
f 298 376 377
f 298 377 299
f 299 377 373
f 299 373 300
f 302 375 378
f 302 378 379
f 302 379 304
f 304 380 307
f 304 307 305
f 304 379 381
f 304 381 382
f 304 382 380
f 307 380 308
f 308 380 310
f 310 380 311
f 311 382 383
f 311 383 384
f 311 384 312
f 311 380 382
f 312 384 313
f 313 385 318
f 313 318 315
f 313 315 314
f 313 384 385
f 315 318 386
f 315 386 317
f 317 386 318
f 318 385 319
f 319 385 387
f 321 388 322
f 322 388 389
f 322 389 390
f 322 390 323
f 323 390 324
f 324 390 391
f 324 391 325
f 325 391 392
f 325 392 326
f 326 392 327
f 327 392 393
f 327 393 394
f 327 394 328
f 328 394 395
f 328 395 396
f 328 396 330
f 329 331 397
f 329 397 398
f 329 398 332
f 330 399 331
f 330 396 400
f 330 400 399
f 331 399 397
f 332 398 401
f 332 401 402
f 332 402 403
f 332 403 404
f 332 404 405
f 332 405 333
f 333 405 406
f 333 406 334
f 335 407 408
f 335 408 336
f 336 408 409
f 336 409 410
f 336 410 403
f 336 403 402
f 336 402 411
f 336 411 337
f 337 411 338
f 338 412 349
f 338 411 412
f 346 413 414
f 346 414 352
f 346 352 350
f 346 348 415
f 346 415 416
f 346 416 417
f 346 417 413
f 347 349 348
f 348 349 418
f 348 418 415
f 349 412 418
f 351 352 419
f 352 414 419
f 353 419 420
f 353 420 354
f 354 421 477
f 354 477 422
f 354 422 355
f 354 420 423
f 354 423 421
f 355 422 424
f 355 424 425
f 355 425 426
f 355 426 356
f 356 426 427
f 356 427 357
f 357 427 358
f 358 427 360
f 358 360 359
f 360 427 428
f 360 428 361
f 361 428 362
f 362 429 430
f 362 428 431
f 362 431 429
f 363 432 369
f 363 369 364
f 364 369 365
f 368 369 432
f 370 373 433
f 370 433 434
f 370 434 371
f 371 435 436
f 371 436 437
f 371 437 438
f 371 438 372
f 371 434 439
f 371 439 435
f 372 438 440
f 372 440 441
f 372 441 374
f 373 442 433
f 373 377 442
f 374 441 375
f 375 441 443
f 375 443 378
f 376 444 445
f 376 445 446
f 376 446 447
f 376 447 442
f 376 442 377
f 378 443 448
f 378 448 400
f 378 400 396
f 378 396 379
f 379 396 449
f 379 449 381
f 381 449 450
f 381 450 382
f 382 450 451
f 382 451 452
f 382 452 383
f 383 452 390
f 383 390 389
f 383 389 384
f 384 389 453
f 384 453 454
f 384 454 387
f 384 387 385
f 388 453 389
f 390 452 392
f 390 392 391
f 392 452 451
f 392 451 450
f 392 450 393
f 393 450 449
f 393 449 394
f 394 449 395
f 395 449 396
f 397 455 398
f 397 399 456
f 397 456 455
f 398 455 457
f 398 457 401
f 399 400 458
f 399 458 459
f 399 459 456
f 400 448 458
f 401 457 460
f 401 460 402
f 402 460 461
f 402 461 462
f 402 462 463
f 402 463 468
f 402 468 411
f 403 410 464
f 403 464 404
f 404 464 465
f 404 465 405
f 405 465 466
f 405 466 406
f 407 467 409
f 407 409 408
f 409 467 410
f 410 465 464
f 411 468 469
f 411 469 412
f 412 469 418
f 413 459 470
f 413 470 471
f 413 471 414
f 413 417 472
f 413 472 456
f 413 456 459
f 414 471 419
f 415 418 416
f 416 418 473
f 416 473 457
f 416 457 417
f 417 457 472
f 418 469 468
f 418 468 473
f 419 474 423
f 419 423 420
f 419 471 474
f 421 475 501
f 421 501 476
f 421 476 477
f 421 423 475
f 422 477 476
f 422 476 478
f 422 478 424
f 423 474 479
f 423 479 480
f 423 480 481
f 423 481 475
f 424 478 503
f 424 503 482
f 424 482 483
f 424 483 484
f 424 484 431
f 424 431 485
f 424 485 425
f 425 485 431
f 425 431 426
f 426 428 427
f 426 431 428
f 429 483 430
f 429 431 483
f 430 483 486
f 431 484 483
f 433 442 439
f 433 439 434
f 435 487 436
f 435 439 488
f 435 488 487
f 436 487 437
f 437 489 490
f 437 490 438
f 437 487 491
f 437 491 492
f 437 492 489
f 438 490 493
f 438 493 440
f 439 442 447
f 439 447 488
f 440 493 470
f 440 470 443
f 440 443 441
f 443 470 459
f 443 459 458
f 443 458 448
f 444 494 495
f 444 495 496
f 444 496 445
f 445 496 497
f 445 497 498
f 445 498 446
f 446 498 488
f 446 488 447
f 455 456 472
f 455 472 457
f 457 473 499
f 457 499 468
f 457 468 463
f 457 463 462
f 457 462 461
f 457 461 460
f 468 499 473
f 470 493 479
f 470 479 471
f 471 479 474
f 475 481 500
f 475 500 501
f 476 501 502
f 476 502 503
f 476 503 478
f 479 493 490
f 479 490 504
f 479 504 505
f 479 505 506
f 479 506 480
f 480 506 507
f 480 507 481
f 481 507 508
f 481 508 500
f 482 503 509
f 482 509 483
f 483 509 510
f 483 510 511
f 483 511 486
f 487 488 498
f 487 498 491
f 489 492 512
f 489 512 504
f 489 504 490
f 491 498 513
f 491 513 492
f 492 513 514
f 492 514 512
f 494 515 516
f 494 516 495
f 495 516 496
f 496 516 513
f 496 513 497
f 497 513 498
f 500 508 520
f 500 520 517
f 500 517 530
f 500 530 518
f 500 518 501
f 501 518 502
f 502 518 521
f 502 521 509
f 502 509 503
f 504 512 519
f 504 519 505
f 505 519 507
f 505 507 506
f 507 519 520
f 507 520 508
f 509 521 510
f 510 521 522
f 512 514 519
f 513 516 514
f 514 516 523
f 514 523 520
f 514 520 519
f 515 524 525
f 515 525 526
f 515 526 527
f 515 527 516
f 516 528 529
f 516 529 523
f 516 527 528
f 517 520 528
f 517 528 525
f 517 525 530
f 518 530 531
f 518 531 521
f 520 523 529
f 520 529 528
f 521 531 532
f 521 532 522
f 524 532 533
f 524 533 525
f 525 527 526
f 525 533 531
f 525 531 530
f 525 528 527
f 531 533 532

