# https://github.com/mikedh/trimesh
v 0.20945920 -0.00479523 -0.00366121
v 0.20945920 0.28659425 -0.00306849
v 0.21381235 0.28659425 -0.00306849
v 0.23047251 -0.00479523 -0.00357656
v 0.20945920 -0.00479523 0.46266248
v 0.20945920 0.28659425 0.50127581
v 0.29630707 -0.00479523 -0.00298380
v 0.28133979 -0.00479523 -0.00315314
v 0.25500596 -0.00479523 -0.00340718
v 0.24363942 -0.00479523 -0.00349187
v 0.31917450 0.28659425 -0.00179832
v 0.33142779 -0.00479523 0.70729824
v 0.33771568 -0.00479523 0.71847579
v 0.34147765 0.28311446 0.72635087
v 0.34147765 0.28659425 0.72635087
v 0.30947400 -0.00479523 -0.00281446
v 0.33580782 0.28659425 -0.00154425
v 0.32084054 -0.00479523 -0.00264508
v 0.34209568 -0.00479523 0.72541942
v 0.34158514 0.21725519 0.72618152
v 0.34276748 0.28659425 0.72812912
v 0.34550832 0.28659425 -0.00112087
v 0.33580782 -0.00479523 -0.00230639
v 0.34284809 -0.00479523 0.72635087
v 0.34811487 0.28659425 0.73515742
v 0.34642195 0.28659425 0.73295579
v 0.34894785 0.28659425 -0.00095153
v 0.34894785 -0.00479523 -0.00145960
v 0.34749680 -0.00479523 0.73202432
v 0.35297856 0.28659425 0.74116958
v 0.35725106 0.28659425 0.00014930
v 0.35746605 -0.00479523 0.00006461
v 0.35408025 -0.00479523 0.73989941
v 0.35485954 -0.00479523 0.74083088
v 0.35448334 0.28659425 0.74294784
v 0.36383452 0.28659425 0.00328240
v 0.36404950 -0.00479523 0.00328240
v 0.36077120 -0.00479523 0.74752046
v 0.40639860 0.28659425 0.80205330
v 0.39581132 0.28659425 0.79002898
v 0.35870211 0.28659425 0.74777450
v 0.37369628 0.28659425 0.00988732
v 0.37246021 -0.00479523 0.00895583
v 0.36646791 -0.00479523 0.75387135
v 0.42069408 0.28659425 0.81797283
v 0.37380377 -0.00479523 0.00988732
v 0.39516640 0.28659425 0.02707701
v 0.40196484 -0.00479523 0.03215773
v 0.39538139 -0.00479523 0.02690767
v 0.37240644 -0.00479523 0.76047623
v 0.42663262 0.28659425 0.82457775
v 0.40003009 0.28659425 0.03122625
v 0.40852141 -0.00479523 0.03783117
v 0.43587635 -0.00479523 0.83084394
v 0.43321612 0.28659425 0.83186008
v 0.40174986 0.28659425 0.03275045
v 0.40954253 -0.00479523 0.03876261
v 0.44759221 -0.00479523 0.84371506
v 0.44614116 0.23043276 0.84532396
v 0.43920838 0.28659425 0.83846500
v 0.40897823 0.28659425 0.03935537
v 0.41177284 0.28659425 0.04697643
v 0.41249836 -0.00479523 0.04697643
v 0.45463248 -0.00479523 0.85125143
v 0.45326204 0.05926710 0.85074336
v 0.44597994 0.25675935 0.84549330
v 0.44589933 0.26993690 0.84557799
v 0.44579184 0.28659425 0.84566268
v 0.41349260 0.28659425 0.05662976
v 0.41411063 0.28659425 0.06010158
v 0.41448683 0.07244466 0.06010158
v 0.41451372 -0.00479523 0.06010158
v 0.46032919 -0.00479523 0.85717894
v 0.45992614 0.04611807 0.85760232
v 0.45234845 0.24361030 0.85201353
v 0.45234845 0.25675935 0.85209822
v 0.45229468 0.28659425 0.85218291
v 0.48220240 0.28659425 0.85015060
v 0.48225613 0.28311446 0.85015060
v 0.48341158 0.12512637 0.85015060
v 0.48397589 0.01976295 0.85015060
v 0.48376090 -0.00479523 0.85015060
v 0.46129654 -0.00479523 0.85768701
v 0.46747695 0.03294051 0.86082011
v 0.45971115 0.08562222 0.85777166
v 0.45911996 0.20410616 0.85819508
v 0.45893190 0.24361030 0.85827973
v 0.45404133 0.28659425 0.85379181
v 0.47825229 0.28659425 0.85980397
v 0.47827918 0.28311446 0.85980397
v 0.47830606 0.26993690 0.85988862
v 0.47892409 0.12512637 0.86005800
v 0.47930030 0.01976295 0.86005800
v 0.47913908 -0.00479523 0.85988862
v 0.46747695 -0.00479523 0.86039669
v 0.47919280 0.00658540 0.85997331
v 0.46747695 0.05926710 0.86098945
v 0.46747695 0.08562222 0.86107414
v 0.46747695 0.20410616 0.86132817
v 0.46747695 0.25675935 0.86141283
v 0.45887814 0.28659425 0.85819508
v 0.46747695 0.28659425 0.86124348
f 1 2 3
f 1 3 4
f 1 4 10
f 1 10 9
f 1 9 8
f 1 8 7
f 1 7 16
f 1 16 18
f 1 18 23
f 1 23 28
f 1 28 32
f 1 32 37
f 1 37 43
f 1 43 46
f 1 46 49
f 1 49 48
f 1 48 53
f 1 53 57
f 1 57 63
f 1 63 72
f 1 72 82
f 1 82 94
f 1 94 95
f 1 95 83
f 1 83 73
f 1 73 64
f 1 64 58
f 1 58 54
f 1 54 50
f 1 50 44
f 1 44 38
f 1 38 34
f 1 34 33
f 1 33 29
f 1 29 24
f 1 24 19
f 1 19 13
f 1 13 12
f 1 12 5
f 1 5 6
f 1 6 2
f 2 6 15
f 2 15 21
f 2 21 26
f 2 26 25
f 2 25 30
f 2 30 35
f 2 35 41
f 2 41 40
f 2 40 39
f 2 39 45
f 2 45 51
f 2 51 55
f 2 55 60
f 2 60 68
f 2 68 77
f 2 77 88
f 2 88 101
f 2 101 102
f 2 102 89
f 2 89 78
f 2 78 70
f 2 70 69
f 2 69 62
f 2 62 61
f 2 61 56
f 2 56 52
f 2 52 47
f 2 47 42
f 2 42 36
f 2 36 31
f 2 31 27
f 2 27 22
f 2 22 17
f 2 17 11
f 2 11 3
f 3 7 8
f 3 8 9
f 3 9 10
f 3 10 4
f 3 11 7
f 5 12 6
f 6 12 13
f 6 13 14
f 6 14 15
f 7 11 16
f 11 17 18
f 11 18 16
f 13 19 20
f 13 20 14
f 14 20 21
f 14 21 15
f 17 22 23
f 17 23 18
f 19 24 25
f 19 25 26
f 19 26 20
f 20 26 21
f 22 27 23
f 23 27 28
f 24 29 30
f 24 30 25
f 27 31 28
f 28 31 32
f 29 33 30
f 30 33 34
f 30 34 35
f 31 36 32
f 32 36 37
f 34 38 39
f 34 39 40
f 34 40 41
f 34 41 35
f 36 42 37
f 37 42 43
f 38 44 39
f 39 44 45
f 42 46 43
f 42 47 48
f 42 48 49
f 42 49 46
f 44 50 51
f 44 51 45
f 47 52 48
f 48 52 53
f 50 54 51
f 51 54 55
f 52 56 53
f 53 56 57
f 54 58 59
f 54 59 60
f 54 60 55
f 56 61 57
f 57 61 62
f 57 62 63
f 58 64 65
f 58 65 59
f 59 66 60
f 59 65 66
f 60 66 67
f 60 67 68
f 62 69 63
f 63 69 70
f 63 70 71
f 63 71 72
f 64 73 74
f 64 74 65
f 65 74 67
f 65 67 66
f 67 74 75
f 67 75 68
f 68 75 76
f 68 76 77
f 70 78 79
f 70 79 80
f 70 80 81
f 70 81 71
f 71 81 72
f 72 81 82
f 73 83 74
f 74 83 84
f 74 84 85
f 74 85 75
f 75 85 86
f 75 86 87
f 75 87 76
f 76 87 77
f 77 87 88
f 78 89 79
f 79 89 90
f 79 90 80
f 80 90 81
f 81 90 91
f 81 91 92
f 81 92 93
f 81 93 82
f 82 93 94
f 83 95 84
f 84 95 94
f 84 94 96
f 84 96 93
f 84 93 97
f 84 97 85
f 85 97 86
f 86 97 87
f 87 97 98
f 87 98 99
f 87 99 100
f 87 100 101
f 87 101 88
f 89 102 100
f 89 100 91
f 89 91 90
f 91 100 92
f 92 100 93
f 93 100 99
f 93 99 98
f 93 98 97
f 93 96 94
f 100 102 101

