# https://github.com/mikedh/trimesh
v 0.24361191 -0.50669676 -0.00578955
v 0.25964415 -0.50669676 -0.00578955
v 0.19065753 -0.50669676 -0.00571644
v 0.25964415 -0.41481865 -0.00659369
v 0.25964415 -0.50669676 0.73979415
v 0.19063051 -0.50669676 0.00532220
v 0.19063051 -0.50666077 -0.00571644
v 0.19063051 -0.33581174 -0.00688610
v 0.24361191 -0.38848303 -0.00673992
v 0.25964415 -0.40450012 -0.00666680
v 0.25964415 -0.32306637 0.56924343
v 0.19094804 -0.50669676 0.73650446
v 0.19063051 -0.50669676 0.73643139
v 0.19063051 -0.32306637 -0.00695922
v 0.24361191 -0.37530619 -0.00681303
v 0.25964415 -0.36500567 -0.00688610
v 0.25964415 -0.39134129 -0.00673992
v 0.19063051 -0.32306637 0.51785158
v 0.19063051 -0.36985932 0.57874690
v 0.19063051 -0.38170586 0.59387934
v 0.19063051 -0.38717071 0.60053177
v 0.19063051 -0.39358835 0.60828075
v 0.19063051 -0.39923299 0.61507938
v 0.19063051 -0.40566860 0.62275527
v 0.19063051 -0.41780274 0.63708358
v 0.19063051 -0.42344737 0.64366289
v 0.19063051 -0.43586917 0.65806431
v 0.19063051 -0.44814713 0.67224642
v 0.19063051 -0.46615964 0.69300783
v 0.19063051 -0.47257729 0.70039130
v 0.19063051 -0.47847356 0.70697063
v 0.19063051 -0.48505301 0.71428099
v 0.19063051 -0.49107514 0.72086032
v 0.19063051 -0.49765455 0.72780514
v 0.19063051 -0.50452159 0.73445759
v 0.25964415 -0.32306637 -0.00695922
v 0.21770223 -0.32306637 -0.00703233
v 0.25964415 -0.33867001 -0.00695922
f 1 2 5
f 1 5 12
f 1 12 13
f 1 13 6
f 1 6 3
f 1 3 4
f 1 4 2
f 2 4 10
f 2 10 17
f 2 17 16
f 2 16 38
f 2 38 36
f 2 36 11
f 2 11 5
f 3 6 7
f 3 7 8
f 3 8 9
f 3 9 4
f 4 9 10
f 5 11 12
f 6 13 35
f 6 35 34
f 6 34 33
f 6 33 32
f 6 32 31
f 6 31 30
f 6 30 29
f 6 29 28
f 6 28 27
f 6 27 26
f 6 26 25
f 6 25 24
f 6 24 23
f 6 23 22
f 6 22 21
f 6 21 20
f 6 20 19
f 6 19 18
f 6 18 14
f 6 14 8
f 6 8 7
f 8 14 9
f 9 14 15
f 9 15 16
f 9 16 17
f 9 17 10
f 11 18 19
f 11 19 20
f 11 20 21
f 11 21 22
f 11 22 23
f 11 23 24
f 11 24 25
f 11 25 26
f 11 26 27
f 11 27 28
f 11 28 29
f 11 29 30
f 11 30 31
f 11 31 32
f 11 32 33
f 11 33 34
f 11 34 35
f 11 35 12
f 11 36 37
f 11 37 14
f 11 14 18
f 12 35 13
f 14 37 15
f 15 37 16
f 16 37 38
f 36 38 37

