# https://github.com/mikedh/trimesh
v -0.20704503 0.37107494 0.58889580
v -0.30878427 0.37107494 0.66489442
v -0.30878427 0.28691675 0.65233697
v -0.30878427 0.28660251 0.65227157
v -0.20704503 0.28660251 0.49752739
v -0.20704503 0.37107494 -0.00267702
v -0.30878427 0.37107494 -0.00195758
v -0.30878427 0.28660251 -0.00215380
v -0.20704503 0.28660251 -0.00313486
v -0.20704503 0.36212739 -0.00280779
v -0.21399629 0.37107494 -0.00267702
v -0.27888791 0.37107494 -0.00221919
v -0.30878427 0.36212739 -0.00202296
v -0.30878427 0.33578918 -0.00215380
v -0.23392387 0.28660251 -0.00293863
v -0.20974388 0.28660251 -0.00313486
v -0.20704503 0.29922996 -0.00313486
v -0.20704503 0.35189806 -0.00287325
v -0.21728268 0.36212739 -0.00274240
v -0.24362376 0.37107494 -0.00248080
v -0.25256677 0.37107494 -0.00241541
v -0.23045821 0.34896241 -0.00274240
v -0.26994490 0.36212739 -0.00234995
v -0.30878427 0.34896241 -0.00208834
v -0.26994490 0.34896241 -0.00241541
v -0.23045821 0.32263249 -0.00287325
v -0.21728268 0.29629430 -0.00306939
v -0.22075831 0.28660251 -0.00306939
v -0.20704503 0.32556815 -0.00300401
f 1 2 3
f 1 3 4
f 1 4 5
f 1 5 9
f 1 9 17
f 1 17 29
f 1 29 18
f 1 18 10
f 1 10 6
f 1 6 11
f 1 11 20
f 1 20 21
f 1 21 12
f 1 12 7
f 1 7 2
f 2 7 13
f 2 13 24
f 2 24 14
f 2 14 8
f 2 8 4
f 2 4 3
f 4 8 15
f 4 15 28
f 4 28 16
f 4 16 9
f 4 9 5
f 6 10 11
f 7 12 13
f 8 14 15
f 9 16 17
f 10 18 19
f 10 19 11
f 11 19 20
f 12 21 22
f 12 22 23
f 12 23 13
f 13 23 25
f 13 25 24
f 14 24 25
f 14 25 26
f 14 26 27
f 14 27 28
f 14 28 15
f 16 28 17
f 17 28 27
f 17 27 26
f 17 26 29
f 18 22 19
f 18 29 26
f 18 26 22
f 19 22 21
f 19 21 20
f 22 26 25
f 22 25 23

