# https://github.com/mikedh/trimesh
v 0.30762575 0.28659425 -0.00184871
v 0.30762575 0.29629491 -0.00193333
v 0.30947173 0.28659425 -0.00184871
v 0.30762575 0.28659425 0.65964058
v 0.32263292 0.28659425 -0.00176418
v 0.30762575 0.41479208 -0.00244061
v 0.33124753 0.28659425 0.70775350
v 0.30762575 0.50437921 0.74960921
v 0.33234145 0.28659425 -0.00159503
v 0.32263292 0.41479208 -0.00227154
v 0.33581119 0.40163758 -0.00201786
v 0.30762575 0.44114376 -0.00252522
v 0.33690511 0.28659425 0.71849225
v 0.30762575 0.50437921 -0.00134143
v 0.34145171 0.28659425 0.72635604
v 0.34275076 0.28659425 0.72813174
v 0.34640853 0.28659425 0.73295148
v 0.34815195 0.28659425 0.73514997
v 0.35298912 0.28659425 0.74123808
v 0.36047564 0.28659425 0.74977833
v 0.39582282 0.28659425 0.79002747
v 0.39753206 0.28659425 0.79197226
v 0.40640304 0.28659425 0.80203456
v 0.43322110 0.28659425 0.83188318
v 0.44580118 0.28659425 0.84566596
v 0.45231336 0.28659425 0.85226138
v 0.45889399 0.28659425 0.85818038
v 0.44810864 0.50211928 0.85657380
v 0.44371588 0.50437921 0.85276875
v 0.33581119 0.28659425 -0.00151050
v 0.32263292 0.44114376 -0.00227154
v 0.33581119 0.42796794 -0.00201786
v 0.34897241 0.40163758 -0.00142596
v 0.34897241 0.32264656 -0.00108775
v 0.34550263 0.28659425 -0.00108775
v 0.30947173 0.45429826 -0.00244061
v 0.30762575 0.45615311 -0.00244061
v 0.31259964 0.50437921 -0.00091860
v 0.32263292 0.48064994 -0.00151050
v 0.30947173 0.49380445 -0.00176418
v 0.30762575 0.49565929 -0.00176418
v 0.46118438 0.28659425 0.85902595
v 0.45880851 0.29629491 0.85826495
v 0.45063834 0.50437921 0.85750391
v 0.33581119 0.44114376 -0.00193333
v 0.34897241 0.41479208 -0.00142596
v 0.35801430 0.40163758 -0.00007303
v 0.35507441 0.28659425 -0.00015756
v 0.34897241 0.28659425 -0.00091860
v 0.30947173 0.46747408 -0.00227154
v 0.30762575 0.46932897 -0.00227154
v 0.32391487 0.49506233 -0.00041124
v 0.33581119 0.46747408 -0.00117228
v 0.32328245 0.50437921 0.00043434
v 0.33581119 0.45429826 -0.00167964
v 0.30762575 0.49380445 -0.00184871
v 0.46747440 0.28659425 0.86122443
v 0.45362949 0.50437921 0.85851859
v 0.34897241 0.42796794 -0.00117228
v 0.30762575 0.48064994 -0.00210239
v 0.35780921 0.41479208 0.00001151
v 0.35750152 0.32264656 0.00009604
v 0.36459489 0.40163758 0.00280192
v 0.35726225 0.28659425 0.00018065
v 0.33155517 0.49152320 0.00026519
v 0.33589667 0.48043672 -0.00015756
v 0.34526335 0.46747408 0.00001151
v 0.34897241 0.44114376 -0.00074946
v 0.32731627 0.50437921 0.00178719
v 0.32914515 0.50030706 0.00085708
v 0.47825975 0.28659425 0.85978696
v 0.46747440 0.29629491 0.86130900
v 0.46747440 0.30947075 0.86122443
v 0.45545839 0.49380445 0.85877227
v 0.46292780 0.50437921 0.85868774
v 0.35722806 0.42796794 0.00018065
v 0.36440687 0.41479208 0.00297099
v 0.37423503 0.41479208 0.00956645
v 0.37440599 0.40163758 0.00939738
v 0.37428633 0.33580107 0.00956645
v 0.36409923 0.32264656 0.00305560
v 0.36385995 0.28659425 0.00330928
v 0.34338316 0.47591685 0.00051887
v 0.34934842 0.45321094 -0.00007303
v 0.35399760 0.45687801 0.00127991
v 0.35563848 0.44811542 0.00085708
v 0.35630506 0.44114376 0.00051887
v 0.33659747 0.50437921 0.00694519
v 0.33589667 0.49506233 0.00263277
v 0.34825450 0.48043672 0.00415478
v 0.34034071 0.48470075 0.00144898
v 0.34529754 0.50437921 0.01184950
v 0.34950226 0.49395370 0.00982013
v 0.47817428 0.29629491 0.85970242
v 0.46747440 0.33580107 0.86097075
v 0.48222516 0.28659425 0.85014748
v 0.46747440 0.36215274 0.86063253
v 0.46747440 0.42796794 0.85978696
v 0.46494469 0.50437921 0.85868774
v 0.36380865 0.42796794 0.00347835
v 0.37370519 0.42796794 0.01007381
v 0.38030289 0.42796794 0.01531634
v 0.38972082 0.42822378 0.02284191
v 0.38081566 0.41479208 0.01489359
v 0.38098658 0.40163758 0.01480897
v 0.39570316 0.33580107 0.02664696
v 0.37418378 0.32264656 0.00965098
v 0.37109004 0.28659425 0.00812898
v 0.35184394 0.46747408 0.00237909
v 0.36317622 0.46809239 0.00939738
v 0.36086876 0.45321094 0.00474667
v 0.36288565 0.44114376 0.00415478
v 0.35970648 0.48064994 0.01108845
v 0.34543427 0.50437921 0.01193403
v 0.35423688 0.49843090 0.01489359
v 0.35715970 0.48966832 0.01294875
v 0.47492670 0.44114376 0.85758848
v 0.47766150 0.30947075 0.85961785
v 0.48207136 0.29629491 0.85014748
v 0.41411173 0.28659425 0.06013156
v 0.41419720 0.30947075 0.06013156
v 0.41421432 0.32264656 0.06013156
v 0.41418013 0.33580107 0.06013156
v 0.41520565 0.37530725 0.07332241
v 0.43527221 0.41479208 0.31033566
v 0.43624647 0.42796794 0.32352657
v 0.43734039 0.42796794 0.33663288
v 0.46747440 0.45429826 0.85936417
v 0.46576515 0.49380445 0.85877227
v 0.47465324 0.45429826 0.85733480
v 0.47434556 0.46461719 0.85699659
v 0.47391826 0.47337977 0.85640469
v 0.47335418 0.48064994 0.85479811
v 0.47104673 0.50437921 0.85014748
v 0.37281636 0.44114376 0.01075024
v 0.39491692 0.43278626 0.02732339
v 0.39522460 0.42400237 0.02706979
v 0.39537840 0.41479208 0.02690064
v 0.40228379 0.33580107 0.03290421
v 0.40218120 0.32264656 0.03281960
v 0.40898400 0.28659425 0.03933053
v 0.40712095 0.28659425 0.03763938
v 0.39560061 0.32264656 0.02673150
v 0.37384192 0.29629491 0.00982013
v 0.37372226 0.28659425 0.00990466
v 0.36825270 0.47291071 0.01438623
v 0.36996194 0.46412686 0.01311782
v 0.37141480 0.45429826 0.01193403
v 0.37201305 0.49380445 0.02487128
v 0.38100365 0.48534036 0.02791529
v 0.36628706 0.48064994 0.01573909
v 0.36206523 0.50437921 0.02284191
v 0.36962008 0.50171419 0.02656243
v 0.47675560 0.42796794 0.83695659
v 0.47631119 0.44114376 0.83695659
v 0.47583259 0.45429826 0.83695659
v 0.47660176 0.44114376 0.85014748
v 0.43819503 0.44114376 0.34982377
v 0.43776769 0.45429826 0.34982377
v 0.41349640 0.28659425 0.05666472
v 0.41177009 0.28659425 0.04694064
v 0.41178716 0.30947075 0.04694064
v 0.41407755 0.36215274 0.06013156
v 0.41512021 0.38848307 0.07332241
v 0.43503293 0.42758416 0.30932098
v 0.43708400 0.44114376 0.33663288
v 0.47603769 0.45429826 0.85014748
v 0.47508054 0.46839085 0.85124670
v 0.47470449 0.48064994 0.84820265
v 0.47434556 0.49005210 0.84575049
v 0.47258502 0.49418818 0.85014748
v 0.47193551 0.50437921 0.83966239
v 0.37799539 0.45429826 0.01700749
v 0.38645617 0.45429826 0.02360295
v 0.38772101 0.44114376 0.02258823
v 0.39431867 0.44114376 0.02783075
v 0.40047196 0.44114376 0.03442622
v 0.40018138 0.42822378 0.03256600
v 0.40192481 0.41479208 0.03374979
v 0.40886438 0.33580107 0.03941506
v 0.40898400 0.29629491 0.03933053
v 0.41103510 0.28659425 0.04491127
v 0.40177101 0.28659425 0.03281960
v 0.39517331 0.28659425 0.02706979
v 0.40002758 0.28659425 0.03129759
v 0.37609812 0.48082050 0.02275738
v 0.38295221 0.47655647 0.02630875
v 0.37473074 0.46809239 0.01776845
v 0.38461016 0.46747408 0.02504042
v 0.37859364 0.49380445 0.02994466
v 0.38553317 0.49380445 0.03645559
v 0.38857561 0.48084181 0.03358064
v 0.36538117 0.50437921 0.02504042
v 0.36866293 0.50437921 0.02723886
v 0.37555116 0.50437921 0.03324243
v 0.47470449 0.48064994 0.83864771
v 0.47434556 0.49005210 0.84135354
v 0.43662252 0.45429826 0.33663288
v 0.43693016 0.46747408 0.34982377
v 0.40896692 0.30947075 0.03941506
v 0.40891563 0.32264656 0.03941506
v 0.41171879 0.32264656 0.04694064
v 0.41399211 0.37530725 0.06013156
v 0.41388956 0.38848307 0.06013156
v 0.41493219 0.40163758 0.07332241
v 0.43450304 0.43172025 0.30424756
v 0.43593883 0.44114376 0.32352657
v 0.47208935 0.50437921 0.83695659
v 0.39303676 0.45429826 0.02901455
v 0.39920712 0.45429826 0.03552548
v 0.40790719 0.42796794 0.04119075
v 0.40818065 0.41479208 0.04042979
v 0.41158206 0.33580107 0.04694064
v 0.39120786 0.46747408 0.03087485
v 0.38320860 0.50248171 0.03890770
v 0.39419905 0.48514845 0.04220547
v 0.39590829 0.47636460 0.03924600
v 0.37927733 0.50437921 0.03654012
v 0.43496453 0.47670572 0.33950782
v 0.43532350 0.48090578 0.35058479
v 0.43446886 0.45967093 0.31760757
v 0.41457325 0.41479208 0.07332241
v 0.41385538 0.42796794 0.07332241
v 0.43551149 0.46832692 0.33578730
v 0.41368443 0.40163758 0.06013156
v 0.41139404 0.34897693 0.04694064
v 0.41043685 0.41479208 0.04702517
v 0.44764715 0.49996594 0.54159902
v 0.44612593 0.50437921 0.53686383
v 0.43426377 0.48548957 0.34669516
v 0.43462270 0.48747236 0.35548908
v 0.39744658 0.46747408 0.03747023
v 0.40705254 0.44114376 0.04364294
v 0.40920620 0.44114376 0.05015380
v 0.41002666 0.42796794 0.04778621
v 0.38257616 0.50437921 0.03983789
v 0.38399483 0.50437921 0.04254369
v 0.39204539 0.49376179 0.04677157
v 0.39599373 0.48932720 0.05099937
v 0.39765172 0.48071391 0.04677157
v 0.40221538 0.46747408 0.04694064
v 0.43446886 0.47329449 0.33071389
v 0.41250507 0.44114376 0.07332241
v 0.41040267 0.45429826 0.07332241
v 0.41332549 0.41479208 0.06013156
v 0.41255633 0.42796794 0.06013156
v 0.44503201 0.50437921 0.52477218
v 0.40830031 0.46118465 0.06613505
v 0.40811228 0.47369958 0.09386977
v 0.43255452 0.49265315 0.35058479
v 0.43299889 0.49499836 0.36301466
v 0.44106656 0.50437921 0.48139445
v 0.44228010 0.50437921 0.49458534
v 0.40594155 0.45395715 0.04761707
v 0.40852251 0.44933069 0.05252138
v 0.41103510 0.44114376 0.06013156
v 0.38637070 0.50437921 0.04727885
v 0.38760135 0.50437921 0.05108391
v 0.39395973 0.49813240 0.06013156
v 0.39701928 0.49154451 0.06013156
v 0.40132660 0.48064994 0.06013156
v 0.40606121 0.46632282 0.06106167
v 0.40766791 0.45811458 0.05734115
v 0.40900111 0.45395715 0.06106167
v 0.40686456 0.46924369 0.07332241
v 0.40320675 0.48064994 0.07332241
v 0.40864217 0.47534121 0.10266370
v 0.43052052 0.49380445 0.33663288
v 0.43084528 0.50437921 0.37612101
v 0.39038740 0.50437921 0.06013156
v 0.39469471 0.49964617 0.06943282
v 0.39751499 0.49467855 0.07366063
v 0.40653981 0.48009560 0.09877408
v 0.40823194 0.48728049 0.13234321
v 0.42308529 0.50414468 0.31033566
v 0.42934113 0.50437921 0.36301466
v 0.39095147 0.50437921 0.06342926
v 0.39238726 0.50437921 0.07264598
v 0.39525878 0.50077611 0.07822672
v 0.40795848 0.49979538 0.17428349
v 0.40744570 0.49855884 0.16548952
v 0.40583901 0.49484911 0.13910774
v 0.40124112 0.49380445 0.09961965
v 0.40532623 0.49252521 0.12718522
v 0.42301693 0.50437921 0.31067389
v 0.39488274 0.50437921 0.09065661
v 0.39580574 0.50175685 0.08642873
v 0.40293329 0.49380445 0.11281054
v 0.39667746 0.50333454 0.09961965
v 0.39725860 0.50437921 0.10841355
f 1 2 3
f 1 3 5
f 1 5 9
f 1 9 30
f 1 30 35
f 1 35 49
f 1 49 48
f 1 48 64
f 1 64 82
f 1 82 108
f 1 108 145
f 1 145 184
f 1 184 185
f 1 185 183
f 1 183 142
f 1 142 141
f 1 141 182
f 1 182 161
f 1 161 160
f 1 160 120
f 1 120 96
f 1 96 71
f 1 71 57
f 1 57 42
f 1 42 27
f 1 27 26
f 1 26 25
f 1 25 24
f 1 24 23
f 1 23 22
f 1 22 21
f 1 21 20
f 1 20 19
f 1 19 18
f 1 18 17
f 1 17 16
f 1 16 15
f 1 15 13
f 1 13 7
f 1 7 4
f 1 4 8
f 1 8 14
f 1 14 41
f 1 41 56
f 1 56 60
f 1 60 51
f 1 51 37
f 1 37 12
f 1 12 6
f 1 6 2
f 2 5 3
f 2 6 5
f 4 7 8
f 5 6 10
f 5 10 11
f 5 11 9
f 6 12 10
f 7 13 8
f 8 13 15
f 8 15 16
f 8 16 17
f 8 17 18
f 8 18 19
f 8 19 20
f 8 20 21
f 8 21 22
f 8 22 23
f 8 23 24
f 8 24 25
f 8 25 26
f 8 26 27
f 8 27 28
f 8 28 29
f 8 29 44
f 8 44 58
f 8 58 75
f 8 75 99
f 8 99 134
f 8 134 172
f 8 172 208
f 8 208 229
f 8 229 247
f 8 247 253
f 8 253 252
f 8 252 269
f 8 269 276
f 8 276 285
f 8 285 290
f 8 290 286
f 8 286 278
f 8 278 277
f 8 277 270
f 8 270 258
f 8 258 257
f 8 257 237
f 8 237 236
f 8 236 218
f 8 218 195
f 8 195 194
f 8 194 193
f 8 193 152
f 8 152 114
f 8 114 92
f 8 92 88
f 8 88 69
f 8 69 54
f 8 54 38
f 8 38 14
f 9 11 30
f 10 12 31
f 10 31 32
f 10 32 11
f 11 32 46
f 11 46 33
f 11 33 34
f 11 34 35
f 11 35 30
f 12 36 31
f 12 37 36
f 14 38 39
f 14 39 40
f 14 40 41
f 27 42 43
f 27 43 28
f 28 43 42
f 28 42 44
f 28 44 29
f 31 36 45
f 31 45 32
f 32 45 46
f 33 46 47
f 33 47 48
f 33 48 34
f 34 49 35
f 34 48 49
f 36 37 51
f 36 51 50
f 36 50 45
f 38 52 53
f 38 53 39
f 38 54 52
f 39 53 55
f 39 55 40
f 40 55 56
f 40 56 41
f 42 57 44
f 44 57 58
f 45 55 59
f 45 59 46
f 45 50 60
f 45 60 56
f 45 56 55
f 46 59 61
f 46 61 47
f 47 62 48
f 47 61 63
f 47 63 62
f 48 62 64
f 50 51 60
f 52 65 66
f 52 66 53
f 52 54 65
f 53 66 67
f 53 67 68
f 53 68 55
f 54 69 70
f 54 70 65
f 55 68 59
f 57 71 72
f 57 72 58
f 58 72 73
f 58 73 74
f 58 74 75
f 59 68 76
f 59 76 61
f 61 76 77
f 61 77 63
f 62 63 64
f 63 77 78
f 63 78 79
f 63 79 80
f 63 80 81
f 63 81 64
f 64 81 82
f 65 70 83
f 65 83 66
f 66 83 67
f 67 84 68
f 67 83 85
f 67 85 86
f 67 86 87
f 67 87 84
f 68 84 87
f 68 87 76
f 69 88 70
f 70 89 90
f 70 90 91
f 70 91 83
f 70 88 92
f 70 92 93
f 70 93 89
f 71 94 95
f 71 95 73
f 71 73 72
f 71 96 94
f 73 95 74
f 74 95 97
f 74 97 98
f 74 98 75
f 75 98 99
f 76 87 77
f 77 87 100
f 77 100 101
f 77 101 78
f 78 101 102
f 78 102 103
f 78 103 104
f 78 104 79
f 79 104 105
f 79 105 106
f 79 106 80
f 80 82 81
f 80 106 143
f 80 143 107
f 80 107 82
f 82 107 108
f 83 91 90
f 83 90 109
f 83 109 85
f 85 109 110
f 85 110 111
f 85 111 86
f 86 111 112
f 86 112 87
f 87 112 100
f 89 93 90
f 90 93 113
f 90 113 109
f 92 114 93
f 93 114 115
f 93 115 116
f 93 116 113
f 94 117 118
f 94 118 98
f 94 98 97
f 94 97 95
f 94 96 119
f 94 119 117
f 96 120 121
f 96 121 122
f 96 122 123
f 96 123 124
f 96 124 125
f 96 125 126
f 96 126 127
f 96 127 119
f 98 118 128
f 98 128 99
f 99 128 129
f 99 129 130
f 99 130 131
f 99 131 132
f 99 132 133
f 99 133 134
f 100 112 135
f 100 135 101
f 101 135 136
f 101 136 102
f 102 136 103
f 103 137 104
f 103 136 137
f 104 137 138
f 104 138 105
f 105 138 106
f 106 138 139
f 106 139 140
f 106 140 141
f 106 141 142
f 106 142 143
f 107 143 144
f 107 144 108
f 108 144 145
f 109 113 110
f 110 113 146
f 110 146 147
f 110 147 148
f 110 148 111
f 111 148 135
f 111 135 112
f 113 116 149
f 113 149 150
f 113 150 151
f 113 151 146
f 114 152 115
f 115 152 153
f 115 153 116
f 116 153 149
f 117 130 128
f 117 128 118
f 117 119 130
f 119 154 155
f 119 155 156
f 119 156 157
f 119 157 131
f 119 131 130
f 119 127 158
f 119 158 159
f 119 159 154
f 120 160 121
f 121 160 161
f 121 161 122
f 122 161 162
f 122 162 123
f 123 163 124
f 123 162 163
f 124 163 164
f 124 164 125
f 125 164 165
f 125 165 126
f 126 165 166
f 126 166 158
f 126 158 127
f 128 130 129
f 131 157 167
f 131 167 168
f 131 168 132
f 132 168 169
f 132 169 170
f 132 170 133
f 133 170 171
f 133 171 134
f 134 171 170
f 134 170 172
f 135 148 173
f 135 173 174
f 135 174 175
f 135 175 136
f 136 176 177
f 136 177 178
f 136 178 137
f 136 175 176
f 137 178 179
f 137 179 138
f 138 179 180
f 138 180 139
f 139 180 181
f 139 181 141
f 139 141 140
f 141 181 162
f 141 162 182
f 142 183 143
f 143 184 145
f 143 145 144
f 143 183 185
f 143 185 184
f 146 151 186
f 146 186 187
f 146 187 188
f 146 188 147
f 147 188 189
f 147 189 148
f 148 189 173
f 149 153 150
f 150 190 191
f 150 191 192
f 150 192 187
f 150 187 186
f 150 186 151
f 150 153 190
f 152 193 153
f 153 193 194
f 153 194 195
f 153 195 190
f 154 159 155
f 155 159 156
f 156 196 197
f 156 197 167
f 156 167 157
f 156 159 196
f 158 166 159
f 159 166 198
f 159 198 199
f 159 199 197
f 159 197 196
f 161 182 162
f 162 181 200
f 162 200 201
f 162 201 180
f 162 180 202
f 162 202 163
f 163 203 164
f 163 202 203
f 164 203 204
f 164 204 205
f 164 205 165
f 165 206 166
f 165 205 206
f 166 206 207
f 166 207 198
f 167 197 170
f 167 170 169
f 167 169 168
f 170 197 208
f 170 208 172
f 173 189 174
f 174 189 209
f 174 209 176
f 174 176 175
f 176 209 210
f 176 210 177
f 177 210 211
f 177 211 178
f 178 211 212
f 178 212 179
f 179 212 180
f 180 212 213
f 180 213 202
f 180 201 181
f 181 201 200
f 187 189 188
f 187 192 214
f 187 214 189
f 189 214 209
f 190 195 215
f 190 215 191
f 191 215 216
f 191 216 217
f 191 217 192
f 192 217 214
f 195 218 215
f 197 199 219
f 197 219 220
f 197 220 208
f 198 221 199
f 198 207 222
f 198 222 223
f 198 223 221
f 199 221 223
f 199 223 224
f 199 224 219
f 202 213 204
f 202 204 203
f 204 225 205
f 204 213 226
f 204 226 227
f 204 227 225
f 205 225 245
f 205 245 222
f 205 222 206
f 206 222 207
f 208 228 229
f 208 220 230
f 208 230 231
f 208 231 228
f 209 214 210
f 210 214 232
f 210 232 233
f 210 233 211
f 211 233 234
f 211 234 235
f 211 235 227
f 211 227 212
f 212 227 226
f 212 226 213
f 214 217 232
f 215 218 236
f 215 236 237
f 215 237 238
f 215 238 216
f 216 238 239
f 216 239 240
f 216 240 241
f 216 241 217
f 217 241 232
f 219 224 242
f 219 242 243
f 219 243 244
f 219 244 230
f 219 230 220
f 222 245 223
f 223 245 246
f 223 246 243
f 223 243 224
f 224 243 242
f 225 227 245
f 227 235 245
f 228 231 229
f 229 231 247
f 230 244 248
f 230 248 249
f 230 249 250
f 230 250 231
f 231 250 251
f 231 251 252
f 231 252 253
f 231 253 247
f 232 241 254
f 232 254 233
f 233 254 255
f 233 255 234
f 234 255 256
f 234 256 246
f 234 246 235
f 235 246 245
f 237 257 238
f 238 257 239
f 239 241 240
f 239 257 258
f 239 258 259
f 239 259 260
f 239 260 261
f 239 261 241
f 241 261 262
f 241 262 263
f 241 263 254
f 243 246 256
f 243 256 244
f 244 256 264
f 244 264 248
f 248 264 263
f 248 263 262
f 248 262 265
f 248 265 249
f 249 265 266
f 249 266 267
f 249 267 250
f 250 267 268
f 250 268 269
f 250 269 251
f 251 269 252
f 254 263 255
f 255 263 264
f 255 264 256
f 258 270 259
f 259 270 271
f 259 271 260
f 260 271 272
f 260 272 266
f 260 266 261
f 261 266 262
f 262 266 265
f 266 273 267
f 266 272 274
f 266 274 273
f 267 273 274
f 267 274 268
f 268 275 276
f 268 276 269
f 268 274 275
f 270 277 271
f 271 277 278
f 271 278 279
f 271 279 280
f 271 280 281
f 271 281 282
f 271 282 272
f 272 283 274
f 272 282 283
f 274 283 284
f 274 284 282
f 274 282 275
f 275 285 276
f 275 282 281
f 275 281 285
f 278 286 279
f 279 286 287
f 279 287 285
f 279 285 280
f 280 285 281
f 282 284 288
f 282 288 283
f 283 288 284
f 285 287 289
f 285 289 290
f 286 290 289
f 286 289 287

