# https://github.com/mikedh/trimesh
v 0.45497148 -0.24701103 0.55460300
v 0.45471273 -0.00481894 0.55460300
v 0.25875489 -0.24701103 0.55460300
v 0.45168524 -0.24701103 0.51115937
v 0.45142650 -0.24359688 0.50774987
v 0.26051445 -0.00481894 0.55460300
v 0.45041735 -0.24359688 0.49460680
v 0.45106423 -0.00481894 0.50774987
v 0.19062376 -0.24701103 0.45864207
v 0.45142650 -0.24701103 0.50774987
v 0.19096015 -0.00481894 0.45506760
v 0.19062376 -0.00484265 0.45501259
v 0.45041735 -0.24701103 0.49460680
v 0.44793325 -0.24701103 0.46293144
v 0.44407776 -0.17775570 0.41558339
v 0.43675485 -0.15141451 0.32341688
v 0.44689820 -0.00481894 0.45512258
v 0.19062376 -0.24701103 -0.00719469
v 0.19062376 -0.00481894 0.44335431
v 0.44738986 -0.24701103 0.45611244
v 0.43574570 -0.17775570 0.31027381
v 0.43489181 -0.17775570 0.29960536
v 0.43484008 -0.12512072 0.30021029
v 0.43667723 -0.11193826 0.32341688
v 0.44570793 -0.00481894 0.44016478
v 0.19062376 -0.21694745 -0.00702970
v 0.20413096 -0.23043813 -0.00708468
v 0.20413096 -0.24359688 -0.00713967
v 0.20752068 -0.24701103 -0.00713967
v 0.19062376 -0.00481894 -0.00362020
v 0.43680662 -0.24701103 0.32341688
v 0.43574570 -0.24701103 0.31027381
v 0.41426875 -0.17775570 0.04691740
v 0.43142446 -0.15141451 0.25764652
v 0.43641848 -0.00659715 0.32341688
v 0.43626323 -0.00481894 0.32160214
v 0.19062376 -0.19060624 -0.00680973
v 0.20413096 -0.19093817 -0.00680973
v 0.21730176 -0.20409692 -0.00686472
v 0.21730176 -0.23043813 -0.00702970
v 0.21730176 -0.24359688 -0.00708468
v 0.22069150 -0.24701103 -0.00708468
v 0.21730176 -0.00481894 -0.00362020
v 0.19062376 -0.00626522 -0.00367518
v 0.41527794 -0.24701103 0.06011547
v 0.41530380 -0.24359688 0.06011547
v 0.41532966 -0.21727937 0.06011547
v 0.41424289 -0.19093817 0.04691740
v 0.41093075 -0.17775570 0.03652391
v 0.41419112 -0.16459696 0.04691740
v 0.41450163 -0.00481894 0.06011547
v 0.41499329 -0.09877951 0.06011547
v 0.42555063 -0.00481894 0.19176615
v 0.19062376 -0.16459696 -0.00653478
v 0.20413096 -0.16459696 -0.00653478
v 0.21730176 -0.17775570 -0.00664479
v 0.24361750 -0.19093817 -0.00664479
v 0.23047257 -0.17775570 -0.00658976
v 0.24361750 -0.21727937 -0.00680973
v 0.25678831 -0.23043813 -0.00680973
v 0.26020394 -0.24701103 -0.00686472
v 0.23047257 -0.00481894 -0.00356522
v 0.21730176 -0.00659715 -0.00367518
v 0.20413096 -0.05927956 -0.00483001
v 0.19062376 -0.05927956 -0.00483001
v 0.41395824 -0.24701103 0.04691740
v 0.41090489 -0.19093817 0.03652391
v 0.41085312 -0.16459696 0.03668890
v 0.41406173 -0.15141451 0.04691740
v 0.40544510 -0.19093817 0.02992488
v 0.40534161 -0.17775570 0.02997990
v 0.41266445 -0.01975590 0.04691740
v 0.41250919 -0.00659715 0.04691740
v 0.41248333 -0.00481894 0.04691740
v 0.19062376 -0.15110628 -0.00636979
v 0.20413096 -0.15141451 -0.00636979
v 0.25678831 -0.20409692 -0.00664479
v 0.25678831 -0.17775570 -0.00642478
v 0.23047257 -0.15141451 -0.00625979
v 0.24361750 -0.15141451 -0.00620485
v 0.24361750 -0.16459696 -0.00636979
v 0.32264236 -0.24701103 -0.00636979
v 0.23047257 -0.00659715 -0.00362020
v 0.24361750 -0.00481894 -0.00351020
v 0.23047257 -0.01975590 -0.00389515
v 0.20413096 -0.08559705 -0.00537995
v 0.19062376 -0.07213009 -0.00510496
v 0.41150004 -0.24701103 0.03943849
v 0.41064615 -0.24701103 0.03685385
v 0.41082726 -0.20409692 0.03657889
v 0.40523808 -0.24701103 0.03025485
v 0.40536748 -0.21727937 0.03008986
v 0.40955937 -0.00481894 0.03872360
v 0.41209519 -0.00481894 0.04581756
v 0.40034755 -0.24701103 0.02547055
v 0.39863976 -0.24701103 0.02382076
v 0.39882087 -0.20409692 0.02365578
v 0.39884673 -0.19093817 0.02365578
v 0.39876911 -0.17775570 0.02382076
v 0.40516046 -0.16459696 0.03008986
v 0.19062376 -0.12478878 -0.00603986
v 0.20413096 -0.13825576 -0.00620485
v 0.28312994 -0.20409692 -0.00642478
v 0.28312994 -0.17775570 -0.00620485
v 0.23047257 -0.13825576 -0.00609484
v 0.24361750 -0.13825576 -0.00603986
v 0.26995913 -0.15141451 -0.00598484
v 0.33578729 -0.24701103 -0.00625979
v 0.25678831 -0.00481894 -0.00340023
v 0.23047257 -0.05927956 -0.00472005
v 0.23047257 -0.04609710 -0.00444509
v 0.21730176 -0.08559705 -0.00532497
v 0.21730176 -0.11193826 -0.00581985
v 0.19062376 -0.08528883 -0.00537995
v 0.40663537 -0.24701103 0.03195958
v 0.40200362 -0.00659715 0.03212457
v 0.40197771 -0.00481894 0.03217955
v 0.39856213 -0.16459696 0.02398575
v 0.38497730 -0.17775570 0.01111765
v 0.37778382 -0.17775570 0.00451858
v 0.39157563 -0.24701103 0.01722177
v 0.38668509 -0.24701103 0.01265740
v 0.38505493 -0.21727937 0.01100765
v 0.38510665 -0.20409692 0.01100765
v 0.38510665 -0.19093817 0.01100765
v 0.19062376 -0.09844758 -0.00559992
v 0.20413096 -0.12512072 -0.00603986
v 0.28312994 -0.16459696 -0.00603986
v 0.29630074 -0.15141451 -0.00570989
v 0.32264236 -0.17775570 -0.00570989
v 0.33578729 -0.20409692 -0.00587487
v 0.24361750 -0.12512072 -0.00587487
v 0.26995913 -0.13825576 -0.00581985
v 0.33917702 -0.24701103 -0.00620485
v 0.34895809 -0.23043813 -0.00592986
v 0.34895809 -0.24359688 -0.00603986
v 0.26817369 -0.00481894 -0.00329027
v 0.25678831 -0.05927956 -0.00450008
v 0.26995913 -0.11193826 -0.00543494
v 0.24361750 -0.11193826 -0.00565490
v 0.37747331 -0.16459696 0.00479357
v 0.37020220 -0.13825576 -0.00021070
v 0.36981403 -0.12512072 0.00006425
v 0.36937417 -0.11193826 0.00033921
v 0.39537939 -0.00481894 0.02690033
v 0.37791317 -0.19093817 0.00440861
v 0.37118545 -0.17775570 -0.00092559
v 0.37090084 -0.16459696 -0.00070566
v 0.37967273 -0.24701103 0.00622335
v 0.37786144 -0.23043813 0.00446364
v 0.26995913 -0.12512072 -0.00565490
v 0.30947155 -0.15141451 -0.00554490
v 0.32264236 -0.16459696 -0.00554490
v 0.33578729 -0.17775570 -0.00554490
v 0.34895809 -0.17775570 -0.00532497
v 0.34895809 -0.19093817 -0.00548992
v 0.34895809 -0.24701103 -0.00603986
v 0.36212892 -0.19093817 -0.00406014
v 0.36212892 -0.23043813 -0.00433509
v 0.36212892 -0.24359688 -0.00439007
v 0.29451532 -0.00481894 -0.00301531
v 0.28312994 -0.11193826 -0.00526995
v 0.36212892 -0.16459696 -0.00362020
v 0.36212892 -0.12512072 -0.00252035
v 0.35747127 -0.00481894 0.00000927
v 0.36898599 -0.10162465 0.00061416
v 0.37379894 -0.00481894 0.00985282
v 0.37126308 -0.24359688 -0.00103555
v 0.37128898 -0.23043813 -0.00103555
v 0.37131484 -0.19093817 -0.00103555
v 0.36212892 -0.17775570 -0.00389515
v 0.37780968 -0.24701103 0.00451858
v 0.37783554 -0.24359688 0.00451858
v 0.37294501 -0.24701103 0.00039423
v 0.29630074 -0.12512072 -0.00532497
v 0.33578729 -0.16459696 -0.00537995
v 0.33578729 -0.15141451 -0.00515998
v 0.34895809 -0.15141451 -0.00488503
v 0.36212892 -0.24701103 -0.00439007
v 0.30768611 -0.00481894 -0.00285033
v 0.30947155 -0.08559705 -0.00439007
v 0.30947155 -0.11193826 -0.00488503
v 0.34895809 -0.09877951 -0.00389515
v 0.34895809 -0.08559705 -0.00356522
v 0.34895809 -0.05927956 -0.00290531
v 0.34895809 -0.00481894 -0.00147549
v 0.36316393 -0.00481894 0.00281385
v 0.36404373 -0.00481894 0.00325379
v 0.36859786 -0.09282845 0.00088911
v 0.37123721 -0.24701103 -0.00103555
v 0.34895809 -0.13825576 -0.00466502
v 0.34895809 -0.12512072 -0.00444509
v 0.34895809 -0.11193826 -0.00417014
v 0.33578729 -0.11193826 -0.00450008
v 0.32264236 -0.00481894 -0.00263032
v 0.32264236 -0.07243831 -0.00395013
v 0.33578729 -0.08559705 -0.00400516
v 0.33578729 -0.00659715 -0.00235537
v 0.33578729 -0.00481894 -0.00230042
v 0.33400188 -0.00481894 -0.00235537
f 1 2 6
f 1 6 3
f 1 3 9
f 1 9 18
f 1 18 29
f 1 29 42
f 1 42 61
f 1 61 82
f 1 82 108
f 1 108 134
f 1 134 157
f 1 157 179
f 1 179 190
f 1 190 174
f 1 174 172
f 1 172 149
f 1 149 122
f 1 122 121
f 1 121 96
f 1 96 95
f 1 95 91
f 1 91 115
f 1 115 89
f 1 89 88
f 1 88 66
f 1 66 45
f 1 45 32
f 1 32 31
f 1 31 20
f 1 20 14
f 1 14 13
f 1 13 10
f 1 10 4
f 1 4 5
f 1 5 2
f 2 5 7
f 2 7 8
f 2 8 17
f 2 17 25
f 2 25 36
f 2 36 53
f 2 53 51
f 2 51 74
f 2 74 94
f 2 94 93
f 2 93 117
f 2 117 145
f 2 145 167
f 2 167 188
f 2 188 187
f 2 187 165
f 2 165 186
f 2 186 199
f 2 199 200
f 2 200 195
f 2 195 180
f 2 180 161
f 2 161 137
f 2 137 109
f 2 109 84
f 2 84 62
f 2 62 43
f 2 43 30
f 2 30 19
f 2 19 11
f 2 11 6
f 3 6 9
f 4 10 5
f 5 10 13
f 5 13 7
f 6 11 12
f 6 12 9
f 7 13 14
f 7 14 8
f 8 14 15
f 8 15 16
f 8 16 17
f 9 12 19
f 9 19 30
f 9 30 44
f 9 44 65
f 9 65 87
f 9 87 114
f 9 114 126
f 9 126 101
f 9 101 75
f 9 75 54
f 9 54 37
f 9 37 26
f 9 26 18
f 11 19 12
f 14 20 21
f 14 21 16
f 14 16 15
f 16 21 22
f 16 22 23
f 16 23 24
f 16 24 17
f 17 24 25
f 18 26 27
f 18 27 28
f 18 28 29
f 20 31 21
f 21 31 22
f 22 31 32
f 22 32 33
f 22 33 34
f 22 34 23
f 23 35 24
f 23 34 33
f 23 33 35
f 24 35 25
f 25 35 36
f 26 37 38
f 26 38 39
f 26 39 27
f 27 39 40
f 27 40 41
f 27 41 28
f 28 41 42
f 28 42 29
f 30 43 44
f 32 45 46
f 32 46 47
f 32 47 33
f 33 47 46
f 33 46 48
f 33 48 67
f 33 67 49
f 33 49 50
f 33 50 51
f 33 51 52
f 33 52 53
f 33 53 36
f 33 36 35
f 37 54 55
f 37 55 38
f 38 55 56
f 38 56 39
f 39 57 59
f 39 59 40
f 39 56 58
f 39 58 57
f 40 42 41
f 40 59 60
f 40 60 61
f 40 61 42
f 43 62 83
f 43 83 63
f 43 63 44
f 44 63 64
f 44 64 65
f 45 66 46
f 46 66 48
f 48 66 67
f 49 68 69
f 49 69 50
f 49 67 70
f 49 70 71
f 49 71 68
f 50 69 51
f 51 69 72
f 51 72 73
f 51 73 74
f 51 53 52
f 54 75 55
f 55 75 76
f 55 76 56
f 56 76 79
f 56 79 58
f 57 77 60
f 57 60 59
f 57 58 78
f 57 78 77
f 58 79 80
f 58 80 81
f 58 81 78
f 60 77 82
f 60 82 61
f 62 84 83
f 63 83 85
f 63 85 86
f 63 86 64
f 64 86 114
f 64 114 87
f 64 87 65
f 66 88 67
f 67 88 89
f 67 89 90
f 67 90 91
f 67 91 92
f 67 92 70
f 68 93 94
f 68 94 73
f 68 73 72
f 68 72 69
f 68 71 93
f 70 92 95
f 70 95 96
f 70 96 97
f 70 97 98
f 70 98 71
f 71 98 99
f 71 99 100
f 71 100 93
f 73 94 74
f 75 101 102
f 75 102 76
f 76 102 113
f 76 113 105
f 76 105 79
f 77 78 104
f 77 104 103
f 77 103 82
f 78 81 80
f 78 80 107
f 78 107 104
f 79 105 106
f 79 106 80
f 80 106 133
f 80 133 107
f 82 103 108
f 83 84 85
f 84 109 110
f 84 110 111
f 84 111 85
f 85 111 112
f 85 112 86
f 86 112 113
f 86 113 114
f 89 115 90
f 90 115 91
f 91 95 92
f 93 116 117
f 93 100 118
f 93 118 119
f 93 119 120
f 93 120 116
f 96 121 97
f 97 121 122
f 97 122 123
f 97 123 124
f 97 124 98
f 98 124 125
f 98 125 119
f 98 119 99
f 99 118 100
f 99 119 118
f 101 126 113
f 101 113 127
f 101 127 102
f 102 127 113
f 103 104 108
f 104 107 133
f 104 133 128
f 104 128 129
f 104 129 152
f 104 152 130
f 104 130 131
f 104 131 108
f 105 113 106
f 106 113 132
f 106 132 151
f 106 151 133
f 108 131 135
f 108 135 136
f 108 136 134
f 109 137 138
f 109 138 110
f 110 138 139
f 110 139 140
f 110 140 112
f 110 112 111
f 112 140 113
f 113 126 114
f 113 140 132
f 116 120 141
f 116 141 142
f 116 142 117
f 117 142 143
f 117 143 144
f 117 144 145
f 119 125 146
f 119 146 120
f 120 146 170
f 120 170 147
f 120 147 148
f 120 148 141
f 122 149 150
f 122 150 123
f 123 150 124
f 124 150 146
f 124 146 125
f 128 133 151
f 128 151 129
f 129 151 175
f 129 175 152
f 130 152 153
f 130 153 176
f 130 176 154
f 130 154 131
f 131 154 155
f 131 155 156
f 131 156 135
f 132 140 139
f 132 139 151
f 134 136 157
f 135 156 158
f 135 158 136
f 136 158 159
f 136 159 160
f 136 160 179
f 136 179 157
f 137 161 139
f 137 139 138
f 139 162 175
f 139 175 151
f 139 161 180
f 139 180 162
f 141 148 142
f 142 148 163
f 142 163 164
f 142 164 143
f 143 164 144
f 144 164 165
f 144 165 166
f 144 166 167
f 144 167 145
f 146 150 168
f 146 168 169
f 146 169 170
f 147 170 158
f 147 158 171
f 147 171 163
f 147 163 148
f 149 172 173
f 149 173 150
f 150 173 174
f 150 174 168
f 152 176 153
f 152 175 176
f 154 176 155
f 155 176 177
f 155 177 178
f 155 178 171
f 155 171 158
f 155 158 156
f 158 170 159
f 159 170 160
f 160 170 179
f 162 181 182
f 162 182 175
f 162 180 181
f 163 171 193
f 163 193 183
f 163 183 184
f 163 184 185
f 163 185 186
f 163 186 165
f 163 165 164
f 165 187 166
f 166 187 188
f 166 188 189
f 166 189 167
f 167 189 188
f 168 174 190
f 168 190 179
f 168 179 169
f 169 179 170
f 171 178 191
f 171 191 192
f 171 192 193
f 172 174 173
f 175 182 194
f 175 194 177
f 175 177 176
f 177 194 191
f 177 191 178
f 180 195 196
f 180 196 181
f 181 196 197
f 181 197 194
f 181 194 182
f 183 193 198
f 183 198 184
f 184 198 185
f 185 198 186
f 186 198 199
f 191 194 192
f 192 194 197
f 192 197 193
f 193 197 198
f 195 200 198
f 195 198 197
f 195 197 196
f 198 200 199

