# https://github.com/mikedh/trimesh
v 0.30760868 0.38011051 0.67176572
v 0.20945920 0.38011051 0.60646605
v 0.30760868 0.28659427 0.65960465
v 0.30760868 0.38011051 -0.00218249
v 0.20945920 0.38011051 -0.00337217
v 0.20945920 0.28659427 0.50131241
v 0.30760868 0.28659427 -0.00191814
v 0.30760868 0.37529509 -0.00218249
v 0.30463998 0.38011051 -0.00224858
v 0.21728926 0.38011051 -0.00337217
v 0.20945920 0.37529509 -0.00343826
v 0.20945920 0.28659427 -0.00310782
v 0.21728926 0.28659427 -0.00304173
v 0.21728926 0.29629834 -0.00310782
v 0.21728926 0.30946294 -0.00317390
v 0.21728926 0.32263669 -0.00323999
v 0.23045144 0.34895672 -0.00317390
v 0.21728926 0.37529509 -0.00337217
v 0.20945920 0.34361035 -0.00337217
v 0.20945920 0.29629834 -0.00317390
v 0.20945920 0.30946294 -0.00323999
v 0.20945920 0.32263669 -0.00330608
f 1 2 3
f 1 3 7
f 1 7 8
f 1 8 4
f 1 4 9
f 1 9 10
f 1 10 5
f 1 5 2
f 2 5 11
f 2 11 19
f 2 19 22
f 2 22 21
f 2 21 20
f 2 20 12
f 2 12 6
f 2 6 3
f 3 6 12
f 3 12 13
f 3 13 7
f 4 8 9
f 5 10 11
f 7 13 14
f 7 14 15
f 7 15 16
f 7 16 17
f 7 17 9
f 7 9 8
f 9 17 18
f 9 18 10
f 10 18 11
f 11 18 19
f 12 20 14
f 12 14 13
f 14 20 21
f 14 21 15
f 15 21 22
f 15 22 16
f 16 22 19
f 16 19 17
f 17 19 18

