# https://github.com/mikedh/trimesh
v 0.19062376 -0.26188504 0.46446881
v 0.19062376 -0.00484556 0.45501717
v -0.20806321 -0.26188504 0.47800512
v 0.19062376 -0.26188504 -0.00716400
v 0.17954045 -0.00482039 0.45330731
v -0.20806321 -0.00482039 0.45976673
v 0.19062376 -0.00482039 0.44333321
v -0.20806321 -0.26188504 -0.00711651
v 0.16459359 -0.26188504 -0.00716400
v 0.17774526 -0.25677646 -0.00721149
v 0.19062376 -0.24328782 -0.00716400
v -0.20806321 -0.00482039 -0.00379182
v 0.19062376 -0.00482039 -0.00364932
v -0.20806321 -0.23042828 -0.00711651
v -0.20806321 -0.21331580 -0.00706903
v 0.19062376 -0.23012629 -0.00711651
v -0.20408261 -0.00482039 -0.00383931
v -0.20806321 -0.16064460 -0.00659408
v 0.19062376 -0.00660714 -0.00369681
v -0.07240975 -0.00482039 -0.00412430
v -0.20806321 -0.20015429 -0.00702154
v -0.20408261 -0.19091859 -0.00697401
v 0.19062376 -0.21693962 -0.00702154
v -0.19272612 -0.00482039 -0.00393428
v -0.17774024 -0.00660714 -0.00407678
v -0.16638373 -0.00482039 -0.00412430
v -0.15143688 -0.00660714 -0.00421928
v -0.14004136 -0.00482039 -0.00421928
v -0.12509450 -0.00482039 -0.00421928
v 0.19062376 -0.09846088 -0.00564411
v -0.20806321 -0.17380611 -0.00678403
v 0.19062376 -0.07243985 -0.00512168
v -0.20806321 -0.19091859 -0.00697401
v -0.20408261 -0.17775707 -0.00683151
v 0.19062376 -0.17775707 -0.00668905
v 0.19062376 -0.20377811 -0.00692653
v 0.19062376 -0.13794541 -0.00621411
v -0.20806321 -0.17775707 -0.00683151
f 1 2 3
f 1 3 8
f 1 8 9
f 1 9 4
f 1 4 11
f 1 11 16
f 1 16 23
f 1 23 36
f 1 36 35
f 1 35 37
f 1 37 30
f 1 30 32
f 1 32 19
f 1 19 13
f 1 13 7
f 1 7 2
f 2 5 6
f 2 6 3
f 2 7 5
f 3 6 12
f 3 12 18
f 3 18 31
f 3 31 38
f 3 38 33
f 3 33 21
f 3 21 15
f 3 15 14
f 3 14 8
f 4 9 10
f 4 10 11
f 5 7 13
f 5 13 20
f 5 20 29
f 5 29 28
f 5 28 26
f 5 26 24
f 5 24 17
f 5 17 12
f 5 12 6
f 8 14 10
f 8 10 9
f 10 14 15
f 10 15 11
f 11 15 21
f 11 21 16
f 12 17 18
f 13 19 20
f 16 21 22
f 16 22 23
f 17 24 18
f 18 24 25
f 18 25 26
f 18 26 27
f 18 27 28
f 18 28 29
f 18 29 30
f 18 30 37
f 18 37 31
f 19 32 29
f 19 29 20
f 21 33 22
f 22 33 38
f 22 38 34
f 22 34 35
f 22 35 36
f 22 36 23
f 24 26 25
f 26 28 27
f 29 32 30
f 31 37 34
f 31 34 38
f 34 37 35

