# https://github.com/mikedh/trimesh
v 0.25964805 -0.50669676 -0.00573571
v 0.25964805 -0.49380759 -0.00588331
v 0.26995609 -0.50669676 -0.00573571
v 0.25964805 -0.50669676 0.73976958
v 0.29628886 -0.44113630 -0.00647368
v 0.28312247 -0.49380759 -0.00588331
v 0.25964805 -0.40164185 -0.00669506
v 0.28312247 -0.41481865 -0.00669506
v 0.29628886 -0.42795950 -0.00662128
v 0.28312247 -0.50669676 -0.00566189
v 0.29942373 -0.50669676 0.74692798
v 0.29942373 -0.32306637 0.64545602
v 0.25964805 -0.32306637 0.56929668
v 0.29942373 -0.44113630 -0.00647368
v 0.29942373 -0.45429512 -0.00632608
v 0.29942373 -0.48064872 -0.00595709
v 0.25964805 -0.39134129 -0.00676888
v 0.28312247 -0.38848303 -0.00684266
v 0.29942373 -0.40478775 -0.00676888
v 0.29942373 -0.41792860 -0.00669506
v 0.29942373 -0.42795950 -0.00662128
v 0.29628886 -0.49380759 -0.00573571
v 0.29942373 -0.49380759 -0.00566189
v 0.29628886 -0.50669676 -0.00529291
v 0.29942373 -0.50669676 -0.00507153
v 0.29942373 -0.32306637 -0.00684266
v 0.25964805 -0.32306637 -0.00699026
v 0.25964805 -0.37816450 -0.00684266
v 0.29942373 -0.39161095 -0.00684266
v 0.26995609 -0.36214737 -0.00691648
v 0.28353915 -0.32306637 -0.00691648
v 0.28312247 -0.36214737 -0.00691648
v 0.25964805 -0.35182883 -0.00691648
f 1 2 6
f 1 6 3
f 1 3 10
f 1 10 24
f 1 24 25
f 1 25 11
f 1 11 4
f 1 4 13
f 1 13 27
f 1 27 33
f 1 33 28
f 1 28 17
f 1 17 7
f 1 7 2
f 2 5 14
f 2 14 6
f 2 7 8
f 2 8 9
f 2 9 5
f 3 6 10
f 4 11 12
f 4 12 13
f 5 9 21
f 5 21 14
f 6 14 15
f 6 15 16
f 6 16 10
f 7 17 8
f 8 17 18
f 8 18 19
f 8 19 20
f 8 20 9
f 9 20 21
f 10 16 22
f 10 22 23
f 10 23 24
f 11 25 23
f 11 23 16
f 11 16 15
f 11 15 14
f 11 14 21
f 11 21 20
f 11 20 19
f 11 19 29
f 11 29 26
f 11 26 12
f 12 26 31
f 12 31 27
f 12 27 13
f 16 23 22
f 17 28 18
f 18 29 19
f 18 28 30
f 18 30 29
f 23 25 24
f 26 29 31
f 27 31 32
f 27 32 30
f 27 30 33
f 28 33 30
f 29 30 32
f 29 32 31

