# https://github.com/mikedh/trimesh
v 0.20945920 0.38011965 -0.00336711
v 0.20945920 0.45430376 -0.00336711
v 0.21728926 0.38011965 -0.00336711
v 0.20945920 0.38011965 0.60642938
v 0.21728926 0.42797799 -0.00336711
v 0.20945920 0.46747879 -0.00329337
v 0.25679499 0.48064166 -0.00292478
v 0.24362321 0.46747879 -0.00307222
v 0.23045144 0.45430376 -0.00321966
v 0.23045144 0.38011965 -0.00321966
v 0.28311935 0.45430376 -0.00277733
v 0.29628153 0.44115306 -0.00262993
v 0.30760868 0.42797799 -0.00248248
v 0.30760868 0.38011965 0.67174365
v 0.20945920 0.38103206 0.60753515
v 0.25679499 0.45430376 -0.00299852
v 0.20945920 0.49381669 -0.00314592
v 0.25679499 0.49381669 -0.00285107
v 0.27253196 0.50440052 -0.00262993
v 0.30463998 0.38011965 -0.00226134
v 0.28311935 0.46747879 -0.00270363
v 0.30760868 0.44299001 -0.00248248
v 0.30760868 0.40164009 -0.00233504
v 0.30760868 0.50440052 0.74959002
v 0.20945920 0.50440052 0.74044895
v 0.20945920 0.50128622 0.73735279
v 0.20945920 0.48820848 0.72400982
v 0.20945920 0.48182168 0.71744890
v 0.20945920 0.47524027 0.71066682
v 0.20945920 0.46891430 0.70410589
v 0.20945920 0.45606771 0.69061549
v 0.20945920 0.44948630 0.68368599
v 0.20945920 0.44325766 0.67712506
v 0.20945920 0.43668837 0.67004812
v 0.20945920 0.43063006 0.66348721
v 0.20945920 0.42672497 0.65921157
v 0.20945920 0.41807545 0.64970192
v 0.20945920 0.41148183 0.64240383
v 0.20945920 0.40561813 0.63584292
v 0.20945920 0.39325818 0.62176276
v 0.30760868 0.38011965 -0.00218759
v 0.20945920 0.50163900 -0.00307222
v 0.21987365 0.50440052 -0.00299852
v 0.23303583 0.50440052 -0.00292478
v 0.28311935 0.50440052 -0.00248248
v 0.28311935 0.49381669 -0.00255619
v 0.30760868 0.38847722 -0.00226134
v 0.30760868 0.45615287 -0.00240874
v 0.30760868 0.50440052 -0.00130297
v 0.20945920 0.50440052 -0.00299852
v 0.28570374 0.50440052 -0.00240874
v 0.29628153 0.49381669 -0.00226134
v 0.30760868 0.46932791 -0.00226134
v 0.30760868 0.49566584 -0.00181900
v 0.29887553 0.50440052 -0.00196645
v 0.30760868 0.48064166 -0.00211389
f 1 2 5
f 1 5 3
f 1 3 10
f 1 10 20
f 1 20 41
f 1 41 14
f 1 14 4
f 1 4 15
f 1 15 40
f 1 40 39
f 1 39 38
f 1 38 37
f 1 37 36
f 1 36 35
f 1 35 34
f 1 34 33
f 1 33 32
f 1 32 31
f 1 31 30
f 1 30 29
f 1 29 28
f 1 28 27
f 1 27 26
f 1 26 25
f 1 25 50
f 1 50 42
f 1 42 17
f 1 17 6
f 1 6 2
f 2 6 18
f 2 18 7
f 2 7 8
f 2 8 9
f 2 9 5
f 3 5 11
f 3 11 12
f 3 12 13
f 3 13 10
f 4 14 15
f 5 9 16
f 5 16 11
f 6 17 18
f 7 18 19
f 7 19 11
f 7 11 16
f 7 16 8
f 8 16 9
f 10 13 20
f 11 19 21
f 11 21 22
f 11 22 12
f 12 22 13
f 13 22 48
f 13 48 53
f 13 53 56
f 13 56 54
f 13 54 49
f 13 49 24
f 13 24 14
f 13 14 41
f 13 41 47
f 13 47 23
f 13 23 20
f 14 24 25
f 14 25 26
f 14 26 27
f 14 27 28
f 14 28 29
f 14 29 30
f 14 30 31
f 14 31 32
f 14 32 33
f 14 33 34
f 14 34 35
f 14 35 36
f 14 36 37
f 14 37 38
f 14 38 39
f 14 39 40
f 14 40 15
f 17 42 43
f 17 43 44
f 17 44 18
f 18 44 19
f 19 45 46
f 19 46 21
f 19 44 43
f 19 43 50
f 19 50 25
f 19 25 24
f 19 24 49
f 19 49 55
f 19 55 51
f 19 51 45
f 20 47 41
f 20 23 47
f 21 46 22
f 22 46 48
f 42 50 43
f 45 51 52
f 45 52 53
f 45 53 48
f 45 48 46
f 49 54 55
f 51 55 52
f 52 55 56
f 52 56 53
f 54 56 55

