# https://github.com/mikedh/trimesh
v 0.20941844 0.50440052 0.74046650
v -0.20700428 0.50440052 0.73697038
v -0.20700428 0.50401023 0.73660619
v 0.20941844 0.50264418 0.73871844
v 0.20941844 0.50440052 -0.00304334
v -0.20700428 0.50440052 -0.00165943
v 0.20941844 0.48442238 0.72014523
v 0.20941844 0.49088661 0.72677331
v 0.20941844 0.50127818 0.73733454
v -0.20700428 0.50296132 0.73551364
v 0.20941844 0.47522610 0.71067655
v 0.20941844 0.48844728 -0.00318897
v 0.19090895 0.49381383 -0.00318897
v 0.16457166 0.50440052 -0.00304334
v -0.17777232 0.50440052 -0.00180511
v -0.15143504 0.36213854 -0.00311614
v -0.20700428 0.36213854 -0.00282482
v -0.20700428 0.50157091 0.73405694
v 0.20941844 0.46232202 0.69720192
v 0.20941844 0.47529925 -0.00326181
v 0.20407759 0.48064142 -0.00326181
v 0.16457166 0.48064142 -0.00326181
v -0.16199441 0.50440052 -0.00187795
v -0.13826640 0.34896613 -0.00326181
v -0.13826640 0.33581814 -0.00333465
v -0.20700428 0.33581814 -0.00297050
v -0.20700428 0.25519814 0.47541632
v 0.20941844 0.44578332 0.67979411
v 0.20941844 0.46212685 -0.00333465
v 0.20407759 0.45429658 -0.00340749
v 0.16457166 0.45429658 -0.00340749
v -0.13826640 0.32264574 -0.00340749
v -0.20700428 0.32264574 -0.00304334
v -0.20700428 0.25519814 -0.00326181
v 0.20941844 0.25519814 0.47774707
v 0.20941844 0.44112417 -0.00340749
v 0.19090895 0.44112417 -0.00348033
v 0.17774030 0.44112417 -0.00348033
v -0.12509775 0.30947334 -0.00348033
v -0.15143504 0.29630093 -0.00348033
v -0.17777232 0.26995611 -0.00348033
v -0.19094098 0.28312853 -0.00333465
v -0.20700428 0.28608012 -0.00318897
v -0.20700428 0.25973531 -0.00326181
v -0.19094098 0.25519814 -0.00340749
v 0.20941844 0.25519814 -0.00289766
v 0.20941844 0.35679641 -0.00340749
v 0.17774030 0.37531094 -0.00355317
v 0.16457166 0.37531094 -0.00355317
v -0.15143504 0.25519814 -0.00362601
v -0.19094098 0.25680809 -0.00340749
v -0.20410961 0.26995611 -0.00326181
v 0.17933034 0.25519814 -0.00304334
v 0.19090895 0.25680809 -0.00304334
v 0.20407759 0.25680809 -0.00297050
v 0.20941844 0.26461396 -0.00297050
v 0.20407759 0.33581814 -0.00340749
v 0.19090895 0.33581814 -0.00348033
v 0.17774030 0.36213854 -0.00355317
v 0.20941844 0.33045160 -0.00333465
v -0.07083315 0.25519814 -0.00355317
v 0.19090895 0.26995611 -0.00311614
v 0.20407759 0.26995611 -0.00304334
f 1 2 3
f 1 3 4
f 1 4 9
f 1 9 8
f 1 8 7
f 1 7 11
f 1 11 19
f 1 19 28
f 1 28 35
f 1 35 46
f 1 46 56
f 1 56 60
f 1 60 47
f 1 47 36
f 1 36 29
f 1 29 20
f 1 20 12
f 1 12 5
f 1 5 14
f 1 14 23
f 1 23 15
f 1 15 6
f 1 6 2
f 2 6 17
f 2 17 26
f 2 26 33
f 2 33 43
f 2 43 44
f 2 44 34
f 2 34 27
f 2 27 18
f 2 18 10
f 2 10 3
f 3 7 8
f 3 8 9
f 3 9 4
f 3 10 11
f 3 11 7
f 5 12 13
f 5 13 14
f 6 15 16
f 6 16 17
f 10 18 19
f 10 19 11
f 12 20 21
f 12 21 13
f 13 21 30
f 13 30 37
f 13 37 38
f 13 38 31
f 13 31 22
f 13 22 14
f 14 22 23
f 15 23 16
f 16 22 24
f 16 24 17
f 16 23 22
f 17 24 25
f 17 25 26
f 18 27 19
f 19 27 28
f 20 29 30
f 20 30 21
f 22 31 32
f 22 32 25
f 22 25 24
f 25 32 33
f 25 33 26
f 27 34 45
f 27 45 50
f 27 50 61
f 27 61 53
f 27 53 46
f 27 46 35
f 27 35 28
f 29 36 30
f 30 36 37
f 31 38 39
f 31 39 32
f 32 39 40
f 32 40 33
f 33 40 41
f 33 41 42
f 33 42 43
f 34 44 51
f 34 51 45
f 36 47 59
f 36 59 48
f 36 48 37
f 37 48 49
f 37 49 38
f 38 49 50
f 38 50 39
f 39 50 40
f 40 50 41
f 41 50 45
f 41 45 51
f 41 51 42
f 42 51 52
f 42 52 43
f 43 52 44
f 44 52 51
f 46 53 54
f 46 54 55
f 46 55 56
f 47 57 58
f 47 58 59
f 47 60 57
f 48 59 50
f 48 50 49
f 50 59 61
f 53 61 54
f 54 62 63
f 54 63 55
f 54 61 62
f 55 63 56
f 56 63 60
f 57 60 63
f 57 63 62
f 57 62 58
f 58 61 59
f 58 62 61

