# https://github.com/mikedh/trimesh
v -0.19016885 0.61825737 0.44120367
v -0.16457281 0.61825737 0.44137386
v -0.19088205 0.61825737 0.44124622
v -0.13826357 0.64283159 0.62632350
v 0.04605963 0.64369926 0.62632350
v 0.08552350 0.64210724 0.61317664
v 0.09875736 0.64210724 0.61317664
v 0.24361670 0.61825737 0.45086173
v -0.20165934 0.61825737 0.44196952
v -0.20403668 0.61825737 0.44213969
v -0.24357979 0.61825737 0.44567107
v -0.24896842 0.61825737 0.44652198
v -0.25673441 0.61825737 0.44788348
v -0.26529284 0.61825737 0.45141483
v -0.26949280 0.61825737 0.45324434
v -0.15141819 0.64362003 0.63951292
v -0.09872046 0.65041058 0.69214295
v 0.09875736 0.65178753 0.69214295
v 0.05921425 0.64372567 0.62632350
v 0.11191198 0.64188092 0.61317664
v 0.25677132 0.61825737 0.45196794
v -0.28336062 0.61825737 0.46400861
v -0.16465206 0.64483855 0.66567902
v -0.16029360 0.64539689 0.66997622
v -0.16465206 0.64567985 0.67882589
v -0.16457281 0.64730201 0.70528982
v -0.16457281 0.64810178 0.71847924
v -0.16457281 0.65036529 0.75796238
v -0.16457281 0.65109717 0.77115180
v -0.16457281 0.65179887 0.78434121
v -0.16457281 0.65245152 0.79748809
v -0.16457281 0.65308529 0.81067750
v -0.16457281 0.65370776 0.82382438
v -0.16457281 0.65426610 0.83701379
v 0.08552350 0.65679745 0.87585875
v 0.09875736 0.65676350 0.87585875
v 0.11191198 0.65662014 0.87585875
v 0.11254594 0.65660884 0.87585875
v 0.12506661 0.65635606 0.87585875
v 0.12570057 0.65633718 0.87585875
v 0.13822122 0.65594485 0.87585875
v 0.15137585 0.65484328 0.86335008
v 0.30938980 0.64213742 0.83701379
v 0.32262366 0.64102831 0.83701379
v 0.31604635 0.61892889 0.50115169
v 0.31192563 0.61860445 0.49238712
v 0.30907282 0.61825737 0.48472876
v 0.30764641 0.61825737 0.48323962
v 0.29623518 0.61825737 0.47209244
v 0.29417483 0.61825737 0.47034803
v 0.28355603 0.61825737 0.46234928
v 0.26992593 0.61825737 0.45537167
v 0.13822122 0.64279007 0.62632350
v -0.29619827 0.61825737 0.47953807
v -0.28811531 0.61881194 0.47643217
v -0.16908976 0.64509133 0.67435851
v -0.33574142 0.64182809 0.85016067
v -0.32258677 0.64289572 0.85016067
v -0.16457281 0.65433776 0.85016067
v -0.15141819 0.65492628 0.87585875
v -0.15141819 0.65479045 0.86335008
v 0.07236887 0.65669561 0.87585875
v 0.13885518 0.65591090 0.87585875
v 0.15137585 0.65519790 0.87585875
v 0.33577831 0.63848939 0.85016067
v 0.33577831 0.63957589 0.83701379
v 0.31794823 0.61917033 0.50783149
v 0.32460478 0.61837432 0.50783149
v 0.31953313 0.61825737 0.49770542
v 0.31374825 0.61825737 0.49047252
v -0.29168133 0.61912504 0.48519675
v -0.30475669 0.61825737 0.49336569
v -0.30047748 0.61868365 0.49119581
v -0.30348878 0.61901566 0.50000294
v -0.34889600 0.64011535 0.85016067
v -0.36212986 0.63531673 0.86015910
v -0.16457281 0.65165174 0.87585875
v 0.15208905 0.65504700 0.87585875
v 0.35836303 0.63270614 0.85726593
v 0.34893289 0.63668238 0.85016067
v 0.32943872 0.61898548 0.52659450
v 0.32737833 0.61869122 0.51782993
v 0.34893289 0.63752364 0.83701379
v 0.32872550 0.61825737 0.51617061
v 0.32492176 0.61825737 0.50736349
v 0.32373308 0.61825737 0.50489579
v -0.30681707 0.61825737 0.49676941
v -0.36212986 0.63766701 0.85016067
v -0.37528453 0.63351345 0.85841469
v -0.31141326 0.61825737 0.50549143
v -0.31450380 0.61870629 0.51710664
v -0.31664341 0.61905338 0.52591376
v -0.37528453 0.62550438 0.86254169
v -0.36212986 0.62550438 0.86415846
v -0.17218030 0.64673990 0.87585875
v 0.16548140 0.64953533 0.87585875
v 0.38839681 0.62069065 0.85769140
v 0.39552883 0.61924199 0.85696810
v 0.36707993 0.63126502 0.85522371
v 0.36248378 0.63380395 0.85058613
v 0.37056671 0.63261560 0.84645912
v 0.33165757 0.61825737 0.52450973
v 0.36327622 0.63408687 0.83599267
v 0.34893289 0.62476119 0.66580666
v 0.34893289 0.62376904 0.65265979
v 0.37056671 0.63261560 0.83969422
v -0.33978288 0.61825737 0.57854379
v -0.37599769 0.63386431 0.85041594
v -0.38233728 0.63230247 0.85496842
v -0.38233728 0.63230247 0.85705320
v -0.31957547 0.61825737 0.52327588
v -0.32583580 0.61825737 0.53884790
v -0.32757919 0.61860822 0.54731465
v -0.32900559 0.61889114 0.55424973
v -0.33233384 0.61825737 0.55701525
v -0.33360177 0.61825737 0.56067425
v -0.38740893 0.62569299 0.85986127
v -0.31252268 0.61825737 0.50783149
v -0.31759436 0.61825737 0.51893613
v -0.39913719 0.62142630 0.85888269
v -0.40064279 0.61825737 0.85969108
v -0.39675979 0.61825737 0.86045691
v -0.38249575 0.61825737 0.86292461
v -0.17431991 0.63869688 0.87585875
v -0.17249728 0.64625326 0.87585875
v 0.16587762 0.64933165 0.87585875
v 0.38839681 0.61825737 0.85807432
v 0.39616280 0.61825737 0.85709574
v 0.40012499 0.61825737 0.85016067
v 0.39719290 0.62039639 0.85016067
v 0.38839681 0.62470084 0.85016067
v 0.37508367 0.62977111 0.85058613
v 0.38839681 0.62589671 0.83701379
v 0.33974050 0.61825737 0.55339880
v 0.34203862 0.61884212 0.56799225
v 0.34893289 0.62269764 0.63951292
v 0.37508367 0.63078215 0.83599267
v 0.35796682 0.61989464 0.63951292
v 0.35638194 0.61929481 0.62632350
v -0.34184325 0.61825737 0.58509595
v -0.38740893 0.62944667 0.85041594
v -0.40095981 0.62243733 0.85016067
v -0.34390363 0.61825737 0.59181829
v -0.35380918 0.61836302 0.62632350
v -0.35404693 0.61825737 0.62632350
v -0.40753707 0.61845732 0.85016067
v -0.32892634 0.61825737 0.54731465
v -0.40785409 0.61825737 0.85016067
v -0.40769562 0.61825737 0.85037340
v -0.36934116 0.61825737 0.86309479
v -0.13905602 0.62250899 0.87585875
v -0.15141819 0.62296926 0.87585875
v -0.15221063 0.62304846 0.87585875
v -0.16457281 0.62616456 0.87585875
v -0.16536526 0.62639470 0.87585875
v -0.17336898 0.63034076 0.87585875
v -0.17424067 0.63790467 0.87585875
v 0.16635310 0.64896192 0.87585875
v 0.16785874 0.63982863 0.87585875
v 0.16738328 0.63890060 0.87585875
v 0.16040974 0.63074443 0.87585875
v 0.15137585 0.62876008 0.87585875
v 0.13822122 0.62767358 0.87585875
v 0.12506661 0.62723976 0.87585875
v 0.11191198 0.62691532 0.87585875
v 0.09875736 0.62665124 0.87585875
v 0.37484592 0.61825737 0.85841469
v 0.16785874 0.64008894 0.87585875
v 0.40170987 0.61825737 0.83701379
v 0.39790615 0.62089060 0.83701379
v 0.38348363 0.61978522 0.74481551
v 0.38253264 0.61929481 0.73464690
v 0.37524214 0.62294285 0.74481551
v 0.35558950 0.61896284 0.61938843
v 0.35677816 0.61825737 0.61819712
v 0.37643080 0.62126029 0.73081772
v -0.35650352 0.61825737 0.63589647
v -0.36696377 0.61825737 0.67925135
v -0.35095637 0.61825737 0.61577197
v -0.35341296 0.61825737 0.62415363
v -0.13826357 0.62250523 0.87585875
v -0.12502970 0.62272782 0.87585875
v 0.38697040 0.61825737 0.75081458
v 0.38467228 0.61825737 0.73749752
v 0.38166100 0.61883455 0.72583978
v 0.36779318 0.61855916 0.66580666
v 0.36707993 0.61825737 0.66006288
v 0.35757060 0.61825737 0.62121793
v 0.38269119 0.61825737 0.72669070
v 0.38237417 0.61825737 0.72507394
v 0.38094776 0.61825737 0.71847924
v 0.38031380 0.61825737 0.71571371
f 1 2 8
f 1 8 21
f 1 21 52
f 1 52 51
f 1 51 50
f 1 50 49
f 1 49 48
f 1 48 47
f 1 47 70
f 1 70 69
f 1 69 86
f 1 86 85
f 1 85 84
f 1 84 102
f 1 102 134
f 1 134 175
f 1 175 188
f 1 188 187
f 1 187 192
f 1 192 191
f 1 191 190
f 1 190 189
f 1 189 184
f 1 184 183
f 1 183 169
f 1 169 129
f 1 129 128
f 1 128 127
f 1 127 167
f 1 167 150
f 1 150 123
f 1 123 122
f 1 122 121
f 1 121 149
f 1 149 148
f 1 148 178
f 1 178 177
f 1 177 145
f 1 145 180
f 1 180 179
f 1 179 143
f 1 143 140
f 1 140 107
f 1 107 116
f 1 116 115
f 1 115 147
f 1 147 112
f 1 112 111
f 1 111 119
f 1 119 118
f 1 118 90
f 1 90 87
f 1 87 72
f 1 72 54
f 1 54 22
f 1 22 15
f 1 15 14
f 1 14 13
f 1 13 12
f 1 12 11
f 1 11 10
f 1 10 9
f 1 9 3
f 1 3 4
f 1 4 5
f 1 5 6
f 1 6 7
f 1 7 2
f 2 7 8
f 3 9 4
f 4 9 10
f 4 10 11
f 4 11 12
f 4 12 13
f 4 13 14
f 4 14 15
f 4 15 16
f 4 16 17
f 4 17 18
f 4 18 5
f 5 18 19
f 5 19 6
f 6 19 7
f 7 19 18
f 7 18 20
f 7 20 21
f 7 21 8
f 15 22 16
f 16 23 24
f 16 24 17
f 16 22 23
f 17 24 25
f 17 25 26
f 17 26 27
f 17 27 28
f 17 28 29
f 17 29 30
f 17 30 31
f 17 31 32
f 17 32 33
f 17 33 34
f 17 34 18
f 18 35 36
f 18 36 37
f 18 37 38
f 18 38 39
f 18 39 40
f 18 40 41
f 18 41 42
f 18 42 43
f 18 43 44
f 18 44 45
f 18 45 46
f 18 46 47
f 18 47 48
f 18 48 49
f 18 49 50
f 18 50 51
f 18 51 52
f 18 52 53
f 18 53 20
f 18 34 35
f 20 53 21
f 21 53 52
f 22 54 55
f 22 55 23
f 23 56 25
f 23 25 24
f 23 55 56
f 25 56 26
f 26 56 27
f 27 56 57
f 27 57 58
f 27 58 28
f 28 58 29
f 29 58 30
f 30 58 31
f 31 58 32
f 32 58 33
f 33 58 34
f 34 58 59
f 34 59 60
f 34 60 61
f 34 61 35
f 35 62 60
f 35 60 77
f 35 77 95
f 35 95 125
f 35 125 124
f 35 124 157
f 35 157 156
f 35 156 155
f 35 155 154
f 35 154 153
f 35 153 152
f 35 152 151
f 35 151 181
f 35 181 182
f 35 182 166
f 35 166 165
f 35 165 164
f 35 164 163
f 35 163 162
f 35 162 161
f 35 161 160
f 35 160 159
f 35 159 168
f 35 168 158
f 35 158 126
f 35 126 96
f 35 96 78
f 35 78 64
f 35 64 63
f 35 63 41
f 35 41 40
f 35 40 39
f 35 39 38
f 35 38 37
f 35 37 36
f 35 61 62
f 41 63 42
f 42 63 64
f 42 64 43
f 43 64 44
f 44 65 66
f 44 66 45
f 44 64 65
f 45 66 67
f 45 67 68
f 45 68 69
f 45 69 70
f 45 70 47
f 45 47 46
f 54 71 55
f 54 72 73
f 54 73 57
f 54 57 71
f 55 71 56
f 56 71 57
f 57 73 74
f 57 74 75
f 57 75 76
f 57 76 60
f 57 60 58
f 58 60 59
f 60 76 77
f 60 62 61
f 64 78 79
f 64 79 80
f 64 80 65
f 65 80 66
f 66 81 82
f 66 82 68
f 66 68 67
f 66 80 83
f 66 83 81
f 68 82 84
f 68 84 85
f 68 85 86
f 68 86 69
f 72 87 73
f 73 87 74
f 74 87 75
f 75 88 89
f 75 89 76
f 75 87 90
f 75 90 91
f 75 91 92
f 75 92 88
f 76 89 93
f 76 93 94
f 76 94 77
f 77 94 95
f 78 96 97
f 78 97 79
f 79 97 98
f 79 98 99
f 79 99 100
f 79 100 80
f 80 100 101
f 80 101 83
f 81 102 84
f 81 84 82
f 81 83 103
f 81 103 104
f 81 104 105
f 81 105 102
f 83 101 106
f 83 106 103
f 88 107 108
f 88 108 109
f 88 109 110
f 88 110 89
f 88 92 111
f 88 111 112
f 88 112 113
f 88 113 114
f 88 114 115
f 88 115 116
f 88 116 107
f 89 110 117
f 89 117 93
f 90 118 91
f 91 118 119
f 91 119 111
f 91 111 92
f 93 117 120
f 93 120 121
f 93 121 122
f 93 122 123
f 93 123 94
f 94 123 124
f 94 124 125
f 94 125 95
f 96 126 97
f 97 127 128
f 97 128 98
f 97 126 127
f 98 128 129
f 98 129 130
f 98 130 131
f 98 131 99
f 99 131 132
f 99 132 101
f 99 101 100
f 101 132 131
f 101 131 133
f 101 133 106
f 102 105 135
f 102 135 134
f 103 106 104
f 104 106 105
f 105 136 135
f 105 106 136
f 106 133 137
f 106 137 138
f 106 138 139
f 106 139 136
f 107 140 108
f 108 140 109
f 109 141 142
f 109 142 110
f 109 140 143
f 109 143 144
f 109 144 145
f 109 145 141
f 110 142 146
f 110 146 120
f 110 120 117
f 112 147 113
f 113 147 114
f 114 147 115
f 120 146 148
f 120 148 149
f 120 149 121
f 123 150 151
f 123 151 152
f 123 152 153
f 123 153 154
f 123 154 155
f 123 155 156
f 123 156 157
f 123 157 124
f 126 158 127
f 127 159 160
f 127 160 161
f 127 161 162
f 127 162 163
f 127 163 164
f 127 164 165
f 127 165 166
f 127 166 167
f 127 158 168
f 127 168 159
f 129 169 130
f 130 169 170
f 130 170 133
f 130 133 131
f 133 170 171
f 133 171 172
f 133 172 173
f 133 173 137
f 134 135 174
f 134 174 175
f 135 136 174
f 136 139 174
f 137 173 138
f 138 173 176
f 138 176 139
f 139 176 174
f 141 145 177
f 141 177 142
f 142 177 178
f 142 178 146
f 143 179 144
f 144 179 180
f 144 180 145
f 146 178 148
f 150 181 151
f 150 167 181
f 166 182 167
f 167 182 181
f 169 183 170
f 170 183 184
f 170 184 172
f 170 172 171
f 172 184 185
f 172 185 176
f 172 176 173
f 174 176 185
f 174 185 186
f 174 186 187
f 174 187 188
f 174 188 175
f 184 189 185
f 185 189 190
f 185 190 191
f 185 191 192
f 185 192 187
f 185 187 186

