# https://github.com/mikedh/trimesh
v 0.29942763 -0.50669676 -0.00511046
v 0.29942763 -0.49380759 -0.00570494
v 0.30947722 -0.49380759 -0.00545016
v 0.30947722 -0.50669676 -0.00434608
v 0.29942763 -0.50669676 0.74685486
v 0.29942763 -0.48064872 -0.00595972
v 0.32264378 -0.46747192 -0.00587480
v 0.32264378 -0.48064872 -0.00536524
v 0.32264378 -0.49380759 -0.00443101
v 0.32305581 -0.50669676 -0.00179820
v 0.44999232 -0.50669676 0.85530973
v 0.46373213 -0.32306637 0.85581933
v 0.45506190 -0.32306637 0.84919483
v 0.45484691 -0.32306637 0.84902497
v 0.44827260 -0.32306637 0.84257032
v 0.44219984 -0.32306637 0.83620063
v 0.43541055 -0.32306637 0.82906653
v 0.42942739 -0.32306637 0.82269685
v 0.42283514 -0.32306637 0.81564771
v 0.41660117 -0.32306637 0.80885335
v 0.41002686 -0.32306637 0.80163432
v 0.40427654 -0.32306637 0.79526463
v 0.39768429 -0.32306637 0.78796072
v 0.34783046 -0.32306637 0.73216205
v 0.34195475 -0.32306637 0.72553757
v 0.33663440 -0.32306637 0.71848843
v 0.33047209 -0.32306637 0.70965576
v 0.33036459 -0.32306637 0.70948591
v 0.32690725 -0.32306637 0.70303127
v 0.32672810 -0.32306637 0.70269155
v 0.32146148 -0.32306637 0.69216030
v 0.31718010 -0.32306637 0.68315778
v 0.29942763 -0.32306637 0.64544910
v 0.29942763 -0.44113630 -0.00646932
v 0.30947722 -0.44113630 -0.00646932
v 0.30947722 -0.45429512 -0.00629947
v 0.32264378 -0.44113630 -0.00638439
v 0.33581037 -0.44113630 -0.00612957
v 0.33581037 -0.45429512 -0.00570494
v 0.33581037 -0.46747192 -0.00502549
v 0.33581037 -0.48064872 -0.00383648
v 0.33613281 -0.49391543 -0.00145846
v 0.32481135 -0.50669676 -0.00137353
v 0.45644125 -0.50669676 0.85887676
v 0.45665623 -0.50669676 0.85896173
v 0.47009150 -0.32306637 0.85760283
v 0.29942763 -0.32306637 -0.00680903
v 0.29942763 -0.41481865 -0.00672410
v 0.32264378 -0.41481865 -0.00663917
v 0.33581037 -0.41481865 -0.00646932
v 0.34897693 -0.41481865 -0.00604465
v 0.34897693 -0.42795950 -0.00570494
v 0.34897693 -0.44113630 -0.00511046
v 0.34897693 -0.45429512 -0.00400637
v 0.35015923 -0.46855054 -0.00171328
v 0.34679144 -0.48064872 -0.00086397
v 0.34408651 -0.48960105 -0.00001467
v 0.33197682 -0.50342500 -0.00035437
v 0.33532667 -0.50669676 0.00295788
v 0.46747608 -0.50669676 0.86006581
v 0.46747608 -0.49380759 0.86074523
v 0.46747608 -0.48064872 0.86066030
v 0.47551934 -0.32306637 0.85760283
v 0.30988922 -0.32306637 -0.00680903
v 0.29942763 -0.33581174 -0.00689395
v 0.29942763 -0.40164185 -0.00680903
v 0.32264378 -0.40164185 -0.00672410
v 0.33581037 -0.40164185 -0.00655425
v 0.34897693 -0.38848303 -0.00621454
v 0.36214352 -0.32306637 -0.00434608
v 0.36214352 -0.33581174 -0.00426115
v 0.36214352 -0.38848303 -0.00383648
v 0.36214352 -0.40164185 -0.00358170
v 0.36214352 -0.41481865 -0.00315707
v 0.36074624 -0.44113630 -0.00171328
v 0.35879363 -0.45429512 -0.00086397
v 0.35700229 -0.46488331 0.00007026
v 0.35533629 -0.47365586 0.00091956
v 0.35338369 -0.48064872 0.00219350
v 0.34867238 -0.49391543 0.00465645
v 0.34075455 -0.49837360 0.00176883
v 0.33654480 -0.50669676 0.00363729
v 0.46765524 -0.50669676 0.86006581
v 0.47616422 -0.49380759 0.85879184
v 0.47686286 -0.48064872 0.85921651
v 0.47722117 -0.46747192 0.85921651
v 0.47774066 -0.42795950 0.85896173
v 0.47783021 -0.41481865 0.85887676
v 0.47759733 -0.40164185 0.85870691
v 0.47684496 -0.37530619 0.85836720
v 0.47646876 -0.36214737 0.85819735
v 0.48173538 -0.38848303 0.85012906
v 0.48128755 -0.37530619 0.85012906
v 0.47933495 -0.32306637 0.85038384
v 0.32305581 -0.32306637 -0.00672410
v 0.30947722 -0.38848303 -0.00680903
v 0.33622237 -0.32306637 -0.00655425
v 0.34938896 -0.32306637 -0.00621454
v 0.37115409 -0.32306637 -0.00086397
v 0.37110037 -0.33581174 -0.00077905
v 0.37079582 -0.37530619 -0.00052427
v 0.37063460 -0.38848303 -0.00043930
v 0.37036589 -0.40164185 -0.00026945
v 0.36990013 -0.41481865 0.00007026
v 0.36325416 -0.42846282 -0.00179820
v 0.36927315 -0.42441814 0.00049489
v 0.36839539 -0.43319069 0.00108942
v 0.36733848 -0.44113630 0.00176883
v 0.36536798 -0.45429512 0.00304280
v 0.36169566 -0.46855054 0.00406192
v 0.37000762 -0.47692761 0.01297952
v 0.36302128 -0.48104423 0.00915771
v 0.36800129 -0.48571814 0.01459320
v 0.35890113 -0.49380759 0.01153573
v 0.35637531 -0.50144760 0.01340419
v 0.34858283 -0.50630128 0.01094121
v 0.34444478 -0.50669676 0.00856319
v 0.47514314 -0.50669676 0.85785765
v 0.47519690 -0.50669676 0.85768775
v 0.47994404 -0.48064872 0.85012906
v 0.48087552 -0.46747192 0.85012906
v 0.48139505 -0.45429512 0.85012906
v 0.48221908 -0.42795950 0.85012906
v 0.48241613 -0.41481865 0.85012906
v 0.48216535 -0.40164185 0.85012906
v 0.48033814 -0.32306637 0.83738965
v 0.47946034 -0.32306637 0.85012906
v 0.37136908 -0.32306637 -0.00069412
v 0.37738807 -0.37530619 0.00457152
v 0.37720891 -0.38848303 0.00474137
v 0.37695814 -0.40164185 0.00491123
v 0.37647448 -0.41481865 0.00533590
v 0.38340706 -0.42795950 0.01263982
v 0.37432483 -0.42846282 0.00516601
v 0.37649238 -0.44180143 0.00907278
v 0.37402028 -0.45429512 0.00966727
v 0.37187063 -0.46747192 0.01136588
v 0.37844498 -0.46747192 0.01705615
v 0.38365788 -0.47818597 0.02554908
v 0.37588333 -0.48194307 0.02011359
v 0.36549337 -0.49380759 0.01663148
v 0.38177693 -0.48695852 0.02733262
v 0.37328581 -0.49380759 0.02317106
v 0.37052711 -0.50306548 0.02563401
v 0.36191064 -0.50669676 0.02079304
v 0.34899486 -0.50669676 0.01145081
v 0.34836788 -0.50669676 0.01102617
v 0.47630754 -0.50669676 0.85012906
v 0.47838553 -0.49380759 0.85012906
v 0.47985444 -0.46747192 0.83696497
v 0.43453279 -0.46078467 0.31702694
v 0.43456862 -0.44789549 0.30352317
v 0.48049935 -0.45429512 0.83696497
v 0.48096512 -0.44113630 0.83696497
v 0.48130549 -0.42795950 0.83696497
v 0.48143088 -0.41481865 0.83696497
v 0.48137711 -0.40164185 0.83696497
v 0.48126962 -0.38848303 0.83696497
v 0.48110840 -0.37530619 0.83696497
v 0.48035603 -0.32306637 0.83696497
v 0.37797922 -0.32306637 0.00465645
v 0.37758512 -0.34897057 0.00448659
v 0.38510889 -0.36214737 0.01111110
v 0.38505512 -0.37530619 0.01119603
v 0.38492973 -0.38848303 0.01128095
v 0.38469685 -0.40164185 0.01153573
v 0.38423109 -0.41481865 0.01196036
v 0.39080544 -0.41481865 0.01807531
v 0.38999931 -0.42795950 0.01883965
v 0.38256513 -0.43784657 0.01340419
v 0.38165155 -0.44661916 0.01425346
v 0.38061253 -0.45429512 0.01518769
v 0.38568210 -0.46747192 0.02368066
v 0.39225645 -0.46747192 0.02996542
v 0.38910361 -0.48215876 0.03293796
v 0.38607620 -0.49380759 0.03557076
v 0.37986016 -0.49380759 0.02903119
v 0.38358621 -0.50304751 0.03828849
v 0.37471893 -0.50669676 0.03191881
v 0.47512524 -0.50669676 0.83721979
v 0.47514314 -0.50660685 0.83713483
v 0.44064138 -0.48064872 0.41563004
v 0.43472984 -0.47491422 0.34140170
v 0.43782891 -0.46747192 0.36297378
v 0.43474774 -0.44113630 0.30139993
v 0.43494479 -0.46357103 0.32577469
v 0.43399537 -0.46775955 0.32220765
v 0.43161283 -0.46747192 0.29715346
v 0.42170657 -0.44981898 0.16874016
v 0.42127664 -0.44660115 0.15999241
v 0.43087840 -0.45429512 0.27082534
v 0.43211443 -0.45429512 0.28398938
v 0.43422825 -0.45763877 0.31031751
v 0.41986146 -0.44113630 0.13909978
v 0.42168867 -0.43782860 0.15549115
v 0.42129457 -0.43283112 0.14674340
v 0.43417452 -0.44113630 0.29486037
v 0.43446113 -0.42795950 0.29171797
v 0.43455069 -0.42127220 0.29061389
v 0.43460445 -0.41251763 0.29001938
v 0.43191738 -0.40164185 0.25766125
v 0.43084257 -0.38848303 0.24449721
v 0.41520388 -0.32306637 0.06011536
v 0.41523971 -0.32306637 0.06054003
v 0.38512678 -0.32306637 0.01102617
v 0.38512678 -0.33581174 0.01102617
v 0.39166530 -0.36214737 0.01714108
v 0.39161154 -0.37530619 0.01722601
v 0.39150408 -0.38848303 0.01731093
v 0.39125327 -0.40164185 0.01756571
v 0.39766640 -0.41481865 0.02461485
v 0.39686026 -0.42795950 0.02537923
v 0.39573169 -0.44113630 0.02648331
v 0.38756304 -0.44180143 0.01883965
v 0.39506888 -0.44784153 0.02716276
v 0.38913944 -0.45305474 0.02283135
v 0.39395824 -0.45663206 0.02826685
v 0.39795300 -0.46747192 0.03658992
v 0.39632284 -0.47735904 0.03862824
v 0.39454939 -0.48613158 0.04211034
v 0.39216685 -0.49326828 0.04669653
v 0.38491184 -0.50669676 0.04814032
v 0.38446397 -0.50669676 0.04686639
v 0.37697603 -0.50669676 0.03412697
v 0.44198490 -0.50669676 0.49461442
v 0.43609130 -0.50516875 0.42870916
v 0.43544638 -0.50310143 0.41563004
v 0.43791847 -0.49380759 0.41563004
v 0.43917243 -0.49380759 0.42870916
v 0.43940531 -0.48064872 0.40246597
v 0.43429991 -0.47234358 0.33265397
v 0.43661078 -0.46747192 0.34980972
v 0.43558970 -0.48108018 0.36348336
v 0.43424615 -0.48577206 0.35949168
v 0.43376249 -0.48348901 0.34980972
v 0.43170243 -0.48064872 0.32348159
v 0.42149162 -0.46135992 0.18419729
v 0.42104376 -0.45860950 0.17544955
v 0.41810591 -0.45429512 0.13909978
v 0.41733564 -0.44113630 0.11277165
v 0.41860750 -0.44113630 0.12593569
v 0.41722815 -0.42795950 0.09960757
v 0.41966441 -0.42795950 0.12593569
v 0.42088254 -0.42824713 0.13952441
v 0.42152742 -0.42405857 0.14419552
v 0.43145161 -0.42795950 0.25766125
v 0.43378042 -0.42795950 0.28398938
v 0.42559384 -0.42795950 0.19184096
v 0.42720607 -0.41481865 0.20500500
v 0.43179199 -0.41481865 0.25766125
v 0.42625665 -0.40164185 0.19184096
v 0.43078880 -0.40164185 0.24449721
v 0.42632832 -0.38848303 0.19184096
v 0.41618913 -0.37530619 0.07327944
v 0.41502477 -0.36214737 0.06011536
v 0.41398575 -0.32306637 0.04737594
v 0.39193401 -0.32306637 0.01731093
v 0.39170113 -0.34897057 0.01714108
v 0.39879493 -0.32306637 0.02368066
v 0.39872331 -0.34897057 0.02368066
v 0.39861582 -0.37530619 0.02376558
v 0.39847249 -0.38848303 0.02393544
v 0.39818589 -0.40164185 0.02419022
v 0.40476020 -0.40164185 0.03115443
v 0.40425864 -0.41481865 0.03191881
v 0.40345251 -0.42795950 0.03302289
v 0.40300468 -0.43993187 0.03506121
v 0.39875910 -0.45305474 0.03310782
v 0.40825337 -0.43473667 0.04032681
v 0.40244932 -0.46747192 0.04695131
v 0.39757680 -0.48129591 0.04669653
v 0.39567796 -0.48852244 0.05094298
v 0.39336709 -0.49711525 0.06011536
v 0.38779592 -0.50669676 0.06011536
v 0.43560760 -0.50669676 0.42870916
v 0.43422825 -0.50669676 0.41563004
v 0.43490900 -0.50146557 0.40577822
v 0.43442530 -0.49991959 0.39703048
v 0.43467612 -0.48771352 0.36823940
v 0.42147369 -0.47435694 0.21069527
v 0.43034098 -0.48064872 0.31031751
v 0.41678032 -0.46747192 0.15226382
v 0.41538304 -0.46747192 0.13909978
v 0.41540093 -0.45429512 0.11277165
v 0.41678032 -0.45429512 0.12593569
v 0.41601002 -0.44113630 0.09960757
v 0.41592046 -0.42795950 0.08644348
v 0.41536514 -0.41481865 0.07327944
v 0.41663700 -0.41481865 0.08644348
v 0.41785513 -0.41481865 0.09960757
v 0.42254850 -0.41481865 0.15226382
v 0.42487730 -0.41481865 0.17859195
v 0.41701320 -0.40164185 0.08644348
v 0.41609957 -0.38848303 0.07327944
v 0.41495311 -0.37530619 0.06011536
v 0.41359165 -0.36214737 0.04695131
v 0.41393203 -0.32306637 0.04695131
v 0.40554840 -0.32306637 0.03030512
v 0.40531551 -0.34897057 0.03022020
v 0.40527972 -0.36214737 0.03030512
v 0.40520806 -0.37530619 0.03047502
v 0.40504684 -0.38848303 0.03072980
v 0.41015225 -0.38848303 0.03735430
v 0.40982977 -0.40164185 0.03777893
v 0.40932821 -0.41481865 0.03854331
v 0.40864747 -0.42795950 0.03964739
v 0.40739351 -0.44352719 0.04380891
v 0.41169281 -0.41481865 0.04695131
v 0.41040302 -0.42795950 0.04695131
v 0.41106583 -0.44113630 0.06011536
v 0.40891618 -0.43993187 0.04771569
v 0.40841459 -0.44870442 0.05255666
v 0.40621121 -0.45357607 0.04771569
v 0.40748310 -0.45747697 0.05748255
v 0.40581711 -0.46632145 0.06113451
v 0.40076547 -0.48064872 0.06011536
v 0.39664532 -0.49053583 0.06011536
v 0.39440611 -0.49912860 0.07030689
v 0.38851246 -0.50669676 0.06359746
v 0.42321131 -0.50669676 0.32101864
v 0.42299636 -0.50423397 0.31031751
v 0.42222606 -0.50240035 0.29715346
v 0.42168867 -0.50110605 0.28798108
v 0.42116915 -0.49975778 0.27923334
v 0.42168867 -0.48809102 0.24831902
v 0.42120498 -0.48656301 0.23957131
v 0.41251684 -0.46747192 0.11277165
v 0.41396786 -0.46747192 0.12593569
v 0.41396786 -0.45429512 0.09960757
v 0.41459484 -0.44113630 0.08644348
v 0.41450528 -0.42795950 0.07327944
v 0.41583086 -0.40164185 0.07327944
v 0.41380664 -0.41481865 0.06011536
v 0.41445151 -0.40164185 0.06011536
v 0.41480978 -0.38848303 0.06011536
v 0.41343043 -0.37530619 0.04695131
v 0.41049258 -0.36214737 0.03692963
v 0.41081506 -0.32306637 0.03701455
v 0.41070756 -0.32306637 0.03667485
v 0.41036719 -0.37530619 0.03709948
v 0.41309010 -0.38848303 0.04695131
v 0.41255268 -0.40164185 0.04695131
v 0.41276762 -0.42795950 0.06011536
v 0.41303633 -0.44113630 0.07327944
v 0.41074340 -0.45429512 0.07327944
v 0.40898784 -0.45357607 0.06113451
v 0.40828920 -0.46116216 0.06623030
v 0.40690985 -0.46959316 0.07327944
v 0.40313007 -0.48064872 0.07327944
v 0.39736185 -0.49436483 0.07412874
v 0.39517637 -0.50062066 0.07913957
v 0.39118161 -0.50579792 0.07412874
v 0.39062629 -0.50669676 0.07404382
v 0.42193945 -0.50669676 0.31031751
v 0.42034512 -0.50669676 0.29715346
v 0.40805632 -0.50004545 0.17324142
v 0.40834296 -0.48751576 0.13154104
v 0.40782344 -0.48611361 0.12270837
v 0.40950733 -0.47784438 0.11277165
v 0.40871913 -0.47552542 0.09960757
v 0.40827130 -0.47423112 0.09255843
v 0.41097628 -0.46747192 0.09960757
v 0.41244518 -0.45429512 0.08644348
v 0.40880869 -0.46301375 0.07327944
v 0.40768015 -0.47221772 0.08381068
v 0.40569172 -0.47942635 0.08746264
v 0.40637243 -0.48210484 0.09960757
v 0.39958313 -0.49380759 0.08644348
v 0.39576752 -0.50166329 0.08644348
v 0.39281177 -0.50669676 0.08644348
v 0.41901953 -0.50669676 0.28653727
v 0.39766640 -0.50513280 0.11277165
v 0.40325546 -0.49380759 0.11277165
v 0.40676653 -0.49706132 0.15226382
v 0.41534721 -0.50669676 0.25732155
v 0.41368125 -0.50669676 0.24415750
v 0.41036719 -0.50669676 0.21816908
v 0.40594250 -0.49519176 0.13909978
v 0.40721439 -0.48442383 0.11277165
v 0.40941777 -0.46768765 0.08746264
v 0.40149990 -0.49380759 0.09960757
v 0.39675277 -0.50346095 0.09960757
v 0.39490766 -0.50669676 0.09960757
v 0.39780968 -0.50669676 0.12050020
v 0.39678860 -0.50669676 0.11277165
v 0.40191194 -0.50669676 0.15226382
f 1 2 3
f 1 3 4
f 1 4 10
f 1 10 43
f 1 43 59
f 1 59 82
f 1 82 117
f 1 117 147
f 1 147 146
f 1 146 145
f 1 145 179
f 1 179 224
f 1 224 223
f 1 223 222
f 1 222 274
f 1 274 319
f 1 319 353
f 1 353 370
f 1 370 383
f 1 383 385
f 1 385 384
f 1 384 386
f 1 386 377
f 1 377 376
f 1 376 375
f 1 375 371
f 1 371 355
f 1 355 354
f 1 354 320
f 1 320 276
f 1 276 275
f 1 275 225
f 1 225 180
f 1 180 148
f 1 148 119
f 1 119 118
f 1 118 83
f 1 83 60
f 1 60 45
f 1 45 44
f 1 44 11
f 1 11 5
f 1 5 33
f 1 33 47
f 1 47 65
f 1 65 66
f 1 66 48
f 1 48 34
f 1 34 6
f 1 6 2
f 2 6 7
f 2 7 3
f 3 8 9
f 3 9 4
f 3 7 8
f 4 9 10
f 5 11 12
f 5 12 13
f 5 13 14
f 5 14 15
f 5 15 16
f 5 16 17
f 5 17 18
f 5 18 19
f 5 19 20
f 5 20 21
f 5 21 22
f 5 22 23
f 5 23 24
f 5 24 25
f 5 25 26
f 5 26 27
f 5 27 28
f 5 28 29
f 5 29 30
f 5 30 31
f 5 31 32
f 5 32 33
f 6 34 35
f 6 35 36
f 6 36 37
f 6 37 7
f 7 37 38
f 7 38 39
f 7 39 8
f 8 39 40
f 8 40 9
f 9 40 41
f 9 41 42
f 9 42 10
f 10 42 43
f 11 44 12
f 12 44 45
f 12 45 46
f 12 46 63
f 12 63 94
f 12 94 127
f 12 127 126
f 12 126 160
f 12 160 204
f 12 204 203
f 12 203 256
f 12 256 297
f 12 297 338
f 12 338 339
f 12 339 298
f 12 298 259
f 12 259 257
f 12 257 205
f 12 205 161
f 12 161 128
f 12 128 99
f 12 99 70
f 12 70 98
f 12 98 97
f 12 97 95
f 12 95 64
f 12 64 47
f 12 47 33
f 12 33 32
f 12 32 31
f 12 31 30
f 12 30 29
f 12 29 28
f 12 28 27
f 12 27 26
f 12 26 25
f 12 25 24
f 12 24 23
f 12 23 22
f 12 22 21
f 12 21 20
f 12 20 19
f 12 19 18
f 12 18 17
f 12 17 16
f 12 16 15
f 12 15 14
f 12 14 13
f 34 48 35
f 35 37 36
f 35 48 49
f 35 49 37
f 37 50 38
f 37 49 50
f 38 51 52
f 38 52 39
f 38 50 51
f 39 52 53
f 39 53 40
f 40 53 54
f 40 54 41
f 41 54 55
f 41 55 56
f 41 56 42
f 42 56 57
f 42 57 58
f 42 58 43
f 43 58 59
f 45 60 61
f 45 61 62
f 45 62 46
f 46 62 63
f 47 64 65
f 48 66 67
f 48 67 49
f 49 67 68
f 49 68 50
f 50 68 69
f 50 69 51
f 51 69 70
f 51 70 71
f 51 71 72
f 51 72 73
f 51 73 52
f 52 73 74
f 52 74 53
f 53 74 75
f 53 75 54
f 54 75 76
f 54 76 55
f 55 76 77
f 55 77 78
f 55 78 56
f 56 78 57
f 57 78 79
f 57 79 80
f 57 80 81
f 57 81 58
f 58 81 59
f 59 81 82
f 60 83 61
f 61 83 84
f 61 84 85
f 61 85 86
f 61 86 87
f 61 87 88
f 61 88 62
f 62 88 89
f 62 89 90
f 62 90 91
f 62 91 63
f 63 91 90
f 63 90 89
f 63 89 92
f 63 92 93
f 63 93 94
f 64 95 65
f 65 96 66
f 65 95 67
f 65 67 96
f 66 96 67
f 67 95 97
f 67 97 68
f 68 97 98
f 68 98 69
f 69 98 70
f 70 99 71
f 71 99 72
f 72 99 100
f 72 100 101
f 72 101 102
f 72 102 73
f 73 102 103
f 73 103 74
f 74 103 104
f 74 104 105
f 74 105 75
f 75 106 107
f 75 107 76
f 75 105 106
f 76 107 108
f 76 108 109
f 76 109 77
f 77 109 78
f 78 109 110
f 78 110 111
f 78 111 112
f 78 112 79
f 79 112 113
f 79 113 114
f 79 114 80
f 80 114 115
f 80 115 81
f 81 115 116
f 81 116 117
f 81 117 82
f 83 118 84
f 84 118 119
f 84 119 120
f 84 120 121
f 84 121 85
f 85 121 122
f 85 122 123
f 85 123 86
f 86 123 124
f 86 124 87
f 87 124 88
f 88 124 125
f 88 125 89
f 89 125 92
f 92 125 126
f 92 126 93
f 93 127 94
f 93 126 127
f 99 128 129
f 99 129 100
f 100 129 101
f 101 129 102
f 102 129 130
f 102 130 131
f 102 131 103
f 103 131 104
f 104 106 105
f 104 131 132
f 104 132 106
f 106 132 133
f 106 133 134
f 106 134 107
f 107 134 135
f 107 135 108
f 108 135 136
f 108 136 109
f 109 136 137
f 109 137 110
f 110 137 111
f 111 113 112
f 111 137 138
f 111 138 139
f 111 139 140
f 111 140 113
f 113 141 114
f 113 140 142
f 113 142 143
f 113 143 141
f 114 141 115
f 115 141 144
f 115 144 145
f 115 145 146
f 115 146 116
f 116 147 117
f 116 146 147
f 119 148 149
f 119 149 120
f 120 150 121
f 120 149 151
f 120 151 152
f 120 152 150
f 121 150 153
f 121 153 122
f 122 153 154
f 122 154 123
f 123 154 155
f 123 155 124
f 124 155 156
f 124 156 157
f 124 157 158
f 124 158 159
f 124 159 160
f 124 160 125
f 125 160 126
f 128 161 162
f 128 162 129
f 129 162 163
f 129 163 164
f 129 164 165
f 129 165 130
f 130 165 131
f 131 165 166
f 131 166 167
f 131 167 132
f 132 167 133
f 133 167 168
f 133 168 169
f 133 169 170
f 133 170 134
f 134 170 135
f 135 170 171
f 135 171 136
f 136 171 172
f 136 172 137
f 137 172 138
f 138 173 139
f 138 172 173
f 139 173 174
f 139 174 175
f 139 175 142
f 139 142 140
f 141 143 144
f 142 175 176
f 142 176 177
f 142 177 143
f 143 177 144
f 144 177 178
f 144 178 179
f 144 179 145
f 148 180 181
f 148 181 149
f 149 181 182
f 149 182 183
f 149 183 184
f 149 184 151
f 150 152 185
f 150 185 153
f 151 184 186
f 151 186 187
f 151 187 188
f 151 188 189
f 151 189 190
f 151 190 191
f 151 191 192
f 151 192 193
f 151 193 152
f 152 193 192
f 152 192 194
f 152 194 195
f 152 195 196
f 152 196 197
f 152 197 185
f 153 185 198
f 153 198 154
f 154 198 199
f 154 199 155
f 155 199 200
f 155 200 156
f 156 200 201
f 156 201 202
f 156 202 203
f 156 203 157
f 157 203 204
f 157 204 158
f 158 204 159
f 159 204 160
f 161 205 206
f 161 206 163
f 161 163 162
f 163 206 207
f 163 207 208
f 163 208 164
f 164 208 209
f 164 209 165
f 165 209 166
f 166 209 210
f 166 210 167
f 167 210 168
f 168 210 211
f 168 211 212
f 168 212 169
f 169 212 213
f 169 213 170
f 170 214 171
f 170 213 214
f 171 214 215
f 171 215 216
f 171 216 172
f 172 216 217
f 172 217 173
f 173 217 174
f 174 217 218
f 174 218 219
f 174 219 175
f 175 219 176
f 176 219 178
f 176 178 177
f 178 219 220
f 178 220 221
f 178 221 222
f 178 222 223
f 178 223 224
f 178 224 179
f 180 225 226
f 180 226 227
f 180 227 181
f 181 227 228
f 181 228 229
f 181 229 230
f 181 230 182
f 182 230 183
f 183 231 232
f 183 232 184
f 183 230 233
f 183 233 234
f 183 234 235
f 183 235 236
f 183 236 237
f 183 237 231
f 184 232 186
f 185 197 198
f 186 232 231
f 186 231 187
f 187 231 188
f 188 231 237
f 188 237 189
f 189 237 238
f 189 238 239
f 189 239 240
f 189 240 190
f 190 240 241
f 190 241 194
f 190 194 192
f 190 192 191
f 194 241 242
f 194 242 196
f 194 196 195
f 196 242 243
f 196 243 244
f 196 244 245
f 196 245 197
f 197 246 247
f 197 247 198
f 197 245 248
f 197 248 246
f 198 247 249
f 198 249 199
f 199 249 250
f 199 250 200
f 200 250 251
f 200 251 252
f 200 252 201
f 201 252 253
f 201 253 202
f 202 253 203
f 203 253 254
f 203 254 255
f 203 255 256
f 205 257 206
f 206 257 258
f 206 258 207
f 207 258 259
f 207 259 260
f 207 260 261
f 207 261 208
f 208 261 209
f 209 261 262
f 209 262 210
f 210 262 263
f 210 263 211
f 211 263 264
f 211 264 265
f 211 265 212
f 212 265 266
f 212 266 213
f 213 266 267
f 213 267 215
f 213 215 214
f 215 267 268
f 215 268 217
f 215 217 216
f 217 268 218
f 218 268 269
f 218 269 219
f 219 269 270
f 219 270 220
f 220 271 272
f 220 272 221
f 220 270 271
f 221 272 273
f 221 273 222
f 222 273 274
f 225 275 226
f 226 275 227
f 227 275 276
f 227 276 277
f 227 277 228
f 228 277 278
f 228 278 279
f 228 279 229
f 229 279 234
f 229 234 230
f 230 234 233
f 234 280 281
f 234 281 236
f 234 236 235
f 234 279 280
f 236 281 280
f 236 280 237
f 237 282 283
f 237 283 284
f 237 284 285
f 237 285 239
f 237 239 238
f 237 280 282
f 239 285 286
f 239 286 240
f 240 286 287
f 240 287 242
f 240 242 241
f 242 287 288
f 242 288 289
f 242 289 290
f 242 290 243
f 243 290 245
f 243 245 244
f 245 290 291
f 245 291 246
f 245 246 248
f 246 291 292
f 246 292 247
f 247 292 249
f 249 292 293
f 249 293 294
f 249 294 251
f 249 251 250
f 251 294 254
f 251 254 253
f 251 253 252
f 254 294 295
f 254 295 255
f 255 295 256
f 256 296 297
f 256 295 296
f 257 259 258
f 259 298 260
f 260 298 299
f 260 299 261
f 261 299 300
f 261 300 301
f 261 301 262
f 262 301 302
f 262 302 263
f 263 302 264
f 264 302 303
f 264 303 304
f 264 304 305
f 264 305 265
f 265 305 306
f 265 306 266
f 266 306 269
f 266 269 267
f 267 269 268
f 269 307 270
f 269 306 308
f 269 308 309
f 269 309 310
f 269 310 311
f 269 311 312
f 269 312 307
f 270 307 313
f 270 313 314
f 270 314 315
f 270 315 316
f 270 316 271
f 271 316 272
f 272 316 317
f 272 317 273
f 273 317 318
f 273 318 274
f 274 318 319
f 276 320 321
f 276 321 322
f 276 322 323
f 276 323 324
f 276 324 325
f 276 325 277
f 277 325 326
f 277 326 278
f 278 326 280
f 278 280 279
f 280 326 327
f 280 327 328
f 280 328 283
f 280 283 282
f 283 328 284
f 284 328 329
f 284 329 330
f 284 330 286
f 284 286 285
f 286 330 331
f 286 331 287
f 287 331 288
f 288 332 289
f 288 331 333
f 288 333 334
f 288 334 332
f 289 332 290
f 290 332 293
f 290 293 291
f 291 293 292
f 293 332 294
f 294 332 335
f 294 335 295
f 295 335 296
f 296 335 336
f 296 336 337
f 296 337 297
f 297 337 338
f 298 339 299
f 299 339 300
f 300 339 337
f 300 337 301
f 301 337 340
f 301 340 302
f 302 340 303
f 303 340 336
f 303 336 341
f 303 341 304
f 304 341 342
f 304 342 305
f 305 342 308
f 305 308 306
f 307 312 313
f 308 342 333
f 308 333 343
f 308 343 309
f 309 343 310
f 310 343 344
f 310 344 345
f 310 345 346
f 310 346 312
f 310 312 311
f 312 346 314
f 312 314 313
f 314 346 347
f 314 347 315
f 315 347 348
f 315 348 316
f 316 348 349
f 316 349 317
f 317 349 350
f 317 350 318
f 318 350 351
f 318 351 352
f 318 352 353
f 318 353 319
f 320 354 322
f 320 322 321
f 322 354 323
f 323 354 355
f 323 355 356
f 323 356 357
f 323 357 324
f 324 357 358
f 324 358 325
f 325 358 326
f 326 358 359
f 326 359 360
f 326 360 327
f 327 360 361
f 327 361 362
f 327 362 363
f 327 363 329
f 327 329 328
f 329 363 330
f 330 363 344
f 330 344 331
f 331 344 343
f 331 343 333
f 332 334 335
f 333 342 334
f 334 342 341
f 334 341 335
f 335 341 336
f 336 340 337
f 337 339 338
f 344 363 345
f 345 363 364
f 345 364 347
f 345 347 346
f 347 364 348
f 348 364 365
f 348 365 349
f 349 365 366
f 349 366 367
f 349 367 368
f 349 368 350
f 350 368 351
f 351 368 369
f 351 369 370
f 351 370 352
f 352 370 353
f 355 371 356
f 356 372 373
f 356 373 374
f 356 374 357
f 356 371 375
f 356 375 376
f 356 376 377
f 356 377 372
f 357 374 378
f 357 378 373
f 357 373 358
f 358 373 379
f 358 379 359
f 359 379 360
f 360 379 367
f 360 367 361
f 361 367 366
f 361 366 365
f 361 365 380
f 361 380 362
f 362 380 364
f 362 364 363
f 364 380 365
f 367 381 368
f 367 379 381
f 368 381 369
f 369 381 382
f 369 382 383
f 369 383 370
f 372 384 385
f 372 385 382
f 372 382 373
f 372 377 386
f 372 386 384
f 373 382 381
f 373 381 379
f 373 378 374
f 382 385 383

