# https://github.com/mikedh/trimesh
v -0.20704503 0.37108796 -0.00273946
v -0.21728268 0.37108796 -0.00266611
v -0.28053111 0.50440048 -0.00127244
v -0.26994490 0.50440048 -0.00134579
v -0.25678930 0.50440048 -0.00141914
v -0.23045821 0.50440048 -0.00156583
v -0.21728268 0.50440048 -0.00163918
v -0.20704503 0.50440048 -0.00163918
v -0.20704503 0.37108796 0.58891997
v -0.25678930 0.37108796 -0.00237271
v -0.24362376 0.37530333 -0.00244606
v -0.28312041 0.37530333 -0.00215263
v -0.29628596 0.37108796 -0.00207928
v -0.30878427 0.37530333 -0.00193258
v -0.29369666 0.50440048 -0.00112570
v -0.20704503 0.50440048 0.73701822
v -0.20704503 0.37175356 0.58972685
v -0.30878427 0.37108796 0.66491293
v -0.30878427 0.37108796 -0.00193258
v -0.30878427 0.49381642 -0.00097900
v -0.30878427 0.50440048 -0.00083230
v -0.30878427 0.50440048 0.74662736
v -0.20704503 0.49523893 0.72740908
v -0.20704503 0.37688247 0.59588844
v -0.20704503 0.38895432 0.61033884
v -0.20704503 0.39597560 0.61862764
v -0.20704503 0.40148295 0.62508264
v -0.20704503 0.40306210 0.62691645
v -0.20704503 0.40590714 0.63021730
v -0.20704503 0.40821711 0.63285799
v -0.20704503 0.41219755 0.63740582
v -0.20704503 0.42060217 0.64694163
v -0.20704503 0.43162998 0.65919145
v -0.20704503 0.43775078 0.66593986
v -0.20704503 0.44569863 0.67459544
v -0.20704503 0.45835774 0.68831231
v -0.20704503 0.46958131 0.70034209
v -0.20704503 0.47587176 0.70701714
v -0.20704503 0.48238403 0.71391224
v -0.20704503 0.48384571 0.71545265
f 1 2 3
f 1 3 4
f 1 4 5
f 1 5 6
f 1 6 7
f 1 7 8
f 1 8 16
f 1 16 23
f 1 23 40
f 1 40 39
f 1 39 38
f 1 38 37
f 1 37 36
f 1 36 35
f 1 35 34
f 1 34 33
f 1 33 32
f 1 32 31
f 1 31 30
f 1 30 29
f 1 29 28
f 1 28 27
f 1 27 26
f 1 26 25
f 1 25 24
f 1 24 17
f 1 17 9
f 1 9 18
f 1 18 19
f 1 19 13
f 1 13 10
f 1 10 2
f 2 10 11
f 2 11 3
f 3 11 12
f 3 12 13
f 3 13 14
f 3 14 15
f 3 15 21
f 3 21 22
f 3 22 16
f 3 16 8
f 3 8 7
f 3 7 6
f 3 6 5
f 3 5 4
f 9 17 18
f 10 13 12
f 10 12 11
f 13 19 14
f 14 19 18
f 14 18 22
f 14 22 21
f 14 21 20
f 14 20 15
f 15 20 21
f 16 22 18
f 16 18 23
f 17 24 18
f 18 24 25
f 18 25 26
f 18 26 27
f 18 27 28
f 18 28 29
f 18 29 30
f 18 30 31
f 18 31 32
f 18 32 33
f 18 33 34
f 18 34 35
f 18 35 36
f 18 36 37
f 18 37 38
f 18 38 39
f 18 39 40
f 18 40 23

