# https://github.com/mikedh/trimesh
v 0.46747361 -0.00482638 0.86040909
v 0.47852623 -0.07242714 0.85951106
v 0.47912365 -0.00660208 0.85990020
v 0.47914661 -0.00482638 0.85990020
v 0.46131542 -0.00482638 0.85768508
v 0.46055712 -0.05928083 0.85705648
v 0.46060308 -0.07242714 0.85699661
v 0.46085586 -0.10619638 0.85678708
v 0.46372813 -0.32304841 0.85582918
v 0.46747361 -0.07242714 0.85975054
v 0.47029997 -0.32304841 0.85765516
v 0.47551604 -0.32304841 0.85765516
v 0.48369634 -0.01977955 0.85017164
v 0.47905470 -0.01977955 0.85981041
v 0.47841132 -0.08560463 0.85939133
v 0.48376530 -0.00482638 0.85017164
v 0.46032734 -0.00482638 0.85723608
v 0.44819474 -0.25675606 0.84307729
v 0.44824070 -0.26993352 0.84301740
v 0.44847048 -0.32304841 0.84280787
v 0.45504231 -0.32304841 0.84924369
v 0.47933044 -0.32304841 0.85041111
v 0.48282318 -0.08560463 0.85017164
v 0.48036447 -0.32304841 0.83700069
v 0.45527209 -0.32304841 0.55460304
v 0.47944535 -0.32304841 0.85017164
v 0.45472062 -0.00482638 0.55460304
v 0.45527209 -0.32261228 0.55460304
v 0.45465167 -0.00482638 0.85124927
v 0.44807987 -0.21725478 0.84319703
v 0.44812582 -0.23043225 0.84316708
v 0.43560261 -0.32304841 0.82930763
v 0.44826369 -0.32304841 0.84259834
v 0.48034151 -0.32304841 0.83741975
v 0.24904116 -0.32304841 0.55460304
v 0.26050736 -0.00482638 0.55460304
v 0.44842456 -0.00482638 0.84460393
v 0.45375554 -0.00660208 0.85029137
v 0.42942142 -0.32304841 0.82272214
v 0.32691489 -0.32304841 0.70313570
v 0.33141864 -0.00482638 0.70738633
v 0.32868421 -0.00482638 0.70169886
v 0.28743802 -0.00482638 0.61324381
v 0.28203810 -0.00482638 0.60165934
v 0.28125685 -0.00482638 0.59998303
v 0.27737350 -0.00482638 0.59160150
v 0.27477694 -0.00482638 0.58591404
v 0.44759731 -0.00482638 0.84370590
v 0.44759731 -0.00660208 0.84370590
v 0.42282663 -0.32304841 0.81565772
v 0.33036165 -0.32304841 0.70948172
v 0.33771470 -0.00482638 0.71849186
v 0.33047652 -0.32304841 0.70969125
v 0.44231228 -0.00482638 0.83792864
v 0.41680630 -0.32304841 0.80910216
v 0.34210357 -0.00482638 0.72543655
v 0.33663472 -0.32304841 0.71849186
v 0.33663472 -0.32261228 0.71849186
v 0.43500515 -0.00482638 0.82990630
v 0.41021151 -0.32304841 0.80185814
v 0.34210357 -0.03292587 0.72546649
v 0.34283890 -0.00482638 0.72633457
v 0.34178188 -0.32304841 0.72534675
v 0.36648364 -0.00482638 0.75390381
v 0.37241206 -0.00660208 0.76048930
v 0.40426009 -0.32304841 0.79527264
v 0.34750351 -0.00482638 0.73202204
v 0.34196570 -0.32304841 0.72555629
v 0.35487956 -0.00482638 0.74082264
v 0.35409830 -0.00660208 0.73992462
v 0.35409830 -0.00482638 0.73992462
v 0.34839967 -0.00482638 0.73309966
v 0.35991185 -0.00482638 0.74651010
v 0.36648364 -0.00660208 0.75390381
v 0.39768830 -0.32304841 0.78796874
v 0.34764137 -0.32304841 0.73193223
v 0.36648364 -0.01977955 0.75387388
v 0.35991185 -0.01977955 0.74648017
v 0.35991185 -0.00660208 0.74651010
v 0.39157602 -0.32304841 0.78114377
v 0.37932855 -0.32304841 0.76743399
f 1 2 3
f 1 3 4
f 1 4 16
f 1 16 27
f 1 27 36
f 1 36 47
f 1 47 46
f 1 46 45
f 1 45 44
f 1 44 43
f 1 43 42
f 1 42 41
f 1 41 52
f 1 52 56
f 1 56 62
f 1 62 67
f 1 67 72
f 1 72 71
f 1 71 69
f 1 69 73
f 1 73 64
f 1 64 59
f 1 59 54
f 1 54 48
f 1 48 37
f 1 37 29
f 1 29 17
f 1 17 5
f 1 5 6
f 1 6 7
f 1 7 8
f 1 8 9
f 1 9 10
f 1 10 11
f 1 11 12
f 1 12 2
f 2 13 14
f 2 14 3
f 2 12 15
f 2 15 13
f 3 14 4
f 4 14 13
f 4 13 16
f 5 17 6
f 6 17 18
f 6 18 19
f 6 19 7
f 7 19 20
f 7 20 21
f 7 21 8
f 8 21 9
f 9 21 20
f 9 20 33
f 9 33 32
f 9 32 39
f 9 39 50
f 9 50 55
f 9 55 60
f 9 60 66
f 9 66 75
f 9 75 80
f 9 80 81
f 9 81 76
f 9 76 68
f 9 68 63
f 9 63 57
f 9 57 53
f 9 53 51
f 9 51 40
f 9 40 35
f 9 35 25
f 9 25 24
f 9 24 34
f 9 34 26
f 9 26 22
f 9 22 12
f 9 12 11
f 9 11 10
f 12 22 15
f 13 15 23
f 13 23 24
f 13 24 25
f 13 25 16
f 15 22 26
f 15 26 23
f 16 25 28
f 16 28 27
f 17 29 30
f 17 30 31
f 17 31 18
f 18 31 32
f 18 32 19
f 19 32 33
f 19 33 20
f 23 26 34
f 23 34 24
f 25 35 36
f 25 36 27
f 25 27 28
f 29 37 38
f 29 38 30
f 30 39 32
f 30 32 31
f 30 38 37
f 30 37 39
f 35 40 41
f 35 41 42
f 35 42 43
f 35 43 44
f 35 44 45
f 35 45 46
f 35 46 47
f 35 47 36
f 37 48 49
f 37 49 50
f 37 50 39
f 40 51 41
f 41 51 53
f 41 53 52
f 48 54 49
f 49 54 55
f 49 55 50
f 52 53 56
f 53 57 58
f 53 58 56
f 54 59 55
f 55 59 60
f 56 61 62
f 56 58 61
f 57 63 58
f 58 63 61
f 59 64 65
f 59 65 66
f 59 66 60
f 61 67 62
f 61 63 67
f 63 68 69
f 63 69 70
f 63 70 71
f 63 71 72
f 63 72 67
f 64 73 79
f 64 79 74
f 64 74 65
f 65 74 66
f 66 74 75
f 68 76 77
f 68 77 78
f 68 78 79
f 68 79 69
f 69 79 73
f 69 71 70
f 74 79 78
f 74 78 77
f 74 77 75
f 75 77 80
f 76 81 77
f 77 81 80

