# https://github.com/mikedh/trimesh
v -0.00984472 0.00382748 0.10207067
v -0.01735026 0.00382748 0.10591396
v -0.01747429 0.00573850 0.10584520
v -0.01749308 0.00653373 0.10582710
v -0.01749308 0.00726883 0.10582710
v -0.00922834 0.00979232 0.10207067
v 0.00999216 0.00382748 0.10207067
v -0.01803429 0.00382748 0.10660517
v -0.01795536 0.00521243 0.10643870
v -0.01806812 0.00653373 0.10655450
v -0.01873711 0.00653373 0.10767999
v -0.01890248 0.00730152 0.10854129
v -0.01774489 0.00749945 0.10655450
v -0.01680529 0.00979232 0.10860281
v -0.01652341 0.00979232 0.10820473
v -0.01544099 0.00979232 0.10694535
v -0.01520797 0.00979232 0.10668117
v -0.01379481 0.00979232 0.10553397
v 0.00839108 0.00979232 0.10207067
v 0.01558467 0.00793969 0.10462201
v 0.01699031 0.00653373 0.10503094
v 0.01699031 0.00382748 0.10494047
v -0.01809442 0.00382748 0.10669565
v -0.01877094 0.00512718 0.10762570
v -0.01893255 0.00653373 0.10838568
v -0.01890248 0.00730152 0.10889956
v -0.01816583 0.00979232 0.12134502
v -0.01815456 0.00979232 0.12062123
v -0.01762838 0.00979232 0.10995629
v -0.01756449 0.00979232 0.10983686
v 0.01338976 0.00979232 0.10449172
v 0.01699031 0.00881433 0.10561721
v 0.01769314 0.00864268 0.10585244
v 0.01699031 0.00793969 0.10520827
v 0.01776830 0.00793969 0.10575473
v 0.01785851 0.00653373 0.10565340
v 0.01792240 0.00382748 0.10559549
v -0.01874463 0.00382748 0.10767999
v -0.01894007 0.00382748 0.10838568
v -0.01894383 0.00512718 0.10832778
v -0.01898141 0.00382748 0.12061400
v -0.01893255 0.00653373 0.10902261
v -0.01894758 0.00493976 0.12061400
v -0.01893255 0.00487203 0.12202175
v -0.01883107 0.00557560 0.12202175
v -0.01816208 0.00979232 0.12196385
v 0.01383325 0.00979232 0.10474143
v 0.01734736 0.00979232 0.10792607
v 0.01785099 0.00879156 0.10655450
v 0.01814415 0.00793969 0.10655450
v 0.01500212 0.00979232 0.10541093
v 0.01643031 0.00979232 0.10669202
v 0.01830200 0.00653373 0.10655450
v 0.01842227 0.00382748 0.10655450
v -0.01897765 0.00382748 0.12074428
v -0.01893631 0.00382748 0.12211223
v -0.01892879 0.00382748 0.12229679
v -0.01836127 0.00512718 0.13467710
v -0.01822221 0.00653373 0.13467710
v -0.01827859 0.00653373 0.13327296
v -0.01813953 0.00979232 0.12265868
v 0.01735864 0.00979232 0.10796226
v 0.01806146 0.00911444 0.10796226
v 0.01850119 0.00793969 0.10796226
v 0.01856885 0.00653373 0.10796226
v 0.01865529 0.00382748 0.10796226
v -0.01832369 0.00382748 0.13467710
v -0.01828234 0.00382748 0.13477119
v -0.01782382 0.00512718 0.13588944
v -0.01774865 0.00653373 0.13579535
v -0.01759832 0.00736516 0.13557822
v -0.01776744 0.00758353 0.13467710
v -0.01780878 0.00799925 0.13323315
v -0.01752315 0.00876412 0.13273737
v -0.01701200 0.00979232 0.13190140
v 0.01765179 0.00979232 0.10929402
v 0.01800884 0.00979232 0.13151417
v 0.01894093 0.00815923 0.13327296
v 0.01911382 0.00745274 0.13253109
v 0.01919650 0.00623946 0.12061400
v 0.01917019 0.00610575 0.11921348
v 0.01935435 0.00512718 0.12061400
v 0.01929798 0.00512718 0.11921348
v 0.01934308 0.00382748 0.11921348
v -0.01780127 0.00382748 0.13585325
v -0.01775617 0.00382748 0.13590753
v -0.01722999 0.00512718 0.13659151
v -0.01714731 0.00653373 0.13649742
v -0.01624153 0.00736633 0.13690274
v -0.01407669 0.00979232 0.13620428
v -0.01531320 0.00979232 0.13496300
v -0.01545978 0.00979232 0.13480376
v -0.01654972 0.00979232 0.13347201
v -0.01671885 0.00979232 0.13325487
v 0.01800884 0.00979232 0.13169874
v 0.01911757 0.00731320 0.13401484
v 0.01912509 0.00745625 0.13327296
v 0.01823811 0.00904788 0.13327296
v 0.01792240 0.00877463 0.13467710
v 0.01771193 0.00865494 0.13539727
v 0.01856885 0.00784511 0.13456130
v 0.01941449 0.00382748 0.12061400
v 0.01918147 0.00653373 0.13327296
v -0.01717737 0.00382748 0.13655532
v -0.01712476 0.00382748 0.13659151
v -0.01647455 0.00382748 0.13700769
v -0.01652341 0.00512718 0.13702940
v -0.01644448 0.00653373 0.13700406
v -0.01535079 0.00653373 0.13736596
v -0.01535079 0.00765476 0.13706921
v -0.01223507 0.00979232 0.13731529
v -0.01256957 0.00979232 0.13717778
v -0.01326863 0.00979232 0.13678331
v -0.01390380 0.00979232 0.13635990
v 0.01777582 0.00979232 0.13222710
v 0.01913636 0.00653373 0.13405465
v 0.01926415 0.00382748 0.13327296
v 0.01787354 0.00793969 0.13553479
v 0.01872294 0.00653373 0.13476034
v 0.01735112 0.00979232 0.13309564
v 0.01729099 0.00979232 0.13321506
v 0.01699031 0.00793969 0.13596906
v 0.01677984 0.00979232 0.13413788
v 0.01548695 0.00979232 0.13532127
v 0.01518252 0.00979232 0.13558907
v 0.01417527 0.00979232 0.13616448
v 0.01308157 0.00979232 0.13665665
v 0.01940321 0.00382748 0.12191319
v -0.01535079 0.00382748 0.13728634
v -0.01535079 0.00512718 0.13733701
v -0.00129058 0.00979232 0.13893657
v -0.01070915 0.00979232 0.13769890
v -0.01113385 0.00979232 0.13759757
v 0.01917771 0.00382748 0.13413427
v 0.01918522 0.00382748 0.13406913
v 0.01699031 0.00653373 0.13620428
v 0.01802012 0.00653373 0.13566145
v 0.01872670 0.00382748 0.13483634
v 0.01558467 0.00793969 0.13643228
v 0.01237875 0.00979232 0.13683036
v -0.00129058 0.00382748 0.13829964
v -0.00062910 0.00979232 0.13899085
v 0.01558467 0.00653373 0.13655170
v 0.01699031 0.00382748 0.13619705
v 0.01706924 0.00382748 0.13615724
v 0.01802388 0.00382748 0.13566145
v 0.01417902 0.00793969 0.13669646
v 0.00158460 0.00979232 0.13885695
v 0.00011882 0.00382748 0.13835030
v 0.00011882 0.00979232 0.13904152
v 0.01558467 0.00382748 0.13652637
v 0.00145306 0.00382748 0.13827431
v 0.00215588 0.00382748 0.13818746
f 1 2 3
f 1 3 4
f 1 4 5
f 1 5 6
f 1 6 19
f 1 19 7
f 1 7 22
f 1 22 37
f 1 37 54
f 1 54 66
f 1 66 84
f 1 84 102
f 1 102 128
f 1 128 117
f 1 117 135
f 1 135 134
f 1 134 138
f 1 138 146
f 1 146 145
f 1 145 144
f 1 144 151
f 1 151 153
f 1 153 152
f 1 152 149
f 1 149 141
f 1 141 129
f 1 129 106
f 1 106 105
f 1 105 104
f 1 104 86
f 1 86 85
f 1 85 68
f 1 68 67
f 1 67 57
f 1 57 56
f 1 56 55
f 1 55 41
f 1 41 39
f 1 39 38
f 1 38 23
f 1 23 8
f 1 8 2
f 2 8 3
f 3 8 9
f 3 9 4
f 4 9 10
f 4 10 5
f 5 10 11
f 5 11 12
f 5 12 13
f 5 13 14
f 5 14 15
f 5 15 16
f 5 16 17
f 5 17 18
f 5 18 6
f 6 18 17
f 6 17 16
f 6 16 15
f 6 15 14
f 6 14 30
f 6 30 29
f 6 29 28
f 6 28 27
f 6 27 46
f 6 46 61
f 6 61 75
f 6 75 94
f 6 94 93
f 6 93 92
f 6 92 91
f 6 91 90
f 6 90 114
f 6 114 113
f 6 113 112
f 6 112 111
f 6 111 133
f 6 133 132
f 6 132 131
f 6 131 142
f 6 142 150
f 6 150 148
f 6 148 140
f 6 140 127
f 6 127 126
f 6 126 125
f 6 125 124
f 6 124 123
f 6 123 121
f 6 121 120
f 6 120 115
f 6 115 95
f 6 95 77
f 6 77 76
f 6 76 62
f 6 62 48
f 6 48 52
f 6 52 51
f 6 51 47
f 6 47 31
f 6 31 19
f 7 19 20
f 7 20 21
f 7 21 22
f 8 23 24
f 8 24 9
f 9 24 10
f 10 24 11
f 11 24 25
f 11 25 12
f 12 25 42
f 12 42 26
f 12 26 27
f 12 27 28
f 12 28 29
f 12 29 13
f 13 29 30
f 13 30 14
f 19 31 32
f 19 32 33
f 19 33 34
f 19 34 20
f 20 34 21
f 21 34 35
f 21 35 36
f 21 36 37
f 21 37 22
f 23 38 24
f 24 38 39
f 24 39 40
f 24 40 25
f 25 40 41
f 25 41 42
f 26 42 43
f 26 43 44
f 26 44 45
f 26 45 46
f 26 46 27
f 31 47 33
f 31 33 32
f 33 48 49
f 33 49 50
f 33 50 35
f 33 35 34
f 33 47 51
f 33 51 52
f 33 52 48
f 35 50 53
f 35 53 36
f 36 53 54
f 36 54 37
f 39 41 40
f 41 55 44
f 41 44 43
f 41 43 42
f 44 55 56
f 44 56 57
f 44 57 58
f 44 58 59
f 44 59 60
f 44 60 45
f 45 60 61
f 45 61 46
f 48 62 63
f 48 63 49
f 49 63 64
f 49 64 50
f 50 64 53
f 53 64 65
f 53 65 54
f 54 65 66
f 57 67 58
f 58 67 68
f 58 68 69
f 58 69 70
f 58 70 59
f 59 70 71
f 59 71 72
f 59 72 73
f 59 73 61
f 59 61 60
f 61 73 74
f 61 74 75
f 62 76 63
f 63 77 78
f 63 78 64
f 63 76 77
f 64 78 79
f 64 79 80
f 64 80 81
f 64 81 82
f 64 82 83
f 64 83 65
f 65 83 84
f 65 84 66
f 68 85 69
f 69 85 86
f 69 86 87
f 69 87 70
f 70 87 88
f 70 88 71
f 71 88 89
f 71 89 90
f 71 90 91
f 71 91 92
f 71 92 93
f 71 93 94
f 71 94 72
f 72 74 73
f 72 94 74
f 74 94 75
f 77 95 78
f 78 96 97
f 78 97 79
f 78 95 98
f 78 98 99
f 78 99 100
f 78 100 101
f 78 101 96
f 79 97 80
f 80 97 82
f 80 82 81
f 82 102 83
f 82 97 103
f 82 103 102
f 83 102 84
f 86 104 87
f 87 104 105
f 87 105 106
f 87 106 107
f 87 107 108
f 87 108 88
f 88 108 89
f 89 108 109
f 89 109 110
f 89 110 111
f 89 111 112
f 89 112 113
f 89 113 114
f 89 114 90
f 95 115 98
f 96 116 117
f 96 117 103
f 96 103 97
f 96 101 118
f 96 118 119
f 96 119 116
f 98 115 99
f 99 115 120
f 99 120 121
f 99 121 100
f 100 122 118
f 100 118 101
f 100 121 123
f 100 123 124
f 100 124 125
f 100 125 126
f 100 126 127
f 100 127 122
f 102 103 128
f 103 117 128
f 106 129 130
f 106 130 107
f 107 130 109
f 107 109 108
f 109 130 131
f 109 131 132
f 109 132 133
f 109 133 111
f 109 111 110
f 116 134 135
f 116 135 117
f 116 119 134
f 118 122 136
f 118 136 137
f 118 137 119
f 119 137 138
f 119 138 134
f 122 127 139
f 122 139 136
f 127 140 139
f 129 141 142
f 129 142 131
f 129 131 130
f 136 143 144
f 136 144 145
f 136 145 146
f 136 146 137
f 136 139 143
f 137 146 138
f 139 140 147
f 139 147 143
f 140 148 147
f 141 149 150
f 141 150 142
f 143 147 148
f 143 148 151
f 143 151 144
f 148 150 151
f 149 152 150
f 150 152 153
f 150 153 151

