# https://github.com/mikedh/trimesh
v -0.01256188 -0.01596869 0.08826686
v -0.01251012 -0.01737441 0.08826686
v -0.01251012 -0.01737441 0.08827086
v -0.01243124 -0.01596140 0.08967749
v -0.01239919 -0.01455568 0.08967749
v -0.01251012 -0.01455568 0.08827086
v -0.01251012 -0.01456296 0.08826686
v -0.01237454 -0.01878013 0.08826686
v -0.01235235 -0.01737441 0.08967749
v -0.01237454 -0.01878013 0.08827086
v -0.01226361 -0.01596140 0.09108332
v -0.01184701 -0.01425705 0.09466674
v -0.01184455 -0.01314995 0.09464993
v -0.01183715 -0.01245073 0.09459869
v -0.00929074 0.01637753 0.09644484
v -0.01238686 -0.01314995 0.08827086
v -0.01238686 -0.01315724 0.08826686
v -0.01216747 -0.02018586 0.08826686
v -0.01220445 -0.01878013 0.08967749
v -0.01217980 -0.01737441 0.09108332
v -0.01216747 -0.02018586 0.08827086
v -0.01058983 -0.02442488 0.09644484
v -0.01079689 -0.02299730 0.09644484
v -0.01147232 -0.01737441 0.09644484
v -0.01154628 -0.01596140 0.09644484
v -0.01183469 -0.01519663 0.09458588
v -0.01176813 -0.01465765 0.09520234
v -0.01152655 -0.01457753 0.09644484
v -0.01136386 -0.01060800 0.09644484
v -0.01128251 -0.00920227 0.09644484
v -0.00915762 0.01778326 0.09644484
v -0.01224389 -0.01175151 0.08827086
v -0.01224389 -0.01175880 0.08826686
v -0.01194315 -0.02136579 0.08826686
v -0.01135647 -0.01878013 0.09644484
v -0.01183962 -0.01809548 0.09321048
v -0.01118638 -0.02018586 0.09644484
v -0.01194315 -0.02136579 0.08827086
v -0.00785114 -0.04268472 0.09644484
v -0.00905409 0.01856988 0.09644484
v -0.00904916 0.01855531 0.09596049
v -0.01205408 -0.01034579 0.08827086
v -0.01205408 -0.01035307 0.08826686
v -0.01179278 -0.02207229 0.08826686
v -0.00755286 -0.04409045 0.09644484
v -0.00814941 0.02059470 0.09644484
v -0.00768598 0.02138861 0.09587483
v -0.00791523 0.02059470 0.09557701
v -0.00651260 0.01205839 0.08826686
v -0.00704752 0.01074735 0.08826686
v -0.00953478 0.00230573 0.08826686
v -0.00953478 0.00231301 0.08827086
v -0.00983798 0.00090729 0.08827086
v -0.01129237 -0.00612862 0.08826686
v -0.01156353 -0.00753434 0.08826686
v -0.01176320 -0.00865601 0.08826686
v -0.01188892 -0.00936251 0.08826686
v -0.01154135 -0.02299730 0.08826686
v -0.00713134 -0.04549617 0.09644484
v -0.00771556 0.02143960 0.09644484
v -0.00641893 0.02288174 0.09644484
v -0.00635484 0.02283075 0.09577395
v -0.00683553 0.02191303 0.09535605
v -0.00637949 0.02150515 0.09450903
v -0.00735319 0.02059470 0.09487410
v -0.00647316 0.01213851 0.08826686
v -0.00983798 0.00090000 0.08826686
v -0.01105080 -0.02440303 0.08826686
v -0.00656191 -0.04654500 0.09644484
v -0.01059969 -0.02542273 0.08826686
v -0.00550686 0.02347899 0.09644484
v -0.00595057 0.02244472 0.09483647
v -0.00459478 0.02401797 0.09644484
v -0.00380103 0.02425104 0.09566507
v -0.00549206 0.02312938 0.09530401
v -0.00607875 0.01271391 0.08826686
v -0.01021514 -0.02612923 0.08826686
v -0.00945343 -0.02734558 0.08826686
v -0.00623159 -0.04622453 0.09599331
v -0.00550932 -0.04723694 0.09624150
v -0.00599987 -0.04706213 0.09644484
v -0.00501384 0.02284532 0.09450823
v -0.00393414 0.02430203 0.09644484
v -0.00269914 0.02461522 0.09644484
v -0.00271640 0.02438943 0.09523836
v -0.00319955 0.02400340 0.09472759
v -0.00420283 0.02383588 0.09523836
v -0.00549699 0.01323104 0.08826686
v -0.00358164 0.02004116 0.09169817
v -0.00904423 -0.02794283 0.08826686
v -0.00550932 -0.04653043 0.09583560
v -0.00472296 -0.04755741 0.09603575
v -0.00846001 -0.02851823 0.08826686
v -0.00827266 -0.02869303 0.08826686
v -0.00711901 -0.02974186 0.08826686
v -0.00703766 -0.02981470 0.08826686
v -0.00548220 -0.04751371 0.09644484
v -0.00243291 0.02466620 0.09644484
v -0.00128912 0.02466620 0.09530161
v -0.00226282 0.02419277 0.09452024
v -0.00421516 0.01403952 0.08826686
v -0.00269668 0.02025966 0.09157808
v -0.00378624 -0.04779777 0.09587803
v -0.00419297 -0.04828577 0.09641522
v -0.00419051 -0.04832219 0.09644484
v -0.00425460 -0.04828577 0.09644484
v -0.00699083 -0.02985112 0.08826686
v -0.00603931 -0.03053577 0.08826686
v -0.00596782 -0.03058675 0.08826686
v -0.00419297 -0.04701115 0.09560263
v -0.00128912 0.02484829 0.09644484
v 0.00011350 0.02486286 0.09644484
v 0.00011350 0.02467349 0.09530161
v -0.00128912 0.02425833 0.09445539
v -0.00128912 0.02118467 0.09191193
v -0.00416093 0.01406137 0.08826686
v -0.00128912 0.02048545 0.09148441
v -0.00262026 0.01458578 0.08826686
v -0.00345592 0.01432357 0.08826686
v -0.00269668 -0.04690190 0.09517672
v -0.00269668 -0.04803813 0.09574353
v -0.00177227 -0.04892672 0.09607497
v -0.00269668 -0.04873735 0.09622709
v -0.00269668 -0.04894857 0.09644484
v -0.00526774 -0.03098007 0.08826686
v 0.00037234 0.02481916 0.09644484
v 0.00159255 0.02439671 0.09520314
v 0.00117102 0.02419277 0.09451463
v 0.00011350 0.02425833 0.09445059
v 0.00011350 0.02119195 0.09190632
v 0.00011350 0.02049273 0.09146920
v -0.00128912 0.01482614 0.08826686
v -0.00129159 -0.04683635 0.09486048
v -0.00410177 -0.03154090 0.08826686
v -0.00129898 -0.04839502 0.09564266
v -0.00083555 -0.04907968 0.09594448
v -0.00118312 -0.04938558 0.09644484
v -0.00144442 -0.04931275 0.09644484
v 0.00153338 0.02460794 0.09644484
v 0.00177250 0.02455695 0.09644484
v 0.00257364 0.02425104 0.09560583
v 0.00211021 0.02406896 0.09466834
v 0.00152106 0.02031793 0.09150363
v 0.00146436 0.01463677 0.08826686
v 0.00011350 0.01483342 0.08826686
v -0.00082569 -0.04631921 0.09455466
v 0.00011350 -0.04708398 0.09483967
v -0.00279528 -0.03199977 0.08826686
v 0.00152106 -0.04724422 0.09477883
v 0.00186370 -0.04910152 0.09591646
v 0.00241834 -0.04953854 0.09644484
v 0.00164924 -0.04950940 0.09644484
v 0.00292615 -0.04731706 0.09474360
v 0.00292615 -0.04830762 0.09538006
v 0.00264760 0.02428018 0.09644484
v 0.00438054 0.02317308 0.09528079
v 0.00299517 0.02391600 0.09520314
v 0.00318252 0.02405439 0.09644484
v 0.00519648 0.02282347 0.09573552
v 0.00394422 0.02294001 0.09442176
v 0.00248490 0.02010671 0.09161811
v 0.00292615 0.01421432 0.08826686
v -0.00120038 -0.03233481 0.08826686
v 0.00152106 -0.04653772 0.09444338
v -0.00273365 -0.03201433 0.08826686
v 0.00292615 -0.04907968 0.09593807
v 0.00287192 -0.04951669 0.09644484
v 0.00292615 -0.04661055 0.09440975
v 0.00406501 -0.04641390 0.09449702
v 0.00445449 -0.04689461 0.09480685
v 0.00419319 -0.04836589 0.09564586
v 0.00363116 -0.04901413 0.09600452
v 0.00488341 0.02256854 0.09479804
v 0.00355967 0.02384316 0.09644484
v 0.00572400 0.02230634 0.09644484
v 0.00608883 0.02191303 0.09644484
v 0.00651036 0.02140318 0.09578516
v 0.00575851 0.02198586 0.09529200
v 0.00456788 0.02327505 0.09644484
v 0.00521127 0.02284532 0.09644484
v 0.00538382 0.02162897 0.09440575
v 0.00423510 0.01341313 0.08826686
v 0.00009378 -0.03240036 0.08826686
v 0.00401324 -0.04926905 0.09644484
v 0.00019978 -0.03239307 0.08826686
v 0.00131646 -0.03229111 0.08826686
v 0.00152106 -0.03226926 0.08826686
v 0.00209788 -0.03216729 0.08826686
v 0.00296805 -0.03198520 0.08826686
v 0.00301982 -0.03197063 0.08826686
v 0.00433370 -0.03156275 0.08826686
v 0.00500420 -0.04618082 0.09460670
v 0.00571907 -0.03097278 0.08826686
v 0.00573879 -0.04690190 0.09518072
v 0.00573879 -0.04792159 0.09575954
v 0.00457035 -0.04886845 0.09614943
v 0.00494504 -0.04900684 0.09644484
v 0.00632055 0.02111184 0.09484768
v 0.00651775 0.02141046 0.09644484
v 0.00674208 0.02062384 0.09531041
v 0.00682835 0.02082049 0.09644484
v 0.00738792 0.01945847 0.09644484
v 0.00517922 0.01230603 0.08826686
v 0.00449640 0.01315821 0.08826686
v 0.00819154 -0.04655957 0.09582919
v 0.00715128 -0.04697473 0.09567068
v 0.00630576 -0.03065231 0.08826686
v 0.00704035 -0.03012789 0.08826686
v 0.00762457 -0.04749186 0.09608298
v 0.00573879 -0.04862081 0.09636799
v 0.00581767 -0.04866451 0.09644484
v 0.00657938 0.02017226 0.09449462
v 0.00529015 0.01214579 0.08826686
v 0.00749392 0.01918898 0.09644484
v 0.00730411 0.01918898 0.09530161
v 0.00912826 -0.04599145 0.09608778
v 0.00861799 -0.04697473 0.09634397
v 0.00794256 -0.02940682 0.08826686
v 0.00796475 -0.02938497 0.08826686
v 0.00871167 -0.02862020 0.08826686
v 0.00929342 -0.02797197 0.08826686
v 0.00796475 -0.04764482 0.09644484
v 0.00733123 -0.04797258 0.09644484
v 0.00868948 -0.04704756 0.09644484
v 0.00892613 0.00231301 0.08827086
v 0.00892366 0.00231301 0.08826686
v 0.00783657 0.01803090 0.09644484
v 0.00792531 0.01740451 0.09576355
v 0.00765415 0.01783424 0.09529761
v 0.01005759 -0.00191145 0.08826686
v 0.00967058 -0.04574381 0.09644484
v 0.00931068 -0.04631921 0.09644484
v 0.00875850 -0.04696745 0.09644484
v 0.00956211 -0.02757865 0.08826686
v 0.00966811 -0.02741842 0.08826686
v 0.00971495 -0.02734558 0.08826686
v 0.01044708 -0.02619478 0.08826686
v 0.01046926 -0.02615836 0.08826686
v 0.01084149 -0.02545914 0.08826686
v 0.00794503 0.01752105 0.09644484
v 0.01209374 -0.01090662 0.08826686
v 0.01197542 -0.01020012 0.08826686
v 0.01173384 -0.00894006 0.08826686
v 0.01142571 -0.00753434 0.08826686
v 0.01109292 -0.00612862 0.08826686
v 0.00982095 -0.04543062 0.09644484
v 0.01129013 -0.02440303 0.08826686
v 0.01109292 -0.00336087 0.09644484
v 0.01222193 -0.01175151 0.08826686
v 0.01019317 -0.04450561 0.09644484
v 0.01130985 -0.02435204 0.08826686
v 0.01031643 -0.04419242 0.09644484
v 0.01242406 -0.01314995 0.08827086
v 0.01242406 -0.01314995 0.08826686
v 0.01156868 -0.00894006 0.09644484
v 0.01207895 -0.01233420 0.09338661
v 0.01256210 -0.01455568 0.08827086
v 0.01179793 -0.02297545 0.08826686
v 0.01034601 -0.04409045 0.09644484
v 0.01182998 -0.02287348 0.08826686
v 0.01256210 -0.01455568 0.08826686
v 0.01166235 -0.01034579 0.09644484
v 0.01205184 -0.01284404 0.09432409
v 0.01220220 -0.01314995 0.09248915
v 0.01247583 -0.01455568 0.08967749
v 0.01262127 -0.01596140 0.08826686
v 0.01055307 -0.04304890 0.09644484
v 0.01189161 -0.02265498 0.08826686
v 0.01212332 -0.02174453 0.08826686
v 0.01215783 -0.02157701 0.08826686
v 0.01193844 -0.01569191 0.09644484
v 0.01207156 -0.01378362 0.09462992
v 0.01238709 -0.01455568 0.09108332
v 0.01261880 -0.01737441 0.08826686
v 0.01252759 -0.01596140 0.08967749
v 0.01261880 -0.01737441 0.08827086
v 0.01060977 -0.04268472 0.09644484
v 0.01239202 -0.02018586 0.08826686
v 0.01196063 -0.01709035 0.09644484
v 0.01242653 -0.01596140 0.09108332
v 0.01227123 -0.01455568 0.09248915
v 0.01254731 -0.01878013 0.08826686
v 0.01194584 -0.01852521 0.09644484
v 0.01193844 -0.01878013 0.09644484
v 0.01189654 -0.01992365 0.09644484
v 0.01177082 -0.02273510 0.09644484
v 0.01254731 -0.01878013 0.08827086
v 0.01068126 -0.04178156 0.09644484
v 0.01195816 -0.01736712 0.09644484
v 0.01169687 -0.02414082 0.09644484
v 0.01071330 -0.04127900 0.09644484
f 1 2 3
f 1 3 4
f 1 4 5
f 1 5 6
f 1 6 7
f 1 7 17
f 1 17 33
f 1 33 43
f 1 43 57
f 1 57 56
f 1 56 55
f 1 55 54
f 1 54 67
f 1 67 51
f 1 51 50
f 1 50 49
f 1 49 66
f 1 66 76
f 1 76 88
f 1 88 101
f 1 101 116
f 1 116 119
f 1 119 118
f 1 118 132
f 1 132 145
f 1 145 144
f 1 144 162
f 1 162 182
f 1 182 204
f 1 204 203
f 1 203 213
f 1 213 226
f 1 226 230
f 1 230 245
f 1 245 244
f 1 244 243
f 1 243 242
f 1 242 241
f 1 241 249
f 1 249 254
f 1 254 261
f 1 261 266
f 1 266 274
f 1 274 282
f 1 282 278
f 1 278 270
f 1 270 269
f 1 269 268
f 1 268 260
f 1 260 258
f 1 258 251
f 1 251 247
f 1 247 239
f 1 239 238
f 1 238 237
f 1 237 236
f 1 236 235
f 1 235 234
f 1 234 221
f 1 221 220
f 1 220 219
f 1 219 218
f 1 218 208
f 1 208 207
f 1 207 193
f 1 193 191
f 1 191 190
f 1 190 189
f 1 189 188
f 1 188 187
f 1 187 186
f 1 186 185
f 1 185 183
f 1 183 163
f 1 163 165
f 1 165 148
f 1 148 134
f 1 134 125
f 1 125 109
f 1 109 108
f 1 108 107
f 1 107 96
f 1 96 95
f 1 95 94
f 1 94 93
f 1 93 90
f 1 90 78
f 1 78 77
f 1 77 70
f 1 70 68
f 1 68 58
f 1 58 44
f 1 44 34
f 1 34 18
f 1 18 8
f 1 8 2
f 2 8 10
f 2 10 3
f 3 9 4
f 3 10 9
f 4 9 11
f 4 11 12
f 4 12 13
f 4 13 14
f 4 14 5
f 5 14 6
f 6 14 15
f 6 15 16
f 6 16 17
f 6 17 7
f 8 18 21
f 8 21 10
f 9 10 19
f 9 19 20
f 9 20 11
f 10 21 22
f 10 22 23
f 10 23 19
f 11 20 24
f 11 24 25
f 11 25 26
f 11 26 12
f 12 26 27
f 12 27 13
f 13 27 28
f 13 28 14
f 14 28 29
f 14 29 30
f 14 30 15
f 15 30 29
f 15 29 28
f 15 28 25
f 15 25 24
f 15 24 35
f 15 35 37
f 15 37 23
f 15 23 22
f 15 22 39
f 15 39 45
f 15 45 59
f 15 59 69
f 15 69 81
f 15 81 97
f 15 97 106
f 15 106 105
f 15 105 124
f 15 124 138
f 15 138 137
f 15 137 152
f 15 152 151
f 15 151 167
f 15 167 184
f 15 184 197
f 15 197 211
f 15 211 223
f 15 223 222
f 15 222 224
f 15 224 233
f 15 233 232
f 15 232 231
f 15 231 246
f 15 246 250
f 15 250 252
f 15 252 259
f 15 259 267
f 15 267 277
f 15 277 288
f 15 288 291
f 15 291 290
f 15 290 286
f 15 286 285
f 15 285 284
f 15 284 283
f 15 283 289
f 15 289 279
f 15 279 271
f 15 271 262
f 15 262 255
f 15 255 248
f 15 248 240
f 15 240 227
f 15 227 214
f 15 214 202
f 15 202 201
f 15 201 199
f 15 199 176
f 15 176 175
f 15 175 180
f 15 180 179
f 15 179 174
f 15 174 158
f 15 158 155
f 15 155 140
f 15 140 139
f 15 139 126
f 15 126 112
f 15 112 111
f 15 111 98
f 15 98 84
f 15 84 83
f 15 83 73
f 15 73 71
f 15 71 61
f 15 61 60
f 15 60 46
f 15 46 40
f 15 40 31
f 15 31 16
f 16 31 32
f 16 32 33
f 16 33 17
f 18 34 38
f 18 38 21
f 19 35 36
f 19 36 20
f 19 23 37
f 19 37 35
f 20 36 35
f 20 35 24
f 21 38 39
f 21 39 22
f 25 28 27
f 25 27 26
f 31 40 41
f 31 41 32
f 32 41 42
f 32 42 43
f 32 43 33
f 34 44 45
f 34 45 39
f 34 39 38
f 40 46 41
f 41 46 47
f 41 47 48
f 41 48 49
f 41 49 50
f 41 50 51
f 41 51 52
f 41 52 53
f 41 53 54
f 41 54 55
f 41 55 56
f 41 56 57
f 41 57 42
f 42 57 43
f 44 58 45
f 45 58 59
f 46 60 47
f 47 60 61
f 47 61 62
f 47 62 63
f 47 63 64
f 47 64 65
f 47 65 48
f 48 65 66
f 48 66 49
f 51 67 53
f 51 53 52
f 53 67 54
f 58 68 59
f 59 68 70
f 59 70 69
f 61 71 62
f 62 72 63
f 62 71 73
f 62 73 74
f 62 74 75
f 62 75 72
f 63 72 64
f 64 72 76
f 64 76 66
f 64 66 65
f 69 70 77
f 69 77 78
f 69 78 79
f 69 79 80
f 69 80 81
f 72 75 82
f 72 82 76
f 73 83 74
f 74 83 84
f 74 84 85
f 74 85 86
f 74 86 87
f 74 87 75
f 75 87 82
f 76 82 89
f 76 89 88
f 78 90 79
f 79 91 92
f 79 92 80
f 79 90 93
f 79 93 94
f 79 94 95
f 79 95 96
f 79 96 91
f 80 92 97
f 80 97 81
f 82 87 86
f 82 86 89
f 84 98 85
f 85 98 99
f 85 99 100
f 85 100 86
f 86 100 89
f 88 89 101
f 89 100 102
f 89 102 101
f 91 96 92
f 92 103 104
f 92 104 105
f 92 105 106
f 92 106 97
f 92 96 107
f 92 107 108
f 92 108 109
f 92 109 110
f 92 110 103
f 98 111 99
f 99 111 112
f 99 112 113
f 99 113 114
f 99 114 100
f 100 114 115
f 100 115 102
f 101 102 116
f 102 115 117
f 102 117 118
f 102 118 119
f 102 119 116
f 103 110 120
f 103 120 121
f 103 121 122
f 103 122 123
f 103 123 104
f 104 123 105
f 105 123 124
f 109 125 110
f 110 125 120
f 112 126 113
f 113 126 127
f 113 127 128
f 113 128 129
f 113 129 114
f 114 129 130
f 114 130 115
f 115 130 131
f 115 131 117
f 117 131 132
f 117 132 118
f 120 133 121
f 120 125 134
f 120 134 133
f 121 135 136
f 121 136 122
f 121 133 135
f 122 124 123
f 122 136 137
f 122 137 138
f 122 138 124
f 126 139 127
f 127 139 140
f 127 140 141
f 127 141 142
f 127 142 128
f 128 142 143
f 128 143 130
f 128 130 129
f 130 143 131
f 131 143 144
f 131 144 145
f 131 145 132
f 133 146 147
f 133 147 135
f 133 134 148
f 133 148 146
f 135 147 149
f 135 149 136
f 136 150 151
f 136 151 152
f 136 152 137
f 136 149 153
f 136 153 154
f 136 154 150
f 140 155 141
f 141 156 157
f 141 157 142
f 141 155 158
f 141 158 159
f 141 159 156
f 142 157 160
f 142 160 161
f 142 161 143
f 143 161 162
f 143 162 144
f 146 163 164
f 146 164 149
f 146 149 147
f 146 148 165
f 146 165 163
f 149 164 153
f 150 166 151
f 150 154 166
f 151 166 167
f 153 164 168
f 153 168 169
f 153 169 170
f 153 170 171
f 153 171 154
f 154 171 172
f 154 172 166
f 156 160 157
f 156 159 173
f 156 173 160
f 158 174 159
f 159 175 176
f 159 176 177
f 159 177 178
f 159 178 173
f 159 174 179
f 159 179 180
f 159 180 175
f 160 173 181
f 160 181 161
f 161 181 182
f 161 182 162
f 163 183 168
f 163 168 164
f 166 172 167
f 167 172 184
f 168 183 185
f 168 185 186
f 168 186 187
f 168 187 188
f 168 188 189
f 168 189 190
f 168 190 191
f 168 191 169
f 169 192 170
f 169 191 193
f 169 193 192
f 170 194 195
f 170 195 171
f 170 192 194
f 171 196 172
f 171 195 196
f 172 197 184
f 172 196 197
f 173 178 198
f 173 198 181
f 176 199 177
f 177 200 198
f 177 198 178
f 177 199 201
f 177 201 202
f 177 202 200
f 181 198 203
f 181 203 204
f 181 204 182
f 192 205 206
f 192 206 194
f 192 193 207
f 192 207 208
f 192 208 205
f 194 206 209
f 194 209 195
f 195 209 196
f 196 209 210
f 196 210 211
f 196 211 197
f 198 200 212
f 198 212 213
f 198 213 203
f 200 202 214
f 200 214 215
f 200 215 212
f 205 216 217
f 205 217 209
f 205 209 206
f 205 208 218
f 205 218 219
f 205 219 220
f 205 220 221
f 205 221 216
f 209 222 223
f 209 223 211
f 209 211 210
f 209 217 224
f 209 224 222
f 212 215 225
f 212 225 226
f 212 226 213
f 214 227 228
f 214 228 215
f 215 228 229
f 215 229 230
f 215 230 225
f 216 231 232
f 216 232 233
f 216 233 224
f 216 224 217
f 216 221 234
f 216 234 235
f 216 235 236
f 216 236 237
f 216 237 238
f 216 238 239
f 216 239 231
f 225 230 226
f 227 240 228
f 228 240 241
f 228 241 242
f 228 242 243
f 228 243 244
f 228 244 245
f 228 245 230
f 228 230 229
f 231 239 246
f 239 247 246
f 240 248 249
f 240 249 241
f 246 247 250
f 247 251 252
f 247 252 250
f 248 253 254
f 248 254 249
f 248 255 256
f 248 256 257
f 248 257 253
f 251 258 252
f 252 258 260
f 252 260 259
f 253 257 261
f 253 261 254
f 255 262 263
f 255 263 256
f 256 263 264
f 256 264 257
f 257 265 266
f 257 266 261
f 257 264 265
f 259 260 268
f 259 268 269
f 259 269 270
f 259 270 267
f 262 271 272
f 262 272 263
f 263 272 273
f 263 273 264
f 264 273 265
f 265 273 266
f 266 273 275
f 266 275 276
f 266 276 274
f 267 270 278
f 267 278 277
f 271 279 280
f 271 280 272
f 272 280 281
f 272 281 273
f 273 281 280
f 273 280 275
f 274 276 287
f 274 287 282
f 275 280 276
f 276 283 284
f 276 284 285
f 276 285 286
f 276 286 287
f 276 280 283
f 277 278 282
f 277 282 287
f 277 287 288
f 279 289 280
f 280 289 283
f 286 290 287
f 287 290 291
f 287 291 288

