# https://github.com/mikedh/trimesh
v -0.00269716 0.00776632 0.02897108
v -0.00129104 0.00653342 0.02920697
v -0.00129104 0.00752539 0.02897108
v -0.00289406 0.00774226 0.02897108
v -0.00269716 0.00653342 0.02925807
v -0.00129104 0.00512727 0.02911697
v 0.00011507 0.00512727 0.02900266
v 0.00011507 0.00653342 0.02907876
v 0.00010116 0.00696107 0.02897108
v -0.00410327 0.00752795 0.02897108
v -0.00410327 0.00653342 0.02921796
v -0.00269716 0.00512727 0.02915329
v -0.00410327 0.00512727 0.02911413
v -0.00174815 0.00457065 0.02897108
v -0.00129104 0.00461717 0.02897108
v 0.00011507 0.00501242 0.02897108
v 0.00028693 0.00511572 0.02897108
v 0.00046295 0.00547504 0.02897108
v 0.00085883 0.00653342 0.02897108
v 0.00046782 0.00680387 0.02897108
v -0.00482338 0.00721901 0.02897108
v -0.00550939 0.00653342 0.02906833
v -0.00550939 0.00512727 0.02898448
v -0.00327115 0.00453022 0.02897108
v -0.00264080 0.00448948 0.02897108
v -0.00411789 0.00461524 0.02897108
v -0.00548365 0.00690428 0.02897108
v -0.00624898 0.00653342 0.02897108
v -0.00607713 0.00596621 0.02897108
v -0.00562976 0.00512727 0.02897108
v -0.00555461 0.00509775 0.02897108
v -0.00550939 0.00508075 0.02897108
f 1 2 3
f 1 3 9
f 1 9 20
f 1 20 19
f 1 19 18
f 1 18 17
f 1 17 16
f 1 16 15
f 1 15 14
f 1 14 25
f 1 25 24
f 1 24 26
f 1 26 32
f 1 32 31
f 1 31 30
f 1 30 29
f 1 29 28
f 1 28 27
f 1 27 21
f 1 21 10
f 1 10 4
f 1 4 5
f 1 5 2
f 2 6 7
f 2 7 8
f 2 8 3
f 2 5 6
f 3 8 9
f 4 10 11
f 4 11 5
f 5 12 6
f 5 11 13
f 5 13 12
f 6 14 15
f 6 15 16
f 6 16 7
f 6 12 14
f 7 16 17
f 7 17 18
f 7 18 19
f 7 19 8
f 8 19 20
f 8 20 9
f 10 21 22
f 10 22 11
f 11 22 23
f 11 23 13
f 12 13 24
f 12 24 25
f 12 25 14
f 13 26 24
f 13 23 26
f 21 27 22
f 22 27 28
f 22 28 29
f 22 29 30
f 22 30 23
f 23 30 31
f 23 31 32
f 23 32 26

