# https://github.com/mikedh/trimesh
v -0.00940787 0.01229578 0.10207450
v -0.00939233 0.01189533 0.10207450
v -0.01379377 0.00979232 0.10553399
v -0.01520783 0.00979232 0.10668076
v -0.01339364 0.01229578 0.10572192
v 0.00866407 0.01229578 0.10207450
v -0.00922917 0.00979232 0.10207450
v -0.01544091 0.00979232 0.10694540
v -0.01558853 0.01229578 0.10791958
v -0.01552638 0.01229578 0.10785055
v -0.01482323 0.01229578 0.10708731
v -0.01416671 0.01229578 0.10645064
v -0.01346357 0.01229578 0.10578712
v 0.01200497 0.01229578 0.10448694
v 0.01500013 0.00979232 0.10541126
v 0.01383081 0.00979232 0.10474007
v 0.01338795 0.00979232 0.10449461
v 0.01337241 0.00979232 0.10448694
v 0.00866019 0.01225535 0.10207450
v 0.00839214 0.00979232 0.10207450
v -0.01652476 0.00979232 0.10820340
v -0.01614405 0.01229578 0.10855625
v 0.01253718 0.01229578 0.10490883
v 0.01265761 0.01229578 0.10501238
v 0.01347730 0.01229578 0.10571809
v 0.01355111 0.01229578 0.10578329
v 0.01642972 0.00979232 0.10669227
v -0.01680447 0.00979232 0.10860227
v -0.01674619 0.01229578 0.10936935
v -0.01620621 0.01229578 0.10863679
v 0.01425425 0.01229578 0.10645447
v 0.01625879 0.01229578 0.10870583
v 0.01734653 0.00979232 0.10792725
v 0.01490301 0.01229578 0.10709115
v 0.01497293 0.01229578 0.10716018
v 0.01566831 0.01229578 0.10797328
v 0.01574600 0.01229578 0.10806916
v -0.01680058 0.01229578 0.10944989
v -0.01756199 0.00979232 0.10983726
v -0.01735999 0.01229578 0.11030901
v 0.01658900 0.01229578 0.10929264
v 0.01735818 0.00979232 0.10796177
v -0.01762804 0.00979232 0.10995999
v -0.01739883 0.01229578 0.11037805
v 0.01843038 0.01229578 0.11502266
v 0.01846534 0.01229578 0.11513389
v 0.01881885 0.01229578 0.11634203
v 0.01764954 0.00979232 0.10929648
v -0.01815637 0.00979232 0.12062612
v -0.01936453 0.01105790 0.12061845
v -0.02006767 0.01182278 0.12061845
v -0.02003271 0.01190415 0.11921087
v -0.02000163 0.01222079 0.11779179
v -0.02004825 0.01229578 0.11785699
v -0.01969862 0.01229578 0.11639956
v -0.01911590 0.01229578 0.11434764
v -0.01899547 0.01229578 0.11397945
v -0.01776012 0.01229578 0.11114512
v 0.01912186 0.01229578 0.11780713
v 0.01928114 0.01229578 0.11921087
v 0.01934330 0.01229578 0.12032696
v 0.01935884 0.01229578 0.12061845
v 0.01938603 0.01229578 0.12202219
v 0.01801082 0.00979232 0.13151470
v -0.01816802 0.00979232 0.12134716
v -0.01938007 0.01104491 0.12202219
v -0.02008321 0.01181862 0.12202219
v -0.02030076 0.01229578 0.12107486
v -0.02029299 0.01229578 0.12061845
v -0.02021918 0.01229578 0.11921087
v -0.02016479 0.01229578 0.11875446
v 0.01930445 0.01229578 0.12342593
v 0.01801082 0.00979232 0.13169879
v -0.01816413 0.00979232 0.12196466
v -0.01813694 0.00979232 0.12265886
v -0.01934122 0.01106403 0.12342593
v -0.02025802 0.01229578 0.12258215
v -0.02029687 0.01229578 0.12202219
v -0.01925964 0.01112113 0.12483350
v -0.02004436 0.01195439 0.12342593
v 0.01909079 0.01229578 0.12483350
v 0.01777385 0.00979232 0.13222807
v 0.01893151 0.01229578 0.12555071
v 0.01873339 0.01229578 0.12629861
v 0.01864792 0.01229578 0.12660160
v 0.01836434 0.01229578 0.12753360
v 0.01701244 0.01229578 0.13176783
v -0.01701424 0.00979232 0.13190207
v -0.02018810 0.01229578 0.12342593
v -0.01913533 0.01121401 0.12624108
v -0.01997832 0.01226417 0.12474912
v -0.02000940 0.01229578 0.12464557
v 0.01735041 0.00979232 0.13309486
v 0.01695805 0.01229578 0.13186755
v 0.01728825 0.00979232 0.13321376
v -0.01671900 0.00979232 0.13325211
v -0.01899547 0.01133189 0.12736100
v -0.01999775 0.01229578 0.12471844
v -0.01963646 0.01215879 0.12624108
v 0.01677935 0.00979232 0.13413808
v 0.01648799 0.01229578 0.13267297
v -0.01885562 0.01229578 0.12880693
v -0.01906152 0.01229578 0.12831217
v -0.01918194 0.01204801 0.12775604
v -0.01884397 0.01150541 0.12829683
v -0.01654807 0.00979232 0.13347072
v -0.01643541 0.01229578 0.13319075
v -0.01648591 0.01229578 0.13312171
v -0.01746488 0.01229578 0.13154538
v -0.01966365 0.01229578 0.12624108
v 0.01548572 0.00979232 0.13531937
v 0.01643361 0.01229578 0.13275735
v 0.01586254 0.01229578 0.13345922
v 0.01515940 0.01229578 0.13428765
v 0.01455726 0.01229578 0.13492049
v 0.01449122 0.01229578 0.13498953
v 0.01385800 0.01229578 0.13559551
v 0.01378808 0.01229578 0.13566071
v -0.01546034 0.00979232 0.13480543
v -0.01593039 0.01229578 0.13382741
v 0.01518271 0.00979232 0.13558784
v 0.01288293 0.01229578 0.13636642
v -0.01531271 0.00979232 0.13496268
v -0.01456684 0.01229578 0.13530019
v -0.01522725 0.01229578 0.13459449
v 0.01417267 0.00979232 0.13616315
v 0.01217978 0.01229578 0.13687269
v -0.01407347 0.00979232 0.13620534
v -0.01386370 0.01229578 0.13595220
v 0.01308105 0.00979232 0.13665791
v 0.00935944 0.01229578 0.13828026
v 0.00707520 0.01229578 0.13933882
v -0.01390643 0.00979232 0.13635875
v -0.01307509 0.01229578 0.13665407
v 0.00649637 0.01229578 0.13959962
v 0.00594862 0.01229578 0.13981441
v 0.00433255 0.01215879 0.14021712
v 0.00151998 0.01187008 0.14075407
v 0.01237791 0.00979232 0.13683050
v -0.01326544 0.00979232 0.13678448
v -0.01227483 0.01229578 0.13724088
v -0.01237195 0.01229578 0.13717185
v 0.00433255 0.01229578 0.14026315
v 0.00151998 0.01229578 0.14099953
v 0.00011370 0.01161055 0.14089981
v 0.00158214 0.00979232 0.13885557
v -0.01257007 0.00979232 0.13717952
v -0.01093458 0.01229578 0.13809617
v 0.00111597 0.01229578 0.14108391
v 0.00011370 0.01229578 0.14125266
v -0.00128870 0.01180514 0.14081543
v -0.00645933 0.01138875 0.13967250
v -0.01070927 0.00979232 0.13769729
v -0.00128870 0.00979232 0.13893611
v -0.00062829 0.00979232 0.13899364
v 0.00011370 0.00979232 0.13903966
v -0.01223598 0.00979232 0.13731759
v -0.00814920 0.01229578 0.13949607
v -0.01017317 0.01229578 0.13851039
v -0.00405077 0.01229578 0.14063517
v -0.00407408 0.01227373 0.14061983
v -0.00550756 0.01215879 0.14028999
v -0.00692550 0.01210658 0.13987577
v -0.00739944 0.01160270 0.13951141
v -0.01113271 0.00979232 0.13759757
v -0.00734506 0.01229578 0.13980290
v -0.00540267 0.01229578 0.14035519
v -0.00550756 0.01229578 0.14032834
v -0.00673903 0.01229578 0.13997933
f 1 2 3
f 1 3 4
f 1 4 5
f 1 5 13
f 1 13 12
f 1 12 11
f 1 11 10
f 1 10 9
f 1 9 22
f 1 22 30
f 1 30 29
f 1 29 38
f 1 38 40
f 1 40 44
f 1 44 58
f 1 58 57
f 1 57 56
f 1 56 55
f 1 55 54
f 1 54 71
f 1 71 70
f 1 70 69
f 1 69 68
f 1 68 78
f 1 78 77
f 1 77 89
f 1 89 92
f 1 92 98
f 1 98 110
f 1 110 103
f 1 103 102
f 1 102 109
f 1 109 108
f 1 108 107
f 1 107 120
f 1 120 125
f 1 125 124
f 1 124 129
f 1 129 134
f 1 134 142
f 1 142 141
f 1 141 148
f 1 148 159
f 1 159 158
f 1 158 166
f 1 166 169
f 1 169 168
f 1 168 167
f 1 167 160
f 1 160 150
f 1 150 149
f 1 149 144
f 1 144 143
f 1 143 136
f 1 136 135
f 1 135 132
f 1 132 131
f 1 131 127
f 1 127 122
f 1 122 118
f 1 118 117
f 1 117 116
f 1 116 115
f 1 115 114
f 1 114 113
f 1 113 112
f 1 112 101
f 1 101 94
f 1 94 87
f 1 87 86
f 1 86 85
f 1 85 84
f 1 84 83
f 1 83 81
f 1 81 72
f 1 72 63
f 1 63 62
f 1 62 61
f 1 61 60
f 1 60 59
f 1 59 47
f 1 47 46
f 1 46 45
f 1 45 41
f 1 41 32
f 1 32 37
f 1 37 36
f 1 36 35
f 1 35 34
f 1 34 31
f 1 31 26
f 1 26 25
f 1 25 24
f 1 24 23
f 1 23 14
f 1 14 6
f 1 6 19
f 1 19 20
f 1 20 7
f 1 7 2
f 2 7 3
f 3 7 20
f 3 20 18
f 3 18 17
f 3 17 16
f 3 16 15
f 3 15 27
f 3 27 33
f 3 33 42
f 3 42 48
f 3 48 64
f 3 64 73
f 3 73 82
f 3 82 93
f 3 93 95
f 3 95 100
f 3 100 111
f 3 111 121
f 3 121 126
f 3 126 130
f 3 130 139
f 3 139 146
f 3 146 156
f 3 156 155
f 3 155 154
f 3 154 153
f 3 153 165
f 3 165 157
f 3 157 147
f 3 147 140
f 3 140 133
f 3 133 128
f 3 128 123
f 3 123 119
f 3 119 106
f 3 106 96
f 3 96 88
f 3 88 75
f 3 75 74
f 3 74 65
f 3 65 49
f 3 49 43
f 3 43 39
f 3 39 28
f 3 28 21
f 3 21 8
f 3 8 4
f 4 8 9
f 4 9 10
f 4 10 11
f 4 11 12
f 4 12 13
f 4 13 5
f 6 14 15
f 6 15 16
f 6 16 17
f 6 17 18
f 6 18 19
f 8 21 22
f 8 22 9
f 14 23 15
f 15 23 24
f 15 24 25
f 15 25 26
f 15 26 27
f 18 20 19
f 21 28 29
f 21 29 30
f 21 30 22
f 26 31 27
f 27 32 33
f 27 31 34
f 27 34 35
f 27 35 36
f 27 36 37
f 27 37 32
f 28 38 29
f 28 39 40
f 28 40 38
f 32 41 33
f 33 41 42
f 39 43 44
f 39 44 40
f 41 45 42
f 42 45 46
f 42 46 47
f 42 47 48
f 43 49 50
f 43 50 51
f 43 51 52
f 43 52 53
f 43 53 54
f 43 54 55
f 43 55 56
f 43 56 57
f 43 57 58
f 43 58 44
f 47 59 48
f 48 59 60
f 48 60 61
f 48 61 62
f 48 62 63
f 48 63 64
f 49 65 66
f 49 66 50
f 50 66 51
f 51 66 67
f 51 67 68
f 51 68 69
f 51 69 52
f 52 69 70
f 52 70 71
f 52 71 54
f 52 54 53
f 63 72 73
f 63 73 64
f 65 74 66
f 66 74 75
f 66 75 76
f 66 76 67
f 67 77 78
f 67 78 68
f 67 76 79
f 67 79 80
f 67 80 77
f 72 81 73
f 73 81 83
f 73 83 84
f 73 84 85
f 73 85 86
f 73 86 87
f 73 87 82
f 75 79 76
f 75 88 79
f 77 80 89
f 79 90 80
f 79 88 90
f 80 91 92
f 80 92 89
f 80 90 91
f 82 87 93
f 87 94 95
f 87 95 93
f 88 96 97
f 88 97 90
f 90 97 91
f 91 98 92
f 91 97 99
f 91 99 98
f 94 100 95
f 94 101 100
f 96 102 103
f 96 103 104
f 96 104 105
f 96 105 97
f 96 106 107
f 96 107 108
f 96 108 109
f 96 109 102
f 97 105 99
f 98 99 110
f 99 104 110
f 99 105 104
f 100 101 112
f 100 112 113
f 100 113 114
f 100 114 115
f 100 115 116
f 100 116 117
f 100 117 118
f 100 118 111
f 103 110 104
f 106 119 120
f 106 120 107
f 111 118 121
f 118 122 121
f 119 123 124
f 119 124 125
f 119 125 120
f 121 122 127
f 121 127 126
f 123 128 124
f 124 128 129
f 126 127 131
f 126 131 132
f 126 132 130
f 128 133 129
f 129 133 134
f 130 135 136
f 130 136 137
f 130 137 138
f 130 138 139
f 130 132 135
f 133 140 141
f 133 141 142
f 133 142 134
f 136 143 137
f 137 143 144
f 137 144 138
f 138 144 145
f 138 145 139
f 139 145 146
f 140 147 148
f 140 148 141
f 144 149 145
f 145 149 150
f 145 150 151
f 145 151 152
f 145 152 153
f 145 153 154
f 145 154 155
f 145 155 156
f 145 156 146
f 147 157 158
f 147 158 159
f 147 159 148
f 150 160 151
f 151 160 161
f 151 161 152
f 152 161 162
f 152 162 163
f 152 163 164
f 152 164 157
f 152 157 165
f 152 165 153
f 157 164 163
f 157 163 166
f 157 166 158
f 160 167 162
f 160 162 161
f 162 167 168
f 162 168 163
f 163 168 169
f 163 169 166

