# https://github.com/mikedh/trimesh
v 0.02058897 0.04923214 0.00659441
v 0.01871201 0.04925471 0.00660061
v 0.02058897 0.05082343 0.00659441
v 0.02246594 0.04954225 0.00664709
v 0.02246594 0.04860539 0.00678342
v 0.02058897 0.04829528 0.00674314
v -0.01126692 0.04476694 0.00686089
v 0.01871201 0.05081032 0.00660061
v -0.01314971 0.04476694 0.00687328
v 0.00647678 0.04988656 0.00669666
v 0.02058897 0.05220361 0.00664709
v 0.02246594 0.05220361 0.00671215
v 0.02246594 0.05045727 0.00664709
v 0.01871201 0.05220361 0.00665018
v 0.02349185 0.04982906 0.00669046
v 0.02246594 0.04709927 0.00725131
v 0.02420300 0.04911203 0.00689497
v 0.02433707 0.04709927 0.00749920
v 0.02058897 0.04709927 0.00714906
v -0.00940161 0.04476694 0.00688878
v 0.01684088 0.05220361 0.00666568
v 0.00647678 0.04995426 0.00669666
v -0.01503250 0.04476694 0.00694765
v -0.02012711 0.05220361 0.00741244
v -0.01877477 0.05220361 0.00736596
v -0.01825598 0.05220361 0.00735046
v 0.02437205 0.05220361 0.00685159
v 0.02349185 0.05001614 0.00669046
v 0.02491415 0.05220361 0.00697244
v 0.02621403 0.05220361 0.00726990
v 0.02621403 0.04897300 0.00737525
v 0.02246594 0.04556040 0.00810652
v 0.02058897 0.04547596 0.00804455
v 0.02433707 0.04574312 0.00824286
v 0.02628398 0.04699954 0.00807863
v 0.02570690 0.04596514 0.00841638
v -0.00752465 0.04476694 0.00697863
v 0.00946127 0.05220361 0.00676793
v -0.02019123 0.04476694 0.00723272
v -0.02522755 0.04798663 0.00747751
v -0.02064590 0.04709927 0.00725751
v -0.02522755 0.04897300 0.00752399
v -0.02064590 0.05220361 0.00744342
v 0.02821340 0.05220361 0.00810342
v 0.02907611 0.04975408 0.00853722
v 0.02814928 0.04906690 0.00819018
v 0.02756055 0.04755788 0.00834821
v 0.02246594 0.04476694 0.00881300
v 0.02058897 0.04476694 0.00865187
v -0.00377656 0.04476694 0.00718624
v 0.02433707 0.04480552 0.00914765
v 0.02394652 0.04476694 0.00910427
v 0.02696015 0.04630800 0.00866427
v 0.02441285 0.04476694 0.00921891
v 0.02626649 0.04519570 0.00948539
v 0.02596921 0.04476694 0.00982934
v -0.02206237 0.04476694 0.00736906
v -0.02522755 0.04605249 0.00752089
v -0.02522755 0.05081251 0.00764173
v -0.02200408 0.05220361 0.00755497
v 0.02847571 0.05220361 0.00829553
v 0.02907611 0.05015881 0.00853722
v 0.02881380 0.04850493 0.00872624
v 0.02999127 0.05220361 0.00946680
v 0.03091226 0.04986691 0.01043356
v 0.02989218 0.04918556 0.00957835
v 0.02814928 0.04699954 0.00905779
v 0.02433707 0.04476694 0.00919413
v 0.02656961 0.04476694 0.01014539
v 0.02908193 0.04609617 0.01038708
v 0.02808516 0.04574821 0.00999976
v -0.02252286 0.04476694 0.00740934
v -0.02393933 0.04476694 0.00757976
v -0.02522755 0.04476694 0.00774399
v -0.02522755 0.05220361 0.00784314
v 0.02926847 0.05220361 0.00890596
v 0.03070242 0.04861703 0.01074342
v 0.02939088 0.04709927 0.01004933
v 0.03091226 0.05001468 0.01043356
v 0.03164673 0.05220361 0.01138173
v 0.03280672 0.04979193 0.01411159
v 0.03126784 0.04913460 0.01137553
v 0.02812597 0.04476694 0.01131046
v 0.03032936 0.04708107 0.01137553
v 0.03071407 0.04644339 0.01265835
v 0.02939671 0.04573438 0.01138793
v 0.02818426 0.04476694 0.01137243
v 0.02816677 0.04477859 0.01133215
v -0.02522755 0.04476694 0.03754621
v -0.02522755 0.05220361 0.03758339
v 0.03109880 0.04769327 0.01199215
v 0.03197315 0.05220361 0.01202314
v 0.03348872 0.05220361 0.01512173
v 0.03363445 0.05220361 0.01567637
v 0.03395505 0.05220361 0.01701186
v 0.03332550 0.04897300 0.01701186
v 0.03261435 0.04854205 0.01480877
v 0.03228793 0.04908947 0.01339581
v 0.03139025 0.04708107 0.01327497
v 0.03105216 0.04598261 0.01390708
v 0.02933842 0.04476694 0.01293412
v -0.02439982 0.04476694 0.03764227
v -0.02522755 0.04714804 0.03778170
v -0.02522755 0.05165983 0.03773213
v -0.01689781 0.05220361 0.03741917
v 0.03401916 0.05220361 0.01735271
v 0.03370440 0.04897300 0.01888651
v 0.03292913 0.04772312 0.01701186
v 0.03277757 0.04802667 0.01605750
v 0.03221798 0.04728053 0.01531384
v 0.03037016 0.04476694 0.01513722
v 0.03245697 0.04678626 0.01701186
v 0.03126201 0.04571181 0.01513722
v -0.02252286 0.04476694 0.03782199
v -0.02522755 0.04897300 0.03792424
v -0.02522755 0.05143490 0.03776621
v -0.01554546 0.05220361 0.03738818
v 0.03419403 0.05220361 0.01888651
v 0.03420569 0.05220361 0.01901975
v 0.03429313 0.05220361 0.02076116
v 0.03375102 0.04897300 0.02076116
v 0.03312731 0.04726233 0.01888651
v 0.03267847 0.04632547 0.01888651
v 0.03099387 0.04476694 0.01701186
v 0.03151849 0.04539734 0.01701186
v -0.02064590 0.04476694 0.03792734
v -0.02522755 0.05084818 0.03785297
v -0.01549300 0.04476694 0.03818762
v -0.01502085 0.04476694 0.03820931
v -0.01362770 0.04476694 0.03824959
v -0.01316720 0.04476694 0.03823720
v -0.01366850 0.05220361 0.03732311
v 0.03432228 0.05220361 0.02263270
v 0.03375102 0.04897300 0.02263270
v 0.03313898 0.04727616 0.02076116
v 0.03267265 0.04633857 0.02076116
v 0.03181577 0.04522482 0.02076116
v 0.03142522 0.04476694 0.01895158
v 0.03163507 0.04505302 0.01877186
v 0.03133779 0.04476694 0.01849919
v -0.01171576 0.04476694 0.03817523
v 0.02058897 0.05220361 0.03600312
v 0.03418821 0.05220361 0.02450735
v 0.03367525 0.04897300 0.02450735
v 0.03309817 0.04745451 0.02450735
v 0.03313898 0.04738754 0.02263270
v 0.03255606 0.04651692 0.02450735
v 0.03137859 0.04476694 0.02318115
v 0.03144271 0.04476694 0.02076116
v -0.01127275 0.04476694 0.03814734
v 0.02246594 0.05084818 0.03600621
v 0.02058897 0.05084818 0.03611776
v 0.02194715 0.05220361 0.03592875
v 0.03390841 0.05220361 0.02628904
v 0.03320309 0.04879756 0.02655552
v 0.03293495 0.04773549 0.02604735
v 0.03243366 0.04710655 0.02655552
v 0.03141357 0.04554657 0.02638200
v 0.03151266 0.04510398 0.02447636
v 0.03130864 0.04476694 0.02422848
v -0.00985628 0.04476694 0.03802030
v 0.02246594 0.04897300 0.03580480
v 0.02433707 0.05084818 0.03579551
v 0.02381828 0.05220361 0.03574903
v 0.02246594 0.05220361 0.03589776
v 0.03374520 0.05220361 0.02691186
v 0.03278340 0.04988074 0.02921721
v 0.03292913 0.04943451 0.02825664
v 0.03276592 0.04805652 0.02729608
v 0.03190321 0.04709927 0.02825664
v 0.03095890 0.04609034 0.02930706
v 0.03113960 0.04587851 0.02825664
v 0.03097638 0.04476694 0.02549890
v -0.00940161 0.04476694 0.03797072
v 0.02433707 0.04748508 0.03509523
v 0.02433707 0.04897300 0.03557241
v -0.00798515 0.04476694 0.03781269
v 0.02433707 0.05220361 0.03568706
v 0.02621403 0.05084818 0.03539889
v 0.03315063 0.05220361 0.02852312
v 0.03282420 0.05220361 0.02926988
v 0.03269597 0.05220361 0.02953016
v 0.03232873 0.05084818 0.03015608
v 0.03139025 0.05084818 0.03176115
v 0.03122121 0.04897300 0.03154734
v 0.03214803 0.04914261 0.02995777
v 0.03260270 0.04849692 0.02825664
v 0.03124452 0.04717134 0.03001354
v 0.03056835 0.04476694 0.02661439
v 0.03101719 0.04784396 0.03124058
v 0.03054504 0.04659408 0.03055889
v 0.02929178 0.04592728 0.03136453
v 0.02993881 0.04563829 0.03001354
v 0.02925098 0.04476694 0.02934425
v 0.02974645 0.04476694 0.02844566
v 0.02990384 0.04484556 0.02834030
v 0.03009619 0.04476694 0.02768960
v 0.02246594 0.04633420 0.03470481
v 0.02433707 0.04654749 0.03457157
v 0.02571856 0.04776097 0.03494959
v 0.02629564 0.04890967 0.03512002
v -0.00610819 0.04476694 0.03756170
v 0.02633644 0.05220361 0.03524396
v 0.02724578 0.05220361 0.03499607
v 0.02737402 0.04949202 0.03492790
v 0.02750226 0.05084818 0.03498678
v 0.03231707 0.05220361 0.03020565
v 0.03069076 0.05084818 0.03269692
v 0.03205477 0.05220361 0.03065185
v 0.03137859 0.05220361 0.03170227
v 0.03118624 0.05220361 0.03196255
v 0.03049840 0.04897300 0.03248622
v 0.02924515 0.04777043 0.03312453
v 0.02989218 0.04718226 0.03192847
v 0.02865641 0.04652056 0.03261326
v 0.02740316 0.04598188 0.03311833
v 0.02790447 0.04532964 0.03184171
v 0.02749643 0.04476694 0.03142650
v 0.02856897 0.04476694 0.03026763
v 0.02868556 0.04476694 0.03011580
v 0.02982805 0.04476694 0.02827523
v 0.02246594 0.04534784 0.03376903
v 0.02433707 0.04552983 0.03363579
v -0.00423123 0.04476694 0.03729523
v -0.00236009 0.04476694 0.03702255
v 0.02621403 0.04575476 0.03337861
v 0.02629564 0.04712111 0.03438255
v 0.02697181 0.04824287 0.03475748
v 0.02740899 0.05220361 0.03494340
v 0.02803270 0.04890967 0.03438565
v 0.02844074 0.05084818 0.03449720
v 0.02975228 0.05084818 0.03356143
v 0.02955992 0.04897300 0.03338481
v 0.03062081 0.05220361 0.03264115
v 0.02805019 0.04712693 0.03349636
v 0.02621403 0.04481717 0.03216396
v 0.02621403 0.04476694 0.03208650
v 0.02246594 0.04476694 0.03314002
v 0.02433707 0.04476694 0.03268143
v 0.02462270 0.04476694 0.03260086
v 0.02306050 0.04476694 0.03303467
v 0.02818426 0.05220361 0.03449100
v 0.02968233 0.05220361 0.03349326
v 0.02932093 0.05220361 0.03375044
v 0.03035850 0.05220361 0.03287974
v 0.02579434 0.04476694 0.03222903
f 1 2 8
f 1 8 3
f 1 3 13
f 1 13 4
f 1 4 5
f 1 5 6
f 1 6 7
f 1 7 2
f 2 7 9
f 2 9 10
f 2 10 22
f 2 22 8
f 3 11 12
f 3 12 13
f 3 8 14
f 3 14 11
f 4 13 28
f 4 28 15
f 4 15 5
f 5 16 6
f 5 15 17
f 5 17 18
f 5 18 16
f 6 16 19
f 6 19 20
f 6 20 7
f 7 20 37
f 7 37 50
f 7 50 49
f 7 49 48
f 7 48 52
f 7 52 68
f 7 68 54
f 7 54 56
f 7 56 69
f 7 69 83
f 7 83 87
f 7 87 101
f 7 101 111
f 7 111 124
f 7 124 140
f 7 140 138
f 7 138 149
f 7 149 148
f 7 148 160
f 7 160 173
f 7 173 189
f 7 189 197
f 7 197 221
f 7 221 195
f 7 195 194
f 7 194 220
f 7 220 219
f 7 219 218
f 7 218 237
f 7 237 246
f 7 246 240
f 7 240 239
f 7 239 241
f 7 241 238
f 7 238 225
f 7 225 224
f 7 224 202
f 7 202 177
f 7 177 174
f 7 174 161
f 7 161 150
f 7 150 141
f 7 141 131
f 7 131 130
f 7 130 129
f 7 129 128
f 7 128 126
f 7 126 114
f 7 114 102
f 7 102 89
f 7 89 74
f 7 74 73
f 7 73 72
f 7 72 57
f 7 57 39
f 7 39 23
f 7 23 9
f 8 21 14
f 8 22 21
f 9 23 24
f 9 24 25
f 9 25 26
f 9 26 22
f 9 22 10
f 11 14 21
f 11 21 38
f 11 38 26
f 11 26 25
f 11 25 24
f 11 24 43
f 11 43 60
f 11 60 75
f 11 75 90
f 11 90 105
f 11 105 117
f 11 117 132
f 11 132 142
f 11 142 153
f 11 153 165
f 11 165 164
f 11 164 178
f 11 178 203
f 11 203 204
f 11 204 229
f 11 229 242
f 11 242 244
f 11 244 243
f 11 243 245
f 11 245 234
f 11 234 211
f 11 211 210
f 11 210 209
f 11 209 207
f 11 207 182
f 11 182 181
f 11 181 180
f 11 180 166
f 11 166 154
f 11 154 143
f 11 143 133
f 11 133 120
f 11 120 119
f 11 119 118
f 11 118 106
f 11 106 95
f 11 95 94
f 11 94 93
f 11 93 92
f 11 92 80
f 11 80 64
f 11 64 76
f 11 76 61
f 11 61 44
f 11 44 30
f 11 30 29
f 11 29 27
f 11 27 12
f 12 27 28
f 12 28 13
f 15 28 27
f 15 27 29
f 15 29 30
f 15 30 31
f 15 31 17
f 16 32 33
f 16 33 19
f 16 18 34
f 16 34 32
f 17 31 18
f 18 31 35
f 18 35 36
f 18 36 34
f 19 33 37
f 19 37 20
f 21 22 38
f 22 26 38
f 23 39 40
f 23 40 41
f 23 41 24
f 24 41 40
f 24 40 42
f 24 42 43
f 30 44 45
f 30 45 31
f 31 45 46
f 31 46 47
f 31 47 35
f 32 48 49
f 32 49 33
f 32 34 48
f 33 49 50
f 33 50 37
f 34 36 51
f 34 51 52
f 34 52 48
f 35 47 53
f 35 53 36
f 36 54 51
f 36 53 55
f 36 55 56
f 36 56 54
f 39 57 58
f 39 58 40
f 40 58 74
f 40 74 89
f 40 89 103
f 40 103 115
f 40 115 127
f 40 127 116
f 40 116 104
f 40 104 90
f 40 90 75
f 40 75 59
f 40 59 42
f 42 59 43
f 43 59 60
f 44 61 62
f 44 62 45
f 45 63 46
f 45 62 64
f 45 64 65
f 45 65 66
f 45 66 63
f 46 63 47
f 47 63 67
f 47 67 53
f 51 54 68
f 51 68 52
f 53 69 55
f 53 67 70
f 53 70 71
f 53 71 69
f 55 69 56
f 57 72 58
f 58 72 73
f 58 73 74
f 59 75 60
f 61 76 62
f 62 76 64
f 63 66 77
f 63 77 78
f 63 78 67
f 64 79 65
f 64 80 79
f 65 77 66
f 65 79 80
f 65 80 81
f 65 81 82
f 65 82 77
f 67 78 70
f 69 71 83
f 70 78 84
f 70 84 85
f 70 85 86
f 70 86 87
f 70 87 88
f 70 88 83
f 70 83 71
f 77 82 91
f 77 91 84
f 77 84 78
f 80 92 81
f 81 93 94
f 81 94 95
f 81 95 96
f 81 96 97
f 81 97 98
f 81 98 82
f 81 92 93
f 82 98 91
f 83 88 87
f 84 91 85
f 85 91 99
f 85 99 100
f 85 100 86
f 86 101 87
f 86 100 101
f 89 102 103
f 90 104 105
f 91 98 99
f 95 106 107
f 95 107 96
f 96 108 109
f 96 109 97
f 96 107 108
f 97 110 99
f 97 99 98
f 97 109 110
f 99 110 100
f 100 111 101
f 100 110 112
f 100 112 113
f 100 113 111
f 102 114 103
f 103 114 115
f 104 116 117
f 104 117 105
f 106 118 107
f 107 118 119
f 107 119 120
f 107 120 121
f 107 121 122
f 107 122 108
f 108 122 123
f 108 123 112
f 108 112 110
f 108 110 109
f 111 113 124
f 112 123 113
f 113 123 125
f 113 125 124
f 114 126 115
f 115 126 128
f 115 128 129
f 115 129 130
f 115 130 127
f 116 127 117
f 117 131 132
f 117 127 131
f 120 133 121
f 121 134 135
f 121 135 122
f 121 133 134
f 122 135 123
f 123 136 137
f 123 137 138
f 123 138 139
f 123 139 125
f 123 135 136
f 124 125 140
f 125 139 140
f 127 130 131
f 131 141 142
f 131 142 132
f 133 143 144
f 133 144 134
f 134 144 145
f 134 145 146
f 134 146 135
f 135 146 136
f 136 147 148
f 136 148 137
f 136 146 145
f 136 145 147
f 137 148 149
f 137 149 138
f 138 140 139
f 141 150 151
f 141 151 152
f 141 152 142
f 142 152 153
f 143 154 144
f 144 154 155
f 144 155 156
f 144 156 145
f 145 156 147
f 147 157 158
f 147 158 159
f 147 159 160
f 147 160 148
f 147 156 157
f 150 161 162
f 150 162 151
f 151 162 163
f 151 163 164
f 151 164 165
f 151 165 153
f 151 153 152
f 154 166 167
f 154 167 168
f 154 168 155
f 155 168 169
f 155 169 156
f 156 169 157
f 157 170 171
f 157 171 172
f 157 172 158
f 157 169 170
f 158 160 159
f 158 172 173
f 158 173 160
f 161 174 162
f 162 175 176
f 162 176 163
f 162 174 177
f 162 177 175
f 163 178 164
f 163 176 179
f 163 179 178
f 166 180 167
f 167 169 168
f 167 180 181
f 167 181 182
f 167 182 183
f 167 183 184
f 167 184 185
f 167 185 186
f 167 186 187
f 167 187 169
f 169 187 188
f 169 188 170
f 170 188 171
f 171 189 172
f 171 188 190
f 171 190 191
f 171 191 192
f 171 192 193
f 171 193 194
f 171 194 195
f 171 195 196
f 171 196 197
f 171 197 189
f 172 189 173
f 175 198 199
f 175 199 200
f 175 200 176
f 175 177 198
f 176 200 201
f 176 201 179
f 177 202 198
f 178 179 203
f 179 204 203
f 179 201 205
f 179 205 206
f 179 206 204
f 182 207 183
f 183 207 184
f 184 208 185
f 184 207 209
f 184 209 210
f 184 210 211
f 184 211 208
f 185 208 212
f 185 212 190
f 185 190 186
f 186 190 187
f 187 190 188
f 190 212 213
f 190 213 214
f 190 214 191
f 191 214 192
f 192 215 216
f 192 216 217
f 192 217 218
f 192 218 219
f 192 219 220
f 192 220 193
f 192 214 215
f 193 220 194
f 195 221 196
f 196 221 197
f 198 222 223
f 198 223 199
f 198 202 224
f 198 224 225
f 198 225 222
f 199 223 226
f 199 226 227
f 199 227 200
f 200 227 228
f 200 228 201
f 201 228 205
f 204 206 229
f 205 230 231
f 205 231 206
f 205 228 230
f 206 231 229
f 208 232 233
f 208 233 212
f 208 211 234
f 208 234 232
f 212 233 213
f 213 233 230
f 213 230 228
f 213 228 235
f 213 235 216
f 213 216 215
f 213 215 214
f 216 218 217
f 216 235 228
f 216 228 227
f 216 227 226
f 216 226 236
f 216 236 218
f 218 236 237
f 222 238 223
f 222 225 238
f 223 239 240
f 223 240 226
f 223 238 241
f 223 241 239
f 226 240 236
f 229 231 242
f 230 233 231
f 231 233 232
f 231 232 243
f 231 243 244
f 231 244 242
f 232 234 245
f 232 245 243
f 236 240 246
f 236 246 237

