# https://github.com/mikedh/trimesh
v -0.05439833 0.07709743 -0.00416163
v -0.05439833 0.07896460 -0.00411373
v -0.05252076 0.07896460 -0.00390615
v -0.05252076 0.07709743 -0.00394341
v -0.05252076 0.07521992 -0.00384760
v -0.05439833 0.07521992 -0.00406050
v -0.05627591 0.07709743 -0.00408712
v -0.05627591 0.07896460 -0.00404986
v -0.05439833 0.08084211 -0.00393808
v -0.05252076 0.08084211 -0.00376244
v -0.05104172 0.08084211 -0.00312906
v -0.05100630 0.07896460 -0.00318228
v -0.05102401 0.07709743 -0.00318760
v -0.05106829 0.07521992 -0.00312906
v -0.05118343 0.07334758 -0.00301196
v -0.05252076 0.07334758 -0.00360809
v -0.05439833 0.07334758 -0.00383163
v -0.05814462 0.07521992 -0.00387953
v -0.05814462 0.07709743 -0.00399663
v -0.05814462 0.07896460 -0.00396470
v -0.05627591 0.08084211 -0.00387422
v -0.05814462 0.08084211 -0.00379970
v -0.05439833 0.08271445 -0.00366131
v -0.05252076 0.08271445 -0.00351228
v -0.05115686 0.08271445 -0.00300664
v -0.04850877 0.09192615 -0.00049440
v -0.04850877 0.07896460 -0.00087230
v -0.04850877 0.07782671 -0.00089359
v -0.04850877 0.07709743 -0.00089891
v -0.04850877 0.06209803 -0.00011650
v -0.05137827 0.07147007 -0.00284164
v -0.05152883 0.07036839 -0.00271390
v -0.05252076 0.07147007 -0.00325147
v -0.05439833 0.07147007 -0.00346970
v -0.05627591 0.07147007 -0.00337922
v -0.05814462 0.07147007 -0.00328873
v -0.05814462 0.07334758 -0.00364534
v -0.06002220 0.07334758 -0.00352293
v -0.06002220 0.07521992 -0.00375179
v -0.06002220 0.07709743 -0.00385292
v -0.06002220 0.07896460 -0.00384228
v -0.06002220 0.08084211 -0.00369325
v -0.05627591 0.08271445 -0.00359212
v -0.05814462 0.08271445 -0.00351228
v -0.05439833 0.08459196 -0.00325147
v -0.05252076 0.08459196 -0.00311841
v -0.05157311 0.08555399 -0.00267664
v -0.05140484 0.08459196 -0.00280971
v -0.04850877 0.09211234 -0.00044649
v -0.04850877 0.06171530 -0.00002602
v -0.05337098 0.06861502 -0.00268728
v -0.05385808 0.06861502 -0.00268728
v -0.05445147 0.06943222 -0.00290551
v -0.05627591 0.06972187 -0.00291083
v -0.05814462 0.06986669 -0.00287357
v -0.06002220 0.07008909 -0.00281503
v -0.06002220 0.07147007 -0.00316631
v -0.06189978 0.07334758 -0.00334196
v -0.06189978 0.07521992 -0.00357615
v -0.06376849 0.07709743 -0.00349099
v -0.06189978 0.07896460 -0.00365599
v -0.06189978 0.08084211 -0.00351760
v -0.06002220 0.08271445 -0.00340583
v -0.06376849 0.08271445 -0.00307051
v -0.06189978 0.08271445 -0.00324083
v -0.05814462 0.08459196 -0.00308648
v -0.05439833 0.08599880 -0.00282567
v -0.05252076 0.08582294 -0.00276712
v -0.05969451 0.08568847 -0.00271922
v -0.05814462 0.08578674 -0.00275648
v -0.04850877 0.09224165 -0.00039859
v -0.05439833 0.08693497 -0.00251164
v -0.04850877 0.06039121 0.00067124
v -0.05916312 0.06489620 -0.00080311
v -0.05814462 0.06482379 -0.00084037
v -0.05814462 0.06584789 -0.00132471
v -0.05814462 0.06772022 -0.00212842
v -0.05627591 0.06772022 -0.00221890
v -0.05510685 0.06869260 -0.00266067
v -0.05627591 0.06878570 -0.00263406
v -0.05814462 0.06893052 -0.00258616
v -0.06002220 0.06915293 -0.00250100
v -0.06154552 0.07033736 -0.00274051
v -0.06279428 0.07055459 -0.00266600
v -0.06205919 0.07129939 -0.00291615
v -0.06376849 0.07171317 -0.00283100
v -0.06376849 0.07334758 -0.00315035
v -0.06376849 0.07521992 -0.00339519
v -0.08064010 0.08271445 -0.00118633
v -0.06376849 0.07896460 -0.00346438
v -0.12284126 0.07424238 0.00481750
v -0.12296525 0.07979733 0.00476960
v -0.06376849 0.08084211 -0.00333131
v -0.06019933 0.08477299 -0.00292680
v -0.06376849 0.08410577 -0.00278841
v -0.08177373 0.08394544 -0.00087762
v -0.08064010 0.08420922 -0.00095214
v -0.06496412 0.08386268 -0.00272454
v -0.05814462 0.08672291 -0.00243181
v -0.06095213 0.08552295 -0.00267132
v -0.06019933 0.08637637 -0.00242648
v -0.04850877 0.09388641 0.00058075
v -0.05439833 0.08833663 -0.00196342
v -0.05814462 0.08982623 -0.00106923
v -0.05814462 0.09076240 -0.00059552
v -0.06002220 0.09063827 -0.00053698
v -0.05814462 0.09208649 0.00018689
v -0.04850877 0.06031363 0.00071914
v -0.06189978 0.06397555 0.00001657
v -0.06042074 0.06501516 -0.00074988
v -0.05988050 0.06572375 -0.00111181
v -0.06189978 0.06611684 -0.00109584
v -0.06002220 0.06772022 -0.00195278
v -0.06376849 0.06772022 -0.00158020
v -0.06376849 0.06959773 -0.00225616
v -0.07844369 0.07030633 -0.00088294
v -0.06376849 0.07077700 -0.00261277
v -0.07969246 0.07054942 -0.00079246
v -0.08080837 0.07129422 -0.00074988
v -0.08029470 0.07180109 -0.00087230
v -0.12296525 0.08034041 0.00476960
v -0.12196447 0.08091452 0.00467379
v -0.12187591 0.07306311 0.00501443
v -0.12368263 0.07146490 0.00625991
v -0.12358521 0.07350792 0.00537637
v -0.12520594 0.07334758 0.00632378
v -0.12542736 0.07521992 0.00616410
v -0.12358521 0.07515268 0.00516347
v -0.08064010 0.06959773 -0.00037198
v -0.06376849 0.08504194 -0.00253825
v -0.08064010 0.08514538 -0.00068601
v -0.12264642 0.08158691 0.00485476
v -0.12139765 0.08208344 0.00475895
v -0.12196447 0.08270927 0.00499314
v -0.07808943 0.08562640 -0.00083504
v -0.06002220 0.08833663 -0.00164407
v -0.05814462 0.08833663 -0.00177181
v -0.06376849 0.08646430 -0.00205923
v -0.04850877 0.09568634 0.00211897
v -0.06002220 0.09208649 0.00031995
v -0.06265258 0.09300197 0.00109172
v -0.05814462 0.09418122 0.00160801
v -0.05814462 0.09537601 0.00254477
v -0.06002220 0.08970210 -0.00100536
v -0.06337881 0.08942280 -0.00086698
v -0.06189978 0.09048310 -0.00045714
v -0.06197948 0.09226234 0.00058075
v -0.06189978 0.06266698 0.00082559
v -0.04850877 0.05961021 0.00136317
v -0.06189978 0.05958952 0.00322606
v -0.06189978 0.06052568 0.00243300
v -0.08064010 0.06308076 0.00299719
v -0.08064010 0.06401692 0.00233720
v -0.08064010 0.06548583 0.00140043
v -0.06189978 0.06518067 -0.00066472
v -0.06376849 0.06634959 -0.00100536
v -0.08064010 0.06772022 0.00032527
v -0.07689381 0.07006323 -0.00096810
v -0.12540079 0.08084211 0.00619604
v -0.12365606 0.08091452 0.00519008
v -0.12187591 0.06611684 0.00813344
v -0.12331066 0.06638580 0.00830909
v -0.08189772 0.06659268 0.00097995
v -0.12495796 0.07208556 0.00652071
v -0.13077667 0.07334758 0.01014537
v -0.13106009 0.07521992 0.00992714
v -0.12981132 0.07709743 0.00886263
v -0.08064010 0.08646430 -0.00024956
v -0.12375348 0.08271445 0.00562653
v -0.12320438 0.08958314 0.00831973
v -0.12187591 0.08981072 0.00814409
v -0.12000719 0.08330925 0.00491331
v -0.08166745 0.08934005 0.00104382
v -0.06391020 0.08851249 -0.00120762
v -0.08064010 0.08833663 0.00049560
v -0.04850877 0.09730007 0.00376364
v -0.05814462 0.09631735 0.00342299
v -0.06320168 0.09503464 0.00282687
v -0.06189978 0.09514326 0.00272574
v -0.06197948 0.09380366 0.00165591
v -0.08064010 0.09036931 0.00168252
v -0.04850877 0.05861714 0.00227865
v -0.05753353 0.05731892 0.00473234
v -0.06189978 0.05863266 0.00416283
v -0.06376849 0.05879300 0.00433315
v -0.06376849 0.05785683 0.00532314
v -0.12187591 0.06422381 0.00974085
v -0.12187591 0.06517550 0.00880408
v -0.08064010 0.06642717 0.00088946
v -0.12510853 0.08271445 0.00641426
v -0.12980246 0.07896460 0.00887860
v -0.13214943 0.07951285 0.01048069
v -0.12340808 0.06447725 0.01001763
v -0.12398375 0.06566169 0.00935231
v -0.12455942 0.06710991 0.00868699
v -0.13050212 0.07218384 0.01032633
v -0.13171546 0.07334758 0.01081068
v -0.13409786 0.07418031 0.01228503
v -0.13199887 0.07521992 0.01058181
v -0.13214057 0.07659573 0.01049133
v -0.13140549 0.07716985 0.00992182
v -0.13221143 0.07784740 0.01043278
v -0.13221143 0.07826635 0.01043278
v -0.12485168 0.08380579 0.00659523
v -0.12331066 0.09144513 0.01010279
v -0.12187591 0.09074688 0.00892118
v -0.12665841 0.08564192 0.00850602
v -0.12445314 0.08885903 0.00876683
v -0.12515281 0.08977451 0.01001763
v -0.12387747 0.09030725 0.00943214
v -0.05439833 0.10049132 0.00863376
v -0.04850877 0.09829313 0.00530185
v -0.05814462 0.09719145 0.00435976
v -0.05814462 0.09812762 0.00545620
v -0.06002220 0.09883622 0.00645684
v -0.05814462 0.09888277 0.00639297
v -0.05814462 0.09976721 0.00763845
v -0.05814462 0.10046546 0.00866570
v -0.06189978 0.09607943 0.00364654
v -0.06189978 0.09701559 0.00458331
v -0.08064010 0.09821555 0.00896908
v -0.04850877 0.05768097 0.00321541
v -0.05770180 0.05220361 0.01140681
v -0.05937568 0.05220361 0.01164100
v -0.06189978 0.05594311 0.00723926
v -0.06189978 0.05687928 0.00607894
v -0.07743405 0.05559657 0.01052327
v -0.07877138 0.05570002 0.01065633
v -0.06189978 0.05769649 0.00514218
v -0.04850877 0.05706031 0.00389138
v -0.08064010 0.05584484 0.01085326
v -0.12187591 0.06085671 0.01395098
v -0.12304496 0.06101187 0.01408405
v -0.12603845 0.08271445 0.00704765
v -0.13141434 0.07891805 0.00993246
v -0.13295537 0.07891805 0.01113004
v -0.13412442 0.08021110 0.01225309
v -0.13326534 0.08083694 0.01167826
v -0.13190145 0.08084211 0.01063504
v -0.12465684 0.06494275 0.01048601
v -0.12522366 0.06619442 0.00993779
v -0.13032499 0.06865122 0.01231696
v -0.13410671 0.07045632 0.01414260
v -0.13253026 0.07195626 0.01205084
v -0.13314136 0.07347172 0.01183793
v -0.13415099 0.07521992 0.01221051
v -0.13312364 0.07521992 0.01140149
v -0.13601086 0.07222521 0.01598420
v -0.13745446 0.07896460 0.01684645
v -0.13652453 0.07896460 0.01530823
v -0.13416871 0.07709743 0.01218922
v -0.13415099 0.07896460 0.01221583
v -0.12695067 0.08459196 0.00828248
v -0.12289440 0.09494671 0.01415324
v -0.12187591 0.09165719 0.00986327
v -0.12455942 0.09102618 0.01062439
v -0.13035156 0.08371268 0.01042214
v -0.13243284 0.08399715 0.01216793
v -0.13323878 0.08474195 0.01317389
v -0.13199887 0.08524366 0.01246599
v -0.13404472 0.08549192 0.01423840
v -0.13220257 0.08741598 0.01419050
v -0.05439833 0.10100854 0.00957053
v -0.05252076 0.10046546 0.00867634
v -0.05814462 0.10104475 0.00960247
v -0.05627591 0.10104475 0.00960247
v -0.04850877 0.09869139 0.00621201
v -0.05252076 0.10097234 0.00961311
v -0.05252076 0.10183092 0.01139084
v -0.06189978 0.09795694 0.00561588
v -0.06002220 0.09804487 0.00552008
v -0.06002220 0.09967928 0.00763845
v -0.06189978 0.09876380 0.00655265
v -0.06002220 0.10042408 0.00873489
v -0.07877138 0.09838106 0.00883070
v -0.08064010 0.09906379 0.00990585
v -0.04850877 0.05696721 0.00401380
v -0.04850877 0.05586036 0.00555733
v -0.05627591 0.05220361 0.01129503
v -0.06338767 0.05220361 0.01340276
v -0.08064010 0.05316564 0.01701145
v -0.08064010 0.05356390 0.01575533
v -0.08064010 0.05388974 0.01481856
v -0.08064010 0.05454662 0.01326438
v -0.08064010 0.05525521 0.01179003
v -0.12105225 0.05926367 0.01603742
v -0.12176077 0.05985330 0.01530291
v -0.12230987 0.05938780 0.01633016
v -0.12370920 0.06067568 0.01518581
v -0.12660527 0.06488068 0.01229035
v -0.12757063 0.08260066 0.00808022
v -0.13398272 0.08146278 0.01240212
v -0.13661310 0.08084211 0.01529226
v -0.13277824 0.08271445 0.01190180
v -0.13046670 0.06664958 0.01406276
v -0.13102465 0.06796849 0.01344534
v -0.13230885 0.06854260 0.01407872
v -0.13355761 0.06920982 0.01472808
v -0.13412442 0.06856329 0.01597887
v -0.13438126 0.06973738 0.01526565
v -0.13576288 0.07090630 0.01701145
v -0.13621456 0.07184247 0.01701145
v -0.13726848 0.07334758 0.01889030
v -0.13662196 0.07334758 0.01701145
v -0.13772902 0.07673021 0.01823031
v -0.13781758 0.07798188 0.01793225
v -0.13755189 0.08084211 0.01683048
v -0.13787072 0.07896460 0.01778321
v -0.12705695 0.09155375 0.01373808
v -0.12614473 0.09280542 0.01455243
v -0.12677354 0.09317782 0.01580323
v -0.12469227 0.09490017 0.01607468
v -0.12334608 0.09523119 0.01513791
v -0.12290326 0.09682422 0.01783644
v -0.12187591 0.09653458 0.01660161
v -0.12187591 0.09574323 0.01513791
v -0.13028071 0.08924177 0.01423840
v -0.13371702 0.08271445 0.01261503
v -0.13436355 0.08424025 0.01388179
v -0.13635626 0.08271445 0.01556371
v -0.13603743 0.08377475 0.01592565
v -0.13408014 0.08742116 0.01605871
v -0.13359304 0.08646430 0.01468017
v -0.05689586 0.10243090 0.01224245
v -0.06002220 0.10098785 0.00967166
v -0.05743611 0.10243090 0.01224245
v -0.04968668 0.10242572 0.01599484
v -0.04850877 0.09872759 0.00636104
v -0.05123657 0.10258089 0.01376469
v -0.05062547 0.10275157 0.01527630
v -0.05252076 0.10231711 0.01251390
v -0.06299798 0.09870174 0.00663781
v -0.06189978 0.09953446 0.00763845
v -0.06189978 0.10035684 0.00884666
v -0.08057811 0.10008271 0.01155584
v -0.07877138 0.10009306 0.01123116
v -0.06376849 0.10026891 0.00897973
v -0.04850877 0.05220361 0.01169423
v -0.05181224 0.05220361 0.01115133
v -0.05241448 0.05220361 0.01114068
v -0.05399979 0.05220361 0.01118858
v -0.05585965 0.05220361 0.01126310
v -0.06356479 0.05220361 0.01349857
v -0.08164974 0.05363113 0.01599484
v -0.08064010 0.05285530 0.01889030
v -0.12116739 0.05736547 0.02342511
v -0.12176077 0.05904643 0.01697951
v -0.12303610 0.05916022 0.01758096
v -0.12370034 0.05979641 0.01697951
v -0.12486054 0.06102739 0.01584049
v -0.13031614 0.06490655 0.01606936
v -0.13468239 0.08271445 0.01355179
v -0.13562117 0.08271445 0.01462162
v -0.13101580 0.06606512 0.01541468
v -0.13225571 0.06672716 0.01600549
v -0.13264540 0.06638580 0.01701145
v -0.13357532 0.06731162 0.01701145
v -0.13397387 0.06695473 0.01822499
v -0.13591343 0.07058562 0.01809724
v -0.13642712 0.07131491 0.01878918
v -0.13764931 0.07329069 0.02059352
v -0.13780872 0.07432513 0.01985901
v -0.13764045 0.07505958 0.01886901
v -0.13791500 0.07557163 0.01948111
v -0.13798586 0.07725260 0.01886901
v -0.13815412 0.07896460 0.01889030
v -0.13723305 0.08254377 0.01717644
v -0.13787072 0.08084211 0.01776725
v -0.13781758 0.08180414 0.01791096
v -0.12830572 0.09102618 0.01436614
v -0.13012129 0.09100550 0.01630355
v -0.12753520 0.09212786 0.01508469
v -0.13060840 0.09137789 0.01755435
v -0.13185717 0.09091757 0.01842192
v -0.13229113 0.09122273 0.01967272
v -0.12672040 0.09500361 0.01960885
v -0.12486054 0.09689664 0.02323882
v -0.12375348 0.09764143 0.02450559
v -0.12187591 0.09835002 0.02450559
v -0.12187591 0.09694836 0.01753838
v -0.08116264 0.10048097 0.01241809
v -0.12000719 0.09666906 0.01631419
v -0.13214057 0.08923660 0.01612258
v -0.13604628 0.08569364 0.01780983
v -0.13430156 0.08774700 0.01701145
v -0.13391187 0.08909178 0.01836870
v -0.13266311 0.08966589 0.01737338
v -0.05814462 0.10339293 0.01513791
v -0.05439833 0.10335155 0.01513791
v -0.05252076 0.10330500 0.01513791
v -0.05252076 0.10270502 0.01345066
v -0.06189978 0.10092061 0.00978343
v -0.06189978 0.10173265 0.01139084
v -0.06002220 0.10333603 0.01513791
v -0.06189978 0.10227573 0.01261503
v -0.06189978 0.10266365 0.01355179
v -0.05020921 0.10396704 0.02076384
v -0.04988152 0.10415324 0.02263737
v -0.04921729 0.10303088 0.02076384
v -0.05065204 0.10324811 0.01701145
v -0.04850877 0.10220332 0.02076384
v -0.05252076 0.10387394 0.01701145
v -0.05114800 0.10447910 0.02076384
v -0.07877138 0.10061028 0.01216793
v -0.06376849 0.10082751 0.00991650
v -0.04850877 0.05220361 0.03511874
v -0.06952521 0.05220361 0.01701145
v -0.07052600 0.05220361 0.01776192
v -0.07139393 0.05220361 0.01889030
v -0.07030458 0.05220361 0.02263737
v -0.06978205 0.05220361 0.02442043
v -0.06856871 0.05220361 0.02825798
v -0.07877138 0.05314495 0.03013151
v -0.08064010 0.05333632 0.03013151
v -0.12112311 0.05737581 0.02450559
v -0.12206189 0.05758270 0.02450559
v -0.12375348 0.05830164 0.02450559
v -0.12491368 0.05913954 0.02326011
v -0.12700381 0.06090843 0.02076384
v -0.12793374 0.06147220 0.02076384
v -0.13048441 0.06293076 0.02128013
v -0.12650785 0.06119807 0.01810257
v -0.12524137 0.06078430 0.01701145
v -0.12865998 0.06287387 0.01766612
v -0.13066154 0.06465311 0.01701145
v -0.13201658 0.06505654 0.01828886
v -0.13159147 0.06544963 0.01701145
v -0.13315907 0.06585306 0.01887966
v -0.13353990 0.06549101 0.02076384
v -0.13414214 0.06664958 0.01947578
v -0.13719763 0.06959773 0.02637912
v -0.13694079 0.07147007 0.02076384
v -0.13774673 0.07263382 0.02217431
v -0.13793271 0.07388032 0.02110980
v -0.13808328 0.07505958 0.02059352
v -0.13841097 0.07709743 0.02076384
v -0.13854381 0.07896460 0.02076384
v -0.13811870 0.08084211 0.01889030
v -0.13701164 0.08459196 0.01889030
v -0.13846411 0.08084211 0.02076384
v -0.13844639 0.08271445 0.02263737
v -0.13791500 0.08217136 0.01889030
v -0.13778216 0.08353166 0.01997610
v -0.13346019 0.09053483 0.02076384
v -0.13252140 0.09140893 0.02076384
v -0.13048441 0.09314162 0.02143980
v -0.13070582 0.09332264 0.02263737
v -0.12495796 0.09695353 0.02450559
v -0.13083867 0.09344677 0.02450559
v -0.12496682 0.09694836 0.02637912
v -0.12375348 0.09762075 0.02637912
v -0.12187591 0.09832416 0.02637912
v -0.12002490 0.09860346 0.02454817
v -0.12000719 0.09826210 0.02263737
v -0.08033013 0.10246710 0.01762354
v -0.08082609 0.10222918 0.01700612
v -0.07877138 0.10231711 0.01642064
v -0.08064010 0.10163955 0.01513791
v -0.08057811 0.10084820 0.01313131
v -0.07877138 0.10110681 0.01326438
v -0.13630312 0.08601432 0.01889030
v -0.13412442 0.08936073 0.01961949
v -0.05814462 0.10391532 0.01701145
v -0.05627591 0.10392567 0.01701145
v -0.05439833 0.10393084 0.01701145
v -0.06002220 0.10385842 0.01701145
v -0.06189978 0.10322225 0.01513791
v -0.06189978 0.10374981 0.01701145
v -0.06376849 0.10307742 0.01513791
v -0.07877138 0.10187230 0.01513791
v -0.07616757 0.10242055 0.01602145
v -0.05008522 0.10402911 0.02450559
v -0.04960697 0.10251365 0.03147280
v -0.04950069 0.10263261 0.03013151
v -0.04918186 0.10309294 0.02450559
v -0.04850877 0.10232228 0.02450559
v -0.04850877 0.10238952 0.02390946
v -0.04850877 0.10252400 0.02263737
v -0.05082031 0.10462908 0.02263737
v -0.05102401 0.10452046 0.02450559
v -0.05439833 0.10423600 0.01819837
v -0.05252076 0.10421014 0.01840595
v -0.05252076 0.10474805 0.02076384
v -0.05252076 0.10504286 0.02263737
v -0.04850877 0.05804820 0.04190498
v -0.05065204 0.05220361 0.03528906
v -0.06753250 0.05220361 0.03009426
v -0.08165860 0.05362079 0.03123328
v -0.06551322 0.05220361 0.03185602
v -0.06344966 0.05220361 0.03344214
v -0.12096369 0.05740685 0.02547961
v -0.12169877 0.05769132 0.02621412
v -0.12375348 0.05846198 0.02637912
v -0.12496682 0.05910850 0.02637912
v -0.12503767 0.05906195 0.02450559
v -0.12727836 0.06070671 0.02263737
v -0.13064383 0.06282732 0.02263737
v -0.13158262 0.06343764 0.02263737
v -0.13288452 0.06437381 0.02263737
v -0.13260111 0.06459621 0.02076384
v -0.13116636 0.06356694 0.02069997
v -0.13022757 0.06309110 0.02002933
v -0.12995303 0.06329281 0.01889030
v -0.13133463 0.06430139 0.01890095
v -0.13234427 0.06479793 0.01953965
v -0.13382331 0.06522722 0.02263737
v -0.13426613 0.06642717 0.02076384
v -0.13635626 0.06824779 0.02637912
v -0.13655996 0.06808228 0.02825798
v -0.13745446 0.06959773 0.02825798
v -0.13772016 0.07081838 0.02637912
v -0.13741018 0.07162524 0.02273318
v -0.13783530 0.07235452 0.02341979
v -0.13801242 0.07329069 0.02273318
v -0.13844639 0.07521992 0.02263737
v -0.13871209 0.07709743 0.02263737
v -0.13882722 0.07896460 0.02263737
v -0.13756074 0.08456610 0.02066271
v -0.13873866 0.08084211 0.02263737
v -0.13809213 0.08282824 0.02066271
v -0.13867666 0.08271445 0.02450559
v -0.13845525 0.08459196 0.02637912
v -0.13803014 0.08426611 0.02263737
v -0.13791500 0.08392474 0.02122158
v -0.13431041 0.08959348 0.02076384
v -0.13374360 0.09081929 0.02263737
v -0.13280481 0.09165202 0.02263737
v -0.13164461 0.09258819 0.02263737
v -0.13177746 0.09269163 0.02450559
v -0.13295537 0.09177098 0.02637912
v -0.13169775 0.09270715 0.02637912
v -0.13076782 0.09335885 0.02637912
v -0.12487826 0.09689146 0.02753411
v -0.12265528 0.09673112 0.03272892
v -0.12140651 0.09690181 0.03321859
v -0.12002490 0.09857760 0.02627799
v -0.11941380 0.09866036 0.02558606
v -0.08064010 0.10268950 0.02825798
v -0.06189978 0.10442736 0.02263737
v -0.06264372 0.10425669 0.02022094
v -0.06139496 0.10431358 0.01959820
v -0.06197063 0.10414290 0.01893821
v -0.07877138 0.10253434 0.01735741
v -0.13650682 0.08656774 0.02079577
v -0.13602857 0.08752460 0.02143980
v -0.05814462 0.10421014 0.01832079
v -0.05627591 0.10422565 0.01825692
v -0.06002220 0.10417910 0.01845918
v -0.05150226 0.10430840 0.02763524
v -0.05078489 0.10379119 0.02825798
v -0.04988152 0.10230677 0.03271827
v -0.04850877 0.09983445 0.03763098
v -0.04850877 0.10169127 0.02825798
v -0.05065204 0.10335672 0.03013151
v -0.04850877 0.10207402 0.02603316
v -0.05439833 0.10475321 0.02076384
v -0.05439833 0.10502734 0.02263737
v -0.05439833 0.10494459 0.02450559
v -0.05252076 0.10484115 0.02450559
v -0.05439833 0.05220361 0.03546470
v -0.05252076 0.05220361 0.03542745
v -0.04850877 0.05885506 0.04271933
v -0.05439833 0.05808441 0.04163885
v -0.05439833 0.05717927 0.04070209
v -0.05627591 0.05220361 0.03542745
v -0.06200605 0.05220361 0.03412342
v -0.08064010 0.05385354 0.03234569
v -0.12100797 0.05927401 0.03297908
v -0.12000719 0.05754132 0.02660799
v -0.12226559 0.05940332 0.03233505
v -0.12282355 0.05928436 0.03108425
v -0.12481626 0.05920160 0.02744895
v -0.13056412 0.06286869 0.02825798
v -0.12590561 0.05969296 0.02637912
v -0.12597646 0.05965676 0.02450559
v -0.13166232 0.06333936 0.02450559
v -0.13304393 0.06428071 0.02450559
v -0.13398272 0.06504620 0.02450559
v -0.13636512 0.06826848 0.02980152
v -0.13400044 0.06498930 0.02637912
v -0.13380559 0.06513412 0.02825798
v -0.13675480 0.06942188 0.03030716
v -0.13756960 0.07143904 0.03008893
v -0.13778216 0.07075114 0.02825798
v -0.13795929 0.07175454 0.02637912
v -0.13821612 0.07334758 0.02450559
v -0.13789729 0.07216315 0.02450559
v -0.13862352 0.07521992 0.02450559
v -0.13888036 0.07709743 0.02450559
v -0.13897778 0.07896460 0.02450559
v -0.13891579 0.08084211 0.02450559
v -0.13768473 0.08520228 0.02263737
v -0.13879179 0.08271445 0.02637912
v -0.13854381 0.08459196 0.02825798
v -0.13810984 0.08624706 0.02825798
v -0.13802128 0.08595742 0.02637912
v -0.13778216 0.08544537 0.02374446
v -0.13547947 0.08866766 0.02263737
v -0.13454068 0.08988313 0.02263737
v -0.13385873 0.09092791 0.02450559
v -0.13292880 0.09175546 0.02450559
v -0.13766702 0.08718324 0.02825798
v -0.13389416 0.09094342 0.02637912
v -0.13287566 0.09169857 0.02825798
v -0.13150290 0.09263474 0.02825798
v -0.12721637 0.09532429 0.02825798
v -0.12686211 0.09508119 0.03013151
v -0.12496682 0.09509671 0.03336762
v -0.12385976 0.09555186 0.03394778
v -0.12330180 0.09521050 0.03512406
v -0.12197332 0.09645700 0.03385729
v -0.12660527 0.09492603 0.03113215
v -0.12000719 0.09650872 0.03425116
v -0.08064010 0.10073441 0.03521987
v -0.08064010 0.10136542 0.03387859
v -0.08068438 0.10215160 0.03184005
v -0.08133976 0.10238952 0.03101506
v -0.08068438 0.10256020 0.03028587
v -0.07877138 0.10287053 0.02825798
v -0.06189978 0.10446358 0.02450559
v -0.06197063 0.10434461 0.02081174
v -0.06002220 0.10434978 0.01939595
v -0.13699393 0.08646430 0.02263737
v -0.13617913 0.08772632 0.02263737
v -0.05252076 0.10436013 0.02787476
v -0.05252076 0.10421530 0.02881152
v -0.05252076 0.10386360 0.03013151
v -0.05056347 0.10278778 0.03205828
v -0.04850877 0.09914655 0.03940339
v -0.05113029 0.10254985 0.03338891
v -0.05056347 0.10209987 0.03395842
v -0.06002220 0.10461356 0.02450559
v -0.05627591 0.10489286 0.02450559
v -0.05439833 0.10466529 0.02637912
v -0.05627591 0.10470150 0.02637912
v -0.04850877 0.06004985 0.04376255
v -0.05439833 0.06097049 0.04435867
v -0.05439833 0.06002915 0.04350707
v -0.05439833 0.05902057 0.04257030
v -0.06265258 0.05929987 0.04230417
v -0.07991387 0.05737581 0.03859968
v -0.05674530 0.05220361 0.03537954
v -0.05835718 0.05220361 0.03513470
v -0.08064010 0.05448455 0.03387859
v -0.12173420 0.05970331 0.03371359
v -0.12382433 0.06059810 0.03386794
v -0.12356750 0.05982227 0.03182941
v -0.12686211 0.06097567 0.02967910
v -0.12713666 0.06078430 0.02825798
v -0.13037813 0.06299283 0.02929055
v -0.13287566 0.06446691 0.02825798
v -0.13306164 0.06431174 0.02637912
v -0.13166232 0.06337557 0.02637912
v -0.13592229 0.06867708 0.03105232
v -0.13598429 0.07046149 0.03300037
v -0.13437241 0.06643235 0.03013151
v -0.13413328 0.06670647 0.03118538
v -0.13425727 0.06841330 0.03331440
v -0.13253912 0.06468414 0.02976958
v -0.13315021 0.06538756 0.03029119
v -0.13679908 0.07147007 0.03200505
v -0.13772902 0.07334758 0.03074893
v -0.13787072 0.07204419 0.02943958
v -0.13822498 0.07334758 0.02825798
v -0.13865895 0.07521992 0.02637912
v -0.13830469 0.07334758 0.02637912
v -0.13888922 0.07709743 0.02637912
v -0.13898664 0.07896460 0.02637912
v -0.13894236 0.08084211 0.02637912
v -0.13872980 0.08271445 0.02825798
v -0.13838439 0.08271445 0.03013151
v -0.13812756 0.08469023 0.03028587
v -0.13801242 0.08605569 0.02975894
v -0.13748990 0.08689359 0.02637912
v -0.13748990 0.08659360 0.03028587
v -0.13649797 0.08773666 0.03013151
v -0.13381445 0.09081929 0.02825798
v -0.13254797 0.09142962 0.03013151
v -0.13039584 0.09306920 0.02932249
v -0.12779204 0.09449156 0.03013151
v -0.12455942 0.09478638 0.03461842
v -0.12881053 0.09328643 0.03164844
v -0.13226456 0.09120204 0.03116941
v -0.12840313 0.09300197 0.03289391
v -0.12272613 0.09111411 0.04040402
v -0.12187591 0.09547428 0.03537422
v -0.13111322 0.09239164 0.03001974
v -0.08064010 0.10017064 0.03615663
v -0.07877138 0.10025857 0.03627905
v -0.07877138 0.10078096 0.03534228
v -0.06189978 0.10216712 0.03432036
v -0.06189978 0.10258606 0.03338359
v -0.06189978 0.10308777 0.03200505
v -0.06189978 0.10363602 0.03013151
v -0.06112926 0.10429289 0.02741170
v -0.07877138 0.10271020 0.03013151
v -0.06002220 0.10449461 0.02637912
v -0.05439833 0.10420496 0.02882217
v -0.05252076 0.10322225 0.03200505
v -0.05439833 0.10384291 0.03013151
v -0.05439833 0.10323776 0.03200505
v -0.04850877 0.09863967 0.04019644
v -0.05252076 0.10228090 0.03451729
v -0.05252076 0.10167576 0.03575212
v -0.05252076 0.10085855 0.03718921
v -0.05252076 0.10263779 0.03357520
v -0.05814462 0.10461356 0.02637912
v -0.05627591 0.10417910 0.02874233
v -0.06002220 0.10431875 0.02751815
v -0.05814462 0.10436013 0.02768847
v -0.04850877 0.06086188 0.04445980
v -0.05439833 0.06209803 0.04518899
v -0.07236814 0.06489103 0.04607785
v -0.07877138 0.06518584 0.04587027
v -0.06189978 0.06129634 0.04408722
v -0.08057811 0.05683790 0.03775872
v -0.05815348 0.05220361 0.03516664
v -0.12133566 0.06479276 0.04054241
v -0.12187591 0.06065499 0.03539019
v -0.08064010 0.05578277 0.03630567
v -0.08064010 0.05523452 0.03536890
v -0.12323980 0.06086705 0.03514003
v -0.12448857 0.06137910 0.03448003
v -0.13215828 0.06492723 0.03102038
v -0.13389416 0.06897190 0.03456519
v -0.13613485 0.07147007 0.03319198
v -0.13405357 0.07245279 0.03667824
v -0.13309708 0.06624097 0.03188795
v -0.13245055 0.06656165 0.03322923
v -0.13369931 0.06716680 0.03243618
v -0.13632969 0.07334758 0.03358052
v -0.13718877 0.07334758 0.03200505
v -0.13779987 0.07438202 0.03102570
v -0.13809213 0.07509062 0.03029119
v -0.13796814 0.07334758 0.02981216
v -0.13851724 0.07521992 0.02825798
v -0.13872980 0.07709743 0.02825798
v -0.13884494 0.07896460 0.02825798
v -0.13883608 0.08084211 0.02825798
v -0.13850839 0.08084211 0.03013151
v -0.13803899 0.08084211 0.03179215
v -0.13795929 0.08271445 0.03147280
v -0.13787958 0.08412646 0.03120135
v -0.13779101 0.08537814 0.03100973
v -0.13648911 0.08638671 0.03191457
v -0.13611713 0.08750908 0.03122796
v -0.13056412 0.09133652 0.03328246
v -0.13003273 0.09096412 0.03453326
v -0.12664070 0.09307955 0.03490051
v -0.12678240 0.09134169 0.03688582
v -0.13181288 0.09086584 0.03242021
v -0.13257454 0.08961417 0.03338891
v -0.12341693 0.08986243 0.04089902
v -0.12200875 0.09037966 0.04117579
v -0.12147736 0.09133652 0.04060628
v -0.13007701 0.08911247 0.03652921
v -0.13075011 0.08786596 0.03703485
v -0.08064010 0.09923447 0.03719985
v -0.06189978 0.09852071 0.04028693
v -0.10125800 0.09447087 0.03991435
v -0.07126994 0.10050167 0.03665695
v -0.06189978 0.09922930 0.03935016
v -0.06752365 0.10116888 0.03575212
v -0.06002220 0.10222401 0.03441084
v -0.06002220 0.10261710 0.03347407
v -0.06002220 0.10314983 0.03200505
v -0.06002220 0.10370843 0.03013151
v -0.06002220 0.10411187 0.02845491
v -0.05814462 0.10376015 0.03013151
v -0.05627591 0.10380153 0.03013151
v -0.05439833 0.10265847 0.03362310
v -0.05814462 0.10318604 0.03200505
v -0.05627591 0.10321707 0.03200505
v -0.05627591 0.10265847 0.03362310
v -0.04850877 0.09855174 0.04032418
v -0.05439833 0.10029478 0.03820049
v -0.05439833 0.10229125 0.03455987
v -0.05439833 0.10172748 0.03575212
v -0.05439833 0.10089475 0.03726372
v -0.05814462 0.10414290 0.02862524
v -0.04850877 0.06209803 0.04529544
v -0.05252076 0.06318420 0.04597673
v -0.05439833 0.06321006 0.04595544
v -0.07126994 0.06584789 0.04662608
v -0.07877138 0.06612201 0.04641317
v -0.05439833 0.06414623 0.04651430
v -0.05439833 0.06584789 0.04740849
v -0.08064010 0.06628752 0.04633334
v -0.08064010 0.06535135 0.04576915
v -0.12000719 0.06584789 0.04146321
v -0.12192904 0.06571341 0.04110128
v -0.12258442 0.06499447 0.04035612
v -0.12474541 0.06487034 0.03861565
v -0.13061725 0.06652545 0.03510277
v -0.12857141 0.06481345 0.03493777
v -0.12982903 0.06527894 0.03430439
v -0.13041356 0.06483413 0.03305359
v -0.13177746 0.06522722 0.03200505
v -0.13317678 0.06773574 0.03389455
v -0.13264540 0.06830469 0.03517729
v -0.13315021 0.06962877 0.03571486
v -0.13375246 0.07147007 0.03635357
v -0.13240627 0.07029081 0.03684324
v -0.13281366 0.07147007 0.03718921
v -0.13199887 0.07270623 0.03845065
v -0.13235313 0.07395790 0.03869016
v -0.13256568 0.07521992 0.03885516
v -0.13350448 0.07521992 0.03793969
v -0.13416871 0.07370447 0.03683260
v -0.13591343 0.07521992 0.03477277
v -0.13186602 0.06705818 0.03447471
v -0.13704706 0.07896460 0.03387859
v -0.13771130 0.07896460 0.03268634
v -0.13787958 0.07562853 0.03122264
v -0.13836668 0.07709743 0.03013151
v -0.13850839 0.07896460 0.03013151
v -0.13804785 0.07896460 0.03174957
v -0.13773788 0.08084211 0.03272892
v -0.13754303 0.08271445 0.03240956
v -0.13653339 0.08266272 0.03394246
v -0.13603743 0.08200586 0.03493245
v -0.13630312 0.08459196 0.03336762
v -0.13608171 0.08570915 0.03309085
v -0.13391187 0.08710565 0.03459181
v -0.13324763 0.08842973 0.03399036
v -0.13201658 0.08912281 0.03463971
v -0.13076782 0.08971244 0.03528374
v -0.12466570 0.08924177 0.04042531
v -0.13045784 0.08568847 0.03866355
v -0.12694182 0.08599880 0.04067015
v -0.12283240 0.08367648 0.04419900
v -0.12187591 0.08393509 0.04432142
v -0.12000719 0.09021415 0.04153773
v -0.10125800 0.09353470 0.04090434
v -0.07877138 0.09078826 0.04585431
v -0.07877138 0.09202959 0.04491754
v -0.07877138 0.09296576 0.04412448
v -0.13138777 0.08849697 0.03590647
v -0.13200773 0.08717289 0.03652921
v -0.13122835 0.08642809 0.03762033
v -0.06189978 0.09758454 0.04130353
v -0.05559396 0.09868104 0.04047854
v -0.06189978 0.09670009 0.04224030
v -0.06752365 0.10061545 0.03680598
v -0.06002220 0.10155679 0.03575212
v -0.06189978 0.10016547 0.03800888
v -0.05627591 0.10029478 0.03822178
v -0.05627591 0.10174299 0.03575212
v -0.05627591 0.10229642 0.03455987
v -0.04850877 0.09765695 0.04136740
v -0.05439833 0.09938964 0.03950451
v -0.05335327 0.09866553 0.04046257
v -0.05627591 0.10091027 0.03728501
v -0.04850877 0.06400658 0.04593947
v -0.05108600 0.06811848 0.04818026
v -0.05252076 0.06779781 0.04829735
v -0.05252076 0.06685647 0.04790881
v -0.05252076 0.06584789 0.04742446
v -0.05252076 0.06412554 0.04651430
v -0.07501623 0.06772022 0.04736059
v -0.07877138 0.06772022 0.04717962
v -0.05439833 0.06689267 0.04789817
v -0.07314751 0.06772022 0.04744575
v -0.08064010 0.06772022 0.04699865
v -0.12152164 0.07216832 0.04432142
v -0.12277041 0.07245279 0.04417771
v -0.12336380 0.06624614 0.04085644
v -0.12389518 0.06571341 0.04000483
v -0.13182174 0.06904431 0.03642276
v -0.12688868 0.07015116 0.04067547
v -0.12461256 0.06689784 0.04037209
v -0.12750863 0.07159938 0.04088837
v -0.12980246 0.07334758 0.04012193
v -0.13018329 0.07461477 0.04037209
v -0.13111322 0.07523027 0.03987709
v -0.13275167 0.07709743 0.03899355
v -0.13368160 0.07709743 0.03808872
v -0.13039584 0.07586644 0.04049451
v -0.13426613 0.07521992 0.03700292
v -0.13609942 0.07742845 0.03499632
v -0.13621456 0.07896460 0.03511342
v -0.13702935 0.08084211 0.03387859
v -0.13796814 0.07709743 0.03145151
v -0.13617028 0.08084211 0.03506019
v -0.13356647 0.08084211 0.03804081
v -0.13422185 0.08238343 0.03690711
v -0.13406243 0.08363510 0.03668357
v -0.13383216 0.08459196 0.03639615
v -0.13321221 0.08651602 0.03579470
v -0.13266311 0.08787631 0.03528374
v -0.13250369 0.08592122 0.03696034
v -0.13175975 0.08459196 0.03825372
v -0.13082095 0.08459196 0.03889774
v -0.12305382 0.08271445 0.04432674
v -0.12187591 0.08271445 0.04469932
v -0.12989102 0.08271445 0.04020177
v -0.12000719 0.08271445 0.04492819
v -0.12000719 0.08418336 0.04443851
v -0.08064010 0.08965555 0.04626947
v -0.07877138 0.08985209 0.04637592
v -0.06897611 0.09119686 0.04609382
v -0.06189978 0.09240199 0.04565737
v -0.06189978 0.09375194 0.04472061
v -0.06189978 0.09468810 0.04402335
v -0.06189978 0.09575875 0.04308659
v -0.05585079 0.09681388 0.04235207
v -0.05439833 0.09683457 0.04237336
v -0.05439833 0.09777591 0.04142063
v -0.05439833 0.09868622 0.04048386
v -0.05439833 0.09486396 0.04416174
v -0.06189978 0.10074993 0.03706679
v -0.04850877 0.09691733 0.04214982
v -0.04850877 0.07334758 0.04747768
v -0.04930585 0.07334758 0.04846235
v -0.04943870 0.07147007 0.04825477
v -0.04959811 0.07014082 0.04806849
v -0.05065204 0.07147007 0.04902122
v -0.05053690 0.06955118 0.04841977
v -0.05252076 0.07147007 0.04949493
v -0.05252076 0.06959773 0.04896267
v -0.05439833 0.06783402 0.04825477
v -0.07314751 0.06879087 0.04789817
v -0.07501623 0.06890466 0.04786091
v -0.07877138 0.06916327 0.04777042
v -0.12000719 0.07334758 0.04488028
v -0.12203532 0.07318207 0.04456093
v -0.08015299 0.07027012 0.04802590
v -0.12307153 0.07369929 0.04434803
v -0.13276053 0.07896460 0.03897758
v -0.13369931 0.07896460 0.03813130
v -0.13142320 0.07709743 0.03993032
v -0.13048441 0.07709743 0.04055838
v -0.12327523 0.07521992 0.04444383
v -0.13262768 0.08084211 0.03887113
v -0.13242398 0.08223344 0.03873274
v -0.13209629 0.08347993 0.03850388
v -0.13289338 0.08459196 0.03731695
v -0.13137892 0.08279720 0.03922774
v -0.12424059 0.08084211 0.04393819
v -0.12330180 0.08084211 0.04443851
v -0.12187591 0.08084211 0.04490690
v -0.13026300 0.08084211 0.04041467
v -0.12000719 0.08084211 0.04513576
v -0.07877138 0.08459196 0.04842510
v -0.08064010 0.08459196 0.04825477
v -0.08064010 0.08571433 0.04800994
v -0.08064010 0.08665050 0.04762139
v -0.07877138 0.08833663 0.04710510
v -0.06189978 0.08865731 0.04767462
v -0.06189978 0.09021415 0.04692414
v -0.06189978 0.09146065 0.04625350
v -0.05439833 0.09261922 0.04580641
v -0.05439833 0.09392779 0.04486964
v -0.05439833 0.09583633 0.04328352
v -0.04850877 0.09497258 0.04396480
v -0.04850877 0.09582082 0.04318239
v -0.05252076 0.09390193 0.04485899
v -0.04850877 0.07481132 0.04765333
v -0.04922614 0.07521992 0.04857413
v -0.05027121 0.07521992 0.04951089
v -0.04850877 0.07521992 0.04770123
v -0.05072289 0.07329069 0.04945767
v -0.05139598 0.07388032 0.04987283
v -0.05252076 0.07271140 0.04976638
v -0.07126994 0.07147007 0.04879235
v -0.07126994 0.06963394 0.04824945
v -0.07501623 0.06984083 0.04815897
v -0.07877138 0.07009944 0.04808445
v -0.12000719 0.07521992 0.04520496
v -0.12187591 0.07521992 0.04494947
v -0.07877138 0.07147007 0.04849429
v -0.13046670 0.07864392 0.04053709
v -0.12691525 0.07709743 0.04253304
v -0.12691525 0.07896460 0.04254369
v -0.13125492 0.08084211 0.03978129
v -0.10125800 0.07896460 0.04684430
v -0.06286513 0.07999387 0.04982492
v -0.06189978 0.08106452 0.04974509
v -0.06189978 0.08271445 0.04951089
v -0.06189978 0.08459196 0.04908509
v -0.07877138 0.08591087 0.04807913
v -0.07877138 0.08684704 0.04773316
v -0.06189978 0.08771597 0.04806849
v -0.05439833 0.08804699 0.04821220
v -0.05439833 0.08898316 0.04781300
v -0.05439833 0.09021415 0.04717962
v -0.05439833 0.09167788 0.04637059
v -0.05252076 0.09167788 0.04638124
v -0.05252076 0.09261405 0.04579576
v -0.04850877 0.09383986 0.04482706
v -0.04917300 0.07709743 0.04861671
v -0.05015607 0.07709743 0.04955348
v -0.04850877 0.07657504 0.04781833
v -0.04850877 0.07709743 0.04785026
v -0.05109486 0.07709743 0.05000057
v -0.05120999 0.07521992 0.04995267
v -0.05252076 0.07521992 0.05010170
v -0.05252076 0.07364757 0.04991008
v -0.05439833 0.07383895 0.04988879
v -0.07877138 0.07334758 0.04874977
v -0.06189978 0.07506476 0.04972912
v -0.06293598 0.07896460 0.04984621
v -0.06189978 0.07896460 0.04989944
v -0.05439833 0.07896460 0.05016024
v -0.05439833 0.08084211 0.05003251
v -0.05439833 0.08210413 0.04987815
v -0.05439833 0.08304547 0.04969186
v -0.05439833 0.08459196 0.04932993
v -0.05439833 0.08646430 0.04878171
v -0.06189978 0.08646430 0.04851558
v -0.05252076 0.08646430 0.04881896
v -0.05252076 0.08808320 0.04822816
v -0.05252076 0.08901937 0.04782897
v -0.05252076 0.09021415 0.04720623
v -0.04981067 0.08725047 0.04788220
v -0.04850877 0.09236578 0.04538592
v -0.05105944 0.08787114 0.04813236
v -0.04916415 0.07896460 0.04864864
v -0.05012950 0.07896460 0.04958541
v -0.04850877 0.07896460 0.04787155
v -0.05106829 0.07896460 0.05000057
v -0.05252076 0.07709743 0.05021347
v -0.05439833 0.07521992 0.05005912
v -0.06284742 0.07613540 0.04981960
v -0.06291827 0.07709743 0.04984089
v -0.06189978 0.07709743 0.04989412
v -0.05439833 0.07709743 0.05017089
v -0.05252076 0.07896460 0.05020282
v -0.05252076 0.08084211 0.05006976
v -0.05252076 0.08215585 0.04988879
v -0.05252076 0.08309202 0.04970783
v -0.05252076 0.08459196 0.04936186
v -0.04958040 0.08600397 0.04808445
v -0.05051919 0.08656257 0.04837719
v -0.05065204 0.08459196 0.04898929
v -0.04939442 0.08459196 0.04828671
v -0.04850877 0.08271445 0.04759478
v -0.04918186 0.08084211 0.04859542
v -0.04924386 0.08271445 0.04846768
v -0.05028892 0.08084211 0.04953219
v -0.04850877 0.08084211 0.04779171
v -0.05122771 0.08084211 0.04993670
v -0.05146683 0.08199551 0.04985686
v -0.05076717 0.08265756 0.04944170
v -0.04850877 0.08227999 0.04764268
f 1 2 3
f 1 3 4
f 1 4 5
f 1 5 6
f 1 6 7
f 1 7 8
f 1 8 2
f 2 9 10
f 2 10 3
f 2 8 21
f 2 21 9
f 3 10 11
f 3 11 12
f 3 12 4
f 4 12 13
f 4 13 14
f 4 14 5
f 5 14 15
f 5 15 16
f 5 16 17
f 5 17 6
f 6 17 18
f 6 18 7
f 7 18 19
f 7 19 20
f 7 20 8
f 8 20 22
f 8 22 21
f 9 23 24
f 9 24 10
f 9 21 23
f 10 24 25
f 10 25 11
f 11 25 26
f 11 26 12
f 12 26 27
f 12 27 28
f 12 28 29
f 12 29 13
f 13 29 30
f 13 30 14
f 14 30 15
f 15 31 16
f 15 30 31
f 16 31 32
f 16 32 33
f 16 33 17
f 17 33 34
f 17 34 35
f 17 35 36
f 17 36 37
f 17 37 18
f 18 37 38
f 18 38 39
f 18 39 19
f 19 39 40
f 19 40 41
f 19 41 20
f 20 41 42
f 20 42 22
f 21 43 23
f 21 22 43
f 22 44 43
f 22 42 63
f 22 63 44
f 23 45 46
f 23 46 24
f 23 43 45
f 24 46 47
f 24 47 48
f 24 48 25
f 25 48 26
f 26 49 71
f 26 71 102
f 26 102 139
f 26 139 176
f 26 176 212
f 26 212 267
f 26 267 328
f 26 328 401
f 26 401 478
f 26 478 477
f 26 477 476
f 26 476 555
f 26 555 553
f 26 553 552
f 26 552 629
f 26 629 702
f 26 702 775
f 26 775 850
f 26 850 912
f 26 912 956
f 26 956 955
f 26 955 990
f 26 990 1016
f 26 1016 1037
f 26 1037 1045
f 26 1045 1041
f 26 1041 1020
f 26 1020 994
f 26 994 993
f 26 993 961
f 26 961 958
f 26 958 913
f 26 913 854
f 26 854 781
f 26 781 711
f 26 711 636
f 26 636 562
f 26 562 485
f 26 485 406
f 26 406 338
f 26 338 278
f 26 278 277
f 26 277 230
f 26 230 222
f 26 222 182
f 26 182 149
f 26 149 108
f 26 108 73
f 26 73 50
f 26 50 30
f 26 30 29
f 26 29 28
f 26 28 27
f 26 48 47
f 26 47 46
f 26 46 49
f 30 50 33
f 30 33 32
f 30 32 31
f 33 51 34
f 33 50 51
f 34 51 52
f 34 52 53
f 34 53 54
f 34 54 55
f 34 55 35
f 35 55 36
f 36 55 56
f 36 56 57
f 36 57 38
f 36 38 37
f 38 57 58
f 38 58 59
f 38 59 39
f 39 59 40
f 40 59 60
f 40 60 41
f 41 60 61
f 41 61 62
f 41 62 42
f 42 62 64
f 42 64 65
f 42 65 63
f 43 44 45
f 44 66 45
f 44 63 66
f 45 67 68
f 45 68 46
f 45 66 69
f 45 69 70
f 45 70 67
f 46 68 49
f 49 68 67
f 49 67 72
f 49 72 71
f 50 52 51
f 50 73 74
f 50 74 75
f 50 75 76
f 50 76 77
f 50 77 78
f 50 78 52
f 52 79 53
f 52 78 79
f 53 79 55
f 53 55 54
f 55 79 80
f 55 80 81
f 55 81 56
f 56 82 83
f 56 83 57
f 56 81 82
f 57 83 84
f 57 84 85
f 57 85 86
f 57 86 58
f 58 86 87
f 58 87 88
f 58 88 59
f 59 88 60
f 60 89 90
f 60 90 61
f 60 88 91
f 60 91 92
f 60 92 89
f 61 90 93
f 61 93 62
f 62 93 64
f 63 94 66
f 63 65 95
f 63 95 94
f 64 95 65
f 64 93 89
f 64 89 96
f 64 96 97
f 64 97 98
f 64 98 95
f 66 94 69
f 67 70 72
f 69 99 70
f 69 94 100
f 69 100 101
f 69 101 99
f 70 99 72
f 71 72 103
f 71 103 104
f 71 104 105
f 71 105 106
f 71 106 107
f 71 107 102
f 72 99 103
f 73 108 109
f 73 109 110
f 73 110 74
f 74 110 76
f 74 76 75
f 76 110 111
f 76 111 112
f 76 112 77
f 77 113 82
f 77 82 81
f 77 81 80
f 77 80 79
f 77 79 78
f 77 112 113
f 82 113 114
f 82 114 115
f 82 115 83
f 83 115 116
f 83 116 84
f 84 117 86
f 84 86 85
f 84 116 117
f 86 117 116
f 86 116 118
f 86 118 87
f 87 118 88
f 88 118 119
f 88 119 120
f 88 120 91
f 89 93 90
f 89 92 121
f 89 121 122
f 89 122 96
f 91 123 124
f 91 124 125
f 91 125 126
f 91 126 127
f 91 127 128
f 91 128 92
f 91 120 119
f 91 119 118
f 91 118 129
f 91 129 123
f 92 128 127
f 92 127 121
f 94 95 100
f 95 98 97
f 95 97 130
f 95 130 100
f 96 131 97
f 96 122 132
f 96 132 133
f 96 133 134
f 96 134 131
f 97 131 135
f 97 135 130
f 99 101 136
f 99 136 137
f 99 137 103
f 100 130 138
f 100 138 101
f 101 138 136
f 102 107 140
f 102 140 141
f 102 141 142
f 102 142 143
f 102 143 139
f 103 137 104
f 104 137 144
f 104 144 106
f 104 106 105
f 106 140 107
f 106 144 145
f 106 145 146
f 106 146 147
f 106 147 140
f 108 148 109
f 108 149 150
f 108 150 151
f 108 151 152
f 108 152 153
f 108 153 148
f 109 148 154
f 109 154 110
f 110 154 155
f 110 155 156
f 110 156 112
f 110 112 111
f 112 156 114
f 112 114 113
f 114 156 157
f 114 157 158
f 114 158 115
f 115 158 116
f 116 158 129
f 116 129 118
f 121 127 159
f 121 159 160
f 121 160 132
f 121 132 122
f 123 161 162
f 123 162 124
f 123 129 157
f 123 157 163
f 123 163 161
f 124 164 125
f 124 162 164
f 125 164 126
f 126 164 165
f 126 165 166
f 126 166 127
f 127 166 167
f 127 167 159
f 129 158 157
f 130 135 138
f 131 134 168
f 131 168 135
f 132 134 133
f 132 160 169
f 132 169 134
f 134 169 170
f 134 170 171
f 134 171 172
f 134 172 173
f 134 173 168
f 135 168 138
f 136 144 137
f 136 138 174
f 136 174 145
f 136 145 144
f 138 168 175
f 138 175 174
f 139 143 177
f 139 177 176
f 140 147 141
f 141 178 179
f 141 179 180
f 141 180 142
f 141 147 173
f 141 173 181
f 141 181 178
f 142 180 143
f 143 180 179
f 143 179 177
f 145 174 175
f 145 175 173
f 145 173 146
f 146 173 147
f 148 153 154
f 149 182 150
f 150 182 183
f 150 183 184
f 150 184 152
f 150 152 151
f 152 184 185
f 152 185 186
f 152 186 187
f 152 187 188
f 152 188 161
f 152 161 153
f 153 161 154
f 154 161 163
f 154 163 189
f 154 189 155
f 155 189 156
f 156 189 157
f 157 189 163
f 159 190 160
f 159 167 191
f 159 191 192
f 159 192 190
f 160 190 169
f 161 188 162
f 162 188 193
f 162 193 194
f 162 194 195
f 162 195 164
f 164 195 196
f 164 196 165
f 165 196 197
f 165 197 198
f 165 198 199
f 165 199 166
f 166 199 200
f 166 200 201
f 166 201 167
f 167 201 202
f 167 202 203
f 167 203 191
f 168 173 175
f 169 190 204
f 169 204 170
f 170 205 206
f 170 206 171
f 170 204 207
f 170 207 208
f 170 208 209
f 170 209 210
f 170 210 205
f 171 206 181
f 171 181 173
f 171 173 172
f 176 211 212
f 176 177 213
f 176 213 214
f 176 214 215
f 176 215 216
f 176 216 217
f 176 217 218
f 176 218 211
f 177 179 219
f 177 219 220
f 177 220 213
f 178 221 219
f 178 219 179
f 178 181 206
f 178 206 221
f 182 222 183
f 183 223 224
f 183 224 225
f 183 225 226
f 183 226 227
f 183 227 228
f 183 228 229
f 183 229 185
f 183 185 184
f 183 222 230
f 183 230 223
f 185 229 186
f 186 229 231
f 186 231 187
f 187 232 233
f 187 233 193
f 187 193 188
f 187 231 232
f 190 192 234
f 190 234 204
f 191 203 235
f 191 235 192
f 192 235 203
f 192 203 236
f 192 236 237
f 192 237 238
f 192 238 239
f 192 239 234
f 193 240 194
f 193 233 240
f 194 240 241
f 194 241 195
f 195 241 242
f 195 242 243
f 195 243 196
f 196 243 244
f 196 244 245
f 196 245 198
f 196 198 197
f 198 246 247
f 198 247 199
f 198 245 244
f 198 244 243
f 198 243 248
f 198 248 249
f 198 249 250
f 198 250 246
f 199 247 200
f 200 202 201
f 200 247 246
f 200 246 202
f 202 246 251
f 202 251 203
f 203 251 252
f 203 252 236
f 204 234 253
f 204 253 207
f 205 254 255
f 205 255 206
f 205 210 256
f 205 256 254
f 206 255 221
f 207 253 257
f 207 257 258
f 207 258 259
f 207 259 260
f 207 260 208
f 208 260 261
f 208 261 209
f 209 256 210
f 209 261 262
f 209 262 256
f 211 263 264
f 211 264 212
f 211 218 265
f 211 265 266
f 211 266 263
f 212 264 268
f 212 268 269
f 212 269 267
f 213 220 270
f 213 270 271
f 213 271 214
f 214 271 215
f 215 272 216
f 215 271 273
f 215 273 272
f 216 272 217
f 217 272 218
f 218 272 274
f 218 274 265
f 219 221 220
f 220 221 275
f 220 275 270
f 221 276 275
f 221 255 276
f 223 230 277
f 223 277 278
f 223 278 279
f 223 279 342
f 223 342 341
f 223 341 340
f 223 340 339
f 223 339 338
f 223 338 406
f 223 406 486
f 223 486 561
f 223 561 560
f 223 560 565
f 223 565 642
f 223 642 717
f 223 717 643
f 223 643 566
f 223 566 490
f 223 490 489
f 223 489 487
f 223 487 412
f 223 412 411
f 223 411 410
f 223 410 409
f 223 409 408
f 223 408 407
f 223 407 343
f 223 343 280
f 223 280 224
f 224 280 281
f 224 281 282
f 224 282 283
f 224 283 284
f 224 284 285
f 224 285 231
f 224 231 228
f 224 228 227
f 224 227 225
f 225 227 226
f 228 231 229
f 231 285 286
f 231 286 287
f 231 287 232
f 232 287 233
f 233 287 288
f 233 288 289
f 233 289 290
f 233 290 240
f 234 239 291
f 234 291 253
f 236 252 237
f 237 292 238
f 237 252 293
f 237 293 292
f 238 292 239
f 239 257 291
f 239 292 294
f 239 294 257
f 240 290 295
f 240 295 296
f 240 296 241
f 241 296 297
f 241 297 242
f 242 297 243
f 243 297 298
f 243 298 299
f 243 299 300
f 243 300 248
f 246 250 293
f 246 293 251
f 248 301 302
f 248 302 303
f 248 303 304
f 248 304 305
f 248 305 306
f 248 306 249
f 248 300 299
f 248 299 301
f 249 307 250
f 249 306 308
f 249 308 307
f 250 307 293
f 251 293 252
f 253 291 257
f 254 256 309
f 254 309 310
f 254 310 311
f 254 311 312
f 254 312 313
f 254 313 314
f 254 314 315
f 254 315 316
f 254 316 276
f 254 276 255
f 256 262 317
f 256 317 309
f 257 294 318
f 257 318 258
f 258 318 259
f 259 318 319
f 259 319 261
f 259 261 260
f 261 319 320
f 261 320 321
f 261 321 322
f 261 322 323
f 261 323 262
f 262 323 322
f 262 322 317
f 263 268 264
f 263 266 324
f 263 324 268
f 265 274 325
f 265 325 326
f 265 326 324
f 265 324 266
f 267 327 328
f 267 269 329
f 267 329 330
f 267 330 327
f 268 324 269
f 269 331 329
f 269 324 331
f 270 273 271
f 270 275 276
f 270 276 332
f 270 332 273
f 272 273 333
f 272 333 334
f 272 334 274
f 273 332 276
f 273 276 333
f 274 334 392
f 274 392 325
f 276 335 336
f 276 336 337
f 276 337 333
f 276 316 335
f 278 338 339
f 278 339 340
f 278 340 341
f 278 341 342
f 278 342 279
f 280 343 281
f 281 344 282
f 281 343 345
f 281 345 346
f 281 346 347
f 281 347 344
f 282 344 347
f 282 347 286
f 282 286 283
f 283 286 284
f 284 286 285
f 286 347 288
f 286 288 287
f 288 348 349
f 288 349 289
f 288 347 348
f 289 349 350
f 289 350 290
f 290 351 295
f 290 350 351
f 292 352 318
f 292 318 294
f 292 293 353
f 292 353 352
f 293 307 320
f 293 320 353
f 295 351 354
f 295 354 355
f 295 355 299
f 295 299 297
f 295 297 296
f 297 299 298
f 299 356 357
f 299 357 358
f 299 358 301
f 299 355 356
f 301 359 302
f 301 358 359
f 302 359 360
f 302 360 303
f 303 360 361
f 303 361 362
f 303 362 363
f 303 363 304
f 304 363 305
f 305 363 364
f 305 364 365
f 305 365 306
f 306 365 366
f 306 366 308
f 307 367 320
f 307 308 368
f 307 368 369
f 307 369 367
f 308 366 368
f 309 317 370
f 309 370 371
f 309 371 372
f 309 372 310
f 310 372 311
f 311 372 371
f 311 371 312
f 312 314 313
f 312 371 373
f 312 373 374
f 312 374 375
f 312 375 376
f 312 376 314
f 314 377 378
f 314 378 379
f 314 379 380
f 314 380 315
f 314 376 377
f 315 380 381
f 315 381 382
f 315 382 316
f 316 382 381
f 316 381 335
f 317 322 383
f 317 383 370
f 318 352 319
f 319 352 353
f 319 353 320
f 320 367 321
f 321 367 384
f 321 384 322
f 322 384 385
f 322 385 386
f 322 386 387
f 322 387 383
f 324 326 388
f 324 388 389
f 324 389 390
f 324 390 391
f 324 391 331
f 325 392 393
f 325 393 326
f 326 394 388
f 326 393 395
f 326 395 396
f 326 396 394
f 327 397 398
f 327 398 399
f 327 399 328
f 327 330 400
f 327 400 397
f 328 399 401
f 329 331 391
f 329 391 390
f 329 390 402
f 329 402 403
f 329 403 400
f 329 400 330
f 333 337 334
f 334 337 392
f 335 404 336
f 335 381 404
f 336 404 405
f 336 405 337
f 337 405 392
f 343 407 345
f 345 407 408
f 345 408 409
f 345 409 410
f 345 410 411
f 345 411 412
f 345 412 413
f 345 413 414
f 345 414 415
f 345 415 346
f 346 415 416
f 346 416 417
f 346 417 348
f 346 348 347
f 348 417 418
f 348 418 419
f 348 419 420
f 348 420 421
f 348 421 422
f 348 422 349
f 349 423 350
f 349 422 423
f 350 423 424
f 350 424 425
f 350 425 351
f 351 425 426
f 351 426 427
f 351 427 356
f 351 356 355
f 351 355 354
f 356 358 357
f 356 427 426
f 356 426 358
f 358 426 428
f 358 428 429
f 358 429 430
f 358 430 359
f 359 431 432
f 359 432 360
f 359 430 431
f 360 432 433
f 360 433 361
f 361 433 434
f 361 434 362
f 362 434 435
f 362 435 364
f 362 364 363
f 364 435 436
f 364 436 365
f 365 436 366
f 366 436 437
f 366 437 438
f 366 438 368
f 367 439 384
f 367 369 439
f 368 438 369
f 369 438 440
f 369 440 441
f 369 441 442
f 369 442 443
f 369 443 439
f 370 383 371
f 371 383 387
f 371 387 373
f 373 387 374
f 374 387 375
f 375 387 386
f 375 386 444
f 375 444 445
f 375 445 446
f 375 446 376
f 376 446 447
f 376 447 377
f 377 448 378
f 377 447 449
f 377 449 448
f 378 448 450
f 378 450 451
f 378 451 379
f 379 452 453
f 379 453 454
f 379 454 380
f 379 451 452
f 380 454 455
f 380 455 456
f 380 456 457
f 380 457 458
f 380 458 459
f 380 459 381
f 381 459 460
f 381 460 404
f 384 439 461
f 384 461 385
f 385 461 386
f 386 461 462
f 386 462 444
f 388 394 466
f 388 466 463
f 388 463 464
f 388 464 465
f 388 465 389
f 389 465 390
f 390 465 402
f 392 405 393
f 393 405 404
f 393 404 460
f 393 460 395
f 394 396 467
f 394 467 468
f 394 468 466
f 395 460 396
f 396 469 467
f 396 460 470
f 396 470 471
f 396 471 469
f 397 400 403
f 397 403 398
f 398 472 473
f 398 473 474
f 398 474 475
f 398 475 476
f 398 476 477
f 398 477 478
f 398 478 401
f 398 401 399
f 398 403 479
f 398 479 480
f 398 480 472
f 402 465 481
f 402 481 482
f 402 482 403
f 403 482 483
f 403 483 484
f 403 484 479
f 406 485 486
f 412 487 413
f 413 488 414
f 413 487 489
f 413 489 490
f 413 490 488
f 414 488 491
f 414 491 415
f 415 491 416
f 416 491 492
f 416 492 493
f 416 493 417
f 417 493 494
f 417 494 495
f 417 495 418
f 418 495 496
f 418 496 421
f 418 421 420
f 418 420 419
f 421 497 498
f 421 498 499
f 421 499 500
f 421 500 501
f 421 501 502
f 421 502 422
f 421 496 497
f 422 502 503
f 422 503 424
f 422 424 423
f 424 503 426
f 424 426 425
f 426 503 504
f 426 504 505
f 426 505 428
f 428 505 429
f 429 506 430
f 429 505 500
f 429 500 506
f 430 506 507
f 430 507 431
f 431 508 509
f 431 509 510
f 431 510 511
f 431 511 433
f 431 433 512
f 431 512 432
f 431 507 508
f 432 512 433
f 433 511 513
f 433 513 514
f 433 514 434
f 434 514 515
f 434 515 435
f 435 515 436
f 436 515 516
f 436 516 437
f 437 516 517
f 437 517 440
f 437 440 438
f 439 443 518
f 439 518 461
f 440 517 519
f 440 519 441
f 441 520 442
f 441 519 521
f 441 521 522
f 441 522 523
f 441 523 524
f 441 524 520
f 442 520 443
f 443 520 524
f 443 524 518
f 444 462 525
f 444 525 526
f 444 526 445
f 445 526 527
f 445 527 528
f 445 528 447
f 445 447 446
f 447 528 449
f 448 449 450
f 449 528 529
f 449 529 530
f 449 530 531
f 449 531 532
f 449 532 450
f 450 533 451
f 450 532 533
f 451 533 534
f 451 534 452
f 452 534 535
f 452 535 536
f 452 536 453
f 453 536 537
f 453 537 538
f 453 538 455
f 453 455 454
f 455 538 539
f 455 539 540
f 455 540 541
f 455 541 542
f 455 542 543
f 455 543 457
f 455 457 456
f 457 543 468
f 457 468 471
f 457 471 470
f 457 470 458
f 458 470 459
f 459 470 460
f 461 518 544
f 461 544 545
f 461 545 462
f 462 545 525
f 463 466 546
f 463 546 547
f 463 547 481
f 463 481 464
f 464 481 465
f 466 548 546
f 466 468 548
f 467 469 471
f 467 471 468
f 468 542 548
f 468 543 542
f 472 480 549
f 472 549 550
f 472 550 473
f 473 551 552
f 473 552 553
f 473 553 474
f 473 550 554
f 473 554 551
f 474 553 555
f 474 555 476
f 474 476 475
f 479 484 480
f 480 484 549
f 481 556 483
f 481 483 482
f 481 547 556
f 483 556 484
f 484 556 557
f 484 557 558
f 484 558 559
f 484 559 549
f 485 560 561
f 485 561 486
f 485 562 563
f 485 563 564
f 485 564 565
f 485 565 560
f 488 490 566
f 488 566 567
f 488 567 568
f 488 568 569
f 488 569 491
f 491 569 492
f 492 569 568
f 492 568 570
f 492 570 571
f 492 571 493
f 493 572 494
f 493 571 572
f 494 572 573
f 494 573 574
f 494 574 495
f 495 574 575
f 495 575 497
f 495 497 496
f 497 576 498
f 497 575 576
f 498 576 577
f 498 577 499
f 499 577 578
f 499 578 506
f 499 506 500
f 500 505 502
f 500 502 501
f 502 505 503
f 503 505 504
f 506 578 509
f 506 509 508
f 506 508 507
f 509 579 510
f 509 578 580
f 509 580 581
f 509 581 579
f 510 579 582
f 510 582 583
f 510 583 584
f 510 584 511
f 511 584 585
f 511 585 586
f 511 586 587
f 511 587 513
f 513 587 586
f 513 586 514
f 514 586 515
f 515 586 588
f 515 588 516
f 516 588 589
f 516 589 517
f 517 589 590
f 517 590 591
f 517 591 519
f 518 524 592
f 518 592 544
f 519 591 521
f 521 591 593
f 521 593 522
f 522 593 594
f 522 594 595
f 522 595 596
f 522 596 523
f 523 596 597
f 523 597 592
f 523 592 524
f 525 598 599
f 525 599 526
f 525 545 598
f 526 600 601
f 526 601 527
f 526 599 602
f 526 602 600
f 527 601 529
f 527 529 528
f 529 601 530
f 530 601 603
f 530 603 604
f 530 604 531
f 531 604 532
f 532 604 605
f 532 605 606
f 532 606 533
f 533 606 607
f 533 607 534
f 534 608 609
f 534 609 610
f 534 610 611
f 534 611 535
f 534 607 612
f 534 612 608
f 535 611 613
f 535 613 614
f 535 614 615
f 535 615 616
f 535 616 617
f 535 617 536
f 536 617 618
f 536 618 538
f 536 538 537
f 538 618 619
f 538 619 620
f 538 620 539
f 539 620 557
f 539 557 621
f 539 621 540
f 540 621 541
f 541 622 548
f 541 548 542
f 541 621 557
f 541 557 622
f 544 623 624
f 544 624 545
f 544 592 623
f 545 624 598
f 546 548 622
f 546 622 556
f 546 556 547
f 549 559 625
f 549 625 626
f 549 626 627
f 549 627 628
f 549 628 554
f 549 554 550
f 551 629 552
f 551 554 628
f 551 628 630
f 551 630 631
f 551 631 629
f 556 622 557
f 557 620 632
f 557 632 633
f 557 633 558
f 558 634 625
f 558 625 559
f 558 633 635
f 558 635 634
f 562 636 637
f 562 637 638
f 562 638 639
f 562 639 563
f 563 639 640
f 563 640 565
f 563 565 564
f 565 640 641
f 565 641 642
f 566 643 644
f 566 644 567
f 567 644 568
f 568 645 570
f 568 644 645
f 570 645 646
f 570 646 647
f 570 647 571
f 571 647 572
f 572 647 648
f 572 648 649
f 572 649 573
f 573 649 650
f 573 650 651
f 573 651 652
f 573 652 653
f 573 653 574
f 574 653 575
f 575 653 576
f 576 653 652
f 576 652 577
f 577 652 580
f 577 580 578
f 579 654 655
f 579 655 582
f 579 581 656
f 579 656 657
f 579 657 658
f 579 658 654
f 580 652 581
f 581 652 651
f 581 651 659
f 581 659 660
f 581 660 656
f 582 655 661
f 582 661 583
f 583 662 663
f 583 663 584
f 583 661 662
f 584 663 664
f 584 664 665
f 584 665 666
f 584 666 585
f 585 666 588
f 585 588 586
f 588 665 589
f 588 666 665
f 589 667 668
f 589 668 590
f 589 665 667
f 590 668 669
f 590 669 591
f 591 669 593
f 592 597 623
f 593 669 670
f 593 670 594
f 594 670 671
f 594 671 672
f 594 672 673
f 594 673 595
f 595 673 602
f 595 602 596
f 596 602 674
f 596 674 623
f 596 623 597
f 598 624 602
f 598 602 599
f 600 603 601
f 600 602 603
f 602 624 674
f 602 673 675
f 602 675 676
f 602 676 677
f 602 677 603
f 603 677 604
f 604 678 605
f 604 677 676
f 604 676 678
f 605 679 606
f 605 678 679
f 606 679 607
f 607 679 680
f 607 680 612
f 608 681 609
f 608 612 682
f 608 682 683
f 608 683 684
f 608 684 681
f 609 681 610
f 610 685 686
f 610 686 611
f 610 681 685
f 611 686 613
f 612 680 687
f 612 687 678
f 612 678 682
f 613 686 688
f 613 688 614
f 614 688 689
f 614 689 690
f 614 690 615
f 615 690 691
f 615 691 692
f 615 692 616
f 616 692 693
f 616 693 617
f 617 693 694
f 617 694 695
f 617 695 696
f 617 696 618
f 618 696 695
f 618 695 697
f 618 697 619
f 619 697 620
f 620 697 632
f 623 674 624
f 625 634 626
f 626 634 635
f 626 635 698
f 626 698 627
f 627 699 630
f 627 630 628
f 627 698 700
f 627 700 773
f 627 773 701
f 627 701 699
f 629 631 630
f 629 630 703
f 629 703 704
f 629 704 705
f 629 705 702
f 630 699 706
f 630 706 703
f 632 697 633
f 633 697 707
f 633 707 635
f 635 708 698
f 635 707 695
f 635 695 709
f 635 709 710
f 635 710 708
f 636 711 637
f 637 711 712
f 637 712 713
f 637 713 714
f 637 714 715
f 637 715 640
f 637 640 638
f 638 640 639
f 640 715 714
f 640 714 641
f 641 716 643
f 641 643 717
f 641 717 642
f 641 714 718
f 641 718 719
f 641 719 716
f 643 716 720
f 643 720 721
f 643 721 645
f 643 645 644
f 645 719 722
f 645 722 646
f 645 721 719
f 646 722 723
f 646 723 724
f 646 724 650
f 646 650 648
f 646 648 647
f 648 650 649
f 650 724 659
f 650 659 651
f 654 658 725
f 654 725 655
f 655 726 661
f 655 725 727
f 655 727 726
f 656 660 657
f 657 660 724
f 657 724 728
f 657 728 729
f 657 729 730
f 657 730 658
f 658 730 725
f 659 724 660
f 661 726 731
f 661 731 732
f 661 732 662
f 662 733 734
f 662 734 735
f 662 735 663
f 662 732 733
f 663 735 736
f 663 736 664
f 664 736 665
f 665 736 667
f 667 736 737
f 667 737 738
f 667 738 668
f 668 738 739
f 668 739 669
f 669 739 670
f 670 739 740
f 670 740 671
f 671 740 741
f 671 741 742
f 671 742 672
f 672 742 743
f 672 743 744
f 672 744 673
f 673 744 675
f 675 745 746
f 675 746 676
f 675 744 745
f 676 746 683
f 676 683 678
f 678 683 682
f 678 687 679
f 679 687 680
f 681 684 747
f 681 747 748
f 681 748 749
f 681 749 750
f 681 750 685
f 683 751 747
f 683 747 684
f 683 746 752
f 683 752 751
f 685 753 754
f 685 754 755
f 685 755 686
f 685 750 756
f 685 756 757
f 685 757 753
f 686 755 688
f 688 758 759
f 688 759 689
f 688 755 760
f 688 760 758
f 689 761 690
f 689 759 762
f 689 762 761
f 690 761 763
f 690 763 764
f 690 764 691
f 691 764 692
f 692 764 765
f 692 765 693
f 693 765 766
f 693 766 767
f 693 767 694
f 694 767 768
f 694 768 695
f 695 768 709
f 695 707 697
f 698 708 769
f 698 769 770
f 698 770 700
f 699 701 771
f 699 771 706
f 700 770 766
f 700 766 772
f 700 772 773
f 701 773 774
f 701 774 771
f 702 705 776
f 702 776 775
f 703 706 771
f 703 771 777
f 703 777 778
f 703 778 704
f 704 778 779
f 704 779 705
f 705 779 776
f 708 710 780
f 708 780 767
f 708 767 769
f 709 768 710
f 710 768 780
f 711 781 782
f 711 782 783
f 711 783 712
f 712 783 713
f 713 784 785
f 713 785 714
f 713 783 786
f 713 786 787
f 713 787 784
f 714 785 788
f 714 788 789
f 714 789 718
f 716 719 720
f 718 790 791
f 718 791 792
f 718 792 719
f 718 789 790
f 719 792 722
f 719 721 720
f 722 792 793
f 722 793 794
f 722 794 795
f 722 795 796
f 722 796 797
f 722 797 723
f 723 797 724
f 724 797 798
f 724 798 728
f 725 730 799
f 725 799 800
f 725 800 801
f 725 801 802
f 725 802 727
f 726 727 731
f 727 802 803
f 727 803 804
f 727 804 805
f 727 805 806
f 727 806 807
f 727 807 808
f 727 808 809
f 727 809 810
f 727 810 731
f 728 798 729
f 729 800 799
f 729 799 730
f 729 798 797
f 729 797 796
f 729 796 794
f 729 794 811
f 729 811 800
f 731 810 812
f 731 812 813
f 731 813 732
f 732 813 733
f 733 813 814
f 733 814 815
f 733 815 734
f 734 815 736
f 734 736 735
f 736 815 737
f 737 815 816
f 737 816 738
f 738 816 740
f 738 740 739
f 740 816 741
f 741 816 817
f 741 817 818
f 741 818 742
f 742 818 743
f 743 818 744
f 744 818 819
f 744 819 820
f 744 820 821
f 744 821 822
f 744 822 823
f 744 823 745
f 745 823 824
f 745 824 746
f 746 824 825
f 746 825 752
f 747 751 752
f 747 752 748
f 748 826 827
f 748 827 750
f 748 750 749
f 748 752 826
f 750 827 756
f 752 825 826
f 753 828 829
f 753 829 830
f 753 830 831
f 753 831 754
f 753 757 828
f 754 831 832
f 754 832 833
f 754 833 755
f 755 834 760
f 755 833 835
f 755 835 836
f 755 836 837
f 755 837 834
f 756 827 838
f 756 838 839
f 756 839 757
f 757 839 840
f 757 840 829
f 757 829 828
f 758 760 759
f 759 841 842
f 759 842 762
f 759 760 841
f 760 834 843
f 760 843 841
f 761 844 845
f 761 845 763
f 761 762 846
f 761 846 844
f 762 842 847
f 762 847 846
f 763 845 764
f 764 845 848
f 764 848 849
f 764 849 765
f 765 849 774
f 765 774 766
f 766 774 772
f 766 770 769
f 766 769 767
f 767 780 768
f 771 774 849
f 771 849 777
f 772 774 773
f 775 776 851
f 775 851 852
f 775 852 850
f 776 779 853
f 776 853 847
f 776 847 851
f 777 849 848
f 777 848 778
f 778 848 853
f 778 853 779
f 781 854 855
f 781 855 856
f 781 856 857
f 781 857 858
f 781 858 859
f 781 859 782
f 782 859 786
f 782 786 783
f 784 787 785
f 785 787 860
f 785 860 861
f 785 861 788
f 786 859 858
f 786 858 787
f 787 858 857
f 787 857 862
f 787 862 863
f 787 863 860
f 788 861 864
f 788 864 865
f 788 865 790
f 788 790 789
f 790 865 791
f 791 866 867
f 791 867 792
f 791 865 866
f 792 867 868
f 792 868 793
f 793 868 800
f 793 800 794
f 794 800 811
f 794 796 795
f 800 869 803
f 800 803 801
f 800 868 867
f 800 867 869
f 801 803 802
f 803 870 805
f 803 805 804
f 803 869 871
f 803 871 870
f 805 870 872
f 805 872 873
f 805 873 874
f 805 874 806
f 806 874 875
f 806 875 807
f 807 876 877
f 807 877 808
f 807 875 878
f 807 878 876
f 808 877 809
f 809 877 879
f 809 879 880
f 809 880 810
f 810 880 812
f 812 818 813
f 812 880 881
f 812 881 882
f 812 882 818
f 813 818 817
f 813 817 883
f 813 883 814
f 814 883 815
f 815 883 817
f 815 817 816
f 818 882 819
f 819 882 821
f 819 821 820
f 821 882 884
f 821 884 885
f 821 885 886
f 821 886 887
f 821 887 822
f 822 887 823
f 823 887 888
f 823 888 889
f 823 889 824
f 824 889 890
f 824 890 825
f 825 890 826
f 826 890 827
f 827 890 838
f 829 840 891
f 829 891 892
f 829 892 893
f 829 893 831
f 829 831 830
f 831 894 895
f 831 895 832
f 831 893 896
f 831 896 894
f 832 895 897
f 832 897 898
f 832 898 833
f 833 898 899
f 833 899 900
f 833 900 835
f 834 837 843
f 835 900 901
f 835 901 902
f 835 902 903
f 835 903 904
f 835 904 836
f 836 904 837
f 837 904 905
f 837 905 843
f 838 890 839
f 839 890 889
f 839 889 891
f 839 891 840
f 841 843 842
f 842 906 907
f 842 907 908
f 842 908 909
f 842 909 851
f 842 851 847
f 842 843 906
f 843 905 910
f 843 910 906
f 844 846 911
f 844 911 853
f 844 853 848
f 844 848 845
f 846 847 853
f 846 853 911
f 850 852 909
f 850 909 912
f 851 909 852
f 854 913 914
f 854 914 915
f 854 915 916
f 854 916 917
f 854 917 918
f 854 918 855
f 855 918 917
f 855 917 919
f 855 919 920
f 855 920 856
f 856 920 921
f 856 921 862
f 856 862 857
f 860 863 922
f 860 922 923
f 860 923 861
f 861 923 924
f 861 924 864
f 862 921 922
f 862 922 863
f 864 924 865
f 865 925 926
f 865 926 866
f 865 924 927
f 865 927 925
f 866 926 928
f 866 928 874
f 866 874 872
f 866 872 870
f 866 870 867
f 867 870 871
f 867 871 869
f 872 874 873
f 874 878 875
f 874 928 878
f 876 929 930
f 876 930 877
f 876 878 931
f 876 931 929
f 877 930 881
f 877 881 879
f 878 932 931
f 878 928 933
f 878 933 932
f 879 881 880
f 881 884 882
f 881 930 884
f 884 930 885
f 885 930 929
f 885 929 934
f 885 934 935
f 885 935 887
f 885 887 886
f 887 935 936
f 887 936 937
f 887 937 888
f 888 937 891
f 888 891 889
f 891 937 892
f 892 936 893
f 892 937 936
f 893 936 938
f 893 938 896
f 894 939 940
f 894 940 941
f 894 941 895
f 894 896 942
f 894 942 939
f 895 941 943
f 895 943 897
f 896 938 935
f 896 935 942
f 897 943 944
f 897 944 945
f 897 945 946
f 897 946 898
f 898 946 947
f 898 947 948
f 898 948 899
f 899 948 900
f 900 948 949
f 900 949 950
f 900 950 901
f 901 950 951
f 901 951 902
f 902 951 952
f 902 952 903
f 903 952 953
f 903 953 904
f 904 953 910
f 904 910 905
f 906 910 954
f 906 954 907
f 907 954 955
f 907 955 956
f 907 956 912
f 907 912 908
f 908 912 909
f 910 953 957
f 910 957 955
f 910 955 954
f 913 958 914
f 914 959 960
f 914 960 915
f 914 958 961
f 914 961 959
f 915 960 962
f 915 962 917
f 915 917 916
f 917 962 963
f 917 963 919
f 919 963 964
f 919 964 965
f 919 965 920
f 920 965 966
f 920 966 922
f 920 922 921
f 922 966 923
f 923 966 967
f 923 967 968
f 923 968 924
f 924 968 927
f 925 969 970
f 925 970 926
f 925 927 971
f 925 971 969
f 926 970 928
f 927 968 971
f 928 970 933
f 929 931 972
f 929 972 934
f 931 932 972
f 932 933 973
f 932 973 974
f 932 974 972
f 933 970 940
f 933 940 974
f 933 974 973
f 934 972 975
f 934 975 935
f 935 975 942
f 935 938 936
f 939 942 972
f 939 972 974
f 939 974 940
f 940 970 941
f 941 970 969
f 941 969 943
f 942 975 972
f 943 969 976
f 943 976 944
f 944 977 978
f 944 978 979
f 944 979 980
f 944 980 981
f 944 981 946
f 944 946 945
f 944 976 977
f 946 981 982
f 946 982 947
f 947 982 948
f 948 982 949
f 949 983 984
f 949 984 985
f 949 985 950
f 949 982 983
f 950 985 986
f 950 986 951
f 951 986 987
f 951 987 952
f 952 987 988
f 952 988 989
f 952 989 953
f 953 989 957
f 955 957 990
f 957 989 990
f 959 991 992
f 959 992 960
f 959 961 993
f 959 993 994
f 959 994 991
f 960 992 995
f 960 995 996
f 960 996 963
f 960 963 962
f 963 996 997
f 963 997 998
f 963 998 964
f 964 998 999
f 964 999 971
f 964 971 965
f 965 971 966
f 966 971 968
f 966 968 967
f 969 971 1000
f 969 1000 976
f 971 999 1001
f 971 1001 1000
f 976 1000 1002
f 976 1002 977
f 977 1002 1003
f 977 1003 1004
f 977 1004 1005
f 977 1005 978
f 978 1005 1006
f 978 1006 979
f 979 1006 1007
f 979 1007 980
f 980 1007 1008
f 980 1008 1009
f 980 1009 1010
f 980 1010 981
f 981 1010 983
f 981 983 982
f 983 1010 1009
f 983 1009 984
f 984 1009 1011
f 984 1011 1012
f 984 1012 1013
f 984 1013 985
f 985 1013 986
f 986 1013 1014
f 986 1014 987
f 987 1014 988
f 988 1014 990
f 988 990 989
f 990 1015 1016
f 990 1014 1013
f 990 1013 1017
f 990 1017 1015
f 991 1018 1019
f 991 1019 992
f 991 994 1018
f 992 1019 995
f 994 1020 1018
f 995 1021 1022
f 995 1022 996
f 995 1019 1021
f 996 1022 997
f 997 1022 1027
f 997 1027 1023
f 997 1023 998
f 998 1023 999
f 999 1023 1001
f 1000 1001 1024
f 1000 1024 1025
f 1000 1025 1002
f 1001 1023 1024
f 1002 1025 1026
f 1002 1026 1003
f 1003 1026 1027
f 1003 1027 1004
f 1004 1027 1022
f 1004 1022 1028
f 1004 1028 1005
f 1005 1028 1029
f 1005 1029 1006
f 1006 1029 1030
f 1006 1030 1031
f 1006 1031 1007
f 1007 1031 1032
f 1007 1032 1008
f 1008 1032 1011
f 1008 1011 1009
f 1011 1032 1017
f 1011 1017 1012
f 1012 1017 1013
f 1015 1033 1016
f 1015 1017 1034
f 1015 1034 1035
f 1015 1035 1033
f 1016 1033 1036
f 1016 1036 1037
f 1017 1032 1035
f 1017 1035 1034
f 1018 1038 1019
f 1018 1020 1038
f 1019 1038 1039
f 1019 1039 1040
f 1019 1040 1021
f 1020 1041 1038
f 1021 1042 1028
f 1021 1028 1022
f 1021 1040 1042
f 1023 1027 1024
f 1024 1027 1026
f 1024 1026 1025
f 1028 1042 1029
f 1029 1042 1043
f 1029 1043 1030
f 1030 1043 1031
f 1031 1043 1032
f 1032 1043 1035
f 1033 1035 1036
f 1035 1043 1044
f 1035 1044 1036
f 1036 1044 1040
f 1036 1040 1039
f 1036 1039 1037
f 1037 1039 1045
f 1038 1041 1045
f 1038 1045 1039
f 1040 1044 1043
f 1040 1043 1042

