# https://github.com/mikedh/trimesh
v 0.02382750 -0.06725491 0.03763089
v 0.02359309 -0.06596847 0.03950103
v 0.02374937 -0.06725491 0.03950103
v 0.02355633 -0.06852276 0.03950103
v 0.02359769 -0.06859712 0.03763089
v 0.02358390 -0.06858969 0.02825720
v 0.02357012 -0.06855623 0.02638130
v 0.02351496 -0.06845583 0.02076514
v 0.02343223 -0.06826993 0.01326158
v 0.02343223 -0.06809147 0.01326158
v 0.02366204 -0.06725491 0.02825720
v 0.02304155 -0.05975934 0.02263528
v 0.02307373 -0.05975934 0.02451117
v 0.02344602 -0.06623988 0.04263711
v 0.02299559 -0.05975934 0.02638130
v 0.02277957 -0.05975934 0.03013309
v 0.02346440 -0.06725491 0.04285001
v 0.02344142 -0.06825878 0.04270616
v 0.02169947 -0.07411469 0.03387911
v 0.02253138 -0.07287659 0.02825720
v 0.02276578 -0.07287659 0.02263528
v 0.02340465 -0.06820672 0.01219704
v 0.02340465 -0.06817698 0.01219704
v 0.02290826 -0.05975934 0.02076514
v 0.02251759 -0.05788544 0.02263528
v 0.02255895 -0.05788544 0.02451117
v 0.02250839 -0.05788544 0.02638130
v 0.02224641 -0.05788544 0.03013309
v 0.02203958 -0.05788544 0.03200322
v 0.02155698 -0.05690388 0.03310229
v 0.02209474 -0.06570820 0.04887473
v 0.02299099 -0.06725491 0.04700459
v 0.02325298 -0.06725491 0.04512870
v 0.02239349 -0.05788544 0.02825720
v 0.02008161 -0.07484343 0.04121580
v 0.02154320 -0.07384327 0.03681379
v 0.02221883 -0.06870866 0.04700459
v 0.02159835 -0.07394367 0.03575500
v 0.02108358 -0.07505164 0.03387911
v 0.02141910 -0.07548665 0.02825720
v 0.02184654 -0.07454970 0.02825720
v 0.02192008 -0.07460176 0.02638130
v 0.02201201 -0.07456457 0.02451117
v 0.02203039 -0.07451252 0.02263528
v 0.02259572 -0.07287659 0.02076514
v 0.02307373 -0.06895033 0.01150077
v 0.02153401 -0.06634027 0.00290390
v 0.02268305 -0.05975934 0.01888925
v 0.02153401 -0.06629566 0.00290390
v 0.02236592 -0.05788544 0.02076514
v 0.01713546 -0.04496154 0.02263528
v 0.01713546 -0.04496154 0.02283668
v 0.01712167 -0.04496154 0.02451117
v 0.02182816 -0.05649118 0.02825720
v 0.01711248 -0.04496154 0.02471257
v 0.02174543 -0.05661759 0.03013309
v 0.02163512 -0.05678490 0.03200322
v 0.01699758 -0.04496154 0.02638130
v 0.01696081 -0.04496154 0.02658270
v 0.01662529 -0.04496154 0.02825720
v 0.02143289 -0.05719761 0.03435096
v 0.02180059 -0.06598334 0.05075062
v 0.02158916 -0.06622501 0.05175762
v 0.02158916 -0.06651130 0.05175762
v 0.02242107 -0.06725491 0.04887473
v 0.02160755 -0.06827737 0.05002558
v 0.02185114 -0.06848558 0.04887473
v 0.01935082 -0.07517805 0.04325281
v 0.01953466 -0.07552755 0.04173369
v 0.02048148 -0.07475048 0.03950103
v 0.02092731 -0.07457945 0.03751581
v 0.02096408 -0.07488061 0.03575500
v 0.02002646 -0.07609641 0.03575500
v 0.02014596 -0.07624141 0.03387911
v 0.02038037 -0.07649052 0.03013309
v 0.02048148 -0.07657975 0.02825720
v 0.02143289 -0.07553870 0.02638130
v 0.02025627 -0.07637526 0.03200322
v 0.02137773 -0.07550152 0.02451117
v 0.02132258 -0.07544947 0.02263528
v 0.02125824 -0.07528216 0.02076514
v 0.02157537 -0.07389905 0.01578195
v 0.02005863 -0.07458317 0.00951555
v 0.01979665 -0.07411841 0.00763966
v 0.01965417 -0.07382097 0.00669596
v 0.01960361 -0.07000626 0.00125243
v 0.02107439 -0.06708016 0.00217311
v 0.02021031 -0.06725491 0.00061370
v 0.02237970 -0.05975934 0.01701336
v 0.02209474 -0.05788544 0.01888925
v 0.02014137 -0.06581602 0.00072879
v 0.01597723 -0.04496154 0.01779594
v 0.01602778 -0.04496154 0.01793404
v 0.01637709 -0.04496154 0.01888925
v 0.01958523 -0.05704517 0.01063188
v 0.02019192 -0.05775531 0.01131088
v 0.02098247 -0.05805276 0.01342270
v 0.02153860 -0.05879265 0.01415349
v 0.01692404 -0.04496154 0.02076514
v 0.01694702 -0.04496154 0.02096654
v 0.01656094 -0.04496154 0.02847010
v 0.01613349 -0.04496154 0.02981085
v 0.01211183 -0.05509692 0.04604363
v 0.01086168 -0.05479204 0.04628531
v 0.02059179 -0.06601680 0.05192449
v 0.02060098 -0.06718055 0.05197052
v 0.01571984 -0.04496154 0.03083511
v 0.01511774 -0.04496154 0.03199747
v 0.01500743 -0.04496154 0.03219311
v 0.01430422 -0.04496154 0.03337274
v 0.01422148 -0.04496154 0.03348207
v 0.01360100 -0.04496154 0.03429342
v 0.01351827 -0.04496154 0.03439124
v 0.01267257 -0.04496154 0.03533494
v 0.01252090 -0.04496154 0.03547304
v 0.01162924 -0.04496154 0.03627289
v 0.01155110 -0.04496154 0.03634194
v 0.01071000 -0.04496154 0.03698642
v 0.01051237 -0.04496154 0.03711301
v 0.00935872 -0.04496154 0.03779201
v 0.01998050 -0.06834801 0.05184969
v 0.02123066 -0.06776056 0.05127426
v 0.02179599 -0.06718055 0.05068732
v 0.01589909 -0.07756132 0.04793679
v 0.01788004 -0.07583986 0.04623928
v 0.01810985 -0.07610756 0.04512870
v 0.01841320 -0.07639385 0.04325281
v 0.01965876 -0.07569858 0.04048501
v 0.01974149 -0.07578409 0.03950103
v 0.01988857 -0.07594768 0.03763089
v 0.01928647 -0.07717836 0.03387911
v 0.01941976 -0.07731221 0.03200322
v 0.01952547 -0.07742747 0.03013309
v 0.01960821 -0.07751670 0.02825720
v 0.02049527 -0.07658347 0.02638130
v 0.02038496 -0.07646821 0.02263528
v 0.02032062 -0.07638641 0.02076514
v 0.02021491 -0.07628231 0.01888925
v 0.02044011 -0.07652770 0.02451117
v 0.01974609 -0.07578781 0.01170793
v 0.01964957 -0.07568742 0.01045925
v 0.02019652 -0.07494010 0.01120731
v 0.01954845 -0.07552011 0.00951555
v 0.01933243 -0.07505536 0.00763966
v 0.01789383 -0.07585846 0.00458990
v 0.01431800 -0.07792568 0.00073454
v 0.01990696 -0.06875700 0.00080935
v 0.01593586 -0.07760222 0.00289815
v 0.01279207 -0.07662809 -0.00123342
v 0.01121558 -0.07662809 -0.00191817
v 0.01121558 -0.07287659 -0.00171677
v 0.01121558 -0.07100269 -0.00160744
v 0.00934034 -0.06912880 -0.00184912
v 0.02164891 -0.05852123 0.01513747
v 0.02178680 -0.05785198 0.01716872
v 0.02153860 -0.05692991 0.01789952
v 0.00746510 -0.06912880 -0.00221164
v 0.00746510 -0.06725491 -0.00176857
v 0.00868308 -0.06424329 -0.00084788
v 0.00934034 -0.05826468 0.00089566
v 0.01048019 -0.05864021 0.00101650
v 0.00934034 -0.05732774 0.00121790
v 0.01115124 -0.05796353 0.00148835
v 0.01270474 -0.05664362 0.00270825
v 0.01395490 -0.05702286 0.00299597
v 0.01596803 -0.05688530 0.00476253
v 0.01387217 -0.04496154 0.01438941
v 0.01393652 -0.04496154 0.01447573
v 0.01455241 -0.04496154 0.01531010
v 0.01466272 -0.04496154 0.01548848
v 0.01549922 -0.04496154 0.01685799
v 0.01643684 -0.04496154 0.01909065
v 0.00795689 -0.04496154 0.03849403
v 0.00817291 -0.05328623 0.04597458
v 0.00934034 -0.05446113 0.04652123
v 0.00712958 -0.04496154 0.03882778
v -0.00939828 -0.06260736 0.05167130
v -0.00939828 -0.06354430 0.05204533
v -0.00939828 -0.06537730 0.05269556
v -0.00939828 -0.06725491 0.05325373
v -0.00939828 -0.06826993 0.05354144
v -0.00939828 -0.06920688 0.05378887
v -0.00939828 -0.07100269 0.05424922
v -0.00939828 -0.07287659 0.05463475
v 0.00184397 -0.07475048 0.05392122
v 0.00692275 -0.05306687 0.04618173
v 0.00559446 -0.05286238 0.04634285
v 0.00559446 -0.05413394 0.04716571
v 0.00371462 -0.05427895 0.04753399
v 0.00184397 -0.05397407 0.04758002
v 0.00184397 -0.05491101 0.04801159
v -0.00002667 -0.05479947 0.04805762
v 0.00371921 -0.07475048 0.05374859
v 0.00502453 -0.07475048 0.05361049
v 0.00499695 -0.07589564 0.05360474
v 0.00746510 -0.07662809 0.05308685
v 0.00934034 -0.07662809 0.05266104
v 0.01065944 -0.07783273 0.05185544
v 0.01190961 -0.07718208 0.05156197
v 0.01413875 -0.07767286 0.04991050
v 0.01457539 -0.07803723 0.04887473
v 0.01384919 -0.07933482 0.04755700
v 0.01501203 -0.07857262 0.04711968
v 0.01616107 -0.07781043 0.04668235
v 0.01734689 -0.07704451 0.04512870
v 0.01755372 -0.07733080 0.04325281
v 0.01789383 -0.07768029 0.03950103
v 0.01883145 -0.07672104 0.03950103
v 0.01899691 -0.07688463 0.03763089
v 0.01768700 -0.07747209 0.04179123
v 0.01834885 -0.07811159 0.03387911
v 0.01805929 -0.07784017 0.03763089
v 0.01848214 -0.07824172 0.03200322
v 0.01858785 -0.07832723 0.03013309
v 0.01867059 -0.07838672 0.02825720
v 0.01960361 -0.07752042 0.02638130
v 0.01955305 -0.07746465 0.02451117
v 0.01950249 -0.07740516 0.02263528
v 0.01941976 -0.07732336 0.02076514
v 0.01930946 -0.07721926 0.01888925
v 0.01795818 -0.07775094 0.01326158
v 0.01875332 -0.07666527 0.01115552
v 0.01918076 -0.07709285 0.01701336
v 0.01824314 -0.07802607 0.01701336
v 0.01810066 -0.07789222 0.01513747
v 0.01766862 -0.07745721 0.00951555
v 0.01751235 -0.07729733 0.00763966
v 0.01839481 -0.07636039 0.00763966
v 0.01811904 -0.07610756 0.00576377
v 0.01375727 -0.07917495 0.00156316
v 0.01250711 -0.07969547 0.00070002
v 0.01312759 -0.07856147 0.00009006
v 0.01249791 -0.07794799 -0.00104353
v 0.01611970 -0.07778440 0.00389363
v 0.01409279 -0.07949470 0.00281759
v 0.01120639 -0.07854288 -0.00134850
v 0.00934034 -0.07850198 -0.00205628
v 0.00751106 -0.07858006 -0.00250511
v 0.00691356 -0.07801120 -0.00273528
v 0.00371921 -0.07662809 -0.00350635
v 0.00184397 -0.07475048 -0.00373652
v 0.00499235 -0.06990587 -0.00271226
v 0.00497397 -0.06238427 -0.00084788
v 0.00559446 -0.05975934 -0.00005379
v 0.00755243 -0.05773673 0.00077482
v 0.00823266 -0.05701171 0.00110281
v 0.00951040 -0.05582937 0.00218462
v 0.01121558 -0.05626066 0.00242630
v 0.00746510 -0.04496154 0.00979751
v 0.00871986 -0.04496154 0.01030388
v 0.00963909 -0.04496154 0.01079875
v 0.01108689 -0.04496154 0.01171944
v 0.01202451 -0.04496154 0.01243872
v 0.01213941 -0.04496154 0.01254230
v 0.01294374 -0.04496154 0.01337091
v 0.00691356 -0.04496154 0.03890834
v -0.00939828 -0.06163323 0.05125124
v -0.01127353 -0.06163323 0.05127426
v -0.01127353 -0.06258505 0.05168281
v -0.00190191 -0.05471768 0.04809215
v -0.00190191 -0.05378073 0.04768935
v -0.01127353 -0.06352199 0.05203958
v -0.01127353 -0.06537730 0.05268981
v -0.01127353 -0.06725491 0.05325373
v -0.01127353 -0.06825878 0.05354719
v -0.01127353 -0.06919573 0.05379463
v -0.01127353 -0.07100269 0.05425497
v -0.01314877 -0.07287659 0.05470956
v -0.01127353 -0.07287659 0.05469805
v -0.01127353 -0.07475048 0.05474983
v -0.00002667 -0.07475048 0.05404206
v -0.00002667 -0.07662809 0.05389245
v 0.00371921 -0.07624513 0.05367379
v 0.00559446 -0.04496154 0.03932840
v 0.00226682 -0.05145695 0.04593430
v 0.00101666 -0.05129708 0.04608966
v 0.00371921 -0.05259467 0.04651548
v 0.00171987 -0.05215594 0.04653850
v -0.00002667 -0.05226005 0.04680895
v -0.00190191 -0.05226005 0.04695281
v -0.00002667 -0.05386252 0.04764332
v 0.00371921 -0.07718208 0.05347814
v 0.00561284 -0.07656116 0.05338607
v 0.00934034 -0.07815248 0.05206835
v 0.00934034 -0.07908943 0.05134906
v 0.01133509 -0.07860237 0.05083118
v 0.01309082 -0.07806325 0.05026151
v 0.01201532 -0.07937200 0.04969759
v 0.01316896 -0.07902622 0.04899557
v 0.01259903 -0.07966945 0.04844891
v 0.01316896 -0.07981445 0.04696431
v 0.01412497 -0.07949842 0.04630833
v 0.01521886 -0.07896302 0.04512870
v 0.01640926 -0.07802607 0.04512870
v 0.01661610 -0.07818595 0.04325281
v 0.01738365 -0.07917866 0.03200322
v 0.01707571 -0.07891097 0.03575500
v 0.01723198 -0.07904853 0.03387911
v 0.01750775 -0.07926790 0.03013309
v 0.01759968 -0.07932367 0.02825720
v 0.01866599 -0.07835698 0.02638130
v 0.01754452 -0.07926790 0.02263528
v 0.01856488 -0.07832723 0.02263528
v 0.01848214 -0.07824543 0.02076514
v 0.01837184 -0.07814133 0.01888925
v 0.01673100 -0.07833838 0.00951555
v 0.01657473 -0.07820454 0.00763966
v 0.01785246 -0.07763939 0.01185754
v 0.01719521 -0.07896673 0.01701336
v 0.01706193 -0.07882917 0.01513747
v 0.01569686 -0.07927533 0.00951555
v 0.01638628 -0.07804094 0.00576377
v 0.01732391 -0.07704451 0.00576377
v 0.01311840 -0.07990368 0.00212132
v 0.01118341 -0.08096332 0.00194869
v 0.01012629 -0.08126077 0.00128120
v 0.01120639 -0.08003753 0.00010157
v 0.01182687 -0.07919726 -0.00054866
v 0.01057671 -0.07960996 -0.00096297
v 0.01536133 -0.07897789 0.00576377
v 0.01423068 -0.07959880 0.00389363
v 0.01309082 -0.08034613 0.00389363
v 0.00934034 -0.07991112 -0.00125068
v 0.00629307 -0.07926046 -0.00263746
v 0.00563582 -0.07858006 -0.00290215
v 0.00371921 -0.07850198 -0.00322439
v 0.00184397 -0.07662809 -0.00375954
v -0.00002667 -0.07662809 -0.00379982
v -0.01127353 -0.07475048 -0.00390915
v -0.00939828 -0.07287659 -0.00367898
v 0.00184397 -0.07287659 -0.00347183
v 0.00371921 -0.06970138 -0.00276405
v 0.00371921 -0.06350712 -0.00124493
v 0.00371921 -0.06222068 -0.00089392
v 0.00371921 -0.06128373 -0.00063497
v 0.00371921 -0.05975934 -0.00017463
v 0.00559446 -0.05788544 0.00052739
v 0.00698250 -0.05681093 0.00102226
v 0.00559446 -0.05569924 0.00136176
v 0.00755243 -0.05611566 0.00147684
v 0.00746510 -0.05455409 0.00249535
v 0.00900022 -0.05483665 0.00273127
v 0.01024579 -0.05508576 0.00296720
v 0.00579669 -0.04496154 0.00927963
v -0.00377716 -0.05375470 0.04771812
v -0.00565240 -0.05226005 0.04709091
v -0.02252498 -0.05226005 0.04728655
v -0.02312707 -0.05226005 0.04729231
v -0.01314877 -0.06258505 0.05168281
v -0.00377716 -0.05226005 0.04705063
v -0.01502401 -0.06258877 0.05168281
v -0.01314877 -0.06352199 0.05203382
v -0.01502401 -0.06352572 0.05202807
v -0.02064973 -0.06537730 0.05263802
v -0.02312707 -0.06725491 0.05319043
v -0.01502401 -0.06828109 0.05354144
v -0.02312707 -0.07100269 0.05424346
v -0.01314877 -0.06921060 0.05379463
v -0.01314877 -0.07100269 0.05425497
v -0.02064973 -0.07287659 0.05471531
v -0.02312707 -0.07475048 0.05487643
v -0.01877449 -0.07475048 0.05484190
v -0.01314877 -0.07475048 0.05478436
v -0.02312707 -0.07662809 0.05462324
v -0.02064973 -0.07662809 0.05457721
v -0.01502401 -0.07662809 0.05445637
v -0.01314877 -0.07662809 0.05441033
v -0.01127353 -0.07662809 0.05434704
v -0.00190191 -0.07662809 0.05397876
v 0.00129703 -0.07762081 0.05359323
v 0.00188994 -0.07676194 0.05374284
v 0.00254719 -0.07747580 0.05354144
v 0.00371921 -0.04496154 0.03975997
v -0.00190191 -0.05009244 0.04547396
v -0.00002667 -0.05119297 0.04616447
v -0.00190191 -0.05102938 0.04626805
v -0.00377716 -0.05089925 0.04633710
v 0.00733181 -0.07862467 0.05217192
v 0.00786497 -0.07933110 0.05157924
v 0.00934034 -0.07984419 0.05041112
v 0.01076516 -0.07963226 0.05009463
v 0.01132130 -0.07995574 0.04899557
v 0.01121558 -0.08056178 0.04700459
v 0.01309082 -0.08012676 0.04512870
v 0.01428124 -0.07958765 0.04512870
v 0.01541649 -0.07912661 0.04325281
v 0.01560494 -0.07925674 0.04137692
v 0.01671721 -0.07890353 0.03777475
v 0.01601399 -0.07950957 0.03725111
v 0.01613809 -0.07958765 0.03575500
v 0.01629436 -0.07966945 0.03387911
v 0.01579338 -0.07937200 0.03950103
v 0.01644604 -0.07974009 0.03200322
v 0.01657013 -0.07980330 0.03013309
v 0.01666205 -0.07985163 0.02825720
v 0.01660690 -0.07986279 0.02263528
v 0.01649659 -0.07981817 0.02076514
v 0.01638168 -0.07975496 0.01888925
v 0.01625759 -0.07968432 0.01701336
v 0.01743422 -0.07918238 0.02076514
v 0.01731931 -0.07908199 0.01888925
v 0.01553599 -0.07914148 0.00763966
v 0.01591747 -0.07945008 0.01224307
v 0.01459837 -0.07984047 0.00763966
v 0.01442371 -0.07972894 0.00576377
v 0.01053535 -0.08141321 0.00252987
v 0.01170738 -0.08112692 0.00389363
v 0.00887612 -0.08146154 0.00074605
v 0.00943686 -0.08091127 0.00013034
v 0.00943686 -0.08161770 0.00194869
v 0.01309082 -0.08056921 0.00576377
v 0.00746510 -0.08022715 -0.00157292
v 0.00746510 -0.08116410 -0.00052564
v 0.00504291 -0.07949842 -0.00271226
v 0.00184397 -0.07850198 -0.00333373
v 0.00371921 -0.07956534 -0.00276981
v -0.00002667 -0.07850198 -0.00337976
v -0.00190191 -0.07850198 -0.00338551
v -0.00190191 -0.07662809 -0.00379982
v -0.01314877 -0.07662809 -0.00374228
v -0.01314877 -0.07475048 -0.00385736
v -0.01127353 -0.07287659 -0.00366747
v -0.00939828 -0.07100269 -0.00334523
v 0.00184397 -0.07100269 -0.00311506
v 0.00184397 -0.06952663 -0.00280433
v 0.00184397 -0.06350712 -0.00131398
v 0.00184397 -0.06118335 -0.00065224
v 0.00184397 -0.06212401 -0.00092844
v 0.00184397 -0.05975934 -0.00020916
v 0.00371921 -0.05788544 0.00042381
v 0.00371921 -0.05647631 0.00090717
v 0.00559446 -0.05663619 0.00095896
v 0.00371921 -0.05553565 0.00126393
v 0.00184397 -0.05413394 0.00184511
v 0.00371921 -0.05413394 0.00205802
v 0.00545657 -0.05405214 0.00241479
v 0.00560365 -0.04496154 0.00922208
v -0.01127353 -0.05064270 0.04642341
v -0.01314877 -0.05060924 0.04644068
v -0.02252498 -0.05052372 0.04651548
v -0.02312707 -0.06265569 0.05165979
v -0.02312707 -0.05108143 0.04676867
v -0.00565240 -0.05080258 0.04636587
v -0.00752764 -0.05073194 0.04638313
v -0.02252498 -0.06358520 0.05199930
v -0.02252498 -0.06537730 0.05262076
v -0.02312707 -0.06597962 0.05280489
v -0.02312707 -0.06760812 0.05329401
v -0.02312707 -0.06837404 0.05351267
v -0.02312707 -0.06931098 0.05377736
v -0.02312707 -0.07287659 0.05470956
v -0.02312707 -0.07347891 0.05476710
v -0.02312707 -0.07535280 0.05479587
v -0.02312707 -0.07840903 0.05399603
v -0.02064973 -0.07835698 0.05397301
v -0.01502401 -0.07820454 0.05390396
v -0.00565240 -0.07791081 0.05375435
v -0.00377716 -0.07784389 0.05371982
v -0.00190191 -0.07777324 0.05367379
v -0.00002667 -0.07768773 0.05362775
v -0.00190191 -0.07871019 0.05301780
v -0.00002667 -0.07862467 0.05296026
v 0.00188994 -0.07834583 0.05301780
v 0.00371921 -0.07850198 0.05273009
v 0.00559446 -0.07850198 0.05250567
v 0.00184397 -0.04496154 0.04005344
v -0.00377716 -0.04996231 0.04565234
v -0.00565240 -0.04986564 0.04577318
v -0.00752764 -0.04979499 0.04584799
v 0.00661481 -0.07945008 0.05170008
v 0.00733181 -0.07989996 0.05087146
v 0.00934034 -0.08056921 0.04887473
v 0.00934034 -0.08095589 0.04700459
v 0.01121558 -0.08074024 0.04512870
v 0.01309082 -0.08030151 0.04325281
v 0.01466732 -0.07978842 0.04137692
v 0.01447887 -0.07969547 0.04325281
v 0.01496606 -0.08017138 0.03575500
v 0.01514532 -0.07989253 0.03777475
v 0.01496606 -0.08043164 0.03200322
v 0.01496606 -0.08030895 0.03387911
v 0.01496606 -0.08053946 0.03013309
v 0.01496606 -0.08061755 0.02825720
v 0.01496606 -0.08069562 0.02263528
v 0.01496606 -0.08064357 0.02076514
v 0.01496606 -0.08055806 0.01888925
v 0.01496606 -0.08045023 0.01701336
v 0.01496606 -0.08032010 0.01513747
v 0.01496606 -0.08017138 0.01326158
v 0.01612430 -0.07959508 0.01513747
v 0.01509935 -0.07992227 0.01152954
v 0.01475924 -0.07994458 0.00951555
v 0.01076976 -0.08149501 0.00389363
v 0.00934034 -0.08190399 0.00389363
v 0.01189582 -0.08121615 0.00576377
v 0.00746510 -0.08203412 0.00201774
v 0.00746510 -0.08158423 0.00041230
v 0.01317815 -0.08088153 0.00951555
v 0.01291617 -0.08085922 0.00775475
v 0.00559446 -0.08128679 -0.00074430
v 0.00563582 -0.08020484 -0.00190091
v 0.00184397 -0.07963226 -0.00282159
v 0.00388467 -0.08066588 -0.00156141
v -0.00002667 -0.07966201 -0.00284461
v -0.00377716 -0.07967317 -0.00285037
v -0.00377716 -0.07850198 -0.00337400
v -0.01502401 -0.07662809 -0.00367898
v -0.01127353 -0.07850198 -0.00320138
v -0.01314877 -0.07850198 -0.00315534
v -0.01502401 -0.07850198 -0.00310356
v -0.01962019 -0.07943149 -0.00266623
v -0.02064973 -0.07937572 -0.00264897
v -0.01502401 -0.07475048 -0.00375379
v -0.01877449 -0.07662809 -0.00349484
v -0.02312707 -0.07662809 -0.00327618
v -0.02312707 -0.07475048 -0.00324741
v -0.01502401 -0.06879418 -0.00255115
v -0.01314877 -0.06851904 -0.00261444
v -0.01060248 -0.06812493 -0.00268925
v -0.00939828 -0.06808403 -0.00270075
v -0.00838253 -0.06811377 -0.00268925
v -0.00939828 -0.06537730 -0.00195270
v -0.00002667 -0.06116104 -0.00065799
v -0.00002667 -0.06209799 -0.00093420
v -0.00002667 -0.05975934 -0.00022067
v 0.00184397 -0.05788544 0.00038929
v 0.00184397 -0.05638336 0.00088415
v 0.00184397 -0.05544641 0.00121215
v -0.00002667 -0.05413394 0.00175880
v -0.00002667 -0.05265045 0.00257015
v 0.00184397 -0.05281776 0.00264496
v 0.00371921 -0.05303712 0.00281183
v 0.00393064 -0.04496154 0.00887683
v -0.01127353 -0.04970575 0.04591128
v -0.01314877 -0.04967229 0.04592855
v -0.02312707 -0.05052745 0.04651548
v -0.01877449 -0.04961653 0.04595732
v -0.02252498 -0.04958678 0.04596883
v -0.02312707 -0.04989166 0.04614721
v -0.02312707 -0.06359264 0.05199354
v -0.00939828 -0.04974666 0.04588827
v -0.02312707 -0.06415778 0.05218919
v -0.02312707 -0.06537730 0.05260925
v -0.02312707 -0.07871019 0.05384066
v -0.02252498 -0.07933482 0.05348965
v -0.02064973 -0.07929393 0.05345513
v -0.01689925 -0.07920097 0.05338607
v -0.01127353 -0.07902622 0.05326524
v -0.00752764 -0.07890724 0.05316741
v -0.00565240 -0.07884776 0.05311562
v -0.00377716 -0.07878455 0.05306384
v -0.00002667 -0.07971406 0.05202231
v 0.00184397 -0.07966572 0.05195326
v 0.00371921 -0.07959880 0.05187270
v 0.00559446 -0.07950957 0.05176912
v 0.00162795 -0.04496154 0.04008221
v -0.00565240 -0.04880971 0.04483524
v -0.00377716 -0.04896959 0.04471440
v -0.00752764 -0.04869445 0.04491004
v -0.00939828 -0.04861265 0.04495032
v 0.00559446 -0.08014164 0.05075062
v 0.00746510 -0.08081832 0.04887473
v 0.00746510 -0.08110461 0.04700459
v 0.00934034 -0.08104884 0.04512870
v 0.01034231 -0.08132397 0.03707273
v 0.01106851 -0.08119012 0.03767117
v 0.01121558 -0.08106743 0.03950103
v 0.01309082 -0.08085178 0.03575500
v 0.01309082 -0.08074024 0.03763089
v 0.01309082 -0.08060267 0.03950103
v 0.01309082 -0.08045767 0.04137692
v 0.01309082 -0.08095217 0.03387911
v 0.01320573 -0.08111204 0.03013309
v 0.01334361 -0.08114179 0.02825720
v 0.01361019 -0.08120872 0.02263528
v 0.01361479 -0.08120128 0.02076514
v 0.01357802 -0.08117897 0.01888925
v 0.01354125 -0.08114551 0.01701336
v 0.01347690 -0.08110089 0.01513747
v 0.01338498 -0.08104512 0.01326158
v 0.01329765 -0.08097448 0.01139144
v 0.01217159 -0.08132397 0.00845677
v 0.01095820 -0.08154334 0.00576377
v 0.01121558 -0.08164372 0.00951555
v 0.00934034 -0.08197835 0.00576377
v 0.00746510 -0.08222374 0.00389363
v 0.00559446 -0.08215682 0.00201774
v 0.00559446 -0.08165488 0.00019364
v 0.00461547 -0.08131282 -0.00079034
v -0.00002667 -0.08059895 -0.00183186
v 0.00184397 -0.08057293 -0.00179734
v -0.00190191 -0.08060639 -0.00186063
v -0.00377716 -0.08061011 -0.00186639
v -0.00565240 -0.07965829 -0.00283310
v -0.00565240 -0.08059895 -0.00187214
v -0.01689925 -0.08143552 -0.00095146
v -0.02064973 -0.08142808 -0.00093995
v -0.02252498 -0.08142064 -0.00092844
v -0.02312707 -0.08141692 -0.00092269
v -0.01127353 -0.07959880 -0.00278132
v -0.01502401 -0.07953559 -0.00273528
v -0.01689925 -0.07950213 -0.00271226
v -0.02312707 -0.07828262 -0.00287338
v -0.02252498 -0.07926046 -0.00261444
v -0.02312707 -0.07921956 -0.00260293
v -0.01837003 -0.07946495 -0.00268925
v -0.02312707 -0.08037587 -0.00179158
v -0.02312707 -0.06912880 -0.00202751
v -0.02312707 -0.06852648 -0.00189516
v -0.02312707 -0.06725491 -0.00159594
v -0.01877449 -0.06725491 -0.00190667
v -0.01314877 -0.06725491 -0.00228645
v -0.01127353 -0.06537730 -0.00186639
v -0.00939828 -0.06350712 -0.00134850
v -0.00002667 -0.05788544 0.00038929
v -0.00002667 -0.05637964 0.00088991
v -0.00002667 -0.05544270 0.00120639
v -0.00190191 -0.05413394 0.00178182
v -0.00377716 -0.05244596 0.00257591
v -0.00190191 -0.05252775 0.00255864
v -0.00377716 -0.05150901 0.00306502
v -0.00190191 -0.05159080 0.00316284
v 0.00213353 -0.04496154 0.00865241
v 0.00371921 -0.04496154 0.00884230
v -0.01127353 -0.04856804 0.04497334
v -0.01314877 -0.04856060 0.04499635
v -0.02312707 -0.04959050 0.04596307
v -0.01314877 -0.04762365 0.04412746
v -0.02312707 -0.07934597 0.05349541
v -0.02312707 -0.07959880 0.05319618
v -0.02252498 -0.08012676 0.05255171
v -0.02064973 -0.08009702 0.05252293
v -0.01127353 -0.07994458 0.05232729
v -0.00190191 -0.07975868 0.05207986
v -0.00190191 -0.08052831 0.05075062
v -0.00002667 -0.08045023 0.05075062
v 0.00184397 -0.08036844 0.05075062
v 0.00371921 -0.08027549 0.05075062
v 0.00011581 -0.04496154 0.04026635
v -0.00752764 -0.04775750 0.04395483
v -0.00939828 -0.04767571 0.04406416
v -0.01127353 -0.04763109 0.04411595
v 0.00559446 -0.08090383 0.04887473
v 0.00058002 -0.08130539 0.04781019
v 0.00184397 -0.08134628 0.04653850
v 0.00297004 -0.08132397 0.04620475
v 0.00934034 -0.08163629 0.02825720
v 0.01121558 -0.08152847 0.02825720
v 0.01121558 -0.08146898 0.03013309
v 0.01226811 -0.08134256 0.03013309
v 0.01216240 -0.08131654 0.03111131
v 0.01290698 -0.08110089 0.03184210
v 0.01240599 -0.08137603 0.02825720
v 0.01267257 -0.08143552 0.02263528
v 0.01267716 -0.08144667 0.02076514
v 0.01260822 -0.08145782 0.01701336
v 0.01253928 -0.08144667 0.01513747
v 0.01244736 -0.08142436 0.01326158
v 0.01236003 -0.08139834 0.01139144
v 0.01224513 -0.08135372 0.00951555
v 0.01121558 -0.08171437 0.01139144
v 0.00934034 -0.08201553 0.00763966
v 0.00934034 -0.08204155 0.00951555
v 0.00746510 -0.08222746 0.00576377
v 0.00559446 -0.08229810 0.00389363
v -0.00377716 -0.08253977 0.00389363
v -0.00565240 -0.08258811 0.00389363
v -0.00002667 -0.08229438 0.00201774
v -0.00002667 -0.08179616 0.00014185
v 0.00184397 -0.08174783 0.00014185
v 0.00388467 -0.08162142 -0.00004228
v 0.00336991 -0.08133141 -0.00082486
v 0.00184397 -0.08135372 -0.00085939
v -0.00002667 -0.08137603 -0.00089392
v -0.00190191 -0.08139461 -0.00092269
v -0.00752764 -0.08141692 -0.00094570
v -0.00939828 -0.08142436 -0.00095146
v -0.01127353 -0.08142808 -0.00095721
v -0.01314877 -0.08143180 -0.00095721
v -0.02064973 -0.08198950 0.00014185
v -0.02312707 -0.08198950 0.00014185
v -0.02312707 -0.06670836 -0.00144057
v -0.02312707 -0.06532153 -0.00104353
v -0.02312707 -0.06452958 -0.00079609
v -0.01127353 -0.06350712 -0.00125643
v -0.01127353 -0.06240658 -0.00085939
v -0.00377716 -0.05562116 0.00126393
v -0.00190191 -0.05551334 0.00123516
v -0.00190191 -0.05645028 0.00090717
v -0.00377716 -0.05413394 0.00182210
v -0.00565240 -0.05243852 0.00260468
v -0.00565240 -0.05149785 0.00304200
v -0.00939828 -0.04924472 0.00463593
v -0.00752764 -0.04929677 0.00467621
v -0.00002667 -0.04496154 0.00852006
v 0.00182099 -0.04496154 0.00862364
v -0.01502401 -0.04763481 0.04409869
v -0.02312707 -0.04898446 0.04533010
v -0.00928798 -0.04496154 0.04096261
v -0.00939828 -0.04496154 0.04096261
v -0.01107129 -0.04496154 0.04093960
v -0.02312707 -0.08013792 0.05255746
v -0.02312707 -0.08043908 0.05210287
v -0.02312707 -0.08107486 0.05109588
v -0.01127353 -0.08084063 0.05075062
v -0.01127353 -0.08127192 0.04962279
v -0.00190191 -0.08114551 0.04903585
v -0.00315208 -0.04496154 0.04054255
v -0.00529390 -0.04496154 0.04072094
v -0.00734839 -0.04496154 0.04087630
v 0.00184397 -0.08104512 0.04887473
v -0.00190191 -0.08135000 0.04809790
v -0.00377716 -0.08150244 0.04700459
v -0.00190191 -0.08144667 0.04700459
v 0.00184397 -0.08139834 0.04512870
v -0.00190191 -0.08150988 0.04512870
v 0.00934034 -0.08184078 0.02076514
v 0.01121558 -0.08166975 0.02263528
v 0.01121558 -0.08171065 0.02076514
v 0.01121558 -0.08176270 0.01701336
v 0.01121558 -0.08175898 0.01513747
v 0.01121558 -0.08174411 0.01326158
v 0.00934034 -0.08204527 0.01139144
v -0.01127353 -0.08269965 0.00576377
v 0.00746510 -0.08219400 0.00763966
v -0.01314877 -0.08275914 0.00389363
v -0.00190191 -0.08233528 0.00201774
v -0.00190191 -0.08182963 0.00014185
v -0.01127353 -0.08251746 0.00201774
v -0.00939828 -0.08191886 0.00014185
v -0.01127353 -0.08193745 0.00014185
v -0.01314877 -0.08195232 0.00014185
v -0.01689925 -0.08197463 0.00014185
v -0.02312707 -0.08268850 0.00201774
v -0.02312707 -0.06442920 -0.00076157
v -0.02312707 -0.05226005 0.00345056
v -0.02120587 -0.05330482 0.00296144
v -0.00565240 -0.05413394 0.00190841
v -0.00752764 -0.05248685 0.00265071
v -0.01127353 -0.05172093 0.00311105
v -0.00939828 -0.05162427 0.00308228
v -0.00752764 -0.05154991 0.00305926
v -0.01127353 -0.05038616 0.00385911
v -0.00939828 -0.05038616 0.00383034
v -0.01127353 -0.04924100 0.00463593
v -0.00190191 -0.04496154 0.00849705
v -0.01689925 -0.04766083 0.04404690
v -0.02312707 -0.04871304 0.04503088
v -0.02252498 -0.04869445 0.04503088
v -0.01127353 -0.04496154 0.04092809
v -0.01877449 -0.04768686 0.04398936
v -0.02312707 -0.08119012 0.05079665
v -0.02252498 -0.08142808 0.05013491
v -0.01127353 -0.08146154 0.04868484
v -0.00377716 -0.08137603 0.04821874
v -0.00939828 -0.08162142 0.04700459
v -0.00939828 -0.08168834 0.04512870
v -0.00377716 -0.08156193 0.04512870
v 0.00934034 -0.08201181 0.01326158
v -0.02312707 -0.08294132 0.00576377
v -0.02312707 -0.08294132 0.00516533
v -0.02312707 -0.08293761 0.00389363
v -0.01314877 -0.08255093 0.00201774
v -0.02252498 -0.08268106 0.00201774
v -0.02312707 -0.05058693 0.00433671
v -0.02252498 -0.05055719 0.00431945
v -0.02252498 -0.05226005 0.00342178
v -0.01314877 -0.05038616 0.00392240
v -0.01314877 -0.04926331 0.00465895
v -0.00752764 -0.04496154 0.00857185
v -0.00565240 -0.04496154 0.00853157
v -0.00377716 -0.04496154 0.00850855
v -0.02064973 -0.04772032 0.04390880
v -0.02312707 -0.04807726 0.04419651
v -0.01268915 -0.04496154 0.04076121
v -0.02312707 -0.04777609 0.04376494
v -0.02252498 -0.04775750 0.04380522
v -0.02312707 -0.08143552 0.05015793
v -0.02312707 -0.08152103 0.04973212
v -0.02312707 -0.08167718 0.04887473
v -0.01127353 -0.08165488 0.04700459
v -0.02312707 -0.08174039 0.04827629
v -0.01127353 -0.08172180 0.04512870
v -0.02312707 -0.08192629 0.04512870
v -0.02312707 -0.04964999 0.00502722
v -0.02252498 -0.04962024 0.00499845
v -0.02064973 -0.04953473 0.00491214
v -0.01934442 -0.04947896 0.00486035
v -0.01809426 -0.04943062 0.00481432
v -0.01502401 -0.05038616 0.00402023
v -0.01502401 -0.04931536 0.00470498
v -0.00939828 -0.04496154 0.00866967
v -0.01314877 -0.04496154 0.04068066
v -0.01418291 -0.04496154 0.04039294
v -0.02312707 -0.04735967 0.04282700
v -0.02312707 -0.08186309 0.04700459
v -0.02312707 -0.04893984 0.00596517
v -0.01301088 -0.04496154 0.00909549
v -0.01127353 -0.04496154 0.00882504
v -0.01508376 -0.04496154 0.04005344
v -0.02312707 -0.04704736 0.04181425
v -0.01551120 -0.04496154 0.03989232
v -0.01656373 -0.04496154 0.03929388
v -0.02312707 -0.04802520 0.00775475
v -0.01499184 -0.04496154 0.00972846
v -0.02312707 -0.04692466 0.04137692
v -0.01768520 -0.04496154 0.03855158
v -0.01890318 -0.04496154 0.03763665
v -0.02312707 -0.04764596 0.00885956
v -0.02181716 -0.04496154 0.01517775
v -0.02068650 -0.04496154 0.01405567
v -0.02009819 -0.04496154 0.01348024
v -0.01901809 -0.04496154 0.01243872
v -0.01706931 -0.04496154 0.01087931
v -0.01546984 -0.04496154 0.00998740
v -0.02001546 -0.04496154 0.03669295
v -0.02086116 -0.04496154 0.03596791
v -0.02183555 -0.04496154 0.03511628
v -0.02284671 -0.04496154 0.03418409
v -0.02312707 -0.04496154 0.03387911
v -0.02312707 -0.04496154 0.01670263
f 1 2 3
f 1 3 4
f 1 4 5
f 1 5 6
f 1 6 7
f 1 7 8
f 1 8 9
f 1 9 10
f 1 10 11
f 1 11 12
f 1 12 13
f 1 13 2
f 2 14 3
f 2 13 15
f 2 15 16
f 2 16 14
f 3 14 17
f 3 17 18
f 3 18 4
f 4 18 19
f 4 19 20
f 4 20 21
f 4 21 5
f 5 21 6
f 6 21 7
f 7 21 8
f 8 21 9
f 9 21 22
f 9 22 23
f 9 23 10
f 10 23 12
f 10 12 11
f 12 24 25
f 12 25 26
f 12 26 13
f 12 23 24
f 13 26 27
f 13 27 15
f 14 16 28
f 14 28 29
f 14 29 30
f 14 30 31
f 14 31 32
f 14 32 33
f 14 33 17
f 15 27 16
f 16 27 34
f 16 34 28
f 17 33 18
f 18 35 36
f 18 36 19
f 18 33 32
f 18 32 37
f 18 37 35
f 19 36 38
f 19 38 39
f 19 39 40
f 19 40 41
f 19 41 20
f 20 41 42
f 20 42 21
f 21 43 44
f 21 44 45
f 21 45 22
f 21 42 43
f 22 45 46
f 22 46 47
f 22 47 49
f 22 49 23
f 23 48 24
f 23 49 48
f 24 48 50
f 24 50 25
f 25 50 51
f 25 51 26
f 26 51 52
f 26 52 53
f 26 53 27
f 27 54 34
f 27 53 55
f 27 55 54
f 28 34 56
f 28 56 57
f 28 57 29
f 29 57 30
f 30 57 58
f 30 58 59
f 30 59 60
f 30 60 61
f 30 61 31
f 31 62 32
f 31 61 62
f 32 62 63
f 32 63 64
f 32 64 65
f 32 65 66
f 32 66 67
f 32 67 37
f 34 54 56
f 35 68 69
f 35 69 70
f 35 70 36
f 35 37 68
f 36 71 72
f 36 72 39
f 36 39 38
f 36 70 71
f 37 67 68
f 39 72 73
f 39 73 74
f 39 74 40
f 40 75 76
f 40 76 77
f 40 77 43
f 40 43 42
f 40 42 41
f 40 74 78
f 40 78 75
f 43 77 44
f 44 77 79
f 44 79 80
f 44 80 81
f 44 81 82
f 44 82 45
f 45 82 46
f 46 82 83
f 46 83 84
f 46 84 85
f 46 85 86
f 46 86 87
f 46 87 47
f 47 87 88
f 47 88 49
f 48 89 90
f 48 90 50
f 48 49 89
f 49 88 91
f 49 91 92
f 49 92 93
f 49 93 94
f 49 94 95
f 49 95 96
f 49 96 97
f 49 97 98
f 49 98 89
f 50 99 100
f 50 100 51
f 50 90 99
f 51 100 99
f 51 99 172
f 51 172 94
f 51 94 93
f 51 93 92
f 51 92 171
f 51 171 170
f 51 170 169
f 51 169 168
f 51 168 167
f 51 167 255
f 51 255 254
f 51 254 253
f 51 253 252
f 51 252 251
f 51 251 250
f 51 250 249
f 51 249 344
f 51 344 437
f 51 437 533
f 51 533 624
f 51 624 623
f 51 623 696
f 51 696 695
f 51 695 746
f 51 746 772
f 51 772 771
f 51 771 770
f 51 770 792
f 51 792 799
f 51 799 798
f 51 798 805
f 51 805 815
f 51 815 814
f 51 814 813
f 51 813 812
f 51 812 811
f 51 811 810
f 51 810 821
f 51 821 820
f 51 820 819
f 51 819 818
f 51 818 817
f 51 817 816
f 51 816 808
f 51 808 807
f 51 807 803
f 51 803 802
f 51 802 800
f 51 800 794
f 51 794 793
f 51 793 775
f 51 775 750
f 51 750 701
f 51 701 700
f 51 700 699
f 51 699 710
f 51 710 709
f 51 709 708
f 51 708 639
f 51 639 556
f 51 556 466
f 51 466 373
f 51 373 274
f 51 274 256
f 51 256 176
f 51 176 173
f 51 173 120
f 51 120 119
f 51 119 118
f 51 118 117
f 51 117 116
f 51 116 115
f 51 115 114
f 51 114 113
f 51 113 112
f 51 112 111
f 51 111 110
f 51 110 109
f 51 109 108
f 51 108 107
f 51 107 102
f 51 102 101
f 51 101 60
f 51 60 59
f 51 59 58
f 51 58 55
f 51 55 53
f 51 53 52
f 54 58 56
f 54 55 58
f 56 58 57
f 60 101 62
f 60 62 61
f 62 101 102
f 62 102 63
f 63 103 104
f 63 104 105
f 63 105 106
f 63 106 64
f 63 102 107
f 63 107 108
f 63 108 109
f 63 109 110
f 63 110 111
f 63 111 112
f 63 112 113
f 63 113 114
f 63 114 115
f 63 115 116
f 63 116 117
f 63 117 118
f 63 118 119
f 63 119 120
f 63 120 103
f 64 106 121
f 64 121 122
f 64 122 66
f 64 66 123
f 64 123 65
f 65 123 66
f 66 122 124
f 66 124 125
f 66 125 126
f 66 126 68
f 66 68 67
f 68 126 69
f 69 126 127
f 69 127 128
f 69 128 70
f 70 128 71
f 71 128 129
f 71 129 72
f 72 129 130
f 72 130 73
f 73 131 132
f 73 132 74
f 73 130 131
f 74 132 78
f 75 133 76
f 75 78 132
f 75 132 133
f 76 134 135
f 76 135 77
f 76 133 134
f 77 135 79
f 79 135 80
f 80 136 137
f 80 137 138
f 80 138 81
f 80 135 139
f 80 139 136
f 81 138 140
f 81 140 82
f 82 140 141
f 82 141 142
f 82 142 83
f 83 142 141
f 83 141 143
f 83 143 144
f 83 144 84
f 84 144 85
f 85 144 145
f 85 145 86
f 86 146 147
f 86 147 87
f 86 145 148
f 86 148 146
f 87 147 88
f 88 147 149
f 88 149 150
f 88 150 151
f 88 151 152
f 88 152 153
f 88 153 91
f 89 98 154
f 89 154 155
f 89 155 90
f 90 155 156
f 90 156 99
f 91 153 157
f 91 157 158
f 91 158 159
f 91 159 160
f 91 160 161
f 91 161 162
f 91 162 163
f 91 163 164
f 91 164 165
f 91 165 166
f 91 166 167
f 91 167 168
f 91 168 169
f 91 169 170
f 91 170 171
f 91 171 92
f 94 97 96
f 94 96 95
f 94 172 97
f 97 172 99
f 97 99 98
f 98 99 154
f 99 156 155
f 99 155 154
f 103 120 173
f 103 173 104
f 104 174 175
f 104 175 105
f 104 173 176
f 104 176 174
f 105 177 178
f 105 178 179
f 105 179 180
f 105 180 181
f 105 181 182
f 105 182 183
f 105 183 184
f 105 184 185
f 105 185 106
f 105 175 186
f 105 186 187
f 105 187 188
f 105 188 189
f 105 189 190
f 105 190 191
f 105 191 192
f 105 192 177
f 106 185 193
f 106 193 194
f 106 194 195
f 106 195 196
f 106 196 197
f 106 197 121
f 121 198 199
f 121 199 200
f 121 200 122
f 121 197 198
f 122 200 124
f 124 201 202
f 124 202 203
f 124 203 204
f 124 204 126
f 124 126 125
f 124 200 201
f 126 204 205
f 126 205 127
f 127 206 128
f 127 205 206
f 128 207 208
f 128 208 209
f 128 209 129
f 128 206 210
f 128 210 207
f 129 209 130
f 130 209 131
f 131 211 132
f 131 209 212
f 131 212 211
f 132 213 133
f 132 211 213
f 133 214 134
f 133 213 214
f 134 215 216
f 134 216 135
f 134 214 215
f 135 216 217
f 135 217 218
f 135 218 139
f 136 139 218
f 136 218 137
f 137 218 219
f 137 219 138
f 138 219 220
f 138 220 140
f 140 221 222
f 140 222 141
f 140 220 223
f 140 223 224
f 140 224 225
f 140 225 221
f 141 222 226
f 141 226 227
f 141 227 228
f 141 228 143
f 143 228 229
f 143 229 144
f 144 229 145
f 145 229 148
f 146 148 230
f 146 230 231
f 146 231 232
f 146 232 233
f 146 233 147
f 147 233 149
f 148 229 234
f 148 234 235
f 148 235 230
f 149 233 150
f 150 233 236
f 150 236 237
f 150 237 238
f 150 238 239
f 150 239 240
f 150 240 151
f 151 240 152
f 152 240 153
f 153 240 241
f 153 241 157
f 157 241 242
f 157 242 158
f 158 243 159
f 158 242 243
f 159 243 244
f 159 244 245
f 159 245 160
f 160 245 246
f 160 246 162
f 160 162 161
f 162 246 247
f 162 247 248
f 162 248 164
f 162 164 163
f 164 248 249
f 164 249 250
f 164 250 165
f 165 250 251
f 165 251 252
f 165 252 253
f 165 253 166
f 166 253 254
f 166 254 255
f 166 255 167
f 174 186 175
f 174 176 256
f 174 256 186
f 177 257 258
f 177 258 259
f 177 259 178
f 177 192 260
f 177 260 261
f 177 261 257
f 178 259 262
f 178 262 179
f 179 263 264
f 179 264 180
f 179 262 352
f 179 352 263
f 180 264 265
f 180 265 181
f 181 265 266
f 181 266 182
f 182 266 183
f 183 266 267
f 183 267 268
f 183 268 269
f 183 269 184
f 184 269 270
f 184 270 271
f 184 271 185
f 185 271 272
f 185 272 273
f 185 273 195
f 185 195 193
f 186 256 274
f 186 274 187
f 187 274 275
f 187 275 276
f 187 276 277
f 187 277 188
f 188 277 189
f 189 277 278
f 189 278 279
f 189 279 190
f 190 279 280
f 190 280 281
f 190 281 191
f 191 281 192
f 192 281 261
f 192 261 260
f 193 195 194
f 195 273 282
f 195 282 283
f 195 283 196
f 196 283 282
f 196 282 284
f 196 284 197
f 197 284 198
f 198 284 285
f 198 285 286
f 198 286 287
f 198 287 200
f 198 200 199
f 200 287 288
f 200 288 289
f 200 289 201
f 201 289 202
f 202 289 290
f 202 290 291
f 202 291 292
f 202 292 203
f 203 292 204
f 204 292 293
f 204 293 294
f 204 294 205
f 205 294 206
f 206 295 210
f 206 294 295
f 207 212 209
f 207 209 208
f 207 210 295
f 207 295 212
f 211 296 213
f 211 212 296
f 212 295 297
f 212 297 298
f 212 298 296
f 213 296 299
f 213 299 214
f 214 299 300
f 214 300 215
f 215 300 301
f 215 301 216
f 216 301 302
f 216 302 303
f 216 303 217
f 217 303 218
f 218 303 304
f 218 304 219
f 219 304 305
f 219 305 220
f 220 305 224
f 220 224 223
f 221 306 307
f 221 307 308
f 221 308 222
f 221 225 306
f 222 308 226
f 224 305 309
f 224 309 310
f 224 310 311
f 224 311 225
f 225 311 306
f 226 308 307
f 226 307 227
f 227 307 312
f 227 312 228
f 228 312 313
f 228 313 229
f 229 313 234
f 230 235 314
f 230 314 231
f 231 314 315
f 231 315 316
f 231 316 317
f 231 317 318
f 231 318 232
f 232 318 233
f 233 318 319
f 233 319 236
f 234 313 312
f 234 312 235
f 235 320 321
f 235 321 322
f 235 322 314
f 235 312 320
f 236 319 323
f 236 323 237
f 237 324 238
f 237 323 324
f 238 324 325
f 238 325 239
f 239 325 240
f 240 325 326
f 240 326 327
f 240 327 241
f 241 327 328
f 241 328 329
f 241 329 330
f 241 330 331
f 241 331 242
f 242 331 332
f 242 332 333
f 242 333 243
f 243 333 334
f 243 334 335
f 243 335 244
f 244 335 336
f 244 336 337
f 244 337 245
f 245 337 338
f 245 338 246
f 246 338 339
f 246 339 340
f 246 340 247
f 247 341 342
f 247 342 248
f 247 340 341
f 248 342 343
f 248 343 249
f 249 343 342
f 249 342 344
f 257 261 345
f 257 345 346
f 257 346 258
f 258 346 347
f 258 347 348
f 258 348 259
f 259 348 349
f 259 349 262
f 261 281 350
f 261 350 345
f 262 349 351
f 262 351 352
f 263 352 353
f 263 353 354
f 263 354 355
f 263 355 264
f 264 355 356
f 264 356 265
f 265 356 357
f 265 357 358
f 265 358 266
f 266 358 357
f 266 357 359
f 266 359 267
f 267 359 360
f 267 360 268
f 268 360 361
f 268 361 269
f 269 361 362
f 269 362 363
f 269 363 270
f 270 363 364
f 270 364 365
f 270 365 366
f 270 366 367
f 270 367 368
f 270 368 369
f 270 369 272
f 270 272 271
f 272 369 370
f 272 370 371
f 272 371 273
f 273 371 372
f 273 372 282
f 274 373 276
f 274 276 275
f 276 374 375
f 276 375 278
f 276 278 277
f 276 373 374
f 278 375 279
f 279 375 376
f 279 376 280
f 280 376 377
f 280 377 350
f 280 350 281
f 282 372 284
f 284 378 379
f 284 379 285
f 284 372 378
f 285 379 380
f 285 380 381
f 285 381 286
f 286 381 288
f 286 288 287
f 288 382 290
f 288 290 289
f 288 381 382
f 290 382 383
f 290 383 291
f 291 383 384
f 291 384 292
f 292 384 385
f 292 385 293
f 293 385 386
f 293 386 295
f 293 295 294
f 295 386 387
f 295 387 388
f 295 388 297
f 296 298 389
f 296 389 390
f 296 390 391
f 296 391 299
f 297 388 387
f 297 387 392
f 297 392 298
f 298 392 389
f 299 391 393
f 299 393 394
f 299 394 300
f 300 394 395
f 300 395 396
f 300 396 302
f 300 302 301
f 302 396 397
f 302 397 398
f 302 398 399
f 302 399 400
f 302 400 304
f 302 304 303
f 304 400 305
f 305 400 401
f 305 401 309
f 306 311 307
f 307 402 320
f 307 320 312
f 307 311 402
f 309 401 403
f 309 403 311
f 309 311 310
f 311 403 404
f 311 404 405
f 311 405 402
f 314 322 315
f 315 406 316
f 315 322 407
f 315 407 406
f 316 408 409
f 316 409 317
f 316 406 410
f 316 410 408
f 317 409 319
f 317 319 318
f 319 409 323
f 320 402 321
f 321 402 405
f 321 405 322
f 322 405 411
f 322 411 407
f 323 412 324
f 323 409 413
f 323 413 412
f 324 414 326
f 324 326 325
f 324 412 414
f 326 415 327
f 326 414 416
f 326 416 415
f 327 415 417
f 327 417 328
f 328 417 418
f 328 418 419
f 328 419 329
f 329 419 420
f 329 420 421
f 329 421 422
f 329 422 330
f 330 422 423
f 330 423 331
f 331 423 424
f 331 424 332
f 332 424 425
f 332 425 333
f 333 426 334
f 333 425 426
f 334 426 335
f 335 427 336
f 335 426 428
f 335 428 427
f 336 427 429
f 336 429 526
f 336 526 430
f 336 430 337
f 337 431 432
f 337 432 338
f 337 430 431
f 338 432 339
f 339 432 433
f 339 433 434
f 339 434 435
f 339 435 436
f 339 436 340
f 340 436 341
f 341 436 437
f 341 437 342
f 342 437 344
f 345 350 346
f 346 350 438
f 346 438 439
f 346 439 440
f 346 440 347
f 347 440 348
f 348 441 351
f 348 351 349
f 348 440 442
f 348 442 536
f 348 536 539
f 348 539 627
f 348 627 698
f 348 698 748
f 348 748 774
f 348 774 776
f 348 776 795
f 348 795 801
f 348 801 806
f 348 806 820
f 348 820 821
f 348 821 809
f 348 809 804
f 348 804 797
f 348 797 785
f 348 785 765
f 348 765 736
f 348 736 735
f 348 735 684
f 348 684 683
f 348 683 682
f 348 682 610
f 348 610 609
f 348 609 608
f 348 608 516
f 348 516 515
f 348 515 603
f 348 603 605
f 348 605 607
f 348 607 599
f 348 599 681
f 348 681 734
f 348 734 762
f 348 762 761
f 348 761 760
f 348 760 784
f 348 784 796
f 348 796 782
f 348 782 780
f 348 780 779
f 348 779 778
f 348 778 752
f 348 752 704
f 348 704 703
f 348 703 702
f 348 702 630
f 348 630 629
f 348 629 544
f 348 544 454
f 348 454 364
f 348 364 453
f 348 453 361
f 348 361 452
f 348 452 451
f 348 451 357
f 348 357 450
f 348 450 449
f 348 449 448
f 348 448 355
f 348 355 447
f 348 447 543
f 348 543 542
f 348 542 540
f 348 540 441
f 350 377 443
f 350 443 444
f 350 444 438
f 351 441 353
f 351 353 352
f 353 441 445
f 353 445 354
f 354 446 447
f 354 447 355
f 354 445 446
f 355 448 356
f 356 448 449
f 356 449 450
f 356 450 357
f 357 451 360
f 357 360 359
f 360 452 361
f 360 451 452
f 361 453 362
f 362 453 364
f 362 364 363
f 364 454 455
f 364 455 365
f 365 455 366
f 366 455 456
f 366 456 367
f 367 456 457
f 367 457 458
f 367 458 368
f 368 458 459
f 368 459 460
f 368 460 369
f 369 460 370
f 370 460 461
f 370 461 462
f 370 462 463
f 370 463 464
f 370 464 372
f 370 372 371
f 372 464 465
f 372 465 378
f 373 466 467
f 373 467 374
f 374 467 375
f 375 467 376
f 376 467 468
f 376 468 377
f 377 468 469
f 377 469 443
f 378 470 379
f 378 465 470
f 379 470 471
f 379 471 380
f 380 471 472
f 380 472 381
f 381 472 382
f 382 472 383
f 383 473 474
f 383 474 384
f 383 472 473
f 384 474 475
f 384 475 476
f 384 476 477
f 384 477 385
f 385 477 392
f 385 392 387
f 385 387 386
f 389 478 390
f 389 392 477
f 389 477 476
f 389 476 479
f 389 479 478
f 390 478 391
f 391 478 393
f 393 480 394
f 393 478 481
f 393 481 480
f 394 480 482
f 394 482 395
f 395 482 483
f 395 483 484
f 395 484 396
f 396 484 485
f 396 485 486
f 396 486 397
f 397 486 487
f 397 487 488
f 397 488 398
f 398 488 399
f 399 401 400
f 399 488 489
f 399 489 490
f 399 490 401
f 401 490 403
f 403 491 492
f 403 492 404
f 403 490 491
f 404 492 411
f 404 411 405
f 406 407 493
f 406 493 494
f 406 494 410
f 407 411 495
f 407 495 493
f 408 410 496
f 408 496 497
f 408 497 413
f 408 413 409
f 410 494 496
f 411 492 498
f 411 498 499
f 411 499 495
f 412 413 500
f 412 500 501
f 412 501 414
f 413 497 500
f 414 501 416
f 415 416 502
f 415 502 417
f 416 501 500
f 416 500 503
f 416 503 502
f 417 502 504
f 417 504 418
f 418 504 505
f 418 505 506
f 418 506 420
f 418 420 419
f 420 507 421
f 420 506 508
f 420 508 509
f 420 509 510
f 420 510 511
f 420 511 512
f 420 512 507
f 421 513 422
f 421 507 514
f 421 514 515
f 421 515 513
f 422 513 516
f 422 516 517
f 422 517 518
f 422 518 519
f 422 519 423
f 423 425 424
f 423 519 520
f 423 520 521
f 423 521 425
f 425 521 426
f 426 521 520
f 426 520 522
f 426 522 428
f 427 523 429
f 427 428 524
f 427 524 523
f 428 522 524
f 429 525 526
f 429 523 525
f 430 526 527
f 430 527 431
f 431 527 528
f 431 528 433
f 431 433 432
f 433 528 434
f 434 529 530
f 434 530 531
f 434 531 435
f 434 528 529
f 435 531 532
f 435 532 436
f 436 532 437
f 437 532 533
f 438 444 534
f 438 534 535
f 438 535 439
f 439 535 440
f 440 536 442
f 440 535 537
f 440 537 538
f 440 538 539
f 440 539 536
f 441 540 445
f 443 469 541
f 443 541 444
f 444 541 534
f 445 540 446
f 446 540 542
f 446 542 543
f 446 543 447
f 454 544 455
f 455 544 545
f 455 545 456
f 456 545 546
f 456 546 547
f 456 547 457
f 457 547 458
f 458 547 548
f 458 548 549
f 458 549 550
f 458 550 459
f 459 550 551
f 459 551 461
f 459 461 460
f 461 551 552
f 461 552 553
f 461 553 462
f 462 553 554
f 462 554 463
f 463 554 464
f 464 554 555
f 464 555 470
f 464 470 465
f 466 556 557
f 466 557 558
f 466 558 467
f 467 558 557
f 467 557 468
f 468 557 559
f 468 559 469
f 469 559 560
f 469 560 541
f 470 555 471
f 471 561 562
f 471 562 472
f 471 555 561
f 472 562 473
f 473 563 564
f 473 564 565
f 473 565 566
f 473 566 567
f 473 567 474
f 473 562 563
f 474 567 568
f 474 568 569
f 474 569 570
f 474 570 571
f 474 571 475
f 475 571 478
f 475 478 476
f 476 478 479
f 478 571 570
f 478 570 569
f 478 569 481
f 480 481 569
f 480 569 568
f 480 568 482
f 482 568 572
f 482 572 573
f 482 573 483
f 483 573 574
f 483 574 575
f 483 575 484
f 484 575 576
f 484 576 577
f 484 577 578
f 484 578 485
f 485 578 579
f 485 579 486
f 486 579 580
f 486 580 487
f 487 580 581
f 487 581 488
f 488 581 489
f 489 581 498
f 489 498 492
f 489 492 491
f 489 491 490
f 493 495 582
f 493 582 583
f 493 583 494
f 494 583 584
f 494 584 585
f 494 585 586
f 494 586 496
f 495 499 582
f 496 587 588
f 496 588 497
f 496 586 587
f 497 588 500
f 498 581 582
f 498 582 499
f 500 588 589
f 500 589 503
f 502 590 504
f 502 503 591
f 502 591 590
f 503 589 591
f 504 590 592
f 504 592 593
f 504 593 505
f 505 594 506
f 505 593 595
f 505 595 596
f 505 596 597
f 505 597 598
f 505 598 599
f 505 599 594
f 506 594 600
f 506 600 601
f 506 601 602
f 506 602 508
f 507 603 514
f 507 512 604
f 507 604 605
f 507 605 603
f 508 602 606
f 508 606 509
f 509 606 511
f 509 511 510
f 511 606 607
f 511 607 512
f 512 607 604
f 513 515 516
f 514 603 515
f 516 608 517
f 517 608 609
f 517 609 610
f 517 610 611
f 517 611 518
f 518 611 519
f 519 611 612
f 519 612 613
f 519 613 522
f 519 522 520
f 522 613 614
f 522 614 525
f 522 525 523
f 522 523 524
f 525 615 526
f 525 614 615
f 526 615 527
f 527 616 617
f 527 617 528
f 527 615 616
f 528 617 529
f 529 618 619
f 529 619 620
f 529 620 530
f 529 617 618
f 530 620 621
f 530 621 622
f 530 622 531
f 531 622 623
f 531 623 624
f 531 624 533
f 531 533 532
f 534 541 625
f 534 625 535
f 535 625 626
f 535 626 537
f 537 626 538
f 538 627 539
f 538 626 628
f 538 628 627
f 541 560 625
f 544 629 545
f 545 629 630
f 545 630 631
f 545 631 632
f 545 632 633
f 545 633 546
f 546 633 547
f 547 633 634
f 547 634 548
f 548 634 552
f 548 552 549
f 549 552 550
f 550 552 551
f 552 634 635
f 552 635 636
f 552 636 637
f 552 637 553
f 553 637 638
f 553 638 554
f 554 638 561
f 554 561 555
f 556 639 557
f 557 639 640
f 557 640 641
f 557 641 559
f 559 641 560
f 560 641 642
f 560 642 625
f 561 638 562
f 562 643 644
f 562 644 563
f 562 638 637
f 562 637 643
f 563 644 645
f 563 645 646
f 563 646 565
f 563 565 564
f 565 647 648
f 565 648 649
f 565 649 650
f 565 650 651
f 565 651 566
f 565 646 647
f 566 651 567
f 567 651 568
f 568 651 572
f 572 651 650
f 572 650 652
f 572 652 573
f 573 652 650
f 573 650 653
f 573 653 574
f 574 653 575
f 575 654 655
f 575 655 656
f 575 656 576
f 575 653 654
f 576 656 657
f 576 657 577
f 577 657 578
f 578 657 658
f 578 658 659
f 578 659 579
f 579 659 660
f 579 660 580
f 580 660 581
f 581 660 582
f 582 660 583
f 583 660 584
f 584 660 659
f 584 659 661
f 584 661 585
f 585 661 662
f 585 662 586
f 586 662 663
f 586 663 664
f 586 664 665
f 586 665 587
f 587 665 666
f 587 666 667
f 587 667 668
f 587 668 669
f 587 669 670
f 587 670 588
f 588 670 671
f 588 671 589
f 589 671 670
f 589 670 669
f 589 669 672
f 589 672 591
f 590 591 673
f 590 673 674
f 590 674 675
f 590 675 592
f 591 672 673
f 592 675 676
f 592 676 677
f 592 677 678
f 592 678 593
f 593 678 679
f 593 679 596
f 593 596 595
f 594 599 600
f 596 679 680
f 596 680 681
f 596 681 597
f 597 681 598
f 598 681 599
f 599 607 602
f 599 602 601
f 599 601 600
f 602 607 606
f 604 607 605
f 610 682 611
f 611 613 612
f 611 682 683
f 611 683 613
f 613 683 684
f 613 684 685
f 613 685 614
f 614 685 686
f 614 686 687
f 614 687 688
f 614 688 689
f 614 689 617
f 614 617 616
f 614 616 615
f 617 689 688
f 617 688 690
f 617 690 618
f 618 690 691
f 618 691 619
f 619 691 692
f 619 692 620
f 620 692 621
f 621 692 693
f 621 693 694
f 621 694 695
f 621 695 696
f 621 696 622
f 622 696 623
f 625 642 626
f 626 642 628
f 627 628 697
f 627 697 698
f 628 642 699
f 628 699 700
f 628 700 701
f 628 701 697
f 630 702 631
f 631 702 703
f 631 703 632
f 632 703 633
f 633 703 704
f 633 704 634
f 634 704 635
f 635 704 705
f 635 705 706
f 635 706 707
f 635 707 643
f 635 643 636
f 636 643 637
f 639 708 641
f 639 641 640
f 641 708 709
f 641 709 710
f 641 710 642
f 642 710 699
f 643 707 711
f 643 711 712
f 643 712 644
f 644 712 713
f 644 713 714
f 644 714 645
f 645 714 646
f 646 714 715
f 646 715 647
f 647 715 716
f 647 716 717
f 647 717 648
f 648 653 650
f 648 650 649
f 648 717 718
f 648 718 653
f 653 718 719
f 653 719 654
f 654 719 720
f 654 720 655
f 655 720 656
f 656 720 721
f 656 721 722
f 656 722 657
f 657 722 661
f 657 661 658
f 658 661 659
f 661 722 662
f 662 722 663
f 663 722 721
f 663 721 720
f 663 720 723
f 663 723 664
f 664 724 667
f 664 667 666
f 664 666 665
f 664 723 725
f 664 725 724
f 667 724 726
f 667 726 668
f 668 726 727
f 668 727 669
f 669 728 674
f 669 674 673
f 669 673 672
f 669 727 729
f 669 729 763
f 669 763 728
f 674 728 675
f 675 728 730
f 675 730 731
f 675 731 732
f 675 732 733
f 675 733 676
f 676 733 677
f 677 733 680
f 677 680 678
f 678 680 679
f 680 733 734
f 680 734 681
f 684 735 685
f 685 735 736
f 685 736 737
f 685 737 686
f 686 737 687
f 687 737 738
f 687 738 690
f 687 690 688
f 690 739 691
f 690 738 740
f 690 740 739
f 691 739 741
f 691 741 742
f 691 742 692
f 692 742 743
f 692 743 744
f 692 744 745
f 692 745 693
f 693 745 746
f 693 746 695
f 693 695 694
f 697 747 748
f 697 748 749
f 697 749 698
f 697 701 747
f 698 749 748
f 701 750 751
f 701 751 747
f 704 752 753
f 704 753 705
f 705 753 706
f 706 754 755
f 706 755 707
f 706 753 754
f 707 755 712
f 707 712 711
f 712 755 756
f 712 756 713
f 713 756 757
f 713 757 758
f 713 758 716
f 713 716 714
f 714 716 715
f 716 758 717
f 717 724 725
f 717 725 759
f 717 759 718
f 717 758 724
f 718 759 719
f 719 759 723
f 719 723 720
f 723 759 725
f 724 760 726
f 724 758 757
f 724 757 760
f 726 760 761
f 726 761 762
f 726 762 729
f 726 729 727
f 728 763 764
f 728 764 734
f 728 734 730
f 729 762 763
f 730 734 731
f 731 734 732
f 732 734 733
f 734 764 762
f 736 765 766
f 736 766 740
f 736 740 767
f 736 767 737
f 737 767 738
f 738 767 740
f 739 740 741
f 740 766 768
f 740 768 741
f 741 768 742
f 742 768 743
f 743 768 769
f 743 769 745
f 743 745 744
f 745 769 770
f 745 770 771
f 745 771 772
f 745 772 746
f 747 751 748
f 748 751 773
f 748 773 774
f 750 775 776
f 750 776 777
f 750 777 774
f 750 774 773
f 750 773 751
f 752 778 753
f 753 778 779
f 753 779 754
f 754 779 780
f 754 780 755
f 755 780 756
f 756 781 783
f 756 783 757
f 756 780 782
f 756 782 781
f 757 783 760
f 760 783 784
f 762 764 763
f 765 785 786
f 765 786 787
f 765 787 788
f 765 788 789
f 765 789 766
f 766 790 768
f 766 789 791
f 766 791 790
f 768 790 791
f 768 791 769
f 769 791 770
f 770 791 792
f 774 777 776
f 775 793 776
f 776 793 794
f 776 794 795
f 781 796 783
f 781 782 796
f 783 796 784
f 785 797 798
f 785 798 799
f 785 799 786
f 786 799 787
f 787 799 788
f 788 799 792
f 788 792 789
f 789 792 791
f 794 800 795
f 795 800 802
f 795 802 803
f 795 803 801
f 797 804 805
f 797 805 798
f 801 803 807
f 801 807 808
f 801 808 806
f 804 809 810
f 804 810 811
f 804 811 812
f 804 812 813
f 804 813 814
f 804 814 815
f 804 815 805
f 806 808 816
f 806 816 817
f 806 817 818
f 806 818 819
f 806 819 820
f 809 821 810

