# https://github.com/mikedh/trimesh
v -0.01367549 -0.01878205 0.02897108
v -0.01364190 -0.01737693 0.02897108
v -0.01360591 -0.02019047 0.02897108
v -0.01280218 -0.02440584 0.03388887
v -0.01282377 -0.02393856 0.03388887
v -0.01284297 -0.02299742 0.03388887
v -0.01284297 -0.02253344 0.03388887
v -0.01283577 -0.02159559 0.03388887
v -0.01279978 -0.02019047 0.03388887
v -0.01268462 -0.01878205 0.03388887
v -0.01346436 -0.01596852 0.02897108
v -0.01312607 -0.02588665 0.02897108
v -0.01273020 -0.02534368 0.03388887
v -0.01247589 -0.01737693 0.03388887
v -0.01235593 -0.01690965 0.03388887
v -0.01208722 -0.01591257 0.03388887
v -0.01301811 -0.01458972 0.02897108
v -0.01294373 -0.02721608 0.02897108
v -0.01255746 -0.02675209 0.03388887
v -0.01268222 -0.02581096 0.03388887
v -0.01199845 -0.01564932 0.03388887
v -0.01184970 -0.01524127 0.03388887
v -0.01285496 -0.01419813 0.02897108
v -0.01273500 -0.02862450 0.02897108
v -0.01248069 -0.02721608 0.03388887
v -0.01179931 -0.01512610 0.03388887
v -0.01165536 -0.01481348 0.03388887
v -0.01155460 -0.01459630 0.03388887
v -0.01241831 -0.01340507 0.02897108
v -0.01268942 -0.02885156 0.02897108
v -0.01230075 -0.02815722 0.03388887
v -0.01080125 -0.01324054 0.03388887
v -0.01227675 -0.01315827 0.02897108
v -0.01219758 -0.02862450 0.03388887
v -0.01241351 -0.03003620 0.02897108
v -0.01034300 -0.01257582 0.03388887
v -0.01124030 -0.01165772 0.02897108
v -0.01193847 -0.02967423 0.03388887
v -0.01187129 -0.02990786 0.03388887
v -0.01202964 -0.03116162 0.02897108
v -0.01171774 -0.03037843 0.03388887
v -0.01019185 -0.01237179 0.03388887
v -0.00966643 -0.01171366 0.03388887
v -0.00908102 -0.01099300 0.03388887
v -0.00993754 -0.01013742 0.02897108
v -0.01180171 -0.03174078 0.02897108
v -0.01129069 -0.03143804 0.03388887
v -0.00963284 -0.00979190 0.02897108
v -0.00835647 -0.01041055 0.03388887
v -0.00824370 -0.00829134 0.02897108
v -0.01168175 -0.03199087 0.02897108
v -0.01070768 -0.03269179 0.03388887
v -0.01090441 -0.03227058 0.03388887
v -0.00747596 -0.00973266 0.03388887
v -0.00690495 -0.00727123 0.02897108
v -0.01124990 -0.03285961 0.02897108
v -0.01034780 -0.03339599 0.03388887
v -0.00680658 -0.00934107 0.03388887
v -0.00410269 -0.00534289 0.02897108
v -0.00551102 -0.00629719 0.02897108
v -0.01064290 -0.03386327 0.02897108
v -0.00973840 -0.03424828 0.03388887
v -0.00547743 -0.00869939 0.03388887
v -0.00269676 -0.00508950 0.02897108
v -0.00449855 -0.00832754 0.03388887
v -0.00382438 -0.00813010 0.03388887
v -0.01019905 -0.03445889 0.02897108
v -0.00911701 -0.03506108 0.03388887
v -0.00129083 -0.00526391 0.02897108
v -0.00269676 -0.00796886 0.03388887
v -0.00129083 -0.00792937 0.03388887
v 0.00010071 -0.00803138 0.03388887
v -0.00943850 -0.03533421 0.02897108
v -0.00889389 -0.03529472 0.03388887
v -0.00055427 -0.00538238 0.02897108
v 0.00100281 -0.00818604 0.03388887
v -0.00862038 -0.03605158 0.02897108
v -0.00770868 -0.03643330 0.03388887
v -0.00841165 -0.03576529 0.03388887
v 0.00015349 -0.00558640 0.02897108
v 0.00103880 -0.00819262 0.03388887
v 0.00171297 -0.00835387 0.03388887
v -0.00791741 -0.03656821 0.02897108
v -0.00743277 -0.03661099 0.03388887
v 0.00214962 -0.00658677 0.02897108
v 0.00249031 -0.00859409 0.03388887
v 0.00289578 -0.00873559 0.03388887
v 0.00372590 -0.00909756 0.03388887
v 0.00425612 -0.00933449 0.03388887
v -0.00711848 -0.03704208 0.02897108
v -0.00691455 -0.03693677 0.03388887
v 0.00304213 -0.00713960 0.02897108
v 0.00466159 -0.00954509 0.03388887
v 0.00494469 -0.00969318 0.03388887
v -0.00690255 -0.03716054 0.02897108
v -0.00605803 -0.03759820 0.02897108
v -0.00551341 -0.03760149 0.03388887
v 0.00477435 -0.00853156 0.02897108
v 0.00530697 -0.00994985 0.03388887
v 0.00579161 -0.01030853 0.03388887
v 0.00638181 -0.01076265 0.03388887
v 0.00657615 -0.01091731 0.03388887
v -0.00525910 -0.03793714 0.02897108
v -0.00501678 -0.03784500 0.03315813
v -0.00423224 -0.03803915 0.03388887
v 0.00550610 -0.00916666 0.02897108
v 0.00726711 -0.01164455 0.03388887
v 0.00740387 -0.01106210 0.02897108
v 0.00622826 -0.00986100 0.02897108
v 0.00568124 -0.00932791 0.02897108
v -0.00433541 -0.03823330 0.02897108
v -0.00410269 -0.03830241 0.02897108
v -0.00382198 -0.03814775 0.03388887
v 0.00786452 -0.01228295 0.03388887
v 0.00793169 -0.01235534 0.03388887
v 0.00784772 -0.01156887 0.02897108
v -0.00292948 -0.03851630 0.02897108
v -0.00269676 -0.03843404 0.03388887
v 0.00841153 -0.01307929 0.03388887
v 0.00903053 -0.01302664 0.02897108
v 0.00866825 -0.01255936 0.02897108
v -0.00269676 -0.03855579 0.02897108
v -0.00129083 -0.03856895 0.03388887
v 0.00908331 -0.01421129 0.03388887
v 0.00975269 -0.01423103 0.02897108
v -0.00152115 -0.03863148 0.02897108
v -0.00129083 -0.03864464 0.02897108
v -0.00011762 -0.03869729 0.02897108
v 0.00011510 -0.03870716 0.02897108
v 0.00011510 -0.03854592 0.03388887
v 0.00942159 -0.01491220 0.03388887
v 0.00988224 -0.01456997 0.02897108
v 0.00152103 -0.03854592 0.02897108
v 0.00058055 -0.03848010 0.03388887
v 0.00956555 -0.01531038 0.03388887
v 0.01036208 -0.01606724 0.02897108
v 0.00980067 -0.01596852 0.03388887
v 0.00152103 -0.03834190 0.03388887
v 0.00303253 -0.03807535 0.02897108
v 0.00371630 -0.03780551 0.03286641
v 0.01019894 -0.01737693 0.03388887
v 0.01030210 -0.01785408 0.03388887
v 0.01048444 -0.01875902 0.03388887
v 0.01050363 -0.01705773 0.02897108
v 0.00196489 -0.03822343 0.03388887
v 0.00372830 -0.03783513 0.02897108
v 0.00376668 -0.03781868 0.02897108
v 0.00434729 -0.03751593 0.02897108
v 0.00543413 -0.03687425 0.02897108
v 0.00563806 -0.03675250 0.02897108
v 0.00553729 -0.03668668 0.03388887
v 0.00471917 -0.03715067 0.03388887
v 0.00424173 -0.03740734 0.03388887
v 0.00292696 -0.03795359 0.03388887
v 0.01055881 -0.01928882 0.03388887
v 0.01059240 -0.01805481 0.02897108
v 0.01062119 -0.01984494 0.03388887
v 0.00631703 -0.03625560 0.02897108
v 0.00624026 -0.03621611 0.03388887
v 0.01064039 -0.01878205 0.02897108
v 0.01067638 -0.02051954 0.03388887
v 0.01076275 -0.02159559 0.03388887
v 0.00708717 -0.03556785 0.02897108
v 0.00649937 -0.03598247 0.03388887
v 0.01066678 -0.01927236 0.02897108
v 0.01083472 -0.02294148 0.03388887
v 0.00779014 -0.03488339 0.02897108
v 0.00701760 -0.03551191 0.03388887
v 0.01071236 -0.02019047 0.02897108
v 0.01083232 -0.02440584 0.03388887
v 0.01080353 -0.02429066 0.02897108
v 0.01072436 -0.02053599 0.02897108
v 0.00772056 -0.03479125 0.03388887
v 0.00832516 -0.03417589 0.02897108
v 0.01077474 -0.02586361 0.03388887
v 0.01073396 -0.02581096 0.02897108
v 0.00823399 -0.03408704 0.03388887
v 0.00900653 -0.03309654 0.02897108
v 0.01071716 -0.02683437 0.03388887
v 0.01064759 -0.02721608 0.02897108
v 0.00897294 -0.03284316 0.03388887
v 0.00939041 -0.03241537 0.02897108
v 0.01061640 -0.02742998 0.03388887
v 0.01050843 -0.02854552 0.02897108
v 0.01053002 -0.02838757 0.02897108
v 0.00929684 -0.03224426 0.03388887
v 0.00948637 -0.03218831 0.02897108
v 0.01037648 -0.02862450 0.03388887
v 0.01019174 -0.03004608 0.02897108
v 0.00977428 -0.03143804 0.02897108
v 0.00956795 -0.03151372 0.03388887
v 0.01026851 -0.02909178 0.03388887
v 0.01003579 -0.03002962 0.03388887
v 0.00988944 -0.03049690 0.03388887
f 1 2 11
f 1 11 17
f 1 17 23
f 1 23 29
f 1 29 33
f 1 33 37
f 1 37 45
f 1 45 48
f 1 48 50
f 1 50 55
f 1 55 60
f 1 60 59
f 1 59 64
f 1 64 69
f 1 69 75
f 1 75 80
f 1 80 85
f 1 85 92
f 1 92 98
f 1 98 106
f 1 106 110
f 1 110 109
f 1 109 108
f 1 108 116
f 1 116 121
f 1 121 120
f 1 120 125
f 1 125 132
f 1 132 136
f 1 136 144
f 1 144 156
f 1 156 160
f 1 160 165
f 1 165 169
f 1 169 172
f 1 172 171
f 1 171 176
f 1 176 180
f 1 180 185
f 1 185 184
f 1 184 189
f 1 189 190
f 1 190 187
f 1 187 182
f 1 182 178
f 1 178 174
f 1 174 167
f 1 167 163
f 1 163 158
f 1 158 150
f 1 150 149
f 1 149 148
f 1 148 147
f 1 147 146
f 1 146 139
f 1 139 133
f 1 133 129
f 1 129 128
f 1 128 127
f 1 127 126
f 1 126 122
f 1 122 117
f 1 117 112
f 1 112 111
f 1 111 103
f 1 103 96
f 1 96 95
f 1 95 90
f 1 90 83
f 1 83 77
f 1 77 73
f 1 73 67
f 1 67 61
f 1 61 56
f 1 56 51
f 1 51 46
f 1 46 40
f 1 40 35
f 1 35 30
f 1 30 24
f 1 24 18
f 1 18 12
f 1 12 3
f 1 3 4
f 1 4 5
f 1 5 6
f 1 6 7
f 1 7 8
f 1 8 2
f 2 8 9
f 2 9 10
f 2 10 11
f 3 12 13
f 3 13 4
f 4 13 20
f 4 20 19
f 4 19 25
f 4 25 31
f 4 31 34
f 4 34 38
f 4 38 39
f 4 39 41
f 4 41 47
f 4 47 53
f 4 53 52
f 4 52 57
f 4 57 62
f 4 62 68
f 4 68 74
f 4 74 79
f 4 79 78
f 4 78 84
f 4 84 91
f 4 91 97
f 4 97 105
f 4 105 113
f 4 113 118
f 4 118 123
f 4 123 130
f 4 130 134
f 4 134 138
f 4 138 145
f 4 145 154
f 4 154 153
f 4 153 152
f 4 152 151
f 4 151 159
f 4 159 164
f 4 164 168
f 4 168 173
f 4 173 177
f 4 177 181
f 4 181 186
f 4 186 191
f 4 191 194
f 4 194 193
f 4 193 192
f 4 192 188
f 4 188 183
f 4 183 179
f 4 179 175
f 4 175 170
f 4 170 166
f 4 166 162
f 4 162 161
f 4 161 157
f 4 157 155
f 4 155 143
f 4 143 142
f 4 142 141
f 4 141 137
f 4 137 135
f 4 135 131
f 4 131 124
f 4 124 119
f 4 119 115
f 4 115 114
f 4 114 107
f 4 107 102
f 4 102 101
f 4 101 100
f 4 100 99
f 4 99 94
f 4 94 93
f 4 93 89
f 4 89 88
f 4 88 87
f 4 87 86
f 4 86 82
f 4 82 81
f 4 81 76
f 4 76 72
f 4 72 71
f 4 71 70
f 4 70 66
f 4 66 65
f 4 65 63
f 4 63 58
f 4 58 54
f 4 54 49
f 4 49 44
f 4 44 43
f 4 43 42
f 4 42 36
f 4 36 32
f 4 32 28
f 4 28 27
f 4 27 26
f 4 26 22
f 4 22 21
f 4 21 16
f 4 16 15
f 4 15 14
f 4 14 10
f 4 10 9
f 4 9 8
f 4 8 7
f 4 7 6
f 4 6 5
f 10 14 11
f 11 14 15
f 11 15 16
f 11 16 17
f 12 18 19
f 12 19 20
f 12 20 13
f 16 21 17
f 17 21 22
f 17 22 23
f 18 24 19
f 19 24 25
f 22 26 23
f 23 26 27
f 23 27 28
f 23 28 29
f 24 30 31
f 24 31 25
f 28 32 29
f 29 32 33
f 30 34 31
f 30 35 34
f 32 36 33
f 33 36 37
f 34 35 38
f 35 39 38
f 35 40 41
f 35 41 39
f 36 42 37
f 37 43 44
f 37 44 45
f 37 42 43
f 40 46 41
f 41 46 47
f 44 48 45
f 44 49 50
f 44 50 48
f 46 51 52
f 46 52 53
f 46 53 47
f 49 54 50
f 50 54 55
f 51 56 52
f 52 56 57
f 54 58 59
f 54 59 60
f 54 60 55
f 56 61 57
f 57 61 62
f 58 63 59
f 59 63 65
f 59 65 66
f 59 66 64
f 61 67 62
f 62 67 68
f 64 66 70
f 64 70 71
f 64 71 72
f 64 72 69
f 67 73 68
f 68 73 74
f 69 72 75
f 72 76 75
f 73 77 78
f 73 78 79
f 73 79 74
f 75 76 81
f 75 81 82
f 75 82 80
f 77 83 78
f 78 83 84
f 80 82 86
f 80 86 87
f 80 87 88
f 80 88 89
f 80 89 85
f 83 90 91
f 83 91 84
f 85 89 93
f 85 93 94
f 85 94 92
f 90 95 91
f 91 95 96
f 91 96 97
f 92 94 99
f 92 99 100
f 92 100 101
f 92 101 102
f 92 102 98
f 96 103 97
f 97 103 104
f 97 104 105
f 98 102 106
f 102 107 108
f 102 108 109
f 102 109 110
f 102 110 106
f 103 111 104
f 104 111 112
f 104 112 105
f 105 112 113
f 107 114 108
f 108 114 115
f 108 115 116
f 112 117 118
f 112 118 113
f 115 119 120
f 115 120 121
f 115 121 116
f 117 122 118
f 118 122 123
f 119 124 125
f 119 125 120
f 122 126 123
f 123 126 127
f 123 127 128
f 123 128 129
f 123 129 130
f 124 131 125
f 125 131 132
f 129 133 130
f 130 133 134
f 131 135 132
f 132 135 137
f 132 137 136
f 133 138 134
f 133 139 140
f 133 140 138
f 136 141 142
f 136 142 143
f 136 143 144
f 136 137 141
f 138 140 145
f 139 146 140
f 140 146 147
f 140 147 148
f 140 148 149
f 140 149 150
f 140 150 151
f 140 151 152
f 140 152 153
f 140 153 154
f 140 154 145
f 143 155 144
f 144 155 157
f 144 157 156
f 150 158 159
f 150 159 151
f 156 157 161
f 156 161 162
f 156 162 160
f 158 163 159
f 159 163 164
f 160 162 165
f 162 166 165
f 163 167 168
f 163 168 164
f 165 166 169
f 166 170 171
f 166 171 172
f 166 172 169
f 167 173 168
f 167 174 173
f 170 175 171
f 171 175 176
f 173 174 177
f 174 178 177
f 175 179 176
f 176 179 180
f 177 178 181
f 178 182 181
f 179 183 184
f 179 184 185
f 179 185 180
f 181 182 186
f 182 187 186
f 183 188 184
f 184 188 189
f 186 187 190
f 186 190 191
f 188 192 189
f 189 192 193
f 189 193 190
f 190 193 194
f 190 194 191

