# https://github.com/mikedh/trimesh
v -0.00189859 0.07708873 -0.00405437
v -0.00189859 0.07522294 -0.00398928
v -0.01313787 0.07708873 -0.00360880
v -0.01313787 0.07896413 -0.00355874
v -0.00189859 0.07896413 -0.00398928
v 0.03371303 0.07708873 -0.00314821
v 0.03371303 0.07522294 -0.00309815
v -0.00189859 0.07334754 -0.00379904
v -0.01313787 0.07334754 -0.00335347
v -0.01313787 0.07522294 -0.00353370
v 0.03315430 0.07186646 -0.00279276
v -0.01313787 0.08083953 -0.00332844
v -0.00189859 0.08083953 -0.00381406
v 0.03343072 0.08083953 -0.00290290
v 0.03388358 0.07909877 -0.00297799
v 0.03478931 0.07856020 -0.00273268
v 0.03488341 0.07708873 -0.00277774
v 0.03483048 0.07522294 -0.00275271
v 0.03471286 0.07412655 -0.00269764
v 0.03375420 0.07343891 -0.00289288
v -0.00189859 0.07147214 -0.00347863
v -0.01313787 0.07146253 -0.00298801
v 0.03440115 0.07287629 -0.00258249
v 0.03558918 0.07147214 -0.00185656
v 0.03685955 0.06959674 -0.00094039
v 0.03652432 0.06865904 -0.00079521
v 0.03371303 0.06959674 -0.00190162
v 0.03183687 0.06772134 -0.00163127
v 0.03183687 0.06959674 -0.00226709
v -0.01313787 0.08270050 -0.00299802
v -0.00189859 0.08271493 -0.00349365
v 0.03305431 0.08219078 -0.00277774
v 0.03558918 0.08083953 -0.00213692
v 0.03461876 0.07981046 -0.00265758
v 0.03745945 0.07896413 -0.00168134
v 0.03745945 0.07708873 -0.00176645
v 0.03745945 0.07522294 -0.00170637
v 0.03745945 0.07334754 -0.00151112
v 0.03543626 0.07343891 -0.00230213
v -0.00189859 0.06959674 -0.00299802
v -0.01313787 0.07036133 -0.00271265
v 0.03754179 0.07149138 -0.00114565
v 0.03822403 0.07088067 -0.00071010
v 0.03780057 0.06959674 -0.00050984
v 0.03727125 0.06790888 -0.00011934
v 0.03745945 0.06637971 0.00076179
v 0.03558918 0.06747610 -0.00051485
v 0.03303667 0.06665862 -0.00088031
v 0.03368362 0.06771172 -0.00115567
v 0.03183687 0.06637490 -0.00103551
v 0.02996072 0.06521119 -0.00064501
v 0.02996072 0.06614889 -0.00105554
v -0.00092229 0.06862058 -0.00268763
v -0.01313787 0.08386902 -0.00275271
v -0.00305722 0.08561458 -0.00270264
v -0.00178685 0.08476344 -0.00293794
v 0.03183687 0.08459033 -0.00220200
v 0.03183687 0.08310444 -0.00258750
v 0.03371303 0.08459033 -0.00171638
v 0.03624201 0.08536453 -0.00073513
v 0.03687720 0.08411427 -0.00095541
v 0.03748886 0.08260913 -0.00109559
v 0.03745945 0.08083953 -0.00145104
v 0.03882980 0.07896413 -0.00106555
v 0.03892979 0.07708873 -0.00112062
v 0.03888274 0.07522294 -0.00108057
v 0.03868866 0.07334754 -0.00096542
v 0.03850633 0.07213094 -0.00086029
v -0.00189859 0.06859653 -0.00269764
v -0.00295136 0.06861577 -0.00268763
v -0.01313787 0.06943325 -0.00246734
v 0.03921209 0.07149138 -0.00020946
v 0.03941206 0.06964964 0.00050646
v 0.03879452 0.06772134 0.00078681
v 0.03848281 0.06671151 0.00101711
v 0.03504809 0.06457163 0.00086692
v 0.03564211 0.06575457 0.00042635
v 0.03371303 0.06425907 0.00069169
v 0.03183687 0.06543720 -0.00044476
v 0.03371303 0.06332617 0.00128245
v 0.02437343 0.05220361 0.00685457
v 0.02246199 0.05220361 0.00670938
v 0.02059172 0.05220361 0.00664930
v -0.00565090 0.06479764 -0.00089534
v -0.00377475 0.06584594 -0.00143102
v -0.00189859 0.06765883 -0.00229212
v -0.01313787 0.08646573 -0.00196670
v -0.00371593 0.08632628 -0.00235219
v -0.00233969 0.08561458 -0.00270264
v -0.01313787 0.08811031 -0.00128583
v 0.02809045 0.08790354 -0.00108558
v 0.02996072 0.08778332 -0.00105554
v 0.03187216 0.08656190 -0.00131587
v 0.03885334 0.08585983 0.00076679
v 0.03748886 0.08468169 -0.00048981
v 0.03371303 0.08834113 0.00011596
v 0.03477167 0.08939905 0.00099208
v 0.03812992 0.08316214 -0.00066504
v 0.03845340 0.08191187 -0.00083025
v 0.03861220 0.08083953 -0.00093038
v 0.03976494 0.07896413 -0.00042974
v 0.03986493 0.07708873 -0.00050984
v 0.03981787 0.07522294 -0.00048981
v 0.03962379 0.07334754 -0.00035965
v -0.00565090 0.06584594 -0.00140098
v -0.01197336 0.06492747 -0.00078519
v -0.01313787 0.06590364 -0.00116067
v -0.01313787 0.06772134 -0.00189661
v 0.04056481 0.07147214 0.00080684
v 0.04036484 0.07030844 0.00099708
v 0.04008841 0.06905817 0.00123739
v 0.03972966 0.06772134 0.00156781
v 0.03669487 0.05915221 0.00653916
v 0.03427176 0.06128247 0.00306473
v 0.04040013 0.06664419 0.00281941
v 0.02621429 0.05220361 0.00727010
v 0.02491451 0.05220361 0.00697472
v 0.01980362 0.05220361 0.00664930
v -0.01313787 0.05220361 0.00728011
v -0.00752705 0.06482650 -0.00087030
v 0.01871557 0.05220361 0.00665431
v 0.01684529 0.05220361 0.00666432
v 0.00946419 0.05220361 0.00676946
v 0.00744688 0.05220361 0.00681452
v -0.00939732 0.08815840 -0.00133590
v -0.00565090 0.08817283 -0.00138596
v -0.01313787 0.08905282 -0.00056992
v -0.01127348 0.08814397 -0.00130586
v 0.02621429 0.08885085 -0.00050984
v 0.02809045 0.08884123 -0.00045477
v 0.03183687 0.09084647 0.00128745
v 0.03371303 0.08963948 0.00085190
v 0.03127226 0.08758616 -0.00093539
v 0.03658313 0.09307772 0.00477191
v 0.04068244 0.08597524 0.00247397
v 0.04010606 0.08504235 0.00122738
v 0.03942383 0.08448453 0.00057655
v 0.03503045 0.09147642 0.00267423
v 0.03371303 0.09057719 0.00148270
v 0.03918269 0.08260913 -0.00011934
v 0.03955322 0.08083953 -0.00027955
v 0.04072949 0.08083953 0.00066166
v 0.04090005 0.07896413 0.00050646
v 0.04096474 0.07708873 0.00042635
v 0.04094121 0.07522294 0.00044638
v 0.04081771 0.07334754 0.00057655
v -0.00939732 0.06486496 -0.00083526
v -0.01072651 0.06489382 -0.00081022
v -0.01313787 0.06498037 -0.00075515
v 0.04175284 0.07334754 0.00153777
v 0.04149995 0.07147214 0.00180812
v 0.04217630 0.07044788 0.00291453
v 0.04115882 0.06975062 0.00207846
v 0.04195869 0.06919762 0.00318989
v 0.04069420 0.06772134 0.00250401
v 0.03854750 0.05910893 0.00839153
v 0.02999013 0.05220361 0.00946790
v 0.02926672 0.05220361 0.00890719
v 0.02847273 0.05220361 0.00829641
v 0.02821396 0.05220361 0.00810616
v 0.02675538 0.05220361 0.00749539
v 0.04218806 0.06672594 0.00477691
v 0.04037072 0.05919548 0.01036405
v -0.01313787 0.05220361 0.02239442
v -0.00752705 0.08817283 -0.00135592
v -0.00752705 0.08911052 -0.00059995
v 0.02621429 0.09313542 0.00284444
v 0.02621429 0.09208712 0.00200337
v 0.02621429 0.09008189 0.00042635
v -0.01313787 0.09376536 0.00407101
v 0.01395755 0.09304887 0.00292955
v 0.03183687 0.09198133 0.00222866
v 0.03371303 0.09176013 0.00242391
v 0.02740233 0.09309695 0.00287949
v 0.03641257 0.09486175 0.00675945
v 0.03845340 0.09494350 0.00851168
v 0.03846516 0.09313062 0.00661426
v 0.03558918 0.09328930 0.00454161
v 0.04189400 0.08722551 0.00498718
v 0.04237626 0.08598005 0.00449155
v 0.04198810 0.08459033 0.00316986
v 0.04214689 0.08365263 0.00295458
v 0.04156464 0.08290247 0.00208347
v 0.04031191 0.08379208 0.00104214
v 0.03371303 0.09269783 0.00327499
v 0.04048247 0.08271493 0.00088694
v 0.04166462 0.08083953 0.00160786
v 0.04183518 0.07896413 0.00143765
v 0.04189987 0.07708873 0.00136756
v 0.04187635 0.07522294 0.00139759
v 0.04249389 0.07334754 0.00247898
v 0.04230569 0.07147214 0.00274432
v 0.04305262 0.07147214 0.00389078
v 0.04258799 0.06973139 0.00384572
v 0.04237626 0.06772134 0.00449655
v 0.04163522 0.06772134 0.00356036
v 0.03923562 0.05876270 0.00964813
v 0.03835342 0.05743549 0.01049922
v 0.03164867 0.05220361 0.01138035
v 0.04312320 0.06772134 0.00576317
v 0.04408186 0.06663457 0.00844159
v 0.04337609 0.06594693 0.00774570
v 0.04242920 0.06599982 0.00592338
v 0.04218218 0.06487939 0.00664930
v 0.04068832 0.05889254 0.01139036
v 0.03936501 0.05786347 0.01123015
v 0.04214689 0.06116225 0.01045416
v 0.04172932 0.06016204 0.01120512
v -0.01179103 0.05220361 0.03717830
v -0.01313787 0.05220842 0.03728344
v 0.02487923 0.09490984 0.00481696
v 0.02588494 0.09490984 0.00481696
v 0.02639073 0.09423662 0.00407101
v 0.02713767 0.09490022 0.00482698
v -0.01313787 0.09470307 0.00503224
v 0.01496914 0.09487137 0.00486703
v 0.03183687 0.09291903 0.00305471
v 0.03183687 0.09378460 0.00399091
v 0.03570680 0.09433760 0.00581824
v 0.03515984 0.09506372 0.00647909
v 0.03570680 0.09556864 0.00748537
v 0.03558918 0.09654481 0.00899730
v 0.03670076 0.09685737 0.01028895
v 0.03745945 0.09521279 0.00810116
v 0.03738299 0.09614087 0.00960308
v 0.03795348 0.09655442 0.01093978
v 0.03888274 0.09523202 0.00951296
v 0.04023545 0.09486656 0.01050924
v 0.04208220 0.09294307 0.01057932
v 0.03371303 0.09358744 0.00421119
v 0.03371303 0.09452514 0.00529257
v 0.04249978 0.09169280 0.01003363
v 0.04280560 0.08654748 0.00567306
v 0.04397011 0.08532607 0.00682453
v 0.04362899 0.08465765 0.00581824
v 0.04263505 0.08459033 0.00410606
v 0.04230569 0.08240236 0.00274932
v 0.04282325 0.08290247 0.00370554
v 0.04245861 0.08083953 0.00254907
v 0.04257035 0.07896413 0.00237384
v 0.04261740 0.07708873 0.00230375
v 0.04259976 0.07522294 0.00233379
v 0.04351137 0.07347257 0.00406600
v 0.04395835 0.07293399 0.00495714
v 0.04383484 0.07147214 0.00519745
v 0.04368193 0.06946690 0.00579321
v 0.03876511 0.05717101 0.01175082
v 0.03197215 0.05220361 0.01202117
v 0.04001196 0.05760861 0.01286224
v 0.04399952 0.06876003 0.00675945
v 0.04382896 0.06772134 0.00711490
v 0.04424066 0.06772134 0.00805109
v 0.04475233 0.06772134 0.00951296
v 0.04424654 0.06594693 0.00962811
v 0.04407010 0.06479283 0.01032400
v 0.04376426 0.06538911 0.00907741
v 0.04198221 0.05949843 0.01281718
v 0.04114706 0.05842128 0.01346301
v 0.04291147 0.06191241 0.01120512
v 0.04242920 0.06074870 0.01170576
v -0.00002832 0.05220361 0.03676277
v -0.00377475 0.06644703 0.04443257
v -0.00565090 0.06639414 0.04446761
v -0.01313787 0.06625468 0.04457775
v 0.00011283 0.05220361 0.03675776
v 0.02059172 0.05220361 0.03600180
v 0.02429109 0.09545803 0.00558294
v 0.02639073 0.09546284 0.00557794
v -0.01313787 0.09641497 0.00717498
v 0.02621429 0.09653038 0.00709487
v 0.03183687 0.09541476 0.00598846
v 0.03183687 0.09472230 0.00504726
v -0.01313787 0.09547727 0.00596843
v 0.03371303 0.09524645 0.00622877
v 0.03373067 0.09626590 0.00776072
v 0.03436586 0.09671792 0.00867689
v 0.03558918 0.09704010 0.00993851
v 0.03738299 0.09706895 0.01149549
v 0.03558918 0.09770371 0.01139036
v 0.03850045 0.09683333 0.01218638
v 0.03936501 0.09585716 0.01135031
v 0.03977083 0.09642939 0.01326275
v 0.04056481 0.09516470 0.01176083
v 0.04132350 0.09408274 0.01117008
v 0.04235862 0.09329411 0.01183092
v 0.04282913 0.09222657 0.01128022
v 0.04378191 0.09061085 0.01139036
v 0.04402893 0.08929325 0.01043914
v 0.04402305 0.08739862 0.00857677
v 0.04378780 0.08664846 0.00752542
v 0.04422889 0.08614835 0.00807112
v 0.04441709 0.08465765 0.00752542
v 0.04412891 0.08407580 0.00648409
v 0.04381132 0.08271493 0.00524751
v 0.04347608 0.08068084 0.00407101
v 0.04394659 0.08120018 0.00498718
v 0.04350549 0.07896413 0.00382570
v 0.04355254 0.07708873 0.00377563
v 0.04353489 0.07522294 0.00381568
v 0.04403481 0.07418426 0.00480695
v 0.04432299 0.07347257 0.00565804
v 0.04428182 0.07147214 0.00613365
v 0.04414655 0.07000548 0.00643904
v 0.03348953 0.05220361 0.01512012
v 0.04031191 0.05738260 0.01411384
v 0.04442886 0.06946690 0.00748537
v 0.04506993 0.06959674 0.00951296
v 0.04529342 0.06772134 0.01139036
v 0.04476998 0.06584594 0.01139036
v 0.04423477 0.06437929 0.01139036
v 0.04400541 0.06307131 0.01238663
v 0.04382896 0.06344158 0.01139036
v 0.04218806 0.05923395 0.01406378
v 0.04262328 0.06016204 0.01336789
v 0.04144113 0.05810871 0.01514015
v 0.04371133 0.06210476 0.01311256
v -0.00189859 0.06772134 0.04490818
v -0.00377475 0.06772134 0.04499829
v -0.00565090 0.06772134 0.04506337
v 0.02194443 0.05220361 0.03592670
v 0.02246199 0.05220361 0.03589666
v -0.00752705 0.06772134 0.04511844
v -0.00939732 0.06772134 0.04516851
v -0.01313787 0.06772134 0.04526363
v 0.02433814 0.09653038 0.00708987
v -0.01313787 0.09708819 0.00811117
v 0.02433814 0.09709781 0.00802606
v 0.02621429 0.09709299 0.00803107
v 0.03183687 0.09692469 0.00832144
v 0.03183687 0.09635245 0.00738524
v 0.03311901 0.09683814 0.00847163
v 0.03373067 0.09720841 0.00938780
v 0.03359540 0.09824228 0.01154556
v 0.03564800 0.09839616 0.01323271
v 0.03745945 0.09771813 0.01326275
v 0.03414237 0.09855966 0.01258689
v 0.03882980 0.09703048 0.01326275
v 0.04012371 0.09667464 0.01451435
v 0.04091769 0.09549169 0.01326275
v 0.04185283 0.09458285 0.01326275
v 0.04208808 0.09483290 0.01436916
v 0.04262917 0.09364515 0.01326275
v 0.04362899 0.09205346 0.01318265
v 0.04397600 0.09103401 0.01250178
v 0.04418184 0.08967314 0.01139036
v 0.04468176 0.08834113 0.01139036
v 0.04421125 0.08834113 0.00997355
v 0.04454649 0.08664846 0.00932773
v 0.04513462 0.08459033 0.00951296
v 0.04478174 0.08271493 0.00764057
v 0.04425830 0.08271493 0.00618872
v 0.04402893 0.07994992 0.00481696
v 0.04431123 0.08068084 0.00567306
v 0.04405834 0.07896413 0.00476189
v 0.04408186 0.07708873 0.00471183
v 0.04406421 0.07522294 0.00475188
v 0.04449356 0.07522294 0.00576317
v 0.04494053 0.07334754 0.00764057
v 0.04476998 0.07147214 0.00764057
v 0.03363657 0.05220361 0.01567583
v 0.04050599 0.05722391 0.01514015
v 0.04082359 0.05696424 0.01701254
v 0.03950616 0.05602654 0.01701254
v 0.04523461 0.07147214 0.00951296
v 0.04552867 0.06959674 0.01139036
v 0.04596389 0.06829358 0.01386352
v 0.04572276 0.06769249 0.01324773
v 0.04584626 0.06704331 0.01448431
v 0.04524637 0.06584594 0.01326275
v 0.04447591 0.06380705 0.01311256
v 0.04415832 0.06273470 0.01363322
v 0.04234098 0.05904641 0.01514015
v 0.04175873 0.05780576 0.01701254
v 0.04314672 0.06022455 0.01514015
v 0.04389366 0.06142673 0.01514015
v -0.00002832 0.06959674 0.04545387
v -0.00189859 0.06959674 0.04559906
v 0.03311313 0.06841380 0.04242500
v 0.02382058 0.05220361 0.03574647
v -0.01313787 0.07033729 0.04612974
v -0.01313787 0.09793934 0.00950295
v 0.02433814 0.09788163 0.00951296
v -0.01313787 0.09855966 0.01061938
v 0.02621429 0.09786720 0.00951296
v 0.03183687 0.09754502 0.00951296
v 0.03289552 0.09867026 0.01227649
v 0.03183687 0.09833365 0.01121013
v 0.03506574 0.09876643 0.01383849
v 0.03631847 0.09858851 0.01444426
v 0.03741828 0.09831441 0.01510010
v 0.03359540 0.09886261 0.01323271
v 0.03943559 0.09728054 0.01514015
v 0.04039425 0.09686699 0.01576595
v 0.04124116 0.09587158 0.01506505
v 0.04230569 0.09507333 0.01561576
v 0.04285266 0.09411159 0.01505003
v 0.04385249 0.09270263 0.01514015
v 0.04414655 0.09140428 0.01375338
v 0.04443474 0.09033194 0.01318265
v 0.04518168 0.08834113 0.01326275
v 0.04527577 0.08646573 0.01139036
v 0.04585803 0.08497022 0.01250679
v 0.04568159 0.08444607 0.01156058
v 0.04531106 0.08271493 0.00951296
v 0.04492878 0.08083953 0.00764057
v 0.04448179 0.07896413 0.00576317
v 0.04454061 0.07708873 0.00576317
v 0.04506993 0.07522294 0.00764057
v 0.04537575 0.07334754 0.00951296
v 0.04582862 0.06959674 0.01264696
v 0.03395416 0.05220361 0.01701254
v 0.03973553 0.05586785 0.01888994
v 0.04196457 0.05759899 0.01888994
v 0.04102943 0.05680555 0.01888994
v 0.04602859 0.06959674 0.01358316
v 0.04632854 0.06959674 0.01514015
v 0.04639911 0.06772134 0.01701254
v 0.04608152 0.06769249 0.01512012
v 0.04564042 0.06591326 0.01512012
v 0.04595801 0.06658648 0.01573090
v 0.04498171 0.06397535 0.01514015
v 0.04432888 0.06236443 0.01514015
v 0.04360547 0.06029187 0.01686736
v 0.04257623 0.05874347 0.01701254
v 0.04400541 0.06119110 0.01614644
v -0.00002832 0.07113072 0.04591446
v -0.00189859 0.07096723 0.04596452
v -0.00565090 0.07074603 0.04601960
v 0.02433814 0.05220361 0.03568640
v 0.02633192 0.05220361 0.03524083
v 0.02724353 0.05220361 0.03499551
v 0.03558918 0.06549009 0.04012707
v 0.03665959 0.06667785 0.04049754
v 0.03436586 0.06890910 0.04221473
v 0.03373067 0.06955827 0.04262526
v 0.03371303 0.07147214 0.04312089
v -0.01313787 0.07148657 0.04643513
v 0.02433814 0.09849714 0.01083465
v -0.01313787 0.09856447 0.01062939
v -0.01313787 0.09899725 0.01155557
v 0.02621429 0.09848752 0.01085468
v 0.03183687 0.09871834 0.01214633
v 0.03183687 0.09907419 0.01326275
v 0.03564800 0.09892993 0.01510010
v 0.03371303 0.09936272 0.01514015
v 0.03676545 0.09874239 0.01569586
v 0.03806523 0.09851157 0.01701254
v 0.03933560 0.09781912 0.01701254
v 0.04059422 0.09702087 0.01701254
v 0.04153523 0.09622743 0.01701254
v 0.04250565 0.09528973 0.01701254
v 0.04354078 0.09387597 0.01691241
v 0.04399364 0.09296712 0.01621652
v 0.04431711 0.09176494 0.01514015
v 0.04496407 0.09021172 0.01514015
v 0.04562865 0.08828342 0.01513514
v 0.04583451 0.08715818 0.01450934
v 0.04571099 0.08650420 0.01318265
v 0.04599330 0.08590792 0.01375839
v 0.04589920 0.08371995 0.01230152
v 0.04640499 0.08459033 0.01514015
v 0.04603447 0.08444607 0.01318265
v 0.04572276 0.08271493 0.01127021
v 0.04504052 0.07896413 0.00764057
v 0.04510521 0.07708873 0.00764057
v 0.04542281 0.07522294 0.00951296
v 0.03401886 0.05220361 0.01735298
v 0.04106472 0.05678632 0.02076233
v 0.03975318 0.05584861 0.02076233
v 0.03429528 0.05220361 0.02076233
v 0.03420706 0.05220361 0.01902011
v 0.03419530 0.05220361 0.01888994
v 0.04199986 0.05756052 0.02076233
v 0.04272326 0.05853669 0.01888994
v 0.04648145 0.08271493 0.01514015
v 0.04662849 0.06959674 0.01701254
v 0.04659908 0.06772134 0.01888994
v 0.04606387 0.06621622 0.01701254
v 0.04534635 0.06397535 0.01701254
v 0.04578157 0.06527851 0.01701254
v 0.04448767 0.06193164 0.01686736
v 0.04365840 0.05986871 0.01888994
v 0.04413479 0.06096510 0.01739803
v -0.00002832 0.07206842 0.04613975
v -0.00189859 0.07190493 0.04617479
v 0.02741409 0.05220361 0.03494044
v 0.03745945 0.06451393 0.03883542
v 0.03735359 0.06597097 0.03977161
v 0.03790643 0.06726932 0.04021218
v 0.03850633 0.06851959 0.04050255
v 0.03735359 0.06782713 0.04068278
v 0.03491870 0.07015455 0.04246505
v 0.03558918 0.07334754 0.04303078
v 0.03558918 0.07522294 0.04330613
v 0.03371303 0.07334754 0.04333617
v -0.00002832 0.07334754 0.04635002
v -0.01313787 0.07336197 0.04679058
v 0.02621429 0.09885780 0.01179087
v -0.01313787 0.09970413 0.01326275
v 0.02621429 0.09935791 0.01326275
v 0.03183687 0.09956468 0.01514015
v 0.02621429 0.09985801 0.01514015
v 0.03558918 0.09936272 0.01701254
v 0.03371303 0.09975222 0.01701254
v 0.03713009 0.09888184 0.01701254
v 0.03834165 0.09862698 0.01888994
v 0.03933560 0.09804993 0.01888994
v 0.04077066 0.09714109 0.01888994
v 0.04170580 0.09640054 0.01888994
v 0.04265269 0.09546284 0.01888994
v 0.04358783 0.09421257 0.01888994
v 0.04411714 0.09319313 0.01746812
v 0.04447591 0.09224100 0.01691241
v 0.04536399 0.09021172 0.01701254
v 0.04580510 0.08896145 0.01701254
v 0.04596389 0.08762463 0.01575594
v 0.04612269 0.08650420 0.01513514
v 0.04646381 0.08646573 0.01701254
v 0.04613445 0.08271493 0.01326275
v 0.04592273 0.08271493 0.01220640
v 0.04670495 0.08459033 0.01701254
v 0.04094710 0.05686807 0.02262972
v 0.03418942 0.05220361 0.02450712
v 0.03431881 0.05220361 0.02268479
v 0.03431881 0.05220361 0.02262972
v 0.04188811 0.05767593 0.02262972
v 0.04275267 0.05849822 0.02076233
v 0.04268210 0.05861363 0.02262972
v 0.04368781 0.05982542 0.02076233
v 0.04677552 0.08271493 0.01701254
v 0.04682846 0.06959674 0.01888994
v 0.04662849 0.06772134 0.02076233
v 0.04619327 0.06584594 0.02076233
v 0.04611681 0.06570168 0.01891998
v 0.04587567 0.06497557 0.01831420
v 0.04562865 0.06413404 0.01891998
v 0.04484056 0.06209995 0.01888994
v 0.04422301 0.06080640 0.01888994
v -0.00189859 0.07334754 0.04642511
v 0.02818455 0.05220361 0.03448987
v 0.03867101 0.06281645 0.03688292
v 0.03745945 0.06357623 0.03816456
v 0.03844164 0.06486977 0.03859511
v 0.03888274 0.06584594 0.03888548
v 0.03937677 0.06767326 0.03953131
v 0.03975906 0.06959674 0.04010204
v 0.03882393 0.06959674 0.04068778
v 0.03555977 0.07164045 0.04261525
v 0.03729477 0.07164045 0.04187931
v 0.03775940 0.07334754 0.04208958
v 0.03714186 0.07522294 0.04260523
v 0.03558918 0.07708873 0.04338623
v -0.00002832 0.07522294 0.04656529
v -0.01313787 0.07522294 0.04699084
v -0.01313787 0.10031965 0.01512513
v 0.02433814 0.09988205 0.01514015
v -0.01313787 0.10035331 0.01523027
v -0.01313787 0.10056008 0.01596120
v 0.03183687 0.09993976 0.01701254
v -0.01313787 0.10080052 0.01691241
v -0.01313787 0.10081495 0.01697750
v -0.01313787 0.10120446 0.01887492
v 0.02621429 0.10023309 0.01701254
v 0.03558918 0.09955987 0.01888994
v 0.03371303 0.09994457 0.01888994
v 0.03183687 0.10016577 0.01888994
v 0.03740064 0.09898763 0.01888994
v 0.03763589 0.09894436 0.02085245
v 0.03837694 0.09864140 0.02028672
v 0.03915328 0.09820381 0.02085245
v 0.04079418 0.09716032 0.02076233
v 0.04172932 0.09640535 0.02076233
v 0.04264681 0.09546765 0.02076233
v 0.04358783 0.09422219 0.02076233
v 0.04417008 0.09328449 0.02076233
v 0.04416420 0.09327488 0.01888994
v 0.04475233 0.09208712 0.01888994
v 0.04553456 0.09021172 0.01888994
v 0.04588744 0.08924036 0.01888994
v 0.04607564 0.08802376 0.01701254
v 0.04661084 0.08646573 0.01888994
v 0.04686962 0.08459033 0.01888994
v 0.04615210 0.08830747 0.01888994
v 0.04694608 0.08271493 0.01888994
v 0.04071773 0.05704599 0.02450712
v 0.03390711 0.05220361 0.02628939
v 0.04165874 0.05790194 0.02450712
v 0.04251742 0.05883964 0.02450712
v 0.04361723 0.05992160 0.02262972
v 0.04424654 0.06076313 0.02076233
v 0.04418772 0.06085930 0.02262972
v 0.04685198 0.06959674 0.02076233
v 0.04653438 0.06772134 0.02262972
v 0.04609328 0.06574496 0.02255963
v 0.04591096 0.06486015 0.02188376
v 0.04591684 0.06484092 0.02076233
v 0.04591096 0.06486977 0.01956580
v 0.04559925 0.06390322 0.02076233
v 0.04488760 0.06209995 0.02076233
v 0.02931966 0.05220361 0.03374892
v 0.03929443 0.06213842 0.03571643
v 0.03992374 0.06336945 0.03639730
v 0.03918269 0.06411961 0.03751874
v 0.02968430 0.05220361 0.03349359
v 0.04048835 0.06461972 0.03690796
v 0.03981787 0.06584594 0.03824466
v 0.04024722 0.06682211 0.03854505
v 0.04060010 0.06807238 0.03885044
v 0.04011195 0.07090952 0.04033233
v 0.03942383 0.07151061 0.04090306
v 0.03933560 0.07334754 0.04133361
v 0.03807699 0.07522294 0.04217969
v 0.03720655 0.07708873 0.04265530
v -0.00002832 0.07708873 0.04664539
v 0.03558918 0.07896413 0.04330613
v -0.00002832 0.07896413 0.04661035
v -0.00752705 0.07708873 0.04691574
v -0.01313787 0.07708873 0.04709096
v 0.02627311 0.10046391 0.01895502
v -0.01313787 0.10132467 0.02074731
v 0.02569085 0.10054566 0.01962087
v 0.02433814 0.10046872 0.01853449
v 0.03371303 0.10001670 0.02076233
v 0.03558918 0.09962238 0.02076233
v 0.03183687 0.10025233 0.02076233
v 0.02693771 0.10051200 0.02003640
v 0.03754767 0.09892031 0.02245950
v 0.03840635 0.09865102 0.02171855
v 0.03840635 0.09865102 0.02153332
v 0.03558918 0.09956468 0.02262972
v 0.04071773 0.09711704 0.02262972
v 0.04165286 0.09629956 0.02262972
v 0.04254683 0.09536186 0.02262972
v 0.04348196 0.09410678 0.02262972
v 0.04411127 0.09316908 0.02262972
v 0.04465235 0.09208712 0.02262972
v 0.04475822 0.09208712 0.02076233
v 0.04561101 0.09004342 0.02073730
v 0.04590508 0.08930287 0.02134808
v 0.04612269 0.08850944 0.02073730
v 0.04664025 0.08646573 0.02076233
v 0.04688726 0.08459033 0.02076233
v 0.04693432 0.08271493 0.02076233
v 0.04048247 0.05724314 0.02596898
v 0.03374831 0.05220361 0.02691018
v 0.04231745 0.05907526 0.02605910
v 0.04214689 0.05929166 0.02731070
v 0.04131174 0.05826259 0.02663984
v 0.04354078 0.06032553 0.02456219
v 0.04410538 0.06101799 0.02397644
v 0.04478762 0.06209995 0.02262972
v 0.04674612 0.07147214 0.02262972
v 0.04672847 0.06959674 0.02262972
v 0.04636382 0.06772134 0.02450712
v 0.04604623 0.06624988 0.02450712
v 0.04585803 0.06504769 0.02313536
v 0.04559925 0.06412923 0.02255963
v 0.03992374 0.06146039 0.03446984
v 0.03867101 0.06096990 0.03504057
v 0.04056481 0.06271066 0.03514570
v 0.03036066 0.05220361 0.03287781
v 0.04115295 0.06408115 0.03565636
v 0.04221747 0.06478803 0.03492042
v 0.04181166 0.06584594 0.03625712
v 0.04210572 0.06687982 0.03663260
v 0.04087064 0.06584594 0.03730847
v 0.04135291 0.06747610 0.03776906
v 0.04188811 0.06959674 0.03827470
v 0.04094710 0.06959674 0.03916584
v 0.04122940 0.07143367 0.03952129
v 0.04036484 0.07215979 0.04050755
v 0.04050599 0.07334754 0.04062270
v 0.03933560 0.07522294 0.04154388
v 0.03814757 0.07708873 0.04219972
v 0.03805347 0.07896413 0.04215966
v 0.03711245 0.07896413 0.04260523
v 0.03558918 0.08083953 0.04307583
v 0.03371303 0.08271493 0.04307583
v 0.03371303 0.08083953 0.04330112
v -0.00002832 0.08083953 0.04644514
v -0.00189859 0.07896413 0.04667543
v -0.01313787 0.07897856 0.04703589
v -0.01313787 0.10132948 0.02261970
v 0.02433814 0.10061298 0.02076233
v 0.02627311 0.10056489 0.02070225
v 0.02733763 0.10054566 0.02128300
v 0.03371303 0.09997342 0.02262972
v 0.03183687 0.10018981 0.02262972
v 0.02733763 0.10054566 0.02192382
v 0.03698894 0.09883856 0.02450712
v 0.03822991 0.09857889 0.02297015
v 0.03915328 0.09813168 0.02245950
v 0.03371303 0.09972818 0.02450712
v 0.03558918 0.09930020 0.02450712
v 0.04052364 0.09697278 0.02450712
v 0.04146465 0.09610240 0.02450712
v 0.04237038 0.09516951 0.02450712
v 0.04338786 0.09378460 0.02435692
v 0.04403481 0.09304406 0.02363100
v 0.04435829 0.09215925 0.02435692
v 0.04522284 0.09021172 0.02450712
v 0.04555220 0.09004342 0.02250456
v 0.04590508 0.08930287 0.02179866
v 0.04609917 0.08842288 0.02250456
v 0.04657556 0.08646573 0.02262972
v 0.04679317 0.08459033 0.02262972
v 0.04679317 0.08271493 0.02262972
v 0.04022369 0.05744511 0.02722058
v 0.03315430 0.05220361 0.02852224
v 0.04284678 0.06003701 0.02656474
v 0.04263505 0.06045537 0.02825690
v 0.04238215 0.06084488 0.02975382
v 0.04194693 0.05951767 0.02825690
v 0.04100591 0.05859440 0.02825690
v 0.04397600 0.06124880 0.02522804
v 0.04445238 0.06196531 0.02456219
v 0.04531106 0.06397535 0.02450712
v 0.04605211 0.07708873 0.03012930
v 0.04654615 0.06959674 0.02450712
v 0.04598742 0.06823588 0.02782135
v 0.04609917 0.06765883 0.02642456
v 0.04596389 0.06655763 0.02582380
v 0.04577569 0.06531217 0.02450712
v 0.04048835 0.06094586 0.03321824
v 0.03061943 0.05220361 0.03263750
v 0.04115295 0.06218651 0.03377395
v 0.04181166 0.06353776 0.03432966
v 0.04222923 0.06291743 0.03308307
v 0.04249389 0.06408595 0.03377395
v 0.04341138 0.06597097 0.03374391
v 0.04247037 0.06584594 0.03532093
v 0.04284089 0.06759151 0.03590668
v 0.04235862 0.06812527 0.03698806
v 0.04262328 0.06959674 0.03733851
v 0.04209396 0.07070756 0.03850500
v 0.04227040 0.07195782 0.03870525
v 0.04144113 0.07334754 0.03980165
v 0.04065303 0.07522294 0.04074285
v 0.04158817 0.07522294 0.03993683
v 0.04069420 0.07708873 0.04076789
v 0.03933560 0.07708873 0.04158894
v 0.03778880 0.08083953 0.04204952
v 0.03933560 0.07896413 0.04149882
v 0.03933560 0.08083953 0.04126853
v 0.03661842 0.08190225 0.04235992
v 0.03560094 0.08259952 0.04267532
v 0.03498928 0.08416235 0.04251512
v 0.03378360 0.08470574 0.04262025
v -0.00002832 0.08330640 0.04598956
v -0.00002832 0.08236870 0.04619482
v -0.01313787 0.08271493 0.04658031
v -0.01313787 0.08085395 0.04686568
v -0.01313787 0.10132948 0.02262972
v 0.03183687 0.09993495 0.02450712
v 0.02621429 0.10049276 0.02315038
v 0.02621429 0.10056489 0.02221419
v 0.03668900 0.09871354 0.02570865
v 0.03792996 0.09844906 0.02450712
v 0.03933560 0.09770851 0.02450712
v 0.03371303 0.09933867 0.02637951
v 0.03560094 0.09890588 0.02635448
v 0.04035896 0.09684295 0.02567361
v 0.04222923 0.09499640 0.02573869
v 0.04272326 0.09407793 0.02636949
v 0.04391130 0.09282766 0.02487759
v 0.04425241 0.09160144 0.02637951
v 0.04562278 0.08825457 0.02638451
v 0.04574629 0.08881238 0.02450712
v 0.04584626 0.08910572 0.02304525
v 0.04488760 0.09021172 0.02637951
v 0.04604035 0.08787468 0.02450712
v 0.04659908 0.08459033 0.02450712
v 0.04637559 0.08646573 0.02450712
v 0.04054716 0.05903199 0.03012930
v 0.03269555 0.05220361 0.02952853
v 0.03282494 0.05220361 0.02926820
v 0.04383484 0.06150367 0.02637951
v 0.04365252 0.06213361 0.02839208
v 0.04211748 0.06120072 0.03100542
v 0.04288207 0.06193645 0.03027949
v 0.04159992 0.06021974 0.03027949
v 0.04431711 0.06244137 0.02637951
v 0.04415244 0.06278279 0.02786140
v 0.04497583 0.06397535 0.02637951
v 0.04564630 0.06589884 0.02642456
v 0.04580510 0.07708873 0.03212184
v 0.04579922 0.07531912 0.03184148
v 0.04602271 0.07891123 0.03023443
v 0.04629913 0.06959674 0.02637951
v 0.04564042 0.07334754 0.03200670
v 0.04566983 0.06959674 0.03012930
v 0.04535223 0.06772134 0.03012930
v 0.04575217 0.06765883 0.02837205
v 0.04585215 0.06698561 0.02707540
v 0.04028250 0.05927723 0.03108552
v 0.04076477 0.06028226 0.03182646
v 0.04181753 0.06157099 0.03200670
v 0.03118405 0.05220361 0.03196164
v 0.04249978 0.06250869 0.03200670
v 0.04342903 0.06410038 0.03188654
v 0.04381720 0.06542758 0.03242723
v 0.04406421 0.06667785 0.03303301
v 0.04378780 0.06772134 0.03433967
v 0.04397600 0.06883697 0.03471515
v 0.04362312 0.06951500 0.03570642
v 0.04382308 0.07147214 0.03631720
v 0.04281149 0.07139039 0.03777907
v 0.04345844 0.07334274 0.03749871
v 0.04242332 0.07334754 0.03886546
v 0.04163522 0.07708873 0.03997688
v 0.04254683 0.07522294 0.03899562
v 0.04064126 0.07896413 0.04071782
v 0.03941794 0.08264761 0.04086301
v 0.03733006 0.08259952 0.04186429
v 0.04048247 0.08083953 0.04059767
v 0.04034131 0.08197919 0.04049254
v 0.03880040 0.08459033 0.04066776
v 0.03445408 0.08540781 0.04226981
v 0.03848281 0.08563382 0.04048753
v 0.03320723 0.08580213 0.04240998
v -0.00002832 0.08459033 0.04562409
v -0.00189859 0.08344585 0.04602460
v -0.01127348 0.08404694 0.04619482
v -0.01313787 0.08417197 0.04622486
v -0.01313787 0.10125254 0.02450712
v 0.03183687 0.09951659 0.02637951
v 0.02621429 0.10030522 0.02450712
v 0.02621429 0.09992052 0.02637951
v 0.03623613 0.09855485 0.02696025
v 0.03737123 0.09825671 0.02635448
v 0.03941206 0.09723245 0.02633445
v 0.03371303 0.09887703 0.02796653
v 0.03498928 0.09875201 0.02759606
v 0.04008254 0.09664578 0.02692520
v 0.04086476 0.09545322 0.02825690
v 0.04119999 0.09581868 0.02632944
v 0.04204691 0.09478000 0.02698528
v 0.04254683 0.09357302 0.02825690
v 0.04374662 0.09253914 0.02637951
v 0.04411714 0.09132735 0.02769118
v 0.04522872 0.08834113 0.02825690
v 0.04584626 0.08718223 0.02701532
v 0.04595214 0.08757654 0.02576372
v 0.04442886 0.09032232 0.02829195
v 0.04635795 0.08459033 0.02637951
v 0.04609328 0.08651863 0.02638451
v 0.04599330 0.08593196 0.02787141
v 0.03205448 0.05220361 0.03064996
v 0.03231326 0.05220361 0.03020439
v 0.04399952 0.06308573 0.02910799
v 0.04382896 0.06346562 0.03012930
v 0.04446415 0.06381666 0.02839208
v 0.04525225 0.06584594 0.02825690
v 0.04591096 0.07824763 0.03118064
v 0.04579333 0.07891123 0.03188654
v 0.04536988 0.07896413 0.03387909
v 0.04542281 0.07708873 0.03387909
v 0.04538752 0.07522294 0.03387909
v 0.04522872 0.07334754 0.03387909
v 0.04546398 0.07147214 0.03200670
v 0.04521696 0.06959674 0.03200670
v 0.04476410 0.06772134 0.03200670
v 0.04476998 0.06584594 0.03012930
v 0.03137813 0.05220361 0.03170131
v 0.04406421 0.06481207 0.03118064
v 0.04423477 0.06597097 0.03188654
v 0.04422301 0.06772134 0.03340348
v 0.04445238 0.06951500 0.03400425
v 0.04414068 0.07008723 0.03505058
v 0.04396423 0.07271760 0.03658254
v 0.04429947 0.07147214 0.03538101
v 0.04407598 0.07396787 0.03678280
v 0.04348196 0.07522294 0.03781411
v 0.04158228 0.07896413 0.03992681
v 0.04257035 0.07708873 0.03903567
v 0.04251742 0.07896413 0.03899062
v 0.04010018 0.08322946 0.04033233
v 0.04141760 0.08083953 0.03979164
v 0.04226452 0.08218597 0.03870025
v 0.04120588 0.08271012 0.03951629
v 0.03973553 0.08459033 0.04009703
v 0.03378360 0.08644168 0.04196442
v 0.03782998 0.08688409 0.04019716
v 0.03657725 0.08744190 0.04046250
v 0.03934737 0.08647535 0.03952129
v 0.03883569 0.08834113 0.03886045
v 0.03183687 0.08834113 0.04135364
v -0.00189859 0.08798047 0.04449264
v -0.00002832 0.08646573 0.04494322
v -0.00189859 0.08646573 0.04508840
v -0.01313787 0.08511448 0.04592948
v -0.01313787 0.10094959 0.02636949
v 0.03187216 0.09891550 0.02841711
v 0.02621429 0.09939637 0.02825690
v -0.01313787 0.10064183 0.02774125
v -0.01313787 0.10039178 0.02867244
v 0.03745945 0.09761715 0.02825690
v 0.03560094 0.09831922 0.02823688
v 0.03875923 0.09698721 0.02825690
v 0.03371303 0.09853562 0.02890273
v 0.03252499 0.09863659 0.02914804
v 0.03558918 0.09754502 0.03012930
v 0.03970025 0.09639093 0.02825690
v 0.04053540 0.09514547 0.02968873
v 0.04179989 0.09451071 0.02825690
v 0.04231745 0.09325083 0.02961364
v 0.04355254 0.09200538 0.02829195
v 0.04395835 0.09101959 0.02894278
v 0.04536988 0.08646573 0.03012930
v 0.04575217 0.08651863 0.02839708
v 0.04476998 0.08834113 0.03012930
v 0.04422301 0.08970680 0.03012930
v 0.04588156 0.08528278 0.02911801
v 0.04604035 0.08462880 0.02839708
v 0.04582274 0.08271493 0.03051980
v 0.04422889 0.06440333 0.03012930
v 0.04568159 0.08083953 0.03200670
v 0.04522872 0.08083953 0.03387909
v 0.04461706 0.07896413 0.03575648
v 0.04470528 0.07708873 0.03575648
v 0.04554632 0.08271493 0.03200670
v 0.04466412 0.07522294 0.03575648
v 0.04441122 0.07334274 0.03587664
v 0.04493466 0.07147214 0.03387909
v 0.04413479 0.07522294 0.03687291
v 0.04350549 0.07708873 0.03783915
v 0.04239391 0.08083953 0.03885544
v 0.04345256 0.07896413 0.03773902
v 0.04091769 0.08459033 0.03916083
v 0.04207632 0.08343623 0.03848497
v 0.04342903 0.08071450 0.03745365
v 0.04395835 0.08125789 0.03656752
v 0.04279384 0.08277263 0.03776906
v 0.04058246 0.08607142 0.03884543
v 0.03358364 0.08834594 0.04089305
v 0.03841223 0.08928844 0.03857509
v 0.03730654 0.08817763 0.03973657
v 0.03745945 0.08962506 0.03880538
v 0.03554801 0.09029828 0.03907072
v 0.04021192 0.08732168 0.03852002
v 0.03977083 0.08834113 0.03820962
v 0.03286611 0.08932211 0.04048252
v 0.03183687 0.08950003 0.04064273
v 0.02996072 0.08973085 0.04081795
v -0.00377475 0.08904801 0.04407211
v -0.00565090 0.08915861 0.04414220
v -0.00712124 0.08923074 0.04417224
v -0.00837397 0.08927883 0.04419226
v -0.00939732 0.08930287 0.04421229
v -0.01313787 0.08648016 0.04540381
v 0.02621429 0.09887222 0.02973880
v -0.01313787 0.09993495 0.03011428
v 0.03730065 0.09698721 0.02997911
v 0.03844752 0.09679966 0.02925318
v 0.03656549 0.09679485 0.03110554
v 0.03371303 0.09801146 0.03012930
v 0.03187216 0.09832403 0.02997911
v 0.02621429 0.09848272 0.03068000
v 0.03558918 0.09694873 0.03139091
v 0.03931208 0.09582350 0.03009425
v 0.04018252 0.09482809 0.03093533
v 0.04129409 0.09403946 0.03027448
v 0.04205279 0.09289980 0.03086524
v 0.04278208 0.09220253 0.03019438
v 0.04374662 0.09064450 0.03012930
v 0.04406421 0.08935577 0.03116562
v 0.04481703 0.08646573 0.03200670
v 0.04528166 0.08459033 0.03200670
v 0.04425241 0.08824015 0.03187653
v 0.04497583 0.08271493 0.03387909
v 0.04431711 0.08271493 0.03538601
v 0.04437593 0.08071450 0.03586663
v 0.04403481 0.08000762 0.03671271
v 0.04409362 0.07896413 0.03680282
v 0.04415244 0.07708873 0.03689794
v 0.04185871 0.08459033 0.03823966
v 0.04261152 0.08459033 0.03730346
v 0.04381132 0.08271493 0.03632221
v 0.04132938 0.08666289 0.03773902
v 0.04047659 0.08954331 0.03688793
v 0.03914740 0.09004342 0.03749370
v 0.03862984 0.09132254 0.03685289
v 0.03745945 0.09056275 0.03811950
v 0.03615379 0.09097631 0.03842990
v 0.03490106 0.09125521 0.03865018
v 0.04083535 0.08834113 0.03727342
v 0.03371303 0.09140909 0.03875532
v 0.03371303 0.09234679 0.03798433
v 0.02809045 0.09282285 0.03839486
v 0.02621429 0.09293826 0.03849498
v 0.02433814 0.09299597 0.03854505
v 0.02621429 0.09386635 0.03755378
v 0.02433814 0.09485694 0.03664262
v 0.01684529 0.09503968 0.03684788
v -0.01313787 0.09572732 0.03769396
v -0.01313787 0.08938943 0.04426235
v -0.01313787 0.08834113 0.04468289
v 0.02433814 0.09852119 0.03075510
v -0.01313787 0.09983878 0.03035959
v -0.01313787 0.09912709 0.03215689
v 0.03781821 0.09650152 0.03050478
v 0.03892979 0.09525125 0.03167627
v 0.03713009 0.09518875 0.03337344
v 0.03747122 0.09584754 0.03201671
v 0.03558918 0.09641978 0.03232710
v 0.03277789 0.09677562 0.03294289
v 0.03352482 0.09710742 0.03205175
v 0.03183687 0.09733824 0.03200670
v 0.02809045 0.09768928 0.03200670
v 0.02433814 0.09791529 0.03200670
v 0.02621429 0.09783354 0.03200670
v 0.03402474 0.09663617 0.03270759
v 0.04042954 0.09317870 0.03314315
v 0.04078830 0.09355859 0.03200670
v 0.03837694 0.09489061 0.03292787
v 0.03947088 0.09456842 0.03218192
v 0.04217630 0.09119270 0.03299295
v 0.04241156 0.09155817 0.03200670
v 0.04172344 0.09249586 0.03200670
v 0.04334669 0.09007227 0.03187653
v 0.04408774 0.08754769 0.03307306
v 0.04378780 0.08879796 0.03241722
v 0.04426418 0.08646573 0.03347357
v 0.04449944 0.08472978 0.03403929
v 0.04416420 0.08419602 0.03507561
v 0.04235862 0.08600409 0.03696303
v 0.04362899 0.08472978 0.03572144
v 0.04207632 0.08725436 0.03659255
v 0.04177637 0.08834113 0.03619204
v 0.04218218 0.08934134 0.03487536
v 0.04113530 0.09006746 0.03562632
v 0.04054128 0.09144275 0.03513069
v 0.03987669 0.09079357 0.03637728
v 0.03923562 0.09201018 0.03567638
v 0.03859455 0.09316427 0.03497549
v 0.03745945 0.09263531 0.03629217
v 0.03745945 0.09169761 0.03717830
v 0.03634788 0.09295750 0.03662259
v 0.03562447 0.09210635 0.03764390
v 0.03510103 0.09318351 0.03685289
v 0.03371303 0.09338066 0.03704813
v 0.02809045 0.09378460 0.03745866
v 0.02809045 0.09472230 0.03649242
v 0.02621429 0.09480404 0.03658254
v 0.02621429 0.09555902 0.03564634
v -0.01313787 0.09584273 0.03755879
v -0.01313787 0.09908862 0.03224200
v -0.01313787 0.09903091 0.03236716
v -0.01313787 0.09839616 0.03368884
v 0.03552449 0.09540514 0.03394918
v 0.03610674 0.09475596 0.03462504
v 0.03763589 0.09451552 0.03394918
v 0.03183687 0.09524645 0.03525084
v 0.03371303 0.09511181 0.03508563
v 0.03352482 0.09611202 0.03369385
v 0.02809045 0.09699202 0.03332338
v 0.02809045 0.09642459 0.03425957
v 0.02433814 0.09710742 0.03348859
v 0.02621429 0.09706414 0.03343852
v -0.01313787 0.09830960 0.03386407
v 0.03485401 0.09496755 0.03490039
v 0.04111177 0.09194286 0.03369385
v 0.03926503 0.09357302 0.03381400
v 0.03984728 0.09269302 0.03439475
v 0.04179401 0.09059161 0.03424455
v 0.04242332 0.09006746 0.03372389
v 0.04336433 0.08824015 0.03376895
v 0.04379956 0.08646573 0.03441477
v 0.04399952 0.08544628 0.03477023
v 0.04284678 0.08656190 0.03588164
v 0.04243508 0.08834113 0.03525585
v 0.03745945 0.09349127 0.03535097
v 0.03560094 0.09396733 0.03576149
v 0.03371303 0.09431837 0.03602182
v 0.03183687 0.09446263 0.03619204
v 0.02809045 0.09548689 0.03555122
v 0.02621429 0.09649671 0.03437472
v 0.01684529 0.09669388 0.03468512
v 0.01684529 0.09589082 0.03575648
v -0.01313787 0.09595333 0.03741360
v -0.01313787 0.09827113 0.03393416
v -0.01313787 0.09719398 0.03576650
v -0.01313787 0.09700644 0.03601682
f 1 2 3
f 1 3 4
f 1 4 5
f 1 5 6
f 1 6 7
f 1 7 2
f 2 8 9
f 2 9 10
f 2 10 3
f 2 7 11
f 2 11 8
f 3 10 9
f 3 9 22
f 3 22 41
f 3 41 71
f 3 71 108
f 3 108 107
f 3 107 149
f 3 149 119
f 3 119 164
f 3 164 210
f 3 210 264
f 3 264 324
f 3 324 380
f 3 380 437
f 3 437 497
f 3 497 554
f 3 554 618
f 3 618 682
f 3 682 752
f 3 752 751
f 3 751 824
f 3 824 891
f 3 891 950
f 3 950 997
f 3 997 996
f 3 996 995
f 3 995 1046
f 3 1046 1080
f 3 1080 1083
f 3 1083 1082
f 3 1082 1081
f 3 1081 1060
f 3 1060 1049
f 3 1049 1048
f 3 1048 1047
f 3 1047 1000
f 3 1000 999
f 3 999 952
f 3 952 896
f 3 896 895
f 3 895 892
f 3 892 825
f 3 825 753
f 3 753 683
f 3 683 620
f 3 620 562
f 3 562 561
f 3 561 560
f 3 560 558
f 3 558 557
f 3 557 555
f 3 555 499
f 3 499 440
f 3 440 439
f 3 439 383
f 3 383 381
f 3 381 326
f 3 326 269
f 3 269 273
f 3 273 215
f 3 215 170
f 3 170 127
f 3 127 90
f 3 90 87
f 3 87 54
f 3 54 30
f 3 30 12
f 3 12 4
f 4 12 13
f 4 13 5
f 5 13 14
f 5 14 6
f 6 14 15
f 6 15 16
f 6 16 17
f 6 17 18
f 6 18 7
f 7 18 19
f 7 19 20
f 7 20 11
f 8 21 9
f 8 11 21
f 9 21 22
f 11 20 23
f 11 23 24
f 11 24 25
f 11 25 26
f 11 26 27
f 11 27 28
f 11 28 29
f 11 29 21
f 12 30 31
f 12 31 13
f 13 31 32
f 13 32 14
f 14 32 33
f 14 33 34
f 14 34 15
f 15 34 16
f 16 34 35
f 16 35 17
f 17 35 36
f 17 36 18
f 18 36 37
f 18 37 19
f 19 23 20
f 19 37 38
f 19 38 39
f 19 39 23
f 21 40 41
f 21 41 22
f 21 29 40
f 23 39 42
f 23 42 24
f 24 42 25
f 25 42 43
f 25 43 44
f 25 44 26
f 26 44 45
f 26 45 46
f 26 46 47
f 26 47 48
f 26 48 49
f 26 49 27
f 27 49 28
f 28 50 51
f 28 51 52
f 28 52 53
f 28 53 29
f 28 49 48
f 28 48 50
f 29 53 40
f 30 54 31
f 31 54 55
f 31 55 56
f 31 56 57
f 31 57 58
f 31 58 32
f 32 58 57
f 32 57 59
f 32 59 60
f 32 60 61
f 32 61 62
f 32 62 33
f 33 62 63
f 33 63 34
f 34 63 35
f 35 63 64
f 35 64 65
f 35 65 36
f 36 65 37
f 37 65 66
f 37 66 38
f 38 66 67
f 38 67 68
f 38 68 42
f 38 42 39
f 40 53 69
f 40 69 70
f 40 70 71
f 40 71 41
f 42 68 43
f 43 68 72
f 43 72 73
f 43 73 74
f 43 74 44
f 44 74 75
f 44 75 45
f 45 75 46
f 46 75 76
f 46 76 77
f 46 77 47
f 47 77 76
f 47 76 48
f 48 76 78
f 48 78 50
f 50 79 51
f 50 78 79
f 51 79 80
f 51 80 81
f 51 81 82
f 51 82 83
f 51 83 84
f 51 84 85
f 51 85 86
f 51 86 52
f 52 86 69
f 52 69 53
f 54 87 55
f 55 88 89
f 55 89 56
f 55 87 90
f 55 90 88
f 56 89 57
f 57 91 92
f 57 92 93
f 57 93 60
f 57 60 59
f 57 89 91
f 60 94 95
f 60 95 61
f 60 93 96
f 60 96 97
f 60 97 94
f 61 95 98
f 61 98 62
f 62 98 99
f 62 99 63
f 63 99 100
f 63 100 64
f 64 100 101
f 64 101 102
f 64 102 65
f 65 102 103
f 65 103 66
f 66 103 67
f 67 103 104
f 67 104 68
f 68 104 72
f 69 86 70
f 70 86 105
f 70 105 106
f 70 106 107
f 70 107 108
f 70 108 71
f 72 104 109
f 72 109 110
f 72 110 73
f 73 110 111
f 73 111 74
f 74 111 112
f 74 112 75
f 75 113 114
f 75 114 76
f 75 112 115
f 75 115 113
f 76 114 80
f 76 80 78
f 78 80 79
f 80 114 116
f 80 116 117
f 80 117 81
f 81 117 116
f 81 116 161
f 81 161 160
f 81 160 159
f 81 159 158
f 81 158 157
f 81 157 199
f 81 199 248
f 81 248 304
f 81 304 360
f 81 360 411
f 81 411 467
f 81 467 472
f 81 472 471
f 81 471 470
f 81 470 525
f 81 525 524
f 81 524 523
f 81 523 586
f 81 586 645
f 81 645 709
f 81 709 776
f 81 776 775
f 81 775 849
f 81 849 848
f 81 848 864
f 81 864 798
f 81 798 725
f 81 725 661
f 81 661 604
f 81 604 600
f 81 600 540
f 81 540 486
f 81 486 431
f 81 431 430
f 81 430 429
f 81 429 379
f 81 379 321
f 81 321 320
f 81 320 266
f 81 266 265
f 81 265 261
f 81 261 209
f 81 209 164
f 81 164 119
f 81 119 124
f 81 124 123
f 81 123 122
f 81 122 121
f 81 121 118
f 81 118 83
f 81 83 82
f 83 118 84
f 84 119 120
f 84 120 105
f 84 105 85
f 84 118 121
f 84 121 122
f 84 122 123
f 84 123 124
f 84 124 119
f 85 105 86
f 88 90 125
f 88 125 126
f 88 126 91
f 88 91 89
f 90 127 128
f 90 128 125
f 91 129 130
f 91 130 92
f 91 126 129
f 92 131 132
f 92 132 133
f 92 133 93
f 92 130 131
f 93 133 96
f 94 134 135
f 94 135 136
f 94 136 137
f 94 137 95
f 94 97 138
f 94 138 134
f 95 137 98
f 96 133 132
f 96 132 97
f 97 132 139
f 97 139 138
f 98 137 99
f 99 137 140
f 99 140 141
f 99 141 100
f 100 141 101
f 101 141 142
f 101 142 143
f 101 143 102
f 102 143 144
f 102 144 145
f 102 145 103
f 103 145 146
f 103 146 104
f 104 146 109
f 105 120 147
f 105 147 148
f 105 148 106
f 106 148 119
f 106 119 149
f 106 149 107
f 109 146 150
f 109 150 151
f 109 151 110
f 110 151 152
f 110 152 153
f 110 153 111
f 111 153 154
f 111 154 155
f 111 155 112
f 112 155 115
f 113 115 156
f 113 156 157
f 113 157 158
f 113 158 159
f 113 159 160
f 113 160 114
f 114 160 161
f 114 161 116
f 115 155 162
f 115 162 163
f 115 163 156
f 119 148 147
f 119 147 120
f 125 128 127
f 125 127 165
f 125 165 126
f 126 165 127
f 126 127 166
f 126 166 167
f 126 167 168
f 126 168 169
f 126 169 129
f 127 170 171
f 127 171 166
f 129 169 130
f 130 169 131
f 131 172 173
f 131 173 139
f 131 139 132
f 131 169 168
f 131 168 167
f 131 167 174
f 131 174 172
f 134 175 176
f 134 176 177
f 134 177 135
f 134 138 178
f 134 178 175
f 135 179 180
f 135 180 181
f 135 181 136
f 135 177 179
f 136 181 182
f 136 182 183
f 136 183 184
f 136 184 140
f 136 140 137
f 138 139 173
f 138 173 185
f 138 185 178
f 140 184 186
f 140 186 141
f 141 186 142
f 142 186 187
f 142 187 188
f 142 188 143
f 143 188 144
f 144 188 189
f 144 189 145
f 145 189 190
f 145 190 146
f 146 190 150
f 150 190 191
f 150 191 192
f 150 192 151
f 151 192 152
f 152 154 153
f 152 192 193
f 152 193 194
f 152 194 154
f 154 194 195
f 154 195 162
f 154 162 196
f 154 196 155
f 155 196 162
f 156 163 197
f 156 197 198
f 156 198 157
f 157 198 199
f 162 195 200
f 162 200 201
f 162 201 202
f 162 202 203
f 162 203 204
f 162 204 163
f 163 205 206
f 163 206 198
f 163 198 197
f 163 204 207
f 163 207 208
f 163 208 205
f 164 209 210
f 166 171 167
f 167 211 212
f 167 212 213
f 167 213 214
f 167 214 174
f 167 171 215
f 167 215 216
f 167 216 211
f 170 215 171
f 172 217 173
f 172 174 217
f 173 217 185
f 174 214 218
f 174 218 217
f 175 178 219
f 175 219 220
f 175 220 221
f 175 221 222
f 175 222 223
f 175 223 224
f 175 224 176
f 176 224 225
f 176 225 226
f 176 226 227
f 176 227 228
f 176 228 229
f 176 229 177
f 177 229 179
f 178 185 230
f 178 230 231
f 178 231 219
f 179 229 180
f 180 229 232
f 180 232 233
f 180 233 234
f 180 234 235
f 180 235 236
f 180 236 181
f 181 236 182
f 182 237 183
f 182 236 238
f 182 238 237
f 183 237 187
f 183 187 186
f 183 186 184
f 185 217 230
f 187 237 239
f 187 239 188
f 188 239 240
f 188 240 189
f 189 240 241
f 189 241 242
f 189 242 190
f 190 242 191
f 191 242 243
f 191 243 193
f 191 193 192
f 193 243 244
f 193 244 245
f 193 245 194
f 194 245 246
f 194 246 195
f 195 246 200
f 198 206 247
f 198 247 199
f 199 247 249
f 199 249 248
f 200 246 250
f 200 250 251
f 200 251 201
f 201 251 250
f 201 250 252
f 201 252 253
f 201 253 254
f 201 254 255
f 201 255 256
f 201 256 202
f 202 256 207
f 202 207 203
f 203 207 204
f 205 249 206
f 205 208 257
f 205 257 258
f 205 258 249
f 206 249 247
f 207 256 255
f 207 255 259
f 207 259 260
f 207 260 208
f 208 260 257
f 209 261 210
f 210 262 263
f 210 263 264
f 210 261 265
f 210 265 266
f 210 266 262
f 211 267 268
f 211 268 212
f 211 216 269
f 211 269 267
f 212 268 214
f 212 214 213
f 214 268 270
f 214 270 271
f 214 271 272
f 214 272 218
f 215 273 216
f 216 273 269
f 217 218 230
f 218 272 230
f 219 231 220
f 220 231 274
f 220 274 275
f 220 275 276
f 220 276 221
f 221 276 222
f 222 276 277
f 222 277 223
f 223 278 226
f 223 226 225
f 223 225 224
f 223 277 279
f 223 279 278
f 226 280 281
f 226 281 227
f 226 278 280
f 227 281 228
f 228 281 282
f 228 282 283
f 228 283 284
f 228 284 229
f 229 284 285
f 229 285 286
f 229 286 287
f 229 287 232
f 230 272 231
f 231 272 274
f 232 287 288
f 232 288 289
f 232 289 233
f 233 289 290
f 233 290 234
f 234 290 289
f 234 289 291
f 234 291 292
f 234 292 293
f 234 293 235
f 235 293 294
f 235 294 236
f 236 294 238
f 237 238 295
f 237 295 239
f 238 294 296
f 238 296 295
f 239 295 240
f 240 295 297
f 240 297 241
f 241 297 298
f 241 298 242
f 242 298 299
f 242 299 243
f 243 299 300
f 243 300 244
f 244 300 301
f 244 301 302
f 244 302 245
f 245 302 303
f 245 303 246
f 246 303 250
f 248 249 305
f 248 305 304
f 249 258 305
f 250 303 306
f 250 306 252
f 252 306 253
f 253 306 307
f 253 307 308
f 253 308 309
f 253 309 254
f 254 309 255
f 255 309 310
f 255 310 311
f 255 311 312
f 255 312 259
f 257 313 258
f 257 260 314
f 257 314 313
f 258 313 315
f 258 315 305
f 259 312 311
f 259 311 260
f 260 311 316
f 260 316 314
f 262 317 318
f 262 318 319
f 262 319 263
f 262 266 320
f 262 320 321
f 262 321 317
f 263 319 322
f 263 322 323
f 263 323 324
f 263 324 264
f 267 325 268
f 267 269 326
f 267 326 325
f 268 325 270
f 270 325 327
f 270 327 328
f 270 328 329
f 270 329 330
f 270 330 271
f 271 330 274
f 271 274 272
f 274 330 275
f 275 330 331
f 275 331 276
f 276 331 332
f 276 332 277
f 277 332 333
f 277 333 279
f 278 279 334
f 278 334 335
f 278 335 280
f 279 333 336
f 279 336 334
f 280 335 337
f 280 337 282
f 280 282 281
f 282 338 283
f 282 337 338
f 283 338 339
f 283 339 340
f 283 340 284
f 284 340 285
f 285 340 341
f 285 341 342
f 285 342 343
f 285 343 286
f 286 343 344
f 286 344 287
f 287 344 288
f 288 344 345
f 288 345 346
f 288 346 347
f 288 347 289
f 289 347 348
f 289 348 291
f 291 348 292
f 292 348 349
f 292 349 350
f 292 350 351
f 292 351 293
f 293 351 294
f 294 351 296
f 295 296 352
f 295 352 297
f 296 351 353
f 296 353 352
f 297 352 354
f 297 354 298
f 298 354 355
f 298 355 356
f 298 356 299
f 299 356 300
f 300 356 357
f 300 357 301
f 301 357 358
f 301 358 359
f 301 359 302
f 302 359 306
f 302 306 303
f 304 305 361
f 304 361 362
f 304 362 363
f 304 363 360
f 305 315 361
f 306 359 307
f 307 359 358
f 307 358 364
f 307 364 365
f 307 365 308
f 308 365 366
f 308 366 367
f 308 367 368
f 308 368 369
f 308 369 309
f 309 370 310
f 309 369 370
f 310 370 311
f 311 370 371
f 311 371 316
f 313 372 373
f 313 373 315
f 313 314 374
f 313 374 372
f 314 316 375
f 314 375 374
f 315 373 361
f 316 371 375
f 317 376 377
f 317 377 318
f 317 321 378
f 317 378 376
f 318 377 319
f 319 377 322
f 321 379 378
f 322 377 323
f 323 377 324
f 324 377 380
f 325 326 381
f 325 381 327
f 327 382 328
f 327 381 383
f 327 383 382
f 328 382 384
f 328 384 329
f 329 385 331
f 329 331 330
f 329 384 385
f 331 385 332
f 332 385 333
f 333 386 336
f 333 385 387
f 333 387 386
f 334 336 388
f 334 388 389
f 334 389 335
f 335 389 390
f 335 390 337
f 336 386 391
f 336 391 388
f 337 390 392
f 337 392 338
f 338 393 394
f 338 394 339
f 338 392 393
f 339 394 341
f 339 341 340
f 341 394 395
f 341 395 396
f 341 396 342
f 342 396 397
f 342 397 343
f 343 397 398
f 343 398 344
f 344 398 399
f 344 399 345
f 345 399 346
f 346 348 347
f 346 399 400
f 346 400 401
f 346 401 348
f 348 401 349
f 349 401 402
f 349 402 403
f 349 403 404
f 349 404 350
f 350 404 405
f 350 405 406
f 350 406 353
f 350 353 351
f 352 353 406
f 352 406 354
f 354 406 407
f 354 407 355
f 355 407 356
f 356 407 357
f 357 407 408
f 357 408 358
f 358 408 409
f 358 409 410
f 358 410 364
f 360 363 412
f 360 412 411
f 361 373 362
f 362 412 363
f 362 373 413
f 362 413 414
f 362 414 412
f 364 410 365
f 365 410 366
f 366 415 416
f 366 416 417
f 366 417 418
f 366 418 368
f 366 368 367
f 366 410 415
f 368 419 369
f 368 418 417
f 368 417 420
f 368 420 419
f 369 419 421
f 369 421 370
f 370 421 371
f 371 421 422
f 371 422 375
f 372 374 423
f 372 423 424
f 372 424 373
f 373 424 413
f 374 375 425
f 374 425 423
f 375 422 425
f 376 426 377
f 376 378 426
f 377 426 427
f 377 427 428
f 377 428 380
f 378 379 429
f 378 429 430
f 378 430 431
f 378 431 432
f 378 432 433
f 378 433 434
f 378 434 435
f 378 435 436
f 378 436 426
f 380 428 437
f 382 438 384
f 382 383 439
f 382 439 440
f 382 440 438
f 384 438 441
f 384 441 387
f 384 387 385
f 386 387 442
f 386 442 443
f 386 443 391
f 387 441 442
f 388 444 389
f 388 391 445
f 388 445 444
f 389 446 390
f 389 444 446
f 390 446 447
f 390 447 392
f 391 443 445
f 392 448 393
f 392 447 448
f 393 448 449
f 393 449 450
f 393 450 394
f 394 450 395
f 395 450 451
f 395 451 452
f 395 452 396
f 396 452 453
f 396 453 397
f 397 453 398
f 398 453 454
f 398 454 455
f 398 455 399
f 399 455 400
f 400 455 456
f 400 456 457
f 400 457 458
f 400 458 401
f 401 458 459
f 401 459 402
f 402 460 403
f 402 459 461
f 402 461 462
f 402 462 460
f 403 460 463
f 403 463 404
f 404 463 464
f 404 464 405
f 405 464 406
f 406 464 465
f 406 465 407
f 407 465 408
f 408 465 466
f 408 466 409
f 409 466 416
f 409 416 415
f 409 415 410
f 411 412 467
f 412 414 468
f 412 468 469
f 412 469 470
f 412 470 471
f 412 471 472
f 412 472 467
f 413 473 414
f 413 424 474
f 413 474 473
f 414 473 468
f 416 475 476
f 416 476 417
f 416 466 475
f 417 476 531
f 417 531 477
f 417 477 478
f 417 478 420
f 419 479 421
f 419 420 480
f 419 480 479
f 420 478 480
f 421 479 422
f 422 479 481
f 422 481 425
f 423 482 424
f 423 425 483
f 423 483 482
f 424 482 474
f 425 481 483
f 426 484 427
f 426 436 484
f 427 485 437
f 427 437 428
f 427 484 485
f 431 486 433
f 431 433 432
f 433 487 488
f 433 488 489
f 433 489 490
f 433 490 491
f 433 491 434
f 433 486 487
f 434 492 435
f 434 491 490
f 434 490 492
f 435 492 436
f 436 492 493
f 436 493 494
f 436 494 495
f 436 495 553
f 436 553 496
f 436 496 484
f 437 485 497
f 438 498 441
f 438 440 499
f 438 499 498
f 441 498 442
f 442 498 500
f 442 500 443
f 443 501 445
f 443 500 502
f 443 502 501
f 444 445 503
f 444 503 446
f 445 504 503
f 445 501 504
f 446 503 505
f 446 505 447
f 447 505 506
f 447 506 448
f 448 507 508
f 448 508 449
f 448 506 507
f 449 508 509
f 449 509 450
f 450 509 451
f 451 510 511
f 451 511 452
f 451 509 510
f 452 511 512
f 452 512 453
f 453 512 513
f 453 513 454
f 454 513 514
f 454 514 455
f 455 514 515
f 455 515 456
f 456 515 516
f 456 516 457
f 457 516 517
f 457 517 459
f 457 459 458
f 459 517 518
f 459 518 461
f 460 462 519
f 460 519 520
f 460 520 463
f 461 518 521
f 461 521 475
f 461 475 519
f 461 519 462
f 463 520 465
f 463 465 464
f 465 520 519
f 465 519 475
f 465 475 466
f 468 522 469
f 468 473 522
f 469 522 523
f 469 523 524
f 469 524 525
f 469 525 470
f 473 526 522
f 473 474 527
f 473 527 528
f 473 528 526
f 474 482 529
f 474 529 527
f 475 521 530
f 475 530 476
f 476 530 531
f 477 531 532
f 477 532 533
f 477 533 534
f 477 534 478
f 478 534 535
f 478 535 480
f 479 480 535
f 479 535 536
f 479 536 537
f 479 537 481
f 481 537 483
f 482 483 538
f 482 538 529
f 483 537 538
f 484 496 539
f 484 539 485
f 485 539 497
f 486 540 541
f 486 541 542
f 486 542 487
f 487 542 543
f 487 543 488
f 488 543 489
f 489 543 544
f 489 544 490
f 490 544 545
f 490 545 546
f 490 546 547
f 490 547 492
f 492 548 493
f 492 547 548
f 493 548 549
f 493 549 550
f 493 550 494
f 494 550 551
f 494 551 552
f 494 552 614
f 494 614 553
f 494 553 495
f 496 553 539
f 497 539 554
f 498 499 500
f 499 555 500
f 500 556 502
f 500 555 557
f 500 557 558
f 500 558 556
f 501 559 504
f 501 502 563
f 501 563 559
f 502 556 560
f 502 560 561
f 502 561 562
f 502 562 563
f 503 564 505
f 503 504 564
f 504 565 564
f 504 559 566
f 504 566 565
f 505 567 506
f 505 564 567
f 506 567 568
f 506 568 569
f 506 569 507
f 507 569 570
f 507 570 508
f 508 570 571
f 508 571 509
f 509 571 572
f 509 572 510
f 510 572 573
f 510 573 574
f 510 574 511
f 511 574 575
f 511 575 576
f 511 576 512
f 512 576 577
f 512 577 513
f 513 577 514
f 514 578 579
f 514 579 515
f 514 577 578
f 515 579 580
f 515 580 516
f 516 580 518
f 516 518 517
f 518 581 582
f 518 582 521
f 518 580 583
f 518 583 581
f 521 582 584
f 521 584 530
f 522 526 585
f 522 585 586
f 522 586 523
f 526 587 585
f 526 528 588
f 526 588 587
f 527 529 589
f 527 589 528
f 528 589 588
f 529 538 590
f 529 590 591
f 529 591 589
f 530 584 531
f 531 584 592
f 531 592 532
f 532 593 594
f 532 594 533
f 532 592 593
f 533 594 595
f 533 595 596
f 533 596 597
f 533 597 534
f 534 597 535
f 535 597 536
f 536 598 537
f 536 597 598
f 537 599 538
f 537 598 599
f 538 599 590
f 539 553 554
f 540 600 541
f 541 601 602
f 541 602 603
f 541 603 543
f 541 543 542
f 541 600 604
f 541 604 601
f 543 603 605
f 543 605 606
f 543 606 607
f 543 607 544
f 544 607 545
f 545 607 608
f 545 608 546
f 546 608 609
f 546 609 547
f 547 609 610
f 547 610 549
f 547 549 548
f 549 610 550
f 550 610 611
f 550 611 612
f 550 612 551
f 551 612 613
f 551 613 552
f 552 613 615
f 552 615 616
f 552 616 614
f 553 614 617
f 553 617 554
f 554 617 618
f 556 558 560
f 559 563 619
f 559 619 566
f 562 620 621
f 562 621 622
f 562 622 563
f 563 622 619
f 564 565 623
f 564 623 624
f 564 624 567
f 565 566 625
f 565 625 623
f 566 619 626
f 566 626 625
f 567 624 568
f 568 627 628
f 568 628 629
f 568 629 569
f 568 624 630
f 568 630 627
f 569 629 570
f 570 629 628
f 570 628 571
f 571 631 572
f 571 628 631
f 572 631 632
f 572 632 573
f 573 633 574
f 573 632 633
f 574 633 634
f 574 634 635
f 574 635 575
f 575 635 636
f 575 636 637
f 575 637 577
f 575 577 576
f 577 637 638
f 577 638 578
f 578 638 639
f 578 639 579
f 579 639 640
f 579 640 583
f 579 583 580
f 581 641 582
f 581 583 641
f 582 642 584
f 582 641 642
f 583 640 641
f 584 643 592
f 584 642 643
f 585 587 644
f 585 644 645
f 585 645 586
f 587 588 646
f 587 646 647
f 587 647 648
f 587 648 644
f 588 589 649
f 588 649 646
f 589 591 650
f 589 650 649
f 590 599 651
f 590 651 591
f 591 651 650
f 592 643 652
f 592 652 653
f 592 653 593
f 593 653 654
f 593 654 655
f 593 655 594
f 594 655 656
f 594 656 595
f 595 656 657
f 595 657 598
f 595 598 596
f 596 598 597
f 598 657 599
f 599 657 651
f 601 658 602
f 601 604 659
f 601 659 658
f 602 658 660
f 602 660 605
f 602 605 603
f 604 661 658
f 604 658 659
f 605 607 606
f 605 660 662
f 605 662 663
f 605 663 664
f 605 664 665
f 605 665 666
f 605 666 607
f 607 666 665
f 607 665 667
f 607 667 608
f 608 667 668
f 608 668 669
f 608 669 609
f 609 669 670
f 609 670 671
f 609 671 610
f 610 671 611
f 611 671 672
f 611 672 673
f 611 673 612
f 612 674 613
f 612 673 674
f 613 674 675
f 613 675 676
f 613 676 615
f 614 616 617
f 615 676 677
f 615 677 678
f 615 678 679
f 615 679 680
f 615 680 616
f 616 680 681
f 616 681 617
f 617 682 618
f 617 681 682
f 619 622 621
f 619 621 626
f 620 683 684
f 620 684 621
f 621 684 685
f 621 685 686
f 621 686 626
f 623 687 624
f 623 625 687
f 624 687 630
f 625 688 687
f 625 626 686
f 625 686 689
f 625 689 688
f 627 690 691
f 627 691 628
f 627 630 690
f 628 691 692
f 628 692 631
f 630 687 693
f 630 693 694
f 630 694 690
f 631 695 632
f 631 692 695
f 632 695 696
f 632 696 697
f 632 697 633
f 633 697 634
f 634 697 698
f 634 698 699
f 634 699 635
f 635 699 636
f 636 699 700
f 636 700 701
f 636 701 702
f 636 702 637
f 637 702 703
f 637 703 638
f 638 703 639
f 639 703 640
f 640 703 641
f 641 703 704
f 641 704 705
f 641 705 642
f 642 705 706
f 642 706 643
f 643 706 707
f 643 707 652
f 644 648 708
f 644 708 709
f 644 709 645
f 646 649 710
f 646 710 647
f 647 710 711
f 647 711 712
f 647 712 713
f 647 713 714
f 647 714 708
f 647 708 648
f 649 650 715
f 649 715 710
f 650 651 716
f 650 716 715
f 651 657 717
f 651 717 716
f 652 707 718
f 652 718 719
f 652 719 653
f 653 719 654
f 654 719 720
f 654 720 721
f 654 721 722
f 654 722 655
f 655 722 723
f 655 723 656
f 656 723 717
f 656 717 657
f 658 724 660
f 658 661 725
f 658 725 724
f 660 724 726
f 660 726 727
f 660 727 662
f 662 727 663
f 663 665 664
f 663 727 728
f 663 728 729
f 663 729 730
f 663 730 731
f 663 731 665
f 665 731 732
f 665 732 733
f 665 733 668
f 665 668 667
f 668 733 734
f 668 734 735
f 668 735 669
f 669 735 670
f 670 735 736
f 670 736 671
f 671 736 737
f 671 737 672
f 672 738 673
f 672 737 739
f 672 739 738
f 673 738 740
f 673 740 741
f 673 741 674
f 674 741 675
f 675 742 676
f 675 741 743
f 675 743 744
f 675 744 742
f 676 742 677
f 677 742 745
f 677 745 746
f 677 746 747
f 677 747 678
f 678 747 748
f 678 748 749
f 678 749 750
f 678 750 680
f 678 680 679
f 680 750 751
f 680 751 752
f 680 752 682
f 680 682 681
f 683 753 684
f 684 689 686
f 684 686 685
f 684 753 689
f 687 688 693
f 688 754 693
f 688 689 755
f 688 755 754
f 689 753 756
f 689 756 755
f 690 757 758
f 690 758 691
f 690 694 757
f 691 758 759
f 691 759 692
f 692 759 695
f 693 760 694
f 693 754 760
f 694 761 757
f 694 760 761
f 695 759 762
f 695 762 696
f 696 763 697
f 696 762 763
f 697 763 698
f 698 764 765
f 698 765 699
f 698 763 764
f 699 765 700
f 700 765 766
f 700 766 701
f 701 767 768
f 701 768 769
f 701 769 702
f 701 766 770
f 701 770 767
f 702 769 703
f 703 769 704
f 704 771 705
f 704 769 771
f 705 772 706
f 705 771 773
f 705 773 772
f 706 772 718
f 706 718 707
f 708 714 774
f 708 774 775
f 708 775 776
f 708 776 709
f 710 715 777
f 710 777 711
f 711 777 778
f 711 778 712
f 712 779 713
f 712 778 780
f 712 780 779
f 713 779 781
f 713 781 774
f 713 774 714
f 715 716 782
f 715 782 783
f 715 783 777
f 716 717 784
f 716 784 782
f 717 723 785
f 717 785 784
f 718 786 787
f 718 787 719
f 718 772 788
f 718 788 786
f 719 789 720
f 719 787 789
f 720 789 787
f 720 787 790
f 720 790 791
f 720 791 792
f 720 792 793
f 720 793 794
f 720 794 721
f 721 794 722
f 722 794 785
f 722 785 723
f 724 795 796
f 724 796 779
f 724 779 797
f 724 797 728
f 724 728 726
f 724 725 798
f 724 798 795
f 726 728 727
f 728 797 779
f 728 779 799
f 728 799 800
f 728 800 729
f 729 800 801
f 729 801 730
f 730 801 802
f 730 802 803
f 730 803 731
f 731 803 732
f 732 803 804
f 732 804 805
f 732 805 733
f 733 805 734
f 734 805 806
f 734 806 807
f 734 807 735
f 735 807 736
f 736 807 808
f 736 808 809
f 736 809 737
f 737 809 739
f 738 739 810
f 738 810 740
f 739 809 811
f 739 811 810
f 740 812 741
f 740 810 874
f 740 874 812
f 741 812 743
f 742 744 813
f 742 813 814
f 742 814 745
f 743 812 815
f 743 815 744
f 744 815 816
f 744 816 813
f 745 814 746
f 746 814 817
f 746 817 747
f 747 818 748
f 747 817 819
f 747 819 818
f 748 820 749
f 748 818 820
f 749 821 822
f 749 822 751
f 749 751 750
f 749 820 821
f 751 823 824
f 751 822 823
f 753 825 756
f 754 826 760
f 754 755 827
f 754 827 828
f 754 828 826
f 755 756 825
f 755 825 827
f 757 829 830
f 757 830 758
f 757 761 829
f 758 830 831
f 758 831 759
f 759 831 762
f 760 832 833
f 760 833 761
f 760 826 832
f 761 833 829
f 762 831 834
f 762 834 835
f 762 835 836
f 762 836 763
f 763 836 837
f 763 837 764
f 764 838 839
f 764 839 765
f 764 837 838
f 765 839 766
f 766 840 770
f 766 839 840
f 767 770 841
f 767 841 842
f 767 842 843
f 767 843 768
f 768 843 771
f 768 771 769
f 770 840 844
f 770 844 841
f 771 843 773
f 772 773 845
f 772 845 788
f 773 843 846
f 773 846 847
f 773 847 845
f 774 781 795
f 774 795 848
f 774 848 849
f 774 849 775
f 777 783 850
f 777 850 778
f 778 850 780
f 779 780 799
f 779 796 795
f 779 795 781
f 780 850 851
f 780 851 799
f 782 784 783
f 783 784 852
f 783 852 850
f 784 785 853
f 784 853 852
f 785 794 853
f 786 854 855
f 786 855 856
f 786 856 857
f 786 857 858
f 786 858 787
f 786 788 854
f 787 858 790
f 788 845 855
f 788 855 854
f 790 858 859
f 790 859 860
f 790 860 791
f 791 860 861
f 791 861 792
f 792 853 793
f 792 861 862
f 792 862 863
f 792 863 853
f 793 853 794
f 795 798 864
f 795 864 848
f 799 851 800
f 800 851 865
f 800 865 801
f 801 865 802
f 802 804 803
f 802 865 866
f 802 866 862
f 802 862 867
f 802 867 804
f 804 867 868
f 804 868 869
f 804 869 805
f 805 869 806
f 806 870 807
f 806 869 871
f 806 871 870
f 807 870 808
f 808 870 872
f 808 872 873
f 808 873 809
f 809 873 811
f 810 811 875
f 810 875 876
f 810 876 874
f 811 873 875
f 812 874 815
f 813 816 877
f 813 877 817
f 813 817 814
f 815 874 878
f 815 878 816
f 816 878 879
f 816 879 880
f 816 880 877
f 817 877 881
f 817 881 819
f 818 882 820
f 818 819 883
f 818 883 884
f 818 884 882
f 819 881 885
f 819 885 886
f 819 886 883
f 820 882 887
f 820 887 888
f 820 888 889
f 820 889 821
f 821 889 890
f 821 890 891
f 821 891 824
f 821 824 823
f 821 823 822
f 825 892 827
f 826 893 832
f 826 828 894
f 826 894 893
f 827 892 828
f 828 892 895
f 828 895 896
f 828 896 894
f 829 897 830
f 829 833 898
f 829 898 897
f 830 897 899
f 830 899 831
f 831 899 834
f 832 900 833
f 832 893 901
f 832 901 900
f 833 902 898
f 833 900 902
f 834 899 903
f 834 903 904
f 834 904 835
f 835 905 837
f 835 837 836
f 835 904 905
f 837 905 906
f 837 906 838
f 838 907 839
f 838 906 907
f 839 907 840
f 840 907 908
f 840 908 844
f 841 909 910
f 841 910 842
f 841 844 911
f 841 911 909
f 842 910 847
f 842 847 846
f 842 846 843
f 844 908 912
f 844 912 911
f 845 847 913
f 845 913 914
f 845 914 915
f 845 915 855
f 847 910 913
f 850 852 916
f 850 916 865
f 850 865 851
f 852 853 863
f 852 863 916
f 855 915 917
f 855 917 856
f 856 918 919
f 856 919 920
f 856 920 857
f 856 917 921
f 856 921 918
f 857 920 858
f 858 920 922
f 858 922 859
f 859 922 923
f 859 923 924
f 859 924 861
f 859 861 860
f 861 924 868
f 861 868 862
f 862 868 867
f 862 866 863
f 863 866 865
f 863 865 916
f 868 924 869
f 869 924 871
f 870 871 923
f 870 923 872
f 871 924 923
f 872 923 922
f 872 922 925
f 872 925 873
f 873 926 875
f 873 925 926
f 874 876 927
f 874 927 878
f 875 926 876
f 876 926 928
f 876 928 927
f 877 880 929
f 877 929 881
f 878 927 879
f 879 930 880
f 879 927 931
f 879 931 932
f 879 932 933
f 879 933 930
f 880 930 929
f 881 929 934
f 881 934 885
f 882 935 887
f 882 884 935
f 883 886 936
f 883 936 937
f 883 937 884
f 884 937 938
f 884 938 939
f 884 939 935
f 885 934 940
f 885 940 886
f 886 940 941
f 886 941 936
f 887 935 942
f 887 942 943
f 887 943 944
f 887 944 888
f 888 945 946
f 888 946 947
f 888 947 890
f 888 890 889
f 888 944 945
f 890 947 948
f 890 948 891
f 891 948 949
f 891 949 950
f 893 894 901
f 894 951 901
f 894 896 952
f 894 952 951
f 897 953 954
f 897 954 899
f 897 898 953
f 898 902 955
f 898 955 953
f 899 954 903
f 900 956 902
f 900 901 956
f 901 957 956
f 901 951 958
f 901 958 957
f 902 959 955
f 902 956 959
f 903 960 961
f 903 961 904
f 903 954 960
f 904 961 962
f 904 962 905
f 905 962 906
f 906 962 963
f 906 963 964
f 906 964 908
f 906 908 907
f 908 964 965
f 908 965 966
f 908 966 912
f 909 911 967
f 909 967 968
f 909 968 913
f 909 913 910
f 911 912 966
f 911 966 969
f 911 969 967
f 913 968 921
f 913 921 915
f 913 915 914
f 915 921 917
f 918 921 970
f 918 970 971
f 918 971 972
f 918 972 919
f 919 972 973
f 919 973 974
f 919 974 975
f 919 975 920
f 920 975 925
f 920 925 922
f 921 968 970
f 925 975 926
f 926 975 928
f 927 928 931
f 928 975 974
f 928 974 973
f 928 973 931
f 929 930 976
f 929 976 934
f 930 933 977
f 930 977 976
f 931 973 932
f 932 978 933
f 932 973 972
f 932 972 971
f 932 971 978
f 933 978 977
f 934 976 979
f 934 979 940
f 935 939 942
f 936 941 980
f 936 980 981
f 936 981 982
f 936 982 983
f 936 983 938
f 936 938 937
f 938 983 984
f 938 984 939
f 939 985 942
f 939 984 985
f 940 979 986
f 940 986 980
f 940 980 941
f 942 985 943
f 943 985 987
f 943 987 944
f 944 987 988
f 944 988 989
f 944 989 990
f 944 990 946
f 944 946 945
f 946 990 947
f 947 990 991
f 947 991 992
f 947 992 993
f 947 993 948
f 948 994 995
f 948 995 949
f 948 993 994
f 949 995 996
f 949 996 997
f 949 997 950
f 951 998 958
f 951 952 999
f 951 999 1000
f 951 1000 998
f 953 955 1001
f 953 1001 954
f 954 1001 1002
f 954 1002 960
f 955 1003 1004
f 955 1004 1001
f 955 959 1005
f 955 1005 1003
f 956 957 1006
f 956 1006 1007
f 956 1007 959
f 957 1008 1006
f 957 958 1009
f 957 1009 1008
f 958 998 1010
f 958 1010 1011
f 958 1011 1009
f 959 1007 1012
f 959 1012 1005
f 960 1002 961
f 961 1013 1014
f 961 1014 963
f 961 963 962
f 961 1002 1015
f 961 1015 1016
f 961 1016 1013
f 963 1017 1018
f 963 1018 964
f 963 1014 1019
f 963 1019 1017
f 964 1018 965
f 965 1018 1020
f 965 1020 966
f 966 1021 969
f 966 1020 1022
f 966 1022 1021
f 967 969 1021
f 967 1021 1023
f 967 1023 1024
f 967 1024 968
f 968 1024 970
f 970 1024 1025
f 970 1025 971
f 971 1025 978
f 976 977 1026
f 976 1026 979
f 977 978 1027
f 977 1027 1026
f 978 1025 1027
f 979 1026 1028
f 979 1028 986
f 980 986 1028
f 980 1028 1029
f 980 1029 1030
f 980 1030 1031
f 980 1031 1032
f 980 1032 1033
f 980 1033 981
f 981 1033 982
f 982 1033 1034
f 982 1034 1035
f 982 1035 1036
f 982 1036 1037
f 982 1037 983
f 983 1037 984
f 984 1037 1038
f 984 1038 1039
f 984 1039 985
f 985 1039 1040
f 985 1040 988
f 985 988 987
f 988 1040 1041
f 988 1041 989
f 989 1042 990
f 989 1041 1042
f 990 1042 992
f 990 992 991
f 992 1042 1043
f 992 1043 1044
f 992 1044 993
f 993 1044 1045
f 993 1045 994
f 994 1046 995
f 994 1045 1046
f 998 1000 1047
f 998 1047 1048
f 998 1048 1049
f 998 1049 1010
f 1001 1004 1015
f 1001 1015 1002
f 1003 1005 1050
f 1003 1050 1051
f 1003 1051 1052
f 1003 1052 1015
f 1003 1015 1004
f 1005 1012 1050
f 1006 1053 1054
f 1006 1054 1055
f 1006 1055 1012
f 1006 1012 1007
f 1006 1008 1009
f 1006 1009 1056
f 1006 1056 1057
f 1006 1057 1053
f 1009 1011 1056
f 1010 1058 1059
f 1010 1059 1011
f 1010 1049 1060
f 1010 1060 1058
f 1011 1059 1056
f 1012 1055 1061
f 1012 1061 1050
f 1013 1032 1062
f 1013 1062 1019
f 1013 1019 1014
f 1013 1016 1015
f 1013 1015 1063
f 1013 1063 1064
f 1013 1064 1032
f 1015 1052 1035
f 1015 1035 1063
f 1017 1019 1062
f 1017 1062 1032
f 1017 1032 1065
f 1017 1065 1030
f 1017 1030 1066
f 1017 1066 1022
f 1017 1022 1020
f 1017 1020 1018
f 1021 1022 1067
f 1021 1067 1068
f 1021 1068 1069
f 1021 1069 1023
f 1022 1066 1067
f 1023 1069 1024
f 1024 1069 1025
f 1025 1069 1027
f 1026 1027 1069
f 1026 1069 1070
f 1026 1070 1028
f 1028 1070 1071
f 1028 1071 1030
f 1028 1030 1029
f 1030 1065 1031
f 1030 1071 1067
f 1030 1067 1066
f 1031 1065 1032
f 1032 1064 1034
f 1032 1034 1033
f 1034 1064 1035
f 1035 1064 1063
f 1035 1052 1072
f 1035 1072 1036
f 1036 1072 1038
f 1036 1038 1037
f 1038 1051 1073
f 1038 1073 1040
f 1038 1040 1039
f 1038 1072 1051
f 1040 1061 1074
f 1040 1074 1041
f 1040 1073 1061
f 1041 1074 1075
f 1041 1075 1043
f 1041 1043 1042
f 1043 1076 1044
f 1043 1075 1053
f 1043 1053 1076
f 1044 1076 1045
f 1045 1076 1077
f 1045 1077 1078
f 1045 1078 1079
f 1045 1079 1046
f 1046 1079 1080
f 1050 1061 1051
f 1051 1072 1052
f 1051 1061 1073
f 1053 1075 1054
f 1053 1057 1076
f 1054 1075 1074
f 1054 1074 1061
f 1054 1061 1055
f 1056 1059 1077
f 1056 1077 1057
f 1057 1077 1076
f 1058 1060 1081
f 1058 1081 1078
f 1058 1078 1059
f 1059 1078 1077
f 1067 1071 1068
f 1068 1071 1070
f 1068 1070 1069
f 1078 1081 1082
f 1078 1082 1083
f 1078 1083 1079
f 1079 1083 1080

