# https://github.com/mikedh/trimesh
v -0.04184489 0.05082416 0.01043271
v -0.04184489 0.05220361 0.01046465
v -0.04184489 0.04897955 0.01059731
v -0.05585495 0.05220361 0.01126306
v -0.04184489 0.05220361 0.03534791
v -0.04184489 0.04703594 0.01077910
v -0.05439726 0.04522482 0.01185019
v -0.05627143 0.04522482 0.01199022
v -0.05627143 0.05220361 0.01129499
v -0.04184489 0.05084818 0.03549285
v -0.05439726 0.05220361 0.03546829
v -0.04184489 0.04490744 0.01103459
v -0.05627143 0.04476694 0.01203690
v -0.04184489 0.04476694 0.01105179
v -0.05769153 0.05220361 0.01140800
v -0.04184489 0.04897300 0.03552970
v -0.05627143 0.05220361 0.03542898
v -0.05439726 0.04522482 0.03527667
v -0.04184489 0.04840083 0.03551987
v -0.05777251 0.04476694 0.01221623
v -0.04184489 0.04476694 0.03519560
v -0.05818032 0.05220361 0.01147187
v -0.05673709 0.05220361 0.03537985
v -0.05814272 0.04522482 0.03501872
v -0.05627143 0.04522482 0.03521525
v -0.05507693 0.04476694 0.03517349
v -0.05439726 0.04476694 0.03519314
v -0.04184489 0.04652638 0.03536756
v -0.05835964 0.04476694 0.01232924
v -0.05936904 0.05220361 0.01163892
v -0.05835386 0.05220361 0.03513418
v -0.05860837 0.04476694 0.03493028
v -0.05918682 0.04522482 0.03485167
v -0.05705523 0.04476694 0.03508014
v -0.05627143 0.04476694 0.03513418
v -0.06001690 0.04476694 0.01282793
v -0.06001690 0.04522482 0.01273704
v -0.05877612 0.04522482 0.01238328
v -0.06189108 0.04522482 0.01350597
v -0.06338059 0.05220361 0.01340279
v -0.06200098 0.05220361 0.03412696
v -0.05915501 0.04476694 0.03484184
v -0.06012391 0.04522482 0.03454950
v -0.06188819 0.04476694 0.01358458
v -0.06298435 0.04476694 0.01409556
v -0.06355991 0.05220361 0.01349614
v -0.06344711 0.05220361 0.03344647
v -0.06189108 0.04522482 0.03379286
v -0.06233359 0.04476694 0.03349561
v -0.06356858 0.04476694 0.01459180
v -0.07051866 0.05220361 0.01775840
v -0.06951794 0.05220361 0.01701158
v -0.06551218 0.05220361 0.03185457
v -0.06307979 0.04522482 0.03312466
v -0.06304219 0.04476694 0.03309763
v -0.06488745 0.04476694 0.01584223
v -0.07139212 0.05220361 0.01888600
v -0.06752808 0.05220361 0.03009562
v -0.06401977 0.04522482 0.03234590
v -0.06433503 0.04476694 0.03197495
v -0.06539359 0.04476694 0.01660378
v -0.06639720 0.04476694 0.01840695
v -0.06679344 0.04476694 0.01927660
v -0.06711159 0.04476694 0.02033541
v -0.06719836 0.04476694 0.02074076
v -0.06744709 0.04476694 0.02218771
v -0.06752229 0.04476694 0.02263482
v -0.06753386 0.04476694 0.02404984
v -0.06753386 0.04476694 0.02450678
v -0.06734008 0.04476694 0.02592426
v -0.06726199 0.04476694 0.02638856
v -0.06684261 0.04476694 0.02802468
v -0.06977825 0.05220361 0.02441834
v -0.06856350 0.05220361 0.02825806
v -0.06651868 0.04522482 0.02904418
v -0.06588238 0.04522482 0.03013247
v -0.06497133 0.04476694 0.03137062
v -0.06660255 0.04476694 0.02865358
v -0.06573777 0.04476694 0.03012510
f 1 2 5
f 1 5 10
f 1 10 16
f 1 16 19
f 1 19 28
f 1 28 21
f 1 21 14
f 1 14 12
f 1 12 6
f 1 6 3
f 1 3 4
f 1 4 2
f 2 4 9
f 2 9 15
f 2 15 22
f 2 22 30
f 2 30 40
f 2 40 46
f 2 46 52
f 2 52 51
f 2 51 57
f 2 57 73
f 2 73 74
f 2 74 58
f 2 58 53
f 2 53 47
f 2 47 41
f 2 41 31
f 2 31 23
f 2 23 17
f 2 17 11
f 2 11 5
f 3 6 4
f 4 7 8
f 4 8 9
f 4 6 7
f 5 11 10
f 6 12 7
f 7 13 8
f 7 12 14
f 7 14 13
f 8 13 15
f 8 15 9
f 10 11 16
f 11 17 18
f 11 18 19
f 11 19 16
f 13 20 15
f 13 14 21
f 13 21 27
f 13 27 26
f 13 26 35
f 13 35 34
f 13 34 32
f 13 32 42
f 13 42 49
f 13 49 55
f 13 55 60
f 13 60 77
f 13 77 79
f 13 79 78
f 13 78 72
f 13 72 71
f 13 71 70
f 13 70 69
f 13 69 68
f 13 68 67
f 13 67 66
f 13 66 65
f 13 65 64
f 13 64 63
f 13 63 62
f 13 62 61
f 13 61 56
f 13 56 50
f 13 50 45
f 13 45 44
f 13 44 36
f 13 36 29
f 13 29 20
f 15 20 22
f 17 23 24
f 17 24 25
f 17 25 18
f 18 25 26
f 18 26 27
f 18 27 21
f 18 21 28
f 18 28 19
f 20 29 30
f 20 30 22
f 23 31 24
f 24 32 25
f 24 31 33
f 24 33 32
f 25 32 34
f 25 34 35
f 25 35 26
f 29 36 37
f 29 37 38
f 29 38 30
f 30 37 39
f 30 39 40
f 30 38 37
f 31 41 33
f 32 33 42
f 33 41 43
f 33 43 42
f 36 44 37
f 37 44 39
f 39 44 45
f 39 45 40
f 40 45 46
f 41 47 48
f 41 48 43
f 42 43 49
f 43 48 49
f 45 50 51
f 45 51 52
f 45 52 46
f 47 53 54
f 47 54 48
f 48 54 55
f 48 55 49
f 50 56 51
f 51 56 57
f 53 58 59
f 53 59 54
f 54 59 55
f 55 59 60
f 56 61 57
f 57 62 63
f 57 63 64
f 57 64 65
f 57 65 66
f 57 66 67
f 57 67 68
f 57 68 69
f 57 69 70
f 57 70 71
f 57 71 72
f 57 72 73
f 57 61 62
f 58 74 75
f 58 75 76
f 58 76 77
f 58 77 59
f 59 77 60
f 72 78 74
f 72 74 73
f 74 78 75
f 75 78 76
f 76 78 79
f 76 79 77

