# https://github.com/mikedh/trimesh
v -0.01396051 -0.01851223 0.05619375
v -0.01394207 -0.01737511 0.05619375
v -0.01395524 -0.01878399 0.05451695
v -0.01394207 -0.02159104 0.05619375
v -0.01393944 -0.01737511 0.05592301
v -0.01391573 -0.01710692 0.05619375
v -0.01393417 -0.01878399 0.05311089
v -0.01393944 -0.02159104 0.05592301
v -0.01386833 -0.02299993 0.05311089
v -0.01387886 -0.02299993 0.05451695
v -0.01389993 -0.02272816 0.05619375
v -0.01379195 -0.01596980 0.05619375
v -0.01391047 -0.01737511 0.05451695
v -0.01387096 -0.01878399 0.05029876
v -0.01384726 -0.02299993 0.05170482
v -0.01373400 -0.02440524 0.05170482
v -0.01374717 -0.02440524 0.05311089
v -0.01388676 -0.02299993 0.05592301
v -0.01388676 -0.02299993 0.05619375
v -0.01374717 -0.01570161 0.05619375
v -0.01378404 -0.01596980 0.05592301
v -0.01382882 -0.01878399 0.04889051
v -0.01386569 -0.01737511 0.05311089
v -0.01381038 -0.02299993 0.05029876
v -0.01370767 -0.02440524 0.05029876
v -0.01304922 -0.02862475 0.05311089
v -0.01374717 -0.02440524 0.05619375
v -0.01377614 -0.02413347 0.05619375
v -0.01355490 -0.01456449 0.05619375
v -0.01354700 -0.01456449 0.05592301
v -0.01373927 -0.01596980 0.05451695
v -0.01381038 -0.01737511 0.05170482
v -0.01375244 -0.01737511 0.05029876
v -0.01369186 -0.01737511 0.04889051
v -0.01376824 -0.01878399 0.04748445
v -0.01365499 -0.02299993 0.04607839
v -0.01376561 -0.02299993 0.04889051
v -0.01368923 -0.01596980 0.05311089
v -0.01366816 -0.02440524 0.04889051
v -0.01322831 -0.02639341 0.04326844
v -0.01301761 -0.02862475 0.05170482
v -0.01247241 -0.03003006 0.04467451
v -0.01262781 -0.03003006 0.05170482
v -0.01264624 -0.03003006 0.05311089
v -0.01304658 -0.02862475 0.05451695
v -0.01301761 -0.02862475 0.05592301
v -0.01305185 -0.02837444 0.05619375
v -0.01351013 -0.01434278 0.05619375
v -0.01349433 -0.01456449 0.05451695
v -0.01363129 -0.01596980 0.05170482
v -0.01362602 -0.01737511 0.04748445
v -0.01369186 -0.01878399 0.04607839
v -0.01338107 -0.02159104 0.04045632
v -0.01352857 -0.02299993 0.04326844
v -0.01359441 -0.02299993 0.04467451
v -0.01350223 -0.02440524 0.04467451
v -0.01356017 -0.02440524 0.04607839
v -0.01361812 -0.02440524 0.04748445
v -0.01331260 -0.02568897 0.04326844
v -0.01320198 -0.02611092 0.04186238
v -0.01284378 -0.02721586 0.03904807
v -0.01240920 -0.03003006 0.04326844
v -0.01297547 -0.02862475 0.05029876
v -0.01199043 -0.03112784 0.04186238
v -0.01201677 -0.03120652 0.04326844
v -0.01204310 -0.03127446 0.04467451
v -0.01212739 -0.03143537 0.05029876
v -0.01263308 -0.03003006 0.05451695
v -0.01213792 -0.03143537 0.05170482
v -0.01300707 -0.02862475 0.05619375
v -0.01258830 -0.03003006 0.05592301
v -0.01332576 -0.01351676 0.05619375
v -0.01324938 -0.01384216 0.05228995
v -0.01343638 -0.01456449 0.05311089
v -0.01336000 -0.01447151 0.05177469
v -0.01334683 -0.01477904 0.05029876
v -0.01356281 -0.01596980 0.05029876
v -0.01354437 -0.01737511 0.04607839
v -0.01361285 -0.01878399 0.04467451
v -0.01349169 -0.01596980 0.04889051
v -0.01335474 -0.01610210 0.04607839
v -0.01328889 -0.02164110 0.03894327
v -0.01344955 -0.02299993 0.04186238
v -0.01325202 -0.02076144 0.03829919
v -0.01325202 -0.02120127 0.03829919
v -0.01343638 -0.02440524 0.04326844
v -0.01327309 -0.02541005 0.04186238
v -0.01315720 -0.02569612 0.04055457
v -0.01304395 -0.02581055 0.03904807
v -0.01255670 -0.02675100 0.03388887
v -0.01248031 -0.02721586 0.03388887
v -0.01229858 -0.02815631 0.03388887
v -0.01245661 -0.02862475 0.03764201
v -0.01193775 -0.02967605 0.03388887
v -0.01187191 -0.02990848 0.03388887
v -0.01171651 -0.03037691 0.03388887
v -0.01169018 -0.03171428 0.04045632
v -0.01171651 -0.03183229 0.04186238
v -0.01174812 -0.03190738 0.04326844
v -0.01177446 -0.03197890 0.04467451
v -0.01185347 -0.03217199 0.04953678
v -0.01185874 -0.03218272 0.05029876
v -0.01207208 -0.03156767 0.05308687
v -0.01211422 -0.03139246 0.05451695
v -0.01265941 -0.02976187 0.05619375
v -0.01256986 -0.03003006 0.05619375
v -0.01208524 -0.03132452 0.05592301
v -0.01315193 -0.01281232 0.05619375
v -0.01314667 -0.01283735 0.05592301
v -0.01307029 -0.01307336 0.05311089
v -0.01306238 -0.01328433 0.05177469
v -0.01322568 -0.01393871 0.05135112
v -0.01324412 -0.01526893 0.04678360
v -0.01338371 -0.01583034 0.04734472
v -0.01319671 -0.01407817 0.05029876
v -0.01334683 -0.01728929 0.04324006
v -0.01330996 -0.01767190 0.04186238
v -0.01352066 -0.01878399 0.04326844
v -0.01330206 -0.01636672 0.04467451
v -0.01316774 -0.01566585 0.04467451
v -0.01323885 -0.02214172 0.03840617
v -0.01334947 -0.02299993 0.04045632
v -0.01280164 -0.02440524 0.03388887
v -0.01324938 -0.02377946 0.03968560
v -0.01327309 -0.02430869 0.04055457
v -0.01335474 -0.02440524 0.04186238
v -0.01327045 -0.01791506 0.04106328
v -0.01289646 -0.02018931 0.03482988
v -0.01293333 -0.02159104 0.03482988
v -0.01293333 -0.02299993 0.03482988
v -0.01324675 -0.02514902 0.04108948
v -0.01268048 -0.02581055 0.03388887
v -0.01273053 -0.02534569 0.03388887
v -0.01219587 -0.02862475 0.03388887
v -0.01128984 -0.03143537 0.03388887
v -0.01109230 -0.03284425 0.03904807
v -0.01117922 -0.03284425 0.04045632
v -0.01125033 -0.03284425 0.04186238
v -0.01131618 -0.03284425 0.04326844
v -0.01148737 -0.03288716 0.05029876
v -0.01185084 -0.03216484 0.05170482
v -0.01184294 -0.03215054 0.05260217
v -0.01182977 -0.03212551 0.05353882
v -0.01181660 -0.03209690 0.05451695
v -0.01216163 -0.03107421 0.05619375
v -0.01207208 -0.03128876 0.05619375
v -0.01178763 -0.03202539 0.05592301
v -0.01280691 -0.01175029 0.05619375
v -0.01279374 -0.01175029 0.05592301
v -0.01271736 -0.01175029 0.05451695
v -0.01293596 -0.01315560 0.05029876
v -0.01315193 -0.01427484 0.04889051
v -0.01313350 -0.01462885 0.04734472
v -0.01302024 -0.01456449 0.04607839
v -0.01321778 -0.01539766 0.04607839
v -0.01283588 -0.01315560 0.04889051
v -0.01326519 -0.01656339 0.04368983
v -0.01319671 -0.01696746 0.04186238
v -0.01289382 -0.01456449 0.04467451
v -0.01298864 -0.01596980 0.04186238
v -0.01312560 -0.01604489 0.04324006
v -0.01322831 -0.01676006 0.04275318
v -0.01282534 -0.02393680 0.03388887
v -0.01321778 -0.02471634 0.04015284
v -0.01268575 -0.01878399 0.03388887
v -0.01277793 -0.01878399 0.03482988
v -0.01247505 -0.01737511 0.03388887
v -0.01279901 -0.02018931 0.03388887
v -0.01283324 -0.02159104 0.03388887
v -0.01284378 -0.02253149 0.03388887
v -0.01282271 -0.02112618 0.03388887
v -0.01284378 -0.02299993 0.03388887
v -0.01090530 -0.03226854 0.03388887
v -0.01070777 -0.03269049 0.03388887
v -0.01034957 -0.03339494 0.03388887
v -0.01058398 -0.03377756 0.03904807
v -0.01070250 -0.03395635 0.04326844
v -0.01147157 -0.03286928 0.05170482
v -0.01078415 -0.03402786 0.05029876
v -0.01075518 -0.03398853 0.05311089
v -0.01152951 -0.03270837 0.05308687
v -0.01141363 -0.03284425 0.05451695
v -0.01176392 -0.03199320 0.05619375
v -0.01130301 -0.03284425 0.05592301
v -0.01270155 -0.01148210 0.05619375
v -0.01223801 -0.01034498 0.05619375
v -0.01222220 -0.01034498 0.05592301
v -0.01263044 -0.01175029 0.05311089
v -0.01253826 -0.01175029 0.05170482
v -0.01273316 -0.01315560 0.04748445
v -0.01260674 -0.01315560 0.04607839
v -0.01275686 -0.01456449 0.04326844
v -0.01208788 -0.01591258 0.03388887
v -0.01235653 -0.01691025 0.03388887
v -0.01260674 -0.01456449 0.04186238
v -0.00973853 -0.03424956 0.03388887
v -0.01007829 -0.03447842 0.03904807
v -0.01021261 -0.03466079 0.04326844
v -0.01027583 -0.03473946 0.04889051
v -0.01073147 -0.03393847 0.05451695
v -0.01021525 -0.03469297 0.05311089
v -0.01137412 -0.03265116 0.05619375
v -0.01064983 -0.03381331 0.05592301
v -0.01061822 -0.03377398 0.05619375
v -0.01216426 -0.01018049 0.05619375
v -0.01210105 -0.01049874 0.05311089
v -0.01186927 -0.00958332 0.05592301
v -0.01208788 -0.01024485 0.05462830
v -0.01204574 -0.01060959 0.05170482
v -0.01243291 -0.01175029 0.05029876
v -0.01231439 -0.01175029 0.04889051
v -0.01244344 -0.01315560 0.04467451
v -0.01210105 -0.01191120 0.04607839
v -0.01201413 -0.01209715 0.04467451
v -0.01199833 -0.01565155 0.03388887
v -0.01226961 -0.01315560 0.04326844
v -0.01188771 -0.01534760 0.03388887
v -0.00911696 -0.03506129 0.03388887
v -0.00934610 -0.03530087 0.03764201
v -0.00944881 -0.03548323 0.04186238
v -0.00950939 -0.03548323 0.04326844
v -0.00957260 -0.03552614 0.04889051
v -0.00951202 -0.03548681 0.05311089
v -0.01017574 -0.03464291 0.05451695
v -0.00947252 -0.03544032 0.05451695
v -0.01002035 -0.03451776 0.05592301
v -0.01000718 -0.03445339 0.05619375
v -0.01187981 -0.00956902 0.05619375
v -0.01184030 -0.00963338 0.05517195
v -0.01146367 -0.00886457 0.05619375
v -0.01145313 -0.00888245 0.05592301
v -0.01180343 -0.00970847 0.05423530
v -0.01175865 -0.00979787 0.05311089
v -0.01170071 -0.00990872 0.05170482
v -0.01199043 -0.01073475 0.05029876
v -0.01192458 -0.01087420 0.04889051
v -0.01187454 -0.01097790 0.04790147
v -0.01212212 -0.01163944 0.04745388
v -0.01181396 -0.01109591 0.04696482
v -0.01175602 -0.01120676 0.04607839
v -0.01191668 -0.01229739 0.04326844
v -0.01165857 -0.01139628 0.04467451
v -0.01206944 -0.01308766 0.04192570
v -0.01184820 -0.01524032 0.03388887
v -0.00889308 -0.03529729 0.03388887
v -0.00841110 -0.03576573 0.03388887
v -0.00862443 -0.03600174 0.03764201
v -0.00883514 -0.03618768 0.04186238
v -0.00887728 -0.03622701 0.04889051
v -0.00884567 -0.03618768 0.05311089
v -0.00928815 -0.03519717 0.05619375
v -0.00872715 -0.03614477 0.05451695
v -0.01132935 -0.00865718 0.05619375
v -0.01074991 -0.00780612 0.05592301
v -0.01122399 -0.00893967 0.05311089
v -0.01162433 -0.01003388 0.05029876
v -0.01108704 -0.00893967 0.05170482
v -0.01153478 -0.01016976 0.04889051
v -0.01150581 -0.01044510 0.04745388
v -0.01125560 -0.01034498 0.04607839
v -0.01185610 -0.01241540 0.04243660
v -0.01103699 -0.01034498 0.04467451
v -0.01154532 -0.01159295 0.04326844
v -0.01165594 -0.01481122 0.03388887
v -0.00770787 -0.03643084 0.03388887
v -0.00783956 -0.03654527 0.03623595
v -0.00792121 -0.03659533 0.03764201
v -0.00806344 -0.03667399 0.04045632
v -0.00813191 -0.03670618 0.04186238
v -0.00721799 -0.03752862 0.04748445
v -0.00815825 -0.03682776 0.04748445
v -0.00814245 -0.03674909 0.05311089
v -0.00909325 -0.03536166 0.05619375
v -0.00802393 -0.03663109 0.05451695
v -0.00827677 -0.03599101 0.05619375
v -0.01076045 -0.00778824 0.05619375
v -0.01022052 -0.00708380 0.05619375
v -0.01046546 -0.00819231 0.05070486
v -0.01084473 -0.00881451 0.05025946
v -0.01083156 -0.00905052 0.04889051
v -0.01073674 -0.00920071 0.04748445
v -0.01063402 -0.00936519 0.04607839
v -0.01178236 -0.01256916 0.04149777
v -0.01155585 -0.01459667 0.03388887
v -0.01147420 -0.01186829 0.04192570
v -0.01076835 -0.01027704 0.04337543
v -0.01072094 -0.01063462 0.04186238
v -0.01051550 -0.00953326 0.04467451
v -0.00743132 -0.03660963 0.03388887
v -0.00691510 -0.03715316 0.03623595
v -0.00698621 -0.03737844 0.04045632
v -0.00705206 -0.03741062 0.04186238
v -0.00700992 -0.03744996 0.05311089
v -0.00634883 -0.03784688 0.04186238
v -0.00651476 -0.03791124 0.04748445
v -0.00636464 -0.03785045 0.05170482
v -0.00767627 -0.03639508 0.05619375
v -0.00623031 -0.03777178 0.05384012
v -0.00678604 -0.03733911 0.05439250
v -0.00704416 -0.03677769 0.05619375
v -0.01020471 -0.00710525 0.05592301
v -0.01041015 -0.00826383 0.04976603
v -0.00951729 -0.00632929 0.05619375
v -0.00950149 -0.00634717 0.05592301
v -0.00940931 -0.00644372 0.05451695
v -0.01034430 -0.00834965 0.04889051
v -0.01022052 -0.00849984 0.04748445
v -0.01080259 -0.01324142 0.03388887
v -0.01044176 -0.00962623 0.04391689
v -0.01019154 -0.01237249 0.03388887
v -0.01034167 -0.01257631 0.03388887
v -0.01033377 -0.00976569 0.04297806
v -0.01007566 -0.00866075 0.04607839
v -0.00691510 -0.03693503 0.03388887
v -0.00599064 -0.03767166 0.03623595
v -0.00628299 -0.03780397 0.04045632
v -0.00630669 -0.03781469 0.05311089
v -0.00550865 -0.03808646 0.04045632
v -0.00550865 -0.03814725 0.04186238
v -0.00550865 -0.03831531 0.04748445
v -0.00550865 -0.03828313 0.04889051
v -0.00550865 -0.03823664 0.05029876
v -0.00550865 -0.03819016 0.05170482
v -0.00550865 -0.03810434 0.05311089
v -0.00422863 -0.03797918 0.05619375
v -0.00542700 -0.03755723 0.05619375
v -0.00683609 -0.03688497 0.05619375
v -0.00991500 -0.00741635 0.05170482
v -0.00931449 -0.00654385 0.05311089
v -0.00991763 -0.00764521 0.05025946
v -0.00910379 -0.00675482 0.05029876
v -0.00903794 -0.00681561 0.04952586
v -0.00952783 -0.00744138 0.04899095
v -0.00877456 -0.00562843 0.05619375
v -0.00875349 -0.00564273 0.05592301
v -0.00951729 -0.00773460 0.04748445
v -0.00937243 -0.00788837 0.04607839
v -0.00992290 -0.00882882 0.04467451
v -0.00971746 -0.00896112 0.04334268
v -0.00966479 -0.01171453 0.03388887
v -0.00908008 -0.01099221 0.03388887
v -0.00921967 -0.00804570 0.04467451
v -0.00551392 -0.03760014 0.03388887
v -0.00528741 -0.03795058 0.03623595
v -0.00410220 -0.03833677 0.03623595
v -0.00410220 -0.03852629 0.04045632
v -0.00410220 -0.03874084 0.04748445
v -0.00410220 -0.03872296 0.04889051
v -0.00410220 -0.03869078 0.05029876
v -0.00410220 -0.03862284 0.05170482
v -0.00410220 -0.03851199 0.05311089
v -0.00269576 -0.03837610 0.05619375
v -0.00921177 -0.00664754 0.05170482
v -0.00864024 -0.00573928 0.05451695
v -0.00852172 -0.00583940 0.05311089
v -0.00839529 -0.00594310 0.05170482
v -0.00892996 -0.00691216 0.04858703
v -0.00762359 -0.00541745 0.05097559
v -0.00840583 -0.00641154 0.04899095
v -0.00864024 -0.00552115 0.05619375
v -0.00805027 -0.00509562 0.05592301
v -0.00793701 -0.00518144 0.05451695
v -0.00781849 -0.00527084 0.05311089
v -0.00910115 -0.00816371 0.04370511
v -0.00835579 -0.01040934 0.03388887
v -0.00895366 -0.00829959 0.04276628
v -0.00879300 -0.00703016 0.04748445
v -0.00423389 -0.03803997 0.03388887
v -0.00382039 -0.03814725 0.03388887
v -0.00269576 -0.03843332 0.03388887
v -0.00269576 -0.03863714 0.03623595
v -0.00269576 -0.03870866 0.03764201
v -0.00269576 -0.03877660 0.03904807
v -0.00269576 -0.03883381 0.04045632
v -0.00205047 -0.03918424 0.04667007
v -0.00275897 -0.03903764 0.04748445
v -0.00275370 -0.03903764 0.04889051
v -0.00274316 -0.03902333 0.05029876
v -0.00200570 -0.03917352 0.05105419
v -0.00256407 -0.03900545 0.05159566
v -0.00269576 -0.03881236 0.05311089
v -0.00128931 -0.03856205 0.05619375
v -0.00769207 -0.00536739 0.05170482
v -0.00808977 -0.00646518 0.04748445
v -0.00691510 -0.00468798 0.05311089
v -0.00691510 -0.00488822 0.05170482
v -0.00698094 -0.00512781 0.05042321
v -0.00749190 -0.00550327 0.05003894
v -0.00807134 -0.00508132 0.05619375
v -0.00703362 -0.00437688 0.05619375
v -0.00700728 -0.00439118 0.05592301
v -0.00860073 -0.00718750 0.04607839
v -0.00773948 -0.00673694 0.04503476
v -0.00747610 -0.00973351 0.03388887
v -0.00841900 -0.00775248 0.04324880
v -0.00789751 -0.00661536 0.04607839
v -0.00128931 -0.03856920 0.03388887
v -0.00128931 -0.03874084 0.03623595
v -0.00128931 -0.03883381 0.03764201
v -0.00128931 -0.03890175 0.03904807
v -0.00176076 -0.03918424 0.04667007
v 0.00054118 -0.03918782 0.04889051
v -0.00205574 -0.03918424 0.04748445
v -0.00128931 -0.03896612 0.04045632
v 0.00011451 -0.03899115 0.04045632
v -0.00205047 -0.03918424 0.04889051
v -0.00203994 -0.03918067 0.05029876
v 0.00076769 -0.03917352 0.05120702
v 0.00022513 -0.03914133 0.05168736
v -0.00139729 -0.03912703 0.05159566
v -0.00128931 -0.03894824 0.05311089
v -0.00102066 -0.03856562 0.05619375
v -0.00678341 -0.00441621 0.05461738
v -0.00622504 -0.00400856 0.05515230
v -0.00611179 -0.00406578 0.05421565
v -0.00594850 -0.00413729 0.05311089
v -0.00660958 -0.00518860 0.04889051
v -0.00570092 -0.00424100 0.05170482
v -0.00731280 -0.00561412 0.04889051
v -0.00689930 -0.00429463 0.05619375
v -0.00633040 -0.00394777 0.05619375
v -0.00756301 -0.00686210 0.04409593
v -0.00707049 -0.00576073 0.04748445
v -0.00678604 -0.00586801 0.04618755
v -0.00702309 -0.00640439 0.04460901
v -0.00808187 -0.00789552 0.04186238
v -0.00639888 -0.00671906 0.04218115
v -0.00680448 -0.00934016 0.03388887
v 0.00011451 -0.03854775 0.03388887
v 0.00011451 -0.03885169 0.03764201
v 0.00011451 -0.03893751 0.03904807
v 0.00089675 -0.03918424 0.04781413
v 0.00092045 -0.03918782 0.04889051
v 0.00087831 -0.03918067 0.05029876
v 0.00083880 -0.03917352 0.05120702
v 0.00011451 -0.03857993 0.05619375
v -0.00568775 -0.00365098 0.05619375
v -0.00550865 -0.00359734 0.05592301
v -0.00558767 -0.00377971 0.05461738
v -0.00524527 -0.00382620 0.05311089
v -0.00636727 -0.00533163 0.04748445
v -0.00539013 -0.00432681 0.05038609
v -0.00550865 -0.00465937 0.04889051
v -0.00499770 -0.00393705 0.05170482
v -0.00484230 -0.00400141 0.05091446
v -0.00623031 -0.00541030 0.04673120
v -0.00599854 -0.00551400 0.04579237
v -0.00666226 -0.00656888 0.04326844
v -0.00615657 -0.00685137 0.04124232
v -0.00547705 -0.00870009 0.03388887
v 0.00058069 -0.03847980 0.03388887
v 0.00152096 -0.03855847 0.03623595
v 0.00152096 -0.03868720 0.03764201
v 0.00152096 -0.03877302 0.03904807
v 0.00142614 -0.03909843 0.04740148
v 0.00162367 -0.03908412 0.04889051
v 0.00158153 -0.03907697 0.05029876
v 0.00139190 -0.03906267 0.05168736
v 0.00038315 -0.03855132 0.05619375
v -0.00550865 -0.00356873 0.05619375
v -0.00410220 -0.00308242 0.05592301
v -0.00410220 -0.00325048 0.05451695
v -0.00457892 -0.00408366 0.04997781
v -0.00550865 -0.00494901 0.04748445
v -0.00410220 -0.00344716 0.05311089
v -0.00410220 -0.00366528 0.05170482
v -0.00410747 -0.00387626 0.05038609
v -0.00552182 -0.00522793 0.04618755
v -0.00506091 -0.00532090 0.04498672
v -0.00552182 -0.00562843 0.04458062
v -0.00550865 -0.00599674 0.04326844
v -0.00472905 -0.00544248 0.04405008
v -0.00449727 -0.00832820 0.03388887
v 0.00152096 -0.03834035 0.03388887
v 0.00196343 -0.03822234 0.03388887
v 0.00292740 -0.03817228 0.03623595
v 0.00292740 -0.03828313 0.03764201
v 0.00292740 -0.03844762 0.04045632
v 0.00292740 -0.03876587 0.04748445
v 0.00292740 -0.03877302 0.04889051
v 0.00292740 -0.03876587 0.05029876
v 0.00292740 -0.03870508 0.05170482
v 0.00292740 -0.03854775 0.05311089
v 0.00152096 -0.03884811 0.05311089
v 0.00152096 -0.03840471 0.05619375
v -0.00437085 -0.00315393 0.05619375
v -0.00410220 -0.00305739 0.05619375
v -0.00261674 -0.00274629 0.05619375
v -0.00269576 -0.00297157 0.05451695
v -0.00269576 -0.00316109 0.05311089
v -0.00364129 -0.00394777 0.04923766
v -0.00410747 -0.00416948 0.04881846
v -0.00410220 -0.00444124 0.04748445
v -0.00269576 -0.00337564 0.05170482
v -0.00410220 -0.00475234 0.04607839
v -0.00419702 -0.00515641 0.04458062
v -0.00379142 -0.00531733 0.04360468
v -0.00419702 -0.00554618 0.04318766
v -0.00382302 -0.00813152 0.03388887
v 0.00292740 -0.03795415 0.03388887
v 0.00383343 -0.03784688 0.03623595
v 0.00398619 -0.03791482 0.03764201
v 0.00433385 -0.03807573 0.04186238
v 0.00433385 -0.03827240 0.04748445
v 0.00433385 -0.03830101 0.04889051
v 0.00433385 -0.03830459 0.05029876
v 0.00433385 -0.03825452 0.05170482
v 0.00433385 -0.03815082 0.05311089
v 0.00311440 -0.03803997 0.05619375
v 0.00292740 -0.03809003 0.05619375
v 0.00178960 -0.03834750 0.05619375
v -0.00242447 -0.00271768 0.05619375
v -0.00257197 -0.00275701 0.05604528
v -0.00128931 -0.00305024 0.05311089
v -0.00319354 -0.00403717 0.04829883
v -0.00128931 -0.00326479 0.05170482
v -0.00269576 -0.00362237 0.05029876
v -0.00269576 -0.00449846 0.04607839
v -0.00269576 -0.00485604 0.04467451
v -0.00309083 -0.00544963 0.04266585
v -0.00269576 -0.00797061 0.03388887
v 0.00424167 -0.03740705 0.03388887
v 0.00453665 -0.03754650 0.03623595
v 0.00504761 -0.03777178 0.04111350
v 0.00510292 -0.03780397 0.04186238
v 0.00529782 -0.03788621 0.04748445
v 0.00533469 -0.03791124 0.04889051
v 0.00532679 -0.03791482 0.05029876
v 0.00526885 -0.03788263 0.05170482
v 0.00518984 -0.03784330 0.05311089
v 0.00510819 -0.03780039 0.05391217
v 0.00382553 -0.03783615 0.05619375
v -0.00160010 -0.00265689 0.05619375
v 0.00011451 -0.00311102 0.05311089
v 0.00011451 -0.00331842 0.05170482
v -0.00128931 -0.00269623 0.05589463
v -0.00015414 -0.00269980 0.05619375
v -0.00271156 -0.00389056 0.04881846
v -0.00225591 -0.00398711 0.04807177
v -0.00271156 -0.00415160 0.04755650
v 0.00011451 -0.00357589 0.05029876
v -0.00128931 -0.00353298 0.05029876
v -0.00128931 -0.00443052 0.04607839
v -0.00128931 -0.00479168 0.04467451
v -0.00128931 -0.00516714 0.04326844
v -0.00215319 -0.00540672 0.04252175
v -0.00265098 -0.00526011 0.04318766
v -0.00128931 -0.00792770 0.03388887
v -0.00128931 -0.00539242 0.04246716
v 0.00471839 -0.03714959 0.03388887
v 0.00553750 -0.03668472 0.03388887
v 0.00587199 -0.03677054 0.03614643
v 0.00574030 -0.03699940 0.03764201
v 0.00580614 -0.03736056 0.04186238
v 0.00599841 -0.03753220 0.04748445
v 0.00603792 -0.03754650 0.04889051
v 0.00603002 -0.03753935 0.05029876
v 0.00597207 -0.03752147 0.05170482
v 0.00589306 -0.03748929 0.05311089
v 0.00452875 -0.03756438 0.05619375
v 0.00439443 -0.03761802 0.05619375
v 0.00661472 -0.03647732 0.05619375
v 0.00574030 -0.03698152 0.05619375
v -0.00128931 -0.00266047 0.05619375
v 0.00011451 -0.00293223 0.05451695
v 0.00152096 -0.00312175 0.05451695
v 0.00152096 -0.00333273 0.05311089
v 0.00152096 -0.00356158 0.05170482
v 0.00117593 -0.00393347 0.04921801
v 0.00003286 -0.00271768 0.05619375
v -0.00001982 -0.00272841 0.05606056
v -0.00128931 -0.00397996 0.04801718
v -0.00128931 -0.00413372 0.04731415
v -0.00128931 -0.00380474 0.04889051
v 0.00059913 -0.00403717 0.04828136
v 0.00012504 -0.00388341 0.04880755
v -0.00033851 -0.00399426 0.04807613
v 0.00011451 -0.00447700 0.04607839
v 0.00011451 -0.00483816 0.04467451
v -0.00032534 -0.00539957 0.04247590
v 0.00010134 -0.00803140 0.03388887
v 0.00013294 -0.00558909 0.04194971
v 0.00624072 -0.03621629 0.03388887
v 0.00642772 -0.03634859 0.03561588
v 0.00649883 -0.03640223 0.03655253
v 0.00673588 -0.03659533 0.04045632
v 0.00681752 -0.03665612 0.04186238
v 0.00708880 -0.03682776 0.04748445
v 0.00708090 -0.03684206 0.04889051
v 0.00708880 -0.03683491 0.05029876
v 0.00708617 -0.03681703 0.05170482
v 0.00706773 -0.03678842 0.05311089
v 0.00756552 -0.03616265 0.05451695
v 0.00718362 -0.03607683 0.05619375
v 0.00122860 -0.00287502 0.05619375
v 0.00150252 -0.00291435 0.05619375
v 0.00152096 -0.00295011 0.05592301
v 0.00292740 -0.00330770 0.05592301
v 0.00292740 -0.00349364 0.05451695
v 0.00304592 -0.00376541 0.05301482
v 0.00239274 -0.00396208 0.05068521
v 0.00159470 -0.00382977 0.05024854
v 0.00211356 -0.00404075 0.04974638
v 0.00159470 -0.00411226 0.04880755
v 0.00152096 -0.00438403 0.04748445
v 0.00152096 -0.00471301 0.04607839
v 0.00012504 -0.00414445 0.04755868
v 0.00126021 -0.00531017 0.04356974
v 0.00061229 -0.00544248 0.04263310
v 0.00013294 -0.00524939 0.04316801
v 0.00102580 -0.00818516 0.03390197
v 0.00100210 -0.00818516 0.03388887
v 0.00649883 -0.03598386 0.03388887
v 0.00701769 -0.03551184 0.03388887
v 0.00798693 -0.03510420 0.03764201
v 0.00726264 -0.03580507 0.03764201
v 0.00734428 -0.03590161 0.03904807
v 0.00743910 -0.03597670 0.04045632
v 0.00752075 -0.03605895 0.04186238
v 0.00779203 -0.03630568 0.04748445
v 0.00779203 -0.03630926 0.05029876
v 0.00778939 -0.03630926 0.05170482
v 0.00777096 -0.03629495 0.05311089
v 0.00846365 -0.03546178 0.05451695
v 0.00824504 -0.03527226 0.05592301
v 0.00818183 -0.03522935 0.05619375
v 0.00292740 -0.00327551 0.05619375
v 0.00416002 -0.00377613 0.05592301
v 0.00394668 -0.00387626 0.05451695
v 0.00376495 -0.00395850 0.05342092
v 0.00359375 -0.00402644 0.05248427
v 0.00288790 -0.00419808 0.05024854
v 0.00292740 -0.00446627 0.04889051
v 0.00292740 -0.00477380 0.04748445
v 0.00301168 -0.00515999 0.04601507
v 0.00259818 -0.00530660 0.04493651
v 0.00219784 -0.00542818 0.04399768
v 0.00164474 -0.00513853 0.04455006
v 0.00164474 -0.00551757 0.04316801
v 0.00152096 -0.00585728 0.04186238
v 0.00103897 -0.00819231 0.03388887
v 0.00772092 -0.03478952 0.03388887
v 0.00807121 -0.03519717 0.03904807
v 0.00823187 -0.03408508 0.03388887
v 0.00859007 -0.03424956 0.03764201
v 0.00885345 -0.03412441 0.03908082
v 0.00891403 -0.03447127 0.04186238
v 0.00821080 -0.03535450 0.04186238
v 0.00917214 -0.03484673 0.04889051
v 0.00920374 -0.03488607 0.05029876
v 0.00850052 -0.03560839 0.05029876
v 0.00850052 -0.03560481 0.05170482
v 0.00920901 -0.03489680 0.05311089
v 0.00850579 -0.03559051 0.05311089
v 0.00916687 -0.03486104 0.05451695
v 0.00894827 -0.03455352 0.05592301
v 0.00870332 -0.03469655 0.05619375
v 0.00392298 -0.00365455 0.05619375
v 0.00421533 -0.00376898 0.05619375
v 0.00440760 -0.00385480 0.05619375
v 0.00490012 -0.00408008 0.05619375
v 0.00486324 -0.00409796 0.05592301
v 0.00464991 -0.00419451 0.05451695
v 0.00427327 -0.00425530 0.05301482
v 0.00433385 -0.00450561 0.05170482
v 0.00433385 -0.00475592 0.05029876
v 0.00444974 -0.00509205 0.04880755
v 0.00409154 -0.00521720 0.04748445
v 0.00381499 -0.00534236 0.04644082
v 0.00353581 -0.00545321 0.04550199
v 0.00301168 -0.00553188 0.04455006
v 0.00292740 -0.00585013 0.04326844
v 0.00292740 -0.00627208 0.04186238
v 0.00171059 -0.00835680 0.03388887
v 0.00897197 -0.03284068 0.03388887
v 0.00923008 -0.03349506 0.03863542
v 0.00940128 -0.03376683 0.04186238
v 0.00947239 -0.03386337 0.04326844
v 0.00895353 -0.03456782 0.04326844
v 0.00966202 -0.03414229 0.04889051
v 0.00969363 -0.03418520 0.05029876
v 0.00970680 -0.03418520 0.05170482
v 0.00970417 -0.03419235 0.05311089
v 0.00969363 -0.03416017 0.05451695
v 0.00948819 -0.03384907 0.05592301
v 0.00941181 -0.03374895 0.05619375
v 0.00551379 -0.00441621 0.05619375
v 0.00574030 -0.00478095 0.05451695
v 0.00554540 -0.00512781 0.05170482
v 0.00533206 -0.00524939 0.05029876
v 0.00516086 -0.00534593 0.04922020
v 0.00499493 -0.00544248 0.04828136
v 0.00479477 -0.00553903 0.04748445
v 0.00430488 -0.00566776 0.04601507
v 0.00433385 -0.00602177 0.04467451
v 0.00441550 -0.00646875 0.04322696
v 0.00395722 -0.00666900 0.04186238
v 0.00369384 -0.00679773 0.04106983
v 0.00289580 -0.00873584 0.03388887
v 0.00249019 -0.00859639 0.03388887
v 0.00929593 -0.03224709 0.03388887
v 0.00974367 -0.03284425 0.04045632
v 0.00988853 -0.03284425 0.04186238
v 0.01001495 -0.03284425 0.04326844
v 0.01039685 -0.03300874 0.05029876
v 0.01041002 -0.03305165 0.05170482
v 0.01040739 -0.03306953 0.05311089
v 0.01039685 -0.03308384 0.05451695
v 0.01074715 -0.03231145 0.05540993
v 0.01017825 -0.03280492 0.05589681
v 0.00982532 -0.03310529 0.05619375
v 0.00571923 -0.00453064 0.05619375
v 0.00574030 -0.00458070 0.05592301
v 0.00660155 -0.00530660 0.05451695
v 0.00649620 -0.00538169 0.05357375
v 0.00584302 -0.00506702 0.05310652
v 0.00638295 -0.00546394 0.05263492
v 0.00624862 -0.00554618 0.05170482
v 0.00603529 -0.00568206 0.05029876
v 0.00567445 -0.00576073 0.04880755
v 0.00574030 -0.00610044 0.04748445
v 0.00580351 -0.00646875 0.04612860
v 0.00540054 -0.00659391 0.04467451
v 0.00517930 -0.00673694 0.04366799
v 0.00493963 -0.00687998 0.04272916
v 0.00466044 -0.00701228 0.04186238
v 0.00425484 -0.00933301 0.03388887
v 0.00372544 -0.00909701 0.03388887
v 0.00956721 -0.03151046 0.03388887
v 0.01067604 -0.03077384 0.04104363
v 0.01041002 -0.03132094 0.04052619
v 0.01044690 -0.03159270 0.04186238
v 0.01050221 -0.03174647 0.04326844
v 0.01070764 -0.03223636 0.04931845
v 0.01073925 -0.03230430 0.05029876
v 0.01076032 -0.03234721 0.05170482
v 0.01078139 -0.03236867 0.05311089
v 0.01078666 -0.03238297 0.05451695
v 0.01120016 -0.03143537 0.05451695
v 0.01202454 -0.02917543 0.05619375
v 0.01159523 -0.03005151 0.05619375
v 0.01094468 -0.03132452 0.05619375
v 0.01037842 -0.03222563 0.05619375
v 0.00652254 -0.00503483 0.05619375
v 0.00673588 -0.00520290 0.05592301
v 0.00743910 -0.00577146 0.05592301
v 0.00696765 -0.00638293 0.05029876
v 0.00680962 -0.00653669 0.04889051
v 0.00661999 -0.00669046 0.04748445
v 0.00649357 -0.00678700 0.04663077
v 0.00631710 -0.00692289 0.04569194
v 0.00610376 -0.00706592 0.04467451
v 0.00568499 -0.00721253 0.04322696
v 0.00584038 -0.00775964 0.04181435
v 0.00494226 -0.00969417 0.03388887
v 0.00466308 -0.00954399 0.03388887
v 0.01003602 -0.03003006 0.03388887
v 0.01076032 -0.02833153 0.03649576
v 0.01094995 -0.03003006 0.04186238
v 0.01072345 -0.03089184 0.04186238
v 0.01078402 -0.03104560 0.04326844
v 0.01084987 -0.03113142 0.04467451
v 0.01108954 -0.03143537 0.05029876
v 0.01115012 -0.03143537 0.05170482
v 0.01120016 -0.03143537 0.05311089
v 0.01174009 -0.03003006 0.05451695
v 0.01203508 -0.02919331 0.05592301
v 0.01206932 -0.02903954 0.05619375
v 0.00675958 -0.00518502 0.05619375
v 0.00689390 -0.00529230 0.05619375
v 0.00746280 -0.00575358 0.05619375
v 0.00820554 -0.00647233 0.05592301
v 0.00767087 -0.00700513 0.05029876
v 0.00751285 -0.00714816 0.04889051
v 0.00732321 -0.00731265 0.04748445
v 0.00714675 -0.00753436 0.04608712
v 0.00767351 -0.00840686 0.04467451
v 0.00697028 -0.00777036 0.04467451
v 0.00674904 -0.00797419 0.04326844
v 0.00656468 -0.00813510 0.04225320
v 0.00637505 -0.00828886 0.04131655
v 0.00530836 -0.00995163 0.03388887
v 0.01026780 -0.02908961 0.03388887
v 0.01037578 -0.02862475 0.03388887
v 0.01061809 -0.02743041 0.03388887
v 0.01111061 -0.02721586 0.03764201
v 0.01108164 -0.03003006 0.04326844
v 0.01150305 -0.02862475 0.04467451
v 0.01120280 -0.03003006 0.04467451
v 0.01157153 -0.03003006 0.05029876
v 0.01165581 -0.03003006 0.05170482
v 0.01171902 -0.03003006 0.05311089
v 0.01202981 -0.02914324 0.05451695
v 0.01220364 -0.02848886 0.05592301
v 0.01220627 -0.02847098 0.05619375
v 0.00822660 -0.00645445 0.05619375
v 0.00836356 -0.00659391 0.05619375
v 0.00819500 -0.00784903 0.04889051
v 0.00804751 -0.00801710 0.04748445
v 0.00793162 -0.00814583 0.04648230
v 0.00813442 -0.00931513 0.04326844
v 0.00745227 -0.00861069 0.04326844
v 0.00657521 -0.01091711 0.03388887
v 0.00638031 -0.01076335 0.03388887
v 0.00579298 -0.01030922 0.03388887
v 0.01071554 -0.02683324 0.03388887
v 0.01124494 -0.02581055 0.03764201
v 0.01140297 -0.02581055 0.03904807
v 0.01154519 -0.02581055 0.04045632
v 0.01207195 -0.02512399 0.04532514
v 0.01194553 -0.02849959 0.05036863
v 0.01207195 -0.02794534 0.05088389
v 0.01197187 -0.02878208 0.05170482
v 0.01200347 -0.02898948 0.05311089
v 0.01217467 -0.02843880 0.05451695
v 0.01246702 -0.02721586 0.05619375
v 0.00926959 -0.00784188 0.05619375
v 0.00901411 -0.00858923 0.05029876
v 0.00889822 -0.00872512 0.04889051
v 0.00831089 -0.00770957 0.05029876
v 0.00883765 -0.00902906 0.04742332
v 0.00837937 -0.00882882 0.04603909
v 0.00830562 -0.00911131 0.04467451
v 0.00797639 -0.00950108 0.04214840
v 0.00900884 -0.01001958 0.04467451
v 0.00891403 -0.01040219 0.04315491
v 0.00840834 -0.01021625 0.04175321
v 0.00793162 -0.01235819 0.03388887
v 0.00783153 -0.00966199 0.04121175
v 0.00670164 -0.01104942 0.03388887
v 0.01077612 -0.02586061 0.03388887
v 0.01147671 -0.02440524 0.03904807
v 0.01164001 -0.02440524 0.04045632
v 0.01179277 -0.02440524 0.04186238
v 0.01193236 -0.02440524 0.04326844
v 0.01203508 -0.02440524 0.04434483
v 0.01209829 -0.02440524 0.04504567
v 0.01218784 -0.02440524 0.04607839
v 0.01229846 -0.02440524 0.04748445
v 0.01239854 -0.02440524 0.04889051
v 0.01209829 -0.02807764 0.05170482
v 0.01237747 -0.02721586 0.05451695
v 0.01245648 -0.02721586 0.05592301
v 0.01214043 -0.02828504 0.05311089
v 0.01293057 -0.02299993 0.05619375
v 0.01082616 -0.01029492 0.05619375
v 0.00939601 -0.00942956 0.04889051
v 0.00923272 -0.00967629 0.04691242
v 0.00915370 -0.00980145 0.04607839
v 0.00934070 -0.01090996 0.04355009
v 0.00924588 -0.01106373 0.04261126
v 0.00915897 -0.01119961 0.04186238
v 0.00841360 -0.01308051 0.03388887
v 0.00786314 -0.01228309 0.03388887
v 0.00726790 -0.01164301 0.03388887
v 0.01083143 -0.02440524 0.03388887
v 0.01151095 -0.02299993 0.03904807
v 0.01167951 -0.02299993 0.04045632
v 0.01182964 -0.02299993 0.04186238
v 0.01197450 -0.02299993 0.04326844
v 0.01205615 -0.02299993 0.04410247
v 0.01212199 -0.02299993 0.04480551
v 0.01223525 -0.02299993 0.04607839
v 0.01235113 -0.02299993 0.04748445
v 0.01246439 -0.02299993 0.04889051
v 0.01256710 -0.02299993 0.05029876
v 0.01256184 -0.02440524 0.05170482
v 0.01265929 -0.02299993 0.05170482
v 0.01291477 -0.02299993 0.05592301
v 0.01285155 -0.02159104 0.05451695
v 0.01294374 -0.02186281 0.05619375
v 0.01143984 -0.01175029 0.05619375
v 0.01060493 -0.01119246 0.05029876
v 0.00994648 -0.01034498 0.04889051
v 0.00964095 -0.01022697 0.04742332
v 0.00957511 -0.01050232 0.04607839
v 0.00944869 -0.01072402 0.04467451
v 0.00965676 -0.01162156 0.04315491
v 0.00956194 -0.01190405 0.04186238
v 0.00940918 -0.01218654 0.04045632
v 0.00908259 -0.01421048 0.03388887
v 0.01083407 -0.02294271 0.03388887
v 0.01148461 -0.02159104 0.03904807
v 0.01164001 -0.02159104 0.04045632
v 0.01179013 -0.02159104 0.04186238
v 0.01210356 -0.02199511 0.04500201
v 0.01245648 -0.02159104 0.04889051
v 0.01257764 -0.02159104 0.05029876
v 0.01267772 -0.02159104 0.05170482
v 0.01276727 -0.02159104 0.05311089
v 0.01272513 -0.01737511 0.05592301
v 0.01294637 -0.02159104 0.05619375
v 0.01191129 -0.01314845 0.05619375
v 0.01162684 -0.01315560 0.05311089
v 0.01148461 -0.01315560 0.05170482
v 0.01087621 -0.01189690 0.05029876
v 0.01051011 -0.01141773 0.04889051
v 0.01078929 -0.01212218 0.04889051
v 0.01071818 -0.01231170 0.04774863
v 0.01065760 -0.01246546 0.04681199
v 0.01000179 -0.01175029 0.04467451
v 0.01015718 -0.01315560 0.04186238
v 0.00942235 -0.01491492 0.03388887
v 0.00930910 -0.01467891 0.03388887
v 0.01076295 -0.02159104 0.03388887
v 0.01089991 -0.02159104 0.03482988
v 0.01137399 -0.02018931 0.03904807
v 0.01176380 -0.01878399 0.04326844
v 0.01190866 -0.01878399 0.04467451
v 0.01207195 -0.01806167 0.04675522
v 0.01253286 -0.01737511 0.05311089
v 0.01263822 -0.01737511 0.05451695
v 0.01273830 -0.01737511 0.05619375
v 0.01254077 -0.01596980 0.05619375
v 0.01207195 -0.01367410 0.05619375
v 0.01205878 -0.01389580 0.05531605
v 0.01202191 -0.01404241 0.05451695
v 0.01195870 -0.01430703 0.05311089
v 0.01175063 -0.01456449 0.05029876
v 0.01160577 -0.01456449 0.04889051
v 0.01133712 -0.01315560 0.05029876
v 0.01117646 -0.01315560 0.04889051
v 0.01022566 -0.01175029 0.04607839
v 0.01061019 -0.01259777 0.04607839
v 0.01093152 -0.01302329 0.04736218
v 0.01051274 -0.01286953 0.04467451
v 0.01042846 -0.01323784 0.04326626
v 0.01055225 -0.01416399 0.04186238
v 0.00956457 -0.01530827 0.03388887
v 0.01062336 -0.01984245 0.03388887
v 0.01076822 -0.02013567 0.03473818
v 0.01064970 -0.01963147 0.03420764
v 0.01071818 -0.01914516 0.03514428
v 0.01140033 -0.01737511 0.04186238
v 0.01157680 -0.01737511 0.04326844
v 0.01173219 -0.01737511 0.04467451
v 0.01204298 -0.01682800 0.04843201
v 0.01211146 -0.01783282 0.04748445
v 0.01230372 -0.01737511 0.05029876
v 0.01241961 -0.01737511 0.05170482
v 0.01242225 -0.01596980 0.05451695
v 0.01252233 -0.01596980 0.05592301
v 0.01226158 -0.01447151 0.05619375
v 0.01211936 -0.01385289 0.05619375
v 0.01219047 -0.01474686 0.05451695
v 0.01212989 -0.01501147 0.05311089
v 0.01208775 -0.01519026 0.05221791
v 0.01191129 -0.01465746 0.05173102
v 0.01199294 -0.01563009 0.05029876
v 0.01163211 -0.01596980 0.04607839
v 0.01144774 -0.01456449 0.04748445
v 0.01128181 -0.01456449 0.04607839
v 0.01110271 -0.01456449 0.04467451
v 0.01086040 -0.01330221 0.04607839
v 0.01076295 -0.01357397 0.04467451
v 0.01069711 -0.01376350 0.04373568
v 0.01062863 -0.01395659 0.04279685
v 0.01079719 -0.01486843 0.04186238
v 0.01071818 -0.01510444 0.04089298
v 0.00980162 -0.01596980 0.03388887
v 0.01055752 -0.01928819 0.03388887
v 0.01048377 -0.01875896 0.03388887
v 0.01110798 -0.01596980 0.04186238
v 0.01129761 -0.01596980 0.04326844
v 0.01030204 -0.01785427 0.03388887
v 0.01147408 -0.01596980 0.04467451
v 0.01209302 -0.01655624 0.04936866
v 0.01216940 -0.01732862 0.04889706
v 0.01213516 -0.01633454 0.05029876
v 0.01230899 -0.01596980 0.05311089
v 0.01217994 -0.01591258 0.05173102
v 0.01193763 -0.01604131 0.04889706
v 0.01177697 -0.01596980 0.04748445
v 0.01087357 -0.01448224 0.04326626
v 0.01019932 -0.01737511 0.03388887
f 1 2 3
f 1 3 4
f 1 4 11
f 1 11 19
f 1 19 28
f 1 28 27
f 1 27 47
f 1 47 70
f 1 70 105
f 1 105 106
f 1 106 145
f 1 145 146
f 1 146 183
f 1 183 202
f 1 202 204
f 1 204 227
f 1 227 251
f 1 251 273
f 1 273 275
f 1 275 297
f 1 297 300
f 1 300 327
f 1 327 326
f 1 326 325
f 1 325 352
f 1 352 382
f 1 382 412
f 1 412 436
f 1 436 459
f 1 459 485
f 1 485 511
f 1 511 510
f 1 510 509
f 1 509 532
f 1 532 561
f 1 561 560
f 1 560 563
f 1 563 562
f 1 562 594
f 1 594 626
f 1 626 657
f 1 657 686
f 1 686 711
f 1 711 743
f 1 743 742
f 1 742 741
f 1 741 740
f 1 740 768
f 1 768 795
f 1 795 816
f 1 816 845
f 1 845 871
f 1 871 892
f 1 892 913
f 1 913 914
f 1 914 943
f 1 943 944
f 1 944 915
f 1 915 893
f 1 893 872
f 1 872 846
f 1 846 817
f 1 817 797
f 1 797 796
f 1 796 771
f 1 771 770
f 1 770 769
f 1 769 744
f 1 744 712
f 1 712 687
f 1 687 661
f 1 661 660
f 1 660 659
f 1 659 658
f 1 658 627
f 1 627 596
f 1 596 595
f 1 595 570
f 1 570 537
f 1 537 564
f 1 564 533
f 1 533 512
f 1 512 488
f 1 488 487
f 1 487 486
f 1 486 460
f 1 460 437
f 1 437 421
f 1 421 420
f 1 420 390
f 1 390 389
f 1 389 360
f 1 360 334
f 1 334 303
f 1 303 277
f 1 277 276
f 1 276 253
f 1 253 230
f 1 230 228
f 1 228 205
f 1 205 186
f 1 186 185
f 1 185 148
f 1 148 108
f 1 108 72
f 1 72 48
f 1 48 29
f 1 29 20
f 1 20 12
f 1 12 6
f 1 6 2
f 2 5 3
f 2 6 5
f 3 5 7
f 3 7 8
f 3 8 4
f 4 8 9
f 4 9 10
f 4 10 11
f 5 6 12
f 5 12 13
f 5 13 7
f 7 13 14
f 7 14 15
f 7 15 8
f 8 15 9
f 9 15 16
f 9 16 17
f 9 17 10
f 10 18 11
f 10 17 18
f 11 18 19
f 12 20 21
f 12 21 13
f 13 22 14
f 13 21 31
f 13 31 23
f 13 23 22
f 14 22 24
f 14 24 15
f 15 24 25
f 15 25 16
f 16 25 26
f 16 26 17
f 17 27 28
f 17 28 18
f 17 26 27
f 18 28 19
f 20 29 30
f 20 30 21
f 21 30 31
f 22 23 32
f 22 32 33
f 22 33 34
f 22 34 35
f 22 35 36
f 22 36 37
f 22 37 24
f 23 31 38
f 23 38 32
f 24 37 39
f 24 39 25
f 25 39 40
f 25 40 26
f 26 41 42
f 26 42 43
f 26 43 44
f 26 44 45
f 26 45 27
f 26 40 41
f 27 45 46
f 27 46 47
f 29 48 30
f 30 48 49
f 30 49 38
f 30 38 31
f 32 38 50
f 32 50 33
f 33 50 34
f 34 51 35
f 34 50 51
f 35 51 52
f 35 52 53
f 35 53 54
f 35 54 55
f 35 55 36
f 36 55 56
f 36 56 57
f 36 57 58
f 36 58 37
f 37 58 39
f 38 49 74
f 38 74 50
f 39 58 40
f 40 58 59
f 40 59 60
f 40 60 61
f 40 61 62
f 40 62 42
f 40 42 63
f 40 63 41
f 41 63 42
f 42 62 64
f 42 64 65
f 42 65 66
f 42 66 67
f 42 67 43
f 43 67 44
f 44 68 45
f 44 67 69
f 44 69 68
f 45 68 46
f 46 70 47
f 46 68 71
f 46 71 70
f 48 72 73
f 48 73 49
f 49 73 74
f 50 74 75
f 50 75 76
f 50 76 77
f 50 77 51
f 51 78 79
f 51 79 52
f 51 77 80
f 51 80 81
f 51 81 78
f 52 79 53
f 53 82 83
f 53 83 54
f 53 79 84
f 53 84 85
f 53 85 82
f 54 83 86
f 54 86 56
f 54 56 55
f 56 86 59
f 56 59 57
f 57 59 58
f 59 87 60
f 59 86 87
f 60 87 88
f 60 88 89
f 60 89 90
f 60 90 61
f 61 90 91
f 61 91 92
f 61 92 93
f 61 93 62
f 62 93 94
f 62 94 95
f 62 95 64
f 64 95 96
f 64 96 97
f 64 97 98
f 64 98 99
f 64 99 65
f 65 99 100
f 65 100 66
f 66 100 101
f 66 101 67
f 67 101 102
f 67 102 69
f 68 69 103
f 68 103 104
f 68 104 71
f 69 102 103
f 70 71 105
f 71 106 105
f 71 104 107
f 71 107 106
f 72 108 73
f 73 108 109
f 73 109 110
f 73 110 111
f 73 111 112
f 73 112 75
f 73 75 74
f 75 112 76
f 76 113 114
f 76 114 80
f 76 80 77
f 76 112 115
f 76 115 113
f 78 81 116
f 78 116 117
f 78 117 79
f 79 117 118
f 79 118 84
f 80 114 81
f 81 119 116
f 81 114 113
f 81 113 120
f 81 120 119
f 82 121 83
f 82 85 121
f 83 121 122
f 83 122 123
f 83 123 124
f 83 124 125
f 83 125 126
f 83 126 86
f 84 118 127
f 84 127 128
f 84 128 129
f 84 129 130
f 84 130 85
f 85 130 121
f 86 126 87
f 87 131 88
f 87 126 131
f 88 131 89
f 89 132 90
f 89 131 133
f 89 133 132
f 90 132 133
f 90 133 123
f 90 123 163
f 90 163 172
f 90 172 170
f 90 170 169
f 90 169 171
f 90 171 168
f 90 168 165
f 90 165 167
f 90 167 194
f 90 194 193
f 90 193 215
f 90 215 217
f 90 217 244
f 90 244 264
f 90 264 284
f 90 284 308
f 90 308 311
f 90 311 310
f 90 310 340
f 90 340 341
f 90 341 365
f 90 365 394
f 90 394 428
f 90 428 450
f 90 450 473
f 90 473 499
f 90 499 521
f 90 521 548
f 90 548 581
f 90 581 612
f 90 612 641
f 90 641 674
f 90 674 700
f 90 700 699
f 90 699 728
f 90 728 727
f 90 727 756
f 90 756 755
f 90 755 782
f 90 782 805
f 90 805 804
f 90 804 803
f 90 803 830
f 90 830 855
f 90 855 854
f 90 854 828
f 90 828 853
f 90 853 881
f 90 881 904
f 90 904 903
f 90 903 929
f 90 929 960
f 90 960 975
f 90 975 965
f 90 965 962
f 90 962 961
f 90 961 930
f 90 930 905
f 90 905 882
f 90 882 856
f 90 856 831
f 90 831 806
f 90 806 785
f 90 785 784
f 90 784 783
f 90 783 757
f 90 757 729
f 90 729 701
f 90 701 675
f 90 675 644
f 90 644 642
f 90 642 614
f 90 614 613
f 90 613 583
f 90 583 551
f 90 551 550
f 90 550 522
f 90 522 500
f 90 500 475
f 90 475 474
f 90 474 451
f 90 451 429
f 90 429 397
f 90 397 370
f 90 370 369
f 90 369 368
f 90 368 343
f 90 343 314
f 90 314 289
f 90 289 265
f 90 265 246
f 90 246 245
f 90 245 218
f 90 218 196
f 90 196 175
f 90 175 174
f 90 174 173
f 90 173 135
f 90 135 96
f 90 96 95
f 90 95 94
f 90 94 134
f 90 134 92
f 90 92 91
f 92 134 93
f 93 134 94
f 96 135 97
f 97 135 136
f 97 136 137
f 97 137 98
f 98 137 138
f 98 138 99
f 99 138 139
f 99 139 100
f 100 139 101
f 101 139 140
f 101 140 102
f 102 141 103
f 102 140 141
f 103 141 142
f 103 142 104
f 104 142 143
f 104 143 144
f 104 144 107
f 106 107 145
f 107 146 145
f 107 144 147
f 107 147 146
f 108 148 149
f 108 149 109
f 109 149 150
f 109 150 110
f 110 151 111
f 110 150 151
f 111 151 112
f 112 151 115
f 113 115 152
f 113 152 153
f 113 153 154
f 113 154 155
f 113 155 120
f 115 151 156
f 115 156 152
f 116 119 157
f 116 157 117
f 117 127 118
f 117 157 158
f 117 158 127
f 119 120 157
f 120 155 154
f 120 154 159
f 120 159 160
f 120 160 161
f 120 161 158
f 120 158 162
f 120 162 157
f 121 130 163
f 121 163 122
f 122 163 123
f 123 133 164
f 123 164 124
f 124 164 125
f 125 164 126
f 126 164 131
f 127 165 166
f 127 166 128
f 127 158 167
f 127 167 165
f 128 166 165
f 128 165 168
f 128 168 129
f 129 169 170
f 129 170 172
f 129 172 130
f 129 168 171
f 129 171 169
f 130 172 163
f 131 164 133
f 135 173 136
f 136 173 174
f 136 174 175
f 136 175 176
f 136 176 137
f 137 176 177
f 137 177 138
f 138 177 139
f 139 177 140
f 140 178 142
f 140 142 141
f 140 177 179
f 140 179 180
f 140 180 178
f 142 178 181
f 142 181 143
f 143 181 144
f 144 181 182
f 144 182 147
f 146 147 183
f 147 182 184
f 147 184 183
f 148 185 149
f 149 185 150
f 150 185 186
f 150 186 187
f 150 187 188
f 150 188 151
f 151 188 189
f 151 189 156
f 152 156 190
f 152 190 154
f 152 154 153
f 154 190 191
f 154 191 159
f 156 189 190
f 157 162 158
f 158 161 160
f 158 160 167
f 159 191 192
f 159 192 160
f 160 193 194
f 160 194 167
f 160 192 195
f 160 195 193
f 175 196 176
f 176 196 197
f 176 197 198
f 176 198 177
f 177 198 199
f 177 199 179
f 178 182 181
f 178 180 182
f 179 199 180
f 180 200 182
f 180 199 201
f 180 201 200
f 182 200 184
f 183 184 202
f 184 200 203
f 184 203 204
f 184 204 202
f 186 205 187
f 187 206 189
f 187 189 188
f 187 205 207
f 187 207 208
f 187 208 206
f 189 206 209
f 189 209 210
f 189 210 190
f 190 210 211
f 190 211 191
f 191 212 195
f 191 195 192
f 191 211 213
f 191 213 214
f 191 214 212
f 193 195 215
f 195 212 216
f 195 216 217
f 195 217 215
f 196 218 219
f 196 219 197
f 197 219 198
f 198 219 220
f 198 220 221
f 198 221 199
f 199 221 222
f 199 222 223
f 199 223 201
f 200 201 224
f 200 224 203
f 201 223 225
f 201 225 224
f 203 224 225
f 203 225 226
f 203 226 204
f 204 226 227
f 205 228 207
f 206 208 207
f 206 207 229
f 206 229 209
f 207 228 230
f 207 230 231
f 207 231 229
f 209 229 232
f 209 232 233
f 209 233 234
f 209 234 235
f 209 235 210
f 210 235 211
f 211 235 236
f 211 236 237
f 211 237 238
f 211 238 213
f 212 214 216
f 213 238 237
f 213 237 239
f 213 239 240
f 213 240 214
f 214 241 216
f 214 240 242
f 214 242 241
f 216 241 243
f 216 243 244
f 216 244 217
f 218 245 219
f 219 245 246
f 219 246 247
f 219 247 248
f 219 248 220
f 220 248 221
f 221 248 222
f 222 248 249
f 222 249 250
f 222 250 223
f 223 250 225
f 225 251 226
f 225 250 252
f 225 252 251
f 226 251 227
f 229 231 232
f 230 253 231
f 231 253 254
f 231 254 255
f 231 255 234
f 231 234 233
f 231 233 232
f 234 256 236
f 234 236 235
f 234 255 257
f 234 257 256
f 236 256 237
f 237 256 258
f 237 258 259
f 237 259 239
f 239 259 240
f 240 259 260
f 240 260 242
f 241 261 243
f 241 242 261
f 242 260 262
f 242 262 263
f 242 263 261
f 243 261 244
f 244 261 264
f 246 265 247
f 247 265 266
f 247 266 248
f 248 266 267
f 248 267 268
f 248 268 269
f 248 269 270
f 248 270 271
f 248 271 249
f 249 271 250
f 250 271 272
f 250 272 252
f 251 252 273
f 252 272 274
f 252 274 275
f 252 275 273
f 253 276 254
f 254 276 277
f 254 277 278
f 254 278 257
f 254 257 255
f 256 257 279
f 256 279 280
f 256 280 258
f 257 278 279
f 258 260 259
f 258 280 281
f 258 281 260
f 260 281 282
f 260 282 262
f 261 283 284
f 261 284 264
f 261 263 285
f 261 285 283
f 262 286 287
f 262 287 263
f 262 282 288
f 262 288 286
f 263 287 285
f 265 289 290
f 265 290 266
f 266 290 267
f 267 290 291
f 267 291 268
f 268 291 269
f 269 291 292
f 269 292 270
f 270 293 272
f 270 272 271
f 270 292 294
f 270 294 295
f 270 295 296
f 270 296 293
f 272 293 274
f 274 297 275
f 274 293 298
f 274 298 299
f 274 299 300
f 274 300 297
f 277 301 302
f 277 302 278
f 277 303 304
f 277 304 305
f 277 305 301
f 278 302 279
f 279 302 280
f 280 302 281
f 281 302 306
f 281 306 282
f 282 306 307
f 282 307 288
f 283 285 284
f 284 285 308
f 285 287 308
f 286 288 309
f 286 309 287
f 287 310 311
f 287 311 308
f 287 309 312
f 287 312 310
f 288 307 313
f 288 313 309
f 289 314 290
f 290 314 315
f 290 315 316
f 290 316 291
f 291 316 294
f 291 294 292
f 293 296 317
f 293 317 298
f 294 316 318
f 294 318 319
f 294 319 320
f 294 320 295
f 295 320 321
f 295 321 296
f 296 321 322
f 296 322 323
f 296 323 317
f 298 317 324
f 298 324 325
f 298 325 326
f 298 326 327
f 298 327 300
f 298 300 299
f 301 328 302
f 301 305 329
f 301 329 328
f 302 328 330
f 302 330 331
f 302 331 332
f 302 332 333
f 302 333 306
f 303 334 304
f 304 334 335
f 304 335 305
f 305 335 329
f 306 333 336
f 306 336 307
f 307 336 337
f 307 337 313
f 309 313 338
f 309 338 339
f 309 339 312
f 310 312 340
f 312 339 341
f 312 341 340
f 313 337 342
f 313 342 338
f 314 343 315
f 315 343 344
f 315 344 316
f 316 344 318
f 317 323 324
f 318 344 345
f 318 345 346
f 318 346 319
f 319 346 347
f 319 347 320
f 320 347 348
f 320 348 349
f 320 349 321
f 321 349 322
f 322 349 323
f 323 349 350
f 323 350 324
f 324 350 351
f 324 351 325
f 325 351 352
f 328 329 353
f 328 353 330
f 329 335 353
f 330 353 331
f 331 353 354
f 331 354 355
f 331 355 356
f 331 356 332
f 332 357 337
f 332 337 336
f 332 336 333
f 332 356 358
f 332 358 359
f 332 359 357
f 334 360 335
f 335 354 353
f 335 360 361
f 335 361 362
f 335 362 363
f 335 363 354
f 337 357 342
f 338 342 364
f 338 364 339
f 339 364 341
f 341 364 366
f 341 366 365
f 342 357 367
f 342 367 364
f 343 368 344
f 344 368 345
f 345 368 369
f 345 369 370
f 345 370 371
f 345 371 372
f 345 372 373
f 345 373 346
f 346 373 374
f 346 374 375
f 346 375 347
f 347 375 376
f 347 376 377
f 347 377 378
f 347 378 348
f 348 378 349
f 349 378 379
f 349 379 350
f 350 379 380
f 350 380 351
f 351 380 381
f 351 381 352
f 352 381 382
f 354 363 355
f 355 363 383
f 355 383 358
f 355 358 356
f 357 359 384
f 357 384 367
f 358 383 385
f 358 385 386
f 358 386 387
f 358 387 388
f 358 388 384
f 358 384 359
f 360 389 361
f 361 389 390
f 361 390 362
f 362 390 391
f 362 391 363
f 363 391 383
f 364 367 392
f 364 392 393
f 364 393 366
f 365 366 394
f 366 393 395
f 366 395 394
f 367 384 396
f 367 396 392
f 370 397 371
f 371 397 398
f 371 398 399
f 371 399 372
f 372 399 400
f 372 400 373
f 373 400 375
f 373 375 374
f 375 401 433
f 375 433 402
f 375 402 403
f 375 403 376
f 375 400 404
f 375 404 405
f 375 405 401
f 376 403 406
f 376 406 377
f 377 406 407
f 377 407 378
f 378 407 379
f 379 407 408
f 379 408 409
f 379 409 410
f 379 410 411
f 379 411 382
f 379 382 381
f 379 381 380
f 382 411 412
f 383 391 385
f 384 388 396
f 385 391 413
f 385 413 414
f 385 414 415
f 385 415 386
f 386 415 416
f 386 416 387
f 387 417 388
f 387 416 418
f 387 418 417
f 388 417 419
f 388 419 396
f 390 420 391
f 391 420 421
f 391 421 414
f 391 414 413
f 392 396 393
f 393 422 395
f 393 396 419
f 393 419 423
f 393 423 424
f 393 424 425
f 393 425 422
f 394 395 426
f 394 426 422
f 394 422 427
f 394 427 428
f 395 422 426
f 397 429 430
f 397 430 398
f 398 430 399
f 399 430 431
f 399 431 400
f 400 431 404
f 401 432 433
f 401 405 432
f 402 433 434
f 402 434 407
f 402 407 406
f 402 406 403
f 404 431 405
f 405 431 432
f 407 434 435
f 407 435 408
f 408 435 409
f 409 411 410
f 409 435 436
f 409 436 411
f 411 436 412
f 414 421 437
f 414 437 438
f 414 438 439
f 414 439 415
f 415 439 416
f 416 439 440
f 416 440 418
f 417 441 419
f 417 418 442
f 417 442 443
f 417 443 441
f 418 440 444
f 418 444 445
f 418 445 442
f 419 441 423
f 422 425 427
f 423 441 446
f 423 446 424
f 424 446 447
f 424 447 425
f 425 447 448
f 425 448 427
f 427 449 428
f 427 448 447
f 427 447 449
f 428 449 450
f 429 451 452
f 429 452 453
f 429 453 430
f 430 453 454
f 430 454 431
f 431 454 432
f 432 455 456
f 432 456 433
f 432 454 455
f 433 456 457
f 433 457 434
f 434 457 435
f 435 457 458
f 435 458 436
f 436 458 459
f 437 460 438
f 438 440 439
f 438 460 461
f 438 461 440
f 440 461 462
f 440 462 444
f 441 443 446
f 442 445 443
f 443 445 463
f 443 463 464
f 443 464 446
f 444 462 465
f 444 465 445
f 445 465 466
f 445 466 467
f 445 467 463
f 446 464 468
f 446 468 447
f 447 468 469
f 447 469 470
f 447 470 449
f 449 470 471
f 449 471 472
f 449 472 450
f 450 472 473
f 451 474 452
f 452 474 475
f 452 475 453
f 453 475 476
f 453 476 477
f 453 477 454
f 454 477 478
f 454 478 479
f 454 479 455
f 455 479 456
f 456 479 480
f 456 480 481
f 456 481 457
f 457 481 458
f 458 481 482
f 458 482 483
f 458 483 484
f 458 484 459
f 459 484 485
f 460 486 461
f 461 486 487
f 461 487 488
f 461 488 462
f 462 488 489
f 462 489 490
f 462 490 465
f 463 467 491
f 463 491 492
f 463 492 493
f 463 493 468
f 463 468 464
f 465 490 494
f 465 494 491
f 465 491 466
f 466 491 467
f 468 493 469
f 469 472 470
f 469 493 495
f 469 495 472
f 470 472 471
f 472 495 496
f 472 496 497
f 472 497 498
f 472 498 499
f 472 499 473
f 475 500 476
f 476 500 501
f 476 501 502
f 476 502 477
f 477 502 503
f 477 503 478
f 478 503 479
f 479 503 504
f 479 504 505
f 479 505 480
f 480 505 506
f 480 506 481
f 481 506 507
f 481 507 482
f 482 507 508
f 482 508 483
f 483 508 509
f 483 509 510
f 483 510 511
f 483 511 484
f 484 511 485
f 488 512 513
f 488 513 489
f 489 513 512
f 489 512 490
f 490 512 514
f 490 514 516
f 490 516 494
f 491 515 493
f 491 493 492
f 491 494 515
f 493 515 495
f 494 516 517
f 494 517 515
f 495 515 518
f 495 518 497
f 495 497 496
f 497 518 519
f 497 519 520
f 497 520 499
f 497 499 498
f 499 520 521
f 500 522 501
f 501 522 523
f 501 523 502
f 502 524 525
f 502 525 503
f 502 523 524
f 503 525 504
f 504 525 526
f 504 526 527
f 504 527 505
f 505 527 506
f 506 527 528
f 506 528 507
f 507 528 529
f 507 529 530
f 507 530 508
f 508 530 531
f 508 531 532
f 508 532 509
f 512 533 514
f 514 534 535
f 514 535 516
f 514 533 536
f 514 536 537
f 514 537 534
f 515 517 538
f 515 538 539
f 515 539 540
f 515 540 518
f 516 535 541
f 516 541 542
f 516 542 539
f 516 539 517
f 517 539 538
f 518 543 519
f 518 540 539
f 518 539 543
f 519 543 544
f 519 544 545
f 519 545 546
f 519 546 547
f 519 547 520
f 520 547 546
f 520 546 521
f 521 546 549
f 521 549 548
f 522 550 523
f 523 550 551
f 523 551 552
f 523 552 524
f 524 552 553
f 524 553 554
f 524 554 525
f 525 554 555
f 525 555 526
f 526 555 527
f 527 555 556
f 527 556 528
f 528 556 557
f 528 557 558
f 528 558 529
f 529 558 559
f 529 559 530
f 530 559 531
f 531 560 561
f 531 561 532
f 531 559 562
f 531 562 563
f 531 563 560
f 533 564 536
f 534 537 565
f 534 565 566
f 534 566 535
f 535 567 568
f 535 568 569
f 535 569 541
f 535 566 567
f 536 564 537
f 537 570 571
f 537 571 565
f 539 572 573
f 539 573 543
f 539 542 574
f 539 574 572
f 541 569 575
f 541 575 576
f 541 576 577
f 541 577 574
f 541 574 542
f 543 578 579
f 543 579 544
f 543 573 578
f 544 579 580
f 544 580 545
f 545 580 549
f 545 549 546
f 548 549 580
f 548 580 582
f 548 582 581
f 551 583 584
f 551 584 552
f 552 584 585
f 552 585 553
f 553 585 554
f 554 585 586
f 554 586 587
f 554 587 588
f 554 588 555
f 555 588 556
f 556 588 589
f 556 589 590
f 556 590 557
f 557 590 591
f 557 591 592
f 557 592 558
f 558 592 559
f 559 592 562
f 562 593 594
f 562 592 593
f 565 571 570
f 565 570 595
f 565 595 566
f 566 595 596
f 566 596 597
f 566 597 598
f 566 598 599
f 566 599 567
f 567 599 600
f 567 600 601
f 567 601 568
f 568 602 569
f 568 601 603
f 568 603 602
f 569 602 603
f 569 603 604
f 569 604 605
f 569 605 575
f 572 577 573
f 572 574 577
f 573 577 578
f 575 605 606
f 575 606 578
f 575 578 607
f 575 607 576
f 576 607 577
f 577 607 578
f 578 606 608
f 578 608 609
f 578 609 579
f 579 609 610
f 579 610 580
f 580 610 609
f 580 609 582
f 581 611 612
f 581 582 609
f 581 609 611
f 583 613 584
f 584 613 614
f 584 614 615
f 584 615 585
f 585 615 616
f 585 616 617
f 585 617 618
f 585 618 619
f 585 619 586
f 586 619 587
f 587 619 620
f 587 620 588
f 588 620 589
f 589 620 621
f 589 621 590
f 590 621 622
f 590 622 591
f 591 622 623
f 591 623 592
f 592 623 593
f 593 623 624
f 593 624 594
f 594 624 625
f 594 625 626
f 596 627 597
f 597 627 598
f 598 628 629
f 598 629 599
f 598 627 628
f 599 629 630
f 599 630 631
f 599 631 600
f 600 631 601
f 601 631 632
f 601 632 603
f 603 632 633
f 603 633 634
f 603 634 605
f 603 605 604
f 605 634 606
f 606 634 635
f 606 635 636
f 606 636 637
f 606 637 638
f 606 638 608
f 608 638 637
f 608 637 639
f 608 639 640
f 608 640 609
f 609 640 611
f 611 641 612
f 611 640 641
f 614 642 615
f 615 643 617
f 615 617 616
f 615 642 644
f 615 644 645
f 615 645 646
f 615 646 647
f 615 647 643
f 617 643 618
f 618 643 619
f 619 643 648
f 619 648 620
f 620 648 649
f 620 649 650
f 620 650 651
f 620 651 621
f 621 651 622
f 622 651 652
f 622 652 653
f 622 653 654
f 622 654 623
f 623 654 655
f 623 655 624
f 624 655 625
f 625 655 656
f 625 656 657
f 625 657 626
f 627 658 628
f 628 659 660
f 628 660 661
f 628 661 662
f 628 662 663
f 628 663 629
f 628 658 659
f 629 663 630
f 630 663 664
f 630 664 631
f 631 664 665
f 631 665 666
f 631 666 667
f 631 667 633
f 631 633 632
f 633 667 668
f 633 668 634
f 634 668 669
f 634 669 670
f 634 670 635
f 635 670 671
f 635 671 636
f 636 671 637
f 637 671 672
f 637 672 640
f 637 640 639
f 640 672 673
f 640 673 674
f 640 674 641
f 643 647 648
f 644 675 676
f 644 676 645
f 645 676 646
f 646 676 677
f 646 677 647
f 647 677 678
f 647 678 679
f 647 679 648
f 648 679 649
f 649 679 678
f 649 678 680
f 649 680 681
f 649 681 650
f 650 681 682
f 650 682 653
f 650 653 651
f 651 653 652
f 653 682 683
f 653 683 684
f 653 684 655
f 653 655 654
f 655 684 685
f 655 685 656
f 656 685 657
f 657 685 686
f 661 687 662
f 662 687 688
f 662 688 663
f 663 688 689
f 663 689 690
f 663 690 665
f 663 665 664
f 665 690 691
f 665 691 666
f 666 691 692
f 666 692 667
f 667 692 668
f 668 692 693
f 668 693 694
f 668 694 669
f 669 694 670
f 670 694 695
f 670 695 696
f 670 696 697
f 670 697 672
f 670 672 671
f 672 697 698
f 672 698 673
f 673 698 699
f 673 699 700
f 673 700 674
f 675 701 676
f 676 701 702
f 676 702 703
f 676 703 677
f 677 703 704
f 677 704 678
f 678 704 705
f 678 705 680
f 680 705 681
f 681 705 706
f 681 706 682
f 682 706 707
f 682 707 683
f 683 707 708
f 683 708 684
f 684 708 709
f 684 709 685
f 685 709 710
f 685 710 686
f 686 710 711
f 687 712 713
f 687 713 688
f 688 713 714
f 688 714 715
f 688 715 716
f 688 716 689
f 689 716 717
f 689 717 718
f 689 718 690
f 690 718 691
f 691 718 719
f 691 719 720
f 691 720 692
f 692 720 721
f 692 721 722
f 692 722 723
f 692 723 693
f 693 723 695
f 693 695 694
f 695 723 724
f 695 724 696
f 696 724 725
f 696 725 726
f 696 726 697
f 697 726 727
f 697 727 698
f 698 727 728
f 698 728 699
f 701 729 730
f 701 730 731
f 701 731 732
f 701 732 702
f 702 732 703
f 703 732 704
f 704 732 733
f 704 733 734
f 704 734 735
f 704 735 705
f 705 735 736
f 705 736 706
f 706 736 737
f 706 737 738
f 706 738 707
f 707 738 708
f 708 738 709
f 709 738 739
f 709 739 740
f 709 740 741
f 709 741 742
f 709 742 710
f 710 742 743
f 710 743 711
f 712 744 745
f 712 745 714
f 712 714 713
f 714 745 746
f 714 746 715
f 715 717 716
f 715 746 747
f 715 747 717
f 717 747 748
f 717 748 718
f 718 748 719
f 719 748 749
f 719 749 750
f 719 750 720
f 720 750 721
f 721 750 722
f 722 750 723
f 723 750 751
f 723 751 752
f 723 752 724
f 724 752 753
f 724 753 754
f 724 754 755
f 724 755 725
f 725 755 756
f 725 756 727
f 725 727 726
f 729 757 730
f 730 757 758
f 730 758 759
f 730 759 760
f 730 760 731
f 731 760 732
f 732 760 761
f 732 761 733
f 733 761 762
f 733 762 734
f 734 762 763
f 734 763 735
f 735 763 764
f 735 764 765
f 735 765 736
f 736 765 737
f 737 765 738
f 738 765 739
f 739 765 766
f 739 766 767
f 739 767 740
f 740 767 768
f 744 769 745
f 745 770 746
f 745 769 770
f 746 771 772
f 746 772 773
f 746 773 747
f 746 770 771
f 747 773 774
f 747 774 748
f 748 774 749
f 749 774 775
f 749 775 750
f 750 775 776
f 750 776 777
f 750 777 778
f 750 778 779
f 750 779 751
f 751 779 780
f 751 780 752
f 752 780 753
f 753 780 781
f 753 781 754
f 754 781 755
f 755 781 782
f 757 783 758
f 758 783 784
f 758 784 785
f 758 785 786
f 758 786 759
f 759 787 760
f 759 786 788
f 759 788 787
f 760 787 789
f 760 789 761
f 761 789 762
f 762 789 790
f 762 790 763
f 763 790 791
f 763 791 792
f 763 792 764
f 764 792 765
f 765 792 766
f 766 792 767
f 767 792 793
f 767 793 794
f 767 794 795
f 767 795 768
f 771 796 772
f 772 796 797
f 772 797 798
f 772 798 773
f 773 798 774
f 774 798 799
f 774 799 800
f 774 800 775
f 775 800 776
f 776 800 777
f 777 801 802
f 777 802 779
f 777 779 778
f 777 800 801
f 779 802 780
f 780 802 803
f 780 803 781
f 781 803 804
f 781 804 805
f 781 805 782
f 785 806 786
f 786 806 807
f 786 807 808
f 786 808 809
f 786 809 810
f 786 810 788
f 787 788 789
f 788 811 789
f 788 810 812
f 788 812 811
f 789 811 813
f 789 813 790
f 790 813 791
f 791 813 814
f 791 814 793
f 791 793 792
f 793 814 815
f 793 815 794
f 794 815 816
f 794 816 795
f 797 817 818
f 797 818 819
f 797 819 820
f 797 820 798
f 798 820 819
f 798 819 799
f 799 819 821
f 799 821 822
f 799 822 800
f 800 822 823
f 800 823 801
f 801 824 802
f 801 823 825
f 801 825 826
f 801 826 827
f 801 827 828
f 801 828 824
f 802 824 829
f 802 829 803
f 803 829 830
f 806 831 807
f 807 831 832
f 807 832 833
f 807 833 808
f 808 833 834
f 808 834 809
f 809 834 835
f 809 835 810
f 810 835 836
f 810 836 837
f 810 837 838
f 810 838 839
f 810 839 840
f 810 840 812
f 811 812 841
f 811 841 813
f 812 840 842
f 812 842 843
f 812 843 841
f 813 841 844
f 813 844 814
f 814 844 815
f 815 844 843
f 815 843 816
f 816 843 845
f 817 846 847
f 817 847 818
f 818 847 819
f 819 847 848
f 819 848 821
f 821 848 849
f 821 849 823
f 821 823 822
f 823 849 825
f 824 828 829
f 825 850 851
f 825 851 826
f 825 849 850
f 826 851 852
f 826 852 828
f 826 828 827
f 828 854 829
f 828 852 853
f 829 854 855
f 829 855 830
f 831 856 832
f 832 856 857
f 832 857 858
f 832 858 833
f 833 858 834
f 834 858 859
f 834 859 860
f 834 860 835
f 835 860 861
f 835 861 836
f 836 861 862
f 836 862 837
f 837 862 863
f 837 863 838
f 838 863 864
f 838 864 865
f 838 865 839
f 839 865 866
f 839 866 840
f 840 867 842
f 840 866 868
f 840 868 869
f 840 869 845
f 840 845 867
f 841 843 844
f 842 867 843
f 843 867 845
f 845 869 870
f 845 870 871
f 846 872 873
f 846 873 874
f 846 874 847
f 847 874 848
f 848 874 875
f 848 875 876
f 848 876 849
f 849 876 877
f 849 877 850
f 850 878 851
f 850 877 878
f 851 878 879
f 851 879 852
f 852 879 880
f 852 880 881
f 852 881 853
f 856 882 857
f 857 882 883
f 857 883 858
f 858 883 884
f 858 884 885
f 858 885 859
f 859 885 860
f 860 885 861
f 861 885 886
f 861 886 887
f 861 887 862
f 862 887 863
f 863 887 888
f 863 888 864
f 864 888 865
f 865 888 866
f 866 888 889
f 866 889 868
f 868 889 890
f 868 890 869
f 869 890 870
f 870 890 891
f 870 891 892
f 870 892 871
f 872 893 894
f 872 894 895
f 872 895 896
f 872 896 873
f 873 897 874
f 873 896 898
f 873 898 899
f 873 899 900
f 873 900 897
f 874 897 876
f 874 876 875
f 876 897 901
f 876 901 877
f 877 901 878
f 878 901 879
f 879 902 903
f 879 903 904
f 879 904 881
f 879 881 880
f 879 901 902
f 882 905 906
f 882 906 883
f 883 906 907
f 883 907 908
f 883 908 884
f 884 908 885
f 885 908 909
f 885 909 910
f 885 910 887
f 885 887 886
f 887 910 888
f 888 910 911
f 888 911 912
f 888 912 889
f 889 912 890
f 890 912 891
f 891 913 892
f 891 912 914
f 891 914 913
f 893 915 916
f 893 916 894
f 894 916 917
f 894 917 918
f 894 918 919
f 894 919 895
f 895 919 920
f 895 920 921
f 895 921 896
f 896 921 922
f 896 922 898
f 897 923 901
f 897 900 924
f 897 924 923
f 898 922 899
f 899 922 900
f 900 922 925
f 900 925 924
f 901 923 926
f 901 926 902
f 902 926 927
f 902 927 928
f 902 928 903
f 903 928 929
f 905 930 906
f 906 930 931
f 906 931 907
f 907 931 932
f 907 932 933
f 907 933 934
f 907 934 908
f 908 934 935
f 908 935 910
f 908 910 909
f 910 935 936
f 910 936 937
f 910 937 938
f 910 938 939
f 910 939 940
f 910 940 911
f 911 940 970
f 911 970 941
f 911 941 912
f 912 941 942
f 912 942 914
f 914 942 943
f 915 944 916
f 916 918 917
f 916 944 945
f 916 945 946
f 916 946 918
f 918 946 947
f 918 947 948
f 918 948 919
f 919 948 947
f 919 947 949
f 919 949 920
f 920 949 950
f 920 950 951
f 920 951 921
f 921 951 922
f 922 951 952
f 922 952 953
f 922 953 954
f 922 954 925
f 923 924 926
f 924 925 954
f 924 954 955
f 924 955 926
f 926 955 956
f 926 956 957
f 926 957 927
f 927 957 928
f 928 957 958
f 928 958 959
f 928 959 960
f 928 960 929
f 930 961 932
f 930 932 931
f 932 961 933
f 933 961 962
f 933 962 934
f 934 963 964
f 934 964 966
f 934 966 935
f 934 962 965
f 934 965 963
f 935 966 950
f 935 950 936
f 936 950 937
f 937 950 967
f 937 967 938
f 938 967 968
f 938 968 939
f 939 968 967
f 939 967 969
f 939 969 970
f 939 970 940
f 941 970 946
f 941 946 945
f 941 945 943
f 941 943 942
f 943 945 944
f 946 970 947
f 947 970 971
f 947 971 969
f 947 969 967
f 947 967 949
f 949 967 972
f 949 972 973
f 949 973 950
f 950 973 972
f 950 972 967
f 950 966 951
f 951 966 952
f 952 966 964
f 952 964 953
f 953 974 957
f 953 957 956
f 953 956 955
f 953 955 954
f 953 964 963
f 953 963 958
f 953 958 974
f 957 974 958
f 958 963 959
f 959 963 975
f 959 975 960
f 963 965 975
f 969 971 970

