# https://github.com/mikedh/trimesh
v -0.00565505 -0.00853448 0.00553751
v -0.00438616 -0.00853448 0.00555507
v -0.00565505 -0.00914245 0.00556912
v -0.01127442 -0.00853448 0.00582905
v -0.00378033 -0.00853448 0.00556912
v -0.00378033 -0.00914245 0.00559722
v -0.00378033 -0.01101606 0.00569557
v -0.00378033 -0.01289258 0.00580446
v -0.00565505 -0.01101606 0.00567801
v -0.01127442 -0.00914245 0.00586417
v -0.01188025 -0.00853448 0.00589930
v -0.00190562 -0.01289258 0.00597306
v 0.00184382 -0.00853448 0.00619084
v 0.00184382 -0.00914245 0.00620841
v -0.00190562 -0.01476619 0.00607142
v -0.00190562 -0.01663979 0.00617328
v -0.00190562 -0.01851632 0.00628919
v -0.00378033 -0.01663979 0.00605034
v -0.00565505 -0.01289258 0.00580095
v -0.01127442 -0.01101606 0.00598711
v -0.01314914 -0.00853448 0.00607142
v 0.00184382 -0.01101606 0.00629973
v 0.00296483 -0.00853448 0.00639808
v 0.00338939 -0.01101606 0.00655264
v 0.00325104 -0.01289258 0.00659479
v 0.00281695 -0.01592367 0.00669314
v -0.00080845 -0.02188647 0.00665099
v -0.00105174 -0.02313749 0.00670719
v -0.00190562 -0.02038992 0.00641916
v -0.00378033 -0.01851632 0.00619084
v -0.00565505 -0.01476619 0.00593091
v -0.01127442 -0.01289258 0.00612410
v -0.01314914 -0.00914245 0.00611357
v -0.01375496 -0.00853448 0.00618382
v 0.00301730 -0.01476619 0.00665450
v 0.00347048 -0.00853448 0.00651400
v 0.00349910 -0.00914245 0.00651751
v 0.00418602 -0.01289258 0.00680554
v 0.00395705 -0.01476619 0.00684067
v 0.00355158 -0.01658718 0.00686877
v 0.00371853 -0.02413713 0.00748347
v -0.00003090 -0.02976087 0.00743078
v -0.00190562 -0.02601074 0.00690038
v -0.00176728 -0.02420728 0.00674583
v -0.00176728 -0.02241260 0.00659127
v -0.00230155 -0.02362854 0.00666153
v -0.00378033 -0.02038992 0.00633486
v -0.00565505 -0.01663979 0.00607493
v -0.01026313 -0.02129019 0.00670368
v -0.01127442 -0.01476619 0.00626812
v -0.01314914 -0.01101606 0.00626109
v -0.01510495 -0.00853448 0.00644726
v 0.00410493 -0.00853448 0.00667558
v 0.00443407 -0.00914245 0.00675988
v 0.00432436 -0.01101606 0.00678447
v 0.00559325 -0.01289258 0.00720949
v 0.00559325 -0.01476619 0.00727623
v 0.00559325 -0.01663979 0.00737809
v 0.00559325 -0.02413713 0.00787687
v 0.00371853 -0.02226645 0.00733945
v 0.00329875 -0.03504263 0.00845996
v 0.00184382 -0.03351100 0.00802792
v 0.00559325 -0.02601074 0.00804197
v -0.00003090 -0.03163447 0.00760992
v -0.00190562 -0.02788727 0.00709006
v -0.00378033 -0.02601074 0.00684067
v -0.00378033 -0.02482987 0.00672475
v -0.00378033 -0.02389161 0.00664045
v -0.00378033 -0.02226645 0.00649644
v -0.00565505 -0.01851632 0.00623299
v -0.00954282 -0.02225768 0.00675988
v -0.00939971 -0.02413713 0.00693902
v -0.00939971 -0.02601074 0.00714977
v -0.01127442 -0.02413713 0.00715680
v -0.01127442 -0.02226645 0.00695658
v -0.01130305 -0.02055653 0.00679149
v -0.01069722 -0.02004209 0.00664748
v -0.00565505 -0.02038992 0.00639808
v -0.00505876 -0.02369285 0.00666153
v -0.01127442 -0.01663979 0.00642618
v -0.01257194 -0.01663979 0.00663343
v -0.01314914 -0.01289258 0.00641565
v -0.01413182 -0.01395069 0.00668963
v -0.01433217 -0.01289258 0.00664396
v -0.01514311 -0.00916291 0.00650697
v -0.01607809 -0.00854909 0.00666855
v -0.01607809 -0.00853448 0.00666855
v 0.00441022 -0.00853448 0.00678095
v 0.00559325 -0.01101606 0.00717436
v 0.00746796 -0.01101606 0.00784877
v 0.00746796 -0.01289258 0.00787687
v 0.00746796 -0.01663979 0.00801386
v 0.00692893 -0.02601074 0.00841781
v 0.00675719 -0.02754236 0.00849157
v 0.00384256 -0.03555414 0.00865315
v 0.00559325 -0.03839524 0.00941187
v 0.00371853 -0.03839524 0.00895523
v 0.00318903 -0.03839524 0.00885688
v 0.00205848 -0.03839524 0.00864964
v 0.00123322 -0.03839524 0.00853021
v -0.00003090 -0.03351100 0.00783121
v -0.00190562 -0.03163447 0.00750103
v -0.00190562 -0.02976087 0.00729028
v -0.00378033 -0.02788727 0.00703386
v -0.00565505 -0.02976087 0.00730081
v -0.00565505 -0.03163447 0.00750454
v -0.00752499 -0.03163447 0.00764856
v -0.01127442 -0.02601074 0.00737809
v -0.01314914 -0.02413713 0.00752562
v -0.01314914 -0.02226645 0.00731486
v -0.01194703 -0.01901322 0.00674232
v -0.01130305 -0.01844032 0.00659127
v -0.01230480 -0.01776220 0.00668611
v -0.01351168 -0.01663979 0.00681257
v -0.01385037 -0.01519878 0.00674583
v -0.01319684 -0.01465219 0.00657371
v -0.01502386 -0.01663979 0.00716031
v -0.01486644 -0.01465219 0.00693199
v -0.01527191 -0.01289258 0.00686877
v -0.01677932 -0.00916291 0.00693199
v -0.01692242 -0.00853448 0.00691794
v -0.01609240 -0.00853448 0.00667206
v -0.01689857 -0.01289258 0.00732189
v 0.00519254 -0.00853448 0.00710411
v 0.00874640 -0.01101606 0.00839673
v 0.00872255 -0.01289258 0.00841078
v 0.00861760 -0.01663979 0.00847401
v 0.00786390 -0.02601074 0.00879365
v 0.00741549 -0.02805387 0.00881473
v 0.00852219 -0.03839524 0.01039538
v 0.00833615 -0.03839524 0.01032162
v 0.00755860 -0.03839524 0.01004062
v 0.00677627 -0.03839524 0.00978771
v 0.00096609 -0.03839524 0.00850914
v -0.00086093 -0.03839524 0.00839322
v -0.00190562 -0.03839524 0.00836161
v -0.00264501 -0.03839524 0.00834756
v -0.00378033 -0.03163447 0.00746590
v -0.00378033 -0.02976087 0.00724110
v -0.00376125 -0.03839524 0.00836161
v -0.00457697 -0.03839524 0.00838971
v -0.00565505 -0.03839524 0.00844591
v -0.00614639 -0.03839524 0.00848104
v -0.00693348 -0.03839524 0.00854075
v -0.00753453 -0.03733129 0.00844591
v -0.00816898 -0.03800357 0.00860398
v -0.00883682 -0.03675254 0.00851265
v -0.01127442 -0.02788727 0.00762397
v -0.01314914 -0.02601074 0.00776799
v -0.01502386 -0.02226645 0.00778555
v -0.01502386 -0.02038992 0.00756426
v -0.01314914 -0.02038992 0.00711816
v -0.01502386 -0.01851632 0.00735350
v -0.01301557 -0.01844032 0.00688984
v -0.01689857 -0.01476619 0.00750805
v -0.01743761 -0.00853448 0.00708303
v -0.01877329 -0.00853448 0.00754669
v 0.00690507 -0.00853448 0.00802792
v 0.00861760 -0.00985272 0.00846699
v 0.00968614 -0.01101606 0.00892011
v 0.00966229 -0.01289258 0.00891659
v 0.00960027 -0.01476619 0.00892713
v 0.00955257 -0.01663979 0.00894821
v 0.00934268 -0.02601074 0.00944699
v 0.00852219 -0.01790250 0.00851967
v 0.00934268 -0.02788727 0.00962262
v 0.00949056 -0.03161109 0.01007574
v 0.01021087 -0.03222199 0.01048671
v 0.00933791 -0.03839524 0.01086607
v -0.00794001 -0.03839524 0.00863910
v -0.00941402 -0.03839524 0.00884283
v -0.01127442 -0.03839524 0.00920462
v -0.01314914 -0.02788727 0.00802089
v -0.01502386 -0.02413713 0.00802792
v -0.01668868 -0.02226645 0.00831594
v -0.01689857 -0.01851632 0.00792254
v -0.01689857 -0.01663979 0.00770827
v -0.01851569 -0.01663979 0.00829838
v -0.01940297 -0.00853448 0.00780662
v 0.00928067 -0.00919506 0.00922570
v 0.01043507 -0.00853448 0.01032865
v 0.01065927 -0.00914245 0.01014950
v 0.01106952 -0.01101606 0.00985796
v 0.01112199 -0.01289258 0.00985094
v 0.01113153 -0.01476619 0.00986499
v 0.01110768 -0.01663979 0.00988606
v 0.01107429 -0.01851632 0.00992821
v 0.01069744 -0.02601074 0.01017058
v 0.01032058 -0.03097097 0.01042349
v 0.01105521 -0.03161109 0.01099955
v 0.01121740 -0.03351100 0.01134729
v 0.01099319 -0.03839524 0.01185310
v 0.01037783 -0.03839524 0.01148077
v -0.01314914 -0.03839524 0.00972800
v -0.01427492 -0.02910321 0.00851265
v -0.01458499 -0.02788727 0.00841430
v -0.01512403 -0.02600489 0.00831594
v -0.01607809 -0.02537354 0.00853021
v -0.01632137 -0.02413713 0.00844240
v -0.01781923 -0.02126973 0.00858290
v -0.01707507 -0.02054192 0.00823164
v -0.01945544 -0.01663979 0.00868828
v -0.02080542 -0.00853448 0.00843889
v 0.01078330 -0.00853448 0.01058858
v 0.01159425 -0.00914245 0.01085553
v 0.01200449 -0.01101606 0.01059911
v 0.01206173 -0.01289258 0.01052535
v 0.01206650 -0.01476619 0.01052184
v 0.01204742 -0.01663979 0.01053589
v 0.01201403 -0.01851632 0.01056048
v 0.01163241 -0.02601074 0.01087309
v 0.01149407 -0.02788727 0.01092227
v 0.01055910 -0.02788727 0.01026893
v 0.01234795 -0.03351100 0.01214816
v 0.01192816 -0.03839524 0.01249941
v -0.01453729 -0.03839524 0.01024434
v -0.01551996 -0.02788727 0.00872692
v -0.01581095 -0.02662456 0.00862505
v -0.01678409 -0.02600489 0.00890957
v -0.01725634 -0.02413713 0.00880068
v -0.01762365 -0.02226645 0.00865666
v -0.01877329 -0.02413713 0.00948914
v -0.01877329 -0.02226645 0.00918355
v -0.01916922 -0.01851632 0.00881473
v -0.02064801 -0.01851632 0.00957344
v -0.02064801 -0.01663979 0.00932756
v -0.02205046 -0.01663979 0.01015302
v -0.02377730 -0.00853448 0.01020922
v 0.01250060 -0.00853448 0.01191633
v 0.01259123 -0.00914245 0.01179339
v 0.01283929 -0.01101606 0.01153697
v 0.01395076 -0.01289258 0.01242214
v 0.01301579 -0.01289258 0.01146320
v 0.01303010 -0.01476619 0.01145618
v 0.01303010 -0.01663979 0.01147374
v 0.01301579 -0.01851632 0.01149482
v 0.01269141 -0.02788727 0.01186012
v 0.01394122 -0.02038992 0.01242214
v 0.01246244 -0.03163447 0.01204980
v 0.01351667 -0.02976087 0.01286472
v 0.01328769 -0.03351100 0.01310709
v 0.01409387 -0.03497832 0.01411871
v 0.01401277 -0.03622642 0.01421706
v 0.01290130 -0.03839524 0.01343727
v 0.01252445 -0.03839524 0.01306493
v -0.01490937 -0.03839524 0.01041646
v -0.01689857 -0.02788727 0.00927839
v -0.01894502 -0.02615396 0.00993875
v -0.01988476 -0.02562491 0.01033918
v -0.02011850 -0.02413713 0.01020219
v -0.02040472 -0.02226645 0.01004062
v -0.01854909 -0.02788727 0.01006520
v -0.02079588 -0.02043377 0.00996334
v -0.02185965 -0.01851632 0.01026893
v -0.02298544 -0.01663979 0.01078528
v -0.02415892 -0.01663979 0.01172313
v -0.02582375 -0.00853448 0.01184959
v 0.01417973 -0.00853448 0.01398874
v 0.01377903 -0.01101606 0.01269963
v 0.01459952 -0.01289258 0.01335999
v 0.01464722 -0.01476619 0.01333540
v 0.01396984 -0.01476619 0.01239755
v 0.01396507 -0.01663979 0.01239755
v 0.01362638 -0.02788727 0.01276285
v 0.01466153 -0.02038992 0.01335999
v 0.01441825 -0.02788727 0.01370071
v 0.01435146 -0.02976087 0.01380257
v 0.01535799 -0.02788727 0.01504602
v 0.01537707 -0.02961180 0.01532000
v 0.01458521 -0.03551614 0.01496172
v 0.01423221 -0.03839524 0.01503197
v 0.01383627 -0.03839524 0.01446645
v 0.01346897 -0.03839524 0.01405899
v -0.01547703 -0.03839524 0.01069747
v -0.01968441 -0.02687593 0.01046564
v -0.02133969 -0.02226645 0.01060965
v -0.02151619 -0.02108558 0.01049374
v -0.02279463 -0.01851632 0.01094686
v -0.02394426 -0.01851632 0.01188471
v -0.02509867 -0.01663979 0.01257669
v -0.02577127 -0.00914245 0.01190228
v -0.02671102 -0.00914245 0.01289282
v -0.02675872 -0.00853448 0.01283662
v 0.01484757 -0.00853448 0.01513735
v 0.01553449 -0.01289258 0.01491606
v 0.01558220 -0.01476619 0.01479663
v 0.01465676 -0.01663979 0.01333540
v 0.01559650 -0.01663979 0.01474745
v 0.01559173 -0.01851632 0.01475097
v 0.01559650 -0.02038992 0.01477907
v 0.01595905 -0.02788727 0.01598388
v 0.01501930 -0.03839524 0.01638431
v 0.01446595 -0.03839524 0.01540079
v 0.01590657 -0.02888691 0.01606467
v 0.01561081 -0.03538461 0.01676718
v -0.01596837 -0.03839524 0.01098901
v -0.01948406 -0.02788727 0.01058858
v -0.02081496 -0.02801588 0.01159317
v -0.02056691 -0.02615396 0.01093281
v -0.02105348 -0.02413713 0.01081338
v -0.02226989 -0.02413713 0.01175124
v -0.02266583 -0.02228984 0.01165640
v -0.02239392 -0.02043377 0.01104170
v -0.02371529 -0.02038992 0.01209195
v -0.02354833 -0.02167894 0.01224299
v -0.02487923 -0.01851632 0.01282257
v -0.02537534 -0.02146849 0.01415032
v -0.02549460 -0.02038992 0.01400279
v -0.02590007 -0.01663979 0.01351103
v -0.02725483 -0.01222908 0.01413978
v -0.02735023 -0.01101606 0.01400982
v -0.02748380 -0.00914245 0.01383067
v -0.02752673 -0.00853448 0.01377447
v 0.01563467 -0.00853448 0.01670395
v 0.01594950 -0.01181694 0.01598037
v 0.01601629 -0.01289258 0.01585040
v 0.01607353 -0.01476619 0.01573097
v 0.01610215 -0.01663979 0.01568531
v 0.01609738 -0.01851632 0.01568882
v 0.01606399 -0.02038992 0.01571692
v 0.01659349 -0.02038992 0.01701306
v 0.01724225 -0.02038992 0.01888526
v 0.01631204 -0.02788727 0.01701306
v 0.01684154 -0.02976087 0.01888526
v 0.01660303 -0.03351100 0.01888526
v 0.01610692 -0.03351100 0.01748726
v 0.01542000 -0.03839524 0.01715005
v 0.01600675 -0.03538461 0.01770152
v -0.01698444 -0.03839524 0.01161073
v -0.01745669 -0.03839524 0.01191984
v -0.01792895 -0.03839524 0.01225002
v -0.02155435 -0.02872907 0.01235540
v -0.02175471 -0.02747806 0.01217274
v -0.02198368 -0.02601074 0.01197955
v -0.02338614 -0.02292996 0.01239755
v -0.02465503 -0.02038992 0.01306493
v -0.02406352 -0.02413713 0.01350752
v -0.02379161 -0.02601074 0.01381662
v -0.02519407 -0.02271951 0.01438917
v -0.02562817 -0.02413713 0.01561857
v -0.02579035 -0.02216123 0.01506359
v -0.02625307 -0.02038992 0.01513735
v -0.02672056 -0.01857186 0.01523921
v -0.02683504 -0.01663979 0.01477555
v -0.02702108 -0.01476619 0.01448401
v -0.02714034 -0.01348009 0.01429433
v -0.02767461 -0.01286920 0.01500738
v -0.02803715 -0.01101606 0.01513735
v -0.02786065 -0.00853448 0.01430136
v -0.02830429 -0.00914245 0.01513735
v -0.02841400 -0.00853448 0.01518301
v 0.01602106 -0.00853448 0.01764181
v 0.01644561 -0.01289258 0.01701306
v 0.01657918 -0.01476619 0.01701306
v 0.01663642 -0.01663979 0.01701306
v 0.01663165 -0.01851632 0.01701306
v 0.01725179 -0.01851632 0.01888526
v 0.01765726 -0.01851632 0.02057480
v 0.01765249 -0.02038992 0.02065208
v 0.01735197 -0.02976087 0.02076097
v 0.01725656 -0.03163447 0.02076097
v 0.01713730 -0.03351100 0.02076097
v 0.01644084 -0.03538461 0.01888526
v 0.01698465 -0.03538461 0.02076097
v 0.01615463 -0.03839524 0.01889931
v -0.01802436 -0.03839524 0.01233081
v -0.02358172 -0.02732606 0.01405548
v -0.02291865 -0.02601074 0.01287877
v -0.02320964 -0.02413713 0.01257318
v -0.01890209 -0.03839524 0.01311060
v -0.01987045 -0.03839524 0.01402738
v -0.02499849 -0.02413713 0.01468072
v -0.02686367 -0.02233953 0.01706224
v -0.02703063 -0.02038992 0.01644051
v -0.02716419 -0.01923536 0.01616653
v -0.02544212 -0.02542615 0.01590309
v -0.02729299 -0.01798727 0.01593119
v -0.02742656 -0.01663979 0.01570990
v -0.02759829 -0.01476619 0.01541835
v -0.02883379 -0.01101606 0.01662668
v -0.02896735 -0.00914245 0.01633513
v -0.02867637 -0.00853448 0.01563965
v 0.01626911 -0.00853448 0.01846024
v 0.01639791 -0.00853448 0.01888526
v 0.01698465 -0.01289258 0.01888526
v 0.01718978 -0.01476619 0.01888526
v 0.01725179 -0.01663979 0.01888526
v 0.01765726 -0.01663979 0.02059939
v 0.01780991 -0.01851632 0.02151266
v 0.01779560 -0.02038992 0.02158993
v 0.01778129 -0.02138372 0.02166019
v 0.01756186 -0.02976087 0.02263668
v 0.01746645 -0.03163447 0.02263668
v 0.01736150 -0.03351100 0.02263668
v 0.01697035 -0.03839524 0.02263668
v 0.01685586 -0.03839524 0.02189553
v 0.01667936 -0.03839524 0.02076097
v -0.02337660 -0.02857708 0.01430838
v -0.02014236 -0.03839524 0.01436810
v -0.02479814 -0.02603412 0.01522165
v -0.02636756 -0.02413713 0.01701306
v -0.02716419 -0.02301180 0.01808439
v -0.02731207 -0.02176078 0.01772260
v -0.02746949 -0.02038992 0.01737837
v -0.02763168 -0.01857186 0.01687958
v -0.02407306 -0.02792526 0.01501441
v -0.02151142 -0.03839524 0.01620517
v -0.02525131 -0.02667717 0.01623327
v -0.02806100 -0.01663979 0.01701306
v -0.02840446 -0.01476619 0.01701306
v -0.02875746 -0.01297735 0.01710439
v -0.02915340 -0.01240738 0.01778934
v -0.02900552 -0.00853448 0.01624381
v -0.02924880 -0.01101606 0.01756453
v -0.02937760 -0.00914245 0.01727299
v 0.01667458 -0.00853448 0.02015681
v 0.01778129 -0.01380746 0.02167775
v 0.01761910 -0.01476619 0.02069072
v 0.01779083 -0.01476619 0.02162857
v 0.01780514 -0.01663979 0.02153725
v 0.01780037 -0.02159418 0.02556265
v 0.01780037 -0.02038992 0.02263668
v 0.01780514 -0.01663979 0.02206413
v 0.01779560 -0.02153572 0.02450888
v 0.01752370 -0.02976087 0.02450888
v 0.01732811 -0.03351100 0.02450888
v 0.01722794 -0.03538461 0.02450888
v 0.01698465 -0.03839524 0.02450888
v -0.02070048 -0.03839524 0.01508817
v -0.02122521 -0.03839524 0.01580122
v -0.02577604 -0.02603412 0.01692173
v -0.02552799 -0.02788727 0.01755400
v -0.02704971 -0.02431543 0.01877988
v -0.02720713 -0.02505786 0.01984068
v -0.02736454 -0.02380684 0.01933487
v -0.02755535 -0.02233953 0.01877988
v -0.02805623 -0.02038992 0.01888526
v -0.02536580 -0.02891030 0.01788769
v -0.02660607 -0.02601074 0.01888526
v -0.02846171 -0.01851632 0.01888526
v -0.02905799 -0.01365839 0.01802468
v -0.02198845 -0.03839524 0.01711141
v -0.02507004 -0.02788727 0.01661614
v -0.02974014 -0.01101606 0.01888526
v -0.02998819 -0.00914245 0.01888526
v -0.02939668 -0.00853448 0.01714302
v -0.03006452 -0.00853448 0.01888526
v -0.02964950 -0.00853448 0.01779636
v 0.01680338 -0.00853448 0.02076097
v 0.01778129 -0.01380746 0.02175854
v 0.01694172 -0.00853448 0.02202901
v 0.01698942 -0.00853448 0.02263668
v 0.01779083 -0.01476619 0.02186743
v 0.01734242 -0.02976087 0.02638108
v 0.01727087 -0.03163447 0.02638108
v 0.01779560 -0.02038992 0.02554157
v 0.01762387 -0.02038992 0.02647943
v 0.01723748 -0.02038992 0.02825679
v 0.01695126 -0.02976087 0.02825679
v 0.01708006 -0.03538461 0.02638108
v 0.01677476 -0.03839524 0.02638108
v -0.02604318 -0.02788727 0.01888526
v -0.02330027 -0.03839524 0.02051158
v -0.02659176 -0.02788727 0.02076097
v -0.02707356 -0.02611889 0.02058534
v -0.02735023 -0.02556645 0.02109115
v -0.02756967 -0.02431543 0.02058534
v -0.02812779 -0.02226645 0.02076097
v -0.02857619 -0.02038992 0.02076097
v -0.02904368 -0.01737053 0.01999523
v -0.02236053 -0.03839524 0.01794038
v -0.02279940 -0.03839524 0.01893795
v -0.02916294 -0.01611951 0.01960533
v -0.02881948 -0.01670410 0.01894146
v -0.02928219 -0.01476619 0.01924705
v -0.02940622 -0.01297735 0.01874476
v -0.02998819 -0.01289258 0.02076097
v -0.03026010 -0.01101606 0.02076097
v -0.03049861 -0.00914245 0.02076097
v -0.03057493 -0.00853448 0.02080663
v 0.01748076 -0.01289258 0.02450888
v 0.01767634 -0.01476619 0.02450888
v 0.01778129 -0.01936690 0.02545727
v 0.01696080 -0.00853448 0.02450888
v 0.01687017 -0.03163447 0.02825679
v 0.01758571 -0.01663979 0.02638108
v 0.01722794 -0.01851632 0.02825679
v 0.01667458 -0.02038992 0.03013250
v 0.01634067 -0.02976087 0.03013250
v 0.01667936 -0.03538461 0.02825679
v 0.01637883 -0.03839524 0.02825679
v 0.01653625 -0.03839524 0.02751563
v -0.02301406 -0.03839524 0.01959128
v -0.02337660 -0.03839524 0.02081717
v -0.02717373 -0.02681455 0.02200442
v -0.02351971 -0.03839524 0.02143538
v -0.02796083 -0.02413713 0.02263668
v -0.02842831 -0.02226645 0.02263668
v -0.02905322 -0.01929967 0.02202198
v -0.02918202 -0.01804865 0.02124570
v -0.02894350 -0.01860985 0.02067667
v -0.02932035 -0.01670410 0.02067667
v -0.02968289 -0.01476619 0.02076097
v -0.02997388 -0.01476619 0.02263668
v -0.03026487 -0.01289258 0.02263668
v -0.03053200 -0.01101606 0.02263668
v -0.03076098 -0.00914245 0.02263668
v -0.03068942 -0.00853448 0.02161101
v 0.01733765 -0.01289258 0.02638108
v 0.01751415 -0.01476619 0.02638108
v 0.01672706 -0.00853448 0.02638108
v 0.01620233 -0.03169586 0.03029407
v 0.01615939 -0.03538461 0.02985852
v 0.01718023 -0.01663979 0.02825679
v 0.01662688 -0.01851632 0.03013250
v 0.01612123 -0.02038992 0.03147078
v 0.01593042 -0.03111127 0.03112304
v 0.01601629 -0.03839524 0.02948970
v 0.01616893 -0.03839524 0.02897686
v -0.02725006 -0.02707469 0.02325489
v -0.02744087 -0.02611889 0.02263317
v -0.02372960 -0.03839524 0.02264722
v -0.02804669 -0.02413713 0.02450888
v -0.02851418 -0.02226645 0.02450888
v -0.02911523 -0.01958611 0.02327245
v -0.02889580 -0.02028470 0.02264370
v -0.02925834 -0.01860985 0.02264370
v -0.02964950 -0.01663979 0.02263668
v -0.03005498 -0.01476619 0.02450888
v -0.03035073 -0.01289258 0.02450888
v -0.02973537 -0.01663979 0.02450888
v -0.03061310 -0.01101606 0.02450888
v -0.03088500 -0.00853448 0.02343052
v -0.03083253 -0.00853448 0.02263668
v 0.01694649 -0.01289258 0.02825679
v 0.01709437 -0.01476619 0.02825679
v 0.01628342 -0.00853448 0.02825679
v 0.01588749 -0.03235937 0.03103171
v 0.01578731 -0.03538461 0.03079637
v 0.01650763 -0.01476619 0.03013250
v 0.01657441 -0.01663979 0.03013250
v 0.01606399 -0.01663979 0.03137594
v 0.01556788 -0.02038992 0.03240864
v 0.01544862 -0.02788727 0.03214168
v 0.01553926 -0.01663979 0.03231029
v 0.01555834 -0.01851632 0.03235244
v 0.01540569 -0.02976087 0.03207846
v 0.01545340 -0.03169586 0.03185014
v 0.01510517 -0.03538461 0.03200469
v 0.01563943 -0.03839524 0.03042755
v -0.02724529 -0.02706008 0.02450888
v -0.02754104 -0.02601074 0.02450888
v -0.02384885 -0.03839524 0.02450888
v -0.02796560 -0.02413713 0.02638108
v -0.02843785 -0.02226645 0.02638108
v -0.02911046 -0.01957442 0.02573476
v -0.02891488 -0.02058284 0.02450888
v -0.02912954 -0.01964458 0.02450888
v -0.02936806 -0.01851632 0.02450888
v -0.02963519 -0.01663979 0.02638108
v -0.02994526 -0.01476619 0.02638108
v -0.03023625 -0.01289258 0.02638108
v -0.03088023 -0.00853448 0.02577340
v -0.03092317 -0.00853448 0.02488472
v -0.03086592 -0.00896707 0.02451590
v -0.03091363 -0.00853448 0.02417870
v -0.03049861 -0.01101606 0.02638108
v 0.01593996 -0.01184325 0.03114412
v 0.01639314 -0.01289258 0.03013250
v 0.01595427 -0.00853448 0.02933514
v 0.01482372 -0.03839524 0.03200469
v 0.01513379 -0.03839524 0.03141107
v 0.01598767 -0.01289258 0.03122842
v 0.01603537 -0.01476619 0.03131623
v 0.01463291 -0.02038992 0.03370478
v 0.01451365 -0.02788727 0.03361345
v 0.01453750 -0.01289258 0.03364506
v 0.01462337 -0.01851632 0.03370829
v 0.01550110 -0.01476619 0.03225409
v 0.01447072 -0.02976087 0.03353617
v 0.01435624 -0.03351100 0.03337811
v 0.01428468 -0.03538461 0.03326571
v 0.01415111 -0.03839524 0.03309359
v 0.01443256 -0.03839524 0.03264749
v -0.02721667 -0.02696946 0.02554157
v -0.02382977 -0.03839524 0.02524652
v -0.02378684 -0.03839524 0.02638108
v -0.02741702 -0.02612181 0.02625111
v -0.02717373 -0.02682039 0.02678853
v -0.02735500 -0.02557230 0.02785284
v -0.02809439 -0.02226645 0.02825679
v -0.02905322 -0.01929675 0.02698524
v -0.02889580 -0.02027593 0.02636702
v -0.02925357 -0.01860985 0.02636702
v -0.02918202 -0.01804865 0.02765614
v -0.02956364 -0.01476619 0.02825679
v -0.02984508 -0.01289258 0.02825679
v -0.03077052 -0.00896707 0.02620545
v -0.03079437 -0.00853448 0.02633541
v -0.03010268 -0.01101606 0.02825679
v -0.03032211 -0.00914245 0.02825679
v 0.01569668 -0.00853448 0.02997092
v 0.01557265 -0.00853448 0.03027300
v 0.01485234 -0.00853448 0.03172720
v 0.01459952 -0.00853448 0.03218735
v 0.01440394 -0.01101606 0.03350105
v 0.01547247 -0.01289258 0.03216627
v 0.01386967 -0.01851632 0.03464263
v 0.01384104 -0.02038992 0.03464263
v 0.01378380 -0.02788727 0.03455131
v 0.01374087 -0.01101606 0.03443890
v 0.01381719 -0.01289258 0.03458292
v 0.01371702 -0.02976087 0.03447403
v 0.01357391 -0.03351100 0.03431596
v 0.01361684 -0.03839524 0.03366263
v -0.02359126 -0.03839524 0.02787392
v -0.02718327 -0.02497309 0.02909980
v -0.02756490 -0.02426282 0.02838675
v -0.02851418 -0.02038992 0.02825679
v -0.02734069 -0.02372208 0.02951780
v -0.02888149 -0.01860985 0.02827084
v -0.02899598 -0.01707823 0.02890310
v -0.02927742 -0.01652872 0.02827084
v -0.02910569 -0.01582721 0.02924733
v -0.02918679 -0.01476619 0.02944403
v -0.03038412 -0.00853448 0.02825679
v -0.02932989 -0.01289258 0.02978124
v -0.02964473 -0.00914245 0.03013250
v -0.03016469 -0.00853448 0.02886446
v 0.01353575 -0.00853448 0.03382420
v 0.01288222 -0.01289258 0.03549970
v 0.01292992 -0.01851632 0.03556292
v 0.01284883 -0.02601074 0.03547862
v 0.01284883 -0.02788727 0.03542593
v 0.01263894 -0.03351100 0.03525382
v 0.01284883 -0.00853448 0.03470937
v 0.01247198 -0.00853448 0.03515898
v 0.01280113 -0.01101606 0.03543647
v 0.01326384 -0.03839524 0.03403144
v 0.01269618 -0.03839524 0.03461102
v -0.02333844 -0.03839524 0.02876611
v -0.02644388 -0.02601074 0.03013250
v -0.02693045 -0.02426282 0.03013601
v -0.02284710 -0.03839524 0.03008683
v -0.02784634 -0.02038992 0.03013250
v -0.02707356 -0.02264059 0.03076827
v -0.02746472 -0.02211446 0.03013601
v -0.02822796 -0.01851632 0.03013250
v -0.02866683 -0.01652872 0.02997443
v -0.02878131 -0.01476619 0.03037838
v -0.02892442 -0.01289258 0.03071909
v -0.02939191 -0.01092544 0.03024490
v -0.02902937 -0.01148957 0.03094390
v -0.02970675 -0.00853448 0.03013250
v -0.02910092 -0.01023855 0.03110196
v 0.01178029 -0.01101606 0.03637433
v 0.01184707 -0.01289258 0.03643755
v 0.01189477 -0.01851632 0.03650078
v 0.01179460 -0.02601074 0.03641648
v 0.01171828 -0.02788727 0.03636379
v 0.01154654 -0.03163447 0.03624085
v 0.01139389 -0.03351100 0.03619167
v 0.01121740 -0.03839524 0.03581934
v 0.01166580 -0.03839524 0.03547862
v 0.01232410 -0.03839524 0.03496930
v 0.01184707 -0.00853448 0.03579124
v 0.01160856 -0.00914245 0.03616357
v -0.02529902 -0.02869400 0.03098254
v -0.02199322 -0.03839524 0.03188175
v -0.02722621 -0.02138957 0.03109494
v -0.02568541 -0.02601074 0.03166749
v -0.02547552 -0.02744298 0.03131623
v -0.02732638 -0.02038992 0.03127759
v -0.02751719 -0.01851632 0.03159372
v -0.02759352 -0.01645857 0.03208548
v -0.02791313 -0.01476619 0.03200469
v -0.02818980 -0.01289258 0.03200469
v -0.02856665 -0.01092544 0.03183960
v -0.02916294 -0.00914245 0.03121085
v -0.02919633 -0.00853448 0.03126354
v -0.02859527 -0.00914245 0.03214871
v 0.01066882 -0.00914245 0.03701010
v 0.01084054 -0.01101606 0.03711197
v 0.01091210 -0.01289258 0.03715763
v 0.01094549 -0.01663979 0.03717519
v 0.01085486 -0.02601074 0.03706982
v 0.01093118 -0.01476619 0.03717519
v 0.01077853 -0.02788727 0.03702766
v 0.01061157 -0.03163447 0.03691878
v 0.01011069 -0.03839524 0.03660264
v 0.01054002 -0.03839524 0.03630056
v 0.01147022 -0.00853448 0.03614601
v 0.01058772 -0.00853448 0.03694687
v -0.02147803 -0.03839524 0.03277043
v -0.02589530 -0.02422190 0.03214871
v -0.02661084 -0.02211446 0.03183609
v -0.02676349 -0.02038992 0.03221545
v -0.02528948 -0.02490295 0.03286879
v -0.02694953 -0.01851632 0.03253158
v -0.02709741 -0.01696132 0.03276692
v -0.02721190 -0.01571030 0.03294606
v -0.02727868 -0.01476619 0.03303739
v -0.02754104 -0.01101606 0.03338162
v -0.02901506 -0.00853448 0.03156914
v -0.02862866 -0.00853448 0.03220140
v -0.02766030 -0.00914245 0.03353969
v 0.00939515 -0.00853448 0.03775828
v 0.00934268 -0.00914245 0.03790932
v 0.00916618 -0.01103652 0.03814817
v 0.00938561 -0.01289258 0.03809197
v 0.00941901 -0.01476619 0.03810953
v 0.00941901 -0.01663979 0.03810953
v 0.00934268 -0.02601074 0.03789878
v 0.00934268 -0.02788727 0.03782502
v 0.00934268 -0.02976087 0.03773369
v 0.00934268 -0.03163447 0.03759319
v 0.00917572 -0.03839524 0.03708035
v -0.02391564 -0.02788727 0.03354671
v -0.02058599 -0.03839524 0.03391553
v -0.02545167 -0.02365192 0.03310764
v -0.02562340 -0.02226645 0.03332893
v -0.02409691 -0.02601074 0.03400686
v -0.02582852 -0.02038992 0.03359237
v -0.02651544 -0.01476619 0.03397173
v -0.02589053 -0.01840232 0.03400334
v -0.02523700 -0.01894892 0.03470937
v -0.02535626 -0.01770082 0.03484285
v -0.02678734 -0.01101606 0.03431596
v -0.02691614 -0.00914245 0.03447754
v -0.02769369 -0.00853448 0.03358184
v -0.02695430 -0.00853448 0.03451969
v 0.00824075 -0.00853448 0.03848187
v 0.00831230 -0.00914245 0.03852753
v 0.00837909 -0.01042270 0.03855563
v 0.00842202 -0.01167372 0.03857671
v 0.00848403 -0.01476619 0.03860481
v 0.00848403 -0.01663979 0.03860481
v 0.00825983 -0.02413713 0.03850997
v 0.00804994 -0.02788727 0.03842918
v 0.00791160 -0.02976087 0.03838703
v 0.00746796 -0.03839524 0.03786717
v -0.02336706 -0.02663625 0.03471288
v -0.01977027 -0.03839524 0.03487797
v -0.02475521 -0.02422190 0.03379259
v -0.02487446 -0.02226645 0.03426679
v -0.02508436 -0.02038992 0.03453023
v -0.02393949 -0.02226645 0.03528543
v -0.02414938 -0.02038992 0.03547511
v -0.02452623 -0.01840232 0.03548916
v -0.02342430 -0.01738222 0.03666587
v -0.02424956 -0.01670994 0.03601253
v -0.02544212 -0.01663979 0.03492715
v -0.02557569 -0.01476619 0.03506414
v -0.02584760 -0.01101606 0.03533110
v -0.02597640 -0.00914245 0.03545052
v -0.02601456 -0.00853448 0.03548565
v 0.00730100 -0.00853448 0.03889986
v 0.00737733 -0.00914245 0.03892094
v 0.00763969 -0.01103652 0.03888230
v 0.00746796 -0.01289258 0.03899470
v 0.00746796 -0.01476619 0.03901226
v 0.00746796 -0.01663979 0.03897714
v 0.00732009 -0.02413713 0.03887176
v 0.00721037 -0.02601074 0.03883664
v 0.00711019 -0.02788727 0.03879097
v 0.00697186 -0.02976087 0.03872423
v 0.00609413 -0.03839524 0.03841864
v 0.00662839 -0.03839524 0.03821140
v -0.02354833 -0.02538815 0.03490959
v -0.01880668 -0.03839524 0.03572802
v -0.02119658 -0.02788727 0.03637784
v -0.02224127 -0.02788727 0.03543998
v -0.02371052 -0.02413713 0.03506765
v -0.02267537 -0.02413713 0.03600551
v -0.02289957 -0.02226645 0.03622329
v -0.02311423 -0.02038992 0.03641296
v -0.02331459 -0.01851632 0.03657806
v -0.02217926 -0.02038992 0.03711899
v -0.02237961 -0.01851632 0.03724193
v -0.02268968 -0.01670994 0.03725247
v -0.02352448 -0.01613120 0.03674666
v -0.02484584 -0.01101606 0.03626895
v -0.02470273 -0.01289258 0.03613547
v -0.02497464 -0.00914245 0.03638838
v -0.02569495 -0.00853448 0.03579124
v 0.00559325 -0.00853448 0.03957076
v 0.00559325 -0.00914245 0.03960589
v 0.00559325 -0.01101606 0.03966560
v 0.00559325 -0.01289258 0.03968668
v 0.00559325 -0.01476619 0.03966911
v 0.00559325 -0.02413713 0.03945134
v 0.00559325 -0.02601074 0.03936352
v 0.00552646 -0.03839524 0.03861183
v -0.02248933 -0.02589967 0.03573504
v -0.02161160 -0.02516309 0.03671153
v -0.02142079 -0.02641410 0.03656401
v -0.01774291 -0.03839524 0.03662372
v -0.02174040 -0.02413713 0.03680988
v -0.02196460 -0.02226645 0.03697146
v -0.02064801 -0.02226645 0.03782502
v -0.02052398 -0.02050392 0.03814817
v -0.02090083 -0.01851632 0.03817979
v -0.02108210 -0.01663979 0.03829219
v -0.02252272 -0.01476619 0.03757914
v -0.02376776 -0.01289258 0.03693634
v -0.02390610 -0.01101606 0.03703820
v -0.02501280 -0.00853448 0.03642350
v 0.00371853 -0.00853448 0.04016087
v 0.00371853 -0.00914245 0.04018546
v 0.00353249 -0.01101898 0.04025923
v 0.00353249 -0.01273474 0.04024869
v 0.00371853 -0.01476619 0.04016790
v 0.00371853 -0.01663979 0.04011521
v 0.00073711 -0.02601074 0.04041729
v 0.00184382 -0.03163447 0.03993256
v 0.00371853 -0.03351100 0.03942675
v 0.00515438 -0.03839524 0.03872072
v -0.02025684 -0.02788727 0.03707684
v -0.02073387 -0.02587921 0.03715060
v -0.02064801 -0.02413713 0.03752294
v -0.01686041 -0.03839524 0.03719276
v -0.01927894 -0.02413713 0.03834488
v -0.01954607 -0.02226645 0.03848538
v -0.01968441 -0.02120543 0.03855563
v -0.01981321 -0.01995733 0.03862237
v -0.01996109 -0.01851632 0.03869965
v -0.02014236 -0.01663979 0.03878746
v -0.02123952 -0.01476619 0.03838703
v -0.02252272 -0.01289258 0.03777584
v -0.02403490 -0.00914245 0.03712602
v -0.02262290 -0.00914245 0.03806387
v -0.02407783 -0.00853448 0.03715060
v 0.00294575 -0.00853448 0.04033299
v 0.00257367 -0.00914245 0.04043485
v 0.00270246 -0.01039347 0.04044188
v 0.00278833 -0.01164449 0.04044539
v 0.00278833 -0.01200401 0.04044539
v -0.00003090 -0.02226645 0.04064912
v -0.00019786 -0.02601074 0.04055779
v 0.00044613 -0.02788727 0.04038568
v -0.00003090 -0.03163447 0.04021005
v 0.00184382 -0.03839524 0.03947592
v 0.00371853 -0.03839524 0.03909305
v 0.00429574 -0.03839524 0.03894904
v -0.01900226 -0.02601074 0.03818681
v -0.01614487 -0.03839524 0.03759319
v -0.01862064 -0.02781419 0.03808143
v -0.01789556 -0.02714484 0.03859778
v -0.01806252 -0.02601074 0.03867857
v -0.01833919 -0.02413713 0.03880854
v -0.01860633 -0.02226645 0.03892445
v -0.01894502 -0.02050392 0.03896309
v -0.01877329 -0.01851632 0.03922653
v -0.01877329 -0.01663979 0.03938460
v -0.02030454 -0.01476619 0.03885771
v -0.02161637 -0.01027947 0.03858373
v -0.02151142 -0.01152757 0.03853104
v -0.02139694 -0.01289258 0.03847133
v -0.02235099 -0.01094883 0.03807090
v -0.02266106 -0.00853448 0.03808846
v 0.00250212 -0.00853448 0.04042783
v -0.00190562 -0.00853448 0.04113737
v -0.00190562 -0.00914245 0.04114088
v -0.00190562 -0.01101606 0.04114439
v -0.00190562 -0.01289258 0.04113737
v -0.00190562 -0.01476619 0.04111278
v -0.00190562 -0.01663979 0.04108117
v -0.00003090 -0.02038992 0.04069830
v -0.00190562 -0.01851632 0.04103550
v -0.00190562 -0.02038992 0.04097930
v -0.00049362 -0.02788727 0.04050159
v -0.00190562 -0.02226645 0.04091256
v -0.00190562 -0.02413713 0.04083177
v -0.00190562 -0.02601074 0.04074396
v -0.00011199 -0.02975503 0.04034353
v -0.00003090 -0.03839524 0.03973234
v -0.00079414 -0.02912367 0.04046295
v -0.00125686 -0.03037469 0.04042080
v -0.01503817 -0.03839524 0.03820789
v -0.01465177 -0.03839524 0.03839405
v -0.01418906 -0.03839524 0.03861183
v -0.01699398 -0.02781419 0.03888581
v -0.01689857 -0.02601074 0.03916682
v -0.01689857 -0.02413713 0.03940216
v -0.01689857 -0.02226645 0.03960940
v -0.01689857 -0.02038992 0.03977449
v -0.01689857 -0.01851632 0.03991851
v -0.01877329 -0.01476619 0.03951807
v -0.02045719 -0.01289258 0.03892796
v -0.02079111 -0.01094883 0.03892094
v -0.02064801 -0.00914245 0.03910710
v -0.02064801 -0.00853448 0.03914574
v -0.02172609 -0.00853448 0.03864345
v -0.00378033 -0.00853448 0.04134110
v -0.00378033 -0.00914245 0.04134110
v -0.00378033 -0.01101606 0.04132353
v -0.00378033 -0.01289258 0.04129894
v -0.00378033 -0.01476619 0.04126382
v -0.00378033 -0.01663979 0.04122167
v -0.00378033 -0.01851632 0.04115844
v -0.00378033 -0.02038992 0.04109522
v -0.00378033 -0.02226645 0.04101794
v -0.00190562 -0.02788727 0.04063507
v -0.00378033 -0.02601074 0.04084231
v -0.00378033 -0.02788727 0.04074396
v -0.00190562 -0.03839524 0.03988338
v -0.00189131 -0.02975503 0.04051213
v -0.00250667 -0.03099727 0.04046647
v -0.01399825 -0.03839524 0.03867857
v -0.01502386 -0.02788727 0.03961291
v -0.01502386 -0.02601074 0.03982015
v -0.01502386 -0.02413713 0.04000632
v -0.01486167 -0.02216123 0.04022059
v -0.01521467 -0.02038992 0.04025923
v -0.01547703 -0.01851632 0.04032948
v -0.01572986 -0.01663979 0.04038919
v -0.01689857 -0.01663979 0.04004847
v -0.01877329 -0.01289258 0.03964804
v -0.01877329 -0.01101606 0.03976747
v -0.01877329 -0.00914245 0.03986933
v -0.01877329 -0.00853448 0.03990094
v -0.00565505 -0.00853448 0.04140081
v -0.00565505 -0.00914245 0.04139378
v -0.00939971 -0.01289258 0.04137973
v -0.00939971 -0.01476619 0.04134110
v -0.00939971 -0.01663979 0.04128841
v -0.00939971 -0.01851632 0.04123221
v -0.00939971 -0.02038992 0.04115493
v -0.00378033 -0.02976087 0.04062804
v -0.00939971 -0.02226645 0.04106360
v -0.00565505 -0.02976087 0.04065615
v -0.00378033 -0.03725821 0.04005550
v -0.00378033 -0.03839524 0.03995714
v -0.01323977 -0.03839524 0.03893850
v -0.01314914 -0.02788727 0.04012224
v -0.01308236 -0.02615104 0.04030138
v -0.01364048 -0.02413713 0.04035055
v -0.01391238 -0.02271658 0.04040675
v -0.01412704 -0.02146849 0.04045242
v -0.01454206 -0.01851632 0.04054726
v -0.01588251 -0.01537708 0.04042432
v -0.01479011 -0.01663979 0.04059643
v -0.01674593 -0.01475742 0.04021005
v -0.01705599 -0.01289258 0.04022410
v -0.01738037 -0.00914245 0.04032245
v -0.01837259 -0.00853448 0.04003091
v -0.00939971 -0.00914245 0.04141486
v -0.00939971 -0.01101606 0.04140784
v -0.00939971 -0.00853448 0.04141486
v -0.01127442 -0.00853448 0.04141135
v -0.01127442 -0.00914245 0.04139730
v -0.01127442 -0.01101606 0.04134812
v -0.01127442 -0.01289258 0.04129543
v -0.01127442 -0.01476619 0.04123572
v -0.01127442 -0.01663979 0.04115844
v -0.01127442 -0.01851632 0.04107765
v -0.00577907 -0.03178062 0.04051213
v -0.01127442 -0.02038992 0.04098633
v -0.00939971 -0.02413713 0.04096174
v -0.00661864 -0.03258151 0.04044188
v -0.00565505 -0.03725821 0.04006252
v -0.00565505 -0.03839524 0.03995012
v -0.01127442 -0.03839524 0.03944782
v -0.01217600 -0.02687008 0.04043485
v -0.01270074 -0.02413713 0.04054023
v -0.01323501 -0.02216123 0.04057887
v -0.01314914 -0.02038992 0.04070181
v -0.01314914 -0.01851632 0.04081070
v -0.01516219 -0.01475742 0.04061048
v -0.01601607 -0.01412606 0.04045593
v -0.01314914 -0.01663979 0.04090554
v -0.01502386 -0.01289258 0.04072288
v -0.01742807 -0.00853448 0.04033650
v -0.01628321 -0.01101606 0.04052618
v -0.01314914 -0.00853448 0.04120411
v -0.01314914 -0.00914245 0.04118654
v -0.01314914 -0.01101606 0.04113034
v -0.01314914 -0.01289258 0.04106009
v -0.01314914 -0.01476619 0.04098633
v -0.01127442 -0.02226645 0.04088095
v -0.01127442 -0.02413713 0.04076152
v -0.00939971 -0.02601074 0.04083177
v -0.00752499 -0.03725821 0.03999578
v -0.00752499 -0.03839524 0.03987636
v -0.01053503 -0.03839524 0.03956374
v -0.01182777 -0.02788727 0.04038919
v -0.01088803 -0.02788727 0.04052267
v -0.01144138 -0.02615104 0.04059643
v -0.01612102 -0.01289258 0.04048403
v -0.01502386 -0.01101606 0.04080016
v -0.01644063 -0.00914245 0.04056482
v -0.01649310 -0.00853448 0.04057536
v -0.01502386 -0.00853448 0.04089149
v -0.01502386 -0.00914245 0.04087041
v -0.00939971 -0.03725821 0.03983772
v -0.00939971 -0.03839524 0.03972883
v -0.00866032 -0.03839524 0.03978854
f 1 2 3
f 1 3 4
f 1 4 11
f 1 11 21
f 1 21 34
f 1 34 52
f 1 52 87
f 1 87 122
f 1 122 121
f 1 121 156
f 1 156 157
f 1 157 179
f 1 179 203
f 1 203 228
f 1 228 257
f 1 257 283
f 1 283 313
f 1 313 349
f 1 349 351
f 1 351 382
f 1 382 413
f 1 413 446
f 1 446 448
f 1 448 447
f 1 447 480
f 1 480 508
f 1 508 534
f 1 534 533
f 1 533 566
f 1 566 564
f 1 564 563
f 1 563 599
f 1 599 626
f 1 626 629
f 1 629 654
f 1 654 680
f 1 680 704
f 1 704 705
f 1 705 730
f 1 730 731
f 1 731 756
f 1 756 785
f 1 785 807
f 1 807 832
f 1 832 860
f 1 860 893
f 1 893 892
f 1 892 921
f 1 921 946
f 1 946 973
f 1 973 992
f 1 992 993
f 1 993 975
f 1 975 950
f 1 950 949
f 1 949 922
f 1 922 894
f 1 894 862
f 1 862 861
f 1 861 833
f 1 833 808
f 1 808 786
f 1 786 757
f 1 757 732
f 1 732 707
f 1 707 693
f 1 693 692
f 1 692 666
f 1 666 637
f 1 637 636
f 1 636 630
f 1 630 605
f 1 605 604
f 1 604 603
f 1 603 602
f 1 602 570
f 1 570 537
f 1 537 511
f 1 511 484
f 1 484 452
f 1 452 451
f 1 451 449
f 1 449 416
f 1 416 384
f 1 384 383
f 1 383 352
f 1 352 314
f 1 314 284
f 1 284 258
f 1 258 229
f 1 229 204
f 1 204 181
f 1 181 158
f 1 158 124
f 1 124 88
f 1 88 53
f 1 53 36
f 1 36 23
f 1 23 13
f 1 13 5
f 1 5 2
f 2 5 6
f 2 6 7
f 2 7 3
f 3 7 8
f 3 8 9
f 3 9 10
f 3 10 4
f 4 10 11
f 5 12 6
f 5 13 14
f 5 14 12
f 6 12 15
f 6 15 7
f 7 15 16
f 7 16 8
f 8 16 17
f 8 17 18
f 8 18 19
f 8 19 9
f 9 19 10
f 10 20 11
f 10 19 20
f 11 20 21
f 12 14 22
f 12 22 15
f 13 23 14
f 14 23 24
f 14 24 25
f 14 25 22
f 15 22 16
f 16 22 26
f 16 26 17
f 17 27 28
f 17 28 29
f 17 29 18
f 17 26 27
f 18 29 30
f 18 30 31
f 18 31 19
f 19 31 20
f 20 32 33
f 20 33 21
f 20 31 32
f 21 33 34
f 22 25 35
f 22 35 26
f 23 36 37
f 23 37 24
f 24 37 38
f 24 38 25
f 25 38 39
f 25 39 35
f 26 35 40
f 26 40 41
f 26 41 28
f 26 28 27
f 28 42 43
f 28 43 44
f 28 44 45
f 28 45 29
f 28 41 42
f 29 46 47
f 29 47 30
f 29 45 46
f 30 47 48
f 30 48 31
f 31 48 49
f 31 49 32
f 32 49 50
f 32 50 33
f 33 50 51
f 33 51 34
f 34 51 52
f 35 39 40
f 36 53 37
f 37 53 54
f 37 54 55
f 37 55 38
f 38 55 56
f 38 56 57
f 38 57 39
f 39 57 58
f 39 58 59
f 39 59 40
f 40 60 41
f 40 59 60
f 41 61 62
f 41 62 42
f 41 60 59
f 41 59 63
f 41 63 61
f 42 62 64
f 42 64 43
f 43 65 66
f 43 66 67
f 43 67 46
f 43 46 44
f 43 64 65
f 44 46 45
f 46 67 68
f 46 68 69
f 46 69 47
f 47 69 70
f 47 70 48
f 48 70 49
f 49 71 72
f 49 72 73
f 49 73 74
f 49 74 75
f 49 75 76
f 49 76 77
f 49 77 50
f 49 70 78
f 49 78 79
f 49 79 71
f 50 77 80
f 50 80 81
f 50 81 82
f 50 82 51
f 51 82 83
f 51 83 84
f 51 84 52
f 52 85 86
f 52 86 87
f 52 84 85
f 53 88 54
f 54 89 56
f 54 56 55
f 54 88 90
f 54 90 89
f 56 89 91
f 56 91 57
f 57 91 92
f 57 92 58
f 58 93 59
f 58 92 93
f 59 93 94
f 59 94 63
f 61 63 94
f 61 94 95
f 61 95 96
f 61 96 97
f 61 97 98
f 61 98 99
f 61 99 62
f 62 99 100
f 62 100 64
f 64 100 101
f 64 101 102
f 64 102 103
f 64 103 65
f 65 103 104
f 65 104 66
f 66 104 105
f 66 105 79
f 66 79 67
f 67 79 68
f 68 79 69
f 69 79 70
f 70 79 78
f 71 79 72
f 72 79 105
f 72 105 106
f 72 106 73
f 73 106 107
f 73 107 108
f 73 108 74
f 74 108 109
f 74 109 110
f 74 110 75
f 75 110 111
f 75 111 76
f 76 111 77
f 77 111 112
f 77 112 80
f 80 112 113
f 80 113 81
f 81 113 114
f 81 114 115
f 81 115 116
f 81 116 82
f 82 116 83
f 83 116 115
f 83 115 117
f 83 117 118
f 83 118 119
f 83 119 86
f 83 86 85
f 83 85 84
f 86 120 121
f 86 121 122
f 86 122 87
f 86 119 117
f 86 117 123
f 86 123 120
f 88 124 90
f 89 90 91
f 90 125 126
f 90 126 91
f 90 124 125
f 91 126 127
f 91 127 92
f 92 127 93
f 93 127 128
f 93 128 94
f 94 128 129
f 94 129 130
f 94 130 131
f 94 131 132
f 94 132 133
f 94 133 96
f 94 96 95
f 96 133 132
f 96 132 131
f 96 131 130
f 96 130 169
f 96 169 193
f 96 193 192
f 96 192 215
f 96 215 245
f 96 245 244
f 96 244 273
f 96 273 272
f 96 272 271
f 96 271 293
f 96 293 292
f 96 292 327
f 96 327 365
f 96 365 397
f 96 397 396
f 96 396 395
f 96 395 428
f 96 428 461
f 96 461 492
f 96 492 491
f 96 491 519
f 96 519 518
f 96 518 550
f 96 550 572
f 96 572 571
f 96 571 584
f 96 584 583
f 96 583 615
f 96 615 639
f 96 639 640
f 96 640 665
f 96 665 664
f 96 664 663
f 96 663 691
f 96 691 690
f 96 690 717
f 96 717 741
f 96 741 768
f 96 768 767
f 96 767 793
f 96 793 817
f 96 817 844
f 96 844 843
f 96 843 842
f 96 842 876
f 96 876 906
f 96 906 933
f 96 933 962
f 96 962 984
f 96 984 997
f 96 997 996
f 96 996 985
f 96 985 963
f 96 963 934
f 96 934 909
f 96 909 881
f 96 881 880
f 96 880 879
f 96 879 846
f 96 846 821
f 96 821 797
f 96 797 770
f 96 770 743
f 96 743 719
f 96 719 694
f 96 694 669
f 96 669 644
f 96 644 641
f 96 641 616
f 96 616 587
f 96 587 586
f 96 586 553
f 96 553 522
f 96 522 496
f 96 496 494
f 96 494 463
f 96 463 493
f 96 493 472
f 96 472 471
f 96 471 442
f 96 442 407
f 96 407 430
f 96 430 429
f 96 429 399
f 96 399 371
f 96 371 370
f 96 370 366
f 96 366 331
f 96 331 330
f 96 330 329
f 96 329 296
f 96 296 274
f 96 274 246
f 96 246 216
f 96 216 194
f 96 194 172
f 96 172 171
f 96 171 170
f 96 170 144
f 96 144 143
f 96 143 142
f 96 142 141
f 96 141 140
f 96 140 137
f 96 137 136
f 96 136 135
f 96 135 134
f 96 134 100
f 96 100 99
f 96 99 98
f 96 98 97
f 100 134 101
f 101 135 102
f 101 134 135
f 102 135 136
f 102 136 137
f 102 137 138
f 102 138 139
f 102 139 103
f 103 139 104
f 104 139 106
f 104 106 105
f 106 139 138
f 106 138 140
f 106 140 141
f 106 141 142
f 106 142 143
f 106 143 144
f 106 144 107
f 107 144 145
f 107 145 146
f 107 146 147
f 107 147 148
f 107 148 108
f 108 148 149
f 108 149 109
f 109 149 150
f 109 150 151
f 109 151 110
f 110 152 111
f 110 151 153
f 110 153 152
f 111 152 154
f 111 154 113
f 111 113 112
f 113 154 114
f 114 152 153
f 114 153 117
f 114 117 115
f 114 154 152
f 117 153 155
f 117 155 123
f 117 119 118
f 120 123 121
f 121 123 156
f 123 155 157
f 123 157 156
f 124 158 159
f 124 159 125
f 125 159 160
f 125 160 161
f 125 161 126
f 126 161 162
f 126 162 163
f 126 163 127
f 127 163 164
f 127 164 165
f 127 165 128
f 128 165 164
f 128 164 166
f 128 166 129
f 129 166 167
f 129 167 130
f 130 167 168
f 130 168 169
f 137 140 138
f 144 170 146
f 144 146 145
f 146 170 171
f 146 171 147
f 147 171 148
f 148 171 172
f 148 172 173
f 148 173 149
f 149 174 150
f 149 173 174
f 150 174 175
f 150 175 176
f 150 176 151
f 151 176 177
f 151 177 153
f 153 177 155
f 155 177 178
f 155 178 157
f 157 178 179
f 158 180 159
f 158 181 182
f 158 182 180
f 159 180 182
f 159 182 183
f 159 183 160
f 160 183 184
f 160 184 185
f 160 185 161
f 161 185 186
f 161 186 162
f 162 186 163
f 163 186 187
f 163 187 188
f 163 188 164
f 164 188 189
f 164 189 166
f 166 189 168
f 166 168 167
f 168 189 190
f 168 190 191
f 168 191 192
f 168 192 193
f 168 193 169
f 172 194 195
f 172 195 173
f 173 195 196
f 173 196 174
f 174 196 197
f 174 197 198
f 174 198 199
f 174 199 175
f 175 199 200
f 175 200 201
f 175 201 176
f 176 201 200
f 176 200 178
f 176 178 177
f 178 200 202
f 178 202 179
f 179 202 203
f 181 204 182
f 182 204 205
f 182 205 183
f 183 205 206
f 183 206 207
f 183 207 184
f 184 207 208
f 184 208 185
f 185 208 209
f 185 209 186
f 186 209 210
f 186 210 187
f 187 210 188
f 188 210 211
f 188 211 212
f 188 212 190
f 188 190 213
f 188 213 189
f 189 213 190
f 190 212 214
f 190 214 191
f 191 214 215
f 191 215 192
f 194 216 217
f 194 217 195
f 195 217 196
f 196 217 218
f 196 218 198
f 196 198 197
f 198 219 220
f 198 220 221
f 198 221 200
f 198 200 199
f 198 218 219
f 200 221 222
f 200 222 223
f 200 223 224
f 200 224 202
f 202 224 225
f 202 225 226
f 202 226 203
f 203 226 227
f 203 227 228
f 204 229 205
f 205 229 206
f 206 229 230
f 206 230 231
f 206 231 232
f 206 232 233
f 206 233 207
f 207 233 234
f 207 234 208
f 208 234 235
f 208 235 209
f 209 235 236
f 209 236 210
f 210 237 211
f 210 236 238
f 210 238 237
f 211 237 212
f 212 237 239
f 212 239 214
f 214 239 240
f 214 240 241
f 214 241 242
f 214 242 243
f 214 243 244
f 214 244 245
f 214 245 215
f 216 246 247
f 216 247 217
f 217 247 218
f 218 247 219
f 219 247 220
f 220 247 222
f 220 222 221
f 222 248 249
f 222 249 250
f 222 250 251
f 222 251 223
f 222 247 252
f 222 252 248
f 223 251 225
f 223 225 224
f 225 251 253
f 225 253 254
f 225 254 226
f 226 254 227
f 227 254 228
f 228 254 255
f 228 255 256
f 228 256 257
f 229 258 230
f 230 258 259
f 230 259 231
f 231 259 232
f 232 259 260
f 232 260 261
f 232 261 262
f 232 262 233
f 233 262 234
f 234 262 263
f 234 263 235
f 235 263 238
f 235 238 236
f 237 238 264
f 237 264 239
f 238 263 265
f 238 265 266
f 238 266 264
f 239 264 240
f 240 264 242
f 240 242 241
f 242 264 267
f 242 267 268
f 242 268 269
f 242 269 270
f 242 270 243
f 243 270 271
f 243 271 272
f 243 272 273
f 243 273 244
f 246 274 252
f 246 252 247
f 248 275 249
f 248 252 275
f 249 275 276
f 249 276 277
f 249 277 250
f 250 277 251
f 251 277 253
f 252 274 275
f 253 277 254
f 254 277 278
f 254 278 255
f 255 278 256
f 256 278 279
f 256 279 280
f 256 280 281
f 256 281 257
f 257 281 282
f 257 282 283
f 258 284 285
f 258 285 260
f 258 260 259
f 260 285 286
f 260 286 261
f 261 287 262
f 261 286 288
f 261 288 287
f 262 287 263
f 263 287 265
f 264 266 267
f 265 268 266
f 265 287 288
f 265 288 289
f 265 289 290
f 265 290 268
f 266 268 267
f 268 290 291
f 268 291 269
f 269 291 270
f 270 292 293
f 270 293 271
f 270 291 294
f 270 294 295
f 270 295 292
f 274 296 275
f 275 296 297
f 275 297 298
f 275 298 299
f 275 299 300
f 275 300 276
f 276 300 301
f 276 301 302
f 276 302 303
f 276 303 277
f 277 303 278
f 278 303 302
f 278 302 304
f 278 304 279
f 279 304 280
f 280 304 305
f 280 305 306
f 280 306 307
f 280 307 308
f 280 308 309
f 280 309 310
f 280 310 282
f 280 282 281
f 282 310 311
f 282 311 283
f 283 311 312
f 283 312 313
f 284 314 315
f 284 315 285
f 285 315 316
f 285 316 317
f 285 317 286
f 286 317 318
f 286 318 288
f 288 318 319
f 288 319 289
f 289 319 290
f 290 319 320
f 290 320 291
f 291 320 321
f 291 321 322
f 291 322 323
f 291 323 324
f 291 324 325
f 291 325 326
f 291 326 294
f 292 295 327
f 294 326 295
f 295 326 328
f 295 328 327
f 296 329 297
f 297 329 330
f 297 330 331
f 297 331 298
f 298 331 332
f 298 332 333
f 298 333 299
f 299 333 334
f 299 334 300
f 300 334 301
f 301 334 335
f 301 335 305
f 301 305 302
f 302 305 304
f 305 336 306
f 305 335 336
f 306 336 307
f 307 336 335
f 307 335 337
f 307 337 338
f 307 338 339
f 307 339 340
f 307 340 341
f 307 341 342
f 307 342 343
f 307 343 344
f 307 344 345
f 307 345 308
f 308 345 309
f 309 345 346
f 309 346 310
f 310 346 347
f 310 347 348
f 310 348 311
f 311 349 312
f 311 348 350
f 311 350 351
f 311 351 349
f 312 349 313
f 314 352 315
f 315 352 353
f 315 353 316
f 316 353 354
f 316 354 317
f 317 354 355
f 317 355 318
f 318 355 356
f 318 356 319
f 319 356 321
f 319 321 320
f 321 356 322
f 322 324 323
f 322 356 357
f 322 357 358
f 322 358 359
f 322 359 360
f 322 360 324
f 324 360 361
f 324 361 362
f 324 362 325
f 325 363 326
f 325 362 364
f 325 364 363
f 326 363 328
f 327 328 365
f 328 363 365
f 331 366 332
f 332 367 338
f 332 338 368
f 332 368 369
f 332 369 333
f 332 366 370
f 332 370 371
f 332 371 367
f 333 369 335
f 333 335 334
f 335 369 337
f 337 369 338
f 338 367 372
f 338 372 339
f 338 369 368
f 339 372 340
f 340 373 374
f 340 374 375
f 340 375 341
f 340 372 376
f 340 376 373
f 341 375 342
f 342 375 377
f 342 377 343
f 343 377 344
f 344 377 378
f 344 378 345
f 345 378 379
f 345 379 346
f 346 379 347
f 347 379 348
f 348 380 381
f 348 381 382
f 348 382 350
f 348 379 380
f 350 382 351
f 352 383 353
f 353 383 384
f 353 384 385
f 353 385 386
f 353 386 354
f 354 386 387
f 354 387 355
f 355 387 357
f 355 357 356
f 357 387 358
f 358 388 389
f 358 389 359
f 358 387 388
f 359 389 390
f 359 390 391
f 359 391 360
f 360 391 392
f 360 392 393
f 360 393 361
f 361 393 394
f 361 394 362
f 362 394 395
f 362 395 364
f 363 364 365
f 364 395 396
f 364 396 397
f 364 397 365
f 367 371 398
f 367 398 372
f 371 399 398
f 372 400 376
f 372 398 400
f 373 376 401
f 373 401 402
f 373 402 403
f 373 403 374
f 374 403 404
f 374 404 375
f 375 404 405
f 375 405 377
f 376 400 406
f 376 406 407
f 376 407 408
f 376 408 401
f 377 405 409
f 377 409 410
f 377 410 378
f 378 410 411
f 378 411 379
f 379 411 380
f 380 411 412
f 380 412 381
f 381 413 382
f 381 412 414
f 381 414 415
f 381 415 413
f 384 416 417
f 384 417 385
f 385 417 386
f 386 417 418
f 386 418 387
f 387 418 388
f 388 418 417
f 388 417 419
f 388 419 420
f 388 420 389
f 389 421 422
f 389 422 390
f 389 420 423
f 389 423 421
f 390 422 421
f 390 421 424
f 390 424 391
f 391 424 392
f 392 425 393
f 392 424 421
f 392 421 425
f 393 425 426
f 393 426 427
f 393 427 394
f 394 427 395
f 395 427 428
f 398 407 406
f 398 406 400
f 398 399 429
f 398 429 430
f 398 430 407
f 401 431 432
f 401 432 402
f 401 408 431
f 402 433 434
f 402 434 435
f 402 435 436
f 402 436 437
f 402 437 403
f 402 432 438
f 402 438 439
f 402 439 433
f 403 437 440
f 403 440 404
f 404 440 405
f 405 440 441
f 405 441 409
f 407 442 443
f 407 443 408
f 408 443 432
f 408 432 431
f 409 441 410
f 410 441 411
f 411 441 412
f 412 441 444
f 412 444 445
f 412 445 414
f 413 415 446
f 414 445 415
f 415 445 447
f 415 447 448
f 415 448 446
f 416 449 417
f 417 450 453
f 417 453 419
f 417 449 451
f 417 451 452
f 417 452 450
f 419 453 423
f 419 423 420
f 421 454 455
f 421 455 425
f 421 423 456
f 421 456 457
f 421 457 458
f 421 458 459
f 421 459 454
f 423 453 456
f 425 455 460
f 425 460 426
f 426 460 427
f 427 460 428
f 428 460 461
f 432 443 442
f 432 442 438
f 433 439 434
f 434 439 462
f 434 462 463
f 434 463 464
f 434 464 465
f 434 465 466
f 434 466 467
f 434 467 468
f 434 468 469
f 434 469 437
f 434 437 435
f 435 437 436
f 437 469 470
f 437 470 440
f 438 442 471
f 438 471 472
f 438 472 462
f 438 462 439
f 440 470 473
f 440 473 474
f 440 474 441
f 441 473 475
f 441 475 476
f 441 476 444
f 441 474 473
f 444 476 475
f 444 475 477
f 444 477 478
f 444 478 445
f 445 478 479
f 445 479 447
f 447 479 480
f 450 481 482
f 450 482 483
f 450 483 456
f 450 456 453
f 450 452 484
f 450 484 481
f 454 459 455
f 455 459 485
f 455 485 490
f 455 490 460
f 456 483 486
f 456 486 457
f 457 486 487
f 457 487 458
f 458 487 488
f 458 488 459
f 459 488 489
f 459 489 485
f 460 490 491
f 460 491 492
f 460 492 461
f 462 472 493
f 462 493 463
f 463 494 464
f 464 495 466
f 464 466 465
f 464 494 496
f 464 496 495
f 466 495 497
f 466 497 468
f 466 468 467
f 468 497 498
f 468 498 499
f 468 499 469
f 469 499 500
f 469 500 501
f 469 501 470
f 470 501 500
f 470 500 502
f 470 502 503
f 470 503 473
f 473 503 477
f 473 477 475
f 477 503 504
f 477 504 505
f 477 505 478
f 478 505 506
f 478 506 479
f 479 506 507
f 479 507 508
f 479 508 480
f 481 509 482
f 481 484 509
f 482 509 510
f 482 510 483
f 483 510 486
f 484 511 509
f 485 489 512
f 485 512 513
f 485 513 490
f 486 510 514
f 486 514 487
f 487 514 488
f 488 515 516
f 488 516 517
f 488 517 489
f 488 514 515
f 489 517 512
f 490 513 518
f 490 518 519
f 490 519 491
f 495 520 521
f 495 521 497
f 495 496 522
f 495 522 520
f 497 523 524
f 497 524 498
f 497 521 520
f 497 520 523
f 498 524 525
f 498 525 526
f 498 526 499
f 499 526 525
f 499 525 527
f 499 527 528
f 499 528 500
f 500 528 503
f 500 503 502
f 503 528 504
f 504 529 530
f 504 530 505
f 504 528 531
f 504 531 529
f 505 530 506
f 506 530 532
f 506 532 533
f 506 533 507
f 507 533 534
f 507 534 508
f 509 511 535
f 509 535 510
f 510 535 536
f 510 536 514
f 511 537 535
f 512 517 513
f 513 517 538
f 513 538 539
f 513 539 518
f 514 536 540
f 514 540 541
f 514 541 515
f 515 541 542
f 515 542 516
f 516 543 544
f 516 544 517
f 516 542 545
f 516 545 546
f 516 546 543
f 517 544 547
f 517 547 548
f 517 548 549
f 517 549 538
f 518 539 550
f 520 551 552
f 520 552 523
f 520 522 553
f 520 553 551
f 523 552 554
f 523 554 555
f 523 555 524
f 524 555 556
f 524 556 557
f 524 557 525
f 525 557 558
f 525 558 559
f 525 559 531
f 525 531 528
f 525 528 527
f 529 531 560
f 529 560 561
f 529 561 530
f 530 561 562
f 530 562 567
f 530 567 532
f 531 559 556
f 531 556 560
f 532 563 564
f 532 564 565
f 532 565 566
f 532 566 533
f 532 567 563
f 535 537 568
f 535 568 569
f 535 569 536
f 536 569 540
f 537 570 568
f 538 549 539
f 539 549 571
f 539 571 572
f 539 572 550
f 540 569 573
f 540 573 574
f 540 574 541
f 541 574 542
f 542 574 545
f 543 575 576
f 543 576 544
f 543 546 545
f 543 545 577
f 543 577 578
f 543 578 575
f 544 576 547
f 545 574 579
f 545 579 577
f 547 576 580
f 547 580 548
f 548 580 581
f 548 581 549
f 549 581 582
f 549 582 583
f 549 583 584
f 549 584 571
f 551 585 552
f 551 553 586
f 551 586 587
f 551 587 585
f 552 585 588
f 552 588 554
f 554 588 589
f 554 589 590
f 554 590 555
f 555 590 591
f 555 591 592
f 555 592 593
f 555 593 556
f 556 558 557
f 556 593 592
f 556 592 594
f 556 594 560
f 556 559 558
f 560 594 592
f 560 592 595
f 560 595 561
f 561 595 562
f 562 595 596
f 562 596 597
f 562 597 567
f 563 567 598
f 563 598 599
f 564 566 565
f 567 597 600
f 567 600 601
f 567 601 599
f 567 599 598
f 568 573 569
f 568 570 602
f 568 602 603
f 568 603 604
f 568 604 605
f 568 605 606
f 568 606 607
f 568 607 573
f 573 607 574
f 574 607 579
f 575 578 608
f 575 608 609
f 575 609 610
f 575 610 576
f 576 610 580
f 577 579 607
f 577 607 606
f 577 606 611
f 577 611 612
f 577 612 578
f 578 612 608
f 580 610 581
f 581 610 613
f 581 613 614
f 581 614 582
f 582 614 583
f 583 614 615
f 585 589 588
f 585 587 589
f 587 616 589
f 589 616 590
f 590 617 618
f 590 618 591
f 590 616 617
f 591 619 595
f 591 595 592
f 591 618 617
f 591 617 620
f 591 620 619
f 595 619 621
f 595 621 622
f 595 622 623
f 595 623 596
f 596 623 624
f 596 624 597
f 597 624 625
f 597 625 600
f 599 601 626
f 600 625 627
f 600 627 628
f 600 628 601
f 601 628 629
f 601 629 626
f 605 630 606
f 606 630 611
f 608 612 631
f 608 631 632
f 608 632 609
f 609 632 610
f 610 632 633
f 610 633 634
f 610 634 635
f 610 635 613
f 611 630 636
f 611 636 637
f 611 637 638
f 611 638 612
f 612 638 631
f 613 635 614
f 614 639 615
f 614 635 640
f 614 640 639
f 616 641 617
f 617 642 643
f 617 643 620
f 617 641 644
f 617 644 642
f 619 622 621
f 619 620 645
f 619 645 622
f 620 643 646
f 620 646 647
f 620 647 645
f 622 624 623
f 622 645 648
f 622 648 624
f 624 648 649
f 624 649 650
f 624 650 625
f 625 650 651
f 625 651 627
f 627 652 628
f 627 651 653
f 627 653 652
f 628 654 629
f 628 652 653
f 628 653 655
f 628 655 654
f 631 638 656
f 631 656 657
f 631 657 658
f 631 658 632
f 632 658 633
f 633 658 659
f 633 659 634
f 634 659 635
f 635 659 660
f 635 660 661
f 635 661 662
f 635 662 663
f 635 663 664
f 635 664 665
f 635 665 640
f 637 666 638
f 638 666 667
f 638 667 656
f 642 644 668
f 642 668 643
f 643 668 646
f 644 669 668
f 645 647 670
f 645 670 648
f 646 671 670
f 646 670 647
f 646 668 672
f 646 672 671
f 648 670 673
f 648 673 674
f 648 674 649
f 649 674 650
f 650 674 651
f 651 674 675
f 651 675 653
f 653 675 676
f 653 676 677
f 653 677 678
f 653 678 655
f 654 655 679
f 654 679 680
f 655 678 681
f 655 681 679
f 656 667 682
f 656 682 683
f 656 683 657
f 657 683 684
f 657 684 658
f 658 685 686
f 658 686 659
f 658 684 687
f 658 687 685
f 659 686 688
f 659 688 660
f 660 688 689
f 660 689 661
f 661 689 662
f 662 689 690
f 662 690 691
f 662 691 663
f 666 692 667
f 667 692 693
f 667 693 682
f 668 669 672
f 669 694 671
f 669 671 672
f 670 671 695
f 670 695 696
f 670 696 697
f 670 697 673
f 671 694 698
f 671 698 695
f 673 697 674
f 674 697 699
f 674 699 700
f 674 700 675
f 675 700 701
f 675 701 676
f 676 701 677
f 677 701 678
f 678 701 702
f 678 702 703
f 678 703 681
f 679 681 704
f 679 704 680
f 681 705 704
f 681 703 706
f 681 706 705
f 682 693 707
f 682 707 708
f 682 708 683
f 683 708 709
f 683 709 684
f 684 709 710
f 684 710 711
f 684 711 687
f 685 712 686
f 685 687 711
f 685 711 712
f 686 712 713
f 686 713 714
f 686 714 688
f 688 714 715
f 688 715 689
f 689 715 716
f 689 716 690
f 690 716 717
f 694 718 698
f 694 719 718
f 695 698 696
f 696 698 720
f 696 720 697
f 697 720 721
f 697 721 699
f 698 718 722
f 698 722 720
f 699 721 723
f 699 723 700
f 700 723 701
f 701 724 702
f 701 723 725
f 701 725 726
f 701 726 727
f 701 727 724
f 702 724 728
f 702 728 703
f 703 728 729
f 703 729 706
f 705 706 730
f 706 729 731
f 706 731 730
f 707 732 708
f 708 732 733
f 708 733 709
f 709 733 734
f 709 734 735
f 709 735 710
f 710 735 736
f 710 736 711
f 711 736 737
f 711 737 712
f 712 737 713
f 713 737 738
f 713 738 714
f 714 738 739
f 714 739 715
f 715 739 740
f 715 740 716
f 716 740 741
f 716 741 717
f 718 719 742
f 718 742 722
f 719 743 742
f 720 722 744
f 720 744 745
f 720 745 721
f 721 745 746
f 721 746 723
f 722 742 744
f 723 746 726
f 723 726 725
f 724 727 728
f 726 746 747
f 726 747 748
f 726 748 727
f 727 748 749
f 727 749 750
f 727 750 751
f 727 751 752
f 727 752 728
f 728 752 729
f 729 752 753
f 729 753 754
f 729 754 755
f 729 755 731
f 731 755 756
f 732 757 733
f 733 757 758
f 733 758 734
f 734 758 759
f 734 759 735
f 735 759 760
f 735 760 736
f 736 760 761
f 736 761 737
f 737 761 762
f 737 762 763
f 737 763 738
f 738 763 764
f 738 764 739
f 739 764 765
f 739 765 740
f 740 765 766
f 740 766 767
f 740 767 768
f 740 768 741
f 742 769 744
f 742 743 769
f 743 770 771
f 743 771 772
f 743 772 769
f 744 769 745
f 745 769 773
f 745 773 746
f 746 773 747
f 747 773 774
f 747 774 775
f 747 775 776
f 747 776 748
f 748 776 777
f 748 777 749
f 749 777 750
f 750 777 778
f 750 778 779
f 750 779 780
f 750 780 781
f 750 781 782
f 750 782 751
f 751 782 783
f 751 783 752
f 752 783 782
f 752 782 753
f 753 782 754
f 754 782 784
f 754 784 755
f 755 784 785
f 755 785 756
f 757 786 758
f 758 786 787
f 758 787 759
f 759 787 788
f 759 788 760
f 760 788 789
f 760 789 761
f 761 789 790
f 761 790 762
f 762 790 763
f 763 790 791
f 763 791 764
f 764 791 765
f 765 791 792
f 765 792 766
f 766 792 793
f 766 793 767
f 769 772 794
f 769 794 795
f 769 795 774
f 769 774 773
f 770 796 771
f 770 797 796
f 771 796 772
f 772 796 794
f 774 795 775
f 775 795 798
f 775 798 776
f 776 798 799
f 776 799 777
f 777 799 778
f 778 799 800
f 778 800 801
f 778 801 802
f 778 802 779
f 779 802 803
f 779 803 780
f 780 804 805
f 780 805 781
f 780 803 804
f 781 805 782
f 782 805 784
f 784 805 806
f 784 806 807
f 784 807 785
f 786 808 787
f 787 808 809
f 787 809 788
f 788 809 789
f 789 809 810
f 789 810 811
f 789 811 790
f 790 811 812
f 790 812 791
f 791 812 813
f 791 813 814
f 791 814 815
f 791 815 792
f 792 815 816
f 792 816 817
f 792 817 793
f 794 796 795
f 795 796 797
f 795 797 818
f 795 818 819
f 795 819 820
f 795 820 798
f 797 821 818
f 798 820 799
f 799 820 800
f 800 820 822
f 800 822 823
f 800 823 824
f 800 824 801
f 801 824 802
f 802 824 803
f 803 824 825
f 803 825 826
f 803 826 827
f 803 827 828
f 803 828 829
f 803 829 804
f 804 829 805
f 805 829 806
f 806 830 807
f 806 829 831
f 806 831 830
f 807 830 832
f 808 833 809
f 809 833 834
f 809 834 835
f 809 835 836
f 809 836 810
f 810 836 837
f 810 837 811
f 811 837 812
f 812 837 813
f 813 837 814
f 814 838 839
f 814 839 840
f 814 840 815
f 814 837 838
f 815 840 841
f 815 841 842
f 815 842 816
f 816 843 844
f 816 844 817
f 816 842 843
f 818 821 845
f 818 845 820
f 818 820 819
f 820 845 822
f 821 846 847
f 821 847 845
f 822 845 848
f 822 848 823
f 823 848 849
f 823 849 850
f 823 850 851
f 823 851 824
f 824 851 852
f 824 852 825
f 825 852 826
f 826 852 853
f 826 853 827
f 827 853 854
f 827 854 855
f 827 855 856
f 827 856 857
f 827 857 858
f 827 858 828
f 828 858 859
f 828 859 829
f 829 859 831
f 830 831 832
f 831 859 856
f 831 856 860
f 831 860 832
f 833 861 834
f 834 861 862
f 834 862 835
f 835 862 836
f 836 862 863
f 836 863 864
f 836 864 837
f 837 864 865
f 837 865 866
f 837 866 867
f 837 867 868
f 837 868 838
f 838 868 869
f 838 869 870
f 838 870 839
f 839 871 840
f 839 870 872
f 839 872 873
f 839 873 874
f 839 874 871
f 840 871 875
f 840 875 841
f 841 876 842
f 841 875 877
f 841 877 878
f 841 878 876
f 845 847 879
f 845 879 848
f 846 879 847
f 848 879 880
f 848 880 881
f 848 881 882
f 848 882 883
f 848 883 849
f 849 883 850
f 850 883 884
f 850 884 851
f 851 884 885
f 851 885 852
f 852 885 853
f 853 885 886
f 853 886 854
f 854 886 887
f 854 887 888
f 854 888 889
f 854 889 855
f 855 889 890
f 855 890 856
f 856 859 857
f 856 890 891
f 856 891 892
f 856 892 893
f 856 893 860
f 857 859 858
f 862 894 863
f 863 894 864
f 864 894 895
f 864 895 865
f 865 895 896
f 865 896 897
f 865 897 866
f 866 897 867
f 867 897 898
f 867 898 899
f 867 899 869
f 867 869 868
f 869 899 870
f 870 899 900
f 870 900 901
f 870 901 872
f 871 877 875
f 871 874 877
f 872 901 902
f 872 902 873
f 873 902 874
f 874 903 877
f 874 902 904
f 874 904 905
f 874 905 903
f 876 878 906
f 877 903 878
f 878 903 907
f 878 907 908
f 878 908 906
f 881 909 910
f 881 910 884
f 881 884 883
f 881 883 882
f 884 910 885
f 885 910 911
f 885 911 912
f 885 912 886
f 886 912 913
f 886 913 914
f 886 914 915
f 886 915 887
f 887 915 916
f 887 916 917
f 887 917 918
f 887 918 888
f 888 918 890
f 888 890 889
f 890 918 891
f 891 918 919
f 891 919 892
f 892 919 920
f 892 920 921
f 894 922 895
f 895 922 896
f 896 922 923
f 896 923 897
f 897 923 924
f 897 924 898
f 898 924 925
f 898 925 899
f 899 925 926
f 899 926 927
f 899 927 900
f 900 927 901
f 901 927 902
f 902 927 928
f 902 928 904
f 903 905 929
f 903 929 907
f 904 928 930
f 904 930 931
f 904 931 905
f 905 931 929
f 906 908 929
f 906 929 932
f 906 932 933
f 907 929 908
f 909 934 910
f 910 934 911
f 911 934 935
f 911 935 912
f 912 935 936
f 912 936 937
f 912 937 913
f 913 937 938
f 913 938 939
f 913 939 915
f 913 915 914
f 915 939 940
f 915 940 916
f 916 941 917
f 916 940 942
f 916 942 941
f 917 941 943
f 917 943 944
f 917 944 919
f 917 919 918
f 919 944 920
f 920 944 945
f 920 945 921
f 921 945 946
f 922 947 948
f 922 948 923
f 922 949 947
f 923 948 924
f 924 948 950
f 924 950 925
f 925 950 951
f 925 951 952
f 925 952 953
f 925 953 926
f 926 953 927
f 927 953 954
f 927 954 955
f 927 955 928
f 928 955 956
f 928 956 930
f 929 931 957
f 929 957 932
f 930 956 958
f 930 958 959
f 930 959 931
f 931 959 960
f 931 960 957
f 932 957 961
f 932 961 933
f 933 961 962
f 934 963 935
f 935 963 964
f 935 964 936
f 936 964 937
f 937 964 938
f 938 964 965
f 938 965 966
f 938 966 939
f 939 966 967
f 939 967 940
f 940 967 968
f 940 968 942
f 941 942 969
f 941 969 970
f 941 970 943
f 942 968 971
f 942 971 972
f 942 972 969
f 943 970 944
f 944 970 945
f 945 973 946
f 945 970 974
f 945 974 973
f 947 949 950
f 947 950 948
f 950 975 951
f 951 975 952
f 952 975 953
f 953 975 976
f 953 976 977
f 953 977 954
f 954 977 978
f 954 978 979
f 954 979 955
f 955 979 956
f 956 979 971
f 956 971 958
f 957 960 961
f 958 971 968
f 958 968 980
f 958 980 959
f 959 980 981
f 959 981 982
f 959 982 960
f 960 982 983
f 960 983 961
f 961 983 962
f 962 983 984
f 963 985 964
f 964 985 986
f 964 986 987
f 964 987 988
f 964 988 981
f 964 981 965
f 965 981 980
f 965 980 966
f 966 980 967
f 967 980 968
f 969 972 970
f 970 972 989
f 970 989 974
f 971 979 972
f 972 979 990
f 972 990 974
f 972 974 989
f 973 974 991
f 973 991 992
f 974 990 991
f 975 993 976
f 976 993 977
f 977 993 994
f 977 994 978
f 978 994 990
f 978 990 979
f 981 988 982
f 982 995 983
f 982 988 987
f 982 987 995
f 983 995 996
f 983 996 997
f 983 997 984
f 985 996 986
f 986 996 995
f 986 995 987
f 990 994 991
f 991 994 992
f 992 994 993

