# https://github.com/mikedh/trimesh
v -0.03058442 0.05220361 0.00451338
v -0.01313787 0.05220361 0.00727835
v -0.03377320 0.05220361 0.00465011
v -0.02815042 0.05683019 -0.00134571
v -0.02252764 0.05676047 -0.00141661
v -0.02065107 0.05675549 -0.00139129
v -0.02065107 0.05581922 -0.00007970
v -0.01313787 0.05220361 0.02239451
v -0.01924191 0.05698956 -0.00116341
v -0.01752114 0.05883223 -0.00108745
v -0.01313787 0.06497777 -0.00075829
v -0.03428562 0.05220361 0.00468556
v -0.04314566 0.05717383 -0.00100642
v -0.02815042 0.05834915 -0.00225724
v -0.02240299 0.05852843 -0.00240410
v -0.02076879 0.05852843 -0.00238384
v -0.01313787 0.05220859 0.03728278
v -0.01315518 0.05220361 0.03728278
v -0.01868102 0.05826448 -0.00155334
v -0.01313787 0.06770691 -0.00188756
v -0.01313787 0.06591404 -0.00116341
v -0.03564631 0.05220361 0.00478684
v -0.04447518 0.05725849 -0.00092540
v -0.04314566 0.05834915 -0.00159892
v -0.03002699 0.06022169 -0.00250538
v -0.02169668 0.05927048 -0.00267755
v -0.02147163 0.05927048 -0.00267755
v -0.01313787 0.07333451 -0.00335107
v -0.01313787 0.07146196 -0.00299153
v -0.01313787 0.07036134 -0.00271300
v -0.01313787 0.06624273 0.04457500
v -0.01592156 0.06103346 0.04610940
v -0.01745882 0.05893183 0.04631196
v -0.01877796 0.05771169 0.04564858
v -0.02815042 0.05220361 0.04130869
v -0.01313787 0.06943005 -0.00246487
v -0.01313787 0.06772185 -0.00189263
v -0.03751941 0.05220361 0.00526286
v -0.04506724 0.05677043 0.00003171
v -0.04572507 0.05756726 -0.00066207
v -0.04506724 0.05825452 -0.00124950
v -0.04501876 0.06022169 -0.00178628
v -0.04314566 0.06022169 -0.00192808
v -0.02815042 0.06022169 -0.00255602
v -0.04126909 0.07522200 -0.00292569
v -0.03939598 0.07522200 -0.00300166
v -0.03939598 0.07709455 -0.00309281
v -0.02065107 0.07709455 -0.00347767
v -0.01502829 0.07522200 -0.00350299
v -0.01315518 0.07522200 -0.00353338
v -0.01313787 0.07522200 -0.00353338
v -0.01313787 0.06625269 0.04458006
v -0.01313787 0.06772185 0.04526371
v -0.01313787 0.07033644 0.04612966
v -0.01313787 0.07147192 0.04643350
v -0.01313787 0.07334447 0.04678798
v -0.01685984 0.06033624 0.04646895
v -0.01877796 0.06022169 0.04712221
v -0.01877796 0.05864796 0.04649933
v -0.02065107 0.05760212 0.04582582
v -0.03002699 0.05220361 0.04163786
v -0.02837201 0.05220361 0.04135427
v -0.04850877 0.05220361 0.01169419
v -0.04625134 0.05703438 0.00058369
v -0.04620287 0.05881728 -0.00103681
v -0.04850877 0.05861807 0.00228014
v -0.04850877 0.05960913 0.00135849
v -0.04850877 0.06031632 0.00072042
v -0.04654564 0.06022169 -0.00122924
v -0.04850877 0.07709455 -0.00090008
v -0.04516764 0.09396242 -0.00241929
v -0.04423628 0.09298132 -0.00268768
v -0.04267825 0.07709455 -0.00278896
v -0.04126909 0.07709455 -0.00302191
v -0.03002699 0.09396242 -0.00331056
v -0.02815042 0.09396242 -0.00334601
v -0.01313787 0.07709455 -0.00360934
v -0.01313787 0.07522200 0.04699054
v -0.02627731 0.06022169 0.04769445
v -0.01313787 0.07709455 0.04708676
v -0.02065107 0.05853839 0.04657529
v -0.02627731 0.05841887 0.04678292
v -0.03066059 0.05220361 0.04165811
v -0.04850877 0.05585906 0.00556164
v -0.04850877 0.05220361 0.03512044
v -0.04850877 0.05696964 0.00401204
v -0.04850877 0.05705928 0.00389050
v -0.04850877 0.05768181 0.00321699
v -0.04850877 0.06171575 -0.00002906
v -0.04850877 0.06039102 0.00066977
v -0.04850877 0.06209922 -0.00011515
v -0.04850877 0.07782165 -0.00089501
v -0.04485950 0.09566564 -0.00197365
v -0.04412549 0.09492359 -0.00268262
v -0.04422936 0.09396242 -0.00269275
v -0.04804482 0.09150221 -0.00089501
v -0.04850877 0.09192552 -0.00049495
v -0.04651794 0.09396242 -0.00148244
v -0.04613709 0.09583994 -0.00109251
v -0.04314566 0.09396242 -0.00274339
v -0.03002699 0.09547639 -0.00298140
v -0.04314566 0.09497339 -0.00270287
v -0.02065107 0.09396242 -0.00345742
v -0.02815042 0.09554113 -0.00300166
v -0.01313787 0.07896709 -0.00355870
v -0.03083024 0.06113805 0.04794765
v -0.04126909 0.06065497 0.04805399
v -0.04126909 0.05971870 0.04782611
v -0.01313787 0.07710948 0.04708676
v -0.04130025 0.05818978 0.04674747
v -0.04194424 0.05738299 0.04610940
v -0.03189663 0.05220361 0.04168850
v -0.03803876 0.05220361 0.04148593
v -0.04381734 0.05744774 0.04600306
v -0.04850877 0.05804536 0.04190119
v -0.04850877 0.07896709 -0.00086969
v -0.04598128 0.09680112 -0.00082918
v -0.04501876 0.09701029 -0.00106213
v -0.04314566 0.09590967 -0.00219141
v -0.04850877 0.09210979 -0.00044938
v -0.04850877 0.09224425 -0.00039874
v -0.02815042 0.09648239 -0.00244967
v -0.02252764 0.09562082 -0.00303710
v -0.02065107 0.09561086 -0.00305230
v -0.01919344 0.09534690 -0.00292063
v -0.01886798 0.09396242 -0.00306242
v -0.02252764 0.09655709 -0.00250032
v -0.01313787 0.08082470 -0.00333082
v -0.03083024 0.06118287 0.04794765
v -0.03939598 0.07709455 0.04812489
v -0.04314566 0.06068983 0.04805906
v -0.04314566 0.05975356 0.04777547
v -0.04317336 0.05818480 0.04670696
v -0.01313787 0.07898203 0.04703612
v -0.01502829 0.07896709 0.04711715
v -0.01690139 0.07896709 0.04719311
v -0.02440074 0.07896709 0.04749695
v -0.04256745 0.05738299 0.04610940
v -0.03605140 0.05220361 0.04170875
v -0.03761636 0.05220361 0.04170369
v -0.04449942 0.05869776 0.04652465
v -0.04850877 0.05885713 0.04271649
v -0.04501876 0.09761289 0.00014311
v -0.04850877 0.09388771 0.00057862
v -0.04850877 0.09568556 0.00211809
v -0.04850877 0.09729914 0.00376390
v -0.04850877 0.09829019 0.00530337
v -0.04850877 0.09868861 0.00620984
v -0.04314566 0.09794656 0.00014311
v -0.04314566 0.09717961 -0.00125456
v -0.02815042 0.09731408 -0.00151283
v -0.02065107 0.09654713 -0.00246993
v -0.01313787 0.08386759 -0.00275351
v -0.01313787 0.08271717 -0.00299659
v -0.01865332 0.09591963 -0.00216609
v -0.01792970 0.09396242 -0.00261172
v -0.02252764 0.09729914 -0.00156347
v -0.03939598 0.07896709 0.04808944
v -0.04850877 0.07896709 0.04787169
v -0.04314566 0.06181535 0.04805906
v -0.04419474 0.06094880 0.04800335
v -0.02627731 0.09583994 0.04696016
v -0.01313787 0.08085458 0.04686394
v -0.01877796 0.09583994 0.04641324
v -0.04850877 0.06209922 0.04529409
v -0.04850877 0.06086414 0.04445853
v -0.04850877 0.06004739 0.04376475
v -0.04501876 0.09822545 0.00201681
v -0.04850877 0.09872845 0.00636176
v -0.02815042 0.09807605 0.00014311
v -0.04314566 0.09839478 0.00201681
v -0.02815042 0.10231916 0.01639362
v -0.02065107 0.09727423 -0.00153308
v -0.01877796 0.09702025 -0.00115328
v -0.01313787 0.08645230 -0.00196859
v -0.01783275 0.09678120 -0.00080386
v -0.01749691 0.09583994 -0.00121911
v -0.01313787 0.08812067 -0.00127988
v -0.01313787 0.08811070 -0.00128494
v -0.02627731 0.09807106 0.00014311
v -0.02065107 0.09802625 0.00014311
v -0.04126909 0.09583994 0.04727919
v -0.04850877 0.08029680 0.04781598
v -0.04850877 0.07709455 0.04785143
v -0.04850877 0.07657163 0.04782105
v -0.04850877 0.07522200 0.04769951
v -0.04850877 0.07481362 0.04765393
v -0.04850877 0.07334447 0.04747669
v -0.04850877 0.06400663 0.04593722
v -0.02627731 0.09730411 0.04642337
v -0.01877796 0.09690570 0.04614991
v -0.02065107 0.09702025 0.04622588
v -0.01313787 0.08271717 0.04658036
v -0.01757654 0.09583994 0.04620056
v -0.01779467 0.09681108 0.04608915
v -0.04613709 0.09868362 0.00462985
v -0.04850877 0.10220462 0.02076388
v -0.02942108 0.10250343 0.01742668
v -0.02815042 0.10253330 0.01733047
v -0.02103885 0.10244366 0.01776597
v -0.01877796 0.09747843 0.00014311
v -0.01313787 0.09970456 0.01326404
v -0.01313787 0.09899738 0.01155746
v -0.01313787 0.09856410 0.01062568
v -0.01313787 0.09855912 0.01061555
v -0.01313787 0.09794656 0.00951665
v -0.01313787 0.09708499 0.00811391
v -0.01313787 0.09641266 0.00717200
v -0.01313787 0.09547639 0.00596676
v -0.01313787 0.09469948 0.00502991
v -0.01313787 0.09376321 0.00406775
v -0.01313787 0.08905196 -0.00057091
v -0.02050911 0.10223449 0.01708739
v -0.01978895 0.10239386 0.01798373
v -0.01877796 0.10199047 0.01701143
v -0.01690139 0.10163189 0.01701143
v -0.01313787 0.10056115 0.01595811
v -0.01313787 0.10033207 0.01515293
v -0.04126909 0.09752823 0.04657529
v -0.04314566 0.09583994 0.04714247
v -0.04850877 0.08083964 0.04779066
v -0.02627731 0.09824039 0.04559287
v -0.04126909 0.09846450 0.04584101
v -0.01866024 0.09799138 0.04503076
v -0.02065107 0.09796150 0.04537005
v -0.01313787 0.08417138 0.04622588
v -0.01706412 0.09723937 0.04502063
v -0.01795393 0.09862387 0.04407872
v -0.01663826 0.09583994 0.04547640
v -0.01587309 0.09691068 0.04432180
v -0.04850877 0.10252335 0.02263252
v -0.02815042 0.10279228 0.01889019
v -0.02252764 0.10265283 0.01889019
v -0.02050911 0.10257315 0.01872308
v -0.01877796 0.10248849 0.01931050
v -0.01776004 0.10241876 0.01973082
v -0.01877796 0.10231417 0.01837366
v -0.01313787 0.10081514 0.01697598
v -0.01313787 0.10080020 0.01691015
v -0.04314566 0.09739874 0.04647401
v -0.04850877 0.08271717 0.04759317
v -0.04850877 0.08227891 0.04764381
v -0.04428129 0.09707503 0.04626639
v -0.04459290 0.09583994 0.04651959
v -0.02627731 0.09890773 0.04465602
v -0.02065107 0.09880315 0.04443321
v -0.04126909 0.09901730 0.04490416
v -0.04314566 0.09897746 0.04478769
v -0.04314566 0.09833501 0.04572454
v -0.01920382 0.09874837 0.04433699
v -0.01313787 0.08510268 0.04593216
v -0.01866024 0.09891769 0.04337482
v -0.01697410 0.09815573 0.04337482
v -0.01313787 0.09992867 0.03013236
v -0.01313787 0.10039183 0.02866885
v -0.01313787 0.10064084 0.02774213
v -0.01313787 0.10094961 0.02636471
v -0.01690139 0.10188090 0.02637990
v -0.01800933 0.10236398 0.02516453
v -0.01313787 0.08939061 0.04426103
v -0.01313787 0.09573038 0.03769297
v -0.01313787 0.09580508 0.03760182
v -0.01313787 0.09595449 0.03741445
v -0.01313787 0.09701029 0.03601677
v -0.01313787 0.09718957 0.03576863
v -0.01313787 0.09831011 0.03386455
v -0.01313787 0.09839478 0.03369238
v -0.01313787 0.09909200 0.03223900
v -0.01313787 0.09912686 0.03215291
v -0.01313787 0.08647721 0.04540550
v -0.01313787 0.08833979 0.04468134
v -0.04850877 0.10238888 0.02390865
v -0.02815042 0.10280721 0.02637990
v -0.02815042 0.10299148 0.02450621
v -0.02815042 0.10308112 0.02263252
v -0.02815042 0.10301638 0.02076388
v -0.02065107 0.10281718 0.02076388
v -0.01315518 0.10132811 0.02076388
v -0.01313787 0.10132312 0.02074869
v -0.01313787 0.10120858 0.01889019
v -0.01313787 0.10113885 0.01855090
v -0.01877796 0.10260303 0.02076388
v -0.01877796 0.10266279 0.02263252
v -0.01767002 0.10243868 0.02263252
v -0.04850877 0.09236378 0.04538524
v -0.04850877 0.09384289 0.04482820
v -0.04428475 0.09882805 0.04447372
v -0.04850877 0.09692064 0.04214932
v -0.04850877 0.09582500 0.04318239
v -0.04850877 0.09497339 0.04396731
v -0.02065107 0.09917169 0.04325328
v -0.02627731 0.09928125 0.04325328
v -0.04126909 0.09946551 0.04325328
v -0.04314566 0.09947050 0.04325328
v -0.01869140 0.10225939 0.02644067
v -0.01925922 0.10248350 0.02585324
v -0.02027368 0.10235402 0.02710406
v -0.01313787 0.10125340 0.02450621
v -0.01869140 0.10257315 0.02452647
v -0.01767349 0.10243868 0.02391372
v -0.04850877 0.10231916 0.02450621
v -0.02079995 0.10252833 0.02644067
v -0.02065107 0.10281718 0.02450621
v -0.02252764 0.10287694 0.02450621
v -0.04850877 0.10207513 0.02603555
v -0.02815042 0.10253829 0.02794469
v -0.02152357 0.10240382 0.02734207
v -0.02065107 0.10289188 0.02263252
v -0.01313787 0.10132811 0.02261732
v -0.01313787 0.10132811 0.02263252
v -0.04850877 0.09983405 0.03762714
v -0.04850877 0.09914678 0.03940461
v -0.04850877 0.09863881 0.04019967
v -0.04850877 0.09855414 0.04032627
v -0.04850877 0.09765771 0.04136946
v -0.04850877 0.10169166 0.02825360
f 1 2 8
f 1 8 18
f 1 18 35
f 1 35 62
f 1 62 61
f 1 61 83
f 1 83 112
f 1 112 139
f 1 139 140
f 1 140 113
f 1 113 85
f 1 85 63
f 1 63 38
f 1 38 22
f 1 22 12
f 1 12 3
f 1 3 4
f 1 4 5
f 1 5 6
f 1 6 7
f 1 7 2
f 2 7 6
f 2 6 9
f 2 9 10
f 2 10 11
f 2 11 21
f 2 21 20
f 2 20 37
f 2 37 36
f 2 36 30
f 2 30 29
f 2 29 28
f 2 28 51
f 2 51 77
f 2 77 105
f 2 105 128
f 2 128 154
f 2 154 153
f 2 153 175
f 2 175 179
f 2 179 178
f 2 178 212
f 2 212 211
f 2 211 210
f 2 210 209
f 2 209 208
f 2 208 207
f 2 207 206
f 2 206 205
f 2 205 204
f 2 204 203
f 2 203 202
f 2 202 218
f 2 218 217
f 2 217 239
f 2 239 238
f 2 238 281
f 2 281 280
f 2 280 279
f 2 279 309
f 2 309 310
f 2 310 298
f 2 298 257
f 2 257 256
f 2 256 255
f 2 255 254
f 2 254 269
f 2 269 268
f 2 268 267
f 2 267 266
f 2 266 265
f 2 265 264
f 2 264 263
f 2 263 262
f 2 262 261
f 2 261 260
f 2 260 271
f 2 271 270
f 2 270 251
f 2 251 226
f 2 226 193
f 2 193 163
f 2 163 134
f 2 134 109
f 2 109 80
f 2 80 78
f 2 78 56
f 2 56 55
f 2 55 54
f 2 54 53
f 2 53 52
f 2 52 31
f 2 31 17
f 2 17 8
f 3 12 13
f 3 13 4
f 4 13 14
f 4 14 5
f 5 14 15
f 5 15 6
f 6 15 16
f 6 16 9
f 8 17 18
f 9 16 19
f 9 19 10
f 10 19 20
f 10 20 21
f 10 21 11
f 12 22 13
f 13 23 24
f 13 24 14
f 13 22 23
f 14 25 26
f 14 26 15
f 14 24 25
f 15 26 27
f 15 27 16
f 16 27 28
f 16 28 29
f 16 29 30
f 16 30 19
f 17 31 32
f 17 32 33
f 17 33 34
f 17 34 18
f 18 34 35
f 19 30 36
f 19 36 37
f 19 37 20
f 22 38 23
f 23 39 40
f 23 40 41
f 23 41 24
f 23 38 39
f 24 41 42
f 24 42 43
f 24 43 25
f 25 44 26
f 25 43 45
f 25 45 46
f 25 46 44
f 26 44 46
f 26 46 47
f 26 47 48
f 26 48 49
f 26 49 50
f 26 50 51
f 26 51 27
f 27 51 28
f 31 52 32
f 32 52 53
f 32 53 54
f 32 54 55
f 32 55 56
f 32 56 57
f 32 57 33
f 33 57 58
f 33 58 59
f 33 59 34
f 34 59 60
f 34 60 61
f 34 61 62
f 34 62 35
f 38 63 39
f 39 63 64
f 39 64 40
f 40 65 41
f 40 64 66
f 40 66 67
f 40 67 68
f 40 68 65
f 41 65 42
f 42 65 69
f 42 69 70
f 42 70 71
f 42 71 72
f 42 72 73
f 42 73 74
f 42 74 45
f 42 45 43
f 45 74 46
f 46 74 47
f 47 74 75
f 47 75 48
f 48 75 76
f 48 76 77
f 48 77 49
f 49 77 50
f 50 77 51
f 56 78 58
f 56 58 57
f 58 79 59
f 58 78 80
f 58 80 79
f 59 79 81
f 59 81 60
f 60 81 82
f 60 82 61
f 61 82 83
f 63 84 64
f 63 85 115
f 63 115 142
f 63 142 167
f 63 167 166
f 63 166 165
f 63 165 189
f 63 189 188
f 63 188 187
f 63 187 186
f 63 186 185
f 63 185 184
f 63 184 159
f 63 159 183
f 63 183 221
f 63 221 242
f 63 242 241
f 63 241 285
f 63 285 286
f 63 286 290
f 63 290 289
f 63 289 288
f 63 288 315
f 63 315 314
f 63 314 313
f 63 313 312
f 63 312 311
f 63 311 316
f 63 316 305
f 63 305 301
f 63 301 272
f 63 272 231
f 63 231 197
f 63 197 169
f 63 169 148
f 63 148 147
f 63 147 146
f 63 146 145
f 63 145 144
f 63 144 121
f 63 121 120
f 63 120 97
f 63 97 116
f 63 116 92
f 63 92 70
f 63 70 91
f 63 91 89
f 63 89 90
f 63 90 68
f 63 68 67
f 63 67 66
f 63 66 88
f 63 88 87
f 63 87 86
f 63 86 84
f 64 84 86
f 64 86 87
f 64 87 88
f 64 88 66
f 65 89 69
f 65 68 90
f 65 90 89
f 69 89 91
f 69 91 70
f 70 92 71
f 71 93 94
f 71 94 95
f 71 95 72
f 71 92 96
f 71 96 97
f 71 97 98
f 71 98 99
f 71 99 93
f 72 95 74
f 72 74 73
f 74 95 100
f 74 100 75
f 75 101 76
f 75 100 94
f 75 94 102
f 75 102 101
f 76 103 77
f 76 101 104
f 76 104 103
f 77 103 105
f 79 106 107
f 79 107 108
f 79 108 82
f 79 82 81
f 79 80 106
f 80 109 129
f 80 129 106
f 82 108 110
f 82 110 111
f 82 111 112
f 82 112 83
f 85 113 114
f 85 114 115
f 92 116 96
f 93 99 117
f 93 117 118
f 93 118 94
f 94 100 95
f 94 118 119
f 94 119 102
f 96 116 97
f 97 120 98
f 98 120 121
f 98 121 99
f 99 121 117
f 101 102 119
f 101 119 122
f 101 122 104
f 103 104 123
f 103 123 124
f 103 124 125
f 103 125 126
f 103 126 105
f 104 122 127
f 104 127 123
f 105 126 128
f 106 129 130
f 106 130 107
f 107 130 131
f 107 131 108
f 108 131 132
f 108 132 133
f 108 133 110
f 109 134 135
f 109 135 136
f 109 136 137
f 109 137 130
f 109 130 129
f 110 133 138
f 110 138 111
f 111 138 139
f 111 139 112
f 113 140 114
f 114 138 133
f 114 133 132
f 114 132 141
f 114 141 142
f 114 142 115
f 114 140 138
f 117 143 118
f 117 121 144
f 117 144 145
f 117 145 146
f 117 146 147
f 117 147 148
f 117 148 143
f 118 143 149
f 118 149 150
f 118 150 119
f 119 150 122
f 122 150 151
f 122 151 127
f 123 127 124
f 124 127 152
f 124 152 125
f 125 153 154
f 125 154 126
f 125 152 155
f 125 155 156
f 125 156 153
f 126 154 128
f 127 151 157
f 127 157 152
f 130 137 158
f 130 158 159
f 130 159 160
f 130 160 131
f 131 160 159
f 131 159 161
f 131 161 132
f 132 161 141
f 134 162 135
f 134 163 164
f 134 164 162
f 135 162 136
f 136 162 137
f 137 162 158
f 138 140 139
f 141 161 165
f 141 165 166
f 141 166 167
f 141 167 142
f 143 148 168
f 143 168 149
f 148 169 168
f 149 170 151
f 149 151 150
f 149 168 171
f 149 171 172
f 149 172 170
f 151 170 157
f 152 157 173
f 152 173 174
f 152 174 155
f 153 156 175
f 155 174 176
f 155 176 177
f 155 177 156
f 156 177 178
f 156 178 179
f 156 179 175
f 157 170 180
f 157 180 181
f 157 181 173
f 158 182 183
f 158 183 159
f 158 162 182
f 159 184 161
f 161 184 185
f 161 185 186
f 161 186 187
f 161 187 188
f 161 188 189
f 161 189 165
f 162 190 182
f 162 164 191
f 162 191 192
f 162 192 190
f 163 193 194
f 163 194 164
f 164 194 195
f 164 195 191
f 168 169 196
f 168 196 197
f 168 197 171
f 169 197 196
f 170 172 180
f 171 197 198
f 171 198 172
f 172 198 199
f 172 199 200
f 172 200 181
f 172 181 180
f 173 181 174
f 174 181 201
f 174 201 176
f 176 201 202
f 176 202 203
f 176 203 204
f 176 204 205
f 176 205 206
f 176 206 207
f 176 207 208
f 176 208 209
f 176 209 210
f 176 210 177
f 177 210 211
f 177 211 212
f 177 212 178
f 181 200 213
f 181 213 214
f 181 214 215
f 181 215 216
f 181 216 217
f 181 217 218
f 181 218 201
f 182 219 220
f 182 220 221
f 182 221 183
f 182 190 219
f 190 192 222
f 190 222 223
f 190 223 219
f 191 195 224
f 191 224 225
f 191 225 192
f 192 225 222
f 193 226 194
f 194 226 195
f 195 227 228
f 195 228 224
f 195 226 229
f 195 229 230
f 195 230 227
f 197 231 198
f 198 232 199
f 198 231 232
f 199 232 200
f 200 232 233
f 200 233 234
f 200 234 214
f 200 214 213
f 201 218 202
f 214 234 235
f 214 235 236
f 214 236 237
f 214 237 215
f 215 237 216
f 216 237 236
f 216 236 238
f 216 238 239
f 216 239 217
f 219 223 240
f 219 240 220
f 220 241 242
f 220 242 221
f 220 240 243
f 220 243 244
f 220 244 241
f 222 245 223
f 222 225 246
f 222 246 245
f 223 245 247
f 223 247 248
f 223 248 249
f 223 249 240
f 224 228 250
f 224 250 225
f 225 250 246
f 226 251 229
f 227 230 228
f 228 252 250
f 228 230 253
f 228 253 254
f 228 254 255
f 228 255 256
f 228 256 257
f 228 257 258
f 228 258 259
f 228 259 252
f 229 251 230
f 230 260 261
f 230 261 262
f 230 262 263
f 230 263 264
f 230 264 265
f 230 265 266
f 230 266 267
f 230 267 268
f 230 268 269
f 230 269 254
f 230 254 253
f 230 251 270
f 230 270 271
f 230 271 260
f 231 272 273
f 231 273 274
f 231 274 275
f 231 275 276
f 231 276 232
f 232 276 233
f 233 276 277
f 233 277 234
f 234 277 235
f 235 277 236
f 236 278 279
f 236 279 280
f 236 280 281
f 236 281 238
f 236 277 282
f 236 282 283
f 236 283 284
f 236 284 278
f 240 249 243
f 241 244 285
f 243 286 285
f 243 285 244
f 243 249 287
f 243 287 288
f 243 288 289
f 243 289 290
f 243 290 286
f 245 246 291
f 245 291 292
f 245 292 293
f 245 293 247
f 246 250 291
f 247 294 248
f 247 293 294
f 248 294 287
f 248 287 249
f 250 252 291
f 252 259 295
f 252 295 296
f 252 296 297
f 252 297 291
f 257 298 259
f 257 259 258
f 259 299 296
f 259 296 295
f 259 298 300
f 259 300 299
f 272 301 273
f 273 302 303
f 273 303 304
f 273 304 274
f 273 301 305
f 273 305 294
f 273 294 306
f 273 306 307
f 273 307 302
f 274 304 275
f 275 308 276
f 275 304 308
f 276 308 277
f 277 308 282
f 278 309 279
f 278 284 309
f 282 308 283
f 283 308 303
f 283 303 299
f 283 299 300
f 283 300 284
f 284 300 310
f 284 310 309
f 287 294 311
f 287 311 312
f 287 312 313
f 287 313 314
f 287 314 315
f 287 315 288
f 291 297 302
f 291 302 307
f 291 307 306
f 291 306 292
f 292 306 293
f 293 306 294
f 294 305 316
f 294 316 311
f 296 299 303
f 296 303 302
f 296 302 297
f 298 310 300
f 303 308 304

