# https://github.com/mikedh/trimesh
v 0.00574056 0.03043982 -0.00033782
v 0.00433205 0.03043982 -0.00031695
v 0.00292760 0.03184709 -0.00019178
v 0.00433205 0.03184709 -0.00019700
v 0.00714500 0.03043982 -0.00031695
v 0.00855351 0.02903459 -0.00031957
v 0.00714500 0.02903459 -0.00031174
v 0.00151909 0.01639777 0.00013418
v 0.00151909 0.03184709 -0.00017093
v -0.01816348 0.02200436 0.00045232
v -0.01394607 0.02903459 0.00018111
v -0.01113312 0.03043982 0.00010288
v -0.00129386 0.03325232 0.00009506
v 0.00011464 0.03325232 0.00008463
v 0.00574056 0.03184709 -0.00016831
v 0.00151909 0.03325232 0.00008463
v 0.00855351 0.03043982 -0.00028305
v 0.00995796 0.02903459 -0.00029088
v 0.01136241 0.02622413 -0.00022830
v 0.01136241 0.02341163 -0.00017614
v 0.01136241 0.02200436 -0.00014485
v 0.01136241 0.02059709 -0.00010312
v 0.00009435 0.01639777 0.00017069
v -0.01816348 0.01919186 0.00054359
v 0.01134617 0.01639777 0.00003769
v -0.00691571 0.03184709 0.00007681
v -0.00691571 0.03308868 0.00023849
v -0.01957198 0.01919186 0.00073395
v -0.01957198 0.02059709 0.00069744
v -0.01816348 0.02341163 0.00042624
v -0.01675903 0.02762731 0.00030889
v -0.01535052 0.02903459 0.00023588
v -0.01254162 0.03043982 0.00015243
v -0.00832016 0.03184709 0.00012374
v -0.00129386 0.03417277 0.00029586
v -0.00269831 0.03413391 0.00031150
v 0.00574056 0.03308868 0.00019154
v 0.00714500 0.03184709 -0.00010573
v 0.00292760 0.03325232 0.00011853
v 0.00011464 0.03413800 0.00030889
v 0.00151909 0.03408482 0.00032454
v 0.00995796 0.03043982 -0.00021786
v 0.01136241 0.02903459 -0.00021525
v 0.01136241 0.02762731 -0.00024133
v 0.01277091 0.02200436 -0.00007704
v 0.01277091 0.02059709 -0.00005097
v 0.01277091 0.01639777 0.00002726
v 0.01275062 0.01639777 0.00002726
v -0.01816348 0.01639777 0.00067919
v -0.01816348 0.01778458 0.00060096
v -0.01957198 0.01639777 0.00083043
v -0.00972867 0.03184709 0.00017851
v -0.01107223 0.03192482 0.00025152
v -0.00832016 0.03289641 0.00028542
v -0.00691571 0.03379027 0.00041842
v -0.02097643 0.01639777 0.00127113
v -0.01957198 0.02200436 0.00067658
v -0.01957198 0.02341163 0.00066093
v -0.01957198 0.02481686 0.00065311
v -0.01816348 0.02481686 0.00042363
v -0.01761550 0.02762731 0.00035323
v -0.01758708 0.02857027 0.00035583
v -0.01680774 0.02903663 0.00031933
v -0.01636935 0.02993050 0.00033497
v -0.01254162 0.03155459 0.00026978
v -0.01535052 0.03021277 0.00030107
v -0.00129386 0.03487641 0.00058270
v -0.00269831 0.03483754 0.00059313
v 0.00421839 0.03335050 0.00020459
v 0.00292760 0.03401118 0.00035062
v 0.00367042 0.03396209 0.00037147
v 0.00714500 0.03295163 0.00022023
v 0.00855351 0.03184709 -0.00002750
v 0.00011464 0.03483959 0.00060878
v 0.01004726 0.03196572 0.00013939
v 0.01136241 0.03043982 -0.00008487
v 0.01277091 0.02903459 -0.00000924
v 0.01277091 0.02762731 -0.00007966
v 0.01277091 0.02622413 -0.00009009
v 0.01277091 0.02341163 -0.00008748
v 0.01415912 0.01639777 0.00019937
v -0.01056078 0.03258959 0.00036365
v -0.00972867 0.03270618 0.00033497
v -0.00691571 0.03465959 0.00079653
v -0.00832016 0.03360004 0.00047057
v -0.02098861 0.01639777 0.00127635
v -0.02097643 0.02059709 0.00121116
v -0.01957198 0.02622413 0.00066354
v -0.01832178 0.02762731 0.00044710
v -0.02097643 0.02341163 0.00119551
v -0.02097643 0.02481686 0.00119290
v -0.02097643 0.02622413 0.00120073
v -0.01957198 0.02762731 0.00068179
v -0.01809853 0.02903663 0.00048100
v -0.01730700 0.02950709 0.00039495
v -0.01680774 0.03041527 0.00049925
v -0.01535052 0.03091641 0.00041842
v -0.01461582 0.03111686 0.00037930
v -0.01367817 0.03132959 0.00032715
v -0.01254162 0.03225823 0.00045232
v -0.01149844 0.03244436 0.00040277
v -0.00129386 0.03590118 0.00128678
v -0.00269831 0.03591141 0.00129721
v -0.00691571 0.03572732 0.00145628
v -0.00550721 0.03578868 0.00140152
v 0.00151909 0.03478845 0.00066615
v 0.00460807 0.03388436 0.00040016
v 0.00855351 0.03279823 0.00025935
v 0.00574056 0.03379232 0.00043667
v 0.00964135 0.03266936 0.00031410
v 0.00011464 0.03585004 0.00131286
v 0.01136241 0.03163027 0.00019677
v 0.01247866 0.03135823 0.00029064
v 0.01341631 0.03106368 0.00038973
v 0.01287645 0.03053391 0.00019154
v 0.01361115 0.03012686 0.00031672
v 0.01374916 0.02903459 0.00026196
v 0.01384252 0.02762731 0.00022806
v 0.01396023 0.02481686 0.00020980
v 0.01400082 0.02341163 0.00019677
v 0.01488976 0.01724663 0.00036887
v 0.01488570 0.01639777 0.00036365
v -0.00972867 0.03340777 0.00053576
v -0.00832016 0.03465959 0.00094778
v -0.02182478 0.01639777 0.00166750
v -0.02184102 0.01919186 0.00165447
v -0.02183696 0.02341163 0.00165968
v -0.02183290 0.02481686 0.00166229
v -0.02184508 0.02059709 0.00165447
v -0.02181666 0.02622413 0.00167272
v -0.02097643 0.02762731 0.00122159
v -0.01957198 0.02903459 0.00078871
v -0.01816348 0.03043982 0.00073656
v -0.01675903 0.03184709 0.00093474
v -0.01535052 0.03184709 0.00070005
v -0.01406784 0.03181641 0.00050969
v -0.01254162 0.03325232 0.00083304
v -0.01107223 0.03313573 0.00059835
v -0.00129386 0.03660482 0.00208734
v -0.00269831 0.03661505 0.00205084
v -0.00550721 0.03649232 0.00225684
v -0.00410276 0.03655164 0.00212646
v -0.00832016 0.03561073 0.00155537
v 0.00151909 0.03577027 0.00137023
v 0.00292760 0.03471482 0.00074699
v 0.00714500 0.03365323 0.00052011
v 0.01057900 0.03251391 0.00038973
v 0.00855351 0.03350186 0.00065050
v 0.01136241 0.03233186 0.00047318
v 0.01287645 0.03183482 0.00063225
v 0.01374510 0.03274095 0.00161013
v 0.01419972 0.03183891 0.00133893
v 0.01499936 0.03136436 0.00167272
v 0.01411853 0.03053391 0.00070005
v 0.01445138 0.02903459 0.00059313
v 0.01454880 0.02762731 0.00053316
v 0.01460563 0.02622413 0.00049143
v 0.01466245 0.02481686 0.00046014
v 0.01470304 0.02341163 0.00044189
v 0.01558387 0.01639777 0.00078089
v 0.01489382 0.01639777 0.00036626
v -0.00972867 0.03465959 0.00113032
v -0.02183696 0.01639777 0.00167793
v -0.02253106 0.01639777 0.00233768
v -0.02254324 0.01919186 0.00235594
v -0.02255136 0.02059709 0.00237941
v -0.02253513 0.02481686 0.00243938
v -0.02253106 0.01778458 0.00234029
v -0.02178825 0.02762731 0.00169097
v -0.02174360 0.02856413 0.00172748
v -0.02106979 0.02903459 0.00142238
v -0.01957198 0.03043982 0.00109903
v -0.01829743 0.03198209 0.00134936
v -0.01791587 0.03275118 0.00163882
v -0.01675903 0.03298641 0.00149540
v -0.01394607 0.03325232 0.00105991
v -0.00129386 0.03693414 0.00279142
v 0.00011464 0.03655368 0.00221251
v -0.00269831 0.03695663 0.00275491
v -0.00410276 0.03693209 0.00282793
v -0.00694413 0.03648209 0.00256455
v -0.00550721 0.03687277 0.00295832
v -0.00972867 0.03547368 0.00167272
v 0.00292760 0.03566391 0.00145106
v 0.00433205 0.03554732 0.00156320
v 0.00585827 0.03479459 0.00120855
v 0.00714500 0.03456141 0.00122419
v 0.01141517 0.03336277 0.00122680
v 0.01004726 0.03318277 0.00073395
v 0.00855351 0.03438345 0.00135197
v 0.00995796 0.03420141 0.00151626
v 0.01277091 0.03300686 0.00138848
v 0.01400488 0.03301095 0.00248371
v 0.01470710 0.03232777 0.00248371
v 0.01192256 0.03390482 0.00186569
v 0.01286427 0.03373300 0.00239505
v 0.01514955 0.03162413 0.00248371
v 0.01570564 0.03043982 0.00248371
v 0.01518608 0.03043982 0.00147454
v 0.01536062 0.02903459 0.00129721
v 0.01543774 0.02762731 0.00123723
v 0.01550674 0.02622413 0.00119551
v 0.01657835 0.01639777 0.00149279
v 0.01559605 0.01639777 0.00078871
v -0.01254162 0.03436095 0.00145889
v -0.01104788 0.03471891 0.00140934
v -0.01052019 0.03538777 0.00175356
v -0.02319270 0.01639777 0.00304176
v -0.02318864 0.01778458 0.00304437
v -0.02317646 0.01919186 0.00305741
v -0.02311558 0.02481686 0.00314346
v -0.02310340 0.02583345 0.00316171
v -0.02262848 0.02627118 0.00260888
v -0.02245394 0.02762731 0.00248371
v -0.02159747 0.02950300 0.00184483
v -0.02216575 0.02903459 0.00238201
v -0.02063953 0.03043982 0.00155537
v -0.02037568 0.03127232 0.00171444
v -0.01957198 0.03158323 0.00154755
v -0.01885352 0.03254050 0.00178746
v -0.01584167 0.03386800 0.00187351
v -0.01490402 0.03403368 0.00171183
v -0.01536270 0.03334027 0.00140152
v -0.01394607 0.03416663 0.00159710
v -0.00129386 0.03718573 0.00388926
v 0.00011464 0.03687482 0.00291398
v -0.00269831 0.03724505 0.00388926
v 0.00125525 0.03681754 0.00305219
v 0.00164492 0.03653118 0.00254369
v -0.00410276 0.03722254 0.00388926
v -0.00832016 0.03621413 0.00248371
v -0.00649357 0.03681141 0.00308609
v -0.00550721 0.03711618 0.00388926
v 0.00546454 0.03544504 0.00168054
v 0.00292760 0.03630209 0.00248371
v 0.01098491 0.03405822 0.00166489
v 0.00640219 0.03535504 0.00179528
v 0.01337978 0.03387209 0.00388926
v 0.01393587 0.03317050 0.00388926
v 0.01495877 0.03127232 0.00902121
v 0.01245836 0.03412982 0.00280185
v 0.00995796 0.03479050 0.00248371
v 0.01141517 0.03431595 0.00239505
v 0.01644440 0.02877891 0.00388926
v 0.01638351 0.02875436 0.00295832
v 0.01609938 0.02914709 0.00248632
v 0.01613996 0.02762731 0.00206387
v 0.01620897 0.02622413 0.00192306
v 0.01625362 0.02515027 0.00183440
v 0.01629421 0.02421140 0.00177181
v 0.01632262 0.02341163 0.00173791
v 0.01642410 0.02059709 0.00162317
v 0.01647687 0.01919186 0.00157363
v 0.01652964 0.01778458 0.00153191
v 0.01720751 0.01639777 0.00247068
v -0.01341433 0.03541845 0.00309130
v -0.01254162 0.03553709 0.00288791
v -0.01104788 0.03564754 0.00244199
v -0.00972867 0.03595027 0.00248371
v -0.02319676 0.01639777 0.00305219
v -0.02350525 0.01639777 0.00388926
v -0.02349713 0.01778458 0.00388926
v -0.02347278 0.01919186 0.00388926
v -0.02343624 0.02059709 0.00388926
v -0.02332259 0.02481686 0.00388926
v -0.02324547 0.02627118 0.00376670
v -0.02307904 0.02677231 0.00321387
v -0.02304657 0.02762731 0.00332079
v -0.02134175 0.03043982 0.00204823
v -0.02202368 0.03043982 0.00275231
v -0.02181666 0.03131322 0.00301307
v -0.02085466 0.03176118 0.00255151
v -0.01957198 0.03228686 0.00201954
v -0.02039598 0.03263663 0.00302872
v -0.01957198 0.03285754 0.00272362
v -0.01821218 0.03328095 0.00244199
v -0.01675903 0.03368800 0.00213428
v -0.01675903 0.03415027 0.00283575
v -0.01536270 0.03435482 0.00240027
v -0.00129386 0.03720823 0.00529742
v 0.00011464 0.03706914 0.00388926
v -0.00269831 0.03729004 0.00529742
v -0.00410276 0.03729414 0.00529742
v 0.00219290 0.03676641 0.00320865
v -0.00550721 0.03719595 0.00529742
v -0.00743122 0.03674186 0.00334947
v -0.00694413 0.03690550 0.00384754
v -0.00791425 0.03682164 0.00428824
v 0.00433205 0.03605664 0.00248371
v 0.00714500 0.03526504 0.00195696
v 0.00867528 0.03513823 0.00247589
v 0.00585827 0.03571095 0.00235072
v 0.00714500 0.03559845 0.00266104
v 0.01267755 0.03423618 0.00388926
v 0.01252331 0.03421573 0.00529742
v 0.01363550 0.03266936 0.00913856
v 0.01398458 0.03055845 0.01243730
v 0.01477611 0.03092663 0.00995998
v 0.01484105 0.02956845 0.01150635
v 0.01498718 0.02998777 0.01056757
v 0.01513737 0.03045004 0.00950103
v 0.01627391 0.02820413 0.00729231
v 0.01632262 0.02837186 0.00635354
v 0.01639975 0.02849254 0.00529742
v 0.01420377 0.03188391 0.00954797
v 0.01364768 0.03135413 0.01204093
v 0.01344472 0.03110459 0.01297709
v 0.00922326 0.03535504 0.00325559
v 0.01136241 0.03477618 0.00388926
v 0.00828561 0.03547164 0.00294006
v 0.01665141 0.02762731 0.00529742
v 0.01670012 0.02762731 0.00388926
v 0.01685843 0.02622413 0.00388926
v 0.01646469 0.02762731 0.00276534
v 0.01653370 0.02622413 0.00262714
v 0.01653775 0.02473504 0.00237680
v 0.01701267 0.01919186 0.00248371
v 0.01711821 0.01778458 0.00248371
v 0.01721563 0.01639777 0.00248371
v -0.01371064 0.03548800 0.00388926
v -0.01254162 0.03579482 0.00388926
v -0.01113312 0.03613232 0.00388926
v -0.00972867 0.03642891 0.00388926
v -0.01757491 0.03400095 0.00309392
v -0.01535052 0.03498277 0.00388926
v -0.01441287 0.03528754 0.00388926
v -0.02350931 0.01639777 0.00391012
v -0.02371632 0.01639777 0.00529742
v -0.02368791 0.01778458 0.00529742
v -0.02365543 0.01919186 0.00529742
v -0.02361890 0.02059709 0.00529742
v -0.02357831 0.02200436 0.00529742
v -0.02353366 0.02341163 0.00529742
v -0.02348495 0.02481686 0.00529742
v -0.02323735 0.02762731 0.00402486
v -0.02295727 0.02911027 0.00383972
v -0.02317240 0.02869300 0.00427520
v -0.02255542 0.03043982 0.00388926
v -0.02130522 0.03220913 0.00388926
v -0.02198309 0.03150550 0.00388926
v -0.02060299 0.03278595 0.00388926
v -0.01957198 0.03335663 0.00388926
v -0.00122080 0.03694027 0.00681249
v 0.00011464 0.03688300 0.00646828
v 0.00011464 0.03707936 0.00529742
v -0.00269831 0.03705891 0.00670297
v 0.00256228 0.03683391 0.00414742
v 0.00164492 0.03690345 0.00376149
v -0.00410276 0.03706709 0.00670297
v -0.00550721 0.03698732 0.00670297
v 0.00298849 0.03670300 0.00376149
v 0.00433205 0.03647186 0.00388926
v 0.00574056 0.03619982 0.00388926
v -0.00691571 0.03699959 0.00529742
v -0.00776001 0.03679504 0.00612406
v -0.00677364 0.03684209 0.00663778
v -0.00835669 0.03667027 0.00384754
v -0.00794672 0.03682573 0.00529742
v -0.00972867 0.03649845 0.00529742
v -0.00864895 0.03670300 0.00529742
v 0.01136241 0.03474345 0.00529742
v 0.01225541 0.03408891 0.00670297
v 0.01212958 0.03398664 0.00752700
v 0.01286427 0.03298845 0.00957144
v 0.01220264 0.03263050 0.01186882
v 0.01339601 0.03249345 0.01007733
v 0.01461780 0.03045004 0.01099002
v 0.01369639 0.03012686 0.01373332
v 0.01412665 0.02903459 0.01373332
v 0.01466651 0.02907345 0.01230170
v 0.01494253 0.02863163 0.01181406
v 0.01510084 0.02907345 0.01099002
v 0.01555140 0.02903459 0.00951667
v 0.01352591 0.02982618 0.01455214
v 0.01615214 0.02769277 0.00804333
v 0.01631857 0.02726527 0.00752961
v 0.01659864 0.02622413 0.00670297
v 0.01684625 0.02622413 0.00529742
v 0.01316465 0.03231345 0.01092222
v 0.01253549 0.03155459 0.01373332
v 0.01225135 0.03130504 0.01474250
v 0.01195503 0.03104936 0.01567866
v 0.01233253 0.03006345 0.01654442
v 0.00943433 0.03540823 0.00419175
v 0.00992549 0.03522618 0.00379017
v 0.00714500 0.03591345 0.00388926
v 0.00867528 0.03555141 0.00379017
v 0.00943433 0.03540823 0.00488280
v 0.01771083 0.01726708 0.00471330
v 0.01771083 0.01726708 0.00448903
v 0.01734552 0.02059709 0.00388926
v 0.01762965 0.01639777 0.00357112
v 0.01668794 0.02341163 0.00248371
v -0.01382430 0.03551663 0.00529742
v -0.01453058 0.03532845 0.00529742
v -0.01254162 0.03585004 0.00529742
v -0.01113312 0.03619368 0.00529742
v -0.01854503 0.03382504 0.00388926
v -0.01783875 0.03409709 0.00388926
v -0.01675903 0.03449595 0.00388926
v -0.01675903 0.03461664 0.00529742
v -0.01535052 0.03507891 0.00529742
v -0.02358643 0.01639777 0.00670297
v -0.02354990 0.01778458 0.00670297
v -0.02350931 0.01919186 0.00670297
v -0.02346872 0.02059709 0.00670297
v -0.02337942 0.02341163 0.00670297
v -0.02333071 0.02481686 0.00670297
v -0.02327794 0.02622413 0.00670297
v -0.02342813 0.02622413 0.00529742
v -0.02335506 0.02762731 0.00529742
v -0.02306281 0.02962982 0.00504708
v -0.02318052 0.02911027 0.00542780
v -0.02282738 0.03030072 0.00542780
v -0.02144323 0.03232982 0.00529742
v -0.02208051 0.03162618 0.00529742
v -0.02074100 0.03288413 0.00529742
v -0.01957198 0.03353254 0.00529742
v -0.00164294 0.03680527 0.00755829
v -0.00070529 0.03675618 0.00735489
v 0.00011464 0.03671118 0.00717235
v 0.00122278 0.03682164 0.00620750
v 0.00162057 0.03690550 0.00540694
v 0.00256228 0.03683391 0.00501057
v -0.00410276 0.03683391 0.00765478
v -0.00269831 0.03682777 0.00763913
v -0.00550721 0.03680323 0.00753482
v -0.00621349 0.03676845 0.00740705
v 0.00574056 0.03618345 0.00529742
v -0.01113312 0.03601164 0.00670297
v -0.00972867 0.03629800 0.00670297
v -0.00826333 0.03659254 0.00663778
v -0.00715114 0.03669686 0.00706022
v 0.00992549 0.03520573 0.00532871
v 0.01136241 0.03447345 0.00670297
v 0.01136241 0.03414823 0.00804072
v 0.01183326 0.03386391 0.00846316
v 0.01136241 0.03330754 0.01092222
v 0.01140706 0.03284323 0.01233559
v 0.01190227 0.03246686 0.01280759
v 0.01363144 0.02890981 0.01506846
v 0.01348126 0.02835754 0.01586120
v 0.01391964 0.02762731 0.01513887
v 0.01444326 0.02762731 0.01373332
v 0.01478829 0.02762731 0.01275544
v 0.01501559 0.02762731 0.01205397
v 0.01536062 0.02762731 0.01092222
v 0.01576653 0.02762731 0.00951667
v 0.01331077 0.02929436 0.01548830
v 0.01211334 0.02979754 0.01732934
v 0.01642004 0.02200436 0.00930806
v 0.01695179 0.01639777 0.00951667
v 0.01726840 0.01639777 0.00809026
v 0.01700455 0.02200436 0.00670297
v 0.01723186 0.02200436 0.00529742
v 0.01095244 0.03134391 0.01654442
v 0.01069265 0.03116595 0.01729283
v 0.01087126 0.02994686 0.01895915
v 0.00714500 0.03589300 0.00529742
v 0.00862657 0.03554118 0.00532871
v 0.00914208 0.03533459 0.00581896
v 0.01735769 0.02059709 0.00529742
v 0.01775143 0.01639777 0.00496103
v 0.01775143 0.01639777 0.00427259
v 0.01745917 0.01919186 0.00388926
v -0.01356858 0.03545527 0.00643437
v -0.01872363 0.03390277 0.00529742
v -0.01802141 0.03416254 0.00529742
v -0.01675903 0.03441823 0.00670297
v -0.01776974 0.03406845 0.00670297
v -0.01535052 0.03486823 0.00670297
v -0.02358237 0.01639777 0.00672122
v -0.02323735 0.01919186 0.00792337
v -0.02321705 0.02059709 0.00784514
v -0.02319270 0.02200436 0.00776430
v -0.02311963 0.02622413 0.00750614
v -0.02309934 0.02712618 0.00744616
v -0.02318864 0.02760891 0.00678902
v -0.02313587 0.02903459 0.00628574
v -0.02308716 0.02974027 0.00600411
v -0.02308716 0.02974027 0.00598585
v -0.02199526 0.03153618 0.00670297
v -0.02132957 0.03223982 0.00670297
v -0.02062329 0.03279823 0.00670297
v -0.01957198 0.03336072 0.00670297
v -0.00269831 0.03664982 0.00834060
v -0.00129386 0.03626323 0.00951667
v -0.00122080 0.03663550 0.00805897
v 0.00011464 0.03647186 0.00810852
v 0.00162057 0.03664573 0.00668732
v 0.00216043 0.03676027 0.00594674
v 0.00298849 0.03669073 0.00540694
v 0.00433205 0.03645345 0.00529742
v -0.00550721 0.03662118 0.00823890
v -0.00550721 0.03628573 0.00951667
v -0.00410276 0.03664777 0.00835625
v -0.00677364 0.03653732 0.00796770
v -0.00691571 0.03611595 0.00951667
v 0.00574056 0.03589709 0.00670297
v 0.00721401 0.03557800 0.00678380
v -0.01266340 0.03561891 0.00682292
v -0.01227778 0.03548391 0.00785557
v -0.01125895 0.03561891 0.00823890
v -0.00972867 0.03596050 0.00810852
v -0.00832016 0.03623459 0.00810852
v 0.00995796 0.03492141 0.00670297
v 0.01089561 0.03404391 0.00910987
v 0.01136241 0.03373095 0.00955318
v 0.01096461 0.03267959 0.01343344
v 0.01059118 0.03252823 0.01437221
v 0.01140706 0.03230118 0.01383502
v 0.01322959 0.02762731 0.01673218
v 0.01355838 0.02762731 0.01603070
v 0.01208087 0.02835754 0.01867491
v 0.01263290 0.02762731 0.01794997
v 0.01413071 0.02622413 0.01513887
v 0.01367203 0.02622413 0.01631234
v 0.01485323 0.02668845 0.01294580
v 0.01506836 0.02622004 0.01241644
v 0.01551892 0.02622413 0.01092222
v 0.01622926 0.02200436 0.01001214
v 0.01225541 0.02890981 0.01785870
v 0.01052217 0.02957868 0.01989531
v 0.01180891 0.02929436 0.01826550
v 0.01655805 0.01639777 0.01092222
v 0.01750788 0.01639777 0.00668211
v 0.00986866 0.03133368 0.01783784
v 0.00933692 0.03118845 0.01874271
v 0.01027457 0.03088368 0.01823160
v 0.00992954 0.03043368 0.01931901
v 0.00820443 0.03545527 0.00636918
v -0.01399884 0.03524459 0.00682292
v -0.01321543 0.03535504 0.00737314
v -0.01847197 0.03381482 0.00670297
v -0.01671032 0.03410527 0.00801203
v -0.01535052 0.03451845 0.00810852
v -0.01751808 0.03397641 0.00747745
v -0.02327388 0.01639777 0.00803550
v -0.02325764 0.01778458 0.00798596
v -0.02303439 0.01919186 0.00862745
v -0.02272996 0.02059709 0.00951667
v -0.02296539 0.02341163 0.00838233
v -0.02268125 0.02200436 0.00951667
v -0.02262442 0.02341163 0.00951667
v -0.02225505 0.02200436 0.01092222
v -0.02307093 0.02806300 0.00731578
v -0.02219010 0.02341163 0.01092222
v -0.02248641 0.02622413 0.00951667
v -0.02203179 0.02622413 0.01092222
v -0.02289232 0.02760891 0.00799117
v -0.02210080 0.03055436 0.00821543
v -0.02270561 0.03030072 0.00656476
v -0.02298568 0.02903459 0.00698981
v -0.02264878 0.02903459 0.00810852
v -0.02171113 0.02979754 0.01029116
v -0.02183696 0.03133777 0.00781646
v -0.02104544 0.03191254 0.00823890
v -0.02043657 0.03266322 0.00772258
v -0.01895906 0.03260186 0.01038765
v -0.01805794 0.03363686 0.00801203
v -0.01964911 0.03292504 0.00815806
v -0.00269831 0.03633277 0.00951667
v -0.00129386 0.03586436 0.01092222
v 0.00011464 0.03571300 0.01092222
v 0.00011464 0.03610368 0.00951667
v 0.00151909 0.03628982 0.00810852
v 0.00292760 0.03606686 0.00810852
v 0.00292760 0.03643095 0.00670297
v 0.00433205 0.03616709 0.00670297
v -0.00550721 0.03590323 0.01092222
v -0.00410276 0.03633277 0.00951667
v -0.00691571 0.03572732 0.01092222
v -0.00832016 0.03586845 0.00951667
v -0.00823086 0.03550027 0.01091440
v 0.00433205 0.03581118 0.00810852
v 0.00573650 0.03553300 0.00813981
v 0.00679186 0.03543686 0.00769128
v 0.00772951 0.03533868 0.00730535
v -0.01181099 0.03535709 0.00879173
v -0.01266340 0.03527732 0.00823890
v -0.01028882 0.03533663 0.01011384
v 0.00862657 0.03524868 0.00678380
v 0.00995796 0.03457777 0.00810852
v 0.01046940 0.03390686 0.01004864
v 0.00995796 0.03336482 0.01232777
v 0.01005944 0.03286163 0.01383502
v 0.00965353 0.03266936 0.01479466
v 0.00911773 0.03251186 0.01573082
v 0.01005944 0.03237891 0.01521189
v 0.00855351 0.03180822 0.01794997
v 0.01336760 0.02622413 0.01701380
v 0.01217423 0.02762731 0.01882876
v 0.01132587 0.02896913 0.01928511
v 0.01084690 0.02864186 0.02027604
v 0.01172772 0.02762731 0.01953284
v 0.01290486 0.02622413 0.01794997
v 0.01486135 0.02251163 0.01437482
v 0.01466651 0.02622004 0.01363944
v 0.01515766 0.01639777 0.01530315
v 0.01518608 0.01639777 0.01523275
v 0.01490600 0.02574959 0.01310747
v 0.01575029 0.01639777 0.01371246
v 0.00958452 0.02998368 0.02035687
v 0.00903248 0.02952550 0.02129564
v 0.00998637 0.02908368 0.02078454
v 0.00855351 0.03132754 0.01905563
v 0.00781070 0.03113323 0.02003873
v 0.00855351 0.03096959 0.01975711
v 0.00855351 0.03493777 0.00810852
v -0.01394607 0.03494595 0.00810852
v -0.01394607 0.03457164 0.00951667
v -0.01620699 0.03400709 0.00900035
v -0.01535458 0.03415232 0.00948799
v -0.01488372 0.03403368 0.01049978
v -0.01714464 0.03384754 0.00841362
v -0.02284362 0.01639777 0.00953493
v -0.02281520 0.01778458 0.00951667
v -0.02277461 0.01919186 0.00951667
v -0.02234435 0.01919186 0.01092222
v -0.02095207 0.01639777 0.01513887
v -0.02182478 0.02341163 0.01199138
v -0.02178825 0.02481686 0.01193401
v -0.02239306 0.02762731 0.00951667
v -0.02165430 0.02811004 0.01155329
v -0.02211298 0.02481686 0.01092222
v -0.02174360 0.02622413 0.01180623
v -0.02171113 0.02717322 0.01170453
v -0.02184913 0.03010027 0.00951667
v -0.02165430 0.03109845 0.00875523
v -0.02217387 0.02903459 0.00951667
v -0.02180855 0.02903459 0.01057019
v -0.02154064 0.02903459 0.01127166
v -0.02034321 0.02851300 0.01458343
v -0.02052993 0.02900186 0.01372289
v -0.02015243 0.02944981 0.01418445
v -0.02037568 0.02990391 0.01324568
v -0.02045687 0.03131527 0.01092222
v -0.02028638 0.03115572 0.01164977
v -0.02017273 0.03248732 0.00865874
v -0.01948268 0.03206186 0.01088311
v -0.01863433 0.03244232 0.01132642
v -0.01816348 0.03276959 0.01088311
v -0.01816348 0.03316845 0.00951667
v -0.01675903 0.03327073 0.01092222
v -0.01671032 0.03369823 0.00948799
v -0.00410276 0.03594004 0.01092222
v -0.00269831 0.03592573 0.01092222
v -0.00269831 0.03554118 0.01222086
v -0.00129386 0.03551050 0.01211655
v 0.00011464 0.03543686 0.01186621
v 0.00097111 0.03538573 0.01170192
v 0.00151909 0.03591141 0.00951667
v 0.00292760 0.03568845 0.00951667
v 0.00366230 0.03536936 0.01023901
v 0.00459995 0.03528754 0.00992348
v -0.00550721 0.03553300 0.01217653
v -0.00410276 0.03555345 0.01225215
v -0.00770318 0.03537755 0.01167585
v -0.00691571 0.03544300 0.01187664
v -0.00935117 0.03542664 0.01044241
v -0.00864083 0.03529368 0.01137857
v 0.00526564 0.03540823 0.00898731
v 0.00620329 0.03531618 0.00862745
v 0.00721401 0.03523232 0.00813981
v 0.00714500 0.03488664 0.00951667
v -0.01125895 0.03526095 0.00959230
v -0.01254162 0.03496232 0.00951667
v -0.01254162 0.03456550 0.01092222
v -0.01113312 0.03492141 0.01092222
v -0.00978144 0.03521186 0.01091440
v 0.00998231 0.03417482 0.00955318
v 0.00855351 0.03455323 0.00951667
v 0.00998231 0.03377595 0.01093526
v 0.00902031 0.03389663 0.01141247
v 0.00855351 0.03375754 0.01231473
v 0.00855351 0.03332391 0.01373332
v 0.00861034 0.03282277 0.01521189
v 0.00818007 0.03263868 0.01609850
v 0.00861034 0.03235027 0.01656006
v 0.00751844 0.03247504 0.01703728
v 0.00708818 0.03225209 0.01785870
v 0.00726272 0.03152186 0.01948590
v 0.01359491 0.02200436 0.01750666
v 0.01325801 0.02200436 0.01821074
v 0.01189009 0.02622413 0.01978318
v 0.01230818 0.02622413 0.01908171
v 0.00945057 0.02858868 0.02163725
v 0.01037605 0.02762731 0.02119655
v 0.01102550 0.02762731 0.02049247
v 0.01555545 0.01639777 0.01424182
v 0.01464622 0.01639777 0.01644272
v 0.00855757 0.03025777 0.02080279
v 0.00809483 0.02989982 0.02162943
v 0.00855757 0.02904891 0.02194235
v 0.00687304 0.03125800 0.02028647
v 0.00503021 0.03114141 0.02146514
v 0.00574056 0.03104323 0.02128261
v 0.00726272 0.03087345 0.02075846
v -0.01445752 0.03390482 0.01143594
v -0.01582138 0.03387823 0.00993912
v -0.01535458 0.03375141 0.01094830
v -0.02242147 0.01639777 0.01094048
v -0.02046499 0.01639777 0.01624454
v -0.02079783 0.02059709 0.01513887
v -0.02154064 0.02481686 0.01263809
v -0.02188973 0.02763550 0.01101871
v -0.02145134 0.02763550 0.01223390
v -0.02087495 0.02762731 0.01373332
v -0.02149194 0.02622413 0.01251031
v -0.02102920 0.02622413 0.01373332
v -0.02043657 0.02762731 0.01479987
v -0.02011184 0.02762731 0.01550395
v -0.01960040 0.02762731 0.01654442
v -0.01894688 0.02849050 0.01739192
v -0.01916201 0.02898959 0.01650270
v -0.01896312 0.02985482 0.01600463
v -0.01878046 0.03107595 0.01429919
v -0.01906865 0.03129482 0.01336303
v -0.01955169 0.03145845 0.01220260
v -0.01753026 0.03118641 0.01593683
v -0.01675903 0.03186959 0.01513887
v -0.01729483 0.03248936 0.01284410
v -0.01769668 0.03263868 0.01190533
v -0.01679962 0.03282073 0.01235646
v -0.00269831 0.03533050 0.01292493
v -0.00129386 0.03529777 0.01281802
v 0.00011464 0.03521800 0.01257029
v 0.00147038 0.03551868 0.01095612
v 0.00011464 0.03485186 0.01373332
v 0.00151909 0.03467800 0.01373332
v 0.00292760 0.03448163 0.01373332
v 0.00292760 0.03490709 0.01232777
v 0.00190877 0.03531414 0.01144898
v 0.00292760 0.03523436 0.01115691
v 0.00433205 0.03467800 0.01232777
v 0.00421027 0.03512391 0.01079444
v 0.00574056 0.03480686 0.01092222
v -0.00550721 0.03531414 0.01288060
v -0.00410276 0.03534072 0.01295623
v -0.00823086 0.03511573 0.01221825
v -0.00832016 0.03462277 0.01373332
v -0.00691571 0.03522414 0.01258072
v -0.00972867 0.03479868 0.01232777
v 0.00573650 0.03518732 0.00948017
v 0.00714500 0.03450004 0.01092222
v -0.01351987 0.03402959 0.01186100
v -0.01251727 0.03415027 0.01232777
v -0.01113312 0.03449595 0.01232777
v 0.00808266 0.03401732 0.01183492
v 0.00752656 0.03388232 0.01277369
v 0.00709223 0.03370845 0.01365509
v 0.00714500 0.03321754 0.01513887
v 0.00708818 0.03274300 0.01656006
v 0.00658079 0.03258141 0.01732673
v 0.00574056 0.03240141 0.01827333
v 0.00574056 0.03196163 0.01935813
v 0.01263290 0.02200436 0.01935813
v 0.01331077 0.02059709 0.01833852
v 0.01380598 0.01639777 0.01808818
v 0.01381410 0.01639777 0.01807253
v 0.01461780 0.01639777 0.01650009
v 0.01210116 0.02282254 0.02010654
v 0.01110668 0.02616277 0.02083930
v 0.01070077 0.02565550 0.02150426
v 0.00967382 0.02762731 0.02181979
v 0.00783099 0.02830641 0.02286548
v 0.00855351 0.02775413 0.02258907
v 0.01055059 0.02659231 0.02136084
v 0.00714500 0.03011050 0.02189281
v 0.00627636 0.02964618 0.02281072
v 0.00727489 0.02912050 0.02264643
v 0.00574056 0.03140527 0.02057853
v 0.00447006 0.03153618 0.02090188
v 0.00409256 0.03123754 0.02163465
v 0.00292760 0.03091641 0.02253430
v 0.00447006 0.03080800 0.02213011
v 0.00578115 0.03028845 0.02227353
v -0.01535052 0.03333004 0.01232777
v -0.01592285 0.03250777 0.01430180
v -0.01498520 0.03265504 0.01474511
v -0.01394607 0.03330345 0.01373332
v -0.01397043 0.03375550 0.01232777
v -0.02012808 0.01639777 0.01694601
v -0.02005502 0.02059709 0.01677651
v -0.02041222 0.01919186 0.01612458
v -0.02037974 0.02059709 0.01607243
v -0.02021738 0.02622413 0.01571517
v -0.02051775 0.02622413 0.01501109
v -0.02111444 0.02481686 0.01373332
v -0.01982365 0.02622413 0.01654442
v -0.01917825 0.02622413 0.01783001
v -0.01906054 0.02762731 0.01760836
v -0.01866680 0.02762731 0.01830983
v -0.01742878 0.02823891 0.02001527
v -0.01773321 0.02875436 0.01907910
v -0.01866680 0.02942936 0.01694340
v -0.01742066 0.02969323 0.01860189
v -0.01772915 0.02999595 0.01766312
v -0.01850038 0.03082845 0.01513887
v -0.01641400 0.02999391 0.01935813
v -0.01711623 0.03093482 0.01687299
v -0.01617858 0.03120482 0.01738671
v -0.01669002 0.03136641 0.01646097
v -0.01535052 0.03187368 0.01654442
v -0.01541141 0.03237073 0.01518320
v -0.01679962 0.03234618 0.01379330
v -0.01635718 0.03265709 0.01336303
v -0.00269831 0.03506664 0.01373332
v -0.00129386 0.03500732 0.01373332
v 0.00011464 0.03439573 0.01513887
v 0.00156780 0.03418095 0.01524057
v 0.00292760 0.03410527 0.01488071
v 0.00399514 0.03402141 0.01462516
v 0.00441323 0.03420345 0.01384024
v 0.00206707 0.03393550 0.01577776
v 0.00574056 0.03441209 0.01232777
v -0.00691571 0.03485595 0.01373332
v -0.00691571 0.03438345 0.01513887
v -0.00550721 0.03502572 0.01373332
v -0.00550721 0.03454913 0.01513887
v -0.00410276 0.03507482 0.01373332
v -0.00269831 0.03458800 0.01513887
v -0.00826333 0.03414823 0.01516755
v -0.00775595 0.03398254 0.01591336
v -0.00972867 0.03434050 0.01373332
v -0.00972867 0.03403164 0.01465123
v -0.01137260 0.03385982 0.01412969
v 0.00709223 0.03411550 0.01231473
v -0.01296783 0.03388232 0.01279716
v -0.01203018 0.03400913 0.01319092
v 0.00659297 0.03399073 0.01313616
v 0.00574056 0.03352845 0.01513887
v 0.00574056 0.03304572 0.01654442
v 0.00574056 0.03267141 0.01756925
v 0.00478667 0.03250572 0.01853409
v 0.00432393 0.03229709 0.01927729
v 0.01214987 0.02200436 0.02017694
v 0.01275062 0.02059709 0.01935813
v 0.01317682 0.01639777 0.01921992
v 0.01315653 0.01642640 0.01925382
v 0.00928821 0.02284709 0.02289677
v 0.00935721 0.02200436 0.02294371
v 0.01014874 0.02059709 0.02248476
v 0.01096867 0.02059709 0.02178068
v 0.01167090 0.02059709 0.02096708
v 0.01003102 0.02616277 0.02191628
v 0.00901219 0.02622413 0.02270119
v 0.00809077 0.02736959 0.02302455
v 0.00689334 0.02870731 0.02307410
v 0.00727489 0.02775413 0.02330357
v 0.00533870 0.02985482 0.02297500
v 0.00578115 0.02912050 0.02326967
v 0.00424275 0.02892413 0.02385640
v 0.00292760 0.03188391 0.02076367
v 0.00292760 0.03135004 0.02183022
v 0.00292760 0.03021482 0.02333226
v 0.00433205 0.03002254 0.02312886
v 0.00151909 0.03105959 0.02274031
v -0.01445346 0.03249550 0.01568127
v -0.01397043 0.03280641 0.01518320
v -0.01254162 0.03322573 0.01513887
v -0.01251727 0.03371868 0.01368899
v -0.01961257 0.01639777 0.01794997
v -0.01946239 0.02059709 0.01794997
v -0.01991700 0.02481686 0.01654442
v -0.01923102 0.02481686 0.01792911
v -0.01880481 0.02622413 0.01853409
v -0.01832178 0.02622413 0.01935813
v -0.01757491 0.02730209 0.02021085
v -0.01792805 0.02771322 0.01947026
v -0.01716900 0.02914709 0.01947026
v -0.01701881 0.02771322 0.02071413
v -0.01622729 0.02762731 0.02165029
v -0.01607710 0.02835550 0.02148601
v -0.01636124 0.02890777 0.02065415
v -0.01610551 0.02977300 0.02011175
v -0.01569960 0.03097982 0.01832287
v -0.01476195 0.03118845 0.01876357
v -0.00129386 0.03454300 0.01513887
v 0.00011464 0.03405822 0.01612719
v 0.00112942 0.03399891 0.01596290
v 0.00292760 0.03387004 0.01558479
v 0.00441323 0.03378822 0.01511280
v 0.00493279 0.03393754 0.01438003
v 0.00574056 0.03408073 0.01341779
v 0.00156780 0.03376164 0.01647662
v 0.00292760 0.03354482 0.01654442
v -0.00691571 0.03404595 0.01609068
v -0.00550721 0.03388641 0.01705292
v -0.00550721 0.03413391 0.01634884
v -0.00410276 0.03459209 0.01513887
v -0.00410276 0.03415436 0.01640882
v -0.00410276 0.03390891 0.01711290
v -0.00269831 0.03415027 0.01639057
v -0.00129386 0.03412982 0.01633320
v -0.00869360 0.03389254 0.01565780
v -0.00826333 0.03369209 0.01644794
v -0.00832016 0.03312141 0.01794997
v -0.00691571 0.03335459 0.01794997
v -0.00691571 0.03378822 0.01679215
v -0.01043495 0.03395800 0.01443740
v -0.00972867 0.03378822 0.01535270
v -0.01099511 0.03364504 0.01500066
v 0.00574056 0.03385573 0.01412187
v 0.00433205 0.03331368 0.01654442
v 0.00432393 0.03277982 0.01802038
v 0.00384902 0.03258959 0.01875575
v 0.00292760 0.03238095 0.01963193
v 0.01221076 0.02059709 0.02026560
v 0.01271003 0.01639777 0.01996311
v 0.01226758 0.01919186 0.02034645
v 0.01232847 0.01778458 0.02041685
v 0.01238530 0.01639777 0.02047683
v 0.00830996 0.02622413 0.02315233
v 0.00944651 0.02059709 0.02299847
v 0.00855351 0.02200436 0.02340266
v 0.00855351 0.02059709 0.02351480
v 0.01021774 0.01919186 0.02253952
v 0.01102144 0.01919186 0.02183544
v 0.01182108 0.01639777 0.02118091
v 0.01177238 0.01778458 0.02112093
v 0.01172772 0.01919186 0.02105052
v 0.01028269 0.01778458 0.02258645
v 0.00714500 0.02622413 0.02373384
v 0.00465272 0.02797095 0.02416933
v 0.00566343 0.02755163 0.02398940
v 0.00090617 0.02976686 0.02429971
v 0.00184382 0.02955209 0.02418237
v 0.00292760 0.02928413 0.02403373
v 0.00371506 0.02838209 0.02430232
v 0.00151909 0.03209663 0.02076367
v 0.00151909 0.03147072 0.02203623
v 0.00143385 0.03024959 0.02365822
v 0.00067886 0.03112709 0.02284723
v 0.00017147 0.03066686 0.02347047
v -0.01394607 0.03175913 0.01794997
v -0.01397043 0.03231141 0.01652356
v -0.01351581 0.03262845 0.01604113
v -0.01246044 0.03273686 0.01652356
v -0.01193682 0.03257732 0.01732152
v -0.01113312 0.03306004 0.01654442
v -0.01960445 0.01639777 0.01796561
v -0.01897935 0.02059709 0.01884441
v -0.01885758 0.02481686 0.01863058
v -0.01841920 0.02481686 0.01935813
v -0.01768450 0.02622413 0.02035948
v -0.01713246 0.02622413 0.02106356
v -0.01643024 0.02622413 0.02186412
v -0.01565089 0.02622413 0.02256821
v -0.01529369 0.02766618 0.02242478
v -0.01455088 0.02816118 0.02281854
v -0.01523281 0.02890777 0.02174417
v -0.01468483 0.02976072 0.02149383
v -0.01562248 0.02929231 0.02104791
v -0.01523281 0.02995913 0.02065415
v -0.01527746 0.03068936 0.01928250
v -0.01394607 0.03049913 0.02076367
v -0.01394607 0.03101459 0.01977275
v -0.01320732 0.03113323 0.02003613
v -0.01394607 0.03131322 0.01906867
v -0.00129386 0.03388027 0.01703467
v 0.00011464 0.03380663 0.01683127
v 0.00151909 0.03322982 0.01794997
v 0.00292760 0.03303754 0.01794997
v -0.00550721 0.03355913 0.01794997
v -0.00410276 0.03360618 0.01794997
v -0.00269831 0.03390277 0.01709465
v -0.00972867 0.03336686 0.01654442
v -0.00975302 0.03281050 0.01802559
v -0.00832016 0.03270209 0.01903477
v -0.00735004 0.03250777 0.01995529
v -0.00689542 0.03278391 0.01943636
v -0.00929840 0.03261004 0.01879747
v 0.00292760 0.03265913 0.01893046
v 0.00151909 0.03275323 0.01916515
v 0.00151909 0.03247300 0.01986663
v 0.00951146 0.01919186 0.02304280
v 0.00855351 0.01919186 0.02359825
v 0.00721807 0.02200436 0.02403633
v 0.00731954 0.02059709 0.02409110
v 0.00763209 0.01639777 0.02420323
v 0.01107015 0.01778458 0.02188238
v 0.01111886 0.01639777 0.02192149
v 0.00957640 0.01778458 0.02308714
v 0.00964135 0.01639777 0.02311843
v 0.01033139 0.01639777 0.02262557
v 0.01034357 0.01639777 0.02261514
v 0.00514387 0.02703413 0.02431014
v 0.00603281 0.02622413 0.02415890
v 0.00645902 0.02274686 0.02428668
v 0.00011464 0.02985482 0.02437273
v 0.00011464 0.02903459 0.02474302
v 0.00143385 0.02906322 0.02449529
v 0.00292760 0.02858254 0.02439359
v 0.00151909 0.02762731 0.02496468
v 0.00292760 0.02762731 0.02468826
v 0.00424275 0.02755163 0.02439881
v 0.00061797 0.03252823 0.02000484
v 0.00013494 0.03230732 0.02066719
v 0.00017147 0.03150141 0.02229439
v -0.00025879 0.03118232 0.02293067
v -0.00129386 0.03068118 0.02370777
v -0.01246044 0.03222345 0.01785349
v -0.01287447 0.03244641 0.01697991
v -0.01265934 0.03151573 0.01948330
v -0.01113312 0.03197391 0.01935813
v -0.01113312 0.03240345 0.01827593
v -0.01113312 0.03267345 0.01757185
v -0.01023606 0.03250982 0.01854713
v -0.01905648 0.01639777 0.01896697
v -0.01858156 0.01919186 0.01959282
v -0.01855721 0.02059709 0.01954849
v -0.01772915 0.02481686 0.02042207
v -0.01718929 0.02481686 0.02112354
v -0.01648707 0.02481686 0.02192149
v -0.01574425 0.02481686 0.02262557
v -0.01504203 0.02481686 0.02313407
v -0.01494867 0.02622413 0.02306627
v -0.01478225 0.02722436 0.02295414
v -0.01402725 0.02766618 0.02322013
v -0.01248074 0.02757822 0.02394246
v -0.01361323 0.02861118 0.02304280
v -0.01402725 0.02906118 0.02247954
v -0.01291506 0.02955004 0.02271163
v -0.01394607 0.02992436 0.02171809
v -0.01265934 0.03093482 0.02078454
v -0.01226966 0.03126822 0.02032819
v -0.00269831 0.03358777 0.01794997
v -0.00129386 0.03354073 0.01794997
v 0.00011464 0.03338936 0.01794997
v 0.00013494 0.03279618 0.01946504
v -0.00550721 0.03301504 0.01935813
v -0.00410276 0.03304777 0.01935813
v -0.00832016 0.03241982 0.01973885
v -0.00832016 0.03197391 0.02076367
v -0.00689542 0.03227050 0.02066719
v -0.00641238 0.03258141 0.02013261
v -0.00975302 0.03230732 0.01930337
v 0.00764833 0.01639777 0.02419541
v 0.00855351 0.01639777 0.02375210
v 0.00651584 0.02200436 0.02430754
v 0.00692987 0.01639777 0.02446921
v 0.00962917 0.01639777 0.02312625
v 0.00532653 0.02622413 0.02436491
v 0.00292760 0.02622413 0.02494642
v 0.00433205 0.02622413 0.02462567
v 0.00574056 0.02200436 0.02452658
v 0.00574056 0.01639777 0.02486558
v -0.00129386 0.02997754 0.02447182
v -0.00129386 0.02903459 0.02493860
v 0.00011464 0.02762731 0.02518633
v 0.00011464 0.02622413 0.02544971
v 0.00151909 0.02622413 0.02521501
v -0.00031968 0.03258141 0.02013261
v -0.00129386 0.03231959 0.02094100
v -0.00129386 0.03171004 0.02216922
v -0.00129386 0.03123550 0.02300369
v -0.00269831 0.03073641 0.02373384
v -0.00269831 0.03003481 0.02453180
v -0.01103570 0.03137254 0.02078454
v -0.00972867 0.03167936 0.02076367
v -0.01861809 0.01639777 0.01967105
v -0.01785092 0.02059709 0.02059678
v -0.01732730 0.02059709 0.02129826
v -0.01662508 0.02059709 0.02205188
v -0.01591067 0.02059709 0.02275596
v -0.01515162 0.02200436 0.02323056
v -0.01402320 0.02059709 0.02397636
v -0.01394607 0.02481686 0.02374427
v -0.01394607 0.02622413 0.02362171
v -0.01289477 0.02622413 0.02413282
v -0.01197335 0.02707709 0.02433361
v -0.01142131 0.02801595 0.02416151
v -0.01248480 0.02906118 0.02322013
v -0.01197741 0.02979754 0.02293328
v -0.01248480 0.03013300 0.02221356
v -0.01144161 0.03104936 0.02126696
v -0.00269831 0.03302118 0.01935813
v -0.00129386 0.03298845 0.01935813
v -0.00550721 0.03263868 0.02026560
v -0.00410276 0.03264686 0.02028125
v -0.00129386 0.03262436 0.02023692
v -0.00972867 0.03124982 0.02166333
v -0.00832016 0.03140118 0.02192932
v -0.00689542 0.03147277 0.02226310
v -0.00550721 0.03173868 0.02216922
v -0.00550721 0.03233186 0.02096708
v 0.00293166 0.01639777 0.02555402
v 0.00326045 0.01639777 0.02548100
v 0.00433205 0.01639777 0.02524109
v 0.00151503 0.01639777 0.02582783
v 0.00291948 0.01639777 0.02555663
v 0.00435234 0.01639777 0.02523588
v -0.00269831 0.02903459 0.02502726
v -0.00129386 0.02762731 0.02537409
v -0.00122892 0.02623027 0.02562182
v -0.00165512 0.02576595 0.02571048
v 0.00011464 0.01639777 0.02605209
v -0.00410276 0.03233800 0.02098533
v -0.00410276 0.03176732 0.02216922
v -0.00410276 0.03127641 0.02306106
v -0.00410276 0.03074254 0.02376253
v -0.00410276 0.03003891 0.02453702
v -0.00410276 0.02903459 0.02504030
v -0.01050396 0.03116186 0.02150165
v -0.01791587 0.01639777 0.02067241
v -0.01787528 0.01919186 0.02062286
v -0.01735166 0.01919186 0.02132694
v -0.01664943 0.01919186 0.02207535
v -0.01593909 0.01919186 0.02277682
v -0.01523686 0.01919186 0.02330879
v -0.01520845 0.02059709 0.02327228
v -0.01331691 0.02059709 0.02431275
v -0.01326414 0.02139481 0.02428928
v -0.01408002 0.01919186 0.02401287
v -0.01298001 0.02481686 0.02418758
v -0.01218848 0.02622413 0.02441445
v -0.01113312 0.02622413 0.02470912
v -0.00972867 0.02762731 0.02472738
v -0.01102352 0.02757822 0.02442228
v -0.01048366 0.02836163 0.02429450
v -0.01102352 0.02891186 0.02380164
v -0.00972867 0.02926368 0.02398418
v -0.00859212 0.02954391 0.02415368
v -0.00765447 0.02974845 0.02428928
v -0.01113312 0.02993050 0.02306888
v -0.00972867 0.03083050 0.02236741
v -0.01103570 0.03067913 0.02204927
v -0.00832016 0.03099618 0.02263340
v -0.00735004 0.03109436 0.02279246
v -0.00641238 0.03117822 0.02292546
v -0.00550721 0.03125595 0.02302977
v -0.00269831 0.02762731 0.02543145
v -0.00279167 0.02623027 0.02564268
v -0.00238170 0.02576595 0.02571048
v -0.00269831 0.01639777 0.02630243
v -0.00129386 0.01639777 0.02623202
v -0.00550721 0.03067913 0.02373123
v -0.00550721 0.02997550 0.02447443
v -0.00550721 0.02903459 0.02494642
v -0.00550721 0.02762731 0.02539234
v -0.00410276 0.02762731 0.02543145
v -0.01739225 0.01639777 0.02137649
v -0.01669002 0.01639777 0.02210925
v -0.01596344 0.01778458 0.02280029
v -0.01526122 0.01778458 0.02333226
v -0.01411655 0.01778458 0.02403633
v -0.01337374 0.01919186 0.02433361
v -0.01254162 0.01919186 0.02464132
v -0.01254162 0.02059709 0.02459178
v -0.01113312 0.02059709 0.02499597
v -0.00972867 0.02622413 0.02501683
v -0.00972867 0.02856004 0.02439881
v -0.00832016 0.02762731 0.02501944
v -0.00820245 0.03019027 0.02364257
v -0.00972867 0.03012686 0.02328271
v -0.00820245 0.02905913 0.02450572
v -0.00691571 0.02903459 0.02474042
v -0.00691571 0.02983641 0.02435709
v -0.00689542 0.03063209 0.02346786
v -0.00500388 0.02570459 0.02570526
v -0.00408246 0.01639777 0.02626853
v -0.00691571 0.02762731 0.02523066
v -0.00548691 0.02619345 0.02561921
v -0.00691571 0.02622413 0.02548100
v -0.01597968 0.01639777 0.02281333
v -0.01597156 0.01639777 0.02282115
v -0.01527746 0.01639777 0.02333747
v -0.01526122 0.01639777 0.02334790
v -0.01414091 0.01639777 0.02404155
v -0.01343868 0.01639777 0.02436230
v -0.01341433 0.01778458 0.02434926
v -0.01254162 0.01639777 0.02471956
v -0.01113312 0.01639777 0.02516547
v -0.00972867 0.01639777 0.02546796
v -0.00972867 0.02059709 0.02529586
v -0.00832016 0.02622413 0.02528282
v -0.00550721 0.01639777 0.02615118
v -0.00691571 0.01639777 0.02597125
v -0.00689542 0.01639777 0.02597385
v -0.01342651 0.01639777 0.02436751
v -0.00807662 0.01639777 0.02578349
f 1 2 9
f 1 9 3
f 1 3 4
f 1 4 5
f 1 5 6
f 1 6 7
f 1 7 8
f 1 8 2
f 2 8 10
f 2 10 11
f 2 11 12
f 2 12 9
f 3 9 13
f 3 13 14
f 3 14 4
f 4 15 5
f 4 14 16
f 4 16 15
f 5 17 18
f 5 18 6
f 5 15 17
f 6 18 19
f 6 19 20
f 6 20 21
f 6 21 7
f 7 21 22
f 7 22 8
f 8 23 24
f 8 24 10
f 8 22 25
f 8 25 48
f 8 48 47
f 8 47 81
f 8 81 122
f 8 122 161
f 8 161 160
f 8 160 204
f 8 204 203
f 8 203 255
f 8 255 319
f 8 319 392
f 8 392 464
f 8 464 463
f 8 463 526
f 8 526 453
f 8 453 452
f 8 452 525
f 8 525 602
f 8 602 690
f 8 690 600
f 8 600 599
f 8 599 691
f 8 691 761
f 8 761 760
f 8 760 759
f 8 759 839
f 8 839 910
f 8 910 913
f 8 913 920
f 8 920 983
f 8 983 987
f 8 987 986
f 8 986 985
f 8 985 1043
f 8 1043 1040
f 8 1040 1039
f 8 1039 981
f 8 981 1042
f 8 1042 1048
f 8 1048 1093
f 8 1093 1090
f 8 1090 1089
f 8 1089 1088
f 8 1088 1092
f 8 1092 1091
f 8 1091 1098
f 8 1098 1137
f 8 1137 1136
f 8 1136 1162
f 8 1162 1178
f 8 1178 1180
f 8 1180 1179
f 8 1179 1182
f 8 1182 1175
f 8 1175 1174
f 8 1174 1173
f 8 1173 1181
f 8 1181 1171
f 8 1171 1170
f 8 1170 1169
f 8 1169 1168
f 8 1168 1167
f 8 1167 1166
f 8 1166 1144
f 8 1144 1143
f 8 1143 1106
f 8 1106 1062
f 8 1062 1010
f 8 1010 942
f 8 942 863
f 8 863 783
f 8 783 703
f 8 703 620
f 8 620 702
f 8 702 616
f 8 616 538
f 8 538 472
f 8 472 403
f 8 403 328
f 8 328 327
f 8 327 261
f 8 261 260
f 8 260 208
f 8 208 164
f 8 164 163
f 8 163 125
f 8 125 86
f 8 86 56
f 8 56 51
f 8 51 49
f 8 49 23
f 9 12 26
f 9 26 27
f 9 27 13
f 10 24 28
f 10 28 29
f 10 29 30
f 10 30 11
f 11 30 31
f 11 31 32
f 11 32 33
f 11 33 12
f 12 33 34
f 12 34 26
f 13 35 14
f 13 27 36
f 13 36 35
f 14 35 16
f 15 37 38
f 15 38 17
f 15 16 39
f 15 39 37
f 16 35 40
f 16 40 41
f 16 41 39
f 17 38 42
f 17 42 18
f 18 42 43
f 18 43 44
f 18 44 19
f 19 44 45
f 19 45 46
f 19 46 20
f 20 46 47
f 20 47 21
f 21 47 22
f 22 47 48
f 22 48 25
f 23 49 50
f 23 50 24
f 24 50 51
f 24 51 28
f 26 34 27
f 27 34 52
f 27 52 53
f 27 53 54
f 27 54 55
f 27 55 36
f 28 51 56
f 28 56 29
f 29 56 57
f 29 57 30
f 30 57 58
f 30 58 59
f 30 59 60
f 30 60 61
f 30 61 31
f 31 61 32
f 32 61 62
f 32 62 63
f 32 63 64
f 32 64 33
f 33 65 52
f 33 52 34
f 33 64 66
f 33 66 65
f 35 67 40
f 35 36 68
f 35 68 67
f 36 55 68
f 37 39 69
f 37 69 70
f 37 70 71
f 37 71 72
f 37 72 38
f 38 72 73
f 38 73 42
f 39 41 70
f 39 70 69
f 40 67 41
f 41 67 74
f 41 74 70
f 42 75 76
f 42 76 43
f 42 73 75
f 43 76 77
f 43 77 78
f 43 78 44
f 44 78 79
f 44 79 80
f 44 80 45
f 45 80 81
f 45 81 46
f 46 81 47
f 49 51 50
f 52 65 53
f 53 82 83
f 53 83 54
f 53 65 82
f 54 83 55
f 55 84 68
f 55 83 82
f 55 82 85
f 55 85 84
f 56 86 87
f 56 87 57
f 57 87 58
f 58 87 59
f 59 88 89
f 59 89 60
f 59 87 90
f 59 90 91
f 59 91 92
f 59 92 88
f 60 89 61
f 61 89 62
f 62 89 93
f 62 93 94
f 62 94 95
f 62 95 64
f 62 64 63
f 64 95 96
f 64 96 97
f 64 97 98
f 64 98 99
f 64 99 65
f 64 65 66
f 65 99 100
f 65 100 101
f 65 101 82
f 67 102 74
f 67 68 103
f 67 103 102
f 68 84 104
f 68 104 105
f 68 105 103
f 70 74 106
f 70 106 71
f 71 107 72
f 71 106 107
f 72 108 73
f 72 107 109
f 72 109 108
f 73 108 110
f 73 110 75
f 74 102 111
f 74 111 106
f 75 110 112
f 75 112 76
f 76 112 113
f 76 113 114
f 76 114 115
f 76 115 77
f 77 115 116
f 77 116 117
f 77 117 78
f 78 117 118
f 78 118 119
f 78 119 120
f 78 120 121
f 78 121 79
f 79 121 122
f 79 122 81
f 79 81 80
f 82 123 85
f 82 101 123
f 84 85 124
f 84 124 104
f 85 123 124
f 86 125 87
f 87 125 126
f 87 126 90
f 88 92 93
f 88 93 89
f 90 126 91
f 91 127 128
f 91 128 92
f 91 126 129
f 91 129 127
f 92 128 130
f 92 130 131
f 92 131 93
f 93 132 94
f 93 131 132
f 94 132 95
f 95 132 133
f 95 133 96
f 96 134 135
f 96 135 97
f 96 133 134
f 97 135 136
f 97 136 98
f 98 136 99
f 99 136 100
f 100 137 138
f 100 138 123
f 100 123 101
f 100 136 135
f 100 135 137
f 102 139 111
f 102 103 140
f 102 140 139
f 103 105 140
f 104 141 142
f 104 142 140
f 104 140 105
f 104 124 143
f 104 143 141
f 106 144 145
f 106 145 109
f 106 109 107
f 106 111 144
f 108 109 146
f 108 146 110
f 109 145 146
f 110 147 112
f 110 146 148
f 110 148 147
f 111 139 144
f 112 147 113
f 113 147 149
f 113 149 114
f 114 116 115
f 114 149 150
f 114 150 151
f 114 151 152
f 114 152 153
f 114 153 154
f 114 154 155
f 114 155 116
f 116 155 117
f 117 155 156
f 117 156 118
f 118 156 157
f 118 157 158
f 118 158 159
f 118 159 121
f 118 121 119
f 119 121 120
f 121 159 160
f 121 160 161
f 121 161 122
f 123 162 124
f 123 138 137
f 123 137 162
f 124 162 143
f 125 163 126
f 126 164 129
f 126 163 164
f 127 129 165
f 127 165 128
f 128 165 166
f 128 166 167
f 128 167 130
f 129 164 168
f 129 168 165
f 130 169 131
f 130 167 169
f 131 169 170
f 131 170 171
f 131 171 132
f 132 171 172
f 132 172 133
f 133 172 173
f 133 173 134
f 134 173 174
f 134 174 175
f 134 175 176
f 134 176 135
f 135 176 137
f 137 176 162
f 139 177 178
f 139 178 144
f 139 140 179
f 139 179 177
f 140 142 180
f 140 180 179
f 141 143 181
f 141 181 182
f 141 182 180
f 141 180 142
f 143 162 183
f 143 183 181
f 144 184 145
f 144 178 184
f 145 184 146
f 146 185 186
f 146 186 187
f 146 187 148
f 146 184 185
f 147 188 149
f 147 148 189
f 147 189 188
f 148 187 190
f 148 190 191
f 148 191 189
f 149 188 192
f 149 192 150
f 150 192 151
f 151 193 194
f 151 194 153
f 151 153 152
f 151 192 195
f 151 195 196
f 151 196 193
f 153 197 198
f 153 198 199
f 153 199 154
f 153 194 197
f 154 199 155
f 155 199 200
f 155 200 156
f 156 200 201
f 156 201 202
f 156 202 157
f 157 202 203
f 157 203 158
f 158 160 159
f 158 203 204
f 158 204 160
f 162 176 205
f 162 205 206
f 162 206 207
f 162 207 183
f 164 208 168
f 165 168 208
f 165 208 209
f 165 209 166
f 166 209 167
f 167 209 210
f 167 210 211
f 167 211 212
f 167 212 213
f 167 213 169
f 169 213 214
f 169 214 170
f 170 215 171
f 170 214 216
f 170 216 215
f 171 215 217
f 171 217 172
f 172 217 218
f 172 218 219
f 172 219 173
f 173 219 220
f 173 220 174
f 174 220 221
f 174 221 222
f 174 222 175
f 175 222 223
f 175 223 176
f 176 224 205
f 176 223 222
f 176 222 224
f 177 225 226
f 177 226 178
f 177 179 227
f 177 227 225
f 178 226 228
f 178 228 229
f 178 229 185
f 178 185 184
f 179 180 230
f 179 230 227
f 180 182 230
f 181 183 231
f 181 231 232
f 181 232 182
f 182 233 230
f 182 232 233
f 183 207 231
f 185 234 187
f 185 187 186
f 185 229 235
f 185 235 234
f 187 234 190
f 188 189 236
f 188 236 192
f 189 191 236
f 190 234 237
f 190 237 191
f 191 237 236
f 192 236 195
f 193 196 238
f 193 238 194
f 194 238 239
f 194 239 240
f 194 240 197
f 195 241 196
f 195 236 242
f 195 242 243
f 195 243 241
f 196 241 238
f 197 240 244
f 197 244 198
f 198 244 245
f 198 245 246
f 198 246 199
f 199 246 200
f 200 246 247
f 200 247 248
f 200 248 249
f 200 249 250
f 200 250 201
f 201 250 251
f 201 251 202
f 202 251 252
f 202 252 253
f 202 253 254
f 202 254 203
f 203 254 255
f 205 224 206
f 206 224 207
f 207 256 257
f 207 257 258
f 207 258 259
f 207 259 231
f 207 224 222
f 207 222 221
f 207 221 256
f 208 260 209
f 209 260 261
f 209 261 262
f 209 262 210
f 210 262 211
f 211 262 263
f 211 263 212
f 212 263 264
f 212 264 265
f 212 265 266
f 212 266 267
f 212 267 214
f 212 214 213
f 214 267 268
f 214 268 216
f 215 269 217
f 215 216 270
f 215 270 269
f 216 268 270
f 217 269 218
f 218 269 271
f 218 271 272
f 218 272 273
f 218 273 220
f 218 220 219
f 220 273 274
f 220 274 275
f 220 275 276
f 220 276 277
f 220 277 221
f 221 277 278
f 221 278 279
f 221 279 256
f 225 280 281
f 225 281 228
f 225 228 226
f 225 227 282
f 225 282 280
f 227 230 283
f 227 283 282
f 228 284 229
f 228 281 284
f 229 284 235
f 230 233 285
f 230 285 283
f 231 259 232
f 232 259 286
f 232 286 233
f 233 286 287
f 233 287 288
f 233 288 285
f 234 235 237
f 235 284 289
f 235 289 237
f 236 237 290
f 236 290 291
f 236 291 242
f 237 292 293
f 237 293 290
f 237 289 292
f 238 241 294
f 238 294 295
f 238 295 296
f 238 296 240
f 238 240 239
f 240 297 298
f 240 298 299
f 240 299 300
f 240 300 301
f 240 301 302
f 240 302 303
f 240 303 304
f 240 304 244
f 240 296 305
f 240 305 306
f 240 306 307
f 240 307 297
f 241 243 308
f 241 308 309
f 241 309 294
f 242 308 243
f 242 291 310
f 242 310 308
f 244 304 311
f 244 311 312
f 244 312 245
f 245 312 313
f 245 313 314
f 245 314 247
f 245 247 246
f 247 314 248
f 248 314 315
f 248 315 316
f 248 316 249
f 249 316 317
f 249 317 250
f 250 317 318
f 250 318 319
f 250 319 251
f 251 319 252
f 252 319 255
f 252 255 253
f 253 255 254
f 256 320 321
f 256 321 322
f 256 322 323
f 256 323 286
f 256 286 257
f 256 279 278
f 256 278 324
f 256 324 325
f 256 325 326
f 256 326 320
f 257 259 258
f 257 286 259
f 261 327 262
f 262 327 328
f 262 328 263
f 263 328 329
f 263 329 330
f 263 330 331
f 263 331 264
f 264 331 265
f 265 331 332
f 265 332 333
f 265 333 334
f 265 334 335
f 265 335 266
f 266 335 267
f 267 335 268
f 268 336 270
f 268 335 337
f 268 337 336
f 269 270 271
f 270 336 338
f 270 338 271
f 271 339 274
f 271 274 272
f 271 338 340
f 271 340 339
f 272 274 273
f 274 339 341
f 274 341 342
f 274 342 324
f 274 324 275
f 275 324 276
f 276 324 277
f 277 324 278
f 280 343 344
f 280 344 345
f 280 345 281
f 280 282 346
f 280 346 343
f 281 345 347
f 281 347 348
f 281 348 284
f 282 283 349
f 282 349 346
f 283 285 350
f 283 350 349
f 284 348 347
f 284 347 351
f 284 351 352
f 284 352 353
f 284 353 308
f 284 308 310
f 284 310 293
f 284 293 289
f 285 288 354
f 285 354 355
f 285 355 356
f 285 356 350
f 286 288 287
f 286 323 357
f 286 357 288
f 288 358 354
f 288 357 323
f 288 323 359
f 288 359 360
f 288 360 358
f 289 293 292
f 290 293 310
f 290 310 291
f 294 309 361
f 294 361 295
f 295 362 296
f 295 361 362
f 296 362 363
f 296 363 364
f 296 364 365
f 296 365 366
f 296 366 306
f 296 306 305
f 297 367 298
f 297 307 368
f 297 368 367
f 298 367 299
f 299 369 370
f 299 370 371
f 299 371 372
f 299 372 373
f 299 373 300
f 299 367 374
f 299 374 369
f 300 373 301
f 301 373 302
f 302 375 376
f 302 376 377
f 302 377 378
f 302 378 311
f 302 311 304
f 302 304 303
f 302 373 375
f 306 366 379
f 306 379 307
f 307 374 368
f 307 379 380
f 307 380 381
f 307 381 382
f 307 382 383
f 307 383 374
f 308 384 385
f 308 385 309
f 308 353 386
f 308 386 387
f 308 387 384
f 309 385 384
f 309 384 388
f 309 388 361
f 311 378 312
f 312 378 313
f 313 378 389
f 313 389 390
f 313 390 391
f 313 391 314
f 314 391 392
f 314 392 315
f 315 392 317
f 315 317 393
f 315 393 316
f 316 393 317
f 317 392 318
f 318 392 319
f 320 394 321
f 320 326 395
f 320 395 394
f 321 394 396
f 321 396 397
f 321 397 322
f 322 397 359
f 322 359 323
f 324 342 398
f 324 398 399
f 324 399 400
f 324 400 325
f 325 400 401
f 325 401 402
f 325 402 326
f 326 402 395
f 328 403 329
f 329 403 330
f 330 403 331
f 331 403 404
f 331 404 405
f 331 405 332
f 332 405 406
f 332 406 407
f 332 407 333
f 333 407 408
f 333 408 334
f 334 408 409
f 334 409 410
f 334 410 335
f 335 410 411
f 335 411 337
f 336 337 412
f 336 412 338
f 337 411 413
f 337 413 412
f 338 412 414
f 338 414 340
f 339 340 415
f 339 415 341
f 340 414 416
f 340 416 415
f 341 415 417
f 341 417 418
f 341 418 342
f 342 418 398
f 343 419 420
f 343 420 344
f 343 346 419
f 344 421 422
f 344 422 345
f 344 420 421
f 345 422 423
f 345 423 424
f 345 424 347
f 346 349 425
f 346 425 426
f 346 426 419
f 347 424 353
f 347 353 352
f 347 352 351
f 349 350 427
f 349 427 425
f 350 356 428
f 350 428 427
f 353 424 429
f 353 429 386
f 354 358 355
f 355 358 360
f 355 360 359
f 355 359 430
f 355 430 431
f 355 431 432
f 355 432 433
f 355 433 356
f 356 433 428
f 359 397 430
f 361 388 434
f 361 434 435
f 361 435 363
f 361 363 362
f 363 435 436
f 363 436 437
f 363 437 364
f 364 437 365
f 365 437 438
f 365 438 439
f 365 439 440
f 365 440 366
f 366 440 379
f 367 368 374
f 369 374 441
f 369 441 442
f 369 442 370
f 370 442 443
f 370 443 444
f 370 444 371
f 371 444 445
f 371 445 446
f 371 446 447
f 371 447 373
f 371 373 372
f 373 447 448
f 373 448 375
f 374 449 441
f 374 383 450
f 374 450 449
f 375 448 451
f 375 451 452
f 375 452 376
f 376 452 453
f 376 453 377
f 377 453 454
f 377 454 378
f 378 454 455
f 378 455 389
f 379 440 380
f 380 440 381
f 381 440 456
f 381 456 457
f 381 457 382
f 382 450 383
f 382 457 458
f 382 458 450
f 384 387 386
f 384 386 388
f 386 429 459
f 386 459 388
f 388 459 460
f 388 460 461
f 388 461 434
f 389 455 462
f 389 462 463
f 389 463 464
f 389 464 390
f 390 464 391
f 391 464 465
f 391 465 392
f 392 465 464
f 394 466 396
f 394 395 466
f 395 402 466
f 396 466 397
f 397 466 430
f 398 418 467
f 398 467 399
f 399 467 468
f 399 468 400
f 400 468 401
f 401 469 402
f 401 468 470
f 401 470 469
f 402 471 466
f 402 469 471
f 403 472 404
f 404 472 473
f 404 473 474
f 404 474 405
f 405 474 406
f 406 474 475
f 406 475 476
f 406 476 407
f 407 476 408
f 408 476 477
f 408 477 409
f 409 411 410
f 409 477 478
f 409 478 411
f 411 478 479
f 411 479 480
f 411 480 413
f 412 413 481
f 412 481 414
f 413 480 481
f 414 482 416
f 414 481 480
f 414 480 482
f 415 483 484
f 415 484 417
f 415 416 482
f 415 482 483
f 417 484 418
f 418 484 485
f 418 485 467
f 419 426 486
f 419 486 487
f 419 487 488
f 419 488 420
f 420 488 421
f 421 489 422
f 421 488 489
f 422 490 491
f 422 491 423
f 422 489 490
f 423 491 424
f 424 491 492
f 424 492 493
f 424 493 429
f 425 427 494
f 425 494 495
f 425 495 496
f 425 496 486
f 425 486 426
f 427 428 494
f 428 433 497
f 428 497 498
f 428 498 495
f 428 495 494
f 429 499 500
f 429 500 459
f 429 493 491
f 429 491 499
f 430 466 501
f 430 501 502
f 430 502 503
f 430 503 431
f 431 503 504
f 431 504 505
f 431 505 432
f 432 505 433
f 433 505 497
f 434 461 506
f 434 506 435
f 435 506 507
f 435 507 436
f 436 507 437
f 437 507 508
f 437 508 438
f 438 508 507
f 438 507 509
f 438 509 439
f 439 509 440
f 440 509 510
f 440 510 511
f 440 511 457
f 440 457 456
f 441 449 442
f 442 512 513
f 442 513 443
f 442 449 514
f 442 514 515
f 442 515 512
f 443 516 444
f 443 513 517
f 443 517 516
f 444 516 518
f 444 518 445
f 445 518 446
f 446 518 447
f 447 519 520
f 447 520 448
f 447 518 519
f 448 521 451
f 448 520 521
f 449 450 522
f 449 522 514
f 450 458 523
f 450 523 524
f 450 524 514
f 450 514 522
f 451 521 452
f 452 521 525
f 453 526 454
f 454 526 462
f 454 462 455
f 457 511 510
f 457 510 527
f 457 527 528
f 457 528 529
f 457 529 458
f 458 529 530
f 458 530 523
f 459 500 531
f 459 531 461
f 459 461 460
f 461 531 506
f 462 526 463
f 466 471 532
f 466 532 533
f 466 533 501
f 467 534 468
f 467 485 534
f 468 534 470
f 469 535 536
f 469 536 471
f 469 470 537
f 469 537 535
f 470 534 537
f 471 536 533
f 471 533 532
f 472 538 539
f 472 539 473
f 473 539 540
f 473 540 474
f 474 540 541
f 474 541 542
f 474 542 475
f 475 542 476
f 476 542 543
f 476 543 544
f 476 544 545
f 476 545 477
f 477 546 478
f 477 545 547
f 477 547 548
f 477 548 549
f 477 549 550
f 477 550 546
f 478 546 479
f 479 546 480
f 480 551 552
f 480 552 482
f 480 546 553
f 480 553 554
f 480 554 555
f 480 555 551
f 482 552 556
f 482 556 483
f 483 556 557
f 483 557 558
f 483 558 484
f 484 558 485
f 485 559 560
f 485 560 534
f 485 558 561
f 485 561 559
f 486 496 562
f 486 562 487
f 487 562 563
f 487 563 564
f 487 564 565
f 487 565 489
f 487 489 488
f 489 565 566
f 489 566 490
f 490 566 491
f 491 566 567
f 491 567 568
f 491 568 569
f 491 569 499
f 491 493 492
f 495 498 570
f 495 570 571
f 495 571 496
f 496 571 562
f 497 505 498
f 498 572 570
f 498 505 573
f 498 573 574
f 498 574 572
f 499 569 575
f 499 575 576
f 499 576 577
f 499 577 500
f 500 577 578
f 500 578 531
f 501 533 502
f 502 579 503
f 502 533 580
f 502 580 579
f 503 579 581
f 503 581 504
f 504 581 505
f 505 581 573
f 506 531 582
f 506 582 583
f 506 583 507
f 507 584 510
f 507 510 509
f 507 583 584
f 510 584 585
f 510 585 586
f 510 586 587
f 510 587 588
f 510 588 589
f 510 589 590
f 510 590 528
f 510 528 527
f 512 591 513
f 512 515 591
f 513 591 517
f 514 592 515
f 514 524 593
f 514 593 594
f 514 594 595
f 514 595 592
f 515 592 596
f 515 596 591
f 516 597 598
f 516 598 518
f 516 517 597
f 517 591 599
f 517 599 600
f 517 600 597
f 518 598 597
f 518 597 601
f 518 601 602
f 518 602 519
f 519 602 520
f 520 602 521
f 521 602 525
f 523 594 593
f 523 593 524
f 523 530 603
f 523 603 604
f 523 604 605
f 523 605 594
f 528 603 530
f 528 530 529
f 528 590 606
f 528 606 607
f 528 607 608
f 528 608 603
f 531 578 609
f 531 609 582
f 533 536 610
f 533 610 611
f 533 611 580
f 534 560 537
f 535 612 536
f 535 537 612
f 536 612 613
f 536 613 614
f 536 614 610
f 537 615 612
f 537 560 615
f 538 616 539
f 539 616 617
f 539 617 540
f 540 617 618
f 540 618 541
f 541 543 542
f 541 618 545
f 541 545 543
f 543 545 544
f 545 618 619
f 545 619 620
f 545 620 621
f 545 621 622
f 545 622 547
f 546 554 553
f 546 550 623
f 546 623 624
f 546 624 554
f 547 625 548
f 547 622 625
f 548 625 622
f 548 622 549
f 549 622 626
f 549 626 550
f 550 626 627
f 550 627 623
f 551 555 628
f 551 628 629
f 551 629 556
f 551 556 552
f 554 624 630
f 554 630 555
f 555 631 632
f 555 632 633
f 555 633 634
f 555 634 635
f 555 635 636
f 555 636 629
f 555 629 628
f 555 630 631
f 556 629 637
f 556 637 557
f 557 637 558
f 558 637 638
f 558 638 639
f 558 639 559
f 558 559 561
f 559 640 641
f 559 641 642
f 559 642 643
f 559 643 560
f 559 639 640
f 560 643 644
f 560 644 645
f 560 645 615
f 562 571 646
f 562 646 647
f 562 647 563
f 563 647 648
f 563 648 649
f 563 649 650
f 563 650 564
f 564 650 651
f 564 651 565
f 565 651 652
f 565 652 566
f 566 652 653
f 566 653 567
f 567 653 654
f 567 654 655
f 567 655 575
f 567 575 568
f 568 575 569
f 570 572 656
f 570 656 657
f 570 657 646
f 570 646 571
f 572 574 658
f 572 658 659
f 572 659 656
f 573 581 660
f 573 660 574
f 574 660 661
f 574 661 658
f 575 655 662
f 575 662 576
f 576 662 663
f 576 663 577
f 577 663 664
f 577 664 578
f 578 664 665
f 578 665 609
f 579 666 581
f 579 580 667
f 579 667 668
f 579 668 669
f 579 669 666
f 580 611 667
f 581 666 669
f 581 669 670
f 581 670 660
f 582 609 583
f 583 671 584
f 583 609 672
f 583 672 671
f 584 673 585
f 584 671 674
f 584 674 675
f 584 675 673
f 585 673 675
f 585 675 676
f 585 676 586
f 586 676 587
f 587 676 588
f 588 676 677
f 588 677 678
f 588 678 679
f 588 679 590
f 588 590 589
f 590 679 680
f 590 680 681
f 590 681 682
f 590 682 607
f 590 607 606
f 591 683 599
f 591 596 684
f 591 684 683
f 592 595 685
f 592 685 686
f 592 686 596
f 594 605 687
f 594 687 688
f 594 688 689
f 594 689 595
f 595 689 685
f 596 686 684
f 597 600 690
f 597 690 602
f 597 602 601
f 599 683 691
f 603 608 692
f 603 692 693
f 603 693 604
f 604 687 605
f 604 693 694
f 604 694 687
f 607 693 692
f 607 692 608
f 607 682 695
f 607 695 696
f 607 696 697
f 607 697 698
f 607 698 693
f 609 665 672
f 610 614 611
f 611 614 699
f 611 699 667
f 612 615 645
f 612 645 700
f 612 700 614
f 612 614 613
f 614 700 701
f 614 701 699
f 616 702 617
f 617 702 618
f 618 702 619
f 619 702 620
f 620 703 704
f 620 704 621
f 621 704 705
f 621 705 622
f 622 705 626
f 623 706 624
f 623 627 706
f 624 632 631
f 624 631 630
f 624 706 627
f 624 627 707
f 624 707 708
f 624 708 633
f 624 633 632
f 626 705 709
f 626 709 627
f 627 709 710
f 627 710 708
f 627 708 707
f 629 636 638
f 629 638 637
f 633 635 634
f 633 708 711
f 633 711 712
f 633 712 713
f 633 713 714
f 633 714 635
f 635 714 715
f 635 715 716
f 635 716 636
f 636 716 638
f 638 716 717
f 638 717 718
f 638 718 719
f 638 719 640
f 638 640 639
f 640 719 718
f 640 718 641
f 641 718 720
f 641 720 721
f 641 721 722
f 641 722 723
f 641 723 642
f 642 723 644
f 642 644 643
f 644 724 701
f 644 701 700
f 644 700 645
f 644 723 724
f 646 657 647
f 647 657 648
f 648 657 725
f 648 725 649
f 649 725 726
f 649 726 650
f 650 727 651
f 650 726 727
f 651 728 652
f 651 727 729
f 651 729 730
f 651 730 731
f 651 731 732
f 651 732 733
f 651 733 728
f 652 728 733
f 652 733 734
f 652 734 653
f 653 734 654
f 654 735 736
f 654 736 655
f 654 734 735
f 655 736 737
f 655 737 662
f 656 659 742
f 656 742 738
f 656 738 739
f 656 739 657
f 657 739 725
f 658 661 740
f 658 740 741
f 658 741 742
f 658 742 659
f 660 670 661
f 661 670 743
f 661 743 740
f 662 737 744
f 662 744 663
f 663 665 664
f 663 744 737
f 663 737 665
f 665 745 672
f 665 737 745
f 667 699 668
f 668 746 747
f 668 747 669
f 668 699 746
f 669 748 743
f 669 743 670
f 669 747 748
f 671 672 674
f 672 749 674
f 672 745 749
f 674 749 675
f 675 749 750
f 675 750 676
f 676 750 751
f 676 751 752
f 676 752 677
f 677 752 678
f 678 680 679
f 678 752 753
f 678 753 680
f 680 753 754
f 680 754 681
f 681 754 755
f 681 755 756
f 681 756 682
f 682 756 695
f 683 684 691
f 684 686 757
f 684 757 758
f 684 758 759
f 684 759 760
f 684 760 761
f 684 761 691
f 685 762 686
f 685 689 763
f 685 763 764
f 685 764 762
f 686 762 757
f 687 765 688
f 687 694 766
f 687 766 767
f 687 767 765
f 688 768 689
f 688 765 768
f 689 768 764
f 689 764 763
f 693 698 769
f 693 769 770
f 693 770 771
f 693 771 694
f 694 771 766
f 695 756 772
f 695 772 696
f 696 772 773
f 696 773 774
f 696 774 775
f 696 775 776
f 696 776 777
f 696 777 697
f 697 777 769
f 697 769 698
f 699 701 778
f 699 778 779
f 699 779 780
f 699 780 781
f 699 781 782
f 699 782 746
f 701 724 778
f 703 783 784
f 703 784 785
f 703 785 704
f 704 785 786
f 704 786 787
f 704 787 788
f 704 788 789
f 704 789 705
f 705 789 710
f 705 710 709
f 708 788 711
f 708 710 788
f 710 789 788
f 711 788 787
f 711 787 712
f 712 787 790
f 712 790 713
f 713 790 791
f 713 791 792
f 713 792 714
f 714 793 794
f 714 794 795
f 714 795 796
f 714 796 716
f 714 716 715
f 714 792 793
f 716 796 797
f 716 797 798
f 716 798 799
f 716 799 717
f 717 799 720
f 717 720 718
f 720 799 798
f 720 798 797
f 720 797 800
f 720 800 801
f 720 801 802
f 720 802 803
f 720 803 721
f 721 803 802
f 721 802 804
f 721 804 805
f 721 805 779
f 721 779 806
f 721 806 722
f 722 806 779
f 722 779 807
f 722 807 724
f 722 724 723
f 724 807 778
f 725 739 808
f 725 808 809
f 725 809 726
f 726 809 729
f 726 729 727
f 729 809 810
f 729 810 730
f 730 811 731
f 730 810 811
f 731 812 813
f 731 813 814
f 731 814 735
f 731 735 732
f 731 811 815
f 731 815 812
f 732 735 734
f 732 734 733
f 735 814 816
f 735 816 737
f 735 737 736
f 737 816 745
f 738 742 817
f 738 817 818
f 738 818 819
f 738 819 739
f 739 819 820
f 739 820 821
f 739 821 822
f 739 822 808
f 740 743 741
f 741 823 824
f 741 824 818
f 741 818 817
f 741 817 742
f 741 743 825
f 741 825 826
f 741 826 823
f 743 748 827
f 743 827 825
f 745 828 750
f 745 750 749
f 745 816 828
f 746 782 829
f 746 829 830
f 746 830 747
f 747 830 748
f 748 830 827
f 750 828 831
f 750 831 751
f 751 831 752
f 752 831 832
f 752 832 753
f 753 832 833
f 753 833 754
f 754 833 834
f 754 834 755
f 755 834 835
f 755 835 756
f 756 835 836
f 756 836 773
f 756 773 772
f 757 762 837
f 757 837 838
f 757 838 759
f 757 759 758
f 759 838 840
f 759 840 839
f 762 764 837
f 764 841 842
f 764 842 843
f 764 843 844
f 764 844 845
f 764 845 837
f 764 768 765
f 764 765 846
f 764 846 847
f 764 847 841
f 765 767 847
f 765 847 846
f 766 848 767
f 766 771 770
f 766 770 849
f 766 849 850
f 766 850 848
f 767 848 847
f 769 777 851
f 769 851 770
f 770 852 849
f 770 851 853
f 770 853 852
f 773 836 854
f 773 854 855
f 773 855 774
f 774 855 775
f 775 856 857
f 775 857 776
f 775 855 858
f 775 858 856
f 776 851 777
f 776 857 851
f 778 807 779
f 779 805 780
f 780 805 859
f 780 859 860
f 780 860 781
f 781 860 861
f 781 861 862
f 781 862 782
f 782 862 829
f 783 863 864
f 783 864 784
f 784 865 786
f 784 786 785
f 784 864 866
f 784 866 865
f 786 865 787
f 787 865 790
f 790 865 866
f 790 866 791
f 791 866 867
f 791 867 792
f 792 867 793
f 793 867 868
f 793 868 869
f 793 869 870
f 793 870 794
f 794 871 797
f 794 797 795
f 794 870 869
f 794 869 872
f 794 872 873
f 794 873 874
f 794 874 875
f 794 875 871
f 795 797 796
f 797 871 876
f 797 876 800
f 800 876 801
f 801 876 877
f 801 877 802
f 802 877 878
f 802 878 804
f 804 878 859
f 804 859 805
f 808 822 879
f 808 879 809
f 809 879 810
f 810 879 880
f 810 880 881
f 810 881 811
f 811 881 815
f 812 882 813
f 812 815 882
f 813 883 884
f 813 884 814
f 813 882 883
f 814 884 885
f 814 885 816
f 815 881 886
f 815 886 887
f 815 887 882
f 816 885 831
f 816 831 828
f 818 824 888
f 818 888 889
f 818 889 890
f 818 890 820
f 818 820 819
f 820 890 821
f 821 890 891
f 821 891 822
f 822 891 892
f 822 892 893
f 822 893 894
f 822 894 895
f 822 895 879
f 823 826 896
f 823 896 824
f 824 896 897
f 824 897 898
f 824 898 899
f 824 899 900
f 824 900 888
f 825 827 901
f 825 901 826
f 826 902 896
f 826 901 902
f 827 830 861
f 827 861 903
f 827 903 901
f 829 862 830
f 830 862 861
f 831 885 904
f 831 904 832
f 832 904 884
f 832 884 883
f 832 883 905
f 832 905 833
f 833 905 835
f 833 835 834
f 835 905 906
f 835 906 907
f 835 907 836
f 836 907 908
f 836 908 854
f 837 909 840
f 837 840 838
f 837 845 909
f 839 840 910
f 840 909 911
f 840 911 912
f 840 912 913
f 840 913 910
f 841 847 914
f 841 914 842
f 842 915 843
f 842 914 916
f 842 916 917
f 842 917 915
f 843 915 918
f 843 918 844
f 844 919 920
f 844 920 921
f 844 921 922
f 844 922 845
f 844 918 923
f 844 923 919
f 845 922 909
f 847 848 914
f 848 850 924
f 848 924 914
f 849 852 925
f 849 925 926
f 849 926 850
f 850 926 924
f 851 857 927
f 851 927 928
f 851 928 929
f 851 929 853
f 852 853 930
f 852 930 925
f 853 929 930
f 854 908 931
f 854 931 932
f 854 932 855
f 855 932 858
f 856 858 933
f 856 933 927
f 856 927 857
f 858 932 934
f 858 934 935
f 858 935 933
f 859 878 936
f 859 936 937
f 859 937 938
f 859 938 861
f 859 861 860
f 861 939 940
f 861 940 941
f 861 941 903
f 861 938 939
f 863 942 864
f 864 943 944
f 864 944 866
f 864 942 943
f 866 944 867
f 867 944 868
f 868 944 945
f 868 945 946
f 868 946 869
f 869 946 947
f 869 947 873
f 869 873 872
f 871 875 876
f 873 947 948
f 873 948 949
f 873 949 950
f 873 950 874
f 874 950 951
f 874 951 952
f 874 952 953
f 874 953 954
f 874 954 876
f 874 876 875
f 876 954 953
f 876 953 955
f 876 955 956
f 876 956 877
f 877 956 878
f 878 956 957
f 878 957 958
f 878 958 959
f 878 959 960
f 878 960 936
f 879 895 880
f 880 895 961
f 880 961 962
f 880 962 881
f 881 962 886
f 882 887 883
f 883 887 905
f 884 904 885
f 886 963 964
f 886 964 887
f 886 962 963
f 887 964 905
f 888 900 965
f 888 965 889
f 889 965 966
f 889 966 893
f 889 893 890
f 890 893 892
f 890 892 891
f 893 966 967
f 893 967 894
f 894 967 895
f 895 967 961
f 896 902 968
f 896 968 897
f 897 968 969
f 897 969 898
f 898 970 971
f 898 971 972
f 898 972 899
f 898 969 973
f 898 973 970
f 899 972 965
f 899 965 900
f 901 903 902
f 902 903 968
f 903 941 968
f 905 964 906
f 906 964 907
f 907 964 974
f 907 974 908
f 908 974 975
f 908 975 976
f 908 976 931
f 909 922 911
f 911 922 912
f 912 922 913
f 913 922 921
f 913 921 920
f 914 924 916
f 915 977 923
f 915 923 918
f 915 917 978
f 915 978 977
f 916 924 979
f 916 979 917
f 917 979 980
f 917 980 981
f 917 981 978
f 919 923 982
f 919 982 920
f 920 982 983
f 923 977 984
f 923 984 985
f 923 985 986
f 923 986 987
f 923 987 982
f 924 926 988
f 924 988 989
f 924 989 990
f 924 990 979
f 925 930 988
f 925 988 926
f 927 991 992
f 927 992 993
f 927 993 994
f 927 994 928
f 927 933 991
f 928 994 930
f 928 930 929
f 930 994 995
f 930 995 996
f 930 996 997
f 930 997 988
f 931 976 998
f 931 998 999
f 931 999 932
f 932 999 1000
f 932 1000 934
f 933 935 991
f 934 1000 1001
f 934 1001 1002
f 934 1002 935
f 935 1002 991
f 936 960 1003
f 936 1003 937
f 937 1003 1004
f 937 1004 938
f 938 1004 940
f 938 940 939
f 940 1004 1003
f 940 1003 1005
f 940 1005 1006
f 940 1006 1007
f 940 1007 1008
f 940 1008 941
f 941 1008 1009
f 941 1009 969
f 941 969 968
f 942 1010 943
f 943 1011 1012
f 943 1012 944
f 943 1010 1011
f 944 1012 945
f 945 1012 946
f 946 1013 1014
f 946 1014 947
f 946 1012 1013
f 947 1014 948
f 948 1015 1016
f 948 1016 949
f 948 1014 1015
f 949 1017 1018
f 949 1018 1019
f 949 1019 950
f 949 1016 1017
f 950 1019 951
f 951 953 952
f 951 1019 1020
f 951 1020 1021
f 951 1021 1022
f 951 1022 1023
f 951 1023 953
f 953 956 955
f 953 1023 1024
f 953 1024 1025
f 953 1025 957
f 953 957 956
f 957 1025 1026
f 957 1026 958
f 958 1026 959
f 959 1026 1027
f 959 1027 1005
f 959 1005 960
f 960 1005 1003
f 961 967 1028
f 961 1028 1029
f 961 1029 962
f 962 1029 1030
f 962 1030 963
f 963 975 974
f 963 974 964
f 963 1030 1031
f 963 1031 975
f 965 972 1032
f 965 1032 966
f 966 1032 1033
f 966 1033 1028
f 966 1028 967
f 969 1009 973
f 970 973 1034
f 970 1034 971
f 971 1034 1035
f 971 1035 1036
f 971 1036 1037
f 971 1037 972
f 972 1037 1032
f 973 1009 1038
f 973 1038 1034
f 975 1031 998
f 975 998 976
f 977 978 984
f 978 981 1039
f 978 1039 1040
f 978 1040 984
f 979 990 980
f 980 990 1041
f 980 1041 1042
f 980 1042 981
f 982 987 983
f 984 1040 1043
f 984 1043 985
f 988 1044 989
f 988 997 996
f 988 996 1045
f 988 1045 1046
f 988 1046 1044
f 989 1044 990
f 990 1044 1047
f 990 1047 1048
f 990 1048 1041
f 991 1002 1049
f 991 1049 1050
f 991 1050 992
f 992 1051 995
f 992 995 994
f 992 994 993
f 992 1050 1051
f 995 1051 1052
f 995 1052 1053
f 995 1053 1045
f 995 1045 996
f 998 1031 1054
f 998 1054 999
f 999 1054 1055
f 999 1055 1000
f 1000 1055 1056
f 1000 1056 1001
f 1001 1056 1057
f 1001 1057 1002
f 1002 1057 1058
f 1002 1058 1059
f 1002 1059 1049
f 1005 1027 1006
f 1006 1060 1061
f 1006 1061 1038
f 1006 1038 1009
f 1006 1009 1007
f 1006 1027 1060
f 1007 1009 1008
f 1010 1062 1011
f 1011 1062 1063
f 1011 1063 1012
f 1012 1063 1013
f 1013 1063 1064
f 1013 1064 1014
f 1014 1064 1015
f 1015 1065 1066
f 1015 1066 1016
f 1015 1064 1065
f 1016 1066 1067
f 1016 1067 1017
f 1017 1067 1068
f 1017 1068 1069
f 1017 1069 1018
f 1018 1069 1070
f 1018 1070 1019
f 1019 1070 1020
f 1020 1070 1071
f 1020 1071 1072
f 1020 1072 1021
f 1021 1072 1073
f 1021 1073 1022
f 1022 1073 1074
f 1022 1074 1024
f 1022 1024 1023
f 1024 1074 1075
f 1024 1075 1025
f 1025 1075 1076
f 1025 1076 1026
f 1026 1076 1077
f 1026 1077 1027
f 1027 1077 1060
f 1028 1033 1078
f 1028 1078 1079
f 1028 1079 1029
f 1029 1079 1031
f 1029 1031 1030
f 1031 1079 1054
f 1032 1037 1080
f 1032 1080 1033
f 1033 1080 1081
f 1033 1081 1055
f 1033 1055 1082
f 1033 1082 1078
f 1034 1038 1061
f 1034 1061 1035
f 1035 1061 1083
f 1035 1083 1084
f 1035 1084 1036
f 1036 1085 1086
f 1036 1086 1087
f 1036 1087 1037
f 1036 1084 1085
f 1037 1087 1080
f 1041 1048 1042
f 1044 1046 1047
f 1045 1088 1089
f 1045 1089 1090
f 1045 1090 1046
f 1045 1053 1091
f 1045 1091 1092
f 1045 1092 1088
f 1046 1090 1093
f 1046 1093 1047
f 1047 1093 1048
f 1049 1059 1094
f 1049 1094 1050
f 1050 1094 1095
f 1050 1095 1051
f 1051 1095 1052
f 1052 1095 1096
f 1052 1096 1097
f 1052 1097 1098
f 1052 1098 1091
f 1052 1091 1053
f 1054 1079 1082
f 1054 1082 1055
f 1055 1081 1099
f 1055 1099 1100
f 1055 1100 1056
f 1056 1100 1101
f 1056 1101 1057
f 1057 1101 1058
f 1058 1101 1102
f 1058 1102 1059
f 1059 1102 1103
f 1059 1103 1104
f 1059 1104 1094
f 1060 1105 1061
f 1060 1077 1105
f 1061 1105 1083
f 1062 1106 1107
f 1062 1107 1063
f 1063 1107 1108
f 1063 1108 1064
f 1064 1108 1065
f 1065 1109 1110
f 1065 1110 1066
f 1065 1108 1109
f 1066 1110 1111
f 1066 1111 1112
f 1066 1112 1067
f 1067 1112 1068
f 1068 1113 1114
f 1068 1114 1069
f 1068 1112 1115
f 1068 1115 1113
f 1069 1114 1071
f 1069 1071 1070
f 1071 1114 1116
f 1071 1116 1117
f 1071 1117 1072
f 1072 1117 1118
f 1072 1118 1119
f 1072 1119 1120
f 1072 1120 1073
f 1073 1120 1121
f 1073 1121 1074
f 1074 1121 1122
f 1074 1122 1075
f 1075 1122 1123
f 1075 1123 1124
f 1075 1124 1125
f 1075 1125 1126
f 1075 1126 1127
f 1075 1127 1128
f 1075 1128 1076
f 1076 1128 1077
f 1077 1128 1105
f 1078 1082 1079
f 1080 1087 1081
f 1081 1087 1099
f 1083 1105 1127
f 1083 1127 1129
f 1083 1129 1084
f 1084 1129 1130
f 1084 1130 1085
f 1085 1130 1131
f 1085 1131 1086
f 1086 1131 1132
f 1086 1132 1101
f 1086 1101 1100
f 1086 1100 1087
f 1087 1100 1099
f 1094 1104 1133
f 1094 1133 1095
f 1095 1133 1096
f 1096 1133 1097
f 1097 1133 1134
f 1097 1134 1135
f 1097 1135 1136
f 1097 1136 1137
f 1097 1137 1098
f 1101 1132 1102
f 1102 1132 1138
f 1102 1138 1103
f 1103 1138 1139
f 1103 1139 1140
f 1103 1140 1104
f 1104 1140 1141
f 1104 1141 1142
f 1104 1142 1133
f 1105 1128 1127
f 1106 1143 1108
f 1106 1108 1107
f 1108 1143 1109
f 1109 1144 1145
f 1109 1145 1110
f 1109 1143 1144
f 1110 1145 1146
f 1110 1146 1111
f 1111 1146 1147
f 1111 1147 1115
f 1111 1115 1112
f 1113 1115 1148
f 1113 1148 1149
f 1113 1149 1150
f 1113 1150 1114
f 1114 1150 1117
f 1114 1117 1116
f 1115 1147 1148
f 1117 1150 1151
f 1117 1151 1118
f 1118 1151 1152
f 1118 1152 1119
f 1119 1153 1121
f 1119 1121 1120
f 1119 1152 1154
f 1119 1154 1153
f 1121 1153 1124
f 1121 1124 1123
f 1121 1123 1122
f 1124 1153 1125
f 1125 1155 1156
f 1125 1156 1126
f 1125 1153 1157
f 1125 1157 1158
f 1125 1158 1159
f 1125 1159 1138
f 1125 1138 1160
f 1125 1160 1155
f 1126 1156 1129
f 1126 1129 1127
f 1129 1156 1130
f 1130 1156 1155
f 1130 1155 1160
f 1130 1160 1131
f 1131 1160 1138
f 1131 1138 1132
f 1133 1142 1134
f 1134 1142 1161
f 1134 1161 1135
f 1135 1161 1136
f 1136 1161 1162
f 1138 1159 1139
f 1139 1159 1140
f 1140 1159 1158
f 1140 1158 1163
f 1140 1163 1141
f 1141 1164 1142
f 1141 1163 1165
f 1141 1165 1164
f 1142 1164 1161
f 1144 1166 1145
f 1145 1166 1167
f 1145 1167 1146
f 1146 1168 1169
f 1146 1169 1170
f 1146 1170 1147
f 1146 1167 1168
f 1147 1170 1171
f 1147 1171 1172
f 1147 1172 1148
f 1148 1172 1173
f 1148 1173 1149
f 1149 1173 1174
f 1149 1174 1150
f 1150 1174 1151
f 1151 1174 1175
f 1151 1175 1176
f 1151 1176 1152
f 1152 1176 1177
f 1152 1177 1154
f 1153 1154 1157
f 1154 1177 1163
f 1154 1163 1158
f 1154 1158 1157
f 1161 1164 1165
f 1161 1165 1178
f 1161 1178 1162
f 1163 1177 1165
f 1165 1177 1179
f 1165 1179 1180
f 1165 1180 1178
f 1171 1181 1172
f 1172 1181 1173
f 1175 1182 1176
f 1176 1182 1177
f 1177 1182 1179

