# https://github.com/mikedh/trimesh
v 0.01275218 0.01639534 0.00002612
v 0.01415922 0.01639534 0.00020179
v 0.01417633 0.01497145 0.00020462
v 0.01417633 0.01356457 0.00020745
v 0.01417633 0.01215769 0.00021312
v 0.01276929 0.01356457 0.00005162
v 0.01136225 0.01637590 0.00003745
v 0.01134514 0.01639534 0.00003745
v 0.01418061 0.01639534 0.00020462
v 0.01489482 0.01497145 0.00036612
v 0.01488627 0.01215769 0.00037178
v 0.01470237 0.00372128 0.00039445
v 0.01461683 0.00231440 0.00039728
v 0.01414639 0.00934394 0.00024145
v 0.01488199 0.01135584 0.00037462
v 0.01486916 0.01041793 0.00037745
v 0.01484778 0.00934394 0.00038028
v 0.01276929 0.01215769 0.00007145
v 0.00152151 0.01637590 0.00013662
v 0.00150013 0.01639534 0.00013662
v 0.00292428 0.01637590 0.00012245
v 0.01489482 0.01639534 0.00036612
v 0.01558337 0.00231440 0.00064095
v 0.01558337 -0.00612201 0.00068628
v 0.01558337 -0.00752889 0.00070045
v 0.01558337 -0.00842307 0.00071178
v 0.01417633 -0.00752889 0.00051062
v 0.01417633 -0.00471513 0.00046245
v 0.01507444 -0.00842307 0.00064095
v 0.01400098 0.00372128 0.00031512
v 0.01357331 -0.00151989 0.00036612
v 0.01276929 0.01075081 0.00009979
v 0.00152151 0.01215769 0.00022729
v 0.00011447 0.01215769 0.00024995
v 0.00009309 0.01639534 0.00017062
v 0.01558337 0.00372128 0.00064095
v 0.01558337 0.01639534 0.00077978
v 0.01560048 0.01497145 0.00075428
v 0.01694337 0.00231440 0.00132094
v 0.01699041 -0.00049692 0.00130960
v 0.01699041 -0.00752889 0.00124444
v 0.01699041 -0.00842307 0.00124160
v 0.01647721 -0.00842307 0.00104327
v 0.01417633 -0.00842307 0.00052762
v 0.01329960 -0.00151989 0.00036612
v 0.01276929 -0.00842307 0.00054745
v -0.01675719 -0.00471513 0.00118777
v -0.01816423 0.01639534 0.00067778
v 0.01559620 0.01639534 0.00078828
v 0.01687066 0.00512573 0.00133510
v 0.01690488 0.00372128 0.00132377
v 0.01769607 0.00033894 0.00177710
v 0.01779871 -0.00752889 0.00169493
v 0.01781154 -0.00842307 0.00168643
v 0.01751645 -0.00842307 0.00152210
v 0.01366740 -0.00842307 0.00053328
v -0.01727040 -0.00842307 0.00132660
v -0.01816423 -0.00752889 0.00131244
v -0.01816423 -0.00612201 0.00126710
v -0.01816423 -0.00471513 0.00123027
v -0.01957128 -0.00471513 0.00137477
v -0.01957128 0.01637590 0.00083078
v -0.01957128 0.01639534 0.00083078
v 0.01657985 0.01639534 0.00149377
v 0.01662261 0.01497145 0.00145694
v 0.01665683 0.01356457 0.00143710
v 0.01676802 0.00934394 0.00138610
v 0.01767469 0.00127686 0.00179693
v 0.01806387 0.00084921 0.00235226
v 0.01883796 -0.00842307 0.00299825
v 0.01846588 -0.00842307 0.00248259
v 0.01823494 -0.00842307 0.00219642
v -0.01816423 -0.00842307 0.00135210
v -0.01957128 -0.00842307 0.00149377
v -0.01957128 -0.00752889 0.00145977
v -0.02053354 -0.00842307 0.00168643
v -0.02057203 -0.00752889 0.00167227
v -0.02068322 -0.00471513 0.00163260
v -0.02073882 -0.00331068 0.00161560
v -0.02097832 0.00653261 0.00145694
v -0.02097832 0.01497145 0.00129544
v -0.02097832 0.01637590 0.00127277
v -0.02097832 0.01639534 0.00127277
v 0.01721708 0.01639534 0.00248259
v 0.01739670 0.01215769 0.00226159
v 0.01743947 0.01075081 0.00216809
v 0.01747368 0.00934394 0.00209443
v 0.01753783 0.00653261 0.00197260
v 0.01757205 0.00512573 0.00191876
v 0.01761054 0.00372128 0.00187060
v 0.01764903 0.00231440 0.00182810
v 0.01811519 0.00231440 0.00253075
v 0.01820072 -0.00049692 0.00248259
v 0.01905179 -0.00842307 0.00332691
v -0.02123492 -0.00842307 0.00196126
v -0.02133328 -0.00612201 0.00192443
v -0.02138888 -0.00471513 0.00190176
v -0.02144020 -0.00331068 0.00187910
v -0.02170964 0.00512573 0.00176010
v -0.02173530 0.00653261 0.00174027
v -0.02182511 0.01497145 0.00167227
v -0.02099115 0.01639534 0.00127844
v 0.01736249 0.01356457 0.00237492
v 0.01762764 0.01639534 0.00357058
v 0.01766613 0.01537723 0.00332691
v 0.01770890 0.01443931 0.00315408
v 0.01774739 0.01356457 0.00307758
v 0.01780299 0.01215769 0.00296708
v 0.01785003 0.01075081 0.00287358
v 0.01789708 0.00934394 0.00279709
v 0.01794412 0.00793949 0.00273475
v 0.01803393 0.00512573 0.00262142
v 0.01807670 0.00372128 0.00257325
v 0.01900903 -0.00612201 0.00349408
v 0.01926990 -0.00842307 0.00403240
v -0.02127341 -0.00752889 0.00194710
v -0.02233831 -0.00842307 0.00266392
v -0.02168825 0.00428015 0.00177427
v -0.02238536 -0.00331068 0.00254209
v -0.02238536 -0.00190380 0.00249959
v -0.02238536 -0.00049692 0.00245992
v -0.02315945 -0.00049692 0.00310025
v -0.02317228 0.00090996 0.00308042
v -0.02243668 0.00653261 0.00234376
v -0.02318510 0.00231440 0.00306625
v -0.02319793 0.00512573 0.00305208
v -0.02252649 0.01497145 0.00233809
v -0.02183794 0.01639534 0.00167793
v -0.02182511 0.01637590 0.00166660
v -0.02182511 0.01639534 0.00166660
v 0.01774739 0.01639534 0.00426473
v 0.01775167 0.01637590 0.00426757
v 0.01838890 0.01215769 0.00529605
v 0.01810236 0.01215769 0.00389074
v 0.01821355 0.01075081 0.00389074
v 0.01855569 0.00512573 0.00389074
v 0.01863695 0.00372128 0.00389074
v 0.01895770 -0.00331068 0.00370941
v 0.01898336 -0.00471513 0.00359891
v 0.01924852 -0.00752889 0.00409473
v 0.01960349 -0.00842307 0.00529605
v -0.02303970 -0.00842307 0.00325325
v -0.02307391 -0.00644275 0.00320508
v -0.02309102 -0.00550483 0.00318525
v -0.02314234 -0.00190380 0.00312292
v -0.02336045 -0.00603453 0.00376041
v -0.02344598 -0.00471513 0.00389074
v -0.02347165 -0.00331068 0.00389074
v -0.02349730 -0.00190380 0.00389074
v -0.02354007 0.00090996 0.00389074
v -0.02355290 0.00231440 0.00389074
v -0.02320221 0.00653261 0.00304925
v -0.02253932 0.01639534 0.00234659
v -0.02253077 0.01637590 0.00233809
v -0.02253077 0.01639534 0.00233809
v 0.01774739 0.01639534 0.00496172
v 0.01775167 0.01637590 0.00497305
v 0.01819217 0.01356457 0.00529605
v 0.01817079 0.01356457 0.00670420
v 0.01912450 0.00201796 0.00607238
v 0.01849582 0.01075081 0.00529605
v 0.01892349 0.00372128 0.00529605
v 0.01903041 0.00090996 0.00498155
v 0.01906890 -0.00049692 0.00476623
v 0.01912022 -0.00227071 0.00451123
v 0.01895770 -0.00184306 0.00398140
v 0.01914588 -0.00331068 0.00441206
v 0.01957783 -0.00842307 0.00619138
v 0.01955644 -0.00752889 0.00529605
v 0.01912450 0.00201796 0.00586271
v -0.02305680 -0.00752889 0.00323341
v -0.02340322 -0.00842307 0.00395874
v -0.02341177 -0.00752889 0.00393607
v -0.02389932 -0.00612201 0.00529605
v -0.02356146 0.00512573 0.00389074
v -0.02395064 0.00090996 0.00529605
v -0.02395919 0.00231440 0.00529605
v -0.02396774 0.00372128 0.00529605
v -0.02319366 0.01639534 0.00304075
v -0.02319793 0.00934394 0.00304358
v -0.02319793 0.00793949 0.00304358
v -0.02356573 0.00653261 0.00389074
v 0.01750790 0.01639534 0.00668153
v 0.01780299 0.01460697 0.00783752
v 0.01788852 0.01484267 0.00670420
v 0.01787142 0.01356457 0.00802168
v 0.01827771 0.01215769 0.00670420
v 0.01956072 -0.00842307 0.00670420
v 0.01814940 -0.00049692 0.01092298
v 0.01834186 -0.00331068 0.01092298
v 0.01857708 -0.00752889 0.01092298
v 0.01901330 0.00241889 0.00535555
v 0.01922286 -0.00184306 0.00517989
v 0.01932550 -0.00331068 0.00529605
v 0.01940248 -0.00471513 0.00529605
v -0.02385655 -0.00842307 0.00529605
v -0.02387366 -0.00752889 0.00529605
v -0.02405328 -0.00842307 0.00670420
v -0.02406183 -0.00752889 0.00670420
v -0.02407039 -0.00612201 0.00670420
v -0.02408749 0.00372128 0.00670420
v -0.02397630 0.00934394 0.00529605
v -0.02356146 0.00793949 0.00389074
v -0.02355718 0.00934394 0.00389074
v -0.02319793 0.01639534 0.00305208
v 0.01726840 0.01639534 0.00808968
v 0.01726412 0.01639534 0.00810952
v 0.01695192 0.01639534 0.00951483
v 0.01729406 0.01497145 0.00951483
v 0.01693482 0.01497145 0.01092298
v 0.01636601 0.01458996 0.01326612
v 0.01785431 -0.00049692 0.01212713
v 0.01672526 0.01356457 0.01232830
v 0.01695620 0.01075081 0.01232830
v 0.01706312 0.00934394 0.01232830
v 0.01770462 0.00314541 0.01166814
v 0.01862412 -0.00842307 0.01092298
v 0.01808525 -0.00471513 0.01232830
v 0.01825204 -0.00752889 0.01232830
v -0.02392925 -0.00842307 0.00810952
v -0.02407894 0.01075081 0.00670420
v -0.02392925 -0.00752889 0.00810952
v -0.02396774 0.01075081 0.00529605
v -0.02350586 0.01639534 0.00389074
v 0.01655846 0.01639534 0.01092298
v 0.01624626 0.01552788 0.01289495
v 0.01652425 0.01502248 0.01238779
v 0.01575016 0.01639534 0.01371378
v 0.01609230 0.01502248 0.01373361
v 0.01559620 0.01497145 0.01513893
v 0.01348350 0.01008504 0.02288516
v 0.01385985 0.00934394 0.02217117
v 0.01398388 0.00793949 0.02217117
v 0.01435595 0.00372128 0.02217117
v 0.01640450 0.01356457 0.01339078
v 0.01784576 -0.00612201 0.01346728
v 0.01829481 -0.00842307 0.01232830
v 0.01788425 -0.00752889 0.01359195
v 0.01802110 -0.00842307 0.01327462
v -0.02356573 -0.00842307 0.00951483
v -0.02400196 0.01215769 0.00670420
v -0.02371542 0.01639534 0.00529605
v -0.02387793 0.00231440 0.00810952
v -0.02383944 0.00934394 0.00810952
v -0.02382661 0.01075081 0.00810952
v -0.02379240 0.01215769 0.00810952
v -0.02356146 -0.00752889 0.00951483
v -0.02351014 0.01639534 0.00391057
v 0.01518991 0.01639534 0.01523243
v 0.01283344 0.01063175 0.02338099
v 0.01197810 0.01075081 0.02420264
v 0.01353910 0.00934394 0.02296449
v 0.01464677 0.01639534 0.01644224
v 0.01462111 0.01639534 0.01649891
v 0.01381709 0.01639534 0.01807139
v 0.01315419 0.01639534 0.01925854
v 0.01270941 0.01639534 0.01996403
v 0.01238438 0.01639534 0.02047686
v 0.01240577 0.01178350 0.02324499
v 0.01385985 0.00231440 0.02349715
v 0.01404803 -0.00049692 0.02357648
v 0.01445432 -0.00752889 0.02357648
v 0.01450564 -0.00842307 0.02357648
v 0.01767041 -0.00842307 0.01437394
v 0.01769179 -0.00842307 0.01431160
v 0.01787997 -0.00842307 0.01374778
v -0.02323215 -0.00842307 0.01074732
v -0.02303114 -0.00190380 0.01140464
v -0.02358712 0.01639534 0.00670420
v -0.02302687 -0.00049692 0.01139047
v -0.02345026 0.00934394 0.00951483
v -0.02339894 0.01215769 0.00951483
v -0.02362988 0.01356457 0.00810952
v -0.02312095 0.01314421 0.01033649
v -0.02327064 0.01359373 0.00959983
v 0.01127244 0.01075081 0.02466164
v 0.01200803 -0.00001824 0.02565896
v 0.01270514 0.00231440 0.02480897
v 0.01347067 0.00158059 0.02427347
v 0.01096451 0.01215769 0.02448880
v 0.01353055 0.00064267 0.02434431
v 0.01182841 0.01639534 0.02117101
v 0.01111847 0.01639534 0.02192184
v 0.01071219 0.01290365 0.02432731
v 0.01385130 0.00102902 0.02371248
v 0.01358187 -0.00049692 0.02440947
v 0.01384275 -0.00842307 0.02483163
v 0.01407369 -0.00842307 0.02439531
v -0.02303970 -0.00842307 0.01144997
v -0.02294561 -0.00842307 0.01177297
v -0.02278309 -0.00842307 0.01232830
v -0.02274033 -0.00049692 0.01232830
v -0.02327492 0.01639534 0.00803585
v -0.02301831 0.00090996 0.01137064
v -0.02300976 0.00231440 0.01133947
v -0.02297127 0.00793949 0.01121481
v -0.02295844 0.00934394 0.01118648
v -0.02313806 0.01215769 0.01039315
v -0.02292850 0.01215769 0.01109581
v -0.02255215 0.01215769 0.01232830
v -0.02247089 0.01356457 0.01232830
v -0.02291995 0.01359373 0.01085215
v -0.02306108 0.01408213 0.01012682
v 0.01172149 0.00231440 0.02551162
v 0.00995948 0.01215769 0.02513480
v 0.00912980 0.01215769 0.02563062
v 0.01101583 0.00231440 0.02584312
v 0.01210640 -0.00095616 0.02571279
v 0.01265382 -0.00048963 0.02521129
v 0.01290614 0.00102902 0.02481180
v 0.01317985 -0.00612201 0.02540679
v 0.01326967 -0.00752889 0.02548612
v 0.01332099 -0.00842307 0.02553712
v 0.01034439 0.01639534 0.02261599
v 0.00963018 0.01639534 0.02312599
v 0.00818892 0.01309804 0.02580912
v 0.01351771 -0.00842307 0.02528213
v -0.02233831 -0.00842307 0.01373361
v -0.02263768 0.00793949 0.01232830
v -0.02226989 -0.00049692 0.01373361
v -0.02215014 0.01075081 0.01373361
v -0.02284297 0.01639534 0.00953466
v -0.02258636 0.01075081 0.01232830
v -0.02209026 0.01215769 0.01373361
v -0.02168398 0.01427166 0.01444193
v -0.02242813 0.01639534 0.01092298
v 0.00842842 0.01215769 0.02590262
v 0.00995948 0.00231440 0.02625395
v 0.01136225 -0.00471513 0.02637861
v 0.01146916 -0.00048963 0.02593379
v 0.01247847 -0.00612201 0.02596495
v 0.01136225 -0.00612201 0.02650611
v 0.01136225 -0.00842307 0.02670161
v 0.01261960 -0.00842307 0.02606978
v 0.01256828 -0.00752889 0.02603578
v 0.00855244 0.01639534 0.02375215
v 0.00714540 0.01215769 0.02637011
v 0.00765005 0.01639534 0.02419697
v 0.00660226 0.01435427 0.02577229
v 0.00710263 0.01356457 0.02598479
v 0.00573836 0.01356457 0.02647495
v 0.00398918 0.01310047 0.02718327
v -0.02217580 -0.00842307 0.01419827
v -0.02188498 -0.00612201 0.01498310
v -0.02185504 -0.00049692 0.01489810
v -0.02179945 0.01075081 0.01471393
v -0.02176096 0.01215769 0.01462327
v -0.02142737 0.01356457 0.01519559
v -0.02082436 0.01356457 0.01654424
v -0.02046511 0.01639534 0.01624391
v -0.02095266 0.01639534 0.01513893
v 0.00251799 0.00653261 0.02863392
v 0.01180275 -0.00842307 0.02648628
v 0.01080200 -0.00842307 0.02689144
v 0.00573836 0.01215769 0.02682911
v 0.00694012 0.01639534 0.02446614
v 0.00575547 0.01639534 0.02485997
v 0.00573836 0.01639534 0.02486563
v 0.00440830 0.01356700 0.02686311
v 0.00493434 0.01215769 0.02706710
v 0.00292428 0.01407484 0.02699061
v 0.00292428 0.01337018 0.02731360
v 0.00152151 0.01215769 0.02781510
v 0.00235547 0.00739763 0.02856592
v -0.02188926 -0.00842307 0.01501426
v -0.02163693 -0.00842307 0.01571975
v -0.01887417 0.00343456 0.02288516
v -0.02147014 0.01215769 0.01532592
v -0.01824122 0.00793949 0.02357648
v -0.02012725 0.01639534 0.01694657
v -0.01802738 0.00934394 0.02357648
v 0.00152151 0.00653261 0.02887475
v 0.00463497 -0.00842307 0.02897108
v 0.00435270 0.01639534 0.02523679
v 0.00210315 0.01423764 0.02707560
v 0.00158994 0.01368849 0.02740993
v 0.00011447 0.01356457 0.02767060
v 0.00011447 0.01215769 0.02803893
v -0.01836952 -0.00842307 0.02357648
v -0.01886989 0.00155872 0.02287666
v -0.01887417 0.00231440 0.02288516
v -0.01779216 -0.00612201 0.02483447
v -0.01847643 0.00231440 0.02358782
v -0.01853203 0.00383062 0.02344332
v -0.01840801 0.00512573 0.02357648
v -0.01834386 0.00653261 0.02357648
v -0.01766813 0.00653261 0.02448030
v -0.01760826 0.00793949 0.02441797
v -0.01753556 0.00934394 0.02434431
v -0.01747996 0.01008990 0.02429331
v -0.01960549 0.01639534 0.01796372
v 0.00085862 0.00653261 0.02897108
v -0.00836627 -0.00842307 0.02897108
v 0.00293283 0.01639534 0.02555412
v 0.00151724 0.01639534 0.02582895
v 0.00012730 0.01639534 0.02604995
v -0.00129257 0.01639534 0.02623128
v 0.00116654 0.01432268 0.02714077
v 0.00292000 0.01639534 0.02555696
v -0.00129257 0.01356457 0.02777543
v -0.00129257 0.01215769 0.02819192
v 0.00046516 0.00680232 0.02897108
v -0.01815140 -0.00842307 0.02403831
v -0.01838662 -0.00752889 0.02357648
v -0.01777933 -0.00752889 0.02484297
v -0.01736449 -0.00752889 0.02554846
v -0.01780071 -0.00049692 0.02470697
v -0.01779216 0.00090996 0.02467580
v -0.01777078 0.00231440 0.02463897
v -0.01774512 0.00372128 0.02459364
v -0.01771518 0.00512573 0.02453980
v -0.01705229 0.00231440 0.02534163
v -0.01696675 0.00372128 0.02529913
v -0.01687266 0.00512573 0.02524246
v -0.01675719 0.00793949 0.02506680
v -0.01675719 0.00934394 0.02491947
v -0.01677858 0.01063418 0.02465880
v -0.01597883 0.01639534 0.02281433
v -0.01668021 0.01639534 0.02212017
v -0.01738159 0.01639534 0.02138634
v -0.01739015 0.01639534 0.02137501
v -0.01791618 0.01639534 0.02067236
v -0.01860901 0.01639534 0.01968353
v -0.01904952 0.01639534 0.01897804
v -0.01566663 0.01075081 0.02544646
v -0.00624501 0.00653261 0.02897108
v -0.00691218 0.00653261 0.02888325
v -0.00937130 0.00618757 0.02855742
v -0.01394739 -0.00842307 0.02755443
v -0.00269533 0.01639534 0.02630212
v -0.00269533 0.01356457 0.02780376
v -0.00269533 0.01215769 0.02825992
v -0.00129257 0.00752398 0.02897108
v 0.00009736 0.00696026 0.02897108
v -0.01777078 -0.00842307 0.02482880
v -0.01762109 -0.00842307 0.02508380
v -0.01734738 -0.00612201 0.02553712
v -0.01735593 -0.00842307 0.02553146
v -0.01665028 -0.00842307 0.02621712
v -0.01665883 -0.00752889 0.02619445
v -0.01731317 -0.00471513 0.02550596
v -0.01727040 -0.00331068 0.02547196
v -0.01717631 -0.00049692 0.02540962
v -0.01712071 0.00090996 0.02537846
v -0.01647493 -0.00049692 0.02599329
v -0.01641933 0.00090996 0.02594512
v -0.01635090 0.00231440 0.02588562
v -0.01626537 0.00372128 0.02582329
v -0.01609858 0.00614383 0.02571279
v -0.01602587 0.00708175 0.02567312
v -0.01594462 0.00793949 0.02563062
v -0.01580776 0.00934394 0.02555979
v -0.01481556 0.01164500 0.02576662
v -0.01527745 0.01639534 0.02333565
v -0.01496525 0.01075081 0.02583462
v -0.00548376 0.00690438 0.02897108
v -0.00410238 0.01215769 0.02824009
v -0.00550942 0.01215769 0.02810409
v -0.00691218 0.01215769 0.02791709
v -0.00838337 0.00660550 0.02864808
v -0.00889230 0.00712306 0.02847809
v -0.01057733 0.01294739 0.02713510
v -0.00979469 0.00660550 0.02838175
v -0.01499091 -0.00842307 0.02723710
v -0.00410238 0.01639534 0.02626812
v -0.00410238 0.01356457 0.02778110
v -0.00269533 0.00776454 0.02897108
v -0.01664172 -0.00612201 0.02615762
v -0.01569657 -0.00842307 0.02691978
v -0.01660751 -0.00471513 0.02611795
v -0.01656474 -0.00331068 0.02608112
v -0.01652197 -0.00190380 0.02603862
v -0.01563669 -0.00752889 0.02689711
v -0.01535015 -0.00049692 0.02657978
v -0.01535015 0.00090996 0.02648061
v -0.01535015 0.00231440 0.02638145
v -0.01535015 0.00372128 0.02626812
v -0.01394739 0.01075081 0.02625112
v -0.01254035 0.01215769 0.02656845
v -0.01396022 0.01213096 0.02599329
v -0.01350261 0.01305187 0.02584595
v -0.01413984 0.01639534 0.02404115
v -0.01526034 0.01639534 0.02334699
v -0.01113330 0.00653261 0.02787460
v -0.00482086 0.00721782 0.02897108
v -0.00550942 0.01356457 0.02767343
v -0.00410238 0.00752641 0.02897108
v -0.00289206 0.00774024 0.02897108
v -0.00831922 0.01334589 0.02737310
v -0.00972626 0.01311748 0.02723144
v -0.00831922 0.01215769 0.02767626
v -0.01111192 0.01639534 0.02516880
v -0.01113330 0.01639534 0.02516313
v -0.01254035 0.01639534 0.02472114
v -0.01343846 0.01639534 0.02436414
v -0.01493103 -0.00752889 0.02720877
v -0.01541430 -0.00471513 0.02682344
v -0.00548803 0.01639534 0.02615195
v -0.01535015 -0.00190380 0.02667045
v -0.01482412 -0.00612201 0.02716344
v -0.00689507 0.01639534 0.02597345
v -0.00686514 0.01365691 0.02743260
v -0.00807545 0.01639534 0.02578362
v -0.00972626 0.01639534 0.02546912
f 1 2 3
f 1 3 4
f 1 4 5
f 1 5 6
f 1 6 7
f 1 7 8
f 1 8 20
f 1 20 35
f 1 35 48
f 1 48 63
f 1 63 83
f 1 83 102
f 1 102 130
f 1 130 128
f 1 128 155
f 1 155 153
f 1 153 179
f 1 179 205
f 1 205 224
f 1 224 248
f 1 248 242
f 1 242 269
f 1 269 293
f 1 293 322
f 1 322 326
f 1 326 351
f 1 351 350
f 1 350 370
f 1 370 391
f 1 391 424
f 1 424 423
f 1 423 422
f 1 422 421
f 1 421 420
f 1 420 419
f 1 419 418
f 1 418 454
f 1 454 483
f 1 483 482
f 1 482 495
f 1 495 494
f 1 494 493
f 1 493 492
f 1 492 504
f 1 504 503
f 1 503 501
f 1 501 498
f 1 498 465
f 1 465 430
f 1 430 397
f 1 397 396
f 1 396 395
f 1 395 399
f 1 399 394
f 1 394 374
f 1 374 358
f 1 358 357
f 1 357 356
f 1 356 338
f 1 338 336
f 1 336 315
f 1 315 314
f 1 314 283
f 1 283 282
f 1 282 258
f 1 258 257
f 1 257 256
f 1 256 255
f 1 255 254
f 1 254 253
f 1 253 249
f 1 249 228
f 1 228 225
f 1 225 208
f 1 208 207
f 1 207 206
f 1 206 183
f 1 183 156
f 1 156 131
f 1 131 104
f 1 104 84
f 1 84 64
f 1 64 49
f 1 49 37
f 1 37 22
f 1 22 9
f 1 9 2
f 2 9 3
f 3 9 10
f 3 10 4
f 4 10 11
f 4 11 5
f 5 12 13
f 5 13 14
f 5 14 6
f 5 11 15
f 5 15 16
f 5 16 17
f 5 17 12
f 6 18 19
f 6 19 20
f 6 20 21
f 6 21 7
f 6 14 18
f 7 21 20
f 7 20 8
f 9 22 10
f 10 22 36
f 10 36 23
f 10 23 11
f 11 23 15
f 12 17 24
f 12 24 25
f 12 25 26
f 12 26 13
f 13 27 28
f 13 28 14
f 13 26 29
f 13 29 27
f 14 28 30
f 14 30 18
f 15 23 24
f 15 24 16
f 16 24 17
f 18 30 28
f 18 28 27
f 18 27 31
f 18 31 32
f 18 32 19
f 19 33 34
f 19 34 20
f 19 32 33
f 20 34 35
f 22 37 38
f 22 38 39
f 22 39 40
f 22 40 41
f 22 41 42
f 22 42 36
f 23 36 42
f 23 42 43
f 23 43 24
f 24 43 25
f 25 43 26
f 26 43 42
f 26 42 55
f 26 55 54
f 26 54 72
f 26 72 71
f 26 71 70
f 26 70 94
f 26 94 115
f 26 115 141
f 26 141 168
f 26 168 188
f 26 188 217
f 26 217 237
f 26 237 239
f 26 239 266
f 26 266 265
f 26 265 264
f 26 264 263
f 26 263 288
f 26 288 287
f 26 287 317
f 26 317 313
f 26 313 334
f 26 334 353
f 26 353 333
f 26 333 354
f 26 354 373
f 26 373 393
f 26 393 429
f 26 429 464
f 26 464 469
f 26 469 439
f 26 439 438
f 26 438 436
f 26 436 435
f 26 435 403
f 26 403 379
f 26 379 366
f 26 366 365
f 26 365 343
f 26 343 318
f 26 318 291
f 26 291 290
f 26 290 289
f 26 289 267
f 26 267 240
f 26 240 220
f 26 220 198
f 26 198 196
f 26 196 172
f 26 172 142
f 26 142 117
f 26 117 95
f 26 95 76
f 26 76 74
f 26 74 73
f 26 73 57
f 26 57 46
f 26 46 56
f 26 56 44
f 26 44 29
f 27 29 44
f 27 44 31
f 31 45 32
f 31 44 45
f 32 45 33
f 33 45 34
f 34 45 46
f 34 46 47
f 34 47 48
f 34 48 35
f 37 49 50
f 37 50 38
f 38 50 51
f 38 51 39
f 39 51 52
f 39 52 53
f 39 53 54
f 39 54 40
f 40 55 41
f 40 54 55
f 41 55 42
f 44 56 45
f 45 56 46
f 46 57 58
f 46 58 59
f 46 59 47
f 47 59 60
f 47 60 48
f 48 60 61
f 48 61 62
f 48 62 63
f 49 64 65
f 49 65 66
f 49 66 67
f 49 67 50
f 50 67 52
f 50 52 51
f 52 67 66
f 52 66 65
f 52 65 68
f 52 68 69
f 52 69 70
f 52 70 71
f 52 71 72
f 52 72 54
f 52 54 53
f 57 73 58
f 58 73 74
f 58 74 75
f 58 75 59
f 59 75 61
f 59 61 60
f 61 75 76
f 61 76 62
f 62 76 77
f 62 77 78
f 62 78 79
f 62 79 80
f 62 80 81
f 62 81 82
f 62 82 83
f 62 83 63
f 64 84 85
f 64 85 86
f 64 86 87
f 64 87 88
f 64 88 89
f 64 89 90
f 64 90 91
f 64 91 65
f 65 91 68
f 68 91 69
f 69 92 93
f 69 93 70
f 69 91 92
f 70 93 94
f 74 76 75
f 76 95 96
f 76 96 77
f 77 96 97
f 77 97 98
f 77 98 78
f 78 98 79
f 79 98 99
f 79 99 80
f 80 99 100
f 80 100 81
f 81 100 82
f 82 100 101
f 82 101 102
f 82 102 83
f 84 103 85
f 84 104 105
f 84 105 106
f 84 106 107
f 84 107 108
f 84 108 103
f 85 103 109
f 85 109 86
f 86 109 110
f 86 110 111
f 86 111 112
f 86 112 87
f 87 112 113
f 87 113 88
f 88 90 89
f 88 113 90
f 90 113 92
f 90 92 91
f 92 113 94
f 92 94 93
f 94 114 115
f 94 113 112
f 94 112 111
f 94 111 114
f 95 116 96
f 95 117 116
f 96 116 117
f 96 117 97
f 97 117 98
f 98 117 118
f 98 118 99
f 99 118 117
f 99 117 119
f 99 119 120
f 99 120 100
f 100 120 121
f 100 121 122
f 100 122 123
f 100 123 124
f 100 124 101
f 101 124 125
f 101 125 126
f 101 126 127
f 101 127 128
f 101 128 129
f 101 129 102
f 102 129 130
f 103 108 109
f 104 131 132
f 104 132 133
f 104 133 134
f 104 134 105
f 105 134 106
f 106 134 135
f 106 135 107
f 107 135 108
f 108 135 136
f 108 136 109
f 109 136 137
f 109 137 138
f 109 138 110
f 110 138 111
f 111 138 139
f 111 139 114
f 114 139 115
f 115 140 141
f 115 139 138
f 115 138 140
f 117 142 143
f 117 143 144
f 117 144 119
f 119 144 120
f 120 144 145
f 120 145 121
f 121 145 122
f 122 145 146
f 122 146 147
f 122 147 148
f 122 148 149
f 122 149 123
f 123 149 150
f 123 150 125
f 123 125 124
f 125 150 151
f 125 151 126
f 126 151 152
f 126 152 127
f 127 153 154
f 127 154 128
f 127 152 153
f 128 130 129
f 128 154 155
f 131 156 157
f 131 157 132
f 132 157 158
f 132 158 133
f 133 158 159
f 133 159 160
f 133 160 161
f 133 161 135
f 133 135 134
f 135 161 162
f 135 162 136
f 136 162 163
f 136 163 164
f 136 164 165
f 136 165 137
f 137 165 166
f 137 166 138
f 138 166 167
f 138 167 140
f 140 167 141
f 141 167 165
f 141 165 169
f 141 169 170
f 141 170 160
f 141 160 168
f 142 171 143
f 142 172 171
f 143 172 144
f 143 171 172
f 144 172 146
f 144 146 145
f 146 172 173
f 146 173 147
f 147 173 148
f 148 173 149
f 149 173 174
f 149 174 150
f 150 174 151
f 151 175 152
f 151 174 176
f 151 176 177
f 151 177 178
f 151 178 175
f 152 179 180
f 152 180 181
f 152 181 153
f 152 175 182
f 152 182 179
f 153 155 154
f 153 181 180
f 153 180 179
f 156 183 157
f 157 183 184
f 157 184 185
f 157 185 159
f 157 159 158
f 159 185 184
f 159 184 186
f 159 186 187
f 159 187 160
f 160 188 168
f 160 170 161
f 160 187 186
f 160 186 189
f 160 189 190
f 160 190 191
f 160 191 188
f 161 170 192
f 161 192 162
f 162 192 163
f 163 192 193
f 163 193 164
f 164 193 165
f 165 193 194
f 165 194 195
f 165 195 169
f 165 167 166
f 169 195 170
f 170 195 194
f 170 194 193
f 170 193 192
f 172 196 197
f 172 197 174
f 172 174 173
f 174 197 198
f 174 198 199
f 174 199 176
f 175 178 182
f 176 199 177
f 177 199 200
f 177 200 178
f 178 200 201
f 178 201 202
f 178 202 182
f 179 182 203
f 179 203 204
f 179 204 205
f 182 202 203
f 183 206 184
f 184 206 207
f 184 207 208
f 184 208 209
f 184 209 210
f 184 210 211
f 184 211 186
f 186 212 189
f 186 211 213
f 186 213 214
f 186 214 215
f 186 215 216
f 186 216 212
f 188 191 217
f 189 212 190
f 190 212 218
f 190 218 219
f 190 219 191
f 191 219 217
f 196 198 197
f 198 220 199
f 199 220 200
f 200 220 201
f 201 221 202
f 201 220 222
f 201 222 221
f 202 221 223
f 202 223 204
f 202 204 203
f 204 223 224
f 204 224 205
f 208 225 226
f 208 226 227
f 208 227 210
f 208 210 209
f 210 227 211
f 211 226 228
f 211 228 229
f 211 229 230
f 211 230 231
f 211 231 232
f 211 232 233
f 211 233 234
f 211 234 235
f 211 235 214
f 211 214 213
f 211 227 226
f 212 236 218
f 212 216 215
f 212 215 236
f 214 235 215
f 215 235 234
f 215 234 236
f 217 219 237
f 218 236 219
f 219 236 238
f 219 238 239
f 219 239 237
f 220 240 222
f 221 241 242
f 221 242 223
f 221 222 243
f 221 243 244
f 221 244 245
f 221 245 246
f 221 246 241
f 222 240 247
f 222 247 243
f 223 242 248
f 223 248 224
f 225 228 226
f 228 249 230
f 228 230 229
f 230 249 231
f 231 250 251
f 231 251 252
f 231 252 232
f 231 249 253
f 231 253 254
f 231 254 255
f 231 255 256
f 231 256 257
f 231 257 258
f 231 258 259
f 231 259 250
f 232 252 233
f 233 252 234
f 234 252 260
f 234 260 261
f 234 261 262
f 234 262 263
f 234 263 264
f 234 264 265
f 234 265 238
f 234 238 236
f 238 265 266
f 238 266 239
f 240 267 268
f 240 268 247
f 241 246 269
f 241 269 242
f 243 247 244
f 244 247 268
f 244 268 270
f 244 270 245
f 245 270 271
f 245 271 272
f 245 272 246
f 246 273 269
f 246 272 274
f 246 274 275
f 246 275 273
f 250 259 251
f 251 276 277
f 251 277 278
f 251 278 279
f 251 279 252
f 251 259 280
f 251 280 276
f 252 279 281
f 252 281 260
f 258 282 259
f 259 282 283
f 259 283 284
f 259 284 280
f 260 285 261
f 260 281 285
f 261 285 281
f 261 281 286
f 261 286 287
f 261 287 288
f 261 288 262
f 262 288 263
f 267 289 268
f 268 289 290
f 268 290 291
f 268 291 292
f 268 292 270
f 269 273 293
f 270 292 294
f 270 294 271
f 271 294 295
f 271 295 296
f 271 296 297
f 271 297 272
f 272 298 274
f 272 297 298
f 273 275 293
f 274 298 299
f 274 299 300
f 274 300 301
f 274 301 302
f 274 302 275
f 275 302 303
f 275 303 293
f 276 304 277
f 276 280 305
f 276 305 306
f 276 306 304
f 277 307 308
f 277 308 278
f 277 304 306
f 277 306 307
f 278 308 309
f 278 309 310
f 278 310 279
f 279 310 281
f 280 284 305
f 281 311 312
f 281 312 313
f 281 313 286
f 281 310 309
f 281 309 311
f 283 314 284
f 284 314 315
f 284 315 316
f 284 316 305
f 286 313 317
f 286 317 287
f 291 318 292
f 292 319 294
f 292 318 320
f 292 320 321
f 292 321 319
f 293 303 322
f 294 319 295
f 295 319 296
f 296 319 297
f 297 319 323
f 297 323 299
f 297 299 298
f 299 323 300
f 300 323 321
f 300 321 324
f 300 324 301
f 301 324 325
f 301 325 326
f 301 326 303
f 301 303 302
f 303 326 322
f 305 316 306
f 306 316 327
f 306 327 328
f 306 328 307
f 307 328 329
f 307 329 330
f 307 330 308
f 308 331 312
f 308 312 311
f 308 311 309
f 308 330 329
f 308 329 332
f 308 332 333
f 308 333 331
f 312 331 313
f 313 331 335
f 313 335 334
f 315 336 316
f 316 337 327
f 316 336 338
f 316 338 339
f 316 339 340
f 316 340 341
f 316 341 342
f 316 342 337
f 318 343 344
f 318 344 320
f 319 321 323
f 320 344 321
f 321 344 345
f 321 345 346
f 321 346 324
f 324 346 347
f 324 347 325
f 325 347 348
f 325 348 349
f 325 349 350
f 325 350 351
f 325 351 326
f 327 337 352
f 327 352 328
f 328 352 329
f 329 352 332
f 331 333 353
f 331 353 335
f 332 352 333
f 333 352 354
f 334 335 353
f 337 342 355
f 337 355 352
f 338 356 339
f 339 356 357
f 339 357 358
f 339 358 341
f 339 341 340
f 341 358 359
f 341 359 342
f 342 360 355
f 342 359 361
f 342 361 362
f 342 362 363
f 342 363 364
f 342 364 360
f 343 365 344
f 344 365 366
f 344 366 367
f 344 367 345
f 345 367 346
f 346 367 347
f 347 367 368
f 347 368 348
f 348 368 367
f 348 367 369
f 348 369 349
f 349 370 350
f 349 369 371
f 349 371 370
f 352 364 372
f 352 372 373
f 352 373 354
f 352 355 364
f 355 360 364
f 358 374 361
f 358 361 359
f 361 374 375
f 361 375 362
f 362 375 376
f 362 376 377
f 362 377 378
f 362 378 363
f 363 378 372
f 363 372 364
f 366 379 380
f 366 380 381
f 366 381 367
f 367 381 382
f 367 382 383
f 367 383 384
f 367 384 385
f 367 385 386
f 367 386 369
f 369 386 387
f 369 387 388
f 369 388 389
f 369 389 390
f 369 390 371
f 370 371 391
f 371 390 391
f 372 378 392
f 372 392 373
f 373 392 402
f 373 402 434
f 373 434 433
f 373 433 467
f 373 467 488
f 373 488 487
f 373 487 485
f 373 485 456
f 373 456 426
f 373 426 393
f 374 394 375
f 375 395 396
f 375 396 397
f 375 397 398
f 375 398 377
f 375 377 376
f 375 394 399
f 375 399 395
f 377 398 397
f 377 397 400
f 377 400 401
f 377 401 378
f 378 401 402
f 378 402 392
f 379 403 404
f 379 404 380
f 380 404 403
f 380 403 405
f 380 405 381
f 381 405 382
f 382 405 406
f 382 406 383
f 383 406 407
f 383 407 408
f 383 408 384
f 384 408 385
f 385 408 409
f 385 409 410
f 385 410 386
f 386 410 411
f 386 411 387
f 387 411 412
f 387 412 388
f 388 412 413
f 388 413 414
f 388 414 389
f 389 414 415
f 389 415 416
f 389 416 390
f 390 417 418
f 390 418 419
f 390 419 420
f 390 420 421
f 390 421 422
f 390 422 423
f 390 423 424
f 390 424 391
f 390 416 425
f 390 425 417
f 393 426 427
f 393 427 428
f 393 428 429
f 397 430 400
f 400 430 431
f 400 431 432
f 400 432 401
f 401 432 433
f 401 433 434
f 401 434 402
f 403 435 405
f 405 435 436
f 405 436 406
f 406 437 407
f 406 436 438
f 406 438 439
f 406 439 440
f 406 440 437
f 407 437 408
f 408 437 409
f 409 437 441
f 409 441 410
f 410 441 442
f 410 442 443
f 410 443 411
f 411 443 444
f 411 444 412
f 412 444 445
f 412 445 446
f 412 446 413
f 413 446 447
f 413 447 448
f 413 448 414
f 414 448 415
f 415 448 449
f 415 449 450
f 415 450 416
f 416 450 451
f 416 451 452
f 416 452 425
f 417 425 453
f 417 453 418
f 418 453 454
f 425 452 455
f 425 455 453
f 426 456 457
f 426 457 458
f 426 458 427
f 427 458 459
f 427 459 460
f 427 460 428
f 428 460 461
f 428 461 462
f 428 462 463
f 428 463 464
f 428 464 429
f 430 465 466
f 430 466 431
f 431 466 457
f 431 457 432
f 432 457 467
f 432 467 433
f 437 440 468
f 437 468 441
f 439 469 440
f 440 469 468
f 441 468 470
f 441 470 442
f 442 470 443
f 443 470 471
f 443 471 444
f 444 471 472
f 444 472 445
f 445 472 469
f 445 469 446
f 446 469 473
f 446 473 474
f 446 474 447
f 447 474 475
f 447 475 476
f 447 476 448
f 448 476 449
f 449 476 450
f 450 476 477
f 450 477 455
f 450 455 451
f 451 455 452
f 453 455 478
f 453 478 479
f 453 479 480
f 453 480 481
f 453 481 482
f 453 482 483
f 453 483 454
f 455 477 484
f 455 484 478
f 456 485 457
f 457 466 486
f 457 486 458
f 457 485 487
f 457 487 488
f 457 488 467
f 458 486 489
f 458 489 459
f 459 489 490
f 459 490 462
f 459 462 491
f 459 491 461
f 459 461 460
f 461 491 462
f 462 490 492
f 462 492 493
f 462 493 494
f 462 494 495
f 462 495 481
f 462 481 480
f 462 480 479
f 462 479 463
f 463 479 478
f 463 478 484
f 463 484 464
f 464 484 496
f 464 496 497
f 464 497 473
f 464 473 469
f 465 498 486
f 465 486 466
f 468 469 470
f 469 472 471
f 469 471 470
f 473 497 474
f 474 497 499
f 474 499 500
f 474 500 484
f 474 484 475
f 475 484 476
f 476 484 477
f 481 495 482
f 484 500 496
f 486 498 501
f 486 501 502
f 486 502 489
f 489 502 501
f 489 501 503
f 489 503 490
f 490 504 492
f 490 503 504
f 496 500 499
f 496 499 497

