# https://github.com/mikedh/trimesh
v -0.01315328 0.03397139 0.00597438
v -0.01503291 0.03397139 0.00605656
v -0.01503291 0.03397668 0.00605656
v -0.01503291 0.03772595 0.00629325
v -0.01315328 0.03585132 0.00610259
v -0.01128335 0.03397668 0.00598753
v -0.01128335 0.03397139 0.00598753
v -0.01690284 0.03397139 0.00624722
v -0.01690284 0.03397668 0.00624722
v -0.02968233 0.04476589 0.00803876
v -0.01801705 0.04075877 0.00668771
v -0.01690284 0.04110115 0.00664498
v -0.01447096 0.04259219 0.00668442
v -0.01315328 0.03772595 0.00624722
v -0.01128335 0.03585132 0.00613217
v -0.00940373 0.04476589 0.00689152
v -0.00753379 0.04476589 0.00697699
v -0.00940373 0.03397668 0.00608944
v -0.00940373 0.03397139 0.00608944
v -0.01877277 0.03397139 0.00651020
v -0.02252233 0.04476589 0.00740761
v -0.05777010 0.04476589 0.01221681
v -0.02206695 0.04476589 0.00737145
v -0.02018733 0.04476589 0.00723339
v -0.01690284 0.04203847 0.00673044
v -0.01507166 0.04326956 0.00677318
v -0.01315328 0.04476589 0.00687179
v -0.01315328 0.04356967 0.00676332
v -0.01127366 0.04476589 0.00686193
v -0.00378424 0.04476589 0.00718737
v 0.02058304 0.04476589 0.00865347
v 0.02246266 0.04476589 0.00881454
v -0.00753379 0.03397139 0.00628667
v -0.01984823 0.03397139 0.00667785
v -0.05766352 0.04399659 0.01223325
v -0.05836111 0.04476589 0.01232858
v -0.01504259 0.04476589 0.00694740
v 0.02394504 0.04476589 0.00910382
v -0.00570261 0.03397139 0.00658581
v -0.00748535 0.03397139 0.00629325
v -0.02078804 0.03397139 0.00683564
v -0.05822547 0.04336255 0.01262114
v -0.06001789 0.04334881 0.01311751
v -0.06001789 0.04476589 0.01282824
v -0.02252233 0.03397139 0.00717093
v -0.02439226 0.03397139 0.00758183
v -0.02627188 0.03397139 0.00801903
v -0.02786084 0.03397139 0.00841350
v -0.02880066 0.03397139 0.00864689
v -0.03189137 0.03397139 0.00944240
v 0.02433259 0.04476589 0.00919257
v -0.00493720 0.03397139 0.00675017
v -0.00542164 0.03397139 0.00664498
v -0.03752055 0.03397139 0.01092494
v -0.06123868 0.04230371 0.01407080
v -0.06187814 0.04337523 0.01382426
v -0.06297297 0.04401772 0.01410368
v -0.06188783 0.04476589 0.01358430
v 0.02441010 0.04476589 0.00921887
v -0.00394895 0.03397139 0.00703287
v -0.05052289 0.03397139 0.01571113
v -0.05061009 0.03397139 0.01575057
v -0.05139488 0.03397139 0.01624694
v -0.06248853 0.04276761 0.01441596
v -0.06298266 0.04476589 0.01409710
v -0.06372869 0.04335621 0.01514244
v -0.06485259 0.04394481 0.01586891
v -0.06356398 0.04476589 0.01459347
v 0.02596999 0.04476589 0.00983029
v -0.00190461 0.03397139 0.00775606
v -0.05219905 0.03397139 0.01707532
v -0.06323457 0.04218535 0.01566511
v -0.06448442 0.04269575 0.01631269
v -0.06488166 0.04476589 0.01584262
v -0.06527890 0.04333191 0.01696684
v -0.06628653 0.04321566 0.01881426
v -0.06674190 0.04375143 0.01938952
v -0.06639310 0.04476589 0.01840993
v -0.06615089 0.04476589 0.01796945
v -0.06538547 0.04476589 0.01660525
v 0.02657070 0.04476589 0.01014586
v -0.00052881 0.03397139 0.00834776
v -0.05230563 0.03397139 0.01719038
v -0.06122899 0.03844453 0.01947499
v -0.06496886 0.04220755 0.01756183
v -0.06652875 0.04250237 0.01997794
v -0.06693568 0.04321566 0.02066825
v -0.06711007 0.04476589 0.02033624
v -0.06679034 0.04476589 0.01927776
v 0.02812090 0.04476589 0.01130954
v 0.02681292 0.04442562 0.01066853
v 0.00041100 0.03397139 0.00885070
v -0.05321637 0.03397139 0.01861374
v -0.06151965 0.03830399 0.02076030
v -0.05333264 0.03397139 0.01888658
v -0.06667408 0.04231111 0.02123037
v -0.06728447 0.04334881 0.02263730
v -0.06751700 0.04476589 0.02263730
v -0.06719727 0.04476589 0.02074057
v 0.02815966 0.04476589 0.01134241
v 0.02758802 0.04406950 0.01192096
v 0.00284289 0.03397139 0.01040227
v 0.00184494 0.03397139 0.00973825
v -0.06172312 0.03825115 0.02263730
v -0.06266293 0.03884503 0.02263730
v -0.05353610 0.03397139 0.01949800
v -0.05393334 0.03397139 0.02084248
v -0.06675159 0.04223185 0.02263730
v -0.06728447 0.04334881 0.02450772
v -0.06753638 0.04476589 0.02405080
v -0.06676128 0.04222868 0.02450772
v 0.02818873 0.04476589 0.01137200
v 0.02883787 0.04440660 0.01264744
v 0.02815966 0.04387295 0.01326872
v 0.02711327 0.04242312 0.01612860
v 0.00556544 0.03397139 0.01324242
v 0.00422838 0.03397139 0.01173030
v 0.00395710 0.03397139 0.01146075
v -0.06167467 0.03827651 0.02450772
v -0.05419494 0.03397139 0.02263730
v -0.05420463 0.03397668 0.02450772
v -0.06261448 0.03888941 0.02450772
v -0.06725541 0.04476589 0.02638801
v -0.06733292 0.04476589 0.02592452
v -0.06752670 0.04476589 0.02450772
v -0.06668377 0.04230793 0.02579303
v -0.06694537 0.04326427 0.02640445
v 0.02934169 0.04476589 0.01293343
v 0.03036870 0.04476589 0.01513915
v 0.02914791 0.04419525 0.01389658
v 0.02943858 0.04397017 0.01513915
v 0.02808215 0.04322518 0.01513915
v 0.02806277 0.04269892 0.01685508
v 0.02741362 0.04229420 0.01737775
v 0.00683466 0.03397139 0.01516216
v 0.00669902 0.03397139 0.01493206
v 0.00558481 0.03397139 0.01326872
v -0.06140339 0.03840332 0.02638144
v -0.05415618 0.03397139 0.02473454
v -0.05386552 0.03397139 0.02628940
v -0.05419494 0.03397139 0.02450772
v -0.06677097 0.04383280 0.02785740
v -0.06683879 0.04476589 0.02802505
v -0.06643186 0.04258374 0.02704217
v -0.06113210 0.03854386 0.02757141
v 0.03098878 0.04476589 0.01701287
v 0.03072719 0.04445944 0.01701287
v 0.02979706 0.04369859 0.01701287
v 0.02858596 0.04261861 0.01888658
v 0.02765584 0.04219275 0.01888658
v 0.00775510 0.03397139 0.01739747
v 0.00762915 0.03397139 0.01701287
v -0.05385583 0.03397139 0.02632227
v -0.05313886 0.03397139 0.02832419
v -0.05311948 0.03397139 0.02837678
v -0.06659657 0.04476589 0.02865291
v -0.06618964 0.04326427 0.02838993
v -0.06527890 0.04332662 0.03010586
v -0.06491072 0.04393636 0.03130241
v -0.06486228 0.04230159 0.02946485
v -0.06433909 0.04268624 0.03071399
v -0.05205372 0.03397139 0.03011243
v -0.05183087 0.03397139 0.03036555
v 0.03133758 0.04476589 0.01849869
v 0.03087252 0.04431255 0.01806806
v 0.03013617 0.04364364 0.01877153
v 0.02848908 0.04266511 0.02076030
v 0.02754927 0.04223396 0.02076030
v 0.03099847 0.04418891 0.01931721
v 0.02996177 0.04352317 0.02076030
v 0.03096941 0.04422273 0.02383056
v 0.00868522 0.03397139 0.02440911
v 0.00872398 0.03397139 0.02270633
v 0.00871428 0.03397139 0.02258799
v 0.00853989 0.03397139 0.02076030
v 0.00819109 0.03397139 0.01878468
v -0.06573427 0.04476589 0.03012558
v -0.06366087 0.04338686 0.03191054
v -0.06298266 0.04408641 0.03305778
v -0.06432940 0.04476589 0.03197300
v -0.06496886 0.04476589 0.03136815
v -0.05086200 0.03397139 0.03123337
v -0.06308923 0.04230899 0.03126953
v 0.03142477 0.04476589 0.01895232
v 0.02731673 0.04234281 0.02393246
v 0.03144416 0.04476589 0.02076030
v 0.03137633 0.04476589 0.02317969
v 0.03130851 0.04476589 0.02422831
v 0.03096941 0.04476589 0.02549718
v 0.03076594 0.04439709 0.02507970
v 0.03006835 0.04381800 0.02447485
v 0.00848175 0.03397139 0.02561223
v -0.06188783 0.04276233 0.03256799
v -0.06233351 0.04476589 0.03349498
v -0.06304079 0.04476589 0.03309723
v -0.06188783 0.04369965 0.03336021
v -0.05911684 0.04426077 0.03482959
v -0.05061978 0.03397139 0.03142075
v 0.02799495 0.04276233 0.02453731
v 0.00765821 0.03397139 0.02817297
v 0.00823954 0.03397139 0.02658525
v 0.00828798 0.03397139 0.02643404
v 0.03057217 0.04476589 0.02661483
v 0.03048496 0.04460843 0.02638144
v 0.02923511 0.04414876 0.02776865
v 0.02954516 0.04395326 0.02638144
v -0.05915559 0.04476589 0.03484274
v -0.04876922 0.03397139 0.03218996
v -0.05860333 0.04476589 0.03492821
v -0.03752055 0.03397139 0.03552648
v -0.03564093 0.03397139 0.03592752
v -0.02627188 0.03397139 0.03786369
v -0.02439226 0.03397139 0.03825159
v -0.02303583 0.03397139 0.03850470
v -0.02064271 0.03397139 0.03888273
v -0.01877277 0.03397139 0.03913256
v 0.02808215 0.04321884 0.02638144
v 0.00687342 0.03397139 0.02983631
v 0.00761946 0.03397139 0.02825844
v 0.03009742 0.04476589 0.02768975
v 0.02892507 0.04434531 0.02902108
v 0.02820810 0.04380321 0.02834062
v -0.01877277 0.03397668 0.03913256
v -0.01690284 0.03397668 0.03931665
v -0.05705313 0.04476589 0.03507942
v -0.01690284 0.03397139 0.03931665
v 0.00635991 0.03397139 0.03077316
v 0.02974862 0.04476589 0.02844581
v 0.02925449 0.04476589 0.02934322
v 0.02847939 0.04462323 0.03013216
v 0.02715202 0.04428613 0.03106901
v 0.02753958 0.04408958 0.03013216
v 0.00543948 0.03397139 0.03204861
v -0.01503291 0.03397668 0.03948430
v -0.01787172 0.04241889 0.03857045
v -0.02252233 0.04476589 0.03782425
v -0.01503291 0.03585132 0.03934294
v -0.01503291 0.03397139 0.03948430
v 0.02868285 0.04476589 0.03011572
v 0.02856659 0.04476589 0.03026693
v 0.02749113 0.04476589 0.03142403
v 0.00184494 0.03397139 0.03554949
v 0.00282351 0.03397139 0.03485589
v 0.00399585 0.03397139 0.03368564
v 0.00469344 0.03397139 0.03298218
v 0.00534259 0.03397139 0.03217023
v -0.01315328 0.03397139 0.03955661
v -0.02064271 0.04476589 0.03792615
v -0.01503291 0.03772595 0.03914900
v -0.01503291 0.03959954 0.03895176
v -0.01503291 0.04147417 0.03871837
v -0.01503291 0.04343864 0.03845868
v -0.01363772 0.04476589 0.03824830
v -0.01503291 0.04476589 0.03820885
v -0.01549797 0.04476589 0.03818584
v -0.01315328 0.03585132 0.03938239
v 0.02621222 0.04476589 0.03208805
v 0.00045945 0.03397139 0.03644690
v -0.01128335 0.03397139 0.03949416
v -0.01128335 0.03397668 0.03949416
v -0.01315328 0.03772595 0.03916872
v -0.01391869 0.04248335 0.03857702
v -0.01317266 0.04476589 0.03823844
v 0.02579560 0.04476589 0.03222940
v -0.00393926 0.03397139 0.03825816
v -0.00190461 0.03397139 0.03755470
v -0.00048036 0.03397139 0.03693341
v -0.00940373 0.03397139 0.03931993
v -0.01128335 0.03585132 0.03927720
v -0.00940373 0.03397668 0.03931993
v -0.01315328 0.03959954 0.03892875
v -0.01128335 0.03772595 0.03905038
v -0.01324048 0.04320404 0.03845539
v -0.01172903 0.04476589 0.03817598
v 0.02461357 0.04476589 0.03260086
v -0.00419116 0.03397139 0.03833048
v -0.00753379 0.03397139 0.03905695
v -0.00940373 0.03585132 0.03908983
v -0.01021758 0.04067212 0.03858689
v -0.00611923 0.04476589 0.03756127
v -0.00753379 0.04476589 0.03775193
v -0.01128335 0.04476589 0.03814640
v 0.02433259 0.04476589 0.03267975
v -0.00548946 0.03397139 0.03866249
v 0.02306336 0.04476589 0.03303477
v -0.00236967 0.04476589 0.03702217
v -0.00423961 0.04476589 0.03729501
v -0.00568324 0.03397139 0.03870522
v 0.02246266 0.04476589 0.03313996
v -0.00798917 0.04476589 0.03781110
v -0.00986879 0.04476589 0.03801820
v -0.00940373 0.04476589 0.03797217
f 1 2 3
f 1 3 4
f 1 4 5
f 1 5 6
f 1 6 7
f 1 7 19
f 1 19 33
f 1 33 40
f 1 40 39
f 1 39 53
f 1 53 52
f 1 52 60
f 1 60 70
f 1 70 82
f 1 82 92
f 1 92 103
f 1 103 102
f 1 102 118
f 1 118 117
f 1 117 116
f 1 116 137
f 1 137 136
f 1 136 135
f 1 135 152
f 1 152 151
f 1 151 176
f 1 176 175
f 1 175 174
f 1 174 173
f 1 173 172
f 1 172 192
f 1 192 202
f 1 202 201
f 1 201 200
f 1 200 219
f 1 219 218
f 1 218 227
f 1 227 233
f 1 233 246
f 1 246 245
f 1 245 244
f 1 244 243
f 1 243 242
f 1 242 258
f 1 258 267
f 1 267 266
f 1 266 265
f 1 265 276
f 1 276 284
f 1 284 288
f 1 288 277
f 1 277 268
f 1 268 259
f 1 259 247
f 1 247 238
f 1 238 226
f 1 226 216
f 1 216 215
f 1 215 214
f 1 214 213
f 1 213 212
f 1 212 211
f 1 211 210
f 1 210 208
f 1 208 198
f 1 198 182
f 1 182 163
f 1 163 162
f 1 162 155
f 1 155 154
f 1 154 153
f 1 153 140
f 1 140 139
f 1 139 141
f 1 141 120
f 1 120 107
f 1 107 106
f 1 106 95
f 1 95 93
f 1 93 83
f 1 83 71
f 1 71 63
f 1 63 62
f 1 62 61
f 1 61 54
f 1 54 50
f 1 50 49
f 1 49 48
f 1 48 47
f 1 47 46
f 1 46 45
f 1 45 41
f 1 41 34
f 1 34 20
f 1 20 8
f 1 8 2
f 2 8 9
f 2 9 3
f 3 9 10
f 3 10 11
f 3 11 4
f 4 12 13
f 4 13 14
f 4 14 5
f 4 11 12
f 5 14 15
f 5 15 6
f 6 15 16
f 6 16 17
f 6 17 18
f 6 18 19
f 6 19 7
f 8 20 10
f 8 10 9
f 10 21 11
f 10 20 22
f 10 22 36
f 10 36 44
f 10 44 58
f 10 58 65
f 10 65 68
f 10 68 74
f 10 74 80
f 10 80 79
f 10 79 78
f 10 78 89
f 10 89 88
f 10 88 99
f 10 99 98
f 10 98 110
f 10 110 125
f 10 125 124
f 10 124 123
f 10 123 143
f 10 143 156
f 10 156 177
f 10 177 181
f 10 181 180
f 10 180 195
f 10 195 194
f 10 194 207
f 10 207 209
f 10 209 225
f 10 225 236
f 10 236 248
f 10 248 255
f 10 255 254
f 10 254 253
f 10 253 263
f 10 263 274
f 10 274 282
f 10 282 291
f 10 291 292
f 10 292 290
f 10 290 281
f 10 281 280
f 10 280 287
f 10 287 286
f 10 286 289
f 10 289 285
f 10 285 283
f 10 283 275
f 10 275 264
f 10 264 257
f 10 257 241
f 10 241 240
f 10 240 239
f 10 239 229
f 10 229 228
f 10 228 220
f 10 220 203
f 10 203 189
f 10 189 188
f 10 188 187
f 10 187 186
f 10 186 184
f 10 184 164
f 10 164 146
f 10 146 129
f 10 129 128
f 10 128 112
f 10 112 100
f 10 100 90
f 10 90 81
f 10 81 69
f 10 69 59
f 10 59 51
f 10 51 38
f 10 38 32
f 10 32 31
f 10 31 30
f 10 30 17
f 10 17 16
f 10 16 29
f 10 29 27
f 10 27 37
f 10 37 24
f 10 24 23
f 10 23 21
f 11 21 23
f 11 23 24
f 11 24 25
f 11 25 12
f 12 25 13
f 13 25 26
f 13 26 27
f 13 27 28
f 13 28 14
f 14 28 29
f 14 29 16
f 14 16 15
f 17 30 18
f 18 30 31
f 18 31 19
f 19 31 32
f 19 32 33
f 20 34 22
f 22 35 36
f 22 34 35
f 24 37 26
f 24 26 25
f 26 37 27
f 27 29 28
f 32 38 39
f 32 39 40
f 32 40 33
f 34 41 35
f 35 42 43
f 35 43 44
f 35 44 36
f 35 41 45
f 35 45 46
f 35 46 47
f 35 47 48
f 35 48 49
f 35 49 50
f 35 50 42
f 38 51 52
f 38 52 53
f 38 53 39
f 42 50 54
f 42 54 43
f 43 55 56
f 43 56 57
f 43 57 44
f 43 54 55
f 44 57 58
f 51 59 60
f 51 60 52
f 54 61 55
f 55 61 62
f 55 62 63
f 55 63 64
f 55 64 56
f 56 64 57
f 57 65 58
f 57 64 66
f 57 66 67
f 57 67 68
f 57 68 65
f 59 69 70
f 59 70 60
f 63 71 72
f 63 72 64
f 64 72 73
f 64 73 66
f 66 73 67
f 67 74 68
f 67 73 75
f 67 75 76
f 67 76 77
f 67 77 78
f 67 78 79
f 67 79 80
f 67 80 74
f 69 81 82
f 69 82 70
f 71 83 84
f 71 84 72
f 72 84 85
f 72 85 73
f 73 85 75
f 75 85 76
f 76 85 86
f 76 86 77
f 77 86 87
f 77 87 88
f 77 88 89
f 77 89 78
f 81 90 91
f 81 91 82
f 82 91 92
f 83 93 84
f 84 94 86
f 84 86 85
f 84 93 95
f 84 95 94
f 86 96 87
f 86 94 96
f 87 96 97
f 87 97 98
f 87 98 99
f 87 99 88
f 90 100 91
f 91 100 101
f 91 101 102
f 91 102 103
f 91 103 92
f 94 104 105
f 94 105 96
f 94 95 106
f 94 106 107
f 94 107 104
f 96 108 97
f 96 105 108
f 97 109 110
f 97 110 98
f 97 108 111
f 97 111 109
f 100 112 101
f 101 112 113
f 101 113 114
f 101 114 115
f 101 115 116
f 101 116 117
f 101 117 118
f 101 118 102
f 104 119 105
f 104 107 120
f 104 120 121
f 104 121 119
f 105 122 111
f 105 111 108
f 105 119 122
f 109 123 124
f 109 124 125
f 109 125 110
f 109 111 126
f 109 126 127
f 109 127 123
f 111 122 126
f 112 128 113
f 113 128 129
f 113 129 130
f 113 130 131
f 113 131 132
f 113 132 115
f 113 115 114
f 115 132 133
f 115 133 134
f 115 134 135
f 115 135 136
f 115 136 137
f 115 137 116
f 119 138 122
f 119 121 139
f 119 139 140
f 119 140 138
f 120 141 121
f 121 141 139
f 122 138 126
f 123 127 142
f 123 142 143
f 126 144 142
f 126 142 127
f 126 138 145
f 126 145 144
f 129 131 130
f 129 146 147
f 129 147 131
f 131 147 148
f 131 148 133
f 131 133 132
f 133 148 149
f 133 149 134
f 134 149 150
f 134 150 151
f 134 151 152
f 134 152 135
f 138 140 153
f 138 153 154
f 138 154 155
f 138 155 145
f 142 156 143
f 142 144 157
f 142 157 158
f 142 158 159
f 142 159 156
f 144 158 157
f 144 145 160
f 144 160 158
f 145 161 160
f 145 155 162
f 145 162 163
f 145 163 161
f 146 164 165
f 146 165 147
f 147 165 148
f 148 165 166
f 148 166 149
f 149 167 168
f 149 168 150
f 149 166 169
f 149 169 170
f 149 170 171
f 149 171 167
f 150 168 172
f 150 172 173
f 150 173 174
f 150 174 175
f 150 175 176
f 150 176 151
f 156 159 177
f 158 160 161
f 158 161 159
f 159 161 178
f 159 178 179
f 159 179 180
f 159 180 181
f 159 181 177
f 161 163 182
f 161 182 183
f 161 183 178
f 164 184 165
f 165 184 169
f 165 169 166
f 167 185 168
f 167 171 185
f 168 185 172
f 169 184 186
f 169 186 171
f 169 171 170
f 171 186 187
f 171 187 188
f 171 188 189
f 171 189 190
f 171 190 191
f 171 191 185
f 172 185 192
f 178 183 193
f 178 193 179
f 179 194 195
f 179 195 180
f 179 193 196
f 179 196 197
f 179 197 194
f 182 198 183
f 183 198 193
f 185 191 199
f 185 199 200
f 185 200 201
f 185 201 202
f 185 202 192
f 189 203 190
f 190 203 204
f 190 204 205
f 190 205 206
f 190 206 191
f 191 206 199
f 193 198 196
f 194 197 207
f 196 198 208
f 196 208 197
f 197 209 207
f 197 208 210
f 197 210 211
f 197 211 212
f 197 212 213
f 197 213 214
f 197 214 215
f 197 215 216
f 197 216 209
f 199 206 217
f 199 217 218
f 199 218 219
f 199 219 200
f 203 220 204
f 204 220 205
f 205 220 221
f 205 221 222
f 205 222 217
f 205 217 206
f 209 216 223
f 209 223 224
f 209 224 225
f 216 226 224
f 216 224 223
f 217 222 227
f 217 227 218
f 220 228 221
f 221 228 229
f 221 229 230
f 221 230 231
f 221 231 232
f 221 232 233
f 221 233 227
f 221 227 222
f 224 226 238
f 224 238 234
f 224 234 225
f 225 235 236
f 225 234 237
f 225 237 235
f 229 239 230
f 230 240 231
f 230 239 240
f 231 240 241
f 231 241 242
f 231 242 243
f 231 243 244
f 231 244 245
f 231 245 232
f 232 245 246
f 232 246 233
f 234 238 247
f 234 247 237
f 235 248 236
f 235 237 249
f 235 249 250
f 235 250 251
f 235 251 252
f 235 252 253
f 235 253 254
f 235 254 255
f 235 255 248
f 237 247 256
f 237 256 249
f 241 257 258
f 241 258 242
f 247 259 260
f 247 260 256
f 249 256 250
f 250 256 261
f 250 261 251
f 251 261 262
f 251 262 252
f 252 262 253
f 253 262 263
f 256 260 261
f 257 264 265
f 257 265 266
f 257 266 267
f 257 267 258
f 259 268 270
f 259 270 260
f 260 269 261
f 260 270 269
f 261 271 262
f 261 269 272
f 261 272 271
f 262 273 263
f 262 271 273
f 263 273 274
f 264 275 265
f 265 275 276
f 268 277 270
f 269 270 272
f 270 278 279
f 270 279 272
f 270 277 280
f 270 280 281
f 270 281 278
f 271 272 274
f 271 274 273
f 272 279 282
f 272 282 274
f 275 283 276
f 276 283 285
f 276 285 284
f 277 286 287
f 277 287 280
f 277 288 285
f 277 285 289
f 277 289 286
f 278 281 290
f 278 290 279
f 279 291 282
f 279 290 292
f 279 292 291
f 284 285 288

