# https://github.com/mikedh/trimesh
v -0.01298840 0.00804949 0.04807413
v -0.01298840 0.01069118 0.03073287
v -0.01303224 0.01066052 0.03068421
v -0.01405176 0.00927127 0.03140511
v -0.01451795 0.00867689 0.03140511
v -0.01327309 0.00767210 0.04807413
v -0.01298840 -0.00915929 0.04807413
v -0.01298840 0.01070298 0.03064816
v -0.01298840 0.01073364 0.02980831
v -0.01298840 0.01073836 0.02966413
v -0.01304587 0.01067703 0.02966413
v -0.01318488 0.01050956 0.02966413
v -0.01377724 0.00979489 0.02966413
v -0.01412741 0.00936326 0.02966413
v -0.01411244 0.00934203 0.03022103
v -0.01458398 0.00875001 0.03022103
v -0.01517634 0.00796929 0.03022103
v -0.01343428 0.00745746 0.04807413
v -0.01461418 -0.00866161 0.04807413
v -0.01571924 -0.00947535 0.04753165
v -0.01571924 -0.00990934 0.04728114
v -0.01571924 -0.01019945 0.04709731
v -0.01571924 -0.01090233 0.04663053
v -0.01571924 -0.01110282 0.04648454
v -0.01571924 -0.01163588 0.04596730
v -0.01571924 -0.01165003 0.04595288
v -0.01571924 -0.01206044 0.04540680
v -0.01571924 -0.01241188 0.04475979
v -0.01526401 -0.01194250 0.04516710
v -0.01311538 -0.01060043 0.04480845
v -0.01298840 -0.01053674 0.04472735
v -0.01298840 -0.01334355 0.02966413
v -0.01460055 0.00876888 0.02966413
v -0.01487909 0.00841036 0.02966413
v -0.01559976 0.00740321 0.02966413
v -0.01557864 0.00737727 0.03022103
v -0.01511058 0.00786315 0.03140511
v -0.01519318 0.00799523 0.02966413
v -0.01551101 0.00727113 0.03140511
v -0.01434901 0.00604698 0.04807413
v -0.01535463 -0.00828422 0.04807413
v -0.01571924 -0.00862623 0.04787228
v -0.01571924 -0.01252037 0.04447503
v -0.01507476 -0.01208638 0.04443899
v -0.01298840 -0.01105093 0.04317922
v -0.01298840 -0.01334826 0.02982453
v -0.01571924 -0.01311947 0.04088495
v -0.01317659 -0.01317372 0.02966413
v -0.01571924 0.00721216 0.02966413
v -0.01571924 0.00717914 0.02996331
v -0.01571924 0.00714612 0.03022103
v -0.01571924 0.00693384 0.03140511
v -0.01468262 0.00533231 0.04807413
v -0.01571924 0.00684185 0.03180881
v -0.01571924 -0.00786438 0.04807413
v -0.01571924 -0.01289068 0.04325491
v -0.01298840 -0.01299210 0.03331730
v -0.01298840 -0.01335770 0.03022103
v -0.01571924 -0.01311947 0.04206903
v -0.01571924 -0.01287417 0.03969907
v -0.01349041 -0.01286002 0.02966413
v -0.01571924 -0.01008624 0.02966413
v -0.01473020 0.00521909 0.04807413
v -0.01571924 0.00661542 0.03260361
v -0.01511031 0.00412232 0.04807413
v -0.01501328 0.00440536 0.04807413
v -0.01571924 0.00041687 0.04807413
v -0.01298840 -0.01304400 0.03305056
v -0.01298840 -0.01326807 0.03140511
v -0.01298840 -0.01316665 0.03232426
v -0.01541050 -0.01067119 0.02966413
v -0.01537121 -0.01071836 0.02966413
v -0.01432656 -0.01197081 0.02966413
v -0.01543964 -0.01061929 0.02966413
v -0.01571924 0.00661070 0.03261802
v -0.01554576 0.00252787 0.04807413
v -0.01569920 0.00145468 0.04807413
v -0.01566739 0.00176366 0.04807413
f 1 2 3
f 1 3 4
f 1 4 5
f 1 5 6
f 1 6 18
f 1 18 40
f 1 40 53
f 1 53 63
f 1 63 66
f 1 66 65
f 1 65 76
f 1 76 78
f 1 78 77
f 1 77 67
f 1 67 55
f 1 55 41
f 1 41 19
f 1 19 7
f 1 7 31
f 1 31 45
f 1 45 57
f 1 57 68
f 1 68 70
f 1 70 69
f 1 69 58
f 1 58 46
f 1 46 32
f 1 32 10
f 1 10 9
f 1 9 8
f 1 8 2
f 2 8 3
f 3 8 9
f 3 9 10
f 3 10 11
f 3 11 12
f 3 12 13
f 3 13 14
f 3 14 15
f 3 15 16
f 3 16 4
f 4 16 5
f 5 16 17
f 5 17 18
f 5 18 6
f 7 19 20
f 7 20 21
f 7 21 22
f 7 22 23
f 7 23 24
f 7 24 25
f 7 25 26
f 7 26 27
f 7 27 28
f 7 28 29
f 7 29 30
f 7 30 31
f 10 32 48
f 10 48 61
f 10 61 73
f 10 73 72
f 10 72 71
f 10 71 74
f 10 74 62
f 10 62 49
f 10 49 35
f 10 35 38
f 10 38 34
f 10 34 33
f 10 33 14
f 10 14 13
f 10 13 12
f 10 12 11
f 14 33 16
f 14 16 15
f 16 33 34
f 16 34 17
f 17 35 36
f 17 36 37
f 17 37 18
f 17 34 38
f 17 38 35
f 18 37 36
f 18 36 39
f 18 39 40
f 19 41 42
f 19 42 20
f 20 42 55
f 20 55 67
f 20 67 75
f 20 75 64
f 20 64 54
f 20 54 52
f 20 52 51
f 20 51 50
f 20 50 49
f 20 49 62
f 20 62 60
f 20 60 47
f 20 47 59
f 20 59 56
f 20 56 43
f 20 43 28
f 20 28 27
f 20 27 26
f 20 26 25
f 20 25 24
f 20 24 23
f 20 23 22
f 20 22 21
f 28 43 30
f 28 30 29
f 30 43 44
f 30 44 45
f 30 45 31
f 32 46 47
f 32 47 48
f 35 49 36
f 36 49 50
f 36 50 51
f 36 51 52
f 36 52 39
f 39 52 40
f 40 52 54
f 40 54 53
f 41 55 42
f 43 56 45
f 43 45 44
f 45 56 57
f 46 58 47
f 47 58 59
f 47 60 48
f 48 60 61
f 53 54 63
f 54 64 65
f 54 65 66
f 54 66 63
f 56 59 68
f 56 68 57
f 58 69 59
f 59 69 70
f 59 70 68
f 60 71 72
f 60 72 73
f 60 73 61
f 60 62 74
f 60 74 71
f 64 75 76
f 64 76 65
f 67 77 75
f 75 77 78
f 75 78 76

