# https://github.com/mikedh/trimesh
v 0.03022065 0.01026246 0.05155166
v 0.03022065 0.01016229 0.05036664
v 0.02903554 0.01018652 0.05036664
v 0.02903554 0.01023338 0.05155166
v 0.03022065 0.01019299 0.05273587
v 0.03140576 0.01013321 0.05273587
v 0.03140576 0.01018168 0.05155166
v 0.03022065 0.00996357 0.04918162
v 0.02903554 0.01002011 0.04918162
v 0.03140576 0.01005889 0.05036664
v 0.02785043 0.01002011 0.04918162
v 0.02785043 0.01011705 0.05036664
v 0.02785043 0.01008635 0.05155166
v 0.02903554 0.01011059 0.05273587
v 0.03022065 0.00999265 0.05392089
v 0.03140576 0.00998942 0.05392089
v 0.03258925 0.00985370 0.05392089
v 0.03258925 0.00994579 0.05273587
v 0.03258925 0.00994903 0.05155166
v 0.02903554 0.00980200 0.04807495
v 0.03140576 0.00978746 0.04918162
v 0.03024659 0.00969052 0.04807495
v 0.02785043 0.00983593 0.04807495
v 0.03268652 0.00973253 0.05027768
v 0.02666532 0.00975677 0.04807495
v 0.02666532 0.00990217 0.04918162
v 0.02666532 0.00991833 0.05036664
v 0.02666532 0.00981978 0.05155166
v 0.02785043 0.00991187 0.05273587
v 0.02903554 0.00985370 0.05392089
v 0.03022713 0.00965660 0.05517773
v 0.03140576 0.00970991 0.05510591
v 0.03250332 0.00960328 0.05514019
v 0.03341606 0.00955320 0.05476804
v 0.03360088 0.00961782 0.05392089
v 0.03371437 0.00964852 0.05273587
v 0.03361385 0.00962590 0.05155166
v 0.03227635 0.00957097 0.04918162
v 0.03200723 0.00948211 0.04858095
v 0.03140576 0.00955966 0.04835325
v 0.03064378 0.00962267 0.04807495
v 0.03337229 0.00956127 0.05061311
v 0.03314694 0.00946757 0.04982310
v 0.02544455 0.00955643 0.04807495
v 0.02481551 0.00949827 0.04846587
v 0.02548021 0.00965336 0.04918162
v 0.02482200 0.00949665 0.04918162
v 0.02487063 0.00948534 0.04981820
v 0.02544292 0.00960167 0.05027442
v 0.02502303 0.00943849 0.05060822
v 0.02581418 0.00956289 0.05155166
v 0.02598765 0.00951119 0.05225027
v 0.02668964 0.00962428 0.05268119
v 0.02710143 0.00953866 0.05348753
v 0.02790555 0.00962267 0.05389804
v 0.02833679 0.00951119 0.05460563
v 0.02903554 0.00959197 0.05482108
v 0.02983642 0.00944980 0.05562089
v 0.03062595 0.00950634 0.05576371
v 0.03140576 0.00950473 0.05576127
v 0.03205100 0.00948696 0.05571720
v 0.03284053 0.00943849 0.05555805
v 0.03377435 0.00903135 0.05629094
v 0.03379705 0.00934640 0.05514019
v 0.03495946 0.00897965 0.05510591
v 0.03419425 0.00942395 0.05392089
v 0.03430773 0.00945949 0.05273587
v 0.03420722 0.00940941 0.05155166
v 0.03286809 0.00938517 0.04918162
v 0.03140576 0.00944980 0.04807495
v 0.03247738 0.00909759 0.04811004
v 0.03236714 0.00912021 0.04807495
v 0.03376949 0.00929954 0.05027768
v 0.03377435 0.00897157 0.04918162
v 0.02496466 0.00946918 0.04807495
v 0.02440534 0.00934801 0.04807495
v 0.02316025 0.00900873 0.04807495
v 0.02422863 0.00932378 0.04918162
v 0.02316025 0.00896026 0.04918162
v 0.02440372 0.00927692 0.05027442
v 0.02631189 0.00938679 0.05304029
v 0.02522244 0.00935447 0.05155166
v 0.02429510 0.00899096 0.05155166
v 0.02554830 0.00919614 0.05268119
v 0.02668964 0.00921391 0.05389804
v 0.02754726 0.00939002 0.05427754
v 0.02790555 0.00918806 0.05504307
v 0.02903554 0.00937386 0.05541360
v 0.03022713 0.00924461 0.05621177
v 0.03140576 0.00925431 0.05641091
v 0.03140576 0.00928015 0.05635378
v 0.03250332 0.00928177 0.05618321
v 0.03377273 0.00898450 0.05641091
v 0.03506646 0.00860644 0.05641091
v 0.03507295 0.00860644 0.05640519
v 0.03573603 0.00842226 0.05608609
v 0.03589815 0.00852243 0.05510591
v 0.03495946 0.00910082 0.05392089
v 0.03495946 0.00912667 0.05273587
v 0.03495946 0.00901196 0.05155166
v 0.03505187 0.00865491 0.05029482
v 0.03251305 0.00906205 0.04807495
v 0.03247738 0.00907820 0.04807495
v 0.03354090 0.00859028 0.04807495
v 0.03550906 0.00826716 0.04985166
v 0.03467899 0.00847396 0.04918162
v 0.03443094 0.00833663 0.04851321
v 0.03370950 0.00851112 0.04807495
v 0.03369654 0.00851758 0.04807495
v 0.02316025 -0.00580659 0.04807495
v 0.02316025 0.00878900 0.05036256
v 0.02316025 0.00849657 0.05146026
v 0.02316025 0.00848365 0.05149861
v 0.02427727 0.00859028 0.05271955
v 0.02465987 0.00843518 0.05356343
v 0.02316025 0.00656913 0.05641009
v 0.02793311 0.00854666 0.05627053
v 0.02903554 0.00892633 0.05629094
v 0.03023362 0.00914121 0.05641091
v 0.03251791 0.00918806 0.05641091
v 0.03507943 0.00860159 0.05641091
v 0.03565659 0.00836894 0.05641091
v 0.03648989 0.00812175 0.05510591
v 0.03613646 0.00804097 0.05641091
v 0.03708974 0.00738987 0.05629094
v 0.03660014 0.00819930 0.05392089
v 0.03600677 0.00856443 0.05392089
v 0.03597921 0.00855474 0.05273587
v 0.03584141 0.00849011 0.05155166
v 0.03569874 0.00839317 0.05064168
v 0.03527074 0.00811044 0.04918162
v 0.03611377 0.00798604 0.05029482
v 0.03684818 0.00720569 0.04957255
v 0.03618186 0.00749488 0.04917917
v 0.03660338 0.00701181 0.04878253
v 0.03581222 0.00728647 0.04828388
v 0.03488002 0.00779055 0.04807495
v 0.02316025 -0.00580821 0.04808801
v 0.02318619 -0.00580982 0.04807495
v 0.02366121 -0.00593099 0.04854993
v 0.02355583 0.00837863 0.05231311
v 0.02316025 0.00261892 0.05641091
v 0.02415568 0.00635264 0.05641091
v 0.02780828 0.00838833 0.05641091
v 0.02803038 0.00849819 0.05641091
v 0.02891070 0.00881001 0.05641091
v 0.02903554 0.00885363 0.05641091
v 0.03723727 0.00752881 0.05510591
v 0.03706380 0.00736887 0.05641091
v 0.03768311 0.00687448 0.05629094
v 0.03782902 0.00701827 0.05510591
v 0.03657257 0.00817830 0.05273587
v 0.03728429 0.00760798 0.05392089
v 0.03727618 0.00758536 0.05273587
v 0.03643315 0.00806843 0.05155166
v 0.03700382 0.00733655 0.05036664
v 0.03759556 0.00677108 0.05036664
v 0.03798627 0.00601497 0.04959866
v 0.03733779 0.00651420 0.04919060
v 0.03625319 0.00683732 0.04807495
v 0.03603271 0.00699889 0.04807495
v 0.03701192 0.00619753 0.04807495
v 0.03695032 0.00625893 0.04807495
v 0.03517184 0.00759505 0.04807495
v 0.02316025 -0.00584375 0.04906083
v 0.02429510 -0.00587929 0.04807495
v 0.02429510 -0.00595361 0.04845037
v 0.02366121 -0.00593099 0.04897596
v 0.02316025 -0.00585021 0.04925099
v 0.02548021 -0.00610710 0.04918162
v 0.02548021 -0.00617818 0.05036664
v 0.02316025 -0.00383068 0.05641091
v 0.03764582 0.00685833 0.05641091
v 0.03819217 0.00625893 0.05641091
v 0.03821000 0.00628155 0.05629094
v 0.03834780 0.00642534 0.05510591
v 0.03839644 0.00647381 0.05392089
v 0.03787603 0.00706674 0.05392089
v 0.03718053 0.00747711 0.05155166
v 0.03786793 0.00706190 0.05273587
v 0.03777227 0.00696819 0.05155166
v 0.03829430 0.00637687 0.05155166
v 0.03811759 0.00617815 0.05036664
v 0.03888605 0.00549474 0.05155166
v 0.03871906 0.00522169 0.05047029
v 0.03820190 0.00535741 0.04919468
v 0.03782577 0.00576778 0.04880865
v 0.03706867 0.00613614 0.04807495
v 0.02480254 -0.00589707 0.04807495
v 0.02548021 -0.00597785 0.04836467
v 0.02431780 -0.00601339 0.05036664
v 0.02316025 -0.00584375 0.04979780
v 0.02316025 -0.00585021 0.04929098
v 0.02666532 -0.00613618 0.04918162
v 0.02666532 -0.00624281 0.05036664
v 0.02666532 -0.00621696 0.05155166
v 0.02548021 -0.00612648 0.05155166
v 0.02316025 -0.00395185 0.05631542
v 0.02635243 -0.00469019 0.05641091
v 0.03878391 0.00546242 0.05641091
v 0.03880337 0.00548989 0.05629094
v 0.03894117 0.00565630 0.05510591
v 0.03898981 0.00572254 0.05392089
v 0.03838185 0.00646896 0.05273587
v 0.03897360 0.00568053 0.05273587
v 0.03929459 0.00508921 0.05273587
v 0.03918435 0.00490180 0.05155166
v 0.03911302 0.00475316 0.05093548
v 0.03818730 0.00444135 0.04807495
v 0.03804626 0.00497773 0.04832958
v 0.03763447 0.00541234 0.04807495
v 0.02548021 -0.00590676 0.04807495
v 0.02666532 -0.00598431 0.04838834
v 0.02451883 -0.00598269 0.05155166
v 0.02316025 -0.00583567 0.05036664
v 0.02750511 -0.00596492 0.04847403
v 0.02788123 -0.00604086 0.04912776
v 0.02785043 -0.00620727 0.05036664
v 0.02785043 -0.00621373 0.05155166
v 0.02785043 -0.00608448 0.05273587
v 0.02667343 -0.00603439 0.05281503
v 0.02548021 -0.00600208 0.05247144
v 0.02476039 -0.00594553 0.05225109
v 0.02316025 -0.00540430 0.05278484
v 0.02429510 -0.00538653 0.05392089
v 0.02541050 -0.00510218 0.05519732
v 0.02576068 -0.00484367 0.05588287
v 0.02666532 -0.00494707 0.05609833
v 0.02666532 -0.00476936 0.05641091
v 0.03918597 0.00487433 0.05641091
v 0.03919894 0.00489695 0.05629094
v 0.03927838 0.00506336 0.05510591
v 0.03931891 0.00512960 0.05392089
v 0.03963667 0.00414730 0.05392089
v 0.03959776 0.00414730 0.05273587
v 0.03941457 0.00414730 0.05155166
v 0.03911140 0.00356891 0.04976026
v 0.03898981 0.00435895 0.05014465
v 0.03829917 0.00418285 0.04807495
v 0.03918273 0.00403744 0.05047029
v 0.03774147 0.00523785 0.04807495
v 0.02606223 -0.00590676 0.04807495
v 0.02666532 -0.00588414 0.04807495
v 0.02392546 -0.00588737 0.05155166
v 0.02316025 -0.00583082 0.05043846
v 0.02701064 -0.00586475 0.04807495
v 0.02785529 -0.00576135 0.04807495
v 0.02829626 -0.00590030 0.04869684
v 0.02879722 -0.00598754 0.04948685
v 0.02912957 -0.00607155 0.05027034
v 0.02903554 -0.00615718 0.05155166
v 0.02903554 -0.00605378 0.05273587
v 0.02903554 -0.00595523 0.05346059
v 0.02785043 -0.00596169 0.05348018
v 0.02707549 -0.00593907 0.05338714
v 0.02628433 -0.00590837 0.05326309
v 0.02548021 -0.00586960 0.05306395
v 0.02433725 -0.00577428 0.05268200
v 0.02316025 -0.00571611 0.05159737
v 0.02316025 -0.00572419 0.05155166
v 0.02316025 -0.00542045 0.05273342
v 0.02548021 -0.00565311 0.05392089
v 0.02666532 -0.00539299 0.05510591
v 0.02784881 -0.00498747 0.05638234
v 0.02699929 -0.00485014 0.05641091
v 0.03939349 0.00413438 0.05641091
v 0.03941781 0.00414730 0.05629094
v 0.03957669 0.00414730 0.05510591
v 0.03969828 0.00296143 0.05510591
v 0.03972098 0.00296143 0.05392089
v 0.03967720 0.00296143 0.05273587
v 0.03957669 0.00296143 0.05155166
v 0.03935620 0.00296143 0.05036664
v 0.03915841 0.00296143 0.04963131
v 0.03895901 0.00296143 0.04903880
v 0.03862828 0.00296143 0.04807495
v 0.03880337 0.00403744 0.04929180
v 0.02789907 -0.00575327 0.04807495
v 0.02904202 -0.00553355 0.04807495
v 0.03022065 -0.00562402 0.04918162
v 0.02912957 -0.00584052 0.04912776
v 0.02958675 -0.00591645 0.04981086
v 0.02992721 -0.00599562 0.05060087
v 0.03012338 -0.00601662 0.05155166
v 0.03055300 -0.00590191 0.05273587
v 0.02996125 -0.00596977 0.05273587
v 0.02971159 -0.00593099 0.05336184
v 0.03015256 -0.00579690 0.05382214
v 0.02903554 -0.00581951 0.05405310
v 0.02785043 -0.00581790 0.05407269
v 0.02667343 -0.00579851 0.05383765
v 0.02785043 -0.00551739 0.05510591
v 0.02782449 -0.00496969 0.05641091
v 0.02903554 -0.00511187 0.05629094
v 0.02903554 -0.00505855 0.05641091
v 0.02790555 -0.00497777 0.05641091
v 0.02787150 -0.00497454 0.05641091
v 0.03949563 0.00296951 0.05641091
v 0.03952481 0.00296143 0.05629094
v 0.03953454 0.00177879 0.05510591
v 0.03960263 0.00177879 0.05392089
v 0.03960263 0.00177879 0.05273587
v 0.03954588 0.00177879 0.05155166
v 0.03935134 0.00177879 0.05036664
v 0.03915679 0.00177879 0.04963784
v 0.03895901 0.00177879 0.04904533
v 0.03863314 0.00177879 0.04807495
v 0.02911336 -0.00551739 0.04807495
v 0.03022065 -0.00526212 0.04807495
v 0.03029846 -0.00524274 0.04807495
v 0.03140576 -0.00532836 0.04918162
v 0.03140576 -0.00560625 0.05036664
v 0.03028225 -0.00585506 0.05027034
v 0.03140576 -0.00574681 0.05155166
v 0.03071512 -0.00590353 0.05155166
v 0.03140576 -0.00575327 0.05273587
v 0.03140576 -0.00560302 0.05392089
v 0.03022065 -0.00549639 0.05510591
v 0.03140576 -0.00533483 0.05510591
v 0.02903554 -0.00554486 0.05510591
v 0.03022065 -0.00511025 0.05629094
v 0.02922684 -0.00506340 0.05641091
v 0.03947941 0.00284026 0.05641091
v 0.03930270 0.00171093 0.05634398
v 0.03916652 0.00100329 0.05598489
v 0.03922002 0.00060261 0.05501777
v 0.03911626 -0.00001941 0.05456482
v 0.03934161 0.00059292 0.05392089
v 0.03939025 0.00059292 0.05273587
v 0.03933675 0.00059292 0.05155166
v 0.03917463 0.00070763 0.05048090
v 0.03910815 0.00117778 0.04976923
v 0.03888119 0.00070763 0.04929669
v 0.03862341 0.00171416 0.04807495
v 0.03137171 -0.00495838 0.04807495
v 0.03155815 -0.00490668 0.04807495
v 0.03222934 -0.00482267 0.04837855
v 0.03261032 -0.00494546 0.04917183
v 0.03336905 -0.00480490 0.04956112
v 0.03258925 -0.00525404 0.05036664
v 0.03258925 -0.00541722 0.05155166
v 0.03258925 -0.00542530 0.05273587
v 0.03258925 -0.00528636 0.05392089
v 0.03269787 -0.00497616 0.05521283
v 0.03141549 -0.00494384 0.05635214
v 0.03316478 -0.00473543 0.05567884
v 0.03237525 -0.00484367 0.05599794
v 0.03022065 -0.00506178 0.05641091
v 0.03036169 -0.00505209 0.05641091
v 0.03929297 0.00174001 0.05641091
v 0.03926866 0.00164308 0.05641091
v 0.03895738 0.00070601 0.05641091
v 0.03903196 0.00021324 0.05535483
v 0.03829917 -0.00069635 0.05638234
v 0.03875311 -0.00048471 0.05501777
v 0.03812894 -0.00145570 0.05510591
v 0.03879688 -0.00066081 0.05392089
v 0.03914058 -0.00006788 0.05392089
v 0.03916166 -0.00010827 0.05273587
v 0.03913572 -0.00005818 0.05155166
v 0.03910815 -0.00000163 0.05095262
v 0.03903520 0.00038773 0.05016261
v 0.03829755 -0.00067212 0.04914000
v 0.03812732 -0.00032961 0.04821859
v 0.03837861 0.00052183 0.04807495
v 0.03204127 -0.00475966 0.04807495
v 0.03252602 -0.00458517 0.04807495
v 0.03265571 -0.00453671 0.04807495
v 0.03302049 -0.00467888 0.04877111
v 0.03376787 -0.00450439 0.04917183
v 0.03416831 -0.00465788 0.05036664
v 0.03357656 -0.00489861 0.05036664
v 0.03385866 -0.00493738 0.05161206
v 0.03438231 -0.00474674 0.05204787
v 0.03377435 -0.00498747 0.05273587
v 0.03436772 -0.00474027 0.05333328
v 0.03378895 -0.00488083 0.05380500
v 0.03340310 -0.00482590 0.05488882
v 0.03146899 -0.00491153 0.05641091
v 0.03137820 -0.00492769 0.05641091
v 0.03275461 -0.00458194 0.05641091
v 0.03269787 -0.00462718 0.05635214
v 0.03378895 -0.00459325 0.05521283
v 0.03377435 -0.00424912 0.05629094
v 0.03257790 -0.00463849 0.05641091
v 0.03891361 0.00060100 0.05641091
v 0.03893306 0.00060261 0.05634398
v 0.03829430 -0.00068666 0.05641091
v 0.03827485 -0.00072544 0.05641091
v 0.03802680 -0.00132322 0.05604854
v 0.03762312 -0.00204864 0.05510591
v 0.03774634 -0.00216335 0.05392089
v 0.03820514 -0.00157203 0.05392089
v 0.03883903 -0.00070120 0.05273587
v 0.03824729 -0.00162857 0.05273587
v 0.03882931 -0.00064950 0.05155166
v 0.03876446 -0.00047501 0.05048090
v 0.03801708 -0.00130706 0.04950807
v 0.03786955 -0.00111965 0.04871806
v 0.03794898 -0.00047986 0.04807495
v 0.03808679 -0.00026337 0.04807495
v 0.03820514 0.00003391 0.04807495
v 0.03385379 -0.00401647 0.04807495
v 0.03453795 -0.00366588 0.04807495
v 0.03459469 -0.00370142 0.04823981
v 0.03497730 -0.00385653 0.04923222
v 0.03431098 -0.00471442 0.05125786
v 0.03495946 -0.00420065 0.05036664
v 0.03497243 -0.00441715 0.05273587
v 0.03437907 -0.00474674 0.05273587
v 0.03484922 -0.00444623 0.05161206
v 0.03419263 -0.00466919 0.05412329
v 0.03587707 -0.00377413 0.05392089
v 0.03484112 -0.00439938 0.05380500
v 0.03269138 -0.00460456 0.05641091
v 0.03376949 -0.00419904 0.05641091
v 0.03507619 -0.00395993 0.05522099
v 0.03474060 -0.00376928 0.05629094
v 0.03469521 -0.00374343 0.05641091
v 0.03388946 -0.00414249 0.05641091
v 0.03739615 -0.00182245 0.05641091
v 0.03688547 -0.00249617 0.05598815
v 0.03702976 -0.00263673 0.05510591
v 0.03715459 -0.00275467 0.05392089
v 0.03779335 -0.00221989 0.05273587
v 0.03823594 -0.00158980 0.05155166
v 0.03813867 -0.00145732 0.05036664
v 0.03764744 -0.00205025 0.05036664
v 0.03691141 -0.00253333 0.04941748
v 0.03739129 -0.00182730 0.04906736
v 0.03671200 -0.00234753 0.04862747
v 0.03711244 -0.00159141 0.04807495
v 0.03775444 -0.00077067 0.04807495
v 0.03478437 -0.00350109 0.04807495
v 0.03538422 -0.00343969 0.04887067
v 0.03561606 -0.00359964 0.04966069
v 0.03574413 -0.00369012 0.05036664
v 0.03589815 -0.00379998 0.05155166
v 0.03594030 -0.00382421 0.05273587
v 0.03647044 -0.00334760 0.05392089
v 0.03573927 -0.00367881 0.05490270
v 0.03554797 -0.00355279 0.05569271
v 0.03533234 -0.00342677 0.05629094
v 0.03518968 -0.00345746 0.05641091
v 0.03629048 -0.00274174 0.05641091
v 0.03622401 -0.00281768 0.05634643
v 0.03613809 -0.00329267 0.05522099
v 0.03720161 -0.00280152 0.05273587
v 0.03653204 -0.00339446 0.05273587
v 0.03774471 -0.00218273 0.05155166
v 0.03705408 -0.00267065 0.05036664
v 0.03633587 -0.00326197 0.05036664
v 0.03616403 -0.00298570 0.04914408
v 0.03593868 -0.00267550 0.04807495
v 0.03653853 -0.00218758 0.04807495
v 0.03504863 -0.00332014 0.04807495
v 0.03649151 -0.00335730 0.05155166
v 0.03538584 -0.00333952 0.05641091
v 0.03528695 -0.00339930 0.05641091
v 0.03620132 -0.00280314 0.05641091
v 0.03715297 -0.00276436 0.05155166
f 1 2 3
f 1 3 4
f 1 4 5
f 1 5 6
f 1 6 7
f 1 7 2
f 2 8 9
f 2 9 3
f 2 7 10
f 2 10 8
f 3 9 11
f 3 11 12
f 3 12 4
f 4 12 13
f 4 13 14
f 4 14 5
f 5 14 15
f 5 15 16
f 5 16 6
f 6 16 17
f 6 17 18
f 6 18 7
f 7 18 19
f 7 19 10
f 8 20 9
f 8 10 21
f 8 21 22
f 8 22 20
f 9 20 23
f 9 23 11
f 10 19 24
f 10 24 21
f 11 23 25
f 11 25 26
f 11 26 12
f 12 26 27
f 12 27 13
f 13 27 28
f 13 28 29
f 13 29 14
f 14 29 30
f 14 30 15
f 15 31 32
f 15 32 16
f 15 30 31
f 16 32 33
f 16 33 17
f 17 33 34
f 17 34 35
f 17 35 18
f 18 35 36
f 18 36 19
f 19 36 37
f 19 37 24
f 20 22 41
f 20 41 70
f 20 70 72
f 20 72 103
f 20 103 102
f 20 102 104
f 20 104 109
f 20 109 108
f 20 108 137
f 20 137 164
f 20 164 161
f 20 161 160
f 20 160 163
f 20 163 162
f 20 162 188
f 20 188 211
f 20 211 241
f 20 241 209
f 20 209 239
f 20 239 276
f 20 276 307
f 20 307 334
f 20 334 365
f 20 365 402
f 20 402 401
f 20 401 400
f 20 400 433
f 20 433 432
f 20 432 455
f 20 455 454
f 20 454 456
f 20 456 434
f 20 434 404
f 20 404 403
f 20 403 368
f 20 368 367
f 20 367 366
f 20 366 336
f 20 336 335
f 20 335 310
f 20 310 309
f 20 309 308
f 20 308 279
f 20 279 278
f 20 278 247
f 20 247 246
f 20 246 243
f 20 243 242
f 20 242 212
f 20 212 189
f 20 189 166
f 20 166 139
f 20 139 110
f 20 110 77
f 20 77 76
f 20 76 75
f 20 75 44
f 20 44 25
f 20 25 23
f 21 24 38
f 21 38 39
f 21 39 40
f 21 40 41
f 21 41 22
f 24 42 43
f 24 43 38
f 24 37 42
f 25 44 26
f 26 44 45
f 26 45 46
f 26 46 27
f 27 46 47
f 27 47 48
f 27 48 49
f 27 49 28
f 28 49 48
f 28 48 50
f 28 50 51
f 28 51 52
f 28 52 53
f 28 53 29
f 29 53 54
f 29 54 55
f 29 55 30
f 30 55 56
f 30 56 57
f 30 57 31
f 31 57 58
f 31 58 59
f 31 59 32
f 32 59 60
f 32 60 61
f 32 61 33
f 33 62 34
f 33 61 62
f 34 62 63
f 34 63 64
f 34 64 65
f 34 65 66
f 34 66 35
f 35 66 67
f 35 67 36
f 36 67 37
f 37 67 68
f 37 68 42
f 38 43 69
f 38 69 39
f 39 70 40
f 39 69 71
f 39 71 72
f 39 72 70
f 40 70 41
f 42 68 73
f 42 73 43
f 43 73 74
f 43 74 69
f 44 75 45
f 45 75 76
f 45 76 77
f 45 77 78
f 45 78 47
f 45 47 46
f 47 78 48
f 48 78 79
f 48 79 80
f 48 80 50
f 50 80 51
f 51 80 52
f 52 81 54
f 52 54 53
f 52 80 82
f 52 82 83
f 52 83 84
f 52 84 81
f 54 81 85
f 54 85 86
f 54 86 56
f 54 56 55
f 56 86 87
f 56 87 88
f 56 88 57
f 57 88 58
f 58 88 89
f 58 89 59
f 59 90 91
f 59 91 60
f 59 89 90
f 60 91 61
f 61 91 92
f 61 92 62
f 62 92 63
f 63 92 93
f 63 93 94
f 63 94 95
f 63 95 64
f 64 95 65
f 65 95 96
f 65 96 97
f 65 97 98
f 65 98 66
f 66 98 67
f 67 98 99
f 67 99 68
f 68 99 100
f 68 100 101
f 68 101 73
f 69 74 71
f 71 102 103
f 71 103 72
f 71 74 104
f 71 104 102
f 73 101 74
f 74 101 105
f 74 105 106
f 74 106 107
f 74 107 108
f 74 108 109
f 74 109 104
f 77 110 138
f 77 138 165
f 77 165 169
f 77 169 193
f 77 193 192
f 77 192 215
f 77 215 245
f 77 245 260
f 77 260 259
f 77 259 261
f 77 261 224
f 77 224 198
f 77 198 172
f 77 172 142
f 77 142 116
f 77 116 113
f 77 113 112
f 77 112 111
f 77 111 79
f 77 79 78
f 79 111 80
f 80 111 82
f 81 84 85
f 82 111 83
f 83 111 112
f 83 112 84
f 84 112 113
f 84 113 114
f 84 114 115
f 84 115 85
f 85 87 86
f 85 115 116
f 85 116 87
f 87 117 118
f 87 118 88
f 87 116 117
f 88 118 89
f 89 118 119
f 89 119 90
f 90 119 147
f 90 147 146
f 90 146 145
f 90 145 144
f 90 144 143
f 90 143 142
f 90 142 172
f 90 172 199
f 90 199 229
f 90 229 265
f 90 265 293
f 90 293 297
f 90 297 296
f 90 296 295
f 90 295 322
f 90 322 348
f 90 348 349
f 90 349 380
f 90 380 379
f 90 379 385
f 90 385 415
f 90 415 381
f 90 381 416
f 90 416 420
f 90 420 419
f 90 419 444
f 90 444 459
f 90 459 458
f 90 458 460
f 90 460 445
f 90 445 421
f 90 421 389
f 90 389 388
f 90 388 386
f 90 386 352
f 90 352 351
f 90 351 350
f 90 350 323
f 90 323 298
f 90 298 266
f 90 266 230
f 90 230 200
f 90 200 174
f 90 174 173
f 90 173 149
f 90 149 124
f 90 124 122
f 90 122 121
f 90 121 94
f 90 94 93
f 90 93 120
f 90 120 91
f 91 120 92
f 92 120 93
f 94 121 95
f 95 121 122
f 95 122 96
f 96 123 97
f 96 122 124
f 96 124 125
f 96 125 123
f 97 123 126
f 97 126 127
f 97 127 98
f 98 127 99
f 99 127 128
f 99 128 100
f 100 128 129
f 100 129 130
f 100 130 101
f 101 130 105
f 105 131 107
f 105 107 106
f 105 130 132
f 105 132 133
f 105 133 134
f 105 134 131
f 107 131 135
f 107 135 136
f 107 136 137
f 107 137 108
f 110 139 140
f 110 140 138
f 113 116 141
f 113 141 114
f 114 141 116
f 114 116 115
f 116 142 143
f 116 143 144
f 116 144 145
f 116 145 117
f 117 145 118
f 118 145 146
f 118 146 147
f 118 147 119
f 123 125 148
f 123 148 126
f 124 149 125
f 125 149 150
f 125 150 151
f 125 151 148
f 126 152 128
f 126 128 127
f 126 148 151
f 126 151 153
f 126 153 154
f 126 154 152
f 128 152 129
f 129 152 155
f 129 155 130
f 130 155 156
f 130 156 132
f 131 134 135
f 132 156 133
f 133 135 134
f 133 156 157
f 133 157 158
f 133 158 159
f 133 159 135
f 135 160 161
f 135 161 136
f 135 159 162
f 135 162 163
f 135 163 160
f 136 161 164
f 136 164 137
f 138 140 165
f 139 166 167
f 139 167 140
f 140 168 193
f 140 193 169
f 140 169 165
f 140 167 170
f 140 170 171
f 140 171 168
f 149 173 150
f 150 173 174
f 150 174 175
f 150 175 151
f 151 175 176
f 151 176 177
f 151 177 178
f 151 178 153
f 152 154 179
f 152 179 155
f 153 178 180
f 153 180 154
f 154 180 181
f 154 181 179
f 155 179 156
f 156 179 181
f 156 181 157
f 157 181 182
f 157 182 183
f 157 183 158
f 158 183 184
f 158 184 185
f 158 185 186
f 158 186 187
f 158 187 159
f 159 187 162
f 162 187 188
f 166 189 167
f 167 189 190
f 167 190 170
f 168 171 191
f 168 191 192
f 168 192 193
f 170 190 194
f 170 194 195
f 170 195 171
f 171 195 196
f 171 196 197
f 171 197 191
f 172 198 199
f 174 200 201
f 174 201 175
f 175 201 202
f 175 202 176
f 176 202 203
f 176 203 177
f 177 204 180
f 177 180 178
f 177 203 204
f 180 204 182
f 180 182 181
f 182 204 205
f 182 205 184
f 182 184 183
f 184 205 206
f 184 206 207
f 184 207 208
f 184 208 185
f 185 208 186
f 186 209 210
f 186 210 187
f 186 208 209
f 187 211 188
f 187 210 211
f 189 212 190
f 190 212 213
f 190 213 194
f 191 197 214
f 191 214 215
f 191 215 192
f 194 213 216
f 194 216 217
f 194 217 218
f 194 218 195
f 195 218 219
f 195 219 196
f 196 219 220
f 196 220 221
f 196 221 222
f 196 222 197
f 197 222 223
f 197 223 214
f 198 224 225
f 198 225 226
f 198 226 227
f 198 227 228
f 198 228 229
f 198 229 199
f 200 230 201
f 201 230 231
f 201 231 202
f 202 231 232
f 202 232 203
f 203 232 233
f 203 233 205
f 203 205 204
f 205 233 206
f 206 233 234
f 206 234 235
f 206 235 207
f 207 235 236
f 207 236 208
f 208 237 238
f 208 238 239
f 208 239 209
f 208 236 240
f 208 240 237
f 209 241 210
f 210 241 211
f 212 242 213
f 213 243 216
f 213 242 243
f 214 223 244
f 214 244 215
f 215 244 245
f 216 243 246
f 216 246 247
f 216 247 248
f 216 248 249
f 216 249 217
f 217 249 250
f 217 250 218
f 218 251 219
f 218 250 251
f 219 251 252
f 219 252 220
f 220 252 253
f 220 253 254
f 220 254 221
f 221 255 256
f 221 256 222
f 221 254 255
f 222 257 223
f 222 256 257
f 223 258 259
f 223 259 260
f 223 260 244
f 223 257 258
f 224 261 225
f 225 258 262
f 225 262 226
f 225 261 258
f 226 262 263
f 226 263 228
f 226 228 227
f 228 263 264
f 228 264 265
f 228 265 229
f 230 266 267
f 230 267 231
f 231 267 268
f 231 268 232
f 232 268 233
f 233 268 234
f 234 269 270
f 234 270 235
f 234 268 269
f 235 270 271
f 235 271 272
f 235 272 236
f 236 272 273
f 236 273 237
f 236 237 240
f 237 273 274
f 237 274 275
f 237 275 276
f 237 276 239
f 237 239 277
f 237 277 238
f 238 277 239
f 244 260 245
f 247 278 248
f 248 278 279
f 248 279 280
f 248 280 281
f 248 281 282
f 248 282 249
f 249 282 250
f 250 282 283
f 250 283 251
f 251 284 285
f 251 285 286
f 251 286 252
f 251 283 284
f 252 286 287
f 252 287 253
f 253 287 288
f 253 288 289
f 253 289 254
f 254 289 290
f 254 290 255
f 255 291 256
f 255 290 291
f 256 291 262
f 256 262 257
f 257 262 258
f 258 261 259
f 262 291 292
f 262 292 263
f 263 292 264
f 264 293 265
f 264 292 294
f 264 294 295
f 264 295 296
f 264 296 297
f 264 297 293
f 266 298 299
f 266 299 267
f 267 299 269
f 267 269 268
f 269 299 300
f 269 300 301
f 269 301 270
f 270 301 302
f 270 302 271
f 271 302 303
f 271 303 272
f 272 303 304
f 272 304 273
f 273 304 305
f 273 305 274
f 274 305 306
f 274 306 307
f 274 307 275
f 275 307 276
f 279 308 280
f 280 282 281
f 280 308 309
f 280 309 310
f 280 310 311
f 280 311 312
f 280 312 313
f 280 313 282
f 282 313 283
f 283 313 312
f 283 312 314
f 283 314 315
f 283 315 284
f 284 315 316
f 284 316 285
f 285 316 317
f 285 317 287
f 285 287 286
f 287 317 288
f 288 318 289
f 288 317 319
f 288 319 318
f 289 318 320
f 289 320 290
f 290 320 292
f 290 292 291
f 292 320 294
f 294 320 321
f 294 321 322
f 294 322 295
f 298 323 299
f 299 323 324
f 299 324 300
f 300 324 325
f 300 325 326
f 300 326 327
f 300 327 328
f 300 328 301
f 301 328 329
f 301 329 302
f 302 329 330
f 302 330 303
f 303 330 304
f 304 330 331
f 304 331 332
f 304 332 305
f 305 332 333
f 305 333 306
f 306 333 334
f 306 334 307
f 310 335 311
f 311 335 336
f 311 336 337
f 311 337 338
f 311 338 339
f 311 339 340
f 311 340 312
f 312 340 341
f 312 341 314
f 314 316 315
f 314 341 342
f 314 342 316
f 316 342 343
f 316 343 317
f 317 343 344
f 317 344 319
f 318 319 345
f 318 345 321
f 318 321 320
f 319 344 346
f 319 346 347
f 319 347 345
f 321 348 322
f 321 345 349
f 321 349 348
f 323 350 324
f 324 350 351
f 324 351 325
f 325 351 352
f 325 352 353
f 325 353 327
f 325 327 326
f 327 353 354
f 327 354 355
f 327 355 356
f 327 356 357
f 327 357 358
f 327 358 328
f 328 358 329
f 329 358 359
f 329 359 360
f 329 360 330
f 330 360 361
f 330 361 331
f 331 361 362
f 331 362 332
f 332 362 333
f 333 362 363
f 333 363 364
f 333 364 365
f 333 365 334
f 336 366 337
f 337 366 367
f 337 367 368
f 337 368 369
f 337 369 338
f 338 369 339
f 339 369 370
f 339 370 371
f 339 371 372
f 339 372 340
f 340 372 341
f 341 372 373
f 341 373 374
f 341 374 375
f 341 375 342
f 342 375 376
f 342 376 343
f 343 376 377
f 343 377 378
f 343 378 346
f 343 346 344
f 345 379 380
f 345 380 349
f 345 347 379
f 346 381 382
f 346 382 347
f 346 378 383
f 346 383 384
f 346 384 381
f 347 382 385
f 347 385 379
f 352 386 387
f 352 387 353
f 353 387 386
f 353 386 354
f 354 388 389
f 354 389 390
f 354 390 355
f 354 386 388
f 355 390 356
f 356 390 391
f 356 391 392
f 356 392 393
f 356 393 357
f 357 394 358
f 357 393 395
f 357 395 394
f 358 394 359
f 359 394 396
f 359 396 360
f 360 396 361
f 361 396 397
f 361 397 363
f 361 363 362
f 363 398 399
f 363 399 364
f 363 397 398
f 364 399 400
f 364 400 401
f 364 401 402
f 364 402 365
f 368 403 369
f 369 403 370
f 370 403 404
f 370 404 405
f 370 405 406
f 370 406 371
f 371 407 372
f 371 406 408
f 371 408 407
f 372 407 373
f 373 407 374
f 374 409 410
f 374 410 375
f 374 407 411
f 374 411 409
f 375 410 376
f 376 412 377
f 376 410 409
f 376 409 413
f 376 413 414
f 376 414 412
f 377 412 378
f 378 412 383
f 381 415 382
f 381 384 416
f 382 415 385
f 383 412 417
f 383 417 384
f 384 417 418
f 384 418 419
f 384 419 420
f 384 420 416
f 389 421 390
f 390 421 422
f 390 422 391
f 391 423 424
f 391 424 392
f 391 422 423
f 392 424 425
f 392 425 393
f 393 425 395
f 394 395 426
f 394 426 396
f 395 425 426
f 396 426 427
f 396 427 397
f 397 427 398
f 398 427 428
f 398 428 429
f 398 429 430
f 398 430 399
f 399 430 431
f 399 431 432
f 399 432 433
f 399 433 400
f 404 434 405
f 405 434 435
f 405 435 406
f 406 435 436
f 406 436 408
f 407 408 411
f 408 436 437
f 408 437 438
f 408 438 411
f 409 411 439
f 409 439 413
f 411 438 439
f 412 414 417
f 413 439 440
f 413 440 441
f 413 441 414
f 414 441 417
f 417 441 442
f 417 442 418
f 418 442 443
f 418 443 444
f 418 444 419
f 421 445 422
f 422 445 446
f 422 446 442
f 422 442 447
f 422 447 423
f 423 447 441
f 423 441 440
f 423 440 424
f 424 448 425
f 424 440 449
f 424 449 448
f 425 448 461
f 425 461 450
f 425 450 426
f 426 450 428
f 426 428 427
f 428 450 451
f 428 451 429
f 429 452 436
f 429 436 453
f 429 453 431
f 429 431 430
f 429 451 452
f 431 453 454
f 431 454 455
f 431 455 432
f 434 456 435
f 435 456 454
f 435 454 453
f 435 453 436
f 436 452 437
f 437 452 438
f 438 452 457
f 438 457 449
f 438 449 439
f 439 449 440
f 441 447 442
f 442 446 458
f 442 458 443
f 443 459 444
f 443 458 459
f 445 460 446
f 446 460 458
f 448 449 457
f 448 457 461
f 450 461 451
f 451 461 457
f 451 457 452

