# https://github.com/mikedh/trimesh
v 0.01821165 -0.00500153 0.04807413
v 0.01844748 -0.00506845 0.04807413
v 0.01955396 -0.00517900 0.04918117
v 0.01821165 -0.00484734 0.04882277
v 0.01821165 0.00694529 0.04807413
v 0.01963241 -0.00532010 0.04807413
v 0.02073889 -0.00545974 0.04918117
v 0.02192382 -0.00560229 0.05036582
v 0.02073889 -0.00528082 0.05036582
v 0.02310875 -0.00571284 0.05155091
v 0.01842908 -0.00485462 0.04907958
v 0.01821165 -0.00481970 0.04893134
v 0.01821165 0.00695402 0.04807806
v 0.01873221 0.00722167 0.04807413
v 0.02081685 -0.00551065 0.04807413
v 0.02192382 -0.00566630 0.04918117
v 0.02310875 -0.00582776 0.05036582
v 0.02315863 -0.00583212 0.05043777
v 0.02315863 -0.00572303 0.05155091
v 0.02192382 -0.00536228 0.05155091
v 0.02310875 -0.00545974 0.05252802
v 0.02315863 -0.00571575 0.05159626
v 0.01886392 -0.00477752 0.04986790
v 0.01821165 -0.00470188 0.04927971
v 0.01821165 0.00517647 0.05252802
v 0.01914672 0.00698311 0.04947025
v 0.01890315 0.00714021 0.04868019
v 0.02229281 0.00839992 0.05036582
v 0.02145847 0.00823118 0.04943973
v 0.01955348 0.00761006 0.04807413
v 0.02200082 -0.00567502 0.04807413
v 0.02315863 -0.00584958 0.04925050
v 0.02315863 -0.00584958 0.04929105
v 0.02315863 -0.00584376 0.04979813
v 0.02315863 -0.00583503 0.05036582
v 0.02290102 -0.00539719 0.05252802
v 0.02315863 -0.00547429 0.05252802
v 0.02001980 -0.00479789 0.05108045
v 0.01922952 -0.00459715 0.05065752
v 0.01821165 -0.00322398 0.05252802
v 0.02315863 0.00795771 0.05252802
v 0.02315863 0.00825300 0.05205189
v 0.02248602 0.00831264 0.05100153
v 0.01993651 0.00722749 0.05000829
v 0.02315863 0.00849738 0.05145979
v 0.02310875 0.00877085 0.05036582
v 0.02130448 0.00830537 0.04864967
v 0.02070935 0.00812354 0.04807413
v 0.02297365 -0.00578703 0.04807413
v 0.02315863 -0.00580885 0.04808808
v 0.02315863 -0.00584376 0.04906040
v 0.02180954 -0.00495062 0.05252802
v 0.02167783 -0.00489535 0.05252802
v 0.02120328 -0.00480370 0.05226685
v 0.02315863 0.00848283 0.05149772
v 0.02313926 0.00848865 0.05145804
v 0.02315863 0.00878976 0.05036234
v 0.02310875 0.00894395 0.04918117
v 0.02188169 0.00847119 0.04909920
v 0.02123088 0.00833300 0.04807413
v 0.02315863 -0.00580739 0.04807413
v 0.02315863 0.00896140 0.04918117
v 0.02192092 0.00858902 0.04807413
v 0.02184925 0.00856283 0.04807413
v 0.02315863 0.00900795 0.04807413
v 0.02310875 0.00899486 0.04807413
f 1 2 3
f 1 3 4
f 1 4 12
f 1 12 24
f 1 24 40
f 1 40 25
f 1 25 13
f 1 13 5
f 1 5 14
f 1 14 30
f 1 30 48
f 1 48 60
f 1 60 64
f 1 64 63
f 1 63 66
f 1 66 65
f 1 65 61
f 1 61 49
f 1 49 31
f 1 31 15
f 1 15 6
f 1 6 2
f 2 6 7
f 2 7 8
f 2 8 3
f 3 9 4
f 3 8 10
f 3 10 9
f 4 11 12
f 4 9 11
f 5 13 14
f 6 15 16
f 6 16 17
f 6 17 7
f 7 17 8
f 8 17 18
f 8 18 19
f 8 19 10
f 9 10 20
f 9 20 11
f 10 21 20
f 10 19 22
f 10 22 21
f 11 23 12
f 11 20 23
f 12 23 24
f 13 25 26
f 13 26 27
f 13 27 14
f 14 27 28
f 14 28 29
f 14 29 30
f 15 31 32
f 15 32 33
f 15 33 16
f 16 33 34
f 16 34 17
f 17 34 35
f 17 35 18
f 18 35 34
f 18 34 33
f 18 33 32
f 18 32 51
f 18 51 50
f 18 50 61
f 18 61 65
f 18 65 62
f 18 62 57
f 18 57 45
f 18 45 55
f 18 55 42
f 18 42 41
f 18 41 37
f 18 37 22
f 18 22 19
f 20 21 36
f 20 36 23
f 21 22 37
f 21 37 41
f 21 41 25
f 21 25 40
f 21 40 53
f 21 53 52
f 21 52 36
f 23 38 39
f 23 39 40
f 23 40 24
f 23 36 38
f 25 41 42
f 25 42 43
f 25 43 44
f 25 44 26
f 26 44 43
f 26 43 27
f 27 43 28
f 28 43 45
f 28 45 46
f 28 46 29
f 29 46 47
f 29 47 30
f 30 47 48
f 31 49 50
f 31 50 51
f 31 51 32
f 36 52 38
f 38 52 53
f 38 53 54
f 38 54 40
f 38 40 39
f 40 54 53
f 42 55 56
f 42 56 43
f 43 56 45
f 45 56 55
f 45 57 46
f 46 57 58
f 46 58 59
f 46 59 47
f 47 59 58
f 47 58 60
f 47 60 48
f 49 61 50
f 57 62 58
f 58 62 63
f 58 63 64
f 58 64 60
f 62 65 66
f 62 66 63

