# https://github.com/mikedh/trimesh
v 0.02784966 0.00983664 0.04807413
v 0.02903568 0.00980119 0.04807413
v 0.02784966 0.00982277 0.04799555
v 0.02666551 0.00974725 0.04799555
v 0.02666551 0.00975649 0.04807413
v 0.02903568 0.00978578 0.04799555
v 0.03024415 0.00969022 0.04807413
v 0.02784966 0.00958696 0.04703427
v 0.02666551 0.00956076 0.04709455
v 0.02590601 0.00950836 0.04729047
v 0.02549820 0.00956230 0.04803968
v 0.02544582 0.00955614 0.04807413
v 0.03024789 0.00965477 0.04792988
v 0.02987375 0.00952994 0.04729800
v 0.02903568 0.00956693 0.04717852
v 0.03064074 0.00962241 0.04807413
v 0.02784966 0.00940202 0.04644114
v 0.02666551 0.00940356 0.04650250
v 0.01952319 0.00748476 0.04207071
v 0.01952319 0.00776371 0.04325482
v 0.02511657 0.00943901 0.04767476
v 0.02496505 0.00946829 0.04807413
v 0.03066318 0.00944517 0.04749177
v 0.02903568 0.00878553 0.04562518
v 0.02903568 0.00930338 0.04658646
v 0.03024789 0.00920937 0.04686527
v 0.03140398 0.00944979 0.04807413
v 0.02784966 0.00899976 0.04562518
v 0.01952319 0.00695920 0.04061426
v 0.01952319 0.00720888 0.04120631
v 0.01952319 0.00790550 0.04444000
v 0.02440571 0.00934807 0.04807413
v 0.03140398 0.00932650 0.04775980
v 0.03140398 0.00884102 0.04681037
v 0.02903568 0.00836941 0.04491364
v 0.02784966 0.00848500 0.04471450
v 0.03010198 0.00852045 0.04560796
v 0.03140398 0.00840177 0.04604177
v 0.03236739 0.00912152 0.04807413
v 0.02666551 0.00819833 0.04401480
v 0.02784966 0.00811819 0.04412137
v 0.01952319 0.00633501 0.03963899
v 0.01952319 0.00789626 0.04562518
v 0.02310932 0.00899822 0.04799555
v 0.02310932 0.00899514 0.04807413
v 0.03200634 0.00830005 0.04620970
v 0.02962869 0.00829543 0.04503205
v 0.02903568 0.00795791 0.04432159
v 0.03041813 0.00817830 0.04520106
v 0.03140398 0.00799335 0.04544864
v 0.03247776 0.00907836 0.04807413
v 0.02778044 0.00745701 0.04320315
v 0.02733709 0.00713490 0.04263693
v 0.02666551 0.00719963 0.04255942
v 0.01952319 0.00629186 0.03957548
v 0.02110206 0.00837866 0.04681037
v 0.01952319 0.00778991 0.04681037
v 0.02123114 0.00833242 0.04807413
v 0.02122179 0.00833550 0.04799555
v 0.02185034 0.00856360 0.04807413
v 0.02192517 0.00859751 0.04799555
v 0.02192143 0.00858980 0.04807413
v 0.03222709 0.00721967 0.04490611
v 0.03247589 0.00845880 0.04688895
v 0.03325784 0.00833858 0.04733675
v 0.03432227 0.00708558 0.04625599
v 0.03353283 0.00729519 0.04593197
v 0.03301652 0.00702702 0.04514185
v 0.02903568 0.00736608 0.04354977
v 0.03140398 0.00740153 0.04468759
v 0.02988872 0.00721350 0.04373384
v 0.03251330 0.00906295 0.04807413
v 0.02812839 0.00699465 0.04277364
v 0.02778044 0.00656620 0.04226878
v 0.01952319 0.00533015 0.03848502
v 0.01952319 0.00536714 0.03852055
v 0.01952319 0.00592814 0.03908461
v 0.01952319 0.00761576 0.04799555
v 0.02071109 0.00812436 0.04807413
v 0.03140398 0.00686673 0.04409553
v 0.03067815 0.00705168 0.04390931
v 0.03261432 0.00654000 0.04442493
v 0.03369745 0.00851890 0.04807413
v 0.03370119 0.00851428 0.04806875
v 0.03404727 0.00811665 0.04772213
v 0.03468518 0.00732601 0.04704611
v 0.03547462 0.00705322 0.04749284
v 0.03503126 0.00686673 0.04671456
v 0.03563737 0.00599749 0.04613435
v 0.03487973 0.00622713 0.04569408
v 0.03443077 0.00598670 0.04498146
v 0.03386582 0.00684515 0.04557244
v 0.03377415 0.00620555 0.04477047
v 0.02903568 0.00679892 0.04295664
v 0.02903568 0.00620709 0.04241195
v 0.02719492 0.00590194 0.04149480
v 0.02784966 0.00574936 0.04159599
v 0.01952319 0.00467359 0.03792634
v 0.01952319 0.00759418 0.04807413
v 0.01955500 0.00760959 0.04807413
v 0.03221025 0.00605297 0.04373384
v 0.03140398 0.00627337 0.04353793
v 0.02980828 0.00602061 0.04258095
v 0.03371055 0.00851120 0.04807413
v 0.03487973 0.00778991 0.04807413
v 0.03495269 0.00770207 0.04800201
v 0.03603208 0.00699927 0.04807413
v 0.03625282 0.00683745 0.04807413
v 0.03618174 0.00680200 0.04793096
v 0.03677288 0.00596204 0.04735290
v 0.03607698 0.00619322 0.04689864
v 0.03517156 0.00759572 0.04807413
v 0.03650350 0.00533169 0.04647989
v 0.03585436 0.00523305 0.04569408
v 0.03557750 0.00477223 0.04500730
v 0.03522207 0.00556133 0.04534423
v 0.03487973 0.00523305 0.04480277
v 0.03423060 0.00460886 0.04393514
v 0.03380970 0.00536560 0.04416443
v 0.03299968 0.00578326 0.04394375
v 0.02908245 0.00532398 0.04177899
v 0.02872327 0.00492327 0.04137532
v 0.01952319 0.00408023 0.03753881
v 0.01952319 -0.00515160 0.04807413
v 0.03198390 0.00472908 0.04266815
v 0.03151435 0.00537330 0.04289205
v 0.03059958 0.00579559 0.04275749
v 0.03695059 0.00625950 0.04807413
v 0.03698801 0.00617627 0.04799555
v 0.03706845 0.00613620 0.04807413
v 0.03763340 0.00541337 0.04807413
v 0.03760347 0.00535635 0.04795787
v 0.03784479 0.00462582 0.04753805
v 0.03700297 0.00533169 0.04707195
v 0.03673359 0.00473370 0.04622154
v 0.03643054 0.00426209 0.04559504
v 0.03576457 0.00414650 0.04483614
v 0.03457481 0.00381822 0.04367894
v 0.03380970 0.00418657 0.04341306
v 0.03343930 0.00499416 0.04368002
v 0.03021048 0.00537330 0.04229677
v 0.02951084 0.00466435 0.04152387
v 0.01952319 0.00397234 0.03747853
v 0.01952319 -0.00529648 0.04807198
v 0.01955500 -0.00530264 0.04807413
v 0.03269850 0.00425901 0.04280701
v 0.03316618 0.00351769 0.04267030
v 0.03237674 0.00393844 0.04248084
v 0.03151435 0.00425901 0.04221926
v 0.02998599 0.00387371 0.04131504
v 0.03031711 0.00422048 0.04164443
v 0.03119446 0.00500649 0.04248192
v 0.03701045 0.00619785 0.04807413
v 0.03774190 0.00523922 0.04807413
v 0.03818712 0.00444087 0.04807413
v 0.03806740 0.00383518 0.04719143
v 0.03740517 0.00428521 0.04670595
v 0.03696369 0.00394460 0.04596965
v 0.03659890 0.00320945 0.04517953
v 0.03617987 0.00287346 0.04468328
v 0.03534554 0.00296131 0.04401695
v 0.03475253 0.00296131 0.04355515
v 0.03372551 0.00305841 0.04290712
v 0.02908245 0.00422048 0.04114819
v 0.01952319 0.00305533 0.03710070
v 0.01952319 -0.00530418 0.04799555
v 0.01963357 -0.00532114 0.04807413
v 0.03269850 0.00305841 0.04233552
v 0.03137031 0.00302758 0.04167888
v 0.03077730 0.00346683 0.04149588
v 0.03329713 0.00272705 0.04258957
v 0.03829750 0.00418349 0.04807413
v 0.03825073 0.00419736 0.04795787
v 0.03860055 0.00296131 0.04799555
v 0.03815719 0.00296131 0.04703858
v 0.03773254 0.00296131 0.04644545
v 0.03675417 0.00241881 0.04501483
v 0.03541849 0.00177766 0.04395236
v 0.03482548 0.00177766 0.04353039
v 0.01952319 0.00296131 0.03707701
v 0.01952319 -0.00530727 0.04796433
v 0.02073915 -0.00549837 0.04807413
v 0.03095501 0.00267619 0.04142268
v 0.03031711 0.00302758 0.04123000
v 0.03390323 0.00177766 0.04293834
v 0.03331022 0.00177766 0.04258418
v 0.03258813 0.00177766 0.04218159
v 0.03862861 0.00296131 0.04807413
v 0.03860616 0.00177766 0.04799555
v 0.03816280 0.00177766 0.04701166
v 0.03777370 0.00177766 0.04641961
v 0.03675417 0.00227856 0.04501483
v 0.03622289 0.00184240 0.04463161
v 0.03667186 0.00148946 0.04510202
v 0.03593855 0.00059402 0.04468651
v 0.03521272 0.00059402 0.04409446
v 0.03461971 0.00059402 0.04367894
v 0.03323726 0.00108875 0.04263047
v 0.01952319 0.00168519 0.03708993
v 0.01952319 -0.00532422 0.04681037
v 0.02073915 -0.00549992 0.04799555
v 0.02081772 -0.00551070 0.04807413
v 0.03153306 0.00177766 0.04166812
v 0.03094192 0.00177766 0.04142806
v 0.03863422 0.00177766 0.04807413
v 0.03862300 0.00171448 0.04807413
v 0.03830498 0.00049384 0.04789113
v 0.03807488 0.00082212 0.04715699
v 0.03703852 0.00059402 0.04584048
v 0.03710212 0.00184240 0.04554875
v 0.03653156 0.00059402 0.04524735
v 0.03573838 -0.00019816 0.04489534
v 0.03440084 -0.00004558 0.04382427
v 0.03300717 0.00029811 0.04277041
v 0.03368997 0.00065412 0.04306644
v 0.03260310 0.00065412 0.04242487
v 0.03084090 0.00115039 0.04146682
v 0.01952319 0.00165591 0.03709854
v 0.01952319 -0.00532422 0.04677915
v 0.01955500 -0.00532884 0.04681037
v 0.02200187 -0.00567561 0.04807413
v 0.03837981 0.00052158 0.04807413
v 0.03820583 0.00003456 0.04807413
v 0.03808798 -0.00026443 0.04807413
v 0.03790465 0.00003302 0.04742718
v 0.03768016 0.00049384 0.04678130
v 0.03685893 -0.00018892 0.04603962
v 0.03614993 -0.00058809 0.04562411
v 0.03537173 -0.00098726 0.04520859
v 0.03458229 -0.00136486 0.04484475
v 0.03488535 -0.00051719 0.04447552
v 0.03401921 -0.00083622 0.04405463
v 0.03368436 -0.00050178 0.04364557
v 0.03221773 -0.00018583 0.04254328
v 0.03130297 0.00068957 0.04180806
v 0.03046863 0.00035975 0.04160353
v 0.01952319 0.00066029 0.03739242
v 0.01952319 -0.00522096 0.04562518
v 0.02073915 -0.00546293 0.04681037
v 0.02297463 -0.00578658 0.04807413
v 0.02192517 -0.00566328 0.04799555
v 0.03794767 -0.00048020 0.04807413
v 0.03772132 -0.00067131 0.04789113
v 0.03686454 -0.00132941 0.04721404
v 0.03711334 -0.00058655 0.04681575
v 0.03655962 -0.00097801 0.04642392
v 0.03577018 -0.00138643 0.04599871
v 0.03453553 -0.00249610 0.04606653
v 0.03399864 -0.00215395 0.04527641
v 0.03361515 -0.00168543 0.04453473
v 0.03322978 -0.00121536 0.04382104
v 0.03495456 -0.00177019 0.04563702
v 0.03164717 -0.00097493 0.04282639
v 0.03131232 -0.00058501 0.04241733
v 0.02903568 -0.00085318 0.04166166
v 0.02967733 -0.00003788 0.04145928
v 0.01952319 0.00056011 0.03742794
v 0.01952319 -0.00521633 0.04559397
v 0.01955500 -0.00522404 0.04562518
v 0.02318602 -0.00580970 0.04807413
v 0.03775312 -0.00076995 0.04807413
v 0.03651472 -0.00216628 0.04799555
v 0.03567478 -0.00246836 0.04725494
v 0.03611813 -0.00175324 0.04683943
v 0.03709089 -0.00157292 0.04799555
v 0.03532496 -0.00217707 0.04646482
v 0.03432414 -0.00353488 0.04744871
v 0.03386769 -0.00333760 0.04675870
v 0.03302213 -0.00348248 0.04633026
v 0.03367313 -0.00264868 0.04565317
v 0.03494147 -0.00272883 0.04683943
v 0.03320920 -0.00238514 0.04501375
v 0.03258813 -0.00200754 0.04422363
v 0.03173884 -0.00225105 0.04397282
v 0.03258813 -0.00141572 0.04365418
v 0.03085774 -0.00121074 0.04264124
v 0.02829301 -0.00109977 0.04152602
v 0.01952319 -0.00066361 0.03808243
v 0.01952319 0.00028269 0.03757434
v 0.01952319 -0.00494508 0.04444000
v 0.02073915 -0.00526719 0.04562518
v 0.02192517 -0.00554615 0.04681037
v 0.02429534 -0.00587905 0.04807413
v 0.03711147 -0.00159141 0.04807413
v 0.03653904 -0.00218786 0.04807413
v 0.03592171 -0.00265331 0.04799555
v 0.03497701 -0.00329599 0.04790405
v 0.03386769 -0.00394176 0.04790405
v 0.03261058 -0.00451817 0.04798694
v 0.03353470 -0.00371828 0.04712039
v 0.03478433 -0.00350097 0.04807413
v 0.03453740 -0.00366588 0.04807413
v 0.03385459 -0.00401727 0.04807413
v 0.03261245 -0.00390168 0.04675870
v 0.03223270 -0.00365201 0.04607407
v 0.03261245 -0.00316961 0.04565748
v 0.03258813 -0.00253617 0.04481569
v 0.03136844 -0.00274270 0.04439694
v 0.03094753 -0.00242058 0.04378982
v 0.03021796 -0.00196593 0.04304491
v 0.03021796 -0.00137256 0.04249914
v 0.02903568 -0.00163765 0.04225479
v 0.01952319 -0.00149278 0.03875737
v 0.01952319 -0.00494046 0.04442062
v 0.02547949 -0.00583436 0.04777057
v 0.02310932 -0.00557852 0.04681037
v 0.02547949 -0.00590834 0.04807413
v 0.02480230 -0.00589755 0.04807413
v 0.03593855 -0.00267642 0.04807413
v 0.03504810 -0.00332065 0.04807413
v 0.03265548 -0.00453666 0.04807413
v 0.03252640 -0.00458598 0.04807413
v 0.03173884 -0.00466150 0.04758757
v 0.03136844 -0.00441491 0.04688141
v 0.03140398 -0.00379996 0.04584478
v 0.03072492 -0.00352409 0.04507404
v 0.03140398 -0.00339000 0.04525273
v 0.03028531 -0.00321431 0.04447122
v 0.02903568 -0.00337459 0.04408585
v 0.03021796 -0.00255929 0.04363696
v 0.02903568 -0.00223102 0.04280378
v 0.02839029 -0.00235431 0.04267784
v 0.01952319 -0.00152206 0.03878535
v 0.01952319 -0.00475705 0.04380166
v 0.02192517 -0.00525795 0.04562518
v 0.02666551 -0.00579583 0.04779425
v 0.02666551 -0.00588522 0.04807413
v 0.02606128 -0.00590679 0.04807413
v 0.02429534 -0.00556773 0.04681037
v 0.03204189 -0.00476014 0.04807413
v 0.03136844 -0.00492967 0.04798694
v 0.03094753 -0.00477863 0.04732384
v 0.03021796 -0.00457981 0.04652403
v 0.03028531 -0.00395871 0.04553153
v 0.02993549 -0.00365201 0.04488781
v 0.02903568 -0.00278277 0.04339583
v 0.02821070 -0.00350713 0.04391469
v 0.01952319 -0.00209847 0.03934834
v 0.01952319 -0.00475089 0.04378659
v 0.02019477 -0.00474472 0.04383611
v 0.02666551 -0.00540744 0.04681037
v 0.02700972 -0.00586518 0.04807413
v 0.02547949 -0.00551841 0.04681037
v 0.03155738 -0.00490655 0.04807413
v 0.03137031 -0.00495895 0.04807413
v 0.03021796 -0.00523791 0.04799555
v 0.03021796 -0.00487573 0.04711608
v 0.02943040 -0.00469232 0.04630981
v 0.02903568 -0.00377839 0.04467790
v 0.02903755 -0.00441645 0.04569623
v 0.02864284 -0.00478634 0.04613973
v 0.02782908 -0.00385545 0.04436142
v 0.01952319 -0.00344086 0.04107176
v 0.01952319 -0.00329291 0.04084785
v 0.01952319 -0.00324513 0.04077681
v 0.01952319 -0.00262865 0.03996085
v 0.01952319 -0.00260553 0.03993286
v 0.01952319 -0.00448734 0.04318270
v 0.01952319 -0.00387702 0.04185219
v 0.02310932 -0.00486494 0.04478770
v 0.02666551 -0.00494354 0.04585124
v 0.02784966 -0.00524408 0.04681037
v 0.02788146 -0.00574651 0.04804507
v 0.02785527 -0.00576192 0.04807413
v 0.02538782 -0.00496512 0.04556275
v 0.03029653 -0.00524253 0.04807413
v 0.03021796 -0.00526257 0.04807413
v 0.02911238 -0.00551841 0.04807413
v 0.02903568 -0.00551070 0.04799555
v 0.02903755 -0.00499132 0.04674686
v 0.02784966 -0.00485569 0.04601809
v 0.01952319 -0.00379226 0.04167457
v 0.02789830 -0.00575421 0.04807413
v 0.02904129 -0.00553382 0.04807413
f 1 2 3
f 1 3 4
f 1 4 5
f 1 5 12
f 1 12 22
f 1 22 32
f 1 32 45
f 1 45 62
f 1 62 60
f 1 60 58
f 1 58 79
f 1 79 100
f 1 100 99
f 1 99 124
f 1 124 145
f 1 145 167
f 1 167 182
f 1 182 202
f 1 202 221
f 1 221 240
f 1 240 260
f 1 260 283
f 1 283 308
f 1 308 307
f 1 307 328
f 1 328 327
f 1 327 342
f 1 342 364
f 1 364 373
f 1 373 374
f 1 374 368
f 1 368 367
f 1 367 366
f 1 366 345
f 1 345 344
f 1 344 330
f 1 330 312
f 1 312 311
f 1 311 293
f 1 293 292
f 1 292 291
f 1 291 310
f 1 310 309
f 1 309 285
f 1 285 284
f 1 284 261
f 1 261 242
f 1 242 224
f 1 224 223
f 1 223 222
f 1 222 206
f 1 206 205
f 1 205 188
f 1 188 172
f 1 172 155
f 1 155 154
f 1 154 131
f 1 131 130
f 1 130 153
f 1 153 128
f 1 128 108
f 1 108 107
f 1 107 112
f 1 112 105
f 1 105 104
f 1 104 83
f 1 83 72
f 1 72 51
f 1 51 39
f 1 39 27
f 1 27 16
f 1 16 7
f 1 7 2
f 2 6 3
f 2 7 6
f 3 6 8
f 3 8 9
f 3 9 4
f 4 9 10
f 4 10 11
f 4 11 5
f 5 11 12
f 6 7 13
f 6 13 14
f 6 14 15
f 6 15 8
f 7 16 13
f 8 15 17
f 8 17 18
f 8 18 9
f 9 18 19
f 9 19 20
f 9 20 10
f 10 21 11
f 10 20 21
f 11 21 22
f 11 22 12
f 13 16 23
f 13 23 14
f 14 24 25
f 14 25 17
f 14 17 15
f 14 23 26
f 14 26 24
f 16 27 23
f 17 25 28
f 17 28 29
f 17 29 30
f 17 30 18
f 18 30 19
f 19 30 29
f 19 29 42
f 19 42 55
f 19 55 77
f 19 77 76
f 19 76 75
f 19 75 98
f 19 98 123
f 19 123 143
f 19 143 165
f 19 165 180
f 19 180 199
f 19 199 218
f 19 218 237
f 19 237 257
f 19 257 279
f 19 279 278
f 19 278 303
f 19 303 323
f 19 323 338
f 19 338 357
f 19 357 356
f 19 356 355
f 19 355 354
f 19 354 353
f 19 353 372
f 19 372 359
f 19 359 358
f 19 358 339
f 19 339 324
f 19 324 304
f 19 304 280
f 19 280 258
f 19 258 238
f 19 238 219
f 19 219 200
f 19 200 181
f 19 181 166
f 19 166 144
f 19 144 124
f 19 124 99
f 19 99 78
f 19 78 57
f 19 57 43
f 19 43 31
f 19 31 20
f 20 31 22
f 20 22 21
f 22 31 32
f 23 27 33
f 23 33 34
f 23 34 26
f 24 35 36
f 24 36 28
f 24 28 25
f 24 26 37
f 24 37 35
f 26 34 38
f 26 38 37
f 27 39 33
f 28 36 29
f 29 40 41
f 29 41 42
f 29 36 40
f 31 43 44
f 31 44 32
f 32 44 45
f 33 39 34
f 34 39 46
f 34 46 38
f 35 37 47
f 35 47 48
f 35 48 41
f 35 41 36
f 36 41 40
f 37 38 49
f 37 49 47
f 38 46 50
f 38 50 49
f 39 51 46
f 41 52 53
f 41 53 54
f 41 54 55
f 41 55 42
f 41 48 52
f 43 56 44
f 43 57 58
f 43 58 59
f 43 59 60
f 43 60 61
f 43 61 56
f 44 56 45
f 45 56 61
f 45 61 62
f 46 63 50
f 46 51 64
f 46 64 65
f 46 65 66
f 46 66 67
f 46 67 68
f 46 68 63
f 47 49 48
f 48 69 52
f 48 49 69
f 49 50 70
f 49 70 71
f 49 71 69
f 50 63 70
f 51 72 64
f 52 69 53
f 53 69 73
f 53 73 74
f 53 74 75
f 53 75 76
f 53 76 77
f 53 77 55
f 53 55 54
f 57 78 79
f 57 79 58
f 58 60 59
f 60 62 61
f 63 80 81
f 63 81 70
f 63 68 82
f 63 82 80
f 64 72 65
f 65 83 84
f 65 84 85
f 65 85 66
f 65 72 83
f 66 85 86
f 66 86 87
f 66 87 88
f 66 88 89
f 66 89 90
f 66 90 91
f 66 91 92
f 66 92 68
f 66 68 67
f 68 92 91
f 68 91 93
f 68 93 82
f 69 71 73
f 70 81 71
f 71 94 73
f 71 81 94
f 73 94 95
f 73 95 74
f 74 96 75
f 74 95 97
f 74 97 96
f 75 96 98
f 78 99 100
f 78 100 79
f 80 82 101
f 80 101 102
f 80 102 81
f 81 102 103
f 81 103 95
f 81 95 94
f 82 93 101
f 83 104 84
f 84 104 105
f 84 105 85
f 85 105 86
f 86 105 106
f 86 106 87
f 87 107 108
f 87 108 109
f 87 109 110
f 87 110 111
f 87 111 88
f 87 106 112
f 87 112 107
f 88 111 89
f 89 111 110
f 89 110 113
f 89 113 114
f 89 114 115
f 89 115 116
f 89 116 91
f 89 91 90
f 91 116 115
f 91 115 117
f 91 117 118
f 91 118 119
f 91 119 120
f 91 120 93
f 93 120 101
f 95 103 97
f 96 97 98
f 97 103 121
f 97 121 122
f 97 122 123
f 97 123 98
f 101 125 126
f 101 126 127
f 101 127 102
f 101 120 125
f 102 127 103
f 103 127 121
f 105 112 106
f 108 128 110
f 108 110 109
f 110 128 129
f 110 129 130
f 110 130 131
f 110 131 132
f 110 132 133
f 110 133 134
f 110 134 135
f 110 135 113
f 113 135 114
f 114 135 115
f 115 135 136
f 115 136 137
f 115 137 138
f 115 138 118
f 115 118 117
f 118 138 139
f 118 139 140
f 118 140 119
f 119 140 120
f 120 140 125
f 121 127 141
f 121 141 142
f 121 142 122
f 122 142 143
f 122 143 123
f 124 144 145
f 125 140 139
f 125 139 146
f 125 146 147
f 125 147 148
f 125 148 149
f 125 149 150
f 125 150 151
f 125 151 142
f 125 142 152
f 125 152 126
f 126 152 127
f 127 152 141
f 128 153 129
f 129 153 130
f 131 154 133
f 131 133 132
f 133 154 155
f 133 155 156
f 133 156 157
f 133 157 135
f 133 135 134
f 135 157 158
f 135 158 136
f 136 158 137
f 137 158 159
f 137 159 160
f 137 160 138
f 138 161 162
f 138 162 163
f 138 163 147
f 138 147 139
f 138 160 161
f 139 147 146
f 141 152 142
f 142 150 164
f 142 164 143
f 142 151 150
f 143 164 150
f 143 150 165
f 144 166 167
f 144 167 145
f 147 168 169
f 147 169 170
f 147 170 148
f 147 163 171
f 147 171 168
f 148 170 149
f 149 170 150
f 150 170 165
f 155 172 173
f 155 173 156
f 156 173 172
f 156 172 174
f 156 174 175
f 156 175 176
f 156 176 177
f 156 177 159
f 156 159 158
f 156 158 157
f 159 177 160
f 160 177 161
f 161 177 162
f 162 177 178
f 162 178 179
f 162 179 171
f 162 171 163
f 165 170 180
f 166 181 167
f 167 181 182
f 168 171 183
f 168 183 169
f 169 183 170
f 170 183 184
f 170 184 180
f 171 179 185
f 171 185 186
f 171 186 187
f 171 187 183
f 172 188 174
f 174 188 205
f 174 205 189
f 174 189 190
f 174 190 175
f 175 190 191
f 175 191 177
f 175 177 176
f 177 192 178
f 177 191 192
f 178 192 193
f 178 193 194
f 178 194 195
f 178 195 196
f 178 196 179
f 179 196 197
f 179 197 198
f 179 198 185
f 180 184 183
f 180 183 199
f 181 200 201
f 181 201 182
f 182 201 202
f 183 187 203
f 183 203 204
f 183 204 199
f 185 198 186
f 186 198 187
f 187 198 203
f 189 205 206
f 189 206 207
f 189 207 208
f 189 208 190
f 190 208 191
f 191 208 209
f 191 209 194
f 191 194 210
f 191 210 192
f 192 194 193
f 192 210 194
f 194 211 195
f 194 209 211
f 195 212 196
f 195 211 212
f 196 213 197
f 196 212 213
f 197 213 214
f 197 214 215
f 197 215 198
f 198 214 216
f 198 216 217
f 198 217 203
f 198 215 214
f 199 204 217
f 199 217 218
f 200 219 220
f 200 220 201
f 201 221 202
f 201 220 221
f 203 217 204
f 206 222 207
f 207 222 223
f 207 223 224
f 207 224 225
f 207 225 208
f 208 225 226
f 208 226 209
f 209 226 227
f 209 227 211
f 211 227 212
f 212 227 228
f 212 228 229
f 212 229 230
f 212 230 231
f 212 231 213
f 213 231 232
f 213 232 233
f 213 233 234
f 213 234 214
f 214 234 216
f 216 234 235
f 216 235 217
f 217 235 236
f 217 236 237
f 217 237 218
f 219 238 239
f 219 239 240
f 219 240 241
f 219 241 221
f 219 221 220
f 221 241 240
f 224 242 243
f 224 243 225
f 225 243 244
f 225 244 245
f 225 245 227
f 225 227 226
f 227 244 246
f 227 246 228
f 227 245 244
f 228 247 229
f 228 246 247
f 229 247 230
f 230 248 249
f 230 249 250
f 230 250 251
f 230 251 232
f 230 232 231
f 230 247 252
f 230 252 248
f 232 251 234
f 232 234 233
f 234 253 254
f 234 254 255
f 234 255 256
f 234 256 236
f 234 236 235
f 234 251 253
f 236 256 257
f 236 257 237
f 238 258 259
f 238 259 239
f 239 259 260
f 239 260 240
f 242 261 243
f 243 261 244
f 244 262 263
f 244 263 264
f 244 264 246
f 244 261 265
f 244 265 262
f 246 264 247
f 247 264 266
f 247 266 252
f 248 267 268
f 248 268 269
f 248 269 270
f 248 270 249
f 248 252 266
f 248 266 263
f 248 263 271
f 248 271 267
f 249 270 272
f 249 272 250
f 250 272 273
f 250 273 251
f 251 273 274
f 251 274 275
f 251 275 253
f 253 275 276
f 253 276 254
f 254 276 255
f 255 276 277
f 255 277 278
f 255 278 279
f 255 279 256
f 256 279 257
f 258 280 281
f 258 281 259
f 259 281 282
f 259 282 260
f 260 282 283
f 261 284 265
f 262 265 285
f 262 285 263
f 263 285 286
f 263 286 287
f 263 287 267
f 263 267 271
f 263 266 264
f 265 284 285
f 267 288 289
f 267 289 290
f 267 290 268
f 267 287 291
f 267 291 292
f 267 292 293
f 267 293 288
f 268 290 269
f 269 294 295
f 269 295 296
f 269 296 270
f 269 290 294
f 270 296 272
f 272 296 297
f 272 297 274
f 272 274 273
f 274 297 298
f 274 298 299
f 274 299 300
f 274 300 301
f 274 301 276
f 274 276 275
f 276 301 277
f 277 301 302
f 277 302 303
f 277 303 278
f 280 304 281
f 281 304 305
f 281 305 306
f 281 306 307
f 281 307 308
f 281 308 282
f 282 308 283
f 285 309 286
f 286 309 287
f 287 310 291
f 287 309 310
f 288 293 311
f 288 311 289
f 289 294 290
f 289 311 312
f 289 312 313
f 289 313 294
f 294 313 314
f 294 314 295
f 295 314 315
f 295 315 316
f 295 316 317
f 295 317 296
f 296 317 297
f 297 317 298
f 298 317 316
f 298 316 318
f 298 318 299
f 299 318 319
f 299 319 320
f 299 320 321
f 299 321 300
f 300 321 302
f 300 302 301
f 302 321 322
f 302 322 303
f 303 322 323
f 304 324 325
f 304 325 305
f 305 326 327
f 305 327 328
f 305 328 307
f 305 307 306
f 305 325 324
f 305 324 329
f 305 329 326
f 312 330 313
f 313 330 331
f 313 331 332
f 313 332 314
f 314 332 333
f 314 333 315
f 315 333 334
f 315 334 316
f 316 334 335
f 316 335 319
f 316 319 318
f 319 336 320
f 319 335 337
f 319 337 336
f 320 336 321
f 321 336 322
f 322 336 337
f 322 337 338
f 322 338 323
f 324 339 340
f 324 340 329
f 326 341 342
f 326 342 327
f 326 329 343
f 326 343 341
f 329 340 343
f 330 344 331
f 331 344 345
f 331 345 346
f 331 346 332
f 332 346 347
f 332 347 348
f 332 348 333
f 333 348 334
f 334 348 349
f 334 349 335
f 335 349 337
f 337 349 350
f 337 350 351
f 337 351 352
f 337 352 353
f 337 353 354
f 337 354 355
f 337 355 356
f 337 356 357
f 337 357 338
f 339 358 340
f 340 358 359
f 340 359 360
f 340 360 341
f 340 341 343
f 341 361 362
f 341 362 363
f 341 363 364
f 341 364 342
f 341 360 365
f 341 365 361
f 345 366 346
f 346 366 367
f 346 367 368
f 346 368 369
f 346 369 347
f 347 369 370
f 347 370 348
f 348 370 351
f 348 351 350
f 348 350 349
f 351 370 362
f 351 362 371
f 351 371 353
f 351 353 352
f 353 371 372
f 359 372 360
f 360 372 365
f 361 365 372
f 361 372 371
f 361 371 362
f 362 370 369
f 362 369 363
f 363 373 364
f 363 369 373
f 368 374 369
f 369 374 373

