# https://github.com/mikedh/trimesh
v 0.03519782 0.01201362 0.08143134
v 0.03846239 0.00952019 0.08143134
v 0.03846239 0.00978672 0.08099768
v 0.03846239 0.01012549 0.08032247
v 0.03846239 0.01019025 0.08019004
v 0.03846239 0.01021516 0.08013620
v 0.03846239 0.01062866 0.07923542
v 0.03846239 0.01077811 0.07880759
v 0.03846239 0.01086281 0.07854856
v 0.03846239 0.01107952 0.07760995
v 0.03846239 0.01124641 0.07656802
v 0.03846239 0.01125887 0.07640503
v 0.03846239 0.01122897 0.07531944
v 0.03519782 0.01195384 0.08117667
v 0.03519782 -0.01304526 0.08143134
v 0.03846239 -0.01321465 0.08143134
v 0.03846239 0.01088024 0.07415091
v 0.03519782 0.01157522 0.07997030
v 0.03519782 -0.01296555 0.08022351
v 0.03732978 -0.01327194 0.07880759
v 0.03732978 -0.01329187 0.07999213
v 0.03846239 -0.01343385 0.07999213
v 0.03846239 -0.01327941 0.08117231
v 0.03846239 0.01085035 0.07406068
v 0.03519782 0.01119161 0.07890509
v 0.03519782 -0.01285844 0.07886725
v 0.03737548 -0.01312747 0.07769726
v 0.03780085 -0.01307266 0.07691872
v 0.03846239 -0.01339151 0.07880759
v 0.03519782 -0.01272393 0.07764342
v 0.03519782 0.01071833 0.07762159
v 0.03846239 0.01040696 0.07302021
v 0.03519782 0.00898962 0.07295327
v 0.03820513 -0.01307266 0.07691872
v 0.03846239 -0.01338403 0.07875666
v 0.03722336 -0.01218589 0.07514045
v 0.03754774 -0.01195174 0.07444341
v 0.03846239 -0.01232787 0.07520739
v 0.03519782 -0.01217094 0.07644869
v 0.03675772 -0.01184463 0.07467187
v 0.03846239 0.01035216 0.07289797
v 0.03519782 0.00886258 0.07267241
v 0.03846239 -0.01292570 0.07661167
v 0.03846239 -0.01314241 0.07735965
v 0.03722336 -0.01165283 0.07405486
v 0.03732978 -0.01101764 0.07299838
v 0.03846239 -0.01159803 0.07381912
v 0.03846239 -0.01162543 0.07386569
v 0.03846239 -0.01195423 0.07444923
v 0.03519782 -0.01089807 0.07427897
v 0.03554745 -0.01066641 0.07347132
v 0.03614508 -0.01079843 0.07326614
v 0.03846239 0.00978174 0.07186477
v 0.03768836 0.00961484 0.07208014
v 0.03661678 0.00839926 0.07099455
v 0.03519782 0.00844410 0.07208596
v 0.03732978 -0.01058421 0.07240611
v 0.03846239 -0.01101265 0.07296345
v 0.03519782 -0.01055432 0.07371434
v 0.03614508 -0.00974227 0.07199283
v 0.03614508 -0.01033512 0.07267387
v 0.03519782 -0.01003620 0.07311625
v 0.03519782 -0.00939105 0.07240320
v 0.03550974 -0.00951560 0.07225476
v 0.03691751 -0.00944336 0.07114007
v 0.03846239 0.00938568 0.07130888
v 0.03732978 0.00857114 0.07078937
v 0.03732978 0.00801068 0.07019709
v 0.03660592 0.00721108 0.06983038
v 0.03519782 0.00731072 0.07088978
v 0.03519782 0.00779147 0.07137436
v 0.03731955 -0.00991166 0.07159992
v 0.03770753 -0.00951560 0.07106440
v 0.03846239 -0.01058421 0.07239738
v 0.03614508 -0.00918928 0.07140056
v 0.03519782 -0.00893521 0.07191425
v 0.03614508 -0.00859644 0.07084030
v 0.03635504 -0.00740328 0.06967904
v 0.03703608 -0.00819291 0.07000646
v 0.03782610 -0.00832742 0.06989441
v 0.03846239 0.00936077 0.07127541
v 0.03828406 0.00821244 0.07000646
v 0.03732978 0.00742032 0.06965430
v 0.03519782 0.00647376 0.07019855
v 0.03519782 0.00713386 0.07073552
v 0.03672608 0.00593323 0.06872878
v 0.03817061 -0.00951560 0.07106440
v 0.03846239 -0.00982198 0.07147768
v 0.03519782 -0.00880568 0.07178182
v 0.03549887 -0.00833987 0.07106004
v 0.03556503 -0.00709440 0.06992933
v 0.03603418 -0.00775948 0.07018836
v 0.03608308 -0.00657878 0.06928904
v 0.03660112 -0.00606066 0.06865602
v 0.03732978 -0.00688018 0.06888013
v 0.03739050 -0.00775948 0.06954661
v 0.03846239 -0.00700224 0.06881028
v 0.03846239 -0.00770468 0.06938363
v 0.03846239 -0.00832244 0.06989732
v 0.03846239 0.00846901 0.07024512
v 0.03846239 0.00797331 0.06976926
v 0.03846239 0.00691217 0.06892669
v 0.03732978 0.00667553 0.06906203
v 0.03519782 0.00533540 0.06936471
v 0.03732978 0.00608518 0.06863711
v 0.03732978 0.00533042 0.06818308
v 0.03732978 0.00438885 0.06768831
v 0.03643910 0.00533042 0.06854106
v 0.03556087 0.00472761 0.06874188
v 0.03519782 0.00510375 0.06921628
v 0.03846239 -0.00912452 0.07070787
v 0.03519782 -0.00867117 0.07164503
v 0.03519782 -0.00819042 0.07118227
v 0.03519782 -0.00683285 0.07007777
v 0.03519782 -0.00625994 0.06971833
v 0.03519782 -0.00606564 0.06960191
v 0.03547490 -0.00484757 0.06867349
v 0.03581111 -0.00563720 0.06889904
v 0.03519782 -0.00785663 0.07090287
v 0.03732978 -0.00628734 0.06849158
v 0.03618183 -0.00527850 0.06847849
v 0.03709329 -0.00445400 0.06765920
v 0.03742502 -0.00523118 0.06789495
v 0.03846239 -0.00640939 0.06842319
v 0.03846239 0.00687730 0.06890050
v 0.03846239 0.00628445 0.06849158
v 0.03846239 0.00533042 0.06795025
v 0.03846239 0.00461801 0.06760099
v 0.03732978 0.00379600 0.06744674
v 0.03672672 0.00357182 0.06754424
v 0.03614380 0.00414971 0.06812196
v 0.03519782 0.00447354 0.06883501
v 0.03519782 0.00398282 0.06859781
v 0.03519782 -0.00510912 0.06903874
v 0.03519782 -0.00459848 0.06878117
v 0.03519782 -0.00414762 0.06859490
v 0.03529018 -0.00414762 0.06852505
v 0.03621379 -0.00409531 0.06792114
v 0.03788330 -0.00476786 0.06753987
v 0.03665450 -0.00366437 0.06751077
v 0.03742502 -0.00409531 0.06742346
v 0.03804342 -0.00476786 0.06753987
v 0.03846239 -0.00522370 0.06778581
v 0.03846239 0.00405257 0.06737398
v 0.03846239 0.00402517 0.06736379
v 0.03732978 0.00296153 0.06717316
v 0.03656214 0.00296153 0.06744092
v 0.03524576 0.00393798 0.06854834
v 0.03519782 0.00379351 0.06853524
v 0.03519782 -0.00404549 0.06855852
v 0.03519782 -0.00384123 0.06849158
v 0.03519782 -0.00292207 0.06819909
v 0.03588398 -0.00296193 0.06773633
v 0.03732978 -0.00296193 0.06710768
v 0.03846239 -0.00296193 0.06695779
v 0.03846239 -0.00423978 0.06736234
v 0.03647649 -0.00296193 0.06741764
v 0.03846239 0.00299890 0.06702764
v 0.03846239 0.00296153 0.06701600
v 0.03846239 0.00177585 0.06672496
v 0.03732978 0.00177585 0.06689376
v 0.03596930 0.00296153 0.06779599
v 0.03631222 0.00177585 0.06728958
v 0.03519782 0.00289677 0.06826748
v 0.03519782 -0.00177624 0.06794006
v 0.03566602 -0.00177624 0.06761555
v 0.03625853 -0.00177624 0.06727939
v 0.03732978 -0.00177624 0.06685884
v 0.03846239 -0.00290962 0.06694760
v 0.03846239 0.00059016 0.06656634
v 0.03732978 0.00059016 0.06672350
v 0.03571971 0.00177585 0.06766793
v 0.03519782 0.00246833 0.06816416
v 0.03618790 0.00059016 0.06722700
v 0.03559539 0.00059016 0.06758062
v 0.03519782 -0.00059304 0.06783092
v 0.03557302 -0.00059304 0.06756461
v 0.03616553 -0.00059304 0.06721391
v 0.03732978 -0.00059304 0.06670604
v 0.03846239 -0.00177624 0.06675261
v 0.03846239 -0.00059304 0.06660999
v 0.03519782 0.00177585 0.06803901
v 0.03519782 0.00059016 0.06787457
v 0.03519782 0.00133246 0.06797353
f 1 2 3
f 1 3 4
f 1 4 5
f 1 5 6
f 1 6 7
f 1 7 8
f 1 8 9
f 1 9 10
f 1 10 11
f 1 11 12
f 1 12 13
f 1 13 14
f 1 14 18
f 1 18 25
f 1 25 31
f 1 31 33
f 1 33 42
f 1 42 56
f 1 56 71
f 1 71 70
f 1 70 85
f 1 85 84
f 1 84 104
f 1 104 110
f 1 110 132
f 1 132 133
f 1 133 149
f 1 149 164
f 1 164 173
f 1 173 182
f 1 182 184
f 1 184 183
f 1 183 176
f 1 176 165
f 1 165 152
f 1 152 151
f 1 151 150
f 1 150 136
f 1 136 135
f 1 135 134
f 1 134 116
f 1 116 115
f 1 115 114
f 1 114 119
f 1 119 113
f 1 113 112
f 1 112 89
f 1 89 76
f 1 76 63
f 1 63 62
f 1 62 59
f 1 59 50
f 1 50 39
f 1 39 30
f 1 30 26
f 1 26 19
f 1 19 15
f 1 15 16
f 1 16 2
f 2 16 23
f 2 23 22
f 2 22 29
f 2 29 35
f 2 35 44
f 2 44 43
f 2 43 38
f 2 38 49
f 2 49 48
f 2 48 47
f 2 47 58
f 2 58 74
f 2 74 88
f 2 88 111
f 2 111 99
f 2 99 98
f 2 98 97
f 2 97 124
f 2 124 143
f 2 143 156
f 2 156 155
f 2 155 169
f 2 169 180
f 2 180 181
f 2 181 170
f 2 170 160
f 2 160 159
f 2 159 158
f 2 158 145
f 2 145 144
f 2 144 128
f 2 128 127
f 2 127 126
f 2 126 125
f 2 125 102
f 2 102 101
f 2 101 100
f 2 100 81
f 2 81 66
f 2 66 53
f 2 53 41
f 2 41 32
f 2 32 24
f 2 24 17
f 2 17 13
f 2 13 12
f 2 12 11
f 2 11 10
f 2 10 9
f 2 9 8
f 2 8 7
f 2 7 6
f 2 6 5
f 2 5 4
f 2 4 3
f 13 17 14
f 14 17 18
f 15 19 20
f 15 20 21
f 15 21 22
f 15 22 23
f 15 23 16
f 17 24 18
f 18 24 25
f 19 26 20
f 20 27 28
f 20 28 29
f 20 29 22
f 20 22 21
f 20 26 30
f 20 30 27
f 24 31 25
f 24 32 33
f 24 33 31
f 27 30 28
f 28 34 35
f 28 35 29
f 28 30 36
f 28 36 37
f 28 37 38
f 28 38 34
f 30 39 40
f 30 40 36
f 32 41 33
f 33 41 42
f 34 43 44
f 34 44 35
f 34 38 43
f 36 40 37
f 37 40 45
f 37 45 46
f 37 46 47
f 37 47 48
f 37 48 49
f 37 49 38
f 39 50 51
f 39 51 40
f 40 51 52
f 40 52 45
f 41 53 54
f 41 54 42
f 42 55 56
f 42 54 55
f 45 52 46
f 46 52 57
f 46 57 58
f 46 58 47
f 50 59 51
f 51 60 61
f 51 61 52
f 51 59 62
f 51 62 63
f 51 63 64
f 51 64 60
f 52 61 65
f 52 65 57
f 53 66 67
f 53 67 54
f 54 67 55
f 55 67 68
f 55 68 69
f 55 69 70
f 55 70 71
f 55 71 56
f 57 72 73
f 57 73 74
f 57 74 58
f 57 65 72
f 60 64 75
f 60 75 65
f 60 65 61
f 63 76 64
f 64 76 75
f 65 75 77
f 65 77 78
f 65 78 79
f 65 79 80
f 65 80 73
f 65 73 72
f 66 81 67
f 67 82 68
f 67 81 82
f 68 83 69
f 68 82 83
f 69 84 85
f 69 85 70
f 69 83 86
f 69 86 84
f 73 80 87
f 73 87 74
f 74 87 88
f 75 76 89
f 75 89 90
f 75 90 77
f 77 90 91
f 77 91 92
f 77 92 78
f 78 91 93
f 78 93 94
f 78 94 95
f 78 95 79
f 78 92 91
f 79 96 80
f 79 95 96
f 80 96 95
f 80 95 97
f 80 97 98
f 80 98 99
f 80 99 87
f 81 100 82
f 82 100 101
f 82 101 102
f 82 102 103
f 82 103 83
f 83 103 86
f 84 86 104
f 86 105 106
f 86 106 107
f 86 107 108
f 86 108 109
f 86 109 110
f 86 110 104
f 86 103 105
f 87 99 111
f 87 111 88
f 89 112 90
f 90 112 113
f 90 113 91
f 91 114 115
f 91 115 116
f 91 116 117
f 91 117 118
f 91 118 93
f 91 113 119
f 91 119 114
f 93 118 94
f 94 120 95
f 94 118 121
f 94 121 122
f 94 122 123
f 94 123 120
f 95 120 97
f 97 120 124
f 102 125 103
f 103 125 105
f 105 126 106
f 105 125 126
f 106 127 107
f 106 126 127
f 107 127 128
f 107 128 129
f 107 129 130
f 107 130 108
f 108 130 131
f 108 131 109
f 109 132 110
f 109 131 133
f 109 133 132
f 116 134 117
f 117 134 135
f 117 135 136
f 117 136 137
f 117 137 138
f 117 138 121
f 117 121 118
f 120 123 139
f 120 139 124
f 121 138 122
f 122 139 123
f 122 138 140
f 122 140 141
f 122 141 139
f 124 142 143
f 124 139 142
f 128 144 129
f 129 144 145
f 129 145 146
f 129 146 130
f 130 146 147
f 130 147 148
f 130 148 131
f 131 148 133
f 133 148 149
f 136 150 137
f 137 150 151
f 137 151 152
f 137 152 153
f 137 153 138
f 138 153 140
f 139 141 154
f 139 154 155
f 139 155 156
f 139 156 142
f 140 157 154
f 140 154 141
f 140 153 157
f 142 156 143
f 145 158 146
f 146 159 160
f 146 160 161
f 146 161 147
f 146 158 159
f 147 162 148
f 147 161 163
f 147 163 162
f 148 162 149
f 149 162 164
f 152 165 166
f 152 166 153
f 153 166 167
f 153 167 157
f 154 157 168
f 154 168 155
f 155 168 169
f 157 167 168
f 160 170 171
f 160 171 161
f 161 171 163
f 162 163 164
f 163 172 173
f 163 173 164
f 163 171 174
f 163 174 175
f 163 175 172
f 165 176 177
f 165 177 166
f 166 178 167
f 166 177 178
f 167 178 179
f 167 179 168
f 168 179 180
f 168 180 169
f 170 181 179
f 170 179 171
f 171 179 178
f 171 178 174
f 172 182 173
f 172 175 182
f 174 178 177
f 174 177 175
f 175 177 176
f 175 176 183
f 175 183 184
f 175 184 182
f 179 181 180

