# https://github.com/mikedh/trimesh
v -0.00059277 0.01496167 0.01829920
v 0.00030977 0.01276092 0.01500740
v -0.00059277 0.01273217 0.01500740
v -0.00067857 0.01272898 0.01500740
v -0.00187624 0.01268426 0.01500740
v -0.00296409 0.01262996 0.01500740
v -0.00155365 0.01487223 0.01829920
v 0.00059460 0.01489459 0.01829920
v 0.00060833 0.01276411 0.01500740
v -0.00177328 0.01484987 0.01829920
v -0.00421323 0.01247664 0.01500740
v 0.00079021 0.01486584 0.01829920
v 0.00183345 0.01468697 0.01829920
v 0.00177511 0.01253733 0.01500740
v -0.00281996 0.01465184 0.01829920
v -0.00414460 0.01428132 0.01829920
v -0.00384261 0.01438034 0.01829920
v -0.00295379 0.01462628 0.01829920
v -0.01365388 0.00933683 0.01500740
v 0.00198444 0.01465184 0.01829920
v 0.00294876 0.01227222 0.01500740
v -0.01477606 0.00892159 0.01500740
v -0.00445689 0.01415355 0.01829920
v 0.00296248 0.01440908 0.01829920
v 0.00381698 0.01200072 0.01500740
v -0.01481037 0.00890562 0.01500740
v -0.00535256 0.01375110 0.01829920
v 0.00414642 0.01402579 0.01829920
v 0.00488768 0.01371277 0.01829920
v 0.00524801 0.01355625 0.01829920
v 0.00536468 0.01349557 0.01829920
v 0.00651774 0.01289507 0.01829920
v 0.00436949 0.01167492 0.01500740
v -0.01603206 0.00828596 0.01500740
v -0.00630658 0.01322087 0.01829920
v 0.00541616 0.01104248 0.01500740
v 0.00750951 0.01227541 0.01829920
v -0.01710619 0.00755451 0.01500740
v -0.00684879 0.01281841 0.01829920
v 0.00769139 0.01214765 0.01829920
v 0.00876208 0.01132357 0.01829920
v 0.00673051 0.00995010 0.01500740
v -0.01809796 0.00664738 0.01500740
v -0.00814598 0.01172283 0.01829920
v -0.00774790 0.01207099 0.01829920
v -0.00721942 0.01251178 0.01829920
v 0.00886847 0.01123413 0.01829920
v 0.00811349 0.00930169 0.01557295
v 0.00848755 0.00851274 0.01527519
v 0.00793504 0.00870758 0.01500740
v -0.01850290 0.00625770 0.01500740
v -0.00873280 0.01109998 0.01829920
v 0.00895426 0.01115747 0.01829920
v 0.01001123 0.01013855 0.01829920
v 0.01007643 0.01007467 0.01829920
v 0.01013820 0.01001398 0.01829920
v 0.00927684 0.00807515 0.01563612
v 0.00888562 0.00768866 0.01502899
v 0.00960285 0.00728620 0.01530033
v 0.00885474 0.00768866 0.01500740
v -0.01867792 0.00561568 0.01527487
v -0.01919610 0.00544000 0.01500740
v -0.00929561 0.01041963 0.01829920
v 0.01119517 0.00881299 0.01829920
v 0.01071816 0.00717760 0.01652682
v 0.01040931 0.00651642 0.01570733
v 0.00981562 0.00651642 0.01512728
v 0.00965090 0.00653878 0.01500740
v 0.00888562 0.00764714 0.01500740
v 0.01134616 0.00858621 0.01829920
v 0.01165502 0.00770144 0.01799113
v -0.01901766 0.00482673 0.01543567
v -0.00955985 0.01009383 0.01829920
v -0.01938828 0.00517489 0.01500740
v 0.01184033 0.00709455 0.01778617
v 0.01091377 0.00651642 0.01629995
v 0.01059462 0.00564442 0.01547724
v 0.01003525 0.00540806 0.01500740
v 0.01191583 0.00770144 0.01829920
v -0.01981038 0.00414638 0.01518077
v -0.02003688 0.00335105 0.01534222
v -0.01921670 0.00414638 0.01553428
v -0.01127227 0.00766630 0.01829920
v -0.01071977 0.00852552 0.01829920
v -0.01038689 0.00900783 0.01829920
v -0.00971427 0.00989899 0.01829920
v -0.01967998 0.00472132 0.01500740
v 0.01156923 0.00662502 0.01715521
v 0.01247520 0.00658988 0.01829920
v 0.01203251 0.00630241 0.01753127
v 0.01069071 0.00485228 0.01537735
v 0.01007643 0.00528668 0.01500740
v 0.01174424 0.00533140 0.01672500
v 0.01107163 0.00528030 0.01592292
v -0.02001285 0.00414638 0.01500740
v -0.02051732 0.00309871 0.01500740
v -0.02061683 0.00286554 0.01500740
v -0.02023935 0.00256210 0.01545759
v -0.01960448 0.00295817 0.01567059
v -0.01176301 0.00679111 0.01829920
v 0.01290760 0.00533140 0.01829920
v 0.01278405 0.00533140 0.01812776
v 0.01219380 0.00533140 0.01731762
v 0.01075248 0.00414638 0.01529807
v 0.01182660 0.00463828 0.01661995
v 0.01191583 0.00384933 0.01652134
v 0.01062894 0.00297414 0.01500740
v 0.01321645 0.00414638 0.01829920
v -0.02089824 0.00212451 0.01500740
v -0.02096001 0.00177635 0.01507411
v -0.02036975 0.00177635 0.01554363
v -0.01955300 0.00177635 0.01596836
v -0.01189685 0.00651642 0.01829920
v 0.01304829 0.00481395 0.01829920
v 0.01083141 0.00296137 0.01517755
v 0.01301055 0.00341812 0.01780680
v 0.01265708 0.00299970 0.01726477
v 0.01199133 0.00296137 0.01645044
v 0.01084513 0.00177635 0.01500740
v 0.01344294 0.00314024 0.01829920
v -0.02102178 0.00177635 0.01500740
v -0.02109041 0.00059133 0.01518819
v -0.02050016 0.00059133 0.01565223
v -0.01955300 0.00059133 0.01616879
v -0.01873626 0.00059133 0.01651554
v -0.01243219 0.00531862 0.01829920
v -0.01202039 0.00626089 0.01829920
v 0.01347383 0.00299650 0.01829920
v 0.01344980 0.00299970 0.01826858
v 0.01307918 0.00262918 0.01771399
v 0.01264678 0.00177635 0.01708592
v 0.01205653 0.00177635 0.01638084
v 0.01095495 0.00059133 0.01500740
v -0.02125513 0.00059133 0.01500740
v -0.02117964 -0.00059369 0.01527100
v -0.02058595 -0.00059369 0.01572183
v -0.01970057 -0.00177551 0.01635409
v -0.01947064 -0.00058410 0.01635538
v -0.01902109 -0.00097379 0.01661898
v -0.01889412 -0.00018484 0.01656742
v -0.01272732 0.00414638 0.01829920
v -0.01836563 -0.00177551 0.01695799
v -0.01836563 -0.00296053 0.01706465
v -0.01718169 -0.00296053 0.01745232
v 0.01350471 0.00262279 0.01829920
v 0.01356305 0.00186578 0.01829920
v 0.01356992 0.00177635 0.01829920
v 0.01310663 0.00177635 0.01767822
v 0.01266394 0.00059133 0.01707400
v 0.01108879 -0.00177551 0.01500740
v 0.01103731 -0.00065118 0.01500740
v 0.01103388 -0.00059369 0.01500740
v -0.02141299 -0.00059369 0.01500740
v -0.02122768 -0.00177551 0.01531128
v -0.01978979 -0.00296053 0.01638438
v -0.02063399 -0.00177551 0.01576147
v -0.01919954 -0.00296053 0.01671566
v -0.01911031 -0.00177551 0.01666635
v -0.01381174 -0.00063202 0.01829920
v -0.01836563 -0.00414555 0.01710655
v -0.01718169 -0.00414555 0.01750485
v 0.01357678 0.00059133 0.01829920
v 0.01311350 0.00059133 0.01766630
v 0.01164129 -0.00177551 0.01571732
v 0.01109908 -0.00296053 0.01500740
v -0.02148163 -0.00177551 0.01500740
v -0.02122425 -0.00296053 0.01529582
v -0.02063056 -0.00296053 0.01579208
v -0.01981381 -0.00414555 0.01638567
v -0.01922356 -0.00414555 0.01673145
v -0.01399019 -0.00177551 0.01829920
v -0.01836563 -0.00533056 0.01711686
v -0.01706844 -0.00658266 0.01760442
v -0.01659830 -0.00702345 0.01777941
v -0.01718169 -0.00533056 0.01753836
v 0.01352530 -0.00059369 0.01829920
v 0.01309977 -0.00059369 0.01768370
v 0.01107163 -0.00414555 0.01500740
v -0.02144731 -0.00296053 0.01500740
v -0.02118993 -0.00414555 0.01525521
v -0.02055850 -0.00533056 0.01575696
v -0.02059625 -0.00414555 0.01579305
v -0.01979322 -0.00533056 0.01634958
v -0.01915493 -0.00651558 0.01671662
v -0.01919954 -0.00533056 0.01673145
v -0.01401078 -0.00207576 0.01829920
v -0.01836563 -0.00651558 0.01710397
v -0.01659830 -0.00717676 0.01777941
v 0.01343608 -0.00143693 0.01829920
v 0.01095838 -0.00533056 0.01500740
v -0.02137868 -0.00414555 0.01500740
v -0.02114875 -0.00533056 0.01520365
v -0.02048986 -0.00651558 0.01570282
v -0.01974518 -0.00651558 0.01629512
v -0.01906570 -0.00770060 0.01666474
v -0.01836563 -0.00770060 0.01703565
v -0.01396274 -0.00335340 0.01829920
v -0.01706844 -0.00762394 0.01758864
v -0.01718169 -0.00888562 0.01745845
v -0.01645073 -0.00796571 0.01775943
v -0.01319403 -0.00597258 0.01829920
v 0.01339833 -0.00179148 0.01829920
v 0.01095495 -0.00534653 0.01500740
v 0.01339490 -0.00182342 0.01829920
v 0.01337774 -0.00194480 0.01829920
v 0.01326106 -0.00274652 0.01829920
v 0.01322674 -0.00296053 0.01829920
v 0.01310663 -0.00358658 0.01829920
v 0.01299682 -0.00414555 0.01829920
v -0.02129632 -0.00533056 0.01500740
v -0.02108355 -0.00651558 0.01510762
v -0.02038348 -0.00770060 0.01562484
v -0.01965939 -0.00770060 0.01621746
v -0.01899363 -0.00847358 0.01661576
v -0.01845829 -0.00887603 0.01686550
v -0.01718169 -0.01007063 0.01731150
v -0.01622767 -0.00888562 0.01772624
v -0.01545897 -0.00954999 0.01778392
v -0.01281998 -0.00691485 0.01829920
v 0.01094465 -0.00539125 0.01500740
v 0.01292475 -0.00445538 0.01829920
v -0.02115561 -0.00651558 0.01500740
v -0.02101835 -0.00723106 0.01500740
v -0.02018787 -0.00958832 0.01545147
v -0.02026337 -0.00888562 0.01552558
v -0.01945348 -0.00887603 0.01619425
v -0.01891127 -0.00926572 0.01656065
v -0.01819748 -0.01007063 0.01683586
v -0.01728807 -0.01135786 0.01696315
v -0.01599775 -0.01125565 0.01744846
v -0.01591195 -0.00999398 0.01766050
v -0.01798814 -0.01102887 0.01672049
v -0.01481037 -0.01125565 0.01763246
v -0.00649189 -0.01357778 0.01829920
v -0.00773074 -0.01246303 0.01829920
v -0.01014667 -0.01001314 0.01829920
v -0.01079870 -0.00931363 0.01829920
v -0.01185910 -0.00817333 0.01829920
v 0.01078336 -0.00651558 0.01522621
v 0.01071130 -0.00620256 0.01500740
v 0.01270512 -0.00534334 0.01829920
v -0.02091883 -0.00770060 0.01500740
v -0.02065802 -0.00882812 0.01500740
v -0.02036289 -0.00989496 0.01500740
v -0.02025307 -0.01017285 0.01500740
v -0.02001629 -0.01037727 0.01523910
v -0.01904168 -0.01198391 0.01549014
v -0.01922013 -0.01125565 0.01566383
v -0.01959418 -0.01001953 0.01580788
v -0.01878773 -0.01007063 0.01646688
v -0.01694490 -0.01244067 0.01678301
v -0.01599775 -0.01244067 0.01712846
v -0.01481037 -0.01244067 0.01737788
v -0.01837593 -0.01135786 0.01631639
v -0.01775478 -0.01182101 0.01657934
v -0.00538688 -0.01428687 0.01829920
v 0.01067355 -0.00713524 0.01539185
v 0.01059462 -0.00651558 0.01500740
v 0.01267767 -0.00543597 0.01829920
v -0.02009521 -0.01055933 0.01500740
v -0.01992706 -0.01092346 0.01500740
v -0.01923385 -0.01228416 0.01500740
v -0.01885980 -0.01289423 0.01500740
v -0.01877401 -0.01277286 0.01520946
v -0.01798471 -0.01328072 0.01559422
v -0.01837593 -0.01240554 0.01579917
v -0.01668752 -0.01313699 0.01664605
v -0.01599775 -0.01336377 0.01675658
v -0.01486528 -0.01370873 0.01688033
v -0.00517411 -0.01441463 0.01829920
v -0.01753515 -0.01244067 0.01642724
v 0.00864540 -0.01110872 0.01500740
v 0.00917732 -0.00985982 0.01500740
v 0.01046765 -0.00682222 0.01500740
v 0.01229675 -0.00655711 0.01829920
v 0.01229332 -0.00656669 0.01829920
v 0.01196044 -0.00739077 0.01829920
v 0.01182660 -0.00770060 0.01829920
v 0.01173052 -0.00792099 0.01829920
v -0.01856124 -0.01326156 0.01500740
v -0.01830043 -0.01357458 0.01500740
v -0.01809796 -0.01381734 0.01500740
v -0.01763467 -0.01406967 0.01526746
v -0.01684538 -0.01444658 0.01560904
v -0.01716110 -0.01360333 0.01599671
v -0.01599775 -0.01395468 0.01642305
v -0.01529424 -0.01415911 0.01655904
v -0.01450495 -0.01436353 0.01666539
v -0.00423382 -0.01483626 0.01829920
v 0.01126723 -0.00887603 0.01829920
v 0.01124321 -0.00892395 0.01829920
v 0.01076620 -0.00977678 0.01829920
v 0.01048137 -0.01023034 0.01829920
v 0.00993573 -0.01095860 0.01829920
v 0.00978130 -0.01115025 0.01829920
v 0.00875179 -0.01213723 0.01829920
v 0.00858020 -0.01229374 0.01829920
v 0.00741685 -0.01313060 0.01829920
v 0.00523428 -0.01354583 0.01500740
v -0.01775478 -0.01419744 0.01500740
v -0.01737730 -0.01455518 0.01500740
v -0.01634435 -0.01523872 0.01522492
v -0.01555506 -0.01550064 0.01549271
v -0.01597029 -0.01482987 0.01579756
v -0.01714394 -0.01476279 0.01500740
v -0.01481037 -0.01571145 0.01565545
v -0.01486528 -0.01477876 0.01629705
v -0.01362643 -0.01508859 0.01640952
v -0.00409312 -0.01489056 0.01829920
v 0.00579365 -0.01413994 0.01829920
v 0.00414642 -0.01417827 0.01500740
v -0.01685567 -0.01500874 0.01500740
v -0.01647132 -0.01532815 0.01500740
v -0.01614188 -0.01554535 0.01500740
v -0.01577125 -0.01577533 0.01500740
v -0.01499912 -0.01624167 0.01500740
v -0.01485498 -0.01632791 0.01500740
v -0.01481037 -0.01630555 0.01506412
v -0.01391126 -0.01650998 0.01531902
v -0.01356123 -0.01606919 0.01574568
v -0.00296409 -0.01522913 0.01829920
v 0.00526860 -0.01443061 0.01829920
v 0.00411554 -0.01502791 0.01829920
v 0.00341204 -0.01536009 0.01829920
v 0.00172363 -0.01526108 0.01500740
v -0.01481037 -0.01635027 0.01500740
v -0.01424414 -0.01660899 0.01500740
v -0.01367104 -0.01686133 0.01500740
v -0.01244249 -0.01721588 0.01500740
v -0.01312197 -0.01661219 0.01542407
v -0.00178015 -0.01550702 0.01829920
v 0.00297964 -0.01552619 0.01829920
v 0.00283551 -0.01558049 0.01829920
v -0.00414460 -0.01712005 0.01500740
v -0.01125511 -0.01749696 0.01500740
v -0.01125511 -0.01740113 0.01509570
v -0.01244249 -0.01668885 0.01548337
v -0.00056875 -0.01570825 0.01829920
v 0.00177511 -0.01578172 0.01829920
v -0.00431962 -0.01716796 0.01500740
v -0.01007117 -0.01764708 0.01500740
v 0.00059117 -0.01579769 0.01829920
v -0.00534570 -0.01735642 0.01500740
v -0.00888723 -0.01766944 0.01500740
v -0.00769986 -0.01761514 0.01500740
v -0.00651592 -0.01751612 0.01500740
f 1 2 3
f 1 3 4
f 1 4 5
f 1 5 6
f 1 6 7
f 1 7 10
f 1 10 15
f 1 15 18
f 1 18 17
f 1 17 16
f 1 16 23
f 1 23 27
f 1 27 35
f 1 35 39
f 1 39 46
f 1 46 45
f 1 45 44
f 1 44 52
f 1 52 63
f 1 63 73
f 1 73 86
f 1 86 85
f 1 85 84
f 1 84 83
f 1 83 100
f 1 100 113
f 1 113 127
f 1 127 126
f 1 126 141
f 1 141 159
f 1 159 171
f 1 171 186
f 1 186 197
f 1 197 201
f 1 201 219
f 1 219 238
f 1 238 237
f 1 237 236
f 1 236 235
f 1 235 234
f 1 234 256
f 1 256 270
f 1 270 289
f 1 289 309
f 1 309 321
f 1 321 331
f 1 331 338
f 1 338 342
f 1 342 339
f 1 339 333
f 1 333 332
f 1 332 324
f 1 324 323
f 1 323 322
f 1 322 310
f 1 310 298
f 1 298 297
f 1 297 296
f 1 296 295
f 1 295 294
f 1 294 293
f 1 293 292
f 1 292 291
f 1 291 290
f 1 290 279
f 1 279 278
f 1 278 277
f 1 277 276
f 1 276 275
f 1 275 259
f 1 259 241
f 1 241 221
f 1 221 209
f 1 209 208
f 1 208 207
f 1 207 206
f 1 206 205
f 1 205 204
f 1 204 202
f 1 202 189
f 1 189 176
f 1 176 162
f 1 162 147
f 1 147 146
f 1 146 145
f 1 145 128
f 1 128 120
f 1 120 108
f 1 108 114
f 1 114 101
f 1 101 89
f 1 89 79
f 1 79 70
f 1 70 64
f 1 64 56
f 1 56 55
f 1 55 54
f 1 54 53
f 1 53 47
f 1 47 41
f 1 41 40
f 1 40 37
f 1 37 32
f 1 32 31
f 1 31 30
f 1 30 29
f 1 29 28
f 1 28 24
f 1 24 20
f 1 20 13
f 1 13 12
f 1 12 8
f 1 8 9
f 1 9 2
f 2 9 14
f 2 14 21
f 2 21 25
f 2 25 33
f 2 33 36
f 2 36 42
f 2 42 50
f 2 50 60
f 2 60 69
f 2 69 68
f 2 68 78
f 2 78 92
f 2 92 107
f 2 107 119
f 2 119 133
f 2 133 152
f 2 152 151
f 2 151 150
f 2 150 165
f 2 165 178
f 2 178 190
f 2 190 203
f 2 203 220
f 2 220 240
f 2 240 258
f 2 258 274
f 2 274 273
f 2 273 272
f 2 272 299
f 2 299 311
f 2 311 325
f 2 325 334
f 2 334 340
f 2 340 343
f 2 343 346
f 2 346 345
f 2 345 344
f 2 344 341
f 2 341 335
f 2 335 329
f 2 329 328
f 2 328 327
f 2 327 326
f 2 326 317
f 2 317 316
f 2 316 315
f 2 315 314
f 2 314 313
f 2 313 312
f 2 312 305
f 2 305 301
f 2 301 300
f 2 300 282
f 2 282 281
f 2 281 280
f 2 280 263
f 2 263 262
f 2 262 261
f 2 261 260
f 2 260 245
f 2 245 244
f 2 244 243
f 2 243 242
f 2 242 223
f 2 223 222
f 2 222 210
f 2 210 191
f 2 191 179
f 2 179 166
f 2 166 153
f 2 153 134
f 2 134 121
f 2 121 109
f 2 109 97
f 2 97 96
f 2 96 95
f 2 95 87
f 2 87 74
f 2 74 62
f 2 62 51
f 2 51 43
f 2 43 38
f 2 38 34
f 2 34 26
f 2 26 22
f 2 22 19
f 2 19 11
f 2 11 6
f 2 6 5
f 2 5 4
f 2 4 3
f 6 10 7
f 6 11 10
f 8 12 9
f 9 12 13
f 9 13 14
f 10 11 15
f 11 16 17
f 11 17 18
f 11 18 15
f 11 19 16
f 13 20 21
f 13 21 14
f 16 19 22
f 16 22 23
f 20 24 21
f 21 24 25
f 22 26 27
f 22 27 23
f 24 28 25
f 25 28 29
f 25 29 30
f 25 30 31
f 25 31 32
f 25 32 33
f 26 34 27
f 27 34 35
f 32 36 33
f 32 37 36
f 34 38 35
f 35 38 39
f 36 37 40
f 36 40 41
f 36 41 42
f 38 43 44
f 38 44 45
f 38 45 46
f 38 46 39
f 41 47 42
f 42 47 48
f 42 48 49
f 42 49 50
f 43 51 44
f 44 51 52
f 47 53 48
f 48 53 54
f 48 54 55
f 48 55 56
f 48 56 57
f 48 57 49
f 49 58 50
f 49 57 59
f 49 59 58
f 50 58 60
f 51 61 52
f 51 62 61
f 52 61 63
f 56 64 57
f 57 64 59
f 58 59 60
f 59 65 66
f 59 66 67
f 59 67 68
f 59 68 69
f 59 69 60
f 59 64 70
f 59 70 71
f 59 71 65
f 61 62 72
f 61 72 73
f 61 73 63
f 62 74 72
f 65 71 75
f 65 75 66
f 66 75 76
f 66 76 77
f 66 77 67
f 67 77 68
f 68 77 78
f 70 79 71
f 71 79 75
f 72 74 80
f 72 80 81
f 72 81 82
f 72 82 83
f 72 83 84
f 72 84 85
f 72 85 86
f 72 86 73
f 74 87 80
f 75 88 76
f 75 79 89
f 75 89 90
f 75 90 88
f 76 88 90
f 76 90 77
f 77 91 92
f 77 92 78
f 77 90 93
f 77 93 94
f 77 94 91
f 80 95 81
f 80 87 95
f 81 95 96
f 81 96 97
f 81 97 98
f 81 98 99
f 81 99 82
f 82 99 83
f 83 99 100
f 89 101 90
f 90 101 102
f 90 102 103
f 90 103 93
f 91 104 92
f 91 94 105
f 91 105 106
f 91 106 104
f 92 104 107
f 93 103 108
f 93 108 105
f 93 105 94
f 97 109 110
f 97 110 98
f 98 110 111
f 98 111 112
f 98 112 99
f 99 112 100
f 100 112 113
f 101 114 102
f 102 114 103
f 103 114 108
f 104 106 115
f 104 115 107
f 105 108 116
f 105 116 106
f 106 116 117
f 106 117 118
f 106 118 115
f 107 115 119
f 108 120 116
f 109 121 110
f 110 121 122
f 110 122 111
f 111 122 123
f 111 123 124
f 111 124 112
f 112 124 125
f 112 125 126
f 112 126 127
f 112 127 113
f 115 118 119
f 116 120 128
f 116 128 129
f 116 129 130
f 116 130 117
f 117 130 118
f 118 130 131
f 118 131 132
f 118 132 119
f 119 132 133
f 121 134 122
f 122 134 135
f 122 135 123
f 123 136 137
f 123 137 138
f 123 138 124
f 123 135 136
f 124 138 139
f 124 139 140
f 124 140 125
f 125 140 126
f 126 140 139
f 126 139 142
f 126 142 143
f 126 143 144
f 126 144 141
f 128 145 130
f 128 130 129
f 130 145 146
f 130 146 147
f 130 147 148
f 130 148 131
f 131 148 149
f 131 149 150
f 131 150 151
f 131 151 132
f 132 151 152
f 132 152 133
f 134 153 135
f 135 153 154
f 135 154 136
f 136 155 137
f 136 154 156
f 136 156 155
f 137 155 157
f 137 157 158
f 137 158 138
f 138 158 139
f 139 158 142
f 141 144 159
f 142 158 143
f 143 158 157
f 143 157 160
f 143 160 161
f 143 161 144
f 144 161 159
f 147 162 163
f 147 163 148
f 148 163 149
f 149 163 164
f 149 164 150
f 150 164 165
f 153 166 154
f 154 166 167
f 154 167 168
f 154 168 156
f 155 169 170
f 155 170 157
f 155 156 168
f 155 168 169
f 157 170 160
f 159 161 171
f 160 170 172
f 160 172 173
f 160 173 174
f 160 174 175
f 160 175 161
f 161 175 174
f 161 174 171
f 162 176 177
f 162 177 178
f 162 178 165
f 162 165 163
f 163 165 164
f 166 179 167
f 167 179 180
f 167 180 181
f 167 181 182
f 167 182 168
f 168 182 169
f 169 182 183
f 169 183 184
f 169 184 185
f 169 185 170
f 170 185 172
f 171 174 186
f 172 185 187
f 172 187 173
f 173 188 174
f 173 187 188
f 174 188 186
f 176 189 190
f 176 190 178
f 176 178 177
f 179 191 180
f 180 191 192
f 180 192 181
f 181 193 194
f 181 194 183
f 181 183 182
f 181 192 193
f 183 194 184
f 184 195 196
f 184 196 187
f 184 187 185
f 184 194 195
f 186 188 197
f 187 196 198
f 187 198 188
f 188 198 199
f 188 199 200
f 188 200 201
f 188 201 197
f 189 202 190
f 190 202 204
f 190 204 205
f 190 205 206
f 190 206 207
f 190 207 208
f 190 208 209
f 190 209 203
f 191 210 192
f 192 210 211
f 192 211 193
f 193 212 213
f 193 213 194
f 193 211 212
f 194 213 195
f 195 213 214
f 195 214 215
f 195 215 196
f 196 215 199
f 196 199 198
f 199 216 217
f 199 217 200
f 199 215 216
f 200 217 218
f 200 218 219
f 200 219 201
f 203 209 220
f 209 221 220
f 210 222 211
f 211 222 223
f 211 223 224
f 211 224 225
f 211 225 212
f 212 225 226
f 212 226 213
f 213 226 227
f 213 227 214
f 214 227 215
f 215 228 216
f 215 227 228
f 216 229 230
f 216 230 231
f 216 231 217
f 216 228 232
f 216 232 229
f 217 231 218
f 218 231 233
f 218 233 234
f 218 234 235
f 218 235 236
f 218 236 237
f 218 237 238
f 218 238 219
f 220 221 239
f 220 239 240
f 221 241 239
f 223 242 224
f 224 242 243
f 224 243 244
f 224 244 245
f 224 245 246
f 224 246 247
f 224 247 248
f 224 248 249
f 224 249 250
f 224 250 227
f 224 227 226
f 224 226 225
f 227 250 228
f 228 250 232
f 229 251 252
f 229 252 230
f 229 232 251
f 230 252 253
f 230 253 233
f 230 233 231
f 232 250 254
f 232 254 255
f 232 255 251
f 233 253 234
f 234 253 256
f 239 257 258
f 239 258 240
f 239 241 259
f 239 259 257
f 245 260 246
f 246 260 261
f 246 261 247
f 247 262 263
f 247 263 264
f 247 264 265
f 247 265 266
f 247 266 255
f 247 255 254
f 247 254 248
f 247 261 262
f 248 254 250
f 248 250 249
f 251 255 267
f 251 267 252
f 252 268 269
f 252 269 253
f 252 267 268
f 253 269 270
f 253 270 256
f 255 271 267
f 255 266 271
f 257 272 273
f 257 273 274
f 257 274 258
f 257 259 275
f 257 275 276
f 257 276 277
f 257 277 278
f 257 278 279
f 257 279 272
f 263 280 264
f 264 280 265
f 265 280 281
f 265 281 282
f 265 282 283
f 265 283 284
f 265 284 285
f 265 285 267
f 265 267 271
f 265 271 266
f 267 284 286
f 267 286 287
f 267 287 268
f 267 285 284
f 268 287 288
f 268 288 269
f 269 288 289
f 269 289 270
f 272 279 290
f 272 290 291
f 272 291 292
f 272 292 293
f 272 293 294
f 272 294 295
f 272 295 296
f 272 296 297
f 272 297 298
f 272 298 299
f 282 300 283
f 283 300 301
f 283 301 284
f 284 302 303
f 284 303 304
f 284 304 286
f 284 301 305
f 284 305 302
f 286 304 303
f 286 303 306
f 286 306 307
f 286 307 287
f 287 307 288
f 288 307 308
f 288 308 309
f 288 309 289
f 298 310 299
f 299 310 311
f 302 305 312
f 302 312 313
f 302 313 314
f 302 314 315
f 302 315 303
f 303 315 316
f 303 316 317
f 303 317 318
f 303 318 319
f 303 319 306
f 306 319 320
f 306 320 307
f 307 320 308
f 308 320 321
f 308 321 309
f 310 322 311
f 311 322 323
f 311 323 324
f 311 324 325
f 317 326 318
f 318 326 327
f 318 327 319
f 319 327 328
f 319 328 329
f 319 329 330
f 319 330 320
f 320 330 321
f 321 330 331
f 324 332 325
f 325 332 333
f 325 333 334
f 329 335 330
f 330 335 336
f 330 336 337
f 330 337 331
f 331 337 336
f 331 336 335
f 331 335 338
f 333 339 340
f 333 340 334
f 335 341 338
f 338 341 342
f 339 343 340
f 339 342 344
f 339 344 345
f 339 345 346
f 339 346 343
f 341 344 342

