# https://github.com/mikedh/trimesh
v -0.04024622 0.00838125 0.08143134
v -0.04028388 0.00822091 0.08143134
v -0.04024622 -0.00736365 0.08143134
v -0.04024622 0.01187720 0.06984441
v -0.04088568 0.01234245 0.06932731
v -0.04207044 0.01273410 0.06932731
v -0.04207044 0.01234245 0.07051245
v -0.04325601 0.01238451 0.07051245
v -0.04401747 0.01193766 0.07130604
v -0.04442440 0.01152498 0.07169909
v -0.04438674 0.01092304 0.07285136
v -0.04474454 0.01052351 0.07322499
v -0.04505976 0.00950101 0.07469110
v -0.04514737 0.00839702 0.07594649
v -0.04630347 0.00720893 0.07594948
v -0.04632312 0.00604712 0.07714509
v -0.04742518 0.00477754 0.07705990
v -0.04621177 0.00473285 0.07821067
v -0.04647869 0.00394166 0.07842140
v -0.04622896 0.00238557 0.07940777
v -0.04636979 0.00177576 0.07953929
v -0.04557641 0.00059817 0.08033885
v -0.04514901 0.00020915 0.08063626
v -0.04525708 -0.00058992 0.08067512
v -0.04443995 -0.00058992 0.08091872
v -0.04030108 0.00809212 0.08143134
v -0.04443995 -0.00177539 0.08096654
v -0.04325601 -0.00177539 0.08120865
v -0.04063841 -0.00666183 0.08143134
v -0.04446534 -0.00411215 0.08074237
v -0.04487800 -0.00448541 0.08052118
v -0.04408870 -0.00501637 0.08066615
v -0.04446534 -0.00537911 0.08038369
v -0.04453248 -0.00660663 0.07981278
v -0.04498853 -0.00706137 0.07937340
v -0.04419923 -0.00736102 0.07956918
v -0.04354586 -0.00815221 0.07929269
v -0.04379067 -0.00945333 0.07818975
v -0.04024622 -0.00770536 0.08116382
v -0.04024622 0.01202966 0.06932731
v -0.04088568 0.01262633 0.06814216
v -0.04203851 0.01295753 0.06819597
v -0.04241268 0.01307844 0.06783728
v -0.04325601 0.01297593 0.06846797
v -0.04325601 0.01277353 0.06932731
v -0.04392904 0.01307055 0.06769680
v -0.04443995 0.01240553 0.06932731
v -0.04442440 0.01205594 0.07044371
v -0.04507286 0.01188509 0.07000283
v -0.04480676 0.01171160 0.07079342
v -0.04513181 0.01074430 0.07243589
v -0.04526691 0.00968500 0.07406640
v -0.04610778 0.00935907 0.07329672
v -0.04585888 0.00910410 0.07406640
v -0.04622978 0.00830766 0.07467765
v -0.04593748 0.00800012 0.07546825
v -0.04716236 0.00656757 0.07535167
v -0.04738588 0.00589466 0.07581198
v -0.04646886 0.00764264 0.07514394
v -0.04757747 0.00620483 0.07502139
v -0.04755128 0.00504302 0.07643669
v -0.04785667 0.00414669 0.07643669
v -0.04752016 0.00414669 0.07723027
v -0.04742109 0.00243552 0.07824056
v -0.04726880 0.00322408 0.07805674
v -0.04684795 0.00425972 0.07789981
v -0.04696258 0.00177576 0.07894597
v -0.04716563 0.00059029 0.07912680
v -0.04657285 0.00059029 0.07971863
v -0.04584987 -0.00058992 0.08039415
v -0.04527264 -0.00177539 0.08068558
v -0.04107809 0.00204649 0.08143134
v -0.04443995 -0.00296086 0.08092021
v -0.04325601 -0.00296086 0.08117727
v -0.04154643 -0.00296086 0.08143134
v -0.04156362 -0.00177539 0.08143134
v -0.04071456 -0.00651989 0.08143134
v -0.04509088 -0.00369422 0.08061533
v -0.04565419 -0.00421730 0.08003995
v -0.04548307 -0.00533179 0.07976944
v -0.04523907 -0.00627281 0.07956171
v -0.04570659 -0.00664343 0.07888469
v -0.04617410 -0.00701668 0.07815089
v -0.04533241 -0.00770273 0.07852601
v -0.04508187 -0.00834935 0.07826148
v -0.04443995 -0.00861220 0.07846474
v -0.04453248 -0.00773427 0.07911036
v -0.04510398 -0.00955059 0.07711221
v -0.04443995 -0.00976350 0.07736926
v -0.04365148 -0.01057834 0.07690895
v -0.04286137 -0.01074657 0.07712715
v -0.04300056 -0.00960316 0.07833322
v -0.04443995 -0.00920362 0.07796109
v -0.04207044 -0.01084908 0.07724372
v -0.04024622 -0.01017092 0.07848118
v -0.04024622 0.01220314 0.06859649
v -0.04024622 0.01231091 0.06814216
v -0.04024622 0.01237136 0.06753390
v -0.04088568 0.01271833 0.06695851
v -0.04173474 0.01298907 0.06695851
v -0.04232671 0.01309421 0.06695851
v -0.04325601 0.01314152 0.06695851
v -0.04325601 0.01309421 0.06787614
v -0.04394624 0.01308107 0.06695851
v -0.04453821 0.01274724 0.06695851
v -0.04437036 0.01275250 0.06811227
v -0.04611597 0.01056819 0.07077848
v -0.04591947 0.01039208 0.07169760
v -0.04532750 0.01091779 0.07169760
v -0.04518176 0.01198760 0.06932731
v -0.04634277 0.00960878 0.07250613
v -0.04561980 0.01006614 0.07286631
v -0.04639681 0.00851005 0.07406640
v -0.04702808 0.00767155 0.07408284
v -0.04732857 0.00699602 0.07448785
v -0.04778544 0.00543204 0.07535167
v -0.04748741 0.00725887 0.07369875
v -0.04770029 0.00656757 0.07408284
v -0.04820056 0.00414669 0.07525154
v -0.04813669 0.00296122 0.07643669
v -0.04763724 0.00288237 0.07764575
v -0.04789516 0.00177576 0.07762183
v -0.04749969 0.00177576 0.07835265
v -0.04761432 0.00059029 0.07853498
v -0.04722541 -0.00058992 0.07918360
v -0.04663262 -0.00058992 0.07980083
v -0.04586543 -0.00177539 0.08038219
v -0.04517930 -0.00296086 0.08065718
v -0.04099785 -0.00533179 0.08143134
v -0.04577209 -0.00296086 0.08028654
v -0.04636897 -0.00394656 0.07955872
v -0.04621750 -0.00473775 0.07939880
v -0.04607585 -0.00533179 0.07923889
v -0.04634769 -0.00622549 0.07839599
v -0.04660314 -0.00658035 0.07770254
v -0.04640254 -0.00743462 0.07736029
v -0.04617083 -0.00822318 0.07692838
v -0.04595550 -0.00777896 0.07770254
v -0.04531358 -0.00880145 0.07755309
v -0.04528983 -0.00975824 0.07643669
v -0.04516620 -0.01080965 0.07490780
v -0.04491157 -0.01057046 0.07569840
v -0.04412227 -0.01085959 0.07611985
v -0.04592111 -0.00889345 0.07649497
v -0.04325601 -0.01166918 0.07553998
v -0.04325601 -0.01104359 0.07648302
v -0.04245772 -0.01180849 0.07577761
v -0.04206552 -0.01150096 0.07635150
v -0.04024622 -0.01127227 0.07714658
v -0.04024622 -0.01100416 0.07750078
v -0.04024622 0.01241605 0.06694058
v -0.04116570 0.01274199 0.06616343
v -0.04024622 0.01240028 0.06636669
v -0.04088568 0.01265262 0.06616343
v -0.04196236 0.01294701 0.06616343
v -0.04246509 0.01307055 0.06619332
v -0.04325601 0.01307844 0.06617688
v -0.04389875 0.01306004 0.06628598
v -0.04440639 0.01266050 0.06616343
v -0.04521942 0.01205594 0.06616343
v -0.04531849 0.01215582 0.06695851
v -0.04531849 0.01213480 0.06814216
v -0.04623551 0.01068648 0.06998788
v -0.04648769 0.00980066 0.07169760
v -0.04577373 0.01135938 0.06932731
v -0.04726389 0.00807372 0.07288275
v -0.04665554 0.00893325 0.07289470
v -0.04814734 0.00533216 0.07406640
v -0.04755455 0.00747967 0.07288275
v -0.04860994 0.00128685 0.07591510
v -0.04839297 0.00172056 0.07636196
v -0.04807037 0.00059029 0.07762183
v -0.04764789 -0.00058992 0.07859177
v -0.04717546 -0.00177539 0.07909243
v -0.04658267 -0.00177539 0.07979037
v -0.04649261 -0.00296086 0.07969322
v -0.04682830 -0.00415684 0.07881296
v -0.04708457 -0.00296086 0.07892505
v -0.04740881 -0.00357331 0.07822562
v -0.04652536 -0.00533179 0.07864707
v -0.04728763 -0.00436449 0.07797155
v -0.04713370 -0.00532916 0.07759493
v -0.04746694 -0.00493226 0.07718095
v -0.04733512 -0.00572082 0.07667581
v -0.04656138 -0.00777896 0.07649497
v -0.04633295 -0.00850443 0.07613928
v -0.04609387 -0.00929299 0.07546526
v -0.04622241 -0.00948750 0.07467466
v -0.04529229 -0.01095948 0.07406640
v -0.04488864 -0.01171124 0.07288275
v -0.04465447 -0.01155090 0.07406640
v -0.04389384 -0.01187946 0.07471501
v -0.04440311 -0.01123022 0.07520671
v -0.04325601 -0.01201878 0.07494816
v -0.04206552 -0.01215809 0.07533075
v -0.04166760 -0.01188472 0.07590016
v -0.04088568 -0.01236574 0.07525154
v -0.04024622 -0.01235786 0.07525154
v -0.04024622 0.01238188 0.06616343
v -0.04243806 0.01306004 0.06616343
v -0.04325601 0.01307581 0.06616343
v -0.04378658 0.01303638 0.06616343
v -0.04402402 0.01293913 0.06616343
v -0.04572706 0.01123058 0.06616343
v -0.04595386 0.01117801 0.06695851
v -0.04629774 0.01079950 0.06814216
v -0.04591128 0.01139092 0.06814216
v -0.04628873 0.01076533 0.06932731
v -0.04650898 0.01013186 0.07043474
v -0.04704773 0.00888593 0.07169760
v -0.04789925 0.00651763 0.07288275
v -0.04814079 0.00533216 0.07288275
v -0.04832010 0.00414669 0.07406640
v -0.04758812 0.00761635 0.07169760
v -0.04737033 0.00821040 0.07169760
v -0.04860994 0.00128685 0.07560275
v -0.04860830 0.00059029 0.07591809
v -0.04845110 0.00059029 0.07651141
v -0.04811622 -0.00058992 0.07762183
v -0.04758812 -0.00177539 0.07849911
v -0.04747595 -0.00296086 0.07833322
v -0.04778380 -0.00296086 0.07762183
v -0.04754472 -0.00404118 0.07759493
v -0.04751689 -0.00532916 0.07634403
v -0.04810886 -0.00296086 0.07643669
v -0.04783784 -0.00414633 0.07643669
v -0.04741044 -0.00594950 0.07588671
v -0.04716236 -0.00641212 0.07634403
v -0.04691427 -0.00770273 0.07525154
v -0.04640991 -0.00889345 0.07514244
v -0.04626417 -0.00956373 0.07406640
v -0.04588426 -0.01015778 0.07406640
v -0.04657367 -0.00888557 0.07406640
v -0.04538972 -0.01111982 0.07288275
v -0.04497297 -0.01178747 0.07169760
v -0.04429749 -0.01217912 0.07288275
v -0.04406332 -0.01201089 0.07406640
v -0.04325601 -0.01242094 0.07406640
v -0.04207944 -0.01282311 0.07402306
v -0.04088568 -0.01288093 0.07427862
v -0.04024622 -0.01259442 0.07480468
v -0.04024622 -0.01270219 0.06616343
v -0.04618720 0.01036054 0.06656546
v -0.04624780 0.01072853 0.06735456
v -0.04609632 0.01015551 0.06616343
v -0.04655483 0.01007140 0.06814216
v -0.04705264 0.00888593 0.06932731
v -0.04712797 0.00888593 0.07051245
v -0.04662525 0.01007140 0.06932731
v -0.04785667 0.00651763 0.07169760
v -0.04795165 0.00533216 0.07169760
v -0.04821202 0.00414669 0.07288275
v -0.04840852 0.00296122 0.07406640
v -0.04845601 0.00177576 0.07406640
v -0.04856737 0.00059029 0.07498701
v -0.04860830 0.00059029 0.07558033
v -0.04859357 -0.00004582 0.07587176
v -0.04846175 -0.00050055 0.07633506
v -0.04800078 -0.00177539 0.07762183
v -0.04830372 -0.00177539 0.07643669
v -0.04816617 -0.00296086 0.07525154
v -0.04792054 -0.00414633 0.07525154
v -0.04763151 -0.00533179 0.07525154
v -0.04744156 -0.00607567 0.07525154
v -0.04726962 -0.00666972 0.07525154
v -0.04701662 -0.00770273 0.07406640
v -0.04629528 -0.00964521 0.07288275
v -0.04598170 -0.01023663 0.07288275
v -0.04659086 -0.00888557 0.07288275
v -0.04542247 -0.01119342 0.07169760
v -0.04539955 -0.01115925 0.07051245
v -0.04494104 -0.01175329 0.07051245
v -0.04434907 -0.01228163 0.07051245
v -0.04438100 -0.01225534 0.07169760
v -0.04351802 -0.01284676 0.07169760
v -0.04282698 -0.01312013 0.07256143
v -0.04323554 -0.01279945 0.07292609
v -0.04248064 -0.01299396 0.07335053
v -0.04169053 -0.01308070 0.07360160
v -0.04088568 -0.01311487 0.07368829
v -0.04024622 -0.01311224 0.07367633
v -0.04024622 -0.01287305 0.07426815
v -0.04024622 -0.01293088 0.06660880
v -0.04088568 -0.01260757 0.06616343
v -0.04615445 0.00973232 0.06616343
v -0.04622651 0.00957198 0.06633530
v -0.04649670 0.00888593 0.06695851
v -0.04682421 0.00888593 0.06814216
v -0.04728517 0.00762686 0.06943342
v -0.04763151 0.00651763 0.07051245
v -0.04766754 0.00533216 0.07051245
v -0.04796393 0.00414669 0.07169760
v -0.04823577 0.00296122 0.07288275
v -0.04846256 0.00059029 0.07406640
v -0.04839870 -0.00058992 0.07406640
v -0.04859357 -0.00004582 0.07573277
v -0.04835367 -0.00177539 0.07525154
v -0.04823495 -0.00177539 0.07406640
v -0.04802698 -0.00296086 0.07406640
v -0.04781574 -0.00414633 0.07406640
v -0.04759631 -0.00533179 0.07406640
v -0.04744074 -0.00608092 0.07406640
v -0.04729991 -0.00667234 0.07406640
v -0.04695357 -0.00770273 0.07288275
v -0.04626417 -0.00959790 0.07169760
v -0.04601445 -0.01019195 0.07169760
v -0.04651062 -0.00888557 0.07169760
v -0.04532259 -0.01106462 0.06932731
v -0.04602018 -0.00998166 0.07054683
v -0.04486080 -0.01165867 0.06932731
v -0.04426883 -0.01223432 0.06932731
v -0.04353112 -0.01287305 0.07051245
v -0.04292605 -0.01316745 0.07169760
v -0.04207044 -0.01342241 0.07169760
v -0.04207944 -0.01320687 0.07292609
v -0.04088568 -0.01339350 0.07288275
v -0.04024622 -0.01339350 0.07288275
v -0.04088568 -0.01288356 0.06670445
v -0.04024622 -0.01316745 0.06720062
v -0.04088568 -0.01313853 0.06729777
v -0.04152923 -0.01246037 0.06616343
v -0.04624288 0.00888593 0.06616343
v -0.04626826 0.00888593 0.06623368
v -0.04660969 0.00770046 0.06695851
v -0.04697814 0.00770046 0.06814216
v -0.04730810 0.00651763 0.06919579
v -0.04704036 0.00651763 0.06814216
v -0.04745957 0.00533216 0.06969645
v -0.04766017 0.00414669 0.07051245
v -0.04795493 0.00296122 0.07169760
v -0.04823331 0.00177576 0.07288275
v -0.04821448 0.00059029 0.07288275
v -0.04851824 -0.00050055 0.07530385
v -0.04813424 -0.00058992 0.07288275
v -0.04618966 -0.00681691 0.06769829
v -0.04615036 -0.00780524 0.06811377
v -0.04740963 -0.00595476 0.07343422
v -0.04621423 -0.00826786 0.06875342
v -0.04662361 -0.00770273 0.07051245
v -0.04682093 -0.00770273 0.07169760
v -0.04623388 -0.00952430 0.07096380
v -0.04635751 -0.00893814 0.07054683
v -0.04618802 -0.00936659 0.07017320
v -0.04582858 -0.01007104 0.06932731
v -0.04519240 -0.01090691 0.06814216
v -0.04471424 -0.01149833 0.06814216
v -0.04412227 -0.01207923 0.06814216
v -0.04324537 -0.01286516 0.06921821
v -0.04284417 -0.01310699 0.06953953
v -0.04293833 -0.01315430 0.07051245
v -0.04207044 -0.01343818 0.07051245
v -0.04088568 -0.01368001 0.07051245
v -0.04088568 -0.01363795 0.07169760
v -0.04024622 -0.01365372 0.07169760
v -0.04154806 -0.01305705 0.06749654
v -0.04024622 -0.01332253 0.06775359
v -0.04024622 -0.01343030 0.06814216
v -0.04088568 -0.01336984 0.06814216
v -0.04204260 -0.01231580 0.06616343
v -0.04631985 0.00770046 0.06616343
v -0.04663262 0.00651763 0.06695851
v -0.04701253 0.00533216 0.06814216
v -0.04730728 0.00533216 0.06910463
v -0.04792709 0.00177576 0.07169760
v -0.04604228 -0.00414633 0.06616343
v -0.04739734 0.00131576 0.06993856
v -0.04596122 -0.00533179 0.06616343
v -0.04607340 -0.00645943 0.06704968
v -0.04589654 -0.00770273 0.06695851
v -0.04596614 -0.00888557 0.06814216
v -0.04628791 -0.00857540 0.06954401
v -0.04614627 -0.00893814 0.06922120
v -0.04559687 -0.01007104 0.06814216
v -0.04509333 -0.01076497 0.06736651
v -0.04445960 -0.01127227 0.06694955
v -0.04396834 -0.01193729 0.06732168
v -0.04325601 -0.01258917 0.06814216
v -0.04265504 -0.01303076 0.06874893
v -0.04218425 -0.01326207 0.06921821
v -0.04088568 -0.01358801 0.06932731
v -0.04024622 -0.01371155 0.07051245
v -0.04024622 -0.01363269 0.06932731
v -0.04241350 -0.01295191 0.06814216
v -0.04199429 -0.01272585 0.06704370
v -0.04182071 -0.01314116 0.06814216
v -0.04284417 -0.01206083 0.06616343
v -0.04631985 0.00651763 0.06616343
v -0.04622896 0.00177576 0.06616343
v -0.04622487 0.00159439 0.06616343
v -0.04728517 0.00414669 0.06915395
v -0.04619621 0.00059029 0.06616343
v -0.04726143 0.00296122 0.06923316
v -0.04755128 0.00173633 0.07040485
v -0.04584087 -0.00649886 0.06616343
v -0.04567384 -0.00770273 0.06616343
v -0.04567138 -0.00888557 0.06695851
v -0.04526609 -0.01009206 0.06696599
v -0.04455540 -0.01076234 0.06616343
v -0.04427293 -0.01109616 0.06616343
v -0.04495086 -0.01050211 0.06657741
v -0.04330268 -0.01215546 0.06693908
v -0.04394706 -0.01140896 0.06616343
v -0.04372844 -0.01178221 0.06653108
v -0.04297927 -0.01200563 0.06616343
v -0.04541347 -0.00892237 0.06616343
v -0.04519486 -0.00961630 0.06616343
v -0.04514737 -0.00975561 0.06616343
v -0.04509579 -0.00987127 0.06616343
v -0.04488127 -0.01030760 0.06616343
v -0.04353767 -0.01171124 0.06616343
v -0.04310454 -0.01194255 0.06616343
f 1 2 26
f 1 26 72
f 1 72 76
f 1 76 75
f 1 75 129
f 1 129 77
f 1 77 29
f 1 29 3
f 1 3 39
f 1 39 95
f 1 95 150
f 1 150 149
f 1 149 198
f 1 198 241
f 1 241 282
f 1 282 281
f 1 281 317
f 1 317 354
f 1 354 381
f 1 381 382
f 1 382 357
f 1 357 356
f 1 356 319
f 1 319 283
f 1 283 242
f 1 242 199
f 1 199 153
f 1 153 151
f 1 151 98
f 1 98 97
f 1 97 96
f 1 96 40
f 1 40 4
f 1 4 5
f 1 5 6
f 1 6 7
f 1 7 8
f 1 8 9
f 1 9 10
f 1 10 11
f 1 11 12
f 1 12 13
f 1 13 14
f 1 14 15
f 1 15 16
f 1 16 17
f 1 17 18
f 1 18 19
f 1 19 20
f 1 20 21
f 1 21 22
f 1 22 23
f 1 23 24
f 1 24 25
f 1 25 2
f 2 25 27
f 2 27 28
f 2 28 26
f 3 29 30
f 3 30 31
f 3 31 32
f 3 32 33
f 3 33 34
f 3 34 35
f 3 35 36
f 3 36 37
f 3 37 38
f 3 38 39
f 4 40 5
f 5 40 41
f 5 41 6
f 6 41 42
f 6 42 43
f 6 43 44
f 6 44 45
f 6 45 8
f 6 8 7
f 8 45 9
f 9 45 46
f 9 46 47
f 9 47 48
f 9 48 49
f 9 49 50
f 9 50 10
f 10 50 51
f 10 51 11
f 11 51 12
f 12 51 13
f 13 52 53
f 13 53 54
f 13 54 55
f 13 55 56
f 13 56 14
f 13 51 52
f 14 56 15
f 15 57 58
f 15 58 17
f 15 17 16
f 15 56 55
f 15 55 59
f 15 59 57
f 17 58 60
f 17 60 61
f 17 61 62
f 17 62 63
f 17 63 64
f 17 64 65
f 17 65 66
f 17 66 18
f 18 66 19
f 19 66 65
f 19 65 20
f 20 65 21
f 21 65 64
f 21 64 67
f 21 67 68
f 21 68 69
f 21 69 22
f 22 69 70
f 22 70 23
f 23 70 24
f 24 70 71
f 24 71 27
f 24 27 25
f 26 28 72
f 27 71 73
f 27 73 74
f 27 74 28
f 28 74 75
f 28 75 76
f 28 76 72
f 29 77 30
f 30 78 31
f 30 77 73
f 30 73 78
f 31 78 79
f 31 79 80
f 31 80 81
f 31 81 33
f 31 33 32
f 33 81 35
f 33 35 34
f 35 81 82
f 35 82 83
f 35 83 84
f 35 84 85
f 35 85 86
f 35 86 38
f 35 38 87
f 35 87 36
f 36 87 38
f 36 38 37
f 38 88 89
f 38 89 90
f 38 90 91
f 38 91 92
f 38 92 39
f 38 86 85
f 38 85 93
f 38 93 88
f 39 92 94
f 39 94 95
f 40 96 41
f 41 96 97
f 41 97 98
f 41 98 99
f 41 99 100
f 41 100 42
f 42 100 43
f 43 101 102
f 43 102 103
f 43 103 44
f 43 100 101
f 44 103 46
f 44 46 45
f 46 103 102
f 46 102 104
f 46 104 105
f 46 105 106
f 46 106 47
f 47 106 49
f 47 49 48
f 49 107 108
f 49 108 109
f 49 109 51
f 49 51 50
f 49 106 110
f 49 110 107
f 51 109 108
f 51 108 111
f 51 111 112
f 51 112 52
f 52 112 111
f 52 111 53
f 53 111 55
f 53 55 54
f 55 113 114
f 55 114 115
f 55 115 59
f 55 111 113
f 57 59 115
f 57 115 58
f 58 115 60
f 60 116 61
f 60 115 117
f 60 117 118
f 60 118 116
f 61 116 62
f 62 119 120
f 62 120 63
f 62 116 119
f 63 120 121
f 63 121 64
f 64 121 122
f 64 122 123
f 64 123 68
f 64 68 67
f 68 123 124
f 68 124 125
f 68 125 126
f 68 126 69
f 69 126 70
f 70 126 127
f 70 127 71
f 71 127 128
f 71 128 73
f 73 128 78
f 73 77 74
f 74 77 129
f 74 129 75
f 78 128 130
f 78 130 79
f 79 130 131
f 79 131 132
f 79 132 80
f 80 132 81
f 81 132 133
f 81 133 82
f 82 133 83
f 83 133 134
f 83 134 135
f 83 135 136
f 83 136 137
f 83 137 138
f 83 138 88
f 83 88 139
f 83 139 85
f 83 85 84
f 85 139 88
f 85 88 93
f 88 140 141
f 88 141 142
f 88 142 143
f 88 143 90
f 88 90 89
f 88 138 137
f 88 137 144
f 88 144 140
f 90 143 145
f 90 145 146
f 90 146 91
f 91 94 92
f 91 146 147
f 91 147 148
f 91 148 94
f 94 148 149
f 94 149 150
f 94 150 95
f 98 151 99
f 99 152 100
f 99 151 153
f 99 153 154
f 99 154 152
f 100 152 155
f 100 155 156
f 100 156 101
f 101 156 102
f 102 156 157
f 102 157 158
f 102 158 104
f 104 158 105
f 105 158 159
f 105 159 160
f 105 160 161
f 105 161 162
f 105 162 106
f 106 162 110
f 107 110 163
f 107 163 164
f 107 164 108
f 108 164 111
f 110 162 165
f 110 165 163
f 111 164 166
f 111 166 167
f 111 167 114
f 111 114 113
f 114 167 115
f 115 167 117
f 116 118 168
f 116 168 119
f 117 169 118
f 117 167 166
f 117 166 169
f 118 169 168
f 119 170 120
f 119 168 170
f 120 170 171
f 120 171 122
f 120 122 121
f 122 171 172
f 122 172 124
f 122 124 123
f 124 172 173
f 124 173 125
f 125 173 174
f 125 174 175
f 125 175 126
f 126 175 127
f 127 175 176
f 127 176 130
f 127 130 128
f 130 176 131
f 131 177 132
f 131 176 178
f 131 178 179
f 131 179 177
f 132 180 134
f 132 134 133
f 132 177 180
f 134 180 181
f 134 181 135
f 135 181 182
f 135 182 183
f 135 183 136
f 136 183 184
f 136 184 185
f 136 185 186
f 136 186 137
f 137 186 144
f 140 144 187
f 140 187 141
f 141 187 188
f 141 188 189
f 141 189 190
f 141 190 191
f 141 191 192
f 141 192 193
f 141 193 142
f 142 193 143
f 143 193 192
f 143 192 145
f 144 186 187
f 145 192 194
f 145 194 147
f 145 147 146
f 147 194 195
f 147 195 196
f 147 196 148
f 148 196 149
f 149 196 197
f 149 197 198
f 152 154 199
f 152 199 242
f 152 242 284
f 152 284 321
f 152 321 359
f 152 359 386
f 152 386 404
f 152 404 411
f 152 411 410
f 152 410 402
f 152 402 399
f 152 399 398
f 152 398 409
f 152 409 408
f 152 408 407
f 152 407 406
f 152 406 405
f 152 405 395
f 152 395 394
f 152 394 367
f 152 367 365
f 152 365 391
f 152 391 389
f 152 389 388
f 152 388 387
f 152 387 360
f 152 360 322
f 152 322 285
f 152 285 245
f 152 245 204
f 152 204 160
f 152 160 159
f 152 159 203
f 152 203 202
f 152 202 201
f 152 201 200
f 152 200 155
f 153 199 154
f 155 200 156
f 156 200 201
f 156 201 157
f 157 201 158
f 158 201 202
f 158 202 203
f 158 203 159
f 160 204 205
f 160 205 161
f 161 205 206
f 161 206 207
f 161 207 162
f 162 207 208
f 162 208 165
f 163 165 208
f 163 208 209
f 163 209 164
f 164 209 210
f 164 210 166
f 166 210 169
f 168 169 211
f 168 211 212
f 168 212 213
f 168 213 170
f 169 214 211
f 169 210 215
f 169 215 214
f 170 213 216
f 170 216 256
f 170 256 217
f 170 217 218
f 170 218 172
f 170 172 171
f 172 218 219
f 172 219 173
f 173 219 220
f 173 220 174
f 174 220 178
f 174 178 176
f 174 176 175
f 177 179 180
f 178 221 179
f 178 220 221
f 179 221 222
f 179 222 223
f 179 223 183
f 179 183 181
f 179 181 180
f 181 183 182
f 183 224 184
f 183 223 222
f 183 222 225
f 183 225 226
f 183 226 224
f 184 227 228
f 184 228 185
f 184 224 227
f 185 228 229
f 185 229 186
f 186 230 188
f 186 188 187
f 186 229 230
f 188 231 232
f 188 232 189
f 188 230 229
f 188 229 233
f 188 233 231
f 189 234 190
f 189 232 234
f 190 234 235
f 190 235 236
f 190 236 191
f 191 236 237
f 191 237 192
f 192 237 238
f 192 238 194
f 194 238 239
f 194 239 195
f 195 197 196
f 195 239 240
f 195 240 197
f 197 240 198
f 198 240 241
f 204 243 244
f 204 244 205
f 204 245 243
f 205 244 206
f 206 208 207
f 206 244 246
f 206 246 247
f 206 247 248
f 206 248 249
f 206 249 208
f 208 249 248
f 208 248 210
f 208 210 209
f 210 248 215
f 211 214 250
f 211 250 212
f 212 250 251
f 212 251 252
f 212 252 253
f 212 253 213
f 213 253 216
f 214 215 248
f 214 248 247
f 214 247 250
f 216 253 254
f 216 254 255
f 216 255 256
f 217 256 296
f 217 296 257
f 217 257 258
f 217 258 218
f 218 258 219
f 219 258 259
f 219 259 220
f 220 259 221
f 221 259 222
f 222 259 225
f 224 226 227
f 225 259 260
f 225 260 261
f 225 261 262
f 225 262 226
f 226 262 263
f 226 263 264
f 226 264 227
f 227 264 265
f 227 265 229
f 227 229 228
f 229 265 266
f 229 266 233
f 231 267 268
f 231 268 232
f 231 233 267
f 232 268 234
f 233 266 269
f 233 269 267
f 234 270 235
f 234 268 270
f 235 270 271
f 235 271 272
f 235 272 273
f 235 273 274
f 235 274 236
f 236 274 275
f 236 275 276
f 236 276 277
f 236 277 237
f 237 277 238
f 238 277 276
f 238 276 278
f 238 278 239
f 239 278 279
f 239 279 240
f 240 279 280
f 240 280 281
f 240 281 282
f 240 282 241
f 242 283 284
f 243 245 285
f 243 285 286
f 243 286 287
f 243 287 288
f 243 288 247
f 243 247 246
f 243 246 244
f 247 288 289
f 247 289 250
f 250 289 290
f 250 290 251
f 251 290 291
f 251 291 292
f 251 292 293
f 251 293 252
f 252 293 254
f 252 254 253
f 254 293 294
f 254 294 255
f 255 294 295
f 255 295 296
f 255 296 256
f 257 296 297
f 257 297 260
f 257 260 258
f 258 260 259
f 260 297 261
f 261 297 298
f 261 298 299
f 261 299 300
f 261 300 301
f 261 301 262
f 262 301 302
f 262 302 303
f 262 303 263
f 263 303 264
f 264 303 266
f 264 266 265
f 266 304 269
f 266 303 304
f 267 305 306
f 267 306 268
f 267 269 305
f 268 306 270
f 269 304 307
f 269 307 305
f 270 306 271
f 271 308 272
f 271 306 309
f 271 309 308
f 272 308 310
f 272 310 311
f 272 311 273
f 273 311 312
f 273 312 274
f 274 312 275
f 275 312 313
f 275 313 276
f 276 313 314
f 276 314 315
f 276 315 278
f 278 315 279
f 279 315 316
f 279 316 280
f 280 316 317
f 280 317 281
f 283 318 284
f 283 319 320
f 283 320 318
f 284 318 321
f 285 322 323
f 285 323 286
f 286 323 287
f 287 323 324
f 287 324 325
f 287 325 288
f 288 325 289
f 289 325 290
f 290 325 326
f 290 326 291
f 291 326 327
f 291 327 328
f 291 328 292
f 292 329 330
f 292 330 331
f 292 331 293
f 292 328 329
f 293 331 294
f 294 331 332
f 294 332 295
f 295 298 297
f 295 297 333
f 295 333 296
f 295 332 334
f 295 334 335
f 295 335 336
f 295 336 298
f 296 333 297
f 298 337 299
f 298 336 338
f 298 338 339
f 298 339 340
f 298 340 337
f 299 337 300
f 300 337 301
f 301 337 302
f 302 337 304
f 302 304 303
f 304 337 340
f 304 340 307
f 305 341 309
f 305 309 306
f 305 307 341
f 307 342 343
f 307 343 341
f 307 340 342
f 308 309 344
f 308 344 345
f 308 345 310
f 309 341 343
f 309 343 344
f 310 345 346
f 310 346 347
f 310 347 311
f 311 347 348
f 311 348 312
f 312 348 349
f 312 349 350
f 312 350 313
f 313 350 351
f 313 351 314
f 314 351 352
f 314 352 353
f 314 353 315
f 315 353 316
f 316 353 354
f 316 354 317
f 318 320 355
f 318 355 321
f 319 356 320
f 320 356 357
f 320 357 358
f 320 358 355
f 321 355 359
f 322 360 324
f 322 324 323
f 324 360 361
f 324 361 327
f 324 327 325
f 325 327 326
f 327 361 362
f 327 362 363
f 327 363 328
f 328 363 329
f 329 363 330
f 330 364 332
f 330 332 331
f 330 363 364
f 332 365 334
f 332 364 366
f 332 366 365
f 334 365 367
f 334 367 368
f 334 368 335
f 335 368 369
f 335 369 336
f 336 369 370
f 336 370 338
f 338 370 371
f 338 371 339
f 339 371 340
f 340 371 342
f 342 371 372
f 342 372 343
f 343 372 344
f 344 372 370
f 344 370 373
f 344 373 345
f 345 373 374
f 345 374 346
f 346 375 376
f 346 376 347
f 346 374 375
f 347 376 377
f 347 377 348
f 348 378 349
f 348 377 378
f 349 378 379
f 349 379 351
f 349 351 350
f 351 380 352
f 351 379 380
f 352 381 353
f 352 380 382
f 352 382 381
f 353 381 354
f 355 383 384
f 355 384 359
f 355 358 385
f 355 385 383
f 357 382 380
f 357 380 358
f 358 379 385
f 358 380 379
f 359 384 386
f 360 387 361
f 361 387 388
f 361 388 389
f 361 389 362
f 362 390 363
f 362 389 391
f 362 391 365
f 362 365 390
f 363 390 364
f 364 390 392
f 364 392 393
f 364 393 366
f 365 366 392
f 365 392 390
f 366 393 392
f 367 394 368
f 368 394 369
f 369 395 396
f 369 396 370
f 369 394 395
f 370 372 371
f 370 396 373
f 373 397 374
f 373 396 397
f 374 398 399
f 374 399 375
f 374 397 400
f 374 400 398
f 375 399 376
f 376 401 377
f 376 399 402
f 376 402 403
f 376 403 401
f 377 401 383
f 377 383 378
f 378 383 385
f 378 385 379
f 383 401 384
f 384 401 386
f 386 401 404
f 395 405 396
f 396 405 406
f 396 406 397
f 397 406 407
f 397 407 408
f 397 408 400
f 398 400 409
f 400 408 409
f 401 403 404
f 402 410 403
f 403 410 411
f 403 411 404

