# https://github.com/mikedh/trimesh
v 0.03012541 -0.00506271 0.05641172
v 0.03021990 -0.00506131 0.05641172
v 0.03021990 -0.00480763 0.05703511
v 0.03012541 -0.00483146 0.05697583
v 0.03012541 0.00911065 0.05641172
v 0.03036210 -0.00505290 0.05641172
v 0.03012541 -0.00480623 0.05703244
v 0.03102722 -0.00477960 0.05697583
v 0.03021990 -0.00452033 0.05762785
v 0.03012541 -0.00454275 0.05757724
v 0.03012541 0.00855706 0.05746002
v 0.03023366 0.00914148 0.05641172
v 0.03137858 -0.00492816 0.05641172
v 0.03181710 -0.00470532 0.05678868
v 0.03141528 -0.00449930 0.05741340
v 0.03012541 -0.00451612 0.05762519
v 0.03140518 -0.00387283 0.05851364
v 0.03012541 -0.00130249 0.06321566
v 0.03027311 0.00857247 0.05750930
v 0.03012541 0.00823471 0.05797884
v 0.03070429 0.00833001 0.05812336
v 0.03140518 0.00925500 0.05641172
v 0.03140518 0.00876308 0.05747667
v 0.03146940 -0.00491135 0.05641172
v 0.03257946 -0.00463805 0.05641172
v 0.03269322 -0.00460442 0.05641172
v 0.03259047 -0.00418537 0.05747667
v 0.03259047 -0.00372988 0.05832783
v 0.03331613 -0.00361776 0.05816599
v 0.03377483 -0.00252740 0.05944605
v 0.03438307 -0.00237744 0.05926557
v 0.03453261 -0.00126885 0.06052765
v 0.03532157 -0.00104741 0.06027856
v 0.03487663 -0.00054708 0.06098320
v 0.03522158 0.00026439 0.06143875
v 0.03568027 0.00105483 0.06170182
v 0.03495920 0.00177801 0.06222597
v 0.03367942 0.00187891 0.06262424
v 0.03322072 0.00234001 0.06281472
v 0.03113914 0.00187051 0.06321566
v 0.03012541 0.00467911 0.06321566
v 0.03012541 0.00801327 0.05830718
v 0.03027311 0.00788153 0.05857558
v 0.03140518 0.00741904 0.05966117
v 0.03140518 0.00801047 0.05879203
v 0.03140518 0.00837066 0.05819929
v 0.03251891 0.00918913 0.05641172
v 0.03259047 0.00875327 0.05747667
v 0.03259047 0.00837626 0.05821394
v 0.03275560 -0.00458199 0.05641172
v 0.03373722 -0.00377613 0.05743737
v 0.03410693 -0.00342996 0.05780634
v 0.03485003 -0.00256664 0.05859090
v 0.03373722 -0.00313284 0.05860089
v 0.03517204 -0.00214619 0.05893922
v 0.03619127 -0.00065079 0.05989960
v 0.03581330 -0.00025697 0.06064820
v 0.03577936 -0.00135574 0.05948934
v 0.03614173 0.00060635 0.06102849
v 0.03693345 0.00094832 0.06061889
v 0.03644447 0.00177801 0.06139279
v 0.03585183 0.00177801 0.06180772
v 0.03597660 0.00296227 0.06189163
v 0.03495920 0.00296227 0.06235851
v 0.03322072 0.00242830 0.06281472
v 0.03113914 0.00220126 0.06321566
v 0.03112262 0.00262171 0.06321566
v 0.03367942 0.00287818 0.06268818
v 0.03495920 0.00414654 0.06208478
v 0.03495920 0.00492157 0.06172780
v 0.03377483 0.00574845 0.06150602
v 0.03377483 0.00640575 0.06091327
v 0.03259047 0.00704063 0.06035316
v 0.03259047 0.00744567 0.05976108
v 0.03259047 0.00803710 0.05880669
v 0.03365465 0.00900413 0.05641172
v 0.03336384 0.00833842 0.05814268
v 0.03376566 0.00853884 0.05752795
v 0.03377391 0.00898451 0.05641172
v 0.03377116 -0.00419938 0.05641172
v 0.03447389 -0.00361356 0.05701646
v 0.03490507 -0.00317209 0.05743737
v 0.03561973 -0.00241948 0.05814867
v 0.03656924 -0.00104601 0.05905644
v 0.03696831 -0.00025557 0.05952065
v 0.03660318 0.00015928 0.06031053
v 0.03799855 0.00104222 0.05939544
v 0.03771966 0.00177801 0.06017933
v 0.03712702 0.00177801 0.06080005
v 0.03734628 0.00060075 0.05985232
v 0.03656924 0.00296227 0.06149469
v 0.03578303 0.00414654 0.06177242
v 0.03556468 0.00475059 0.06163189
v 0.03495920 0.00551440 0.06131154
v 0.03495920 0.00619553 0.06071879
v 0.03377483 0.00699859 0.06026324
v 0.03377483 0.00735317 0.05967116
v 0.03376566 0.00798384 0.05858757
v 0.03415372 0.00824312 0.05795686
v 0.03475554 0.00841971 0.05716698
v 0.03506653 0.00860611 0.05641172
v 0.03389134 -0.00414332 0.05641172
v 0.03519038 -0.00345799 0.05641172
v 0.03469682 -0.00374390 0.05641172
v 0.03538579 -0.00334027 0.05641172
v 0.03585000 -0.00257645 0.05747667
v 0.03667199 -0.00232138 0.05677869
v 0.03644264 -0.00213217 0.05747667
v 0.03687932 -0.00131090 0.05826655
v 0.03775819 0.00025178 0.05895454
v 0.03731875 -0.00055969 0.05861088
v 0.03796827 -0.00007477 0.05816465
v 0.03815543 0.00062598 0.05860022
v 0.03860220 0.00177801 0.05866150
v 0.03812515 0.00177801 0.05958725
v 0.03784259 0.00296227 0.06033318
v 0.03724995 0.00296227 0.06090195
v 0.03709949 0.00414654 0.06076941
v 0.03637475 0.00414654 0.06136216
v 0.03686006 0.00491036 0.06056428
v 0.03601971 0.00522569 0.06093858
v 0.03568394 0.00600212 0.06052232
v 0.03503993 0.00683602 0.05985631
v 0.03469957 0.00723124 0.05946936
v 0.03503993 0.00752695 0.05875873
v 0.03507387 0.00816323 0.05752795
v 0.03554450 0.00829217 0.05687660
v 0.03508030 0.00860190 0.05641172
v 0.03620228 -0.00280349 0.05641172
v 0.03629126 -0.00274183 0.05641172
v 0.03739582 -0.00182244 0.05641439
v 0.03790589 -0.00116094 0.05683930
v 0.03712794 -0.00153934 0.05747667
v 0.03772057 -0.00092688 0.05747667
v 0.03810955 -0.00033405 0.05747667
v 0.03858752 0.00059374 0.05747667
v 0.03900035 0.00171074 0.05753994
v 0.03908200 0.00269459 0.05797684
v 0.03885357 0.00303795 0.05855027
v 0.03821689 0.00296227 0.05974109
v 0.03809579 0.00414654 0.05954928
v 0.03769214 0.00414654 0.06014137
v 0.03795543 0.00479403 0.05930220
v 0.03724811 0.00524672 0.05974309
v 0.03647475 0.00570080 0.06018332
v 0.03610503 0.00624739 0.05981236
v 0.03548854 0.00708268 0.05921828
v 0.03587935 0.00734055 0.05842773
v 0.03565734 0.00836925 0.05641172
v 0.03622246 0.00755919 0.05752729
v 0.03690042 0.00723544 0.05716564
v 0.03613714 0.00804130 0.05641172
v 0.03735729 -0.00185468 0.05641172
v 0.03739582 -0.00182244 0.05641172
v 0.03746003 -0.00174256 0.05641172
v 0.03827469 -0.00072507 0.05641172
v 0.03829487 -0.00068583 0.05641172
v 0.03891320 0.00060075 0.05641172
v 0.03908475 0.00127207 0.05677536
v 0.03918750 0.00206251 0.05718696
v 0.03948015 0.00284034 0.05641172
v 0.03949667 0.00296928 0.05641172
v 0.03922328 0.00303795 0.05753994
v 0.03911228 0.00348363 0.05808140
v 0.03911228 0.00357052 0.05808140
v 0.03868477 0.00403722 0.05855027
v 0.03896274 0.00435957 0.05772909
v 0.03809396 0.00524672 0.05854628
v 0.03792516 0.00592784 0.05807408
v 0.03763617 0.00558448 0.05886463
v 0.03684538 0.00601614 0.05939411
v 0.03666924 0.00705325 0.05795619
v 0.03764718 0.00685844 0.05641172
v 0.03706464 0.00736858 0.05641172
v 0.03895723 0.00070586 0.05641172
v 0.03926823 0.00164346 0.05641172
v 0.03929300 0.00173877 0.05641172
v 0.03939392 0.00413533 0.05641172
v 0.03918934 0.00403722 0.05739075
v 0.03913062 0.00477581 0.05693853
v 0.03802699 0.00605398 0.05747667
v 0.03727656 0.00618432 0.05854628
v 0.03819212 0.00625860 0.05641172
v 0.03918658 0.00487392 0.05641172
v 0.03878476 0.00546115 0.05641172
f 1 2 3
f 1 3 4
f 1 4 7
f 1 7 10
f 1 10 16
f 1 16 18
f 1 18 41
f 1 41 42
f 1 42 20
f 1 20 11
f 1 11 5
f 1 5 12
f 1 12 22
f 1 22 47
f 1 47 76
f 1 76 79
f 1 79 101
f 1 101 128
f 1 128 149
f 1 149 152
f 1 152 174
f 1 174 173
f 1 173 183
f 1 183 185
f 1 185 184
f 1 184 178
f 1 178 162
f 1 162 161
f 1 161 177
f 1 177 176
f 1 176 175
f 1 175 158
f 1 158 157
f 1 157 156
f 1 156 155
f 1 155 154
f 1 154 153
f 1 153 130
f 1 130 129
f 1 129 105
f 1 105 103
f 1 103 104
f 1 104 102
f 1 102 80
f 1 80 50
f 1 50 26
f 1 26 25
f 1 25 24
f 1 24 13
f 1 13 6
f 1 6 2
f 2 6 3
f 3 7 4
f 3 6 8
f 3 8 9
f 3 9 10
f 3 10 7
f 5 11 12
f 6 13 8
f 8 14 15
f 8 15 9
f 8 13 14
f 9 16 10
f 9 15 17
f 9 17 18
f 9 18 16
f 11 19 12
f 11 20 21
f 11 21 19
f 12 19 21
f 12 21 23
f 12 23 22
f 13 24 14
f 14 24 25
f 14 25 26
f 14 26 27
f 14 27 15
f 15 27 28
f 15 28 17
f 17 28 18
f 18 28 29
f 18 29 30
f 18 30 31
f 18 31 32
f 18 32 33
f 18 33 34
f 18 34 35
f 18 35 36
f 18 36 37
f 18 37 38
f 18 38 39
f 18 39 40
f 18 40 66
f 18 66 67
f 18 67 41
f 20 42 43
f 20 43 21
f 21 44 45
f 21 45 46
f 21 46 23
f 21 43 41
f 21 41 44
f 22 23 48
f 22 48 47
f 23 46 49
f 23 49 48
f 26 50 27
f 27 51 29
f 27 29 28
f 27 50 51
f 29 51 52
f 29 52 53
f 29 53 54
f 29 54 30
f 30 54 31
f 31 54 53
f 31 53 55
f 31 55 33
f 31 33 32
f 33 56 57
f 33 57 34
f 33 55 58
f 33 58 56
f 34 57 35
f 35 57 36
f 36 57 59
f 36 59 60
f 36 60 61
f 36 61 62
f 36 62 37
f 37 62 63
f 37 63 64
f 37 64 39
f 37 39 38
f 39 64 65
f 39 65 66
f 39 66 40
f 41 67 68
f 41 68 64
f 41 64 69
f 41 69 70
f 41 70 71
f 41 71 72
f 41 72 73
f 41 73 44
f 41 43 42
f 44 73 74
f 44 74 45
f 45 75 46
f 45 74 75
f 46 75 49
f 47 48 76
f 48 49 77
f 48 77 78
f 48 78 79
f 48 79 76
f 49 75 77
f 50 80 51
f 51 81 52
f 51 80 81
f 52 81 82
f 52 82 83
f 52 83 53
f 53 83 55
f 55 83 58
f 56 58 84
f 56 84 85
f 56 85 86
f 56 86 57
f 57 86 59
f 58 83 84
f 59 86 60
f 60 87 88
f 60 88 89
f 60 89 61
f 60 86 90
f 60 90 87
f 61 89 91
f 61 91 62
f 62 91 63
f 63 91 92
f 63 92 64
f 64 68 65
f 64 92 69
f 65 67 66
f 65 68 67
f 69 92 93
f 69 93 70
f 70 93 94
f 70 94 71
f 71 94 95
f 71 95 72
f 72 95 96
f 72 96 73
f 73 96 74
f 74 96 75
f 75 96 77
f 77 96 97
f 77 97 98
f 77 98 99
f 77 99 78
f 78 99 100
f 78 100 79
f 79 100 101
f 80 102 81
f 81 103 82
f 81 102 104
f 81 104 103
f 82 103 105
f 82 105 83
f 83 105 106
f 83 106 107
f 83 107 108
f 83 108 109
f 83 109 84
f 84 109 85
f 85 110 90
f 85 90 86
f 85 109 111
f 85 111 110
f 87 90 110
f 87 110 112
f 87 112 113
f 87 113 114
f 87 114 115
f 87 115 88
f 88 115 116
f 88 116 89
f 89 116 117
f 89 117 91
f 91 117 118
f 91 118 119
f 91 119 92
f 92 119 93
f 93 120 121
f 93 121 122
f 93 122 94
f 93 119 120
f 94 122 95
f 95 122 123
f 95 123 96
f 96 124 97
f 96 123 124
f 97 124 98
f 98 124 99
f 99 124 125
f 99 125 126
f 99 126 100
f 100 126 127
f 100 127 101
f 101 127 128
f 105 129 106
f 106 129 107
f 107 129 130
f 107 130 131
f 107 131 132
f 107 132 133
f 107 133 108
f 108 133 109
f 109 133 132
f 109 132 134
f 109 134 111
f 110 111 134
f 110 134 112
f 112 134 132
f 112 132 135
f 112 135 113
f 113 136 114
f 113 135 136
f 114 136 137
f 114 137 138
f 114 138 139
f 114 139 115
f 115 139 140
f 115 140 116
f 116 140 141
f 116 141 142
f 116 142 118
f 116 118 117
f 118 142 120
f 118 120 119
f 120 142 143
f 120 143 144
f 120 144 145
f 120 145 121
f 121 145 122
f 122 146 147
f 122 147 123
f 122 145 146
f 123 147 124
f 124 147 125
f 125 147 148
f 125 148 126
f 126 148 127
f 127 149 128
f 127 148 150
f 127 150 151
f 127 151 152
f 127 152 149
f 130 153 131
f 131 153 154
f 131 154 155
f 131 155 132
f 132 156 157
f 132 157 136
f 132 136 135
f 132 155 156
f 136 158 159
f 136 159 137
f 136 157 158
f 137 160 138
f 137 159 160
f 138 161 162
f 138 162 163
f 138 163 164
f 138 164 139
f 138 160 161
f 139 164 140
f 140 164 165
f 140 165 141
f 141 143 142
f 141 165 166
f 141 166 143
f 143 166 167
f 143 167 168
f 143 168 169
f 143 169 170
f 143 170 144
f 144 170 171
f 144 171 145
f 145 171 146
f 146 171 147
f 147 171 148
f 148 172 150
f 148 171 172
f 150 172 151
f 151 172 169
f 151 169 173
f 151 173 174
f 151 174 152
f 158 175 159
f 159 175 176
f 159 176 177
f 159 177 160
f 160 177 161
f 162 178 165
f 162 165 164
f 162 164 163
f 165 178 179
f 165 179 180
f 165 180 167
f 165 167 166
f 167 180 168
f 168 180 169
f 169 181 173
f 169 172 182
f 169 182 171
f 169 171 170
f 169 180 181
f 171 182 172
f 173 181 183
f 178 184 180
f 178 180 179
f 180 184 185
f 180 185 181
f 181 185 183

