# https://github.com/mikedh/trimesh
v 0.02514788 -0.01841755 0.06616343
v 0.02514788 -0.01837093 0.06612044
v 0.02517995 -0.01837093 0.06616343
v 0.02514788 0.01821542 0.06616343
v 0.02514788 -0.01753185 0.06542389
v 0.02578989 -0.01747447 0.06616343
v 0.02521415 0.01813653 0.06616343
v 0.02514788 0.01807199 0.06598280
v 0.02514788 -0.01696528 0.06496828
v 0.02622953 -0.01679316 0.06616343
v 0.02577564 0.01746598 0.06616343
v 0.02557114 0.01729027 0.06564030
v 0.02514788 0.01757714 0.06536936
v 0.02514788 -0.01684695 0.06487623
v 0.02590461 -0.01631624 0.06538811
v 0.02673758 -0.01597200 0.06616343
v 0.02620174 0.01694245 0.06616343
v 0.02625233 0.01681694 0.06608553
v 0.02599653 0.01648704 0.06529549
v 0.02514788 0.01690300 0.06459606
v 0.02514788 -0.01572817 0.06401695
v 0.02614616 -0.01552377 0.06508745
v 0.02701548 -0.01492852 0.06571186
v 0.02704398 -0.01547357 0.06616343
v 0.02628226 0.01684204 0.06616343
v 0.02635280 0.01675240 0.06616343
v 0.02725418 0.01559058 0.06616343
v 0.02576067 0.01605316 0.06452709
v 0.02514788 0.01646194 0.06412111
v 0.02708032 0.01515311 0.06543803
v 0.02629010 0.01569816 0.06488200
v 0.02514788 -0.01513292 0.06358557
v 0.02587824 -0.01481019 0.06423307
v 0.02636492 -0.01481019 0.06482545
v 0.02718007 -0.01525125 0.06616343
v 0.02717865 -0.01406792 0.06527673
v 0.02749360 -0.01460938 0.06606677
v 0.02738672 0.01540771 0.06616343
v 0.02600009 0.01530730 0.06409226
v 0.02514788 0.01590614 0.06356278
v 0.02667844 0.01483397 0.06457009
v 0.02809000 0.01442160 0.06616343
v 0.02735251 0.01436064 0.06504763
v 0.02514788 -0.01479943 0.06334954
v 0.02523410 -0.01474206 0.06341158
v 0.02605995 -0.01419342 0.06400916
v 0.02754561 -0.01464883 0.06616343
v 0.02805081 -0.01375954 0.06616343
v 0.02838286 -0.01173712 0.06525048
v 0.02844913 -0.01302444 0.06616343
v 0.02832657 -0.01325752 0.06616343
v 0.02627656 0.01451483 0.06371195
v 0.02575640 0.01486983 0.06335098
v 0.02555617 0.01500609 0.06321595
v 0.02514788 0.01555473 0.06321595
v 0.02834652 0.01402357 0.06616343
v 0.02820544 0.01372236 0.06571648
v 0.02706678 0.01388731 0.06425788
v 0.02514788 -0.01461655 0.06322518
v 0.02514788 -0.01460221 0.06321595
v 0.02576067 -0.01373085 0.06339484
v 0.02858665 -0.01094824 0.06501012
v 0.02903698 -0.01126379 0.06576784
v 0.02860161 -0.01273399 0.06616343
v 0.02582979 0.01461882 0.06321595
v 0.02635850 0.01378690 0.06321595
v 0.02858166 0.01360761 0.06616343
v 0.02836861 0.01290479 0.06528452
v 0.02752922 0.01354665 0.06462664
v 0.02729408 0.01309842 0.06394625
v 0.02561460 -0.01370575 0.06321595
v 0.02964265 -0.01067930 0.06616343
v 0.02828168 -0.01006971 0.06417391
v 0.02879970 -0.01006971 0.06476601
v 0.02939255 -0.01006971 0.06547756
v 0.02953363 -0.01089804 0.06616343
v 0.02874555 -0.01245071 0.06616343
v 0.02707034 0.01244221 0.06321595
v 0.02876265 0.01328130 0.06616343
v 0.02864152 0.01339246 0.06607456
v 0.02918519 0.01251393 0.06616343
v 0.02900777 0.01239560 0.06581025
v 0.02858523 0.01211232 0.06498242
v 0.02829165 0.01153500 0.06419267
v 0.02746866 0.01244221 0.06372609
v 0.02582908 -0.01327186 0.06321595
v 0.02745084 -0.01102713 0.06377976
v 0.02977803 -0.01038167 0.06616343
v 0.02842989 -0.00944935 0.06400771
v 0.02719646 -0.01050359 0.06321595
v 0.02956498 -0.00930234 0.06526086
v 0.02984715 -0.01006971 0.06606994
v 0.02758552 0.01141666 0.06321595
v 0.02943672 0.01205136 0.06616343
v 0.02976592 0.01139515 0.06616343
v 0.02938970 0.01125530 0.06552257
v 0.02956285 0.01052737 0.06527039
v 0.02875054 0.01118717 0.06458740
v 0.02848191 0.01074611 0.06394423
v 0.02991342 -0.01007688 0.06616343
v 0.02750785 -0.00982945 0.06321595
v 0.02789334 -0.00895809 0.06321595
v 0.02807646 -0.00898678 0.06342312
v 0.02816268 -0.00829113 0.06321595
v 0.02831232 -0.00791462 0.06321595
v 0.02858166 -0.00865688 0.06383228
v 0.02738386 -0.01010915 0.06321595
v 0.03039938 -0.00888996 0.06616343
v 0.02875410 -0.00769946 0.06363203
v 0.02934552 -0.00769946 0.06432829
v 0.02970108 -0.00850986 0.06508831
v 0.03069580 -0.00810466 0.06616343
v 0.02771378 0.01114414 0.06321595
v 0.02987708 0.01116565 0.06616343
v 0.03059462 0.00967753 0.06616343
v 0.02974668 0.00973849 0.06501762
v 0.02863225 0.01007197 0.06376418
v 0.02818691 0.01007197 0.06321595
v 0.02798882 -0.00872502 0.06321595
v 0.02838999 -0.00769946 0.06321595
v 0.02854532 -0.00725482 0.06321595
v 0.02963980 -0.00596392 0.06398001
v 0.02950727 -0.00675280 0.06413554
v 0.02983860 -0.00769946 0.06492038
v 0.03050341 -0.00780704 0.06579583
v 0.03088463 -0.00752017 0.06616343
v 0.03090030 0.00888506 0.06616343
v 0.03050413 0.00888506 0.06560856
v 0.02991200 0.00888506 0.06480179
v 0.02945881 0.00888506 0.06420941
v 0.03112191 0.00262059 0.06321595
v 0.02875695 -0.00661295 0.06321595
v 0.03074924 -0.00565553 0.06526490
v 0.03062526 -0.00651614 0.06542158
v 0.02995903 -0.00641932 0.06455306
v 0.02914102 -0.00533281 0.06321595
v 0.02920372 -0.00533281 0.06328577
v 0.03113758 0.00186756 0.06321595
v 0.03091242 -0.00743053 0.06616343
v 0.03093949 0.00877390 0.06616343
v 0.03132142 0.00763001 0.06616343
v 0.03152450 0.00700249 0.06616343
v 0.03167342 0.00651482 0.06616343
v 0.03179171 0.00612396 0.06616343
v 0.03189502 0.00574745 0.06616343
v 0.03204466 0.00517012 0.06616343
v 0.03213801 0.00472907 0.06616343
v 0.03225486 0.00414816 0.06616343
v 0.03227125 0.00401548 0.06616343
v 0.03238455 0.00296125 0.06616343
v 0.03113829 0.00220105 0.06321595
v 0.03149172 -0.00531129 0.06616343
v 0.03106775 -0.00651614 0.06601426
v 0.03096087 -0.00726558 0.06616343
v 0.03242730 0.00177433 0.06616343
v 0.03240379 0.00059100 0.06616343
v 0.03238954 0.00033999 0.06616343
v 0.03232825 -0.00059232 0.06616343
v 0.03220000 -0.00177565 0.06616343
v 0.03219002 -0.00183661 0.06616343
v 0.03213872 -0.00214499 0.06616343
v 0.03202827 -0.00280479 0.06616343
v 0.03200048 -0.00296257 0.06616343
v 0.03190856 -0.00344307 0.06616343
v 0.03183659 -0.00379448 0.06616343
v 0.03174397 -0.00423554 0.06616343
v 0.03116965 -0.00653407 0.06616343
f 1 2 3
f 1 3 6
f 1 6 10
f 1 10 16
f 1 16 24
f 1 24 35
f 1 35 47
f 1 47 48
f 1 48 51
f 1 51 50
f 1 50 64
f 1 64 77
f 1 77 76
f 1 76 72
f 1 72 88
f 1 88 100
f 1 100 108
f 1 108 112
f 1 112 126
f 1 126 139
f 1 139 154
f 1 154 167
f 1 167 152
f 1 152 166
f 1 166 165
f 1 165 164
f 1 164 163
f 1 163 162
f 1 162 161
f 1 161 160
f 1 160 159
f 1 159 158
f 1 158 157
f 1 157 156
f 1 156 155
f 1 155 150
f 1 150 149
f 1 149 148
f 1 148 147
f 1 147 146
f 1 146 145
f 1 145 144
f 1 144 143
f 1 143 142
f 1 142 141
f 1 141 140
f 1 140 127
f 1 127 115
f 1 115 114
f 1 114 95
f 1 95 94
f 1 94 81
f 1 81 79
f 1 79 67
f 1 67 56
f 1 56 42
f 1 42 38
f 1 38 27
f 1 27 26
f 1 26 25
f 1 25 17
f 1 17 11
f 1 11 7
f 1 7 4
f 1 4 8
f 1 8 13
f 1 13 20
f 1 20 29
f 1 29 40
f 1 40 55
f 1 55 60
f 1 60 59
f 1 59 44
f 1 44 32
f 1 32 21
f 1 21 14
f 1 14 9
f 1 9 5
f 1 5 2
f 2 5 6
f 2 6 3
f 4 7 8
f 5 9 6
f 6 9 10
f 7 11 8
f 8 11 12
f 8 12 13
f 9 14 15
f 9 15 10
f 10 15 16
f 11 17 18
f 11 18 19
f 11 19 12
f 12 19 13
f 13 19 20
f 14 21 15
f 15 21 22
f 15 22 23
f 15 23 24
f 15 24 16
f 17 25 18
f 18 25 26
f 18 26 27
f 18 27 19
f 19 28 29
f 19 29 20
f 19 27 30
f 19 30 31
f 19 31 28
f 21 32 33
f 21 33 34
f 21 34 22
f 22 34 23
f 23 35 24
f 23 34 36
f 23 36 37
f 23 37 35
f 27 38 30
f 28 31 39
f 28 39 29
f 29 39 40
f 30 41 39
f 30 39 31
f 30 38 42
f 30 42 43
f 30 43 41
f 32 44 45
f 32 45 46
f 32 46 33
f 33 46 36
f 33 36 34
f 35 37 47
f 36 48 37
f 36 46 49
f 36 49 50
f 36 50 51
f 36 51 48
f 37 48 47
f 39 41 52
f 39 52 53
f 39 53 54
f 39 54 55
f 39 55 40
f 41 43 52
f 42 56 43
f 43 56 57
f 43 57 58
f 43 58 52
f 44 59 45
f 45 59 46
f 46 59 60
f 46 60 61
f 46 61 62
f 46 62 49
f 49 62 63
f 49 63 64
f 49 64 50
f 52 65 53
f 52 58 66
f 52 66 65
f 53 65 54
f 54 65 66
f 54 66 78
f 54 78 93
f 54 93 113
f 54 113 118
f 54 118 131
f 54 131 151
f 54 151 138
f 54 138 136
f 54 136 132
f 54 132 121
f 54 121 120
f 54 120 105
f 54 105 104
f 54 104 119
f 54 119 102
f 54 102 101
f 54 101 107
f 54 107 90
f 54 90 86
f 54 86 71
f 54 71 60
f 54 60 55
f 56 67 68
f 56 68 57
f 57 69 58
f 57 68 69
f 58 69 70
f 58 70 66
f 60 71 61
f 61 71 62
f 62 72 63
f 62 71 73
f 62 73 74
f 62 74 75
f 62 75 72
f 63 72 76
f 63 76 77
f 63 77 64
f 66 70 78
f 67 79 80
f 67 80 68
f 68 81 82
f 68 82 83
f 68 83 70
f 68 70 69
f 68 80 81
f 70 83 84
f 70 84 85
f 70 85 78
f 71 86 87
f 71 87 73
f 72 75 88
f 73 89 74
f 73 87 90
f 73 90 89
f 74 89 91
f 74 91 75
f 75 92 88
f 75 91 92
f 78 85 84
f 78 84 93
f 79 81 80
f 81 94 82
f 82 94 83
f 83 94 95
f 83 95 96
f 83 96 97
f 83 97 98
f 83 98 84
f 84 98 99
f 84 99 93
f 86 90 87
f 88 92 100
f 89 101 102
f 89 102 103
f 89 103 104
f 89 104 105
f 89 105 106
f 89 106 91
f 89 90 107
f 89 107 101
f 91 108 100
f 91 100 92
f 91 106 109
f 91 109 110
f 91 110 111
f 91 111 112
f 91 112 108
f 93 99 113
f 95 114 96
f 96 114 115
f 96 115 97
f 97 115 116
f 97 116 98
f 98 116 99
f 99 116 117
f 99 117 118
f 99 118 113
f 102 119 103
f 103 119 104
f 105 120 109
f 105 109 106
f 109 120 121
f 109 121 122
f 109 122 123
f 109 123 110
f 110 123 124
f 110 124 111
f 111 124 125
f 111 125 112
f 112 125 126
f 115 127 128
f 115 128 116
f 116 128 129
f 116 129 130
f 116 130 117
f 117 130 131
f 117 131 118
f 121 132 122
f 122 133 134
f 122 134 135
f 122 135 124
f 122 124 123
f 122 132 136
f 122 136 137
f 122 137 138
f 122 138 133
f 124 135 134
f 124 134 125
f 125 134 126
f 126 134 139
f 127 140 131
f 127 131 128
f 128 131 129
f 129 131 130
f 131 141 142
f 131 142 143
f 131 143 144
f 131 144 145
f 131 145 146
f 131 146 147
f 131 147 148
f 131 148 149
f 131 149 150
f 131 150 151
f 131 140 141
f 133 152 153
f 133 153 134
f 133 138 152
f 134 153 154
f 134 154 139
f 136 138 137
f 138 151 155
f 138 155 156
f 138 156 157
f 138 157 158
f 138 158 159
f 138 159 160
f 138 160 161
f 138 161 162
f 138 162 163
f 138 163 164
f 138 164 165
f 138 165 166
f 138 166 152
f 150 155 151
f 152 167 153
f 153 167 154

