# https://github.com/mikedh/trimesh
v -0.03709497 -0.01481040 0.03851618
v -0.03708032 -0.01481040 0.03733264
v -0.03688441 -0.01594333 0.03851618
v -0.03681483 -0.01571129 0.03969793
v -0.03693201 -0.01481040 0.03969793
v -0.03702906 -0.01362678 0.03851618
v -0.03704737 -0.01362678 0.03733264
v -0.03686427 -0.01360923 0.03609676
v -0.03676905 -0.01398947 0.03546349
v -0.03676905 -0.01444186 0.03546349
v -0.03686793 -0.01482795 0.03609496
v -0.03680018 -0.01563914 0.03645580
v -0.03686244 -0.01584388 0.03733264
v -0.03671779 -0.01653417 0.03851618
v -0.03665553 -0.01630602 0.03969793
v -0.03674708 -0.01545194 0.04032760
v -0.03677821 -0.01481040 0.04042322
v -0.03678004 -0.01399532 0.04043043
v -0.03685511 -0.01361118 0.03971597
v -0.03678004 -0.01286825 0.03932988
v -0.03682032 -0.01272980 0.03851618
v -0.03683131 -0.01267715 0.03733264
v -0.03679469 -0.01279415 0.03645940
v -0.03671046 -0.01320169 0.03566736
v -0.03656398 -0.01360923 0.03502507
v -0.03652370 -0.01482795 0.03502507
v -0.03670680 -0.01523160 0.03566376
v -0.03597806 -0.01362678 0.03377657
v -0.03656581 -0.01601743 0.03609496
v -0.03668300 -0.01643862 0.03733264
v -0.03626553 -0.01718350 0.03733264
v -0.03634975 -0.01718350 0.03851618
v -0.03621243 -0.01718350 0.03969793
v -0.03583341 -0.01715426 0.04082916
v -0.03642666 -0.01590823 0.04078767
v -0.03656398 -0.01481040 0.04101499
v -0.03600736 -0.01362678 0.04206864
v -0.03655666 -0.01361118 0.04084901
v -0.03669947 -0.01320559 0.04012011
v -0.03658412 -0.01246070 0.03971597
v -0.03619961 -0.01125563 0.03969793
v -0.03636440 -0.01125563 0.03851618
v -0.03665187 -0.01213896 0.03851618
v -0.03667018 -0.01208241 0.03733264
v -0.03624905 -0.01125563 0.03614728
v -0.03661525 -0.01241781 0.03609676
v -0.03632046 -0.01244316 0.03496192
v -0.03580045 -0.01250165 0.03372786
v -0.03584074 -0.01473241 0.03372966
v -0.03570158 -0.01599793 0.03414462
v -0.03612454 -0.01599793 0.03496192
v -0.03557158 -0.01293259 0.03314871
v -0.03558073 -0.01362678 0.03314149
v -0.03556791 -0.01428782 0.03316314
v -0.03570890 -0.01681886 0.03496192
v -0.03591214 -0.01723420 0.03615269
v -0.03561918 -0.01785039 0.03655142
v -0.03572355 -0.01795374 0.03733264
v -0.03577482 -0.01801224 0.03851618
v -0.03569975 -0.01793814 0.03969793
v -0.03561552 -0.01783674 0.04039796
v -0.03565946 -0.01674281 0.04163203
v -0.03578946 -0.01591018 0.04204338
v -0.03557707 -0.01545974 0.04269289
v -0.03604031 -0.01481040 0.04206864
v -0.03561186 -0.01362678 0.04273980
v -0.03556791 -0.01297549 0.04268748
v -0.03576383 -0.01252505 0.04206864
v -0.03625454 -0.01244316 0.04088509
v -0.03582792 -0.01118933 0.04095545
v -0.03565946 -0.01043080 0.04060905
v -0.03576933 -0.01021045 0.03969793
v -0.03639003 -0.01125563 0.03733264
v -0.03580228 -0.00997061 0.03852881
v -0.03578763 -0.01021435 0.03614728
v -0.03567594 -0.01042300 0.03517482
v -0.03586820 -0.01114643 0.03485187
v -0.03569425 -0.01146818 0.03409050
v -0.03548003 -0.01214286 0.03330026
v -0.03545989 -0.01507755 0.03330207
v -0.03523284 -0.01599793 0.03355285
v -0.03556425 -0.01661022 0.03434850
v -0.03511199 -0.01250165 0.03269045
v -0.03446199 -0.01244316 0.03190562
v -0.03449861 -0.01362678 0.03186593
v -0.03509002 -0.01362678 0.03254972
v -0.03442353 -0.01439311 0.03193449
v -0.03545439 -0.01766124 0.03576118
v -0.03501861 -0.01819748 0.03615269
v -0.03435945 -0.01895602 0.03675529
v -0.03490326 -0.01862647 0.03722438
v -0.03447114 -0.01903401 0.03754553
v -0.03510284 -0.01860697 0.03851618
v -0.03445283 -0.01901257 0.03933349
v -0.03489227 -0.01859138 0.03971597
v -0.03533904 -0.01753060 0.04118820
v -0.03427522 -0.01891702 0.04012192
v -0.03494903 -0.01812923 0.04082916
v -0.03454805 -0.01795569 0.04171502
v -0.03495270 -0.01718545 0.04206684
v -0.03456635 -0.01684226 0.04286970
v -0.03535735 -0.01624947 0.04242046
v -0.03496002 -0.01591018 0.04303749
v -0.03418733 -0.01599793 0.04370144
v -0.03435762 -0.01537979 0.04384036
v -0.03445283 -0.01459006 0.04393057
v -0.03561918 -0.01481040 0.04274341
v -0.03505889 -0.01362678 0.04333338
v -0.03441072 -0.01286240 0.04388907
v -0.03430452 -0.01207071 0.04378263
v -0.03466156 -0.01125563 0.04301945
v -0.03543242 -0.01218771 0.04246556
v -0.03565946 -0.01153642 0.04167533
v -0.03551847 -0.01074864 0.04139929
v -0.03532988 -0.01005251 0.04095545
v -0.03547453 -0.00961961 0.03969793
v -0.03553862 -0.00950262 0.03892754
v -0.03580778 -0.00997841 0.03735429
v -0.03556425 -0.00946362 0.03814272
v -0.03552946 -0.00951627 0.03697360
v -0.03546355 -0.00962351 0.03614728
v -0.03554411 -0.01067844 0.03438458
v -0.03533537 -0.01004861 0.03485187
v -0.03536650 -0.01114643 0.03372786
v -0.03466706 -0.01135118 0.03256956
v -0.03437776 -0.01181137 0.03198681
v -0.03426424 -0.01518480 0.03207521
v -0.03464143 -0.01599793 0.03290154
v -0.03442720 -0.01666872 0.03312526
v -0.03480438 -0.01703531 0.03394255
v -0.03439241 -0.01779774 0.03433046
v -0.03520354 -0.01740970 0.03496192
v -0.03320592 -0.01282340 0.03079785
v -0.03314915 -0.01203171 0.03083213
v -0.03366916 -0.01243341 0.03122364
v -0.03320592 -0.01316659 0.03079785
v -0.03366916 -0.01358778 0.03120199
v -0.03383029 -0.01479871 0.03161695
v -0.03310521 -0.01395827 0.03085017
v -0.03461030 -0.01797129 0.03496192
v -0.03415987 -0.01883902 0.03614728
v -0.03356663 -0.01917246 0.03614728
v -0.03388705 -0.01928751 0.03722438
v -0.03377170 -0.01939866 0.03851618
v -0.03451142 -0.01905546 0.03851618
v -0.03383761 -0.01919586 0.03971597
v -0.03422213 -0.01763004 0.04250345
v -0.03383761 -0.01878832 0.04096447
v -0.03348606 -0.01909056 0.04062529
v -0.03380466 -0.01820138 0.04209210
v -0.03343113 -0.01793814 0.04289135
v -0.03334690 -0.01677791 0.04395402
v -0.03378451 -0.01720300 0.04327565
v -0.03359592 -0.01599793 0.04412903
v -0.03298620 -0.01481040 0.04491566
v -0.03388705 -0.01491375 0.04427878
v -0.03313085 -0.01362678 0.04500226
v -0.03377170 -0.01362678 0.04450430
v -0.03446565 -0.01362678 0.04394139
v -0.03307591 -0.01244316 0.04494994
v -0.03385592 -0.01245876 0.04428058
v -0.03288000 -0.01125563 0.04478034
v -0.03355930 -0.01125563 0.04418857
v -0.03415072 -0.01125563 0.04361303
v -0.03448213 -0.01043665 0.04280836
v -0.03529327 -0.01118933 0.04206864
v -0.03474213 -0.01005641 0.04209751
v -0.03451325 -0.00927252 0.04172224
v -0.03465241 -0.00888253 0.04080571
v -0.03501678 -0.00889033 0.03969793
v -0.03449861 -0.00812790 0.03969793
v -0.03458100 -0.00801870 0.03851618
v -0.03524199 -0.00899563 0.03852881
v -0.03556425 -0.00946362 0.03776384
v -0.03521270 -0.00899563 0.03735429
v -0.03454987 -0.00805380 0.03733264
v -0.03496734 -0.00889033 0.03614728
v -0.03438142 -0.00827609 0.03551040
v -0.03450227 -0.00927642 0.03411937
v -0.03478058 -0.01003886 0.03374590
v -0.03452973 -0.01040545 0.03295025
v -0.03463776 -0.00888643 0.03505394
v -0.03422762 -0.01102164 0.03216001
v -0.03380832 -0.01135118 0.03163680
v -0.03347507 -0.01574638 0.03178835
v -0.03383029 -0.01608373 0.03226826
v -0.03311620 -0.01653612 0.03203191
v -0.03366916 -0.01710940 0.03292138
v -0.03320592 -0.01778994 0.03316675
v -0.03399508 -0.01746040 0.03354022
v -0.03366916 -0.01796349 0.03387039
v -0.03372958 -0.01857187 0.03498718
v -0.03268774 -0.01243341 0.03056871
v -0.03295141 -0.01125563 0.03096383
v -0.03235816 -0.01125563 0.03063186
v -0.03140238 -0.01125563 0.03020607
v -0.03140238 -0.01244316 0.03003828
v -0.03266028 -0.01358778 0.03059036
v -0.03285436 -0.01481040 0.03097826
v -0.03226112 -0.01481040 0.03070223
v -0.03330662 -0.01902817 0.03540034
v -0.03258704 -0.01958000 0.03614728
v -0.03258704 -0.01982180 0.03733264
v -0.03258704 -0.01980815 0.03851618
v -0.03258704 -0.01962095 0.03969793
v -0.03309239 -0.01893652 0.04141552
v -0.03265295 -0.01922316 0.04096447
v -0.03265295 -0.01876102 0.04207947
v -0.03258704 -0.01813703 0.04312590
v -0.03258704 -0.01761639 0.04371768
v -0.03258704 -0.01702166 0.04414888
v -0.03168801 -0.01640547 0.04493009
v -0.03218238 -0.01561574 0.04514118
v -0.03239295 -0.01481040 0.04525124
v -0.03253760 -0.01362678 0.04534145
v -0.03149759 -0.01244316 0.04594946
v -0.03248267 -0.01244316 0.04535769
v -0.03228675 -0.01125563 0.04525665
v -0.03211281 -0.01039375 0.04512495
v -0.03335057 -0.01028455 0.04400634
v -0.03317113 -0.00949872 0.04383675
v -0.03427522 -0.00965276 0.04251247
v -0.03401339 -0.00888253 0.04209751
v -0.03340000 -0.00802845 0.04206864
v -0.03423860 -0.00848279 0.04114850
v -0.03439058 -0.00826634 0.04035827
v -0.03398776 -0.00753901 0.03969793
v -0.03408663 -0.00742591 0.03851618
v -0.03327000 -0.00701447 0.04052966
v -0.03406832 -0.00746101 0.03733264
v -0.03446016 -0.00817275 0.03614728
v -0.03422396 -0.00848864 0.03472016
v -0.03394015 -0.00758191 0.03614728
v -0.03323155 -0.00705737 0.03543823
v -0.03372775 -0.00775935 0.03507920
v -0.03385409 -0.00879088 0.03365569
v -0.03427339 -0.00961961 0.03332913
v -0.03385592 -0.00995306 0.03248116
v -0.03316930 -0.00949872 0.03201026
v -0.03343846 -0.01028455 0.03178655
v -0.03203041 -0.01543439 0.03079965
v -0.03257422 -0.01598623 0.03141488
v -0.03232703 -0.01681301 0.03183345
v -0.03266760 -0.01719910 0.03233502
v -0.03258704 -0.01793229 0.03298633
v -0.03251746 -0.01854068 0.03386498
v -0.03286718 -0.01884097 0.03461011
v -0.03264197 -0.00999986 0.03134993
v -0.03211464 -0.01049710 0.03074192
v -0.03138040 -0.01009150 0.03057593
v -0.03021771 -0.01007396 0.03022592
v -0.03021771 -0.01125563 0.02986688
v -0.03010602 -0.01250360 0.02972074
v -0.02982588 -0.01283120 0.02966301
v -0.02963728 -0.01304959 0.02962512
v -0.03140238 -0.01362678 0.03010504
v -0.03140238 -0.01481040 0.03042438
v -0.03251746 -0.01914711 0.03498718
v -0.03140238 -0.01944936 0.03496192
v -0.03140238 -0.01984715 0.03614728
v -0.03134012 -0.02005384 0.03738856
v -0.03090251 -0.02015914 0.03782157
v -0.03090251 -0.02015914 0.03800740
v -0.03134012 -0.02004409 0.03844763
v -0.03140238 -0.01981985 0.03969793
v -0.03140238 -0.01950590 0.04088509
v -0.03230323 -0.01904377 0.04169157
v -0.03140238 -0.01888387 0.04248902
v -0.03150857 -0.01824038 0.04336947
v -0.03197365 -0.01776654 0.04384036
v -0.03089702 -0.01662972 0.04505999
v -0.03133646 -0.01600573 0.04526567
v -0.03028180 -0.01487085 0.04609199
v -0.03140238 -0.01481040 0.04571492
v -0.03091350 -0.01329139 0.04627241
v -0.03090434 -0.01244316 0.04626520
v -0.03083293 -0.01179187 0.04622731
v -0.03129801 -0.01134143 0.04588271
v -0.03147928 -0.01003106 0.04539918
v -0.03192604 -0.00960597 0.04498422
v -0.03235267 -0.00889033 0.04417053
v -0.03208534 -0.00818835 0.04393057
v -0.03294408 -0.00889033 0.04356973
v -0.03320408 -0.00826634 0.04269650
v -0.03342747 -0.00889033 0.04297615
v -0.03287634 -0.00743566 0.04206864
v -0.03311070 -0.00718022 0.04131990
v -0.03375339 -0.00772231 0.04083999
v -0.03339451 -0.00689357 0.03969793
v -0.03349522 -0.00678048 0.03851618
v -0.03347507 -0.00679608 0.03733264
v -0.03209084 -0.00585035 0.04047734
v -0.03303746 -0.00723872 0.03464800
v -0.03343479 -0.00802845 0.03398044
v -0.03334690 -0.00694232 0.03614728
v -0.03254126 -0.00627739 0.03607692
v -0.03196083 -0.00594784 0.03563489
v -0.03261999 -0.00673368 0.03500883
v -0.03317479 -0.00830144 0.03319021
v -0.03348423 -0.00909508 0.03280231
v -0.03176125 -0.00970931 0.03091331
v -0.03293310 -0.00877333 0.03248116
v -0.03199562 -0.00829754 0.03199944
v -0.03228309 -0.00889033 0.03177752
v -0.03140238 -0.01558064 0.03072207
v -0.03140238 -0.01617342 0.03107028
v -0.03021771 -0.01481040 0.03015555
v -0.03140238 -0.01700216 0.03166206
v -0.03140238 -0.01759299 0.03216182
v -0.03140238 -0.01812533 0.03275540
v -0.03140238 -0.01871812 0.03357811
v -0.03207619 -0.01898722 0.03432144
v -0.03097026 -0.00936807 0.03074733
v -0.02903305 -0.01007396 0.03007076
v -0.03021771 -0.00914188 0.03064810
v -0.02903305 -0.00893323 0.03055789
v -0.02903305 -0.01125563 0.02975863
v -0.02963728 -0.01294039 0.02962512
v -0.02982588 -0.01276490 0.02966301
v -0.02960982 -0.01304959 0.02962512
v -0.02949081 -0.01318804 0.02966301
v -0.03010602 -0.01351758 0.02977667
v -0.03021771 -0.01956830 0.03496192
v -0.03140238 -0.01907691 0.03416988
v -0.03021771 -0.01914906 0.03404539
v -0.03021771 -0.01989785 0.03614728
v -0.03069011 -0.02015914 0.03782157
v -0.03069011 -0.02015914 0.03800740
v -0.03021771 -0.01989200 0.03969793
v -0.03021771 -0.01959755 0.04088509
v -0.03021771 -0.01919391 0.04201632
v -0.03140238 -0.01914321 0.04189544
v -0.03021771 -0.01893457 0.04260990
v -0.03021771 -0.01850168 0.04325400
v -0.03021771 -0.01793619 0.04404062
v -0.03118449 -0.01786014 0.04394139
v -0.03021771 -0.01674281 0.04515562
v -0.03021771 -0.01599793 0.04561388
v -0.02945235 -0.01530374 0.04618040
v -0.02993025 -0.01451401 0.04631752
v -0.03071941 -0.01408112 0.04618762
v -0.03028180 -0.01366383 0.04641133
v -0.02903305 -0.01362678 0.04679563
v -0.02734853 -0.01203171 0.04743070
v -0.02903305 -0.01244316 0.04689666
v -0.03021771 -0.01244316 0.04651598
v -0.02903305 -0.01125563 0.04685336
v -0.03025433 -0.01134143 0.04638968
v -0.03067546 -0.01100019 0.04615334
v -0.03041729 -0.01007396 0.04601622
v -0.02962996 -0.00947532 0.04622009
v -0.03113688 -0.00909898 0.04522237
v -0.03080180 -0.00830534 0.04502571
v -0.03147928 -0.00877723 0.04481282
v -0.03136392 -0.00775545 0.04419579
v -0.03094279 -0.00700082 0.04395402
v -0.03173379 -0.00739666 0.04353184
v -0.03205421 -0.00705737 0.04273980
v -0.03228309 -0.00684872 0.04206864
v -0.03188027 -0.00602779 0.04126578
v -0.03278112 -0.00629884 0.03969793
v -0.03287084 -0.00618574 0.03851618
v -0.03283971 -0.00620134 0.03733264
v -0.02978560 -0.00462382 0.04171502
v -0.03058025 -0.00491047 0.04088509
v -0.02998884 -0.00449707 0.04088509
v -0.03073772 -0.00478957 0.04002269
v -0.03130350 -0.00512496 0.03965644
v -0.03218788 -0.00577625 0.03969793
v -0.03224830 -0.00690917 0.03400209
v -0.03271154 -0.00758191 0.03359615
v -0.03211464 -0.00584060 0.03642693
v -0.03175210 -0.00608824 0.03496192
v -0.03149942 -0.00553640 0.03607692
v -0.03050884 -0.00491047 0.03614728
v -0.03115885 -0.00570605 0.03496192
v -0.03196450 -0.00713147 0.03321186
v -0.03228675 -0.00801480 0.03259121
v -0.03138040 -0.00893908 0.03122724
v -0.03140238 -0.00813765 0.03184969
v -0.03021771 -0.00854909 0.03098368
v -0.03150308 -0.00747076 0.03258219
v -0.03043561 -0.00729526 0.03217986
v -0.03021771 -0.01575613 0.03061021
v -0.03021771 -0.01635087 0.03096744
v -0.02903305 -0.01481040 0.03013932
v -0.02914108 -0.01351758 0.02975322
v -0.03021771 -0.01709771 0.03155922
v -0.03021771 -0.01769049 0.03208424
v -0.03021771 -0.01818968 0.03267782
v -0.03021771 -0.01878052 0.03345362
v -0.02784839 -0.01007396 0.03011045
v -0.02759755 -0.00827609 0.03080326
v -0.02720571 -0.00827609 0.03080326
v -0.02903305 -0.00834044 0.03083934
v -0.02838305 -0.00830144 0.03081589
v -0.02784839 -0.01125563 0.02986327
v -0.02914108 -0.01250360 0.02967384
v -0.02924362 -0.01259915 0.02966301
v -0.02960982 -0.01294039 0.02962512
v -0.02784839 -0.01244316 0.02983982
v -0.02947066 -0.01318804 0.02966301
v -0.02903305 -0.01911201 0.03409411
v -0.02903305 -0.01948250 0.03496192
v -0.02903305 -0.01876492 0.03350233
v -0.03026349 -0.02006944 0.03738856
v -0.02903305 -0.01979645 0.03614728
v -0.02903305 -0.01993880 0.03733264
v -0.02903305 -0.01996609 0.03851618
v -0.02903305 -0.01984325 0.03969793
v -0.02903305 -0.01955075 0.04088509
v -0.02903305 -0.01916466 0.04205060
v -0.02903305 -0.01895212 0.04264418
v -0.02903305 -0.01855238 0.04325400
v -0.02903305 -0.01796934 0.04411279
v -0.02903305 -0.01747015 0.04470637
v -0.03021771 -0.01733365 0.04463240
v -0.02903305 -0.01687931 0.04527109
v -0.02904770 -0.01592578 0.04591338
v -0.02866136 -0.01548314 0.04626339
v -0.02904770 -0.01487085 0.04643840
v -0.02784839 -0.01362678 0.04705724
v -0.02659599 -0.01243536 0.04747040
v -0.02548090 -0.01244316 0.04758406
v -0.02429624 -0.01125563 0.04779154
v -0.02548090 -0.01125563 0.04766345
v -0.02734853 -0.01164172 0.04743070
v -0.02694204 -0.01282535 0.04736756
v -0.02778431 -0.01125173 0.04725209
v -0.02784839 -0.01007396 0.04704280
v -0.02903305 -0.01007396 0.04663325
v -0.02982405 -0.01007396 0.04630489
v -0.02784839 -0.00889033 0.04669459
v -0.02892686 -0.00900343 0.04632113
v -0.02845995 -0.00827999 0.04622550
v -0.02925094 -0.00868363 0.04605230
v -0.03021588 -0.00889033 0.04563734
v -0.03001264 -0.00792315 0.04526206
v -0.02960067 -0.00713537 0.04501489
v -0.03033124 -0.00759946 0.04484530
v -0.02831347 -0.00601804 0.04495174
v -0.02963912 -0.00591664 0.04385660
v -0.03042828 -0.00621304 0.04348313
v -0.03083660 -0.00590494 0.04269289
v -0.03128519 -0.00663423 0.04311147
v -0.03163308 -0.00625789 0.04206864
v -0.03104167 -0.00574115 0.04206864
v -0.03227943 -0.00572555 0.03851618
v -0.03224647 -0.00575480 0.03733264
v -0.03019574 -0.00511716 0.04209210
v -0.02949813 -0.00482272 0.04250526
v -0.02907517 -0.00437618 0.04209210
v -0.02725698 -0.00355719 0.04266042
v -0.02788684 -0.00373464 0.04218591
v -0.02830798 -0.00361959 0.04115211
v -0.02893052 -0.00387309 0.04080751
v -0.03029279 -0.00444248 0.03965644
v -0.03084209 -0.00471742 0.03923065
v -0.03091533 -0.00585620 0.03426731
v -0.03071941 -0.00479542 0.03712696
v -0.02991743 -0.00457117 0.03614728
v -0.02970869 -0.00469597 0.03546710
v -0.03021771 -0.00609604 0.03342656
v -0.03117350 -0.00692282 0.03296829
v -0.03011152 -0.00769501 0.03165484
v -0.02964461 -0.00710222 0.03199042
v -0.02903305 -0.00770476 0.03134632
v -0.03011152 -0.00676683 0.03258219
v -0.02903305 -0.01576198 0.03060660
v -0.02903305 -0.01635282 0.03096924
v -0.02784839 -0.01481040 0.03035402
v -0.02784839 -0.01558844 0.03071485
v -0.02784839 -0.01362678 0.02997694
v -0.02903305 -0.01708601 0.03156102
v -0.02903305 -0.01767879 0.03209867
v -0.02903305 -0.01817213 0.03269225
v -0.02666556 -0.01007396 0.03035582
v -0.02675345 -0.00891178 0.03068779
v -0.02793262 -0.00781200 0.03113884
v -0.02666556 -0.00688967 0.03181541
v -0.02569696 -0.00698717 0.03189840
v -0.02537287 -0.00758971 0.03161515
v -0.02641655 -0.00853154 0.03088986
v -0.02784839 -0.00689747 0.03181180
v -0.02666556 -0.01125563 0.03016097
v -0.02666556 -0.01244316 0.03016277
v -0.02817431 -0.01903986 0.03421679
v -0.02784839 -0.01958000 0.03614728
v -0.02780628 -0.01921341 0.03489697
v -0.02784839 -0.01805514 0.03282937
v -0.02784839 -0.01974575 0.03733264
v -0.02784839 -0.01977890 0.03851618
v -0.02784839 -0.01965800 0.03969793
v -0.02784839 -0.01939476 0.04088509
v -0.02784839 -0.01909641 0.04188822
v -0.02784839 -0.01888972 0.04248180
v -0.02784839 -0.01845488 0.04325400
v -0.02784839 -0.01793229 0.04407671
v -0.02784839 -0.01748575 0.04466848
v -0.02784839 -0.01689101 0.04530356
v -0.02784839 -0.01614418 0.04589534
v -0.02784839 -0.01555334 0.04631210
v -0.02784839 -0.01481040 0.04667475
v -0.02659599 -0.01352538 0.04723224
v -0.02615288 -0.01306324 0.04740905
v -0.02548090 -0.01316269 0.04744514
v -0.02429624 -0.01244316 0.04766705
v -0.02311158 -0.01125563 0.04786371
v -0.02311158 -0.01007396 0.04789438
v -0.02429624 -0.01007396 0.04775907
v -0.02670585 -0.01125173 0.04749566
v -0.02633781 -0.01030210 0.04745235
v -0.02712698 -0.01085199 0.04737477
v -0.02670585 -0.00997841 0.04732245
v -0.02604852 -0.00951627 0.04739642
v -0.02666556 -0.00889033 0.04707167
v -0.02675528 -0.00760921 0.04656650
v -0.02784839 -0.00801480 0.04634999
v -0.02720754 -0.00714902 0.04619664
v -0.02784839 -0.00742201 0.04606313
v -0.02903122 -0.00770476 0.04564636
v -0.02881150 -0.00680778 0.04524222
v -0.02752797 -0.00571775 0.04516825
v -0.02696585 -0.00492997 0.04484530
v -0.02903305 -0.00570020 0.04409114
v -0.02749867 -0.00459067 0.04405506
v -0.02828600 -0.00484417 0.04370324
v -0.02907517 -0.00508206 0.04328647
v -0.03010785 -0.00571775 0.04315477
v -0.03142801 -0.00513276 0.03851618
v -0.03083476 -0.00472327 0.03851618
v -0.03081096 -0.00474082 0.03791719
v -0.03128519 -0.00511131 0.03744449
v -0.02870714 -0.00458092 0.04291300
v -0.02678458 -0.00319645 0.04218591
v -0.02752064 -0.00343240 0.04186838
v -0.02787403 -0.00431768 0.04328647
v -0.02678458 -0.00373464 0.04332436
v -0.02596063 -0.00360789 0.04376639
v -0.02646781 -0.00338170 0.04297615
v -0.02021310 -0.00116265 0.04388727
v -0.02396117 -0.00226437 0.04288233
v -0.02475216 -0.00242817 0.04245293
v -0.02666556 -0.00283571 0.04088509
v -0.02788684 -0.00335830 0.04080751
v -0.02846727 -0.00354549 0.04036188
v -0.02912827 -0.00378924 0.03969793
v -0.03021771 -0.00434693 0.03851618
v -0.03021771 -0.00570215 0.03401833
v -0.03028180 -0.00449122 0.03744449
v -0.02893784 -0.00380484 0.03737594
v -0.02830065 -0.00359619 0.03700968
v -0.02903305 -0.00416948 0.03614728
v -0.02788318 -0.00376389 0.03616171
v -0.02903305 -0.00457117 0.03523797
v -0.02903305 -0.00489097 0.03464439
v -0.02953841 -0.00594589 0.03321366
v -0.02909897 -0.00633589 0.03265617
v -0.02903305 -0.00701837 0.03191464
v -0.02784839 -0.01617928 0.03107750
v -0.02784839 -0.01696316 0.03167108
v -0.02666556 -0.01362678 0.03031613
v -0.02675711 -0.01476166 0.03065171
v -0.02721303 -0.01543439 0.03079785
v -0.02784839 -0.01755595 0.03223398
v -0.02548823 -0.01013440 0.03068058
v -0.02588739 -0.00932322 0.03076357
v -0.02509822 -0.00977951 0.03087182
v -0.02666556 -0.00629689 0.03234584
v -0.02548090 -0.00569045 0.03297190
v -0.02311158 -0.00456727 0.03421499
v -0.02221805 -0.00464527 0.03429077
v -0.02429624 -0.00578210 0.03306391
v -0.02005746 -0.00352600 0.03552844
v -0.02490597 -0.00711977 0.03200305
v -0.02429624 -0.00787245 0.03176670
v -0.02548823 -0.00891178 0.03099992
v -0.02784839 -0.00630274 0.03239817
v -0.02666556 -0.00568655 0.03293762
v -0.02485104 -0.01056535 0.03079424
v -0.02548090 -0.01125563 0.03055789
v -0.02487850 -0.01188742 0.03081048
v -0.02541865 -0.01234761 0.03063727
v -0.02780628 -0.01868497 0.03380363
v -0.02738881 -0.01891897 0.03446216
v -0.02688895 -0.01908276 0.03525060
v -0.02656303 -0.01920171 0.03605166
v -0.02666556 -0.01946301 0.03733264
v -0.02698965 -0.01789914 0.03301340
v -0.02666556 -0.01952930 0.03851618
v -0.02666556 -0.01941621 0.03969793
v -0.02659415 -0.01913931 0.04096447
v -0.02615105 -0.01894432 0.04141552
v -0.02694204 -0.01901646 0.04163564
v -0.02659415 -0.01878637 0.04204519
v -0.02515498 -0.01772169 0.04373030
v -0.02594598 -0.01779969 0.04388186
v -0.02666556 -0.01785234 0.04395763
v -0.02666556 -0.01742140 0.04455121
v -0.02666556 -0.01682861 0.04528191
v -0.02666556 -0.01617928 0.04587369
v -0.02666556 -0.01558844 0.04634999
v -0.02666556 -0.01481040 0.04675954
v -0.02548090 -0.01375548 0.04724668
v -0.02429624 -0.01322704 0.04748122
v -0.02311158 -0.01244316 0.04765803
v -0.02192692 -0.01125563 0.04782041
v -0.02074226 -0.01007396 0.04793047
v -0.02192692 -0.01007396 0.04795572
v -0.02192692 -0.00889033 0.04793407
v -0.02311158 -0.00889033 0.04780417
v -0.02558527 -0.00997841 0.04754256
v -0.02438230 -0.00880843 0.04757504
v -0.02525935 -0.00914578 0.04747400
v -0.02404356 -0.00805965 0.04748303
v -0.02483273 -0.00835799 0.04738740
v -0.02558527 -0.00880843 0.04732245
v -0.02548090 -0.00770476 0.04699589
v -0.02641838 -0.00686627 0.04634458
v -0.02583429 -0.00607654 0.04613169
v -0.02675528 -0.00648993 0.04599998
v -0.02789051 -0.00645483 0.04546413
v -0.02660880 -0.00532776 0.04532702
v -0.02617668 -0.00469597 0.04507623
v -0.02660880 -0.00441713 0.04444657
v -0.02544611 -0.00259391 0.04206142
v -0.02553217 -0.00389844 0.04442672
v -0.02517146 -0.00343045 0.04402078
v -0.02269594 -0.00229362 0.04395944
v -0.02348694 -0.00246522 0.04367257
v -0.01883069 -0.00125039 0.04493550
v -0.01839308 -0.00115095 0.04506721
v -0.01839308 -0.00084090 0.04449709
v -0.01839308 -0.00039631 0.04326843
v -0.01839308 -0.00039241 0.04325400
v -0.01955577 -0.00077850 0.04325400
v -0.02046395 -0.00108075 0.04325400
v -0.02129522 -0.00119969 0.04257382
v -0.02433286 -0.00217272 0.04206142
v -0.02502681 -0.00232482 0.04166270
v -0.02576471 -0.00248082 0.04088509
v -0.02666556 -0.00273236 0.03969793
v -0.02784839 -0.00321400 0.03969793
v -0.02853502 -0.00351430 0.03969793
v -0.02913742 -0.00377169 0.03851618
v -0.02848009 -0.00353769 0.03779992
v -0.02666556 -0.00279281 0.03851618
v -0.02666556 -0.00302291 0.03733264
v -0.02751515 -0.00348700 0.03656405
v -0.02666556 -0.00363909 0.03574675
v -0.02788135 -0.00441323 0.03487893
v -0.02666556 -0.00336610 0.03634033
v -0.02829882 -0.00477592 0.03442788
v -0.02751332 -0.00467842 0.03428896
v -0.02874742 -0.00585425 0.03309458
v -0.02693472 -0.01677791 0.03184067
v -0.02577386 -0.01362678 0.03068238
v -0.02597527 -0.01433266 0.03076176
v -0.02498287 -0.01267715 0.03085558
v -0.02642204 -0.01512240 0.03094940
v -0.02667838 -0.01598818 0.03139323
v -0.02429624 -0.00889033 0.03138421
v -0.02548090 -0.00509571 0.03353300
v -0.02429624 -0.00452632 0.03415184
v -0.01868787 -0.00234237 0.03670838
v -0.01839308 -0.00235992 0.03672462
v -0.01839308 -0.00286886 0.03639445
v -0.01839308 -0.00389844 0.03575757
v -0.01839308 -0.00448732 0.03539673
v -0.02429624 -0.00727967 0.03208965
v -0.02350708 -0.00811815 0.03190923
v -0.02784839 -0.00576845 0.03298994
v -0.02666556 -0.00509571 0.03359615
v -0.02548090 -0.00453412 0.03412478
v -0.02311158 -0.00899953 0.03183887
v -0.02251101 -0.00946752 0.03199583
v -0.02189213 -0.01007396 0.03227007
v -0.02425962 -0.01125563 0.03108110
v -0.02485287 -0.01125563 0.03079604
v -0.02251834 -0.01184452 0.03199944
v -0.02440976 -0.01234761 0.03109915
v -0.02299257 -0.01137263 0.03172701
v -0.02662345 -0.01818968 0.03370801
v -0.02656303 -0.01881952 0.03489697
v -0.02609978 -0.01894822 0.03559159
v -0.02587823 -0.01904182 0.03638363
v -0.02566767 -0.01912956 0.03733264
v -0.02552851 -0.01917051 0.03851618
v -0.02656669 -0.01724395 0.03252626
v -0.02619866 -0.01770999 0.03326598
v -0.02562006 -0.01912176 0.03969793
v -0.02585077 -0.01903986 0.04062529
v -0.02546626 -0.01883317 0.04096447
v -0.02366821 -0.01778994 0.04269109
v -0.02429624 -0.01786989 0.04289135
v -0.02429624 -0.01759105 0.04348674
v -0.02429624 -0.01694951 0.04450791
v -0.02390075 -0.01653417 0.04495174
v -0.02468991 -0.01664532 0.04509608
v -0.02552301 -0.01738435 0.04434193
v -0.02548090 -0.01673306 0.04519531
v -0.02548090 -0.01614223 0.04578708
v -0.02548090 -0.01554749 0.04633015
v -0.02548090 -0.01481040 0.04676857
v -0.02429624 -0.01382178 0.04722322
v -0.02311158 -0.01314514 0.04745416
v -0.02240115 -0.01306519 0.04741627
v -0.02197453 -0.01248995 0.04753715
v -0.02074226 -0.01125563 0.04770314
v -0.01955577 -0.01007396 0.04784026
v -0.01839308 -0.00891178 0.04795392
v -0.01839308 -0.00889033 0.04795753
v -0.01955577 -0.00889033 0.04800263
v -0.01839308 -0.00770476 0.04805676
v -0.02074226 -0.00889033 0.04799542
v -0.01955577 -0.00770476 0.04800985
v -0.01839308 -0.00653868 0.04801165
v -0.02074226 -0.00770476 0.04791603
v -0.02192692 -0.00770476 0.04776448
v -0.02308961 -0.00768136 0.04755880
v -0.01839308 -0.00533361 0.04780598
v -0.02192692 -0.00674538 0.04752452
v -0.02051888 -0.00567485 0.04748844
v -0.02268129 -0.00700277 0.04743972
v -0.02347046 -0.00726992 0.04734591
v -0.02438230 -0.00768136 0.04726833
v -0.02192692 -0.00615259 0.04732065
v -0.01993662 -0.00488512 0.04734771
v -0.02429624 -0.00651918 0.04682810
v -0.02545710 -0.00648993 0.04647087
v -0.02504512 -0.00583475 0.04626880
v -0.02362426 -0.00479347 0.04618942
v -0.02545710 -0.00539796 0.04584482
v -0.02138311 -0.00353574 0.04623272
v -0.02311158 -0.00340315 0.04521696
v -0.02373046 -0.00354549 0.04504556
v -0.02452146 -0.00372294 0.04481102
v -0.01839308 -0.00158774 0.04557599
v -0.01839308 -0.00023837 0.04206864
v -0.01955577 -0.00059131 0.04206864
v -0.02147100 -0.00114120 0.04178358
v -0.02189030 -0.00133034 0.04213359
v -0.02311158 -0.00173398 0.04206864
v -0.02517329 -0.00227607 0.04088509
v -0.02585260 -0.00244182 0.03969793
v -0.02784839 -0.00322765 0.03851618
v -0.02854601 -0.00351040 0.03851618
v -0.02526118 -0.00225462 0.03969793
v -0.02514400 -0.00229557 0.03871465
v -0.02551569 -0.00246327 0.03839711
v -0.02488949 -0.00237162 0.03792441
v -0.02548090 -0.00272066 0.03733264
v -0.02592767 -0.00357474 0.03558798
v -0.02666556 -0.00409343 0.03496192
v -0.02551203 -0.00327835 0.03604985
v -0.02409849 -0.00228582 0.03772775
v -0.02666556 -0.00460042 0.03418793
v -0.02614556 -0.01654392 0.03203913
v -0.02518245 -0.01362678 0.03096383
v -0.02429624 -0.01362678 0.03142931
v -0.02365539 -0.01428197 0.03197057
v -0.02435850 -0.01473046 0.03180820
v -0.02554133 -0.01476166 0.03119477
v -0.02323792 -0.01244316 0.03173242
v -0.02479427 -0.01547534 0.03194712
v -0.02548090 -0.01571909 0.03176490
v -0.02192692 -0.00342460 0.03541478
v -0.01955577 -0.00232482 0.03668673
v -0.01839308 -0.00203038 0.03712696
v -0.01839308 -0.00533361 0.03503229
v -0.02131353 -0.00709247 0.03317397
v -0.02271608 -0.00867779 0.03208965
v -0.02429624 -0.00347920 0.03544364
v -0.02311158 -0.00343045 0.03539854
v -0.02204044 -0.00899953 0.03232780
v -0.01955577 -0.00770476 0.03381446
v -0.02085029 -0.00889033 0.03293221
v -0.02025704 -0.00889033 0.03323531
v -0.02075141 -0.01007396 0.03286365
v -0.02247988 -0.01105673 0.03197959
v -0.02110297 -0.01244316 0.03303685
v -0.02192692 -0.01244316 0.03252266
v -0.02264468 -0.01244316 0.03207702
v -0.02349792 -0.01362678 0.03187315
v -0.02016000 -0.01007396 0.03319021
v -0.02085395 -0.01125563 0.03290695
v -0.02026070 -0.01125563 0.03325696
v -0.02548090 -0.01793814 0.03412478
v -0.02548090 -0.01837298 0.03496192
v -0.02370116 -0.01777629 0.03555190
v -0.02429624 -0.01824623 0.03614728
v -0.02548273 -0.01878247 0.03605166
v -0.02429624 -0.01852117 0.03733264
v -0.02507625 -0.01887802 0.03733264
v -0.02493526 -0.01894042 0.03851618
v -0.02502681 -0.01890922 0.03969793
v -0.02548090 -0.01691636 0.03283298
v -0.02487484 -0.01778214 0.03435752
v -0.02474118 -0.01669796 0.03306933
v -0.02548090 -0.01751110 0.03353300
v -0.02429624 -0.01844123 0.04088509
v -0.02347229 -0.01786794 0.04206864
v -0.02287904 -0.01762614 0.04206864
v -0.02122198 -0.01664727 0.04279934
v -0.02196720 -0.01680716 0.04321972
v -0.02159917 -0.01648152 0.04359138
v -0.02239017 -0.01664141 0.04393237
v -0.02311158 -0.01677986 0.04414707
v -0.02311158 -0.01640157 0.04473885
v -0.02192692 -0.01558259 0.04527830
v -0.02311158 -0.01580683 0.04551826
v -0.02311158 -0.01529594 0.04611184
v -0.02377624 -0.01538759 0.04620385
v -0.02456723 -0.01546949 0.04627241
v -0.02422117 -0.01492155 0.04658093
v -0.02311158 -0.01373793 0.04714023
v -0.02161199 -0.01291505 0.04736034
v -0.02197453 -0.01352733 0.04706265
v -0.02074226 -0.01209996 0.04747942
v -0.01959422 -0.01129073 0.04754617
v -0.01839308 -0.01009540 0.04770855
v -0.01839308 -0.01007396 0.04771396
v -0.01839308 -0.00535506 0.04781139
v -0.01955577 -0.00651918 0.04787454
v -0.01954844 -0.00530241 0.04757865
v -0.01839308 -0.00439178 0.04753715
v -0.02192692 -0.00533361 0.04697424
v -0.01839308 -0.00380484 0.04730080
v -0.02318299 -0.00524586 0.04656289
v -0.02429624 -0.00559880 0.04638968
v -0.02283510 -0.00455557 0.04631932
v -0.02183720 -0.00415583 0.04642216
v -0.01839308 -0.00378924 0.04729359
v -0.01839308 -0.00285911 0.04673248
v -0.01839308 -0.00226047 0.04631571
v -0.01893872 -0.00238527 0.04620385
v -0.01839308 -0.00166573 0.04566620
v -0.01839308 -0.00032221 0.04088509
v -0.01955577 -0.00059521 0.04088509
v -0.02074226 -0.00089940 0.04088509
v -0.02153509 -0.00112560 0.04088509
v -0.02212833 -0.00130499 0.04088509
v -0.02311158 -0.00160919 0.04088509
v -0.02429624 -0.00198748 0.04088509
v -0.02429624 -0.00196408 0.03969793
v -0.02311158 -0.00162284 0.03969793
v -0.02441526 -0.00216297 0.03839711
v -0.02113226 -0.00122114 0.03929560
v -0.02311158 -0.00184318 0.03851618
v -0.02034127 -0.00115095 0.03902858
v -0.02311158 -0.00247692 0.03695556
v -0.02217960 -0.00241647 0.03682927
v -0.02138861 -0.00236382 0.03672823
v -0.02513667 -0.00352600 0.03550679
v -0.02441526 -0.00251592 0.03733444
v -0.02311158 -0.00219417 0.03754733
v -0.02551203 -0.00387894 0.03505033
v -0.02548090 -0.01631187 0.03223940
v -0.02127325 -0.01312369 0.03313969
v -0.02233340 -0.01443406 0.03303144
v -0.02400511 -0.01506975 0.03221053
v -0.02348694 -0.01559039 0.03300077
v -0.02437314 -0.01592773 0.03263993
v -0.02074226 -0.00234237 0.03670117
v -0.01839308 -0.00128744 0.03813189
v -0.01839308 -0.00654648 0.03464619
v -0.02111945 -0.00770476 0.03308556
v -0.02052803 -0.00770476 0.03335439
v -0.01870984 -0.00770476 0.03423844
v -0.01955577 -0.00889033 0.03360517
v -0.01839308 -0.00770476 0.03440082
v -0.01896618 -0.01184062 0.03437195
v -0.01955577 -0.01007396 0.03356728
v -0.01858167 -0.00889033 0.03414643
v -0.01839308 -0.00889033 0.03425829
v -0.01863843 -0.01007396 0.03415365
v -0.01839308 -0.01007396 0.03432144
v -0.01879590 -0.01105089 0.03425107
v -0.01944041 -0.01136873 0.03388121
v -0.02355102 -0.01786794 0.03614728
v -0.02408385 -0.01752085 0.03475986
v -0.02234988 -0.01671551 0.03537508
v -0.02194340 -0.01683251 0.03625373
v -0.02132269 -0.01659657 0.03671921
v -0.02117072 -0.01669991 0.03733264
v -0.02295778 -0.01748380 0.03614728
v -0.02329102 -0.01800834 0.03733264
v -0.02256594 -0.01774704 0.03814452
v -0.02302186 -0.01802784 0.03853062
v -0.02429624 -0.01864987 0.03851618
v -0.02244143 -0.01781724 0.03969793
v -0.02311158 -0.01811558 0.03969793
v -0.02245242 -0.01780749 0.04045569
v -0.02429624 -0.01861477 0.03969793
v -0.02441160 -0.01710746 0.03388482
v -0.02352722 -0.01673111 0.03420416
v -0.02395018 -0.01637817 0.03341393
v -0.02306581 -0.01797324 0.04086525
v -0.02264101 -0.01772169 0.04124593
v -0.02192692 -0.01718545 0.04206864
v -0.02106269 -0.01674086 0.04206864
v -0.02047127 -0.01641132 0.04206864
v -0.01899365 -0.01538174 0.04257562
v -0.01977915 -0.01564304 0.04325400
v -0.02079170 -0.01624167 0.04321972
v -0.02002084 -0.01547924 0.04399732
v -0.02044197 -0.01527254 0.04478756
v -0.02123297 -0.01544804 0.04509067
v -0.02192692 -0.01507950 0.04587008
v -0.02111578 -0.01431122 0.04629226
v -0.02192692 -0.01448866 0.04641314
v -0.02311158 -0.01470316 0.04654665
v -0.02074226 -0.01269275 0.04725028
v -0.01922436 -0.01170607 0.04734771
v -0.02001352 -0.01190887 0.04742529
v -0.02072944 -0.01369893 0.04661701
v -0.01839308 -0.01089099 0.04747761
v -0.02074226 -0.00414998 0.04675594
v -0.01839308 -0.00170473 0.04570950
v -0.01839308 -0.00062251 0.03969793
v -0.01955577 -0.00081750 0.03969793
v -0.02073860 -0.00105735 0.03969432
v -0.02146734 -0.00114900 0.04008583
v -0.02188664 -0.00131669 0.03969432
v -0.01955577 -0.00108855 0.03889507
v -0.02184086 -0.00215712 0.03726768
v -0.01839308 -0.00100275 0.03872367
v -0.02002451 -0.01319779 0.03426190
v -0.02154424 -0.01391147 0.03337784
v -0.02111578 -0.01447891 0.03416808
v -0.02189946 -0.01485135 0.03375672
v -0.02269777 -0.01522380 0.03334356
v -0.02225467 -0.01562159 0.03413200
v -0.01839308 -0.01158322 0.03479053
v -0.01840407 -0.01236126 0.03520910
v -0.01916943 -0.01244316 0.03456320
v -0.01839308 -0.01136873 0.03467506
v -0.02192692 -0.01717765 0.03733264
v -0.02269961 -0.01766124 0.03733264
v -0.02273623 -0.01641132 0.03458665
v -0.02190678 -0.01600963 0.03493847
v -0.02110663 -0.01560794 0.03529390
v -0.02000986 -0.01552019 0.03654961
v -0.02155889 -0.01639572 0.03592897
v -0.02057747 -0.01627482 0.03733264
v -0.02037240 -0.01642887 0.03851618
v -0.02096564 -0.01682861 0.03851618
v -0.02202213 -0.01747795 0.03853062
v -0.02248172 -0.01779579 0.03893115
v -0.02184819 -0.01747210 0.03969793
v -0.02090522 -0.01685396 0.04088509
v -0.01885449 -0.01547534 0.04178538
v -0.01945689 -0.01577758 0.04213540
v -0.01842421 -0.01510485 0.04213540
v -0.01839308 -0.01478311 0.04323054
v -0.01839308 -0.01477531 0.04325400
v -0.01839308 -0.01437556 0.04428780
v -0.01844618 -0.01439116 0.04432569
v -0.01888928 -0.01426442 0.04510149
v -0.01955577 -0.01445161 0.04532521
v -0.02032479 -0.01414157 0.04614071
v -0.01955577 -0.01336549 0.04646185
v -0.01959422 -0.01235736 0.04709332
v -0.01839308 -0.01149353 0.04722142
v -0.01839308 -0.01148183 0.04722683
v -0.01839308 -0.01090464 0.04747220
v -0.01882153 -0.01320949 0.03541478
v -0.02032479 -0.01398557 0.03454516
v -0.01993296 -0.01444576 0.03533539
v -0.02146551 -0.01526864 0.03450366
v -0.01839308 -0.01235151 0.03521451
v -0.01839308 -0.01352148 0.03615630
v -0.02031563 -0.01523550 0.03575938
v -0.01881055 -0.01436776 0.03655142
v -0.01857618 -0.01457056 0.03733264
v -0.01922252 -0.01516530 0.03733264
v -0.01981577 -0.01568204 0.03733264
v -0.01905224 -0.01532909 0.03818963
v -0.01949168 -0.01577173 0.03855588
v -0.02028451 -0.01649907 0.03969793
v -0.01892041 -0.01544024 0.03897625
v -0.01882886 -0.01550069 0.03969793
v -0.01955577 -0.01600573 0.03969793
v -0.02087775 -0.01688126 0.03969793
v -0.02031197 -0.01648932 0.04088509
v -0.01955577 -0.01601743 0.04088509
v -0.01877942 -0.01552799 0.04088509
v -0.01839308 -0.01522380 0.04115933
v -0.01839308 -0.01508145 0.04213179
v -0.01839308 -0.01506975 0.04218050
v -0.01839308 -0.01433266 0.04437440
v -0.01839308 -0.01411427 0.04481282
v -0.01839308 -0.01357023 0.04563373
v -0.01839308 -0.01307104 0.04623452
v -0.01955577 -0.01395827 0.04591699
v -0.01871900 -0.01315879 0.04630850
v -0.01839308 -0.01259525 0.04656469
v -0.01839308 -0.01250360 0.04662243
v -0.01914379 -0.01400117 0.03576118
v -0.01839308 -0.01357023 0.03619960
v -0.01842054 -0.01358583 0.03618336
v -0.01839308 -0.01439311 0.03733264
v -0.01839308 -0.01480065 0.03834298
v -0.01839308 -0.01485330 0.03847649
v -0.01839308 -0.01516530 0.03969793
v -0.01839308 -0.01525499 0.04088509
f 1 2 3
f 1 3 4
f 1 4 5
f 1 5 6
f 1 6 7
f 1 7 2
f 2 7 8
f 2 8 9
f 2 9 10
f 2 10 11
f 2 11 12
f 2 12 13
f 2 13 3
f 3 13 14
f 3 14 15
f 3 15 4
f 4 16 5
f 4 15 16
f 5 16 17
f 5 17 18
f 5 18 6
f 6 18 19
f 6 19 20
f 6 20 21
f 6 21 22
f 6 22 7
f 7 22 23
f 7 23 8
f 8 23 24
f 8 24 9
f 9 24 25
f 9 25 10
f 10 26 27
f 10 27 11
f 10 25 28
f 10 28 26
f 11 27 12
f 12 27 29
f 12 29 30
f 12 30 13
f 13 30 14
f 14 30 31
f 14 31 32
f 14 32 33
f 14 33 15
f 15 33 34
f 15 34 35
f 15 35 16
f 16 35 36
f 16 36 17
f 17 36 18
f 18 37 38
f 18 38 39
f 18 39 19
f 18 36 37
f 19 39 20
f 20 39 40
f 20 40 41
f 20 41 42
f 20 42 43
f 20 43 21
f 21 43 44
f 21 44 22
f 22 44 23
f 23 44 45
f 23 45 46
f 23 46 24
f 24 46 47
f 24 47 25
f 25 47 48
f 25 48 28
f 26 28 49
f 26 49 50
f 26 50 51
f 26 51 27
f 27 51 29
f 28 48 52
f 28 52 53
f 28 53 54
f 28 54 49
f 29 55 56
f 29 56 30
f 29 51 55
f 30 56 31
f 31 56 57
f 31 57 58
f 31 58 59
f 31 59 32
f 32 59 60
f 32 60 33
f 33 60 61
f 33 61 34
f 34 61 62
f 34 62 35
f 35 63 64
f 35 64 65
f 35 65 36
f 35 62 63
f 36 65 37
f 37 65 66
f 37 66 67
f 37 67 68
f 37 68 38
f 38 68 69
f 38 69 39
f 39 69 40
f 40 69 41
f 41 70 71
f 41 71 72
f 41 72 42
f 41 69 70
f 42 73 44
f 42 44 43
f 42 72 74
f 42 74 73
f 44 73 45
f 45 73 75
f 45 75 76
f 45 76 77
f 45 77 46
f 46 77 47
f 47 77 78
f 47 78 48
f 48 78 79
f 48 79 52
f 49 80 50
f 49 54 80
f 50 80 81
f 50 81 82
f 50 82 51
f 51 82 55
f 52 79 83
f 52 83 84
f 52 84 85
f 52 85 86
f 52 86 53
f 53 86 54
f 54 86 85
f 54 85 87
f 54 87 80
f 55 82 88
f 55 88 56
f 56 88 57
f 57 88 89
f 57 89 90
f 57 90 91
f 57 91 58
f 58 91 92
f 58 92 93
f 58 93 59
f 59 93 60
f 60 93 94
f 60 94 95
f 60 95 61
f 61 96 62
f 61 95 97
f 61 97 98
f 61 98 99
f 61 99 96
f 62 96 100
f 62 100 101
f 62 101 102
f 62 102 64
f 62 64 63
f 64 102 101
f 64 101 103
f 64 103 104
f 64 104 105
f 64 105 106
f 64 106 107
f 64 107 65
f 65 107 66
f 66 108 67
f 66 107 108
f 67 108 109
f 67 109 110
f 67 110 111
f 67 111 112
f 67 112 113
f 67 113 68
f 68 113 69
f 69 113 114
f 69 114 70
f 70 114 71
f 71 114 115
f 71 115 116
f 71 116 72
f 72 116 117
f 72 117 74
f 73 74 118
f 73 118 75
f 74 117 119
f 74 119 118
f 75 118 120
f 75 120 121
f 75 121 76
f 76 122 77
f 76 121 123
f 76 123 122
f 77 122 78
f 78 122 124
f 78 124 79
f 79 124 125
f 79 125 126
f 79 126 83
f 80 87 127
f 80 127 128
f 80 128 81
f 81 128 129
f 81 129 82
f 82 129 130
f 82 130 131
f 82 131 132
f 82 132 88
f 83 126 84
f 84 133 85
f 84 126 134
f 84 134 135
f 84 135 133
f 85 133 136
f 85 136 137
f 85 137 87
f 87 138 127
f 87 137 139
f 87 139 138
f 88 131 140
f 88 140 89
f 88 132 131
f 89 140 141
f 89 141 90
f 90 141 142
f 90 142 143
f 90 143 92
f 90 92 91
f 92 143 144
f 92 144 145
f 92 145 93
f 93 145 94
f 94 145 144
f 94 144 146
f 94 146 97
f 94 97 95
f 96 99 147
f 96 147 100
f 97 148 99
f 97 99 98
f 97 146 149
f 97 149 148
f 99 148 150
f 99 150 151
f 99 151 147
f 100 147 101
f 101 152 104
f 101 104 103
f 101 147 153
f 101 153 152
f 104 154 105
f 104 152 154
f 105 154 155
f 105 155 156
f 105 156 106
f 106 156 157
f 106 157 158
f 106 158 159
f 106 159 107
f 107 159 108
f 108 159 109
f 109 160 161
f 109 161 110
f 109 159 160
f 110 162 163
f 110 163 164
f 110 164 111
f 110 161 160
f 110 160 162
f 111 164 165
f 111 165 112
f 112 165 166
f 112 166 113
f 113 166 114
f 114 165 167
f 114 167 168
f 114 168 115
f 114 166 165
f 115 168 169
f 115 169 116
f 116 169 170
f 116 170 117
f 117 170 171
f 117 171 172
f 117 172 173
f 117 173 119
f 118 119 174
f 118 174 120
f 119 173 172
f 119 172 174
f 120 174 175
f 120 175 176
f 120 176 177
f 120 177 121
f 121 177 178
f 121 178 123
f 122 123 179
f 122 179 180
f 122 180 181
f 122 181 124
f 123 178 182
f 123 182 179
f 124 181 125
f 125 181 183
f 125 183 126
f 126 183 184
f 126 184 134
f 127 138 185
f 127 185 186
f 127 186 129
f 127 129 128
f 129 186 187
f 129 187 188
f 129 188 189
f 129 189 190
f 129 190 131
f 129 131 130
f 131 190 189
f 131 189 191
f 131 191 192
f 131 192 140
f 133 135 134
f 133 134 193
f 133 193 136
f 134 184 194
f 134 194 195
f 134 195 196
f 134 196 193
f 136 193 197
f 136 197 198
f 136 198 139
f 136 139 137
f 138 139 199
f 138 199 185
f 139 198 200
f 139 200 199
f 140 192 141
f 141 192 201
f 141 201 142
f 142 201 202
f 142 202 143
f 143 202 203
f 143 203 144
f 144 203 204
f 144 204 146
f 146 204 205
f 146 205 149
f 147 151 153
f 148 149 206
f 148 206 150
f 149 205 207
f 149 207 206
f 150 206 151
f 151 206 208
f 151 208 209
f 151 209 210
f 151 210 152
f 151 152 153
f 152 210 211
f 152 211 212
f 152 212 213
f 152 213 154
f 154 213 155
f 155 213 214
f 155 214 215
f 155 215 157
f 155 157 156
f 157 215 216
f 157 216 217
f 157 217 160
f 157 160 158
f 158 160 159
f 160 217 218
f 160 218 162
f 162 218 219
f 162 219 220
f 162 220 163
f 163 220 164
f 164 220 221
f 164 221 165
f 165 221 222
f 165 222 167
f 167 222 168
f 168 222 223
f 168 223 224
f 168 224 225
f 168 225 169
f 169 225 226
f 169 226 170
f 170 226 171
f 171 227 228
f 171 228 172
f 171 226 229
f 171 229 227
f 172 230 176
f 172 176 174
f 172 228 230
f 174 176 175
f 176 231 177
f 176 230 231
f 177 231 178
f 178 232 182
f 178 231 233
f 178 233 234
f 178 234 235
f 178 235 232
f 179 182 232
f 179 232 236
f 179 236 237
f 179 237 180
f 180 237 181
f 181 237 238
f 181 238 183
f 183 238 239
f 183 239 240
f 183 240 184
f 184 240 194
f 185 199 241
f 185 241 242
f 185 242 187
f 185 187 186
f 187 243 244
f 187 244 189
f 187 189 188
f 187 242 243
f 189 245 246
f 189 246 247
f 189 247 191
f 189 244 245
f 191 247 192
f 192 247 201
f 193 196 197
f 194 240 248
f 194 248 249
f 194 249 195
f 195 249 196
f 196 249 250
f 196 250 251
f 196 251 252
f 196 252 197
f 197 253 254
f 197 254 255
f 197 255 256
f 197 256 198
f 197 252 253
f 198 256 200
f 199 200 241
f 200 257 241
f 200 256 257
f 201 258 202
f 201 247 258
f 202 259 260
f 202 260 203
f 202 258 259
f 203 260 261
f 203 261 262
f 203 262 263
f 203 263 204
f 204 263 264
f 204 264 205
f 205 264 265
f 205 265 266
f 205 266 207
f 206 207 267
f 206 267 208
f 207 266 267
f 208 267 268
f 208 268 209
f 209 268 269
f 209 269 270
f 209 270 210
f 210 270 211
f 211 270 212
f 212 270 271
f 212 271 272
f 212 272 213
f 213 272 273
f 213 273 274
f 213 274 214
f 214 274 275
f 214 275 215
f 215 275 216
f 216 276 277
f 216 277 278
f 216 278 217
f 216 275 276
f 217 278 218
f 218 278 219
f 219 279 280
f 219 280 220
f 219 278 279
f 220 280 221
f 221 280 281
f 221 281 282
f 221 282 283
f 221 283 284
f 221 284 285
f 221 285 222
f 222 285 284
f 222 284 223
f 223 284 224
f 224 284 286
f 224 286 287
f 224 287 225
f 225 287 288
f 225 288 226
f 226 288 229
f 227 229 289
f 227 289 290
f 227 290 228
f 228 290 291
f 228 291 230
f 229 287 292
f 229 292 289
f 229 288 287
f 230 233 231
f 230 291 233
f 232 235 293
f 232 293 294
f 232 294 236
f 233 291 295
f 233 295 234
f 234 295 296
f 234 296 297
f 234 297 298
f 234 298 293
f 234 293 235
f 236 294 299
f 236 299 237
f 237 299 300
f 237 300 239
f 237 239 238
f 239 301 248
f 239 248 240
f 239 300 299
f 239 299 302
f 239 302 303
f 239 303 304
f 239 304 301
f 241 305 306
f 241 306 243
f 241 243 242
f 241 257 307
f 241 307 305
f 243 306 308
f 243 308 309
f 243 309 244
f 244 309 245
f 245 309 310
f 245 310 311
f 245 311 246
f 246 311 312
f 246 312 247
f 247 312 258
f 248 301 249
f 249 301 250
f 250 301 313
f 250 313 251
f 251 314 252
f 251 313 315
f 251 315 316
f 251 316 314
f 252 314 317
f 252 317 318
f 252 318 319
f 252 319 253
f 253 319 254
f 254 319 318
f 254 318 255
f 255 318 400
f 255 400 320
f 255 320 402
f 255 402 321
f 255 321 307
f 255 307 322
f 255 322 256
f 256 322 257
f 257 322 307
f 258 312 259
f 259 323 260
f 259 312 324
f 259 324 325
f 259 325 323
f 260 326 262
f 260 262 261
f 260 323 326
f 262 327 328
f 262 328 263
f 262 326 327
f 263 328 329
f 263 329 265
f 263 265 264
f 265 329 330
f 265 330 266
f 266 330 331
f 266 331 332
f 266 332 267
f 267 332 268
f 268 333 334
f 268 334 269
f 268 332 331
f 268 331 333
f 269 334 335
f 269 335 336
f 269 336 270
f 270 336 337
f 270 337 271
f 271 337 338
f 271 338 272
f 272 338 339
f 272 339 273
f 273 340 341
f 273 341 274
f 273 339 340
f 274 341 275
f 275 341 342
f 275 342 343
f 275 343 344
f 275 344 345
f 275 345 346
f 275 346 276
f 276 346 347
f 276 347 277
f 277 347 348
f 277 348 349
f 277 349 278
f 278 349 279
f 279 349 350
f 279 350 280
f 280 351 352
f 280 352 353
f 280 353 354
f 280 354 281
f 280 350 351
f 281 354 282
f 282 284 283
f 282 354 353
f 282 353 355
f 282 355 356
f 282 356 357
f 282 357 284
f 284 357 358
f 284 358 286
f 286 358 287
f 287 358 359
f 287 359 360
f 287 360 292
f 289 292 361
f 289 361 290
f 290 361 362
f 290 362 291
f 291 362 363
f 291 363 295
f 292 364 365
f 292 365 366
f 292 366 367
f 292 367 368
f 292 368 369
f 292 369 361
f 292 360 364
f 293 298 370
f 293 370 371
f 293 371 294
f 294 371 299
f 295 363 296
f 296 363 372
f 296 372 297
f 297 373 298
f 297 372 374
f 297 374 375
f 297 375 376
f 297 376 373
f 298 373 370
f 299 303 302
f 299 371 377
f 299 377 378
f 299 378 303
f 301 304 303
f 301 303 379
f 301 379 313
f 303 380 381
f 303 381 379
f 303 378 377
f 303 377 382
f 303 382 383
f 303 383 380
f 305 307 384
f 305 384 306
f 306 385 308
f 306 384 385
f 307 386 384
f 307 321 387
f 307 387 386
f 308 385 388
f 308 388 309
f 309 388 389
f 309 389 310
f 310 390 391
f 310 391 311
f 310 389 390
f 311 391 325
f 311 325 324
f 311 324 312
f 313 379 381
f 313 381 315
f 314 392 317
f 314 316 393
f 314 393 394
f 314 394 392
f 315 381 395
f 315 395 316
f 316 395 396
f 316 396 393
f 317 392 397
f 317 397 398
f 317 398 399
f 317 399 400
f 317 400 318
f 320 400 399
f 320 399 398
f 320 398 401
f 320 401 402
f 321 402 387
f 323 325 403
f 323 403 404
f 323 404 326
f 325 391 405
f 325 405 403
f 326 406 327
f 326 404 407
f 326 407 406
f 327 406 408
f 327 408 409
f 327 409 328
f 328 409 410
f 328 410 329
f 329 410 411
f 329 411 330
f 330 411 412
f 330 412 331
f 331 412 413
f 331 413 333
f 333 413 414
f 333 414 334
f 334 414 415
f 334 415 335
f 335 415 416
f 335 416 417
f 335 417 336
f 336 417 337
f 337 417 418
f 337 418 419
f 337 419 338
f 338 419 420
f 338 420 339
f 339 420 421
f 339 421 340
f 340 421 343
f 340 343 341
f 341 343 342
f 343 421 422
f 343 422 344
f 344 423 424
f 344 424 425
f 344 425 426
f 344 426 427
f 344 427 345
f 344 422 428
f 344 428 423
f 345 427 346
f 346 427 347
f 347 427 429
f 347 429 430
f 347 430 431
f 347 431 348
f 348 431 349
f 349 431 432
f 349 432 350
f 350 432 351
f 351 433 434
f 351 434 435
f 351 435 436
f 351 436 437
f 351 437 352
f 351 432 431
f 351 431 433
f 352 437 353
f 353 438 439
f 353 439 440
f 353 440 356
f 353 356 355
f 353 437 438
f 356 440 439
f 356 439 441
f 356 441 442
f 356 442 443
f 356 443 444
f 356 444 445
f 356 445 357
f 357 445 358
f 358 445 444
f 358 444 359
f 359 444 446
f 359 446 360
f 360 446 444
f 360 444 447
f 360 447 364
f 361 369 362
f 362 369 448
f 362 448 363
f 363 448 449
f 363 449 372
f 364 366 365
f 364 447 450
f 364 450 451
f 364 451 452
f 364 452 453
f 364 453 454
f 364 454 455
f 364 455 366
f 366 455 456
f 366 456 457
f 366 457 367
f 367 457 458
f 367 458 368
f 368 458 369
f 369 458 448
f 370 377 371
f 370 373 459
f 370 459 377
f 372 449 460
f 372 460 374
f 373 376 459
f 374 460 375
f 375 460 461
f 375 461 376
f 376 461 462
f 376 462 459
f 377 459 463
f 377 463 464
f 377 464 382
f 380 465 381
f 380 383 465
f 381 465 466
f 381 466 467
f 381 467 395
f 382 464 383
f 383 464 468
f 383 468 466
f 383 466 465
f 384 386 469
f 384 469 385
f 385 469 470
f 385 470 388
f 386 471 472
f 386 472 469
f 386 387 473
f 386 473 471
f 387 402 401
f 387 401 473
f 388 474 389
f 388 470 474
f 389 474 475
f 389 475 390
f 390 475 476
f 390 476 391
f 391 476 405
f 392 477 397
f 392 394 478
f 392 478 477
f 393 396 479
f 393 479 394
f 394 479 480
f 394 480 481
f 394 481 482
f 394 482 483
f 394 483 478
f 395 467 484
f 395 484 479
f 395 479 396
f 397 477 485
f 397 485 401
f 397 401 398
f 401 486 473
f 401 485 486
f 403 487 404
f 403 405 487
f 404 488 407
f 404 487 489
f 404 489 488
f 405 476 490
f 405 490 487
f 406 407 408
f 407 488 491
f 407 491 408
f 408 491 492
f 408 492 409
f 409 492 493
f 409 493 410
f 410 493 494
f 410 494 411
f 411 494 495
f 411 495 412
f 412 495 496
f 412 496 413
f 413 496 497
f 413 497 498
f 413 498 414
f 414 498 415
f 415 498 499
f 415 499 416
f 416 499 500
f 416 500 418
f 416 418 417
f 418 500 501
f 418 501 502
f 418 502 420
f 418 420 419
f 420 502 503
f 420 503 421
f 421 503 422
f 422 504 505
f 422 505 428
f 422 503 504
f 423 428 505
f 423 505 424
f 424 505 506
f 424 506 507
f 424 507 425
f 425 508 509
f 425 509 426
f 425 507 508
f 426 509 510
f 426 510 427
f 427 510 511
f 427 511 512
f 427 512 513
f 427 513 429
f 429 513 430
f 430 513 514
f 430 514 515
f 430 515 516
f 430 516 433
f 430 433 431
f 433 516 517
f 433 517 518
f 433 518 435
f 433 435 434
f 435 518 519
f 435 519 520
f 435 520 521
f 435 521 436
f 436 521 438
f 436 438 437
f 438 521 522
f 438 522 439
f 439 522 441
f 441 522 523
f 441 523 524
f 441 524 525
f 441 525 442
f 442 525 526
f 442 526 527
f 442 527 528
f 442 528 529
f 442 529 443
f 443 529 444
f 444 529 451
f 444 451 450
f 444 450 447
f 448 458 530
f 448 530 449
f 449 530 531
f 449 531 532
f 449 532 533
f 449 533 460
f 451 529 528
f 451 528 527
f 451 527 534
f 451 534 453
f 451 453 452
f 453 535 536
f 453 536 454
f 453 534 537
f 453 537 526
f 453 526 538
f 453 538 539
f 453 539 540
f 453 540 541
f 453 541 542
f 453 542 543
f 453 543 535
f 454 536 455
f 455 536 544
f 455 544 545
f 455 545 546
f 455 546 456
f 456 546 547
f 456 547 457
f 457 547 458
f 458 531 530
f 458 547 548
f 458 548 531
f 459 462 549
f 459 549 463
f 460 532 550
f 460 550 461
f 460 533 532
f 461 550 551
f 461 551 552
f 461 552 553
f 461 553 462
f 462 553 554
f 462 554 555
f 462 555 556
f 462 556 549
f 463 549 557
f 463 557 464
f 464 557 468
f 466 468 557
f 466 557 558
f 466 558 559
f 466 559 467
f 467 559 484
f 469 472 560
f 469 560 470
f 470 560 561
f 470 561 474
f 471 473 562
f 471 562 563
f 471 563 564
f 471 564 472
f 472 564 560
f 473 486 562
f 474 561 475
f 475 561 565
f 475 565 490
f 475 490 476
f 477 566 485
f 477 478 567
f 477 567 568
f 477 568 566
f 478 483 567
f 479 484 480
f 480 484 569
f 480 569 570
f 480 570 571
f 480 571 572
f 480 572 573
f 480 573 481
f 481 573 572
f 481 572 574
f 481 574 575
f 481 575 482
f 482 576 483
f 482 575 576
f 483 576 577
f 483 577 567
f 484 559 578
f 484 578 579
f 484 579 569
f 485 566 580
f 485 580 581
f 485 581 486
f 486 581 582
f 486 582 583
f 486 583 562
f 487 490 584
f 487 584 585
f 487 585 489
f 488 489 586
f 488 586 587
f 488 587 588
f 488 588 491
f 489 585 586
f 490 565 589
f 490 589 584
f 491 588 590
f 491 590 492
f 492 590 591
f 492 591 493
f 493 591 592
f 493 592 494
f 494 592 593
f 494 593 594
f 494 594 495
f 495 594 496
f 496 594 593
f 496 593 595
f 496 595 596
f 496 596 597
f 496 597 497
f 497 597 598
f 497 598 498
f 498 598 599
f 498 599 499
f 499 599 600
f 499 600 500
f 500 600 601
f 500 601 602
f 500 602 501
f 501 602 502
f 502 602 603
f 502 603 503
f 503 603 604
f 503 604 504
f 504 604 506
f 504 506 505
f 506 604 605
f 506 605 507
f 507 605 606
f 507 606 508
f 508 606 607
f 508 607 608
f 508 608 609
f 508 609 509
f 509 609 715
f 509 715 610
f 509 610 611
f 509 611 510
f 510 611 612
f 510 612 511
f 511 612 512
f 512 612 515
f 512 515 513
f 513 515 514
f 515 612 611
f 515 611 613
f 515 613 614
f 515 614 615
f 515 615 616
f 515 616 617
f 515 617 516
f 516 617 616
f 516 616 618
f 516 618 517
f 517 618 619
f 517 619 519
f 517 519 518
f 519 619 620
f 519 620 621
f 519 621 622
f 519 622 520
f 520 622 522
f 520 522 521
f 522 622 523
f 523 623 624
f 523 624 524
f 523 622 621
f 523 621 623
f 524 624 625
f 524 625 526
f 524 526 525
f 526 534 527
f 526 625 539
f 526 539 538
f 526 537 534
f 531 548 532
f 532 548 550
f 535 626 536
f 535 543 626
f 536 626 544
f 539 625 627
f 539 627 628
f 539 628 629
f 539 629 630
f 539 630 540
f 540 630 541
f 541 631 632
f 541 632 633
f 541 633 634
f 541 634 635
f 541 635 636
f 541 636 637
f 541 637 543
f 541 543 542
f 541 630 629
f 541 629 631
f 543 637 638
f 543 638 639
f 543 639 640
f 543 640 626
f 544 626 640
f 544 640 641
f 544 641 642
f 544 642 643
f 544 643 546
f 544 546 545
f 546 643 644
f 546 644 547
f 547 645 548
f 547 644 645
f 548 645 550
f 549 556 557
f 550 645 551
f 551 645 646
f 551 646 552
f 552 646 647
f 552 647 648
f 552 648 649
f 552 649 553
f 553 649 554
f 554 650 651
f 554 651 555
f 554 649 652
f 554 652 650
f 555 653 556
f 555 651 653
f 556 653 557
f 557 653 654
f 557 654 655
f 557 655 558
f 558 655 578
f 558 578 559
f 560 656 561
f 560 564 656
f 561 656 565
f 562 657 658
f 562 658 563
f 562 583 659
f 562 659 657
f 563 660 564
f 563 658 660
f 564 661 656
f 564 660 661
f 565 656 589
f 566 568 580
f 567 577 568
f 568 577 662
f 568 662 580
f 569 579 663
f 569 663 570
f 570 663 664
f 570 664 571
f 571 664 665
f 571 665 666
f 571 666 572
f 572 666 574
f 574 666 667
f 574 667 668
f 574 668 669
f 574 669 575
f 575 670 576
f 575 669 670
f 576 671 577
f 576 670 669
f 576 669 671
f 577 671 662
f 578 655 672
f 578 672 579
f 579 672 673
f 579 673 674
f 579 674 663
f 580 662 675
f 580 675 676
f 580 676 677
f 580 677 678
f 580 678 679
f 580 679 581
f 581 679 582
f 582 680 681
f 582 681 659
f 582 659 583
f 582 679 678
f 582 678 682
f 582 682 680
f 584 589 683
f 584 683 585
f 585 683 684
f 585 684 586
f 586 684 685
f 586 685 587
f 587 685 686
f 587 686 588
f 588 686 687
f 588 687 688
f 588 688 590
f 589 656 689
f 589 689 690
f 589 690 683
f 590 688 691
f 590 691 591
f 591 691 692
f 591 692 592
f 592 692 593
f 593 692 693
f 593 693 694
f 593 694 695
f 593 695 595
f 595 695 596
f 596 695 694
f 596 694 696
f 596 696 697
f 596 697 698
f 596 698 699
f 596 699 700
f 596 700 597
f 597 700 599
f 597 599 598
f 599 700 701
f 599 701 600
f 600 701 702
f 600 702 703
f 600 703 601
f 601 703 602
f 602 703 704
f 602 704 603
f 603 704 604
f 604 705 605
f 604 704 705
f 605 705 706
f 605 706 606
f 606 706 707
f 606 707 708
f 606 708 607
f 607 708 709
f 607 709 710
f 607 710 711
f 607 711 712
f 607 712 608
f 608 712 713
f 608 713 609
f 609 713 714
f 609 714 715
f 610 715 716
f 610 716 717
f 610 717 718
f 610 718 611
f 611 718 719
f 611 719 615
f 611 615 613
f 613 615 614
f 615 719 720
f 615 720 721
f 615 721 722
f 615 722 723
f 615 723 724
f 615 724 725
f 615 725 726
f 615 726 616
f 616 726 618
f 618 726 727
f 618 727 728
f 618 728 729
f 618 729 730
f 618 730 619
f 619 730 620
f 620 730 731
f 620 731 732
f 620 732 733
f 620 733 623
f 620 623 621
f 623 733 732
f 623 732 624
f 624 732 734
f 624 734 735
f 624 735 736
f 624 736 737
f 624 737 627
f 624 627 625
f 627 737 628
f 628 737 631
f 628 631 629
f 631 737 632
f 632 738 837
f 632 837 919
f 632 919 835
f 632 835 834
f 632 834 833
f 632 833 828
f 632 828 826
f 632 826 721
f 632 721 823
f 632 823 717
f 632 717 714
f 632 714 712
f 632 712 711
f 632 711 822
f 632 822 821
f 632 821 917
f 632 917 966
f 632 966 965
f 632 965 964
f 632 964 998
f 632 998 997
f 632 997 994
f 632 994 993
f 632 993 992
f 632 992 991
f 632 991 957
f 632 957 956
f 632 956 955
f 632 955 990
f 632 990 989
f 632 989 988
f 632 988 1006
f 632 1006 1005
f 632 1005 1004
f 632 1004 1003
f 632 1003 1002
f 632 1002 1000
f 632 1000 972
f 632 972 971
f 632 971 934
f 632 934 937
f 632 937 877
f 632 877 875
f 632 875 871
f 632 871 866
f 632 866 770
f 632 770 669
f 632 669 668
f 632 668 667
f 632 667 666
f 632 666 769
f 632 769 865
f 632 865 927
f 632 927 920
f 632 920 838
f 632 838 739
f 632 739 635
f 632 635 634
f 632 634 633
f 632 737 736
f 632 736 735
f 632 735 738
f 635 739 740
f 635 740 741
f 635 741 638
f 635 638 636
f 636 638 637
f 638 741 742
f 638 742 743
f 638 743 640
f 638 640 639
f 640 743 742
f 640 742 741
f 640 741 744
f 640 744 641
f 641 744 745
f 641 745 642
f 642 647 746
f 642 746 747
f 642 747 643
f 642 745 647
f 643 747 644
f 644 747 645
f 645 747 646
f 646 747 746
f 646 746 647
f 647 745 748
f 647 748 749
f 647 749 750
f 647 750 648
f 648 750 751
f 648 751 649
f 649 751 752
f 649 752 652
f 650 753 754
f 650 754 651
f 650 652 755
f 650 755 753
f 651 754 654
f 651 654 653
f 652 752 756
f 652 756 755
f 654 757 672
f 654 672 655
f 654 754 757
f 656 661 758
f 656 758 689
f 657 759 658
f 657 659 759
f 658 759 760
f 658 760 761
f 658 761 762
f 658 762 763
f 658 763 660
f 659 764 760
f 659 760 759
f 659 681 680
f 659 680 764
f 660 763 765
f 660 765 766
f 660 766 661
f 661 766 758
f 662 671 675
f 663 674 664
f 664 674 767
f 664 767 665
f 665 767 768
f 665 768 769
f 665 769 666
f 669 770 771
f 669 771 671
f 671 772 675
f 671 771 772
f 672 757 673
f 673 757 674
f 674 757 773
f 674 773 774
f 674 774 767
f 675 772 676
f 676 772 775
f 676 775 776
f 676 776 777
f 676 777 778
f 676 778 779
f 676 779 677
f 677 779 780
f 677 780 678
f 678 780 682
f 680 781 782
f 680 782 783
f 680 783 784
f 680 784 764
f 680 682 780
f 680 780 779
f 680 779 785
f 680 785 786
f 680 786 787
f 680 787 781
f 683 788 684
f 683 690 788
f 684 788 789
f 684 789 685
f 685 789 790
f 685 790 791
f 685 791 792
f 685 792 686
f 686 792 793
f 686 793 794
f 686 794 687
f 687 794 795
f 687 795 688
f 688 795 796
f 688 796 691
f 689 758 797
f 689 797 690
f 690 798 788
f 690 797 799
f 690 799 800
f 690 800 798
f 691 796 801
f 691 801 692
f 692 801 693
f 693 801 694
f 694 801 802
f 694 802 803
f 694 803 804
f 694 804 805
f 694 805 806
f 694 806 807
f 694 807 696
f 696 807 808
f 696 808 697
f 697 808 698
f 698 808 809
f 698 809 810
f 698 810 811
f 698 811 812
f 698 812 699
f 699 701 700
f 699 812 813
f 699 813 701
f 701 813 702
f 702 813 814
f 702 814 703
f 703 814 815
f 703 815 704
f 704 815 705
f 705 816 706
f 705 815 816
f 706 816 707
f 707 817 708
f 707 816 818
f 707 818 817
f 708 817 819
f 708 819 820
f 708 820 821
f 708 821 709
f 709 821 822
f 709 822 710
f 710 822 711
f 712 714 713
f 714 716 715
f 714 717 716
f 717 823 824
f 717 824 718
f 718 824 719
f 719 824 823
f 719 823 720
f 720 823 721
f 721 825 722
f 721 826 825
f 722 825 723
f 723 825 826
f 723 826 728
f 723 728 727
f 723 727 725
f 723 725 724
f 725 727 726
f 728 827 729
f 728 826 828
f 728 828 827
f 729 827 829
f 729 829 730
f 730 829 830
f 730 830 731
f 731 830 732
f 732 831 734
f 732 830 831
f 734 832 833
f 734 833 834
f 734 834 835
f 734 835 836
f 734 836 735
f 734 831 832
f 735 836 837
f 735 837 738
f 739 838 839
f 739 839 840
f 739 840 841
f 739 841 741
f 739 741 740
f 741 842 843
f 741 843 844
f 741 844 744
f 741 841 842
f 744 844 745
f 745 844 843
f 745 843 748
f 748 845 749
f 748 843 842
f 748 842 841
f 748 841 845
f 749 845 846
f 749 846 847
f 749 847 751
f 749 751 750
f 751 847 848
f 751 848 849
f 751 849 850
f 751 850 756
f 751 756 752
f 753 755 851
f 753 851 852
f 753 852 853
f 753 853 854
f 753 854 757
f 753 757 754
f 755 756 855
f 755 855 856
f 755 856 851
f 756 850 856
f 756 856 855
f 757 854 857
f 757 857 773
f 758 858 799
f 758 799 797
f 758 766 765
f 758 765 858
f 760 784 761
f 760 764 784
f 761 784 781
f 761 781 859
f 761 859 860
f 761 860 861
f 761 861 765
f 761 765 762
f 762 765 763
f 765 862 863
f 765 863 799
f 765 799 858
f 765 861 862
f 767 774 768
f 768 864 865
f 768 865 769
f 768 774 864
f 770 866 771
f 771 866 867
f 771 867 772
f 772 867 866
f 772 866 868
f 772 868 775
f 773 857 854
f 773 854 853
f 773 853 774
f 774 853 864
f 775 868 776
f 776 869 777
f 776 868 866
f 776 866 869
f 777 869 778
f 778 870 779
f 778 869 871
f 778 871 870
f 779 870 785
f 781 787 872
f 781 872 859
f 781 784 782
f 782 784 783
f 785 873 787
f 785 787 786
f 785 870 874
f 785 874 875
f 785 875 873
f 787 873 876
f 787 876 877
f 787 877 878
f 787 878 879
f 787 879 872
f 788 798 789
f 789 798 790
f 790 880 791
f 790 798 881
f 790 881 882
f 790 882 883
f 790 883 884
f 790 884 885
f 790 885 886
f 790 886 880
f 791 793 792
f 791 880 793
f 793 880 887
f 793 887 888
f 793 888 889
f 793 889 890
f 793 890 794
f 794 890 795
f 795 890 891
f 795 891 892
f 795 892 893
f 795 893 894
f 795 894 796
f 796 894 893
f 796 893 801
f 798 800 799
f 798 799 895
f 798 895 896
f 798 896 881
f 799 896 895
f 799 863 862
f 799 862 897
f 799 897 896
f 801 893 898
f 801 898 802
f 802 899 803
f 802 898 899
f 803 899 900
f 803 900 804
f 804 900 901
f 804 901 902
f 804 902 903
f 804 903 904
f 804 904 905
f 804 905 806
f 804 806 805
f 806 905 906
f 806 906 907
f 806 907 807
f 807 907 908
f 807 908 809
f 807 809 808
f 809 908 810
f 810 908 909
f 810 909 811
f 811 909 812
f 812 909 910
f 812 910 911
f 812 911 912
f 812 912 813
f 813 912 815
f 813 815 814
f 815 912 816
f 816 912 818
f 817 913 914
f 817 914 915
f 817 915 819
f 817 818 916
f 817 916 913
f 818 912 911
f 818 911 916
f 819 915 820
f 820 915 917
f 820 917 821
f 827 828 833
f 827 833 829
f 829 831 830
f 829 833 918
f 829 918 831
f 831 918 832
f 832 918 833
f 835 919 836
f 836 919 837
f 838 920 921
f 838 921 848
f 838 848 922
f 838 922 923
f 838 923 839
f 839 923 840
f 840 923 846
f 840 846 841
f 841 846 845
f 846 923 924
f 846 924 847
f 847 924 848
f 848 924 922
f 848 921 850
f 848 850 849
f 850 921 920
f 850 920 925
f 850 925 856
f 851 856 926
f 851 926 852
f 852 926 853
f 853 926 865
f 853 865 864
f 856 925 927
f 856 927 926
f 859 928 929
f 859 929 860
f 859 872 928
f 860 930 931
f 860 931 932
f 860 932 862
f 860 862 861
f 860 929 930
f 862 933 897
f 862 932 933
f 865 926 927
f 866 871 869
f 870 871 874
f 871 875 874
f 872 934 935
f 872 935 936
f 872 936 928
f 872 879 878
f 872 878 937
f 872 937 934
f 873 875 876
f 875 877 876
f 877 937 878
f 880 886 885
f 880 885 938
f 880 938 939
f 880 939 887
f 881 896 882
f 882 896 940
f 882 940 941
f 882 941 942
f 882 942 943
f 882 943 944
f 882 944 884
f 882 884 883
f 884 944 943
f 884 943 945
f 884 945 885
f 885 945 946
f 885 946 947
f 885 947 938
f 887 939 888
f 888 939 947
f 888 947 948
f 888 948 949
f 888 949 889
f 889 949 890
f 890 949 891
f 891 949 950
f 891 950 893
f 891 893 892
f 893 950 951
f 893 951 902
f 893 902 901
f 893 901 900
f 893 900 899
f 893 899 898
f 896 897 933
f 896 933 940
f 902 951 952
f 902 952 953
f 902 953 903
f 903 953 952
f 903 952 954
f 903 954 955
f 903 955 956
f 903 956 904
f 904 956 957
f 904 957 906
f 904 906 905
f 906 957 958
f 906 958 959
f 906 959 907
f 907 959 960
f 907 960 908
f 908 960 961
f 908 961 909
f 909 961 910
f 910 961 962
f 910 962 916
f 910 916 911
f 913 916 962
f 913 962 963
f 913 963 964
f 913 964 914
f 914 964 965
f 914 965 966
f 914 966 917
f 914 917 915
f 920 927 925
f 922 924 923
f 928 967 968
f 928 968 930
f 928 930 929
f 928 936 935
f 928 935 967
f 930 968 969
f 930 969 970
f 930 970 931
f 931 970 932
f 932 970 933
f 933 970 941
f 933 941 940
f 934 971 935
f 935 971 972
f 935 972 967
f 938 947 939
f 941 970 942
f 942 970 973
f 942 973 943
f 943 973 974
f 943 974 975
f 943 975 976
f 943 976 977
f 943 977 945
f 945 977 978
f 945 978 979
f 945 979 946
f 946 980 947
f 946 979 981
f 946 981 982
f 946 982 983
f 946 983 980
f 947 980 984
f 947 984 948
f 948 984 949
f 949 984 950
f 950 984 951
f 951 984 985
f 951 985 952
f 952 985 986
f 952 986 987
f 952 987 988
f 952 988 954
f 954 988 989
f 954 989 990
f 954 990 955
f 957 991 958
f 958 991 992
f 958 992 959
f 959 992 993
f 959 993 960
f 960 993 994
f 960 994 995
f 960 995 961
f 961 995 994
f 961 994 996
f 961 996 962
f 962 996 997
f 962 997 998
f 962 998 963
f 963 998 964
f 967 972 999
f 967 999 969
f 967 969 968
f 969 973 970
f 969 999 973
f 972 1000 1001
f 972 1001 999
f 973 999 974
f 974 999 1001
f 974 1001 1000
f 974 1000 1002
f 974 1002 975
f 975 1002 1003
f 975 1003 976
f 976 1003 1004
f 976 1004 978
f 976 978 977
f 978 981 979
f 978 1004 981
f 980 983 987
f 980 987 984
f 981 1004 1005
f 981 1005 982
f 982 1005 1006
f 982 1006 987
f 982 987 983
f 984 987 986
f 984 986 985
f 987 1006 988
f 994 997 996

