# https://github.com/mikedh/trimesh
v -0.04631880 0.00651699 0.06616343
v -0.04622970 0.00177706 0.06616343
v -0.04631880 0.00770198 0.06616343
v -0.04513588 -0.00296034 0.06250623
v -0.04541605 -0.00296034 0.06340147
v -0.04622541 0.00159475 0.06616343
v -0.04572305 -0.00296034 0.06458653
v -0.04630914 0.00770198 0.06613483
v -0.04629733 0.00803873 0.06616343
v -0.04462923 -0.00177536 0.06103229
v -0.04493300 -0.00296034 0.06191323
v -0.04510583 -0.00414533 0.06260443
v -0.04535808 -0.00414533 0.06340147
v -0.04568011 -0.00414533 0.06458653
v -0.04619643 0.00059208 0.06616343
v -0.04595491 -0.00414533 0.06577159
v -0.04624259 0.00888696 0.06616343
v -0.04605581 0.00888696 0.06564002
v -0.04387246 0.00157450 0.05920751
v -0.04388963 0.00059208 0.05917414
v -0.04414404 0.00059208 0.05984723
v -0.04416765 -0.00059038 0.05984723
v -0.04418160 -0.00177536 0.05984723
v -0.04462386 -0.00296034 0.06103229
v -0.04489329 -0.00414533 0.06201238
v -0.04505860 -0.00496317 0.06273600
v -0.04519814 -0.00534803 0.06332138
v -0.04556418 -0.00533284 0.06458653
v -0.04586796 -0.00533284 0.06577159
v -0.04596135 -0.00533284 0.06616343
v -0.04606118 -0.00355790 0.06616343
v -0.04604185 -0.00414533 0.06616343
v -0.04615456 0.00973265 0.06616343
v -0.04603005 0.01000864 0.06587170
v -0.04563932 0.00888696 0.06458653
v -0.04384670 0.00236449 0.05925518
v -0.04356975 0.00189353 0.05875179
v -0.04354184 0.00059208 0.05858113
v -0.04389393 -0.00059038 0.05916556
v -0.04388963 -0.00177536 0.05916937
v -0.04387460 -0.00275525 0.05919893
v -0.04409036 -0.00307428 0.05972901
v -0.04453906 -0.00414533 0.06103229
v -0.04485357 -0.00534803 0.06229077
v -0.04501244 -0.00575316 0.06287329
v -0.04514447 -0.00651783 0.06363695
v -0.04541819 -0.00651783 0.06458653
v -0.04573807 -0.00651783 0.06577159
v -0.04584112 -0.00650010 0.06616343
v -0.04609660 0.01015550 0.06616343
v -0.04550514 0.01007194 0.06458653
v -0.04561463 0.01125693 0.06577159
v -0.04520887 0.00888696 0.06361216
v -0.04398624 0.00533201 0.06011990
v -0.04382308 0.00296204 0.05930761
v -0.04377370 0.00414703 0.05941249
v -0.04290852 0.00177706 0.05779745
v -0.04294931 0.00059208 0.05775073
v -0.04354077 -0.00059038 0.05857350
v -0.04351608 -0.00177536 0.05857636
v -0.04384670 -0.00354524 0.05925613
v -0.04408607 -0.00414533 0.05997594
v -0.04434477 -0.00533284 0.06103229
v -0.04461312 -0.00651783 0.06221640
v -0.04494696 -0.00651783 0.06304490
v -0.04508221 -0.00729515 0.06384861
v -0.04556418 -0.00770281 0.06577159
v -0.04567367 -0.00770281 0.06616343
v -0.04572734 0.01123161 0.06616343
v -0.04512300 0.01007194 0.06380570
v -0.04493193 0.00888696 0.06302011
v -0.04505537 0.01070495 0.06395252
v -0.04519921 0.01116324 0.06467996
v -0.04517023 0.01200640 0.06577159
v -0.04505860 0.01188233 0.06513759
v -0.04393042 0.00651699 0.06027530
v -0.04368783 0.00533201 0.05952689
v -0.04281084 0.00296204 0.05792043
v -0.04222689 0.00177706 0.05720444
v -0.04294824 -0.00059038 0.05778028
v -0.04226769 0.00059208 0.05715868
v -0.04292355 -0.00177536 0.05783367
v -0.04349247 -0.00307428 0.05874702
v -0.04281191 -0.00296034 0.05794522
v -0.04269706 -0.00362120 0.05804151
v -0.04308134 -0.00406683 0.05862403
v -0.04375223 -0.00414533 0.05938389
v -0.04396048 -0.00533284 0.06025910
v -0.04406138 -0.00641401 0.06104850
v -0.04395941 -0.00736352 0.06145369
v -0.04419127 -0.00773573 0.06216397
v -0.04479775 -0.00769521 0.06343293
v -0.04497165 -0.00808514 0.06415750
v -0.04511441 -0.00858648 0.06494786
v -0.04541390 -0.00892324 0.06616343
v -0.04521961 0.01205451 0.06616343
v -0.04388105 0.00719557 0.06039257
v -0.04475589 0.01149747 0.06434723
v -0.04436302 0.01114552 0.06351587
v -0.04397014 0.01079357 0.06269214
v -0.04385421 0.00948958 0.06161768
v -0.04397873 0.00888696 0.06144607
v -0.04440488 0.01266220 0.06616343
v -0.04435121 0.01262675 0.06584309
v -0.04439200 0.01210009 0.06467996
v -0.04396585 0.01193804 0.06387053
v -0.04309530 0.00533201 0.05883378
v -0.04271960 0.00375963 0.05801863
v -0.04199933 0.00301775 0.05725306
v -0.04163436 0.00177706 0.05679257
v -0.04155708 0.00265820 0.05683166
v -0.04167515 0.00059208 0.05677255
v -0.04220006 -0.00059038 0.05718728
v -0.04197571 -0.00172978 0.05719776
v -0.04207017 -0.00296034 0.05752954
v -0.04200470 -0.00406683 0.05790804
v -0.04235678 -0.00441119 0.05820359
v -0.04270994 -0.00598357 0.05921514
v -0.04289993 -0.00533284 0.05903018
v -0.04349247 -0.00533284 0.05966609
v -0.04385958 -0.00595065 0.06042308
v -0.04374365 -0.00815351 0.06173399
v -0.04400664 -0.00856116 0.06252435
v -0.04362450 -0.00674064 0.06066429
v -0.04499956 -0.00937900 0.06526820
v -0.04526576 -0.00894350 0.06570676
v -0.04519492 -0.00961448 0.06616343
v -0.04286236 0.00651699 0.05908547
v -0.04345489 0.00651699 0.05968325
v -0.04367602 0.00798556 0.06060422
v -0.04269491 0.01068722 0.06160242
v -0.04348495 0.01027957 0.06190179
v -0.04315541 0.00995800 0.06142414
v -0.04288598 0.00856286 0.06025433
v -0.04267988 0.00713227 0.05924088
v -0.04402274 0.01294072 0.06616343
v -0.04325524 0.01207730 0.06365602
v -0.04325524 0.01161394 0.06306397
v -0.04325524 0.01256092 0.06458653
v -0.04260259 0.00455215 0.05811492
v -0.04088511 0.00177706 0.05657425
v -0.04135527 0.00344819 0.05690698
v -0.04093020 0.00301775 0.05674777
v -0.04088511 0.00059208 0.05655709
v -0.04160753 -0.00059038 0.05680878
v -0.04151843 -0.00130440 0.05686313
v -0.04124793 -0.00209439 0.05693177
v -0.04156674 -0.00480871 0.05803484
v -0.04086579 -0.00289704 0.05709861
v -0.04200470 -0.00525435 0.05847340
v -0.04207017 -0.00619626 0.05906641
v -0.04207017 -0.00678875 0.05948971
v -0.04232565 -0.00808768 0.06060613
v -0.04283445 -0.00729769 0.06029437
v -0.04295361 -0.00857129 0.06139554
v -0.04334540 -0.00896122 0.06212869
v -0.04373828 -0.00935115 0.06294575
v -0.04400449 -0.00971323 0.06373611
v -0.04423635 -0.01009303 0.06457604
v -0.04509509 -0.00987021 0.06616343
v -0.04513159 -0.00971070 0.06605856
v -0.04480419 -0.01009303 0.06570676
v -0.04488148 -0.01030825 0.06616343
v -0.04514769 -0.00975627 0.06616343
v -0.04238147 0.00533201 0.05824173
v -0.04207017 0.01177852 0.06292000
v -0.04207017 0.01124173 0.06221640
v -0.04207017 0.01072267 0.06156047
v -0.04164939 0.00955288 0.06036588
v -0.04146905 0.00829194 0.05925613
v -0.04243943 0.00935285 0.06052891
v -0.04207017 0.00801341 0.05941249
v -0.04207017 0.00742092 0.05907975
v -0.04155600 0.00600046 0.05803007
v -0.04378551 0.01303693 0.06616343
v -0.04207017 0.01214060 0.06351206
v -0.04325524 0.01292806 0.06558282
v -0.04207017 0.01262675 0.06458653
v -0.03970112 0.00177706 0.05643887
v -0.04093020 0.00411411 0.05704522
v -0.04056630 0.00369886 0.05684501
v -0.04178786 0.00533201 0.05787276
v -0.04088511 0.00533201 0.05752764
v -0.03970112 0.00296204 0.05664766
v -0.03970112 0.00059208 0.05642361
v -0.04088511 -0.00059038 0.05664480
v -0.04086579 -0.00172978 0.05679925
v -0.04045896 -0.00246154 0.05685168
v -0.04088511 -0.00414533 0.05761726
v -0.04088511 -0.00492266 0.05797764
v -0.04088511 -0.00551515 0.05829702
v -0.04114595 -0.00701663 0.05931905
v -0.04153561 -0.00832315 0.06041355
v -0.04198645 -0.00769521 0.06013802
v -0.04235141 -0.00936128 0.06173208
v -0.04294824 -0.00971070 0.06252244
v -0.04364919 -0.01050322 0.06417371
v -0.04397551 -0.01079946 0.06496407
v -0.04455516 -0.01076149 0.06616343
v -0.04088511 0.01171269 0.06307541
v -0.04088511 0.01117590 0.06221640
v -0.04021851 0.01068722 0.06159193
v -0.04088511 0.01072267 0.06155284
v -0.04088511 0.01018842 0.06096174
v -0.04088511 0.00959593 0.06032297
v -0.04068009 0.00836537 0.05919416
v -0.04099890 0.00781845 0.05889956
v -0.04088511 0.00676007 0.05826365
v -0.04088511 0.00616757 0.05793569
v -0.04325524 0.01307745 0.06616343
v -0.04088511 0.01201906 0.06366841
v -0.04243729 0.01305972 0.06616343
v -0.04088511 0.01236089 0.06458653
v -0.04206910 0.01292806 0.06578684
v -0.03851606 0.00177706 0.05645889
v -0.03851606 0.00059208 0.05642933
v -0.03970112 0.00533201 0.05737223
v -0.03970112 0.00433440 0.05698993
v -0.03970112 0.00374190 0.05683643
v -0.03851606 0.00368620 0.05685359
v -0.03851606 0.00296204 0.05668579
v -0.03970112 -0.00059038 0.05656853
v -0.04005965 -0.00246154 0.05685168
v -0.03970112 -0.00414533 0.05761535
v -0.03970112 -0.00492266 0.05798050
v -0.03970112 -0.00551515 0.05827605
v -0.04035699 -0.00712551 0.05924278
v -0.04080568 -0.00658113 0.05895581
v -0.04088511 -0.00835607 0.06037636
v -0.04156137 -0.00950307 0.06159765
v -0.04200148 -0.00984743 0.06216301
v -0.04207017 -0.01051335 0.06302392
v -0.04285914 -0.01077668 0.06383144
v -0.04325524 -0.01101975 0.06457604
v -0.04330139 -0.01162490 0.06571057
v -0.04353648 -0.01171099 0.06616343
v -0.04394653 -0.01140715 0.06616343
v -0.04417946 -0.01100962 0.06577159
v -0.04427177 -0.01109824 0.06616343
v -0.03977412 0.01091764 0.06219543
v -0.03942847 0.01056569 0.06178643
v -0.03862984 0.00975038 0.06101513
v -0.03910000 0.00948198 0.06043643
v -0.03970112 0.00954275 0.06037636
v -0.03970112 0.00895532 0.05978431
v -0.03970112 0.00836283 0.05919607
v -0.03970112 0.00770198 0.05872795
v -0.03970112 0.00688920 0.05819406
v -0.03970112 0.00629671 0.05785846
v -0.04016591 0.01190259 0.06387435
v -0.04196176 0.01294831 0.06616343
v -0.04088511 0.01261915 0.06577159
v -0.03991903 0.01200640 0.06458653
v -0.03740506 0.00177706 0.05668579
v -0.03787737 0.00362543 0.05686789
v -0.03764336 0.00296204 0.05679162
v -0.03742224 0.00059208 0.05667435
v -0.03755534 -0.00059038 0.05673156
v -0.03773675 -0.00144620 0.05680306
v -0.03851606 -0.00059038 0.05657997
v -0.03851606 0.00533201 0.05744469
v -0.03851606 0.00427869 0.05700137
v -0.03851606 -0.00159812 0.05677637
v -0.03851606 -0.00219061 0.05693368
v -0.03851606 -0.00296034 0.05719967
v -0.03778183 -0.00482391 0.05802245
v -0.03851606 -0.00544678 0.05831418
v -0.03851606 -0.00643933 0.05890624
v -0.04023998 -0.00712551 0.05924278
v -0.03775393 -0.00835860 0.06038018
v -0.03851606 -0.00956891 0.06153854
v -0.03917729 -0.01068046 0.06278939
v -0.04088511 -0.01057918 0.06291810
v -0.03970112 -0.01168061 0.06423759
v -0.04207017 -0.01091087 0.06361598
v -0.04245875 -0.01180468 0.06527488
v -0.04293750 -0.01198698 0.06606523
v -0.04310389 -0.01194394 0.06616343
v -0.03877690 0.01080370 0.06257583
v -0.03843555 0.01044415 0.06219543
v -0.03769489 0.00963137 0.06139744
v -0.03830996 0.00933513 0.06060899
v -0.03906673 0.00831219 0.05923706
v -0.03851606 0.00677019 0.05828939
v -0.03851606 0.00617770 0.05792043
v -0.03932649 0.01175320 0.06458653
v -0.03798686 0.01063912 0.06292954
v -0.04116528 0.01274069 0.06616343
v -0.04088511 0.01265207 0.06616343
v -0.03959593 0.01207730 0.06576587
v -0.03913113 0.01183929 0.06536735
v -0.03681253 0.00177706 0.05691175
v -0.03705083 0.00296204 0.05700423
v -0.03742116 0.00407107 0.05719395
v -0.03682970 0.00059208 0.05692223
v -0.03696281 -0.00059038 0.05698421
v -0.03733744 -0.00181587 0.05707764
v -0.03733099 -0.00296034 0.05740084
v -0.03780223 0.00601059 0.05801291
v -0.03737715 0.00531935 0.05778887
v -0.03736427 -0.00416305 0.05784416
v -0.03699179 -0.00456817 0.05816259
v -0.03736427 -0.00526448 0.05841429
v -0.03733099 -0.00633299 0.05902255
v -0.03733099 -0.00692548 0.05936672
v -0.03851606 -0.00703183 0.05932096
v -0.03734710 -0.00776105 0.06001980
v -0.03696388 -0.00819402 0.06052986
v -0.03735783 -0.00887260 0.06104469
v -0.03775285 -0.00954359 0.06155952
v -0.03851606 -0.01016140 0.06219257
v -0.03851606 -0.01068299 0.06278558
v -0.03851606 -0.01116154 0.06340147
v -0.03851606 -0.01173631 0.06416036
v -0.03970112 -0.01206801 0.06483060
v -0.04088511 -0.01160211 0.06439871
v -0.04088511 -0.01196419 0.06499172
v -0.04166871 -0.01189076 0.06510422
v -0.04206588 -0.01154641 0.06465994
v -0.04088511 -0.01260732 0.06616343
v -0.04152809 -0.01246047 0.06616343
v -0.04204119 -0.01231614 0.06616343
v -0.04284304 -0.01206041 0.06616343
v -0.04297829 -0.01200471 0.06616343
v -0.03731167 0.00983393 0.06224882
v -0.03690485 0.00934779 0.06187604
v -0.03725263 0.00894520 0.06095221
v -0.03760043 0.00854514 0.06020571
v -0.03827668 0.00812482 0.05941535
v -0.03860945 0.00771717 0.05894533
v -0.03535374 0.01022133 0.06616343
v -0.04002637 0.01228999 0.06616343
v -0.03614593 0.00177706 0.05734268
v -0.03614593 0.00059208 0.05733601
v -0.03604825 0.00302281 0.05763442
v -0.03635310 0.00414703 0.05779649
v -0.03658496 0.00491676 0.05796429
v -0.03614593 -0.00059038 0.05743992
v -0.03605469 -0.00181587 0.05772499
v -0.03634559 -0.00296034 0.05783177
v -0.03656350 -0.00377818 0.05796238
v -0.03701219 0.00570675 0.05821789
v -0.03760901 0.00733230 0.05906927
v -0.03731060 0.00652459 0.05864406
v -0.03659463 -0.00608232 0.05916842
v -0.03639711 -0.00740403 0.06018855
v -0.03535374 -0.00882956 0.06203717
v -0.03535374 -0.01010569 0.06329183
v -0.03696281 -0.00938913 0.06172350
v -0.03535374 -0.01125016 0.06449691
v -0.03789562 -0.01067286 0.06279702
v -0.03535374 -0.01220473 0.06573059
v -0.03851606 -0.01210092 0.06475337
v -0.03970112 -0.01259466 0.06577159
v -0.04088511 -0.01240476 0.06577159
v -0.03970112 -0.01278963 0.06616343
v -0.03666654 0.00954782 0.06266545
v -0.03535374 0.01003396 0.06577159
v -0.03535374 0.00880847 0.06339289
v -0.03648621 0.00855780 0.06129448
v -0.03681038 0.00823876 0.06050507
v -0.03681897 0.00703859 0.05931333
v -0.03535374 -0.01246047 0.06616343
v -0.03545572 0.00266833 0.05797478
v -0.03538165 0.00177706 0.05790709
v -0.03535374 0.00079210 0.05789278
v -0.03535374 0.00059967 0.05788611
v -0.03535374 0.00059208 0.05788611
v -0.03535374 0.00042496 0.05789565
v -0.03538809 -0.00059038 0.05793283
v -0.03558775 0.00345832 0.05810158
v -0.03576057 0.00414703 0.05824459
v -0.03642932 0.00624860 0.05900825
v -0.03611266 0.00536746 0.05863929
v -0.03537199 0.00502564 0.05906164
v -0.03547504 -0.00144873 0.05800528
v -0.03559956 -0.00223872 0.05810062
v -0.03575306 -0.00296034 0.05821503
v -0.03535374 -0.00414786 0.05900920
v -0.03535374 -0.00432257 0.05908547
v -0.03549543 -0.00483150 0.05920560
v -0.03617813 -0.00526954 0.05899204
v -0.03610085 -0.00656593 0.05980528
v -0.03580458 -0.00562149 0.05942297
v -0.03560707 -0.00704955 0.06048505
v -0.03545679 -0.00835101 0.06156619
v -0.03535374 -0.00851306 0.06176640
v -0.03535374 -0.01229589 0.06588028
v -0.03851606 -0.01259466 0.06577159
v -0.03851606 -0.01274659 0.06616343
v -0.03535374 0.00842613 0.06281609
v -0.03535374 0.00791720 0.06207435
v -0.03559204 0.00706391 0.06049554
v -0.03638208 0.00744878 0.06010274
v -0.03601068 0.00665625 0.05972043
v -0.03563927 0.00581562 0.05933717
v -0.03535374 0.00274682 0.05809586
v -0.03535374 0.00253160 0.05804533
v -0.03535374 0.00177706 0.05793187
v -0.03535374 0.00172389 0.05792806
v -0.03535374 -0.00059038 0.05795952
v -0.03535374 0.00332665 0.05828177
v -0.03535374 0.00414703 0.05863071
v -0.03535374 0.00496234 0.05904448
v -0.03535374 0.00504083 0.05909119
v -0.03535374 0.00500791 0.05906927
v -0.03535374 -0.00154748 0.05811969
v -0.03535374 -0.00205641 0.05824077
v -0.03535374 -0.00249192 0.05837043
v -0.03535374 -0.00295275 0.05851916
v -0.03535374 -0.00401873 0.05895486
v -0.03535374 -0.00495810 0.05940105
v -0.03535374 -0.00621145 0.06015327
v -0.03535374 -0.00627475 0.06019331
v -0.03535374 -0.00728503 0.06086831
v -0.03535374 0.00689173 0.06066047
v -0.03535374 0.00641065 0.06019141
v -0.03535374 0.00564092 0.05952594
f 1 2 6
f 1 6 15
f 1 15 31
f 1 31 32
f 1 32 30
f 1 30 49
f 1 49 68
f 1 68 95
f 1 95 127
f 1 127 164
f 1 164 160
f 1 160 163
f 1 163 199
f 1 199 239
f 1 239 237
f 1 237 236
f 1 236 278
f 1 278 324
f 1 324 323
f 1 323 322
f 1 322 321
f 1 321 320
f 1 320 356
f 1 356 390
f 1 390 363
f 1 363 331
f 1 331 332
f 1 332 289
f 1 289 288
f 1 288 251
f 1 251 212
f 1 212 210
f 1 210 175
f 1 175 136
f 1 136 103
f 1 103 96
f 1 96 69
f 1 69 50
f 1 50 33
f 1 33 17
f 1 17 9
f 1 9 3
f 1 3 4
f 1 4 5
f 1 5 2
f 2 5 7
f 2 7 6
f 3 8 4
f 3 9 8
f 4 10 11
f 4 11 12
f 4 12 13
f 4 13 5
f 4 8 10
f 5 13 14
f 5 14 7
f 6 7 15
f 7 14 16
f 7 16 15
f 8 9 17
f 8 17 18
f 8 18 19
f 8 19 20
f 8 20 21
f 8 21 10
f 10 21 22
f 10 22 23
f 10 23 24
f 10 24 11
f 11 24 12
f 12 25 26
f 12 26 13
f 12 24 25
f 13 26 27
f 13 27 28
f 13 28 14
f 14 28 29
f 14 29 30
f 14 30 16
f 15 16 31
f 16 32 31
f 16 30 32
f 17 33 34
f 17 34 18
f 18 34 35
f 18 35 19
f 19 35 36
f 19 36 37
f 19 37 38
f 19 38 20
f 20 38 39
f 20 39 23
f 20 23 22
f 20 22 21
f 23 40 41
f 23 41 42
f 23 42 24
f 23 39 40
f 24 42 43
f 24 43 25
f 25 43 44
f 25 44 26
f 26 44 45
f 26 45 27
f 27 45 46
f 27 46 47
f 27 47 28
f 28 47 48
f 28 48 49
f 28 49 29
f 29 49 30
f 33 50 34
f 34 51 35
f 34 50 52
f 34 52 51
f 35 51 53
f 35 53 54
f 35 54 55
f 35 55 36
f 36 55 37
f 37 55 56
f 37 56 57
f 37 57 38
f 38 57 58
f 38 58 59
f 38 59 39
f 39 59 40
f 40 60 41
f 40 59 60
f 41 60 61
f 41 61 42
f 42 61 43
f 43 61 62
f 43 62 63
f 43 63 44
f 44 63 64
f 44 64 65
f 44 65 45
f 45 65 46
f 46 65 66
f 46 66 47
f 47 66 67
f 47 67 68
f 47 68 48
f 48 68 49
f 50 69 52
f 51 70 71
f 51 71 53
f 51 52 72
f 51 72 70
f 52 73 72
f 52 69 74
f 52 74 75
f 52 75 73
f 53 71 76
f 53 76 54
f 54 76 56
f 54 56 55
f 56 76 77
f 56 77 57
f 57 77 78
f 57 78 79
f 57 79 58
f 58 80 59
f 58 79 81
f 58 81 80
f 59 80 60
f 60 82 61
f 60 80 82
f 61 82 83
f 61 83 84
f 61 84 85
f 61 85 86
f 61 86 87
f 61 87 88
f 61 88 62
f 62 88 63
f 63 88 89
f 63 89 64
f 64 89 90
f 64 90 91
f 64 91 92
f 64 92 66
f 64 66 65
f 66 92 93
f 66 93 94
f 66 94 95
f 66 95 67
f 67 95 68
f 69 96 74
f 70 72 97
f 70 97 71
f 71 97 76
f 72 73 75
f 72 75 98
f 72 98 99
f 72 99 100
f 72 100 101
f 72 101 102
f 72 102 97
f 74 96 103
f 74 103 104
f 74 104 75
f 75 104 105
f 75 105 106
f 75 106 98
f 76 97 77
f 77 97 107
f 77 107 78
f 78 108 109
f 78 109 79
f 78 107 108
f 79 110 81
f 79 109 111
f 79 111 110
f 80 81 82
f 81 110 112
f 81 112 113
f 81 113 82
f 82 113 114
f 82 114 84
f 82 84 83
f 84 114 115
f 84 115 85
f 85 116 117
f 85 117 118
f 85 118 119
f 85 119 86
f 85 115 116
f 86 119 120
f 86 120 87
f 87 120 121
f 87 121 88
f 88 121 89
f 89 121 90
f 90 122 123
f 90 123 91
f 90 121 124
f 90 124 122
f 91 123 125
f 91 125 92
f 92 125 93
f 93 125 94
f 94 125 126
f 94 126 95
f 95 126 125
f 95 125 127
f 97 128 129
f 97 129 107
f 97 102 101
f 97 101 130
f 97 130 128
f 98 106 99
f 99 106 100
f 100 131 132
f 100 132 101
f 100 106 131
f 101 133 134
f 101 134 135
f 101 135 130
f 101 132 133
f 103 136 104
f 104 136 105
f 105 136 106
f 106 137 138
f 106 138 131
f 106 136 139
f 106 139 137
f 107 129 128
f 107 128 140
f 107 140 108
f 108 140 109
f 109 140 111
f 110 111 141
f 110 141 112
f 111 140 142
f 111 142 143
f 111 143 141
f 112 144 145
f 112 145 113
f 112 141 144
f 113 145 114
f 114 145 146
f 114 146 115
f 115 146 147
f 115 147 116
f 116 148 117
f 116 147 149
f 116 149 148
f 117 148 150
f 117 150 118
f 118 151 152
f 118 152 153
f 118 153 154
f 118 154 122
f 118 122 124
f 118 124 121
f 118 121 119
f 118 150 151
f 119 121 120
f 122 154 155
f 122 155 156
f 122 156 157
f 122 157 123
f 123 157 158
f 123 158 159
f 123 159 125
f 125 160 161
f 125 161 127
f 125 159 162
f 125 162 163
f 125 163 160
f 127 161 164
f 128 135 165
f 128 165 140
f 128 130 135
f 131 138 137
f 131 137 166
f 131 166 167
f 131 167 168
f 131 168 169
f 131 169 170
f 131 170 171
f 131 171 134
f 131 134 133
f 131 133 132
f 134 171 172
f 134 172 135
f 135 173 174
f 135 174 165
f 135 172 173
f 136 175 139
f 137 139 176
f 137 176 166
f 139 175 177
f 139 177 178
f 139 178 176
f 140 165 142
f 141 143 179
f 141 179 144
f 142 180 181
f 142 181 143
f 142 165 182
f 142 182 174
f 142 174 183
f 142 183 180
f 143 181 184
f 143 184 179
f 144 185 186
f 144 186 145
f 144 179 185
f 145 186 146
f 146 186 187
f 146 187 147
f 147 187 188
f 147 188 149
f 148 151 150
f 148 149 189
f 148 189 190
f 148 190 191
f 148 191 192
f 148 192 151
f 149 188 189
f 151 192 152
f 152 192 193
f 152 193 194
f 152 194 153
f 153 194 193
f 153 193 195
f 153 195 155
f 153 155 154
f 155 195 196
f 155 196 156
f 156 196 157
f 157 196 197
f 157 197 198
f 157 198 158
f 158 198 159
f 159 198 162
f 160 164 161
f 162 198 163
f 163 198 199
f 165 174 182
f 166 176 200
f 166 200 201
f 166 201 202
f 166 202 203
f 166 203 167
f 167 203 168
f 168 204 205
f 168 205 169
f 168 203 204
f 169 205 206
f 169 206 170
f 170 206 207
f 170 207 208
f 170 208 209
f 170 209 174
f 170 174 173
f 170 173 172
f 170 172 171
f 174 209 183
f 175 210 177
f 176 178 211
f 176 211 200
f 177 210 212
f 177 212 178
f 178 213 211
f 178 212 214
f 178 214 213
f 179 215 216
f 179 216 185
f 179 184 215
f 180 183 217
f 180 217 218
f 180 218 181
f 181 218 219
f 181 219 184
f 183 209 217
f 184 219 220
f 184 220 221
f 184 221 215
f 185 216 222
f 185 222 186
f 186 222 188
f 186 188 187
f 188 222 223
f 188 223 224
f 188 224 189
f 189 224 190
f 190 224 225
f 190 225 226
f 190 226 191
f 191 226 227
f 191 227 228
f 191 228 192
f 192 227 193
f 192 228 227
f 193 227 229
f 193 229 230
f 193 230 195
f 195 230 231
f 195 231 232
f 195 232 196
f 196 232 233
f 196 233 197
f 197 233 234
f 197 234 198
f 198 234 235
f 198 235 236
f 198 236 237
f 198 237 238
f 198 238 199
f 199 238 239
f 200 211 240
f 200 240 202
f 200 202 201
f 202 240 241
f 202 241 242
f 202 242 243
f 202 243 244
f 202 244 203
f 203 244 204
f 204 244 205
f 205 244 245
f 205 245 246
f 205 246 206
f 206 246 247
f 206 247 248
f 206 248 207
f 207 248 208
f 208 248 249
f 208 249 209
f 209 249 217
f 211 250 240
f 211 213 250
f 212 251 214
f 213 214 252
f 213 252 253
f 213 253 250
f 214 251 252
f 215 254 216
f 215 221 255
f 215 255 256
f 215 256 254
f 216 257 258
f 216 258 259
f 216 259 260
f 216 260 222
f 216 254 257
f 217 261 262
f 217 262 218
f 217 249 261
f 218 262 219
f 219 262 220
f 220 255 221
f 220 262 255
f 222 260 223
f 223 260 263
f 223 263 259
f 223 259 264
f 223 264 265
f 223 265 266
f 223 266 224
f 224 266 225
f 225 266 226
f 226 266 267
f 226 267 268
f 226 268 269
f 226 269 227
f 227 269 229
f 229 269 270
f 229 270 271
f 229 271 230
f 230 271 272
f 230 272 273
f 230 273 232
f 230 232 231
f 232 273 274
f 232 274 275
f 232 275 233
f 233 275 276
f 233 276 234
f 234 276 235
f 235 276 277
f 235 277 278
f 235 278 236
f 237 239 238
f 240 279 241
f 240 250 279
f 241 279 280
f 241 280 242
f 242 281 282
f 242 282 243
f 242 280 281
f 243 282 283
f 243 283 244
f 244 283 245
f 245 283 246
f 246 283 247
f 247 283 284
f 247 284 248
f 248 284 285
f 248 285 249
f 249 285 261
f 250 253 286
f 250 286 287
f 250 287 279
f 251 288 252
f 252 288 289
f 252 289 290
f 252 290 291
f 252 291 253
f 253 291 286
f 254 292 257
f 254 256 293
f 254 293 292
f 255 262 261
f 255 261 294
f 255 294 293
f 255 293 256
f 257 295 258
f 257 292 295
f 258 296 259
f 258 295 296
f 259 296 297
f 259 297 298
f 259 298 265
f 259 265 264
f 259 263 260
f 261 285 299
f 261 299 300
f 261 300 294
f 265 298 301
f 265 301 266
f 266 301 302
f 266 302 303
f 266 303 304
f 266 304 305
f 266 305 268
f 266 268 267
f 268 305 306
f 268 306 269
f 269 306 270
f 270 306 305
f 270 305 307
f 270 307 308
f 270 308 309
f 270 309 310
f 270 310 271
f 271 310 311
f 271 311 272
f 272 311 312
f 272 312 313
f 272 313 314
f 272 314 274
f 272 274 273
f 274 314 315
f 274 315 275
f 275 316 317
f 275 317 318
f 275 318 319
f 275 319 276
f 275 315 316
f 276 318 320
f 276 320 321
f 276 321 322
f 276 322 323
f 276 323 277
f 276 319 318
f 277 323 324
f 277 324 278
f 279 287 280
f 280 287 281
f 281 287 325
f 281 325 326
f 281 326 327
f 281 327 328
f 281 328 282
f 282 328 329
f 282 329 283
f 283 329 330
f 283 330 284
f 284 299 285
f 284 330 299
f 286 291 331
f 286 331 287
f 287 331 325
f 289 332 290
f 290 332 331
f 290 331 291
f 292 333 334
f 292 334 295
f 292 293 335
f 292 335 333
f 293 294 336
f 293 336 335
f 294 300 337
f 294 337 336
f 295 334 338
f 295 338 296
f 296 338 339
f 296 339 340
f 296 340 297
f 297 340 341
f 297 341 298
f 298 341 301
f 299 342 300
f 299 330 343
f 299 343 344
f 299 344 342
f 300 342 337
f 301 341 302
f 302 341 345
f 302 345 304
f 302 304 303
f 304 345 305
f 305 346 308
f 305 308 307
f 305 345 346
f 308 346 347
f 308 347 348
f 308 348 349
f 308 349 309
f 309 349 310
f 310 349 350
f 310 350 351
f 310 351 311
f 311 351 312
f 312 351 313
f 313 351 314
f 314 352 353
f 314 353 315
f 314 351 352
f 315 317 316
f 315 353 354
f 315 354 355
f 315 355 317
f 317 355 318
f 318 355 320
f 320 355 354
f 320 354 356
f 325 357 326
f 325 331 357
f 326 357 358
f 326 358 359
f 326 359 360
f 326 360 361
f 326 361 327
f 327 361 328
f 328 361 362
f 328 362 343
f 328 343 329
f 329 343 330
f 331 358 357
f 331 363 388
f 331 388 352
f 331 352 350
f 331 350 348
f 331 348 347
f 331 347 387
f 331 387 415
f 331 415 414
f 331 414 413
f 331 413 412
f 331 412 380
f 331 380 379
f 331 379 411
f 331 411 410
f 331 410 409
f 331 409 408
f 331 408 407
f 331 407 401
f 331 401 369
f 331 369 368
f 331 368 367
f 331 367 366
f 331 366 400
f 331 400 399
f 331 399 398
f 331 398 397
f 331 397 402
f 331 402 403
f 331 403 404
f 331 404 406
f 331 406 405
f 331 405 418
f 331 418 417
f 331 417 416
f 331 416 392
f 331 392 391
f 331 391 359
f 331 359 358
f 333 335 364
f 333 364 365
f 333 365 366
f 333 366 367
f 333 367 334
f 334 367 368
f 334 368 369
f 334 369 370
f 334 370 338
f 335 336 371
f 335 371 364
f 336 337 372
f 336 372 371
f 337 342 373
f 337 373 374
f 337 374 375
f 337 375 372
f 338 370 376
f 338 376 339
f 339 377 340
f 339 376 377
f 340 377 378
f 340 378 341
f 341 379 380
f 341 380 381
f 341 381 382
f 341 382 345
f 341 378 379
f 342 344 362
f 342 362 373
f 343 362 344
f 345 383 346
f 345 382 384
f 345 384 383
f 346 383 385
f 346 385 386
f 346 386 387
f 346 387 347
f 348 350 349
f 350 352 351
f 352 388 353
f 353 388 363
f 353 363 389
f 353 389 356
f 353 356 354
f 356 389 390
f 359 391 360
f 360 391 392
f 360 392 393
f 360 393 361
f 361 393 394
f 361 394 362
f 362 394 395
f 362 395 396
f 362 396 373
f 363 390 389
f 364 397 398
f 364 398 399
f 364 399 365
f 364 371 397
f 365 399 400
f 365 400 366
f 369 401 370
f 370 401 376
f 371 402 397
f 371 372 403
f 371 403 402
f 372 375 404
f 372 404 403
f 373 396 374
f 374 396 375
f 375 405 406
f 375 406 404
f 375 396 405
f 376 401 407
f 376 407 408
f 376 408 377
f 377 409 378
f 377 408 409
f 378 409 410
f 378 410 411
f 378 411 379
f 380 412 381
f 381 412 413
f 381 413 384
f 381 384 382
f 383 384 385
f 384 413 414
f 384 414 385
f 385 415 387
f 385 387 386
f 385 414 415
f 392 416 393
f 393 416 417
f 393 417 396
f 393 396 395
f 393 395 394
f 396 418 405
f 396 417 418

