# https://github.com/mikedh/trimesh
v -0.01298840 -0.01335630 0.03022103
v -0.01298840 -0.01334220 0.02966413
v -0.01253332 -0.01376540 0.02966413
v -0.01253013 -0.01377245 0.03022103
v -0.01298840 -0.01326814 0.03140511
v -0.01298840 0.01073790 0.02966413
v -0.01225326 -0.01401932 0.02966413
v -0.01247922 -0.01372661 0.03140511
v -0.01194139 -0.01429440 0.02966413
v -0.01193502 -0.01429087 0.03022103
v -0.01188729 -0.01424855 0.03140511
v -0.01298840 -0.01316586 0.03232426
v -0.01185546 -0.01422387 0.03203049
v -0.01298840 0.01070263 0.03064816
v -0.01289611 0.01083665 0.02966413
v -0.01125717 -0.01482693 0.02966413
v -0.01125717 -0.01481987 0.03022103
v -0.01057295 -0.01534182 0.03022103
v -0.01243466 -0.01362081 0.03255314
v -0.01298840 -0.01304243 0.03305056
v -0.01049975 -0.01528892 0.03140511
v -0.01040428 -0.01521839 0.03259099
v -0.01133036 -0.01454832 0.03249187
v -0.01177590 -0.01416039 0.03282168
v -0.01298840 0.01069205 0.03073287
v -0.01183955 0.01187701 0.02966413
v -0.01185865 0.01185938 0.02966413
v -0.01057613 -0.01534535 0.02966413
v -0.00998102 -0.01570859 0.03022103
v -0.00990782 -0.01568391 0.03140511
v -0.01234237 -0.01347268 0.03377507
v -0.01298840 -0.01104986 0.04317922
v -0.00981235 -0.01562748 0.03259099
v -0.01025470 -0.01512669 0.03377507
v -0.01107259 -0.01453421 0.03377507
v -0.01092301 -0.01442489 0.03496095
v -0.01166452 -0.01406517 0.03377507
v -0.01298840 0.00804705 0.04807413
v -0.01290884 0.00815285 0.04807413
v -0.01235192 0.00878413 0.04807413
v -0.01178545 0.00941893 0.04807413
v -0.01056658 0.01295617 0.02966413
v -0.00998420 -0.01570859 0.02966413
v -0.00895628 -0.01630108 0.03022103
v -0.00833889 -0.01661495 0.03101402
v -0.00879397 -0.01632576 0.03140691
v -0.01146402 -0.01023520 0.04807413
v -0.01298840 -0.01053850 0.04472735
v -0.01078617 -0.01431556 0.03586388
v -0.00999056 -0.01505969 0.03493572
v -0.00937954 -0.01534535 0.03531419
v -0.00918223 -0.01523602 0.03614503
v -0.00859030 -0.01557458 0.03614503
v -0.00839299 -0.01545820 0.03691819
v -0.00899765 -0.01461180 0.03862132
v -0.00790290 -0.01521486 0.03851679
v -0.00759102 -0.01502442 0.03959274
v -0.00888626 -0.01614590 0.03259099
v -0.00888626 -0.01595899 0.03377507
v -0.00966277 -0.01552168 0.03377507
v -0.01298840 -0.00915957 0.04807413
v -0.01111714 0.00994087 0.04807413
v -0.00962140 0.01371441 0.02966413
v -0.01002557 0.01339348 0.02966413
v -0.00944001 -0.01602247 0.02966413
v -0.00894673 -0.01630108 0.02966413
v -0.00836435 -0.01662553 0.03022103
v -0.00824023 -0.01656557 0.03180341
v -0.00770240 -0.01692177 0.03022103
v -0.00778833 -0.01679833 0.03140691
v -0.01130172 -0.01031632 0.04807413
v -0.00953866 -0.01544057 0.03452300
v -0.00894673 -0.01568743 0.03493572
v -0.00761648 -0.01634692 0.03491229
v -0.00770240 -0.01600483 0.03614503
v -0.00773741 -0.01564864 0.03732010
v -0.00815749 -0.01533829 0.03770758
v -0.00712002 -0.01540883 0.03912595
v -0.00770240 -0.01211492 0.04807413
v -0.00811294 -0.01651620 0.03259099
v -0.00790290 -0.01643509 0.03377507
v -0.01052521 0.01037818 0.04807413
v -0.00920132 0.01402828 0.02966413
v -0.00835480 -0.01662200 0.02966413
v -0.00770240 -0.01691824 0.02966413
v -0.00752101 -0.01675602 0.03259099
v -0.00651536 -0.01738729 0.02966413
v -0.00651536 -0.01737318 0.03022103
v -0.00651536 -0.01727796 0.03140511
v -0.00716458 -0.01661142 0.03448515
v -0.00695772 -0.01653736 0.03527454
v -0.00654400 -0.01645977 0.03625136
v -0.00590752 -0.01658321 0.03671815
v -0.00677632 -0.01528892 0.03991534
v -0.00667767 -0.01258396 0.04807413
v -0.00731097 -0.01666785 0.03377507
v -0.00958321 0.01089307 0.04807413
v -0.00770240 0.01467014 0.03140511
v -0.00770240 0.01486410 0.03022103
v -0.00838981 0.01427868 0.03140511
v -0.00854256 0.01437390 0.03022103
v -0.00860939 0.01441974 0.02966413
v -0.00888945 0.01423636 0.02966413
v -0.00651536 -0.01712984 0.03259099
v -0.00561474 -0.01768353 0.02966413
v -0.00557337 -0.01767295 0.03022103
v -0.00527740 -0.01765531 0.03151505
v -0.00464092 -0.01774701 0.03259099
v -0.00533150 -0.01752836 0.03259099
v -0.00533150 -0.01734849 0.03377507
v -0.00533150 -0.01713337 0.03496095
v -0.00616848 -0.01666785 0.03592696
v -0.00543970 -0.01650562 0.03743364
v -0.00533150 -0.01620585 0.03851679
v -0.00533150 -0.01583908 0.03969907
v -0.00598708 -0.01542293 0.04034968
v -0.00643580 -0.01550757 0.03959274
v -0.00543970 -0.01682655 0.03625136
v -0.00414764 -0.01721096 0.03614503
v -0.00511828 -0.01669959 0.03710743
v -0.00533150 -0.01308122 0.04807413
v -0.00820523 0.01161604 0.04807413
v -0.00690362 0.01530141 0.03022103
v -0.00698636 0.01534373 0.02966413
v -0.00765785 0.01497343 0.02966413
v -0.00533787 -0.01776464 0.02966413
v -0.00498144 -0.01784576 0.03022103
v -0.00426221 -0.01794450 0.03151505
v -0.00473321 -0.01777169 0.03198363
v -0.00404580 -0.01790923 0.03259099
v -0.00377212 -0.01783517 0.03377507
v -0.00436405 -0.01766590 0.03377507
v -0.00357799 -0.01778228 0.03439684
v -0.00404262 -0.01754599 0.03486002
v -0.00470775 -0.01657968 0.03789682
v -0.00480004 -0.01542646 0.04153376
v -0.00524876 -0.01551815 0.04080024
v -0.00296060 -0.01714747 0.03733091
v -0.00424630 -0.01683713 0.03743364
v -0.00408081 -0.01341626 0.04807413
v -0.00766103 0.01185585 0.04807413
v -0.00539515 0.01562939 0.03257477
v -0.00598708 0.01543542 0.03216746
v -0.00611756 0.01550243 0.03140511
v -0.00670949 0.01520266 0.03140511
v -0.00631169 0.01559412 0.03022103
v -0.00677950 0.01544601 0.02966413
v -0.00502281 -0.01785633 0.02966413
v -0.00458045 -0.01797624 0.02966413
v -0.00414764 -0.01807146 0.03022103
v -0.00296060 -0.01831127 0.03022103
v -0.00296060 -0.01821606 0.03140511
v -0.00296060 -0.01809968 0.03259099
v -0.00296060 -0.01793392 0.03377507
v -0.00177674 -0.01801504 0.03377507
v -0.00296060 -0.01780343 0.03450138
v -0.00177674 -0.01755304 0.03614503
v -0.00177674 -0.01729207 0.03733091
v -0.00391851 -0.01668548 0.03824826
v -0.00424630 -0.01649504 0.03859249
v -0.00414764 -0.01618117 0.03969907
v -0.00414764 -0.01580381 0.04088495
v -0.00177674 -0.01696409 0.03851679
v -0.00265190 -0.01663963 0.03926833
v -0.00301152 -0.01678070 0.03859249
v -0.00344114 -0.01656910 0.03903764
v -0.00296060 -0.01361375 0.04807413
v -0.00296060 -0.01606126 0.04088495
v -0.00717731 0.01204982 0.04807413
v -0.00487005 0.01546011 0.03465457
v -0.00506418 0.01554475 0.03377507
v -0.00533150 0.01586215 0.03140511
v -0.00533150 0.01604554 0.03022103
v -0.00643898 0.01561176 0.02966413
v -0.00414764 -0.01808557 0.02966413
v -0.00296060 -0.01831833 0.02966413
v -0.00177674 -0.01844882 0.02966413
v -0.00177674 -0.01842413 0.03022103
v -0.00351752 -0.01821253 0.02966413
v -0.00177674 -0.01831127 0.03140511
v -0.00177674 -0.01818784 0.03259099
v -0.00058970 -0.01826190 0.03259099
v -0.00058970 -0.01807852 0.03377507
v -0.00177674 -0.01784223 0.03470323
v -0.00058970 -0.01787044 0.03483659
v -0.00058970 -0.01775054 0.03542953
v -0.00058970 -0.01758831 0.03614503
v -0.00058970 -0.01730265 0.03733091
v -0.00058970 -0.01697114 0.03851679
v -0.00177674 -0.01668901 0.03942332
v -0.00177674 -0.01650210 0.04001626
v -0.00177674 -0.01622349 0.04088495
v -0.00301152 -0.01644214 0.03967744
v -0.00177674 -0.01376893 0.04807413
v -0.00476821 0.01289622 0.04807413
v -0.00467592 0.01538252 0.03544395
v -0.00414764 0.01610902 0.03259099
v -0.00404262 0.01636999 0.03131680
v -0.00430676 0.01644405 0.03022103
v -0.00533150 0.01611607 0.02966413
v -0.00441496 0.01647932 0.02966413
v -0.00495598 0.01626772 0.02966413
v -0.00114662 -0.01847350 0.02966413
v -0.00058970 -0.01846998 0.03022103
v -0.00058970 -0.01838181 0.03140511
v 0.00059416 -0.01831127 0.03140511
v 0.00238905 -0.01777875 0.03438964
v 0.00272957 -0.01668548 0.03826087
v 0.00242405 -0.01542999 0.04273226
v -0.00058970 -0.01668901 0.03943774
v -0.00058970 -0.01650562 0.04003068
v -0.00058970 -0.01586729 0.04206903
v -0.00058970 -0.01377598 0.04807413
v -0.00058970 -0.01553931 0.04302783
v -0.00360345 0.01314662 0.04807413
v -0.00177674 0.01628182 0.03496095
v -0.00224774 0.01656748 0.03306678
v -0.00296060 0.01601380 0.03496095
v -0.00296060 0.01625008 0.03377507
v -0.00414764 0.01588331 0.03377507
v -0.00333931 0.01652869 0.03165382
v -0.00358117 0.01659922 0.03086443
v -0.00371483 0.01664507 0.03022103
v -0.00382304 0.01668034 0.02966413
v -0.00058970 -0.01849466 0.02966413
v 0.00059416 -0.01841708 0.03022103
v 0.00177802 -0.01829717 0.03022103
v 0.00296507 -0.01822663 0.02966413
v 0.00296507 -0.01817373 0.03022103
v 0.00424440 -0.01684066 0.03624055
v 0.00296507 -0.01721448 0.03614503
v 0.00255453 -0.01782459 0.03377507
v 0.00420303 -0.01791981 0.03023365
v 0.00463584 -0.01775054 0.03063555
v 0.00440352 -0.01769764 0.03140511
v 0.00405664 -0.01761652 0.03251710
v 0.00414574 -0.01738729 0.03377507
v 0.00586743 -0.01657263 0.03546378
v 0.00504637 -0.01550405 0.04063804
v 0.00475677 -0.01422739 0.04505536
v 0.00185758 -0.01352559 0.04807413
v 0.00068009 -0.01368429 0.04807413
v 0.00059416 -0.01369134 0.04807413
v -0.00255325 0.01331590 0.04807413
v -0.00058970 0.01598206 0.03733091
v -0.00058970 0.01623951 0.03614503
v -0.00097795 0.01656043 0.03421662
v -0.00182129 0.01650401 0.03380210
v -0.00182129 0.01671913 0.03263965
v -0.00177674 0.01694484 0.03140511
v -0.00254688 0.01663802 0.03227560
v -0.00295105 0.01646168 0.03263965
v -0.00295105 0.01669445 0.03131680
v -0.00296060 0.01686725 0.03022103
v -0.00296060 0.01694131 0.02966413
v -0.00336158 0.01682140 0.02966413
v 0.00003724 -0.01846645 0.02966413
v 0.00059416 -0.01843824 0.02966413
v 0.00417757 -0.01799388 0.02966413
v 0.00533279 -0.01627991 0.03733091
v 0.00533279 -0.01598720 0.03851679
v 0.00480450 -0.01780343 0.02984616
v 0.00533279 -0.01721801 0.03259099
v 0.00533279 -0.01703815 0.03377507
v 0.00603928 -0.01663963 0.03467439
v 0.00871888 -0.01558516 0.03496095
v 0.00848338 -0.01548994 0.03592335
v 0.00827334 -0.01539825 0.03671454
v 0.00609657 -0.01549699 0.03939449
v 0.00583561 -0.01537356 0.04018568
v 0.00539643 -0.01528539 0.04097326
v 0.00539643 -0.01563806 0.03975314
v 0.00651665 -0.01489041 0.04088495
v 0.00731543 -0.01431556 0.04172300
v 0.00828289 -0.01302832 0.04383343
v 0.00801238 -0.01290489 0.04443899
v 0.00760185 -0.01263334 0.04552394
v 0.00764322 -0.01205496 0.04674767
v 0.00525959 -0.01260160 0.04807413
v 0.00480450 -0.01307417 0.04747578
v 0.00414574 -0.01300364 0.04807413
v 0.00307327 -0.01326109 0.04807413
v 0.00302871 -0.01327166 0.04807413
v -0.00156352 0.01346754 0.04807413
v 0.00059416 0.01639115 0.03614503
v 0.00059416 0.01655338 0.03536105
v -0.00018871 0.01661686 0.03450858
v -0.00058651 0.01647932 0.03492671
v -0.00058970 0.01692368 0.03259099
v -0.00145850 0.01663449 0.03342543
v -0.00058970 0.01713528 0.03140511
v -0.00177674 0.01714233 0.03022103
v -0.00240368 0.01707885 0.02966413
v 0.00465493 -0.01786339 0.02966413
v 0.00482042 -0.01781049 0.02966413
v 0.00798374 -0.01647388 0.03022103
v 0.00888755 -0.01585319 0.03259099
v 0.00770051 -0.01632223 0.03259099
v 0.00899257 -0.01565217 0.03385437
v 0.00946038 -0.01539825 0.03430313
v 0.00931081 -0.01532771 0.03496095
v 0.00888118 -0.01523249 0.03624956
v 0.00888755 -0.01495741 0.03733091
v 0.00897347 -0.01455890 0.03858528
v 0.00861068 -0.01438257 0.03969907
v 0.00770687 -0.01442136 0.04083989
v 0.00837518 -0.01426266 0.04041636
v 0.00810786 -0.01412512 0.04120575
v 0.00770687 -0.01398053 0.04209787
v 0.00856931 -0.01318350 0.04304405
v 0.01952319 -0.00529434 0.04807053
v 0.00837200 -0.01189979 0.04631153
v 0.00764959 -0.01141311 0.04807413
v -0.00059924 0.01354866 0.04807413
v 0.00118928 0.01658865 0.03555389
v 0.00059416 0.01612665 0.03733091
v 0.00059416 0.01685667 0.03377507
v 0.00059416 0.01708238 0.03259099
v 0.00059416 0.01729751 0.03140511
v -0.00058970 0.01733277 0.03022103
v -0.00058970 0.01741741 0.02966413
v -0.00121982 0.01731514 0.02966413
v -0.00177674 0.01722344 0.02966413
v 0.00800602 -0.01648093 0.02966413
v 0.00848338 -0.01625875 0.02966413
v 0.00888755 -0.01605068 0.03022103
v 0.00888755 -0.01596604 0.03140511
v 0.00955267 -0.01544409 0.03351194
v 0.00999821 -0.01515138 0.03385437
v 0.01007141 -0.01491862 0.03496095
v 0.01016688 -0.01456948 0.03620811
v 0.00988683 -0.01444957 0.03733091
v 0.00966406 -0.01432261 0.03823564
v 0.00942538 -0.01419213 0.03902322
v 0.00881753 -0.01387473 0.04083989
v 0.00893529 -0.01335630 0.04208525
v 0.01952319 -0.00530492 0.04799483
v 0.01952319 -0.00514975 0.04807413
v 0.00961314 -0.01312002 0.04170137
v 0.00920261 -0.01407222 0.03969907
v 0.01047876 -0.01410749 0.03733091
v 0.01062515 -0.01419565 0.03664605
v 0.01077472 -0.01429440 0.03585667
v 0.01090839 -0.01440020 0.03496095
v 0.01150031 -0.01396642 0.03496095
v 0.01164352 -0.01406164 0.03377507
v 0.01176764 -0.01415686 0.03259099
v 0.01183765 -0.01420976 0.03184486
v 0.00023455 0.01358040 0.04807413
v 0.00177802 0.01564703 0.03969907
v 0.00177802 0.01592563 0.03851679
v 0.00177802 0.01620071 0.03733091
v 0.00166346 0.01648990 0.03604771
v 0.00197852 0.01659570 0.03558633
v 0.00166346 0.01669092 0.03507990
v 0.00177802 0.01694131 0.03377507
v 0.00177802 0.01732572 0.03140511
v 0.00059416 0.01747031 0.03022103
v 0.00177802 0.01714586 0.03259099
v 0.00059416 0.01752674 0.02966413
v 0.00888755 -0.01606126 0.02966413
v 0.00934263 -0.01581087 0.02966413
v 0.00974998 -0.01557105 0.03022103
v 0.00970225 -0.01553226 0.03140511
v 0.00962905 -0.01548641 0.03259099
v 0.01022098 -0.01515491 0.03259099
v 0.01117571 -0.01456243 0.03259099
v 0.01105159 -0.01450247 0.03377507
v 0.01421810 -0.01185042 0.03199985
v 0.01952319 -0.00532255 0.04680895
v 0.01306925 -0.01306712 0.03220531
v 0.01309152 -0.01309180 0.03140511
v 0.01952319 0.00759564 0.04807413
v 0.01136665 -0.01453069 0.03143214
v 0.01186629 -0.01423092 0.03105367
v 0.01233411 -0.01378303 0.03143214
v 0.00165391 0.01345344 0.04807413
v 0.00414574 0.01496990 0.04206903
v 0.00414574 0.01527320 0.04098948
v 0.00296507 0.01505102 0.04206903
v 0.00296507 0.01530846 0.04108860
v 0.00296507 0.01545658 0.04049566
v 0.00296507 0.01565055 0.03969907
v 0.00296507 0.01593621 0.03851679
v 0.00296507 0.01620776 0.03733091
v 0.00296507 0.01646521 0.03618107
v 0.00296507 0.01659570 0.03558994
v 0.00296507 0.01671208 0.03496095
v 0.00296507 0.01690957 0.03377507
v 0.00296507 0.01707885 0.03259099
v 0.00296507 0.01722344 0.03140511
v 0.00177802 0.01746679 0.03022103
v 0.00357927 0.01659217 0.03556831
v 0.00177802 0.01751616 0.02966413
v 0.00974998 -0.01557811 0.02966413
v 0.01034191 -0.01520075 0.03022103
v 0.01029736 -0.01519017 0.03140511
v 0.01368345 -0.01244642 0.03140511
v 0.01422128 -0.01185394 0.03140511
v 0.01952319 -0.00532255 0.04677831
v 0.01309471 -0.01309886 0.03022103
v 0.01952319 0.00760622 0.04802727
v 0.00976590 0.01436332 0.03851679
v 0.00956859 0.01426104 0.03924851
v 0.00822560 0.01419404 0.04138958
v 0.00770051 0.01382021 0.04325491
v 0.00776734 0.01335116 0.04450207
v 0.00741727 0.01316778 0.04535453
v 0.00700674 0.01300202 0.04614572
v 0.00660575 0.01221557 0.04807413
v 0.01186629 -0.01423092 0.03058508
v 0.00278685 0.01327005 0.04807413
v 0.00578151 0.01419756 0.04378117
v 0.00536461 0.01440211 0.04333241
v 0.00533279 0.01479710 0.04206903
v 0.00476950 0.01541074 0.04031364
v 0.00414574 0.01543190 0.04039834
v 0.00414574 0.01560118 0.03969907
v 0.00414574 0.01588331 0.03851679
v 0.00414574 0.01616192 0.03733091
v 0.00414574 0.01693073 0.03259099
v 0.00414574 0.01708590 0.03140511
v 0.00414574 0.01723755 0.03022103
v 0.00414574 0.01677556 0.03377507
v 0.00296507 0.01735746 0.03022103
v 0.00296507 0.01741389 0.02966413
v 0.00233495 0.01747031 0.02966413
v 0.00404072 0.01663449 0.03487264
v 0.00533279 0.01602438 0.03733091
v 0.00533279 0.01624303 0.03614503
v 0.00436851 0.01653927 0.03520786
v 0.01034191 -0.01520075 0.02966413
v 0.01422128 -0.01185394 0.03069142
v 0.01421174 -0.01183984 0.02990203
v 0.01457135 -0.01137079 0.03026609
v 0.01524921 -0.01040096 0.03022103
v 0.01952319 -0.00522028 0.04562487
v 0.01233411 -0.01379009 0.03020120
v 0.01308516 -0.01308475 0.02966413
v 0.01378847 -0.01232652 0.03026609
v 0.01952319 0.00761327 0.04799483
v 0.01012869 0.01445501 0.03729487
v 0.00888755 0.01499812 0.03733091
v 0.00888755 0.01473009 0.03851679
v 0.00889391 0.01441622 0.03966663
v 0.00850248 0.01430689 0.04060019
v 0.00770051 0.01485000 0.03969907
v 0.00778007 0.01447617 0.04094983
v 0.00778007 0.01412350 0.04217897
v 0.00709266 0.01421520 0.04264755
v 0.00651665 0.01378847 0.04443899
v 0.00657393 0.01330179 0.04570056
v 0.00621750 0.01311488 0.04640164
v 0.00533279 0.01261409 0.04807413
v 0.01089565 -0.01484103 0.02966413
v 0.01129664 -0.01456948 0.02966413
v 0.01183129 -0.01420623 0.02966413
v 0.01238503 -0.01371603 0.02966413
v 0.00662485 0.01412703 0.04333241
v 0.00630342 0.01432100 0.04298998
v 0.00651665 0.01487469 0.04088495
v 0.00523095 0.01518503 0.04077862
v 0.00604883 0.01543542 0.03922147
v 0.00523095 0.01548832 0.03964861
v 0.00533279 0.01574930 0.03851679
v 0.00555874 0.01532963 0.04001086
v 0.00533279 0.01707180 0.03022103
v 0.00414574 0.01729045 0.02966413
v 0.00478223 0.01659570 0.03441847
v 0.00533279 0.01691662 0.03140511
v 0.00647209 0.01551654 0.03845552
v 0.00651665 0.01575988 0.03733091
v 0.00524050 0.01645110 0.03487264
v 0.00651665 0.01597853 0.03614503
v 0.00651665 0.01616897 0.03496095
v 0.00591517 0.01658865 0.03317492
v 0.01420219 -0.01182573 0.02966413
v 0.01458726 -0.01128615 0.02966413
v 0.01522374 -0.01035864 0.02966413
v 0.01559927 -0.00980848 0.03022103
v 0.01952319 -0.00521675 0.04559423
v 0.01952319 0.00778960 0.04681075
v 0.01185356 0.01422225 0.03320195
v 0.01102295 0.01442327 0.03496095
v 0.01083837 0.01431747 0.03614503
v 0.01071426 0.01424694 0.03687494
v 0.01007141 0.01469835 0.03614503
v 0.00885254 0.01522735 0.03622433
v 0.00825425 0.01539310 0.03666948
v 0.00762413 0.01518503 0.03845552
v 0.00743637 0.01433158 0.04185817
v 0.00683807 0.01533668 0.03881056
v 0.00647209 0.01522030 0.03964861
v 0.00662485 0.01447617 0.04217897
v 0.00533279 0.01711764 0.02966413
v 0.00615385 0.01664155 0.03238373
v 0.00653574 0.01668386 0.03129156
v 0.00651665 0.01680377 0.03022103
v 0.00717859 0.01542484 0.03802117
v 0.00742682 0.01550243 0.03733091
v 0.00779598 0.01560823 0.03622433
v 0.00770051 0.01584452 0.03496095
v 0.00651665 0.01635589 0.03377507
v 0.00653574 0.01651106 0.03270453
v 0.01540833 -0.01004476 0.02966413
v 0.01557063 -0.00976616 0.02966413
v 0.01649353 -0.00806630 0.03022103
v 0.01952319 -0.00494520 0.04443899
v 0.01609573 -0.00888801 0.03022103
v 0.01952319 0.00789540 0.04562487
v 0.01247095 0.01380610 0.03259099
v 0.01187584 0.01423988 0.03259099
v 0.01125527 0.01466661 0.03140511
v 0.01031327 0.01522030 0.03140511
v 0.01019552 0.01517092 0.03259099
v 0.01131573 0.01445501 0.03366874
v 0.00997594 0.01514271 0.03373902
v 0.01007141 0.01490995 0.03496095
v 0.00921852 0.01529788 0.03496095
v 0.00843565 0.01546364 0.03588010
v 0.00651665 0.01683551 0.02966413
v 0.00694309 0.01655338 0.03161057
v 0.00711176 0.01658865 0.03082118
v 0.00717541 0.01661333 0.03022103
v 0.00770051 0.01603143 0.03377507
v 0.00770051 0.01620424 0.03259099
v 0.01603208 -0.00888801 0.02966413
v 0.01645852 -0.00798871 0.02966413
v 0.01670675 -0.00739623 0.02966413
v 0.01952319 -0.00475123 0.04378657
v 0.01952319 0.00790599 0.04443899
v 0.01327611 0.01323478 0.03140511
v 0.01325383 0.01321362 0.03259099
v 0.01249959 0.01382726 0.03140511
v 0.01190766 0.01425752 0.03140511
v 0.01125527 0.01469835 0.03022103
v 0.01037374 0.01524146 0.03022103
v 0.00978181 0.01556238 0.03022103
v 0.00972134 0.01552359 0.03140511
v 0.00960359 0.01546364 0.03259099
v 0.00952085 0.01542484 0.03331730
v 0.00938719 0.01536842 0.03410848
v 0.00862659 0.01553770 0.03496095
v 0.00721041 0.01662391 0.02966413
v 0.00758594 0.01638410 0.03129156
v 0.00776734 0.01640526 0.03022103
v 0.00752547 0.01651458 0.02966413
v 0.00894801 0.01559412 0.03373902
v 0.00888755 0.01577046 0.03259099
v 0.01699954 -0.00651457 0.02966413
v 0.01952319 -0.00448673 0.04318282
v 0.01952319 0.00776139 0.04325491
v 0.01437722 0.01202161 0.02966413
v 0.01439950 0.01204629 0.03022103
v 0.01382985 0.01263878 0.03022103
v 0.01386804 0.01268110 0.03140511
v 0.01323792 0.01321715 0.03022103
v 0.01222591 0.01402123 0.02966413
v 0.01251232 0.01380963 0.03022103
v 0.01192039 0.01426810 0.03022103
v 0.01156078 0.01449380 0.02966413
v 0.01125527 0.01468777 0.02966413
v 0.01036737 0.01523440 0.02966413
v 0.01008732 0.01538958 0.02966413
v 0.00977226 0.01556238 0.02966413
v 0.00888755 0.01597853 0.02966413
v 0.00888755 0.01597148 0.03022103
v 0.00888755 0.01589036 0.03140511
v 0.00780234 0.01641584 0.02966413
v 0.01734324 -0.00532961 0.02966413
v 0.01952319 -0.00379198 0.04167253
v 0.01952319 -0.00387662 0.04185096
v 0.01952319 0.00748278 0.04206903
v 0.01544651 0.01072027 0.02966413
v 0.01527466 0.01093539 0.02966413
v 0.01500734 0.01126337 0.02966413
v 0.01468910 0.01165131 0.02966413
v 0.01407489 0.01233548 0.02966413
v 0.01352115 0.01288564 0.02966413
v 0.01379802 0.01261409 0.02966413
v 0.01320609 0.01318894 0.02966413
v 0.01191085 0.01426457 0.02966413
v 0.01747053 -0.00477239 0.02966413
v 0.01952319 -0.00324534 0.04077501
v 0.01952319 -0.00343931 0.04107058
v 0.01952319 0.00720770 0.04120575
v 0.01580613 0.01012073 0.02966413
v 0.01559609 0.01047340 0.02966413
v 0.01761374 -0.00411996 0.02966413
v 0.01952319 -0.00262818 0.03996039
v 0.01952319 0.00695731 0.04061281
v 0.01666220 0.00845615 0.02966413
v 0.01655082 0.00869243 0.02966413
v 0.01640761 0.00899220 0.02966413
v 0.01609573 0.00959526 0.02966413
v 0.01775377 -0.00337583 0.02966413
v 0.01952319 -0.00260349 0.03993156
v 0.01952319 0.00633309 0.03963779
v 0.01739097 0.00651648 0.02966413
v 0.01719366 0.00708074 0.02966413
v 0.01695498 0.00774728 0.02966413
v 0.01680223 0.00812464 0.02966413
v 0.01783333 -0.00280451 0.02966413
v 0.01952319 -0.00149259 0.03875829
v 0.01952319 -0.00152080 0.03878533
v 0.01952319 -0.00209565 0.03934583
v 0.01952319 -0.00211328 0.03936385
v 0.01952319 0.00629077 0.03957471
v 0.01752145 0.00605801 0.02966413
v 0.01952319 0.00168141 0.03709121
v 0.01952319 0.00165320 0.03709842
v 0.01952319 0.00065868 0.03739219
v 0.01952319 0.00055641 0.03742823
v 0.01952319 0.00028133 0.03757421
v 0.01952319 -0.00066382 0.03808245
v 0.01799245 0.00297923 0.02966413
v 0.01952319 0.00592752 0.03908270
v 0.01778241 0.00507407 0.02966413
v 0.01952319 0.00296159 0.03707860
v 0.01791607 0.00414655 0.02966413
v 0.01952319 0.00305329 0.03710022
v 0.01952319 0.00536678 0.03852040
v 0.01782060 0.00492595 0.02966413
v 0.01785561 0.00470377 0.02966413
v 0.01952319 0.00397022 0.03747869
v 0.01952319 0.00532799 0.03848615
v 0.01952319 0.00467203 0.03792746
v 0.01952319 0.00407955 0.03753997
f 1 2 3
f 1 3 4
f 1 4 5
f 1 5 12
f 1 12 20
f 1 20 32
f 1 32 48
f 1 48 61
f 1 61 38
f 1 38 25
f 1 25 14
f 1 14 6
f 1 6 2
f 2 6 15
f 2 15 27
f 2 27 26
f 2 26 42
f 2 42 64
f 2 64 63
f 2 63 83
f 2 83 103
f 2 103 102
f 2 102 125
f 2 125 124
f 2 124 147
f 2 147 174
f 2 174 200
f 2 200 202
f 2 202 201
f 2 201 224
f 2 224 256
f 2 256 255
f 2 255 293
f 2 293 323
f 2 323 322
f 2 322 321
f 2 321 360
f 2 360 394
f 2 394 427
f 2 427 426
f 2 426 468
f 2 468 495
f 2 495 521
f 2 521 544
f 2 544 547
f 2 547 569
f 2 569 566
f 2 566 565
f 2 565 564
f 2 564 563
f 2 563 562
f 2 562 561
f 2 561 582
f 2 582 558
f 2 558 581
f 2 581 579
f 2 579 580
f 2 580 578
f 2 578 553
f 2 553 577
f 2 577 576
f 2 576 575
f 2 575 574
f 2 574 588
f 2 588 587
f 2 587 595
f 2 595 594
f 2 594 593
f 2 593 592
f 2 592 602
f 2 602 601
f 2 601 600
f 2 600 599
f 2 599 609
f 2 609 618
f 2 618 623
f 2 623 624
f 2 624 620
f 2 620 616
f 2 616 603
f 2 603 596
f 2 596 589
f 2 589 583
f 2 583 570
f 2 570 550
f 2 550 529
f 2 529 528
f 2 528 527
f 2 527 506
f 2 506 505
f 2 505 479
f 2 479 478
f 2 478 477
f 2 477 439
f 2 439 458
f 2 458 457
f 2 457 456
f 2 456 455
f 2 455 432
f 2 432 395
f 2 395 362
f 2 362 361
f 2 361 325
f 2 325 324
f 2 324 295
f 2 295 294
f 2 294 259
f 2 259 228
f 2 228 258
f 2 258 257
f 2 257 225
f 2 225 203
f 2 203 177
f 2 177 176
f 2 176 179
f 2 179 175
f 2 175 149
f 2 149 148
f 2 148 126
f 2 126 105
f 2 105 87
f 2 87 85
f 2 85 84
f 2 84 66
f 2 66 65
f 2 65 43
f 2 43 28
f 2 28 16
f 2 16 9
f 2 9 7
f 2 7 3
f 3 7 4
f 4 8 5
f 4 7 9
f 4 9 10
f 4 10 11
f 4 11 8
f 5 8 13
f 5 13 12
f 6 14 15
f 8 11 13
f 9 16 17
f 9 17 10
f 10 17 11
f 11 17 18
f 11 18 13
f 12 19 20
f 12 13 19
f 13 21 22
f 13 22 23
f 13 23 24
f 13 24 19
f 13 18 21
f 14 25 26
f 14 26 27
f 14 27 15
f 16 28 18
f 16 18 17
f 18 28 29
f 18 29 30
f 18 30 21
f 19 24 20
f 20 24 31
f 20 31 32
f 21 30 33
f 21 33 22
f 22 34 35
f 22 35 23
f 22 33 34
f 23 35 24
f 24 35 36
f 24 36 37
f 24 37 32
f 24 32 31
f 25 38 39
f 25 39 40
f 25 40 41
f 25 41 26
f 26 41 42
f 28 43 29
f 29 43 44
f 29 44 45
f 29 45 30
f 30 45 46
f 30 46 33
f 32 47 48
f 32 37 36
f 32 36 49
f 32 49 50
f 32 50 51
f 32 51 52
f 32 52 53
f 32 53 54
f 32 54 55
f 32 55 56
f 32 56 57
f 32 57 47
f 33 46 58
f 33 58 59
f 33 59 60
f 33 60 34
f 34 50 36
f 34 36 35
f 34 60 50
f 36 50 49
f 38 61 47
f 38 47 71
f 38 71 79
f 38 79 95
f 38 95 121
f 38 121 140
f 38 140 167
f 38 167 194
f 38 194 213
f 38 213 243
f 38 243 242
f 38 242 241
f 38 241 283
f 38 283 282
f 38 282 281
f 38 281 279
f 38 279 313
f 38 313 338
f 38 338 373
f 38 373 410
f 38 410 454
f 38 454 412
f 38 412 377
f 38 377 349
f 38 349 314
f 38 314 284
f 38 284 244
f 38 244 215
f 38 215 195
f 38 195 169
f 38 169 141
f 38 141 122
f 38 122 97
f 38 97 82
f 38 82 62
f 38 62 41
f 38 41 40
f 38 40 39
f 41 62 63
f 41 63 64
f 41 64 42
f 43 65 44
f 44 65 66
f 44 66 67
f 44 67 45
f 45 68 58
f 45 58 46
f 45 67 69
f 45 69 70
f 45 70 68
f 47 57 71
f 47 61 48
f 50 60 72
f 50 72 51
f 51 72 73
f 51 73 53
f 51 53 52
f 53 73 74
f 53 74 75
f 53 75 54
f 54 75 76
f 54 76 77
f 54 77 55
f 55 77 56
f 56 77 78
f 56 78 57
f 57 78 79
f 57 79 71
f 58 68 80
f 58 80 81
f 58 81 59
f 59 73 72
f 59 72 60
f 59 81 74
f 59 74 73
f 62 82 83
f 62 83 63
f 66 84 67
f 67 84 85
f 67 85 69
f 68 70 86
f 68 86 80
f 69 85 87
f 69 87 88
f 69 88 70
f 70 88 89
f 70 89 86
f 74 81 90
f 74 90 91
f 74 91 75
f 75 78 76
f 75 91 92
f 75 92 78
f 76 78 77
f 78 92 93
f 78 93 94
f 78 94 95
f 78 95 79
f 80 86 81
f 81 86 96
f 81 96 90
f 82 97 98
f 82 98 99
f 82 99 100
f 82 100 101
f 82 101 102
f 82 102 103
f 82 103 83
f 86 89 104
f 86 104 96
f 87 105 88
f 88 105 106
f 88 106 89
f 89 106 107
f 89 107 108
f 89 108 109
f 89 109 104
f 90 96 104
f 90 104 110
f 90 110 91
f 91 110 111
f 91 111 112
f 91 112 93
f 91 93 92
f 93 113 114
f 93 114 115
f 93 115 116
f 93 116 117
f 93 117 94
f 93 112 111
f 93 111 118
f 93 118 119
f 93 119 120
f 93 120 113
f 94 121 95
f 94 117 116
f 94 116 121
f 97 122 123
f 97 123 98
f 98 123 99
f 99 123 124
f 99 124 125
f 99 125 102
f 99 102 101
f 99 101 100
f 104 109 110
f 105 126 106
f 106 126 127
f 106 127 107
f 107 127 128
f 107 128 129
f 107 129 108
f 108 129 128
f 108 128 130
f 108 130 131
f 108 131 132
f 108 132 109
f 109 132 110
f 110 132 111
f 111 132 133
f 111 133 134
f 111 134 118
f 113 120 135
f 113 135 114
f 114 135 136
f 114 136 115
f 115 136 137
f 115 137 116
f 116 137 136
f 116 136 121
f 118 134 119
f 119 134 133
f 119 133 138
f 119 138 139
f 119 139 120
f 120 139 135
f 121 136 140
f 122 141 142
f 122 142 143
f 122 143 144
f 122 144 145
f 122 145 123
f 123 145 144
f 123 144 146
f 123 146 124
f 124 146 147
f 126 148 127
f 127 148 149
f 127 149 150
f 127 150 128
f 128 150 130
f 130 150 151
f 130 151 152
f 130 152 153
f 130 153 131
f 131 133 132
f 131 153 133
f 133 153 154
f 133 154 155
f 133 155 156
f 133 156 157
f 133 157 158
f 133 158 138
f 135 159 160
f 135 160 161
f 135 161 136
f 135 139 159
f 136 161 162
f 136 162 140
f 138 158 163
f 138 163 164
f 138 164 165
f 138 165 166
f 138 166 159
f 138 159 139
f 140 162 168
f 140 168 167
f 141 169 170
f 141 170 171
f 141 171 142
f 142 171 172
f 142 172 143
f 143 172 144
f 144 172 173
f 144 173 146
f 146 173 174
f 146 174 147
f 149 175 150
f 150 175 151
f 151 176 177
f 151 177 178
f 151 178 152
f 151 175 179
f 151 179 176
f 152 178 180
f 152 180 153
f 153 180 181
f 153 181 154
f 154 181 155
f 155 181 182
f 155 182 183
f 155 183 184
f 155 184 156
f 156 184 157
f 157 184 185
f 157 185 186
f 157 186 158
f 158 186 187
f 158 187 188
f 158 188 163
f 159 166 160
f 160 166 161
f 161 166 162
f 162 166 168
f 163 188 189
f 163 189 190
f 163 190 164
f 164 191 192
f 164 192 168
f 164 168 193
f 164 193 166
f 164 166 165
f 164 190 191
f 166 193 168
f 167 168 192
f 167 192 194
f 169 195 196
f 169 196 170
f 170 196 197
f 170 197 171
f 171 197 172
f 172 197 198
f 172 198 199
f 172 199 173
f 173 200 174
f 173 199 201
f 173 201 202
f 173 202 200
f 177 203 178
f 178 203 204
f 178 204 205
f 178 205 180
f 180 205 182
f 180 182 181
f 182 205 206
f 182 206 207
f 182 207 183
f 183 207 185
f 183 185 184
f 185 207 186
f 186 207 187
f 187 207 188
f 188 207 208
f 188 208 189
f 189 208 209
f 189 209 210
f 189 210 190
f 190 210 211
f 190 211 212
f 190 212 191
f 191 212 192
f 192 212 194
f 194 212 214
f 194 214 213
f 195 215 216
f 195 216 217
f 195 217 218
f 195 218 219
f 195 219 220
f 195 220 196
f 196 220 197
f 197 220 219
f 197 219 221
f 197 221 222
f 197 222 198
f 198 222 199
f 199 222 223
f 199 223 224
f 199 224 201
f 203 225 204
f 204 225 226
f 204 226 205
f 205 226 206
f 206 226 227
f 206 227 228
f 206 228 229
f 206 229 207
f 207 230 231
f 207 231 208
f 207 229 232
f 207 232 233
f 207 233 234
f 207 234 235
f 207 235 236
f 207 236 237
f 207 237 238
f 207 238 230
f 208 239 209
f 208 231 239
f 209 214 212
f 209 212 211
f 209 211 210
f 209 239 240
f 209 240 241
f 209 241 242
f 209 242 243
f 209 243 213
f 209 213 214
f 215 244 245
f 215 245 246
f 215 246 216
f 216 246 247
f 216 247 248
f 216 248 217
f 217 219 218
f 217 248 249
f 217 249 250
f 217 250 251
f 217 251 219
f 219 251 252
f 219 252 221
f 221 252 251
f 221 251 253
f 221 253 222
f 222 253 254
f 222 254 255
f 222 255 223
f 223 256 224
f 223 255 256
f 225 257 226
f 226 257 258
f 226 258 228
f 226 228 227
f 228 259 229
f 229 259 233
f 229 233 232
f 230 238 260
f 230 260 231
f 231 260 261
f 231 261 239
f 233 259 262
f 233 262 234
f 234 262 263
f 234 263 264
f 234 264 235
f 235 264 237
f 235 237 236
f 237 264 238
f 238 265 266
f 238 266 267
f 238 267 268
f 238 268 269
f 238 269 261
f 238 261 260
f 238 264 265
f 239 270 271
f 239 271 240
f 239 261 272
f 239 272 270
f 240 271 270
f 240 270 273
f 240 273 274
f 240 274 275
f 240 275 276
f 240 276 277
f 240 277 278
f 240 278 279
f 240 279 280
f 240 280 281
f 240 281 282
f 240 282 283
f 240 283 241
f 244 284 245
f 245 285 246
f 245 284 285
f 246 285 286
f 246 286 287
f 246 287 288
f 246 288 247
f 247 288 287
f 247 287 289
f 247 289 290
f 247 290 248
f 248 290 249
f 249 290 289
f 249 289 291
f 249 291 250
f 250 291 320
f 250 320 292
f 250 292 251
f 251 292 254
f 251 254 253
f 254 292 293
f 254 293 255
f 259 294 262
f 261 269 272
f 262 294 295
f 262 295 296
f 262 296 297
f 262 297 298
f 262 298 263
f 263 298 299
f 263 299 265
f 263 265 264
f 265 299 266
f 266 299 300
f 266 300 267
f 267 300 301
f 267 301 302
f 267 302 268
f 268 270 269
f 268 302 303
f 268 303 304
f 268 304 305
f 268 305 306
f 268 306 270
f 269 270 272
f 270 306 273
f 273 306 274
f 274 306 307
f 274 307 308
f 274 308 309
f 274 309 275
f 275 309 308
f 275 308 310
f 275 310 311
f 275 311 312
f 275 312 276
f 276 312 277
f 277 312 278
f 278 312 313
f 278 313 279
f 279 281 280
f 284 314 315
f 284 315 316
f 284 316 285
f 285 316 315
f 285 315 286
f 286 315 317
f 286 317 287
f 287 317 318
f 287 318 289
f 289 318 319
f 289 319 291
f 291 319 320
f 292 320 321
f 292 321 322
f 292 322 323
f 292 323 293
f 295 324 296
f 296 324 325
f 296 325 326
f 296 326 327
f 296 327 297
f 297 327 328
f 297 328 300
f 297 300 299
f 297 299 298
f 300 328 329
f 300 329 330
f 300 330 301
f 301 330 331
f 301 331 332
f 301 332 302
f 302 332 303
f 303 332 333
f 303 333 304
f 304 333 334
f 304 334 305
f 305 334 307
f 305 307 306
f 307 334 335
f 307 335 308
f 308 335 336
f 308 336 310
f 310 336 311
f 311 337 370
f 311 370 400
f 311 400 437
f 311 437 481
f 311 481 508
f 311 508 530
f 311 530 551
f 311 551 572
f 311 572 571
f 311 571 585
f 311 585 584
f 311 584 590
f 311 590 597
f 311 597 607
f 311 607 606
f 311 606 605
f 311 605 604
f 311 604 615
f 311 615 614
f 311 614 613
f 311 613 612
f 311 612 611
f 311 611 610
f 311 610 619
f 311 619 621
f 311 621 625
f 311 625 628
f 311 628 627
f 311 627 626
f 311 626 622
f 311 622 617
f 311 617 608
f 311 608 598
f 311 598 591
f 311 591 586
f 311 586 573
f 311 573 552
f 311 552 531
f 311 531 510
f 311 510 482
f 311 482 441
f 311 441 402
f 311 402 373
f 311 373 338
f 311 338 313
f 311 313 312
f 311 336 339
f 311 339 340
f 311 340 334
f 311 334 333
f 311 333 341
f 311 341 342
f 311 342 343
f 311 343 344
f 311 344 345
f 311 345 346
f 311 346 347
f 311 347 348
f 311 348 337
f 314 349 350
f 314 350 351
f 314 351 315
f 315 351 352
f 315 352 353
f 315 353 354
f 315 354 355
f 315 355 356
f 315 356 319
f 315 319 318
f 315 318 317
f 319 357 358
f 319 358 321
f 319 321 320
f 319 356 359
f 319 359 357
f 321 358 360
f 325 361 326
f 326 361 362
f 326 362 363
f 326 363 364
f 326 364 327
f 327 364 365
f 327 365 328
f 328 365 366
f 328 366 329
f 329 366 367
f 329 367 368
f 329 368 344
f 329 344 330
f 330 344 343
f 330 343 331
f 331 343 342
f 331 342 332
f 332 342 341
f 332 341 333
f 334 340 335
f 335 339 336
f 335 340 339
f 337 369 370
f 337 348 371
f 337 371 372
f 337 372 369
f 344 368 345
f 345 368 346
f 346 368 347
f 347 368 348
f 348 368 367
f 348 367 366
f 348 366 374
f 348 374 375
f 348 375 376
f 348 376 371
f 349 377 378
f 349 378 379
f 349 379 380
f 349 380 381
f 349 381 382
f 349 382 350
f 350 382 383
f 350 383 384
f 350 384 351
f 351 384 352
f 352 384 385
f 352 385 353
f 353 385 354
f 354 385 386
f 354 386 387
f 354 387 356
f 354 356 355
f 356 387 388
f 356 388 359
f 357 359 389
f 357 389 390
f 357 390 391
f 357 391 392
f 357 392 358
f 358 392 360
f 359 388 393
f 359 393 389
f 360 392 394
f 362 395 363
f 363 395 396
f 363 396 375
f 363 375 374
f 363 374 397
f 363 397 364
f 364 397 366
f 364 366 365
f 366 397 374
f 369 398 399
f 369 399 370
f 369 372 398
f 370 399 433
f 370 433 400
f 371 376 372
f 372 376 375
f 372 375 401
f 372 401 398
f 373 402 403
f 373 403 404
f 373 404 405
f 373 405 406
f 373 406 407
f 373 407 408
f 373 408 409
f 373 409 410
f 375 396 395
f 375 395 411
f 375 411 401
f 377 412 413
f 377 413 414
f 377 414 378
f 378 414 415
f 378 415 416
f 378 416 379
f 379 416 417
f 379 417 380
f 380 417 381
f 381 417 382
f 382 417 383
f 383 417 418
f 383 418 384
f 384 418 419
f 384 419 420
f 384 420 393
f 384 393 385
f 385 393 386
f 386 393 387
f 387 393 388
f 389 393 390
f 390 421 422
f 390 422 423
f 390 423 391
f 390 393 424
f 390 424 421
f 391 423 425
f 391 425 392
f 392 426 427
f 392 427 394
f 392 425 426
f 393 428 424
f 393 420 429
f 393 429 430
f 393 430 431
f 393 431 428
f 395 432 411
f 398 401 399
f 399 401 433
f 400 433 434
f 400 434 435
f 400 435 436
f 400 436 437
f 401 411 438
f 401 438 439
f 401 439 434
f 401 434 440
f 401 440 433
f 402 441 442
f 402 442 403
f 403 442 443
f 403 443 444
f 403 444 404
f 404 444 445
f 404 445 405
f 405 445 446
f 405 446 447
f 405 447 448
f 405 448 449
f 405 449 406
f 406 449 450
f 406 450 451
f 406 451 408
f 406 408 407
f 408 451 409
f 409 451 452
f 409 452 453
f 409 453 454
f 409 454 410
f 411 432 455
f 411 455 456
f 411 456 457
f 411 457 458
f 411 458 438
f 412 453 452
f 412 452 451
f 412 451 413
f 412 454 453
f 413 451 459
f 413 459 460
f 413 460 415
f 413 415 414
f 415 461 462
f 415 462 416
f 415 460 461
f 416 463 464
f 416 464 465
f 416 465 429
f 416 429 420
f 416 420 419
f 416 419 418
f 416 418 417
f 416 462 466
f 416 466 463
f 421 467 422
f 421 424 470
f 421 470 467
f 422 467 423
f 423 468 426
f 423 426 425
f 423 467 468
f 424 428 469
f 424 469 470
f 428 431 469
f 429 465 463
f 429 463 471
f 429 471 472
f 429 472 474
f 429 474 430
f 430 473 469
f 430 469 431
f 430 474 475
f 430 475 476
f 430 476 473
f 433 440 434
f 434 477 478
f 434 478 435
f 434 439 477
f 435 478 436
f 436 478 479
f 436 479 480
f 436 480 481
f 436 481 437
f 438 458 439
f 441 482 483
f 441 483 484
f 441 484 485
f 441 485 486
f 441 486 442
f 442 486 487
f 442 487 488
f 442 488 443
f 443 488 489
f 443 489 444
f 444 489 490
f 444 490 447
f 444 447 445
f 445 447 446
f 447 461 491
f 447 491 448
f 447 490 492
f 447 492 493
f 447 493 461
f 448 491 449
f 449 491 450
f 450 459 451
f 450 491 461
f 450 461 494
f 450 494 460
f 450 460 459
f 460 494 461
f 461 493 463
f 461 463 466
f 461 466 462
f 463 465 464
f 463 493 492
f 463 492 471
f 467 495 468
f 467 470 476
f 467 476 496
f 467 496 497
f 467 497 498
f 467 498 495
f 469 476 470
f 469 473 476
f 471 492 499
f 471 499 472
f 472 499 500
f 472 500 501
f 472 501 474
f 474 501 502
f 474 502 475
f 475 503 476
f 475 502 525
f 475 525 503
f 476 503 504
f 476 504 496
f 479 505 480
f 480 505 506
f 480 506 481
f 481 507 508
f 481 506 509
f 481 509 507
f 482 510 483
f 483 511 512
f 483 512 513
f 483 513 514
f 483 514 515
f 483 515 516
f 483 516 484
f 483 510 511
f 484 516 517
f 484 517 518
f 484 518 485
f 485 518 487
f 485 487 486
f 487 518 519
f 487 519 488
f 488 519 520
f 488 520 489
f 489 520 502
f 489 502 501
f 489 501 500
f 489 500 499
f 489 499 490
f 490 499 492
f 495 498 521
f 496 504 522
f 496 522 497
f 497 522 498
f 498 522 523
f 498 523 524
f 498 524 521
f 502 520 525
f 503 525 504
f 504 525 526
f 504 526 522
f 506 527 509
f 507 528 529
f 507 529 508
f 507 509 527
f 507 527 528
f 508 529 530
f 510 531 532
f 510 532 533
f 510 533 511
f 511 534 512
f 511 533 534
f 512 534 535
f 512 535 513
f 513 536 537
f 513 537 514
f 513 535 536
f 514 537 538
f 514 538 539
f 514 539 515
f 515 539 540
f 515 540 541
f 515 541 517
f 515 517 516
f 517 541 542
f 517 542 518
f 518 542 519
f 519 542 543
f 519 543 520
f 520 543 525
f 521 524 544
f 522 526 523
f 523 526 545
f 523 545 546
f 523 546 524
f 524 546 547
f 524 547 544
f 525 543 526
f 526 543 548
f 526 548 549
f 526 549 545
f 529 550 530
f 530 550 551
f 531 552 553
f 531 553 554
f 531 554 555
f 531 555 556
f 531 556 532
f 532 556 557
f 532 557 558
f 532 558 559
f 532 559 560
f 532 560 534
f 532 534 533
f 534 560 535
f 535 560 536
f 536 560 561
f 536 561 562
f 536 562 537
f 537 562 563
f 537 563 564
f 537 564 565
f 537 565 538
f 538 565 566
f 538 566 567
f 538 567 539
f 539 567 568
f 539 568 540
f 540 568 549
f 540 549 541
f 541 549 548
f 541 548 542
f 542 548 543
f 545 549 568
f 545 568 546
f 546 568 567
f 546 567 569
f 546 569 547
f 550 570 571
f 550 571 572
f 550 572 551
f 552 573 574
f 552 574 575
f 552 575 576
f 552 576 577
f 552 577 553
f 553 578 555
f 553 555 554
f 555 579 557
f 555 557 556
f 555 578 580
f 555 580 579
f 557 579 581
f 557 581 558
f 558 582 560
f 558 560 559
f 560 582 561
f 566 569 567
f 570 583 584
f 570 584 585
f 570 585 571
f 573 586 587
f 573 587 588
f 573 588 574
f 583 589 584
f 584 589 590
f 586 591 592
f 586 592 593
f 586 593 594
f 586 594 595
f 586 595 587
f 589 596 590
f 590 596 597
f 591 598 599
f 591 599 600
f 591 600 601
f 591 601 602
f 591 602 592
f 596 603 604
f 596 604 605
f 596 605 606
f 596 606 607
f 596 607 597
f 598 608 599
f 599 608 609
f 603 610 611
f 603 611 612
f 603 612 613
f 603 613 614
f 603 614 615
f 603 615 604
f 603 616 610
f 608 617 609
f 609 617 618
f 610 616 619
f 616 620 621
f 616 621 619
f 617 622 623
f 617 623 618
f 620 624 625
f 620 625 621
f 622 626 623
f 623 627 624
f 623 626 627
f 624 627 628
f 624 628 625

