# https://github.com/mikedh/trimesh
v 0.01821165 -0.01260816 0.05641172
v 0.01821165 -0.01246331 0.05634596
v 0.02311795 -0.00546132 0.05252846
v 0.02315863 -0.00547225 0.05252846
v 0.01835693 -0.01240318 0.05641172
v 0.01821165 0.01531233 0.05641172
v 0.01821165 -0.01225833 0.05625359
v 0.02290102 -0.00539846 0.05252846
v 0.02315863 -0.00542033 0.05273410
v 0.01987453 -0.01005279 0.05641172
v 0.01973749 -0.01027690 0.05641172
v 0.01951087 -0.01064585 0.05641172
v 0.01932540 -0.01094102 0.05641172
v 0.01879564 -0.01175819 0.05641172
v 0.01841988 -0.01231299 0.05641172
v 0.02315863 0.00795779 0.05252846
v 0.01828332 0.01523034 0.05641172
v 0.01821165 0.01493791 0.05616313
v 0.01821165 -0.01145209 0.05589400
v 0.01821165 -0.01117879 0.05577427
v 0.01821165 -0.01047094 0.05547322
v 0.02180954 -0.00495025 0.05252846
v 0.02315863 -0.00540393 0.05278580
v 0.02053358 -0.00884480 0.05641172
v 0.01821165 0.00517557 0.05252846
v 0.01821165 0.00560739 0.05261930
v 0.01821165 0.00899360 0.05360723
v 0.01821165 0.01010047 0.05394857
v 0.01821165 0.01095590 0.05423100
v 0.01821165 0.01117728 0.05430436
v 0.01821165 0.01125653 0.05433287
v 0.01821165 0.01176214 0.05451950
v 0.01821165 0.01233608 0.05476886
v 0.01821165 0.01251646 0.05485705
v 0.01821165 0.01354953 0.05536260
v 0.01821165 0.01379824 0.05548576
v 0.01821165 0.01420546 0.05570091
v 0.01821165 0.01467280 0.05599017
v 0.01851333 0.01495977 0.05641172
v 0.01868766 0.01474386 0.05641172
v 0.01964742 0.01348941 0.05641172
v 0.02035586 0.01244266 0.05641172
v 0.02091370 0.01145878 0.05641172
v 0.02102508 0.01124560 0.05641172
v 0.02161149 0.01007314 0.05641172
v 0.02315863 0.00656941 0.05641020
v 0.01821165 -0.00322298 0.05252846
v 0.02167783 -0.00489559 0.05252846
v 0.02315863 -0.00395270 0.05631517
v 0.02304726 -0.00408662 0.05641172
v 0.02314749 0.00657215 0.05641172
v 0.02315863 0.00261747 0.05641172
v 0.02315863 -0.00382971 0.05641172
f 1 2 3
f 1 3 4
f 1 4 5
f 1 5 15
f 1 15 14
f 1 14 13
f 1 13 12
f 1 12 11
f 1 11 10
f 1 10 24
f 1 24 50
f 1 50 53
f 1 53 52
f 1 52 51
f 1 51 45
f 1 45 44
f 1 44 43
f 1 43 42
f 1 42 41
f 1 41 40
f 1 40 39
f 1 39 17
f 1 17 6
f 1 6 18
f 1 18 38
f 1 38 37
f 1 37 36
f 1 36 35
f 1 35 34
f 1 34 33
f 1 33 32
f 1 32 31
f 1 31 30
f 1 30 29
f 1 29 28
f 1 28 27
f 1 27 26
f 1 26 25
f 1 25 47
f 1 47 21
f 1 21 20
f 1 20 19
f 1 19 7
f 1 7 2
f 2 7 8
f 2 8 3
f 3 8 22
f 3 22 48
f 3 48 47
f 3 47 25
f 3 25 16
f 3 16 4
f 4 9 10
f 4 10 11
f 4 11 12
f 4 12 13
f 4 13 14
f 4 14 15
f 4 15 5
f 4 16 46
f 4 46 52
f 4 52 53
f 4 53 49
f 4 49 23
f 4 23 9
f 6 17 16
f 6 16 18
f 7 19 8
f 8 19 20
f 8 20 21
f 8 21 22
f 9 23 10
f 10 23 24
f 16 25 26
f 16 26 27
f 16 27 28
f 16 28 29
f 16 29 30
f 16 30 31
f 16 31 32
f 16 32 33
f 16 33 34
f 16 34 35
f 16 35 36
f 16 36 37
f 16 37 38
f 16 38 18
f 16 17 39
f 16 39 40
f 16 40 41
f 16 41 42
f 16 42 43
f 16 43 44
f 16 44 45
f 16 45 46
f 21 47 48
f 21 48 22
f 23 49 24
f 24 49 50
f 45 51 46
f 46 51 52
f 49 53 50

