# https://github.com/mikedh/trimesh
v 0.04207115 -0.00177714 0.08985683
v 0.04088601 -0.00177714 0.08958843
v 0.04088601 -0.00296048 0.08953753
v 0.04207115 -0.00296048 0.08974577
v 0.04325629 -0.00177714 0.08974577
v 0.04325629 -0.00059117 0.08972263
v 0.04207115 -0.00059117 0.08982444
v 0.03846271 -0.00059117 0.08898221
v 0.03846271 -0.00533240 0.08830426
v 0.04015692 -0.00486640 0.08892205
v 0.04088601 -0.00414644 0.08928763
v 0.04325629 -0.00296048 0.08960925
v 0.04207115 -0.00414644 0.08944266
v 0.04325629 -0.00414644 0.08934085
v 0.04444044 -0.00177714 0.08949356
v 0.04444044 -0.00059117 0.08948199
v 0.04325629 0.00059217 0.08961620
v 0.04207115 0.00059217 0.08970643
v 0.03846271 0.00059217 0.08879248
v 0.03846271 -0.00539785 0.08828806
v 0.03970086 -0.00651575 0.08833434
v 0.03880975 -0.00744776 0.08784843
v 0.04088601 -0.00502610 0.08899146
v 0.04444044 -0.00296048 0.08933160
v 0.03970086 -0.00764411 0.08792942
v 0.04207115 -0.00518579 0.08906319
v 0.04325629 -0.00513343 0.08903543
v 0.04406839 -0.00492138 0.08894519
v 0.04445444 -0.00414644 0.08905625
v 0.04566559 -0.00166980 0.08907013
v 0.04570959 -0.00068281 0.08907245
v 0.04531454 -0.00296048 0.08901923
v 0.04542856 0.00059217 0.08902849
v 0.04444044 0.00059217 0.08933854
v 0.04325629 0.00177551 0.08943572
v 0.04207115 0.00177551 0.08950976
v 0.04138107 0.00369190 0.08895444
v 0.03846271 0.00176504 0.08853564
v 0.03846271 -0.00652098 0.08798264
v 0.03846271 -0.00777763 0.08753144
v 0.03846271 -0.00896359 0.08691828
v 0.03970086 -0.00823840 0.08766564
v 0.03846271 -0.00652884 0.08798032
v 0.03846271 -0.00654978 0.08797338
v 0.04514352 -0.00375374 0.08893362
v 0.04207115 -0.00578008 0.08882024
v 0.04325629 -0.00572511 0.08880404
v 0.04485849 -0.00454176 0.08882255
v 0.04444044 -0.00651575 0.08817700
v 0.04445444 -0.00532193 0.08867678
v 0.04622265 -0.00120117 0.08888271
v 0.04622265 -0.00113572 0.08888271
v 0.04616065 -0.00034770 0.08885495
v 0.04602063 0.00059217 0.08879942
v 0.04590762 -0.00296048 0.08872075
v 0.04608764 -0.00199181 0.08881099
v 0.04522253 0.00145873 0.08894519
v 0.04450845 0.00182264 0.08909559
v 0.04415840 0.00268920 0.08898452
v 0.04330030 0.00303478 0.08908633
v 0.04207115 0.00296147 0.08923441
v 0.03846271 0.00296409 0.08810758
v 0.04207115 0.00375735 0.08897526
v 0.04207115 0.00435164 0.08867216
v 0.04146908 0.00593292 0.08770035
v 0.03846271 -0.00900025 0.08689745
v 0.03970086 -0.00888767 0.08720288
v 0.04325629 -0.00804467 0.08751987
v 0.04325629 -0.00745038 0.08792016
v 0.04325629 -0.00651575 0.08843615
v 0.04207115 -0.00651575 0.08846622
v 0.03879975 -0.00962857 0.08661516
v 0.04557357 -0.00414644 0.08859811
v 0.04504051 -0.00711527 0.08770035
v 0.04525654 -0.00651575 0.08784381
v 0.04568159 -0.00536120 0.08808907
v 0.04444044 -0.00726188 0.08779521
v 0.04670371 -0.00296048 0.08812841
v 0.04679772 -0.00169336 0.08827418
v 0.04743380 -0.00139229 0.08773506
v 0.04746480 -0.00059117 0.08777208
v 0.04744880 0.00059217 0.08774663
v 0.04680973 0.00059217 0.08826029
v 0.04683373 0.00167341 0.08799652
v 0.04562058 0.00182264 0.08868604
v 0.04653469 -0.00414644 0.08797801
v 0.04494850 0.00224937 0.08885032
v 0.04450845 0.00303478 0.08876702
v 0.04372335 0.00347722 0.08885495
v 0.04293426 0.00368928 0.08893362
v 0.04129006 0.00726811 0.08665219
v 0.03846271 0.00307928 0.08802428
v 0.04324829 0.00541456 0.08800346
v 0.04284824 0.00596958 0.08772811
v 0.04207115 0.00533078 0.08810758
v 0.04207115 0.00596434 0.08772349
v 0.04207115 0.00655601 0.08731857
v 0.04207115 0.00735712 0.08672623
v 0.03846271 -0.01002651 0.08620330
v 0.03970086 -0.00964690 0.08663830
v 0.04325629 -0.00880389 0.08692753
v 0.04444044 -0.00785355 0.08733708
v 0.03970086 -0.01024119 0.08615009
v 0.03851572 -0.01085642 0.08553692
v 0.04635867 -0.00498683 0.08782067
v 0.04584961 -0.00651575 0.08737641
v 0.04611364 -0.00577747 0.08760317
v 0.04444044 -0.00856565 0.08674474
v 0.04510752 -0.00836407 0.08657120
v 0.04546956 -0.00754463 0.08696687
v 0.04627366 -0.00718596 0.08657352
v 0.04729578 -0.00296048 0.08754069
v 0.04737379 -0.00218293 0.08765639
v 0.04784985 -0.00059117 0.08710107
v 0.04770383 -0.00178237 0.08719825
v 0.04783785 0.00059217 0.08710107
v 0.04741180 0.00121002 0.08770266
v 0.04724478 0.00199804 0.08755226
v 0.04642868 0.00296147 0.08785538
v 0.04562458 0.00296147 0.08832508
v 0.04712676 -0.00414644 0.08731394
v 0.04444044 0.00414744 0.08835979
v 0.04330030 0.00410817 0.08867910
v 0.04207115 0.00794880 0.08616166
v 0.04127705 0.00843575 0.08547445
v 0.04048696 0.00813991 0.08518754
v 0.04001190 0.00734927 0.08554386
v 0.03846271 0.00414482 0.08721213
v 0.04363734 0.00586224 0.08765639
v 0.04444044 0.00506898 0.08788777
v 0.04324829 0.00642511 0.08733939
v 0.04325629 0.00732309 0.08668689
v 0.04325629 0.00791738 0.08614777
v 0.03846271 -0.01084857 0.08552767
v 0.04325629 -0.00939818 0.08642080
v 0.03970086 -0.01088784 0.08555775
v 0.03846271 -0.01148213 0.08474559
v 0.03851572 -0.01144809 0.08480113
v 0.04681172 -0.00530361 0.08708487
v 0.04743880 -0.00482974 0.08656657
v 0.04645268 -0.00651575 0.08678407
v 0.04444044 -0.00915733 0.08612926
v 0.04503451 -0.00948196 0.08532636
v 0.04589761 -0.00797398 0.08611769
v 0.04621865 -0.00829600 0.08532636
v 0.04639667 -0.00762840 0.08580070
v 0.04702475 -0.00645553 0.08586780
v 0.04726478 -0.00561777 0.08622876
v 0.04766983 -0.00296048 0.08694604
v 0.04753181 -0.00414644 0.08672160
v 0.04831291 -0.00177714 0.08591639
v 0.04841492 -0.00061474 0.08582384
v 0.04842092 0.00063144 0.08582384
v 0.04816789 -0.00296048 0.08591639
v 0.04828590 0.00177551 0.08591639
v 0.04767883 0.00167341 0.08713346
v 0.04760682 0.00296147 0.08676788
v 0.04748081 0.00374688 0.08660359
v 0.04702175 0.00296147 0.08736022
v 0.04626266 0.00361860 0.08772811
v 0.04557157 0.00406628 0.08790397
v 0.04514052 0.00484383 0.08775125
v 0.04325629 0.00851952 0.08555543
v 0.04207115 0.00853261 0.08556932
v 0.04207115 0.00912690 0.08496078
v 0.04207115 0.00970287 0.08436844
v 0.04130006 0.00960077 0.08426895
v 0.04089301 0.00888605 0.08472708
v 0.03997889 0.00854309 0.08439621
v 0.03918380 0.00941489 0.08288991
v 0.03846271 0.00887034 0.08236004
v 0.04444044 0.00566065 0.08754532
v 0.04406739 0.00722361 0.08660128
v 0.04412140 0.00841742 0.08545594
v 0.04325629 -0.00994273 0.08582846
v 0.03970086 -0.01147951 0.08480344
v 0.04325629 -0.01053702 0.08517134
v 0.03846271 -0.01189577 0.08420416
v 0.03851572 -0.01189839 0.08420879
v 0.04744980 -0.00602094 0.08543974
v 0.04756682 -0.00526695 0.08586780
v 0.04790286 -0.00414644 0.08591639
v 0.04444044 -0.00965737 0.08553692
v 0.04486049 -0.01052393 0.08387791
v 0.04522953 -0.00967046 0.08473171
v 0.04407039 -0.01081191 0.08434299
v 0.04633567 -0.00846879 0.08473171
v 0.04680372 -0.00770171 0.08473171
v 0.04582161 -0.00906046 0.08473171
v 0.04611664 -0.00935630 0.08354703
v 0.04727778 -0.00686133 0.08473171
v 0.04857694 -0.00102315 0.08523613
v 0.04860294 -0.00023251 0.08536801
v 0.04855194 -0.00177714 0.08503019
v 0.04857994 0.00105556 0.08525232
v 0.04860294 0.00026492 0.08536801
v 0.04848493 -0.00288718 0.08466692
v 0.04824090 -0.00414644 0.08473171
v 0.04808188 0.00296147 0.08591639
v 0.04827490 0.00414744 0.08473171
v 0.04773184 0.00414220 0.08596267
v 0.04757982 0.00512396 0.08559940
v 0.04729578 0.00453490 0.08638841
v 0.04677972 0.00407675 0.08706636
v 0.04650569 0.00510563 0.08673780
v 0.04593062 0.00440924 0.08752913
v 0.04566659 0.00537005 0.08713578
v 0.04540155 0.00622876 0.08674474
v 0.04325629 0.00968454 0.08434993
v 0.04207115 0.01029454 0.08367429
v 0.04141707 0.01069510 0.08300097
v 0.04062697 0.01045686 0.08263539
v 0.03970286 0.01006939 0.08236698
v 0.04046095 0.01174492 0.08036552
v 0.03935982 0.01051183 0.08117768
v 0.03892277 0.00967931 0.08209858
v 0.03846271 0.00942798 0.08159185
v 0.04445344 0.00657957 0.08691828
v 0.04448944 0.00772888 0.08594184
v 0.04485749 0.00701940 0.08642543
v 0.04494950 0.00945154 0.08410467
v 0.04415940 0.00957720 0.08424349
v 0.03970086 -0.01189839 0.08421110
v 0.04033094 -0.01185650 0.08415325
v 0.04325629 -0.01097685 0.08457900
v 0.03846271 -0.01229895 0.08354703
v 0.03851572 -0.01230942 0.08354703
v 0.04738979 -0.00707600 0.08403294
v 0.04754081 -0.00626965 0.08473171
v 0.04788785 -0.00533240 0.08473171
v 0.04445544 -0.01098732 0.08351001
v 0.04509952 -0.01073075 0.08308890
v 0.04327330 -0.01158161 0.08352852
v 0.04367835 -0.01178058 0.08277422
v 0.04653169 -0.00876201 0.08354703
v 0.04546556 -0.01010505 0.08351001
v 0.04621765 -0.00947934 0.08295238
v 0.04862194 -0.00177714 0.08443785
v 0.04863995 -0.00061474 0.08479881
v 0.04859794 -0.00244473 0.08422961
v 0.04863694 0.00063144 0.08480807
v 0.04861594 0.00177551 0.08441240
v 0.04859394 0.00245358 0.08418102
v 0.04847993 0.00289341 0.08463684
v 0.04833891 -0.00414644 0.08354703
v 0.04806688 -0.00533240 0.08354703
v 0.04845692 0.00414744 0.08354703
v 0.04824090 0.00533078 0.08354703
v 0.04785485 0.00651674 0.08354703
v 0.04781585 0.00544597 0.08484509
v 0.04739780 0.00591460 0.08531711
v 0.04695174 0.00551142 0.08604365
v 0.04619165 0.00589627 0.08649022
v 0.04632866 0.00723670 0.08542817
v 0.04337431 0.01035475 0.08350307
v 0.04305727 0.01075007 0.08307964
v 0.04207115 0.01075007 0.08308195
v 0.04207115 0.01120823 0.08236235
v 0.04207115 0.01171351 0.08153863
v 0.04207115 0.01206694 0.08094629
v 0.04125105 0.01197269 0.08079127
v 0.04096701 0.01088359 0.08228831
v 0.04022193 0.01071342 0.08184406
v 0.04086800 0.01151192 0.08118230
v 0.04086800 0.01216119 0.07997911
v 0.04020192 0.01193604 0.07957420
v 0.03912079 0.01065583 0.08056451
v 0.03868074 0.00992016 0.08117768
v 0.03846271 0.00978664 0.08099720
v 0.04491150 0.00823416 0.08526852
v 0.04562458 0.00745399 0.08563410
v 0.04562458 0.00804828 0.08507416
v 0.04562458 0.00863733 0.08448182
v 0.04631167 0.00838601 0.08425738
v 0.04573359 0.00927090 0.08364421
v 0.04541055 0.00972905 0.08331334
v 0.04522653 0.01077364 0.08193893
v 0.04444044 0.01055634 0.08278579
v 0.04384636 0.01066368 0.08295469
v 0.03970086 -0.01227539 0.08354703
v 0.04207115 -0.01168895 0.08386403
v 0.04207115 -0.01201620 0.08327169
v 0.04288925 -0.01193504 0.08311897
v 0.03846271 -0.01286967 0.08247805
v 0.03851572 -0.01285135 0.08252432
v 0.04761982 -0.00661523 0.08360257
v 0.04717177 -0.00763364 0.08360257
v 0.04743580 -0.00719381 0.08324392
v 0.04396038 -0.01193504 0.08198520
v 0.04520953 -0.01083809 0.08236235
v 0.04588461 -0.01003698 0.08248036
v 0.04327330 -0.01209474 0.08237392
v 0.04632166 -0.00961810 0.08216337
v 0.04862595 -0.00187662 0.08345679
v 0.04867295 -0.00059117 0.08354703
v 0.04867995 0.00059217 0.08354703
v 0.04859794 -0.00244473 0.08379461
v 0.04864995 0.00177551 0.08354703
v 0.04860294 0.00255568 0.08354703
v 0.04855494 0.00314735 0.08354703
v 0.04802687 -0.00533240 0.08236235
v 0.04824590 -0.00414644 0.08236235
v 0.04858594 -0.00233739 0.08300329
v 0.04852693 -0.00288718 0.08345679
v 0.04745180 -0.00723570 0.08236235
v 0.04769483 -0.00651575 0.08236235
v 0.04826190 0.00533078 0.08236235
v 0.04860294 0.00253212 0.08288297
v 0.04801687 0.00651674 0.08236235
v 0.04755182 0.00651674 0.08444017
v 0.04759382 0.00777601 0.08233690
v 0.04735779 0.00822107 0.08271406
v 0.04751081 0.00735974 0.08354703
v 0.04741080 0.00712150 0.08415325
v 0.04718577 0.00651674 0.08503251
v 0.04659270 0.00651674 0.08568269
v 0.04671471 0.00757442 0.08459982
v 0.04337431 0.01106685 0.08248036
v 0.04325629 0.01169780 0.08152475
v 0.04325629 0.01205646 0.08093241
v 0.04207115 0.01256960 0.07999068
v 0.04207115 0.01294659 0.07910449
v 0.04139807 0.01305917 0.07830159
v 0.04095601 0.01271882 0.07874122
v 0.04005090 0.01211144 0.07880601
v 0.03891377 0.01081814 0.07977550
v 0.03846271 0.01018982 0.08018967
v 0.03846271 0.01012437 0.08032156
v 0.04714376 0.00795141 0.08354703
v 0.04655069 0.00864781 0.08354703
v 0.04620065 0.00946463 0.08293387
v 0.04571359 0.01012699 0.08243640
v 0.04605963 0.01055372 0.08117768
v 0.04546656 0.01099093 0.08117768
v 0.04489449 0.01178157 0.08040949
v 0.04410439 0.01195960 0.08077276
v 0.04444044 0.01094381 0.08219345
v 0.03970086 -0.01281993 0.08246185
v 0.04033794 -0.01304508 0.08179547
v 0.04207115 -0.01242723 0.08236235
v 0.03846271 -0.01309744 0.08192736
v 0.03851572 -0.01310006 0.08193198
v 0.03970086 -0.01307126 0.08186951
v 0.04660170 -0.00900548 0.08248036
v 0.04721277 -0.00782737 0.08236235
v 0.04463846 -0.01152925 0.08117768
v 0.04325629 -0.01241938 0.08117768
v 0.04404539 -0.01199787 0.08117768
v 0.04531054 -0.01093758 0.08117768
v 0.04590361 -0.01028307 0.08117768
v 0.04195814 -0.01284349 0.08106430
v 0.04636067 -0.00968878 0.08117768
v 0.04860594 -0.00154937 0.08282049
v 0.04861994 -0.00059117 0.08273951
v 0.04862894 0.00059217 0.08272794
v 0.04862194 0.00177551 0.08279041
v 0.04743480 -0.00719381 0.08156177
v 0.04737379 -0.00698437 0.08077276
v 0.04753981 -0.00656025 0.08117073
v 0.04782185 -0.00533240 0.08117768
v 0.04801487 -0.00414644 0.08117768
v 0.04839892 -0.00296048 0.08236235
v 0.04851893 -0.00187662 0.08239938
v 0.04674972 -0.00888767 0.08117768
v 0.04838192 0.00414744 0.08236235
v 0.04808088 0.00533078 0.08117768
v 0.04794886 0.00651674 0.08117768
v 0.04849793 0.00177551 0.08219807
v 0.04821889 0.00296147 0.08117768
v 0.04815589 0.00414744 0.08117768
v 0.04766983 0.00770270 0.08117768
v 0.04744080 0.00838601 0.08117768
v 0.04742280 0.00833626 0.08192504
v 0.04656470 0.00995943 0.08117768
v 0.04641268 0.00973428 0.08214485
v 0.04325629 0.01254080 0.07999068
v 0.04325629 0.01292565 0.07908135
v 0.04325629 0.01313509 0.07848901
v 0.04207115 0.01313771 0.07851215
v 0.04207115 0.01330526 0.07762364
v 0.04127405 0.01311153 0.07762364
v 0.04068098 0.01285496 0.07762364
v 0.03987088 0.01226067 0.07762364
v 0.03846271 0.01086265 0.07854686
v 0.03846271 0.01077887 0.07880601
v 0.03846271 0.01062703 0.07923406
v 0.04620865 0.01065321 0.08054600
v 0.04512852 0.01193342 0.07962047
v 0.04388737 0.01305393 0.07827151
v 0.04447544 0.01213501 0.08000457
v 0.03851572 -0.01328594 0.08117768
v 0.03970086 -0.01319169 0.08117768
v 0.04079399 -0.01307126 0.08106430
v 0.04148908 -0.01303723 0.08059228
v 0.03846271 -0.01327809 0.08117305
v 0.04407639 -0.01201620 0.07999068
v 0.04466946 -0.01154496 0.07999068
v 0.04218316 -0.01292203 0.07999068
v 0.04325629 -0.01249530 0.07999068
v 0.04530354 -0.01095329 0.07999068
v 0.04589661 -0.01021762 0.07999068
v 0.04630666 -0.00962595 0.07999068
v 0.04853193 -0.00059117 0.08214717
v 0.04851893 0.00059217 0.08213560
v 0.04662570 -0.00888767 0.07999068
v 0.04703675 -0.00770171 0.07999068
v 0.04731679 -0.00656025 0.07993052
v 0.04746580 -0.00619635 0.08028454
v 0.04682472 -0.00770171 0.07880601
v 0.04738279 -0.00575129 0.07949321
v 0.04770783 -0.00414644 0.07999068
v 0.04814289 -0.00296048 0.08117768
v 0.04825490 -0.00177714 0.08117768
v 0.04778584 0.00533078 0.07999068
v 0.04770683 0.00651674 0.07999068
v 0.04752581 0.00770794 0.07999300
v 0.04743280 0.00837553 0.08038635
v 0.04826690 0.00177551 0.08117768
v 0.04790586 0.00296147 0.07999068
v 0.04785385 0.00414744 0.07999068
v 0.04723077 0.00881798 0.07999300
v 0.04664371 0.01007201 0.07880601
v 0.04715777 0.00898029 0.08117768
v 0.04629366 0.01075269 0.07975699
v 0.04325629 0.01325552 0.07762364
v 0.04328030 0.01317174 0.07648987
v 0.04204114 0.01320577 0.07639963
v 0.04128605 0.01311414 0.07676753
v 0.03907779 0.01187320 0.07578878
v 0.03907779 0.01187320 0.07597851
v 0.03846271 0.01108780 0.07756348
v 0.03846271 0.01107733 0.07761207
v 0.04522553 0.01205123 0.07880601
v 0.04434542 0.01265599 0.07872271
v 0.04390037 0.01306440 0.07762364
v 0.04449344 0.01266646 0.07762364
v 0.03846271 -0.01328594 0.08112446
v 0.03851572 -0.01344040 0.07999068
v 0.03970086 -0.01331212 0.07999068
v 0.04088601 -0.01315766 0.07999068
v 0.04159109 -0.01306341 0.07999068
v 0.04405639 -0.01199526 0.07880601
v 0.04464946 -0.01147951 0.07880601
v 0.04159709 -0.01306603 0.07880601
v 0.04218916 -0.01287491 0.07880601
v 0.04325629 -0.01242723 0.07880601
v 0.04521553 -0.01088784 0.07880601
v 0.04587361 -0.00998462 0.07878981
v 0.04624966 -0.00953170 0.07917390
v 0.04830591 -0.00059117 0.08117768
v 0.04829390 0.00059217 0.08117768
v 0.04619065 -0.00940866 0.07838258
v 0.04641367 -0.00896359 0.07878981
v 0.04708176 -0.00651575 0.07880601
v 0.04632967 -0.00861801 0.07788742
v 0.04647368 -0.00777763 0.07754497
v 0.04676172 -0.00651575 0.07762364
v 0.04742780 -0.00496065 0.07931273
v 0.04746880 -0.00414644 0.07917622
v 0.04781685 -0.00296048 0.07999068
v 0.04790186 -0.00177714 0.07999068
v 0.04729979 0.00651674 0.07856768
v 0.04747281 0.00651674 0.07916002
v 0.04693974 0.00770270 0.07762364
v 0.04743680 0.00731785 0.07927803
v 0.04737279 0.00810850 0.07959733
v 0.04704875 0.00888605 0.07880601
v 0.04793386 0.00177551 0.07999068
v 0.04756582 0.00296147 0.07891938
v 0.04754481 0.00414744 0.07898186
v 0.04751181 0.00533078 0.07905821
v 0.04640767 0.01011913 0.07762596
v 0.04617665 0.01054849 0.07723261
v 0.04625666 0.01072389 0.07802393
v 0.04630366 0.01077625 0.07880601
v 0.04658370 0.01018458 0.08008786
v 0.04581860 0.01136793 0.07880601
v 0.04387837 0.01305393 0.07692024
v 0.04290125 0.01310105 0.07566152
v 0.04369035 0.01298586 0.07612891
v 0.04241619 0.01310105 0.07566152
v 0.04162610 0.01299110 0.07597620
v 0.04088601 0.01251985 0.07525428
v 0.04088901 0.01284972 0.07639963
v 0.03972686 0.01207479 0.07533758
v 0.03846271 0.01084956 0.07406266
v 0.03846271 0.01088098 0.07415290
v 0.03846271 0.01122917 0.07532139
v 0.03846271 0.01125797 0.07640657
v 0.03846271 0.01124488 0.07656854
v 0.04522653 0.01207217 0.07762364
v 0.03846271 -0.01343255 0.07999068
v 0.03846271 -0.01343255 0.07993978
v 0.03846271 -0.01339066 0.07880601
v 0.03851572 -0.01339590 0.07880601
v 0.03970086 -0.01330688 0.07880601
v 0.04088601 -0.01317075 0.07880601
v 0.04397238 -0.01193766 0.07785040
v 0.04511852 -0.01077788 0.07793832
v 0.04149608 -0.01303985 0.07817896
v 0.04196314 -0.01277019 0.07772082
v 0.04336431 -0.01214972 0.07752415
v 0.04793686 -0.00059117 0.07999068
v 0.04794086 0.00059217 0.07999068
v 0.04609064 -0.00896359 0.07754497
v 0.04544456 -0.01016003 0.07757505
v 0.04527154 -0.00983801 0.07643896
v 0.04511752 -0.00961548 0.07562218
v 0.04496450 -0.00935891 0.07483086
v 0.04516152 -0.00856827 0.07432413
v 0.04576260 -0.00770171 0.07525428
v 0.04631767 -0.00743205 0.07673051
v 0.04618565 -0.00692154 0.07594149
v 0.04638767 -0.00652098 0.07637649
v 0.04625166 -0.00613090 0.07573325
v 0.04689373 -0.00533240 0.07762364
v 0.04725678 -0.00534549 0.07887311
v 0.04729378 -0.00414644 0.07858388
v 0.04752081 -0.00296048 0.07901888
v 0.04700175 -0.00414644 0.07762364
v 0.04755782 -0.00177714 0.07892864
v 0.04733779 -0.00296048 0.07842654
v 0.04708076 -0.00296048 0.07762364
v 0.04653769 0.00770270 0.07643896
v 0.04624266 0.00843313 0.07577721
v 0.04638967 0.00885201 0.07639963
v 0.04677172 0.00888605 0.07762364
v 0.04727478 0.00770794 0.07885228
v 0.04732278 0.00533078 0.07846587
v 0.04699475 0.00651674 0.07762364
v 0.04757282 0.00177551 0.07888930
v 0.04737479 0.00177551 0.07829697
v 0.04618065 0.00177551 0.07477069
v 0.04736379 0.00296147 0.07832704
v 0.04734379 0.00414744 0.07838720
v 0.04630866 0.00975785 0.07676984
v 0.04523753 0.01122132 0.07535609
v 0.04556858 0.01125797 0.07643896
v 0.04607864 0.01011913 0.07639963
v 0.04504451 0.01186273 0.07581886
v 0.04587461 0.01117419 0.07762596
v 0.04434043 0.01260625 0.07648987
v 0.04328030 0.01282616 0.07526123
v 0.04276723 0.01189153 0.07341479
v 0.04444844 0.01217689 0.07535609
v 0.04405939 0.01203552 0.07442362
v 0.04249320 0.01189153 0.07341479
v 0.04208715 0.01217428 0.07400251
v 0.04204114 0.01283140 0.07526123
v 0.04088601 0.01207479 0.07431025
v 0.04013891 0.01195960 0.07449766
v 0.03846271 0.01040711 0.07302144
v 0.04511452 0.01194389 0.07643896
v 0.03846271 -0.01338281 0.07875510
v 0.03846271 -0.01314195 0.07736218
v 0.03856672 -0.01317075 0.07754034
v 0.03970086 -0.01314980 0.07775322
v 0.04088601 -0.01308697 0.07797997
v 0.04383036 -0.01184079 0.07706138
v 0.04448444 -0.01130934 0.07750101
v 0.04499550 -0.01061294 0.07714931
v 0.04088601 -0.01296392 0.07738763
v 0.04088601 -0.01271521 0.07643896
v 0.04207115 -0.01241676 0.07643896
v 0.04736279 -0.00177714 0.07833630
v 0.04712576 -0.00177714 0.07762364
v 0.04673072 -0.00177714 0.07643896
v 0.04737279 -0.00059117 0.07830391
v 0.04619065 0.00059217 0.07474293
v 0.04486949 -0.01043230 0.07643896
v 0.04465446 -0.01003436 0.07523809
v 0.04413440 -0.01005007 0.07417373
v 0.04398438 -0.00963904 0.07324589
v 0.04482148 -0.00893218 0.07398631
v 0.04500650 -0.00820175 0.07353511
v 0.04529654 -0.00776454 0.07398631
v 0.04562258 -0.00651575 0.07406961
v 0.04604963 -0.00652098 0.07530519
v 0.04578960 -0.00533240 0.07406961
v 0.04610464 -0.00533240 0.07502290
v 0.04629066 -0.00533240 0.07561524
v 0.04654269 -0.00533240 0.07643896
v 0.04669371 -0.00296048 0.07643896
v 0.04547956 -0.00414644 0.07288261
v 0.04632967 -0.00414644 0.07549955
v 0.04586661 -0.00414644 0.07406961
v 0.04627166 0.00770270 0.07570085
v 0.04658670 0.00651674 0.07643896
v 0.04629966 0.00651674 0.07561987
v 0.04608564 0.00651674 0.07502522
v 0.04605363 0.00770270 0.07510620
v 0.04567159 0.00770270 0.07406961
v 0.04520453 0.00761893 0.07281320
v 0.04499450 0.00795927 0.07237126
v 0.04551657 0.00888605 0.07406961
v 0.04600163 0.00885201 0.07533064
v 0.04617065 0.00922377 0.07598083
v 0.04703875 0.00533078 0.07762364
v 0.04593862 0.00177551 0.07406961
v 0.04615965 0.00296147 0.07482854
v 0.04636367 0.00296147 0.07542088
v 0.04712176 0.00296147 0.07762364
v 0.04555857 0.00059217 0.07288261
v 0.04663070 0.00533078 0.07643896
v 0.04569259 0.01007201 0.07525428
v 0.04511052 0.01080244 0.07450923
v 0.04484949 0.01159046 0.07502984
v 0.04319929 0.01216904 0.07404415
v 0.04355733 0.01170827 0.07363229
v 0.04287825 0.01079196 0.07216996
v 0.04207115 0.01078934 0.07216301
v 0.04447044 0.01125535 0.07407192
v 0.04409139 0.01091763 0.07319961
v 0.04366734 0.01053802 0.07241059
v 0.03970086 0.01055372 0.07249389
v 0.04088601 0.01169780 0.07371559
v 0.03920380 0.00946463 0.07112411
v 0.03851572 0.00979188 0.07185065
v 0.03851972 0.01038093 0.07289650
v 0.03846271 0.01035214 0.07289881
v 0.03846271 0.00978141 0.07186453
v 0.03846271 -0.01292465 0.07661481
v 0.03970086 -0.01300319 0.07716088
v 0.04303327 -0.01201097 0.07643896
v 0.04277923 -0.01190624 0.07567077
v 0.04362534 -0.01171251 0.07643896
v 0.04386137 -0.01067839 0.07463881
v 0.04401838 -0.01084071 0.07525428
v 0.04427742 -0.01112084 0.07643896
v 0.04088601 -0.01230418 0.07525428
v 0.04167510 -0.01191933 0.07451155
v 0.04207015 -0.01205547 0.07526585
v 0.04591262 -0.00296048 0.07406961
v 0.04551857 -0.00296048 0.07288261
v 0.04637467 -0.00177714 0.07537692
v 0.04555757 -0.00059117 0.07288261
v 0.04618565 -0.00059117 0.07475681
v 0.04352032 -0.01042968 0.07384979
v 0.04368435 -0.00931964 0.07245456
v 0.04423541 -0.00891123 0.07286410
v 0.04510952 -0.00741373 0.07329448
v 0.04398838 -0.00853162 0.07209360
v 0.04394938 -0.00727497 0.07096908
v 0.04409239 -0.00651575 0.07072150
v 0.04461646 -0.00651575 0.07169794
v 0.04521553 -0.00651575 0.07304458
v 0.04510852 -0.00513082 0.07210054
v 0.04515852 -0.00414644 0.07195014
v 0.04517653 -0.00296048 0.07188304
v 0.04512152 0.00414744 0.07204732
v 0.04536555 0.00533078 0.07288261
v 0.04613864 0.00414744 0.07489101
v 0.04611464 0.00533078 0.07495580
v 0.04547756 0.00296147 0.07288261
v 0.04542456 0.00414744 0.07288261
v 0.04509052 0.00533078 0.07213293
v 0.04530154 0.00651674 0.07288261
v 0.04503851 0.00716863 0.07227871
v 0.04485849 0.00888605 0.07259107
v 0.04515852 0.00888605 0.07318573
v 0.04443144 0.00533078 0.07051326
v 0.04400339 0.00533078 0.06962706
v 0.04392637 0.00629683 0.06977746
v 0.04384036 0.00708747 0.06993017
v 0.04507152 0.00957459 0.07340323
v 0.04552757 0.00177551 0.07288261
v 0.04519553 -0.00059117 0.07184371
v 0.04519453 0.00059217 0.07184371
v 0.04522453 0.01001179 0.07409506
v 0.04488149 0.01036523 0.07371791
v 0.04281124 0.00957459 0.07101767
v 0.04207115 0.00843575 0.06979134
v 0.04207115 0.00903004 0.07035592
v 0.04207115 0.00963218 0.07094826
v 0.04088601 0.00959553 0.07097834
v 0.04404939 0.00974737 0.07205889
v 0.04360033 0.00924995 0.07126756
v 0.04272723 0.00834674 0.06987464
v 0.03907479 0.00830223 0.06991398
v 0.03846271 0.00846716 0.07024485
v 0.03851572 0.00936776 0.07125831
v 0.03846271 0.00938347 0.07130921
v 0.03851572 -0.01234869 0.07525428
v 0.04088601 -0.01196122 0.07440280
v 0.03846271 -0.01232775 0.07521032
v 0.04246520 -0.01176487 0.07487944
v 0.04320729 -0.01146642 0.07526585
v 0.04317728 -0.01088522 0.07417373
v 0.04088601 -0.01168895 0.07380814
v 0.04151108 -0.01068363 0.07226714
v 0.04207015 -0.01151092 0.07409737
v 0.04320729 -0.01002913 0.07293583
v 0.04273023 -0.01070719 0.07341479
v 0.04289525 -0.00963119 0.07209129
v 0.04288625 -0.00852377 0.07088116
v 0.04367534 -0.00806561 0.07130459
v 0.04496350 -0.00651575 0.07245224
v 0.04325029 -0.00768338 0.07052945
v 0.04282424 -0.00730115 0.06976821
v 0.04270823 -0.00598429 0.06869922
v 0.04366234 -0.00651575 0.07012916
v 0.04383536 -0.00588219 0.06993943
v 0.04422441 -0.00542665 0.07040682
v 0.04487649 -0.00544760 0.07170256
v 0.04503151 -0.00592146 0.07229259
v 0.04493050 -0.00414644 0.07135780
v 0.04496550 -0.00296048 0.07129070
v 0.04490549 0.00414744 0.07145498
v 0.04493550 0.00296147 0.07137631
v 0.04517553 0.00177551 0.07189230
v 0.04496250 0.00177551 0.07129996
v 0.04505751 0.00651674 0.07222549
v 0.04462046 0.00296147 0.07051326
v 0.04454045 0.00414744 0.07051326
v 0.04409039 0.00299027 0.06923371
v 0.04388237 0.00261590 0.06867839
v 0.04424141 0.00886772 0.07167711
v 0.04407539 0.00414744 0.06946741
v 0.04382536 0.00340654 0.06877558
v 0.04376835 0.00414744 0.06887507
v 0.04363234 0.00533078 0.06903472
v 0.04277424 0.00382804 0.06745207
v 0.04304027 0.00533078 0.06835909
v 0.04285525 0.00618425 0.06857659
v 0.04300126 0.00770270 0.06965251
v 0.04359333 0.00770270 0.07013610
v 0.04394638 0.00845931 0.07098991
v 0.04497250 -0.00177714 0.07126988
v 0.04497850 -0.00059117 0.07125137
v 0.04497850 0.00059217 0.07125137
v 0.04166110 0.00718957 0.06866914
v 0.04112203 0.00718957 0.06866914
v 0.04088601 0.00840433 0.06981680
v 0.04088601 0.00899600 0.07038600
v 0.04245120 0.00697489 0.06881954
v 0.04206215 0.00655601 0.06837991
v 0.03861373 0.00777077 0.06956922
v 0.03846271 0.00797236 0.06977052
v 0.03846271 0.00935991 0.07127682
v 0.03846271 -0.01195599 0.07445139
v 0.03846271 -0.01162612 0.07386599
v 0.04088601 -0.01113655 0.07288261
v 0.04197214 -0.01086166 0.07296591
v 0.04088601 -0.01070457 0.07223937
v 0.04088601 -0.01019930 0.07164703
v 0.04088601 -0.00960501 0.07096908
v 0.04159309 -0.00954218 0.07104544
v 0.04238319 -0.00931441 0.07130227
v 0.04230118 -0.01042183 0.07262347
v 0.04236319 -0.00809179 0.07009214
v 0.04152508 -0.00714407 0.06870847
v 0.04231518 -0.00677493 0.06897919
v 0.04198014 -0.00643459 0.06856502
v 0.04196414 -0.00522245 0.06797731
v 0.04267022 -0.00356786 0.06754462
v 0.04285324 -0.00533240 0.06854651
v 0.04351933 -0.00542665 0.06935866
v 0.04366534 -0.00414644 0.06898613
v 0.04394438 -0.00509416 0.06977283
v 0.04404739 -0.00414644 0.06957847
v 0.04453845 -0.00414644 0.07051326
v 0.04386537 -0.00247877 0.06870847
v 0.04464246 -0.00296048 0.07051326
v 0.04467147 -0.00177714 0.07051326
v 0.04469147 -0.00059117 0.07051326
v 0.04467546 0.00177551 0.07051326
v 0.04421541 0.00177551 0.06932858
v 0.04352832 0.00299027 0.06822720
v 0.04390937 0.00177551 0.06862749
v 0.04353933 0.00177551 0.06803515
v 0.04287124 0.00296147 0.06735489
v 0.04207115 0.00296147 0.06686436
v 0.04213216 0.00419194 0.06725539
v 0.04256821 0.00461868 0.06760247
v 0.04213216 0.00541194 0.06773898
v 0.04470047 0.00059217 0.07051326
v 0.04177811 0.00507160 0.06742199
v 0.04088601 0.00572872 0.06766957
v 0.04079099 0.00662932 0.06831744
v 0.03851572 0.00688850 0.06889358
v 0.03846271 0.00687803 0.06890052
v 0.03846271 -0.01159732 0.07381971
v 0.04016792 -0.01069934 0.07224631
v 0.03996289 -0.00958668 0.07098296
v 0.04088601 -0.00901072 0.07037674
v 0.04157309 -0.00834574 0.06987001
v 0.04197814 -0.00883007 0.07056879
v 0.04088601 -0.00651575 0.06833132
v 0.04088601 -0.00543451 0.06778063
v 0.04149708 -0.00475644 0.06754231
v 0.04088601 -0.00841905 0.06980754
v 0.04088601 -0.00775669 0.06921520
v 0.04088601 -0.00716240 0.06869228
v 0.04228717 -0.00435850 0.06772973
v 0.04379136 -0.00326679 0.06882185
v 0.04299626 -0.00403649 0.06813233
v 0.04196414 -0.00403649 0.06743356
v 0.04207115 -0.00296048 0.06710962
v 0.04151908 -0.00125615 0.06634375
v 0.04274623 -0.00296048 0.06747058
v 0.04340731 -0.00290812 0.06824571
v 0.04287425 -0.00177714 0.06734563
v 0.04346632 -0.00177714 0.06808143
v 0.04295926 -0.00059117 0.06724382
v 0.04355133 -0.00059117 0.06804672
v 0.04388237 -0.00177714 0.06867377
v 0.04417340 -0.00177714 0.06932858
v 0.04420341 -0.00059117 0.06932858
v 0.04422641 0.00059217 0.06932858
v 0.04391237 0.00059217 0.06861361
v 0.04357633 0.00059217 0.06802127
v 0.04294726 0.00177551 0.06726928
v 0.04298526 0.00059217 0.06721143
v 0.04198614 0.00185405 0.06661678
v 0.04220517 0.00059217 0.06661909
v 0.04088601 0.00296147 0.06657744
v 0.04153509 0.00151371 0.06634143
v 0.04088601 0.00414744 0.06695228
v 0.04088601 0.00513705 0.06736183
v 0.03995989 0.00493546 0.06742661
v 0.03846271 0.00533078 0.06794954
v 0.03851572 0.00629421 0.06848635
v 0.03846271 0.00628636 0.06849329
v 0.03846271 -0.01103183 0.07299136
v 0.03846271 -0.01058415 0.07239671
v 0.03846271 -0.00982230 0.07147812
v 0.03846271 -0.00912329 0.07070762
v 0.03846271 -0.00832218 0.06989778
v 0.03970086 -0.00838501 0.06984225
v 0.04001590 -0.00486116 0.06749140
v 0.04014792 -0.00714669 0.06870616
v 0.04088601 -0.00484283 0.06750066
v 0.04088601 -0.00414644 0.06719755
v 0.04088601 -0.00296048 0.06676718
v 0.04088601 -0.00132160 0.06633449
v 0.04088601 -0.00059117 0.06625119
v 0.04160009 -0.00059117 0.06630904
v 0.04219316 -0.00059117 0.06665148
v 0.04088601 -0.00191327 0.06647563
v 0.04389837 -0.00059117 0.06863906
v 0.04161209 0.00059217 0.06630441
v 0.04088601 0.00221534 0.06639234
v 0.04008991 0.00143779 0.06631135
v 0.03846271 0.00296147 0.06701707
v 0.03846271 0.00299813 0.06702864
v 0.04088601 0.00162105 0.06630672
v 0.04088601 0.00059217 0.06622111
v 0.03846271 0.00402439 0.06736414
v 0.03846271 0.00461868 0.06760015
v 0.03846271 -0.00770433 0.06938411
v 0.03846271 -0.00522245 0.06778526
v 0.03846271 -0.00423807 0.06736183
v 0.03846271 -0.00700270 0.06881028
v 0.03846271 -0.00640841 0.06842387
v 0.03851572 -0.00641364 0.06842156
v 0.03970086 -0.00296048 0.06683890
v 0.04023493 -0.00129280 0.06634606
v 0.04012791 -0.00059117 0.06630904
v 0.04001890 0.00059217 0.06628359
v 0.03846271 0.00059217 0.06656587
v 0.03846271 0.00064453 0.06657281
v 0.03846271 0.00177551 0.06672553
v 0.03846271 0.00182787 0.06673710
v 0.03846271 -0.00635867 0.06839611
v 0.03846271 -0.00296048 0.06695922
v 0.03851572 -0.00296048 0.06695228
v 0.03846271 -0.00172478 0.06674635
v 0.03846271 -0.00059117 0.06660984
v 0.03846271 -0.00290812 0.06694765
v 0.03846271 -0.00177714 0.06675329
f 1 2 3
f 1 3 4
f 1 4 5
f 1 5 6
f 1 6 7
f 1 7 2
f 2 7 8
f 2 8 3
f 3 8 9
f 3 9 10
f 3 10 11
f 3 11 4
f 4 12 5
f 4 11 13
f 4 13 14
f 4 14 12
f 5 12 15
f 5 15 16
f 5 16 6
f 6 16 17
f 6 17 7
f 7 17 18
f 7 18 8
f 8 18 19
f 8 19 38
f 8 38 62
f 8 62 92
f 8 92 128
f 8 128 171
f 8 171 217
f 8 217 269
f 8 269 328
f 8 328 327
f 8 327 386
f 8 386 385
f 8 385 384
f 8 384 432
f 8 432 431
f 8 431 490
f 8 490 489
f 8 489 488
f 8 488 487
f 8 487 486
f 8 486 552
f 8 552 620
f 8 620 621
f 8 621 682
f 8 682 739
f 8 739 680
f 8 680 738
f 8 738 781
f 8 781 823
f 8 823 821
f 8 821 849
f 8 849 848
f 8 848 845
f 8 845 844
f 8 844 863
f 8 863 862
f 8 862 861
f 8 861 860
f 8 860 868
f 8 868 867
f 8 867 870
f 8 870 869
f 8 869 865
f 8 865 852
f 8 852 851
f 8 851 864
f 8 864 854
f 8 854 853
f 8 853 850
f 8 850 828
f 8 828 827
f 8 827 826
f 8 826 825
f 8 825 824
f 8 824 782
f 8 782 741
f 8 741 740
f 8 740 685
f 8 685 622
f 8 622 555
f 8 555 554
f 8 554 494
f 8 494 493
f 8 493 492
f 8 492 437
f 8 437 395
f 8 395 341
f 8 341 284
f 8 284 226
f 8 226 178
f 8 178 137
f 8 137 134
f 8 134 99
f 8 99 66
f 8 66 41
f 8 41 40
f 8 40 44
f 8 44 43
f 8 43 39
f 8 39 20
f 8 20 9
f 9 20 10
f 10 21 11
f 10 20 22
f 10 22 21
f 11 21 23
f 11 23 13
f 12 24 15
f 12 14 24
f 13 23 21
f 13 21 25
f 13 25 26
f 13 26 27
f 13 27 14
f 14 27 28
f 14 28 29
f 14 29 24
f 15 30 31
f 15 31 16
f 15 24 32
f 15 32 30
f 16 31 33
f 16 33 34
f 16 34 17
f 17 34 35
f 17 35 18
f 18 35 36
f 18 36 19
f 19 36 37
f 19 37 38
f 20 39 22
f 21 22 25
f 22 40 41
f 22 41 42
f 22 42 25
f 22 39 43
f 22 43 44
f 22 44 40
f 24 29 45
f 24 45 32
f 25 42 46
f 25 46 26
f 26 46 47
f 26 47 27
f 27 47 28
f 28 48 29
f 28 47 49
f 28 49 50
f 28 50 48
f 29 48 45
f 30 51 31
f 30 32 51
f 31 51 52
f 31 52 53
f 31 53 54
f 31 54 33
f 32 55 56
f 32 56 51
f 32 45 55
f 33 54 57
f 33 57 34
f 34 57 58
f 34 58 35
f 35 58 59
f 35 59 60
f 35 60 61
f 35 61 36
f 36 61 37
f 37 62 38
f 37 61 63
f 37 63 64
f 37 64 65
f 37 65 62
f 41 66 42
f 42 67 68
f 42 68 69
f 42 69 70
f 42 70 71
f 42 71 46
f 42 66 72
f 42 72 67
f 45 48 73
f 45 73 55
f 46 71 70
f 46 70 47
f 47 70 49
f 48 50 74
f 48 74 75
f 48 75 76
f 48 76 73
f 49 70 77
f 49 77 74
f 49 74 50
f 51 56 78
f 51 78 79
f 51 79 80
f 51 80 81
f 51 81 52
f 52 81 82
f 52 82 83
f 52 83 53
f 53 83 54
f 54 83 84
f 54 84 85
f 54 85 57
f 55 78 56
f 55 73 86
f 55 86 78
f 57 85 87
f 57 87 58
f 58 87 59
f 59 87 88
f 59 88 89
f 59 89 60
f 60 89 90
f 60 90 61
f 61 90 63
f 62 65 91
f 62 91 92
f 63 90 64
f 64 93 94
f 64 94 95
f 64 95 65
f 64 90 93
f 65 95 96
f 65 96 97
f 65 97 98
f 65 98 91
f 66 99 72
f 67 72 100
f 67 100 68
f 68 100 101
f 68 101 102
f 68 102 77
f 68 77 69
f 69 77 70
f 72 103 100
f 72 99 104
f 72 104 103
f 73 76 105
f 73 105 86
f 74 106 107
f 74 107 105
f 74 105 75
f 74 77 102
f 74 102 108
f 74 108 109
f 74 109 110
f 74 110 111
f 74 111 106
f 75 105 76
f 78 112 113
f 78 113 79
f 78 86 112
f 79 113 80
f 80 114 81
f 80 113 115
f 80 115 114
f 81 114 116
f 81 116 82
f 82 116 117
f 82 117 83
f 83 117 84
f 84 117 118
f 84 118 119
f 84 119 85
f 85 119 120
f 85 120 87
f 86 105 121
f 86 121 112
f 87 120 88
f 88 120 122
f 88 122 89
f 89 122 123
f 89 123 90
f 90 123 93
f 91 98 124
f 91 124 125
f 91 125 126
f 91 126 127
f 91 127 128
f 91 128 92
f 93 129 94
f 93 123 130
f 93 130 129
f 94 131 132
f 94 132 98
f 94 98 97
f 94 97 96
f 94 96 95
f 94 129 131
f 98 132 133
f 98 133 124
f 99 134 104
f 100 103 101
f 101 108 102
f 101 103 135
f 101 135 108
f 103 104 136
f 103 136 135
f 104 134 137
f 104 137 138
f 104 138 136
f 105 139 140
f 105 140 121
f 105 107 111
f 105 111 141
f 105 141 139
f 106 111 107
f 108 135 142
f 108 142 109
f 109 142 143
f 109 143 144
f 109 144 111
f 109 111 110
f 111 144 145
f 111 145 146
f 111 146 147
f 111 147 148
f 111 148 140
f 111 140 141
f 112 149 113
f 112 121 150
f 112 150 149
f 113 149 115
f 114 115 151
f 114 151 152
f 114 152 153
f 114 153 116
f 115 149 154
f 115 154 151
f 116 153 155
f 116 155 156
f 116 156 117
f 117 156 157
f 117 157 158
f 117 158 118
f 118 158 159
f 118 159 119
f 119 159 160
f 119 160 120
f 120 160 161
f 120 161 122
f 121 140 150
f 122 161 162
f 122 162 130
f 122 130 123
f 124 133 163
f 124 163 164
f 124 164 125
f 125 164 165
f 125 165 166
f 125 166 167
f 125 167 168
f 125 168 169
f 125 169 126
f 126 169 127
f 127 169 128
f 128 169 170
f 128 170 171
f 129 130 172
f 129 172 173
f 129 173 131
f 130 162 172
f 131 173 132
f 132 173 133
f 133 174 163
f 133 173 174
f 135 136 175
f 135 175 142
f 136 138 176
f 136 176 177
f 136 177 175
f 137 178 138
f 138 178 179
f 138 179 176
f 139 141 140
f 140 148 180
f 140 180 181
f 140 181 182
f 140 182 150
f 142 175 177
f 142 177 183
f 142 183 143
f 143 184 185
f 143 185 145
f 143 145 144
f 143 183 186
f 143 186 184
f 145 187 188
f 145 188 146
f 145 185 189
f 145 189 190
f 145 190 187
f 146 188 191
f 146 191 180
f 146 180 147
f 147 180 148
f 149 150 154
f 150 182 154
f 151 192 193
f 151 193 152
f 151 154 194
f 151 194 192
f 152 193 153
f 153 195 155
f 153 193 196
f 153 196 195
f 154 197 194
f 154 182 198
f 154 198 197
f 155 199 156
f 155 195 200
f 155 200 199
f 156 199 157
f 157 199 201
f 157 201 158
f 158 160 159
f 158 201 202
f 158 202 203
f 158 203 204
f 158 204 160
f 160 204 205
f 160 205 206
f 160 206 161
f 161 206 162
f 162 206 207
f 162 207 208
f 162 208 172
f 163 174 209
f 163 209 166
f 163 166 165
f 163 165 164
f 166 209 210
f 166 210 167
f 167 170 168
f 167 210 211
f 167 211 170
f 168 170 169
f 170 211 212
f 170 212 213
f 170 213 214
f 170 214 215
f 170 215 216
f 170 216 171
f 171 216 217
f 172 208 218
f 172 218 173
f 173 219 174
f 173 218 220
f 173 220 219
f 174 219 221
f 174 221 222
f 174 222 209
f 176 179 223
f 176 223 224
f 176 224 177
f 177 224 225
f 177 225 186
f 177 186 183
f 178 226 227
f 178 227 179
f 179 227 223
f 180 191 228
f 180 228 229
f 180 229 230
f 180 230 181
f 181 230 182
f 182 230 198
f 184 186 231
f 184 231 232
f 184 232 185
f 185 232 189
f 186 225 233
f 186 233 234
f 186 234 231
f 187 235 188
f 187 190 235
f 188 235 228
f 188 228 191
f 189 232 236
f 189 236 190
f 190 236 232
f 190 232 237
f 190 237 235
f 192 194 238
f 192 238 193
f 193 238 239
f 193 239 196
f 194 197 240
f 194 240 238
f 195 196 241
f 195 241 242
f 195 242 243
f 195 243 244
f 195 244 200
f 196 239 241
f 197 198 245
f 197 245 240
f 198 230 246
f 198 246 245
f 199 200 201
f 200 247 248
f 200 248 249
f 200 249 250
f 200 250 201
f 200 244 247
f 201 250 202
f 202 250 251
f 202 251 203
f 203 251 252
f 203 252 205
f 203 205 204
f 205 252 253
f 205 253 206
f 206 253 207
f 207 253 208
f 208 220 218
f 208 253 254
f 208 254 220
f 209 222 255
f 209 255 256
f 209 256 210
f 210 256 257
f 210 257 211
f 211 257 258
f 211 258 259
f 211 259 260
f 211 260 261
f 211 261 262
f 211 262 212
f 212 262 213
f 213 262 263
f 213 263 214
f 214 264 261
f 214 261 265
f 214 265 266
f 214 266 267
f 214 267 215
f 214 263 264
f 215 267 216
f 216 268 269
f 216 269 217
f 216 267 268
f 219 270 221
f 219 220 270
f 220 254 271
f 220 271 270
f 221 270 271
f 221 271 272
f 221 272 273
f 221 273 274
f 221 274 275
f 221 275 276
f 221 276 277
f 221 277 278
f 221 278 279
f 221 279 222
f 222 279 255
f 223 227 280
f 223 280 224
f 224 281 225
f 224 280 282
f 224 282 281
f 225 281 283
f 225 283 233
f 226 284 227
f 227 284 285
f 227 285 280
f 228 286 230
f 228 230 229
f 228 235 287
f 228 287 288
f 228 288 286
f 230 286 246
f 231 234 289
f 231 289 232
f 232 289 290
f 232 290 291
f 232 291 237
f 233 283 234
f 234 283 292
f 234 292 289
f 235 237 293
f 235 293 287
f 237 291 293
f 238 240 294
f 238 294 295
f 238 295 239
f 239 295 296
f 239 296 241
f 240 297 294
f 240 245 297
f 241 296 298
f 241 298 242
f 242 298 243
f 243 299 300
f 243 300 247
f 243 247 244
f 243 298 299
f 245 246 301
f 245 301 302
f 245 302 303
f 245 303 304
f 245 304 297
f 246 286 288
f 246 288 305
f 246 305 306
f 246 306 301
f 247 307 248
f 247 300 308
f 247 308 307
f 248 307 309
f 248 309 249
f 249 310 250
f 249 309 311
f 249 311 312
f 249 312 313
f 249 313 314
f 249 314 310
f 250 310 251
f 251 310 314
f 251 314 315
f 251 315 254
f 251 254 316
f 251 316 252
f 252 316 253
f 253 316 254
f 254 314 317
f 254 317 274
f 254 274 273
f 254 273 272
f 254 272 271
f 254 315 314
f 255 279 256
f 256 279 318
f 256 318 319
f 256 319 259
f 256 259 258
f 256 258 257
f 259 319 320
f 259 320 260
f 260 320 321
f 260 321 261
f 261 321 322
f 261 322 323
f 261 323 324
f 261 324 265
f 261 264 262
f 262 264 263
f 265 324 266
f 266 324 325
f 266 325 326
f 266 326 267
f 267 326 327
f 267 327 268
f 268 327 328
f 268 328 269
f 274 317 314
f 274 314 329
f 274 329 330
f 274 330 331
f 274 331 275
f 275 331 276
f 276 331 332
f 276 332 277
f 277 332 333
f 277 333 334
f 277 334 335
f 277 335 336
f 277 336 337
f 277 337 278
f 278 337 279
f 279 337 336
f 279 336 319
f 279 319 318
f 280 285 338
f 280 338 282
f 281 282 283
f 282 338 339
f 282 339 283
f 283 339 340
f 283 340 292
f 284 341 342
f 284 342 285
f 285 342 343
f 285 343 338
f 287 293 344
f 287 344 288
f 288 344 345
f 288 345 305
f 289 346 290
f 289 292 347
f 289 347 348
f 289 348 346
f 290 346 349
f 290 349 350
f 290 350 293
f 290 293 291
f 292 340 351
f 292 351 347
f 293 350 352
f 293 352 345
f 293 345 344
f 294 297 303
f 294 303 353
f 294 353 295
f 295 353 354
f 295 354 355
f 295 355 296
f 296 355 356
f 296 356 298
f 297 304 303
f 298 356 308
f 298 308 299
f 299 308 300
f 301 306 357
f 301 357 358
f 301 358 359
f 301 359 360
f 301 360 302
f 302 360 361
f 302 361 362
f 302 362 303
f 303 363 353
f 303 362 363
f 305 357 306
f 305 345 364
f 305 364 357
f 307 308 365
f 307 365 366
f 307 366 367
f 307 367 309
f 308 356 368
f 308 368 369
f 308 369 370
f 308 370 366
f 308 366 365
f 309 367 371
f 309 371 372
f 309 372 311
f 311 372 373
f 311 373 312
f 312 329 314
f 312 314 313
f 312 373 374
f 312 374 375
f 312 375 329
f 319 336 320
f 320 336 376
f 320 376 321
f 321 376 322
f 322 377 378
f 322 378 379
f 322 379 323
f 322 376 377
f 323 379 380
f 323 380 381
f 323 381 382
f 323 382 324
f 324 382 325
f 325 382 383
f 325 383 384
f 325 384 385
f 325 385 326
f 326 385 386
f 326 386 327
f 329 375 331
f 329 331 330
f 331 375 333
f 331 333 332
f 333 387 388
f 333 388 335
f 333 335 334
f 333 375 387
f 335 388 389
f 335 389 390
f 335 390 336
f 336 390 389
f 336 389 377
f 336 377 376
f 338 343 339
f 339 343 391
f 339 391 392
f 339 392 393
f 339 393 394
f 339 394 351
f 339 351 340
f 341 395 391
f 341 391 342
f 342 391 343
f 345 352 364
f 346 348 396
f 346 396 397
f 346 397 349
f 347 351 398
f 347 398 399
f 347 399 348
f 348 399 396
f 349 397 400
f 349 400 350
f 350 401 352
f 350 400 401
f 351 394 398
f 352 401 402
f 352 402 364
f 353 403 354
f 353 363 403
f 354 403 355
f 355 403 404
f 355 404 356
f 356 404 368
f 357 364 405
f 357 405 406
f 357 406 358
f 358 407 408
f 358 408 360
f 358 360 359
f 358 406 409
f 358 409 407
f 360 408 410
f 360 410 361
f 361 410 411
f 361 411 412
f 361 412 362
f 362 412 363
f 363 412 413
f 363 413 403
f 364 402 405
f 366 370 414
f 366 414 415
f 366 415 367
f 367 415 416
f 367 416 417
f 367 417 371
f 368 418 369
f 368 404 418
f 369 418 419
f 369 419 420
f 369 420 370
f 370 420 414
f 371 417 372
f 372 417 421
f 372 421 422
f 372 422 423
f 372 423 373
f 373 423 374
f 374 423 424
f 374 424 387
f 374 387 375
f 377 389 378
f 378 425 380
f 378 380 379
f 378 389 425
f 380 425 426
f 380 426 427
f 380 427 428
f 380 428 381
f 381 428 382
f 382 428 429
f 382 429 430
f 382 430 383
f 383 430 431
f 383 431 432
f 383 432 384
f 387 424 433
f 387 433 388
f 388 433 434
f 388 434 389
f 389 435 425
f 389 434 433
f 389 433 436
f 389 436 435
f 391 437 438
f 391 438 392
f 391 395 437
f 392 438 439
f 392 439 394
f 392 394 393
f 394 439 440
f 394 440 441
f 394 441 398
f 396 442 397
f 396 399 442
f 397 443 400
f 397 442 443
f 398 441 444
f 398 444 445
f 398 445 399
f 399 446 442
f 399 445 446
f 400 443 447
f 400 447 401
f 401 448 449
f 401 449 402
f 401 447 448
f 402 449 405
f 403 413 450
f 403 450 404
f 404 450 451
f 404 451 418
f 405 449 452
f 405 452 453
f 405 453 406
f 406 453 409
f 407 409 454
f 407 454 410
f 407 410 408
f 409 453 452
f 409 452 455
f 409 455 456
f 409 456 454
f 410 454 457
f 410 457 458
f 410 458 411
f 411 458 459
f 411 459 460
f 411 460 413
f 411 413 412
f 413 460 461
f 413 461 450
f 414 462 463
f 414 463 415
f 414 420 462
f 415 463 464
f 415 464 465
f 415 465 416
f 416 465 466
f 416 466 417
f 417 466 467
f 417 467 421
f 418 468 419
f 418 451 468
f 419 468 469
f 419 469 470
f 419 470 420
f 420 470 471
f 420 471 462
f 421 467 422
f 422 467 472
f 422 472 473
f 422 473 474
f 422 474 475
f 422 475 476
f 422 476 423
f 423 476 424
f 424 476 475
f 424 475 477
f 424 477 433
f 425 435 478
f 425 478 426
f 426 479 427
f 426 478 480
f 426 480 479
f 427 479 481
f 427 481 482
f 427 482 428
f 428 482 483
f 428 483 484
f 428 484 429
f 429 484 485
f 429 485 486
f 429 486 487
f 429 487 488
f 429 488 489
f 429 489 430
f 430 489 490
f 430 490 431
f 433 477 491
f 433 491 436
f 435 436 478
f 436 491 478
f 437 492 438
f 438 493 494
f 438 494 495
f 438 495 496
f 438 496 439
f 438 492 493
f 439 496 497
f 439 497 440
f 440 497 441
f 441 497 444
f 442 446 498
f 442 498 443
f 443 498 499
f 443 499 447
f 444 500 445
f 444 497 500
f 445 500 501
f 445 501 502
f 445 502 446
f 446 502 498
f 447 499 448
f 448 452 449
f 448 499 452
f 450 461 503
f 450 503 504
f 450 504 468
f 450 468 451
f 452 505 455
f 452 499 506
f 452 506 507
f 452 507 508
f 452 508 509
f 452 509 510
f 452 510 505
f 454 456 457
f 455 510 511
f 455 511 512
f 455 512 456
f 455 505 510
f 456 512 457
f 457 512 513
f 457 513 514
f 457 514 515
f 457 515 516
f 457 516 517
f 457 517 458
f 458 517 516
f 458 516 459
f 459 516 518
f 459 518 460
f 460 519 461
f 460 518 520
f 460 520 519
f 461 521 503
f 461 519 522
f 461 522 523
f 461 523 521
f 462 471 470
f 462 470 464
f 462 464 463
f 464 524 525
f 464 525 526
f 464 526 527
f 464 527 528
f 464 528 465
f 464 470 529
f 464 529 530
f 464 530 524
f 465 528 466
f 466 528 467
f 467 528 527
f 467 527 472
f 468 531 469
f 468 504 531
f 469 531 532
f 469 532 533
f 469 533 534
f 469 534 535
f 469 535 470
f 470 535 530
f 470 530 529
f 472 527 536
f 472 536 473
f 473 537 538
f 473 538 474
f 473 536 539
f 473 539 537
f 474 538 540
f 474 540 541
f 474 541 491
f 474 491 475
f 475 491 477
f 478 491 542
f 478 542 480
f 479 480 543
f 479 543 544
f 479 544 547
f 479 547 481
f 480 542 545
f 480 545 546
f 480 546 543
f 481 547 548
f 481 548 549
f 481 549 483
f 481 483 482
f 483 549 550
f 483 550 551
f 483 551 485
f 483 485 484
f 485 551 486
f 486 551 552
f 491 541 553
f 491 553 542
f 494 554 495
f 495 554 555
f 495 555 556
f 495 556 557
f 495 557 496
f 496 557 558
f 496 558 500
f 496 500 497
f 498 559 560
f 498 560 499
f 498 502 559
f 499 560 561
f 499 561 506
f 500 562 563
f 500 563 564
f 500 564 501
f 500 558 562
f 501 564 502
f 502 564 559
f 503 521 565
f 503 565 566
f 503 566 567
f 503 567 568
f 503 568 569
f 503 569 504
f 504 569 531
f 506 561 507
f 507 561 570
f 507 570 508
f 508 570 571
f 508 571 509
f 509 571 572
f 509 572 573
f 509 573 574
f 509 574 510
f 510 575 511
f 510 574 575
f 511 575 576
f 511 576 577
f 511 577 513
f 511 513 512
f 513 577 578
f 513 578 515
f 513 515 514
f 515 579 580
f 515 580 581
f 515 581 582
f 515 582 516
f 515 578 579
f 516 582 518
f 518 582 520
f 519 520 522
f 520 582 581
f 520 581 522
f 521 523 583
f 521 583 584
f 521 584 565
f 522 581 580
f 522 580 585
f 522 585 523
f 523 585 586
f 523 586 584
f 523 584 583
f 524 587 525
f 524 530 588
f 524 588 589
f 524 589 590
f 524 590 587
f 525 587 591
f 525 591 592
f 525 592 593
f 525 593 594
f 525 594 595
f 525 595 596
f 525 596 597
f 525 597 526
f 526 597 536
f 526 536 527
f 530 535 598
f 530 598 604
f 530 604 588
f 531 569 532
f 532 569 533
f 533 599 600
f 533 600 601
f 533 601 602
f 533 602 534
f 533 569 603
f 533 603 599
f 534 602 535
f 535 604 598
f 535 602 601
f 535 601 600
f 535 600 604
f 536 597 605
f 536 605 539
f 537 539 605
f 537 605 606
f 537 606 540
f 537 540 538
f 540 607 546
f 540 546 545
f 540 545 542
f 540 542 553
f 540 553 541
f 540 606 607
f 543 608 544
f 543 546 608
f 544 608 609
f 544 609 610
f 544 610 611
f 544 611 547
f 546 607 612
f 546 612 613
f 546 613 614
f 546 614 609
f 546 609 608
f 547 615 616
f 547 616 548
f 547 611 617
f 547 617 615
f 548 616 550
f 548 550 549
f 550 616 618
f 550 618 551
f 551 619 620
f 551 620 552
f 551 618 621
f 551 621 619
f 555 622 623
f 555 623 557
f 555 557 556
f 557 623 562
f 557 562 558
f 559 564 624
f 559 624 625
f 559 625 626
f 559 626 627
f 559 627 628
f 559 628 629
f 559 629 560
f 560 629 561
f 561 629 570
f 562 623 563
f 563 630 631
f 563 631 632
f 563 632 564
f 563 623 622
f 563 622 630
f 564 632 625
f 564 625 624
f 565 633 634
f 565 634 566
f 565 584 633
f 566 634 567
f 567 635 636
f 567 636 637
f 567 637 568
f 567 634 635
f 568 637 569
f 569 637 636
f 569 636 603
f 570 629 628
f 570 628 571
f 571 628 627
f 571 627 572
f 572 627 573
f 573 627 638
f 573 638 639
f 573 639 640
f 573 640 574
f 574 640 575
f 575 641 576
f 575 640 642
f 575 642 643
f 575 643 644
f 575 644 645
f 575 645 641
f 576 641 577
f 577 579 578
f 577 641 646
f 577 646 647
f 577 647 579
f 579 647 648
f 579 648 584
f 579 584 580
f 580 584 586
f 580 586 585
f 584 648 649
f 584 649 634
f 584 634 633
f 587 590 650
f 587 650 651
f 587 651 591
f 588 604 652
f 588 652 653
f 588 653 589
f 589 653 654
f 589 654 655
f 589 655 590
f 590 655 650
f 591 651 656
f 591 656 657
f 591 657 592
f 592 657 658
f 592 658 593
f 593 658 594
f 594 659 660
f 594 660 595
f 594 658 661
f 594 661 662
f 594 662 663
f 594 663 664
f 594 664 659
f 595 660 665
f 595 665 605
f 595 605 597
f 595 597 596
f 599 666 600
f 599 603 666
f 600 666 652
f 600 652 604
f 603 636 667
f 603 667 668
f 603 668 666
f 605 665 669
f 605 669 606
f 606 670 612
f 606 612 607
f 606 669 665
f 606 665 670
f 609 614 610
f 610 614 671
f 610 671 672
f 610 672 673
f 610 673 674
f 610 674 611
f 611 674 675
f 611 675 617
f 612 670 613
f 613 670 676
f 613 676 614
f 614 676 677
f 614 677 678
f 614 678 671
f 615 617 618
f 615 618 616
f 617 675 679
f 617 679 680
f 617 680 681
f 617 681 618
f 618 681 621
f 619 621 620
f 621 681 682
f 622 683 684
f 622 684 630
f 622 685 683
f 625 686 626
f 625 632 686
f 626 686 687
f 626 687 627
f 627 687 686
f 627 686 688
f 627 688 638
f 630 684 631
f 631 689 690
f 631 690 691
f 631 691 686
f 631 686 632
f 631 684 689
f 634 649 636
f 634 636 635
f 636 649 667
f 638 692 639
f 638 688 693
f 638 693 692
f 639 692 694
f 639 694 695
f 639 695 696
f 639 696 642
f 639 642 640
f 641 645 697
f 641 697 646
f 642 696 643
f 643 696 698
f 643 698 699
f 643 699 700
f 643 700 701
f 643 701 702
f 643 702 644
f 644 702 703
f 644 703 645
f 645 703 704
f 645 704 697
f 646 697 705
f 646 705 647
f 647 706 648
f 647 705 704
f 647 704 706
f 648 706 707
f 648 707 649
f 649 707 667
f 650 708 651
f 650 655 709
f 650 709 708
f 651 708 656
f 652 666 653
f 653 666 654
f 654 666 710
f 654 710 655
f 655 710 711
f 655 711 709
f 656 708 712
f 656 712 657
f 657 712 658
f 658 712 713
f 658 713 714
f 658 714 715
f 658 715 716
f 658 716 661
f 659 717 665
f 659 665 660
f 659 664 717
f 661 716 718
f 661 718 662
f 662 718 716
f 662 716 719
f 662 719 720
f 662 720 663
f 663 720 721
f 663 721 664
f 664 721 722
f 664 722 723
f 664 723 724
f 664 724 725
f 664 725 726
f 664 726 727
f 664 727 717
f 665 717 670
f 666 668 710
f 667 707 728
f 667 728 729
f 667 729 730
f 667 730 668
f 668 730 711
f 668 711 710
f 670 717 676
f 671 678 672
f 672 678 731
f 672 731 732
f 672 732 733
f 672 733 673
f 673 733 734
f 673 734 674
f 674 734 675
f 675 734 679
f 676 717 727
f 676 727 677
f 677 727 726
f 677 726 678
f 678 726 725
f 678 725 724
f 678 724 735
f 678 735 736
f 678 736 731
f 679 734 733
f 679 733 732
f 679 732 737
f 679 737 738
f 679 738 680
f 680 739 681
f 681 739 682
f 683 685 689
f 683 689 684
f 685 740 689
f 686 691 693
f 686 693 688
f 689 741 742
f 689 742 690
f 689 740 741
f 690 693 743
f 690 743 691
f 690 742 744
f 690 744 745
f 690 745 746
f 690 746 747
f 690 747 748
f 690 748 694
f 690 694 749
f 690 749 693
f 691 743 693
f 692 693 694
f 693 749 694
f 694 748 695
f 695 750 699
f 695 699 698
f 695 698 696
f 695 748 750
f 697 704 705
f 699 750 751
f 699 751 752
f 699 752 700
f 700 752 751
f 700 751 753
f 700 753 754
f 700 754 755
f 700 755 756
f 700 756 702
f 700 702 701
f 702 756 757
f 702 757 758
f 702 758 759
f 702 759 703
f 703 759 760
f 703 760 761
f 703 761 704
f 704 761 706
f 706 761 762
f 706 762 763
f 706 763 707
f 707 763 764
f 707 764 765
f 707 765 728
f 708 709 713
f 708 713 712
f 709 711 766
f 709 766 713
f 711 730 766
f 713 766 767
f 713 767 714
f 714 767 715
f 715 767 716
f 716 768 719
f 716 767 769
f 716 769 770
f 716 770 768
f 719 768 720
f 720 768 722
f 720 722 721
f 722 768 771
f 722 771 772
f 722 772 773
f 722 773 774
f 722 774 723
f 723 774 724
f 724 775 735
f 724 774 775
f 728 765 729
f 729 765 776
f 729 776 730
f 730 776 766
f 731 736 777
f 731 777 778
f 731 778 732
f 732 778 779
f 732 779 780
f 732 780 737
f 735 775 736
f 736 775 777
f 737 780 738
f 738 780 781
f 741 782 742
f 742 783 744
f 742 782 783
f 744 783 745
f 745 784 746
f 745 783 784
f 746 784 785
f 746 785 747
f 747 785 786
f 747 786 787
f 747 787 748
f 748 787 750
f 750 787 786
f 750 786 751
f 751 788 789
f 751 789 790
f 751 790 753
f 751 786 791
f 751 791 792
f 751 792 793
f 751 793 788
f 753 790 754
f 754 790 794
f 754 794 755
f 755 795 758
f 755 758 796
f 755 796 757
f 755 757 756
f 755 794 790
f 755 790 797
f 755 797 798
f 755 798 799
f 755 799 800
f 755 800 801
f 755 801 795
f 757 796 758
f 758 795 759
f 759 795 760
f 760 795 762
f 760 762 761
f 762 801 802
f 762 802 803
f 762 803 804
f 762 804 805
f 762 805 806
f 762 806 807
f 762 807 763
f 762 795 801
f 763 807 808
f 763 808 764
f 764 808 809
f 764 809 765
f 765 809 776
f 766 776 767
f 767 776 809
f 767 809 769
f 768 770 771
f 769 809 810
f 769 810 811
f 769 811 770
f 770 812 771
f 770 811 813
f 770 813 812
f 771 814 772
f 771 812 815
f 771 815 814
f 772 816 777
f 772 777 773
f 772 814 817
f 772 817 816
f 773 777 774
f 774 777 775
f 777 816 818
f 777 818 819
f 777 819 778
f 778 819 820
f 778 820 821
f 778 821 822
f 778 822 780
f 778 780 779
f 780 822 823
f 780 823 781
f 782 824 783
f 783 824 825
f 783 825 826
f 783 826 784
f 784 826 827
f 784 827 828
f 784 828 829
f 784 829 791
f 784 791 785
f 785 791 786
f 788 830 789
f 788 793 831
f 788 831 830
f 789 830 832
f 789 832 790
f 790 832 833
f 790 833 834
f 790 834 799
f 790 799 797
f 791 829 831
f 791 831 792
f 792 831 793
f 797 799 798
f 799 835 836
f 799 836 837
f 799 837 838
f 799 838 800
f 799 834 839
f 799 839 835
f 800 838 802
f 800 802 801
f 802 838 804
f 802 804 803
f 804 838 813
f 804 813 805
f 805 813 811
f 805 811 806
f 806 811 840
f 806 840 807
f 807 840 808
f 808 840 810
f 808 810 809
f 810 840 811
f 812 813 815
f 813 838 815
f 814 815 817
f 815 838 837
f 815 837 841
f 815 841 817
f 816 817 842
f 816 842 843
f 816 843 844
f 816 844 845
f 816 845 818
f 817 846 842
f 817 841 847
f 817 847 846
f 818 820 819
f 818 845 848
f 818 848 820
f 820 849 821
f 820 848 849
f 821 823 822
f 828 850 831
f 828 831 829
f 830 851 852
f 830 852 834
f 830 834 833
f 830 833 832
f 830 831 851
f 831 850 853
f 831 853 854
f 831 854 855
f 831 855 851
f 834 856 839
f 834 852 856
f 835 857 836
f 835 839 857
f 836 858 859
f 836 859 847
f 836 847 837
f 836 857 858
f 837 847 841
f 839 856 857
f 842 846 843
f 843 860 861
f 843 861 862
f 843 862 863
f 843 863 844
f 843 846 847
f 843 847 859
f 843 859 860
f 851 855 864
f 852 865 866
f 852 866 856
f 854 864 855
f 856 866 857
f 857 867 868
f 857 868 858
f 857 866 865
f 857 865 869
f 857 869 870
f 857 870 867
f 858 868 859
f 859 868 860

