# https://github.com/mikedh/trimesh
v 0.00059010 0.01769469 0.02666369
v 0.00059010 0.01766987 0.02547914
v -0.00059125 0.01765569 0.02666369
v 0.00059010 0.01766987 0.02784935
v 0.00177501 0.01763796 0.02784935
v 0.00177501 0.01763796 0.02666369
v 0.00059010 0.01754932 0.02429347
v -0.00059125 0.01750678 0.02429347
v -0.00059125 0.01761314 0.02547914
v 0.00177501 0.01759896 0.02547914
v -0.00177617 0.01746069 0.02547914
v -0.00177617 0.01749260 0.02666369
v -0.00059125 0.01763087 0.02784935
v 0.00059010 0.01759542 0.02903391
v 0.00177501 0.01757060 0.02903391
v 0.00295993 0.01747487 0.02903391
v 0.00295993 0.01752805 0.02784935
v 0.00295993 0.01750678 0.02666369
v 0.00177501 0.01746423 0.02429347
v 0.00059010 0.01730114 0.02311003
v -0.00059125 0.01731177 0.02311003
v -0.00177617 0.01720895 0.02311003
v -0.00177617 0.01737559 0.02429347
v 0.00295993 0.01744650 0.02547914
v 0.00295993 0.01732595 0.02429347
v -0.00296108 0.01718059 0.02429347
v -0.00296108 0.01722313 0.02547914
v -0.00296108 0.01722668 0.02666369
v -0.00177617 0.01745359 0.02784935
v -0.00059125 0.01751032 0.02903391
v 0.00059010 0.01752805 0.02966233
v 0.00177501 0.01751387 0.02966233
v 0.00233178 0.01747132 0.02966233
v 0.00295993 0.01741459 0.02966233
v 0.00414484 0.01729050 0.02966233
v 0.00414484 0.01734723 0.02903391
v 0.00414484 0.01736496 0.02784935
v 0.00414484 0.01732595 0.02666369
v 0.00177501 0.01721249 0.02311003
v 0.00059010 0.01693949 0.02192437
v -0.00059125 0.01697494 0.02192437
v -0.00188324 0.01682958 0.02180980
v -0.00296108 0.01674448 0.02209676
v -0.00296108 0.01702104 0.02311003
v 0.00414484 0.01725859 0.02547914
v 0.00295993 0.01707422 0.02311003
v 0.00414484 0.01712031 0.02429347
v -0.00414957 0.01673739 0.02315563
v -0.00414600 0.01687921 0.02429347
v -0.00414600 0.01690049 0.02547914
v -0.00414600 0.01688630 0.02666369
v -0.00296108 0.01715931 0.02784935
v -0.00177617 0.01731886 0.02903391
v -0.00059125 0.01741814 0.02966233
v 0.00532976 0.01711677 0.02966233
v 0.00532976 0.01716286 0.02903391
v 0.00532976 0.01716286 0.02784935
v 0.00532976 0.01710613 0.02666369
v 0.00182498 0.01680121 0.02182871
v 0.00146451 0.01662748 0.02125145
v 0.00059010 0.01665939 0.02116692
v -0.00059125 0.01667357 0.02113800
v -0.00155846 0.01664166 0.02121252
v -0.00235078 0.01658848 0.02133932
v -0.00296108 0.01652111 0.02150393
v -0.00375341 0.01665584 0.02234368
v 0.00532976 0.01699976 0.02547914
v 0.00420908 0.01681185 0.02303885
v 0.00385575 0.01666648 0.02230809
v 0.00295993 0.01674803 0.02209231
v 0.00540114 0.01678348 0.02424119
v 0.00505137 0.01668421 0.02338698
v -0.00454573 0.01652466 0.02279192
v -0.00479913 0.01661684 0.02358163
v -0.00486694 0.01663811 0.02429347
v -0.00490263 0.01665230 0.02547914
v -0.00485980 0.01664166 0.02666369
v -0.00479199 0.01661329 0.02744783
v -0.00422452 0.01676930 0.02784490
v -0.00394256 0.01672321 0.02903391
v -0.00296108 0.01702458 0.02903391
v -0.00177617 0.01722313 0.02966233
v -0.00121940 0.01731532 0.02966233
v -0.00240431 0.01708131 0.02966233
v 0.00651467 0.01683312 0.02966233
v 0.00651467 0.01686858 0.02903391
v 0.00651467 0.01685794 0.02784935
v 0.00659319 0.01675866 0.02669372
v 0.00225326 0.01657429 0.02136935
v 0.00059010 0.01639347 0.02057409
v 0.00182498 0.01636511 0.02080988
v -0.00059125 0.01640056 0.02054517
v -0.00188324 0.01639347 0.02078652
v -0.00296108 0.01615946 0.02073981
v -0.00423165 0.01575527 0.02064193
v -0.00414957 0.01636156 0.02193882
v 0.00630410 0.01672321 0.02547914
v 0.00610780 0.01664875 0.02460045
v 0.00464451 0.01656366 0.02259728
v 0.00295993 0.01652111 0.02149948
v 0.00420908 0.01640765 0.02191769
v 0.00584370 0.01656366 0.02381186
v -0.00524883 0.01629420 0.02315563
v -0.00543442 0.01578009 0.02182315
v -0.00615893 0.01553545 0.02215126
v -0.00639448 0.01567727 0.02311003
v -0.00663361 0.01575527 0.02418447
v -0.00545940 0.01638638 0.02429347
v -0.00549509 0.01641474 0.02547914
v -0.00545226 0.01638638 0.02666369
v -0.00467064 0.01656366 0.02823753
v -0.00524526 0.01637574 0.02784490
v -0.00533091 0.01619847 0.02903391
v -0.00453502 0.01651756 0.02903391
v -0.00382122 0.01668066 0.02966233
v -0.00336081 0.01682248 0.02966233
v -0.00441367 0.01647856 0.02966233
v -0.00296108 0.01694303 0.02966233
v 0.00721063 0.01662393 0.02966233
v 0.00724989 0.01663811 0.02903391
v 0.00721777 0.01663102 0.02784935
v 0.00714639 0.01660620 0.02710748
v 0.00703932 0.01656366 0.02631778
v 0.00177501 0.01572690 0.01967427
v 0.00059366 0.01573045 0.01944959
v -0.00059125 0.01584745 0.01955414
v 0.00295993 0.01612755 0.02073981
v -0.00136930 0.01543971 0.01891460
v -0.00176903 0.01570209 0.01947295
v -0.00296108 0.01563826 0.01976436
v -0.00389260 0.01551417 0.01997013
v -0.00468492 0.01538653 0.02018257
v -0.00510963 0.01557444 0.02097227
v 0.00689656 0.01651402 0.02547914
v 0.00650754 0.01641120 0.02424119
v 0.00540114 0.01644665 0.02303885
v 0.00532976 0.01599637 0.02192437
v 0.00419838 0.01576236 0.02065862
v 0.00532976 0.01556381 0.02105569
v 0.00651467 0.01602119 0.02311003
v -0.00590196 0.01539362 0.02136045
v -0.00654081 0.01520216 0.02182315
v -0.00698694 0.01533335 0.02311003
v -0.00710472 0.01540071 0.02371732
v -0.00651583 0.01591127 0.02547914
v -0.00721536 0.01546808 0.02450591
v -0.00651583 0.01587582 0.02666369
v -0.00651583 0.01580136 0.02784935
v -0.00659078 0.01563472 0.02899275
v -0.00533091 0.01611692 0.02966233
v -0.00495617 0.01626583 0.02966233
v 0.00752471 0.01651756 0.02966233
v 0.00784235 0.01642538 0.02903391
v 0.00781023 0.01640056 0.02784935
v 0.00760679 0.01637220 0.02669372
v 0.00177501 0.01531207 0.01908255
v 0.00098983 0.01538653 0.01898356
v 0.00295993 0.01560281 0.01985779
v 0.00020107 0.01542199 0.01893796
v -0.00059125 0.01544326 0.01890904
v 0.00383791 0.01549290 0.02001796
v -0.00059125 0.01496106 0.01829952
v -0.00155132 0.01487242 0.01829952
v -0.00176903 0.01485115 0.01829952
v -0.00176903 0.01498588 0.01845968
v -0.00281475 0.01465260 0.01829952
v -0.00215805 0.01536526 0.01902471
v -0.00296108 0.01527307 0.01917264
v -0.00423165 0.01514543 0.01956638
v -0.00497758 0.01433704 0.01880893
v -0.00535590 0.01463842 0.01949964
v -0.00626243 0.01442214 0.01985779
v -0.00543442 0.01527307 0.02064193
v 0.00769959 0.01615592 0.02547914
v 0.00781737 0.01578363 0.02417891
v 0.00746403 0.01558508 0.02311003
v 0.00718922 0.01544680 0.02242599
v 0.00642545 0.01556736 0.02198887
v 0.00597218 0.01542553 0.02129594
v 0.00462666 0.01536880 0.02020926
v 0.00532976 0.01522343 0.02046286
v -0.00660149 0.01466678 0.02066307
v -0.00732957 0.01437604 0.02100675
v -0.00771502 0.01451787 0.02199332
v -0.00833603 0.01425195 0.02243489
v -0.00770075 0.01486533 0.02311003
v -0.00764721 0.01513480 0.02418447
v -0.00725819 0.01549290 0.02547914
v -0.00724391 0.01548581 0.02666369
v -0.00864297 0.01447532 0.02429347
v -0.00874290 0.01454268 0.02547914
v -0.00785064 0.01513480 0.02547914
v -0.00719751 0.01545744 0.02784935
v -0.00714398 0.01542199 0.02857121
v -0.00703334 0.01536526 0.02936091
v -0.00677994 0.01544680 0.02966233
v -0.00643731 0.01561345 0.02966233
v 0.00780309 0.01641474 0.02966233
v 0.00888807 0.01597864 0.02966233
v 0.00888807 0.01598573 0.02903391
v 0.00888807 0.01593609 0.02784935
v 0.00899514 0.01572336 0.02657026
v 0.00295993 0.01517734 0.01926496
v 0.00183212 0.01468805 0.01829952
v 0.00179642 0.01469514 0.01829952
v 0.00078996 0.01486533 0.01829952
v 0.00059366 0.01489370 0.01829952
v 0.00059366 0.01503197 0.01847303
v 0.00419838 0.01506743 0.01959530
v -0.00295038 0.01462423 0.01829952
v -0.00383906 0.01437959 0.01829952
v -0.00414600 0.01450368 0.01858760
v -0.00535233 0.01375202 0.01829952
v -0.00535590 0.01382648 0.01839628
v -0.00576633 0.01413849 0.01906698
v -0.00414600 0.01428031 0.01829952
v -0.00445650 0.01415267 0.01829952
v -0.00660149 0.01395412 0.01949964
v -0.00705118 0.01418458 0.02021705
v 0.00873461 0.01564181 0.02547914
v 0.00850262 0.01551772 0.02449701
v 0.00828848 0.01540071 0.02370842
v 0.00805649 0.01526953 0.02311003
v 0.00945912 0.01420940 0.02254500
v 0.00860255 0.01439732 0.02192437
v 0.00763178 0.01498233 0.02198887
v 0.00760679 0.01439023 0.02083658
v 0.00676094 0.01525180 0.02163629
v 0.00714639 0.01424131 0.02011806
v 0.00651467 0.01437604 0.01992230
v 0.00531191 0.01458878 0.01951077
v 0.00490148 0.01428740 0.01888679
v -0.00771502 0.01391512 0.02066307
v -0.00811832 0.01408176 0.02164408
v -0.00939960 0.01296845 0.02148502
v -0.00959590 0.01313864 0.02227472
v -0.00978862 0.01329110 0.02311003
v -0.00905340 0.01388321 0.02311003
v -0.00846095 0.01434059 0.02311003
v -0.00783637 0.01513125 0.02666369
v -0.00778997 0.01511707 0.02784935
v -0.00923543 0.01403567 0.02429347
v -0.00933536 0.01410658 0.02547914
v -0.00936034 0.01413140 0.02666369
v -0.00876788 0.01453914 0.02666369
v -0.00868580 0.01446823 0.02903391
v -0.00760438 0.01510643 0.02899275
v -0.00698694 0.01534398 0.02966233
v -0.00726889 0.01518798 0.02966233
v 0.00977319 0.01556381 0.02966233
v 0.00976248 0.01556026 0.02903391
v 0.00959831 0.01547871 0.02690282
v 0.00969824 0.01553190 0.02784935
v 0.00946269 0.01539362 0.02611201
v 0.00414484 0.01441505 0.01873330
v 0.00295993 0.01458523 0.01851418
v 0.00295993 0.01440795 0.01829952
v -0.00630883 0.01322019 0.01829952
v -0.00640519 0.01326983 0.01844189
v -0.00719751 0.01309964 0.01888568
v -0.00763650 0.01332656 0.01962199
v -0.00836458 0.01309609 0.02006245
v 0.00932706 0.01531916 0.02547914
v 0.00889164 0.01519507 0.02417891
v 0.01009083 0.01451432 0.02434019
v 0.00970538 0.01437250 0.02333471
v 0.00919501 0.01403567 0.02192437
v 0.00832774 0.01423777 0.02129705
v 0.01049770 0.01409594 0.02397759
v 0.01009083 0.01395412 0.02300770
v 0.01076181 0.01312446 0.02237594
v 0.01007299 0.01341520 0.02195884
v 0.00793514 0.01398249 0.02050624
v 0.00850262 0.01319183 0.01996123
v 0.00758181 0.01354638 0.01964424
v 0.00723205 0.01311382 0.01888012
v 0.00651467 0.01390803 0.01933058
v 0.00569023 0.01411722 0.01908700
v 0.00524767 0.01355702 0.01829952
v 0.00488720 0.01371302 0.01829952
v 0.00414484 0.01402503 0.01829952
v -0.00858229 0.01327337 0.02073981
v -0.00917475 0.01272736 0.02073981
v -0.01059165 0.01175942 0.02148947
v -0.01009556 0.01246853 0.02188210
v -0.01038108 0.01275572 0.02311003
v -0.01057738 0.01295073 0.02429347
v -0.00998492 0.01344356 0.02429347
v -0.00876074 0.01452141 0.02784935
v -0.01064876 0.01302164 0.02497195
v -0.01071300 0.01307482 0.02576165
v -0.01018122 0.01344356 0.02541129
v -0.01007058 0.01359602 0.02666369
v -0.00935320 0.01413140 0.02784935
v -0.00927825 0.01407822 0.02903391
v -0.00861085 0.01441859 0.02966233
v -0.00765792 0.01497170 0.02966233
v 0.01008726 0.01539008 0.02966233
v 0.01036565 0.01523407 0.02966233
v 0.01035494 0.01522698 0.02903391
v 0.01104733 0.01448950 0.02666369
v 0.01002302 0.01513834 0.02657026
v 0.01029070 0.01517379 0.02784935
v 0.01187178 0.01423777 0.02835098
v 0.01007299 0.01486888 0.02547914
v -0.00684775 0.01281954 0.01829952
v -0.00742236 0.01234444 0.01829952
v -0.00759724 0.01235153 0.01845746
v -0.00841812 0.01198279 0.01881894
v -0.00798627 0.01276990 0.01927163
v -0.00878573 0.01233734 0.01967761
v -0.00952808 0.01190479 0.02008469
v -0.00975650 0.01213525 0.02073981
v 0.01072612 0.01426613 0.02476618
v 0.00967683 0.01319537 0.02111464
v 0.00881312 0.01358893 0.02081100
v 0.01097238 0.01330528 0.02311003
v 0.01046558 0.01285145 0.02158624
v 0.01176827 0.01296136 0.02386303
v 0.01156841 0.01275218 0.02311003
v 0.01192888 0.01194024 0.02238595
v 0.01121151 0.01239407 0.02198554
v 0.00929494 0.01289754 0.02032494
v 0.00892733 0.01247562 0.01951522
v 0.00802080 0.01284436 0.01917153
v 0.00717494 0.01248271 0.01829952
v 0.00651467 0.01289400 0.01829952
v 0.00651467 0.01331237 0.01868770
v 0.00855972 0.01205370 0.01876667
v 0.00758895 0.01236571 0.01842854
v 0.00751043 0.01227352 0.01829952
v -0.01077724 0.01196861 0.02227917
v -0.01040250 0.01131977 0.02063637
v -0.01090930 0.01096876 0.02096337
v -0.01169805 0.01047592 0.02160626
v -0.01191576 0.01074184 0.02239596
v -0.01094499 0.01216361 0.02311003
v -0.01114128 0.01235862 0.02429347
v -0.01182297 0.01182324 0.02504535
v -0.01126977 0.01245435 0.02540350
v -0.01072728 0.01308900 0.02666369
v -0.01188364 0.01188706 0.02583506
v -0.01191219 0.01191897 0.02666369
v -0.01131973 0.01251108 0.02666369
v -0.01007058 0.01356411 0.02784935
v -0.01066660 0.01303582 0.02845665
v -0.00920330 0.01402858 0.02966233
v -0.01015266 0.01339747 0.02892491
v -0.01002418 0.01339392 0.02966233
v -0.00962088 0.01371302 0.02966233
v 0.01079036 0.01497524 0.02966233
v 0.01125790 0.01467742 0.02903391
v 0.01163979 0.01406049 0.02666369
v 0.01086174 0.01436186 0.02547914
v 0.01190390 0.01425904 0.02903391
v 0.01249636 0.01375202 0.02903391
v 0.01320659 0.01318828 0.02966233
v 0.01317090 0.01315992 0.02903391
v 0.01308524 0.01308191 0.02784935
v 0.01303885 0.01303937 0.02723984
v 0.01250349 0.01338329 0.02677269
v -0.00774714 0.01207143 0.01829952
v -0.00873219 0.01109994 0.01829952
v -0.00881071 0.01117085 0.01845190
v -0.00955664 0.01075248 0.01887456
v -0.00921044 0.01154314 0.01929388
v -0.00814330 0.01172396 0.01829952
v -0.00978148 0.01119213 0.01963534
v -0.01064519 0.01064256 0.02017256
v 0.01145420 0.01389030 0.02547914
v 0.01215730 0.01329819 0.02547914
v 0.01196100 0.01313510 0.02465162
v 0.01124720 0.01361729 0.02431460
v 0.01011582 0.01247917 0.02069532
v 0.01166477 0.01165305 0.02159625
v 0.01087245 0.01206079 0.02106681
v 0.01274976 0.01275572 0.02547914
v 0.01314592 0.01196861 0.02466496
v 0.01214302 0.01216007 0.02311003
v 0.01294962 0.01173814 0.02387637
v 0.01278902 0.01130913 0.02300325
v 0.01222511 0.01125949 0.02196441
v 0.01201097 0.01086239 0.02110241
v 0.00976962 0.01210688 0.01985890
v 0.00934848 0.01172751 0.01906809
v 0.00890592 0.01127367 0.01835736
v 0.00887023 0.01123467 0.01829952
v 0.00875959 0.01132331 0.01829952
v 0.00769245 0.01214943 0.01829952
v -0.01153744 0.01150059 0.02311003
v -0.01201212 0.00968526 0.02108461
v -0.01220842 0.01007882 0.02197108
v -0.01301145 0.00944416 0.02256725
v -0.01429987 0.00840177 0.02355271
v -0.01320061 0.00967108 0.02335806
v -0.01206209 0.01090848 0.02311003
v -0.01226553 0.01112831 0.02429347
v -0.01173374 0.01172042 0.02429347
v -0.01285798 0.01046174 0.02429347
v -0.01299004 0.01061065 0.02547914
v -0.01230835 0.01135877 0.02545578
v -0.01193718 0.01194024 0.02784935
v -0.01128761 0.01253235 0.02784935
v -0.01069516 0.01306064 0.02784935
v -0.01303287 0.01066029 0.02614315
v -0.01304714 0.01067802 0.02693285
v -0.01113771 0.01257490 0.02892491
v -0.01060236 0.01298618 0.02924635
v -0.01190505 0.01190479 0.02903391
v -0.01031327 0.01315992 0.02966233
v 0.01125790 0.01468805 0.02966233
v 0.01156127 0.01449305 0.02966233
v 0.01293891 0.01294364 0.02645014
v 0.01191104 0.01426613 0.02966233
v 0.01222511 0.01402149 0.02966233
v 0.01379905 0.01261390 0.02966233
v 0.01376336 0.01258199 0.02903391
v 0.01367770 0.01250044 0.02784935
v 0.01427730 0.01190833 0.02784935
v 0.01422376 0.01185515 0.02723984
v -0.00929610 0.01041919 0.01829952
v -0.01067374 0.00949026 0.01895241
v -0.01041320 0.01035892 0.01955414
v -0.01088788 0.00976681 0.01955414
v -0.01174802 0.00933425 0.02029491
v 0.01055838 0.01173460 0.02027711
v 0.01129359 0.01129849 0.02068976
v 0.01332080 0.01216361 0.02547914
v 0.01391326 0.01146159 0.02547914
v 0.01424518 0.01070284 0.02483180
v 0.01325299 0.01094748 0.02332692
v 0.01302100 0.01064966 0.02253722
v 0.01284969 0.01039792 0.02192437
v 0.01307097 0.00953280 0.02127147
v 0.01240713 0.01001145 0.02079209
v 0.01171117 0.01049365 0.02031159
v 0.01015508 0.01133750 0.01946739
v 0.01054410 0.01054683 0.01907588
v 0.00975535 0.01093685 0.01873886
v 0.00895232 0.01115667 0.01829952
v -0.01241186 0.00883787 0.02078764
v -0.01306499 0.00834149 0.02128148
v -0.01284371 0.00919243 0.02192437
v -0.01408216 0.00808267 0.02276300
v -0.01433556 0.00729201 0.02231254
v -0.01452115 0.00769265 0.02313895
v -0.01531347 0.00693036 0.02398426
v -0.01503509 0.00761820 0.02434463
v -0.01442122 0.00855423 0.02429347
v -0.01395367 0.00914634 0.02429347
v -0.01336122 0.00986963 0.02429347
v -0.01347899 0.01001854 0.02547914
v -0.01252963 0.01128077 0.02784935
v -0.01305071 0.01068511 0.02903391
v -0.01304357 0.01067447 0.02966233
v -0.01289367 0.01083402 0.02966233
v -0.01407145 0.00929525 0.02547914
v -0.01413212 0.00937325 0.02666369
v -0.01344687 0.01018873 0.02658805
v -0.01305785 0.01068866 0.02784935
v -0.01415354 0.00939807 0.02784935
v -0.01358606 0.01007173 0.02784935
v -0.01184081 0.01187642 0.02966233
v -0.01094856 0.01263163 0.02966233
v -0.01056667 0.01295427 0.02966233
v -0.01188007 0.01184096 0.02966233
v 0.01407386 0.01233380 0.02966233
v 0.01435225 0.01198988 0.02903391
v 0.01503036 0.01116022 0.02898608
v 0.01539440 0.01064611 0.02855897
v 0.01450572 0.01128077 0.02677269
v 0.01409171 0.01168851 0.02645014
v 0.01532659 0.01052911 0.02784935
v -0.00971724 0.00989800 0.01829952
v -0.01038822 0.00900806 0.01829952
v -0.01072014 0.00852586 0.01829952
v -0.01127334 0.00766784 0.01829952
v -0.01196216 0.00728491 0.01883229
v -0.01307569 0.00717500 0.02009136
v -0.01280802 0.00796566 0.02049178
v 0.01091885 0.01094394 0.01986558
v 0.01436652 0.01086948 0.02547914
v 0.01543009 0.00951862 0.02601302
v 0.01526235 0.00923143 0.02522332
v 0.01548720 0.00844077 0.02469388
v 0.01507319 0.00885560 0.02429681
v 0.01443077 0.01002918 0.02438023
v 0.01429514 0.00960726 0.02354492
v 0.01404174 0.01039792 0.02404210
v 0.01367413 0.01012846 0.02304107
v 0.01326726 0.00980581 0.02192437
v 0.01409885 0.00925270 0.02275522
v 0.01323157 0.00880242 0.02082212
v 0.01306740 0.00834858 0.02010360
v 0.01280686 0.00913924 0.02048177
v 0.01201454 0.00970299 0.01994232
v 0.01130430 0.01012491 0.01950854
v 0.01010154 0.01010364 0.01834290
v 0.01089743 0.00975617 0.01873664
v 0.01007656 0.01007527 0.01829952
v -0.01324701 0.00762174 0.02082768
v -0.01410714 0.00690554 0.02152173
v -0.01454613 0.00651198 0.02191992
v -0.01533488 0.00578869 0.02266624
v -0.01514216 0.00652616 0.02308111
v -0.01551691 0.00613970 0.02345705
v -0.01628425 0.00529231 0.02431127
v -0.01665185 0.00487039 0.02471835
v -0.01564896 0.00652616 0.02434463
v -0.01543839 0.00717146 0.02477508
v -0.01454613 0.00870314 0.02547914
v -0.01513859 0.00788057 0.02547914
v -0.01356822 0.01007173 0.02903391
v -0.01318276 0.01051138 0.02966233
v -0.01460680 0.00878114 0.02666369
v -0.01414283 0.00938389 0.02903391
v -0.01462108 0.00880596 0.02784935
v -0.01461751 0.00879178 0.02903391
v 0.01437723 0.01202179 0.02966233
v 0.01469131 0.01164950 0.02966233
v 0.01500895 0.01126304 0.02966233
v 0.01544437 0.01072057 0.02966233
v 0.01543009 0.01070284 0.02934868
v 0.01580841 0.01012137 0.02966233
v 0.01570848 0.01017810 0.02898608
v 0.01566208 0.00993700 0.02784935
v 0.01516241 0.01027737 0.02666369
v 0.01551932 0.00968172 0.02666369
v -0.01176229 0.00679208 0.01829952
v -0.01189792 0.00651553 0.01829952
v -0.01201926 0.00626025 0.01829952
v -0.01323273 0.00651553 0.01991007
v -0.01450687 0.00533131 0.02094669
v -0.01432128 0.00611488 0.02117915
v 0.01592262 0.00888751 0.02666369
v 0.01560141 0.00885560 0.02556255
v 0.01531232 0.00811458 0.02390529
v 0.01609036 0.00769975 0.02547914
v 0.01565851 0.00771393 0.02429681
v 0.01430585 0.00846204 0.02236593
v 0.01384902 0.00886978 0.02195217
v 0.01509817 0.00771393 0.02310669
v 0.01294248 0.00689136 0.01908144
v 0.01247494 0.00658998 0.01829952
v 0.01215373 0.00769975 0.01858426
v 0.01195029 0.00845495 0.01884341
v 0.01237858 0.00879532 0.01962755
v 0.01408457 0.00801530 0.02157623
v 0.01427730 0.00722464 0.02124255
v 0.01320659 0.00769975 0.01990784
v 0.01168619 0.00924207 0.01915151
v 0.01013723 0.01001145 0.01829952
v 0.01125077 0.00885915 0.01839518
v 0.01119366 0.00881305 0.01829952
v 0.01107945 0.00894424 0.01829952
v -0.01553118 0.00499803 0.02229697
v -0.01573105 0.00536676 0.02308111
v -0.01649839 0.00453001 0.02392865
v -0.01679819 0.00414000 0.02431127
v -0.01710512 0.00414709 0.02547914
v -0.01673751 0.00504766 0.02547914
v -0.01644485 0.00563977 0.02547914
v -0.01595946 0.00651553 0.02547914
v -0.01551334 0.00728491 0.02547914
v -0.01519926 0.00800112 0.02666369
v -0.01660902 0.00595533 0.02715419
v -0.01560256 0.00740901 0.02666369
v -0.01377522 0.00979517 0.02966233
v -0.01521354 0.00803657 0.02784935
v -0.01412499 0.00936262 0.02966233
v -0.01520997 0.00802594 0.02903391
v -0.01459967 0.00877051 0.02966233
v 0.01559427 0.01047592 0.02966233
v 0.01609393 0.00959308 0.02966233
v 0.01640800 0.00899388 0.02966233
v 0.01640087 0.00883787 0.02894826
v 0.01618673 0.00888751 0.02784935
v -0.01243327 0.00531713 0.01829952
v -0.01407145 0.00533131 0.02035497
v -0.01529206 0.00442719 0.02150616
v 0.01652221 0.00811103 0.02784935
v 0.01642228 0.00768556 0.02661586
v 0.01550504 0.00732746 0.02350043
v 0.01607966 0.00651553 0.02429347
v 0.01656147 0.00702609 0.02618875
v 0.01645797 0.00658289 0.02542908
v 0.01447716 0.00765011 0.02195217
v 0.01339932 0.00650489 0.01950743
v 0.01310309 0.00610424 0.01886566
v 0.01191461 0.00769975 0.01829952
v 0.01290679 0.00533131 0.01829952
v 0.01134356 0.00858614 0.01829952
v 0.01529447 0.00675663 0.02270962
v 0.01442006 0.00651553 0.02102121
v 0.01403104 0.00651553 0.02042838
v -0.01566680 0.00407618 0.02191102
v -0.01630566 0.00414000 0.02312894
v -0.01666970 0.00373935 0.02353714
v -0.01720148 0.00295933 0.02429347
v -0.01755839 0.00287423 0.02554587
v -0.01766902 0.00321461 0.02666369
v -0.01732640 0.00414709 0.02666369
v -0.01680175 0.00538095 0.02672153
v -0.01653051 0.00580996 0.02636449
v -0.01563825 0.00744447 0.02784935
v -0.01742276 0.00414709 0.02784935
v -0.01690168 0.00533131 0.02784935
v -0.01660546 0.00595178 0.02784935
v -0.01623071 0.00654389 0.02784935
v -0.01519212 0.00799403 0.02966233
v -0.01487805 0.00840886 0.02966233
v -0.01562041 0.00743383 0.02903391
v 0.01655077 0.00869250 0.02966233
v 0.01663999 0.00841240 0.02928528
v 0.01657932 0.00827413 0.02849558
v -0.01272950 0.00414709 0.01829952
v -0.01446404 0.00295933 0.01990228
v -0.01505650 0.00295933 0.02057853
v -0.01432485 0.00386699 0.02002463
v -0.01419280 0.00465765 0.02018146
v -0.01543125 0.00363653 0.02129371
v 0.01675063 0.00751892 0.02784935
v 0.01665070 0.00728137 0.02697846
v 0.01559427 0.00642334 0.02310669
v 0.01585124 0.00533131 0.02311003
v 0.01668282 0.00623543 0.02579057
v 0.01655077 0.00570359 0.02499975
v 0.01638659 0.00531713 0.02435576
v 0.01678989 0.00658289 0.02661586
v 0.01417023 0.00576387 0.02021705
v 0.01429514 0.00497675 0.02004799
v 0.01398107 0.00414709 0.01927052
v 0.01304955 0.00481366 0.01829952
v 0.01541582 0.00596951 0.02249161
v 0.01502679 0.00642334 0.02202781
v 0.01456639 0.00535613 0.02066307
v -0.01648411 0.00295933 0.02272519
v -0.01679819 0.00295933 0.02331802
v -0.01752626 0.00172901 0.02437466
v -0.01780108 0.00130355 0.02482402
v -0.01771185 0.00209421 0.02519440
v -0.01779037 0.00242395 0.02598521
v -0.01785105 0.00262250 0.02666369
v -0.01791529 0.00279623 0.02784935
v -0.01771899 0.00338834 0.02784935
v -0.01740135 0.00414709 0.02903391
v -0.01682317 0.00542349 0.02894493
v -0.01659475 0.00593051 0.02849113
v -0.01559899 0.00740192 0.02966233
v -0.01627354 0.00640207 0.02894493
v 0.01666140 0.00845495 0.02966233
v 0.01680417 0.00812521 0.02966233
v 0.01684342 0.00780611 0.02894826
v -0.01381091 -0.00062879 0.01829952
v -0.01560613 0.00177511 0.02105680
v -0.01551334 0.00295933 0.02117136
v -0.01398936 -0.00177755 0.01829952
v -0.01600229 0.00295933 0.02192437
v 0.01730740 0.00651553 0.02903391
v 0.01706471 0.00651553 0.02784935
v 0.01605467 0.00414709 0.02311003
v 0.01559427 0.00414709 0.02212012
v 0.01530875 0.00414709 0.02152729
v 0.01548363 0.00533131 0.02235814
v 0.01675420 0.00531713 0.02542908
v 0.01708969 0.00533131 0.02666369
v 0.01662215 0.00491648 0.02479176
v 0.01645440 0.00414709 0.02407769
v 0.01780706 0.00488457 0.02948103
v 0.01440935 0.00414709 0.01986335
v 0.01411312 0.00295933 0.01910591
v 0.01347427 0.00299833 0.01829952
v 0.01344215 0.00314015 0.01829952
v 0.01321373 0.00414709 0.01829952
v 0.01519097 0.00533131 0.02176531
v 0.01490545 0.00414709 0.02073981
v -0.01656263 0.00223958 0.02256391
v -0.01688741 0.00181765 0.02301882
v -0.01781535 0.00059089 0.02479176
v -0.01801879 0.00059089 0.02547914
v -0.01827933 0.00059089 0.02666369
v -0.01787246 0.00172901 0.02554587
v -0.01664472 0.00144892 0.02243823
v -0.01754768 0.00059089 0.02419893
v -0.01807946 0.00177511 0.02666369
v -0.01822222 0.00177511 0.02784935
v -0.01791886 0.00277496 0.02903391
v -0.01770472 0.00336707 0.02903391
v -0.01735495 0.00414709 0.02966233
v -0.01710155 0.00470729 0.02966233
v -0.01682674 0.00529940 0.02966233
v -0.01667327 0.00560432 0.02966233
v -0.01656263 0.00587733 0.02928083
v -0.01637704 0.00613615 0.02966233
v -0.01588094 0.00694809 0.02966233
v -0.01617718 0.00646589 0.02966233
v 0.01695407 0.00774938 0.02966233
v 0.01719319 0.00708282 0.02966233
v -0.01401078 -0.00207538 0.01829952
v 0.01738948 0.00651553 0.02966233
v 0.01752154 0.00605815 0.02966233
v 0.01566922 0.00295933 0.02196552
v 0.01616888 0.00295933 0.02311003
v 0.01507319 0.00295933 0.02073981
v 0.01538369 0.00295933 0.02137269
v 0.01725030 0.00414709 0.02666369
v 0.01691838 0.00414709 0.02547914
v 0.01753939 0.00414709 0.02784935
v 0.01666498 0.00414709 0.02466941
v 0.01649723 0.00295933 0.02394200
v 0.01671851 0.00295933 0.02453261
v 0.01782134 0.00492711 0.02966233
v 0.01785346 0.00470374 0.02966233
v 0.01791770 0.00414709 0.02966233
v 0.01785703 0.00414709 0.02925080
v 0.01772498 0.00414709 0.02865797
v 0.01449858 0.00295933 0.01969874
v 0.01362060 0.00177511 0.01836959
v 0.01356349 0.00186729 0.01829952
v 0.01414167 0.00177511 0.01907699
v -0.01780822 -0.00058978 0.02481067
v -0.01801879 -0.00058978 0.02547914
v -0.01832573 -0.00058978 0.02666369
v -0.01842566 0.00059089 0.02784935
v -0.01664115 0.00059089 0.02243934
v -0.01700876 0.00059089 0.02311003
v -0.01751556 -0.00058978 0.02421895
v -0.01820438 0.00177511 0.02903391
v -0.01788317 0.00268277 0.02966233
v -0.01768330 0.00327488 0.02966233
v -0.01801879 0.00221476 0.02966233
v -0.01749771 0.00377835 0.02966233
v -0.01654478 0.00584542 0.02966233
v -0.01396438 -0.00335178 0.01829952
v 0.01565137 0.00187438 0.02180758
v 0.01540511 0.00233531 0.02133375
v 0.01624383 0.00177511 0.02311003
v 0.01653649 0.00177511 0.02384301
v 0.01516599 0.00187438 0.02084770
v 0.01733952 0.00295933 0.02666369
v 0.01701831 0.00295933 0.02547914
v 0.01776423 0.00342734 0.02848112
v 0.01765716 0.00300542 0.02792387
v 0.01675063 0.00177511 0.02443473
v 0.01799265 0.00298060 0.02966233
v 0.01788915 0.00300542 0.02893937
v 0.01451285 0.00177511 0.01966982
v 0.01357420 0.00070789 0.01829952
v 0.01356706 0.00177511 0.01829952
v 0.01413811 0.00059089 0.01908589
v 0.01357420 0.00059089 0.01829952
v -0.01779037 -0.00128472 0.02485071
v -0.01821509 -0.00177755 0.02666369
v -0.01837212 -0.00177755 0.02784935
v -0.01846849 -0.00058978 0.02784935
v -0.01844707 -0.00058978 0.02903391
v -0.01839711 0.00059089 0.02903391
v -0.01686600 -0.00054369 0.02302772
v -0.01821152 0.00121845 0.02966233
v -0.01811872 0.00177511 0.02966233
v -0.01319704 -0.00597195 0.01829952
v -0.01683031 -0.00404671 0.02429125
v -0.01714438 -0.00296177 0.02429347
v -0.01746559 -0.00171727 0.02439024
v 0.01629380 0.00059089 0.02311003
v 0.01575131 0.00059089 0.02192437
v 0.01655791 0.00059089 0.02379296
v 0.01542295 0.00059089 0.02129928
v 0.01510174 0.00059089 0.02070644
v 0.01705400 0.00177511 0.02547914
v 0.01779279 0.00264022 0.02836766
v 0.01676491 0.00059089 0.02438356
v 0.01783205 -0.00280576 0.02966233
v 0.01781420 -0.00264976 0.02925858
v 0.01776066 -0.00177755 0.02862571
v 0.01779279 0.00219703 0.02836766
v 0.01450928 0.00059089 0.01967872
v 0.01410242 -0.00058978 0.01914706
v 0.01352780 -0.00058978 0.01829952
v -0.01771899 -0.00207183 0.02506315
v -0.01790101 -0.00171727 0.02546579
v -0.01817940 -0.00296177 0.02784935
v -0.01783677 -0.00271358 0.02585285
v -0.01776539 -0.00350424 0.02610867
v -0.01795812 -0.00305041 0.02656804
v -0.01783677 -0.00414599 0.02698402
v -0.01777610 -0.00474164 0.02725096
v -0.01820081 -0.00296177 0.02903391
v -0.01836855 -0.00177755 0.02903391
v -0.01832216 -0.00177755 0.02966233
v -0.01838283 -0.00058978 0.02966233
v -0.01831145 0.00059089 0.02966233
v -0.01282229 -0.00691507 0.01829952
v -0.01671967 -0.00500401 0.02468499
v -0.01738707 -0.00414599 0.02547914
v 0.01627238 -0.00058978 0.02311003
v 0.01655433 -0.00058978 0.02379518
v 0.01566208 -0.00056851 0.02182982
v 0.01541939 -0.00016077 0.02130595
v 0.01677561 -0.00058978 0.02438690
v 0.01710040 -0.00058978 0.02547914
v 0.01775353 -0.00337305 0.02966233
v 0.01771784 -0.00301141 0.02893158
v 0.01752154 -0.00296177 0.02784935
v 0.01762861 -0.00177755 0.02784935
v 0.01737164 -0.00177755 0.02666369
v 0.01447003 -0.00058978 0.01973989
v 0.01403460 -0.00177755 0.01925384
v 0.01339932 -0.00179173 0.01829952
v 0.01440578 -0.00177755 0.01984667
v -0.01765475 -0.00305041 0.02546579
v -0.01795455 -0.00414599 0.02784935
v -0.01799381 -0.00414599 0.02903391
v -0.01769044 -0.00414599 0.02639230
v -0.01780108 -0.00482673 0.02784935
v -0.01746559 -0.00521320 0.02677936
v -0.01667684 -0.00730508 0.02696622
v -0.01720862 -0.00651442 0.02784935
v -0.01734425 -0.00651442 0.02903391
v -0.01806875 -0.00351842 0.02966233
v -0.01816512 -0.00296177 0.02966233
v -0.01185866 -0.00817375 0.01829952
v -0.01427845 -0.01074074 0.02596630
v -0.01451758 -0.01005290 0.02553475
v -0.01532775 -0.00935442 0.02625994
v -0.01556330 -0.00856376 0.02579502
v -0.01655192 -0.00702853 0.02617541
v -0.01671967 -0.00624141 0.02579946
v -0.01691953 -0.00537275 0.02543465
v 0.01615104 -0.00177755 0.02311003
v 0.01564424 -0.00177755 0.02204115
v 0.01675420 -0.00177755 0.02449145
v 0.01650080 -0.00177755 0.02389973
v 0.01534444 -0.00177755 0.02144943
v 0.01538369 -0.00094789 0.02137157
v 0.01511959 -0.00056851 0.02084214
v 0.01707541 -0.00177755 0.02547914
v 0.01761433 -0.00412117 0.02966233
v 0.01752868 -0.00414599 0.02903391
v 0.01730026 -0.00414599 0.02784935
v 0.01702901 -0.00414599 0.02666369
v 0.01724673 -0.00296177 0.02666369
v 0.01493757 -0.00177755 0.02073981
v 0.01395252 -0.00296177 0.01938063
v 0.01432726 -0.00296177 0.01997347
v 0.01337790 -0.00194419 0.01829952
v 0.01478767 -0.00296177 0.02073981
v -0.01782249 -0.00491183 0.02903391
v -0.01780822 -0.00487283 0.02966233
v -0.01794741 -0.00419208 0.02966233
v -0.01765475 -0.00550394 0.02903391
v -0.01686957 -0.00658888 0.02660808
v -0.01679105 -0.00754264 0.02784935
v -0.01636990 -0.00770219 0.02660808
v -0.01651623 -0.00813475 0.02784935
v -0.01658404 -0.00828366 0.02850114
v -0.01683387 -0.00781210 0.02895160
v -0.01687670 -0.00775183 0.02966233
v -0.01734425 -0.00651442 0.02966233
v -0.01158741 -0.01275107 0.02429347
v -0.01180512 -0.01298862 0.02495526
v -0.01212633 -0.01215896 0.02429347
v -0.01295435 -0.01174768 0.02502756
v -0.01014909 -0.01001390 0.01829952
v -0.01317563 -0.01202069 0.02581837
v -0.01397866 -0.01154913 0.02666369
v -0.01444620 -0.01095702 0.02666369
v -0.01506721 -0.01003162 0.02665813
v -0.01548121 -0.00961325 0.02705075
v -0.01572748 -0.00892895 0.02665813
v 0.01598329 -0.00296177 0.02311003
v 0.01555858 -0.00296177 0.02218686
v 0.01527306 -0.00296177 0.02159514
v 0.01666140 -0.00296177 0.02472058
v 0.01641871 -0.00296177 0.02412774
v 0.01691838 -0.00296177 0.02547914
v 0.01747157 -0.00477355 0.02966233
v 0.01725743 -0.00533020 0.02903391
v 0.01702901 -0.00533020 0.02784935
v 0.01675063 -0.00535148 0.02664700
v 0.01664713 -0.00496856 0.02590735
v 0.01671137 -0.00404316 0.02549916
v 0.01389541 -0.00416017 0.01963200
v 0.01336006 -0.00296177 0.01849305
v 0.01425945 -0.00377370 0.02007913
v 0.01326013 -0.00274549 0.01829952
v 0.01451999 -0.00416017 0.02065639
v -0.01766189 -0.00539403 0.02966233
v -0.01611650 -0.00888641 0.02784935
v -0.01559899 -0.00980471 0.02784935
v -0.01566324 -0.01013444 0.02913623
v -0.01636990 -0.00880840 0.02895160
v -0.01661973 -0.00835812 0.02929084
v -0.01673751 -0.00809575 0.02966233
v -0.01099495 -0.01338218 0.02429347
v -0.01204781 -0.01322972 0.02574608
v -0.01250108 -0.01250288 0.02538682
v -0.01043462 -0.01397429 0.02429347
v -0.01064162 -0.01419412 0.02493191
v -0.00772930 -0.01246034 0.01829952
v -0.00845024 -0.01202423 0.01869993
v -0.00932108 -0.01404875 0.02274298
v -0.00959233 -0.01432885 0.02353380
v -0.01338620 -0.01225824 0.02666369
v -0.01287226 -0.01285389 0.02666369
v -0.01414997 -0.01176895 0.02758130
v -0.01301859 -0.01301699 0.02733883
v -0.01524566 -0.01039682 0.02784935
v 0.01569777 -0.00420981 0.02302105
v 0.01548006 -0.00385525 0.02235592
v 0.01519454 -0.00420981 0.02194661
v 0.01659716 -0.00358224 0.02486962
v 0.01631164 -0.00404316 0.02440136
v 0.01734309 -0.00533020 0.02966233
v 0.01692194 -0.00651442 0.02903391
v 0.01661858 -0.00718099 0.02827757
v 0.01654720 -0.00693635 0.02748787
v 0.01664356 -0.00614568 0.02703073
v 0.01654720 -0.00575922 0.02624103
v 0.01608322 -0.00651442 0.02547914
v 0.01639730 -0.00535148 0.02549916
v 0.01650437 -0.00436936 0.02511765
v 0.01418450 -0.00456436 0.02020593
v 0.01347784 -0.00545075 0.01943624
v 0.01324585 -0.00414599 0.01865655
v 0.01310666 -0.00358933 0.01829952
v 0.01322444 -0.00296177 0.01829952
v 0.01410599 -0.00533020 0.02036498
v -0.01534202 -0.01057055 0.02880923
v -0.01540983 -0.01066983 0.02959893
v -0.01635919 -0.00889704 0.02966233
v -0.01651266 -0.00860276 0.02966233
v -0.01661973 -0.00836521 0.02966233
v -0.01227980 -0.01344600 0.02666369
v -0.01084505 -0.01438203 0.02572161
v -0.00984216 -0.01452031 0.02429347
v -0.00831819 -0.01542088 0.02366616
v -0.00908196 -0.01511242 0.02429347
v -0.01009556 -0.01484296 0.02544021
v -0.00714755 -0.01425439 0.02009581
v -0.00738667 -0.01448131 0.02073981
v -0.00852876 -0.01443167 0.02220465
v -0.00649085 -0.01357719 0.01829952
v -0.00805408 -0.01522233 0.02287645
v -0.00699051 -0.01532160 0.02149058
v -0.01423206 -0.01186468 0.02837211
v -0.01457468 -0.01132575 0.02792499
v -0.01165522 -0.01404166 0.02666369
v -0.01180512 -0.01417993 0.02743448
v -0.01190505 -0.01426503 0.02822418
v -0.01309354 -0.01309854 0.02812964
v -0.01429630 -0.01193914 0.02903391
v 0.01556572 -0.00533020 0.02334917
v 0.01538013 -0.00464591 0.02256613
v 0.01489474 -0.00533020 0.02192437
v 0.01441292 -0.00533020 0.02095781
v 0.01595117 -0.00533020 0.02429347
v 0.01699689 -0.00651442 0.02966233
v 0.01667211 -0.00730508 0.02903391
v 0.01641514 -0.00789719 0.02903391
v 0.01636518 -0.00762773 0.02786938
v 0.01610107 -0.00770219 0.02666369
v 0.01645083 -0.00653215 0.02664700
v 0.01568349 -0.00776601 0.02540906
v 0.01550504 -0.00741500 0.02463160
v 0.01561925 -0.00651442 0.02425899
v 0.01303528 -0.00592231 0.01896242
v 0.01313521 -0.00513165 0.01881894
v 0.01299602 -0.00414599 0.01829952
v 0.01394538 -0.00653924 0.02075983
v 0.01332794 -0.00651442 0.01972432
v 0.01429871 -0.00615632 0.02116803
v -0.01495657 -0.01114139 0.02913623
v -0.01537058 -0.01071946 0.02966233
v -0.01540983 -0.01066983 0.02966233
v -0.01543839 -0.01062019 0.02966233
v -0.01432485 -0.01197105 0.02966233
v -0.01032041 -0.01516205 0.02666369
v -0.01106276 -0.01456995 0.02666369
v -0.00954950 -0.01544570 0.02594851
v -0.00932108 -0.01530388 0.02515881
v -0.00726532 -0.01550598 0.02228140
v -0.00767576 -0.01564071 0.02320680
v -0.00613394 -0.01670792 0.02341034
v -0.00692627 -0.01646682 0.02409438
v -0.00538445 -0.01428630 0.01829952
v -0.00600903 -0.01427921 0.01887122
v -0.00656223 -0.01509469 0.02069310
v -0.00620176 -0.01556270 0.02105792
v -0.00656223 -0.01576835 0.02190101
v -0.00652297 -0.01631082 0.02305331
v -0.01134829 -0.01463377 0.02783712
v -0.01194431 -0.01429694 0.02903391
v -0.01253677 -0.01375801 0.02903391
v -0.01316492 -0.01316590 0.02903391
v -0.01050600 -0.01529679 0.02784935
v -0.01057738 -0.01534997 0.02903391
v -0.01125549 -0.01483232 0.02903391
v -0.01375738 -0.01253125 0.02903391
v 0.01545865 -0.00612087 0.02357829
v 0.01529447 -0.00533020 0.02275744
v 0.01670424 -0.00739372 0.02966233
v 0.01645797 -0.00798938 0.02966233
v 0.01595831 -0.00888641 0.02903391
v 0.01572275 -0.00898923 0.02777261
v 0.01564780 -0.00873040 0.02666369
v 0.01552289 -0.00850348 0.02575831
v 0.01537299 -0.00820566 0.02496750
v 0.01523023 -0.00776601 0.02425899
v 0.01534444 -0.00691153 0.02384301
v 0.01291393 -0.00651442 0.01913149
v 0.01196100 -0.00739018 0.01829952
v 0.01229292 -0.00656761 0.01829952
v 0.01267838 -0.00543657 0.01829952
v 0.01270336 -0.00534439 0.01829952
v 0.01292464 -0.00445445 0.01829952
v 0.01416309 -0.00694698 0.02144276
v 0.01341360 -0.00773410 0.02068197
v 0.01314949 -0.00736181 0.01997792
v 0.01207878 -0.00770219 0.01864655
v 0.01514457 -0.00651442 0.02315341
v 0.01451642 -0.00653924 0.02187320
v -0.01348970 -0.01286098 0.02966233
v -0.00972795 -0.01555207 0.02666369
v -0.00652297 -0.01677174 0.02441137
v -0.00710829 -0.01659092 0.02488408
v -0.00580559 -0.01654128 0.02261953
v -0.00537731 -0.01684975 0.02305331
v -0.00533091 -0.01719721 0.02429347
v -0.00517388 -0.01441394 0.01829952
v -0.00578775 -0.01532870 0.02026821
v -0.00536660 -0.01577898 0.02069310
v -0.00537731 -0.01638173 0.02189656
v -0.01125549 -0.01482877 0.02966233
v -0.01194074 -0.01429339 0.02966233
v -0.01225482 -0.01401684 0.02966233
v -0.01253320 -0.01376510 0.02966233
v -0.01317563 -0.01317299 0.02966233
v -0.00991354 -0.01566553 0.02784935
v -0.00998492 -0.01570807 0.02966233
v -0.01057738 -0.01534643 0.02966233
v -0.00998492 -0.01570453 0.02903391
v 0.01602969 -0.00888641 0.02966233
v 0.01553716 -0.00971607 0.02903391
v 0.01546935 -0.00959552 0.02811629
v 0.01539083 -0.00945370 0.02732659
v 0.01531588 -0.00932251 0.02666369
v 0.01452713 -0.01012026 0.02549026
v 0.01518740 -0.00889350 0.02540906
v 0.01435225 -0.00970189 0.02429347
v 0.01423090 -0.00949979 0.02367839
v 0.01437009 -0.00888641 0.02339922
v 0.01462349 -0.00780855 0.02299992
v 0.01182895 -0.00770219 0.01829952
v 0.01436295 -0.00748591 0.02223357
v 0.01421306 -0.00827657 0.02253166
v 0.01405245 -0.00780855 0.02187320
v 0.01321373 -0.00867013 0.02103901
v 0.01296747 -0.00814893 0.02024931
v 0.01191817 -0.00843257 0.01886900
v -0.00724748 -0.01666892 0.02547914
v -0.00811832 -0.01648101 0.02666369
v -0.00826822 -0.01657674 0.02746118
v -0.00651583 -0.01698802 0.02547914
v -0.00752586 -0.01680011 0.02666369
v -0.00455287 -0.01652710 0.02148168
v -0.00501327 -0.01668665 0.02227250
v -0.00415314 -0.01680365 0.02189656
v -0.00414600 -0.01720076 0.02311003
v -0.00460640 -0.01773968 0.02632890
v -0.00533091 -0.01739576 0.02547914
v -0.00651583 -0.01720076 0.02666369
v -0.00414600 -0.01748794 0.02429347
v -0.00381408 -0.01783896 0.02574274
v -0.00423522 -0.01483586 0.01829952
v -0.00443152 -0.01529324 0.01914038
v -0.00499543 -0.01553434 0.01993009
v -0.00415314 -0.01632145 0.02076539
v -0.00877859 -0.01631437 0.02785380
v -0.00943886 -0.01602363 0.02966233
v -0.00893920 -0.01630018 0.02903391
v 0.01556928 -0.00976571 0.02966233
v 0.01540868 -0.01004581 0.02966233
v 0.01519454 -0.01030818 0.02903391
v 0.01514100 -0.01002099 0.02777261
v 0.01487333 -0.01007062 0.02666369
v 0.01427730 -0.01074783 0.02589178
v 0.01414524 -0.01054573 0.02510208
v 0.01399178 -0.01029400 0.02429347
v 0.01303171 -0.01065919 0.02252276
v 0.01324228 -0.00986853 0.02213792
v 0.01407386 -0.00888641 0.02280638
v 0.01172902 -0.00792201 0.01829952
v 0.01349925 -0.00899277 0.02181536
v 0.01302457 -0.00946079 0.02134710
v 0.01283184 -0.00899277 0.02068197
v 0.01216801 -0.00885095 0.01955192
v 0.01171117 -0.00922324 0.01915484
v 0.01124363 -0.00892186 0.01829952
v -0.00780425 -0.01681784 0.02785380
v -0.00831462 -0.01660155 0.02825199
v -0.00651583 -0.01734258 0.02784935
v -0.00376411 -0.01665828 0.02117804
v -0.00296108 -0.01710857 0.02192437
v -0.00296108 -0.01746667 0.02311003
v -0.00232223 -0.01776805 0.02372622
v -0.00418526 -0.01789569 0.02670039
v -0.00479913 -0.01779286 0.02711860
v -0.00524883 -0.01760140 0.02670039
v -0.00296108 -0.01818288 0.02666369
v -0.00554506 -0.01766168 0.02784935
v -0.00304674 -0.01771132 0.02419003
v -0.00304674 -0.01795241 0.02540016
v -0.00409246 -0.01488905 0.01829952
v -0.00364277 -0.01543506 0.01891237
v -0.00408176 -0.01566553 0.01954302
v -0.00296108 -0.01649164 0.02034496
v -0.00894633 -0.01630018 0.02966233
v -0.00834674 -0.01661574 0.02903391
v -0.00835388 -0.01662283 0.02966233
v 0.01522309 -0.01035782 0.02966233
v 0.01460208 -0.01120166 0.02903391
v 0.01449501 -0.01107047 0.02784935
v 0.01437009 -0.01088610 0.02666369
v 0.01395252 -0.01147821 0.02666369
v 0.01319232 -0.01206678 0.02547914
v 0.01382760 -0.01118748 0.02549026
v 0.01307097 -0.01190014 0.02478731
v 0.01334935 -0.01127966 0.02435242
v 0.01319945 -0.01090029 0.02331246
v 0.01201454 -0.01092156 0.02105792
v 0.01288895 -0.01018763 0.02181536
v 0.01279258 -0.01127966 0.02299435
v 0.01195743 -0.01198168 0.02230698
v 0.01174329 -0.01170868 0.02151728
v 0.01198242 -0.00973380 0.01994455
v 0.01177184 -0.01052446 0.02026710
v 0.01149703 -0.01010608 0.01955192
v 0.01087602 -0.01007062 0.01867880
v 0.01076538 -0.00977634 0.01829952
v -0.00770075 -0.01691357 0.02903391
v -0.00651583 -0.01739931 0.02903391
v -0.00566283 -0.01769713 0.02903391
v -0.00296108 -0.01675401 0.02093668
v -0.00177617 -0.01733194 0.02192437
v -0.00270768 -0.01784960 0.02451592
v -0.00186896 -0.01766877 0.02313227
v -0.00153347 -0.01781414 0.02354159
v -0.00059125 -0.01809069 0.02429347
v -0.00186896 -0.01792050 0.02419003
v -0.00177617 -0.01819706 0.02547914
v -0.00414600 -0.01803751 0.02784935
v -0.00495260 -0.01783896 0.02784935
v -0.00296108 -0.01828570 0.02784935
v -0.00177617 -0.01837079 0.02666369
v -0.00296108 -0.01522942 0.01829952
v -0.00296108 -0.01552725 0.01876889
v -0.00296108 -0.01602008 0.01955414
v -0.00226869 -0.01658028 0.02016922
v -0.00770075 -0.01691711 0.02966233
v 0.01458780 -0.01128675 0.02966233
v 0.01420235 -0.01182568 0.02966233
v 0.01417737 -0.01179377 0.02903391
v 0.01408457 -0.01166258 0.02784935
v 0.01336006 -0.01227597 0.02666369
v 0.01273191 -0.01265889 0.02547914
v 0.01292107 -0.01169095 0.02399650
v 0.01244639 -0.01244615 0.02428791
v 0.01151487 -0.01129030 0.02069310
v 0.01213945 -0.01221569 0.02311003
v 0.01181110 -0.01299572 0.02378962
v 0.01163622 -0.01280780 0.02311003
v 0.01127932 -0.01245679 0.02189989
v 0.01089743 -0.01208451 0.02073981
v 0.01068686 -0.01187177 0.02012028
v 0.01088316 -0.01115557 0.01965759
v 0.01068686 -0.01069464 0.01893017
v 0.01047986 -0.01023018 0.01829952
v -0.00651583 -0.01738513 0.02966233
v -0.00507037 -0.01787087 0.02903391
v -0.00561644 -0.01768295 0.02966233
v -0.00183684 -0.01682847 0.02063415
v -0.00059125 -0.01746313 0.02192437
v -0.00059125 -0.01770777 0.02277635
v -0.00059125 -0.01786378 0.02336918
v 0.00059010 -0.01812260 0.02429347
v -0.00059125 -0.01832115 0.02547914
v -0.00414600 -0.01810133 0.02903391
v -0.00177617 -0.01845588 0.02784935
v -0.00296108 -0.01832824 0.02903391
v -0.00059125 -0.01844525 0.02666369
v -0.00177617 -0.01550598 0.01829952
v -0.00177617 -0.01566553 0.01855089
v -0.00063765 -0.01569744 0.01829952
v -0.00056627 -0.01570807 0.01829952
v -0.00059125 -0.01634628 0.01943069
v -0.00147994 -0.01661928 0.02008691
v -0.00059125 -0.01699866 0.02073981
v 0.01362060 -0.01244261 0.02903391
v 0.01308524 -0.01308435 0.02966233
v 0.01307097 -0.01307372 0.02903391
v 0.01304242 -0.01304535 0.02838101
v 0.01340646 -0.01252416 0.02793055
v 0.01289609 -0.01287162 0.02666369
v 0.01213945 -0.01330773 0.02547914
v 0.01197171 -0.01315881 0.02457821
v 0.01129003 -0.01365519 0.02422006
v 0.01058336 -0.01415157 0.02386303
v 0.01104376 -0.01338218 0.02311003
v 0.01081535 -0.01317299 0.02228251
v 0.01055838 -0.01293190 0.02149281
v 0.01012652 -0.01274753 0.02062525
v 0.00947339 -0.01303117 0.02015365
v 0.00999090 -0.01213769 0.01965759
v 0.00954121 -0.01191786 0.01889347
v 0.00978033 -0.01115202 0.01829952
v 0.00993737 -0.01095702 0.01829952
v -0.00458142 -0.01797724 0.02966233
v -0.00502398 -0.01785668 0.02966233
v 0.00059010 -0.01702348 0.02073981
v 0.00059010 -0.01746667 0.02192437
v 0.00059010 -0.01770423 0.02275855
v 0.00059010 -0.01787087 0.02335139
v 0.00177501 -0.01803042 0.02429347
v 0.00059010 -0.01832824 0.02547914
v -0.00296108 -0.01832115 0.02966233
v -0.00351785 -0.01821124 0.02966233
v -0.00414600 -0.01808360 0.02966233
v -0.00059125 -0.01850907 0.02784935
v -0.00177617 -0.01847716 0.02903391
v 0.00059010 -0.01840270 0.02666369
v 0.00059010 -0.01580026 0.01829952
v -0.00059125 -0.01665119 0.02002241
v 0.00059010 -0.01637109 0.01939509
v 0.00059010 -0.01666892 0.01998792
v 0.01238215 -0.01371547 0.02966233
v 0.01244282 -0.01363037 0.02903391
v 0.01180397 -0.01418348 0.02903391
v 0.01172545 -0.01412321 0.02784935
v 0.01252491 -0.01343537 0.02793055
v 0.01230363 -0.01343891 0.02666369
v 0.01297817 -0.01297090 0.02759131
v 0.01148632 -0.01389983 0.02547914
v 0.01077252 -0.01431112 0.02465162
v 0.00978747 -0.01445294 0.02311003
v 0.00957689 -0.01429339 0.02235036
v 0.01037993 -0.01397429 0.02311003
v 0.01006942 -0.01363392 0.02192214
v 0.00931993 -0.01409484 0.02156066
v 0.00976605 -0.01330418 0.02094335
v 0.00900228 -0.01371901 0.02060968
v 0.00816356 -0.01413384 0.02027600
v 0.00859898 -0.01327582 0.01955414
v 0.00831346 -0.01304890 0.01894685
v 0.00858114 -0.01229369 0.01829952
v 0.00875245 -0.01213769 0.01829952
v 0.00144666 -0.01664410 0.02004020
v 0.00181427 -0.01683202 0.02066307
v 0.00177501 -0.01730003 0.02192437
v 0.00289212 -0.01757659 0.02320791
v 0.00245313 -0.01778577 0.02366949
v 0.00177501 -0.01782123 0.02353936
v 0.00289212 -0.01788859 0.02427567
v 0.00295993 -0.01809424 0.02547914
v 0.00177501 -0.01823251 0.02547914
v -0.00177617 -0.01844880 0.02966233
v 0.00059010 -0.01844880 0.02784935
v -0.00059125 -0.01852680 0.02903391
v 0.00295993 -0.01827861 0.02784935
v 0.00177501 -0.01578253 0.01829952
v 0.01182895 -0.01420475 0.02966233
v 0.01121151 -0.01460540 0.02903391
v 0.01113299 -0.01456995 0.02784935
v 0.01102235 -0.01449549 0.02666369
v 0.01161481 -0.01403102 0.02666369
v 0.01089386 -0.01440330 0.02547914
v 0.00997663 -0.01505569 0.02550472
v 0.00941272 -0.01536770 0.02512655
v 0.00924498 -0.01525778 0.02429347
v 0.01014080 -0.01463022 0.02427122
v 0.00885595 -0.01507696 0.02308890
v 0.00890949 -0.01455576 0.02194327
v 0.00853117 -0.01437849 0.02106681
v 0.00774242 -0.01464440 0.02069866
v 0.00737124 -0.01438203 0.01992675
v 0.00774242 -0.01385729 0.01954080
v 0.00741764 -0.01313045 0.01829952
v 0.00283501 -0.01558043 0.01829952
v 0.00295993 -0.01649519 0.02035608
v 0.00295993 -0.01675047 0.02094780
v 0.00295993 -0.01712984 0.02192437
v 0.00324188 -0.01773259 0.02386970
v 0.00372013 -0.01782832 0.02465940
v 0.00391642 -0.01789214 0.02547914
v 0.00414484 -0.01806233 0.02784935
v 0.00295993 -0.01819351 0.02666369
v -0.00114802 -0.01847361 0.02966233
v 0.00059010 -0.01846298 0.02903391
v 0.00059010 -0.01843816 0.02966233
v 0.00003333 -0.01846652 0.02966233
v -0.00059125 -0.01849489 0.02966233
v 0.00295993 -0.01828570 0.02903391
v 0.00414484 -0.01807296 0.02903391
v 0.01089386 -0.01484296 0.02966233
v 0.01034424 -0.01519751 0.02903391
v 0.01029427 -0.01516205 0.02784935
v 0.01018720 -0.01508760 0.02666369
v 0.00951622 -0.01542797 0.02591625
v 0.00896659 -0.01568680 0.02550472
v 0.00865252 -0.01560880 0.02429347
v 0.00844195 -0.01549534 0.02347040
v 0.00817784 -0.01533579 0.02268070
v 0.00774955 -0.01521878 0.02181425
v 0.00709286 -0.01539961 0.02134599
v 0.00411272 -0.01502732 0.01829952
v 0.00526908 -0.01442812 0.01829952
v 0.00549750 -0.01430403 0.01829952
v 0.00579373 -0.01414093 0.01829952
v 0.00297777 -0.01552725 0.01829952
v 0.00370585 -0.01667956 0.02114578
v 0.00414484 -0.01721494 0.02311003
v 0.00450888 -0.01769004 0.02547914
v 0.00412700 -0.01756949 0.02427567
v 0.00680020 -0.01648101 0.02429347
v 0.00465878 -0.01774677 0.02629108
v 0.00478013 -0.01779641 0.02708078
v 0.00421622 -0.01792760 0.02667704
v 0.00485865 -0.01783187 0.02784935
v 0.00487649 -0.01783896 0.02903391
v 0.00295993 -0.01822542 0.02966233
v 0.00465521 -0.01786378 0.02966233
v 0.00417696 -0.01799142 0.02966233
v 0.01034424 -0.01519751 0.02966233
v 0.00975178 -0.01558398 0.02903391
v 0.00970181 -0.01554498 0.02784935
v 0.00959474 -0.01547761 0.02666369
v 0.00888807 -0.01590308 0.02666369
v 0.00787447 -0.01642073 0.02666369
v 0.00762821 -0.01636400 0.02548692
v 0.00769959 -0.01609454 0.02429347
v 0.00774955 -0.01572225 0.02308890
v 0.00738908 -0.01555561 0.02213680
v 0.00662531 -0.01576835 0.02181425
v 0.00340962 -0.01536061 0.01829952
v 0.00411986 -0.01682492 0.02196997
v 0.00643972 -0.01632500 0.02318010
v 0.00702504 -0.01655546 0.02509875
v 0.00718565 -0.01661928 0.02588844
v 0.00798154 -0.01647037 0.02784935
v 0.00803151 -0.01649164 0.02903391
v 0.00800653 -0.01648101 0.02966233
v 0.00481939 -0.01781059 0.02966233
v 0.00975178 -0.01557689 0.02966233
v 0.00888807 -0.01607681 0.02903391
v 0.00888807 -0.01601654 0.02784935
v 0.00888807 -0.01606263 0.02966233
v 0.00848477 -0.01625763 0.02966233
v 0.00934134 -0.01581089 0.02966233
f 1 2 3
f 1 3 13
f 1 13 4
f 1 4 5
f 1 5 6
f 1 6 2
f 2 7 8
f 2 8 9
f 2 9 3
f 2 6 10
f 2 10 7
f 3 9 11
f 3 11 12
f 3 12 13
f 4 14 15
f 4 15 5
f 4 13 14
f 5 15 16
f 5 16 17
f 5 17 6
f 6 17 18
f 6 18 10
f 7 10 19
f 7 19 20
f 7 20 21
f 7 21 8
f 8 21 22
f 8 22 23
f 8 23 9
f 9 23 11
f 10 18 24
f 10 24 25
f 10 25 19
f 11 23 26
f 11 26 27
f 11 27 12
f 12 27 28
f 12 28 29
f 12 29 13
f 13 29 30
f 13 30 14
f 14 31 32
f 14 32 15
f 14 30 31
f 15 32 33
f 15 33 16
f 16 33 34
f 16 34 35
f 16 35 36
f 16 36 17
f 17 36 37
f 17 37 18
f 18 37 38
f 18 38 24
f 19 39 20
f 19 25 46
f 19 46 39
f 20 39 40
f 20 40 41
f 20 41 21
f 21 41 22
f 22 42 43
f 22 43 44
f 22 44 23
f 22 41 42
f 23 44 26
f 24 38 45
f 24 45 25
f 25 45 47
f 25 47 46
f 26 44 48
f 26 48 49
f 26 49 27
f 27 49 50
f 27 50 28
f 28 50 51
f 28 51 52
f 28 52 29
f 29 53 30
f 29 52 81
f 29 81 53
f 30 54 31
f 30 53 54
f 31 54 83
f 31 83 82
f 31 82 84
f 31 84 118
f 31 118 116
f 31 116 115
f 31 115 117
f 31 117 151
f 31 151 150
f 31 150 197
f 31 197 196
f 31 196 248
f 31 248 249
f 31 249 297
f 31 297 296
f 31 296 347
f 31 347 350
f 31 350 349
f 31 349 410
f 31 410 465
f 31 465 464
f 31 464 463
f 31 463 466
f 31 466 456
f 31 456 455
f 31 455 514
f 31 514 568
f 31 568 570
f 31 570 572
f 31 572 611
f 31 611 610
f 31 610 649
f 31 649 695
f 31 695 696
f 31 696 694
f 31 694 733
f 31 733 692
f 31 692 691
f 31 691 690
f 31 690 689
f 31 689 732
f 31 732 730
f 31 730 729
f 31 729 731
f 31 731 760
f 31 760 759
f 31 759 792
f 31 792 791
f 31 791 790
f 31 790 821
f 31 821 820
f 31 820 850
f 31 850 849
f 31 849 888
f 31 888 859
f 31 859 858
f 31 858 894
f 31 894 933
f 31 933 932
f 31 932 931
f 31 931 976
f 31 976 975
f 31 975 974
f 31 974 977
f 31 977 1023
f 31 1023 1038
f 31 1038 1037
f 31 1037 1036
f 31 1036 1035
f 31 1035 1034
f 31 1034 1041
f 31 1041 1040
f 31 1040 1080
f 31 1080 1118
f 31 1118 1120
f 31 1120 1160
f 31 1160 1179
f 31 1179 1181
f 31 1181 1219
f 31 1219 1218
f 31 1218 1228
f 31 1228 1227
f 31 1227 1226
f 31 1226 1266
f 31 1266 1297
f 31 1297 1301
f 31 1301 1300
f 31 1300 1299
f 31 1299 1330
f 31 1330 1332
f 31 1332 1331
f 31 1331 1352
f 31 1352 1351
f 31 1351 1357
f 31 1357 1356
f 31 1356 1358
f 31 1358 1353
f 31 1353 1333
f 31 1333 1304
f 31 1304 1271
f 31 1271 1236
f 31 1236 1200
f 31 1200 1162
f 31 1162 1161
f 31 1161 1121
f 31 1121 1083
f 31 1083 1082
f 31 1082 1043
f 31 1043 1003
f 31 1003 1002
f 31 1002 958
f 31 958 914
f 31 914 877
f 31 877 838
f 31 838 802
f 31 802 773
f 31 773 745
f 31 745 714
f 31 714 713
f 31 713 712
f 31 712 701
f 31 701 700
f 31 700 698
f 31 698 697
f 31 697 652
f 31 652 651
f 31 651 613
f 31 613 575
f 31 575 574
f 31 574 524
f 31 524 573
f 31 573 522
f 31 522 521
f 31 521 520
f 31 520 519
f 31 519 467
f 31 467 416
f 31 416 357
f 31 357 415
f 31 415 414
f 31 414 412
f 31 412 411
f 31 411 351
f 31 351 299
f 31 299 298
f 31 298 250
f 31 250 199
f 31 199 198
f 31 198 152
f 31 152 119
f 31 119 85
f 31 85 55
f 31 55 35
f 31 35 34
f 31 34 33
f 31 33 32
f 35 55 36
f 36 55 56
f 36 56 37
f 37 56 57
f 37 57 38
f 38 57 58
f 38 58 45
f 39 46 59
f 39 59 40
f 40 59 60
f 40 60 61
f 40 61 41
f 41 61 62
f 41 62 63
f 41 63 42
f 42 63 64
f 42 64 43
f 43 64 65
f 43 65 66
f 43 66 44
f 44 66 48
f 45 58 67
f 45 67 47
f 46 47 68
f 46 68 69
f 46 69 70
f 46 70 59
f 47 67 71
f 47 71 72
f 47 72 68
f 48 73 74
f 48 74 49
f 48 66 73
f 49 74 75
f 49 75 76
f 49 76 50
f 50 76 51
f 51 76 77
f 51 77 78
f 51 78 79
f 51 79 52
f 52 79 80
f 52 80 81
f 53 82 83
f 53 83 54
f 53 81 118
f 53 118 84
f 53 84 82
f 55 85 56
f 56 85 86
f 56 86 57
f 57 86 87
f 57 87 58
f 58 87 88
f 58 88 67
f 59 70 89
f 59 89 60
f 60 90 61
f 60 89 91
f 60 91 90
f 61 90 62
f 62 90 92
f 62 92 63
f 63 93 64
f 63 92 93
f 64 94 65
f 64 93 94
f 65 94 95
f 65 95 96
f 65 96 66
f 66 96 73
f 67 88 97
f 67 97 98
f 67 98 71
f 68 72 99
f 68 99 69
f 69 100 70
f 69 99 101
f 69 101 100
f 70 100 89
f 71 98 102
f 71 102 72
f 72 102 99
f 73 103 74
f 73 96 104
f 73 104 105
f 73 105 103
f 74 103 106
f 74 106 107
f 74 107 108
f 74 108 75
f 75 108 109
f 75 109 76
f 76 109 77
f 77 109 110
f 77 110 78
f 78 111 79
f 78 110 112
f 78 112 113
f 78 113 111
f 79 111 114
f 79 114 80
f 80 115 116
f 80 116 81
f 80 114 117
f 80 117 115
f 81 116 118
f 85 119 86
f 86 119 120
f 86 120 87
f 87 120 121
f 87 121 88
f 88 121 122
f 88 122 123
f 88 123 97
f 89 100 91
f 90 91 124
f 90 124 125
f 90 125 126
f 90 126 92
f 91 100 127
f 91 127 124
f 92 126 128
f 92 128 129
f 92 129 93
f 93 129 130
f 93 130 94
f 94 130 131
f 94 131 95
f 95 132 96
f 95 131 132
f 96 132 133
f 96 133 104
f 97 123 134
f 97 134 98
f 98 134 135
f 98 135 102
f 99 102 136
f 99 136 137
f 99 137 101
f 100 101 138
f 100 138 127
f 101 137 139
f 101 139 138
f 102 135 140
f 102 140 136
f 103 105 106
f 104 141 105
f 104 133 141
f 105 141 142
f 105 142 143
f 105 143 106
f 106 143 144
f 106 144 107
f 107 145 108
f 107 144 146
f 107 146 145
f 108 145 109
f 109 145 147
f 109 147 110
f 110 147 148
f 110 148 112
f 111 113 114
f 112 148 149
f 112 149 113
f 113 150 114
f 113 149 150
f 114 150 151
f 114 151 117
f 119 152 120
f 120 152 153
f 120 153 121
f 121 153 154
f 121 154 122
f 122 154 155
f 122 155 123
f 123 155 134
f 124 156 157
f 124 157 125
f 124 127 158
f 124 158 156
f 125 157 159
f 125 159 160
f 125 160 126
f 126 160 128
f 127 138 161
f 127 161 158
f 128 160 162
f 128 162 163
f 128 163 164
f 128 164 165
f 128 165 166
f 128 166 167
f 128 167 129
f 129 167 130
f 130 168 131
f 130 167 168
f 131 168 169
f 131 169 132
f 132 169 170
f 132 170 171
f 132 171 172
f 132 172 173
f 132 173 133
f 133 173 141
f 134 155 174
f 134 174 135
f 135 174 175
f 135 175 176
f 135 176 140
f 136 140 137
f 137 140 177
f 137 177 178
f 137 178 179
f 137 179 139
f 138 139 180
f 138 180 161
f 139 179 181
f 139 181 180
f 140 176 177
f 141 173 182
f 141 182 183
f 141 183 142
f 142 183 184
f 142 184 143
f 143 184 185
f 143 185 186
f 143 186 144
f 144 186 187
f 144 187 146
f 145 146 188
f 145 188 189
f 145 189 147
f 146 187 190
f 146 190 191
f 146 191 192
f 146 192 188
f 147 189 193
f 147 193 148
f 148 193 194
f 148 194 149
f 149 194 195
f 149 195 196
f 149 196 197
f 149 197 150
f 152 198 153
f 153 198 199
f 153 199 200
f 153 200 154
f 154 200 201
f 154 201 155
f 155 201 202
f 155 202 174
f 156 158 203
f 156 203 204
f 156 204 205
f 156 205 157
f 157 206 207
f 157 207 208
f 157 208 159
f 157 205 206
f 158 161 203
f 159 208 162
f 159 162 160
f 161 180 209
f 161 209 203
f 162 208 207
f 162 207 206
f 162 206 205
f 162 205 204
f 162 204 257
f 162 257 281
f 162 281 280
f 162 280 279
f 162 279 327
f 162 327 326
f 162 326 331
f 162 331 389
f 162 389 388
f 162 388 387
f 162 387 440
f 162 440 500
f 162 500 552
f 162 552 555
f 162 555 554
f 162 554 592
f 162 592 590
f 162 590 544
f 162 544 591
f 162 591 633
f 162 633 674
f 162 674 673
f 162 673 672
f 162 672 719
f 162 719 749
f 162 749 748
f 162 748 751
f 162 751 779
f 162 779 809
f 162 809 846
f 162 846 886
f 162 886 927
f 162 927 926
f 162 926 969
f 162 969 1016
f 162 1016 1015
f 162 1015 1014
f 162 1014 1013
f 162 1013 1012
f 162 1012 1054
f 162 1054 1093
f 162 1093 1099
f 162 1099 1140
f 162 1140 1178
f 162 1178 1217
f 162 1217 1216
f 162 1216 1256
f 162 1256 1255
f 162 1255 1287
f 162 1287 1318
f 162 1318 1317
f 162 1317 1316
f 162 1316 1315
f 162 1315 1344
f 162 1344 1319
f 162 1319 1288
f 162 1288 1270
f 162 1270 1232
f 162 1232 1195
f 162 1195 1194
f 162 1194 1192
f 162 1192 1156
f 162 1156 1114
f 162 1114 1075
f 162 1075 1030
f 162 1030 986
f 162 986 943
f 162 943 900
f 162 900 864
f 162 864 822
f 162 822 793
f 162 793 761
f 162 761 734
f 162 734 699
f 162 699 657
f 162 657 654
f 162 654 616
f 162 616 578
f 162 578 531
f 162 531 530
f 162 530 529
f 162 529 477
f 162 477 476
f 162 476 475
f 162 475 474
f 162 474 421
f 162 421 363
f 162 363 367
f 162 367 362
f 162 362 307
f 162 307 306
f 162 306 258
f 162 258 213
f 162 213 217
f 162 217 216
f 162 216 211
f 162 211 210
f 162 210 166
f 162 166 164
f 162 164 163
f 164 166 165
f 166 210 167
f 167 210 168
f 168 210 211
f 168 211 212
f 168 212 169
f 169 212 170
f 170 213 214
f 170 214 215
f 170 215 171
f 170 212 216
f 170 216 217
f 170 217 213
f 171 215 172
f 172 215 218
f 172 218 219
f 172 219 182
f 172 182 173
f 174 202 220
f 174 220 175
f 175 220 221
f 175 221 222
f 175 222 176
f 176 222 177
f 177 222 223
f 177 223 224
f 177 224 225
f 177 225 226
f 177 226 227
f 177 227 228
f 177 228 178
f 178 228 179
f 179 228 229
f 179 229 181
f 180 181 229
f 180 229 230
f 180 230 231
f 180 231 232
f 180 232 209
f 182 219 183
f 183 233 234
f 183 234 184
f 183 219 233
f 184 234 185
f 185 234 235
f 185 235 236
f 185 236 237
f 185 237 238
f 185 238 239
f 185 239 186
f 186 239 190
f 186 190 187
f 188 192 240
f 188 240 189
f 189 240 241
f 189 241 193
f 190 239 242
f 190 242 243
f 190 243 191
f 191 243 244
f 191 244 245
f 191 245 192
f 192 245 240
f 193 241 194
f 194 241 246
f 194 246 247
f 194 247 195
f 195 248 196
f 195 247 249
f 195 249 248
f 199 250 200
f 200 250 251
f 200 251 201
f 201 252 202
f 201 251 253
f 201 253 252
f 202 252 254
f 202 254 220
f 203 209 255
f 203 255 256
f 203 256 204
f 204 256 257
f 209 232 255
f 211 216 212
f 213 258 215
f 213 215 214
f 215 258 259
f 215 259 218
f 218 259 260
f 218 260 219
f 219 260 261
f 219 261 262
f 219 262 233
f 220 254 263
f 220 263 221
f 221 263 264
f 221 264 222
f 222 264 265
f 222 265 266
f 222 266 224
f 222 224 223
f 224 267 268
f 224 268 225
f 224 266 269
f 224 269 270
f 224 270 271
f 224 271 272
f 224 272 267
f 225 268 226
f 226 268 227
f 227 229 228
f 227 268 229
f 229 268 273
f 229 273 274
f 229 274 275
f 229 275 276
f 229 276 277
f 229 277 278
f 229 278 230
f 230 278 231
f 231 278 232
f 232 279 280
f 232 280 281
f 232 281 255
f 232 278 279
f 233 262 282
f 233 282 234
f 234 282 235
f 235 282 262
f 235 262 283
f 235 283 284
f 235 284 285
f 235 285 286
f 235 286 236
f 236 286 237
f 237 286 287
f 237 287 288
f 237 288 238
f 238 242 239
f 238 288 242
f 240 245 289
f 240 289 241
f 241 289 246
f 242 288 290
f 242 290 291
f 242 291 292
f 242 292 243
f 243 292 291
f 243 291 293
f 243 293 244
f 244 294 245
f 244 293 294
f 245 294 289
f 246 289 294
f 246 294 295
f 246 295 347
f 246 347 296
f 246 296 247
f 247 297 249
f 247 296 297
f 250 298 251
f 251 298 299
f 251 299 300
f 251 300 253
f 252 301 302
f 252 302 254
f 252 253 303
f 252 303 304
f 252 304 301
f 253 300 303
f 254 302 305
f 254 305 263
f 255 281 257
f 255 257 256
f 258 306 260
f 258 260 259
f 260 307 308
f 260 308 309
f 260 309 310
f 260 310 262
f 260 262 261
f 260 306 307
f 262 309 311
f 262 311 312
f 262 312 313
f 262 313 283
f 262 310 309
f 263 305 314
f 263 314 264
f 264 314 265
f 265 314 266
f 266 314 269
f 267 272 315
f 267 315 268
f 268 315 316
f 268 316 273
f 269 314 317
f 269 317 271
f 269 271 270
f 271 318 315
f 271 315 272
f 271 317 319
f 271 319 320
f 271 320 321
f 271 321 322
f 271 322 318
f 273 316 274
f 274 316 323
f 274 323 324
f 274 324 325
f 274 325 275
f 275 325 276
f 276 326 327
f 276 327 328
f 276 328 278
f 276 278 277
f 276 325 329
f 276 329 330
f 276 330 331
f 276 331 326
f 278 328 279
f 279 328 327
f 283 313 284
f 284 332 285
f 284 313 312
f 284 312 333
f 284 333 334
f 284 334 335
f 284 335 336
f 284 336 332
f 285 332 286
f 286 332 337
f 286 337 338
f 286 338 287
f 287 338 339
f 287 339 290
f 287 290 288
f 290 340 291
f 290 339 340
f 291 341 293
f 291 340 342
f 291 342 343
f 291 343 344
f 291 344 341
f 293 341 294
f 294 341 345
f 294 345 346
f 294 346 295
f 295 346 348
f 295 348 349
f 295 349 350
f 295 350 347
f 299 351 352
f 299 352 300
f 300 352 303
f 301 353 354
f 301 354 302
f 301 304 353
f 302 354 305
f 303 352 304
f 304 355 356
f 304 356 357
f 304 357 358
f 304 358 359
f 304 359 360
f 304 360 361
f 304 361 353
f 304 352 355
f 305 354 314
f 307 362 308
f 308 362 309
f 309 363 364
f 309 364 365
f 309 365 366
f 309 366 312
f 309 312 311
f 309 362 367
f 309 367 363
f 312 365 368
f 312 368 369
f 312 369 333
f 312 366 365
f 314 354 370
f 314 370 371
f 314 371 372
f 314 372 373
f 314 373 317
f 315 318 374
f 315 374 323
f 315 323 316
f 317 373 319
f 318 322 375
f 318 375 376
f 318 376 374
f 319 373 372
f 319 372 377
f 319 377 378
f 319 378 379
f 319 379 320
f 320 379 321
f 321 379 380
f 321 380 381
f 321 381 382
f 321 382 383
f 321 383 375
f 321 375 322
f 323 374 384
f 323 384 324
f 324 384 385
f 324 385 329
f 324 329 325
f 329 385 386
f 329 386 387
f 329 387 388
f 329 388 389
f 329 389 330
f 330 389 331
f 332 390 337
f 332 336 390
f 333 369 334
f 334 369 391
f 334 391 335
f 335 391 392
f 335 392 336
f 336 392 393
f 336 393 394
f 336 394 395
f 336 395 396
f 336 396 390
f 337 390 397
f 337 397 398
f 337 398 338
f 338 398 339
f 339 398 397
f 339 397 399
f 339 399 400
f 339 400 401
f 339 401 342
f 339 342 340
f 341 344 402
f 341 402 403
f 341 403 404
f 341 404 345
f 342 401 400
f 342 400 405
f 342 405 343
f 343 405 406
f 343 406 402
f 343 402 344
f 345 404 346
f 346 407 408
f 346 408 348
f 346 404 409
f 346 409 407
f 348 408 410
f 348 410 349
f 351 411 352
f 352 411 412
f 352 412 355
f 353 370 354
f 353 361 413
f 353 413 370
f 355 412 414
f 355 414 415
f 355 415 357
f 355 357 356
f 357 416 358
f 358 416 417
f 358 417 359
f 359 417 418
f 359 418 360
f 360 413 361
f 360 418 419
f 360 419 420
f 360 420 413
f 363 421 365
f 363 365 364
f 365 422 368
f 365 421 422
f 368 422 423
f 368 423 369
f 369 423 422
f 369 422 424
f 369 424 425
f 369 425 391
f 370 413 371
f 371 413 377
f 371 377 372
f 374 376 426
f 374 426 384
f 375 427 376
f 375 383 427
f 376 427 426
f 377 413 428
f 377 428 378
f 378 428 429
f 378 429 430
f 378 430 380
f 378 380 379
f 380 430 431
f 380 431 381
f 381 431 382
f 382 431 432
f 382 432 433
f 382 433 383
f 383 433 434
f 383 434 435
f 383 435 436
f 383 436 427
f 384 426 437
f 384 437 385
f 385 437 438
f 385 438 439
f 385 439 386
f 386 439 440
f 386 440 387
f 390 396 399
f 390 399 397
f 391 441 442
f 391 442 443
f 391 443 393
f 391 393 392
f 391 425 441
f 393 443 394
f 394 444 445
f 394 445 446
f 394 446 447
f 394 447 448
f 394 448 449
f 394 449 450
f 394 450 395
f 394 443 444
f 395 450 451
f 395 451 396
f 396 451 399
f 399 451 400
f 400 451 452
f 400 452 405
f 402 406 453
f 402 453 454
f 402 454 455
f 402 455 456
f 402 456 409
f 402 409 403
f 403 409 404
f 405 452 457
f 405 457 458
f 405 458 459
f 405 459 406
f 406 460 453
f 406 459 461
f 406 461 462
f 406 462 460
f 407 409 463
f 407 463 408
f 408 464 465
f 408 465 410
f 408 463 464
f 409 466 463
f 409 456 466
f 413 420 428
f 416 467 468
f 416 468 417
f 417 468 419
f 417 419 418
f 419 468 469
f 419 469 470
f 419 470 420
f 420 471 472
f 420 472 428
f 420 470 473
f 420 473 471
f 421 474 422
f 422 474 475
f 422 475 476
f 422 476 477
f 422 477 478
f 422 478 479
f 422 479 425
f 422 425 424
f 425 479 480
f 425 480 441
f 426 438 437
f 426 427 436
f 426 436 481
f 426 481 438
f 428 472 429
f 429 472 482
f 429 482 430
f 430 482 483
f 430 483 484
f 430 484 485
f 430 485 486
f 430 486 487
f 430 487 488
f 430 488 489
f 430 489 431
f 431 489 490
f 431 490 432
f 432 490 491
f 432 491 433
f 433 491 434
f 434 491 492
f 434 492 493
f 434 493 494
f 434 494 495
f 434 495 435
f 435 496 436
f 435 495 496
f 436 497 481
f 436 496 497
f 438 498 439
f 438 481 497
f 438 497 499
f 438 499 498
f 439 498 500
f 439 500 440
f 441 480 442
f 442 480 479
f 442 479 501
f 442 501 445
f 442 445 444
f 442 444 443
f 445 501 502
f 445 502 503
f 445 503 504
f 445 504 505
f 445 505 446
f 446 505 447
f 447 506 507
f 447 507 508
f 447 508 509
f 447 509 510
f 447 510 448
f 447 505 506
f 448 510 449
f 449 511 450
f 449 510 512
f 449 512 511
f 450 511 457
f 450 457 452
f 450 452 451
f 453 460 454
f 454 460 462
f 454 462 513
f 454 513 514
f 454 514 455
f 457 511 515
f 457 515 458
f 458 461 459
f 458 515 461
f 461 516 513
f 461 513 462
f 461 515 517
f 461 517 518
f 461 518 516
f 467 519 468
f 468 519 520
f 468 520 469
f 469 521 522
f 469 522 523
f 469 523 470
f 469 520 521
f 470 523 524
f 470 524 525
f 470 525 526
f 470 526 473
f 471 482 472
f 471 473 527
f 471 527 482
f 473 526 528
f 473 528 527
f 477 529 478
f 478 529 479
f 479 529 530
f 479 530 531
f 479 531 532
f 479 532 533
f 479 533 534
f 479 534 502
f 479 502 501
f 482 527 483
f 483 527 528
f 483 528 535
f 483 535 536
f 483 536 485
f 483 485 484
f 485 537 486
f 485 536 538
f 485 538 539
f 485 539 537
f 486 537 488
f 486 488 487
f 488 492 490
f 488 490 489
f 488 537 492
f 490 492 491
f 492 540 541
f 492 541 493
f 492 537 542
f 492 542 540
f 493 541 494
f 494 543 544
f 494 544 545
f 494 545 546
f 494 546 547
f 494 547 496
f 494 496 495
f 494 541 540
f 494 540 548
f 494 548 549
f 494 549 550
f 494 550 543
f 496 547 551
f 496 551 497
f 497 551 499
f 498 499 552
f 498 552 500
f 499 551 553
f 499 553 554
f 499 554 555
f 499 555 552
f 502 534 503
f 503 534 556
f 503 556 504
f 504 556 557
f 504 557 506
f 504 506 505
f 506 557 558
f 506 558 507
f 507 558 508
f 508 559 560
f 508 560 561
f 508 561 562
f 508 562 510
f 508 510 509
f 508 558 559
f 510 562 563
f 510 563 564
f 510 564 512
f 511 512 565
f 511 565 515
f 512 564 566
f 512 566 567
f 512 567 565
f 513 516 514
f 514 516 568
f 515 565 569
f 515 569 517
f 516 570 568
f 516 518 572
f 516 572 570
f 517 569 571
f 517 571 518
f 518 571 572
f 522 573 523
f 523 573 524
f 524 574 525
f 525 574 575
f 525 575 576
f 525 576 526
f 526 576 577
f 526 577 535
f 526 535 528
f 531 578 532
f 532 579 533
f 532 578 579
f 533 579 580
f 533 580 534
f 534 580 556
f 535 538 536
f 535 577 581
f 535 581 582
f 535 582 538
f 537 539 583
f 537 583 542
f 538 584 539
f 538 582 585
f 538 585 586
f 538 586 584
f 539 584 583
f 540 542 548
f 542 583 587
f 542 587 548
f 543 550 588
f 543 588 589
f 543 589 544
f 544 590 545
f 544 589 591
f 545 590 546
f 546 590 592
f 546 592 554
f 546 554 553
f 546 553 551
f 546 551 547
f 548 587 549
f 549 587 583
f 549 583 593
f 549 593 594
f 549 594 595
f 549 595 550
f 550 595 588
f 556 580 596
f 556 596 597
f 556 597 557
f 557 597 558
f 558 597 598
f 558 598 559
f 559 598 599
f 559 599 560
f 560 599 600
f 560 600 601
f 560 601 602
f 560 602 561
f 561 603 566
f 561 566 604
f 561 604 562
f 561 602 603
f 562 604 563
f 563 604 566
f 563 566 564
f 565 567 605
f 565 605 569
f 566 603 602
f 566 602 606
f 566 606 607
f 566 607 608
f 566 608 609
f 566 609 605
f 566 605 567
f 569 605 571
f 571 610 611
f 571 611 572
f 571 605 612
f 571 612 610
f 575 613 576
f 576 613 614
f 576 614 615
f 576 615 577
f 577 615 581
f 578 616 617
f 578 617 618
f 578 618 619
f 578 619 620
f 578 620 579
f 579 620 621
f 579 621 580
f 580 621 596
f 581 615 622
f 581 622 582
f 582 622 623
f 582 623 585
f 583 584 624
f 583 624 593
f 584 625 624
f 584 586 626
f 584 626 627
f 584 627 628
f 584 628 625
f 585 623 629
f 585 629 626
f 585 626 586
f 588 595 630
f 588 630 589
f 589 630 631
f 589 631 632
f 589 632 591
f 591 632 633
f 593 624 634
f 593 634 635
f 593 635 594
f 594 636 630
f 594 630 595
f 594 635 636
f 596 637 598
f 596 598 597
f 596 621 637
f 598 638 599
f 598 637 638
f 599 639 640
f 599 640 641
f 599 641 600
f 599 638 639
f 600 641 642
f 600 642 601
f 601 642 643
f 601 643 644
f 601 644 645
f 601 645 602
f 602 645 606
f 605 609 612
f 606 646 607
f 606 645 646
f 607 646 647
f 607 647 608
f 608 647 648
f 608 648 609
f 609 648 612
f 610 612 649
f 612 648 650
f 612 650 649
f 613 651 614
f 614 651 652
f 614 652 653
f 614 653 615
f 615 653 622
f 616 654 617
f 617 654 618
f 618 655 656
f 618 656 621
f 618 621 619
f 618 654 657
f 618 657 655
f 619 621 620
f 621 656 658
f 621 658 637
f 622 653 659
f 622 659 623
f 623 659 660
f 623 660 629
f 624 625 634
f 625 628 661
f 625 661 662
f 625 662 663
f 625 663 664
f 625 664 634
f 626 665 627
f 626 629 666
f 626 666 665
f 627 665 667
f 627 667 628
f 628 668 661
f 628 667 668
f 629 660 669
f 629 669 666
f 630 636 631
f 631 636 670
f 631 670 632
f 632 670 671
f 632 671 672
f 632 672 673
f 632 673 674
f 632 674 633
f 634 664 675
f 634 675 635
f 635 675 636
f 636 676 670
f 636 675 676
f 637 658 677
f 637 677 638
f 638 678 639
f 638 677 678
f 639 678 640
f 640 679 680
f 640 680 681
f 640 681 682
f 640 682 641
f 640 678 683
f 640 683 684
f 640 684 679
f 641 682 642
f 642 682 685
f 642 685 643
f 643 685 686
f 643 686 644
f 644 687 645
f 644 686 687
f 645 688 646
f 645 687 688
f 646 689 690
f 646 690 647
f 646 688 689
f 647 691 692
f 647 692 693
f 647 693 648
f 647 690 691
f 648 693 694
f 648 694 650
f 649 650 695
f 650 694 696
f 650 696 695
f 652 697 653
f 653 697 698
f 653 698 659
f 655 683 656
f 655 657 683
f 656 683 658
f 657 699 683
f 658 683 677
f 659 698 700
f 659 700 701
f 659 701 669
f 659 669 660
f 661 702 662
f 661 668 703
f 661 703 702
f 662 702 705
f 662 705 663
f 663 704 676
f 663 676 675
f 663 675 664
f 663 705 704
f 665 666 706
f 665 706 707
f 665 707 667
f 666 669 708
f 666 708 706
f 667 707 709
f 667 709 668
f 668 710 703
f 668 709 711
f 668 711 710
f 669 701 712
f 669 712 713
f 669 713 714
f 669 714 715
f 669 715 716
f 669 716 708
f 670 676 717
f 670 717 671
f 671 718 719
f 671 719 672
f 671 717 720
f 671 720 718
f 676 704 717
f 677 683 678
f 679 721 722
f 679 722 680
f 679 684 721
f 680 722 723
f 680 723 681
f 681 723 724
f 681 724 685
f 681 685 682
f 683 725 726
f 683 726 684
f 683 699 725
f 684 726 727
f 684 727 721
f 685 724 686
f 686 724 728
f 686 728 687
f 687 729 730
f 687 730 688
f 687 728 731
f 687 731 729
f 688 730 732
f 688 732 689
f 692 733 693
f 693 733 694
f 699 734 725
f 702 735 736
f 702 736 705
f 702 703 737
f 702 737 735
f 703 710 738
f 703 738 737
f 704 705 736
f 704 736 739
f 704 739 717
f 706 740 741
f 706 741 707
f 706 708 742
f 706 742 743
f 706 743 740
f 707 741 709
f 708 716 742
f 709 741 711
f 710 711 738
f 711 741 744
f 711 744 738
f 714 745 746
f 714 746 715
f 715 746 742
f 715 742 716
f 717 739 747
f 717 747 720
f 718 748 749
f 718 749 719
f 718 720 748
f 720 747 777
f 720 777 750
f 720 750 751
f 720 751 748
f 721 727 752
f 721 752 722
f 722 753 723
f 722 752 753
f 723 754 755
f 723 755 724
f 723 753 754
f 724 755 756
f 724 756 757
f 724 757 728
f 725 758 727
f 725 727 726
f 725 734 758
f 727 758 752
f 728 759 760
f 728 760 731
f 728 757 759
f 734 761 762
f 734 762 763
f 734 763 764
f 734 764 752
f 734 752 758
f 735 737 765
f 735 765 766
f 735 766 736
f 736 766 739
f 737 738 765
f 738 744 767
f 738 767 765
f 739 768 769
f 739 769 747
f 739 766 768
f 740 770 741
f 740 743 771
f 740 771 770
f 741 770 744
f 742 746 771
f 742 771 743
f 744 772 767
f 744 770 772
f 745 773 774
f 745 774 775
f 745 775 746
f 746 775 776
f 746 776 771
f 747 769 777
f 750 777 778
f 750 778 779
f 750 779 751
f 752 780 781
f 752 781 753
f 752 764 763
f 752 763 780
f 753 782 754
f 753 781 783
f 753 783 784
f 753 784 785
f 753 785 786
f 753 786 787
f 753 787 782
f 754 788 789
f 754 789 755
f 754 782 788
f 755 789 756
f 756 789 790
f 756 790 791
f 756 791 757
f 757 791 792
f 757 792 759
f 761 793 794
f 761 794 762
f 762 794 795
f 762 795 763
f 763 795 780
f 765 796 766
f 765 767 797
f 765 797 796
f 766 798 799
f 766 799 768
f 766 796 798
f 767 772 800
f 767 800 797
f 768 799 769
f 769 799 777
f 770 771 801
f 770 801 772
f 771 776 801
f 772 801 800
f 773 802 774
f 774 802 803
f 774 803 804
f 774 804 805
f 774 805 775
f 775 805 776
f 776 805 806
f 776 806 801
f 777 807 778
f 777 799 807
f 778 808 809
f 778 809 779
f 778 807 810
f 778 810 808
f 780 784 783
f 780 783 781
f 780 795 811
f 780 811 784
f 782 787 812
f 782 812 813
f 782 813 788
f 784 811 795
f 784 795 814
f 784 814 787
f 784 787 786
f 784 786 785
f 787 815 812
f 787 814 816
f 787 816 817
f 787 817 818
f 787 818 819
f 787 819 815
f 788 813 820
f 788 820 821
f 788 821 789
f 789 821 790
f 793 822 823
f 793 823 824
f 793 824 825
f 793 825 826
f 793 826 827
f 793 827 828
f 793 828 794
f 794 828 829
f 794 829 795
f 795 816 814
f 795 829 816
f 796 830 831
f 796 831 798
f 796 797 832
f 796 832 833
f 796 833 830
f 797 800 832
f 798 831 834
f 798 834 835
f 798 835 799
f 799 835 836
f 799 836 807
f 800 801 837
f 800 837 832
f 801 806 837
f 802 838 839
f 802 839 803
f 803 839 804
f 804 839 840
f 804 840 841
f 804 841 842
f 804 842 806
f 804 806 805
f 806 842 837
f 807 836 843
f 807 843 810
f 808 844 809
f 808 810 845
f 808 845 844
f 809 844 846
f 810 843 847
f 810 847 845
f 812 815 848
f 812 848 813
f 813 848 849
f 813 849 850
f 813 850 820
f 815 819 851
f 815 851 848
f 816 829 828
f 816 828 827
f 816 827 852
f 816 852 817
f 817 853 818
f 817 852 827
f 817 827 854
f 817 854 855
f 817 855 853
f 818 853 856
f 818 856 857
f 818 857 819
f 819 857 858
f 819 858 859
f 819 859 851
f 822 860 861
f 822 861 862
f 822 862 863
f 822 863 823
f 822 864 860
f 823 865 866
f 823 866 867
f 823 867 868
f 823 868 825
f 823 825 824
f 823 863 865
f 825 868 869
f 825 869 870
f 825 870 826
f 826 870 854
f 826 854 827
f 830 833 871
f 830 871 872
f 830 872 831
f 831 872 873
f 831 873 834
f 832 874 875
f 832 875 871
f 832 871 833
f 832 837 876
f 832 876 874
f 834 873 847
f 834 847 843
f 834 843 836
f 834 836 835
f 837 842 876
f 838 877 839
f 839 877 878
f 839 878 879
f 839 879 840
f 840 879 880
f 840 880 841
f 841 876 842
f 841 880 881
f 841 881 882
f 841 882 876
f 844 883 884
f 844 884 846
f 844 845 885
f 844 885 883
f 845 847 885
f 846 884 886
f 847 887 885
f 847 873 887
f 848 851 888
f 848 888 849
f 851 859 888
f 853 855 856
f 854 870 889
f 854 889 855
f 855 889 856
f 856 889 890
f 856 890 891
f 856 891 892
f 856 892 893
f 856 893 857
f 857 893 894
f 857 894 858
f 860 864 895
f 860 895 861
f 861 896 897
f 861 897 863
f 861 863 862
f 861 895 898
f 861 898 899
f 861 899 896
f 863 897 865
f 864 900 901
f 864 901 902
f 864 902 903
f 864 903 895
f 865 904 866
f 865 897 896
f 865 896 905
f 865 905 904
f 866 906 867
f 866 904 907
f 866 907 906
f 867 906 908
f 867 908 868
f 868 908 869
f 869 908 890
f 869 890 889
f 869 889 870
f 871 875 909
f 871 909 910
f 871 910 872
f 872 910 873
f 873 910 911
f 873 911 887
f 874 876 912
f 874 912 875
f 875 913 909
f 875 912 913
f 876 882 912
f 877 914 878
f 878 914 915
f 878 915 916
f 878 916 917
f 878 917 879
f 879 918 880
f 879 917 918
f 880 918 919
f 880 919 881
f 881 912 882
f 881 919 920
f 881 920 921
f 881 921 922
f 881 922 912
f 883 885 923
f 883 923 924
f 883 924 925
f 883 925 884
f 884 925 926
f 884 926 927
f 884 927 886
f 885 887 923
f 887 928 923
f 887 911 928
f 890 908 929
f 890 929 891
f 891 929 930
f 891 930 892
f 892 931 932
f 892 932 893
f 892 930 931
f 893 933 894
f 893 932 933
f 895 903 898
f 896 934 905
f 896 899 935
f 896 935 934
f 898 903 899
f 899 903 936
f 899 936 937
f 899 937 938
f 899 938 939
f 899 939 935
f 900 940 941
f 900 941 942
f 900 942 902
f 900 902 901
f 900 943 940
f 902 942 903
f 903 944 937
f 903 937 936
f 903 942 945
f 903 945 944
f 904 905 907
f 905 934 907
f 906 946 947
f 906 947 908
f 906 907 946
f 907 934 948
f 907 948 949
f 907 949 950
f 907 950 951
f 907 951 952
f 907 952 946
f 908 947 929
f 909 913 953
f 909 953 954
f 909 954 910
f 910 954 911
f 911 954 955
f 911 955 956
f 911 956 928
f 912 922 913
f 913 922 957
f 913 957 953
f 914 958 915
f 915 958 959
f 915 959 916
f 916 959 960
f 916 960 961
f 916 961 962
f 916 962 917
f 917 962 963
f 917 963 918
f 918 963 919
f 919 963 920
f 920 964 965
f 920 965 966
f 920 966 957
f 920 957 921
f 920 963 964
f 921 957 922
f 923 928 924
f 924 928 967
f 924 967 968
f 924 968 925
f 925 968 969
f 925 969 926
f 928 970 971
f 928 971 967
f 928 956 972
f 928 972 970
f 929 947 973
f 929 973 930
f 930 974 975
f 930 975 976
f 930 976 931
f 930 973 952
f 930 952 977
f 930 977 974
f 934 935 948
f 935 939 978
f 935 978 979
f 935 979 948
f 937 980 981
f 937 981 939
f 937 939 938
f 937 944 945
f 937 945 982
f 937 982 983
f 937 983 984
f 937 984 985
f 937 985 980
f 939 981 978
f 940 943 945
f 940 945 941
f 941 945 942
f 943 986 987
f 943 987 988
f 943 988 945
f 945 988 989
f 945 989 990
f 945 990 991
f 945 991 982
f 946 952 973
f 946 973 947
f 948 979 949
f 949 979 978
f 949 978 992
f 949 992 950
f 950 993 994
f 950 994 995
f 950 995 951
f 950 992 996
f 950 996 997
f 950 997 998
f 950 998 993
f 951 995 999
f 951 999 952
f 952 999 977
f 953 1000 1001
f 953 1001 954
f 953 957 1000
f 954 1001 955
f 955 972 956
f 955 1001 972
f 957 966 1000
f 958 1002 959
f 959 1002 1003
f 959 1003 960
f 960 1003 1004
f 960 1004 1005
f 960 1005 961
f 961 1005 1006
f 961 1006 962
f 962 1006 1007
f 962 1007 964
f 962 964 963
f 964 1007 1008
f 964 1008 965
f 965 1008 1009
f 965 1009 1010
f 965 1010 966
f 966 1010 1000
f 967 971 1011
f 967 1011 1012
f 967 1012 1013
f 967 1013 1014
f 967 1014 1015
f 967 1015 968
f 968 1015 1016
f 968 1016 969
f 970 972 1017
f 970 1017 1018
f 970 1018 1019
f 970 1019 971
f 971 1019 1020
f 971 1020 1011
f 972 1001 1021
f 972 1021 1022
f 972 1022 1017
f 977 999 995
f 977 995 1023
f 978 981 980
f 978 980 1024
f 978 1024 996
f 978 996 992
f 980 985 1024
f 982 991 983
f 983 991 984
f 984 1025 1026
f 984 1026 985
f 984 991 990
f 984 990 1027
f 984 1027 1028
f 984 1028 1029
f 984 1029 1025
f 985 1026 1024
f 986 1030 1031
f 986 1031 987
f 987 1031 988
f 988 1031 989
f 989 1031 1032
f 989 1032 1033
f 989 1033 1027
f 989 1027 990
f 993 998 1034
f 993 1034 1035
f 993 1035 1036
f 993 1036 1037
f 993 1037 994
f 994 1037 1038
f 994 1038 995
f 995 1038 1023
f 996 1024 1039
f 996 1039 997
f 997 1040 1041
f 997 1041 1034
f 997 1034 998
f 997 1039 1042
f 997 1042 1040
f 1000 1010 1021
f 1000 1021 1001
f 1003 1043 1004
f 1004 1043 1044
f 1004 1044 1045
f 1004 1045 1005
f 1005 1045 1006
f 1006 1045 1046
f 1006 1046 1047
f 1006 1047 1007
f 1007 1047 1048
f 1007 1048 1049
f 1007 1049 1050
f 1007 1050 1051
f 1007 1051 1008
f 1008 1051 1052
f 1008 1052 1009
f 1009 1052 1053
f 1009 1053 1010
f 1010 1053 1022
f 1010 1022 1021
f 1011 1020 1012
f 1012 1020 1054
f 1017 1022 1055
f 1017 1055 1056
f 1017 1056 1057
f 1017 1057 1018
f 1018 1057 1058
f 1018 1058 1059
f 1018 1059 1019
f 1019 1059 1060
f 1019 1060 1020
f 1020 1060 1054
f 1022 1053 1055
f 1024 1026 1061
f 1024 1061 1062
f 1024 1062 1063
f 1024 1063 1039
f 1025 1029 1064
f 1025 1064 1065
f 1025 1065 1061
f 1025 1061 1026
f 1027 1033 1066
f 1027 1066 1067
f 1027 1067 1028
f 1028 1067 1068
f 1028 1068 1069
f 1028 1069 1029
f 1029 1070 1071
f 1029 1071 1072
f 1029 1072 1064
f 1029 1069 1073
f 1029 1073 1074
f 1029 1074 1070
f 1030 1075 1076
f 1030 1076 1077
f 1030 1077 1031
f 1031 1077 1032
f 1032 1077 1078
f 1032 1078 1066
f 1032 1066 1033
f 1039 1063 1079
f 1039 1079 1042
f 1040 1042 1080
f 1042 1079 1081
f 1042 1081 1080
f 1043 1082 1044
f 1044 1082 1083
f 1044 1083 1084
f 1044 1084 1045
f 1045 1084 1085
f 1045 1085 1046
f 1046 1085 1086
f 1046 1086 1047
f 1047 1086 1087
f 1047 1087 1048
f 1048 1087 1088
f 1048 1088 1050
f 1048 1050 1049
f 1050 1088 1089
f 1050 1089 1051
f 1051 1089 1090
f 1051 1090 1091
f 1051 1091 1092
f 1051 1092 1052
f 1052 1092 1056
f 1052 1056 1053
f 1053 1056 1055
f 1054 1060 1093
f 1056 1092 1094
f 1056 1094 1058
f 1056 1058 1057
f 1058 1095 1096
f 1058 1096 1059
f 1058 1094 1095
f 1059 1096 1097
f 1059 1097 1060
f 1060 1097 1098
f 1060 1098 1099
f 1060 1099 1093
f 1061 1065 1062
f 1062 1065 1063
f 1063 1065 1100
f 1063 1100 1101
f 1063 1101 1081
f 1063 1081 1079
f 1064 1072 1065
f 1065 1072 1102
f 1065 1102 1100
f 1066 1078 1103
f 1066 1103 1067
f 1067 1103 1068
f 1068 1103 1104
f 1068 1104 1069
f 1069 1104 1105
f 1069 1105 1106
f 1069 1106 1073
f 1070 1107 1108
f 1070 1108 1109
f 1070 1109 1071
f 1070 1074 1110
f 1070 1110 1107
f 1071 1109 1072
f 1072 1109 1111
f 1072 1111 1102
f 1073 1106 1112
f 1073 1112 1113
f 1073 1113 1074
f 1074 1113 1110
f 1075 1114 1076
f 1076 1114 1115
f 1076 1115 1116
f 1076 1116 1077
f 1077 1116 1078
f 1078 1116 1117
f 1078 1117 1103
f 1080 1081 1118
f 1081 1101 1119
f 1081 1119 1120
f 1081 1120 1118
f 1083 1121 1084
f 1084 1121 1122
f 1084 1122 1123
f 1084 1123 1085
f 1085 1123 1124
f 1085 1124 1086
f 1086 1124 1087
f 1087 1124 1125
f 1087 1125 1126
f 1087 1126 1127
f 1087 1127 1088
f 1088 1127 1128
f 1088 1128 1129
f 1088 1129 1130
f 1088 1130 1089
f 1089 1130 1090
f 1090 1131 1132
f 1090 1132 1095
f 1090 1095 1091
f 1090 1130 1133
f 1090 1133 1134
f 1090 1134 1135
f 1090 1135 1131
f 1091 1095 1092
f 1092 1095 1094
f 1095 1136 1096
f 1095 1132 1137
f 1095 1137 1136
f 1096 1136 1097
f 1097 1136 1098
f 1098 1137 1138
f 1098 1138 1139
f 1098 1139 1140
f 1098 1140 1099
f 1098 1136 1137
f 1100 1141 1101
f 1100 1102 1142
f 1100 1142 1141
f 1101 1141 1119
f 1102 1111 1143
f 1102 1143 1142
f 1103 1117 1144
f 1103 1144 1104
f 1104 1144 1145
f 1104 1145 1105
f 1105 1145 1106
f 1106 1146 1112
f 1106 1145 1147
f 1106 1147 1148
f 1106 1148 1149
f 1106 1149 1150
f 1106 1150 1151
f 1106 1151 1146
f 1107 1152 1108
f 1107 1110 1152
f 1108 1152 1153
f 1108 1153 1111
f 1108 1111 1109
f 1110 1154 1152
f 1110 1113 1151
f 1110 1151 1155
f 1110 1155 1154
f 1111 1153 1143
f 1112 1146 1113
f 1113 1146 1151
f 1114 1156 1115
f 1115 1156 1157
f 1115 1157 1158
f 1115 1158 1117
f 1115 1117 1116
f 1117 1158 1159
f 1117 1159 1144
f 1119 1141 1120
f 1120 1141 1160
f 1121 1161 1122
f 1122 1161 1162
f 1122 1162 1163
f 1122 1163 1164
f 1122 1164 1123
f 1123 1164 1124
f 1124 1164 1125
f 1125 1164 1165
f 1125 1165 1126
f 1126 1165 1166
f 1126 1166 1128
f 1126 1128 1127
f 1128 1167 1129
f 1128 1166 1168
f 1128 1168 1167
f 1129 1167 1130
f 1130 1167 1133
f 1131 1135 1169
f 1131 1169 1137
f 1131 1137 1132
f 1133 1167 1170
f 1133 1170 1134
f 1134 1170 1171
f 1134 1171 1172
f 1134 1172 1173
f 1134 1173 1135
f 1135 1173 1174
f 1135 1174 1175
f 1135 1175 1169
f 1137 1169 1176
f 1137 1176 1177
f 1137 1177 1138
f 1138 1177 1139
f 1139 1177 1140
f 1140 1177 1178
f 1141 1142 1160
f 1142 1143 1179
f 1142 1179 1160
f 1143 1153 1180
f 1143 1180 1219
f 1143 1219 1181
f 1143 1181 1179
f 1144 1159 1145
f 1145 1159 1182
f 1145 1182 1183
f 1145 1183 1147
f 1147 1183 1184
f 1147 1184 1148
f 1148 1184 1185
f 1148 1185 1149
f 1149 1185 1186
f 1149 1186 1187
f 1149 1187 1151
f 1149 1151 1150
f 1151 1187 1155
f 1152 1188 1153
f 1152 1154 1188
f 1153 1188 1180
f 1154 1155 1189
f 1154 1189 1190
f 1154 1190 1188
f 1155 1187 1191
f 1155 1191 1189
f 1156 1159 1157
f 1156 1192 1159
f 1157 1159 1158
f 1159 1192 1193
f 1159 1193 1194
f 1159 1194 1195
f 1159 1195 1196
f 1159 1196 1197
f 1159 1197 1198
f 1159 1198 1182
f 1162 1199 1163
f 1162 1200 1201
f 1162 1201 1199
f 1163 1199 1202
f 1163 1202 1203
f 1163 1203 1164
f 1164 1203 1204
f 1164 1204 1165
f 1165 1204 1166
f 1166 1205 1206
f 1166 1206 1171
f 1166 1171 1168
f 1166 1204 1205
f 1167 1168 1171
f 1167 1171 1170
f 1169 1175 1176
f 1171 1206 1207
f 1171 1207 1208
f 1171 1208 1209
f 1171 1209 1210
f 1171 1210 1172
f 1172 1210 1173
f 1173 1210 1211
f 1173 1211 1174
f 1174 1211 1175
f 1175 1211 1212
f 1175 1212 1213
f 1175 1213 1214
f 1175 1214 1215
f 1175 1215 1216
f 1175 1216 1177
f 1175 1177 1176
f 1177 1216 1217
f 1177 1217 1178
f 1180 1188 1218
f 1180 1218 1219
f 1182 1198 1183
f 1183 1198 1220
f 1183 1220 1221
f 1183 1221 1184
f 1184 1221 1222
f 1184 1222 1223
f 1184 1223 1186
f 1184 1186 1185
f 1186 1223 1224
f 1186 1224 1225
f 1186 1225 1187
f 1187 1225 1191
f 1188 1190 1226
f 1188 1226 1227
f 1188 1227 1228
f 1188 1228 1218
f 1189 1191 1229
f 1189 1229 1230
f 1189 1230 1190
f 1190 1230 1226
f 1191 1225 1231
f 1191 1231 1229
f 1192 1194 1193
f 1195 1232 1196
f 1196 1233 1197
f 1196 1232 1234
f 1196 1234 1233
f 1197 1233 1198
f 1198 1233 1235
f 1198 1235 1220
f 1199 1201 1202
f 1200 1236 1201
f 1201 1236 1237
f 1201 1237 1202
f 1202 1237 1238
f 1202 1238 1239
f 1202 1239 1240
f 1202 1240 1241
f 1202 1241 1242
f 1202 1242 1203
f 1203 1242 1204
f 1204 1242 1241
f 1204 1241 1205
f 1205 1241 1243
f 1205 1243 1244
f 1205 1244 1206
f 1206 1244 1207
f 1207 1244 1208
f 1208 1244 1245
f 1208 1245 1246
f 1208 1246 1247
f 1208 1247 1209
f 1209 1247 1210
f 1210 1247 1246
f 1210 1246 1248
f 1210 1248 1211
f 1211 1248 1249
f 1211 1249 1250
f 1211 1250 1212
f 1212 1250 1213
f 1213 1249 1251
f 1213 1251 1252
f 1213 1252 1253
f 1213 1253 1254
f 1213 1254 1255
f 1213 1255 1215
f 1213 1215 1214
f 1213 1250 1249
f 1215 1255 1256
f 1215 1256 1216
f 1220 1235 1257
f 1220 1257 1258
f 1220 1258 1221
f 1221 1258 1259
f 1221 1259 1260
f 1221 1260 1261
f 1221 1261 1262
f 1221 1262 1222
f 1222 1262 1223
f 1223 1262 1224
f 1224 1262 1261
f 1224 1261 1263
f 1224 1263 1264
f 1224 1264 1265
f 1224 1265 1225
f 1225 1265 1231
f 1226 1230 1266
f 1229 1231 1267
f 1229 1267 1268
f 1229 1268 1230
f 1230 1268 1266
f 1231 1265 1269
f 1231 1269 1267
f 1232 1270 1234
f 1233 1234 1235
f 1234 1270 1235
f 1235 1270 1257
f 1236 1271 1237
f 1237 1271 1238
f 1238 1272 1273
f 1238 1273 1239
f 1238 1271 1272
f 1239 1273 1274
f 1239 1274 1275
f 1239 1275 1241
f 1239 1241 1240
f 1241 1275 1243
f 1243 1275 1276
f 1243 1276 1244
f 1244 1277 1278
f 1244 1278 1279
f 1244 1279 1280
f 1244 1280 1245
f 1244 1276 1277
f 1245 1280 1279
f 1245 1279 1281
f 1245 1281 1246
f 1246 1281 1282
f 1246 1282 1249
f 1246 1249 1248
f 1249 1282 1283
f 1249 1283 1251
f 1251 1283 1252
f 1252 1284 1285
f 1252 1285 1286
f 1252 1286 1254
f 1252 1254 1253
f 1252 1283 1284
f 1254 1286 1287
f 1254 1287 1255
f 1257 1270 1288
f 1257 1288 1289
f 1257 1289 1290
f 1257 1290 1258
f 1258 1290 1291
f 1258 1291 1259
f 1259 1291 1260
f 1260 1291 1292
f 1260 1292 1261
f 1261 1292 1263
f 1263 1292 1293
f 1263 1293 1264
f 1264 1293 1294
f 1264 1294 1295
f 1264 1295 1296
f 1264 1296 1265
f 1265 1296 1269
f 1266 1268 1297
f 1267 1269 1298
f 1267 1298 1268
f 1268 1298 1299
f 1268 1299 1300
f 1268 1300 1301
f 1268 1301 1297
f 1269 1302 1298
f 1269 1296 1295
f 1269 1295 1303
f 1269 1303 1302
f 1271 1304 1305
f 1271 1305 1272
f 1272 1305 1306
f 1272 1306 1273
f 1273 1306 1307
f 1273 1307 1274
f 1274 1276 1275
f 1274 1307 1276
f 1276 1307 1277
f 1277 1307 1308
f 1277 1308 1278
f 1278 1308 1309
f 1278 1309 1310
f 1278 1310 1279
f 1279 1310 1311
f 1279 1311 1281
f 1281 1311 1312
f 1281 1312 1282
f 1282 1312 1313
f 1282 1313 1283
f 1283 1313 1314
f 1283 1314 1284
f 1284 1314 1285
f 1285 1314 1315
f 1285 1315 1316
f 1285 1316 1317
f 1285 1317 1318
f 1285 1318 1287
f 1285 1287 1286
f 1288 1319 1320
f 1288 1320 1289
f 1289 1320 1290
f 1290 1320 1291
f 1291 1320 1292
f 1292 1320 1321
f 1292 1321 1293
f 1293 1322 1294
f 1293 1321 1323
f 1293 1323 1324
f 1293 1324 1322
f 1294 1322 1325
f 1294 1325 1326
f 1294 1326 1327
f 1294 1327 1295
f 1295 1327 1326
f 1295 1326 1328
f 1295 1328 1329
f 1295 1329 1303
f 1298 1302 1299
f 1299 1302 1330
f 1302 1303 1330
f 1303 1329 1331
f 1303 1331 1332
f 1303 1332 1330
f 1304 1333 1334
f 1304 1334 1305
f 1305 1334 1306
f 1306 1334 1335
f 1306 1335 1336
f 1306 1336 1307
f 1307 1336 1308
f 1308 1336 1337
f 1308 1337 1309
f 1309 1337 1338
f 1309 1338 1339
f 1309 1339 1340
f 1309 1340 1310
f 1310 1340 1311
f 1311 1340 1341
f 1311 1341 1342
f 1311 1342 1312
f 1312 1342 1314
f 1312 1314 1313
f 1314 1342 1343
f 1314 1343 1320
f 1314 1320 1344
f 1314 1344 1315
f 1319 1344 1320
f 1320 1343 1345
f 1320 1345 1321
f 1321 1345 1346
f 1321 1346 1323
f 1322 1324 1347
f 1322 1347 1339
f 1322 1339 1348
f 1322 1348 1325
f 1323 1346 1324
f 1324 1340 1347
f 1324 1346 1340
f 1325 1348 1326
f 1326 1348 1338
f 1326 1338 1328
f 1328 1338 1349
f 1328 1349 1350
f 1328 1350 1329
f 1329 1350 1351
f 1329 1351 1352
f 1329 1352 1331
f 1333 1353 1334
f 1334 1353 1354
f 1334 1354 1355
f 1334 1355 1335
f 1335 1355 1337
f 1335 1337 1336
f 1337 1355 1338
f 1338 1348 1339
f 1338 1355 1349
f 1339 1347 1340
f 1340 1346 1341
f 1341 1346 1342
f 1342 1346 1343
f 1343 1346 1345
f 1349 1355 1354
f 1349 1354 1350
f 1350 1354 1356
f 1350 1356 1357
f 1350 1357 1351
f 1353 1358 1354
f 1354 1358 1356

