# https://github.com/mikedh/trimesh
v 0.02514788 -0.00418811 0.05641172
v 0.02542068 -0.00432825 0.05641172
v 0.02514788 -0.00367751 0.05849568
v 0.02514788 0.00653049 0.05641172
v 0.02580454 -0.00447949 0.05641172
v 0.02635111 -0.00469040 0.05641172
v 0.02666435 -0.00476949 0.05641172
v 0.02699852 -0.00484996 0.05641172
v 0.02782276 -0.00496929 0.05641172
v 0.02786953 -0.00497484 0.05641172
v 0.02824316 -0.00476255 0.05692807
v 0.02903428 -0.00479446 0.05699927
v 0.02903428 -0.00446839 0.05759151
v 0.03012449 -0.00451696 0.05762456
v 0.03012449 -0.00397166 0.05847936
v 0.03012449 -0.00396056 0.05849568
v 0.02514788 0.00717985 0.05849568
v 0.02653379 0.00761276 0.05641172
v 0.02790509 -0.00497761 0.05641172
v 0.02903428 -0.00505809 0.05641172
v 0.02922621 -0.00506364 0.05641172
v 0.03012449 -0.00482776 0.05698519
v 0.03012449 -0.00480556 0.05703212
v 0.03012449 -0.00454332 0.05757703
v 0.03012449 0.00787778 0.05849568
v 0.03012449 0.00801237 0.05830657
v 0.03012449 0.00823437 0.05797811
v 0.03012449 0.00841891 0.05768107
v 0.03012449 0.00855628 0.05745993
v 0.03012449 0.00911128 0.05641172
v 0.02903428 0.00885321 0.05641172
v 0.02891006 0.00881019 0.05641172
v 0.02802980 0.00849800 0.05641172
v 0.02780766 0.00838839 0.05641172
v 0.02687381 0.00784864 0.05641172
v 0.02665411 0.00770434 0.05641172
v 0.03012449 -0.00506225 0.05641172
v 0.03012449 -0.00483192 0.05697540
f 1 2 3
f 1 3 17
f 1 17 4
f 1 4 18
f 1 18 36
f 1 36 35
f 1 35 34
f 1 34 33
f 1 33 32
f 1 32 31
f 1 31 30
f 1 30 37
f 1 37 21
f 1 21 20
f 1 20 19
f 1 19 10
f 1 10 9
f 1 9 8
f 1 8 7
f 1 7 6
f 1 6 5
f 1 5 2
f 2 5 3
f 3 5 6
f 3 6 7
f 3 7 8
f 3 8 9
f 3 9 10
f 3 10 11
f 3 11 12
f 3 12 13
f 3 13 14
f 3 14 15
f 3 15 16
f 3 16 25
f 3 25 17
f 4 17 18
f 10 19 12
f 10 12 11
f 12 19 20
f 12 20 21
f 12 21 22
f 12 22 23
f 12 23 24
f 12 24 13
f 13 24 14
f 14 24 23
f 14 23 22
f 14 22 38
f 14 38 37
f 14 37 30
f 14 30 29
f 14 29 28
f 14 28 27
f 14 27 26
f 14 26 25
f 14 25 16
f 14 16 15
f 17 25 26
f 17 26 27
f 17 27 28
f 17 28 29
f 17 29 30
f 17 30 31
f 17 31 32
f 17 32 33
f 17 33 34
f 17 34 35
f 17 35 36
f 17 36 18
f 21 37 38
f 21 38 22

