# https://github.com/mikedh/trimesh
v -0.01571951 0.00041505 0.04807413
v -0.01571951 0.00661138 0.03261802
v -0.01838942 -0.00084094 0.04449846
v -0.01838942 -0.00115108 0.04506797
v -0.01838942 -0.00158661 0.04557801
v -0.01838942 -0.00170319 0.04571138
v -0.01838942 -0.00225969 0.04631693
v -0.01838942 -0.00286019 0.04673326
v -0.01838942 -0.00379063 0.04729556
v -0.01838942 -0.00438013 0.04753526
v -0.01838942 -0.00533036 0.04780740
v -0.01838942 -0.00535236 0.04781280
v -0.01838942 -0.00651596 0.04800925
v -0.01838942 -0.00653796 0.04801105
v -0.01838942 -0.00770156 0.04805611
v -0.01746756 -0.00680191 0.04807413
v -0.01571951 -0.00786433 0.04807413
v -0.01571951 0.00684014 0.03180881
v -0.01838942 -0.00039221 0.04325491
v -0.01838942 -0.00039661 0.04326933
v -0.01838942 -0.00772355 0.04805611
v -0.01705355 -0.00757398 0.04807413
v -0.01838942 -0.00888715 0.04795698
v -0.01838942 -0.00890695 0.04795518
v -0.01838942 -0.01009255 0.04771008
v -0.01571951 -0.00862540 0.04787228
v -0.01597617 0.00651680 0.03140511
v -0.01571951 0.00693473 0.03140511
v -0.01838942 -0.00024264 0.04209066
v -0.01646337 0.00565675 0.03140511
v -0.01652375 0.00579972 0.03022103
v -0.01683373 0.00520582 0.03022103
v -0.01710164 0.00470871 0.02966413
v -0.01735595 0.00414561 0.02966413
v -0.01749892 0.00378047 0.02966413
v -0.01768450 0.00327676 0.02966413
v -0.01838942 -0.01089321 0.04747939
v -0.01571951 -0.00947445 0.04753165
v -0.01768450 -0.01070624 0.04741991
v -0.01571951 0.00714589 0.03022103
v -0.01610398 0.00651680 0.03022103
v -0.01838942 -0.00024044 0.04206903
v -0.01788575 0.00268506 0.02966413
v -0.01637764 0.00613846 0.02966413
v -0.01654805 0.00584591 0.02966413
v -0.01667403 0.00560616 0.02966413
v -0.01682955 0.00530041 0.02966413
v -0.01838942 -0.01090641 0.04747398
v -0.01571951 -0.00990998 0.04728114
v -0.01838942 -0.01148491 0.04722887
v -0.01689489 -0.01049728 0.04733341
v -0.01599865 -0.01025092 0.04717841
v -0.01571951 0.00718108 0.02996331
v -0.01617900 0.00646621 0.02966413
v -0.01838445 -0.00059458 0.02966413
v -0.01838942 -0.00032183 0.04088495
v -0.01801984 0.00221434 0.02966413
v -0.01812177 0.00177661 0.02966413
v -0.01821195 0.00122011 0.02966413
v -0.01831205 0.00059102 0.02966413
v -0.01571951 -0.01020033 0.04709731
v -0.01838942 -0.01254512 0.04659989
v -0.01834028 -0.01250993 0.04660530
v -0.01718345 -0.01212720 0.04641426
v -0.01606478 -0.01124955 0.04654402
v -0.01571951 0.00721408 0.02966413
v -0.01588365 0.00695012 0.02966413
v -0.01832355 -0.00177798 0.02966413
v -0.01838942 -0.01136833 0.03467439
v -0.01838942 -0.01007275 0.03431935
v -0.01838942 -0.00888715 0.03425627
v -0.01838942 -0.00770156 0.03439865
v -0.01838942 -0.00654236 0.03464375
v -0.01838942 -0.00533256 0.03503124
v -0.01838942 -0.00448571 0.03539529
v -0.01838942 -0.00447251 0.03540250
v -0.01838942 -0.00389621 0.03575755
v -0.01838942 -0.00286899 0.03639194
v -0.01838942 -0.00236088 0.03672355
v -0.01838942 -0.00203093 0.03712545
v -0.01838942 -0.00195614 0.03722638
v -0.01838942 -0.00128746 0.03812931
v -0.01838942 -0.00100371 0.03872225
v -0.01838942 -0.00062317 0.03969907
v -0.01571951 -0.01090201 0.04663053
v -0.01838942 -0.01259572 0.04656565
v -0.01650388 -0.01190943 0.04626827
v -0.01838942 -0.01307303 0.04623403
v -0.01792627 -0.01295205 0.04612770
v -0.01571951 -0.01110217 0.04648454
v -0.01571951 -0.01008595 0.02966413
v -0.01816751 -0.00296357 0.02966413
v -0.01781152 -0.00487284 0.02966413
v -0.01838942 -0.01158169 0.03478974
v -0.01807106 -0.00352008 0.02966413
v -0.01794901 -0.00419316 0.02966413
v -0.01571951 -0.01164988 0.04595288
v -0.01571951 -0.01164328 0.04596009
v -0.01838942 -0.01357015 0.04563388
v -0.01745789 -0.01323581 0.04533831
v -0.01711105 -0.01275409 0.04568975
v -0.01571951 -0.01287507 0.03969907
v -0.01623911 -0.01335019 0.03969907
v -0.01690195 -0.01394408 0.03969907
v -0.01763092 -0.01433782 0.03878713
v -0.01838942 -0.01485473 0.03847534
v -0.01838942 -0.01484593 0.03845191
v -0.01838942 -0.01480194 0.03834197
v -0.01838942 -0.01439501 0.03733091
v -0.01838942 -0.01357015 0.03619729
v -0.01838942 -0.01351956 0.03615404
v -0.01838942 -0.01235376 0.03521326
v -0.01600048 -0.00956684 0.02966413
v -0.01734498 -0.00651596 0.02966413
v -0.01606478 -0.01214919 0.04558702
v -0.01571951 -0.01205901 0.04540680
v -0.01838942 -0.01411345 0.04481386
v -0.01666802 -0.01298505 0.04492199
v -0.01571951 -0.01312143 0.04088495
v -0.01749422 -0.01445660 0.03969907
v -0.01823416 -0.01504829 0.03969907
v -0.01838942 -0.01516707 0.03969907
v -0.01687921 -0.00775215 0.02966413
v -0.01673781 -0.00809749 0.02966413
v -0.01662281 -0.00836584 0.02966413
v -0.01651434 -0.00860120 0.02966413
v -0.01636222 -0.00889595 0.02966413
v -0.01571951 -0.01241315 0.04475979
v -0.01838942 -0.01437741 0.04428760
v -0.01809720 -0.01402547 0.04464445
v -0.01777075 -0.01422344 0.04385506
v -0.01571951 -0.01311923 0.04206903
v -0.01610398 -0.01345137 0.04088495
v -0.01680368 -0.01404527 0.04088495
v -0.01739594 -0.01452039 0.04088495
v -0.01818450 -0.01511208 0.04088495
v -0.01838942 -0.01525726 0.04088495
v -0.01571951 -0.01251873 0.04447503
v -0.01642678 -0.01315662 0.04413080
v -0.01838942 -0.01477554 0.04325491
v -0.01838942 -0.01478214 0.04323148
v -0.01838942 -0.01507249 0.04218257
v -0.01765993 -0.01430262 0.04325491
v -0.01706740 -0.01388030 0.04325491
v -0.01625244 -0.01328860 0.04325491
v -0.01610320 -0.01342497 0.04206903
v -0.01571951 -0.01289047 0.04325491
v -0.01686457 -0.01401667 0.04206903
v -0.01838942 -0.01522426 0.04116069
v -0.01745684 -0.01445220 0.04206903
v -0.01571951 -0.01287067 0.04332159
v -0.01838942 -0.01508349 0.04213391
f 1 2 3
f 1 3 4
f 1 4 5
f 1 5 6
f 1 6 7
f 1 7 8
f 1 8 9
f 1 9 10
f 1 10 11
f 1 11 12
f 1 12 13
f 1 13 14
f 1 14 15
f 1 15 16
f 1 16 22
f 1 22 17
f 1 17 26
f 1 26 38
f 1 38 49
f 1 49 61
f 1 61 85
f 1 85 90
f 1 90 98
f 1 98 97
f 1 97 116
f 1 116 128
f 1 128 138
f 1 138 151
f 1 151 147
f 1 147 132
f 1 132 119
f 1 119 102
f 1 102 91
f 1 91 66
f 1 66 53
f 1 53 40
f 1 40 28
f 1 28 18
f 1 18 2
f 2 18 19
f 2 19 20
f 2 20 3
f 3 20 19
f 3 19 29
f 3 29 42
f 3 42 56
f 3 56 84
f 3 84 83
f 3 83 82
f 3 82 81
f 3 81 80
f 3 80 79
f 3 79 78
f 3 78 77
f 3 77 76
f 3 76 75
f 3 75 74
f 3 74 73
f 3 73 72
f 3 72 71
f 3 71 70
f 3 70 69
f 3 69 94
f 3 94 112
f 3 112 111
f 3 111 110
f 3 110 109
f 3 109 108
f 3 108 107
f 3 107 106
f 3 106 122
f 3 122 137
f 3 137 149
f 3 149 152
f 3 152 142
f 3 142 141
f 3 141 140
f 3 140 129
f 3 129 117
f 3 117 99
f 3 99 88
f 3 88 86
f 3 86 62
f 3 62 50
f 3 50 48
f 3 48 37
f 3 37 25
f 3 25 24
f 3 24 23
f 3 23 21
f 3 21 15
f 3 15 14
f 3 14 13
f 3 13 12
f 3 12 11
f 3 11 10
f 3 10 9
f 3 9 8
f 3 8 7
f 3 7 6
f 3 6 5
f 3 5 4
f 15 21 16
f 16 21 22
f 17 22 21
f 17 21 23
f 17 23 24
f 17 24 25
f 17 25 26
f 18 27 19
f 18 28 27
f 19 27 30
f 19 30 31
f 19 31 32
f 19 32 33
f 19 33 34
f 19 34 35
f 19 35 36
f 19 36 29
f 25 37 26
f 26 37 39
f 26 39 38
f 27 28 40
f 27 40 41
f 27 41 31
f 27 31 30
f 29 36 43
f 29 43 42
f 31 41 44
f 31 44 45
f 31 45 46
f 31 46 32
f 32 46 47
f 32 47 33
f 33 47 46
f 33 46 45
f 33 45 44
f 33 44 54
f 33 54 67
f 33 67 66
f 33 66 91
f 33 91 113
f 33 113 127
f 33 127 126
f 33 126 125
f 33 125 124
f 33 124 123
f 33 123 114
f 33 114 93
f 33 93 96
f 33 96 95
f 33 95 92
f 33 92 68
f 33 68 55
f 33 55 60
f 33 60 59
f 33 59 58
f 33 58 57
f 33 57 43
f 33 43 36
f 33 36 35
f 33 35 34
f 37 48 39
f 38 39 50
f 38 50 51
f 38 51 52
f 38 52 49
f 39 48 50
f 40 53 41
f 41 54 44
f 41 53 54
f 42 55 56
f 42 43 57
f 42 57 58
f 42 58 59
f 42 59 60
f 42 60 55
f 49 52 61
f 50 62 63
f 50 63 51
f 51 63 52
f 52 63 64
f 52 64 65
f 52 65 61
f 53 66 67
f 53 67 54
f 55 68 69
f 55 69 70
f 55 70 71
f 55 71 72
f 55 72 73
f 55 73 74
f 55 74 75
f 55 75 76
f 55 76 77
f 55 77 78
f 55 78 79
f 55 79 80
f 55 80 81
f 55 81 82
f 55 82 83
f 55 83 84
f 55 84 56
f 61 65 85
f 62 86 63
f 63 86 64
f 64 87 65
f 64 86 88
f 64 88 89
f 64 89 87
f 65 90 85
f 65 87 90
f 68 92 69
f 69 93 94
f 69 92 95
f 69 95 96
f 69 96 93
f 87 97 98
f 87 98 90
f 87 89 97
f 88 99 89
f 89 99 100
f 89 100 101
f 89 101 97
f 91 102 103
f 91 103 104
f 91 104 105
f 91 105 106
f 91 106 107
f 91 107 108
f 91 108 109
f 91 109 110
f 91 110 111
f 91 111 112
f 91 112 113
f 93 114 112
f 93 112 94
f 97 101 115
f 97 115 116
f 99 117 100
f 100 118 116
f 100 116 101
f 100 117 118
f 101 116 115
f 102 119 103
f 103 119 104
f 104 119 120
f 104 120 105
f 105 120 121
f 105 121 106
f 106 121 122
f 112 114 123
f 112 123 124
f 112 124 125
f 112 125 126
f 112 126 127
f 112 127 113
f 116 118 128
f 117 129 130
f 117 130 118
f 118 130 131
f 118 131 128
f 119 132 133
f 119 133 120
f 120 133 134
f 120 134 135
f 120 135 121
f 121 135 122
f 122 135 136
f 122 136 137
f 128 131 139
f 128 139 138
f 129 140 131
f 129 131 130
f 131 140 141
f 131 141 142
f 131 142 143
f 131 143 144
f 131 144 145
f 131 145 139
f 132 146 135
f 132 135 134
f 132 134 133
f 132 147 146
f 135 146 148
f 135 148 136
f 136 149 137
f 136 148 150
f 136 150 149
f 138 139 151
f 139 145 151
f 142 152 150
f 142 150 143
f 143 150 144
f 144 150 145
f 145 150 148
f 145 148 147
f 145 147 151
f 146 147 148
f 149 150 152

