# https://github.com/mikedh/trimesh
v 0.02514788 -0.01460079 0.06321566
v 0.02514788 -0.01363538 0.06264324
v 0.03012449 -0.00396059 0.05849589
v 0.02561456 -0.01370623 0.06321566
v 0.02514788 0.01555431 0.06321566
v 0.02514788 -0.01343167 0.06253560
v 0.03012449 -0.00130349 0.06321566
v 0.02941522 -0.00430601 0.06321566
v 0.02916873 -0.00523305 0.06321566
v 0.02914145 -0.00533047 0.06321566
v 0.02875661 -0.00661474 0.06321566
v 0.02854470 -0.00725539 0.06321566
v 0.02838930 -0.00770119 0.06321566
v 0.02831185 -0.00791376 0.06321566
v 0.02816181 -0.00829166 0.06321566
v 0.02798790 -0.00872565 0.06321566
v 0.02789291 -0.00895889 0.06321566
v 0.02738385 -0.01011030 0.06321566
v 0.02719630 -0.01050296 0.06321566
v 0.02678564 -0.01133551 0.06321566
v 0.02514788 -0.01211788 0.06186847
v 0.02514788 -0.01125580 0.06144066
v 0.02514788 -0.01109342 0.06136489
v 0.02514788 -0.01008963 0.06089781
v 0.02514788 -0.00972354 0.06072780
v 0.02514788 -0.00888803 0.06035635
v 0.02514788 -0.00845404 0.06018634
v 0.02514788 -0.00770119 0.05989898
v 0.02514788 -0.00367717 0.05849589
v 0.03012449 0.00787825 0.05849589
v 0.02555659 0.01500518 0.06321566
v 0.02514788 0.01527679 0.06293938
v 0.03012449 0.00467793 0.06321566
v 0.02514788 0.00717855 0.05849589
v 0.02514788 0.00938689 0.05940926
v 0.02514788 0.00983565 0.05961207
v 0.02514788 0.01007479 0.05972526
v 0.02514788 0.01115829 0.06026857
v 0.02514788 0.01125572 0.06031755
v 0.02514788 0.01169562 0.06055640
v 0.02514788 0.01208237 0.06076846
v 0.02514788 0.01241599 0.06095603
v 0.02514788 0.01311569 0.06135427
v 0.02514788 0.01331054 0.06146561
v 0.02514788 0.01397777 0.06186893
v 0.02514788 0.01480442 0.06251758
v 0.02582939 0.01461842 0.06321566
v 0.02635842 0.01378882 0.06321566
v 0.02707013 0.01244256 0.06321566
v 0.02758504 0.01141515 0.06321566
v 0.02771267 0.01114648 0.06321566
v 0.02818617 0.01007184 0.06321566
v 0.02829724 0.00978841 0.06321566
v 0.02862849 0.00894109 0.06321566
v 0.02871471 0.00870195 0.06321566
v 0.02995546 0.00519459 0.06321566
v 0.03012449 0.00772178 0.05872781
f 1 2 3
f 1 3 4
f 1 4 20
f 1 20 19
f 1 19 18
f 1 18 17
f 1 17 16
f 1 16 15
f 1 15 14
f 1 14 13
f 1 13 12
f 1 12 11
f 1 11 10
f 1 10 9
f 1 9 8
f 1 8 7
f 1 7 33
f 1 33 56
f 1 56 55
f 1 55 54
f 1 54 53
f 1 53 52
f 1 52 51
f 1 51 50
f 1 50 49
f 1 49 48
f 1 48 47
f 1 47 31
f 1 31 5
f 1 5 32
f 1 32 46
f 1 46 45
f 1 45 44
f 1 44 43
f 1 43 42
f 1 42 41
f 1 41 40
f 1 40 39
f 1 39 38
f 1 38 37
f 1 37 36
f 1 36 35
f 1 35 34
f 1 34 29
f 1 29 28
f 1 28 27
f 1 27 26
f 1 26 25
f 1 25 24
f 1 24 23
f 1 23 22
f 1 22 21
f 1 21 6
f 1 6 2
f 2 6 3
f 3 7 8
f 3 8 9
f 3 9 10
f 3 10 11
f 3 11 12
f 3 12 13
f 3 13 14
f 3 14 15
f 3 15 16
f 3 16 17
f 3 17 18
f 3 18 19
f 3 19 20
f 3 20 4
f 3 6 21
f 3 21 22
f 3 22 23
f 3 23 24
f 3 24 25
f 3 25 26
f 3 26 27
f 3 27 28
f 3 28 29
f 3 29 34
f 3 34 30
f 3 30 57
f 3 57 33
f 3 33 7
f 5 31 30
f 5 30 32
f 30 34 35
f 30 35 36
f 30 36 37
f 30 37 38
f 30 38 39
f 30 39 40
f 30 40 41
f 30 41 42
f 30 42 43
f 30 43 44
f 30 44 45
f 30 45 46
f 30 46 32
f 30 31 47
f 30 47 48
f 30 48 49
f 30 49 50
f 30 50 51
f 30 51 52
f 30 52 53
f 30 53 54
f 30 54 55
f 30 55 56
f 30 56 57
f 33 57 56

