# https://github.com/mikedh/trimesh
v -0.00177418 0.01715682 0.05029075
v -0.00059359 0.01702676 0.05029075
v 0.00165295 0.01345157 0.04807435
v 0.00023167 0.01357830 0.04807435
v -0.00296240 0.01645979 0.04984964
v -0.00296240 0.01715349 0.05029075
v -0.00032233 0.01697006 0.05029075
v 0.00278386 0.01327147 0.04807435
v -0.00060124 0.01354828 0.04807435
v -0.00296240 0.01586949 0.04951029
v -0.00414680 0.01581946 0.04953329
v -0.00414680 0.01641310 0.04988002
v -0.00414680 0.01706678 0.05029075
v -0.00397487 0.01708012 0.05029075
v 0.00059081 0.01675328 0.05029075
v 0.00533224 0.01261447 0.04807435
v -0.00156022 0.01346824 0.04807435
v -0.00414680 0.01481227 0.04898890
v -0.00533120 0.01572274 0.04958667
v -0.00533120 0.01631639 0.04994121
v -0.00533120 0.01688335 0.05029075
v -0.00496442 0.01694338 0.05029075
v 0.00179431 0.01636641 0.05029075
v 0.00660451 0.01221426 0.04807435
v -0.00255359 0.01331816 0.04807435
v -0.00360427 0.01314474 0.04807435
v -0.00533120 0.01481227 0.04909457
v -0.00651561 0.01561936 0.04964482
v -0.00651561 0.01621300 0.05000586
v -0.00650032 0.01667324 0.05029075
v 0.00288702 0.01599289 0.05029075
v 0.00662362 0.01220759 0.04807435
v -0.00476957 0.01289795 0.04807435
v -0.00651561 0.01481227 0.04922801
v -0.00747459 0.01551264 0.04970796
v -0.00702375 0.01656985 0.05029075
v 0.00417840 0.01552598 0.05029075
v 0.00730369 0.01194412 0.04807435
v -0.00717658 0.01204750 0.04807435
v -0.00727591 0.01310138 0.04855951
v -0.00651561 0.01381842 0.04876411
v -0.00780317 0.01492567 0.04947579
v -0.00826546 0.01539258 0.04977847
v -0.00780317 0.01594286 0.05002084
v -0.00776114 0.01639976 0.05029075
v 0.00529403 0.01507241 0.05029075
v 0.01820401 0.00695152 0.04807435
v -0.00766180 0.01185407 0.04807435
v -0.00768090 0.01354828 0.04882834
v -0.00888441 0.01362832 0.04909175
v -0.00888441 0.01525584 0.04984639
v -0.00962944 0.01575276 0.05029075
v -0.00893408 0.01603624 0.05029075
v -0.00888441 0.01605292 0.05029075
v -0.00818905 0.01627637 0.05029075
v -0.00888441 0.01466220 0.04956475
v -0.01007263 0.01439205 0.04969060
v 0.00581746 0.01480560 0.05029075
v 0.01821165 0.00695152 0.04807825
v 0.01821165 0.00694485 0.04807435
v -0.00820433 0.01161728 0.04807435
v -0.00806297 0.01294130 0.04862872
v -0.01007263 0.01362832 0.04933671
v -0.01007263 0.01498570 0.04997701
v -0.01010702 0.01554599 0.05029075
v -0.01070686 0.01424531 0.04976133
v 0.00661215 0.01433536 0.05029075
v 0.01821165 0.00692818 0.04813553
v 0.00770104 0.01359831 0.05029075
v 0.01821165 -0.00500135 0.04807435
v -0.00958359 0.01089024 0.04807435
v -0.01006881 0.01238435 0.04880577
v -0.01125703 0.01244104 0.04909370
v -0.01116534 0.01362832 0.04959079
v -0.01116534 0.01470889 0.05011305
v -0.01057314 0.01533921 0.05029075
v -0.01220456 0.01323145 0.04967671
v -0.01299161 0.01301134 0.04978455
v 0.01821165 0.00648795 0.04914708
v 0.00886252 0.01274787 0.05029075
v 0.01821165 -0.00484794 0.04882291
v 0.00702861 -0.01279873 0.05029075
v 0.00661215 -0.01308888 0.05029075
v 0.00620334 -0.01336236 0.05029075
v 0.00554237 -0.01378257 0.05029075
v 0.00530549 -0.01392932 0.05029075
v 0.00859125 -0.01085439 0.04807435
v -0.01052347 0.01037664 0.04807435
v -0.01237649 0.01117705 0.04884960
v -0.01253695 0.01254776 0.04945366
v -0.01119208 0.01503239 0.05029075
v -0.01362584 0.01362832 0.05028403
v -0.01165056 0.01477892 0.05029075
v -0.01140604 0.01491900 0.05029075
v -0.01362584 0.01223093 0.04959665
v -0.01362584 0.01282457 0.04987655
v 0.01821165 0.00602438 0.04990584
v 0.01821165 0.00572756 0.05029075
v 0.01821165 -0.00481792 0.04893140
v 0.00816334 -0.01194829 0.05029075
v 0.00462159 -0.01431619 0.05029075
v 0.00765137 -0.01141468 0.04807435
v -0.01111567 0.00993974 0.04807435
v -0.01194093 0.01072682 0.04856384
v -0.01362584 0.01125709 0.04922345
v -0.01438615 0.01198414 0.04971034
v -0.01422950 0.01325146 0.05029075
v -0.01364494 0.01362832 0.05029075
v -0.01363348 0.01363500 0.05029075
v 0.01821165 -0.00420427 0.05029075
v 0.01821165 -0.00470119 0.04927943
v 0.01821165 -0.00438436 0.04995770
v 0.01821165 -0.00422094 0.05026363
v 0.00414401 -0.01456965 0.05029075
v 0.00293287 -0.01520331 0.05029075
v 0.00525964 -0.01260196 0.04807435
v -0.01178428 0.00941947 0.04807435
v -0.01273181 0.01037997 0.04866973
v -0.01356471 0.01001978 0.04882226
v -0.01479496 0.01122374 0.04959643
v -0.01517702 0.01159727 0.04985941
v -0.01570809 0.01214756 0.05029075
v -0.01534513 0.01246439 0.05029075
v -0.01479496 0.01240436 0.05006119
v -0.01479496 0.01286793 0.05029075
v 0.00231392 -0.01550013 0.05029075
v 0.00177521 -0.01574026 0.05029075
v 0.00127470 -0.01595370 0.05029075
v 0.00082769 -0.01614047 0.05029075
v 0.00049147 -0.01628054 0.05029075
v 0.00414401 -0.01300217 0.04807435
v -0.01234974 0.00878581 0.04807435
v -0.01313297 0.00958956 0.04855668
v -0.01481024 0.01007315 0.04924927
v -0.01553234 0.01080686 0.04972488
v -0.01595644 0.01122374 0.05002865
v -0.01630029 0.01156058 0.05029075
v -0.01508151 0.01266449 0.05029075
v -0.00018861 -0.01651066 0.05029075
v -0.00059359 -0.01662739 0.05029075
v 0.00307041 -0.01325897 0.04807435
v -0.01290756 0.00815215 0.04807435
v -0.01471090 0.00879248 0.04885676
v -0.01599846 0.00888586 0.04932717
v -0.01595644 0.00999644 0.04962854
v -0.01632322 0.01034329 0.04987655
v -0.01686957 0.01092025 0.05029075
v -0.01655628 0.01128711 0.05029075
v -0.00115523 -0.01671743 0.05029075
v 0.00177521 -0.01353911 0.04807435
v 0.00185544 -0.01352577 0.04807435
v -0.01327052 0.00767190 0.04807435
v -0.01425243 0.00833224 0.04857751
v -0.01599846 0.00770191 0.04902448
v -0.01687721 0.00888586 0.04965718
v -0.01664797 0.00955288 0.04974940
v -0.01709881 0.00999644 0.05007920
v -0.01717522 0.01054005 0.05029075
v -0.00177418 -0.01680414 0.05029075
v 0.00067868 -0.01368252 0.04807435
v -0.01343098 0.00745845 0.04807435
v -0.01507004 0.00770191 0.04870228
v -0.01532603 0.00696153 0.04861613
v -0.01595644 0.00654798 0.04876238
v -0.01718287 0.00651463 0.04921564
v -0.01725928 0.00775194 0.04951441
v -0.01770630 0.00817883 0.04980169
v -0.01746941 0.00888586 0.04989911
v -0.01836727 0.00888586 0.05027318
v -0.01839019 0.00891254 0.05029075
v -0.01756875 0.01003646 0.05029075
v -0.01737008 0.01029326 0.05029075
v 0.00059081 -0.01369253 0.04807435
v -0.00296240 -0.01691420 0.05029075
v -0.01434794 0.00604772 0.04807435
v -0.01468034 0.00533402 0.04807435
v -0.01718287 0.00533068 0.04902058
v -0.01845132 0.00537070 0.04953416
v -0.01814185 0.00651463 0.04961162
v -0.01792789 0.00738842 0.04970253
v -0.01631558 0.00533068 0.04868926
v -0.01834052 0.00775194 0.04997462
v -0.01881810 0.00816882 0.05029075
v -0.01840930 0.00888253 0.05029075
v -0.00059359 -0.01377590 0.04807435
v -0.00414680 -0.01688085 0.05029075
v -0.00177418 -0.01376923 0.04807435
v -0.01473001 0.00522063 0.04807435
v -0.01906645 0.00500051 0.04972314
v -0.01649133 0.00437018 0.04862633
v -0.01890216 0.00579092 0.04979952
v -0.01873405 0.00651463 0.04987633
v -0.01927276 0.00729504 0.05029075
v -0.01905881 0.00772192 0.05029075
v -0.00457471 -0.01679414 0.05029075
v -0.00407803 -0.01341572 0.04807435
v -0.00296240 -0.01361582 0.04807435
v -0.01501273 0.00440687 0.04807435
v -0.01836727 0.00414674 0.04934431
v -0.01916196 0.00414674 0.04967997
v -0.01975799 0.00414674 0.04995770
v -0.02027759 0.00477706 0.05029075
v -0.02011713 0.00535069 0.05029075
v -0.01996812 0.00575757 0.05029075
v -0.01510825 0.00412339 0.04807435
v -0.01605577 0.00404335 0.04842498
v -0.01659448 0.00357977 0.04858554
v -0.01706825 0.00404335 0.04881662
v -0.01963954 0.00650796 0.05029075
v -0.01955167 0.00651463 0.05025148
v -0.01955167 0.00669806 0.05029075
v -0.00535031 -0.01660404 0.05029075
v -0.00533120 -0.01308221 0.04807435
v -0.01667090 0.00295945 0.04855386
v -0.01726310 0.00295945 0.04879514
v -0.01746560 -0.00679895 0.04807435
v -0.02061381 0.00295945 0.05029075
v -0.02043042 0.00414674 0.05029075
v -0.01554380 0.00252589 0.04807435
v -0.01960134 0.00659134 0.05029075
v -0.00607623 -0.01637392 0.05029075
v -0.00646594 -0.01624719 0.05029075
v -0.00667607 -0.01258195 0.04807435
v -0.01705296 -0.00757268 0.04807435
v -0.01830232 -0.00651547 0.05029075
v -0.01835962 -0.00640208 0.05029075
v -0.01885249 -0.00539822 0.05029075
v -0.02053358 -0.00177634 0.05029075
v -0.02073607 -0.00094591 0.05029075
v -0.02082013 -0.00059239 0.05029075
v -0.02081248 0.00059156 0.05029075
v -0.02074371 0.00178551 0.05029075
v -0.00718422 -0.01595704 0.05029075
v -0.00770001 -0.01574693 0.05029075
v -0.00712309 -0.01238185 0.04807435
v -0.01368697 -0.01197163 0.05029075
v -0.01435940 -0.01133130 0.05029075
v -0.01486755 -0.01077768 0.05029075
v -0.01544447 -0.01014068 0.05029075
v -0.01743121 -0.00765939 0.05029075
v -0.00770001 -0.01211504 0.04807435
v -0.00886531 -0.01519331 0.05029075
v -0.00964090 -0.01479310 0.05029075
v -0.01007263 -0.01456631 0.05029075
v -0.01055786 -0.01428283 0.05029075
v -0.01120737 -0.01389930 0.05029075
v -0.01248346 -0.01301551 0.05029075
v -0.01311387 -0.01248190 0.05029075
v -0.00813938 -0.01554015 0.05029075
f 1 2 3
f 1 3 4
f 1 4 5
f 1 5 6
f 1 6 14
f 1 14 13
f 1 13 22
f 1 22 21
f 1 21 30
f 1 30 36
f 1 36 45
f 1 45 55
f 1 55 54
f 1 54 53
f 1 53 52
f 1 52 65
f 1 65 76
f 1 76 91
f 1 91 94
f 1 94 93
f 1 93 109
f 1 109 108
f 1 108 107
f 1 107 125
f 1 125 138
f 1 138 123
f 1 123 122
f 1 122 137
f 1 137 148
f 1 148 147
f 1 147 158
f 1 158 172
f 1 172 171
f 1 171 170
f 1 170 184
f 1 184 183
f 1 183 194
f 1 194 193
f 1 193 211
f 1 211 220
f 1 220 209
f 1 209 204
f 1 204 203
f 1 203 202
f 1 202 218
f 1 218 217
f 1 217 232
f 1 232 231
f 1 231 230
f 1 230 229
f 1 229 228
f 1 228 227
f 1 227 226
f 1 226 225
f 1 225 240
f 1 240 239
f 1 239 238
f 1 238 237
f 1 237 236
f 1 236 248
f 1 248 247
f 1 247 246
f 1 246 245
f 1 245 244
f 1 244 243
f 1 243 242
f 1 242 249
f 1 249 234
f 1 234 233
f 1 233 222
f 1 222 221
f 1 221 212
f 1 212 195
f 1 195 186
f 1 186 174
f 1 174 159
f 1 159 149
f 1 149 140
f 1 140 139
f 1 139 130
f 1 130 129
f 1 129 128
f 1 128 127
f 1 127 126
f 1 126 115
f 1 115 114
f 1 114 101
f 1 101 86
f 1 86 85
f 1 85 84
f 1 84 83
f 1 83 82
f 1 82 100
f 1 100 110
f 1 110 98
f 1 98 80
f 1 80 69
f 1 69 67
f 1 67 58
f 1 58 46
f 1 46 37
f 1 37 31
f 1 31 23
f 1 23 15
f 1 15 7
f 1 7 2
f 2 7 8
f 2 8 3
f 3 8 16
f 3 16 24
f 3 24 32
f 3 32 38
f 3 38 47
f 3 47 60
f 3 60 70
f 3 70 87
f 3 87 102
f 3 102 116
f 3 116 131
f 3 131 141
f 3 141 151
f 3 151 150
f 3 150 160
f 3 160 173
f 3 173 185
f 3 185 187
f 3 187 197
f 3 197 196
f 3 196 213
f 3 213 223
f 3 223 235
f 3 235 241
f 3 241 224
f 3 224 216
f 3 216 219
f 3 219 205
f 3 205 198
f 3 198 188
f 3 188 176
f 3 176 175
f 3 175 161
f 3 161 152
f 3 152 142
f 3 142 132
f 3 132 117
f 3 117 103
f 3 103 88
f 3 88 71
f 3 71 61
f 3 61 48
f 3 48 39
f 3 39 33
f 3 33 26
f 3 26 25
f 3 25 17
f 3 17 9
f 3 9 4
f 4 9 5
f 5 10 11
f 5 11 12
f 5 12 13
f 5 13 14
f 5 14 6
f 5 9 10
f 7 15 8
f 8 15 16
f 9 17 11
f 9 11 10
f 11 18 19
f 11 19 12
f 11 17 18
f 12 19 20
f 12 20 21
f 12 21 22
f 12 22 13
f 15 23 24
f 15 24 16
f 17 25 18
f 18 25 26
f 18 26 27
f 18 27 19
f 19 27 28
f 19 28 20
f 20 28 29
f 20 29 21
f 21 29 30
f 23 31 24
f 24 31 32
f 26 33 27
f 27 33 34
f 27 34 28
f 28 34 35
f 28 35 29
f 29 35 36
f 29 36 30
f 31 37 32
f 32 37 38
f 33 39 40
f 33 40 41
f 33 41 34
f 34 41 42
f 34 42 35
f 35 42 43
f 35 43 44
f 35 44 45
f 35 45 36
f 37 46 38
f 38 46 47
f 39 48 49
f 39 49 40
f 40 49 42
f 40 42 41
f 42 49 50
f 42 50 43
f 43 51 52
f 43 52 53
f 43 53 54
f 43 54 55
f 43 55 44
f 43 50 56
f 43 56 57
f 43 57 51
f 44 55 45
f 46 58 59
f 46 59 47
f 47 59 60
f 48 61 62
f 48 62 49
f 49 62 50
f 50 63 56
f 50 62 61
f 50 61 63
f 51 57 64
f 51 64 52
f 52 64 65
f 56 63 57
f 57 63 66
f 57 66 64
f 58 67 59
f 59 68 79
f 59 79 97
f 59 97 98
f 59 98 110
f 59 110 113
f 59 113 112
f 59 112 111
f 59 111 99
f 59 99 81
f 59 81 70
f 59 70 60
f 59 67 69
f 59 69 68
f 61 71 72
f 61 72 63
f 63 72 73
f 63 73 74
f 63 74 66
f 64 66 75
f 64 75 76
f 64 76 65
f 66 74 77
f 66 77 78
f 66 78 75
f 68 69 79
f 69 80 79
f 70 81 82
f 70 82 83
f 70 83 84
f 70 84 85
f 70 85 86
f 70 86 87
f 71 88 73
f 71 73 72
f 73 88 89
f 73 89 90
f 73 90 74
f 74 90 77
f 75 91 76
f 75 78 92
f 75 92 93
f 75 93 94
f 75 94 91
f 77 90 95
f 77 95 78
f 78 95 96
f 78 96 92
f 79 80 97
f 80 98 97
f 81 99 82
f 82 99 100
f 86 101 102
f 86 102 87
f 88 103 104
f 88 104 89
f 89 104 105
f 89 105 106
f 89 106 95
f 89 95 90
f 92 96 107
f 92 107 108
f 92 108 109
f 92 109 93
f 95 106 96
f 96 106 107
f 99 111 100
f 100 111 112
f 100 112 113
f 100 113 110
f 101 114 102
f 102 114 115
f 102 115 116
f 103 117 104
f 104 117 118
f 104 118 105
f 105 118 119
f 105 119 120
f 105 120 106
f 106 120 121
f 106 121 122
f 106 122 123
f 106 123 124
f 106 124 125
f 106 125 107
f 115 126 116
f 116 126 127
f 116 127 128
f 116 128 129
f 116 129 130
f 116 130 131
f 117 132 133
f 117 133 119
f 117 119 118
f 119 133 134
f 119 134 120
f 120 134 135
f 120 135 121
f 121 135 136
f 121 136 137
f 121 137 122
f 123 138 124
f 124 138 125
f 130 139 131
f 131 139 140
f 131 140 141
f 132 142 133
f 133 142 134
f 134 143 144
f 134 144 145
f 134 145 135
f 134 142 143
f 135 145 146
f 135 146 136
f 136 146 147
f 136 147 148
f 136 148 137
f 140 149 150
f 140 150 151
f 140 151 141
f 142 152 153
f 142 153 143
f 143 153 144
f 144 154 155
f 144 155 156
f 144 156 145
f 144 153 154
f 145 156 146
f 146 156 157
f 146 157 147
f 147 157 158
f 149 159 150
f 150 159 160
f 152 161 153
f 153 162 154
f 153 161 162
f 154 162 161
f 154 161 163
f 154 163 164
f 154 164 165
f 154 165 166
f 154 166 155
f 155 166 167
f 155 167 168
f 155 168 156
f 156 168 169
f 156 169 170
f 156 170 171
f 156 171 157
f 157 171 172
f 157 172 158
f 159 173 160
f 159 174 173
f 161 175 163
f 163 175 164
f 164 175 176
f 164 176 165
f 165 177 178
f 165 178 179
f 165 179 180
f 165 180 166
f 165 176 181
f 165 181 177
f 166 180 167
f 167 180 182
f 167 182 183
f 167 183 184
f 167 184 169
f 167 169 168
f 169 184 170
f 173 174 185
f 174 186 187
f 174 187 185
f 176 188 181
f 177 189 178
f 177 181 190
f 177 190 189
f 178 189 179
f 179 189 191
f 179 191 192
f 179 192 180
f 180 192 193
f 180 193 194
f 180 194 182
f 181 188 190
f 182 194 183
f 186 195 196
f 186 196 197
f 186 197 187
f 188 198 190
f 189 199 200
f 189 200 201
f 189 201 202
f 189 202 203
f 189 203 204
f 189 204 191
f 189 190 199
f 190 198 205
f 190 205 206
f 190 206 207
f 190 207 208
f 190 208 199
f 191 204 209
f 191 209 210
f 191 210 192
f 192 210 211
f 192 211 193
f 195 212 196
f 196 212 213
f 199 208 214
f 199 214 215
f 199 215 216
f 199 216 200
f 200 216 201
f 201 217 218
f 201 218 202
f 201 216 217
f 205 219 206
f 206 219 207
f 207 219 214
f 207 214 208
f 209 220 210
f 210 220 211
f 212 221 213
f 213 221 222
f 213 222 223
f 214 219 216
f 214 216 215
f 216 224 225
f 216 225 226
f 216 226 227
f 216 227 228
f 216 228 229
f 216 229 230
f 216 230 231
f 216 231 232
f 216 232 217
f 222 233 223
f 223 233 234
f 223 234 235
f 224 236 237
f 224 237 238
f 224 238 239
f 224 239 240
f 224 240 225
f 224 241 242
f 224 242 243
f 224 243 244
f 224 244 245
f 224 245 246
f 224 246 247
f 224 247 248
f 224 248 236
f 234 249 241
f 234 241 235
f 241 249 242

