# https://github.com/mikedh/trimesh
v -0.00177820 0.02385241 0.05641112
v -0.00146645 0.02383806 0.05641112
v -0.00059358 0.02343654 0.05599890
v -0.00177820 0.02346044 0.05596655
v -0.00296281 0.02346044 0.05597254
v -0.00266067 0.02384285 0.05641112
v -0.00059358 0.02379505 0.05641112
v 0.00059104 0.02368988 0.05641112
v -0.00059358 0.02284381 0.05533624
v -0.00177820 0.02286771 0.05530149
v -0.00296281 0.02286771 0.05530149
v -0.00296281 0.02383806 0.05641112
v -0.00415223 0.02284859 0.05531587
v -0.00415223 0.02344132 0.05600190
v 0.00059104 0.02336962 0.05605403
v 0.00177566 0.02352736 0.05641112
v -0.00059358 0.02228932 0.05474367
v -0.00177820 0.02232756 0.05470892
v -0.00296281 0.02232756 0.05470892
v -0.00415223 0.02231800 0.05472330
v -0.00415223 0.02379026 0.05641112
v -0.00533685 0.02280557 0.05536919
v -0.00533685 0.02339830 0.05605163
v 0.00059104 0.02277689 0.05542611
v 0.00292191 0.02328358 0.05641112
v 0.00177566 0.02326924 0.05614031
v 0.00059104 0.02219372 0.05483355
v 0.00059104 0.02101304 0.05364542
v -0.00059358 0.02169659 0.05415171
v -0.00177820 0.02173483 0.05411336
v -0.00296281 0.02173483 0.05410557
v -0.00415223 0.02172527 0.05412355
v -0.00533685 0.02167269 0.05417388
v -0.00533685 0.02226542 0.05477663
v -0.00533685 0.02370422 0.05641112
v -0.00651667 0.02273865 0.05545008
v -0.00651667 0.02333138 0.05612353
v -0.00651667 0.02357994 0.05641112
v -0.00597472 0.02363730 0.05641112
v 0.00177566 0.02267651 0.05553696
v 0.00266772 0.02258569 0.05562803
v 0.00532952 0.02270519 0.05641112
v 0.00532952 0.02227976 0.05594798
v 0.00532952 0.02168703 0.05532845
v 0.00059104 0.02042031 0.05305825
v 0.00177566 0.02149105 0.05435123
v -0.00059358 0.02109430 0.05355915
v -0.00177820 0.02113254 0.05352140
v -0.00296281 0.02114210 0.05351301
v -0.00415223 0.02111820 0.05353098
v -0.00533685 0.02107040 0.05358131
v -0.00651667 0.02159621 0.05424218
v -0.00651667 0.02218894 0.05485751
v -0.00770129 0.02210290 0.05496716
v -0.00770129 0.02264305 0.05555972
v -0.00691954 0.02351780 0.05641112
v 0.00268691 0.02140023 0.05444350
v 0.00532952 0.02110386 0.05473589
v 0.00414490 0.02123770 0.05460347
v 0.00570361 0.02260480 0.05641112
v 0.00651414 0.02152929 0.05548423
v 0.00651414 0.02095568 0.05489167
v 0.00059104 0.01977022 0.05246569
v -0.00059358 0.01985626 0.05239678
v -0.00059358 0.02050157 0.05298935
v 0.00177566 0.02029603 0.05317928
v -0.00177820 0.02053981 0.05294980
v -0.00296281 0.02054937 0.05293782
v -0.00415223 0.02052547 0.05296478
v -0.00533685 0.02047767 0.05300732
v -0.00651667 0.02099392 0.05364962
v -0.00770129 0.02151017 0.05432906
v -0.00857897 0.02141934 0.05442433
v -0.00846386 0.02255700 0.05565080
v -0.00784038 0.02336006 0.05641112
v -0.00779721 0.02332182 0.05635840
v 0.00532952 0.02051113 0.05417568
v 0.00651414 0.02036295 0.05431468
v 0.00651414 0.02237058 0.05641112
v 0.00651414 0.02212202 0.05613312
v 0.00731987 0.02140500 0.05561425
v 0.00731508 0.02023867 0.05443092
v 0.00059104 0.01917749 0.05197438
v -0.00059358 0.01926353 0.05189529
v 0.00186679 0.01949297 0.05250403
v 0.00153106 0.01905799 0.05206905
v -0.00177820 0.01989928 0.05235724
v 0.00414490 0.02000444 0.05345609
v -0.00296281 0.01991362 0.05234526
v -0.00415223 0.01988016 0.05237222
v -0.00533685 0.01983236 0.05241476
v -0.00651667 0.02040119 0.05308342
v -0.00770129 0.02087442 0.05373650
v -0.00937031 0.02129028 0.05455075
v -0.01163883 0.02235146 0.05641112
v -0.01125515 0.02247096 0.05641112
v -0.01086667 0.02259047 0.05641112
v -0.01007053 0.02233712 0.05588447
v -0.00925521 0.02245662 0.05575984
v -0.00770129 0.02028169 0.05320924
v -0.00841110 0.02018131 0.05329731
v -0.01184986 0.01777692 0.05214274
v -0.01278988 0.01887156 0.05339977
v -0.00887152 0.02294897 0.05620921
v -0.00887632 0.02312105 0.05641112
v 0.00651414 0.01966027 0.05372212
v 0.00532952 0.01984192 0.05358311
v 0.00756447 0.02202163 0.05641112
v 0.00811122 0.02126160 0.05577003
v 0.00888338 0.02049679 0.05535961
v 0.01125741 0.02052069 0.05641112
v 0.00810642 0.02005224 0.05459449
v 0.00888338 0.01927309 0.05424278
v 0.00791458 0.01879986 0.05345789
v 0.00712803 0.01896716 0.05332308
v 0.00058625 0.01827883 0.05132010
v 0.00018818 0.01782472 0.05092286
v -0.00059358 0.01791077 0.05085755
v -0.00059358 0.01850350 0.05130273
v -0.00177820 0.01856564 0.05127037
v -0.00177820 0.01930655 0.05186294
v 0.00414490 0.01941171 0.05294681
v 0.00232241 0.01894326 0.05215353
v 0.00296028 0.01825971 0.05179164
v 0.00186679 0.01847482 0.05171854
v 0.00177566 0.01760962 0.05107565
v -0.00296281 0.01932089 0.05185934
v -0.00415223 0.01928743 0.05188031
v -0.00533685 0.01923963 0.05192465
v -0.00651667 0.01973198 0.05249085
v -0.01288580 0.02009526 0.05456213
v -0.01291937 0.02129028 0.05573528
v -0.01239181 0.02211246 0.05641112
v -0.00999859 0.02283903 0.05641112
v -0.00737037 0.01903408 0.05208163
v -0.00773966 0.01947863 0.05254178
v -0.00888591 0.01822147 0.05176647
v -0.01007053 0.01804461 0.05191506
v -0.01125515 0.01786775 0.05206545
v -0.00888591 0.01747100 0.05117391
v -0.01014247 0.01713640 0.05126079
v -0.01058850 0.01655800 0.05097739
v -0.01125515 0.01640982 0.05106486
v -0.01232466 0.01717942 0.05190188
v -0.01264120 0.01757138 0.05228954
v -0.01362439 0.01867558 0.05355555
v -0.01362439 0.01935435 0.05414811
v -0.00912571 0.02305891 0.05641112
v 0.00651414 0.01906755 0.05324339
v 0.00532952 0.01924919 0.05309001
v 0.00821193 0.02178741 0.05641112
v 0.00888338 0.02153407 0.05641112
v 0.01031259 0.02093178 0.05641112
v 0.01248999 0.01993752 0.05641112
v 0.01125741 0.01995186 0.05587608
v 0.01299837 0.01893849 0.05571431
v 0.00968911 0.01907233 0.05441773
v 0.00888338 0.01855608 0.05365022
v 0.00759325 0.01838878 0.05303908
v 0.00888338 0.01796335 0.05319007
v 0.00676353 0.01763352 0.05223381
v 0.00642781 0.01825971 0.05260349
v 0.00532952 0.01848916 0.05249744
v 0.00097952 0.01771956 0.05099716
v 0.00058625 0.01726546 0.05062149
v 0.00058625 0.01675399 0.05029135
v -0.00032500 0.01696909 0.05029135
v -0.00059358 0.01717942 0.05038662
v -0.00177820 0.01797291 0.05081382
v 0.00414490 0.01867558 0.05235424
v 0.00296028 0.01885244 0.05222303
v 0.00296028 0.01743276 0.05119907
v 0.00414490 0.01808285 0.05191866
v 0.00296028 0.01684003 0.05079644
v 0.00177566 0.01701689 0.05067541
v -0.00296281 0.01855130 0.05126678
v -0.00415223 0.01852262 0.05128775
v -0.00533685 0.01845091 0.05133209
v -0.00648310 0.01826449 0.05133868
v -0.00651667 0.01913925 0.05200254
v -0.01362439 0.01994708 0.05469814
v -0.01362439 0.02116122 0.05585571
v -0.01359082 0.02172527 0.05641112
v -0.00770129 0.01763830 0.05105288
v -0.00773966 0.01846048 0.05170776
v -0.00888591 0.01687827 0.05077727
v -0.00979716 0.01671097 0.05088032
v -0.01014247 0.01609434 0.05060112
v -0.01125515 0.01581709 0.05071795
v -0.01217119 0.01558765 0.05085336
v -0.01251651 0.01598918 0.05120566
v -0.01334622 0.01678267 0.05201392
v -0.01369633 0.01717942 0.05244292
v -0.01439655 0.01787253 0.05325178
v -0.01362439 0.01808285 0.05308402
v -0.01460278 0.01914403 0.05435003
v -0.01539412 0.01895282 0.05451839
v 0.01322378 0.01953122 0.05641112
v 0.01354032 0.01935435 0.05641112
v 0.01362665 0.01872816 0.05588986
v 0.01435565 0.01788209 0.05561784
v 0.01362665 0.01813543 0.05542911
v 0.01418299 0.01656279 0.05453038
v 0.01372257 0.01720332 0.05478202
v 0.01277296 0.01760962 0.05463043
v 0.01198641 0.01785341 0.05445189
v 0.00950686 0.01779126 0.05331589
v 0.00769876 0.01739930 0.05237881
v 0.00880664 0.01708860 0.05258492
v 0.00769876 0.01680657 0.05200853
v 0.00661965 0.01599873 0.05117451
v 0.00642781 0.01721288 0.05187312
v 0.00532952 0.01641938 0.05105587
v 0.00532952 0.01717942 0.05155737
v 0.00597219 0.01779126 0.05213016
v 0.00532952 0.01789643 0.05205287
v 0.00179485 0.01636202 0.05029135
v -0.00059358 0.01702645 0.05029135
v -0.00177820 0.01715552 0.05029135
v -0.00296281 0.01717942 0.05030933
v -0.00296281 0.01795857 0.05082520
v 0.00421684 0.01712683 0.05126258
v 0.00387153 0.01669185 0.05089111
v 0.00288354 0.01599396 0.05029135
v -0.00415223 0.01792989 0.05085036
v -0.00533685 0.01785819 0.05090010
v -0.00607064 0.01780082 0.05094144
v -0.00685719 0.01772434 0.05099057
v -0.01480901 0.02031993 0.05553156
v -0.01480901 0.02091266 0.05609537
v -0.01480901 0.02123770 0.05641112
v -0.01441573 0.02140023 0.05641112
v -0.00770129 0.01704557 0.05067182
v -0.00819049 0.01627598 0.05029135
v -0.00893387 0.01603698 0.05029135
v -0.00900581 0.01600829 0.05029135
v -0.00962930 0.01575017 0.05029135
v -0.01010890 0.01554463 0.05029135
v -0.01057411 0.01533908 0.05029135
v -0.01119280 0.01503316 0.05029135
v -0.01296254 0.01535820 0.05098278
v -0.01140383 0.01491844 0.05029135
v -0.01164842 0.01477982 0.05029135
v -0.01252610 0.01427313 0.05029135
v -0.01364357 0.01362782 0.05029135
v -0.01362439 0.01456949 0.05077367
v -0.01362439 0.01516222 0.05110620
v -0.01369633 0.01608478 0.05171015
v -0.01637731 0.01528172 0.05222303
v -0.01718304 0.01503316 0.05238540
v -0.01709192 0.01598918 0.05303309
v -0.01599842 0.01681613 0.05316370
v -0.01479942 0.01722722 0.05294921
v -0.01518789 0.01764786 0.05342374
v -0.01492411 0.01954555 0.05485691
v -0.01599842 0.01818323 0.05419784
v -0.01599842 0.01877596 0.05465440
v -0.01718304 0.01914881 0.05552497
v -0.01591209 0.01957424 0.05532246
v 0.01470576 0.01857042 0.05641112
v 0.01480168 0.01836488 0.05629189
v 0.01513740 0.01825971 0.05641112
v 0.01514220 0.01756660 0.05585571
v 0.01477290 0.01717463 0.05534043
v 0.01305113 0.01542035 0.05332008
v 0.01244203 0.01564979 0.05316910
v 0.01171783 0.01650542 0.05338419
v 0.01339164 0.01682091 0.05435123
v 0.01561221 0.01677311 0.05556092
v 0.01492158 0.01609912 0.05468376
v 0.01538679 0.01538689 0.05452259
v 0.01821165 0.00572634 0.05029135
v 0.01240366 0.01720332 0.05417568
v 0.01092649 0.01675399 0.05321942
v 0.01129578 0.01606566 0.05292164
v 0.01013994 0.01599396 0.05241176
v 0.00835581 0.01662971 0.05211938
v 0.00769876 0.01599396 0.05151962
v 0.00629352 0.01560199 0.05084497
v 0.00708487 0.01538689 0.05096600
v 0.00532952 0.01582665 0.05071496
v 0.00465808 0.01655800 0.05097559
v -0.00296281 0.01715073 0.05029135
v -0.00397957 0.01707903 0.05029135
v 0.00421684 0.01609912 0.05061789
v 0.00417847 0.01552551 0.05029135
v -0.00415223 0.01717942 0.05036445
v -0.00533685 0.01717942 0.05047589
v -0.00415223 0.01706469 0.05029135
v -0.00496756 0.01694519 0.05029135
v -0.00650228 0.01667273 0.05029135
v -0.00648310 0.01727024 0.05066043
v -0.00533685 0.01688305 0.05029135
v -0.01545647 0.02017175 0.05567356
v -0.01509197 0.02110386 0.05641112
v -0.00702026 0.01656756 0.05029135
v -0.00775884 0.01640026 0.05029135
v -0.01439655 0.01433049 0.05089290
v -0.01422869 0.01325019 0.05029135
v -0.01479942 0.01365650 0.05068140
v -0.01718304 0.01444043 0.05200913
v -0.01780173 0.01424445 0.05212896
v -0.01805592 0.01559243 0.05317629
v -0.01599842 0.01740886 0.05360528
v -0.01683773 0.01793467 0.05439257
v -0.01721182 0.01834576 0.05489107
v -0.01780652 0.01898151 0.05567956
v -0.01718304 0.01974154 0.05608518
v -0.01624782 0.01998532 0.05585750
v 0.01623089 0.01740886 0.05641112
v 0.01058117 0.01534387 0.05217450
v 0.01639875 0.01640026 0.05582455
v 0.01600068 0.01600352 0.05530269
v 0.01678723 0.01561155 0.05556212
v 0.01757858 0.01519090 0.05584013
v 0.01792389 0.01439741 0.05558908
v 0.01821165 0.01467465 0.05598992
v 0.01821165 -0.00420666 0.05029135
v 0.00886419 0.01274350 0.05029135
v 0.00845653 0.01434961 0.05089710
v 0.00979462 0.01559243 0.05202651
v 0.00880664 0.01599396 0.05189949
v 0.00769876 0.01519568 0.05106247
v 0.00661965 0.01492322 0.05058254
v 0.00581392 0.01480372 0.05029135
v 0.00529595 0.01507140 0.05029135
v -0.01581617 0.02075491 0.05641112
v -0.01518789 0.01406758 0.05103910
v -0.01479462 0.01286778 0.05029135
v -0.01508238 0.01266702 0.05029135
v -0.01575862 0.01327887 0.05083059
v -0.01729335 0.01254274 0.05108164
v -0.01775856 0.01183051 0.05096480
v -0.01808469 0.01362782 0.05197498
v -0.01867940 0.01362782 0.05229613
v -0.02008464 0.01415362 0.05336382
v -0.01929809 0.01452647 0.05313374
v -0.01884726 0.01531518 0.05339078
v -0.01608955 0.01365650 0.05115354
v -0.01654997 0.01300163 0.05097259
v -0.01901513 0.01662971 0.05447945
v -0.01827174 0.01946907 0.05641112
v -0.01821898 0.01946429 0.05637637
v -0.01819021 0.01951687 0.05641112
v -0.01746601 0.01993274 0.05641112
v -0.01917339 0.01792033 0.05558010
v -0.01859787 0.01871382 0.05590783
v -0.01972973 0.01853696 0.05641112
v -0.01903431 0.01899585 0.05641112
v -0.01833409 0.01943083 0.05641112
v -0.01718304 0.02007614 0.05641112
v -0.01687610 0.02022911 0.05641112
v 0.01712296 0.01651498 0.05641112
v 0.00886419 0.01477026 0.05125719
v 0.01727163 0.01608956 0.05622718
v 0.01765052 0.01594616 0.05641112
v 0.01821165 0.01531040 0.05641112
v 0.01821165 0.01493756 0.05616307
v 0.01740113 0.01621862 0.05641112
v 0.01821165 -0.01260526 0.05641112
v 0.01786634 -0.01308327 0.05641112
v 0.01749705 -0.01358996 0.05641112
v 0.01734357 -0.01379550 0.05641112
v 0.01711816 -0.01408708 0.05641112
v 0.01676325 -0.01454119 0.05641112
v 0.01629324 -0.01512436 0.05641112
v 0.01577048 -0.01574577 0.05641112
v 0.01557863 -0.01597044 0.05641112
v 0.01450912 -0.01717980 0.05641112
v 0.01407748 -0.01765303 0.05641112
v 0.01351634 -0.01825531 0.05641112
v 0.01291684 -0.01882414 0.05641112
v 0.01244203 -0.01925435 0.05641112
v 0.01209672 -0.01955071 0.05641112
v 0.01165069 -0.01991878 0.05641112
v 0.01126700 -0.01954115 0.05600250
v 0.00862439 -0.01685953 0.05316490
v 0.00826949 -0.01538727 0.05215413
v 0.00780427 -0.01491882 0.05170236
v 0.00769876 -0.01391022 0.05111879
v 0.00703211 -0.01416835 0.05098278
v 0.00816397 -0.01195039 0.05029135
v 0.00779468 0.01352743 0.05029135
v 0.00765559 0.01362782 0.05029135
v 0.00769876 0.01460295 0.05076888
v 0.00661006 0.01433527 0.05029135
v -0.01534616 0.01246148 0.05029135
v -0.01697202 0.01221291 0.05080004
v -0.01630057 0.01155804 0.05029135
v -0.01655476 0.01128558 0.05029135
v -0.01729335 0.01136206 0.05061190
v -0.01842042 0.01010968 0.05067361
v -0.01915421 0.00973683 0.05086654
v -0.01885206 0.01053032 0.05100974
v -0.01955228 0.01010968 0.05120806
v -0.01842042 0.01136206 0.05112358
v -0.01962902 0.01132382 0.05175269
v -0.02007984 0.01176359 0.05217929
v -0.01928850 0.01223681 0.05196599
v -0.01848276 0.01255708 0.05167780
v -0.01895277 0.01302553 0.05214694
v -0.01963381 0.01370430 0.05287551
v -0.01963381 0.01487542 0.05357353
v -0.02042995 0.01336491 0.05316011
v -0.02122130 0.01290602 0.05339258
v -0.02078966 0.01370430 0.05355435
v -0.02265531 0.01319283 0.05442492
v -0.02191193 0.01360392 0.05419125
v -0.02151386 0.01438785 0.05439497
v -0.02106783 0.01518134 0.05467297
v -0.02203183 0.01607522 0.05591143
v -0.02125007 0.01651977 0.05574846
v -0.02111578 0.01753792 0.05641112
v -0.01996474 0.01763830 0.05579819
v -0.01608955 0.01254274 0.05060112
v -0.01962422 0.01841745 0.05624815
v -0.02011342 0.01827405 0.05641112
v 0.01120465 -0.02027251 0.05641112
v 0.01037494 -0.01993312 0.05581496
v 0.00812081 -0.01764824 0.05340756
v 0.00771794 -0.01722282 0.05296958
v 0.00780427 -0.01605170 0.05232429
v 0.00747814 -0.01568841 0.05198516
v 0.00694578 -0.01648190 0.05220386
v 0.00653332 -0.01605170 0.05181860
v 0.00659088 -0.01481844 0.05117211
v 0.00563167 -0.01521518 0.05105408
v 0.00620240 -0.01336529 0.05029135
v 0.00661006 -0.01308805 0.05029135
v 0.00703211 -0.01279646 0.05029135
v -0.01571066 0.01214599 0.05029135
v -0.01686650 0.01091751 0.05029135
v -0.01717345 0.01053988 0.05029135
v -0.01737009 0.01029132 0.05029135
v -0.01756672 0.01003798 0.05029135
v -0.01955228 0.00880472 0.05077367
v -0.01994555 0.00914888 0.05105827
v -0.01839164 0.00890988 0.05029135
v -0.02076088 0.01005232 0.05185095
v -0.02038199 0.01097487 0.05201333
v -0.01962902 0.01255708 0.05230272
v -0.02076088 0.01132382 0.05237462
v -0.02194070 0.01124256 0.05301631
v -0.02155702 0.01211731 0.05319486
v -0.02078966 0.01248538 0.05293123
v -0.02194070 0.01248538 0.05361187
v -0.02230040 0.01398154 0.05465500
v -0.02344665 0.01271960 0.05467058
v -0.02403657 0.01340793 0.05546026
v -0.02289032 0.01459817 0.05544529
v -0.02249704 0.01538689 0.05570831
v -0.02240112 0.01644806 0.05641112
v -0.02173447 0.01701689 0.05641112
v -0.02054026 0.01797769 0.05641112
v 0.01094087 -0.02047805 0.05641112
v 0.01066270 -0.02068359 0.05641112
v 0.01029821 -0.02094650 0.05641112
v 0.00732946 -0.01793027 0.05322901
v 0.00653332 -0.01715112 0.05244472
v 0.00532952 -0.01758610 0.05225478
v 0.00615444 -0.01673525 0.05206006
v 0.00532952 -0.01699337 0.05191027
v 0.00527197 -0.01591786 0.05130273
v 0.00414490 -0.01627636 0.05111519
v 0.00484032 -0.01546853 0.05092646
v 0.00530554 -0.01392934 0.05029135
v -0.01881849 0.00816897 0.05029135
v -0.02017576 0.00835539 0.05094144
v -0.02063618 0.00880472 0.05133688
v -0.02166253 0.00888598 0.05194922
v -0.02143232 0.00964123 0.05208163
v -0.02186396 0.01005232 0.05248846
v -0.02116854 0.01042994 0.05223202
v -0.02265051 0.01084103 0.05324878
v -0.02234357 0.01163452 0.05343033
v -0.02367687 0.01419665 0.05571311
v -0.02375840 0.01192611 0.05447405
v -0.02429555 0.01244236 0.05510257
v -0.02482791 0.01295383 0.05574187
v -0.02437709 0.01373298 0.05591323
v -0.02359054 0.01530562 0.05641112
v -0.02300063 0.01589357 0.05641112
v 0.00963635 -0.02136715 0.05641112
v 0.00818795 -0.02126676 0.05573947
v 0.00707048 -0.02011954 0.05452858
v 0.00672037 -0.01871898 0.05348305
v 0.00639903 -0.01834135 0.05311877
v 0.00473481 -0.01777253 0.05214514
v 0.00426000 -0.01729930 0.05170895
v 0.00336794 -0.01650103 0.05099955
v 0.00462450 -0.01431653 0.05029135
v -0.01905829 0.00771964 0.05029135
v -0.01955228 0.00770052 0.05050645
v -0.02033883 0.00770052 0.05086894
v -0.02115895 0.00673494 0.05104030
v -0.02092874 0.00770052 0.05116852
v -0.02200785 0.00775788 0.05178205
v -0.02245867 0.00819287 0.05217510
v -0.02225724 0.00888598 0.05229613
v -0.02289511 0.01007144 0.05310079
v -0.02306777 0.01124256 0.05370174
v -0.02348982 0.01007144 0.05346028
v -0.02438188 0.01015270 0.05405704
v -0.02484230 0.01060203 0.05454356
v -0.02417565 0.01468899 0.05641112
v -0.02473679 0.01408670 0.05641112
v -0.02400779 0.01125690 0.05431108
v -0.02510128 0.01216511 0.05553456
v -0.02589263 0.01158194 0.05583354
v -0.02548976 0.01251406 0.05601928
v -0.02578712 0.01279130 0.05641112
v -0.02530272 0.01341749 0.05641112
v 0.00887858 -0.02182125 0.05641112
v 0.00878746 -0.02187384 0.05641112
v 0.00811122 -0.02225624 0.05641112
v 0.00739661 -0.02148187 0.05558729
v 0.00627913 -0.02034421 0.05437160
v 0.00532952 -0.01973236 0.05359689
v 0.00592902 -0.01896277 0.05332667
v 0.00394347 -0.01799241 0.05200134
v 0.00532952 -0.01913963 0.05321523
v 0.00414490 -0.01456987 0.05029135
v 0.00296987 -0.01711766 0.05122783
v 0.00258139 -0.01668267 0.05091208
v 0.00231282 -0.01549721 0.05029135
v 0.00293151 -0.01520084 0.05029135
v -0.01926931 0.00729421 0.05029135
v -0.01955228 0.00669670 0.05029135
v -0.02075129 0.00640990 0.05078206
v -0.02133640 0.00594145 0.05095462
v -0.02180641 0.00640990 0.05131291
v -0.02266011 0.00740415 0.05205107
v -0.02307736 0.00775788 0.05241716
v -0.02389269 0.00865653 0.05320085
v -0.02321165 0.00898636 0.05290007
v -0.02368166 0.00944525 0.05334045
v -0.02509169 0.00981331 0.05436681
v -0.02548497 0.01015270 0.05481318
v -0.02615161 0.01079323 0.05563282
v -0.02548976 0.01121388 0.05534163
v -0.02665999 0.01125690 0.05628590
v -0.02655448 0.01165364 0.05641112
v -0.02620437 0.01218423 0.05641112
v 0.00772274 -0.02245222 0.05641112
v 0.00732946 -0.02264821 0.05641112
v 0.00532952 -0.02058321 0.05418946
v 0.00441827 -0.01998570 0.05343332
v 0.00407296 -0.01957462 0.05305765
v 0.00315692 -0.01878112 0.05225838
v 0.00284038 -0.01837960 0.05191446
v 0.00177566 -0.01744748 0.05112777
v 0.00177566 -0.01685475 0.05082999
v 0.00155984 -0.01583181 0.05029135
v 0.00177566 -0.01573621 0.05029135
v -0.01960024 0.00659154 0.05029135
v -0.01963861 0.00650550 0.05029135
v -0.01996474 0.00575981 0.05029135
v -0.02011821 0.00534872 0.05029135
v -0.02073690 0.00532960 0.05058374
v -0.02141314 0.00532960 0.05091567
v -0.02200785 0.00532960 0.05122484
v -0.02317328 0.00528180 0.05186833
v -0.02285195 0.00651506 0.05193244
v -0.02344665 0.00651506 0.05230392
v -0.02412289 0.00770052 0.05305466
v -0.02471760 0.00770052 0.05343872
v -0.02532670 0.00888598 0.05420563
v -0.02429076 0.00898636 0.05356334
v -0.02591661 0.00888598 0.05462744
v -0.02718756 0.00932575 0.05575145
v -0.02637703 0.01007144 0.05545787
v -0.02697174 0.01007144 0.05592521
v -0.02687102 0.01116608 0.05641112
v 0.00638944 -0.02306885 0.05641112
v 0.00501298 -0.02263387 0.05560286
v 0.00580433 -0.02245701 0.05573947
v 0.00472522 -0.02132413 0.05451779
v 0.00417368 -0.02075051 0.05390845
v 0.00362693 -0.02017691 0.05330630
v 0.00296028 -0.02032509 0.05320445
v 0.00284038 -0.01943121 0.05258732
v 0.00236557 -0.01895798 0.05214394
v 0.00177566 -0.01836525 0.05165683
v 0.00085482 -0.01763390 0.05102891
v 0.00006348 -0.01779643 0.05094563
v 0.00050951 -0.01721804 0.05075210
v 0.00082605 -0.01614252 0.05029135
v -0.02027648 0.00477511 0.05029135
v -0.02073690 0.00414414 0.05044174
v -0.02154743 0.00414414 0.05084977
v -0.02213734 0.00414414 0.05114874
v -0.02310614 0.00414414 0.05165323
v -0.02384952 0.00414414 0.05205586
v -0.02373921 0.00485637 0.05211938
v -0.02360972 0.00564986 0.05219966
v -0.02502455 0.00626171 0.05323740
v -0.02439627 0.00660110 0.05292823
v -0.02486149 0.00705043 0.05334525
v -0.02558568 0.00779612 0.05406483
v -0.02605090 0.00825501 0.05452558
v -0.02663122 0.00779612 0.05482157
v -0.02674153 0.00890988 0.05526794
v -0.02735542 0.00853225 0.05561844
v -0.02789737 0.00900548 0.05624276
v -0.02804125 0.00912976 0.05641112
v -0.02760481 0.00996628 0.05641112
v -0.02754726 0.01007144 0.05641112
v -0.02724031 0.01058291 0.05641112
v 0.00622158 -0.02314056 0.05641112
v 0.00414490 -0.02281073 0.05545607
v 0.00296028 -0.02170653 0.05421882
v 0.00425521 -0.02190730 0.05479640
v 0.00393388 -0.02150577 0.05438358
v 0.00296028 -0.02091782 0.05362625
v 0.00177566 -0.02116638 0.05344411
v 0.00177566 -0.02057365 0.05304148
v 0.00177566 -0.01965588 0.05244891
v 0.00177566 -0.01906315 0.05208043
v 0.00059104 -0.01983752 0.05233447
v 0.00062461 -0.02083656 0.05298396
v -0.00059358 -0.01996180 0.05226317
v -0.00059358 -0.01936907 0.05188091
v -0.00059358 -0.01843696 0.05128835
v -0.00059358 -0.01784423 0.05091567
v -0.00059358 -0.01717980 0.05057116
v -0.00059358 -0.01662531 0.05029135
v -0.00018591 -0.01651059 0.05029135
v 0.00049033 -0.01628114 0.05029135
v -0.02042995 0.00414414 0.05029135
v -0.02165294 0.00295868 0.05079824
v -0.02310614 0.00295868 0.05152561
v -0.02399340 0.00295868 0.05198397
v -0.02458332 0.00295868 0.05232189
v -0.02443943 0.00414414 0.05242195
v -0.02518761 0.00532960 0.05313195
v -0.02419484 0.00528180 0.05249385
v -0.02578232 0.00532960 0.05352499
v -0.02544180 0.00660110 0.05361846
v -0.02621396 0.00746151 0.05440875
v -0.02699092 0.00651506 0.05470952
v -0.02751848 0.00770052 0.05548183
v -0.02811319 0.00770052 0.05597494
v -0.02839136 0.00826935 0.05641112
v -0.02813717 0.00889554 0.05641112
v 0.00567963 -0.02336522 0.05641112
v 0.00414490 -0.02340346 0.05594917
v 0.00286916 -0.02315012 0.05534762
v 0.00296028 -0.02229926 0.05467777
v 0.00216414 -0.02245222 0.05456573
v 0.00177087 -0.02200290 0.05410258
v 0.00104667 -0.02130022 0.05335124
v 0.00025532 -0.02138149 0.05329012
v -0.00059358 -0.02073617 0.05278144
v -0.00177820 -0.02003828 0.05221464
v -0.00177820 -0.01944555 0.05183238
v -0.00296281 -0.01858036 0.05119009
v -0.00296281 -0.01798763 0.05083778
v -0.00177820 -0.01717980 0.05048788
v -0.00177820 -0.01680217 0.05029135
v -0.00115471 -0.01671613 0.05029135
v -0.02061220 0.00295868 0.05029135
v -0.02073690 0.00295868 0.05034947
v -0.02173447 0.00177322 0.05076049
v -0.02232439 0.00177322 0.05105288
v -0.02310614 0.00177322 0.05144533
v -0.02408932 0.00177322 0.05194382
v -0.02468403 0.00177322 0.05225299
v -0.02547537 0.00177322 0.05271913
v -0.02627152 0.00177322 0.05320265
v -0.02559048 0.00305428 0.05296239
v -0.02606049 0.00351317 0.05333566
v -0.02536986 0.00414414 0.05301451
v -0.02596457 0.00414414 0.05339737
v -0.02665999 0.00414414 0.05387670
v -0.02740818 0.00414414 0.05440036
v -0.02729307 0.00484681 0.05448424
v -0.02671755 0.00527702 0.05417927
v -0.02639621 0.00651506 0.05427094
v -0.02715399 0.00564030 0.05458849
v -0.02775349 0.00527702 0.05495578
v -0.02787819 0.00640034 0.05537998
v -0.02844412 0.00593189 0.05569573
v -0.02861198 0.00770052 0.05641112
v 0.00484992 -0.02368548 0.05641112
v 0.00320488 -0.02357554 0.05580478
v 0.00241353 -0.02371416 0.05568495
v 0.00137759 -0.02257651 0.05446447
v 0.00062461 -0.02183559 0.05372152
v -0.00059358 -0.02141973 0.05325418
v 0.00059104 -0.02265299 0.05439557
v -0.00177820 -0.02073617 0.05269636
v -0.00296281 -0.02009086 0.05217989
v -0.00296281 -0.01949814 0.05178265
v -0.00415223 -0.01947902 0.05178984
v -0.00415223 -0.01855646 0.05119728
v -0.00415223 -0.01796851 0.05085036
v -0.00415223 -0.01717980 0.05044234
v -0.00296281 -0.01717980 0.05042496
v -0.00296281 -0.01691211 0.05029135
v -0.02074649 0.00177322 0.05029135
v -0.02178723 0.00059254 0.05074132
v -0.02238194 0.00059254 0.05102412
v -0.02417086 0.00059254 0.05191027
v -0.02476077 0.00059254 0.05220565
v -0.02547537 0.00059254 0.05260469
v -0.02639142 0.00059254 0.05313554
v -0.02698613 0.00059254 0.05349504
v -0.02686622 0.00177322 0.05358071
v -0.02616121 0.00271967 0.05327095
v -0.02659765 0.00305428 0.05361606
v -0.02758083 0.00295868 0.05427514
v -0.02800288 0.00414414 0.05484194
v -0.02854963 0.00532960 0.05560286
v -0.02935536 0.00562596 0.05641112
v -0.02899086 0.00640034 0.05632784
v -0.02891892 0.00685444 0.05641112
v 0.00414490 -0.02393883 0.05641112
v 0.00397704 -0.02399619 0.05641112
v 0.00336315 -0.02419695 0.05641112
v 0.00291712 -0.02434036 0.05641112
v 0.00280201 -0.02437382 0.05641112
v 0.00177566 -0.02380499 0.05560346
v -0.00296281 -0.02281073 0.05425297
v -0.00296281 -0.02211284 0.05366040
v -0.00296281 -0.02152011 0.05318228
v 0.00059104 -0.02324094 0.05490844
v -0.00296281 -0.02073617 0.05262566
v -0.00415223 -0.02007175 0.05219307
v -0.00533685 -0.01996658 0.05225538
v -0.00533685 -0.01937385 0.05187911
v -0.00501552 -0.01785857 0.05091028
v -0.00535603 -0.01660141 0.05029135
v -0.00457908 -0.01679261 0.05029135
v -0.00415223 -0.01687865 0.05029135
v -0.00330333 -0.01690255 0.05029135
v -0.02081363 0.00059254 0.05029135
v -0.02241071 -0.00058814 0.05100615
v -0.02310614 -0.00058814 0.05134347
v -0.02420922 -0.00058814 0.05188870
v -0.02479913 -0.00058814 0.05218528
v -0.02547537 -0.00058814 0.05255316
v -0.02643938 -0.00058814 0.05310379
v -0.02703408 -0.00058814 0.05346268
v -0.02784461 -0.00058814 0.05401031
v -0.02849687 -0.00058814 0.05446866
v -0.02845851 0.00011931 0.05449562
v -0.02793574 0.00054474 0.05416190
v -0.02771512 0.00177322 0.05417328
v -0.02817074 0.00295868 0.05471551
v -0.02874627 0.00414414 0.05543390
v -0.02933618 0.00414414 0.05597554
v -0.02959037 0.00483247 0.05641112
v -0.02906281 0.00645770 0.05641112
v 0.00203944 -0.02458414 0.05641112
v 0.00177566 -0.02439294 0.05616847
v 0.00059104 -0.02391015 0.05550101
v -0.00296281 -0.02340346 0.05478382
v -0.00415223 -0.02339868 0.05477363
v -0.00415223 -0.02280595 0.05426914
v -0.00415223 -0.02208416 0.05367658
v -0.00415223 -0.02149143 0.05320265
v -0.00415223 -0.02073617 0.05265981
v -0.00533685 -0.02073617 0.05279642
v -0.00596513 -0.02133847 0.05332068
v -0.00642075 -0.02078876 0.05302470
v -0.00651667 -0.01979450 0.05236263
v -0.00651667 -0.01920177 0.05199775
v -0.00538001 -0.01829833 0.05123442
v -0.00580686 -0.01773429 0.05098038
v -0.00538001 -0.01727540 0.05065624
v -0.00608023 -0.01637674 0.05029135
v -0.02081843 -0.00058814 0.05029135
v -0.02182080 -0.00058814 0.05073713
v -0.02310614 -0.00177360 0.05138781
v -0.02419004 -0.00177360 0.05190068
v -0.02477995 -0.00177360 0.05219487
v -0.02547537 -0.00177360 0.05256035
v -0.02642979 -0.00177360 0.05310199
v -0.02701970 -0.00295906 0.05347526
v -0.02784461 -0.00295906 0.05400731
v -0.02852565 -0.00177360 0.05445009
v -0.02911556 -0.00177360 0.05492102
v -0.02983017 -0.00177360 0.05551359
v -0.02908678 -0.00058814 0.05496536
v -0.02977741 -0.00058814 0.05555793
v -0.02968629 0.00059254 0.05564480
v -0.02839136 0.00091280 0.05455314
v -0.02830503 0.00177322 0.05461965
v -0.02888535 0.00295868 0.05530808
v -0.02948006 0.00295868 0.05583953
v -0.03006997 0.00295868 0.05641112
v -0.02977741 0.00414414 0.05641112
v 0.00177566 -0.02463672 0.05641112
v 0.00111861 -0.02471798 0.05641112
v 0.00059104 -0.02450288 0.05613132
v -0.00296281 -0.02460804 0.05599231
v -0.00296281 -0.02401531 0.05537638
v -0.00415223 -0.02403443 0.05536620
v -0.00533685 -0.02397229 0.05544409
v -0.00533685 -0.02330786 0.05485152
v -0.00533685 -0.02271513 0.05434644
v -0.00533685 -0.02198856 0.05375387
v -0.00533685 -0.02139583 0.05327754
v -0.00651667 -0.02259563 0.05444829
v -0.00642075 -0.02181169 0.05379761
v -0.00675168 -0.02122375 0.05340756
v -0.00770129 -0.02044937 0.05311937
v -0.00729363 -0.01904403 0.05208882
v -0.00651667 -0.01836525 0.05149326
v -0.00651667 -0.01761478 0.05104629
v -0.00651667 -0.01702683 0.05072155
v -0.00646871 -0.01624768 0.05029135
v -0.02073690 -0.00094665 0.05029135
v -0.02231959 -0.00177360 0.05103850
v -0.02407494 -0.00295906 0.05196959
v -0.02466964 -0.00295906 0.05224160
v -0.02547537 -0.00295906 0.05262326
v -0.02642979 -0.00295906 0.05311817
v -0.02693337 -0.00414452 0.05350522
v -0.02795972 -0.00423534 0.05415830
v -0.02849208 -0.00389596 0.05447585
v -0.02852085 -0.00295906 0.05445308
v -0.02911556 -0.00295906 0.05492702
v -0.02983017 -0.00295906 0.05551958
v -0.03042008 -0.00295906 0.05606361
v -0.03042488 -0.00177360 0.05607799
v -0.03037212 -0.00058814 0.05612952
v -0.03045845 0.00084588 0.05641112
v -0.02956159 0.00200744 0.05575385
v -0.02911556 0.00167762 0.05530628
v -0.03020426 0.00169674 0.05630268
v -0.03030498 0.00178278 0.05641112
v -0.00296281 -0.02496655 0.05641112
v -0.00415223 -0.02462716 0.05598333
v -0.00533685 -0.02456502 0.05601508
v -0.00651667 -0.02385279 0.05555194
v -0.00651667 -0.02318836 0.05495937
v -0.00711618 -0.02251437 0.05451120
v -0.00758619 -0.02195987 0.05419904
v -0.00888591 -0.02161571 0.05429251
v -0.00770129 -0.02104210 0.05352979
v -0.00976358 -0.02144841 0.05442433
v -0.00855019 -0.02026295 0.05324998
v -0.00769170 -0.01948379 0.05248846
v -0.00888591 -0.01866640 0.05232728
v -0.00888591 -0.01807367 0.05195461
v -0.00769170 -0.01842262 0.05181980
v -0.00770129 -0.01737578 0.05118769
v -0.00770129 -0.01678305 0.05085276
v -0.00770129 -0.01574577 0.05029135
v -0.02053067 -0.00177360 0.05029135
v -0.02073690 -0.00177360 0.05037524
v -0.02310614 -0.00295906 0.05155437
v -0.02444903 -0.00414452 0.05232848
v -0.02547537 -0.00414452 0.05277725
v -0.02633866 -0.00414452 0.05318527
v -0.02661683 -0.00539690 0.05355196
v -0.02763838 -0.00651544 0.05430629
v -0.02822830 -0.00651544 0.05463283
v -0.02777747 -0.00532998 0.05418766
v -0.02837218 -0.00532998 0.05455614
v -0.02842973 -0.00468467 0.05451899
v -0.02903403 -0.00532998 0.05505044
v -0.02974864 -0.00532998 0.05559987
v -0.02980619 -0.00414452 0.05554654
v -0.03040090 -0.00414452 0.05606661
v -0.03076540 -0.00414452 0.05641112
v -0.03078458 -0.00295906 0.05641112
v -0.03076060 -0.00177360 0.05641112
v -0.03065509 -0.00058814 0.05641112
v -0.03059274 -0.00009579 0.05641112
v -0.00330813 -0.02497132 0.05641112
v -0.00415223 -0.02498089 0.05641112
v -0.00533685 -0.02492352 0.05641112
v -0.00651667 -0.02472754 0.05641112
v -0.00651667 -0.02444552 0.05612353
v -0.00730802 -0.02375719 0.05564480
v -0.00760537 -0.02307841 0.05513253
v -0.00790752 -0.02238530 0.05462085
v -0.00888591 -0.02220844 0.05476105
v -0.01084749 -0.02258129 0.05564061
v -0.01163404 -0.02242832 0.05576404
v -0.01243977 -0.02166351 0.05544948
v -0.01055013 -0.02127632 0.05454955
v -0.01012329 -0.02082222 0.05411276
v -0.00933674 -0.02007652 0.05337161
v -0.00891948 -0.01963198 0.05295400
v -0.01007053 -0.01931171 0.05310139
v -0.01008492 -0.01831268 0.05246808
v -0.00969644 -0.01787769 0.05207743
v -0.01008492 -0.01724672 0.05180722
v -0.00880917 -0.01708419 0.05133628
v -0.00836314 -0.01662531 0.05093904
v -0.00886673 -0.01519606 0.05029135
v -0.00814253 -0.01554023 0.05029135
v -0.02371523 -0.00477071 0.05213675
v -0.02385432 -0.00414452 0.05207684
v -0.01885206 -0.00539690 0.05029135
v -0.02557609 -0.00539690 0.05304747
v -0.02418525 -0.00522960 0.05242255
v -0.02619478 -0.00504795 0.05326796
v -0.02603651 -0.00583667 0.05334585
v -0.02665999 -0.00651544 0.05380660
v -0.02740338 -0.00770090 0.05444110
v -0.02799809 -0.00770090 0.05477303
v -0.02885178 -0.00770090 0.05536560
v -0.02912036 -0.00651544 0.05529490
v -0.02967670 -0.00611869 0.05565619
v -0.03033855 -0.00532998 0.05610915
v -0.03066468 -0.00532998 0.05641112
v -0.00736077 -0.02450766 0.05641112
v -0.00761496 -0.02444074 0.05641112
v -0.00770609 -0.02429256 0.05628770
v -0.00857417 -0.02417305 0.05641112
v -0.00809936 -0.02363768 0.05575145
v -0.00888591 -0.02291589 0.05535362
v -0.01007053 -0.02271513 0.05552617
v -0.01145658 -0.02326962 0.05641112
v -0.01206088 -0.02304495 0.05641112
v -0.01243977 -0.02290155 0.05641112
v -0.01243977 -0.02225624 0.05589585
v -0.01331744 -0.02146275 0.05559747
v -0.01125515 -0.02110902 0.05466339
v -0.01216640 -0.02030119 0.05441054
v -0.01125515 -0.02051629 0.05426555
v -0.01007053 -0.01990444 0.05348665
v -0.01130311 -0.01951725 0.05362745
v -0.01093861 -0.01909661 0.05323920
v -0.01048778 -0.01768649 0.05219846
v -0.01125515 -0.01687387 0.05196959
v -0.01007053 -0.01618554 0.05118050
v -0.00915449 -0.01642454 0.05104988
v -0.00880917 -0.01601824 0.05072754
v -0.01007053 -0.01559281 0.05085396
v -0.00964368 -0.01478976 0.05029135
v -0.01835807 -0.00640072 0.05029135
v -0.01830052 -0.00651544 0.05029135
v -0.02525956 -0.00651544 0.05315891
v -0.02665999 -0.00770090 0.05408161
v -0.02585426 -0.00651544 0.05342134
v -0.02725470 -0.00829841 0.05451240
v -0.02772951 -0.00876686 0.05494919
v -0.02846810 -0.00953645 0.05567776
v -0.02861677 -0.00888636 0.05556512
v -0.02703888 -0.00908712 0.05462744
v -0.02920669 -0.00888636 0.05602826
v -0.02944649 -0.00770090 0.05584912
v -0.02957118 -0.00690741 0.05574426
v -0.03042008 -0.00648676 0.05641112
v -0.00888591 -0.02408223 0.05641112
v -0.00888591 -0.02350862 0.05586350
v -0.01007053 -0.02372373 0.05641112
v -0.01007053 -0.02330786 0.05603545
v -0.01364837 -0.02235662 0.05641112
v -0.01367714 -0.02188340 0.05605283
v -0.01295774 -0.02010521 0.05453757
v -0.01251171 -0.02071228 0.05480299
v -0.01410399 -0.02127154 0.05574007
v -0.01367714 -0.02082222 0.05527932
v -0.01172996 -0.01889585 0.05336742
v -0.01125515 -0.01746660 0.05232668
v -0.01115923 -0.01589396 0.05137642
v -0.01069881 -0.01542551 0.05094623
v -0.01243977 -0.01809279 0.05313255
v -0.01238701 -0.01710809 0.05252740
v -0.01195537 -0.01665877 0.05210200
v -0.01007053 -0.01480888 0.05042437
v -0.01007053 -0.01456509 0.05029135
v -0.01743244 -0.00765788 0.05029135
v -0.02624754 -0.00970375 0.05442852
v -0.02547537 -0.00888636 0.05387610
v -0.02502935 -0.00731849 0.05326975
v -0.02544180 -0.00771046 0.05354596
v -0.02665040 -0.00876686 0.05434703
v -0.02785900 -0.00998578 0.05543390
v -0.02901005 -0.01002880 0.05629609
v -0.02918750 -0.00995710 0.05641112
v -0.02826187 -0.01032994 0.05581856
v -0.02747052 -0.01096091 0.05555912
v -0.02665040 -0.01009094 0.05477483
v -0.02966231 -0.00888636 0.05641112
v -0.03006517 -0.00770090 0.05641112
v -0.03012273 -0.00750970 0.05641112
v -0.01449247 -0.02193597 0.05641112
v -0.01480901 -0.02048283 0.05547045
v -0.01560035 -0.02025817 0.05562144
v -0.01362439 -0.01989966 0.05465740
v -0.01362439 -0.01931171 0.05430090
v -0.01476584 -0.02179257 0.05641112
v -0.01480901 -0.02107556 0.05588147
v -0.01120719 -0.01390066 0.05029135
v -0.02139875 -0.01663487 0.05567117
v -0.01055973 -0.01428307 0.05029135
v -0.01317836 -0.01786813 0.05327275
v -0.01544208 -0.01013874 0.05029135
v -0.02588783 -0.01049724 0.05457891
v -0.01486656 -0.01077449 0.05029135
v -0.01435818 -0.01133376 0.05029135
v -0.02891413 -0.01048290 0.05641112
v -0.02785900 -0.01131464 0.05597913
v -0.02847769 -0.01127640 0.05641112
v -0.02672714 -0.01131464 0.05532665
v -0.02716358 -0.01174963 0.05574606
v -0.01599363 -0.02068838 0.05608878
v -0.01670823 -0.02072184 0.05641112
v -0.01878971 -0.01946945 0.05641112
v -0.01638690 -0.02001439 0.05578201
v -0.01956187 -0.01900101 0.05641112
v -0.01780173 -0.01897711 0.05568734
v -0.01718304 -0.01917309 0.05556931
v -0.01599363 -0.01959374 0.05536919
v -0.01479942 -0.01949814 0.05485512
v -0.01439175 -0.01907271 0.05444709
v -0.01599363 -0.02112814 0.05641112
v -0.01248293 -0.01301635 0.05029135
v -0.01958106 -0.01834135 0.05599950
v -0.02050189 -0.01839872 0.05641112
v -0.02074649 -0.01823619 0.05641112
v -0.02127885 -0.01787291 0.05641112
v -0.02219010 -0.01635284 0.05583653
v -0.02272246 -0.01556413 0.05561485
v -0.01518310 -0.01881936 0.05459688
v -0.02599814 -0.01297333 0.05572809
v -0.02637223 -0.01218461 0.05554774
v -0.01368674 -0.01196951 0.05029135
v -0.02784941 -0.01217505 0.05641112
v -0.02672714 -0.01252400 0.05589765
v -0.02763359 -0.01243796 0.05641112
v -0.01311121 -0.01248098 0.05029135
v -0.02351380 -0.01523908 0.05577902
v -0.02238194 -0.01710332 0.05641112
v -0.02311093 -0.01659185 0.05641112
v -0.02311573 -0.01597522 0.05602407
v -0.02476077 -0.01410620 0.05575085
v -0.02555211 -0.01367600 0.05589705
v -0.02549936 -0.01462723 0.05641112
v -0.02653530 -0.01365210 0.05641112
v -0.02669357 -0.01349436 0.05641112
v -0.02390228 -0.01598478 0.05641112
v -0.02428117 -0.01567407 0.05641112
v -0.02433392 -0.01483278 0.05594798
v -0.02526435 -0.01483278 0.05641112
f 1 2 3
f 1 3 4
f 1 4 5
f 1 5 6
f 1 6 12
f 1 12 21
f 1 21 35
f 1 35 39
f 1 39 38
f 1 38 56
f 1 56 75
f 1 75 105
f 1 105 148
f 1 148 134
f 1 134 97
f 1 97 96
f 1 96 95
f 1 95 133
f 1 133 183
f 1 183 232
f 1 232 231
f 1 231 295
f 1 295 327
f 1 327 352
f 1 352 351
f 1 351 345
f 1 345 344
f 1 344 342
f 1 342 350
f 1 350 349
f 1 349 348
f 1 348 417
f 1 417 454
f 1 454 413
f 1 413 453
f 1 453 452
f 1 452 482
f 1 482 481
f 1 481 505
f 1 505 506
f 1 506 512
f 1 512 511
f 1 511 543
f 1 543 542
f 1 542 573
f 1 573 608
f 1 608 607
f 1 607 606
f 1 606 605
f 1 605 644
f 1 644 643
f 1 643 683
f 1 683 716
f 1 716 753
f 1 753 714
f 1 714 752
f 1 752 792
f 1 792 791
f 1 791 832
f 1 832 828
f 1 828 871
f 1 871 870
f 1 870 869
f 1 869 868
f 1 868 867
f 1 867 910
f 1 910 949
f 1 949 983
f 1 983 982
f 1 982 981
f 1 981 977
f 1 977 999
f 1 999 1001
f 1 1001 1026
f 1 1026 1028
f 1 1028 1038
f 1 1038 1037
f 1 1037 1036
f 1 1036 1042
f 1 1042 1040
f 1 1040 1039
f 1 1039 1032
f 1 1032 1031
f 1 1031 1019
f 1 1019 1018
f 1 1018 1017
f 1 1017 1008
f 1 1008 1006
f 1 1006 1005
f 1 1005 1014
f 1 1014 989
f 1 989 984
f 1 984 954
f 1 954 920
f 1 920 919
f 1 919 918
f 1 918 952
f 1 952 950
f 1 950 914
f 1 914 912
f 1 912 911
f 1 911 875
f 1 875 874
f 1 874 873
f 1 873 872
f 1 872 833
f 1 833 794
f 1 794 793
f 1 793 754
f 1 754 721
f 1 721 720
f 1 720 719
f 1 719 718
f 1 718 717
f 1 717 684
f 1 684 645
f 1 645 609
f 1 609 574
f 1 574 545
f 1 545 544
f 1 544 515
f 1 515 514
f 1 514 513
f 1 513 483
f 1 483 457
f 1 457 456
f 1 456 455
f 1 455 418
f 1 418 375
f 1 375 374
f 1 374 373
f 1 373 372
f 1 372 371
f 1 371 370
f 1 370 369
f 1 369 368
f 1 368 367
f 1 367 366
f 1 366 365
f 1 365 364
f 1 364 363
f 1 363 362
f 1 362 361
f 1 361 360
f 1 360 357
f 1 357 356
f 1 356 359
f 1 359 353
f 1 353 310
f 1 310 262
f 1 262 260
f 1 260 199
f 1 199 198
f 1 198 154
f 1 154 111
f 1 111 153
f 1 153 152
f 1 152 151
f 1 151 108
f 1 108 79
f 1 79 60
f 1 60 42
f 1 42 25
f 1 25 16
f 1 16 8
f 1 8 7
f 1 7 2
f 2 7 3
f 3 7 8
f 3 8 9
f 3 9 10
f 3 10 4
f 4 10 11
f 4 11 5
f 5 12 6
f 5 11 13
f 5 13 14
f 5 14 12
f 8 15 9
f 8 16 15
f 9 15 17
f 9 17 18
f 9 18 10
f 10 18 19
f 10 19 11
f 11 19 20
f 11 20 13
f 12 14 21
f 13 20 22
f 13 22 23
f 13 23 14
f 14 23 21
f 15 24 17
f 15 16 24
f 16 25 26
f 16 26 24
f 17 24 27
f 17 27 28
f 17 28 29
f 17 29 30
f 17 30 18
f 18 30 31
f 18 31 19
f 19 31 20
f 20 32 33
f 20 33 34
f 20 34 22
f 20 31 32
f 21 23 35
f 22 34 36
f 22 36 37
f 22 37 23
f 23 37 38
f 23 38 39
f 23 39 35
f 24 26 40
f 24 40 27
f 25 41 26
f 25 42 43
f 25 43 44
f 25 44 41
f 26 41 40
f 27 40 28
f 28 45 29
f 28 40 46
f 28 46 45
f 29 45 47
f 29 47 30
f 30 48 49
f 30 49 31
f 30 47 48
f 31 49 32
f 32 50 51
f 32 51 33
f 32 49 50
f 33 51 71
f 33 71 52
f 33 52 34
f 34 52 53
f 34 53 36
f 36 53 54
f 36 54 55
f 36 55 37
f 37 55 56
f 37 56 38
f 40 41 57
f 40 57 46
f 41 44 58
f 41 58 59
f 41 59 57
f 42 60 43
f 43 60 61
f 43 61 44
f 44 61 62
f 44 62 58
f 45 63 64
f 45 64 65
f 45 65 47
f 45 46 57
f 45 57 66
f 45 66 63
f 47 65 67
f 47 67 48
f 48 67 68
f 48 68 49
f 49 68 50
f 50 69 70
f 50 70 51
f 50 68 69
f 51 70 71
f 52 71 72
f 52 72 53
f 53 72 54
f 54 72 73
f 54 73 55
f 55 73 74
f 55 74 75
f 55 75 76
f 55 76 56
f 56 76 75
f 57 59 66
f 58 77 66
f 58 66 59
f 58 62 78
f 58 78 77
f 60 79 80
f 60 80 61
f 61 80 81
f 61 81 62
f 62 81 82
f 62 82 78
f 63 83 84
f 63 84 64
f 63 66 85
f 63 85 86
f 63 86 83
f 64 84 87
f 64 87 65
f 65 87 67
f 66 77 88
f 66 88 85
f 67 87 89
f 67 89 68
f 68 89 69
f 69 90 91
f 69 91 70
f 69 89 90
f 70 91 92
f 70 92 71
f 71 92 72
f 72 93 73
f 72 92 93
f 73 94 95
f 73 95 96
f 73 96 97
f 73 97 98
f 73 98 99
f 73 99 74
f 73 93 100
f 73 100 101
f 73 101 102
f 73 102 103
f 73 103 94
f 74 99 104
f 74 104 75
f 75 104 105
f 77 78 88
f 78 106 107
f 78 107 88
f 78 82 106
f 79 108 81
f 79 81 80
f 81 108 109
f 81 109 82
f 82 109 110
f 82 110 111
f 82 111 112
f 82 112 113
f 82 113 114
f 82 114 115
f 82 115 106
f 83 116 117
f 83 117 118
f 83 118 119
f 83 119 84
f 83 86 116
f 84 119 120
f 84 120 121
f 84 121 87
f 85 88 122
f 85 122 86
f 86 122 123
f 86 123 124
f 86 124 125
f 86 125 126
f 86 126 116
f 87 121 89
f 88 107 122
f 89 127 128
f 89 128 90
f 89 121 127
f 90 128 91
f 91 129 130
f 91 130 92
f 91 128 129
f 92 130 100
f 92 100 93
f 94 103 131
f 94 131 132
f 94 132 133
f 94 133 95
f 97 134 98
f 98 134 99
f 99 134 104
f 100 130 135
f 100 135 136
f 100 136 101
f 101 136 137
f 101 137 138
f 101 138 139
f 101 139 102
f 102 139 140
f 102 140 141
f 102 141 142
f 102 142 143
f 102 143 144
f 102 144 145
f 102 145 146
f 102 146 103
f 103 146 147
f 103 147 131
f 104 148 105
f 104 134 148
f 106 149 150
f 106 150 107
f 106 115 149
f 107 150 122
f 108 151 109
f 109 151 152
f 109 152 153
f 109 153 111
f 109 111 110
f 111 154 155
f 111 155 112
f 112 155 156
f 112 156 113
f 113 157 158
f 113 158 114
f 113 156 157
f 114 159 115
f 114 158 160
f 114 160 159
f 115 159 161
f 115 161 162
f 115 162 163
f 115 163 149
f 116 126 164
f 116 164 117
f 117 164 165
f 117 165 118
f 118 165 166
f 118 166 167
f 118 167 168
f 118 168 169
f 118 169 119
f 119 169 120
f 120 169 127
f 120 127 121
f 122 150 170
f 122 170 171
f 122 171 123
f 123 171 124
f 124 172 126
f 124 126 125
f 124 171 173
f 124 173 172
f 126 172 174
f 126 174 175
f 126 175 164
f 127 176 177
f 127 177 128
f 127 169 176
f 128 177 129
f 129 178 179
f 129 179 180
f 129 180 130
f 129 177 178
f 130 180 135
f 131 147 181
f 131 181 182
f 131 182 132
f 132 182 183
f 132 183 133
f 135 184 185
f 135 185 137
f 135 137 136
f 135 180 184
f 137 185 140
f 137 140 138
f 138 140 139
f 140 185 184
f 140 184 186
f 140 186 187
f 140 187 141
f 141 187 142
f 142 187 188
f 142 188 189
f 142 189 143
f 143 189 190
f 143 190 191
f 143 191 144
f 144 191 192
f 144 192 145
f 145 192 193
f 145 193 194
f 145 194 195
f 145 195 146
f 146 196 147
f 146 195 197
f 146 197 196
f 147 196 181
f 149 163 150
f 150 163 170
f 154 156 155
f 154 198 156
f 156 198 199
f 156 199 200
f 156 200 201
f 156 201 202
f 156 202 203
f 156 203 204
f 156 204 205
f 156 205 206
f 156 206 207
f 156 207 158
f 156 158 157
f 158 207 160
f 159 160 208
f 159 208 161
f 160 209 208
f 160 207 209
f 161 208 210
f 161 210 211
f 161 211 212
f 161 212 213
f 161 213 214
f 161 214 215
f 161 215 162
f 162 215 163
f 163 216 170
f 163 215 216
f 164 175 165
f 165 175 166
f 166 175 174
f 166 174 217
f 166 217 224
f 166 224 286
f 166 286 326
f 166 326 325
f 166 325 386
f 166 386 384
f 166 384 383
f 166 383 319
f 166 319 272
f 166 272 318
f 166 318 382
f 166 382 430
f 166 430 429
f 166 429 428
f 166 428 466
f 166 466 491
f 166 491 522
f 166 522 526
f 166 526 525
f 166 525 554
f 166 554 553
f 166 553 587
f 166 587 628
f 166 628 627
f 166 627 626
f 166 626 660
f 166 660 659
f 166 659 699
f 166 699 735
f 166 735 734
f 166 734 733
f 166 733 732
f 166 732 771
f 166 771 812
f 166 812 850
f 166 850 895
f 166 895 894
f 166 894 935
f 166 935 968
f 166 968 993
f 166 993 991
f 166 991 1015
f 166 1015 1029
f 166 1029 1025
f 166 1025 998
f 166 998 997
f 166 997 995
f 166 995 969
f 166 969 937
f 166 937 936
f 166 936 898
f 166 898 851
f 166 851 813
f 166 813 772
f 166 772 736
f 166 736 700
f 166 700 661
f 166 661 629
f 166 629 588
f 166 588 558
f 166 558 557
f 166 557 556
f 166 556 555
f 166 555 528
f 166 528 527
f 166 527 492
f 166 492 467
f 166 467 438
f 166 438 435
f 166 435 434
f 166 434 433
f 166 433 432
f 166 432 390
f 166 390 389
f 166 389 431
f 166 431 387
f 166 387 330
f 166 330 329
f 166 329 299
f 166 299 245
f 166 245 244
f 166 244 243
f 166 243 242
f 166 242 240
f 166 240 239
f 166 239 238
f 166 238 237
f 166 237 236
f 166 236 235
f 166 235 234
f 166 234 297
f 166 297 296
f 166 296 291
f 166 291 293
f 166 293 290
f 166 290 289
f 166 289 284
f 166 284 283
f 166 283 219
f 166 219 218
f 166 218 167
f 167 218 168
f 168 218 219
f 168 219 169
f 169 219 220
f 169 220 221
f 169 221 176
f 170 216 173
f 170 173 171
f 172 173 222
f 172 222 223
f 172 223 174
f 173 216 222
f 174 224 217
f 174 223 224
f 176 221 177
f 177 225 178
f 177 221 225
f 178 226 227
f 178 227 179
f 178 225 226
f 179 227 228
f 179 228 184
f 179 184 180
f 181 196 229
f 181 229 230
f 181 230 182
f 182 230 231
f 182 231 232
f 182 232 183
f 184 228 233
f 184 233 186
f 186 233 234
f 186 234 235
f 186 235 187
f 187 235 188
f 188 235 236
f 188 236 237
f 188 237 238
f 188 238 189
f 189 238 239
f 189 239 240
f 189 240 190
f 190 241 191
f 190 240 242
f 190 242 243
f 190 243 244
f 190 244 245
f 190 245 246
f 190 246 241
f 191 241 247
f 191 247 192
f 192 247 248
f 192 248 249
f 192 249 250
f 192 250 193
f 193 250 251
f 193 251 252
f 193 252 253
f 193 253 254
f 193 254 194
f 194 254 197
f 194 197 195
f 196 255 229
f 196 197 255
f 197 254 256
f 197 256 257
f 197 257 258
f 197 258 259
f 197 259 255
f 199 260 200
f 200 260 261
f 200 261 201
f 201 261 262
f 201 262 263
f 201 263 264
f 201 264 203
f 201 203 202
f 203 265 266
f 203 266 267
f 203 267 268
f 203 268 205
f 203 205 204
f 203 264 269
f 203 269 270
f 203 270 271
f 203 271 272
f 203 272 265
f 205 273 206
f 205 268 273
f 206 273 207
f 207 273 267
f 207 267 274
f 207 274 275
f 207 275 276
f 207 276 209
f 208 277 210
f 208 209 277
f 209 276 277
f 210 277 278
f 210 278 211
f 211 279 213
f 211 213 212
f 211 278 280
f 211 280 279
f 213 279 281
f 213 281 282
f 213 282 214
f 214 282 222
f 214 222 216
f 214 216 215
f 219 283 220
f 220 283 284
f 220 284 225
f 220 225 221
f 222 282 223
f 223 282 285
f 223 285 224
f 224 285 286
f 225 287 226
f 225 284 287
f 226 288 227
f 226 287 289
f 226 289 290
f 226 290 288
f 227 291 292
f 227 292 228
f 227 288 293
f 227 293 291
f 228 292 233
f 229 255 294
f 229 294 230
f 230 294 295
f 230 295 231
f 233 292 291
f 233 291 296
f 233 296 297
f 233 297 234
f 241 246 298
f 241 298 247
f 245 299 300
f 245 300 298
f 245 298 246
f 247 298 301
f 247 301 249
f 247 249 248
f 249 301 302
f 249 302 250
f 250 302 303
f 250 303 251
f 251 303 304
f 251 304 252
f 252 304 254
f 252 254 253
f 254 304 256
f 255 259 294
f 256 304 305
f 256 305 257
f 257 305 306
f 257 306 307
f 257 307 258
f 258 307 308
f 258 308 309
f 258 309 259
f 259 309 294
f 260 262 261
f 262 310 263
f 263 310 269
f 263 269 264
f 265 272 266
f 266 311 275
f 266 275 267
f 266 272 311
f 267 273 268
f 267 275 274
f 269 310 312
f 269 312 313
f 269 313 270
f 270 313 271
f 271 313 314
f 271 314 272
f 272 314 315
f 272 315 316
f 272 316 317
f 272 317 358
f 272 358 357
f 272 357 360
f 272 360 318
f 272 319 320
f 272 320 311
f 275 311 276
f 276 311 277
f 277 321 322
f 277 322 278
f 277 311 321
f 278 323 280
f 278 322 323
f 279 280 324
f 279 324 325
f 279 325 326
f 279 326 281
f 280 323 324
f 281 326 286
f 281 286 285
f 281 285 282
f 284 289 287
f 288 290 293
f 294 309 295
f 295 309 327
f 298 300 328
f 298 328 302
f 298 302 301
f 299 329 300
f 300 329 330
f 300 330 331
f 300 331 328
f 302 332 333
f 302 333 334
f 302 334 335
f 302 335 336
f 302 336 337
f 302 337 338
f 302 338 303
f 302 328 339
f 302 339 340
f 302 340 332
f 303 307 306
f 303 306 305
f 303 305 304
f 303 338 341
f 303 341 307
f 307 342 343
f 307 343 344
f 307 344 345
f 307 345 308
f 307 341 346
f 307 346 347
f 307 347 348
f 307 348 349
f 307 349 350
f 307 350 342
f 308 345 309
f 309 345 351
f 309 351 352
f 309 352 327
f 310 353 312
f 311 320 354
f 311 354 323
f 311 323 321
f 312 353 314
f 312 314 313
f 314 353 355
f 314 355 315
f 315 356 357
f 315 357 358
f 315 358 317
f 315 317 316
f 315 355 359
f 315 359 356
f 318 360 361
f 318 361 362
f 318 362 363
f 318 363 364
f 318 364 365
f 318 365 366
f 318 366 367
f 318 367 368
f 318 368 369
f 318 369 370
f 318 370 371
f 318 371 372
f 318 372 373
f 318 373 374
f 318 374 375
f 318 375 376
f 318 376 377
f 318 377 378
f 318 378 379
f 318 379 380
f 318 380 381
f 318 381 382
f 319 383 320
f 320 383 384
f 320 384 385
f 320 385 323
f 320 323 354
f 321 323 322
f 323 385 324
f 324 386 325
f 324 385 386
f 328 331 340
f 328 340 339
f 330 387 340
f 330 340 331
f 332 388 333
f 332 340 388
f 333 388 389
f 333 389 390
f 333 390 391
f 333 391 392
f 333 392 393
f 333 393 394
f 333 394 395
f 333 395 396
f 333 396 397
f 333 397 398
f 333 398 399
f 333 399 400
f 333 400 334
f 334 400 401
f 334 401 335
f 335 401 402
f 335 402 336
f 336 403 337
f 336 402 404
f 336 404 405
f 336 405 406
f 336 406 407
f 336 407 408
f 336 408 409
f 336 409 403
f 337 403 338
f 338 403 409
f 338 409 410
f 338 410 411
f 338 411 412
f 338 412 413
f 338 413 414
f 338 414 341
f 340 387 415
f 340 415 388
f 341 414 346
f 342 344 343
f 346 414 347
f 347 414 416
f 347 416 348
f 348 416 417
f 353 359 355
f 375 418 376
f 376 418 419
f 376 419 377
f 377 420 421
f 377 421 422
f 377 422 378
f 377 419 420
f 378 422 423
f 378 423 379
f 379 423 381
f 379 381 380
f 381 423 424
f 381 424 425
f 381 425 426
f 381 426 427
f 381 427 428
f 381 428 429
f 381 429 430
f 381 430 382
f 384 386 385
f 387 431 415
f 388 415 431
f 388 431 389
f 390 432 391
f 391 432 433
f 391 433 434
f 391 434 392
f 392 434 435
f 392 435 393
f 393 436 437
f 393 437 395
f 393 395 394
f 393 435 438
f 393 438 436
f 395 437 439
f 395 439 440
f 395 440 397
f 395 397 396
f 397 440 398
f 398 441 401
f 398 401 399
f 398 440 442
f 398 442 443
f 398 443 444
f 398 444 445
f 398 445 441
f 399 401 400
f 401 441 445
f 401 445 404
f 401 404 402
f 404 445 444
f 404 444 405
f 405 444 446
f 405 446 407
f 405 407 406
f 407 447 408
f 407 446 448
f 407 448 449
f 407 449 447
f 408 447 409
f 409 447 450
f 409 450 451
f 409 451 410
f 410 451 411
f 411 451 452
f 411 452 412
f 412 452 453
f 412 453 413
f 413 454 414
f 414 454 416
f 416 454 417
f 418 455 419
f 419 455 456
f 419 456 457
f 419 457 458
f 419 458 420
f 420 458 421
f 421 458 424
f 421 424 422
f 422 424 423
f 424 458 459
f 424 459 460
f 424 460 461
f 424 461 425
f 425 461 462
f 425 462 463
f 425 463 426
f 426 463 427
f 427 463 464
f 427 464 465
f 427 465 428
f 428 465 464
f 428 464 466
f 436 438 467
f 436 467 468
f 436 468 437
f 437 468 469
f 437 469 470
f 437 470 471
f 437 471 439
f 439 471 472
f 439 472 473
f 439 473 440
f 440 473 442
f 442 473 474
f 442 474 443
f 443 474 475
f 443 475 444
f 444 475 446
f 446 475 448
f 447 449 476
f 447 476 450
f 448 477 478
f 448 478 479
f 448 479 449
f 448 475 477
f 449 479 480
f 449 480 476
f 450 476 451
f 451 476 481
f 451 481 482
f 451 482 452
f 457 483 484
f 457 484 485
f 457 485 458
f 458 485 486
f 458 486 487
f 458 487 459
f 459 487 460
f 460 487 488
f 460 488 461
f 461 488 462
f 462 488 489
f 462 489 463
f 463 489 464
f 464 490 466
f 464 489 490
f 466 490 491
f 467 492 493
f 467 493 468
f 468 494 495
f 468 495 496
f 468 496 497
f 468 497 469
f 468 493 494
f 469 497 498
f 469 498 470
f 470 498 499
f 470 499 471
f 471 499 500
f 471 500 472
f 472 500 474
f 472 474 473
f 474 501 475
f 474 500 502
f 474 502 503
f 474 503 504
f 474 504 501
f 475 501 477
f 476 505 481
f 476 480 506
f 476 506 505
f 477 507 504
f 477 504 478
f 477 501 507
f 478 504 479
f 479 504 508
f 479 508 509
f 479 509 510
f 479 510 511
f 479 511 512
f 479 512 506
f 479 506 480
f 483 513 484
f 484 513 514
f 484 514 515
f 484 515 516
f 484 516 517
f 484 517 485
f 485 517 518
f 485 518 519
f 485 519 486
f 486 519 487
f 487 519 488
f 488 520 489
f 488 519 521
f 488 521 520
f 489 520 490
f 490 522 491
f 490 520 523
f 490 523 524
f 490 524 525
f 490 525 526
f 490 526 522
f 492 527 493
f 493 528 529
f 493 529 494
f 493 527 528
f 494 529 495
f 495 529 530
f 495 530 531
f 495 531 496
f 496 531 497
f 497 531 532
f 497 532 498
f 498 532 533
f 498 533 534
f 498 534 535
f 498 535 499
f 499 535 536
f 499 536 500
f 500 536 502
f 501 504 507
f 502 536 537
f 502 537 503
f 503 537 504
f 504 537 538
f 504 538 539
f 504 539 540
f 504 540 508
f 508 540 509
f 509 539 541
f 509 541 542
f 509 542 543
f 509 543 510
f 509 540 539
f 510 543 511
f 515 544 516
f 516 544 545
f 516 545 546
f 516 546 517
f 517 546 547
f 517 547 518
f 518 547 521
f 518 521 519
f 520 548 549
f 520 549 550
f 520 550 523
f 520 521 547
f 520 547 548
f 523 550 551
f 523 551 524
f 524 551 552
f 524 552 553
f 524 553 554
f 524 554 525
f 528 555 529
f 529 555 556
f 529 556 530
f 530 556 557
f 530 557 558
f 530 558 559
f 530 559 560
f 530 560 561
f 530 561 562
f 530 562 531
f 531 562 563
f 531 563 532
f 532 563 564
f 532 564 565
f 532 565 533
f 533 565 534
f 534 565 566
f 534 566 567
f 534 567 568
f 534 568 536
f 534 536 535
f 536 568 537
f 537 567 569
f 537 569 570
f 537 570 538
f 537 568 567
f 538 570 571
f 538 571 539
f 539 571 572
f 539 572 541
f 541 572 573
f 541 573 542
f 545 574 575
f 545 575 576
f 545 576 577
f 545 577 546
f 546 577 547
f 547 577 578
f 547 578 579
f 547 579 548
f 548 579 549
f 549 579 580
f 549 580 581
f 549 581 582
f 549 582 550
f 550 582 583
f 550 583 551
f 551 583 584
f 551 584 552
f 552 584 585
f 552 585 586
f 552 586 587
f 552 587 553
f 558 588 559
f 559 588 589
f 559 589 560
f 560 589 590
f 560 590 591
f 560 591 561
f 561 591 592
f 561 592 593
f 561 593 562
f 562 593 594
f 562 594 595
f 562 595 563
f 563 595 564
f 564 595 596
f 564 596 597
f 564 597 565
f 565 597 598
f 565 598 566
f 566 598 567
f 567 598 599
f 567 599 600
f 567 600 569
f 569 600 601
f 569 601 602
f 569 602 570
f 570 572 571
f 570 602 603
f 570 603 604
f 570 604 605
f 570 605 606
f 570 606 607
f 570 607 572
f 572 607 608
f 572 608 573
f 574 609 575
f 575 610 611
f 575 611 612
f 575 612 613
f 575 613 576
f 575 609 610
f 576 613 577
f 577 613 578
f 578 613 614
f 578 614 579
f 579 614 580
f 580 614 615
f 580 615 616
f 580 616 582
f 580 582 581
f 582 616 617
f 582 617 618
f 582 618 583
f 583 618 585
f 583 585 584
f 585 619 620
f 585 620 621
f 585 621 622
f 585 622 623
f 585 623 624
f 585 624 625
f 585 625 626
f 585 626 627
f 585 627 628
f 585 628 586
f 585 618 617
f 585 617 619
f 586 628 587
f 588 629 589
f 589 630 631
f 589 631 590
f 589 629 630
f 590 631 591
f 591 631 632
f 591 632 592
f 592 632 593
f 593 632 633
f 593 633 634
f 593 634 594
f 594 634 635
f 594 635 636
f 594 636 595
f 595 636 635
f 595 635 596
f 596 598 597
f 596 635 637
f 596 637 638
f 596 638 598
f 598 638 599
f 599 638 639
f 599 639 600
f 600 639 601
f 601 639 640
f 601 640 641
f 601 641 603
f 601 603 602
f 603 641 642
f 603 642 604
f 604 642 643
f 604 643 644
f 604 644 605
f 609 645 610
f 610 645 646
f 610 646 647
f 610 647 648
f 610 648 611
f 611 648 615
f 611 615 614
f 611 614 613
f 611 613 612
f 615 648 649
f 615 649 650
f 615 650 651
f 615 651 616
f 616 651 617
f 617 651 619
f 619 651 620
f 620 651 652
f 620 652 621
f 621 652 653
f 621 653 654
f 621 654 655
f 621 655 622
f 622 655 623
f 623 655 656
f 623 656 624
f 624 656 657
f 624 657 658
f 624 658 659
f 624 659 625
f 625 659 660
f 625 660 626
f 629 661 662
f 629 662 630
f 630 662 663
f 630 663 664
f 630 664 631
f 631 664 665
f 631 665 666
f 631 666 632
f 632 666 667
f 632 667 633
f 633 667 668
f 633 668 669
f 633 669 670
f 633 670 634
f 634 670 671
f 634 671 672
f 634 672 635
f 635 672 673
f 635 673 637
f 637 673 674
f 637 674 675
f 637 675 676
f 637 676 677
f 637 677 678
f 637 678 638
f 638 678 639
f 639 678 640
f 640 678 679
f 640 679 680
f 640 680 681
f 640 681 641
f 641 681 682
f 641 682 642
f 642 682 683
f 642 683 643
f 645 684 646
f 646 685 647
f 646 684 685
f 647 686 649
f 647 649 648
f 647 685 686
f 649 686 687
f 649 687 650
f 650 687 651
f 651 688 652
f 651 687 688
f 652 689 653
f 652 688 690
f 652 690 689
f 653 689 691
f 653 691 654
f 654 691 692
f 654 692 693
f 654 693 656
f 654 656 655
f 656 693 694
f 656 694 695
f 656 695 657
f 657 695 696
f 657 696 697
f 657 697 698
f 657 698 659
f 657 659 658
f 659 698 699
f 661 700 662
f 662 700 663
f 663 700 701
f 663 701 702
f 663 702 703
f 663 703 664
f 664 703 704
f 664 704 665
f 665 704 666
f 666 704 667
f 667 704 705
f 667 705 706
f 667 706 668
f 668 706 707
f 668 707 669
f 669 707 708
f 669 708 709
f 669 709 670
f 670 709 671
f 671 709 708
f 671 708 710
f 671 710 711
f 671 711 674
f 671 674 673
f 671 673 672
f 674 711 675
f 675 711 712
f 675 712 676
f 676 679 677
f 676 712 679
f 677 679 678
f 679 712 680
f 680 712 713
f 680 713 681
f 681 713 682
f 682 713 714
f 682 714 715
f 682 715 683
f 683 715 716
f 684 717 685
f 685 717 686
f 686 717 718
f 686 718 719
f 686 719 720
f 686 720 721
f 686 721 722
f 686 722 687
f 687 722 690
f 687 690 688
f 689 690 723
f 689 723 724
f 689 724 725
f 689 725 691
f 690 726 723
f 690 722 726
f 691 725 727
f 691 727 692
f 692 727 728
f 692 728 694
f 692 694 693
f 694 728 729
f 694 729 695
f 695 729 730
f 695 730 731
f 695 731 696
f 696 731 732
f 696 732 733
f 696 733 697
f 697 733 734
f 697 734 698
f 698 734 735
f 698 735 699
f 700 736 701
f 701 737 702
f 701 736 737
f 702 737 738
f 702 738 739
f 702 739 703
f 703 739 704
f 704 740 741
f 704 741 705
f 704 739 740
f 705 741 742
f 705 742 706
f 706 742 743
f 706 743 707
f 707 743 744
f 707 744 745
f 707 745 746
f 707 746 747
f 707 747 748
f 707 748 708
f 708 748 711
f 708 711 710
f 711 748 749
f 711 749 712
f 712 749 750
f 712 750 713
f 713 750 714
f 714 751 752
f 714 753 715
f 714 750 751
f 715 753 716
f 721 754 722
f 722 754 755
f 722 755 756
f 722 756 726
f 723 757 758
f 723 758 759
f 723 759 724
f 723 726 756
f 723 756 757
f 724 759 760
f 724 760 725
f 725 760 761
f 725 761 762
f 725 762 727
f 727 762 728
f 728 762 729
f 729 763 764
f 729 764 765
f 729 765 766
f 729 766 730
f 729 762 763
f 730 766 767
f 730 767 768
f 730 768 731
f 731 768 769
f 731 769 770
f 731 770 732
f 732 770 771
f 736 772 773
f 736 773 737
f 737 773 774
f 737 774 775
f 737 775 738
f 738 775 739
f 739 775 776
f 739 776 740
f 740 776 777
f 740 777 741
f 741 777 778
f 741 778 742
f 742 778 743
f 743 778 779
f 743 779 780
f 743 780 781
f 743 781 744
f 744 781 745
f 745 781 782
f 745 782 783
f 745 783 784
f 745 784 746
f 746 784 785
f 746 785 786
f 746 786 787
f 746 787 747
f 747 787 748
f 748 787 788
f 748 788 749
f 749 788 789
f 749 789 750
f 750 789 790
f 750 790 751
f 751 790 791
f 751 791 792
f 751 792 752
f 754 793 755
f 755 793 756
f 756 793 794
f 756 794 795
f 756 795 796
f 756 796 797
f 756 797 757
f 757 797 798
f 757 798 758
f 758 798 799
f 758 799 800
f 758 800 801
f 758 801 759
f 759 801 760
f 760 801 802
f 760 802 803
f 760 803 761
f 761 803 763
f 761 763 762
f 763 803 764
f 764 804 805
f 764 805 806
f 764 806 765
f 764 803 802
f 764 802 801
f 764 801 804
f 765 806 766
f 766 806 807
f 766 807 808
f 766 808 767
f 767 808 809
f 767 809 768
f 768 809 769
f 769 771 770
f 769 809 810
f 769 810 811
f 769 811 771
f 771 811 812
f 772 813 814
f 772 814 774
f 772 774 773
f 774 815 816
f 774 816 775
f 774 814 815
f 775 816 817
f 775 817 776
f 776 817 818
f 776 818 777
f 777 818 778
f 778 818 779
f 779 818 819
f 779 819 820
f 779 820 821
f 779 821 780
f 780 821 822
f 780 822 781
f 781 822 823
f 781 823 782
f 782 823 824
f 782 824 783
f 783 785 784
f 783 824 825
f 783 825 826
f 783 826 785
f 785 826 827
f 785 827 828
f 785 828 786
f 786 829 830
f 786 830 787
f 786 828 831
f 786 831 829
f 787 789 788
f 787 830 789
f 789 830 829
f 789 829 790
f 790 829 832
f 790 832 791
f 794 833 796
f 794 796 795
f 796 833 834
f 796 834 798
f 796 798 797
f 798 834 835
f 798 835 799
f 799 835 836
f 799 836 837
f 799 837 800
f 800 837 804
f 800 804 801
f 804 837 838
f 804 838 805
f 805 838 806
f 806 838 839
f 806 839 840
f 806 840 841
f 806 841 807
f 807 841 842
f 807 842 843
f 807 843 844
f 807 844 808
f 808 844 845
f 808 845 846
f 808 846 847
f 808 847 848
f 808 848 809
f 809 848 810
f 810 848 849
f 810 849 811
f 811 850 812
f 811 849 850
f 813 851 852
f 813 852 814
f 814 853 815
f 814 852 853
f 815 853 854
f 815 854 855
f 815 855 816
f 816 855 856
f 816 856 817
f 817 856 818
f 818 856 819
f 819 856 857
f 819 857 858
f 819 858 859
f 819 859 860
f 819 860 861
f 819 861 820
f 820 861 862
f 820 862 821
f 821 862 863
f 821 863 864
f 821 864 865
f 821 865 823
f 821 823 822
f 823 865 824
f 824 865 866
f 824 866 825
f 825 866 867
f 825 867 868
f 825 868 826
f 826 868 869
f 826 869 827
f 827 869 870
f 827 870 871
f 827 871 828
f 828 832 831
f 829 831 832
f 833 872 834
f 834 872 873
f 834 873 874
f 834 874 835
f 835 874 875
f 835 875 876
f 835 876 836
f 836 876 877
f 836 877 837
f 837 877 838
f 838 877 878
f 838 878 879
f 838 879 839
f 839 879 840
f 840 880 881
f 840 881 842
f 840 842 841
f 840 879 880
f 842 881 882
f 842 882 883
f 842 883 884
f 842 884 843
f 843 884 885
f 843 885 886
f 843 886 887
f 843 887 844
f 844 887 845
f 845 887 888
f 845 888 889
f 845 889 846
f 846 848 847
f 846 889 890
f 846 890 891
f 846 891 848
f 848 891 892
f 848 892 893
f 848 893 849
f 849 893 894
f 849 894 895
f 849 895 850
f 851 896 897
f 851 897 853
f 851 853 852
f 851 898 896
f 853 897 854
f 854 899 855
f 854 897 900
f 854 900 899
f 855 899 901
f 855 901 856
f 856 901 857
f 857 901 902
f 857 902 858
f 858 902 903
f 858 903 904
f 858 904 859
f 859 861 860
f 859 904 905
f 859 905 906
f 859 906 907
f 859 907 861
f 861 863 862
f 861 907 863
f 863 907 908
f 863 908 864
f 864 908 909
f 864 909 865
f 865 909 866
f 866 909 910
f 866 910 867
f 875 911 876
f 876 911 912
f 876 912 877
f 877 912 913
f 877 913 914
f 877 914 915
f 877 915 878
f 878 915 879
f 879 915 916
f 879 916 917
f 879 917 881
f 879 881 880
f 881 917 918
f 881 918 919
f 881 919 920
f 881 920 882
f 882 920 921
f 882 921 883
f 883 921 922
f 883 922 923
f 883 923 884
f 884 923 924
f 884 924 925
f 884 925 885
f 885 925 926
f 885 926 886
f 886 926 888
f 886 888 887
f 888 926 924
f 888 924 927
f 888 927 928
f 888 928 889
f 889 928 929
f 889 929 890
f 890 929 891
f 891 929 930
f 891 930 931
f 891 931 932
f 891 932 892
f 892 932 893
f 893 932 933
f 893 933 894
f 894 933 932
f 894 932 934
f 894 934 935
f 896 900 897
f 896 898 936
f 896 936 937
f 896 937 900
f 899 900 938
f 899 938 902
f 899 902 901
f 900 937 938
f 902 939 904
f 902 904 903
f 902 938 940
f 902 940 939
f 904 939 941
f 904 941 905
f 905 942 943
f 905 943 944
f 905 944 906
f 905 941 945
f 905 945 942
f 906 944 946
f 906 946 947
f 906 947 948
f 906 948 907
f 907 948 908
f 908 948 949
f 908 949 909
f 909 949 910
f 912 914 913
f 914 950 915
f 915 951 916
f 915 950 952
f 915 952 951
f 916 951 953
f 916 953 917
f 917 953 918
f 918 953 951
f 918 951 952
f 920 954 921
f 921 954 955
f 921 955 922
f 922 956 957
f 922 957 923
f 922 955 958
f 922 958 959
f 922 959 956
f 923 957 924
f 924 957 956
f 924 956 927
f 924 926 925
f 927 956 928
f 928 956 960
f 928 960 929
f 929 961 930
f 929 960 961
f 930 962 963
f 930 963 931
f 930 961 964
f 930 964 965
f 930 965 966
f 930 966 962
f 931 963 934
f 931 934 932
f 934 963 967
f 934 967 935
f 935 967 968
f 937 969 970
f 937 970 971
f 937 971 972
f 937 972 938
f 938 972 973
f 938 973 974
f 938 974 940
f 939 940 974
f 939 974 941
f 941 974 945
f 942 975 943
f 942 945 975
f 943 976 977
f 943 977 946
f 943 946 944
f 943 975 978
f 943 978 976
f 945 979 975
f 945 974 970
f 945 970 980
f 945 980 979
f 946 977 981
f 946 981 947
f 947 981 982
f 947 982 948
f 948 982 983
f 948 983 949
f 954 984 958
f 954 958 955
f 956 964 961
f 956 961 960
f 956 959 985
f 956 985 986
f 956 986 987
f 956 987 988
f 956 988 964
f 958 984 989
f 958 989 990
f 958 990 986
f 958 986 985
f 958 985 959
f 962 991 963
f 962 966 992
f 962 992 991
f 963 991 993
f 963 993 968
f 963 968 967
f 964 994 965
f 964 988 994
f 965 994 992
f 965 992 966
f 969 995 970
f 970 996 980
f 970 974 971
f 970 995 997
f 970 997 998
f 970 998 996
f 971 974 973
f 971 973 972
f 975 979 978
f 976 978 999
f 976 999 977
f 978 979 1000
f 978 1000 1001
f 978 1001 999
f 979 980 1002
f 979 1002 1003
f 979 1003 1000
f 980 996 1002
f 986 1004 1005
f 986 1005 1006
f 986 1006 1007
f 986 1007 1008
f 986 1008 1009
f 986 1009 1010
f 986 1010 1011
f 986 1011 1012
f 986 1012 987
f 986 990 1004
f 987 1012 988
f 988 1012 1013
f 988 1013 994
f 989 1014 990
f 990 1014 1004
f 991 992 1015
f 992 1016 1017
f 992 1017 1018
f 992 1018 1019
f 992 1019 1020
f 992 1020 1021
f 992 1021 1015
f 992 994 1022
f 992 1022 1009
f 992 1009 1016
f 994 1013 1022
f 996 1023 1024
f 996 1024 1002
f 996 998 1025
f 996 1025 1023
f 1000 1026 1001
f 1000 1003 1026
f 1002 1024 1003
f 1003 1024 1023
f 1003 1023 1027
f 1003 1027 1028
f 1003 1028 1026
f 1004 1014 1005
f 1006 1008 1007
f 1008 1017 1016
f 1008 1016 1009
f 1009 1022 1012
f 1009 1012 1010
f 1010 1012 1011
f 1012 1022 1013
f 1015 1021 1030
f 1015 1030 1029
f 1019 1031 1020
f 1020 1031 1032
f 1020 1032 1033
f 1020 1033 1021
f 1021 1033 1030
f 1023 1034 1035
f 1023 1035 1036
f 1023 1036 1037
f 1023 1037 1038
f 1023 1038 1027
f 1023 1025 1029
f 1023 1029 1034
f 1027 1038 1028
f 1029 1030 1034
f 1030 1033 1039
f 1030 1039 1040
f 1030 1040 1041
f 1030 1041 1034
f 1032 1039 1033
f 1034 1041 1035
f 1035 1041 1036
f 1036 1041 1042
f 1040 1042 1041

