# https://github.com/mikedh/trimesh
v -0.03732149 0.01578200 0.08143134
v -0.03732149 0.01576912 0.08117727
v -0.04024540 0.01239858 0.06636669
v -0.04024540 0.01240502 0.06656396
v -0.04024540 0.01241468 0.06694058
v -0.04024540 0.01236961 0.06753390
v -0.04024540 0.01231166 0.06814216
v -0.03772820 0.01501904 0.08143134
v -0.03732149 -0.01710570 0.08143134
v -0.03732149 0.01564679 0.07999212
v -0.04024540 0.01238248 0.06616343
v -0.04024540 0.01202837 0.06932731
v -0.03915008 0.01194789 0.08143134
v -0.03888906 0.01254023 0.08143134
v -0.03839936 0.01362833 0.08143134
v -0.03802528 0.01442670 0.08143134
v -0.03738417 -0.01696727 0.08143134
v -0.04024540 -0.01339392 0.07288275
v -0.04024540 -0.01365468 0.07169760
v -0.04024540 -0.01370941 0.07051245
v -0.03732149 -0.01710248 0.08126993
v -0.03732149 0.01555987 0.07958113
v -0.03732149 0.01538925 0.07884434
v -0.03732149 0.01510596 0.07792372
v -0.03732149 0.01500938 0.07762183
v -0.04002531 0.01228913 0.06616343
v -0.04024540 -0.01270179 0.06616343
v -0.04024540 0.01187706 0.06984441
v -0.03978604 0.01007107 0.08143134
v -0.03970418 0.01032539 0.08143134
v -0.03939422 0.01125575 0.08143134
v -0.03933984 0.01141028 0.08143134
v -0.03774050 -0.01613349 0.08143134
v -0.04024540 -0.01311063 0.07367633
v -0.04024540 -0.01363214 0.06932731
v -0.03732149 -0.01709604 0.08117727
v -0.03801183 0.01105938 0.06616343
v -0.03908769 0.01185775 0.06616343
v -0.03732149 0.01051533 0.06616343
v -0.03771503 0.01083403 0.06616343
v -0.03970018 -0.01278871 0.06616343
v -0.04024540 -0.01293035 0.06660880
v -0.04024540 0.00838098 0.08143134
v -0.04012491 0.00888640 0.08143134
v -0.04005450 0.00914072 0.08143134
v -0.03804503 -0.01537697 0.08143134
v -0.04024540 -0.01287241 0.07426815
v -0.04024540 -0.01342933 0.06814216
v -0.03732149 -0.01688035 0.07996821
v -0.03732149 -0.01243137 0.06616343
v -0.03851527 -0.01274686 0.06616343
v -0.03970018 -0.01296898 0.06652660
v -0.04024540 -0.01316536 0.06720062
v -0.04024540 -0.00736430 0.08143134
v -0.03826341 -0.01481038 0.08143134
v -0.03871104 -0.01362571 0.08143134
v -0.04024540 -0.01259555 0.07480468
v -0.04024540 -0.01332310 0.06775359
v -0.03970018 -0.01348084 0.06814216
v -0.03732149 -0.01659062 0.07880698
v -0.03732149 -0.01669686 0.07922096
v -0.03732149 -0.01277905 0.06700484
v -0.03814864 -0.01265350 0.06616343
v -0.03777886 -0.01307522 0.06742928
v -0.03851527 -0.01293357 0.06664915
v -0.03970018 -0.01319111 0.06711992
v -0.04024540 -0.00770553 0.08116382
v -0.04018988 -0.00769588 0.08143134
v -0.03901786 -0.01273398 0.08143134
v -0.04024540 -0.01235733 0.07525154
v -0.03732149 -0.01647151 0.07839748
v -0.03851527 -0.01313638 0.06724247
v -0.03997093 -0.00888699 0.08143134
v -0.04024540 -0.01017147 0.07848118
v -0.03919359 -0.01214164 0.08143134
v -0.04024540 -0.01127245 0.07714658
v -0.03978003 -0.00981735 0.08143134
v -0.04024540 -0.01100525 0.07750078
v -0.03972765 -0.01007167 0.08143134
v -0.03924997 -0.01193883 0.08143134
v -0.03943114 -0.01125635 0.08143134
v -0.03949582 -0.01100203 0.08143134
f 1 2 3
f 1 3 4
f 1 4 5
f 1 5 6
f 1 6 7
f 1 7 8
f 1 8 16
f 1 16 15
f 1 15 14
f 1 14 13
f 1 13 32
f 1 32 31
f 1 31 30
f 1 30 29
f 1 29 45
f 1 45 44
f 1 44 43
f 1 43 54
f 1 54 68
f 1 68 73
f 1 73 77
f 1 77 79
f 1 79 82
f 1 82 81
f 1 81 80
f 1 80 75
f 1 75 69
f 1 69 56
f 1 56 55
f 1 55 46
f 1 46 33
f 1 33 17
f 1 17 9
f 1 9 21
f 1 21 36
f 1 36 49
f 1 49 61
f 1 61 60
f 1 60 71
f 1 71 62
f 1 62 50
f 1 50 39
f 1 39 25
f 1 25 24
f 1 24 23
f 1 23 22
f 1 22 10
f 1 10 2
f 2 10 11
f 2 11 3
f 3 11 27
f 3 27 42
f 3 42 53
f 3 53 58
f 3 58 48
f 3 48 35
f 3 35 20
f 3 20 19
f 3 19 18
f 3 18 34
f 3 34 47
f 3 47 57
f 3 57 70
f 3 70 76
f 3 76 78
f 3 78 74
f 3 74 67
f 3 67 54
f 3 54 43
f 3 43 28
f 3 28 12
f 3 12 7
f 3 7 6
f 3 6 5
f 3 5 4
f 7 12 13
f 7 13 14
f 7 14 15
f 7 15 16
f 7 16 8
f 9 17 18
f 9 18 19
f 9 19 20
f 9 20 21
f 10 22 11
f 11 22 23
f 11 23 24
f 11 24 25
f 11 25 26
f 11 26 38
f 11 38 37
f 11 37 40
f 11 40 39
f 11 39 50
f 11 50 63
f 11 63 51
f 11 51 41
f 11 41 27
f 12 28 29
f 12 29 30
f 12 30 31
f 12 31 32
f 12 32 13
f 17 33 34
f 17 34 18
f 20 35 21
f 21 35 36
f 25 37 38
f 25 38 26
f 25 39 40
f 25 40 37
f 27 41 42
f 28 43 44
f 28 44 45
f 28 45 29
f 33 46 47
f 33 47 34
f 35 48 36
f 36 48 49
f 41 51 52
f 41 52 42
f 42 52 53
f 46 55 47
f 47 55 56
f 47 56 57
f 48 58 59
f 48 59 60
f 48 60 61
f 48 61 49
f 50 62 63
f 51 63 64
f 51 64 65
f 51 65 52
f 52 65 66
f 52 66 53
f 53 66 58
f 54 67 68
f 56 69 57
f 57 69 70
f 58 66 59
f 59 66 60
f 60 66 71
f 62 71 64
f 62 64 63
f 64 72 65
f 64 71 72
f 65 72 66
f 66 72 71
f 67 73 68
f 67 74 73
f 69 75 76
f 69 76 70
f 73 74 77
f 74 78 79
f 74 79 77
f 75 80 76
f 76 80 81
f 76 81 82
f 76 82 78
f 78 82 79

