# https://github.com/mikedh/trimesh
v 0.10889121 -0.05180721 0.00382490
v 0.10889121 -0.09323175 0.00570628
v 0.10889121 -0.05180721 -0.00436936
v -0.00002717 -0.05180721 0.00105551
v 0.10889121 -0.09323175 -0.00292652
v -0.00002717 -0.09323175 0.00276366
v 0.10889121 -0.08298309 -0.00436936
v 0.10668426 -0.05180721 -0.00482971
v -0.00002717 -0.05180721 -0.00666870
v 0.10674824 -0.09323175 -0.00342685
v 0.10889121 -0.08975605 -0.00362916
v -0.00002717 -0.09323175 -0.00516771
v 0.10889121 -0.08636957 -0.00417795
v 0.10668426 -0.08636957 -0.00464315
v 0.10668426 -0.08298309 -0.00482971
v 0.10337919 -0.05180721 -0.00535185
v -0.00002717 -0.08298309 -0.00666870
v 0.09314410 -0.05180721 -0.00666870
v 0.10668426 -0.09323175 -0.00343775
v 0.10668426 -0.08975605 -0.00411495
v -0.00002717 -0.09314253 -0.00518709
v 0.08975372 -0.09323175 -0.00516771
v 0.09859215 -0.08832845 -0.00566561
v 0.10085240 -0.08700631 -0.00548874
v 0.10166268 -0.08474730 -0.00561473
v 0.10337919 -0.08298309 -0.00535185
v 0.10132151 -0.05180721 -0.00567651
v -0.00002717 -0.08464997 -0.00657662
v 0.09314410 -0.08298309 -0.00666870
v 0.09583081 -0.05180721 -0.00646880
v 0.09661977 -0.09323175 -0.00489271
v 0.09652381 -0.08905037 -0.00582189
v -0.00002717 -0.08963438 -0.00594909
v 0.08975372 -0.09314253 -0.00518709
v 0.09314410 -0.09132965 -0.00558081
v 0.09314410 -0.09323175 -0.00516529
v 0.09652381 -0.08636957 -0.00622773
v 0.09979691 -0.08607351 -0.00575889
v 0.09652381 -0.08298309 -0.00641671
v 0.09991419 -0.08298309 -0.00589821
v 0.09991419 -0.05180721 -0.00589821
v -0.00002717 -0.08636957 -0.00647971
v 0.09314410 -0.08636957 -0.00647971
v 0.09652381 -0.05180721 -0.00641671
v 0.09652381 -0.09323175 -0.00490482
v 0.09652381 -0.09074158 -0.00545119
v 0.09314410 -0.08963438 -0.00594909
v 0.09922119 -0.05180721 -0.00600481
f 1 2 5
f 1 5 11
f 1 11 13
f 1 13 7
f 1 7 3
f 1 3 8
f 1 8 16
f 1 16 27
f 1 27 41
f 1 41 48
f 1 48 44
f 1 44 30
f 1 30 18
f 1 18 9
f 1 9 4
f 1 4 2
f 2 4 6
f 2 6 12
f 2 12 22
f 2 22 36
f 2 36 45
f 2 45 31
f 2 31 19
f 2 19 10
f 2 10 5
f 3 7 15
f 3 15 8
f 4 9 17
f 4 17 28
f 4 28 42
f 4 42 33
f 4 33 21
f 4 21 12
f 4 12 6
f 5 10 11
f 7 13 14
f 7 14 15
f 8 15 26
f 8 26 16
f 9 18 29
f 9 29 17
f 10 19 20
f 10 20 11
f 11 20 13
f 12 21 34
f 12 34 22
f 13 20 14
f 14 20 23
f 14 23 24
f 14 24 25
f 14 25 15
f 15 25 26
f 16 26 27
f 17 29 28
f 18 30 29
f 19 31 32
f 19 32 23
f 19 23 20
f 21 33 47
f 21 47 34
f 22 34 47
f 22 47 35
f 22 35 36
f 23 32 37
f 23 37 24
f 24 37 38
f 24 38 25
f 25 38 37
f 25 37 39
f 25 39 40
f 25 40 26
f 26 40 27
f 27 40 41
f 28 29 43
f 28 43 42
f 29 30 39
f 29 39 37
f 29 37 43
f 30 44 39
f 31 45 46
f 31 46 32
f 32 46 36
f 32 36 35
f 32 35 47
f 32 47 43
f 32 43 37
f 33 42 43
f 33 43 47
f 36 46 45
f 39 44 48
f 39 48 40
f 40 48 41

