# https://github.com/mikedh/trimesh
v -0.09311647 0.08957281 0.00200345
v -0.09311647 0.06335951 0.00109937
v -0.09311647 0.08957281 -0.00595921
v -0.12623985 0.08957281 0.01802303
v -0.12721909 0.06335951 0.01802303
v -0.09311647 0.06335951 -0.00666989
v -0.09311647 0.08637056 -0.00647892
v -0.09314628 0.08957281 -0.00595921
v -0.13580222 0.08957281 0.01802303
v -0.13660689 0.06335951 0.01802303
v -0.09314628 0.06335951 -0.00666989
v -0.09311647 0.08298356 -0.00666989
v -0.09311647 0.08633720 -0.00648135
v -0.09314628 0.08637056 -0.00647892
v -0.09351668 0.08957281 -0.00593503
v -0.13534666 0.08957281 0.01686755
v -0.13572132 0.08905193 0.01746221
v -0.13587033 0.08931622 0.01802303
v -0.13660689 0.08298356 0.01802303
v -0.13605766 0.06335951 0.01662340
v -0.09314628 0.08298356 -0.00666989
v -0.09653526 0.06335951 -0.00641608
v -0.09653526 0.08637056 -0.00622752
v -0.09653526 0.08904937 -0.00582142
v -0.09653526 0.08957281 -0.00570780
v -0.13505289 0.08957281 0.01622213
v -0.13527428 0.08637056 0.01518993
v -0.13595123 0.08637056 0.01688205
v -0.13639401 0.08637056 0.01802303
v -0.13605766 0.08298356 0.01662340
v -0.13552548 0.06335951 0.01527937
v -0.09653526 0.08298356 -0.00641608
v -0.09723348 0.06335951 -0.00630971
v -0.10166555 0.08474891 -0.00561353
v -0.09980928 0.08607549 -0.00575856
v -0.10086087 0.08700690 -0.00548782
v -0.09860439 0.08833092 -0.00566429
v -0.10651059 0.08957281 -0.00417280
v -0.13324771 0.08957281 0.01329475
v -0.13538498 0.08298356 0.01492886
v -0.13335415 0.08659636 0.01269768
v -0.13538498 0.06335951 0.01492886
v -0.09991997 0.08298356 -0.00589635
v -0.10028611 0.06335951 -0.00584075
v -0.10169109 0.08298356 -0.00561836
v -0.10669366 0.08298356 -0.00482789
v -0.10669366 0.08637056 -0.00464176
v -0.10669366 0.08957281 -0.00414380
v -0.13312850 0.08957281 0.01313763
v -0.13386931 0.08298356 0.01301918
v -0.13418437 0.06335951 0.01341320
v -0.13206838 0.08787418 0.01135364
v -0.13221314 0.08561618 0.01119652
v -0.10406678 0.06335951 -0.00524368
v -0.10669366 0.06335951 -0.00482789
v -0.10739189 0.06335951 -0.00468286
v -0.11008263 0.08298356 -0.00411962
v -0.11008263 0.08637056 -0.00392624
v -0.11008263 0.08957281 -0.00339684
v -0.13184274 0.08957281 0.01160988
v -0.13260482 0.06335951 0.01152044
v -0.13386931 0.06335951 0.01301918
v -0.13227274 0.08298356 0.01113367
v -0.13003330 0.08957281 0.00961800
v -0.12825366 0.08957281 0.00768174
v -0.12876456 0.08829243 0.00787754
v -0.12732978 0.08637056 0.00603554
v -0.13088054 0.08659636 0.00989358
v -0.12744047 0.08298356 0.00591950
v -0.13070598 0.08298356 0.00943913
v -0.11008263 0.06335951 -0.00411962
v -0.11318635 0.08298356 -0.00294723
v -0.11298625 0.08637056 -0.00284570
v -0.11227099 0.08957281 -0.00261605
v -0.13227274 0.06335951 0.01113367
v -0.13102955 0.06335951 0.00978722
v -0.12695086 0.08957281 0.00626760
v -0.12546073 0.08861829 0.00441835
v -0.12563955 0.08637056 0.00424431
v -0.12744047 0.06335951 0.00591950
v -0.12776405 0.06335951 0.00626760
v -0.12574599 0.08298356 0.00414036
v -0.11318635 0.06335951 -0.00294723
v -0.11468074 0.08637056 -0.00197063
v -0.11353546 0.06335951 -0.00276834
v -0.12153106 0.08298356 0.00137736
v -0.12133521 0.08637056 0.00147647
v -0.11242852 0.08957281 -0.00255562
v -0.12079451 0.08957281 0.00173271
v -0.12070084 0.08957281 0.00168436
v -0.12411111 0.08957281 0.00371491
v -0.12384714 0.08957281 0.00354329
v -0.12362575 0.08637056 0.00285918
v -0.12362575 0.08298356 0.00265612
v -0.12574599 0.06335951 0.00414036
v -0.12153106 0.06335951 0.00137736
v -0.12372368 0.08957281 0.00346835
v -0.12362575 0.06335951 0.00265612
f 1 2 6
f 1 6 12
f 1 12 13
f 1 13 7
f 1 7 3
f 1 3 8
f 1 8 15
f 1 15 25
f 1 25 38
f 1 38 48
f 1 48 59
f 1 59 74
f 1 74 88
f 1 88 90
f 1 90 89
f 1 89 97
f 1 97 92
f 1 92 91
f 1 91 77
f 1 77 65
f 1 65 64
f 1 64 60
f 1 60 49
f 1 49 39
f 1 39 26
f 1 26 16
f 1 16 9
f 1 9 4
f 1 4 5
f 1 5 2
f 2 5 10
f 2 10 20
f 2 20 31
f 2 31 42
f 2 42 51
f 2 51 62
f 2 62 61
f 2 61 75
f 2 75 76
f 2 76 81
f 2 81 80
f 2 80 95
f 2 95 98
f 2 98 96
f 2 96 85
f 2 85 83
f 2 83 71
f 2 71 56
f 2 56 55
f 2 55 54
f 2 54 44
f 2 44 33
f 2 33 22
f 2 22 11
f 2 11 6
f 3 7 14
f 3 14 8
f 4 9 18
f 4 18 29
f 4 29 19
f 4 19 10
f 4 10 5
f 6 11 21
f 6 21 12
f 7 13 14
f 8 14 15
f 9 16 17
f 9 17 18
f 10 19 30
f 10 30 20
f 11 22 32
f 11 32 21
f 12 21 13
f 13 21 14
f 14 21 23
f 14 23 24
f 14 24 15
f 15 24 25
f 16 26 27
f 16 27 17
f 17 28 29
f 17 29 18
f 17 27 28
f 19 29 28
f 19 28 30
f 20 30 31
f 21 32 23
f 22 33 32
f 23 32 34
f 23 34 35
f 23 35 36
f 23 36 37
f 23 37 24
f 24 37 25
f 25 37 38
f 26 39 27
f 27 40 28
f 27 39 41
f 27 41 40
f 28 40 30
f 30 40 31
f 31 40 42
f 32 33 43
f 32 43 34
f 33 44 43
f 34 43 45
f 34 45 46
f 34 46 47
f 34 47 35
f 35 47 36
f 36 47 37
f 37 47 48
f 37 48 38
f 39 49 41
f 40 41 50
f 40 50 51
f 40 51 42
f 41 49 52
f 41 52 53
f 41 53 50
f 43 44 45
f 44 54 45
f 45 54 46
f 46 54 55
f 46 55 56
f 46 56 57
f 46 57 47
f 47 57 58
f 47 58 48
f 48 58 59
f 49 60 52
f 50 61 62
f 50 62 51
f 50 53 63
f 50 63 61
f 52 60 64
f 52 64 65
f 52 65 66
f 52 66 67
f 52 67 68
f 52 68 53
f 53 68 67
f 53 67 69
f 53 69 70
f 53 70 63
f 56 71 57
f 57 71 83
f 57 83 72
f 57 72 73
f 57 73 58
f 58 73 74
f 58 74 59
f 61 63 75
f 63 70 76
f 63 76 75
f 65 77 66
f 66 77 78
f 66 78 67
f 67 78 79
f 67 79 69
f 69 80 81
f 69 81 76
f 69 76 70
f 69 79 82
f 69 82 95
f 69 95 80
f 72 84 73
f 72 83 85
f 72 85 86
f 72 86 87
f 72 87 84
f 73 88 74
f 73 84 89
f 73 89 90
f 73 90 88
f 77 91 78
f 78 91 92
f 78 92 93
f 78 93 79
f 79 93 94
f 79 94 82
f 82 94 98
f 82 98 95
f 84 87 89
f 85 96 86
f 86 96 98
f 86 98 94
f 86 94 93
f 86 93 87
f 87 93 97
f 87 97 89
f 92 97 93

