# https://github.com/mikedh/trimesh
v 0.16161947 -0.09141829 0.18923055
v 0.16126295 -0.09141829 0.19072010
v 0.16012938 -0.09653392 0.19195339
v 0.15967230 -0.09899406 0.19148890
v 0.16123552 -0.09314540 0.18915046
v 0.13940982 -0.09143212 0.02997639
v 0.13959265 -0.09141829 0.03141790
v 0.16083329 -0.09141829 0.19211356
v 0.16051791 -0.09314540 0.19214559
v 0.15749659 -0.09653392 0.19342692
v 0.15768856 -0.10004174 0.19230575
v 0.15406389 -0.10646091 0.19188932
v 0.15289833 -0.10896082 0.19147289
v 0.15592422 -0.10517639 0.19105646
v 0.15592422 -0.10517639 0.19054392
v 0.15958545 -0.09886094 0.18915046
v 0.16044020 -0.09653392 0.18915046
v 0.13913557 -0.09254203 0.02997639
v 0.13930926 -0.09141829 0.02997639
v 0.15933406 -0.09141829 0.19283430
v 0.15749659 -0.09314540 0.19360311
v 0.15072262 -0.10669258 0.19336286
v 0.15410960 -0.10330579 0.19302651
v 0.15266065 -0.10908010 0.19153696
v 0.15274750 -0.10908010 0.19129670
v 0.15279321 -0.10883288 0.18915046
v 0.13563432 -0.10179478 0.02997639
v 0.13674046 -0.09993282 0.02997639
v 0.13898930 -0.09847195 0.04088377
v 0.13884304 -0.09812100 0.03862541
v 0.13812999 -0.09655294 0.02997639
v 0.13871049 -0.09424321 0.02997639
v 0.13067498 -0.09141829 0.02997639
v 0.15749659 -0.09141829 0.19350701
v 0.14483997 -0.10908010 0.19293041
v 0.14833665 -0.10908010 0.19325075
v 0.15066777 -0.10908010 0.19243389
v 0.15250981 -0.10908010 0.18911843
v 0.13007619 -0.10908010 0.03335591
v 0.13138345 -0.10751550 0.03335591
v 0.13421736 -0.10350114 0.02997639
v 0.11492390 -0.10908010 0.02997639
v 0.14555758 -0.09141829 0.13166649
v 0.15620304 -0.09141829 0.19285032
v 0.14203805 -0.10908010 0.19193737
v 0.12957797 -0.10908010 0.02997639
v 0.13113662 -0.10720950 0.02997639
v 0.12506657 -0.10908010 0.09537262
v 0.15402732 -0.09141829 0.18915046
v 0.15151338 -0.09141829 0.17233292
v 0.14849663 -0.09141829 0.15173543
v 0.15503748 -0.09141829 0.19214559
v 0.14143470 -0.10908010 0.19156899
v 0.12553280 -0.10908010 0.09835173
v 0.13788317 -0.10908010 0.17536007
v 0.13910814 -0.10908010 0.18295200
v 0.13961094 -0.10908010 0.18597915
v 0.14016858 -0.10908010 0.18915046
v 0.14020972 -0.10908010 0.18931063
v 0.15445242 -0.09141829 0.19060799
v 0.12753024 -0.10908010 0.11110103
f 1 2 3
f 1 3 4
f 1 4 5
f 1 5 6
f 1 6 7
f 1 7 19
f 1 19 33
f 1 33 43
f 1 43 51
f 1 51 50
f 1 50 49
f 1 49 60
f 1 60 52
f 1 52 44
f 1 44 34
f 1 34 20
f 1 20 8
f 1 8 2
f 2 8 3
f 3 8 9
f 3 9 10
f 3 10 11
f 3 11 4
f 4 11 12
f 4 12 13
f 4 13 14
f 4 14 15
f 4 15 16
f 4 16 17
f 4 17 5
f 5 17 6
f 6 18 32
f 6 32 31
f 6 31 28
f 6 28 27
f 6 27 41
f 6 41 47
f 6 47 46
f 6 46 42
f 6 42 33
f 6 33 19
f 6 19 7
f 6 17 18
f 8 20 10
f 8 10 9
f 10 21 22
f 10 22 23
f 10 23 11
f 10 20 21
f 11 23 12
f 12 23 22
f 12 22 13
f 13 22 24
f 13 24 25
f 13 25 26
f 13 26 15
f 13 15 14
f 15 26 27
f 15 27 16
f 16 27 28
f 16 28 29
f 16 29 30
f 16 30 17
f 17 30 31
f 17 31 32
f 17 32 18
f 20 34 21
f 21 34 35
f 21 35 36
f 21 36 22
f 22 36 37
f 22 37 24
f 24 37 36
f 24 36 35
f 24 35 45
f 24 45 53
f 24 53 59
f 24 59 58
f 24 58 57
f 24 57 56
f 24 56 55
f 24 55 61
f 24 61 54
f 24 54 48
f 24 48 42
f 24 42 46
f 24 46 39
f 24 39 38
f 24 38 25
f 25 38 26
f 26 38 39
f 26 39 40
f 26 40 27
f 27 40 41
f 28 31 30
f 28 30 29
f 33 42 43
f 34 44 45
f 34 45 35
f 39 46 40
f 40 46 47
f 40 47 41
f 42 48 49
f 42 49 50
f 42 50 51
f 42 51 43
f 44 52 45
f 45 52 53
f 48 54 49
f 49 55 56
f 49 56 57
f 49 57 58
f 49 58 59
f 49 59 60
f 49 54 61
f 49 61 55
f 52 60 59
f 52 59 53

