# https://github.com/mikedh/trimesh
v 0.13080140 -0.09141829 0.03057384
v 0.13236254 -0.05180316 0.03060574
v 0.13235937 -0.05181479 0.03057384
v 0.13949373 -0.09141829 0.03057384
v 0.14556094 -0.09141829 0.13166030
v 0.13248920 -0.05180316 0.03057384
v 0.14849639 -0.09141829 0.15174043
v 0.15151416 -0.09141829 0.17233093
v 0.15531093 -0.05180316 0.18633439
v 0.13982623 -0.09006495 0.03057384
v 0.16267645 -0.08855650 0.19056095
v 0.16161881 -0.09141829 0.18923716
v 0.14076038 -0.05180316 0.03057384
v 0.15402528 -0.09141829 0.18914147
v 0.15564026 -0.05180316 0.18856729
v 0.13990223 -0.08975473 0.03057384
v 0.16289178 -0.08636945 0.18995488
v 0.16267645 -0.08855650 0.19105538
v 0.14053871 -0.08636945 0.03057384
v 0.16126098 -0.09141829 0.19072045
v 0.14076038 -0.08298030 0.03057384
v 0.16314827 -0.05180316 0.18915742
v 0.15445278 -0.09141829 0.19060879
v 0.15589359 -0.05180316 0.19025791
v 0.16310395 -0.08298030 0.18931691
v 0.16289178 -0.08636945 0.19140626
v 0.16083349 -0.09141829 0.19212397
v 0.16314827 -0.07959502 0.18915742
v 0.16314827 -0.05180316 0.19175715
v 0.15503859 -0.09141829 0.19213992
v 0.15624191 -0.05180316 0.19068855
v 0.16310395 -0.08298030 0.19170930
v 0.16088415 -0.08636945 0.19285764
v 0.15933568 -0.09141829 0.19282574
v 0.16314827 -0.07959502 0.19175715
v 0.16088415 -0.05180316 0.19327233
v 0.15620391 -0.09141829 0.19285764
v 0.15758772 -0.05180316 0.19233132
v 0.16088415 -0.08298030 0.19320853
v 0.15749905 -0.09141829 0.19351156
v 0.16088415 -0.07959502 0.19327233
f 1 2 3
f 1 3 6
f 1 6 13
f 1 13 21
f 1 21 19
f 1 19 16
f 1 16 10
f 1 10 4
f 1 4 12
f 1 12 20
f 1 20 27
f 1 27 34
f 1 34 40
f 1 40 37
f 1 37 30
f 1 30 23
f 1 23 14
f 1 14 8
f 1 8 7
f 1 7 5
f 1 5 2
f 2 6 3
f 2 5 7
f 2 7 8
f 2 8 9
f 2 9 15
f 2 15 24
f 2 24 31
f 2 31 38
f 2 38 36
f 2 36 29
f 2 29 22
f 2 22 13
f 2 13 6
f 4 10 11
f 4 11 12
f 8 14 15
f 8 15 9
f 10 16 11
f 11 17 26
f 11 26 18
f 11 18 12
f 11 16 19
f 11 19 17
f 12 18 20
f 13 22 28
f 13 28 21
f 14 23 24
f 14 24 15
f 17 25 32
f 17 32 26
f 17 19 25
f 18 26 27
f 18 27 20
f 19 21 25
f 21 28 25
f 22 29 35
f 22 35 28
f 23 30 24
f 24 30 31
f 25 28 35
f 25 35 32
f 26 32 33
f 26 33 27
f 27 33 34
f 29 36 41
f 29 41 35
f 30 37 38
f 30 38 31
f 32 35 39
f 32 39 33
f 33 39 40
f 33 40 34
f 35 41 39
f 36 38 40
f 36 40 41
f 37 40 38
f 39 41 40

