# https://github.com/mikedh/trimesh
v -0.09343447 -0.11112341 0.00481416
v -0.09653391 -0.11112341 0.00507009
v -0.09653391 -0.10955183 0.00364938
v -0.09343447 -0.10968022 0.00353453
v -0.09343447 -0.11112341 0.01990394
v -0.09673870 -0.11112341 0.00509962
v -0.10330663 -0.10896377 0.00411857
v -0.09653391 -0.10727149 0.00195632
v -0.09343447 -0.10744869 0.00184149
v -0.10728921 -0.11112341 0.02697798
v -0.09343447 -0.08489186 0.00114918
v -0.09794179 -0.11112341 0.00531618
v -0.09992134 -0.11095649 0.00550976
v -0.10602425 -0.10867359 0.00433841
v -0.09513670 -0.10168364 -0.00226972
v -0.09343447 -0.10730488 0.00173649
v -0.11522449 -0.10814203 0.02697798
v -0.11522449 -0.11112341 0.02697798
v -0.09343447 -0.08489186 -0.00653844
v -0.11522449 -0.08489186 0.00709781
v -0.10330663 -0.11112341 0.00644487
v -0.10330663 -0.11065862 0.00586412
v -0.10689671 -0.11016300 0.00619222
v -0.10828326 -0.10835260 0.00458121
v -0.10696923 -0.10700956 0.00338032
v -0.10669193 -0.10444676 0.00155931
v -0.10669193 -0.10275191 0.00040109
v -0.10669193 -0.10017883 -0.00129197
v -0.10843897 -0.09826058 -0.00224020
v -0.10669193 -0.09848399 -0.00236160
v -0.09637180 -0.10011720 -0.00289642
v -0.09343447 -0.09993488 -0.00319499
v -0.09343447 -0.10171446 -0.00229270
v -0.09343447 -0.10316279 -0.00125259
v -0.11522449 -0.11112341 0.01257724
v -0.09343447 -0.08608338 -0.00647282
v -0.09462475 -0.08489186 -0.00645312
v -0.11522449 -0.08489186 -0.00179069
v -0.10611172 -0.11112341 0.00710765
v -0.10745773 -0.11112341 0.00742919
v -0.10924743 -0.10225117 0.00074232
v -0.10833231 -0.11112341 0.00777371
v -0.11007935 -0.10948763 0.00672704
v -0.11508797 -0.10834233 0.00799683
v -0.11522449 -0.10817028 0.00792793
v -0.11522449 -0.10647287 0.00665158
v -0.11346678 -0.09653235 -0.00035356
v -0.11062331 -0.09653235 -0.00171194
v -0.11131658 -0.09409794 -0.00204333
v -0.11196079 -0.09184072 -0.00230910
v -0.11007935 -0.08976068 -0.00338202
v -0.10669193 -0.08976068 -0.00411371
v -0.09860093 -0.08833290 -0.00566566
v -0.09653391 -0.08905192 -0.00581987
v -0.09653391 -0.09653235 -0.00419245
v -0.10997270 -0.09983472 -0.00048809
v -0.11346678 -0.09896676 0.00066357
v -0.11522449 -0.09829653 0.00111964
v -0.09992134 -0.09934169 -0.00280126
v -0.09343447 -0.09962929 -0.00330655
v -0.11522449 -0.10830381 0.00804604
v -0.11257727 -0.11112341 0.01054952
v -0.09343447 -0.08637356 -0.00645641
v -0.09653391 -0.08637356 -0.00622673
v -0.09653391 -0.08489186 -0.00630875
v -0.11477866 -0.08489186 -0.00202364
v -0.11522449 -0.08601405 -0.00173491
v -0.11150429 -0.10140888 0.00131651
v -0.11014548 -0.11112341 0.00879085
v -0.11025214 -0.11112341 0.00886304
v -0.11522449 -0.09831707 0.00113277
v -0.11522449 -0.09653235 0.00052576
v -0.11522449 -0.09482467 0.00005001
v -0.11324067 -0.09303995 -0.00140352
v -0.11244714 -0.08976068 -0.00255846
v -0.11007935 -0.08637356 -0.00393324
v -0.10669193 -0.08637356 -0.00464197
v -0.10085993 -0.08700784 -0.00548849
v -0.09343447 -0.08958863 -0.00593800
v -0.09343447 -0.09294237 -0.00520631
v -0.09343447 -0.09653235 -0.00442213
v -0.09980616 -0.08607568 -0.00575753
v -0.10146574 -0.08489186 -0.00562958
v -0.11308495 -0.08489186 -0.00289313
v -0.11470401 -0.08637356 -0.00198428
v -0.11522449 -0.08637356 -0.00171522
v -0.11522449 -0.09306563 -0.00042247
v -0.11414085 -0.08976068 -0.00171522
v -0.11301030 -0.08637356 -0.00285376
v -0.11007935 -0.08489186 -0.00401527
v -0.10669193 -0.08489186 -0.00472399
v -0.10180704 -0.08489186 -0.00557708
v -0.11522449 -0.08976068 -0.00116728
f 1 2 3
f 1 3 4
f 1 4 9
f 1 9 16
f 1 16 34
f 1 34 33
f 1 33 32
f 1 32 60
f 1 60 81
f 1 81 80
f 1 80 79
f 1 79 63
f 1 63 36
f 1 36 19
f 1 19 11
f 1 11 5
f 1 5 10
f 1 10 18
f 1 18 35
f 1 35 62
f 1 62 70
f 1 70 69
f 1 69 42
f 1 42 40
f 1 40 39
f 1 39 21
f 1 21 12
f 1 12 6
f 1 6 2
f 2 6 3
f 3 6 7
f 3 7 8
f 3 8 9
f 3 9 4
f 5 11 10
f 6 12 7
f 7 12 13
f 7 13 14
f 7 14 15
f 7 15 8
f 8 15 9
f 9 15 16
f 10 17 18
f 10 11 17
f 11 19 37
f 11 37 65
f 11 65 83
f 11 83 92
f 11 92 91
f 11 91 90
f 11 90 84
f 11 84 66
f 11 66 38
f 11 38 20
f 11 20 17
f 12 21 13
f 13 21 22
f 13 22 14
f 14 22 23
f 14 23 24
f 14 24 25
f 14 25 26
f 14 26 15
f 15 27 28
f 15 28 29
f 15 29 30
f 15 30 31
f 15 31 32
f 15 32 33
f 15 33 34
f 15 34 16
f 15 26 27
f 17 20 38
f 17 38 67
f 17 67 86
f 17 86 93
f 17 93 87
f 17 87 73
f 17 73 72
f 17 72 58
f 17 58 71
f 17 71 46
f 17 46 45
f 17 45 61
f 17 61 35
f 17 35 18
f 19 36 37
f 21 39 22
f 22 39 40
f 22 40 23
f 23 40 24
f 24 41 29
f 24 29 27
f 24 27 26
f 24 26 25
f 24 40 42
f 24 42 43
f 24 43 44
f 24 44 45
f 24 45 46
f 24 46 41
f 27 29 28
f 29 47 48
f 29 48 49
f 29 49 50
f 29 50 51
f 29 51 52
f 29 52 53
f 29 53 54
f 29 54 55
f 29 55 30
f 29 41 56
f 29 56 57
f 29 57 58
f 29 58 47
f 30 59 31
f 30 55 59
f 31 55 32
f 31 59 55
f 32 55 60
f 35 61 44
f 35 44 62
f 36 63 37
f 37 63 64
f 37 64 65
f 38 66 67
f 41 68 57
f 41 57 56
f 41 46 68
f 42 44 43
f 42 69 44
f 44 69 70
f 44 70 62
f 44 61 45
f 46 71 57
f 46 57 68
f 47 72 73
f 47 73 74
f 47 74 49
f 47 49 48
f 47 58 72
f 49 74 50
f 50 75 51
f 50 74 75
f 51 76 52
f 51 75 76
f 52 76 77
f 52 77 53
f 53 77 78
f 53 78 64
f 53 64 54
f 54 64 63
f 54 63 79
f 54 79 55
f 55 79 80
f 55 80 81
f 55 81 60
f 57 71 58
f 64 78 82
f 64 82 83
f 64 83 65
f 66 84 89
f 66 89 85
f 66 85 67
f 67 85 86
f 73 87 74
f 74 87 75
f 75 87 88
f 75 88 89
f 75 89 76
f 76 90 91
f 76 91 77
f 76 89 90
f 77 91 92
f 77 92 78
f 78 92 82
f 82 92 83
f 84 90 89
f 85 89 93
f 85 93 86
f 87 93 88
f 88 93 89

