# https://github.com/mikedh/trimesh
v -0.12636190 0.08903147 0.01802544
v -0.12722611 0.06335951 0.01802544
v -0.13592219 0.08903147 0.01802544
v -0.15452423 0.08903147 0.18914240
v -0.13660995 0.06335951 0.01802544
v -0.15589255 0.06335951 0.19025767
v -0.13639750 0.08637029 0.01802544
v -0.13886049 0.08797102 0.02492297
v -0.13872725 0.08903147 0.02528328
v -0.15463225 0.08903147 0.18963998
v -0.13660995 0.08298288 0.01802544
v -0.13907654 0.06335951 0.02435675
v -0.15528760 0.08903147 0.19188768
v -0.15758856 0.06335951 0.19233379
v -0.13900812 0.08571191 0.02452833
v -0.13950144 0.08665174 0.02626130
v -0.13908734 0.08903147 0.02627846
v -0.13907654 0.08298288 0.02435675
v -0.13986872 0.06335951 0.02657014
v -0.15570531 0.08903147 0.19221368
v -0.15749854 0.08903147 0.19331180
v -0.16020637 0.06335951 0.19307158
v -0.13986872 0.08298288 0.02657014
v -0.14046287 0.08637029 0.02996742
v -0.13930339 0.08903147 0.02699909
v -0.14067892 0.06335951 0.02996742
v -0.15822590 0.08903147 0.19329464
v -0.16088694 0.07959547 0.19326033
v -0.16088694 0.06335951 0.19326033
v -0.14067892 0.08298288 0.02996742
v -0.13996235 0.08903147 0.02996742
v -0.16310147 0.08298288 0.18931398
v -0.16289262 0.08637029 0.18994883
v -0.16267657 0.08855905 0.19056652
v -0.16314828 0.06335951 0.18915956
v -0.16088694 0.08298288 0.19320884
v -0.16109219 0.08903147 0.19224800
v -0.16088694 0.08637029 0.19286569
v -0.16314828 0.07959547 0.19176757
v -0.16314828 0.06335951 0.19176757
v -0.16314828 0.07959547 0.18915956
v -0.16239570 0.08903147 0.19005178
v -0.16310147 0.08298288 0.19171610
v -0.16289262 0.08637029 0.19140726
v -0.16267657 0.08855905 0.19104694
v -0.16150269 0.08903147 0.19193916
v -0.16239570 0.08903147 0.19034346
v -0.16205002 0.08903147 0.19147589
f 1 2 5
f 1 5 11
f 1 11 7
f 1 7 3
f 1 3 9
f 1 9 17
f 1 17 25
f 1 25 31
f 1 31 42
f 1 42 47
f 1 47 48
f 1 48 46
f 1 46 37
f 1 37 27
f 1 27 21
f 1 21 20
f 1 20 13
f 1 13 10
f 1 10 4
f 1 4 2
f 2 4 6
f 2 6 14
f 2 14 22
f 2 22 29
f 2 29 40
f 2 40 35
f 2 35 26
f 2 26 19
f 2 19 12
f 2 12 5
f 3 7 8
f 3 8 9
f 4 10 6
f 5 12 18
f 5 18 11
f 6 10 13
f 6 13 14
f 7 11 15
f 7 15 8
f 8 15 16
f 8 16 17
f 8 17 9
f 11 18 15
f 12 19 23
f 12 23 18
f 13 20 14
f 14 20 21
f 14 21 22
f 15 18 23
f 15 23 16
f 16 23 24
f 16 24 25
f 16 25 17
f 19 26 30
f 19 30 23
f 21 27 28
f 21 28 29
f 21 29 22
f 23 30 24
f 24 31 25
f 24 30 32
f 24 32 33
f 24 33 34
f 24 34 31
f 26 35 41
f 26 41 30
f 27 36 28
f 27 37 38
f 27 38 36
f 28 36 39
f 28 39 40
f 28 40 29
f 30 41 32
f 31 34 42
f 32 41 39
f 32 39 43
f 32 43 44
f 32 44 33
f 33 44 45
f 33 45 34
f 34 45 47
f 34 47 42
f 35 40 39
f 35 39 41
f 36 38 43
f 36 43 39
f 37 46 44
f 37 44 38
f 38 44 43
f 44 46 48
f 44 48 45
f 45 48 47

