# https://github.com/mikedh/trimesh
v -0.14559134 0.06335951 0.12005365
v -0.13126352 0.06335951 0.02697798
v -0.15243278 0.06335951 0.12005365
v -0.14513187 -0.08638363 0.12005365
v -0.13996601 0.06335951 0.02697798
v -0.13090100 -0.08641294 0.02697798
v -0.15240327 0.06335951 0.11982588
v -0.15243278 -0.07959577 0.12005365
v -0.14785917 -0.08641294 0.12005365
v -0.14484313 -0.08641294 0.11805839
v -0.14067840 0.06335951 0.02995721
v -0.13996601 -0.08298237 0.02697798
v -0.13970256 -0.08641294 0.02697798
v -0.15216722 0.06335951 0.11801283
v -0.15240327 -0.07959577 0.11982588
v -0.14951368 -0.08298237 0.09769581
v -0.14995207 -0.08298237 0.10108501
v -0.15126093 -0.08298237 0.11124353
v -0.15169721 -0.08298237 0.11463273
v -0.15238431 -0.08298237 0.11998076
v -0.15239485 -0.08282110 0.12005365
v -0.15200493 -0.08641294 0.12005365
v -0.14067840 -0.08298237 0.02995721
v -0.13974260 -0.08641294 0.02713286
v -0.14032221 -0.08641294 0.02941056
v -0.14046342 -0.08636896 0.02995721
v -0.15216722 -0.07959577 0.11801283
v -0.14863057 -0.08298237 0.09091739
v -0.14568197 -0.08491756 0.06862333
v -0.14911955 -0.08512281 0.09532701
v -0.15239274 -0.08298237 0.12005365
v -0.15201125 -0.08636896 0.12005365
v -0.15174780 -0.08641294 0.11801283
v -0.15175623 -0.08636896 0.11801283
v -0.14239403 -0.08569458 0.04416090
v -0.14642175 -0.08298237 0.07398046
v -0.14045709 -0.08641294 0.02995721
v -0.14134442 -0.08636896 0.03673562
v -0.14253945 -0.08641294 0.04601039
v -0.14302001 -0.08641294 0.04972759
v -0.14352584 -0.08641294 0.05366344
v -0.14613090 -0.08641294 0.07394402
v -0.14876757 -0.08641294 0.09451615
v -0.14921018 -0.08641294 0.09797824
v -0.14961274 -0.08636896 0.10108501
v -0.15090052 -0.08636896 0.11124353
v -0.15131572 -0.08641294 0.11458718
v -0.14220855 -0.08641294 0.04345937
v -0.14960431 -0.08641294 0.10108501
v -0.15089209 -0.08641294 0.11124353
f 1 2 5
f 1 5 11
f 1 11 14
f 1 14 7
f 1 7 3
f 1 3 8
f 1 8 21
f 1 21 31
f 1 31 32
f 1 32 22
f 1 22 9
f 1 9 4
f 1 4 2
f 2 4 6
f 2 6 13
f 2 13 12
f 2 12 5
f 3 7 15
f 3 15 8
f 4 9 10
f 4 10 6
f 5 12 23
f 5 23 11
f 6 10 9
f 6 9 22
f 6 22 33
f 6 33 47
f 6 47 50
f 6 50 49
f 6 49 44
f 6 44 43
f 6 43 42
f 6 42 41
f 6 41 40
f 6 40 39
f 6 39 48
f 6 48 37
f 6 37 25
f 6 25 24
f 6 24 13
f 7 14 27
f 7 27 15
f 8 15 16
f 8 16 17
f 8 17 18
f 8 18 19
f 8 19 20
f 8 20 21
f 11 23 27
f 11 27 14
f 12 13 24
f 12 24 25
f 12 25 26
f 12 26 23
f 15 27 16
f 16 28 29
f 16 29 17
f 16 27 28
f 17 29 30
f 17 30 18
f 18 30 19
f 19 30 20
f 20 31 21
f 20 30 32
f 20 32 31
f 22 32 30
f 22 30 34
f 22 34 33
f 23 26 35
f 23 35 29
f 23 29 36
f 23 36 27
f 25 37 26
f 26 38 29
f 26 29 35
f 26 37 38
f 27 36 28
f 28 36 29
f 29 38 30
f 30 38 39
f 30 39 40
f 30 40 41
f 30 41 42
f 30 42 43
f 30 43 44
f 30 44 45
f 30 45 46
f 30 46 47
f 30 47 34
f 33 34 47
f 37 48 38
f 38 48 39
f 44 49 45
f 45 49 50
f 45 50 46
f 46 50 47

