# https://github.com/mikedh/trimesh
v -0.10729002 -0.11112597 0.02697797
v -0.12619697 -0.11112597 0.02697797
v -0.13090466 -0.08641294 0.02697797
v -0.15505810 -0.08641294 0.18913914
v -0.13616204 -0.11112597 0.18913914
v -0.12636569 -0.11112355 0.02697797
v -0.12731267 -0.11112597 0.02955508
v -0.13969960 -0.08641294 0.02697797
v -0.15555336 -0.08641294 0.19143896
v -0.13717432 -0.11112597 0.19075390
v -0.12725280 -0.11038575 0.02697797
v -0.12742696 -0.11112597 0.02996284
v -0.12766643 -0.11095181 0.02996284
v -0.13968872 -0.08659921 0.02697797
v -0.14032004 -0.08641294 0.02940828
v -0.15749631 -0.08641294 0.19290692
v -0.13773489 -0.11112597 0.19160206
v -0.12866239 -0.10915928 0.02697797
v -0.12786779 -0.11112597 0.03198537
v -0.12944609 -0.10925847 0.02996284
v -0.12909778 -0.10884480 0.02719002
v -0.13930231 -0.08900617 0.02697797
v -0.13923700 -0.08975849 0.02722264
v -0.14044521 -0.08641294 0.02993023
v -0.16088692 -0.08641294 0.19285799
v -0.15749631 -0.08975849 0.19342886
v -0.14395013 -0.11007853 0.19313527
v -0.14069556 -0.11112597 0.19243391
v -0.12942977 -0.10836100 0.02697797
v -0.12809093 -0.11112597 0.03315975
v -0.13113869 -0.10723130 0.02996284
v -0.13550350 -0.10163603 0.02821760
v -0.13230336 -0.10524042 0.02771196
v -0.12812359 -0.11112597 0.03335547
v -0.12971277 -0.10954875 0.03335547
v -0.13140536 -0.10754336 0.03335547
v -0.13915537 -0.08975849 0.02697797
v -0.13897577 -0.09188968 0.02795662
v -0.13983022 -0.08975849 0.02996284
v -0.14045065 -0.08641294 0.02996284
v -0.15749631 -0.09653426 0.19344517
v -0.15749631 -0.09314758 0.19360828
v -0.16288973 -0.08641294 0.19140633
v -0.16013042 -0.09653426 0.19196090
v -0.14402088 -0.11112597 0.19290692
v -0.15072594 -0.10669185 0.19337993
v -0.14733531 -0.11007853 0.19321682
v -0.13136727 -0.10605080 0.02697797
v -0.13254827 -0.10553797 0.02996284
v -0.13675525 -0.09991851 0.02996284
v -0.13606951 -0.09987738 0.02697797
v -0.13600420 -0.10001044 0.02697797
v -0.13388711 -0.10302215 0.02697797
v -0.13424086 -0.10349871 0.02996284
v -0.13563957 -0.10180537 0.02996284
v -0.15592344 -0.10517753 0.19054187
v -0.15958619 -0.09885896 0.18913914
v -0.15028510 -0.11112597 0.18930225
v -0.15279406 -0.10883271 0.18913914
v -0.13837710 -0.09282585 0.02697797
v -0.13813763 -0.09653426 0.02996284
v -0.13871453 -0.09424342 0.02996284
v -0.13913903 -0.09255008 0.02996284
v -0.13739202 -0.09653426 0.02697797
v -0.16267748 -0.08856106 0.19055818
v -0.16288973 -0.08641294 0.18995468
v -0.15769223 -0.10003946 0.19230342
v -0.15411112 -0.10330518 0.19305371
v -0.16267748 -0.08856106 0.19104750
v -0.15967327 -0.09899201 0.19148789
v -0.14733531 -0.11112597 0.19267857
v -0.15406214 -0.10645962 0.19189566
v -0.15289746 -0.10896092 0.19147158
v -0.15064430 -0.11008578 0.19204245
v -0.13900297 -0.09851062 0.04079316
v -0.13885603 -0.09817438 0.03852597
v -0.13611849 -0.09976610 0.02697797
v -0.15592344 -0.10517753 0.19104750
v -0.16044064 -0.09653426 0.18913914
v -0.15002387 -0.11112597 0.19165099
v -0.13874174 -0.09770749 0.03673179
f 1 2 6
f 1 6 11
f 1 11 18
f 1 18 29
f 1 29 48
f 1 48 53
f 1 53 52
f 1 52 51
f 1 51 77
f 1 77 64
f 1 64 60
f 1 60 37
f 1 37 22
f 1 22 14
f 1 14 8
f 1 8 3
f 1 3 4
f 1 4 5
f 1 5 10
f 1 10 17
f 1 17 28
f 1 28 45
f 1 45 71
f 1 71 80
f 1 80 58
f 1 58 34
f 1 34 30
f 1 30 19
f 1 19 12
f 1 12 7
f 1 7 2
f 2 7 6
f 3 8 15
f 3 15 24
f 3 24 40
f 3 40 66
f 3 66 43
f 3 43 25
f 3 25 16
f 3 16 9
f 3 9 4
f 4 9 5
f 5 9 10
f 6 7 11
f 7 12 13
f 7 13 11
f 8 14 15
f 9 16 17
f 9 17 10
f 11 13 18
f 12 19 13
f 13 20 21
f 13 21 18
f 13 19 20
f 14 22 15
f 15 23 24
f 15 22 23
f 16 25 26
f 16 26 27
f 16 27 28
f 16 28 17
f 18 21 29
f 19 30 20
f 20 31 32
f 20 32 33
f 20 33 21
f 20 30 34
f 20 34 35
f 20 35 36
f 20 36 31
f 21 33 32
f 21 32 29
f 22 37 23
f 23 38 39
f 23 39 24
f 23 37 38
f 24 39 40
f 25 41 42
f 25 42 26
f 25 43 44
f 25 44 41
f 26 42 27
f 27 45 28
f 27 42 46
f 27 46 47
f 27 47 45
f 29 32 48
f 31 49 32
f 31 36 49
f 32 50 51
f 32 51 52
f 32 52 53
f 32 53 48
f 32 49 54
f 32 54 55
f 32 55 56
f 32 56 57
f 32 57 50
f 34 58 59
f 34 59 35
f 35 59 36
f 36 55 54
f 36 54 49
f 36 59 55
f 37 60 38
f 38 61 62
f 38 62 63
f 38 63 39
f 38 60 64
f 38 64 61
f 39 63 65
f 39 65 40
f 40 65 66
f 41 67 68
f 41 68 46
f 41 46 42
f 41 44 67
f 43 66 65
f 43 65 69
f 43 69 44
f 44 69 70
f 44 70 67
f 45 47 71
f 46 68 72
f 46 72 73
f 46 73 74
f 46 74 47
f 47 74 71
f 50 75 76
f 50 76 61
f 50 61 77
f 50 77 51
f 50 57 75
f 55 59 56
f 56 59 73
f 56 73 78
f 56 78 70
f 56 70 57
f 57 70 79
f 57 79 76
f 57 76 75
f 58 80 73
f 58 73 59
f 61 64 77
f 61 76 81
f 61 81 79
f 61 79 65
f 61 65 62
f 62 65 63
f 65 79 69
f 67 70 72
f 67 72 68
f 69 79 70
f 70 78 73
f 70 73 72
f 71 74 80
f 73 80 74
f 76 79 81

