# https://github.com/mikedh/trimesh
v 0.16126315 0.09304434 0.18915015
v 0.16123929 0.09314568 0.18915015
v 0.15967056 0.09899415 0.19149067
v 0.16012984 0.09653276 0.19196833
v 0.16053545 0.09304434 0.19215939
v 0.13914573 0.09304434 0.03096627
v 0.16044001 0.09653276 0.18915015
v 0.15592467 0.10517781 0.19053536
v 0.15592467 0.10517781 0.19106078
v 0.15290052 0.10896051 0.19147475
v 0.15406365 0.10646015 0.19190464
v 0.15769025 0.10004262 0.19231861
v 0.15958705 0.09886162 0.18915015
v 0.15749937 0.09653276 0.19344906
v 0.16051755 0.09314568 0.19215939
v 0.15749937 0.09314568 0.19359236
v 0.15749937 0.09304434 0.19359236
v 0.13047293 0.09304434 0.03096627
v 0.13898468 0.09369915 0.03096627
v 0.13827487 0.09651912 0.03096627
v 0.13874012 0.09770596 0.03674591
v 0.13885345 0.09817563 0.03852916
v 0.15279316 0.10883383 0.18915015
v 0.13610368 0.10125285 0.03096627
v 0.13571001 0.10189207 0.03096627
v 0.14946480 0.11205721 0.19000994
v 0.14946480 0.11205721 0.19128369
v 0.15064584 0.11008499 0.19204793
v 0.15072337 0.10669205 0.19338537
v 0.15411137 0.10330498 0.19305101
v 0.13900258 0.09851083 0.04079007
v 0.13689104 0.09991984 0.03096627
v 0.13722506 0.09991984 0.03335455
v 0.14058921 0.11295368 0.19311470
v 0.15742779 0.09304434 0.19356052
v 0.13717735 0.11295368 0.19254151
v 0.13414724 0.11295368 0.19182503
v 0.10032690 0.11295368 0.03096627
v 0.15168371 0.09304434 0.17560063
v 0.13530440 0.10238902 0.03096627
v 0.13140343 0.10754370 0.03335455
v 0.12971540 0.10954711 0.03335455
v 0.12800351 0.11124065 0.03335455
v 0.14757397 0.11295368 0.18899093
v 0.12823613 0.11143358 0.03674591
v 0.12846280 0.11160508 0.04012135
v 0.12630950 0.11232615 0.03335455
v 0.12517024 0.11295368 0.03335455
v 0.14733538 0.11276074 0.19182503
v 0.14733538 0.11007914 0.19321023
v 0.14414421 0.11295368 0.19252559
v 0.15486890 0.09304434 0.19227084
v 0.12824806 0.11295368 0.18915015
v 0.12469901 0.11295368 0.03096627
v 0.15368191 0.09304434 0.18903870
v 0.15369980 0.09304434 0.18915015
v 0.13220868 0.10612689 0.03096627
v 0.13121256 0.10732349 0.03096627
v 0.13001961 0.10875588 0.03096627
v 0.12952453 0.10934442 0.03096627
v 0.12902349 0.10984138 0.03096627
v 0.12776492 0.11103797 0.03096627
v 0.12657196 0.11187987 0.03096627
v 0.12607688 0.11219753 0.03096627
v 0.14672697 0.11295368 0.19193648
v 0.12483024 0.11295368 0.03161907
v 0.12528953 0.11263017 0.03096627
f 1 2 3
f 1 3 4
f 1 4 5
f 1 5 17
f 1 17 35
f 1 35 52
f 1 52 56
f 1 56 55
f 1 55 39
f 1 39 18
f 1 18 6
f 1 6 2
f 2 7 3
f 2 6 7
f 3 8 9
f 3 9 10
f 3 10 11
f 3 11 12
f 3 12 4
f 3 7 13
f 3 13 8
f 4 12 14
f 4 14 15
f 4 15 5
f 5 15 14
f 5 14 16
f 5 16 17
f 6 18 38
f 6 38 54
f 6 54 67
f 6 67 64
f 6 64 63
f 6 63 62
f 6 62 61
f 6 61 60
f 6 60 59
f 6 59 58
f 6 58 57
f 6 57 40
f 6 40 25
f 6 25 24
f 6 24 32
f 6 32 20
f 6 20 19
f 6 19 7
f 7 19 20
f 7 20 21
f 7 21 22
f 7 22 13
f 8 23 10
f 8 10 9
f 8 13 24
f 8 24 25
f 8 25 23
f 10 26 27
f 10 27 28
f 10 28 29
f 10 29 11
f 10 23 26
f 11 29 30
f 11 30 12
f 12 30 14
f 13 22 31
f 13 31 32
f 13 32 33
f 13 33 24
f 14 30 29
f 14 29 16
f 16 29 34
f 16 34 17
f 17 34 36
f 17 36 37
f 17 37 35
f 18 39 38
f 20 32 22
f 20 22 21
f 22 32 31
f 23 25 40
f 23 40 41
f 23 41 42
f 23 42 43
f 23 43 26
f 24 33 32
f 26 44 27
f 26 43 45
f 26 45 46
f 26 46 47
f 26 47 48
f 26 48 44
f 27 44 49
f 27 49 28
f 28 50 29
f 28 49 50
f 29 50 34
f 34 50 51
f 34 51 65
f 34 65 44
f 34 44 48
f 34 48 66
f 34 66 54
f 34 54 38
f 34 38 53
f 34 53 37
f 34 37 36
f 35 37 53
f 35 53 52
f 38 39 55
f 38 55 56
f 38 56 53
f 40 57 41
f 41 57 58
f 41 58 59
f 41 59 60
f 41 60 42
f 42 60 61
f 42 61 43
f 43 61 62
f 43 62 63
f 43 63 64
f 43 64 47
f 43 47 45
f 44 65 49
f 45 47 46
f 47 64 48
f 48 64 66
f 49 65 50
f 50 65 51
f 52 53 56
f 54 66 67
f 64 67 66

