# https://github.com/mikedh/trimesh
v -0.00002718 0.11685495 0.19322587
v -0.00002718 0.11990124 0.19212245
v -0.12700474 0.11685495 0.19327385
v -0.14055497 0.11346816 0.19330583
v -0.14077097 0.11325277 0.19328984
v -0.00002718 0.11439939 0.19194655
v -0.12362077 0.11990124 0.19212245
v -0.00002718 0.12102885 0.18914802
v -0.13040309 0.11685495 0.19325785
v -0.13378705 0.11685495 0.19306596
v -0.13717101 0.11685495 0.19263418
v -0.14461571 0.11325277 0.19245828
v -0.13740140 0.11325277 0.19279410
v -0.00002718 0.11363762 0.18914802
v -0.12700474 0.11976504 0.19207448
v -0.12023683 0.12102885 0.18914802
v -0.12362077 0.12100193 0.18914802
v -0.00002718 0.12134163 0.03335801
v -0.13040309 0.11946255 0.19197853
v -0.13378705 0.11912918 0.19173865
v -0.13717101 0.11879660 0.19130688
v -0.14029576 0.11690484 0.19188258
v -0.14419812 0.11374848 0.19233034
v -0.14323333 0.11580890 0.19156275
v -0.14576770 0.11325277 0.19207448
v -0.13380145 0.11325277 0.19199452
v -0.12893432 0.11325277 0.19039536
v -0.12641434 0.11325277 0.18914802
v -0.00002718 0.11331850 0.02993582
v -0.12700474 0.12067172 0.18914802
v -0.09313638 0.12134163 0.03335801
v -0.09652033 0.12133689 0.03335801
v -0.09991869 0.12107716 0.03335801
v -0.00002718 0.12123236 0.03167890
v -0.13899979 0.11860259 0.19095507
v -0.14674688 0.11325277 0.19114696
v -0.14327652 0.11583899 0.18914802
v -0.14497570 0.11472167 0.18914802
v -0.14713567 0.11325277 0.18902009
v -0.12575195 0.11325277 0.18700514
v -0.09660673 0.11325277 0.02993582
v -0.00002718 0.12111595 0.02993582
v -0.12519036 0.11325277 0.18419063
v -0.13899979 0.11860259 0.19055527
v -0.10330265 0.12054820 0.03335801
v -0.11007056 0.11945542 0.03335801
v -0.09313638 0.12111912 0.02996780
v -0.09652033 0.12109696 0.02996780
v -0.09991869 0.12080951 0.02996780
v -0.00002718 0.12111912 0.02996780
v -0.12457118 0.11325277 0.03335801
v -0.12354878 0.11325277 0.02993582
v -0.09313638 0.12111595 0.02993582
v -0.11378571 0.11885044 0.03647637
v -0.11525449 0.11859784 0.03743587
v -0.11512489 0.11854003 0.03518105
v -0.11685287 0.11746548 0.03335801
v -0.11005616 0.11921469 0.02993582
v -0.11007056 0.11921469 0.02996780
v -0.11254732 0.11874908 0.02996780
v -0.11319532 0.11886469 0.03335801
v -0.09652033 0.12109379 0.02993582
v -0.09991869 0.12080555 0.02993582
v -0.12360638 0.11344123 0.02993582
v -0.12395198 0.11325277 0.02995181
v -0.12362077 0.11343015 0.02993582
v -0.11488009 0.11847272 0.03335801
v -0.11685287 0.11707984 0.02996780
v -0.11254732 0.11874433 0.02993582
v -0.11423211 0.11826526 0.02993582
v -0.11685287 0.11707430 0.02993582
f 1 2 3
f 1 3 4
f 1 4 5
f 1 5 6
f 1 6 14
f 1 14 29
f 1 29 42
f 1 42 50
f 1 50 34
f 1 34 18
f 1 18 8
f 1 8 2
f 2 7 3
f 2 8 16
f 2 16 7
f 3 9 4
f 3 7 9
f 4 9 10
f 4 10 11
f 4 11 12
f 4 12 5
f 5 12 25
f 5 25 36
f 5 36 39
f 5 39 51
f 5 51 65
f 5 65 52
f 5 52 41
f 5 41 43
f 5 43 40
f 5 40 28
f 5 28 27
f 5 27 26
f 5 26 13
f 5 13 14
f 5 14 6
f 7 15 9
f 7 16 17
f 7 17 15
f 8 18 31
f 8 31 16
f 9 15 10
f 10 15 19
f 10 19 11
f 11 19 20
f 11 20 21
f 11 21 22
f 11 22 12
f 12 22 23
f 12 23 24
f 12 24 25
f 13 26 14
f 14 26 27
f 14 27 28
f 14 28 29
f 15 17 30
f 15 30 19
f 16 31 32
f 16 32 17
f 17 32 33
f 17 33 30
f 18 34 31
f 19 30 20
f 20 30 21
f 21 35 22
f 21 30 35
f 22 35 24
f 22 24 23
f 24 36 25
f 24 35 37
f 24 37 38
f 24 38 39
f 24 39 36
f 28 40 29
f 29 41 52
f 29 52 66
f 29 66 64
f 29 64 71
f 29 71 70
f 29 70 69
f 29 69 58
f 29 58 63
f 29 63 62
f 29 62 53
f 29 53 42
f 29 40 43
f 29 43 41
f 30 44 35
f 30 33 45
f 30 45 46
f 30 46 44
f 31 34 47
f 31 47 32
f 32 47 48
f 32 48 33
f 33 48 49
f 33 49 45
f 34 50 47
f 35 44 37
f 37 44 51
f 37 51 38
f 38 51 39
f 42 53 47
f 42 47 50
f 44 46 54
f 44 54 55
f 44 55 56
f 44 56 57
f 44 57 51
f 45 49 58
f 45 58 59
f 45 59 46
f 46 59 60
f 46 60 61
f 46 61 54
f 47 53 62
f 47 62 48
f 48 62 49
f 49 62 63
f 49 63 58
f 51 57 64
f 51 64 65
f 52 65 66
f 54 61 55
f 55 61 56
f 56 61 67
f 56 67 57
f 57 67 68
f 57 68 64
f 58 69 60
f 58 60 59
f 60 67 61
f 60 69 70
f 60 70 67
f 64 66 65
f 64 68 71
f 67 70 68
f 68 70 71

