# https://github.com/mikedh/trimesh
v -0.11522902 -0.11112341 0.01258146
v -0.11598716 -0.11112341 0.01311936
v -0.11522902 -0.10830381 0.00804734
v -0.11522902 -0.11112341 0.02697517
v -0.12019180 -0.11112341 0.01634393
v -0.11882235 -0.10851181 0.01110857
v -0.11685601 -0.10782874 0.00866128
v -0.11902932 -0.10543028 0.00763335
v -0.11522902 -0.10817028 0.00792906
v -0.11522902 -0.10814203 0.02697517
v -0.12636760 -0.11112341 0.02697517
v -0.12033380 -0.11112341 0.01645376
v -0.12006906 -0.10912298 0.01307711
v -0.12229773 -0.10866846 0.01424303
v -0.12107990 -0.10775684 0.01198724
v -0.11685601 -0.10613646 0.00713488
v -0.12128688 -0.10427470 0.00859369
v -0.12222072 -0.10201748 0.00764743
v -0.12185729 -0.09813475 0.00460310
v -0.11522902 -0.09829653 0.00111943
v -0.11522902 -0.10647287 0.00665050
v -0.13105359 -0.08489186 0.02697517
v -0.11522902 -0.08489186 0.00709827
v -0.12715220 -0.11024775 0.02625704
v -0.12552522 -0.11112341 0.02476162
v -0.12725329 -0.11038641 0.02697517
v -0.12068037 -0.11112341 0.01676636
v -0.12043489 -0.11100015 0.01634393
v -0.12230254 -0.10549961 0.01085230
v -0.12209074 -0.11112341 0.01809844
v -0.12350834 -0.10929247 0.01658613
v -0.12553485 -0.10861710 0.01783372
v -0.13205722 -0.09811678 0.01476121
v -0.12872143 -0.09824003 0.01131415
v -0.12536397 -0.09827085 0.00790089
v -0.12346262 -0.09960875 0.00708982
v -0.12365516 -0.09681739 0.00553246
v -0.12254322 -0.09587753 0.00412998
v -0.12053356 -0.09681739 0.00337241
v -0.11524827 -0.09828883 0.00112506
v -0.11522902 -0.09653235 0.00052521
v -0.13981426 -0.08489186 0.02697517
v -0.11522902 -0.08489186 -0.00179254
v -0.12865885 -0.10915893 0.02697517
v -0.12668770 -0.10965968 0.02318172
v -0.12473580 -0.11112341 0.02284096
v -0.12294516 -0.11112341 0.01933757
v -0.12351556 -0.11088973 0.01970932
v -0.12601380 -0.10907676 0.01979381
v -0.12770336 -0.10717648 0.01979381
v -0.12873586 -0.10503482 0.01806183
v -0.13312342 -0.09680712 0.01609892
v -0.13501996 -0.09001490 0.01636365
v -0.13527268 -0.08637356 0.01518928
v -0.13238454 -0.09586211 0.01438103
v -0.12636037 -0.09314780 0.00675470
v -0.12478875 -0.09314780 0.00505933
v -0.12576831 -0.09653235 0.00743622
v -0.13267095 -0.09908746 0.01701982
v -0.13534007 -0.09762116 0.02186654
v -0.12309438 -0.09314780 0.00374979
v -0.12002814 -0.09308873 0.00196711
v -0.11824712 -0.09418011 0.00131657
v -0.11753953 -0.09653235 0.00170239
v -0.11584516 -0.09653235 0.00083499
v -0.11522902 -0.09482467 0.00005209
v -0.13968911 -0.08659954 0.02697517
v -0.13967468 -0.08489186 0.02640348
v -0.11522902 -0.08637356 -0.00171650
v -0.11685601 -0.08489186 -0.00095049
v -0.12942661 -0.10836031 0.02697517
v -0.12869013 -0.10836287 0.02492497
v -0.12406190 -0.11112341 0.02146664
v -0.12837726 -0.10798024 0.02318172
v -0.12909689 -0.10548164 0.01979381
v -0.12977319 -0.10628540 0.02318172
v -0.13092603 -0.10315765 0.01976283
v -0.13188634 -0.10134468 0.01861381
v -0.13489722 -0.09650924 0.01993743
v -0.13422573 -0.09314780 0.01640589
v -0.13572516 -0.08905450 0.01746197
v -0.13323655 -0.08976068 0.01338126
v -0.13276962 -0.09314780 0.01393606
v -0.13595139 -0.08637356 0.01688183
v -0.13561684 -0.08489186 0.01581449
v -0.13532082 -0.08489186 0.01507663
v -0.13428589 -0.08489186 0.01373048
v -0.13335448 -0.08651223 0.01271383
v -0.13176119 -0.08976068 0.01169153
v -0.12513292 -0.09081868 0.00473265
v -0.13204519 -0.08773457 0.01138456
v -0.13318359 -0.10009666 0.01976283
v -0.13574681 -0.09872024 0.02412515
v -0.13728956 -0.09653235 0.02656964
v -0.13837742 -0.09282681 0.02697517
v -0.13915722 -0.08976068 0.02697517
v -0.13863014 -0.08976068 0.02551637
v -0.13885637 -0.08797339 0.02490807
v -0.12385491 -0.08971703 0.00356674
v -0.12087533 -0.08976068 0.00171647
v -0.12544820 -0.08856145 0.00443132
v -0.11875255 -0.09192032 0.00106311
v -0.11522902 -0.08976068 -0.00117016
v -0.11701244 -0.09308873 0.00046044
v -0.11522902 -0.09306563 -0.00042104
v -0.13930404 -0.08900570 0.02697517
v -0.13950139 -0.08665603 0.02624859
v -0.13926553 -0.08489186 0.02514181
v -0.11685601 -0.08976068 -0.00034782
v -0.11918336 -0.08976068 0.00084063
v -0.11685601 -0.08637356 -0.00087445
v -0.11967434 -0.08637356 0.00058435
v -0.12144092 -0.08489186 0.00142358
v -0.13136407 -0.10605172 0.02697517
v -0.13189597 -0.10475235 0.02543752
v -0.13146515 -0.10420794 0.02318172
v -0.13282017 -0.10251310 0.02318172
v -0.13234603 -0.10193017 0.02087242
v -0.13506810 -0.10097746 0.02595007
v -0.13900560 -0.08571360 0.02452787
v -0.13599952 -0.08489186 0.01676918
v -0.13359275 -0.08489186 0.01285463
v -0.13221607 -0.08547735 0.01119870
v -0.12732309 -0.08637356 0.00605909
v -0.13462284 -0.09987582 0.02306907
v -0.13600915 -0.10000935 0.02697517
v -0.13605006 -0.09987582 0.02687661
v -0.13611745 -0.09976796 0.02697517
v -0.13739064 -0.09653235 0.02697517
v -0.12363109 -0.08637356 0.00285704
v -0.12136872 -0.08637356 0.00146301
v -0.12562871 -0.08637356 0.00425670
v -0.13902725 -0.08489186 0.02447436
v -0.12235550 -0.08489186 0.00198401
v -0.13388397 -0.10302155 0.02697517
v -0.13260356 -0.08489186 0.01162676
v -0.13223050 -0.08489186 0.01118461
v -0.12737603 -0.08489186 0.00599995
v -0.12642054 -0.08489186 0.00498329
v -0.13607173 -0.09987838 0.02697517
v -0.12568167 -0.08489186 0.00420601
v -0.12363109 -0.08489186 0.00276974
f 1 2 3
f 1 3 9
f 1 9 21
f 1 21 20
f 1 20 41
f 1 41 66
f 1 66 105
f 1 105 103
f 1 103 69
f 1 69 43
f 1 43 23
f 1 23 10
f 1 10 4
f 1 4 11
f 1 11 25
f 1 25 46
f 1 46 73
f 1 73 47
f 1 47 30
f 1 30 27
f 1 27 12
f 1 12 5
f 1 5 2
f 2 5 6
f 2 6 3
f 3 7 8
f 3 8 9
f 3 6 7
f 4 10 22
f 4 22 42
f 4 42 67
f 4 67 106
f 4 106 96
f 4 96 95
f 4 95 129
f 4 129 128
f 4 128 140
f 4 140 126
f 4 126 135
f 4 135 114
f 4 114 71
f 4 71 44
f 4 44 26
f 4 26 11
f 5 12 6
f 6 12 13
f 6 13 14
f 6 14 15
f 6 15 7
f 7 15 8
f 8 16 9
f 8 15 17
f 8 17 18
f 8 18 19
f 8 19 20
f 8 20 16
f 9 16 21
f 10 23 22
f 11 24 25
f 11 26 24
f 12 27 28
f 12 28 13
f 13 28 14
f 14 29 15
f 14 28 27
f 14 27 30
f 14 30 31
f 14 31 32
f 14 32 29
f 15 29 17
f 16 20 21
f 17 29 33
f 17 33 34
f 17 34 18
f 18 34 35
f 18 35 36
f 18 36 19
f 19 36 35
f 19 35 37
f 19 37 38
f 19 38 39
f 19 39 40
f 19 40 20
f 20 40 41
f 22 23 43
f 22 43 70
f 22 70 113
f 22 113 134
f 22 134 142
f 22 142 141
f 22 141 139
f 22 139 138
f 22 138 137
f 22 137 136
f 22 136 122
f 22 122 87
f 22 87 86
f 22 86 85
f 22 85 121
f 22 121 133
f 22 133 108
f 22 108 68
f 22 68 42
f 24 26 44
f 24 44 45
f 24 45 25
f 25 45 46
f 29 32 33
f 30 32 31
f 30 47 32
f 32 47 48
f 32 48 49
f 32 49 50
f 32 50 51
f 32 51 33
f 33 52 53
f 33 53 54
f 33 54 55
f 33 55 56
f 33 56 57
f 33 57 58
f 33 58 34
f 33 51 59
f 33 59 60
f 33 60 52
f 34 58 35
f 35 58 37
f 37 57 38
f 37 58 57
f 38 61 62
f 38 62 63
f 38 63 39
f 38 57 61
f 39 63 64
f 39 64 40
f 40 64 65
f 40 65 41
f 41 65 63
f 41 63 66
f 42 68 67
f 43 69 111
f 43 111 70
f 44 71 72
f 44 72 49
f 44 49 45
f 45 49 46
f 46 49 73
f 47 73 48
f 48 73 49
f 49 72 74
f 49 74 50
f 50 75 51
f 50 74 76
f 50 76 75
f 51 75 77
f 51 77 78
f 51 78 59
f 52 60 79
f 52 79 80
f 52 80 53
f 53 80 79
f 53 79 81
f 53 81 54
f 54 82 83
f 54 83 55
f 54 81 84
f 54 84 85
f 54 85 86
f 54 86 87
f 54 87 88
f 54 88 82
f 55 83 89
f 55 89 56
f 56 90 57
f 56 89 91
f 56 91 90
f 57 90 61
f 59 78 92
f 59 92 93
f 59 93 60
f 60 93 94
f 60 94 95
f 60 95 96
f 60 96 97
f 60 97 98
f 60 98 79
f 61 99 100
f 61 100 62
f 61 90 101
f 61 101 99
f 62 100 102
f 62 102 63
f 63 102 103
f 63 103 104
f 63 104 105
f 63 105 66
f 63 65 64
f 67 68 107
f 67 107 106
f 68 108 107
f 69 103 109
f 69 109 110
f 69 110 111
f 70 111 112
f 70 112 113
f 71 114 72
f 72 114 115
f 72 115 74
f 74 115 76
f 75 76 116
f 75 116 117
f 75 117 77
f 76 115 116
f 77 117 118
f 77 118 78
f 78 118 119
f 78 119 92
f 79 98 81
f 81 98 84
f 82 88 91
f 82 91 89
f 82 89 83
f 84 98 120
f 84 120 121
f 84 121 85
f 87 122 88
f 88 123 91
f 88 122 123
f 90 91 101
f 91 123 124
f 91 124 101
f 92 119 125
f 92 125 93
f 93 125 119
f 93 119 126
f 93 126 127
f 93 127 94
f 94 127 128
f 94 128 129
f 94 129 95
f 96 106 98
f 96 98 97
f 98 106 107
f 98 107 120
f 99 130 100
f 99 101 130
f 100 130 131
f 100 131 112
f 100 112 110
f 100 110 102
f 101 124 132
f 101 132 130
f 102 110 109
f 102 109 103
f 103 105 104
f 107 108 120
f 108 133 120
f 110 112 111
f 112 131 113
f 113 131 134
f 114 135 115
f 115 135 116
f 116 135 117
f 117 135 119
f 117 119 118
f 119 135 126
f 120 133 121
f 122 136 123
f 123 136 137
f 123 137 138
f 123 138 124
f 124 138 139
f 124 139 132
f 126 140 127
f 127 140 128
f 130 132 141
f 130 141 142
f 130 142 131
f 131 142 134
f 132 139 141

