# https://github.com/mikedh/trimesh
v -0.16427372 0.01185346 0.24588664
v -0.16197492 0.01185346 0.24555570
v -0.16198949 0.01523742 0.24553534
v -0.16427372 0.01523742 0.24585099
v -0.16766125 0.01185346 0.24546915
v -0.16427372 -0.01185028 0.24588664
v -0.16098003 0.01185346 0.24334106
v -0.16099458 0.01523742 0.24334106
v -0.16197492 -0.01185028 0.24555570
v -0.16122107 0.01862138 0.24334106
v -0.16221597 0.01862138 0.24533170
v -0.16766125 0.01773930 0.24521969
v -0.16942944 0.01714591 0.24508224
v -0.16766125 0.01523742 0.24543352
v -0.16247966 0.02045769 0.24510769
v -0.16429799 0.01880581 0.24539279
v -0.16949414 0.01523742 0.24512296
v -0.16952164 0.01185346 0.24514333
v -0.16766125 -0.01185028 0.24546915
v -0.16766125 -0.01523423 0.24545898
v -0.16427372 -0.01523423 0.24587135
v -0.16197978 -0.01523423 0.24555062
v -0.16036690 0.01862138 0.23995547
v -0.16098003 -0.01185028 0.24334106
v -0.16049794 0.02201335 0.23995547
v -0.16098488 -0.01523423 0.24334106
v -0.16182772 0.02175675 0.24329525
v -0.16544334 0.02005675 0.24497023
v -0.16766125 0.01943930 0.24476149
v -0.16957340 0.02392184 0.24186465
v -0.16993092 0.02201335 0.24243484
v -0.17006035 0.01841289 0.24350399
v -0.17031917 0.01523742 0.24334106
v -0.16318499 0.02045769 0.24510769
v -0.16209302 0.02416240 0.24213447
v -0.16427372 0.02430674 0.24227702
v -0.17034669 0.01185346 0.24334106
v -0.16952164 -0.01185028 0.24514333
v -0.16951193 -0.01523423 0.24513314
v -0.16945370 -0.01726300 0.24509750
v -0.16766125 -0.01798470 0.24524005
v -0.16455197 -0.01893093 0.24543861
v -0.16215935 -0.01862621 0.24538261
v -0.16116444 -0.01862621 0.24334106
v -0.15557842 0.02201335 0.20858904
v -0.15991717 0.02201335 0.23656987
v -0.16036690 -0.01862621 0.23995547
v -0.16160446 0.02482797 0.23995547
v -0.15923449 0.02539731 0.23129038
v -0.15906139 0.02740202 0.22909101
v -0.16044294 -0.02201017 0.23995547
v -0.16766125 0.02201335 0.24349889
v -0.16766125 0.02412231 0.24207338
v -0.16766125 0.02542137 0.23995547
v -0.16766125 0.02669636 0.23718081
v -0.16938575 0.02712136 0.23500180
v -0.16981930 0.02441901 0.23995547
v -0.17053273 0.02201335 0.23995547
v -0.17078186 0.01862138 0.23995547
v -0.16429799 0.02175675 0.24414546
v -0.16427372 0.02583033 0.23995547
v -0.16201699 0.02733787 0.23575020
v -0.17034669 -0.01185028 0.24334106
v -0.17033859 -0.01523423 0.24334106
v -0.17007491 -0.01848989 0.24353453
v -0.16999401 -0.02201017 0.24254685
v -0.16965753 -0.02403092 0.24196137
v -0.16766125 -0.01967668 0.24484295
v -0.16586718 -0.02026206 0.24502114
v -0.16360883 -0.02056677 0.24515860
v -0.16241657 -0.02056677 0.24515860
v -0.16174682 -0.02181771 0.24336143
v -0.15425674 0.03217324 0.19388078
v -0.15426644 0.03422607 0.19388078
v -0.15561887 0.02448316 0.20846176
v -0.15561401 -0.02201017 0.20850249
v -0.15425674 -0.03217006 0.19388078
v -0.15991717 -0.02201017 0.23656987
v -0.15561887 -0.02463233 0.20850759
v -0.15884623 0.03082607 0.22240127
v -0.15949171 0.03041711 0.22466173
v -0.15575475 0.03398550 0.20477070
v -0.15555901 0.03750578 0.19839661
v -0.16201860 -0.02428752 0.24224647
v -0.16062412 -0.02540214 0.23656987
v -0.15906139 -0.02748705 0.22910628
v -0.15922802 -0.02540214 0.23130056
v -0.16427372 0.02692089 0.23774083
v -0.16766125 0.02727372 0.23548546
v -0.16088781 0.04027229 0.19388078
v -0.16096061 0.04024021 0.19388078
v -0.16600470 0.03389729 0.21131789
v -0.16609690 0.03401758 0.20947490
v -0.16943428 0.02719353 0.23317918
v -0.16976431 0.02550155 0.23630513
v -0.16943105 0.02719353 0.23079654
v -0.17033211 0.02201335 0.23656987
v -0.16690577 0.02201335 0.20608930
v -0.16691709 -0.02201017 0.20608930
v -0.17078024 -0.01862621 0.23995547
v -0.15750028 0.04001568 0.19388078
v -0.17059582 -0.02201017 0.23995547
v -0.16766125 -0.02201017 0.24373818
v -0.16988239 -0.02461630 0.23995547
v -0.16947958 -0.02722242 0.23546509
v -0.16766125 -0.02690969 0.23782738
v -0.16766125 -0.02580309 0.23995547
v -0.16766125 -0.02429554 0.24223630
v -0.16455197 -0.02181771 0.24431347
v -0.16427372 -0.02449601 0.24245012
v -0.15429718 0.03555720 0.19388078
v -0.15426644 -0.03556203 0.19388078
v -0.15575475 -0.03402241 0.20479107
v -0.15455601 -0.03556203 0.19592741
v -0.15460455 0.03555720 0.19592741
v -0.15524517 0.03791474 0.19592741
v -0.15514811 0.03851616 0.19388078
v -0.16247642 -0.02714223 0.23837213
v -0.16169344 -0.02541016 0.23968055
v -0.15909860 -0.03057431 0.22499265
v -0.15549268 -0.03760684 0.19872245
v -0.16427372 0.02743410 0.23604549
v -0.16348427 0.03864446 0.19388078
v -0.16609367 0.03404163 0.20608930
v -0.16948766 0.02539731 0.23039943
v -0.16599984 0.03392937 0.20414958
v -0.16450021 0.03555720 0.19388078
v -0.16467006 0.03217324 0.19388078
v -0.16467006 -0.03217006 0.19388078
v -0.16464418 -0.03422288 0.19388078
v -0.16676017 -0.02540214 0.20608930
v -0.16950385 -0.02540214 0.23034342
v -0.17033211 -0.02201017 0.23656987
v -0.16945370 -0.02724648 0.23073035
v -0.16952325 -0.02731063 0.23317918
v -0.16766125 -0.02743893 0.23613204
v -0.16621015 -0.03415071 0.20947490
v -0.16611794 -0.03401439 0.21185755
v -0.16057235 -0.04164834 0.19388078
v -0.16573777 -0.02707808 0.23821940
v -0.16447432 -0.02636440 0.23968055
v -0.15519502 -0.03801580 0.19592741
v -0.15452042 -0.03653232 0.19388078
v -0.16347942 -0.02714223 0.23837213
v -0.15990747 -0.04143183 0.19388078
v -0.15878314 -0.04106297 0.19388078
v -0.15588255 -0.03721392 0.20097781
v -0.15657170 -0.03975589 0.19388078
v -0.15508986 -0.03858514 0.19388078
v -0.16455521 -0.03556203 0.19388078
v -0.16599984 -0.03394222 0.20414958
v -0.16612117 -0.03410260 0.20608930
v -0.16353603 -0.03868137 0.19388078
v -0.16399547 -0.03769505 0.19388078
f 1 2 3
f 1 3 4
f 1 4 14
f 1 14 5
f 1 5 19
f 1 19 6
f 1 6 9
f 1 9 2
f 2 7 8
f 2 8 3
f 2 9 24
f 2 24 7
f 3 8 10
f 3 10 11
f 3 11 4
f 4 12 13
f 4 13 14
f 4 11 15
f 4 15 16
f 4 16 12
f 5 14 17
f 5 17 18
f 5 18 38
f 5 38 19
f 6 19 20
f 6 20 21
f 6 21 22
f 6 22 9
f 7 23 8
f 7 24 47
f 7 47 23
f 8 23 25
f 8 25 10
f 9 22 26
f 9 26 24
f 10 25 27
f 10 27 11
f 11 27 15
f 12 16 28
f 12 28 13
f 13 28 29
f 13 29 30
f 13 30 31
f 13 31 32
f 13 32 33
f 13 33 17
f 13 17 14
f 15 34 16
f 15 27 35
f 15 35 36
f 15 36 34
f 16 34 28
f 17 33 18
f 18 33 37
f 18 37 63
f 18 63 38
f 19 38 20
f 20 39 40
f 20 40 21
f 20 38 39
f 21 40 41
f 21 41 42
f 21 42 43
f 21 43 22
f 22 43 44
f 22 44 26
f 23 45 46
f 23 46 25
f 23 47 45
f 24 26 47
f 25 48 35
f 25 35 27
f 25 46 49
f 25 49 50
f 25 50 48
f 26 44 51
f 26 51 47
f 28 34 52
f 28 52 29
f 29 52 30
f 30 53 54
f 30 54 55
f 30 55 56
f 30 56 57
f 30 57 58
f 30 58 31
f 30 52 53
f 31 58 32
f 32 58 59
f 32 59 33
f 33 59 37
f 34 36 60
f 34 60 52
f 35 61 36
f 35 48 62
f 35 62 61
f 36 61 53
f 36 53 60
f 37 59 63
f 38 63 64
f 38 64 39
f 39 64 40
f 40 65 66
f 40 66 67
f 40 67 68
f 40 68 69
f 40 69 41
f 40 64 65
f 41 69 42
f 42 69 70
f 42 70 71
f 42 71 43
f 43 71 72
f 43 72 44
f 44 72 51
f 45 73 74
f 45 74 75
f 45 75 46
f 45 47 76
f 45 76 77
f 45 77 73
f 46 75 49
f 47 51 78
f 47 78 79
f 47 79 76
f 48 50 80
f 48 80 81
f 48 81 62
f 49 75 82
f 49 82 50
f 50 82 83
f 50 83 80
f 51 72 84
f 51 84 85
f 51 85 86
f 51 86 87
f 51 87 79
f 51 79 78
f 52 60 53
f 53 61 54
f 54 61 88
f 54 88 55
f 55 88 89
f 55 89 56
f 56 89 90
f 56 90 91
f 56 91 92
f 56 92 93
f 56 93 94
f 56 94 95
f 56 95 58
f 56 58 57
f 58 95 94
f 58 94 96
f 58 96 97
f 58 97 59
f 59 97 98
f 59 98 99
f 59 99 100
f 59 100 63
f 61 62 88
f 62 81 101
f 62 101 88
f 63 100 64
f 64 100 102
f 64 102 65
f 65 102 66
f 66 102 67
f 67 103 68
f 67 102 104
f 67 104 105
f 67 105 106
f 67 106 107
f 67 107 108
f 67 108 103
f 68 103 69
f 69 103 109
f 69 109 70
f 70 109 71
f 71 109 110
f 71 110 84
f 71 84 72
f 73 77 112
f 73 112 143
f 73 143 149
f 73 149 148
f 73 148 146
f 73 146 145
f 73 145 139
f 73 139 153
f 73 153 154
f 73 154 150
f 73 150 130
f 73 130 129
f 73 129 128
f 73 128 127
f 73 127 123
f 73 123 91
f 73 91 90
f 73 90 101
f 73 101 117
f 73 117 111
f 73 111 74
f 74 111 75
f 75 111 82
f 76 79 77
f 77 79 112
f 79 87 113
f 79 113 114
f 79 114 112
f 80 83 81
f 81 83 101
f 82 111 115
f 82 115 83
f 83 115 116
f 83 116 117
f 83 117 101
f 84 110 118
f 84 118 119
f 84 119 120
f 84 120 86
f 84 86 85
f 86 120 121
f 86 121 113
f 86 113 87
f 88 101 90
f 88 90 122
f 88 122 89
f 89 122 90
f 91 123 92
f 92 123 93
f 93 123 124
f 93 124 94
f 94 124 96
f 96 98 125
f 96 125 97
f 96 124 126
f 96 126 98
f 97 125 98
f 98 126 127
f 98 127 128
f 98 128 99
f 99 129 130
f 99 130 131
f 99 131 132
f 99 132 133
f 99 133 100
f 99 128 129
f 100 133 102
f 102 133 134
f 102 134 135
f 102 135 105
f 102 105 104
f 103 108 109
f 105 136 106
f 105 135 137
f 105 137 138
f 105 138 139
f 105 139 136
f 106 140 107
f 106 136 140
f 107 140 141
f 107 141 108
f 108 141 110
f 108 110 109
f 110 141 118
f 111 117 116
f 111 116 115
f 112 114 142
f 112 142 143
f 113 121 114
f 114 121 142
f 118 141 144
f 118 144 139
f 118 139 145
f 118 145 146
f 118 146 120
f 118 120 119
f 120 146 147
f 120 147 121
f 121 147 148
f 121 148 149
f 121 149 142
f 123 127 126
f 123 126 124
f 130 150 151
f 130 151 131
f 131 134 132
f 131 151 134
f 132 134 133
f 134 151 152
f 134 152 135
f 135 152 137
f 136 139 140
f 137 152 153
f 137 153 138
f 138 153 139
f 139 144 140
f 140 144 141
f 142 149 143
f 146 148 147
f 150 154 151
f 151 154 152
f 152 154 153

