# https://github.com/mikedh/trimesh
v -0.09660957 0.11325199 0.02993581
v -0.12192545 0.10472827 0.02995181
v -0.12192545 0.10472827 0.02993581
v -0.12356192 0.11325199 0.02993581
v -0.12520422 0.11325199 0.18418870
v -0.14553497 0.10472827 0.18583649
v -0.14233190 0.10472827 0.16516706
v -0.13877941 0.10472827 0.14168196
v -0.13318277 0.10472827 0.02993581
v -0.12596713 0.11215053 0.02993581
v -0.12395795 0.11325199 0.02995181
v -0.12576913 0.11325199 0.18700435
v -0.14628623 0.10472827 0.18918008
v -0.13253634 0.10550846 0.02993581
v -0.13318860 0.10472827 0.02996781
v -0.12599043 0.11213719 0.02993581
v -0.12598461 0.11214803 0.02996781
v -0.12396377 0.11325199 0.02996781
v -0.12641557 0.11325199 0.18914808
v -0.14672302 0.10472827 0.19010796
v -0.13111534 0.10721571 0.02993581
v -0.13137741 0.10751611 0.03335939
v -0.13112117 0.10721821 0.02996781
v -0.13345067 0.10472827 0.03175958
v -0.12766768 0.11094061 0.02993581
v -0.12798798 0.11123433 0.03335939
v -0.12629910 0.11231074 0.03335939
v -0.12406277 0.11325199 0.03051174
v -0.12893725 0.11325199 0.19039593
v -0.14879046 0.10472827 0.19250767
v -0.14783535 0.10472827 0.19197974
v -0.12943228 0.10923670 0.02993581
v -0.12968270 0.10954044 0.03335939
v -0.12942646 0.10925172 0.02996781
v -0.15279137 0.10883451 0.18914808
v -0.15609927 0.10472827 0.19023595
v -0.15592456 0.10517803 0.19053991
v -0.12941481 0.10925672 0.02993581
v -0.12819764 0.11141373 0.03673496
v -0.14946019 0.11205791 0.19001198
v -0.12457527 0.11325199 0.03335939
v -0.14713069 0.11325199 0.18902010
v -0.13380592 0.11325199 0.19199573
v -0.15055505 0.10472827 0.19290762
v -0.15290203 0.10896133 0.19146779
v -0.15609927 0.10472827 0.19061990
v -0.15592456 0.10517803 0.19105184
v -0.14946019 0.11205791 0.19129182
v -0.14674631 0.11325199 0.19114783
v -0.13740501 0.11325199 0.19279563
v -0.14395091 0.11008031 0.19309959
v -0.15072394 0.10669419 0.19337157
v -0.15268655 0.10472827 0.19316359
v -0.15607598 0.10472827 0.19119583
v -0.15543536 0.10472827 0.19173976
v -0.15406096 0.10646222 0.19188375
v -0.15064241 0.11008615 0.19204372
v -0.14733451 0.11276050 0.19181975
v -0.14577374 0.11325199 0.19207572
v -0.14077696 0.11325199 0.19329157
v -0.14733451 0.11008031 0.19319558
v -0.15409007 0.10472827 0.19252367
v -0.14462647 0.11325199 0.19244367
f 1 2 3
f 1 3 9
f 1 9 14
f 1 14 21
f 1 21 32
f 1 32 38
f 1 38 25
f 1 25 16
f 1 16 10
f 1 10 4
f 1 4 11
f 1 11 18
f 1 18 28
f 1 28 41
f 1 41 42
f 1 42 49
f 1 49 59
f 1 59 63
f 1 63 60
f 1 60 50
f 1 50 43
f 1 43 29
f 1 29 19
f 1 19 12
f 1 12 5
f 1 5 6
f 1 6 7
f 1 7 8
f 1 8 2
f 2 8 7
f 2 7 6
f 2 6 13
f 2 13 20
f 2 20 31
f 2 31 30
f 2 30 44
f 2 44 53
f 2 53 62
f 2 62 55
f 2 55 54
f 2 54 46
f 2 46 36
f 2 36 24
f 2 24 15
f 2 15 9
f 2 9 3
f 4 10 11
f 5 12 6
f 6 12 13
f 9 15 14
f 10 16 17
f 10 17 11
f 11 17 18
f 12 19 13
f 13 19 20
f 14 15 22
f 14 22 23
f 14 23 21
f 15 24 22
f 16 25 17
f 17 25 26
f 17 26 27
f 17 27 28
f 17 28 18
f 19 29 30
f 19 30 31
f 19 31 20
f 21 23 32
f 22 33 34
f 22 34 23
f 22 24 35
f 22 35 33
f 23 34 32
f 24 36 37
f 24 37 35
f 25 38 34
f 25 34 26
f 26 39 27
f 26 34 33
f 26 33 35
f 26 35 40
f 26 40 39
f 27 41 28
f 27 39 40
f 27 40 42
f 27 42 41
f 29 43 30
f 30 43 44
f 32 34 38
f 35 37 45
f 35 45 40
f 36 46 47
f 36 47 37
f 37 47 45
f 40 45 48
f 40 48 42
f 42 48 49
f 43 50 44
f 44 50 51
f 44 51 52
f 44 52 53
f 45 47 54
f 45 54 55
f 45 55 56
f 45 56 52
f 45 52 57
f 45 57 48
f 46 54 47
f 48 57 58
f 48 58 49
f 49 58 59
f 50 60 51
f 51 60 52
f 52 60 61
f 52 61 57
f 52 56 62
f 52 62 53
f 55 62 56
f 57 61 58
f 58 61 59
f 59 61 63
f 60 63 61

