# https://github.com/mikedh/trimesh
v -0.00002717 -0.05180316 -0.00666990
v 0.09314429 -0.05180316 -0.00666990
v -0.00002717 -0.05180316 0.00105491
v -0.00002717 0.08297118 -0.00666990
v 0.09652770 -0.05180316 -0.00641760
v 0.09314429 0.08297118 -0.00666990
v 0.10045205 -0.05180316 0.00202109
v 0.10045205 0.09712649 0.00520797
v -0.00002717 0.09712649 0.00421970
v -0.00002717 0.08636787 -0.00648039
v 0.09991110 -0.05180316 -0.00589788
v 0.09652770 0.08297118 -0.00641760
v 0.09314429 0.08636787 -0.00648039
v 0.10045205 -0.05180316 -0.00581417
v 0.10045205 0.09712649 -0.00345162
v -0.00002717 0.09712649 -0.00423759
v -0.00002717 0.08802977 -0.00621065
v 0.09991110 0.08297118 -0.00589788
v 0.09652770 0.08636787 -0.00622692
v 0.10045205 0.08560981 -0.00570837
v 0.09314429 0.08963336 -0.00594904
v 0.09652770 0.08905023 -0.00582231
v 0.10045205 0.08297118 -0.00581417
v 0.09649819 0.09712649 -0.00397947
v 0.10045205 0.09652879 -0.00364462
v 0.09652770 0.09652879 -0.00419456
v -0.00002717 0.09652879 -0.00445152
v 0.08975106 0.09712649 -0.00423759
v -0.00002717 0.08963336 -0.00594904
v 0.09859314 0.08832134 -0.00566535
v 0.10045205 0.08724255 -0.00552001
v 0.10045205 0.08664485 -0.00559327
v 0.09980291 0.08606173 -0.00575836
v 0.09314429 0.09132441 -0.00558048
v 0.08975106 0.09652879 -0.00445152
v 0.09593757 0.09712649 -0.00402482
v 0.10045205 0.08960421 -0.00509447
v 0.09314429 0.09652879 -0.00444454
v 0.09314429 0.09712649 -0.00423061
f 1 2 5
f 1 5 11
f 1 11 14
f 1 14 7
f 1 7 3
f 1 3 9
f 1 9 16
f 1 16 27
f 1 27 29
f 1 29 17
f 1 17 10
f 1 10 4
f 1 4 6
f 1 6 2
f 2 6 12
f 2 12 5
f 3 7 8
f 3 8 9
f 4 10 13
f 4 13 6
f 5 12 18
f 5 18 11
f 6 13 12
f 7 14 23
f 7 23 20
f 7 20 32
f 7 32 31
f 7 31 37
f 7 37 25
f 7 25 15
f 7 15 8
f 8 15 24
f 8 24 36
f 8 36 39
f 8 39 28
f 8 28 16
f 8 16 9
f 10 17 13
f 11 18 23
f 11 23 14
f 12 13 19
f 12 19 20
f 12 20 18
f 13 17 21
f 13 21 22
f 13 22 19
f 15 25 26
f 15 26 24
f 16 28 35
f 16 35 27
f 17 29 21
f 18 20 23
f 19 22 30
f 19 30 31
f 19 31 32
f 19 32 33
f 19 33 20
f 20 33 32
f 21 34 26
f 21 26 22
f 21 29 27
f 21 27 35
f 21 35 34
f 22 26 25
f 22 25 30
f 24 26 36
f 25 37 30
f 26 38 36
f 26 34 38
f 28 39 38
f 28 38 35
f 30 37 31
f 34 35 38
f 36 38 39

