# https://github.com/mikedh/trimesh
v -0.09343445 -0.08294835 -0.00664782
v -0.09314187 -0.08294835 -0.00666990
v -0.09343445 -0.08294835 0.00110844
v -0.09343445 0.06335951 -0.00664782
v -0.00003632 -0.08294835 -0.00666990
v -0.09314187 0.06335951 -0.00666990
v -0.00003632 -0.08294835 0.00105514
v -0.09343445 0.06335951 0.00110844
v -0.00003632 0.06335951 -0.00666990
v -0.00003632 0.06335951 0.00105514
f 1 2 5
f 1 5 7
f 1 7 3
f 1 3 8
f 1 8 4
f 1 4 6
f 1 6 2
f 2 6 9
f 2 9 5
f 3 7 10
f 3 10 8
f 4 8 10
f 4 10 9
f 4 9 6
f 5 9 10
f 5 10 7

