# https://github.com/mikedh/trimesh
v 0.12017887 0.09712649 0.01514175
v 0.12017887 0.09712649 0.00335161
v 0.10045205 0.09712649 0.00520620
v 0.10045205 -0.05180316 0.00202223
v 0.12017887 -0.05180316 0.01021192
v 0.12017887 0.09684950 0.00321006
v 0.11676298 0.09712649 0.00150730
v 0.10045205 0.09712649 -0.00345125
v 0.10045205 -0.05180316 -0.00581256
v 0.12017887 -0.05180316 0.00067437
v 0.12017887 0.09677662 0.00317519
v 0.11753730 0.09652879 0.00170219
v 0.11564108 0.09712649 0.00093082
v 0.10669489 0.09712649 -0.00267987
v 0.10045205 0.09652879 -0.00364409
v 0.10045205 0.08297118 -0.00581256
v 0.10303376 -0.05180316 -0.00540635
v 0.11983901 -0.05180316 0.00049794
v 0.12017887 0.08297118 0.00067437
v 0.12017887 0.09421088 0.00239150
v 0.11824403 0.09416714 0.00131650
v 0.11584383 0.09652879 0.00083234
v 0.10987519 0.09712649 -0.00189413
v 0.11346680 0.09652879 -0.00035344
v 0.10876296 0.09712649 -0.00235163
v 0.10669489 0.09652879 -0.00281937
v 0.10045205 0.08960421 -0.00509452
v 0.10045205 0.08560981 -0.00570793
v 0.10166471 0.08474970 -0.00561561
v 0.10168980 0.08297118 -0.00561765
v 0.10601325 -0.05180316 -0.00493655
v 0.10338327 0.08297118 -0.00535096
v 0.11452691 -0.05180316 -0.00225315
v 0.11983901 0.08297118 0.00049794
v 0.12017887 0.08544945 0.00079952
v 0.12017887 0.09308837 0.00205506
v 0.12002439 0.09307378 0.00196684
v 0.11875188 0.09190753 0.00106212
v 0.11244725 0.08974999 -0.00255884
v 0.11196065 0.09183465 -0.00231060
v 0.11324088 0.09303005 -0.00140177
v 0.11062442 0.09652879 -0.00171361
v 0.11131571 0.09409425 -0.00204389
v 0.11008182 0.08974999 -0.00338354
v 0.10669489 0.08974999 -0.00411389
v 0.10045205 0.08724255 -0.00551918
v 0.10045205 0.08664485 -0.00559304
v 0.10669489 0.08636787 -0.00464319
v 0.10669489 0.08297118 -0.00482782
v 0.10669489 -0.05180316 -0.00482782
v 0.11318102 -0.05180316 -0.00294862
v 0.11318102 0.08297118 -0.00294862
v 0.11487449 0.08297118 -0.00207262
v 0.11967295 0.08636787 0.00058411
v 0.12017887 0.08636787 0.00084670
v 0.12017887 0.09247609 0.00192170
v 0.12017887 0.09046431 0.00150114
v 0.11918056 0.08974999 0.00084055
v 0.11685373 0.08974999 -0.00034934
v 0.11414071 0.08974999 -0.00171566
v 0.11300917 0.08636787 -0.00285425
v 0.11008182 0.08636787 -0.00393335
v 0.10085949 0.08699473 -0.00548842
v 0.11008182 0.08297118 -0.00412005
v 0.11008182 -0.05180316 -0.00412005
v 0.11470262 0.08636787 -0.00198646
v 0.11685373 0.08636787 -0.00087452
v 0.12017887 0.08974999 0.00135548
f 1 2 7
f 1 7 13
f 1 13 23
f 1 23 25
f 1 25 14
f 1 14 8
f 1 8 3
f 1 3 4
f 1 4 5
f 1 5 10
f 1 10 19
f 1 19 35
f 1 35 55
f 1 55 68
f 1 68 57
f 1 57 56
f 1 56 36
f 1 36 20
f 1 20 11
f 1 11 6
f 1 6 2
f 2 6 7
f 3 8 15
f 3 15 27
f 3 27 46
f 3 46 47
f 3 47 28
f 3 28 16
f 3 16 9
f 3 9 4
f 4 9 17
f 4 17 31
f 4 31 50
f 4 50 65
f 4 65 51
f 4 51 33
f 4 33 18
f 4 18 10
f 4 10 5
f 6 11 7
f 7 11 12
f 7 12 13
f 8 14 15
f 9 16 17
f 10 18 34
f 10 34 19
f 11 20 21
f 11 21 12
f 12 22 13
f 12 21 22
f 13 22 24
f 13 24 23
f 14 25 26
f 14 26 15
f 15 26 27
f 16 28 29
f 16 29 30
f 16 30 17
f 17 30 32
f 17 32 31
f 18 33 34
f 19 34 35
f 20 36 21
f 21 36 37
f 21 37 38
f 21 38 39
f 21 39 40
f 21 40 41
f 21 41 24
f 21 24 22
f 23 24 42
f 23 42 43
f 23 43 25
f 24 41 43
f 24 43 42
f 25 43 40
f 25 40 44
f 25 44 45
f 25 45 26
f 26 45 27
f 27 45 46
f 28 47 29
f 29 47 48
f 29 48 49
f 29 49 32
f 29 32 30
f 31 32 49
f 31 49 50
f 33 51 52
f 33 52 53
f 33 53 34
f 34 53 54
f 34 54 35
f 35 54 55
f 36 56 37
f 37 56 38
f 38 57 58
f 38 58 59
f 38 59 60
f 38 60 39
f 38 56 57
f 39 44 40
f 39 60 61
f 39 61 62
f 39 62 44
f 40 43 41
f 44 62 45
f 45 62 48
f 45 48 46
f 46 48 63
f 46 63 47
f 47 63 48
f 48 62 64
f 48 64 49
f 49 64 65
f 49 65 50
f 51 65 64
f 51 64 52
f 52 64 61
f 52 61 66
f 52 66 67
f 52 67 53
f 53 67 54
f 54 67 68
f 54 68 55
f 57 68 58
f 58 68 66
f 58 66 61
f 58 61 59
f 59 61 60
f 61 64 62
f 66 68 67

