# https://github.com/mikedh/trimesh
v -0.09163310 0.10472744 -0.00014077
v -0.09314510 0.10472744 -0.00013782
v -0.09314510 0.10746744 0.00182882
v -0.00004021 0.10472744 -0.00014077
v -0.09515240 0.10472744 -0.00000828
v -0.09652101 0.10731665 0.00193480
v -0.09652101 0.10956255 0.00362764
v -0.09314510 0.10969409 0.00352460
v -0.00004021 0.10746744 0.00182882
v -0.00004021 0.10472744 0.00975718
v -0.09648191 0.10472744 0.00008004
v -0.09652101 0.10562260 0.00072185
v -0.09990996 0.10700383 0.00215267
v -0.10329891 0.10899466 0.00407514
v -0.09990996 0.10928662 0.00384550
v -0.09652101 0.11125661 0.00518800
v -0.09314510 0.11138815 0.00502607
v -0.00004021 0.10969409 0.00352460
v -0.00004021 0.11331802 0.02993287
v -0.12191206 0.10472744 0.02993287
v -0.09902362 0.10472744 0.00041861
v -0.09990996 0.10530978 0.00094854
v -0.10200850 0.10509802 0.00110164
v -0.10319464 0.10641347 0.00221449
v -0.10329891 0.11068871 0.00591224
v -0.09990996 0.11097907 0.00553834
v -0.10602310 0.10869628 0.00431361
v -0.09652101 0.11243410 0.00688084
v -0.10541049 0.11183733 0.00784060
v -0.09990996 0.11221111 0.00723412
v -0.09314510 0.11253677 0.00671891
v -0.00004021 0.11197208 0.00588574
v -0.00004021 0.11138815 0.00502607
v -0.00004021 0.12111612 0.02993287
v -0.13318684 0.10472744 0.02993287
v -0.10156533 0.10472744 0.00078367
v -0.10228223 0.10472744 0.00090143
v -0.10426346 0.10481247 0.00129299
v -0.10766544 0.11165605 0.00811145
v -0.10671393 0.10472744 0.00169633
v -0.10697462 0.10701345 0.00334207
v -0.10829110 0.10835457 0.00458152
v -0.09663832 0.11608851 0.01272186
v -0.09558253 0.11524308 0.01119684
v -0.09783749 0.11511956 0.01139409
v -0.09990996 0.11604519 0.01333129
v -0.10659662 0.11261538 0.00939801
v -0.09314510 0.11646068 0.01302216
v -0.00004021 0.11588156 0.01209183
v -0.00004021 0.11253677 0.00671891
v -0.00004021 0.12056907 0.02656780
v -0.09314510 0.12111612 0.02993287
v -0.12943293 0.10923849 0.02993287
v -0.13228747 0.10523278 0.02778959
v -0.13261332 0.10472744 0.02756584
v -0.10418524 0.10472744 0.00122528
v -0.10490215 0.10472744 0.00135482
v -0.10886461 0.11531045 0.01447064
v -0.10668786 0.11551419 0.01414974
v -0.11007681 0.10948875 0.00672774
v -0.11508203 0.10834495 0.00799369
v -0.11007681 0.11118281 0.00882392
v -0.11111957 0.11493347 0.01502707
v -0.11015502 0.10472744 0.00296229
v -0.11901842 0.10543169 0.00763451
v -0.09652101 0.11795260 0.01599272
v -0.10329891 0.11723712 0.01640783
v -0.09988389 0.11785153 0.01664335
v -0.09314510 0.11803120 0.01583374
v -0.00004021 0.11646068 0.01302216
v -0.00004021 0.11931779 0.01979351
v -0.09314510 0.12056907 0.02656780
v -0.09652101 0.12109366 0.02993287
v -0.12766025 0.11094218 0.02993287
v -0.12908100 0.10883905 0.02728910
v -0.12767328 0.10711933 0.01979351
v -0.12872907 0.10502903 0.01806828
v -0.12958934 0.10472744 0.01979940
v -0.11002467 0.11599867 0.01625769
v -0.10668786 0.11674784 0.01640783
v -0.11685472 0.10783160 0.00866200
v -0.11880987 0.10851340 0.01110851
v -0.11276190 0.11566178 0.01728516
v -0.11834064 0.10472744 0.00688966
v -0.11939642 0.10472744 0.00743726
v -0.12103876 0.10472744 0.00883864
v -0.12107787 0.10775941 0.01198584
v -0.09873686 0.11861675 0.01792992
v -0.09652101 0.11871300 0.01768555
v -0.09314510 0.11877556 0.01752658
v -0.00004021 0.11840980 0.01669341
v -0.00004021 0.11803120 0.01583374
v -0.00004021 0.11905149 0.01867771
v -0.09314510 0.11931779 0.01979351
v -0.09652101 0.12051774 0.02656780
v -0.09989693 0.12080811 0.02993287
v -0.12596577 0.11215175 0.02993287
v -0.12561384 0.11195123 0.02754524
v -0.12712583 0.11025236 0.02628812
v -0.12661749 0.10966683 0.02318213
v -0.12597881 0.10907647 0.01979351
v -0.12552260 0.10861767 0.01783276
v -0.12845534 0.10472744 0.01743237
v -0.12880728 0.10472744 0.01786809
v -0.11007681 0.11738953 0.01979351
v -0.10100485 0.11846755 0.01854228
v -0.12229007 0.10867061 0.01424395
v -0.12006119 0.10912620 0.01307809
v -0.12042614 0.11100314 0.01634307
v -0.11942250 0.11221913 0.01742942
v -0.12169048 0.11164161 0.01848929
v -0.11501686 0.11508426 0.01835386
v -0.11371342 0.11606765 0.01960803
v -0.12165138 0.10472744 0.00942745
v -0.12229007 0.10550068 0.01085238
v -0.09988389 0.11884133 0.01971991
v -0.09990996 0.12020652 0.02656780
v -0.09652101 0.11920550 0.01979351
v -0.00004021 0.11877556 0.01752658
v -0.11076764 0.11841462 0.02563159
v -0.11200590 0.11861193 0.02788968
v -0.11007681 0.11921191 0.02993287
v -0.12360654 0.11343994 0.02993287
v -0.12384115 0.11264746 0.02647654
v -0.12511853 0.11166407 0.02528713
v -0.11948767 0.11565857 0.02993287
v -0.11685472 0.11707349 0.02993287
v -0.11901842 0.11541312 0.02725966
v -0.12463627 0.11136088 0.02318213
v -0.12352833 0.11089084 0.01968752
v -0.12350227 0.10929304 0.01658447
v -0.12738653 0.10472744 0.01614875
v -0.11346576 0.11707349 0.02318213
v -0.11325721 0.11794778 0.02668556
v -0.10981612 0.11814832 0.02346181
v -0.10668786 0.11793014 0.01979351
v -0.12234221 0.11199294 0.02074738
v -0.11800174 0.11488374 0.02318213
v -0.11561644 0.11539708 0.02061195
v -0.11630726 0.11574520 0.02318213
v -0.11715450 0.11614626 0.02630578
v -0.12262897 0.10472744 0.01055798
v -0.11423479 0.11826542 0.02993287
v -0.11255336 0.11874348 0.02993287
v -0.12294179 0.11231378 0.02318213
v -0.11848402 0.11512918 0.02500156
f 1 2 3
f 1 3 9
f 1 9 4
f 1 4 10
f 1 10 20
f 1 20 35
f 1 35 55
f 1 55 78
f 1 78 104
f 1 104 103
f 1 103 132
f 1 132 142
f 1 142 114
f 1 114 86
f 1 86 85
f 1 85 84
f 1 84 64
f 1 64 40
f 1 40 57
f 1 57 56
f 1 56 37
f 1 37 36
f 1 36 21
f 1 21 11
f 1 11 5
f 1 5 2
f 2 5 6
f 2 6 3
f 3 6 7
f 3 7 8
f 3 8 18
f 3 18 9
f 4 9 18
f 4 18 33
f 4 33 32
f 4 32 50
f 4 50 49
f 4 49 70
f 4 70 92
f 4 92 91
f 4 91 119
f 4 119 93
f 4 93 71
f 4 71 51
f 4 51 34
f 4 34 19
f 4 19 10
f 5 11 12
f 5 12 6
f 6 12 13
f 6 13 14
f 6 14 15
f 6 15 7
f 7 16 17
f 7 17 8
f 7 15 16
f 8 17 33
f 8 33 18
f 10 19 20
f 11 21 22
f 11 22 13
f 11 13 12
f 13 22 23
f 13 23 24
f 13 24 14
f 14 25 26
f 14 26 16
f 14 16 15
f 14 24 27
f 14 27 25
f 16 28 17
f 16 26 29
f 16 29 30
f 16 30 28
f 17 28 31
f 17 31 32
f 17 32 33
f 19 34 52
f 19 52 73
f 19 73 96
f 19 96 122
f 19 122 144
f 19 144 143
f 19 143 127
f 19 127 126
f 19 126 123
f 19 123 97
f 19 97 74
f 19 74 53
f 19 53 35
f 19 35 20
f 21 36 23
f 21 23 22
f 23 36 37
f 23 37 38
f 23 38 24
f 24 38 27
f 25 27 39
f 25 39 29
f 25 29 26
f 27 40 41
f 27 41 42
f 27 42 39
f 27 38 40
f 28 43 44
f 28 44 31
f 28 30 45
f 28 45 43
f 29 46 45
f 29 45 30
f 29 39 47
f 29 47 46
f 31 44 48
f 31 48 49
f 31 49 50
f 31 50 32
f 34 51 72
f 34 72 52
f 35 53 54
f 35 54 55
f 37 56 38
f 38 56 57
f 38 57 40
f 39 58 59
f 39 59 47
f 39 42 60
f 39 60 61
f 39 61 62
f 39 62 63
f 39 63 58
f 40 64 42
f 40 42 41
f 42 64 65
f 42 65 61
f 42 61 60
f 43 66 48
f 43 48 44
f 43 45 46
f 43 46 66
f 46 67 68
f 46 68 66
f 46 47 59
f 46 59 67
f 48 66 69
f 48 69 92
f 48 92 70
f 48 70 49
f 51 71 94
f 51 94 72
f 52 72 73
f 53 74 75
f 53 75 54
f 54 75 76
f 54 76 77
f 54 77 55
f 55 77 78
f 58 63 79
f 58 79 80
f 58 80 59
f 59 80 67
f 61 65 81
f 61 81 82
f 61 82 83
f 61 83 63
f 61 63 62
f 63 83 79
f 64 84 65
f 65 84 85
f 65 85 86
f 65 86 87
f 65 87 81
f 66 68 88
f 66 88 89
f 66 89 69
f 67 80 68
f 68 80 88
f 69 89 90
f 69 90 91
f 69 91 92
f 71 93 94
f 72 94 95
f 72 95 73
f 73 95 96
f 74 97 98
f 74 98 99
f 74 99 75
f 75 99 100
f 75 100 101
f 75 101 76
f 76 101 102
f 76 102 77
f 77 103 104
f 77 104 78
f 77 102 103
f 79 83 105
f 79 105 80
f 80 105 106
f 80 106 88
f 81 87 82
f 82 87 107
f 82 107 108
f 82 108 83
f 83 108 109
f 83 109 110
f 83 110 111
f 83 111 112
f 83 112 113
f 83 113 105
f 86 114 87
f 87 114 115
f 87 115 107
f 88 106 116
f 88 116 117
f 88 117 118
f 88 118 89
f 89 118 94
f 89 94 90
f 90 94 93
f 90 93 119
f 90 119 91
f 94 118 95
f 95 118 117
f 95 117 96
f 96 117 120
f 96 120 121
f 96 121 122
f 97 123 98
f 98 124 125
f 98 125 99
f 98 123 126
f 98 126 127
f 98 127 128
f 98 128 124
f 99 125 100
f 100 125 101
f 101 125 129
f 101 129 130
f 101 130 102
f 102 130 111
f 102 111 131
f 102 131 107
f 102 107 115
f 102 115 132
f 102 132 103
f 105 113 133
f 105 133 134
f 105 134 121
f 105 121 120
f 105 120 135
f 105 135 136
f 105 136 106
f 106 117 116
f 106 136 117
f 107 111 109
f 107 109 108
f 107 131 111
f 109 111 110
f 111 130 137
f 111 137 112
f 112 137 138
f 112 138 139
f 112 139 113
f 113 139 140
f 113 140 141
f 113 141 133
f 114 142 115
f 115 142 132
f 117 136 120
f 120 136 135
f 121 134 143
f 121 143 144
f 121 144 122
f 124 145 125
f 124 128 145
f 125 145 137
f 125 137 129
f 127 143 141
f 127 141 128
f 128 141 146
f 128 146 145
f 129 137 130
f 133 141 143
f 133 143 134
f 137 145 146
f 137 146 138
f 138 146 140
f 138 140 139
f 140 146 141

