# https://github.com/mikedh/trimesh
v -0.16088651 0.04026910 0.19386847
v -0.16095918 0.04023978 0.19386847
v -0.15749955 0.04000521 0.19386847
v -0.16088651 0.06335951 0.19326870
v -0.16348362 0.03864178 0.19386847
v -0.15514722 0.03850983 0.19386847
v -0.16020567 0.06335951 0.19308083
v -0.16268040 0.06335951 0.19207640
v -0.16450105 0.03556306 0.19386847
v -0.15429618 0.03556306 0.19386847
v -0.15758943 0.06335951 0.19234376
v -0.16314704 0.06335951 0.19176567
v -0.16467126 0.03217646 0.19386847
v -0.15426557 0.03421428 0.19386847
v -0.15409537 0.03556306 0.19253164
v -0.15246786 0.03894965 0.18035562
v -0.15277577 0.03894965 0.18237172
v -0.15589499 0.06335951 0.19026987
v -0.15723944 0.06335951 0.19191742
v -0.16314704 0.06335951 0.18916427
v -0.16443986 0.03556306 0.19253164
v -0.16404398 0.03556306 0.18914982
v -0.15922458 0.02383459 0.14670358
v -0.15922458 -0.02341644 0.14669636
v -0.16467126 -0.03216881 0.19386847
v -0.15425601 0.03217646 0.19386847
v -0.14763316 0.02200202 0.14851011
v -0.15223836 0.03894965 0.17865749
v -0.14559449 0.06335951 0.12006810
v -0.15229957 0.04089950 0.17820224
v -0.15564063 0.06335951 0.18857895
v -0.16275116 0.03894965 0.17939455
v -0.15243344 0.06335951 0.12005365
v -0.15726240 0.03894965 0.13835019
v -0.15775581 0.03894965 0.14173201
v -0.15685696 0.03556306 0.13496113
v -0.15622011 0.02878987 0.13167325
v -0.15922458 -0.02387092 0.14669636
v -0.16464449 -0.03422129 0.19386847
v -0.15425601 -0.03216881 0.19386847
v -0.14762934 -0.02200903 0.14851011
v -0.14645700 0.02200202 0.13496113
v -0.14646082 0.02538861 0.13496113
v -0.14647230 0.03217646 0.13496113
v -0.14559257 0.06335951 0.12005365
v -0.14735012 0.03894965 0.14173201
v -0.14778999 0.03894965 0.14512106
v -0.14899292 0.04072358 0.15389357
v -0.14513358 -0.08638363 0.12005365
v -0.14579147 0.06335951 0.12141216
v -0.14728127 0.06335951 0.13157208
v -0.15577642 0.02878987 0.12998234
v -0.15622011 0.03217646 0.13188281
v -0.15243344 -0.07959577 0.12005365
v -0.15622011 -0.02878222 0.13167325
v -0.15685887 -0.03555540 0.13496113
v -0.15729682 -0.03894200 0.13835019
v -0.16310497 -0.08298237 0.18932324
v -0.16455460 -0.03555540 0.19386847
v -0.16310497 -0.08298237 0.19172231
v -0.15426749 -0.03555540 0.19386847
v -0.15407815 -0.03555540 0.19253164
v -0.14534013 -0.08641294 0.12150610
v -0.14532291 -0.08641294 0.12138325
v -0.14786075 -0.08641294 0.12005365
v -0.15577642 -0.02878222 0.12998234
v -0.15239710 -0.08282110 0.12005365
v -0.15239519 -0.08298237 0.12005365
v -0.15622011 -0.03216881 0.13186113
v -0.16289268 -0.08636896 0.18995191
v -0.16399616 -0.03769585 0.19386847
v -0.16088651 -0.08298237 0.19321089
v -0.16289268 -0.08636896 0.19141159
v -0.16089034 -0.08641294 0.19286404
v -0.16088651 -0.08636896 0.19287127
v -0.15451993 -0.03652300 0.19386847
v -0.15749955 -0.08641294 0.19290740
v -0.15558326 -0.08641294 0.19146940
v -0.15555457 -0.08641294 0.19144772
v -0.15505733 -0.08641294 0.18914982
v -0.15457540 -0.08641294 0.18580412
v -0.15408772 -0.08641294 0.18241507
v -0.15068162 -0.08641294 0.15870617
v -0.14775747 -0.08641294 0.13835019
v -0.15200504 -0.08641294 0.12005365
v -0.15201461 -0.08636896 0.12005365
v -0.15252715 -0.08519611 0.12225762
v -0.16288886 -0.08641294 0.18996637
v -0.16353527 -0.03867810 0.19386847
v -0.16088651 -0.07959577 0.19326870
v -0.15508793 -0.03859014 0.19386847
v -0.16288886 -0.08641294 0.19140436
v -0.16057095 -0.04163954 0.19386847
v -0.15657009 -0.03974833 0.19386847
v -0.15878280 -0.04106778 0.19386847
f 1 2 5
f 1 5 9
f 1 9 13
f 1 13 25
f 1 25 39
f 1 39 59
f 1 59 71
f 1 71 89
f 1 89 93
f 1 93 95
f 1 95 94
f 1 94 91
f 1 91 76
f 1 76 61
f 1 61 40
f 1 40 26
f 1 26 14
f 1 14 10
f 1 10 6
f 1 6 3
f 1 3 4
f 1 4 2
f 2 4 5
f 3 6 4
f 4 7 11
f 4 11 19
f 4 19 18
f 4 18 31
f 4 31 51
f 4 51 50
f 4 50 29
f 4 29 45
f 4 45 33
f 4 33 20
f 4 20 12
f 4 12 8
f 4 8 9
f 4 9 5
f 4 6 7
f 6 10 11
f 6 11 7
f 8 12 9
f 9 12 13
f 10 14 15
f 10 15 16
f 10 16 17
f 10 17 18
f 10 18 19
f 10 19 11
f 12 20 13
f 13 20 21
f 13 21 22
f 13 22 23
f 13 23 24
f 13 24 38
f 13 38 25
f 14 26 27
f 14 27 15
f 15 27 16
f 16 28 29
f 16 29 30
f 16 30 31
f 16 31 18
f 16 18 17
f 16 27 28
f 20 32 22
f 20 22 21
f 20 33 34
f 20 34 35
f 20 35 23
f 20 23 32
f 22 32 23
f 23 35 34
f 23 34 36
f 23 36 37
f 23 37 24
f 24 37 55
f 24 55 38
f 25 38 39
f 26 40 41
f 26 41 27
f 27 42 43
f 27 43 44
f 27 44 45
f 27 45 46
f 27 46 47
f 27 47 48
f 27 48 28
f 27 41 49
f 27 49 42
f 28 48 29
f 29 50 30
f 29 48 45
f 30 50 51
f 30 51 31
f 33 52 53
f 33 53 36
f 33 36 34
f 33 45 49
f 33 49 65
f 33 65 85
f 33 85 86
f 33 86 68
f 33 68 67
f 33 67 54
f 33 54 66
f 33 66 52
f 36 53 37
f 37 53 52
f 37 52 66
f 37 66 55
f 38 55 56
f 38 56 57
f 38 57 58
f 38 58 39
f 39 58 60
f 39 60 59
f 40 61 41
f 41 61 62
f 41 62 49
f 42 49 43
f 43 49 44
f 44 49 45
f 45 48 46
f 46 48 47
f 49 62 61
f 49 61 63
f 49 63 64
f 49 64 65
f 54 67 66
f 55 66 68
f 55 68 69
f 55 69 56
f 56 69 68
f 56 68 57
f 57 68 58
f 58 68 70
f 58 70 73
f 58 73 60
f 59 60 72
f 59 72 71
f 60 73 74
f 60 74 75
f 60 75 72
f 61 76 77
f 61 77 78
f 61 78 79
f 61 79 80
f 61 80 81
f 61 81 82
f 61 82 83
f 61 83 84
f 61 84 63
f 63 84 83
f 63 83 82
f 63 82 81
f 63 81 80
f 63 80 79
f 63 79 78
f 63 78 77
f 63 77 74
f 63 74 92
f 63 92 88
f 63 88 85
f 63 85 65
f 63 65 64
f 66 67 68
f 68 86 87
f 68 87 70
f 70 87 88
f 70 88 92
f 70 92 73
f 71 72 90
f 71 90 89
f 72 75 77
f 72 77 91
f 72 91 90
f 73 92 74
f 74 77 75
f 76 91 77
f 85 88 86
f 86 88 87
f 89 90 93
f 90 91 94
f 90 94 95
f 90 95 93

