# https://github.com/mikedh/trimesh
v 0.14756374 0.11295449 0.18899010
v 0.14497747 0.11472388 0.18913571
v 0.14322920 0.11580933 0.19157454
v 0.14672573 0.11295449 0.19193854
v 0.12516864 0.11295449 0.03335987
v 0.14328700 0.11584053 0.18913571
v 0.13899581 0.11860257 0.19095573
v 0.14029617 0.11690544 0.19188394
v 0.14419725 0.11374846 0.19235714
v 0.14055624 0.11346848 0.19332176
v 0.14413946 0.11295449 0.19252095
v 0.12482188 0.11295449 0.03161265
v 0.12362265 0.11380182 0.03335987
v 0.13899581 0.11860257 0.19055532
v 0.13717530 0.11879634 0.19130153
v 0.12700359 0.12067330 0.18913571
v 0.13717530 0.11685535 0.19264835
v 0.13039899 0.11685535 0.19328536
v 0.12700359 0.11685535 0.19328536
v -0.00002717 0.11685535 0.19323076
v 0.14058514 0.11295449 0.19312156
v 0.13377993 0.11685535 0.19308516
v 0.12448956 0.11295449 0.02997463
v 0.12362265 0.11342742 0.02997463
v 0.11983717 0.11586270 0.03335987
v 0.11684634 0.11748347 0.03335987
v 0.11512697 0.11854100 0.03517990
v 0.11525700 0.11859848 0.03743672
v 0.11378327 0.11885875 0.03647212
v 0.11007002 0.11946387 0.03335987
v 0.13377993 0.11912970 0.19173834
v 0.12362265 0.12100172 0.18913571
v 0.12700359 0.11976520 0.19208414
v 0.13039899 0.11946305 0.19197494
v 0.10668908 0.12000988 0.03335987
v 0.10329369 0.12055671 0.03335987
v 0.09991275 0.12108136 0.03335987
v 0.12362265 0.11990149 0.19212054
v -0.00002717 0.11835380 0.19268475
v -0.00002717 0.11990149 0.19212054
v -0.00002717 0.11560817 0.19257555
v -0.00002717 0.11439956 0.19193854
v -0.00002717 0.11401285 0.19051892
v -0.00002717 0.11363762 0.18913571
v 0.13717530 0.11295449 0.19253915
v 0.12425839 0.11295449 0.02921022
v 0.11684634 0.11706801 0.02997463
v 0.11489580 0.11847613 0.03335987
v 0.11320533 0.11886942 0.03335987
v 0.11255515 0.11875036 0.02997463
v 0.11007002 0.11921673 0.02997463
v 0.12024172 0.12102881 0.18913571
v 0.09653181 0.12133754 0.03335987
v 0.09991275 0.12081041 0.02997463
v 0.09653181 0.12109697 0.02997463
v -0.00002717 0.12102881 0.18913571
v 0.12823171 0.11295449 0.18913571
v 0.13414113 0.11295449 0.19182934
v -0.00002717 0.11295449 0.02791800
v 0.12340593 0.11295449 0.02706259
v 0.11898470 0.11539962 0.02740840
v 0.11710641 0.11612215 0.02640738
v 0.11424561 0.11826266 0.02997463
v 0.11199166 0.11861325 0.02789980
v 0.09313643 0.12134163 0.03335987
v 0.09313643 0.12111913 0.02997463
v 0.11076354 0.11841537 0.02564298
v 0.09991275 0.12020611 0.02657118
v 0.09653181 0.12051729 0.02657118
v 0.09313643 0.12056902 0.02657118
v -0.00002717 0.12134163 0.03335987
v -0.00002717 0.11295449 0.00738813
v 0.12317476 0.11295449 0.02649838
v 0.12204777 0.11295449 0.02418696
v 0.11346540 0.11704666 0.02318594
v 0.12106529 0.11295449 0.02222133
v 0.11501139 0.11508515 0.01838107
v 0.11371103 0.11605647 0.01963689
v 0.11326312 0.11793177 0.02669858
v 0.11007002 0.11738987 0.01980069
v -0.00002717 0.12123162 0.03168545
v -0.00002717 0.12111913 0.02997463
v 0.10980993 0.11814771 0.02347714
v 0.10668908 0.11793095 0.01980069
v 0.09653181 0.11920688 0.01980069
v 0.10099638 0.11846792 0.01854488
v 0.09988385 0.11884151 0.01972789
v 0.09874242 0.11861735 0.01794427
v 0.09313643 0.11931772 0.01980069
v -0.00002717 0.12056902 0.02657118
v -0.00002717 0.11476575 0.01030017
v 0.09313643 0.11295449 0.00738813
v 0.12003944 0.11295449 0.02025571
v 0.11975048 0.11295449 0.01970969
v 0.11856571 0.11295449 0.01814447
v 0.11661516 0.11295449 0.01634265
v 0.11275742 0.11566235 0.01728907
v 0.11004112 0.11600802 0.01626985
v 0.10668908 0.11677243 0.01641545
v 0.09653181 0.11871424 0.01768947
v 0.09988385 0.11787101 0.01665205
v 0.09653181 0.11796297 0.01599685
v 0.09313643 0.11877664 0.01754387
v -0.00002717 0.11905170 0.01869049
v -0.00002717 0.11931772 0.01980069
v -0.00002717 0.11646207 0.01303020
v 0.09313643 0.11646207 0.01303020
v 0.09572270 0.11524361 0.01121018
v 0.09657516 0.11295449 0.00769753
v 0.11371103 0.11447428 0.01626985
v 0.11495359 0.11295449 0.01505044
v 0.11113920 0.11493571 0.01503224
v 0.10888524 0.11532325 0.01446802
v 0.10668908 0.11553673 0.01410402
v 0.10329369 0.11580440 0.01366722
v 0.10329369 0.11726424 0.01641545
v 0.09313643 0.11803194 0.01585124
v 0.09991275 0.11606960 0.01326680
v 0.09671965 0.11609752 0.01272080
v -0.00002717 0.11841045 0.01670665
v -0.00002717 0.11877664 0.01754387
v -0.00002717 0.11803194 0.01585124
v 0.09797666 0.11513933 0.01137398
v 0.09671965 0.11433141 0.00989977
v 0.09991275 0.11295449 0.00833455
v 0.11332091 0.11295449 0.01379462
v 0.11285857 0.11295449 0.01346701
v 0.11005557 0.11295449 0.01151958
v 0.10666018 0.11295449 0.00989977
v 0.10668908 0.11450137 0.01241140
v 0.10329369 0.11476740 0.01197459
v 0.10384273 0.11295449 0.00918995
v 0.09991275 0.11501371 0.01157419
v 0.09991275 0.11379034 0.00964496
v 0.10151653 0.11295449 0.00866215
v 0.10618338 0.11295449 0.00977236
v 0.10329369 0.11295449 0.00906255
f 1 2 3
f 1 3 4
f 1 4 11
f 1 11 21
f 1 21 45
f 1 45 58
f 1 58 57
f 1 57 59
f 1 59 72
f 1 72 92
f 1 92 109
f 1 109 125
f 1 125 135
f 1 135 137
f 1 137 132
f 1 132 136
f 1 136 129
f 1 129 128
f 1 128 127
f 1 127 126
f 1 126 111
f 1 111 96
f 1 96 95
f 1 95 94
f 1 94 93
f 1 93 76
f 1 76 74
f 1 74 73
f 1 73 60
f 1 60 46
f 1 46 23
f 1 23 12
f 1 12 5
f 1 5 2
f 2 6 3
f 2 5 6
f 3 7 8
f 3 8 9
f 3 9 4
f 3 6 7
f 4 9 10
f 4 10 11
f 5 12 13
f 5 13 14
f 5 14 6
f 6 14 7
f 7 15 8
f 7 14 16
f 7 16 15
f 8 15 17
f 8 17 9
f 9 17 10
f 10 18 19
f 10 19 20
f 10 20 21
f 10 21 11
f 10 17 22
f 10 22 18
f 12 23 24
f 12 24 13
f 13 24 25
f 13 25 14
f 14 25 26
f 14 26 27
f 14 27 28
f 14 28 29
f 14 29 30
f 14 30 16
f 15 31 17
f 15 16 31
f 16 32 33
f 16 33 34
f 16 34 31
f 16 30 35
f 16 35 36
f 16 36 37
f 16 37 32
f 17 31 22
f 18 22 33
f 18 33 38
f 18 38 40
f 18 40 19
f 19 39 20
f 19 40 39
f 20 39 40
f 20 40 56
f 20 56 71
f 20 71 81
f 20 81 82
f 20 82 90
f 20 90 105
f 20 105 104
f 20 104 121
f 20 121 120
f 20 120 122
f 20 122 106
f 20 106 91
f 20 91 72
f 20 72 59
f 20 59 44
f 20 44 43
f 20 43 42
f 20 42 41
f 20 41 21
f 21 41 42
f 21 42 43
f 21 43 44
f 21 44 45
f 22 31 34
f 22 34 33
f 23 46 24
f 24 47 26
f 24 26 25
f 24 46 47
f 26 47 48
f 26 48 27
f 27 48 49
f 27 49 28
f 28 49 29
f 29 49 30
f 30 49 50
f 30 50 51
f 30 51 35
f 32 52 38
f 32 38 33
f 32 37 53
f 32 53 52
f 35 51 36
f 36 51 54
f 36 54 37
f 37 54 55
f 37 55 53
f 38 52 56
f 38 56 40
f 44 57 58
f 44 58 45
f 44 59 57
f 46 60 61
f 46 61 47
f 47 61 62
f 47 62 63
f 47 63 48
f 48 63 50
f 48 50 49
f 50 63 64
f 50 64 51
f 51 64 54
f 52 53 65
f 52 65 71
f 52 71 56
f 53 55 66
f 53 66 65
f 54 64 67
f 54 67 68
f 54 68 69
f 54 69 55
f 55 69 70
f 55 70 66
f 60 73 61
f 61 73 74
f 61 74 62
f 62 75 63
f 62 74 76
f 62 76 77
f 62 77 78
f 62 78 75
f 63 75 79
f 63 79 64
f 64 79 80
f 64 80 67
f 65 66 81
f 65 81 71
f 66 70 90
f 66 90 82
f 66 82 81
f 67 80 83
f 67 83 84
f 67 84 68
f 68 85 69
f 68 84 86
f 68 86 87
f 68 87 88
f 68 88 85
f 69 85 89
f 69 89 70
f 70 89 105
f 70 105 90
f 72 91 92
f 75 80 79
f 75 78 80
f 76 93 77
f 77 94 95
f 77 95 96
f 77 96 97
f 77 97 78
f 77 93 94
f 78 97 80
f 80 84 83
f 80 97 98
f 80 98 99
f 80 99 86
f 80 86 84
f 85 88 100
f 85 100 89
f 86 99 88
f 86 88 87
f 88 99 101
f 88 101 102
f 88 102 100
f 89 100 103
f 89 103 104
f 89 104 105
f 91 106 107
f 91 107 92
f 92 108 109
f 92 107 108
f 96 110 97
f 96 111 110
f 97 110 112
f 97 112 98
f 98 112 113
f 98 113 99
f 99 113 114
f 99 114 115
f 99 115 116
f 99 116 101
f 100 102 117
f 100 117 103
f 101 116 118
f 101 118 102
f 102 118 119
f 102 119 107
f 102 107 117
f 103 117 120
f 103 120 121
f 103 121 104
f 106 122 117
f 106 117 107
f 107 119 108
f 108 123 124
f 108 124 109
f 108 119 123
f 109 124 123
f 109 123 125
f 110 111 126
f 110 126 112
f 112 126 127
f 112 127 128
f 112 128 113
f 113 128 129
f 113 129 130
f 113 130 114
f 114 130 115
f 115 118 116
f 115 130 131
f 115 131 118
f 117 122 120
f 118 131 132
f 118 132 133
f 118 133 123
f 118 123 119
f 123 133 134
f 123 134 125
f 125 134 135
f 129 136 130
f 130 136 131
f 131 136 132
f 132 137 133
f 133 137 135
f 133 135 134

