# https://github.com/mikedh/trimesh
v 0.37874358 0.20209212 0.17159579
v 0.40574149 0.20209212 0.17159579
v 0.36562586 0.20209212 0.17166797
v 0.37874358 0.21509769 -0.01779933
v 0.41474079 0.20209212 0.17199277
v 0.41474079 0.21509769 -0.01779933
v 0.36562586 0.20209212 0.19162519
v 0.36562586 0.22050545 0.16852822
v 0.36705470 0.22950657 -0.00881317
v 0.36927603 0.22050545 -0.00881317
v 0.37335242 0.21555129 -0.01779933
v 0.37397679 0.21587023 -0.02245482
v 0.37874358 0.21579935 -0.02252700
v 0.42082838 0.20209212 0.17401375
v 0.41474079 0.21579935 -0.02252700
v 0.41954363 0.21587023 -0.02245482
v 0.42022802 0.21555129 -0.01779933
v 0.36562586 0.21983213 0.19721899
v 0.37833535 0.20209212 0.19166128
v 0.37874358 0.21460156 0.34341558
v 0.37367662 0.21520400 0.34341558
v 0.37286614 0.21530322 0.34341558
v 0.36927603 0.22050545 0.34341558
v 0.36896983 0.22173868 0.34341558
v 0.36705470 0.22950657 0.34341558
v 0.36562586 0.23011610 0.17076574
v 0.36705470 0.25649576 -0.00881317
v 0.36823142 0.22950657 -0.01779933
v 0.37034465 0.22050545 -0.01779933
v 0.37283012 0.22050545 -0.02314052
v 0.37874358 0.22050545 -0.02400666
v 0.42280954 0.20209212 0.18014889
v 0.41474079 0.22050545 -0.02400666
v 0.42079236 0.22050545 -0.02314052
v 0.42348194 0.22050545 -0.01779933
v 0.42462261 0.22050545 -0.00881317
v 0.42076835 0.21530322 -0.00881317
v 0.36562586 0.22081022 0.19750770
v 0.40574149 0.20209212 0.19166128
v 0.41474079 0.21460156 0.34341558
v 0.36705470 0.25649576 0.34341558
v 0.36562586 0.22837258 0.19797686
v 0.36562586 0.23494268 0.18014889
v 0.36754700 0.26549688 -0.00881317
v 0.36862162 0.26549688 -0.01779933
v 0.36823142 0.25649576 -0.01779933
v 0.37182753 0.22950657 -0.02379010
v 0.37874358 0.22950657 -0.02523367
v 0.42597940 0.22050545 0.18014889
v 0.42695200 0.22950657 0.34341558
v 0.42462261 0.22050545 0.34341558
v 0.42409429 0.21978961 0.34341558
v 0.42076835 0.21530322 0.34341558
v 0.42122462 0.20209212 0.18743887
v 0.42695200 0.22950657 -0.00881317
v 0.41474079 0.22950657 -0.02523367
v 0.42574527 0.22950657 -0.01779933
v 0.42189099 0.22950657 -0.02379010
v 0.41474079 0.20209212 0.19093950
v 0.36712077 0.25772898 0.34341558
v 0.36562586 0.23468752 0.18191725
v 0.36562586 0.23341178 0.18917114
v 0.36562586 0.22940735 0.19797686
v 0.36754700 0.26549688 0.34341558
v 0.37114312 0.27224419 -0.00881317
v 0.37162940 0.27185436 -0.01779933
v 0.36803929 0.26642535 0.34341558
v 0.37282411 0.27097553 -0.02314052
v 0.37197160 0.26549688 -0.02368185
v 0.37182753 0.25649576 -0.02379010
v 0.37874358 0.25649576 -0.02526977
v 0.42695200 0.25649576 0.34341558
v 0.42695200 0.25649576 -0.00881317
v 0.41474079 0.25649576 -0.02526977
v 0.42574527 0.25649576 -0.01779933
v 0.42189099 0.25649576 -0.02379010
v 0.37874358 0.27449091 -0.00881317
v 0.37114312 0.27224419 0.34341558
v 0.37770498 0.27418616 0.34341558
v 0.37874358 0.27371838 -0.01779933
v 0.37874358 0.27146455 -0.02357359
v 0.37874358 0.26549688 -0.02505323
v 0.42645971 0.26549688 0.34341558
v 0.42534305 0.26549688 -0.01779933
v 0.42645971 0.26549688 -0.00881317
v 0.41474079 0.26549688 -0.02505323
v 0.42173491 0.26549688 -0.02368185
v 0.41474079 0.27449091 -0.00881317
v 0.37874358 0.27449091 0.34341558
v 0.41474079 0.27371838 -0.01779933
v 0.41474079 0.27146455 -0.02357359
v 0.42313374 0.27132280 0.34341558
v 0.42208913 0.27185436 -0.01779933
v 0.42079837 0.27097553 -0.02314052
v 0.42260543 0.27224419 -0.00881317
v 0.41474079 0.27449091 0.34341558
v 0.42152479 0.27255602 0.34341558
v 0.42260543 0.27224419 0.34341558
f 1 2 5
f 1 5 14
f 1 14 32
f 1 32 54
f 1 54 59
f 1 59 39
f 1 39 19
f 1 19 7
f 1 7 3
f 1 3 4
f 1 4 6
f 1 6 2
f 2 6 5
f 3 7 18
f 3 18 38
f 3 38 42
f 3 42 63
f 3 63 62
f 3 62 61
f 3 61 43
f 3 43 26
f 3 26 8
f 3 8 9
f 3 9 10
f 3 10 11
f 3 11 4
f 4 11 12
f 4 12 13
f 4 13 15
f 4 15 6
f 5 6 14
f 6 15 16
f 6 16 17
f 6 17 14
f 7 19 20
f 7 20 21
f 7 21 22
f 7 22 23
f 7 23 24
f 7 24 25
f 7 25 18
f 8 26 27
f 8 27 9
f 9 27 46
f 9 46 28
f 9 28 29
f 9 29 10
f 10 29 11
f 11 29 12
f 12 29 30
f 12 30 31
f 12 31 13
f 13 31 33
f 13 33 15
f 14 17 32
f 15 33 16
f 16 33 34
f 16 34 35
f 16 35 17
f 17 35 36
f 17 36 37
f 17 37 32
f 18 25 38
f 19 39 40
f 19 40 20
f 20 40 53
f 20 53 52
f 20 52 51
f 20 51 50
f 20 50 72
f 20 72 83
f 20 83 92
f 20 92 98
f 20 98 97
f 20 97 96
f 20 96 89
f 20 89 79
f 20 79 78
f 20 78 67
f 20 67 64
f 20 64 60
f 20 60 41
f 20 41 25
f 20 25 24
f 20 24 23
f 20 23 22
f 20 22 21
f 25 41 63
f 25 63 42
f 25 42 38
f 26 43 27
f 27 44 45
f 27 45 46
f 27 43 44
f 28 30 29
f 28 46 70
f 28 70 47
f 28 47 30
f 30 47 48
f 30 48 31
f 31 48 56
f 31 56 33
f 32 49 50
f 32 50 51
f 32 51 52
f 32 52 53
f 32 53 54
f 32 37 36
f 32 36 55
f 32 55 49
f 33 56 34
f 34 57 35
f 34 56 58
f 34 58 57
f 35 57 55
f 35 55 36
f 39 59 40
f 40 59 54
f 40 54 53
f 41 60 43
f 41 43 61
f 41 61 62
f 41 62 63
f 43 60 64
f 43 64 44
f 44 65 66
f 44 66 45
f 44 64 67
f 44 67 65
f 45 66 68
f 45 68 69
f 45 69 46
f 46 69 70
f 47 70 71
f 47 71 48
f 48 71 74
f 48 74 56
f 49 55 50
f 50 55 73
f 50 73 72
f 55 57 75
f 55 75 73
f 56 74 58
f 57 58 76
f 57 76 75
f 58 74 76
f 65 77 66
f 65 67 78
f 65 78 79
f 65 79 77
f 66 77 80
f 66 80 68
f 68 81 82
f 68 82 69
f 68 80 81
f 69 82 71
f 69 71 70
f 71 82 86
f 71 86 74
f 72 73 85
f 72 85 83
f 73 75 84
f 73 84 85
f 74 86 87
f 74 87 76
f 75 76 87
f 75 87 84
f 77 88 90
f 77 90 80
f 77 79 89
f 77 89 96
f 77 96 88
f 80 90 91
f 80 91 81
f 81 91 86
f 81 86 82
f 83 85 92
f 84 93 85
f 84 87 94
f 84 94 93
f 85 93 95
f 85 95 92
f 86 91 94
f 86 94 87
f 88 95 93
f 88 93 90
f 88 96 97
f 88 97 95
f 90 93 94
f 90 94 91
f 92 95 98
f 95 97 98

