# https://github.com/mikedh/trimesh
v -0.44925536 0.20244498 0.17159579
v -0.42219933 0.20244498 0.17159579
v -0.45825200 0.20244498 0.17199277
v -0.45825200 0.21509923 -0.01779933
v -0.41319671 0.20244498 0.17163188
v -0.42225949 0.21509923 -0.01779933
v -0.46433796 0.20244498 0.17401375
v -0.46374259 0.21555066 -0.01779933
v -0.46305701 0.21586807 -0.02245482
v -0.45825200 0.21580460 -0.02252700
v -0.40902914 0.20247320 0.17166797
v -0.40902914 0.20244498 0.18101502
v -0.42225949 0.21580460 -0.02252700
v -0.41749055 0.21586807 -0.02245482
v -0.41686511 0.21555066 -0.01779933
v -0.46632250 0.20244498 0.18014889
v -0.46428383 0.21530379 -0.00881317
v -0.46813264 0.22050232 -0.00881317
v -0.46699605 0.22050232 -0.01779933
v -0.46430789 0.22050232 -0.02314052
v -0.45825200 0.22050232 -0.02400666
v -0.41278775 0.22050232 -0.00881317
v -0.41056868 0.22950279 -0.00881317
v -0.40902914 0.20734727 0.17047703
v -0.40902914 0.20247320 0.19162519
v -0.41326285 0.20244498 0.19166128
v -0.42225949 0.22050232 -0.02400666
v -0.41634793 0.22050232 -0.02314052
v -0.41385822 0.22050232 -0.01779933
v -0.46474088 0.20244498 0.18743887
v -0.46428383 0.21530379 0.34341558
v -0.46481303 0.21601621 0.34341558
v -0.46813264 0.22050232 0.34341558
v -0.46845740 0.22173672 0.34341558
v -0.47046600 0.22950279 0.34341558
v -0.46949177 0.22050232 0.18014889
v -0.47046600 0.22950279 -0.00881317
v -0.46925723 0.22950279 -0.01779933
v -0.46540239 0.22950279 -0.02379010
v -0.45825200 0.22950279 -0.02523367
v -0.41174737 0.22950279 -0.01779933
v -0.41056868 0.25649707 -0.00881317
v -0.40902914 0.22050232 0.16856431
v -0.40902914 0.21840034 0.16874476
v -0.40902914 0.22088322 0.19743552
v -0.41056868 0.22950279 0.34341558
v -0.41278775 0.22050232 0.34341558
v -0.41638400 0.21530379 0.34341558
v -0.42225949 0.21459842 0.34341558
v -0.44931552 0.20244498 0.19166128
v -0.42225949 0.22950279 -0.02523367
v -0.41534363 0.22950279 -0.02379010
v -0.45825200 0.20244498 0.19093950
v -0.45825200 0.21459842 0.34341558
v -0.46345393 0.21520503 0.34341558
v -0.47046600 0.25649707 0.34341558
v -0.47046600 0.25649707 -0.00881317
v -0.46925723 0.25649707 -0.01779933
v -0.46540239 0.25649707 -0.02379010
v -0.45825200 0.25649707 -0.02526977
v -0.41174737 0.25649707 -0.01779933
v -0.41213828 0.26549755 -0.01779933
v -0.41106180 0.26549755 -0.00881317
v -0.40902914 0.23439800 0.18014889
v -0.40902914 0.23420051 0.17935493
v -0.40902914 0.23007412 0.17080183
v -0.40902914 0.22946046 0.17062139
v -0.40902914 0.22931232 0.19786859
v -0.41056868 0.25649707 0.34341558
v -0.42225949 0.25649707 -0.02526977
v -0.41534363 0.25649707 -0.02379010
v -0.46997288 0.26549755 0.34341558
v -0.46997288 0.26549755 -0.00881317
v -0.46886032 0.26549755 -0.01779933
v -0.46524604 0.26549755 -0.02368185
v -0.45825200 0.26549755 -0.02505323
v -0.41548796 0.26549755 -0.02368185
v -0.41514517 0.27185993 -0.01779933
v -0.41634192 0.27097821 -0.02314052
v -0.41465205 0.27224786 -0.00881317
v -0.41106180 0.26549755 0.34341558
v -0.41098962 0.26426314 0.34341558
v -0.40902914 0.23338228 0.18891852
v -0.40902914 0.22987663 0.19739943
v -0.40902914 0.23332585 0.18917114
v -0.42225949 0.26549755 -0.02505323
v -0.46611803 0.27224786 0.34341558
v -0.46611803 0.27224786 -0.00881317
v -0.46560686 0.27185993 -0.01779933
v -0.46431390 0.27097821 -0.02314052
v -0.45825200 0.27146493 -0.02357359
v -0.42225949 0.27371503 -0.01779933
v -0.42225949 0.27449799 -0.00881317
v -0.42225949 0.27146493 -0.02357359
v -0.41465205 0.27224786 0.34341558
v -0.45825200 0.27449799 0.34341558
v -0.45825200 0.27449799 -0.00881317
v -0.45825200 0.27371503 -0.01779933
v -0.42225949 0.27449799 0.34341558
f 1 2 5
f 1 5 12
f 1 12 26
f 1 26 50
f 1 50 53
f 1 53 30
f 1 30 16
f 1 16 7
f 1 7 3
f 1 3 4
f 1 4 6
f 1 6 2
f 2 6 5
f 3 7 4
f 4 8 9
f 4 9 10
f 4 10 13
f 4 13 6
f 4 7 8
f 5 11 12
f 5 6 11
f 6 13 14
f 6 14 15
f 6 15 11
f 7 16 8
f 8 17 18
f 8 18 19
f 8 19 9
f 8 16 17
f 9 19 20
f 9 20 21
f 9 21 10
f 10 21 27
f 10 27 13
f 11 15 22
f 11 22 23
f 11 23 24
f 11 24 44
f 11 44 43
f 11 43 67
f 11 67 66
f 11 66 65
f 11 65 64
f 11 64 83
f 11 83 85
f 11 85 84
f 11 84 68
f 11 68 45
f 11 45 25
f 11 25 12
f 12 25 26
f 13 27 14
f 14 27 28
f 14 28 29
f 14 29 15
f 15 29 22
f 16 30 31
f 16 31 32
f 16 32 33
f 16 33 34
f 16 34 35
f 16 35 36
f 16 36 37
f 16 37 18
f 16 18 17
f 18 37 19
f 19 37 38
f 19 38 20
f 20 38 39
f 20 39 40
f 20 40 21
f 21 40 51
f 21 51 27
f 22 29 23
f 23 29 41
f 23 41 61
f 23 61 42
f 23 42 43
f 23 43 44
f 23 44 24
f 25 45 46
f 25 46 47
f 25 47 48
f 25 48 49
f 25 49 26
f 26 49 54
f 26 54 50
f 27 51 28
f 28 41 29
f 28 51 52
f 28 52 41
f 30 53 54
f 30 54 55
f 30 55 31
f 31 55 54
f 31 54 49
f 31 49 48
f 31 48 47
f 31 47 46
f 31 46 69
f 31 69 82
f 31 82 81
f 31 81 95
f 31 95 99
f 31 99 96
f 31 96 87
f 31 87 72
f 31 72 56
f 31 56 35
f 31 35 34
f 31 34 33
f 31 33 32
f 35 56 57
f 35 57 37
f 35 37 36
f 37 57 58
f 37 58 38
f 38 58 59
f 38 59 39
f 39 59 60
f 39 60 40
f 40 60 70
f 40 70 51
f 41 52 71
f 41 71 61
f 42 61 62
f 42 62 63
f 42 63 64
f 42 64 65
f 42 65 66
f 42 66 67
f 42 67 43
f 45 68 46
f 46 68 69
f 50 54 53
f 51 70 52
f 52 70 71
f 56 72 73
f 56 73 57
f 57 73 74
f 57 74 58
f 58 74 75
f 58 75 59
f 59 75 60
f 60 75 76
f 60 76 86
f 60 86 70
f 61 71 77
f 61 77 62
f 62 78 63
f 62 77 79
f 62 79 78
f 63 78 80
f 63 80 95
f 63 95 81
f 63 81 64
f 64 81 82
f 64 82 69
f 64 69 83
f 68 84 69
f 69 84 85
f 69 85 83
f 70 86 77
f 70 77 71
f 72 87 88
f 72 88 73
f 73 88 89
f 73 89 74
f 74 89 90
f 74 90 75
f 75 90 76
f 76 90 91
f 76 91 94
f 76 94 86
f 77 86 79
f 78 79 92
f 78 92 93
f 78 93 80
f 79 86 94
f 79 94 92
f 80 93 99
f 80 99 95
f 87 96 97
f 87 97 88
f 88 97 89
f 89 97 98
f 89 98 90
f 90 98 91
f 91 98 92
f 91 92 94
f 92 98 97
f 92 97 93
f 93 97 96
f 93 96 99

