# https://github.com/mikedh/trimesh
v 0.37874484 -0.27449091 -0.00881241
v 0.37113915 -0.27224303 -0.00881241
v 0.37162752 -0.27185301 -0.01779857
v 0.37874484 -0.27371798 -0.01779857
v 0.41474240 -0.27449091 -0.00881241
v 0.37874484 -0.27449091 0.34341644
v 0.37218738 -0.27255503 0.34341644
v 0.36754772 -0.26549934 -0.00881241
v 0.37113915 -0.27224303 0.34341644
v 0.37064481 -0.27132119 0.34341644
v 0.36861980 -0.26549934 -0.01779857
v 0.37282467 -0.27098079 -0.02313975
v 0.37874484 -0.27147008 -0.02357282
v 0.41474240 -0.27371798 -0.01779857
v 0.42209200 -0.27185301 -0.01779857
v 0.42260419 -0.27224303 -0.00881241
v 0.41582040 -0.27418600 0.34341644
v 0.41474240 -0.27449091 0.34341644
v 0.36705339 -0.25649359 -0.00881241
v 0.36754772 -0.26549934 0.34341644
v 0.36747627 -0.26425839 0.34341644
v 0.36823265 -0.25649359 -0.01779857
v 0.37197296 -0.26549934 -0.02368110
v 0.37874484 -0.26549934 -0.02505246
v 0.41474240 -0.27147008 -0.02357282
v 0.42079955 -0.27098079 -0.02313975
v 0.42534391 -0.26549934 -0.01779857
v 0.42645767 -0.26549934 -0.00881241
v 0.42260419 -0.27224303 0.34341644
v 0.36610641 -0.22980255 0.17080265
v 0.36610641 -0.22968909 0.17073048
v 0.36610641 -0.22057696 0.16878167
v 0.36610641 -0.21915164 0.16867340
v 0.36705339 -0.22950472 -0.00881241
v 0.36705339 -0.25649359 0.34341644
v 0.36610641 -0.23275244 0.18014971
v 0.36823265 -0.22950472 -0.01779857
v 0.37183003 -0.25649359 -0.02378935
v 0.37874484 -0.25649359 -0.02526899
v 0.41474240 -0.26549934 -0.02505246
v 0.42173462 -0.26549934 -0.02368110
v 0.42574297 -0.25649359 -0.01779857
v 0.42694604 -0.25649359 -0.00881241
v 0.42688055 -0.25773454 0.34341644
v 0.42645767 -0.26549934 0.34341644
v 0.36610641 -0.20794764 0.17036958
v 0.36927493 -0.22050605 -0.00881241
v 0.37034701 -0.22050605 -0.01779857
v 0.36610641 -0.20205490 0.17166879
v 0.36705339 -0.22950472 0.34341644
v 0.36610641 -0.22050605 0.19386354
v 0.36610641 -0.22900832 0.19011028
v 0.36610641 -0.22988763 0.18971330
v 0.37283063 -0.22050605 -0.02313975
v 0.37183003 -0.22950472 -0.02378935
v 0.41474240 -0.25649359 -0.02526899
v 0.37874484 -0.22950472 -0.02526899
v 0.42188949 -0.25649359 -0.02378935
v 0.42574297 -0.22950472 -0.01779857
v 0.42694604 -0.22950472 -0.00881241
v 0.42694604 -0.25649359 0.34341644
v 0.37335473 -0.21554934 -0.01779857
v 0.37397416 -0.21586845 -0.02245404
v 0.36610641 -0.20205490 0.19162602
v 0.37829815 -0.20205490 0.17159661
v 0.37874484 -0.21510260 -0.01779857
v 0.36735712 -0.22827085 0.34341644
v 0.37874484 -0.22050605 -0.02400589
v 0.41474240 -0.22950472 -0.02526899
v 0.42188949 -0.22950472 -0.02378935
v 0.42079359 -0.22050605 -0.02313975
v 0.42348567 -0.22050605 -0.01779857
v 0.42462325 -0.22050605 -0.00881241
v 0.42280670 -0.20205490 0.18014971
v 0.42602288 -0.22050605 0.18014971
v 0.42694604 -0.22950472 0.34341644
v 0.37874484 -0.21580462 -0.02252624
v 0.37874484 -0.20205490 0.19166211
v 0.36927493 -0.22050605 0.34341644
v 0.37286635 -0.21530115 0.34341644
v 0.37874484 -0.21459913 0.34341644
v 0.40573704 -0.20205490 0.17159661
v 0.41474240 -0.21510260 -0.01779857
v 0.41474240 -0.22050605 -0.02400589
v 0.41954285 -0.21586845 -0.02245404
v 0.42023374 -0.21554934 -0.01779857
v 0.42076978 -0.21530115 -0.00881241
v 0.42082337 -0.20205490 0.17401458
v 0.42122243 -0.20205490 0.18743969
v 0.42076978 -0.21530115 0.34341644
v 0.42462325 -0.22050605 0.34341644
v 0.41474240 -0.21580462 -0.02252624
v 0.40573704 -0.20205490 0.19166211
v 0.41474240 -0.21459913 0.34341644
v 0.41474240 -0.20205490 0.17199359
v 0.41474240 -0.20205490 0.19094033
f 1 2 3
f 1 3 4
f 1 4 14
f 1 14 5
f 1 5 18
f 1 18 6
f 1 6 7
f 1 7 2
f 2 8 3
f 2 7 9
f 2 9 10
f 2 10 8
f 3 11 12
f 3 12 4
f 3 8 11
f 4 12 13
f 4 13 25
f 4 25 14
f 5 14 15
f 5 15 16
f 5 16 17
f 5 17 18
f 6 18 17
f 6 17 29
f 6 29 45
f 6 45 44
f 6 44 61
f 6 61 76
f 6 76 91
f 6 91 90
f 6 90 94
f 6 94 81
f 6 81 80
f 6 80 79
f 6 79 67
f 6 67 50
f 6 50 35
f 6 35 21
f 6 21 20
f 6 20 10
f 6 10 9
f 6 9 7
f 8 19 11
f 8 10 20
f 8 20 21
f 8 21 19
f 11 19 22
f 11 22 23
f 11 23 12
f 12 23 24
f 12 24 13
f 13 24 40
f 13 40 25
f 14 25 26
f 14 26 15
f 15 27 28
f 15 28 16
f 15 26 27
f 16 28 45
f 16 45 29
f 16 29 17
f 19 30 31
f 19 31 32
f 19 32 33
f 19 33 34
f 19 34 37
f 19 37 22
f 19 21 35
f 19 35 36
f 19 36 30
f 22 37 55
f 22 55 38
f 22 38 23
f 23 38 39
f 23 39 24
f 24 39 56
f 24 56 40
f 25 40 26
f 26 40 41
f 26 41 27
f 27 42 43
f 27 43 28
f 27 41 42
f 28 43 44
f 28 44 45
f 30 36 53
f 30 53 52
f 30 52 51
f 30 51 64
f 30 64 49
f 30 49 46
f 30 46 33
f 30 33 32
f 30 32 31
f 33 46 34
f 34 47 48
f 34 48 37
f 34 46 49
f 34 49 47
f 35 50 51
f 35 51 52
f 35 52 53
f 35 53 36
f 37 48 54
f 37 54 55
f 38 55 57
f 38 57 39
f 39 57 69
f 39 69 56
f 40 56 41
f 41 56 58
f 41 58 42
f 42 58 70
f 42 70 59
f 42 59 60
f 42 60 43
f 43 60 76
f 43 76 61
f 43 61 44
f 47 62 48
f 47 49 62
f 48 62 63
f 48 63 54
f 49 64 78
f 49 78 93
f 49 93 96
f 49 96 89
f 49 89 74
f 49 74 88
f 49 88 95
f 49 95 82
f 49 82 65
f 49 65 66
f 49 66 62
f 50 67 64
f 50 64 51
f 54 63 68
f 54 68 57
f 54 57 55
f 56 69 70
f 56 70 58
f 57 68 84
f 57 84 69
f 59 71 72
f 59 72 60
f 59 70 71
f 60 72 73
f 60 73 74
f 60 74 75
f 60 75 76
f 62 66 63
f 63 77 68
f 63 66 77
f 64 67 79
f 64 79 80
f 64 80 81
f 64 81 78
f 65 82 83
f 65 83 66
f 66 83 92
f 66 92 77
f 68 77 92
f 68 92 84
f 69 84 71
f 69 71 70
f 71 85 72
f 71 84 85
f 72 86 73
f 72 85 86
f 73 86 87
f 73 87 74
f 74 89 90
f 74 90 91
f 74 91 76
f 74 76 75
f 74 87 86
f 74 86 88
f 78 81 94
f 78 94 93
f 82 95 83
f 83 86 85
f 83 85 92
f 83 95 88
f 83 88 86
f 84 92 85
f 89 96 94
f 89 94 90
f 93 94 96

