# https://github.com/mikedh/trimesh
v -0.40936568 -0.22090063 0.19335688
v -0.40936568 -0.22948750 0.18977287
v -0.38609580 -0.22019639 0.18815528
v -0.38609580 -0.21150004 0.19162938
v -0.38609580 -0.20233913 0.19162938
v -0.38609808 -0.20228884 0.19162938
v -0.40936568 -0.20781320 0.19230079
v -0.40936568 -0.22967096 0.18959128
v -0.38609580 -0.22375602 0.18018206
v -0.38609580 -0.20228884 0.19150753
v -0.40936568 -0.20228884 0.19165089
v -0.40936568 -0.23251155 0.18018206
v -0.40936568 -0.22978045 0.17152070
v -0.40936568 -0.22959698 0.17103327
v -0.38609580 -0.21963420 0.17382402
v -0.38609580 -0.20228884 0.17173335
v -0.40936568 -0.20228884 0.17169512
v -0.40936568 -0.22058994 0.16894738
v -0.38609580 -0.21164503 0.17176680
v -0.38609580 -0.21955726 0.17370695
v -0.38609580 -0.21150004 0.17173335
f 1 2 3
f 1 3 4
f 1 4 5
f 1 5 6
f 1 6 7
f 1 7 11
f 1 11 17
f 1 17 18
f 1 18 14
f 1 14 13
f 1 13 12
f 1 12 8
f 1 8 2
f 2 8 3
f 3 8 9
f 3 9 15
f 3 15 20
f 3 20 19
f 3 19 21
f 3 21 16
f 3 16 10
f 3 10 5
f 3 5 4
f 5 10 6
f 6 10 16
f 6 16 17
f 6 17 11
f 6 11 7
f 8 12 9
f 9 12 13
f 9 13 14
f 9 14 15
f 14 18 19
f 14 19 20
f 14 20 15
f 16 21 18
f 16 18 17
f 18 21 19

