# https://github.com/mikedh/trimesh
v -0.47670702 -0.20228587 0.38718317
v -0.47556284 -0.20228587 0.37818446
v -0.47670702 -0.20228587 0.41417928
v -0.47670702 0.00027561 0.38718317
v -0.47315030 -0.20228587 0.37267122
v -0.47556284 0.00027561 0.37818446
v -0.47556284 -0.20228587 0.42317798
v -0.47670702 0.00027561 0.41417928
v -0.47308823 -0.20228587 0.37253603
v -0.47308823 0.00027561 0.37254191
v -0.47308823 -0.20228587 0.42881467
v -0.47425017 0.00027561 0.42616972
v -0.47556284 0.00027561 0.42317798
v -0.46739398 -0.20228587 0.37102547
v -0.46725207 0.00027561 0.37107249
v -0.46725207 -0.20228587 0.43028997
v -0.47308823 0.00027561 0.42881467
v -0.46725207 -0.20228587 0.37099020
v -0.45824950 0.00027561 0.37073158
v -0.45846236 -0.20228587 0.37059640
v -0.46703921 -0.20228587 0.43030172
v -0.46725207 0.00027561 0.43028997
v -0.38610465 0.00027561 0.37073158
v -0.45824950 -0.20228587 0.37059053
v -0.45824950 -0.20228587 0.43063088
v -0.46248026 0.00027561 0.43047217
v -0.38610465 -0.20228587 0.37073158
v -0.42226576 -0.20228587 0.37059053
v -0.38610465 0.00027561 0.43062500
v -0.38610465 -0.20228587 0.43063088
v -0.45824950 0.00027561 0.43062500
f 1 2 5
f 1 5 9
f 1 9 14
f 1 14 18
f 1 18 20
f 1 20 24
f 1 24 28
f 1 28 27
f 1 27 30
f 1 30 25
f 1 25 21
f 1 21 16
f 1 16 11
f 1 11 7
f 1 7 3
f 1 3 8
f 1 8 4
f 1 4 6
f 1 6 2
f 2 6 5
f 3 7 13
f 3 13 8
f 4 8 13
f 4 13 12
f 4 12 17
f 4 17 22
f 4 22 26
f 4 26 31
f 4 31 29
f 4 29 23
f 4 23 19
f 4 19 15
f 4 15 10
f 4 10 6
f 5 6 10
f 5 10 9
f 7 11 12
f 7 12 13
f 9 10 14
f 10 15 14
f 11 16 22
f 11 22 17
f 11 17 12
f 14 15 18
f 15 19 20
f 15 20 18
f 16 21 22
f 19 23 28
f 19 28 24
f 19 24 20
f 21 25 26
f 21 26 22
f 23 27 28
f 23 29 30
f 23 30 27
f 25 30 29
f 25 29 31
f 25 31 26

