# https://github.com/mikedh/trimesh
v -0.45825312 -0.27449094 -0.00881241
v -0.46611792 -0.27224314 -0.00881241
v -0.46560358 -0.27185438 -0.01779857
v -0.45825312 -0.27371339 -0.01779857
v -0.42226040 -0.27449094 -0.00881241
v -0.45825312 -0.27449094 0.34341644
v -0.46503541 -0.27255417 0.34341644
v -0.46996960 -0.26549977 -0.00881241
v -0.46611792 -0.27224314 0.34341644
v -0.46665023 -0.27131716 0.34341644
v -0.46885716 -0.26549977 -0.01779857
v -0.46431172 -0.27097789 -0.02313975
v -0.45825312 -0.27146560 -0.02357282
v -0.42226040 -0.27371339 -0.01779857
v -0.41514319 -0.27185438 -0.01779857
v -0.41465277 -0.27224314 -0.00881241
v -0.42121375 -0.27418699 0.34341644
v -0.42226040 -0.27449094 0.34341644
v -0.47046004 -0.25649444 -0.00881241
v -0.46996960 -0.26549977 0.34341644
v -0.47004138 -0.26426277 0.34341644
v -0.46925788 -0.25649444 -0.01779857
v -0.46525071 -0.26549977 -0.02368110
v -0.45825312 -0.26549977 -0.02505246
v -0.42226040 -0.27146560 -0.02357282
v -0.41633937 -0.27097789 -0.02313975
v -0.41213482 -0.26549977 -0.01779857
v -0.41105826 -0.26549977 -0.00881241
v -0.41465277 -0.27224314 0.34341644
v -0.47046004 -0.22950681 -0.00881241
v -0.47046004 -0.25649444 0.34341644
v -0.46925788 -0.22950681 -0.01779857
v -0.46540623 -0.25649444 -0.02378935
v -0.45825312 -0.25649444 -0.02526899
v -0.42226040 -0.26549977 -0.02505246
v -0.41548409 -0.26549977 -0.02368110
v -0.41174606 -0.25649444 -0.01779857
v -0.41056785 -0.25649444 -0.00881241
v -0.41063364 -0.25773145 0.34341644
v -0.41105826 -0.26549977 0.34341644
v -0.46813350 -0.22050149 -0.00881241
v -0.46699713 -0.22050149 -0.01779857
v -0.47046004 -0.22950681 0.34341644
v -0.46953897 -0.22050149 0.18014971
v -0.46632129 -0.20228589 0.18014971
v -0.46430574 -0.22050149 -0.02313975
v -0.46540623 -0.22950681 -0.02378935
v -0.42226040 -0.25649444 -0.02526899
v -0.45825312 -0.22950681 -0.02526899
v -0.41534057 -0.25649444 -0.02378935
v -0.41174606 -0.22950681 -0.01779857
v -0.41056785 -0.22950681 -0.00881241
v -0.40936571 -0.22059339 0.16892603
v -0.40936571 -0.22959870 0.17101919
v -0.40936571 -0.22978249 0.17148835
v -0.40936571 -0.23251799 0.18014971
v -0.41056785 -0.25649444 0.34341644
v -0.46428182 -0.21529905 -0.00881241
v -0.46374355 -0.21555353 -0.01779857
v -0.46305575 -0.21587161 -0.02245404
v -0.47014306 -0.22826980 0.34341644
v -0.46813350 -0.22050149 0.34341644
v -0.46760717 -0.21978757 0.34341644
v -0.46428182 -0.21529905 0.34341644
v -0.46628540 -0.20228589 0.18033016
v -0.46434163 -0.20228589 0.17401458
v -0.45825312 -0.22050149 -0.02400589
v -0.42226040 -0.22950681 -0.02526899
v -0.41534057 -0.22950681 -0.02378935
v -0.41634535 -0.22050149 -0.02313975
v -0.41386329 -0.22050149 -0.01779857
v -0.41278673 -0.22050149 -0.00881241
v -0.40936571 -0.20228589 0.17166879
v -0.40936571 -0.22967646 0.18956894
v -0.40936571 -0.22949267 0.18974939
v -0.40936571 -0.22090440 0.19332220
v -0.41056785 -0.22950681 0.34341644
v -0.45825312 -0.21510113 -0.01779857
v -0.45825312 -0.21580092 -0.02252624
v -0.45825312 -0.21459927 0.34341644
v -0.46473637 -0.20228589 0.18743969
v -0.45839668 -0.20228589 0.17202968
v -0.42226040 -0.22050149 -0.02400589
v -0.41748768 -0.21587161 -0.02245404
v -0.41686567 -0.21555353 -0.01779857
v -0.41325923 -0.20228589 0.17163270
v -0.40936571 -0.20228589 0.19162602
v -0.42226040 -0.21510113 -0.01779857
v -0.40936571 -0.20781348 0.19227562
v -0.41248171 -0.22173849 0.34341644
v -0.45825312 -0.20228589 0.17199359
v -0.44946725 -0.20228589 0.17159661
v -0.42226040 -0.21580092 -0.02252624
v -0.44925195 -0.20228589 0.19166211
v -0.45825312 -0.20228589 0.19094033
v -0.42226040 -0.21459927 0.34341644
v -0.42226040 -0.20228589 0.17159661
v -0.42204510 -0.20228589 0.19166211
v -0.41638124 -0.21529905 0.34341644
v -0.41278673 -0.22050149 0.34341644
f 1 2 3
f 1 3 4
f 1 4 14
f 1 14 5
f 1 5 18
f 1 18 6
f 1 6 7
f 1 7 2
f 2 8 3
f 2 7 9
f 2 9 10
f 2 10 8
f 3 11 12
f 3 12 4
f 3 8 11
f 4 12 13
f 4 13 25
f 4 25 14
f 5 14 15
f 5 15 16
f 5 16 17
f 5 17 18
f 6 18 17
f 6 17 29
f 6 29 40
f 6 40 39
f 6 39 57
f 6 57 77
f 6 77 90
f 6 90 100
f 6 100 99
f 6 99 96
f 6 96 80
f 6 80 64
f 6 64 63
f 6 63 62
f 6 62 61
f 6 61 43
f 6 43 31
f 6 31 21
f 6 21 20
f 6 20 10
f 6 10 9
f 6 9 7
f 8 19 11
f 8 10 20
f 8 20 21
f 8 21 19
f 11 19 22
f 11 22 23
f 11 23 12
f 12 23 24
f 12 24 13
f 13 24 35
f 13 35 25
f 14 25 26
f 14 26 15
f 15 27 28
f 15 28 16
f 15 26 27
f 16 28 40
f 16 40 29
f 16 29 17
f 19 30 32
f 19 32 22
f 19 21 31
f 19 31 43
f 19 43 30
f 22 32 47
f 22 47 33
f 22 33 23
f 23 33 34
f 23 34 24
f 24 34 48
f 24 48 35
f 25 35 26
f 26 35 36
f 26 36 27
f 27 37 38
f 27 38 28
f 27 36 37
f 28 38 39
f 28 39 40
f 30 41 42
f 30 42 32
f 30 43 44
f 30 44 45
f 30 45 41
f 32 42 46
f 32 46 47
f 33 47 49
f 33 49 34
f 34 49 68
f 34 68 48
f 35 48 36
f 36 48 50
f 36 50 37
f 37 50 69
f 37 69 51
f 37 51 52
f 37 52 38
f 38 52 53
f 38 53 54
f 38 54 55
f 38 55 56
f 38 56 57
f 38 57 39
f 41 58 59
f 41 59 42
f 41 45 58
f 42 59 60
f 42 60 46
f 43 61 45
f 43 45 44
f 45 61 62
f 45 62 63
f 45 63 64
f 45 64 65
f 45 65 81
f 45 81 95
f 45 95 94
f 45 94 98
f 45 98 87
f 45 87 73
f 45 73 86
f 45 86 97
f 45 97 92
f 45 92 91
f 45 91 82
f 45 82 66
f 45 66 59
f 45 59 58
f 46 60 67
f 46 67 49
f 46 49 47
f 48 68 69
f 48 69 50
f 49 67 83
f 49 83 68
f 51 70 71
f 51 71 52
f 51 69 70
f 52 71 72
f 52 72 73
f 52 73 53
f 53 73 87
f 53 87 89
f 53 89 76
f 53 76 75
f 53 75 74
f 53 74 56
f 53 56 55
f 53 55 54
f 56 74 57
f 57 74 75
f 57 75 76
f 57 76 77
f 59 78 60
f 59 66 78
f 60 79 67
f 60 78 79
f 64 80 81
f 64 81 65
f 66 82 78
f 67 79 93
f 67 93 83
f 68 83 70
f 68 70 69
f 70 84 71
f 70 83 84
f 71 85 72
f 71 84 85
f 72 85 73
f 73 85 88
f 73 88 86
f 76 89 77
f 77 89 87
f 77 87 90
f 78 88 93
f 78 93 79
f 78 82 91
f 78 91 92
f 78 92 97
f 78 97 88
f 80 94 95
f 80 95 81
f 80 96 98
f 80 98 94
f 83 93 84
f 84 93 88
f 84 88 85
f 86 88 97
f 87 98 96
f 87 96 99
f 87 99 100
f 87 100 90

