# https://github.com/mikedh/trimesh
v -0.47046283 -0.25649565 0.34341644
v -0.47046283 -0.22950029 0.34341644
v -0.46997502 -0.26549913 0.34341644
v -0.47567812 -0.26549913 0.37818787
v -0.47575794 -0.25649565 0.37818787
v -0.46813017 -0.22050435 0.34341644
v -0.47575794 -0.22950029 0.37818787
v -0.47556284 -0.20228589 0.37818787
v -0.47367360 -0.27354337 0.37818787
v -0.46664895 -0.27131515 0.34341644
v -0.47670702 -0.26549913 0.38717739
v -0.46760684 -0.21978679 0.34341644
v -0.47315030 -0.20228589 0.37267293
v -0.47308823 -0.20228589 0.37253633
v -0.47670702 -0.20228589 0.38717739
v -0.47422351 -0.27435157 0.38717739
v -0.46611677 -0.27224419 0.34341644
v -0.47055153 -0.27885331 0.38717739
v -0.47670702 -0.26549913 0.41418010
v -0.46428077 -0.21530015 0.34341644
v -0.46739398 -0.20228589 0.37102527
v -0.47670702 -0.20228589 0.41418010
v -0.47422351 -0.27435157 0.41418010
v -0.46503469 -0.27255388 0.34341644
v -0.47055153 -0.27885331 0.41418010
v -0.45824950 -0.27449507 0.34341644
v -0.46495486 -0.27914787 0.38172222
v -0.46604583 -0.27922340 0.38717739
v -0.47365590 -0.27352824 0.42317816
v -0.47556284 -0.26549913 0.42317816
v -0.45824950 -0.21459770 0.34341644
v -0.46725207 -0.20228589 0.37099113
v -0.47556284 -0.20228589 0.42317816
v -0.46766894 -0.27778075 0.42285376
v -0.46604583 -0.27922340 0.41418010
v -0.46495486 -0.27914787 0.41963528
v -0.45824950 -0.27922340 0.38124414
v -0.42226576 -0.27449507 0.34341644
v -0.45824950 -0.27944246 0.38717739
v -0.47264476 -0.27179857 0.42843699
v -0.47308823 -0.26549913 0.42881261
v -0.45846236 -0.20228589 0.37059843
v -0.45824950 -0.20228589 0.37058990
v -0.42226576 -0.21459770 0.34341644
v -0.47308823 -0.20228589 0.42881261
v -0.46725207 -0.27305239 0.42898336
v -0.45824950 -0.27790158 0.42462092
v -0.45824950 -0.27944246 0.41418010
v -0.45824950 -0.27922340 0.42012189
v -0.38610465 -0.27922340 0.38124414
v -0.41465569 -0.27224419 0.34341644
v -0.38610465 -0.27789405 0.37674511
v -0.38610465 -0.27792425 0.37682194
v -0.38610465 -0.27944246 0.38717739
v -0.46725207 -0.26549913 0.43028954
v -0.42226576 -0.20228589 0.37058990
v -0.38610465 -0.20228589 0.37073502
v -0.41638526 -0.21530015 0.34341644
v -0.46725207 -0.20228589 0.43028954
v -0.45824950 -0.27339984 0.42915411
v -0.45824950 -0.26549913 0.43063101
v -0.38610465 -0.27790158 0.42462092
v -0.38610465 -0.27944246 0.41428254
v -0.38610465 -0.27922340 0.42012189
v -0.41155136 -0.26642063 0.34341644
v -0.38610465 -0.27339984 0.37221193
v -0.46703921 -0.20228589 0.43029807
v -0.38610465 -0.20228589 0.43062248
v -0.38610465 -0.26549913 0.37073502
v -0.41056685 -0.22950029 0.34341644
v -0.41248268 -0.22174309 0.34341644
v -0.41279311 -0.22050435 0.34341644
v -0.41588857 -0.21601771 0.34341644
v -0.38610465 -0.27339984 0.42915411
v -0.45824950 -0.20228589 0.43062248
v -0.38610465 -0.26549913 0.43063101
v -0.38610465 -0.26533297 0.43063101
v -0.41106355 -0.26549913 0.34341644
v -0.41056685 -0.25649565 0.34341644
f 1 2 6
f 1 6 12
f 1 12 20
f 1 20 31
f 1 31 44
f 1 44 58
f 1 58 73
f 1 73 72
f 1 72 71
f 1 71 70
f 1 70 79
f 1 79 78
f 1 78 65
f 1 65 51
f 1 51 38
f 1 38 26
f 1 26 24
f 1 24 17
f 1 17 10
f 1 10 3
f 1 3 4
f 1 4 5
f 1 5 7
f 1 7 2
f 2 7 8
f 2 8 6
f 3 9 4
f 3 10 9
f 4 9 11
f 4 11 5
f 5 11 15
f 5 15 7
f 6 8 13
f 6 13 14
f 6 14 12
f 7 15 8
f 8 15 22
f 8 22 33
f 8 33 45
f 8 45 59
f 8 59 67
f 8 67 75
f 8 75 68
f 8 68 57
f 8 57 56
f 8 56 43
f 8 43 42
f 8 42 32
f 8 32 21
f 8 21 14
f 8 14 13
f 9 16 11
f 9 10 17
f 9 17 18
f 9 18 16
f 11 16 23
f 11 23 19
f 11 19 22
f 11 22 15
f 12 14 20
f 14 21 20
f 16 18 25
f 16 25 23
f 17 24 18
f 18 24 26
f 18 26 27
f 18 27 28
f 18 28 35
f 18 35 25
f 19 23 29
f 19 29 30
f 19 30 33
f 19 33 22
f 20 21 32
f 20 32 31
f 23 25 29
f 25 34 29
f 25 35 36
f 25 36 34
f 26 37 27
f 26 38 50
f 26 50 37
f 27 37 39
f 27 39 28
f 28 39 48
f 28 48 35
f 29 34 40
f 29 40 30
f 30 40 41
f 30 41 45
f 30 45 33
f 31 32 42
f 31 42 43
f 31 43 56
f 31 56 44
f 34 46 40
f 34 36 47
f 34 47 46
f 35 48 36
f 36 48 49
f 36 49 47
f 37 50 54
f 37 54 39
f 38 51 52
f 38 52 53
f 38 53 50
f 39 54 63
f 39 63 48
f 40 46 55
f 40 55 41
f 41 55 59
f 41 59 45
f 44 56 57
f 44 57 58
f 46 47 60
f 46 60 61
f 46 61 55
f 47 49 64
f 47 64 62
f 47 62 74
f 47 74 60
f 48 63 49
f 49 63 64
f 50 53 52
f 50 52 66
f 50 66 69
f 50 69 57
f 50 57 68
f 50 68 77
f 50 77 76
f 50 76 74
f 50 74 62
f 50 62 64
f 50 64 63
f 50 63 54
f 51 65 66
f 51 66 52
f 55 61 67
f 55 67 59
f 57 69 79
f 57 79 70
f 57 70 71
f 57 71 72
f 57 72 73
f 57 73 58
f 60 74 76
f 60 76 61
f 61 75 67
f 61 76 77
f 61 77 75
f 65 78 66
f 66 78 69
f 68 75 77
f 69 78 79

