# https://github.com/mikedh/trimesh
v -0.40902692 0.22930905 0.19789577
v -0.38609583 0.22769822 0.18790622
v -0.40902692 0.22987207 0.19741106
v -0.40902692 0.22087645 0.19744835
v -0.38609583 0.20243796 0.19162899
v -0.38609583 0.21150237 0.19162899
v -0.38609583 0.21166188 0.19162613
v -0.38609583 0.22049798 0.19138234
v -0.38609583 0.22773888 0.18776855
v -0.40902692 0.23331892 0.18918825
v -0.40902692 0.20246923 0.19164907
v -0.40425661 0.20243796 0.19163473
v -0.38609583 0.20243796 0.17173307
v -0.38609583 0.22985016 0.18018245
v -0.40902692 0.23337834 0.18894160
v -0.40902692 0.20243796 0.18104001
v -0.40431723 0.20243796 0.19163473
v -0.38609583 0.21150237 0.17173307
v -0.40419376 0.20243796 0.17172733
v -0.40902692 0.20247235 0.17169578
v -0.40902692 0.20734550 0.17049119
v -0.40902692 0.21839609 0.16877607
v -0.40902692 0.22049798 0.16860112
v -0.38609583 0.22980325 0.18006773
v -0.40902692 0.23419783 0.17935931
v -0.40902692 0.23438864 0.18018245
v -0.40425661 0.20243796 0.17172733
v -0.38609583 0.22033847 0.17183632
v -0.40902692 0.22945606 0.17064319
v -0.38609583 0.22049798 0.17183919
v -0.38609583 0.22715086 0.17381243
v -0.40902692 0.23006911 0.17083536
f 1 2 3
f 1 3 10
f 1 10 15
f 1 15 26
f 1 26 25
f 1 25 32
f 1 32 29
f 1 29 23
f 1 23 22
f 1 22 21
f 1 21 20
f 1 20 16
f 1 16 11
f 1 11 4
f 1 4 5
f 1 5 6
f 1 6 7
f 1 7 8
f 1 8 2
f 2 9 10
f 2 10 3
f 2 8 7
f 2 7 6
f 2 6 5
f 2 5 13
f 2 13 18
f 2 18 28
f 2 28 30
f 2 30 31
f 2 31 24
f 2 24 14
f 2 14 9
f 4 11 5
f 5 11 12
f 5 12 17
f 5 17 16
f 5 16 27
f 5 27 19
f 5 19 13
f 9 14 10
f 10 14 15
f 11 16 17
f 11 17 12
f 13 19 20
f 13 20 21
f 13 21 22
f 13 22 23
f 13 23 18
f 14 24 25
f 14 25 26
f 14 26 15
f 16 20 27
f 18 23 28
f 19 27 20
f 23 29 30
f 23 30 28
f 24 31 25
f 25 31 32
f 29 32 31
f 29 31 30

