# https://github.com/mikedh/trimesh
v 0.34092548 -0.20205488 0.37074069
v 0.37831121 -0.20205488 0.37059376
v 0.34092548 -0.20205488 0.43063088
v 0.34092548 0.00025598 0.37073482
v 0.41473046 -0.20205488 0.37059376
v 0.37875380 0.20209211 0.37058788
v 0.41473046 -0.20205488 0.43063088
v 0.34092548 -0.19529008 0.43063088
v 0.34092548 0.20209211 0.37073482
v 0.42372688 -0.20205488 0.37099929
v 0.41473046 0.20209211 0.37058788
v 0.42372688 -0.20205488 0.43028999
v 0.42372688 0.00025598 0.43028999
v 0.42332042 0.20209211 0.43030174
v 0.41473046 0.00025598 0.43062500
v 0.41473046 0.20209211 0.43061913
v 0.34092548 0.20209211 0.43061913
v 0.42956190 -0.20205488 0.37254504
v 0.42372688 0.20209211 0.37099342
v 0.42399787 0.20209211 0.37106395
v 0.42401595 -0.20205488 0.43021945
v 0.42682505 0.00025598 0.42950829
v 0.42929995 0.20209211 0.42887942
v 0.42372688 0.20209211 0.43028412
v 0.43191940 -0.20205488 0.37791107
v 0.42956190 0.20209211 0.37253916
v 0.42967932 0.20209211 0.37279190
v 0.42956190 -0.20205488 0.42881478
v 0.42956190 0.00025598 0.42881478
v 0.42956190 0.20209211 0.42880891
v 0.43203682 -0.20205488 0.37818729
v 0.43203682 0.20209211 0.37818142
v 0.43203682 0.00025598 0.37818142
v 0.42968839 -0.20205488 0.42853854
v 0.43192846 0.20209211 0.42342524
v 0.43088068 0.00025598 0.42582320
v 0.43319302 -0.20205488 0.38719139
v 0.43209100 0.20209211 0.37859283
v 0.43203682 -0.20205488 0.42317840
v 0.43203682 0.00025598 0.42317840
v 0.43203682 0.20209211 0.42317252
v 0.43319302 -0.20205488 0.41418018
v 0.43319302 0.00025598 0.38718551
v 0.43319302 0.20209211 0.38718551
v 0.43210007 -0.20205488 0.42273172
v 0.43319302 0.20209211 0.41417430
v 0.43319302 0.00025598 0.41418018
f 1 2 5
f 1 5 10
f 1 10 18
f 1 18 25
f 1 25 31
f 1 31 37
f 1 37 42
f 1 42 45
f 1 45 39
f 1 39 34
f 1 34 28
f 1 28 21
f 1 21 12
f 1 12 7
f 1 7 3
f 1 3 8
f 1 8 17
f 1 17 9
f 1 9 4
f 1 4 2
f 2 4 6
f 2 6 11
f 2 11 5
f 3 7 8
f 4 9 6
f 5 11 19
f 5 19 10
f 6 9 17
f 6 17 16
f 6 16 14
f 6 14 24
f 6 24 23
f 6 23 30
f 6 30 35
f 6 35 41
f 6 41 46
f 6 46 44
f 6 44 38
f 6 38 32
f 6 32 27
f 6 27 26
f 6 26 20
f 6 20 19
f 6 19 11
f 7 12 13
f 7 13 14
f 7 14 15
f 7 15 8
f 8 15 16
f 8 16 17
f 10 19 20
f 10 20 18
f 12 21 13
f 13 21 22
f 13 22 23
f 13 23 24
f 13 24 14
f 14 16 15
f 18 20 26
f 18 26 27
f 18 27 25
f 21 28 22
f 22 28 29
f 22 29 23
f 23 29 30
f 25 27 32
f 25 32 33
f 25 33 31
f 28 34 29
f 29 34 30
f 30 34 36
f 30 36 35
f 31 33 38
f 31 38 37
f 32 38 33
f 34 39 36
f 35 36 40
f 35 40 41
f 36 39 40
f 37 38 43
f 37 43 44
f 37 44 46
f 37 46 47
f 37 47 42
f 38 44 43
f 39 45 40
f 40 45 41
f 41 45 46
f 42 47 45
f 45 47 46

