# https://github.com/mikedh/trimesh
v -0.47670702 0.00027560 0.38718124
v -0.47556284 0.00027560 0.37818221
v -0.47670702 0.00027560 0.41417833
v -0.47670702 0.20243796 0.38718124
v -0.47308823 0.00027560 0.37254533
v -0.47556284 0.20243796 0.37818221
v -0.47308823 0.20243796 0.37253945
v -0.47556284 0.00027560 0.42317735
v -0.47557169 0.20243796 0.42311270
v -0.47670702 0.20243796 0.41417833
v -0.47034755 0.00027560 0.37185174
v -0.46725207 0.20243796 0.37098769
v -0.47425017 0.00027560 0.42616920
v -0.47556284 0.20243796 0.42317735
v -0.46725207 0.00027560 0.37106998
v -0.45824950 0.20243796 0.37058212
v -0.47308823 0.00027560 0.42881424
v -0.47308823 0.20243796 0.42881424
v -0.46303016 0.00027560 0.37091128
v -0.42220367 0.20243796 0.37058212
v -0.45824950 0.00027560 0.37073495
v -0.46999275 0.00027560 0.42960187
v -0.46725207 0.20243796 0.43028959
v -0.38610465 0.20243796 0.37073495
v -0.38610465 0.00027560 0.37073495
v -0.46725207 0.00027560 0.43028959
v -0.45831157 0.20243796 0.43062463
v -0.46248026 0.00027560 0.43047179
v -0.45824950 0.00027560 0.43063050
v -0.38610465 0.20243796 0.43062463
v -0.38610465 0.00027560 0.43063050
f 1 2 5
f 1 5 11
f 1 11 15
f 1 15 19
f 1 19 21
f 1 21 25
f 1 25 31
f 1 31 29
f 1 29 28
f 1 28 26
f 1 26 22
f 1 22 17
f 1 17 13
f 1 13 8
f 1 8 3
f 1 3 10
f 1 10 4
f 1 4 6
f 1 6 2
f 2 6 7
f 2 7 5
f 3 8 9
f 3 9 10
f 4 10 9
f 4 9 14
f 4 14 18
f 4 18 23
f 4 23 27
f 4 27 30
f 4 30 24
f 4 24 20
f 4 20 16
f 4 16 12
f 4 12 7
f 4 7 6
f 5 7 12
f 5 12 11
f 8 13 14
f 8 14 9
f 11 12 15
f 12 16 15
f 13 17 18
f 13 18 14
f 15 16 19
f 16 20 25
f 16 25 21
f 16 21 19
f 17 22 18
f 18 22 23
f 20 24 25
f 22 26 23
f 23 26 28
f 23 28 29
f 23 29 27
f 24 30 31
f 24 31 25
f 27 29 31
f 27 31 30

