# https://github.com/mikedh/trimesh
v 0.36705924 -0.25649512 0.34341644
v 0.36705924 -0.22950228 0.34341644
v 0.36754705 -0.26549524 0.34341644
v 0.34091647 -0.26549524 0.37073502
v 0.36735734 -0.22826741 0.34341644
v 0.34091647 -0.20205490 0.37073502
v 0.37064551 -0.27132111 0.34341644
v 0.34091647 -0.27339689 0.37221193
v 0.36927244 -0.22050215 0.34341644
v 0.34091647 -0.20205490 0.43062248
v 0.37830585 -0.20205490 0.37058990
v 0.37874849 -0.21460054 0.34341644
v 0.37286772 -0.21530510 0.34341644
v 0.37114234 -0.27224534 0.34341644
v 0.34091647 -0.27698027 0.37581457
v 0.34091647 -0.26549524 0.43063101
v 0.41473770 -0.20205490 0.43062248
v 0.41473770 -0.20205490 0.37058990
v 0.41473770 -0.21460054 0.34341644
v 0.37219022 -0.27255597 0.34341644
v 0.34091647 -0.27789697 0.37674511
v 0.34091647 -0.27339689 0.42915411
v 0.41473770 -0.26549524 0.43063101
v 0.41518035 -0.20205490 0.43061392
v 0.42373501 -0.20205490 0.37099113
v 0.41994095 -0.21520661 0.34341644
v 0.37874849 -0.27449539 0.34341644
v 0.34091647 -0.27922273 0.38124414
v 0.34091647 -0.27789697 0.42462092
v 0.41473770 -0.27339689 0.42915411
v 0.42373501 -0.27304839 0.42898336
v 0.42373501 -0.26549524 0.43028954
v 0.42373501 -0.20205490 0.43028954
v 0.42076299 -0.21530510 0.34341644
v 0.42957059 -0.20205490 0.37253633
v 0.41473770 -0.27449539 0.34341644
v 0.34091647 -0.27944243 0.38717739
v 0.41473770 -0.27922273 0.38124414
v 0.34091647 -0.27816970 0.42369892
v 0.41473770 -0.27789697 0.42462092
v 0.42415958 -0.27778333 0.42285376
v 0.42912797 -0.27179838 0.42843699
v 0.42957059 -0.26549524 0.42881261
v 0.42402407 -0.20205490 0.43022122
v 0.42129597 -0.21601723 0.34341644
v 0.43192830 -0.20205490 0.37790614
v 0.42462027 -0.22050215 0.34341644
v 0.42260583 -0.27224534 0.34341644
v 0.42704124 -0.27885152 0.38717739
v 0.42144052 -0.27914699 0.38172222
v 0.34091647 -0.27944243 0.41418010
v 0.41473770 -0.27944243 0.38717739
v 0.34091647 -0.27922273 0.42012189
v 0.41473770 -0.27922273 0.42012189
v 0.42144052 -0.27914699 0.41963528
v 0.42704124 -0.27885152 0.41418010
v 0.43013970 -0.27352567 0.42317816
v 0.43204578 -0.26549524 0.42317816
v 0.42969708 -0.20205490 0.42853942
v 0.42957059 -0.20205490 0.42881261
v 0.43204578 -0.20205490 0.37818787
v 0.42695090 -0.22950228 0.34341644
v 0.42593013 -0.26641950 0.34341644
v 0.43015778 -0.27354082 0.37818787
v 0.43071782 -0.27435144 0.38717739
v 0.42253354 -0.27922273 0.38717739
v 0.34091647 -0.27926820 0.41890962
v 0.41473770 -0.27944243 0.41418010
v 0.42253354 -0.27922273 0.41418010
v 0.43071782 -0.27435144 0.41418010
v 0.43319302 -0.26549524 0.41418010
v 0.43210898 -0.20205490 0.42273424
v 0.43204578 -0.20205490 0.42317816
v 0.43224448 -0.22950228 0.37818787
v 0.43319302 -0.20205490 0.38717739
v 0.42695090 -0.25649512 0.34341644
v 0.42645407 -0.26549524 0.34341644
v 0.43216321 -0.26549524 0.37818787
v 0.43319302 -0.26549524 0.38717739
v 0.43319302 -0.20205490 0.41418010
v 0.43224448 -0.25649512 0.37818787
f 1 2 5
f 1 5 9
f 1 9 13
f 1 13 12
f 1 12 19
f 1 19 26
f 1 26 34
f 1 34 45
f 1 45 47
f 1 47 62
f 1 62 76
f 1 76 77
f 1 77 63
f 1 63 48
f 1 48 36
f 1 36 27
f 1 27 20
f 1 20 14
f 1 14 7
f 1 7 3
f 1 3 4
f 1 4 6
f 1 6 2
f 2 6 5
f 3 7 8
f 3 8 4
f 4 8 15
f 4 15 21
f 4 21 28
f 4 28 37
f 4 37 51
f 4 51 67
f 4 67 53
f 4 53 39
f 4 39 29
f 4 29 22
f 4 22 16
f 4 16 10
f 4 10 6
f 5 6 9
f 6 10 17
f 6 17 24
f 6 24 33
f 6 33 44
f 6 44 60
f 6 60 59
f 6 59 73
f 6 73 72
f 6 72 80
f 6 80 75
f 6 75 61
f 6 61 46
f 6 46 35
f 6 35 25
f 6 25 18
f 6 18 11
f 6 11 12
f 6 12 13
f 6 13 9
f 7 14 8
f 8 14 15
f 10 16 23
f 10 23 17
f 11 18 19
f 11 19 12
f 14 20 21
f 14 21 15
f 16 22 30
f 16 30 23
f 17 23 24
f 18 25 19
f 19 25 26
f 20 27 21
f 21 27 28
f 22 29 40
f 22 40 30
f 23 30 31
f 23 31 32
f 23 32 33
f 23 33 24
f 25 34 26
f 25 35 34
f 27 36 38
f 27 38 28
f 28 38 52
f 28 52 37
f 29 39 40
f 30 40 31
f 31 40 41
f 31 41 42
f 31 42 32
f 32 42 43
f 32 43 44
f 32 44 33
f 34 35 45
f 35 46 47
f 35 47 45
f 36 48 49
f 36 49 50
f 36 50 38
f 37 52 68
f 37 68 51
f 38 50 52
f 39 53 54
f 39 54 40
f 40 54 55
f 40 55 41
f 41 56 57
f 41 57 42
f 41 55 56
f 42 57 58
f 42 58 43
f 43 58 59
f 43 59 60
f 43 60 44
f 46 61 47
f 47 61 62
f 48 63 64
f 48 64 49
f 49 64 65
f 49 65 70
f 49 70 56
f 49 56 69
f 49 69 66
f 49 66 50
f 50 66 52
f 51 68 67
f 52 66 69
f 52 69 68
f 53 67 54
f 54 68 55
f 54 67 68
f 55 68 69
f 55 69 56
f 56 70 57
f 57 70 71
f 57 71 58
f 58 72 73
f 58 73 59
f 58 71 72
f 61 74 62
f 61 75 74
f 62 74 81
f 62 81 76
f 63 77 64
f 64 78 79
f 64 79 65
f 64 77 78
f 65 79 71
f 65 71 70
f 71 79 75
f 71 75 80
f 71 80 72
f 74 75 79
f 74 79 81
f 76 81 78
f 76 78 77
f 78 81 79

