mtllib material.mtl
usemtl material_0
v -0.46551600 -0.22079800 -0.01907000
v -0.46515000 -0.22079800 -0.01995300
v -0.46515000 -0.26829800 -0.01995300
v -0.46551600 -0.26829800 -0.01907000
v -0.46426600 -0.22079800 -0.02031900
v -0.46426600 -0.26829800 -0.02031900
v -0.46426600 -0.21954800 -0.01907000
v -0.46515000 -0.21991400 -0.01907000
v -0.46515000 -0.21991400 0.40886300
v -0.46426600 -0.21954800 0.40886300
v -0.46551600 -0.22079800 0.40886300
v -0.46426600 -0.21991400 -0.01995300
v -0.41676600 -0.21991400 -0.01995300
v -0.41676600 -0.22079800 -0.02031900
v -0.41676600 -0.21954800 -0.01907000
v -0.41588200 -0.22079800 -0.01995300
v -0.41588200 -0.26829800 -0.01995300
v -0.41676600 -0.26829800 -0.02031900
v -0.41551600 -0.22079800 -0.01907000
v -0.41551600 -0.26829800 -0.01907000
v -0.41588200 -0.21991400 -0.01907000
v -0.41588200 -0.21991400 0.40886300
v -0.41551600 -0.22079800 0.40886300
v -0.41676600 -0.21954800 0.40886300
v -0.46515000 -0.26918200 -0.01907000
v -0.46515000 -0.26918200 0.40886300
v -0.46551600 -0.26829800 0.40886300
v -0.46426600 -0.26954800 -0.01907000
v -0.46426600 -0.26954800 0.40886300
v -0.46426600 -0.26918200 -0.01995300
v -0.41676600 -0.26918200 -0.01995300
v -0.41676600 -0.26954800 -0.01907000
v -0.41588200 -0.26918200 -0.01907000
v -0.41588200 -0.26918200 0.40886300
v -0.41676600 -0.26954800 0.40886300
v -0.41551600 -0.26829800 0.40886300
v -0.46498700 -0.22007700 -0.01979100
v -0.41604400 -0.22007700 -0.01979100
v -0.46498700 -0.26902000 -0.01979100
v -0.41604400 -0.26902000 -0.01979100
v 0.42200200 -0.22079800 -0.01907000
v 0.42163600 -0.22079800 -0.01995300
v 0.42163600 -0.26829800 -0.01995300
v 0.42200200 -0.26829800 -0.01907000
v 0.42075200 -0.22079800 -0.02031900
v 0.42075200 -0.26829800 -0.02031900
v 0.42075200 -0.21954800 -0.01907000
v 0.42163600 -0.21991400 -0.01907000
v 0.42163600 -0.21991400 0.40886300
v 0.42075200 -0.21954800 0.40886300
v 0.42200200 -0.22079800 0.40886300
v 0.42075200 -0.21991400 -0.01995300
v 0.37325200 -0.21991400 -0.01995300
v 0.37325200 -0.22079800 -0.02031900
v 0.37325200 -0.21954800 -0.01907000
v 0.37236800 -0.22079800 -0.01995300
v 0.37236800 -0.26829800 -0.01995300
v 0.37325200 -0.26829800 -0.02031900
v 0.37200200 -0.22079800 -0.01907000
v 0.37200200 -0.26829800 -0.01907000
v 0.37236800 -0.21991400 -0.01907000
v 0.37236800 -0.21991400 0.40886300
v 0.37200200 -0.22079800 0.40886300
v 0.37325200 -0.21954800 0.40886300
v 0.42163600 -0.26918200 -0.01907000
v 0.42163600 -0.26918200 0.40886300
v 0.42200200 -0.26829800 0.40886300
v 0.42075200 -0.26954800 -0.01907000
v 0.42075200 -0.26954800 0.40886300
v 0.42075200 -0.26918200 -0.01995300
v 0.37325200 -0.26918200 -0.01995300
v 0.37325200 -0.26954800 -0.01907000
v 0.37236800 -0.26918200 -0.01907000
v 0.37236800 -0.26918200 0.40886300
v 0.37325200 -0.26954800 0.40886300
v 0.37200200 -0.26829800 0.40886300
v 0.42147400 -0.22007700 -0.01979100
v 0.37253100 -0.22007700 -0.01979100
v 0.42147400 -0.26902000 -0.01979100
v 0.37253100 -0.26902000 -0.01979100
v -0.46551600 0.22079800 -0.01907000
v -0.46515000 0.22079800 -0.01995300
v -0.46515000 0.26829800 -0.01995300
v -0.46551600 0.26829800 -0.01907000
v -0.46426600 0.22079800 -0.02031900
v -0.46426600 0.26829800 -0.02032000
v -0.46426600 0.21954800 -0.01907000
v -0.46515000 0.21991400 -0.01907000
v -0.46515000 0.21991400 0.40886300
v -0.46426600 0.21954800 0.40886300
v -0.46551600 0.22079800 0.40886300
v -0.46426600 0.21991400 -0.01995300
v -0.41676600 0.21991400 -0.01995300
v -0.41676600 0.22079800 -0.02031900
v -0.41676600 0.21954800 -0.01907000
v -0.41588200 0.22079800 -0.01995300
v -0.41588200 0.26829800 -0.01995300
v -0.41676600 0.26829800 -0.02032000
v -0.41551600 0.22079800 -0.01907000
v -0.41551600 0.26829800 -0.01907000
v -0.41588200 0.21991400 -0.01907000
v -0.41588200 0.21991400 0.40886300
v -0.41551600 0.22079800 0.40886300
v -0.41676600 0.21954800 0.40886300
v -0.46515000 0.26918200 -0.01907000
v -0.46515000 0.26918200 0.40886300
v -0.46551600 0.26829800 0.40886300
v -0.46426600 0.26954800 -0.01907000
v -0.46426600 0.26954800 0.40886300
v -0.46426600 0.26918200 -0.01995300
v -0.41676600 0.26918200 -0.01995300
v -0.41676600 0.26954800 -0.01907000
v -0.41588200 0.26918200 -0.01907000
v -0.41588200 0.26918200 0.40886300
v -0.41676600 0.26954800 0.40886300
v -0.41551600 0.26829800 0.40886300
v -0.46498700 0.22007700 -0.01979100
v -0.41604400 0.22007700 -0.01979100
v -0.46498700 0.26902000 -0.01979100
v -0.41604400 0.26902000 -0.01979100
v 0.42200200 0.22079800 -0.01907000
v 0.42163600 0.22079800 -0.01995300
v 0.42163600 0.26829800 -0.01995300
v 0.42200200 0.26829800 -0.01907000
v 0.42075200 0.22079800 -0.02031900
v 0.42075200 0.26829800 -0.02032000
v 0.42075200 0.21954800 -0.01907000
v 0.42163600 0.21991400 -0.01907000
v 0.42163600 0.21991400 0.40886300
v 0.42075200 0.21954800 0.40886300
v 0.42200200 0.22079800 0.40886300
v 0.42075200 0.21991400 -0.01995300
v 0.37325200 0.21991400 -0.01995300
v 0.37325200 0.22079800 -0.02031900
v 0.37325200 0.21954800 -0.01907000
v 0.37236800 0.22079800 -0.01995300
v 0.37236800 0.26829800 -0.01995300
v 0.37325200 0.26829800 -0.02032000
v 0.37200200 0.22079800 -0.01907000
v 0.37200200 0.26829800 -0.01907000
v 0.37236800 0.21991400 -0.01907000
v 0.37236800 0.21991400 0.40886300
v 0.37200200 0.22079800 0.40886300
v 0.37325200 0.21954800 0.40886300
v 0.42163600 0.26918200 -0.01907000
v 0.42163600 0.26918200 0.40886300
v 0.42200200 0.26829800 0.40886300
v 0.42075200 0.26954800 -0.01907000
v 0.42075200 0.26954800 0.40886300
v 0.42075200 0.26918200 -0.01995300
v 0.37325200 0.26918200 -0.01995300
v 0.37325200 0.26954800 -0.01907000
v 0.37236800 0.26918200 -0.01907000
v 0.37236800 0.26918200 0.40886300
v 0.37325200 0.26954800 0.40886300
v 0.37200200 0.26829800 0.40886300
v 0.42147400 0.22007700 -0.01979100
v 0.37253100 0.22007700 -0.01979100
v 0.42147400 0.26902000 -0.01979100
v 0.37253100 0.26902000 -0.01979100
v -0.46131700 -0.21910900 0.18518100
v -0.46025700 -0.21954800 0.18518100
v -0.46025700 -0.21910900 0.18624100
v -0.46025700 -0.21804800 0.18668100
v -0.46131700 -0.21804800 0.18624100
v -0.46175700 -0.21804800 0.18518100
v 0.41780400 -0.21910900 0.18518100
v 0.41824300 -0.21804800 0.18518100
v 0.41780400 -0.21804800 0.18624100
v 0.41674300 -0.21804800 0.18668100
v 0.41674300 -0.21910900 0.18624100
v 0.41674300 -0.21954800 0.18518100
v -0.46131700 0.22501200 0.18518100
v -0.46175700 0.22395200 0.18518100
v -0.46131700 0.22395200 0.18624100
v -0.46025700 0.22395200 0.18668100
v -0.46025700 0.22501200 0.18624100
v -0.46025700 0.22545200 0.18518100
v 0.41780400 0.22501200 0.18518100
v 0.41674300 0.22545200 0.18518100
v 0.41674300 0.22501200 0.18624100
v 0.41674300 0.22395200 0.18668100
v 0.41780400 0.22395200 0.18624100
v 0.41824300 0.22395200 0.18518100
v -0.46131700 0.22395200 0.17712000
v -0.46175700 0.22395200 0.17818000
v -0.46131700 0.22501200 0.17818000
v -0.46025700 0.22545200 0.17818000
v -0.46025700 0.22501200 0.17712000
v -0.46025700 0.22395200 0.17668100
v 0.41780400 0.22395200 0.17712000
v 0.41674300 0.22395200 0.17668100
v 0.41674300 0.22501200 0.17712000
v 0.41674300 0.22545200 0.17818000
v 0.41780400 0.22501200 0.17818000
v 0.41824300 0.22395200 0.17818000
v -0.46131700 -0.21910900 0.17818000
v -0.46175700 -0.21804900 0.17818000
v -0.46131700 -0.21804800 0.17712000
v -0.46025700 -0.21804800 0.17668100
v -0.46025700 -0.21910900 0.17712000
v -0.46025700 -0.21954800 0.17818000
v 0.41780400 -0.21910900 0.17818000
v 0.41674300 -0.21954800 0.17818000
v 0.41674300 -0.21910900 0.17712000
v 0.41674300 -0.21804800 0.17668100
v 0.41780400 -0.21804800 0.17712000
v 0.41824300 -0.21804800 0.17818000
v -0.46112200 -0.21891400 0.18604600
v 0.41760900 -0.21891400 0.18604600
v -0.46112200 0.22481700 0.18604600
v 0.41760900 0.22481800 0.18604600
v -0.46112200 0.22481700 0.17731500
v 0.41760900 0.22481800 0.17731500
v -0.46112200 -0.21891400 0.17731500
v 0.41760900 -0.21891400 0.17731500
v -0.46925700 -0.27450000 0.42318100
v -0.47102500 -0.27376800 0.42318100
v -0.47102500 -0.27376800 0.37818000
v -0.46925700 -0.27450000 0.37818000
v -0.47175700 -0.27200000 0.42318100
v -0.47175700 -0.27200000 0.37818000
v -0.46925700 -0.27200000 0.42568100
v -0.46925700 -0.27376800 0.42494800
v 0.42574400 -0.27376800 0.42494800
v 0.42574400 -0.27200000 0.42568100
v 0.42574400 -0.27450000 0.42318100
v -0.47102500 -0.27200000 0.42494800
v -0.47102500 0.27200000 0.42494800
v -0.47175700 0.27200000 0.42318100
v -0.46925700 0.27200000 0.42568000
v 0.42824300 -0.27200000 0.42318100
v 0.42751100 -0.27376800 0.42318100
v 0.42751100 -0.27376800 0.37818000
v 0.42824300 -0.27200000 0.37818000
v 0.42574400 -0.27450000 0.37818000
v 0.42751100 -0.27200000 0.42494800
v 0.42751100 0.27200000 0.42494800
v 0.42574400 0.27200000 0.42568000
v 0.42824300 0.27200000 0.42318100
v -0.47102500 0.27376800 0.42318100
v -0.47102500 0.27376800 0.37818000
v -0.47175700 0.27200000 0.37818000
v -0.46925700 0.27450000 0.42318100
v -0.46925700 0.27450000 0.37818000
v -0.46925700 0.27376800 0.42494800
v 0.42574400 0.27376800 0.42494800
v 0.42574400 0.27450000 0.42318100
v 0.42751100 0.27376800 0.42318100
v 0.42751100 0.27376800 0.37818000
v 0.42574400 0.27450000 0.37818000
v 0.42824300 0.27200000 0.37818000
v -0.47102500 0.27200000 0.37641300
v -0.47102500 -0.27200000 0.37641300
v -0.46925700 0.27200000 0.37568100
v -0.46925700 -0.27200000 0.37568100
v -0.46925700 0.27376800 0.37641300
v 0.42574400 0.27376800 0.37641300
v 0.42574400 0.27200000 0.37568100
v 0.42751100 0.27200000 0.37641300
v 0.42751100 -0.27200000 0.37641300
v 0.42574400 -0.27200000 0.37568100
v -0.46925700 -0.27376800 0.37641300
v 0.42574400 -0.27376800 0.37641300
v -0.47070000 -0.27344300 0.42462400
v 0.42718600 -0.27344300 0.42462400
v -0.47070000 0.27344300 0.42462300
v 0.42718600 0.27344300 0.42462300
v -0.47070000 0.27344300 0.37673700
v 0.42718600 0.27344300 0.37673700
v -0.47070000 -0.27344300 0.37673800
v 0.42718600 -0.27344300 0.37673800
f 1 2 3
f 2 5 6
f 7 8 9
f 8 1 11
f 5 12 13
f 12 7 15
f 14 16 17
f 16 19 20
f 19 21 22
f 21 15 24
f 4 25 26
f 25 28 29
f 28 30 31
f 30 6 18
f 32 33 34
f 33 20 36
f 7 10 24
f 5 14 18
f 28 32 35
f 36 20 19
f 4 27 11
f 12 5 2
f 2 1 8
f 8 7 12
f 21 19 16
f 16 14 13
f 13 15 21
f 30 28 25
f 25 4 3
f 3 6 30
f 17 20 33
f 33 32 31
f 31 18 17
f 41 44 43
f 42 43 46
f 47 50 49
f 48 49 51
f 45 54 53
f 52 53 55
f 54 58 57
f 56 57 60
f 59 63 62
f 61 62 64
f 44 67 66
f 65 66 69
f 68 72 71
f 70 71 58
f 72 75 74
f 73 74 76
f 47 55 64
f 45 46 58
f 68 69 75
f 76 63 59
f 44 41 51
f 52 77 42
f 42 77 48
f 48 77 52
f 61 78 56
f 56 78 53
f 53 78 61
f 70 79 65
f 65 79 43
f 43 79 70
f 57 80 73
f 73 80 71
f 71 80 57
f 81 84 83
f 82 83 86
f 87 90 89
f 88 89 91
f 85 94 93
f 92 93 95
f 94 98 97
f 96 97 100
f 99 103 102
f 101 102 104
f 84 107 106
f 105 106 109
f 108 112 111
f 110 111 98
f 112 115 114
f 113 114 116
f 87 95 104
f 85 86 98
f 108 109 115
f 116 103 99
f 84 81 91
f 92 117 82
f 82 117 88
f 88 117 92
f 101 118 96
f 96 118 93
f 93 118 101
f 110 119 105
f 105 119 83
f 83 119 110
f 97 120 113
f 113 120 111
f 111 120 97
f 121 122 123
f 122 125 126
f 127 128 129
f 128 121 131
f 125 132 133
f 132 127 135
f 134 136 137
f 136 139 140
f 139 141 142
f 141 135 144
f 124 145 146
f 145 148 149
f 148 150 151
f 150 126 138
f 152 153 154
f 153 140 156
f 127 130 144
f 125 134 138
f 148 152 155
f 156 140 139
f 124 147 131
f 132 125 122
f 122 121 128
f 128 127 132
f 141 139 136
f 136 134 133
f 133 135 141
f 150 148 145
f 145 124 123
f 123 126 150
f 137 140 153
f 153 152 151
f 151 138 137
f 162 161 197
f 161 166 198
f 164 163 171
f 163 162 172
f 166 165 175
f 165 164 176
f 168 167 203
f 167 172 204
f 170 169 183
f 169 168 184
f 174 173 187
f 173 178 188
f 178 177 181
f 177 176 182
f 180 179 195
f 179 184 196
f 186 185 199
f 185 190 200
f 190 189 193
f 189 188 194
f 192 191 207
f 191 196 208
f 202 201 205
f 201 200 206
f 164 170 182
f 178 180 194
f 190 192 206
f 202 204 172
f 168 208 196
f 198 166 174
f 165 166 161
f 161 162 163
f 163 164 165
f 171 172 167
f 167 168 169
f 169 170 171
f 177 178 173
f 173 174 175
f 175 176 177
f 183 184 179
f 179 180 181
f 181 182 183
f 189 190 185
f 185 186 187
f 187 188 189
f 195 196 191
f 191 192 193
f 193 194 195
f 201 202 197
f 197 198 199
f 199 200 201
f 207 208 203
f 203 204 205
f 205 206 207
f 217 218 219
f 218 221 222
f 223 224 225
f 225 224 217
f 221 228 229
f 229 228 223
f 232 233 234
f 233 227 236
f 226 237 238
f 237 232 240
f 230 241 242
f 241 244 245
f 244 246 247
f 246 231 239
f 248 249 250
f 249 240 252
f 254 222 243
f 256 254 253
f 255 257 258
f 257 245 251
f 261 262 259
f 235 261 260
f 220 263 264
f 263 256 262
f 223 226 239
f 245 244 248
f 262 256 255
f 217 220 236
f 232 235 252
f 222 221 230
f 228 221 218
f 218 217 224
f 224 223 228
f 225 227 233
f 233 232 237
f 237 226 225
f 246 244 241
f 241 230 229
f 229 231 246
f 238 240 249
f 249 248 247
f 247 239 238
f 257 255 253
f 253 243 242
f 242 245 257
f 250 252 260
f 260 259 258
f 258 251 250
f 263 220 219
f 219 222 254
f 254 256 263
f 261 235 234
f 234 236 264
f 264 262 261
f 3 4 1
f 6 3 2
f 9 10 7
f 11 9 8
f 13 14 5
f 15 13 12
f 17 18 14
f 20 17 16
f 22 23 19
f 24 22 21
f 26 27 4
f 29 26 25
f 31 32 28
f 18 31 30
f 34 35 32
f 36 34 33
f 24 15 7
f 18 6 5
f 35 29 28
f 19 23 36
f 11 1 4
f 2 37 12
f 8 37 2
f 12 37 8
f 16 38 21
f 13 38 16
f 21 38 13
f 25 39 30
f 3 39 25
f 30 39 3
f 33 40 17
f 31 40 33
f 17 40 31
f 43 42 41
f 46 45 42
f 49 48 47
f 51 41 48
f 53 52 45
f 55 47 52
f 57 56 54
f 60 59 56
f 62 61 59
f 64 55 61
f 66 65 44
f 69 68 65
f 71 70 68
f 58 46 70
f 74 73 72
f 76 60 73
f 64 50 47
f 58 54 45
f 75 72 68
f 59 60 76
f 51 67 44
f 42 45 52
f 48 41 42
f 52 47 48
f 56 59 61
f 53 54 56
f 61 55 53
f 65 68 70
f 43 44 65
f 70 46 43
f 73 60 57
f 71 72 73
f 57 58 71
f 83 82 81
f 86 85 82
f 89 88 87
f 91 81 88
f 93 92 85
f 95 87 92
f 97 96 94
f 100 99 96
f 102 101 99
f 104 95 101
f 106 105 84
f 109 108 105
f 111 110 108
f 98 86 110
f 114 113 112
f 116 100 113
f 104 90 87
f 98 94 85
f 115 112 108
f 99 100 116
f 91 107 84
f 82 85 92
f 88 81 82
f 92 87 88
f 96 99 101
f 93 94 96
f 101 95 93
f 105 108 110
f 83 84 105
f 110 86 83
f 113 100 97
f 111 112 113
f 97 98 111
f 123 124 121
f 126 123 122
f 129 130 127
f 131 129 128
f 133 134 125
f 135 133 132
f 137 138 134
f 140 137 136
f 142 143 139
f 144 142 141
f 146 147 124
f 149 146 145
f 151 152 148
f 138 151 150
f 154 155 152
f 156 154 153
f 144 135 127
f 138 126 125
f 155 149 148
f 139 143 156
f 131 121 124
f 122 157 132
f 128 157 122
f 132 157 128
f 136 158 141
f 133 158 136
f 141 158 133
f 145 159 150
f 123 159 145
f 150 159 123
f 153 160 137
f 151 160 153
f 137 160 151
f 197 202 162
f 198 197 161
f 171 170 164
f 172 171 163
f 175 174 166
f 176 175 165
f 203 208 168
f 204 203 167
f 183 182 170
f 184 183 169
f 187 186 174
f 188 187 173
f 181 180 178
f 182 181 177
f 195 194 180
f 196 195 179
f 199 198 186
f 200 199 185
f 193 192 190
f 194 193 189
f 207 206 192
f 208 207 191
f 205 204 202
f 206 205 201
f 182 176 164
f 194 188 178
f 206 200 190
f 172 162 202
f 196 184 168
f 174 186 198
f 161 209 165
f 163 209 161
f 165 209 163
f 167 210 171
f 169 210 167
f 171 210 169
f 173 211 177
f 175 211 173
f 177 211 175
f 179 212 183
f 181 212 179
f 183 212 181
f 185 213 189
f 187 213 185
f 189 213 187
f 191 214 195
f 193 214 191
f 195 214 193
f 197 215 201
f 199 215 197
f 201 215 199
f 203 216 207
f 205 216 203
f 207 216 205
f 219 220 217
f 222 219 218
f 225 226 223
f 217 227 225
f 229 230 221
f 223 231 229
f 234 235 232
f 236 234 233
f 238 239 226
f 240 238 237
f 242 243 230
f 245 242 241
f 247 248 244
f 239 247 246
f 250 251 248
f 252 250 249
f 243 253 254
f 253 255 256
f 258 259 255
f 251 258 257
f 259 260 261
f 260 252 235
f 264 236 220
f 262 264 263
f 239 231 223
f 248 251 245
f 255 259 262
f 236 227 217
f 252 240 232
f 230 243 222
f 218 265 228
f 224 265 218
f 228 265 224
f 233 266 225
f 237 266 233
f 225 266 237
f 241 267 246
f 229 267 241
f 246 267 229
f 249 268 238
f 247 268 249
f 238 268 247
f 253 269 257
f 242 269 253
f 257 269 242
f 260 270 250
f 258 270 260
f 250 270 258
f 219 271 263
f 254 271 219
f 263 271 254
f 234 272 261
f 264 272 234
f 261 272 264

