# https://github.com/mikedh/trimesh
v 0.36561988 0.22939987 0.19798922
v 0.34090746 0.22769897 0.18790701
v 0.34090746 0.22049986 0.19138204
v 0.34090746 0.21866391 0.19143391
v 0.34090746 0.21150016 0.19162985
v 0.36561988 0.22836775 0.19798922
v 0.36561988 0.23340296 0.18918062
v 0.34090746 0.22941274 0.18175799
v 0.34090746 0.20209533 0.19162985
v 0.36561988 0.22080531 0.19751954
v 0.36561988 0.23468589 0.18193088
v 0.34090746 0.22985002 0.18018184
v 0.34090746 0.20209533 0.17173341
v 0.36561988 0.20209533 0.19165002
v 0.36561988 0.21983107 0.19723140
v 0.36561988 0.23493989 0.18018184
v 0.34090746 0.22770219 0.17511336
v 0.36561988 0.20209533 0.17169595
v 0.34090746 0.21150016 0.17173341
v 0.36561988 0.22049986 0.16855805
v 0.36561988 0.23011047 0.17079118
v 0.34090746 0.22714915 0.17381382
v 0.34090746 0.21333611 0.17175358
v 0.34090746 0.22049986 0.17184003
v 0.34090746 0.22185351 0.17224055
f 1 2 3
f 1 3 4
f 1 4 5
f 1 5 9
f 1 9 6
f 1 6 10
f 1 10 15
f 1 15 14
f 1 14 18
f 1 18 20
f 1 20 21
f 1 21 16
f 1 16 11
f 1 11 7
f 1 7 2
f 2 7 8
f 2 8 12
f 2 12 17
f 2 17 22
f 2 22 25
f 2 25 24
f 2 24 23
f 2 23 19
f 2 19 13
f 2 13 9
f 2 9 5
f 2 5 4
f 2 4 3
f 6 9 10
f 7 11 12
f 7 12 8
f 9 13 18
f 9 18 14
f 9 14 15
f 9 15 10
f 11 16 12
f 12 16 17
f 13 19 20
f 13 20 18
f 16 21 22
f 16 22 17
f 19 23 20
f 20 23 24
f 20 24 21
f 21 24 25
f 21 25 22

