# https://github.com/mikedh/trimesh
v 0.34090746 0.00025598 0.17173395
v 0.34091548 -0.20205488 0.17173395
v 0.34090746 0.00025598 0.19163027
v 0.34090746 0.20209211 0.17173395
v 0.37875726 0.20209211 0.17161811
v 0.34091548 -0.20205488 0.19163027
v 0.37830027 -0.20205488 0.17162203
v 0.37874924 -0.20205488 0.19167739
v 0.34090746 0.20209211 0.19163027
v 0.40573556 0.20209211 0.17161811
v 0.40572755 -0.20205488 0.17162203
v 0.39717304 -0.20205488 0.19167739
v 0.37834836 0.20209211 0.19167543
v 0.41473902 0.20209211 0.17202062
v 0.41473100 -0.20205488 0.17202062
v 0.40572755 -0.20205488 0.19167543
v 0.40573556 0.20209211 0.19167543
v 0.41501161 0.20209211 0.17211095
v 0.42081615 -0.20205488 0.17405287
v 0.40617652 -0.20205488 0.19164009
v 0.41473902 0.20209211 0.19094107
v 0.42082417 0.20209211 0.17405287
v 0.42280445 -0.20205488 0.18018297
v 0.41473100 -0.20205488 0.19094107
v 0.42121701 0.20209211 0.18744209
v 0.41505168 -0.20205488 0.19076828
v 0.42121701 -0.20205488 0.18744209
v 0.42281247 0.20209211 0.18018297
v 0.42129721 -0.20205488 0.18708276
f 1 2 6
f 1 6 3
f 1 3 9
f 1 9 4
f 1 4 5
f 1 5 2
f 2 5 7
f 2 7 11
f 2 11 15
f 2 15 19
f 2 19 23
f 2 23 29
f 2 29 27
f 2 27 26
f 2 26 24
f 2 24 20
f 2 20 16
f 2 16 12
f 2 12 8
f 2 8 6
f 3 6 8
f 3 8 9
f 4 9 13
f 4 13 17
f 4 17 21
f 4 21 25
f 4 25 28
f 4 28 22
f 4 22 18
f 4 18 14
f 4 14 10
f 4 10 5
f 5 10 11
f 5 11 7
f 8 12 17
f 8 17 13
f 8 13 9
f 10 14 15
f 10 15 11
f 12 16 17
f 14 18 15
f 15 18 19
f 16 20 17
f 17 20 21
f 18 22 19
f 19 22 28
f 19 28 23
f 20 24 21
f 21 24 26
f 21 26 27
f 21 27 25
f 23 28 29
f 25 27 29
f 25 29 28

