# https://github.com/mikedh/trimesh
v 0.36705924 0.22950359 0.34341558
v 0.36705924 0.25649858 0.34341558
v 0.36927244 0.22050022 0.34341558
v 0.34091647 0.20209214 0.37073414
v 0.36712246 0.25773285 0.34341558
v 0.34091647 0.26549438 0.37073414
v 0.37286772 0.21530567 0.34341558
v 0.34091647 0.20209214 0.43063013
v 0.37368075 0.21520723 0.34341558
v 0.37874849 0.21460145 0.34341558
v 0.37874849 0.20209214 0.37058902
v 0.36754705 0.26549438 0.34341558
v 0.34091647 0.26710728 0.37103294
v 0.34091647 0.20250104 0.43063013
v 0.41473770 0.20209214 0.43063013
v 0.41473770 0.21460145 0.34341558
v 0.41473770 0.20209214 0.37058902
v 0.37114234 0.27224883 0.34341558
v 0.34091647 0.27339979 0.37221106
v 0.34091647 0.26549438 0.43062160
v 0.41473770 0.20250104 0.43063013
v 0.42332850 0.20209214 0.43030571
v 0.42076299 0.21530567 0.34341558
v 0.42373501 0.20209214 0.37099027
v 0.41514422 0.20209214 0.37060610
v 0.37874849 0.27449775 0.34341558
v 0.34091647 0.27431603 0.37313306
v 0.34091647 0.27789769 0.37674424
v 0.34091647 0.27339979 0.42915322
v 0.41473770 0.26549438 0.43062160
v 0.42373501 0.26549438 0.43028865
v 0.42373501 0.20209214 0.43028865
v 0.42462027 0.22050022 0.34341558
v 0.42957059 0.20209214 0.37254401
v 0.42400599 0.20209214 0.37105856
v 0.34091647 0.27817029 0.37765770
v 0.34091647 0.27922284 0.38124327
v 0.41473770 0.27449775 0.34341558
v 0.34091647 0.27789769 0.42462005
v 0.41473770 0.27339979 0.42915322
v 0.42373501 0.27305148 0.42898247
v 0.42930864 0.20209214 0.42888004
v 0.42957059 0.26549438 0.42881172
v 0.42912797 0.27180205 0.42843611
v 0.42695090 0.22950359 0.34341558
v 0.43204578 0.20209214 0.37818700
v 0.42968801 0.20209214 0.37279159
v 0.34091647 0.27926828 0.38245553
v 0.41473770 0.27922284 0.38124327
v 0.42144052 0.27914712 0.38172134
v 0.42704124 0.27885178 0.38717652
v 0.42260583 0.27224883 0.34341558
v 0.34091647 0.27922284 0.42012102
v 0.41473770 0.27789769 0.42462005
v 0.42415958 0.27778410 0.42285287
v 0.42957059 0.20209214 0.42881172
v 0.43193737 0.20209214 0.42343338
v 0.43204578 0.26549438 0.42317727
v 0.43013970 0.27352851 0.42317727
v 0.42695090 0.25649858 0.34341558
v 0.43224448 0.22950359 0.37818700
v 0.43209996 0.20209214 0.37859677
v 0.34091647 0.27944243 0.38717652
v 0.41473770 0.27944243 0.38717652
v 0.42253354 0.27922284 0.38717652
v 0.42704124 0.27885178 0.41417923
v 0.43071782 0.27435388 0.38717652
v 0.43015778 0.27354366 0.37818700
v 0.42645407 0.26549438 0.34341558
v 0.34091647 0.27944243 0.41417923
v 0.41473770 0.27922284 0.42012102
v 0.42144052 0.27914712 0.41964294
v 0.43204578 0.20209214 0.42317727
v 0.43319302 0.26549438 0.41417923
v 0.43071782 0.27435388 0.41417923
v 0.42652633 0.26426011 0.34341558
v 0.43216321 0.26549438 0.37818700
v 0.43224448 0.25649858 0.37818700
v 0.43319302 0.20209214 0.38717652
v 0.41473770 0.27944243 0.41417923
v 0.42253354 0.27922284 0.41417923
v 0.43319302 0.26549438 0.38717652
v 0.43319302 0.20209214 0.41417923
f 1 2 5
f 1 5 12
f 1 12 18
f 1 18 26
f 1 26 38
f 1 38 52
f 1 52 69
f 1 69 76
f 1 76 60
f 1 60 45
f 1 45 33
f 1 33 23
f 1 23 16
f 1 16 10
f 1 10 9
f 1 9 7
f 1 7 3
f 1 3 4
f 1 4 6
f 1 6 2
f 2 6 5
f 3 7 4
f 4 8 14
f 4 14 20
f 4 20 29
f 4 29 39
f 4 39 53
f 4 53 70
f 4 70 63
f 4 63 48
f 4 48 37
f 4 37 36
f 4 36 28
f 4 28 27
f 4 27 19
f 4 19 13
f 4 13 6
f 4 7 9
f 4 9 10
f 4 10 11
f 4 11 17
f 4 17 25
f 4 25 24
f 4 24 35
f 4 35 34
f 4 34 47
f 4 47 46
f 4 46 62
f 4 62 79
f 4 79 83
f 4 83 73
f 4 73 57
f 4 57 56
f 4 56 42
f 4 42 32
f 4 32 22
f 4 22 15
f 4 15 8
f 5 6 12
f 6 13 12
f 8 15 21
f 8 21 14
f 10 16 17
f 10 17 11
f 12 13 19
f 12 19 18
f 14 21 30
f 14 30 20
f 15 22 21
f 16 23 24
f 16 24 25
f 16 25 17
f 18 19 27
f 18 27 28
f 18 28 26
f 20 30 40
f 20 40 29
f 21 22 31
f 21 31 30
f 22 32 31
f 23 33 34
f 23 34 35
f 23 35 24
f 26 28 36
f 26 36 37
f 26 37 49
f 26 49 38
f 29 40 54
f 29 54 39
f 30 31 41
f 30 41 40
f 31 42 43
f 31 43 44
f 31 44 41
f 31 32 42
f 33 45 46
f 33 46 47
f 33 47 34
f 37 48 49
f 38 49 50
f 38 50 51
f 38 51 52
f 39 54 71
f 39 71 53
f 40 41 54
f 41 44 55
f 41 55 54
f 42 56 43
f 43 56 57
f 43 57 58
f 43 58 44
f 44 58 59
f 44 59 55
f 45 60 78
f 45 78 61
f 45 61 46
f 46 61 62
f 48 63 64
f 48 64 49
f 49 64 50
f 50 64 65
f 50 65 51
f 51 66 75
f 51 75 67
f 51 67 68
f 51 68 52
f 51 65 81
f 51 81 66
f 52 68 69
f 53 71 80
f 53 80 70
f 54 55 72
f 54 72 71
f 55 59 66
f 55 66 72
f 57 73 58
f 58 73 83
f 58 83 74
f 58 74 59
f 59 74 75
f 59 75 66
f 60 76 77
f 60 77 78
f 61 78 82
f 61 82 79
f 61 79 62
f 63 70 80
f 63 80 64
f 64 80 81
f 64 81 65
f 66 81 72
f 67 75 74
f 67 74 82
f 67 82 68
f 68 82 77
f 68 77 69
f 69 77 76
f 71 72 80
f 72 81 80
f 74 83 79
f 74 79 82
f 77 82 78

