# https://github.com/mikedh/trimesh
v -0.47046283 0.22950069 0.34341558
v -0.47046283 0.25649562 0.34341558
v -0.46844946 0.22173618 0.34341558
v -0.47556284 0.20244547 0.37818700
v -0.47575794 0.22950069 0.37818700
v -0.46997502 0.26549645 0.34341558
v -0.47575794 0.25649562 0.37818700
v -0.47567812 0.26549645 0.37818700
v -0.46813017 0.22050742 0.34341558
v -0.47670702 0.20244547 0.38717652
v -0.47308823 0.20244547 0.37254401
v -0.47367360 0.27353991 0.37818700
v -0.46611677 0.27224330 0.34341558
v -0.47670702 0.26549645 0.38717652
v -0.46481295 0.21601455 0.34341558
v -0.47670702 0.20244547 0.41417923
v -0.46428077 0.21530595 0.34341558
v -0.46725207 0.20244547 0.37099027
v -0.47422351 0.27435404 0.38717652
v -0.47055153 0.27885447 0.38717652
v -0.45933159 0.27418820 0.34341558
v -0.47670702 0.26549645 0.41417923
v -0.47557169 0.20244547 0.42311751
v -0.46345591 0.21520794 0.34341558
v -0.45824950 0.21459733 0.34341558
v -0.45824950 0.20244547 0.37058902
v -0.47422351 0.27435404 0.41417923
v -0.47055153 0.27885447 0.41417923
v -0.46604583 0.27922383 0.38717652
v -0.46495486 0.27914846 0.38172134
v -0.45824950 0.27449727 0.34341558
v -0.47556284 0.26549645 0.42317727
v -0.47365590 0.27352484 0.42317727
v -0.47556284 0.20244547 0.42317727
v -0.42226576 0.21459733 0.34341558
v -0.42220367 0.20244547 0.37058902
v -0.46766894 0.27778400 0.42285287
v -0.46495486 0.27914846 0.41964294
v -0.46604583 0.27922383 0.41417923
v -0.45824950 0.27945000 0.38717652
v -0.45824950 0.27922383 0.38124327
v -0.42226576 0.27449727 0.34341558
v -0.47308823 0.26549645 0.42881172
v -0.47264476 0.27179854 0.42843611
v -0.47308823 0.20244547 0.42881172
v -0.41638526 0.21530595 0.34341558
v -0.38610465 0.20244547 0.37073414
v -0.46725207 0.27304990 0.42898247
v -0.45824950 0.27789708 0.42462005
v -0.45824950 0.27922383 0.42012102
v -0.45824950 0.27945000 0.41417923
v -0.38610465 0.27945000 0.38717652
v -0.38610465 0.27922383 0.38124327
v -0.38610465 0.27920122 0.38115789
v -0.38610465 0.27789708 0.37674424
v -0.41465569 0.27224330 0.34341558
v -0.46725207 0.26549645 0.43028865
v -0.46725207 0.20244547 0.43028865
v -0.41328093 0.21979128 0.34341558
v -0.38610465 0.26549645 0.37073414
v -0.38610465 0.20244547 0.43063013
v -0.41279311 0.22050742 0.34341558
v -0.41056685 0.22950069 0.34341558
v -0.45824950 0.26549645 0.43062160
v -0.45824950 0.27339668 0.42915322
v -0.38610465 0.27789708 0.42462005
v -0.38610465 0.27922383 0.42012102
v -0.38610465 0.27945000 0.41417923
v -0.38610465 0.27781417 0.37665886
v -0.41415900 0.27131609 0.34341558
v -0.38610465 0.27339668 0.37221106
v -0.45824950 0.20250577 0.43063013
v -0.45824950 0.20244547 0.43063013
v -0.41056685 0.25649562 0.34341558
v -0.41099257 0.26426016 0.34341558
v -0.41106355 0.26549645 0.34341558
v -0.38610465 0.20266409 0.43063013
v -0.38610465 0.26549645 0.43062160
v -0.38610465 0.26563968 0.43059598
v -0.38610465 0.27339668 0.42915322
f 1 2 6
f 1 6 13
f 1 13 21
f 1 21 31
f 1 31 42
f 1 42 56
f 1 56 70
f 1 70 76
f 1 76 75
f 1 75 74
f 1 74 63
f 1 63 62
f 1 62 59
f 1 59 46
f 1 46 35
f 1 35 25
f 1 25 24
f 1 24 17
f 1 17 15
f 1 15 9
f 1 9 3
f 1 3 4
f 1 4 5
f 1 5 7
f 1 7 2
f 2 7 8
f 2 8 6
f 3 9 4
f 4 10 5
f 4 9 11
f 4 11 18
f 4 18 26
f 4 26 36
f 4 36 47
f 4 47 61
f 4 61 73
f 4 73 58
f 4 58 45
f 4 45 34
f 4 34 23
f 4 23 16
f 4 16 10
f 5 10 14
f 5 14 7
f 6 8 12
f 6 12 13
f 7 14 8
f 8 14 12
f 9 15 11
f 10 16 22
f 10 22 14
f 11 15 17
f 11 17 18
f 12 14 19
f 12 19 20
f 12 20 13
f 13 20 21
f 14 22 27
f 14 27 19
f 16 23 22
f 17 24 18
f 18 24 25
f 18 25 26
f 19 27 28
f 19 28 20
f 20 28 39
f 20 39 29
f 20 29 30
f 20 30 31
f 20 31 21
f 22 23 32
f 22 32 33
f 22 33 27
f 23 34 32
f 25 35 36
f 25 36 26
f 27 33 28
f 28 33 37
f 28 37 38
f 28 38 39
f 29 39 51
f 29 51 40
f 29 40 30
f 30 40 41
f 30 41 31
f 31 41 53
f 31 53 42
f 32 34 45
f 32 45 43
f 32 43 44
f 32 44 33
f 33 44 37
f 35 46 47
f 35 47 36
f 37 44 48
f 37 48 49
f 37 49 38
f 38 49 50
f 38 50 51
f 38 51 39
f 40 51 68
f 40 68 52
f 40 52 53
f 40 53 41
f 42 53 54
f 42 54 55
f 42 55 56
f 43 45 58
f 43 58 57
f 43 57 44
f 44 57 48
f 46 59 47
f 47 60 71
f 47 71 69
f 47 69 55
f 47 55 54
f 47 54 53
f 47 53 52
f 47 52 68
f 47 68 67
f 47 67 66
f 47 66 80
f 47 80 79
f 47 79 78
f 47 78 77
f 47 77 61
f 47 59 62
f 47 62 63
f 47 63 74
f 47 74 60
f 48 57 64
f 48 64 65
f 48 65 49
f 49 65 80
f 49 80 66
f 49 66 67
f 49 67 50
f 50 67 68
f 50 68 51
f 55 69 56
f 56 69 71
f 56 71 70
f 57 72 64
f 57 58 73
f 57 73 72
f 60 74 75
f 60 75 76
f 60 76 71
f 61 77 72
f 61 72 73
f 64 72 77
f 64 77 78
f 64 78 79
f 64 79 65
f 65 79 80
f 70 71 76

