# https://github.com/mikedh/trimesh
v 0.36610638 -0.22049779 0.19388439
v 0.34090746 -0.21150015 0.19162970
v 0.34090746 -0.21327565 0.19092172
v 0.34090746 -0.22019437 0.18815394
v 0.36610638 -0.22987998 0.18973518
v 0.36610638 -0.20205488 0.19164944
v 0.34090746 -0.20205488 0.19162970
v 0.34090746 -0.22092139 0.18652830
v 0.34090746 -0.22375437 0.18018114
v 0.36610638 -0.23274601 0.18015400
v 0.36610638 -0.20205488 0.17169031
v 0.34090746 -0.20205488 0.17173224
v 0.36610638 -0.22979287 0.17083678
v 0.34090746 -0.21955748 0.17370817
v 0.36610638 -0.20794617 0.17039522
v 0.36610638 -0.21914589 0.16868324
v 0.34090746 -0.21150015 0.17173224
v 0.36610638 -0.22968169 0.17075784
v 0.34090746 -0.21791417 0.17330361
v 0.36610638 -0.22056990 0.16878931
f 1 2 3
f 1 3 4
f 1 4 5
f 1 5 10
f 1 10 13
f 1 13 18
f 1 18 20
f 1 20 16
f 1 16 15
f 1 15 11
f 1 11 6
f 1 6 7
f 1 7 2
f 2 7 12
f 2 12 17
f 2 17 19
f 2 19 14
f 2 14 9
f 2 9 8
f 2 8 4
f 2 4 3
f 4 8 5
f 5 9 10
f 5 8 9
f 6 11 12
f 6 12 7
f 9 13 10
f 9 14 13
f 11 15 12
f 12 15 16
f 12 16 17
f 13 14 18
f 14 19 18
f 16 20 17
f 17 20 18
f 17 18 19

