# https://github.com/mikedh/trimesh
v 0.34083630 0.22985265 0.18018305
v -0.02230952 0.22865381 0.18446069
v 0.34083630 0.22763256 0.18790852
v 0.34083630 0.22714416 0.17381528
v -0.38602464 0.22985265 0.18018305
v -0.38602464 0.22772137 0.18777021
v 0.34083630 0.22621171 0.18861756
v -0.38602464 0.22763256 0.18790852
v 0.34083630 0.22048387 0.17183813
v -0.38602464 0.22714416 0.17381528
v 0.34083630 0.22048387 0.19138361
v -0.38602464 0.22061708 0.19132128
v 0.34083630 0.21147031 0.17173100
v -0.38602464 0.22048387 0.17183813
v 0.34083630 0.21866340 0.19143426
v -0.38602464 0.22048387 0.19138361
v 0.34083630 -0.21145712 0.17173100
v -0.38602464 0.21147031 0.17173100
v 0.34083630 0.21147031 0.19163100
v -0.38602464 0.21147031 0.19163100
v 0.34083630 -0.21953826 0.17370620
v -0.38602464 -0.21163473 0.17176996
v -0.38602464 -0.21145712 0.17173100
v 0.34083630 -0.21145712 0.19163100
v -0.38602464 -0.21145712 0.19163100
v 0.34083630 -0.22375642 0.18018305
v -0.38602464 -0.21962705 0.17382307
v -0.38602464 -0.21953826 0.17370620
v 0.34083630 -0.21323319 0.19092195
v -0.02230952 -0.21629692 0.18970450
v -0.38602464 -0.22002667 0.18821629
v 0.34083630 -0.22091471 0.18652549
v -0.38602464 -0.22375642 0.18018305
v 0.34083630 -0.22015987 0.18815395
v -0.38602464 -0.22015987 0.18815395
f 1 2 3
f 1 3 7
f 1 7 11
f 1 11 15
f 1 15 19
f 1 19 24
f 1 24 29
f 1 29 34
f 1 34 32
f 1 32 26
f 1 26 21
f 1 21 17
f 1 17 13
f 1 13 9
f 1 9 4
f 1 4 10
f 1 10 5
f 1 5 2
f 2 5 6
f 2 6 3
f 3 6 8
f 3 8 7
f 4 9 14
f 4 14 10
f 5 10 14
f 5 14 18
f 5 18 23
f 5 23 22
f 5 22 28
f 5 28 27
f 5 27 33
f 5 33 35
f 5 35 31
f 5 31 25
f 5 25 20
f 5 20 16
f 5 16 12
f 5 12 8
f 5 8 6
f 7 8 12
f 7 12 11
f 9 13 18
f 9 18 14
f 11 12 16
f 11 16 15
f 13 17 23
f 13 23 18
f 15 16 20
f 15 20 19
f 17 21 22
f 17 22 23
f 19 20 25
f 19 25 24
f 21 26 27
f 21 27 28
f 21 28 22
f 24 25 30
f 24 30 29
f 25 31 30
f 26 32 33
f 26 33 27
f 29 30 34
f 30 31 34
f 31 35 34
f 32 34 35
f 32 35 33

