# https://github.com/mikedh/trimesh
v 0.34083630 0.27945000 0.41417420
v 0.34083630 0.27939528 0.41538779
v 0.34083630 0.27945000 0.38718783
v -0.38602464 0.27945000 0.41417420
v 0.34083630 0.27917644 0.42011906
v -0.38602464 0.27917644 0.42011906
v 0.34083630 0.27917644 0.38124297
v -0.02230952 0.27934056 0.38453785
v -0.38602464 0.27945000 0.38718783
v -0.02230952 0.27846525 0.42261074
v 0.34083630 0.27786344 0.42461581
v -0.38602464 0.27791816 0.42453372
v 0.34083630 0.27813700 0.37766082
v -0.02230952 0.27862937 0.37923790
v -0.38602464 0.27917644 0.38116676
v -0.02230952 0.27540158 0.42712507
v 0.34083630 0.27337737 0.42914772
v -0.38602464 0.27786344 0.42461581
v 0.34083630 0.27786344 0.37674622
v -0.38602464 0.27786344 0.37674622
v -0.38602464 0.27337737 0.42914772
v 0.34083630 0.26549937 0.43061929
v 0.34083630 0.27430742 0.37314062
v -0.02230952 0.27589395 0.37472357
v -0.38602464 0.27780875 0.37666415
v -0.38602464 0.26549937 0.43061929
v 0.34083630 -0.26549937 0.43063101
v -0.38602464 -0.26533525 0.43063101
v 0.34083630 0.27337737 0.37221430
v -0.38602464 0.27337737 0.37221430
v 0.34083630 -0.27337737 0.42914772
v -0.38602464 -0.26549937 0.43063101
v 0.34083630 0.26549937 0.37073688
v -0.38602464 0.26549937 0.37073688
v 0.34083630 -0.27430742 0.42822142
v -0.38602464 -0.27337737 0.42914772
v 0.34083630 -0.26549937 0.37073688
v -0.38602464 -0.26549937 0.37073688
v 0.34083630 -0.27786344 0.42461581
v -0.02230952 -0.27589395 0.42663846
v -0.38602464 -0.27780875 0.42469788
v 0.34083630 -0.27337737 0.37221430
v -0.38602464 -0.27337737 0.37221430
v 0.34083630 -0.27813700 0.42370120
v -0.38602464 -0.27786344 0.42461581
v -0.02230952 -0.27862937 0.42212412
v 0.34083630 -0.27786344 0.37674622
v -0.02230952 -0.27540158 0.37423696
v -0.38602464 -0.27786344 0.37674622
v 0.34083630 -0.27917644 0.42011906
v -0.38602464 -0.27917644 0.42019527
v 0.34083630 -0.27917644 0.38124297
v -0.02230952 -0.27846525 0.37875129
v -0.38602464 -0.27791816 0.37682831
v 0.34083630 -0.27945000 0.41417420
v -0.02230952 -0.27934056 0.41682417
v -0.38602464 -0.27945000 0.41417420
v 0.34083630 -0.27939528 0.38597424
v -0.38602464 -0.27917644 0.38124297
v 0.34083630 -0.27945000 0.38718783
v -0.38602464 -0.27945000 0.38718783
f 1 2 5
f 1 5 11
f 1 11 17
f 1 17 22
f 1 22 27
f 1 27 31
f 1 31 35
f 1 35 39
f 1 39 44
f 1 44 50
f 1 50 55
f 1 55 60
f 1 60 58
f 1 58 52
f 1 52 47
f 1 47 42
f 1 42 37
f 1 37 33
f 1 33 29
f 1 29 23
f 1 23 19
f 1 19 13
f 1 13 7
f 1 7 3
f 1 3 9
f 1 9 4
f 1 4 2
f 2 4 6
f 2 6 5
f 3 7 8
f 3 8 9
f 4 9 15
f 4 15 20
f 4 20 25
f 4 25 30
f 4 30 34
f 4 34 38
f 4 38 43
f 4 43 49
f 4 49 54
f 4 54 59
f 4 59 61
f 4 61 57
f 4 57 51
f 4 51 45
f 4 45 41
f 4 41 36
f 4 36 32
f 4 32 28
f 4 28 26
f 4 26 21
f 4 21 18
f 4 18 12
f 4 12 6
f 5 10 11
f 5 6 12
f 5 12 10
f 7 13 14
f 7 14 15
f 7 15 8
f 8 15 9
f 10 12 11
f 11 16 17
f 11 12 18
f 11 18 16
f 13 19 14
f 14 19 20
f 14 20 15
f 16 18 21
f 16 21 17
f 17 21 26
f 17 26 22
f 19 23 24
f 19 24 25
f 19 25 20
f 22 26 28
f 22 28 27
f 23 29 30
f 23 30 24
f 24 30 25
f 27 28 32
f 27 32 36
f 27 36 31
f 29 33 34
f 29 34 30
f 31 36 35
f 33 37 38
f 33 38 34
f 35 36 40
f 35 40 39
f 36 41 40
f 37 42 43
f 37 43 38
f 39 40 41
f 39 41 45
f 39 45 46
f 39 46 44
f 42 47 48
f 42 48 43
f 43 48 49
f 44 46 50
f 45 51 46
f 46 51 50
f 47 52 53
f 47 53 54
f 47 54 49
f 47 49 48
f 50 51 56
f 50 56 55
f 51 57 56
f 52 58 59
f 52 59 54
f 52 54 53
f 55 56 57
f 55 57 61
f 55 61 60
f 58 60 61
f 58 61 59

