# https://github.com/mikedh/trimesh
v -0.46632644 -0.20228587 0.18018286
v -0.46433168 -0.20228587 0.17404903
v -0.46473219 -0.20228587 0.18744211
v -0.46474005 0.20243796 0.18744211
v -0.46631858 0.20243796 0.18018286
v -0.46433951 0.20243796 0.17405099
v -0.45838662 -0.20228587 0.17206334
v -0.45824526 -0.20228587 0.19094211
v -0.45825312 0.20243796 0.19094211
v -0.45825312 0.20243796 0.17201816
v -0.45824526 -0.20228587 0.17201620
v -0.44924525 -0.20228587 0.19167668
v -0.44931592 0.20243796 0.19167275
v -0.45819028 0.20243796 0.17201423
v -0.44924525 -0.20228587 0.17161749
v -0.44925308 0.20243796 0.17161356
v -0.44024520 -0.20228587 0.19167865
v -0.44925308 0.20243796 0.19167668
v -0.42226086 -0.20228587 0.17161749
v -0.42220590 0.20243796 0.17161356
v -0.42204883 -0.20228587 0.19167865
v -0.42226871 0.20243796 0.19167668
v -0.38610369 -0.20228587 0.17173337
v -0.38609583 0.20243796 0.17173337
v -0.38609583 0.00027412 0.17173337
v -0.38610369 -0.20228587 0.19162954
v -0.38609583 0.00027412 0.19162954
v -0.38609583 0.20243796 0.19162954
f 1 2 7
f 1 7 11
f 1 11 15
f 1 15 19
f 1 19 23
f 1 23 26
f 1 26 21
f 1 21 17
f 1 17 12
f 1 12 8
f 1 8 3
f 1 3 4
f 1 4 5
f 1 5 6
f 1 6 2
f 2 6 7
f 3 8 9
f 3 9 4
f 4 9 13
f 4 13 18
f 4 18 22
f 4 22 28
f 4 28 24
f 4 24 20
f 4 20 16
f 4 16 14
f 4 14 10
f 4 10 6
f 4 6 5
f 6 10 7
f 7 10 11
f 8 12 13
f 8 13 9
f 10 14 11
f 11 14 16
f 11 16 15
f 12 17 18
f 12 18 13
f 15 16 20
f 15 20 19
f 17 21 22
f 17 22 18
f 19 20 23
f 20 24 25
f 20 25 23
f 21 26 27
f 21 27 28
f 21 28 22
f 23 25 27
f 23 27 26
f 24 28 27
f 24 27 25

