# https://github.com/mikedh/trimesh
v -0.35324779 -0.26506126 0.04276175
v -0.34973222 -0.26506126 0.02565844
v -0.34918076 -0.28212843 0.02565844
v -0.35242058 -0.28212843 0.04276175
v -0.34656126 -0.28212843 0.05807073
v -0.34690593 -0.26506126 0.05761439
v -0.34704380 -0.00851607 0.05874493
v -0.34704380 0.02561820 0.05871384
v -0.35235167 0.02561820 0.04276175
v -0.34339036 -0.26506126 0.01600214
v -0.34339036 -0.28212843 0.01593990
v -0.35131767 0.28216340 0.04276175
v -0.34759526 0.26509627 0.02604220
v -0.34669914 0.28077959 0.02396778
v -0.34235636 0.29630912 0.01684229
v -0.34276994 -0.29450592 0.01644813
v -0.34594089 -0.29981057 0.02435154
v -0.34959434 -0.29927242 0.04276175
v -0.34525156 -0.29927242 0.05685722
v -0.33953012 -0.28212843 0.06661724
v -0.31685109 -0.00851607 0.09675812
v -0.34077091 -0.00851607 0.06730178
v -0.33890970 -0.29927242 0.06540373
v -0.34077091 0.00855106 0.06733293
v -0.34063303 0.02561820 0.06726029
v -0.34573411 0.28216340 0.05620382
v -0.33518729 0.30092189 0.01329507
v -0.33346396 -0.28212843 0.01138661
v -0.34532048 0.29923052 0.05642162
v -0.35021476 0.29923052 0.04276175
v -0.34607877 0.30092189 0.02395743
v -0.34201169 0.30776409 0.01711193
v -0.33484263 -0.29981057 0.01317060
v -0.33063772 -0.31633955 0.01361659
v -0.34146024 -0.30588402 0.01777572
v -0.34428648 -0.31326442 0.02918486
v -0.34483793 -0.31472509 0.04276175
v -0.34352823 -0.31157305 0.05426427
v -0.33036197 -0.29927242 0.07119128
v -0.31485201 -0.04003646 0.09675812
v -0.31609285 -0.02558321 0.09675812
v -0.31629964 -0.02289245 0.09675812
v -0.31692000 0.00855106 0.09675812
v -0.33684171 -0.31687770 0.05992735
v -0.32539882 -0.32556504 0.06870201
v -0.32767361 -0.31633955 0.06993627
v -0.33153384 0.31637456 0.01288016
v -0.31636855 0.31637456 0.00676074
v -0.31636855 0.29923052 0.00670890
v -0.31636855 -0.29927242 0.00717559
v -0.31636855 -0.31633955 0.00824395
v -0.33801358 0.29923052 0.06497848
v -0.34394181 0.31291501 0.05452356
v -0.34518260 0.31775837 0.04345669
v -0.34256315 0.32575378 0.03296029
v -0.34449327 0.31637456 0.02900856
v -0.34008158 0.31637456 0.02045170
v -0.32808719 0.32898269 0.01475753
v -0.32739785 -0.32864022 0.01528645
v -0.33973691 -0.31787714 0.02435154
v -0.33070664 -0.33402174 0.02532651
v -0.32657065 -0.34378538 0.03080289
v -0.34125345 -0.32325865 0.04276175
v -0.32567453 -0.34286281 0.05252178
v -0.32856973 -0.33209977 0.05886940
v -0.31636855 -0.31633955 0.07397093
v -0.31636855 -0.29927242 0.07584829
v -0.30830336 -0.07578519 0.09675812
v -0.30919953 -0.07201812 0.09675812
v -0.31202577 -0.05979436 0.09675812
v -0.31250831 -0.05710360 0.09675812
v -0.31457631 -0.04272723 0.09675812
v -0.31650642 0.02561820 0.09675812
v -0.31960842 -0.33694314 0.06392052
v -0.30816553 -0.34224779 0.06856719
v -0.31485201 -0.33209977 0.07007109
v -0.29927313 0.31637456 0.00482119
v -0.31698897 0.33421048 0.01205041
v -0.29927313 0.33344169 0.00725857
v -0.29927313 -0.31633955 0.00614878
v -0.29927313 -0.33348359 0.00794311
v -0.31698897 -0.33402174 0.01274535
v -0.32946585 0.29923052 0.07082826
v -0.32801827 0.31637456 0.07026819
v -0.33753104 0.31775837 0.06007257
v -0.31526564 0.04268533 0.09675812
v -0.34180491 0.32436997 0.04961760
v -0.34256315 0.32575378 0.03822921
v -0.32719106 0.34420472 0.04276175
v -0.32684640 0.34389721 0.03060583
v -0.33318826 0.33305726 0.02608369
v -0.32312399 0.34043766 0.01919669
v -0.31175002 0.34466601 0.01500642
v -0.31168110 -0.34493855 0.01512054
v -0.32312399 -0.34009519 0.01939375
v -0.31588601 -0.35001256 0.02622890
v -0.30857911 -0.35962242 0.03305361
v -0.32670852 -0.34393911 0.04276175
v -0.33449796 -0.33348359 0.04276175
v -0.31512776 -0.35354898 0.04302104
v -0.30671791 -0.35869990 0.04888123
v -0.31485201 -0.34586107 0.05886940
v -0.29927313 -0.31633955 0.07737294
v -0.29927313 -0.33348359 0.07351459
v -0.28107476 -0.14551444 0.09675812
v -0.28259130 -0.14243929 0.09675812
v -0.29169049 -0.12375768 0.09675812
v -0.29224194 -0.12252762 0.09675812
v -0.29272448 -0.12137443 0.09675812
v -0.29658472 -0.11130329 0.09675812
v -0.29761872 -0.10845876 0.09675812
v -0.30306446 -0.09285233 0.09675812
v -0.30030713 -0.35347211 0.05960583
v -0.29927313 -0.34386225 0.06949027
v 0.26508271 0.35058568 -0.00629757
v 0.26508271 0.33344169 -0.00841337
v 0.26508271 0.31637456 -0.00892166
v 0.21372752 0.29923052 -0.00805036
v 0.19663208 0.28216340 -0.00787410
v 0.19663208 0.26509627 -0.00791559
v 0.19663208 0.23088511 -0.00795708
v 0.19663208 0.00855106 -0.00799857
v 0.19663208 -0.19663896 -0.00799857
v 0.19663208 -0.26506126 -0.00797777
v 0.19663208 -0.28212843 -0.00795708
v -0.29927313 0.34735677 0.01330542
v -0.28217772 0.34904814 0.01305652
v 0.26508271 0.37434132 0.00107691
v 0.26508271 0.36580775 -0.00227320
v 0.19663208 -0.29927242 -0.00780152
v 0.19663208 -0.31633955 -0.00724135
v 0.26508271 -0.33348359 -0.00845486
v -0.28217772 -0.33348359 0.00722748
v -0.29927313 -0.34824432 0.01334691
v -0.28272918 -0.35208830 0.01329507
v -0.31305977 0.05998311 0.09675812
v -0.31636855 0.31637456 0.07434434
v -0.32588131 0.32613816 0.06905468
v -0.30995777 0.07566642 0.09675812
v -0.32946585 0.33251911 0.05909760
v -0.32601919 0.34305155 0.05288479
v -0.33684171 0.33228852 0.04345669
v -0.31471418 0.35350708 0.04126820
v -0.30788978 0.35919615 0.03456791
v -0.30788978 0.35919615 0.03408042
v -0.31554134 0.34997066 0.02664376
v -0.29927313 0.35589033 0.02251572
v -0.28879528 -0.35877677 0.01749569
v -0.29927313 -0.35677789 0.02080437
v -0.29927313 -0.36131379 0.02935083
v -0.28217772 -0.36584965 0.04276175
v -0.30030713 -0.36177503 0.04302104
v -0.30857911 -0.35962242 0.03748243
v -0.29534393 -0.36062186 0.05373530
v -0.11122344 -0.29596665 0.09675812
v -0.12087409 -0.29235331 0.09675812
v -0.12204595 -0.29189203 0.09675812
v -0.12342461 -0.29127701 0.09675812
v -0.13052473 -0.28797124 0.09675812
v -0.14224337 -0.28251280 0.09675812
v -0.14548323 -0.28097521 0.09675812
v -0.15492708 -0.27590120 0.09675812
v -0.15733974 -0.27451739 0.09675812
v -0.17698569 -0.26260114 0.09675812
v -0.17946729 -0.26106355 0.09675812
v -0.18718780 -0.25583581 0.09675812
v -0.19725204 -0.24830164 0.09675812
v -0.19807924 -0.24760976 0.09675812
v -0.20642016 -0.24061374 0.09675812
v -0.21289987 -0.23469407 0.09675812
v -0.21372706 -0.23392527 0.09675812
v -0.22296412 -0.22531485 0.09675812
v -0.22558357 -0.22270095 0.09675812
v -0.23261476 -0.21508991 0.09675812
v -0.23909450 -0.20801706 0.09675812
v -0.24150716 -0.20524942 0.09675812
v -0.24902084 -0.19594706 0.09675812
v -0.25088205 -0.19356381 0.09675812
v -0.25577628 -0.18710598 0.09675812
v -0.25984336 -0.18110942 0.09675812
v -0.26087735 -0.17957183 0.09675812
v -0.26253177 -0.17703482 0.09675812
v -0.27466399 -0.15758445 0.09675812
v -0.27590477 -0.15527807 0.09675812
v -0.28217772 -0.34539984 0.07019556
v -0.05938570 -0.31018923 0.09675812
v -0.06028184 -0.31003551 0.09675812
v -0.06951888 -0.30819041 0.09675812
v -0.07620540 -0.30657595 0.09675812
v -0.07765299 -0.30619153 0.09675812
v -0.09137069 -0.30234760 0.09675812
v -0.09405909 -0.30157881 0.09675812
v -0.10846612 -0.29688917 0.09675812
v -0.28217772 -0.35393340 0.06398276
v 0.28217813 0.35058568 -0.00615230
v 0.28217813 0.33344169 -0.00857933
v 0.28217813 0.31637456 -0.00908762
v 0.26508271 0.29923052 -0.00905652
v 0.24798730 0.29923052 -0.00877639
v 0.21372752 0.28216340 -0.00828900
v 0.23082292 0.29923052 -0.00843417
v 0.21372752 0.26509627 -0.00832010
v 0.21372752 0.23088511 -0.00835119
v 0.21372752 0.21374109 -0.00836159
v 0.21372752 0.17952994 -0.00837188
v 0.21372752 0.02561820 -0.00840308
v 0.21372752 0.24795223 -0.00834079
v 0.21372752 -0.19663896 -0.00838228
v 0.21372752 0.00855106 -0.00840308
v 0.21372752 -0.26506126 -0.00836159
v 0.21372752 -0.28212843 -0.00834079
v 0.21372752 -0.29927242 -0.00820602
v -0.28217772 0.35758170 0.01894775
v 0.24798730 0.38102978 0.01035980
v 0.26508271 0.38102978 0.00962337
v 0.28217813 0.37388003 0.00166813
v 0.28217813 0.36534647 -0.00207615
v 0.28217813 -0.33348359 -0.00862082
v 0.26508271 -0.35055071 -0.00570630
v 0.24798730 -0.35055071 -0.00523961
v 0.24798730 -0.31633955 -0.00851715
v 0.26508271 -0.31633955 -0.00885937
v 0.28217813 -0.31633955 -0.00907722
v 0.23082292 -0.36269761 -0.00116346
v -0.26508226 -0.35055071 0.01215413
v 0.24798730 -0.37207683 0.00193776
v -0.27742131 -0.35954556 0.01671782
v -0.29927313 0.31637456 0.07683361
v -0.29927313 0.33344169 0.07314122
v -0.31485201 0.33251911 0.07034078
v -0.30885486 0.07943349 0.09675812
v -0.30437416 0.09350235 0.09675812
v -0.29872168 0.11110764 0.09675812
v -0.29320703 0.12702159 0.09675812
v -0.28493505 0.14439624 0.09675812
v -0.28376317 0.14662574 0.09675812
v -0.27680089 0.15961828 0.09675812
v -0.27266490 0.16684491 0.09675812
v -0.27190666 0.16815185 0.09675812
v -0.26453080 0.17968370 0.09675812
v -0.25770645 0.18944733 0.09675812
v -0.30816553 0.34220589 0.06855679
v -0.31953950 0.33751626 0.06428354
v -0.31485201 0.34566545 0.05909760
v -0.30527033 0.35827358 0.04595631
v -0.29947992 0.36088747 0.04126820
v -0.28217772 0.36427016 0.04276175
v -0.29927313 0.36057997 0.03107258
v -0.28217772 0.36250193 0.02750461
v -0.28272918 -0.36262069 0.02418563
v -0.26508226 -0.36454270 0.02565844
v -0.26508226 -0.36707968 0.04276175
v -0.28217772 -0.36177503 0.05542590
v 0.23082292 -0.37707397 0.06912726
v -0.02560845 -0.31441758 0.09675812
v -0.04001548 -0.31295691 0.09675812
v -0.04291068 -0.31264935 0.09675812
v -0.26508226 -0.36231318 0.05595488
v 0.29927359 0.35058568 -0.00392232
v 0.29927359 0.33344169 -0.00699251
v 0.29927359 0.36181005 -0.00093522
v 0.29927359 0.31637456 -0.00823712
v 0.29927359 0.29923052 -0.00830970
v 0.29927359 -0.28212843 -0.00864162
v 0.28217813 -0.29927242 -0.00920169
v 0.24798730 0.28216340 -0.00884907
v 0.23082292 0.28216340 -0.00861053
v 0.24798730 0.00855106 -0.00886977
v 0.23082292 0.02561820 -0.00869351
v 0.23082292 0.21374109 -0.00864162
v 0.23082292 0.17952994 -0.00865202
v 0.23082292 -0.17957183 -0.00864162
v 0.23082292 -0.24791727 -0.00862082
v 0.23082292 -0.26506126 -0.00861053
v 0.23082292 -0.28212843 -0.00860013
v 0.23082292 -0.21378298 -0.00863122
v 0.23082292 -0.29927242 -0.00851715
v -0.26508226 0.36319386 0.02683046
v 0.08254769 0.37641706 0.01683189
v 0.24798730 0.38956334 0.02471456
v 0.26508271 0.38964021 0.02474570
v 0.28217813 0.38018412 0.01022498
v 0.29389677 0.37833902 0.01310836
v 0.30789024 0.35919615 -0.00005362
v 0.29927359 -0.33348359 -0.00735552
v 0.28217813 -0.35055071 -0.00545746
v 0.29927359 -0.31633955 -0.00838228
v 0.26508271 -0.36392764 -0.00160946
v 0.24798730 -0.36346640 -0.00144350
v 0.24798730 -0.29927242 -0.00877639
v 0.26508271 -0.29927242 -0.00900464
v 0.29927359 -0.29927242 -0.00857933
v 0.26508271 -0.37246120 0.00191702
v 0.24798730 -0.38107168 0.01049462
v 0.23082292 -0.38091790 0.01078505
v 0.23082292 -0.38891331 0.02565844
v -0.24957230 0.19982599 0.09675812
v -0.24240328 0.20851332 0.09675812
v -0.23475167 0.21712376 0.09675812
v -0.22620398 0.22627239 0.09675812
v -0.21758734 0.23488281 0.09675812
v -0.20903961 0.24303200 0.09675812
v -0.20090549 0.25025862 0.09675812
v -0.19056552 0.25879218 0.09675812
v -0.17960515 0.26717202 0.09675812
v -0.16195826 0.27855006 0.09675812
v -0.14617257 0.28685303 0.09675812
v -0.12831887 0.29569410 0.09675812
v -0.29927313 0.34351284 0.06932431
v -0.11067198 0.30230570 0.09675812
v -0.09405909 0.30761036 0.09675812
v -0.07799766 0.31237686 0.09675812
v -0.05979930 0.31606705 0.09675812
v -0.29389636 0.36011868 0.05292628
v -0.26508226 0.36534647 0.04276175
v -0.28217772 0.36088747 0.05410866
v 0.23771624 0.39356105 0.03377964
v 0.23082292 -0.39114283 0.04276175
v 0.23082292 -0.38399308 0.05985472
v 0.24798730 -0.38445437 0.05985472
v 0.24798730 -0.37715084 0.06924133
v 0.24798730 -0.36769475 0.07390874
v -0.00851302 -0.31534016 0.09675812
v -0.02292006 -0.31457136 0.09675812
v 0.31071648 0.35058568 -0.00105969
v 0.31692046 0.33336482 -0.00260513
v 0.31636901 0.31637456 -0.00467954
v 0.31636901 -0.26506126 -0.00599674
v 0.24798730 0.39379169 0.03326107
v 0.26508271 0.39371483 0.03330256
v 0.27480232 0.39348418 0.03382113
v 0.28121309 0.38917897 0.02714159
v 0.29948038 0.38102978 0.02612518
v 0.30533970 0.37449504 0.02073173
v 0.31119902 0.36219442 0.00855507
v 0.32367590 0.35742792 0.01947673
v 0.32760510 0.34604982 0.01279718
v 0.32298657 0.33905385 0.00138804
v 0.32622644 0.32767575 -0.00064488
v 0.31643792 -0.33256101 -0.00278149
v 0.31078539 -0.34616863 -0.00163015
v 0.29927359 -0.35131951 -0.00296814
v 0.31636901 -0.31633955 -0.00482471
v 0.29362106 -0.36046808 -0.00063449
v 0.28217813 -0.36269761 -0.00130863
v 0.31636901 -0.28212843 -0.00588266
v 0.31636901 -0.29927242 -0.00540557
v 0.28217813 -0.37123117 0.00420923
v 0.26508271 -0.38068725 0.01047387
v 0.24798730 -0.38914395 0.02565844
v 0.24798730 -0.39160412 0.04276175
v 0.23750945 0.37649392 0.06867086
v -0.28217772 0.35250769 0.06266551
v -0.04270388 0.31845031 0.09675812
v -0.02829685 0.31998785 0.09675812
v -0.02560845 0.32021849 0.09675812
v 0.23771624 0.39356105 0.03481685
v 0.24798730 0.38256737 0.05985472
v 0.24798730 0.39071651 0.04404790
v 0.26508271 -0.39068154 0.04276175
v 0.26487593 -0.38191734 0.06125494
v 0.25901661 -0.37653582 0.06872275
v 0.26487593 -0.36900165 0.07202103
v 0.26508271 -0.35055071 0.07941621
v 0.24798730 -0.35055071 0.08002817
v 0.00851347 -0.31541702 0.09675812
v 0.32691577 0.31637456 -0.00095601
v 0.32739831 -0.26506126 -0.00201397
v 0.24798730 0.39379169 0.03551179
v 0.26508271 0.39371483 0.03543916
v 0.30919994 0.37718585 0.03213053
v 0.27480232 0.39348418 0.03472353
v 0.31643792 0.36772972 0.02580365
v 0.33070709 0.35127761 0.02536800
v 0.32643323 0.36104125 0.03087552
v 0.33953053 0.33790068 0.02565844
v 0.34235682 0.32567692 0.01628217
v 0.33546350 0.31637456 0.00706152
v 0.32546819 -0.32625697 -0.00052041
v 0.32215936 -0.33763502 0.00336913
v 0.30499504 -0.35754668 0.00131546
v 0.32595069 -0.31633955 -0.00101820
v 0.32712256 -0.28212843 -0.00187910
v 0.32650219 -0.29927242 -0.00146419
v 0.29203561 -0.37692019 0.01575319
v 0.28217813 -0.37884221 0.01276609
v 0.26508271 -0.38822143 0.02565844
v 0.24798730 0.37664770 0.06876424
v -0.01120142 0.32106415 0.09675812
v -0.00851302 0.32121793 0.09675812
v 0.25956806 0.37649392 0.06862937
v 0.26515168 0.38095292 0.06138976
v 0.26508271 0.39056278 0.04397527
v 0.28217813 -0.38476188 0.02565844
v 0.28217813 -0.38706821 0.04276175
v 0.28217813 -0.38122541 0.05702318
v 0.27045949 -0.37553638 0.06789300
v 0.28217813 -0.36454270 0.07159578
v 0.28217813 -0.35055071 0.07753890
v 0.28217813 -0.33348359 0.08144914
v 0.26508271 -0.33348359 0.08291155
v 0.07689517 -0.30711410 0.09675812
v 0.06097161 -0.31049674 0.09675812
v 0.04270432 -0.31303377 0.09675812
v 0.02829729 -0.31434072 0.09675812
v 0.02560889 -0.31457136 0.09675812
v 0.33518775 0.29923052 0.00674000
v 0.33553242 -0.21378298 0.00576502
v 0.34435585 -0.19663896 0.01423890
v 0.33580817 -0.24791727 0.00609695
v 0.33594599 -0.26506126 0.00629400
v 0.30919994 0.37718585 0.03649711
v 0.28121309 0.38956334 0.04136153
v 0.29954930 0.38110664 0.04241948
v 0.33987519 0.33828505 0.04276175
v 0.32643323 0.36104125 0.03790768
v 0.34401118 0.32936712 0.02565844
v 0.34614814 0.31637456 0.02565844
v 0.34270148 0.31637456 0.01561838
v 0.34283931 0.29923052 0.01528645
v 0.34414906 -0.05979436 0.01443600
v 0.34421797 -0.09400551 0.01435302
v 0.34435585 -0.16242781 0.01427004
v 0.34373548 -0.32787143 0.03095850
v 0.32863910 -0.33256101 0.00886625
v 0.34325294 -0.28212843 0.01549391
v 0.34256361 -0.29481343 0.01639630
v 0.34180531 -0.30619153 0.01749569
v 0.34090919 -0.31633955 0.01923818
v 0.32622644 -0.34378538 0.01476787
v 0.31630004 -0.35070449 0.00803649
v 0.31050969 -0.36192881 0.01271425
v 0.33567029 -0.28212843 0.00694745
v 0.29830851 -0.37861156 0.02692379
v 0.30340958 -0.37330691 0.02206972
v 0.30823490 -0.37661269 0.03347886
v 0.00851347 0.32121793 0.09675812
v 0.24798730 0.36765285 0.07323455
v 0.27094203 0.37587891 0.06811080
v 0.26515168 0.36919039 0.07193805
v 0.28217813 0.38064541 0.05747957
v 0.30058329 -0.37961095 0.04305218
v 0.30713194 -0.37584389 0.04893306
v 0.29575797 -0.37853465 0.05374564
v 0.30823490 -0.37661269 0.03754467
v 0.28217813 -0.37307627 0.06558003
v 0.29486185 -0.36131379 0.06994662
v 0.30003184 -0.35147329 0.07255001
v 0.29927359 -0.33348359 0.07804713
v 0.21000512 -0.24422707 0.09675812
v 0.29927359 -0.31633955 0.07989335
v 0.28838211 -0.13121495 0.09675812
v 0.28700345 -0.13405946 0.09675812
v 0.28135097 -0.14559132 0.09675812
v 0.28045480 -0.14735954 0.09675812
v 0.27535378 -0.15681565 0.09675812
v 0.27121779 -0.16365788 0.09675812
v 0.26887404 -0.16750183 0.09675812
v 0.26122248 -0.18003310 0.09675812
v 0.25329516 -0.19179559 0.09675812
v 0.25026209 -0.19610081 0.09675812
v 0.24136969 -0.20809394 0.09675812
v 0.23454533 -0.21693501 0.09675812
v 0.22579081 -0.22792874 0.09675812
v 0.18098426 -0.26575319 0.09675812
v 0.16016643 -0.27797695 0.09675812
v 0.14555261 -0.28443477 0.09675812
v 0.12528625 -0.29289147 0.09675812
v 0.09281873 -0.30280884 0.09675812
v 0.34435585 -0.17957183 0.01423890
v 0.35014626 -0.23085014 0.02565844
v 0.34428694 -0.21378298 0.01432188
v 0.34373548 -0.26506126 0.01484051
v 0.34414906 -0.23085014 0.01446709
v 0.34394227 -0.24791727 0.01464340
v 0.30540861 0.37464882 0.04788551
v 0.31650688 0.36780658 0.04290697
v 0.29403464 0.37849275 0.05413980
v 0.33098285 0.35150825 0.04326998
v 0.32388269 0.35781234 0.04930648
v 0.32808764 0.34643424 0.05574743
v 0.34263252 0.32613816 0.05235582
v 0.34414906 0.32975149 0.04276175
v 0.34656172 0.31637456 0.04276175
v 0.34642384 0.29923052 0.02565844
v 0.34373548 -0.32794829 0.04276175
v 0.33870332 -0.33648185 0.04276175
v 0.33015564 -0.34909004 0.04276175
v 0.32891485 -0.34747553 0.02565844
v 0.33760041 -0.33356045 0.02541989
v 0.34538985 -0.31633955 0.02778469
v 0.34711318 -0.31633955 0.04276175
v 0.34883651 -0.28212843 0.02565844
v 0.34987050 -0.26506126 0.02565844
v 0.34607918 -0.29996435 0.02418563
v 0.32250403 -0.35600914 0.02565844
v 0.31299126 -0.36761784 0.02692379
v 0.32374487 -0.35762360 0.04276175
v 0.02292050 0.32060291 0.09675812
v 0.02560889 0.32044913 0.09675812
v 0.26508271 0.35058568 0.07917767
v 0.28217813 0.37388003 0.06603643
v 0.28217813 0.36534647 0.07181358
v 0.29927359 0.36134876 0.06982220
v 0.28217813 0.35058568 0.07776710
v 0.31395635 -0.36915543 0.04305218
v 0.32788086 -0.34601485 0.05468952
v 0.31209514 -0.36438893 0.05611044
v 0.30623582 -0.35777733 0.06750924
v 0.30099692 -0.36861727 0.06063264
v 0.31092327 -0.34639923 0.07024745
v 0.31650688 -0.33309916 0.07195880
v 0.31636901 -0.31633955 0.07500814
v 0.30651158 -0.08016729 0.09675812
v 0.30251341 -0.09400551 0.09675812
v 0.29665409 -0.11130329 0.09675812
v 0.29589585 -0.11330214 0.09675812
v 0.29217344 -0.12283513 0.09675812
v 0.28914041 -0.12960048 0.09675812
v 0.35097346 -0.26506126 0.04276175
v 0.30789024 0.35919615 0.06847381
v 0.31140581 0.36227128 0.05985472
v 0.32016033 0.35150825 0.06080895
v 0.32353803 0.34028393 0.06714622
v 0.33332654 0.33321104 0.05975099
v 0.32719152 0.32890583 0.06997776
v 0.33711787 0.31637456 0.06182541
v 0.34304615 0.31637456 0.05327890
v 0.34325294 0.29923052 0.05373530
v 0.34683747 0.29923052 0.04276175
v 0.34263252 -0.32594941 0.05205504
v 0.34952584 -0.29927242 0.04276175
v 0.34373548 -0.31633955 0.05344486
v 0.35083559 -0.28212843 0.04276175
v 0.04001593 0.31929596 0.09675812
v 0.28217813 0.33344169 0.08135576
v 0.05711135 0.31737395 0.09675812
v 0.07420678 0.31476011 0.09675812
v 0.09019928 0.31153115 0.09675812
v 0.09274980 0.31083927 0.09675812
v 0.29927359 0.35058568 0.07415764
v 0.29927359 0.33344169 0.07863834
v 0.32229724 -0.33855759 0.06608827
v 0.31719622 -0.35185766 0.06109938
v 0.33277509 -0.33225350 0.05907685
v 0.32622644 -0.32710263 0.06937620
v 0.32746723 -0.31633955 0.07016447
v 0.31106114 -0.05979436 0.09675812
v 0.31057860 -0.06233137 0.09675812
v 0.30864848 -0.07171061 0.09675812
v 0.30706303 -0.07801469 0.09675812
v 0.34525197 -0.28212843 0.05552963
v 0.31113006 0.35058568 0.07009183
v 0.31726513 0.33413362 0.07272632
v 0.31636901 0.31637456 0.07618016
v 0.32857019 0.31637456 0.07086975
v 0.31692046 0.02561820 0.09675812
v 0.31760979 0.00855106 0.09675812
v 0.33725574 0.29923052 0.06229215
v 0.33601496 -0.31633955 0.06200172
v 0.34483839 -0.29927242 0.05491767
v 0.29927359 0.31637456 0.08044302
v 0.12625132 0.29976867 0.09675812
v 0.12838825 0.29892301 0.09675812
v 0.14052048 0.29338772 0.09675812
v 0.16182084 0.28339348 0.09675812
v 0.16361309 0.28247091 0.09675812
v 0.19394370 0.26486563 0.09675812
v 0.19676995 0.26278989 0.09675812
v 0.21193524 0.24941296 0.09675812
v 0.21372752 0.24779850 0.09675812
v 0.21517509 0.24649156 0.09675812
v 0.23061613 0.23057760 0.09675812
v 0.23206371 0.22904001 0.09675812
v 0.24633288 0.21143472 0.09675812
v 0.24846984 0.20859020 0.09675812
v 0.25956806 0.19198433 0.09675812
v 0.33677320 -0.29927242 0.06346418
v 0.31726513 -0.00851607 0.09675812
v 0.31595538 -0.02558321 0.09675812
v 0.31567968 -0.02827398 0.09675812
v 0.31388738 -0.04272723 0.09675812
v 0.31347380 -0.04549487 0.09675812
v 0.30492607 0.09319483 0.09675812
v 0.30644261 0.08804394 0.09675812
v 0.30754557 0.08427687 0.09675812
v 0.30844169 0.08066355 0.09675812
v 0.30940673 0.07635833 0.09675812
v 0.31271556 0.06005999 0.09675812
v 0.31526605 0.04268533 0.09675812
v 0.31554180 0.03999457 0.09675812
v 0.26859834 0.17576287 0.09675812
v 0.27652565 0.16146338 0.09675812
v 0.27783535 0.15900325 0.09675812
v 0.28555587 0.14324306 0.09675812
v 0.28976078 0.13463261 0.09675812
v 0.29286277 0.12740598 0.09675812
v 0.29341427 0.12609905 0.09675812
v 0.29417252 0.12417707 0.09675812
v 0.29913572 0.11110764 0.09675812
v 0.30003184 0.10841687 0.09675812
f 1 2 3
f 1 3 4
f 1 4 5
f 1 5 6
f 1 6 7
f 1 7 8
f 1 8 9
f 1 9 2
f 2 10 11
f 2 11 3
f 2 9 12
f 2 12 13
f 2 13 14
f 2 14 15
f 2 15 10
f 3 11 16
f 3 16 17
f 3 17 18
f 3 18 4
f 4 18 19
f 4 19 5
f 5 20 21
f 5 21 22
f 5 22 7
f 5 7 6
f 5 19 23
f 5 23 20
f 7 22 24
f 7 24 8
f 8 24 25
f 8 25 26
f 8 26 12
f 8 12 9
f 10 15 11
f 11 15 27
f 11 27 28
f 11 28 16
f 12 26 29
f 12 29 30
f 12 30 31
f 12 31 14
f 12 14 13
f 14 31 15
f 15 31 32
f 15 32 27
f 16 28 33
f 16 33 34
f 16 34 35
f 16 35 17
f 17 35 36
f 17 36 18
f 18 36 37
f 18 37 38
f 18 38 19
f 19 38 23
f 20 23 39
f 20 39 40
f 20 40 41
f 20 41 42
f 20 42 21
f 21 42 41
f 21 41 40
f 21 40 72
f 21 72 71
f 21 71 70
f 21 70 69
f 21 69 68
f 21 68 112
f 21 112 111
f 21 111 110
f 21 110 109
f 21 109 108
f 21 108 107
f 21 107 106
f 21 106 105
f 21 105 184
f 21 184 183
f 21 183 182
f 21 182 181
f 21 181 180
f 21 180 179
f 21 179 178
f 21 178 177
f 21 177 176
f 21 176 175
f 21 175 174
f 21 174 173
f 21 173 172
f 21 172 171
f 21 171 170
f 21 170 169
f 21 169 168
f 21 168 167
f 21 167 166
f 21 166 165
f 21 165 164
f 21 164 163
f 21 163 162
f 21 162 161
f 21 161 160
f 21 160 159
f 21 159 158
f 21 158 157
f 21 157 156
f 21 156 155
f 21 155 193
f 21 193 192
f 21 192 191
f 21 191 190
f 21 190 189
f 21 189 188
f 21 188 187
f 21 187 186
f 21 186 257
f 21 257 256
f 21 256 255
f 21 255 324
f 21 324 323
f 21 323 366
f 21 366 406
f 21 406 405
f 21 405 404
f 21 404 403
f 21 403 402
f 21 402 469
f 21 469 468
f 21 468 467
f 21 467 466
f 21 466 465
f 21 465 450
f 21 450 464
f 21 464 463
f 21 463 462
f 21 462 461
f 21 461 460
f 21 460 459
f 21 459 458
f 21 458 457
f 21 457 456
f 21 456 455
f 21 455 454
f 21 454 453
f 21 453 452
f 21 452 519
f 21 519 518
f 21 518 517
f 21 517 516
f 21 516 515
f 21 515 514
f 21 514 551
f 21 551 550
f 21 550 549
f 21 549 548
f 21 548 583
f 21 583 582
f 21 582 581
f 21 581 580
f 21 580 579
f 21 579 558
f 21 558 557
f 21 557 591
f 21 591 590
f 21 590 589
f 21 589 588
f 21 588 587
f 21 587 586
f 21 586 585
f 21 585 584
f 21 584 601
f 21 601 600
f 21 600 599
f 21 599 598
f 21 598 597
f 21 597 596
f 21 596 595
f 21 595 594
f 21 594 593
f 21 593 592
f 21 592 577
f 21 577 576
f 21 576 575
f 21 575 574
f 21 574 573
f 21 573 572
f 21 572 571
f 21 571 570
f 21 570 569
f 21 569 568
f 21 568 567
f 21 567 566
f 21 566 565
f 21 565 564
f 21 564 563
f 21 563 540
f 21 540 539
f 21 539 538
f 21 538 537
f 21 537 535
f 21 535 500
f 21 500 499
f 21 499 437
f 21 437 390
f 21 390 389
f 21 389 356
f 21 356 355
f 21 355 354
f 21 354 313
f 21 313 312
f 21 312 311
f 21 311 310
f 21 310 308
f 21 308 307
f 21 307 306
f 21 306 305
f 21 305 304
f 21 304 303
f 21 303 302
f 21 302 301
f 21 301 300
f 21 300 299
f 21 299 298
f 21 298 297
f 21 297 241
f 21 241 240
f 21 240 239
f 21 239 238
f 21 238 237
f 21 237 236
f 21 236 235
f 21 235 234
f 21 234 233
f 21 233 232
f 21 232 231
f 21 231 139
f 21 139 136
f 21 136 86
f 21 86 73
f 21 73 43
f 21 43 22
f 22 43 24
f 23 38 44
f 23 44 45
f 23 45 46
f 23 46 39
f 24 43 25
f 25 43 29
f 25 29 26
f 27 32 47
f 27 47 48
f 27 48 49
f 27 49 28
f 28 50 51
f 28 51 33
f 28 49 50
f 29 52 53
f 29 53 30
f 29 43 52
f 30 53 54
f 30 54 55
f 30 55 56
f 30 56 31
f 31 56 32
f 32 56 55
f 32 55 57
f 32 57 58
f 32 58 47
f 33 51 34
f 34 51 59
f 34 59 35
f 35 59 60
f 35 60 36
f 36 60 61
f 36 61 62
f 36 62 63
f 36 63 37
f 37 63 38
f 38 63 64
f 38 64 65
f 38 65 44
f 39 46 66
f 39 66 67
f 39 67 68
f 39 68 69
f 39 69 70
f 39 70 71
f 39 71 72
f 39 72 40
f 43 73 52
f 44 65 45
f 45 65 64
f 45 64 74
f 45 74 75
f 45 75 76
f 45 76 66
f 45 66 46
f 47 58 48
f 48 77 49
f 48 58 78
f 48 78 79
f 48 79 77
f 49 77 50
f 50 80 51
f 50 77 80
f 51 80 81
f 51 81 82
f 51 82 59
f 52 83 84
f 52 84 85
f 52 85 53
f 52 73 86
f 52 86 83
f 53 85 87
f 53 87 54
f 54 87 88
f 54 88 55
f 55 88 89
f 55 89 90
f 55 90 91
f 55 91 57
f 57 91 58
f 58 91 92
f 58 92 93
f 58 93 78
f 59 82 94
f 59 94 95
f 59 95 61
f 59 61 60
f 61 95 62
f 62 95 96
f 62 96 97
f 62 97 98
f 62 98 99
f 62 99 63
f 63 99 64
f 64 99 98
f 64 98 100
f 64 100 101
f 64 101 102
f 64 102 75
f 64 75 74
f 66 103 67
f 66 76 104
f 66 104 103
f 67 103 105
f 67 105 106
f 67 106 107
f 67 107 108
f 67 108 109
f 67 109 110
f 67 110 111
f 67 111 112
f 67 112 68
f 75 102 101
f 75 101 113
f 75 113 114
f 75 114 104
f 75 104 76
f 77 79 115
f 77 115 116
f 77 116 117
f 77 117 118
f 77 118 119
f 77 119 120
f 77 120 121
f 77 121 122
f 77 122 123
f 77 123 124
f 77 124 125
f 77 125 80
f 78 93 79
f 79 93 126
f 79 126 127
f 79 127 128
f 79 128 129
f 79 129 115
f 80 125 130
f 80 130 131
f 80 131 132
f 80 132 133
f 80 133 81
f 81 134 94
f 81 94 82
f 81 133 135
f 81 135 134
f 83 86 136
f 83 136 84
f 84 137 138
f 84 138 85
f 84 136 139
f 84 139 137
f 85 138 87
f 87 138 140
f 87 140 141
f 87 141 142
f 87 142 88
f 88 142 89
f 89 142 141
f 89 141 143
f 89 143 144
f 89 144 145
f 89 145 90
f 90 146 92
f 90 92 91
f 90 145 146
f 92 146 93
f 93 146 145
f 93 145 147
f 93 147 126
f 94 134 148
f 94 148 149
f 94 149 97
f 94 97 96
f 94 96 95
f 97 149 150
f 97 150 151
f 97 151 152
f 97 152 153
f 97 153 98
f 98 153 100
f 100 153 101
f 101 153 152
f 101 152 154
f 101 154 113
f 103 104 155
f 103 155 156
f 103 156 157
f 103 157 158
f 103 158 159
f 103 159 160
f 103 160 161
f 103 161 162
f 103 162 163
f 103 163 164
f 103 164 165
f 103 165 166
f 103 166 167
f 103 167 168
f 103 168 169
f 103 169 170
f 103 170 171
f 103 171 172
f 103 172 173
f 103 173 174
f 103 174 175
f 103 175 176
f 103 176 177
f 103 177 178
f 103 178 179
f 103 179 180
f 103 180 181
f 103 181 182
f 103 182 183
f 103 183 184
f 103 184 105
f 104 114 185
f 104 185 186
f 104 186 187
f 104 187 188
f 104 188 189
f 104 189 190
f 104 190 191
f 104 191 192
f 104 192 193
f 104 193 155
f 113 154 194
f 113 194 114
f 114 194 185
f 115 195 196
f 115 196 116
f 115 129 195
f 116 196 197
f 116 197 117
f 117 197 198
f 117 198 199
f 117 199 200
f 117 200 201
f 117 201 118
f 118 201 200
f 118 200 119
f 119 200 120
f 120 200 202
f 120 202 121
f 121 203 204
f 121 204 205
f 121 205 206
f 121 206 122
f 121 202 207
f 121 207 203
f 122 206 209
f 122 209 123
f 123 208 210
f 123 210 124
f 123 209 208
f 124 210 211
f 124 211 125
f 125 211 212
f 125 212 130
f 126 147 213
f 126 213 127
f 127 213 128
f 128 214 215
f 128 215 216
f 128 216 217
f 128 217 129
f 128 213 214
f 129 217 195
f 130 212 132
f 130 132 131
f 132 218 219
f 132 219 220
f 132 220 133
f 132 212 221
f 132 221 222
f 132 222 223
f 132 223 218
f 133 220 224
f 133 224 225
f 133 225 135
f 134 135 148
f 135 224 226
f 135 226 227
f 135 227 148
f 135 225 224
f 137 228 229
f 137 229 230
f 137 230 138
f 137 139 231
f 137 231 232
f 137 232 233
f 137 233 234
f 137 234 235
f 137 235 236
f 137 236 237
f 137 237 238
f 137 238 239
f 137 239 240
f 137 240 241
f 137 241 228
f 138 230 242
f 138 242 243
f 138 243 141
f 138 141 140
f 141 242 244
f 141 244 245
f 141 245 143
f 141 243 242
f 143 245 144
f 144 245 246
f 144 246 145
f 145 246 247
f 145 247 248
f 145 248 147
f 147 248 249
f 147 249 213
f 148 227 250
f 148 250 150
f 148 150 149
f 150 250 151
f 151 250 251
f 151 251 252
f 151 252 253
f 151 253 154
f 151 154 152
f 154 253 194
f 185 194 254
f 185 254 255
f 185 255 256
f 185 256 257
f 185 257 186
f 194 253 258
f 194 258 254
f 195 259 260
f 195 260 196
f 195 217 261
f 195 261 259
f 196 260 262
f 196 262 197
f 197 262 263
f 197 263 264
f 197 264 265
f 197 265 198
f 198 266 267
f 198 267 199
f 198 265 268
f 198 268 269
f 198 269 266
f 199 267 200
f 200 267 202
f 202 267 207
f 203 207 267
f 203 267 204
f 204 267 270
f 204 270 271
f 204 271 205
f 205 271 269
f 205 269 206
f 206 269 209
f 208 272 276
f 208 276 210
f 208 209 269
f 208 269 272
f 210 273 274
f 210 274 275
f 210 275 211
f 210 276 273
f 211 275 277
f 211 277 212
f 212 277 222
f 212 222 221
f 213 249 278
f 213 278 279
f 213 279 214
f 214 279 280
f 214 280 215
f 215 280 281
f 215 281 282
f 215 282 216
f 216 282 283
f 216 283 284
f 216 284 261
f 216 261 217
f 218 285 286
f 218 286 219
f 218 223 287
f 218 287 285
f 219 286 288
f 219 288 289
f 219 289 220
f 220 289 224
f 222 277 290
f 222 290 291
f 222 291 223
f 223 291 265
f 223 265 292
f 223 292 287
f 224 289 226
f 226 293 294
f 226 294 295
f 226 295 227
f 226 289 288
f 226 288 293
f 227 251 250
f 227 295 296
f 227 296 251
f 228 241 297
f 228 297 298
f 228 298 299
f 228 299 300
f 228 300 301
f 228 301 302
f 228 302 303
f 228 303 304
f 228 304 305
f 228 305 306
f 228 306 307
f 228 307 308
f 228 308 229
f 229 309 242
f 229 242 230
f 229 308 310
f 229 310 311
f 229 311 312
f 229 312 313
f 229 313 309
f 242 309 314
f 242 314 244
f 244 314 245
f 245 314 246
f 246 314 247
f 247 315 249
f 247 249 248
f 247 314 316
f 247 316 315
f 249 315 317
f 249 317 278
f 251 296 252
f 252 296 318
f 252 318 253
f 253 318 319
f 253 319 258
f 254 258 319
f 254 319 320
f 254 320 321
f 254 321 322
f 254 322 323
f 254 323 324
f 254 324 255
f 259 325 326
f 259 326 260
f 259 261 284
f 259 284 325
f 260 326 327
f 260 327 262
f 262 327 263
f 263 327 328
f 263 328 264
f 264 328 292
f 264 292 265
f 265 291 272
f 265 272 269
f 265 269 268
f 266 269 271
f 266 271 270
f 266 270 267
f 272 291 276
f 273 291 274
f 273 276 291
f 274 291 275
f 275 291 290
f 275 290 277
f 278 317 280
f 278 280 279
f 280 317 329
f 280 329 281
f 281 329 330
f 281 330 331
f 281 331 282
f 282 331 332
f 282 332 283
f 283 332 333
f 283 333 334
f 283 334 284
f 284 334 335
f 284 335 336
f 284 336 337
f 284 337 338
f 284 338 339
f 284 339 325
f 285 340 341
f 285 341 342
f 285 342 286
f 285 287 343
f 285 343 340
f 286 342 344
f 286 344 345
f 286 345 288
f 287 292 346
f 287 346 347
f 287 347 343
f 288 345 293
f 292 328 346
f 293 348 349
f 293 349 294
f 293 345 348
f 294 350 296
f 294 296 295
f 294 349 350
f 296 350 351
f 296 351 318
f 309 352 353
f 309 353 316
f 309 316 314
f 309 313 354
f 309 354 355
f 309 355 356
f 309 356 352
f 315 316 357
f 315 357 317
f 316 352 358
f 316 358 359
f 316 359 357
f 316 353 352
f 317 357 369
f 317 369 329
f 318 351 320
f 318 320 319
f 320 351 360
f 320 360 361
f 320 361 321
f 321 361 362
f 321 362 363
f 321 363 322
f 322 363 364
f 322 364 365
f 322 365 366
f 322 366 323
f 325 339 326
f 326 339 327
f 327 339 367
f 327 367 328
f 328 368 346
f 328 367 368
f 329 369 370
f 329 370 330
f 330 370 372
f 330 372 331
f 331 371 333
f 331 333 332
f 331 372 412
f 331 412 371
f 333 371 334
f 334 371 373
f 334 373 335
f 335 373 336
f 336 374 337
f 336 373 375
f 336 375 374
f 337 374 376
f 337 376 377
f 337 377 338
f 338 377 339
f 339 377 378
f 339 378 367
f 340 343 379
f 340 379 341
f 341 379 380
f 341 380 381
f 341 381 342
f 342 381 344
f 343 382 379
f 343 347 383
f 343 383 384
f 343 384 382
f 344 381 348
f 344 348 345
f 346 368 383
f 346 383 347
f 348 385 386
f 348 386 349
f 348 381 385
f 349 386 387
f 349 387 350
f 350 387 360
f 350 360 351
f 352 388 358
f 352 356 389
f 352 389 390
f 352 390 388
f 357 359 369
f 358 388 391
f 358 391 392
f 358 392 393
f 358 393 359
f 359 393 370
f 359 370 369
f 360 387 394
f 360 394 395
f 360 395 396
f 360 396 361
f 361 396 397
f 361 397 362
f 362 397 363
f 363 397 398
f 363 398 399
f 363 399 364
f 364 399 400
f 364 400 401
f 364 401 402
f 364 402 403
f 364 403 365
f 365 403 404
f 365 404 405
f 365 405 406
f 365 406 366
f 367 378 407
f 367 407 368
f 368 408 409
f 368 409 410
f 368 410 411
f 368 411 383
f 368 407 408
f 370 393 372
f 371 375 373
f 371 412 416
f 371 416 375
f 372 393 413
f 372 413 414
f 372 414 412
f 374 375 376
f 375 415 376
f 375 416 415
f 376 415 417
f 376 417 377
f 377 417 418
f 377 418 419
f 377 419 378
f 378 419 420
f 378 420 421
f 378 421 422
f 378 422 423
f 378 423 407
f 379 424 425
f 379 425 380
f 379 382 426
f 379 426 427
f 379 427 428
f 379 428 429
f 379 429 424
f 380 430 431
f 380 431 381
f 380 425 430
f 381 432 385
f 381 431 432
f 382 384 383
f 382 383 433
f 382 433 426
f 383 411 433
f 385 434 394
f 385 394 386
f 385 432 435
f 385 435 436
f 385 436 434
f 386 394 387
f 388 390 437
f 388 437 438
f 388 438 391
f 391 439 392
f 391 438 440
f 391 440 439
f 392 441 393
f 392 439 441
f 393 441 413
f 394 434 436
f 394 436 395
f 395 442 443
f 395 443 444
f 395 444 396
f 395 436 445
f 395 445 442
f 396 444 446
f 396 446 397
f 397 446 447
f 397 447 398
f 398 447 399
f 399 447 448
f 399 448 449
f 399 449 400
f 400 450 401
f 400 449 451
f 400 451 452
f 400 452 453
f 400 453 454
f 400 454 455
f 400 455 456
f 400 456 457
f 400 457 458
f 400 458 459
f 400 459 460
f 400 460 461
f 400 461 462
f 400 462 463
f 400 463 464
f 400 464 450
f 401 450 465
f 401 465 466
f 401 466 467
f 401 467 468
f 401 468 469
f 401 469 402
f 407 423 408
f 408 423 470
f 408 470 409
f 409 470 471
f 409 471 472
f 409 472 411
f 409 411 410
f 411 473 433
f 411 472 474
f 411 474 475
f 411 475 473
f 412 414 476
f 412 476 477
f 412 477 416
f 413 441 478
f 413 478 414
f 414 478 476
f 415 479 480
f 415 480 481
f 415 481 482
f 415 482 483
f 415 483 417
f 415 416 479
f 416 480 479
f 416 477 480
f 417 483 484
f 417 484 418
f 418 484 530
f 418 530 485
f 418 485 419
f 419 485 420
f 420 485 471
f 420 471 421
f 421 471 422
f 422 471 423
f 423 471 470
f 424 486 487
f 424 487 488
f 424 488 489
f 424 489 490
f 424 490 430
f 424 430 425
f 424 429 491
f 424 491 492
f 424 492 486
f 426 493 427
f 426 433 473
f 426 473 494
f 426 494 493
f 427 493 495
f 427 495 428
f 428 495 491
f 428 491 429
f 430 490 489
f 430 489 496
f 430 496 432
f 430 432 431
f 432 496 497
f 432 497 436
f 432 436 435
f 436 497 496
f 436 496 489
f 436 489 488
f 436 488 498
f 436 498 445
f 437 499 438
f 438 499 500
f 438 500 501
f 438 501 440
f 439 502 441
f 439 440 503
f 439 503 504
f 439 504 502
f 440 501 505
f 440 505 503
f 441 502 478
f 442 445 443
f 443 445 506
f 443 506 498
f 443 498 507
f 443 507 508
f 443 508 509
f 443 509 510
f 443 510 444
f 444 510 446
f 445 498 506
f 446 510 447
f 447 510 509
f 447 509 448
f 448 511 449
f 448 509 511
f 449 511 512
f 449 512 513
f 449 513 451
f 451 513 514
f 451 514 515
f 451 515 516
f 451 516 517
f 451 517 518
f 451 518 519
f 451 519 452
f 471 520 494
f 471 494 472
f 471 485 520
f 472 494 474
f 473 475 494
f 474 494 475
f 476 478 521
f 476 521 522
f 476 522 480
f 476 480 477
f 478 502 521
f 480 522 521
f 480 521 523
f 480 523 481
f 481 523 524
f 481 524 525
f 481 525 482
f 482 525 526
f 482 526 527
f 482 527 528
f 482 528 484
f 482 484 483
f 484 528 529
f 484 529 530
f 485 530 520
f 486 492 531
f 486 531 487
f 487 531 488
f 488 531 507
f 488 507 498
f 491 495 493
f 491 493 532
f 491 532 492
f 492 533 531
f 492 532 533
f 493 534 532
f 493 494 534
f 494 520 534
f 500 535 501
f 501 536 505
f 501 535 537
f 501 537 538
f 501 538 539
f 501 539 540
f 501 540 536
f 502 504 521
f 503 505 504
f 504 505 541
f 504 541 521
f 505 536 542
f 505 542 541
f 507 543 544
f 507 544 508
f 507 531 545
f 507 545 543
f 508 544 509
f 509 544 543
f 509 543 511
f 511 543 546
f 511 546 512
f 512 546 513
f 513 546 547
f 513 547 548
f 513 548 549
f 513 549 550
f 513 550 551
f 513 551 514
f 520 552 534
f 520 530 529
f 520 529 552
f 521 541 553
f 521 553 526
f 521 526 524
f 521 524 523
f 524 526 525
f 526 553 554
f 526 554 555
f 526 555 556
f 526 556 527
f 527 556 557
f 527 557 558
f 527 558 559
f 527 559 529
f 527 529 528
f 529 559 558
f 529 558 552
f 531 546 545
f 531 533 560
f 531 560 546
f 532 561 533
f 532 534 561
f 533 561 560
f 534 552 561
f 536 562 542
f 536 540 563
f 536 563 564
f 536 564 565
f 536 565 566
f 536 566 567
f 536 567 568
f 536 568 569
f 536 569 570
f 536 570 571
f 536 571 572
f 536 572 573
f 536 573 574
f 536 574 575
f 536 575 576
f 536 576 577
f 536 577 562
f 541 542 554
f 541 554 553
f 542 562 555
f 542 555 554
f 543 545 546
f 546 560 547
f 547 560 578
f 547 578 579
f 547 579 580
f 547 580 581
f 547 581 582
f 547 582 583
f 547 583 548
f 552 579 578
f 552 578 561
f 552 558 579
f 555 562 584
f 555 584 585
f 555 585 586
f 555 586 587
f 555 587 588
f 555 588 589
f 555 589 556
f 556 589 590
f 556 590 591
f 556 591 557
f 560 561 578
f 562 577 592
f 562 592 593
f 562 593 594
f 562 594 595
f 562 595 596
f 562 596 597
f 562 597 598
f 562 598 599
f 562 599 600
f 562 600 601
f 562 601 584

