# https://github.com/mikedh/trimesh
v -0.00850440 -0.31538058 0.09675817
v -0.02564923 -0.31444572 0.09675817
v 0.00851619 -0.31538058 0.09675817
v 0.00851619 -0.26857565 0.41903054
v -0.00850440 -0.26851337 0.41903054
v -0.04006083 -0.31294998 0.09675817
v -0.02564923 -0.26732921 0.41903054
v 0.01118731 -0.31525590 0.09675817
v 0.02559891 -0.31457034 0.09675817
v 0.02559891 -0.26751617 0.41903054
v 0.01907642 -0.17122648 1.07834681
v 0.00851619 -0.17153810 1.07945864
v -0.00850440 -0.17147577 1.07929981
v -0.01819496 -0.17116415 1.07802916
v -0.04291831 -0.31263834 0.09675817
v 0.04274374 -0.31301226 0.09675817
v 0.03106538 -0.17060324 1.06881684
v 0.01814463 -0.13701091 1.30087201
v 0.01454173 -0.11949804 1.41809086
v 0.00317396 -0.11993430 1.42063222
v 0.04479367 -0.31276296 0.09675817
v 0.04274374 -0.26539715 0.41903054
v 0.06100671 -0.31045704 0.09675817
v 0.00006802 -0.15390057 1.19715401
v 0.00000590 -0.15390057 1.19715401
v -0.00316217 -0.11993430 1.42063222
v -0.01459206 -0.11949804 1.41824968
v -0.01987217 -0.12024592 1.40681373
v -0.02981120 -0.17035395 1.06881684
v -0.06024950 -0.31002077 0.09675817
v -0.04273195 -0.26508557 0.41903054
v 0.04274374 -0.16798566 1.06881684
v 0.03733939 -0.13775880 1.27085258
v 0.02559891 -0.11058578 1.46224646
v 0.07690917 -0.30715386 0.09675817
v 0.01739921 -0.10267071 1.52260304
v 0.00851619 -0.10784356 1.49639559
v -0.00850440 -0.09431937 1.58200666
v -0.00850440 -0.10784356 1.49639559
v -0.01751165 -0.10267071 1.52276192
v -0.02067972 -0.10348091 1.51354957
v -0.02558711 -0.11831389 1.41189640
v -0.03496708 -0.11999662 1.38695956
v -0.04273195 -0.16730010 1.06881684
v -0.07093396 -0.25729511 0.43157837
v -0.05981466 -0.26172011 0.41903054
v -0.06950522 -0.30821339 0.09675817
v 0.05982646 -0.16268817 1.06881684
v 0.05156463 -0.13694859 1.24925128
v 0.04876928 -0.13601374 1.26068725
v 0.03522735 -0.12005895 1.38743609
v 0.07156694 -0.25741979 0.43237255
v 0.09281162 -0.30279125 0.09675817
v 0.11126096 -0.29718215 0.09675817
v 0.12529983 -0.29288183 0.09675817
v 0.03261835 -0.10217212 1.50259010
v 0.02559891 -0.10778123 1.47940044
v 0.02410805 -0.09986615 1.52927407
v 0.01708861 -0.08546944 1.62473274
v 0.00851619 -0.07986033 1.66745886
v 0.00851619 -0.09400775 1.58200666
v 0.00851619 -0.09681230 1.56485268
v 0.00851619 -0.10179818 1.53403904
v 0.02640645 -0.10472738 1.49671324
v -0.00850440 -0.08054589 1.66745886
v -0.01819496 -0.08578106 1.62647992
v -0.02564923 -0.09419472 1.56485268
v -0.02658102 -0.10478971 1.49687212
v -0.03291715 -0.10223444 1.50290775
v -0.03565038 -0.10316930 1.49163062
v -0.05981466 -0.16194029 1.06881684
v -0.07074760 -0.22307956 0.65346822
v -0.06938098 -0.23971991 0.54879721
v -0.09404221 -0.30160710 0.09675817
v -0.07764280 -0.30621900 0.09675817
v 0.06945489 -0.13738486 1.20017182
v 0.05168887 -0.10285768 1.45494018
v 0.04324069 -0.10516364 1.46129346
v 0.03560006 -0.10316930 1.49115409
v 0.14555062 -0.28446815 0.09675817
v 0.03473040 -0.08578106 1.59185431
v 0.02559891 -0.09051764 1.58200666
v 0.02559891 -0.09637604 1.54769871
v 0.02559891 -0.07524840 1.66745886
v 0.02665493 -0.07175829 1.68493049
v 0.00851619 -0.07693113 1.68461284
v -0.00850440 -0.07761669 1.68461284
v -0.02564923 -0.07437587 1.68461284
v -0.02564923 -0.07724275 1.66745886
v -0.02564923 -0.09139017 1.58200666
v -0.03310351 -0.08515782 1.60583162
v -0.03571251 -0.08621732 1.59455445
v -0.05142860 -0.10267071 1.45414600
v -0.07130667 -0.15527168 1.08263530
v -0.08540767 -0.20519275 0.73542612
v -0.08205325 -0.22114756 0.64139691
v -0.10845381 -0.29693285 0.09675817
v -0.08242596 -0.25555007 0.41903054
v 0.06889582 -0.11999662 1.30150737
v 0.16014858 -0.27798653 0.09675817
v 0.06697013 -0.10167353 1.41094340
v 0.06442326 -0.10011545 1.42809738
v 0.05218582 -0.08609268 1.54229838
v 0.05032226 -0.08497086 1.55373433
v 0.03535159 -0.06914070 1.67953016
v 0.03665608 -0.08671591 1.58200666
v 0.03305318 -0.06783191 1.69096617
v 0.02168541 -0.07020020 1.69541349
v 0.00851619 -0.07175829 1.69731950
v -0.00850440 -0.07213223 1.69779597
v -0.02564923 -0.07051182 1.69589002
v -0.03521555 -0.06895373 1.69382518
v -0.03720336 -0.07007555 1.68461284
v -0.03807303 -0.08727682 1.58200666
v -0.04322890 -0.08808703 1.56310550
v -0.05130436 -0.08546944 1.55627570
v -0.08230172 -0.15234248 1.06881684
v -0.12019429 -0.23965762 0.42887818
v -0.12342447 -0.29132375 0.09675817
v -0.12205786 -0.29188464 0.09675817
v -0.11118704 -0.29593566 0.09675817
v 0.08529523 -0.11956036 1.24782177
v 0.18102055 -0.26577113 0.09675817
v 0.06846099 -0.08553177 1.48813625
v 0.08554371 -0.10267071 1.33438584
v 0.05305549 -0.06982626 1.61615575
v 0.05168887 -0.06870444 1.62616227
v 0.04560121 -0.06409250 1.66745886
v 0.04174984 -0.06303301 1.68493049
v 0.05199947 -0.05206408 1.69398401
v 0.04274374 -0.05574117 1.69731950
v 0.02609586 -0.06004148 1.70240217
v 0.00851619 -0.06209816 1.70589649
v -0.00850440 -0.06265907 1.70637296
v -0.02676737 -0.05910663 1.70541996
v -0.03322775 -0.05069297 1.71002616
v -0.04161381 -0.05966754 1.69843133
v -0.05403760 -0.05387146 1.69573114
v -0.04577578 -0.06471574 1.68461284
v -0.04832265 -0.06646079 1.66745886
v -0.04925444 -0.08447226 1.56771165
v -0.06559173 -0.08341277 1.51354957
v -0.10367065 -0.13763415 1.08025282
v -0.10267674 -0.15396290 0.99225927
v -0.11845496 -0.20456951 0.64568541
v -0.15498091 -0.27586751 0.09675817
v -0.14547671 -0.28097802 0.09675817
v -0.14224653 -0.28253610 0.09675817
v 0.21003010 -0.24426953 0.09675817
v 0.08541946 -0.08540712 1.41904386
v 0.06902006 -0.06901606 1.55913466
v 0.12331203 -0.12317512 1.06881684
v 0.05342820 -0.05355985 1.68461284
v 0.06268393 -0.04128213 1.68365983
v 0.06734285 -0.03174664 1.68874251
v 0.05535389 -0.04271557 1.69716067
v 0.04286798 -0.04296486 1.70589649
v 0.03050631 -0.04882327 1.70923198
v 0.01913854 -0.05218873 1.71066151
v 0.00851619 -0.05355985 1.71145564
v -0.00850440 -0.05412076 1.71161446
v -0.02179786 -0.05293661 1.71113799
v -0.02676737 -0.04408668 1.71304400
v -0.03962600 -0.03928778 1.71177329
v -0.05099377 -0.03380332 1.71018498
v -0.04428492 -0.04408668 1.70827897
v -0.06950522 -0.03598464 1.69446048
v -0.06503266 -0.04682891 1.68461284
v -0.05646024 -0.05617743 1.68461284
v -0.05975254 -0.04209233 1.69890780
v -0.06888403 -0.06889141 1.57549451
v -0.12205786 -0.13869364 1.00051860
v -0.13441954 -0.15203087 0.88091726
v -0.11888980 -0.15340197 0.93619118
v -0.15317946 -0.22183312 0.42363668
v -0.11982157 -0.18817846 0.73574379
v -0.14261924 -0.22588414 0.43618452
v -0.15734143 -0.27455873 0.09675817
v 0.22574621 -0.22794082 0.09675817
v 0.13815846 -0.10422880 1.08215883
v 0.08548159 -0.06839282 1.48797743
v 0.13188444 -0.11426287 1.06881684
v 0.06852311 -0.05150317 1.62536809
v 0.06392631 -0.04470992 1.66745886
v 0.06864735 -0.03461352 1.67746533
v 0.06951701 -0.02034146 1.69461931
v 0.07057304 -0.02588824 1.68365983
v 0.05957798 -0.02501572 1.70176682
v 0.04864504 -0.02962765 1.70907315
v 0.03721515 -0.03741808 1.71129681
v 0.02516408 -0.04296486 1.71240859
v 0.00851619 -0.04271557 1.71479118
v -0.00850440 -0.04271557 1.71526766
v -0.02564923 -0.02563895 1.71717356
v -0.04428492 -0.02713471 1.71320282
v -0.05360276 -0.02239813 1.71129681
v -0.05950406 -0.02713471 1.70637296
v -0.07155515 -0.02563895 1.69700185
v -0.07658678 -0.02563895 1.68461284
v -0.07093396 -0.03829061 1.68461284
v -0.06683411 -0.04925953 1.66745886
v -0.08373046 -0.06627383 1.51354957
v -0.15411125 -0.11999662 0.94159152
v -0.13957540 -0.12261421 1.00051860
v -0.13752548 -0.13750950 0.94286218
v -0.13597251 -0.15321501 0.86836944
v -0.14963868 -0.18487531 0.64139691
v -0.14106625 -0.19110766 0.64139691
v -0.17224999 -0.20625225 0.43157837
v -0.18715853 -0.25586171 0.09675817
v -0.17945578 -0.26103455 0.09675817
v -0.17703314 -0.26259263 0.09675817
v 0.23450497 -0.21690958 0.09675817
v 0.14741419 -0.09400775 1.06881684
v 0.13753728 -0.08652894 1.14855106
v 0.11964701 -0.08540712 1.24813942
v 0.10355820 -0.06976394 1.38981858
v 0.23636852 -0.21454126 0.09675817
v 0.22220541 -0.15371360 0.42681335
v 0.10157040 -0.06671009 1.41094340
v 0.08597854 -0.05206408 1.54166303
v 0.08653761 -0.03642090 1.57898883
v 0.08548159 -0.03411493 1.59042483
v 0.07051092 -0.00850001 1.69604884
v 0.06106883 -0.00850001 1.70462583
v 0.05175099 -0.01822246 1.71050268
v 0.07448653 -0.00850001 1.68461284
v 0.08610278 -0.01903267 1.61091430
v 0.04286798 -0.02464178 1.71224977
v 0.02559891 -0.02563895 1.71622061
v 0.00851619 -0.02563895 1.71796779
v -0.00850440 -0.02563895 1.71828544
v -0.02564923 -0.00850001 1.71844437
v -0.04273195 -0.00850001 1.71574413
v -0.06391451 -0.00850001 1.70764367
v -0.05534210 -0.00850001 1.71209094
v -0.07360507 -0.00850001 1.69906668
v -0.08068663 -0.00850001 1.68461284
v -0.08584251 -0.01822246 1.64411038
v -0.07956849 -0.02563895 1.66745886
v -0.08497284 -0.03268150 1.62187377
v -0.08596675 -0.03517443 1.61043777
v -0.08497284 -0.05044367 1.57072949
v -0.15498091 -0.10410415 1.00051860
v -0.19119626 -0.12404764 0.72700796
v -0.18479801 -0.13258596 0.72700796
v -0.17082124 -0.13657465 0.78514089
v -0.15404913 -0.15402521 0.78736455
v -0.20641540 -0.24065477 0.09675817
v -0.19809147 -0.24763499 0.09675817
v -0.19728393 -0.24825821 0.09675817
v -0.19622790 -0.24906845 0.09675817
v 0.15343973 -0.08459691 1.06881684
v 0.20512270 -0.11949804 0.64933858
v 0.24140017 -0.20812195 0.09675817
v 0.25022105 -0.19609352 0.09675817
v 0.25326489 -0.19179322 0.09675817
v 0.25885559 -0.18356651 0.09675817
v 0.26121611 -0.18007640 0.09675817
v 0.23680335 -0.13227433 0.41903054
v 0.11908795 -0.06733332 1.31326102
v 0.09243891 -0.04271557 1.53070355
v 0.08889813 -0.04365042 1.54753988
v 0.08784210 -0.03916313 1.56485268
v 0.10480058 -0.05542955 1.42809738
v 0.10250218 -0.05112923 1.45335182
v 0.10026590 -0.04595639 1.47940044
v 0.09914775 -0.04165607 1.49623677
v 0.09573121 -0.02563895 1.54769871
v 0.09262527 -0.02563895 1.56485268
v 0.10299913 -0.03517443 1.49035991
v 0.10200523 -0.03212059 1.50179592
v 0.07479712 0.00851429 1.68461284
v 0.07069727 0.00851429 1.69620767
v 0.06119307 0.00851429 1.70478466
v 0.05249642 -0.00850001 1.71082034
v 0.04274374 -0.00850001 1.71399695
v 0.07765460 -0.00850001 1.66745886
v 0.08566794 -0.00170675 1.62584457
v 0.10256430 -0.01710064 1.52212656
v 0.02559891 -0.00850001 1.71765014
v 0.00851619 -0.00850001 1.71907967
v -0.00850440 -0.00850001 1.71923850
v -0.00850440 0.00851429 1.71939732
v -0.02564923 0.00851429 1.71844437
v -0.04273195 0.00851429 1.71590296
v -0.06403875 0.00851429 1.70780250
v -0.07379143 0.00851429 1.69922551
v -0.05546633 0.00851429 1.71209094
v -0.08093511 0.00851429 1.68461284
v -0.08553191 -0.00064726 1.65951722
v -0.08391681 -0.00719122 1.66602938
v -0.08795455 -0.02644915 1.61615575
v -0.09168169 -0.00850001 1.61615575
v -0.20523514 -0.03423958 0.87234027
v -0.22287695 -0.05331055 0.73749095
v -0.10217979 -0.03236988 1.51783807
v -0.19759452 -0.05985451 0.88091726
v -0.15380064 -0.08528247 1.07628200
v -0.17784069 -0.05985451 1.00051860
v -0.19107203 -0.07774134 0.88044076
v -0.18846303 -0.08621732 0.87456393
v -0.15411125 -0.10285768 1.00988974
v -0.17448626 -0.10753193 0.88091726
v -0.20063834 -0.10965094 0.72653147
v -0.20703660 -0.12255189 0.64139691
v -0.20125954 -0.13109019 0.64139691
v -0.22244212 -0.15408753 0.42840170
v -0.19274924 -0.14262003 0.64139691
v -0.18572980 -0.15115833 0.64139691
v -0.18765548 -0.17054092 0.54323804
v -0.22300117 -0.22532321 0.09675817
v -0.21374544 -0.23398618 0.09675817
v 0.20325913 -0.09893130 0.72700796
v 0.20766958 -0.09039299 0.72700796
v 0.15617296 -0.07319172 1.08597082
v 0.15194888 -0.08173004 1.08597082
v 0.24059263 -0.12186633 0.43269020
v 0.27034761 -0.16511879 0.09675817
v 0.27537926 -0.15682977 0.09675817
v 0.12238025 -0.05667602 1.32533233
v 0.11803192 -0.06521432 1.32533233
v 0.10101132 -0.02838118 1.51354957
v 0.09952047 -0.02389390 1.52895637
v 0.12008184 -0.03529908 1.38743609
v 0.12797095 -0.04271557 1.32533233
v 0.10747170 -0.02563895 1.47940044
v 0.10455211 -0.02607521 1.49623677
v 0.10330973 -0.01984287 1.51354957
v 0.07106999 0.02652576 1.68508937
v 0.06970337 0.02141524 1.69493701
v 0.08566794 0.00234427 1.62584457
v 0.07796519 0.00851429 1.66745886
v 0.08622701 0.01998180 1.61170843
v 0.05193735 0.01898462 1.71066151
v 0.05262066 0.00851429 1.71097916
v 0.04274374 0.00851429 1.71415588
v 0.09597969 -0.00850001 1.56485268
v 0.09902352 -0.00850001 1.54769871
v 0.10157040 -0.00850001 1.53324486
v 0.10169463 0.00851429 1.53388022
v 0.11958489 -0.01585417 1.41872621
v 0.11051552 -0.00850001 1.47940044
v 0.10299913 -0.00850001 1.52466787
v 0.13275411 -0.02563895 1.32533233
v 0.02559891 0.00851429 1.71765014
v 0.00851619 0.00851429 1.71907967
v -0.00850440 0.02565323 1.71844437
v -0.02564923 0.02565323 1.71733249
v -0.04273195 0.02565323 1.71431470
v -0.05335429 0.02565323 1.71113799
v -0.06192671 0.02565323 1.70605531
v -0.07205209 0.02565323 1.69747832
v -0.07751857 0.02565323 1.68461284
v -0.08602886 0.01885998 1.64522221
v -0.08509708 0.01231602 1.65665821
v -0.08416529 0.00739247 1.66602938
v -0.08553191 0.00097315 1.65951722
v -0.23070391 0.00851429 0.72700796
v -0.20529727 -0.00164443 0.88981191
v -0.23057969 -0.00850001 0.72700796
v -0.20504880 -0.01304962 0.88838242
v -0.22927519 -0.02563895 0.72700796
v -0.22660406 -0.04271557 0.72700796
v -0.22119970 -0.06459110 0.72700796
v -0.27064640 -0.04271557 0.41903054
v -0.26698138 -0.05985451 0.41903054
v -0.26219822 -0.07693113 0.41903054
v -0.21672715 -0.07693113 0.72700796
v -0.20480031 -0.10179818 0.73177296
v -0.20858957 -0.09531655 0.72653147
v -0.23722641 -0.13295989 0.41903054
v -0.22635557 -0.14617246 0.43491386
v -0.20622905 -0.17222366 0.43618452
v -0.26089372 -0.17964014 0.09675817
v -0.25579998 -0.18711895 0.09675817
v -0.25089260 -0.19360058 0.09675817
v -0.24151261 -0.20525507 0.09675817
v -0.23908996 -0.20799730 0.09675817
v -0.22561017 -0.22270564 0.09675817
v 0.21350877 -0.07693113 0.72700796
v 0.22232968 -0.08559409 0.65029158
v 0.16163943 -0.05985451 1.08597082
v 0.16449690 -0.05985451 1.06881684
v 0.28140480 -0.14554923 0.09675817
v 0.28699550 -0.13408171 0.09675817
v 0.28836213 -0.13121484 0.09675817
v 0.24779840 -0.11114669 0.41903054
v 0.16965277 -0.04265325 1.07056400
v 0.13704032 -0.03492514 1.28419456
v 0.17114363 -0.05169014 1.04403888
v 0.06790192 0.03282043 1.69112499
v 0.07454865 0.02565323 1.66745886
v 0.09038898 0.02565323 1.58200666
v 0.08585430 0.03500175 1.59233079
v 0.05640991 0.04272985 1.69811368
v 0.05988858 0.02590253 1.70208447
v 0.09927200 0.00851429 1.54769871
v 0.09318433 0.00851429 1.58200666
v 0.10275066 0.01780048 1.52307957
v 0.04926623 0.03038981 1.70939080
v 0.04324069 0.02503000 1.71240859
v 0.02559891 0.02565323 1.71653826
v 0.10312337 0.00851429 1.52530323
v 0.12008184 -0.00451131 1.42190287
v 0.17095727 -0.03411493 1.07723498
v 0.17195118 -0.02270975 1.08200000
v 0.13641913 -0.01317426 1.31453168
v 0.13542523 -0.00793910 1.32422050
v 0.11076400 0.00851429 1.47940044
v 0.00851619 0.02565323 1.71812662
v -0.00850440 0.04272985 1.71574413
v -0.02564923 0.04272985 1.71431470
v -0.04130321 0.04123409 1.71145564
v -0.05155284 0.03456548 1.71034386
v -0.06994005 0.03705842 1.69509584
v -0.07161726 0.03992530 1.68461284
v -0.08534556 0.03369296 1.62393861
v -0.08056240 0.02565323 1.66745886
v -0.10267674 0.03437851 1.52244421
v -0.22772221 0.04272985 0.72700796
v -0.20548363 0.03556266 0.87392860
v -0.22983424 0.02565323 0.72700796
v -0.27356602 0.01412340 0.42713105
v -0.27369024 0.00278053 0.42792518
v -0.27369024 -0.00120817 0.42792518
v -0.27344175 -0.01261335 0.42586039
v -0.27294484 -0.02632451 0.41982471
v -0.23927636 -0.03330473 0.64917972
v -0.25722870 -0.08733915 0.43126072
v -0.23995963 -0.08684056 0.54990904
v -0.31251458 -0.05711228 0.09675817
v -0.31201761 -0.05979219 0.09675817
v -0.30922226 -0.07200758 0.09675817
v -0.30835260 -0.07574699 0.09675817
v -0.30307251 -0.09282361 0.09675817
v -0.22430567 -0.08995673 0.64139691
v -0.22039217 -0.09855736 0.64139691
v -0.24871843 -0.11114669 0.41903054
v -0.24064294 -0.12192865 0.43618452
v -0.24200958 -0.12442159 0.41903054
v -0.23585977 -0.13052928 0.43618452
v -0.27530535 -0.15645582 0.09675817
v -0.27462204 -0.15757764 0.09675817
v 0.21990703 -0.05854572 0.72637263
v 0.25680569 -0.08627964 0.42903706
v 0.25413456 -0.09643837 0.41903054
v 0.28910753 -0.12959443 0.09675817
v 0.29215137 -0.12286350 0.09675817
v 0.29134383 -0.12118077 0.10676464
v 0.22183271 -0.04888559 0.73161413
v 0.06914430 0.03556266 1.67968904
v 0.06398843 0.04185732 1.68508937
v 0.05293125 0.05307554 1.69493701
v 0.09349493 0.02565323 1.56485268
v 0.10237795 0.03338134 1.50386075
v 0.08684820 0.03724539 1.58200666
v 0.10337185 0.03624821 1.49258363
v 0.04324069 0.04354006 1.70700832
v 0.10355820 0.02129059 1.51354957
v 0.10157040 0.02982890 1.51354957
v 0.10007954 0.02434444 1.52943290
v 0.09653876 0.02565323 1.54769871
v 0.11977125 0.01755119 1.41999686
v 0.11734861 0.02421979 1.42666785
v 0.11113672 0.02565323 1.46224646
v 0.03212140 0.04977240 1.70970845
v 0.03783634 0.03836721 1.71145564
v 0.00851619 0.04272985 1.71542648
v 0.02609586 0.04354006 1.71288507
v 0.11355935 0.00851429 1.46224646
v 0.13697820 -0.00176908 1.31786717
v 0.22295086 -0.03748040 0.73828511
v 0.17542984 -0.00850001 1.06881684
v 0.23941235 -0.01697599 0.64997390
v -0.00850440 0.05550615 1.71209094
v -0.02564923 0.05344948 1.71129681
v -0.03471860 0.05164210 1.71034386
v -0.04608637 0.04597067 1.70796132
v -0.05900712 0.04154570 1.70144917
v -0.05503150 0.05500757 1.69652532
v -0.06646139 0.04852593 1.68461284
v -0.06776589 0.05039563 1.67238271
v -0.08571827 0.05164210 1.57454150
v -0.08633946 0.03593660 1.61250260
v -0.09857689 0.04110944 1.52911524
v -0.17100761 0.08542140 0.99178278
v -0.18815244 0.08567069 0.88981191
v -0.19318406 0.07694541 0.88091726
v -0.18765548 0.06697366 0.93682652
v -0.22182089 0.06659972 0.73081997
v -0.22331179 0.05519454 0.73892045
v -0.26816167 0.05980647 0.41903054
v -0.26890707 0.04272985 0.43618452
v -0.27182669 0.04110944 0.41760105
v -0.23958693 0.03500175 0.65076806
v -0.27313119 0.02565323 0.42316020
v -0.31524785 0.04272985 0.09675817
v -0.31649022 0.02565323 0.09675817
v -0.31698713 0.00851429 0.09675817
v -0.31686292 -0.00850001 0.09675817
v -0.31630387 -0.02295904 0.09675817
v -0.31611747 -0.02563895 0.09675817
v -0.31487510 -0.04003566 0.09675817
v -0.31456453 -0.04271557 0.09675817
v -0.29760603 -0.10846679 0.09675817
v -0.29661214 -0.11127134 0.09675817
v -0.29269864 -0.12136774 0.09675817
v -0.29170476 -0.12379836 0.09675817
v -0.28263539 -0.14243305 0.09675817
v -0.28108241 -0.14554923 0.09675817
v 0.26096762 -0.07693113 0.41903054
v 0.23233080 -0.05985451 0.64139691
v 0.29662392 -0.11133367 0.09675817
v 0.30252524 -0.09400775 0.09675817
v 0.29587852 -0.11326569 0.09675817
v 0.26575079 -0.05985451 0.41903054
v 0.26935373 -0.04271557 0.41903054
v 0.23643065 -0.04271557 0.64139691
v 0.06510657 0.04609532 1.66745886
v 0.08541946 0.05114351 1.55595799
v 0.05473270 0.05506989 1.68461284
v 0.04547698 0.06367052 1.68461284
v 0.03504099 0.06896801 1.69382518
v 0.04156348 0.05918324 1.69763715
v 0.11877734 0.02945496 1.41094340
v 0.11946066 0.03306972 1.40125458
v 0.12045456 0.03655983 1.38981858
v 0.12654221 0.04272985 1.34248631
v 0.10007954 0.04223126 1.49750742
v 0.10113557 0.04771573 1.47940044
v 0.10212947 0.05020866 1.46828214
v 0.12064092 0.05338716 1.35598714
v 0.12008184 0.00851429 1.42174405
v 0.13697820 0.00253124 1.31786717
v 0.13660549 0.01387410 1.31548468
v 0.17213753 0.02565323 1.08311183
v 0.17139211 0.03599892 1.07929981
v 0.13654337 0.03269578 1.29801305
v 0.02609586 0.05924556 1.70557884
v 0.02075363 0.05313786 1.71113799
v 0.00851619 0.05494524 1.71193211
v 0.17567832 0.00851429 1.06881684
v 0.23935027 -0.03386564 0.63250225
v 0.23891543 -0.02713471 0.64314407
v 0.20971951 -0.00850001 0.84660931
v 0.21003010 0.00851429 0.84660931
v 0.27214908 -0.02426783 0.41775988
v 0.27370201 -0.01766155 0.41124772
v 0.27295661 -0.00850001 0.42204837
v 0.23978510 -0.00557081 0.65172106
v -0.00850440 0.06404446 1.70780250
v -0.02564923 0.06205012 1.70605531
v -0.03701700 0.06996519 1.69509584
v -0.04155169 0.05905859 1.70144917
v -0.04844689 0.06641275 1.68461284
v -0.05795109 0.05787444 1.68461284
v -0.06962946 0.06971590 1.58200666
v -0.08515919 0.06797084 1.51958525
v -0.15479455 0.08710413 1.08025282
v -0.10311158 0.05220301 1.47288828
v -0.09155745 0.04272985 1.56485268
v -0.15696872 0.10704763 1.00051860
v -0.20566998 0.10343287 0.73701446
v -0.18895998 0.08722878 0.88091726
v -0.21157128 0.09402204 0.72700796
v -0.21933615 0.07538733 0.72589613
v -0.25896803 0.09215233 0.41903054
v -0.25766353 0.08866222 0.43618452
v -0.26381333 0.07694541 0.41903054
v -0.30996771 0.07569895 0.09675817
v -0.31307368 0.05999344 0.09675817
v 0.30569329 -0.08303883 0.09675817
v 0.30650082 -0.08017195 0.09675817
v 0.30867499 -0.07169597 0.09675817
v 0.30811594 -0.06951464 0.10454098
v 0.31060067 -0.06234745 0.09675817
v 0.31109764 -0.05979219 0.09675817
v 0.31345816 -0.04545780 0.09675817
v 0.31389299 -0.04271557 0.09675817
v 0.08517099 0.06797084 1.50370193
v 0.10318549 0.05238998 1.45700496
v 0.11902583 0.06703599 1.32993852
v 0.10225370 0.06778387 1.41745555
v 0.06870947 0.06871872 1.57470033
v 0.04789961 0.06566488 1.66745886
v 0.03690456 0.07015216 1.68461284
v 0.02559891 0.07096237 1.69620767
v 0.02559891 0.07532501 1.68461284
v 0.17021185 0.04784037 1.06881684
v 0.15486846 0.05407272 1.15013939
v 0.16654683 0.05980647 1.06881684
v 0.12188330 0.05606706 1.34248631
v 0.20530905 0.01792513 0.87297560
v 0.20872560 0.02565323 0.84660931
v 0.23903965 0.03026517 0.64711492
v 0.22220541 0.05070725 0.73463196
v 0.23798363 0.04229359 0.64139691
v 0.00851619 0.06348355 1.70732597
v 0.23959870 0.01885998 0.65076806
v 0.23978510 0.00851429 0.65187991
v 0.31569446 -0.02831886 0.09675817
v 0.31600502 -0.02563895 0.09675817
v 0.27314296 0.00851429 0.42347786
v 0.31706109 -0.01124224 0.09675817
v 0.31724744 -0.00850001 0.09675817
v 0.24133803 0.00851429 0.64139691
v 0.00851619 0.07333066 1.69890780
v -0.00850440 0.07370459 1.69922551
v -0.02564923 0.07202186 1.69747832
v -0.02564923 0.07750633 1.68461284
v -0.03987447 0.07158560 1.68461284
v -0.05037258 0.06772155 1.67222388
v -0.06764165 0.08492281 1.51926755
v -0.10329793 0.12026019 1.19921882
v -0.13404682 0.13422065 1.00051860
v -0.14218441 0.12568233 1.00051860
v -0.15069470 0.11558594 1.00051860
v -0.17119396 0.11994858 0.87345210
v -0.20138378 0.11327997 0.72700796
v -0.20858957 0.12505910 0.64139691
v -0.23877939 0.13571640 0.41903054
v -0.23741276 0.13322346 0.43618452
v -0.24207171 0.12468516 0.43618452
v -0.22237999 0.10274731 0.63329643
v -0.25579998 0.10069064 0.41903054
v -0.29325769 0.12705345 0.09675817
v -0.29872418 0.11116098 0.09675817
v -0.30437701 0.09352344 0.09675817
v -0.30884956 0.07950068 0.09675817
v 0.08641337 0.06952893 1.49226592
v 0.15424728 0.08610696 1.07882334
v 0.11964701 0.08535908 1.26513457
v 0.10548389 0.08909848 1.32533233
v 0.08013936 0.07974997 1.47940044
v 0.06858523 0.08560837 1.50560794
v 0.05224794 0.08616928 1.55977001
v 0.05044649 0.08498513 1.57104719
v 0.05013590 0.10206175 1.48480076
v 0.03988627 0.08841293 1.58200666
v 0.03659396 0.08673019 1.59900182
v 0.03466828 0.08573302 1.60900829
v 0.00851619 0.08006159 1.68461284
v 0.01733709 0.08554605 1.64236324
v 0.03628337 0.10349520 1.50989643
v 0.03361225 0.10243570 1.52117356
v 0.03087902 0.10162549 1.53070355
v 0.02503984 0.10037902 1.54769871
v 0.22077670 0.05949485 0.72811980
v 0.21549656 0.07694541 0.72700796
v 0.15971375 0.07694541 1.06881684
v 0.27264599 0.02565323 0.41887171
v 0.27034761 0.04272985 0.41903054
v 0.23978510 0.03631054 0.63567891
v 0.23413227 0.05980647 0.64139691
v 0.26693108 0.05980647 0.41903054
v 0.27388841 0.02004412 0.41299491
v 0.31762014 0.00851429 0.09675817
v 0.31693682 0.02565323 0.09675817
v -0.00850440 0.08074715 1.68461284
v -0.03360046 0.08529675 1.62377978
v -0.03602310 0.08635625 1.61250260
v -0.01869191 0.08591999 1.64474573
v -0.01968581 0.10324590 1.54325139
v -0.02564923 0.09819770 1.56485268
v -0.03459436 0.10274731 1.52323839
v -0.04341526 0.08872454 1.58121249
v -0.05186343 0.08585766 1.57517681
v -0.10646600 0.13970510 1.08597082
v -0.11721259 0.13471923 1.06881684
v -0.12553652 0.14145017 1.00051860
v -0.15516726 0.13808469 0.88091726
v -0.15299310 0.17024359 0.73034346
v -0.17069700 0.17067985 0.64854440
v -0.18691006 0.13521782 0.72700796
v -0.19281135 0.12661719 0.72700796
v -0.20312310 0.13365974 0.64139691
v -0.22995851 0.14531421 0.43618452
v -0.27188877 0.16818691 0.09675817
v -0.27269635 0.16681580 0.09675817
v -0.27679620 0.15958628 0.09675817
v -0.28381562 0.14662301 0.09675817
v -0.28493377 0.14437937 0.09675817
v 0.08212716 0.08180664 1.46224646
v 0.14965047 0.09570477 1.06881684
v 0.13455557 0.09938185 1.13727391
v 0.14014627 0.09084354 1.13727391
v 0.20822865 0.09501921 0.72621381
v 0.20462575 0.10137620 0.73129645
v 0.20071226 0.10966522 0.72621381
v 0.19151865 0.12487214 0.72700796
v 0.13946296 0.10592581 1.08597082
v 0.12598315 0.10997683 1.13727391
v 0.11852887 0.11851514 1.13727391
v 0.09784326 0.09763679 1.32533233
v 0.08641337 0.08648090 1.42349118
v 0.06858523 0.10274731 1.42015569
v 0.08933296 0.10592581 1.32533233
v 0.06237334 0.09863397 1.46224646
v 0.05206159 0.10305893 1.47352364
v 0.05069497 0.11945000 1.38378290
v 0.03914084 0.10467934 1.49639559
v 0.06827463 0.11963696 1.33375049
v 0.00006802 0.08548373 1.65888187
v 0.01895218 0.10305893 1.54213956
v 0.01218121 0.10212408 1.55341668
v 0.03417132 0.11969928 1.41952039
v 0.22885213 0.07694541 0.64139691
v 0.22307508 0.08722878 0.65362707
v 0.31532176 0.04272985 0.09675817
v 0.31271276 0.06005577 0.09675817
v 0.30873712 0.07214651 0.10835295
v 0.26245852 0.07694541 0.41903054
v 0.25736474 0.08778969 0.43173719
v 0.30917195 0.07750633 0.09675817
v 0.30737049 0.08355170 0.09945831
v 0.00000590 0.08548373 1.65888187
v -0.00682719 0.08405028 1.66571173
v -0.01272849 0.10231105 1.55468734
v -0.04273195 0.09196536 1.56485268
v -0.02564923 0.12300243 1.41094340
v -0.03440801 0.11976161 1.41983804
v -0.02546288 0.10093993 1.54849288
v -0.00850440 0.11203350 1.49639559
v -0.00850440 0.12549537 1.41094340
v -0.01571020 0.13671359 1.33327396
v -0.03105358 0.10181246 1.53451557
v -0.03658217 0.10355752 1.51354957
v -0.05074529 0.11951232 1.38378290
v -0.04844689 0.10131387 1.49639559
v -0.05043470 0.10218640 1.48559494
v -0.08652582 0.15447577 1.07961749
v -0.09627849 0.14992615 1.06881684
v -0.12143667 0.15522364 0.94572117
v -0.17057277 0.15341626 0.73272596
v -0.18858727 0.15447577 0.63552009
v -0.15280675 0.18725788 0.64139691
v -0.15386276 0.18806809 0.63250225
v -0.17175303 0.18881596 0.55006787
v -0.18492225 0.20240247 0.41903054
v -0.18796607 0.18794344 0.47811646
v -0.20523514 0.15391484 0.54752653
v -0.22343600 0.15541061 0.43618452
v -0.26449665 0.17971675 0.09675817
v 0.14114018 0.10804480 1.06881684
v 0.24841964 0.20863482 0.09675817
v 0.22406896 0.08953475 0.64139691
v 0.24997257 0.11116098 0.41903054
v 0.24282894 0.12611859 0.41903054
v 0.23823212 0.13465691 0.41903054
v 0.25960104 0.19199446 0.09675817
v 0.13412073 0.11664544 1.06881684
v 0.11001858 0.12624324 1.13727391
v 0.23208231 0.22901458 0.09675817
v 0.23059146 0.23057266 0.09675817
v 0.21518599 0.24646515 0.09675817
v 0.21375724 0.24783627 0.09675817
v 0.08020148 0.11608452 1.30833717
v 0.07603950 0.11552361 1.32692063
v 0.19673664 0.26279386 0.09675817
v 0.09989319 0.13478156 1.13727391
v 0.08585430 0.11994858 1.26704058
v 0.06684590 0.15329162 1.14188008
v 0.05305549 0.13758611 1.26974075
v 0.09132076 0.14063996 1.13727391
v 0.08889813 0.13908188 1.15442789
v 0.19394129 0.26485054 0.09675817
v 0.08641337 0.15441344 1.07945864
v 0.00075132 0.10268499 1.55675217
v 0.02448077 0.12063414 1.42635019
v 0.01802040 0.11988626 1.43810385
v 0.00851619 0.11190886 1.49639559
v 0.00727382 0.10355752 1.54769871
v 0.02559891 0.12287778 1.41094340
v 0.04982530 0.17061752 1.07389949
v 0.03597277 0.15435112 1.19953650
v 0.23972297 0.08635625 0.54895604
v 0.25512849 0.09882093 0.41903054
v 0.30942044 0.07638450 0.09675817
v 0.30494789 0.09321183 0.09675817
v 0.30004045 0.10841875 0.09675817
v 0.29910870 0.11116098 0.09675817
v 0.30842656 0.08068482 0.09675817
v 0.30755689 0.08423726 0.09675817
v -0.00129860 0.10268499 1.55675217
v -0.00763474 0.10118923 1.56342315
v -0.04509247 0.09981811 1.51354957
v -0.03533979 0.15422647 1.19874234
v -0.04944080 0.17049288 1.07262883
v -0.05826169 0.16806227 1.06770501
v -0.00428031 0.13708752 1.33565650
v -0.00850440 0.17759775 1.06881684
v 0.00851619 0.12543305 1.41094340
v 0.00478906 0.13708752 1.33565650
v -0.02564923 0.17591502 1.06881684
v -0.03801091 0.17192632 1.08152347
v -0.07695949 0.16039648 1.06881684
v -0.12503958 0.19155820 0.72700796
v -0.10565846 0.15590920 1.00051860
v -0.12826976 0.29570063 0.09675817
v -0.14616001 0.28685074 0.09675817
v -0.14758876 0.28610284 0.09675817
v -0.16193824 0.27856169 0.09675817
v -0.17964213 0.26715652 0.09675817
v -0.19057507 0.25880518 0.09675817
v -0.20243979 0.18507657 0.41903054
v -0.20834110 0.17466855 0.43618452
v -0.20467607 0.17036824 0.47573397
v -0.17013794 0.20452147 0.47398679
v -0.20088682 0.25026688 0.09675817
v -0.20902440 0.24303736 0.09675817
v -0.21759682 0.23487298 0.09675817
v -0.22616922 0.22633467 0.09675817
v -0.24238228 0.20857250 0.09675817
v -0.24958810 0.19984722 0.09675817
v -0.25772566 0.18943920 0.09675817
v 0.24630755 0.21143937 0.09675817
v 0.29345587 0.12605628 0.09675817
v 0.28979085 0.13459458 0.09675817
v 0.27786400 0.15902537 0.09675817
v 0.27655949 0.16145599 0.09675817
v 0.26860828 0.17579037 0.09675817
v 0.05852195 0.16831156 1.06849918
v 0.16182578 0.28342294 0.09675817
v 0.14058110 0.29339470 0.09675817
v 0.12971029 0.29831824 0.09675817
v 0.12840579 0.29887913 0.09675817
v 0.12623162 0.29975165 0.09675817
v 0.16474537 0.28180252 0.09675817
v 0.16362724 0.28242575 0.09675817
v 0.01621895 0.13671359 1.33359161
v 0.03845753 0.17198864 1.08200000
v 0.09274951 0.31084523 0.09675817
v 0.09020263 0.31153079 0.09675817
v 0.02559891 0.17603967 1.06881684
v -0.07801552 0.31240331 0.09675817
v -0.09404221 0.30760444 0.09675817
v -0.11069010 0.30230693 0.09675817
v -0.00850440 0.32119091 0.09675817
v -0.01123764 0.32106629 0.09675817
v -0.02564923 0.32025605 0.09675817
v 0.00851619 0.17759775 1.06881684
v -0.04273195 0.31844873 0.09675817
v -0.05981466 0.31608041 0.09675817
v -0.06198882 0.31564415 0.09675817
v -0.23337504 0.21860655 0.09675817
v -0.23474168 0.21711081 0.09675817
v 0.07423806 0.31477163 0.09675817
v 0.05982646 0.31695293 0.09675817
v 0.05715534 0.31732685 0.09675817
v 0.04274374 0.31900961 0.09675817
v 0.00851619 0.32119091 0.09675817
v 0.04001051 0.31925891 0.09675817
v 0.02559891 0.32044307 0.09675817
v 0.02292779 0.32056769 0.09675817
f 1 2 6
f 1 6 15
f 1 15 30
f 1 30 47
f 1 47 75
f 1 75 74
f 1 74 97
f 1 97 121
f 1 121 120
f 1 120 119
f 1 119 148
f 1 148 147
f 1 147 146
f 1 146 178
f 1 178 212
f 1 212 211
f 1 211 210
f 1 210 252
f 1 252 251
f 1 251 250
f 1 250 249
f 1 249 313
f 1 313 312
f 1 312 380
f 1 380 379
f 1 379 378
f 1 378 377
f 1 377 376
f 1 376 375
f 1 375 444
f 1 444 443
f 1 443 511
f 1 511 510
f 1 510 509
f 1 509 508
f 1 508 507
f 1 507 506
f 1 506 436
f 1 436 435
f 1 435 434
f 1 434 433
f 1 433 432
f 1 432 505
f 1 505 504
f 1 504 503
f 1 503 502
f 1 502 501
f 1 501 500
f 1 500 499
f 1 499 498
f 1 498 572
f 1 572 571
f 1 571 630
f 1 630 629
f 1 629 628
f 1 628 627
f 1 627 683
f 1 683 682
f 1 682 681
f 1 681 680
f 1 680 679
f 1 679 744
f 1 744 816
f 1 816 815
f 1 815 814
f 1 814 847
f 1 847 846
f 1 846 813
f 1 813 812
f 1 812 811
f 1 811 810
f 1 810 805
f 1 805 804
f 1 804 803
f 1 803 802
f 1 802 801
f 1 801 800
f 1 800 838
f 1 838 837
f 1 837 836
f 1 836 845
f 1 845 844
f 1 844 843
f 1 843 841
f 1 841 840
f 1 840 839
f 1 839 852
f 1 852 855
f 1 855 854
f 1 854 853
f 1 853 851
f 1 851 850
f 1 850 849
f 1 849 848
f 1 848 834
f 1 834 833
f 1 833 828
f 1 828 827
f 1 827 826
f 1 826 825
f 1 825 824
f 1 824 830
f 1 830 829
f 1 829 767
f 1 767 760
f 1 760 757
f 1 757 756
f 1 756 755
f 1 755 754
f 1 754 817
f 1 817 746
f 1 746 751
f 1 751 822
f 1 822 821
f 1 821 820
f 1 820 819
f 1 819 818
f 1 818 782
f 1 782 781
f 1 781 780
f 1 780 784
f 1 784 783
f 1 783 715
f 1 715 779
f 1 779 711
f 1 711 710
f 1 710 659
f 1 659 658
f 1 658 606
f 1 606 605
f 1 605 603
f 1 603 602
f 1 602 580
f 1 580 579
f 1 579 578
f 1 578 577
f 1 577 575
f 1 575 574
f 1 574 573
f 1 573 515
f 1 515 514
f 1 514 516
f 1 516 449
f 1 449 448
f 1 448 387
f 1 387 386
f 1 386 385
f 1 385 320
f 1 320 319
f 1 319 259
f 1 259 258
f 1 258 257
f 1 257 256
f 1 256 255
f 1 255 218
f 1 218 213
f 1 213 179
f 1 179 149
f 1 149 123
f 1 123 100
f 1 100 80
f 1 80 55
f 1 55 54
f 1 54 53
f 1 53 35
f 1 35 23
f 1 23 21
f 1 21 16
f 1 16 9
f 1 9 8
f 1 8 3
f 1 3 4
f 1 4 5
f 1 5 2
f 2 5 7
f 2 7 6
f 3 8 4
f 4 8 9
f 4 9 10
f 4 10 11
f 4 11 12
f 4 12 5
f 5 12 13
f 5 13 14
f 5 14 7
f 6 7 15
f 7 14 15
f 9 16 10
f 10 16 11
f 11 17 18
f 11 18 19
f 11 19 20
f 11 20 12
f 11 16 21
f 11 21 22
f 11 22 23
f 11 23 17
f 12 20 24
f 12 24 25
f 12 25 13
f 13 25 26
f 13 26 14
f 14 26 27
f 14 27 28
f 14 28 29
f 14 29 30
f 14 30 31
f 14 31 15
f 15 31 30
f 17 32 33
f 17 33 34
f 17 34 19
f 17 19 18
f 17 23 35
f 17 35 32
f 19 34 36
f 19 36 37
f 19 37 20
f 20 37 38
f 20 38 26
f 20 26 25
f 20 25 24
f 21 23 22
f 26 38 39
f 26 39 27
f 27 39 40
f 27 40 28
f 28 40 41
f 28 41 42
f 28 42 29
f 29 42 43
f 29 43 44
f 29 44 45
f 29 45 46
f 29 46 47
f 29 47 30
f 32 48 49
f 32 49 50
f 32 50 51
f 32 51 33
f 32 35 52
f 32 52 53
f 32 53 54
f 32 54 55
f 32 55 48
f 33 51 34
f 34 51 56
f 34 56 57
f 34 57 36
f 35 53 52
f 36 58 59
f 36 59 60
f 36 60 61
f 36 61 62
f 36 62 63
f 36 63 37
f 36 57 64
f 36 64 58
f 37 63 38
f 38 63 65
f 38 65 40
f 38 40 39
f 40 65 66
f 40 66 67
f 40 67 41
f 41 68 42
f 41 67 68
f 42 68 43
f 43 68 69
f 43 69 70
f 43 70 71
f 43 71 44
f 44 71 72
f 44 72 73
f 44 73 45
f 45 73 74
f 45 74 75
f 45 75 47
f 45 47 46
f 48 55 49
f 49 76 77
f 49 77 78
f 49 78 79
f 49 79 51
f 49 51 50
f 49 55 80
f 49 80 76
f 51 79 56
f 56 64 57
f 56 79 81
f 56 81 82
f 56 82 83
f 56 83 58
f 56 58 64
f 58 83 59
f 59 84 85
f 59 85 86
f 59 86 60
f 59 83 82
f 59 82 84
f 60 86 87
f 60 87 65
f 60 65 61
f 61 65 62
f 62 65 63
f 65 87 66
f 66 87 88
f 66 88 89
f 66 89 90
f 66 90 67
f 67 90 69
f 67 69 68
f 69 90 91
f 69 91 92
f 69 92 70
f 70 92 93
f 70 93 94
f 70 94 71
f 71 94 95
f 71 95 96
f 71 96 72
f 72 96 97
f 72 97 98
f 72 98 73
f 73 98 97
f 73 97 74
f 76 99 77
f 76 80 100
f 76 100 99
f 77 101 102
f 77 102 103
f 77 103 104
f 77 104 105
f 77 105 106
f 77 106 79
f 77 79 78
f 77 99 101
f 79 106 81
f 81 106 105
f 81 105 85
f 81 85 84
f 81 84 82
f 85 107 108
f 85 108 86
f 85 105 107
f 86 108 109
f 86 109 87
f 87 109 110
f 87 110 111
f 87 111 88
f 88 111 112
f 88 112 113
f 88 113 92
f 88 92 89
f 89 92 91
f 89 91 90
f 92 113 114
f 92 114 93
f 93 114 115
f 93 115 116
f 93 116 117
f 93 117 94
f 94 117 118
f 94 118 95
f 95 118 119
f 95 119 120
f 95 120 121
f 95 121 97
f 95 97 96
f 99 122 101
f 99 100 123
f 99 123 122
f 101 124 102
f 101 122 125
f 101 125 124
f 102 124 103
f 103 126 127
f 103 127 105
f 103 105 104
f 103 124 126
f 105 127 128
f 105 128 129
f 105 129 107
f 107 129 130
f 107 130 131
f 107 131 108
f 108 131 132
f 108 132 133
f 108 133 109
f 109 133 134
f 109 134 110
f 110 134 111
f 111 134 135
f 111 135 112
f 112 135 136
f 112 136 137
f 112 137 138
f 112 138 139
f 112 139 113
f 113 139 140
f 113 140 116
f 113 116 141
f 113 141 114
f 114 141 116
f 114 116 115
f 116 140 142
f 116 142 143
f 116 143 144
f 116 144 117
f 117 144 145
f 117 145 118
f 118 145 146
f 118 146 147
f 118 147 148
f 118 148 119
f 122 123 149
f 122 149 125
f 124 150 151
f 124 151 126
f 124 125 150
f 125 152 150
f 125 149 152
f 126 151 127
f 127 153 128
f 127 151 153
f 128 153 129
f 129 153 130
f 130 153 154
f 130 154 155
f 130 155 156
f 130 156 157
f 130 157 131
f 131 157 158
f 131 158 132
f 132 158 159
f 132 159 133
f 133 159 160
f 133 160 134
f 134 160 161
f 134 161 162
f 134 162 135
f 135 162 136
f 136 162 163
f 136 163 164
f 136 164 165
f 136 165 166
f 136 166 138
f 136 138 137
f 138 167 168
f 138 168 169
f 138 169 139
f 138 166 165
f 138 165 170
f 138 170 167
f 139 169 140
f 140 169 171
f 140 171 142
f 142 171 143
f 143 171 172
f 143 172 173
f 143 173 174
f 143 174 144
f 144 174 175
f 144 175 176
f 144 176 145
f 145 175 177
f 145 177 178
f 145 178 146
f 145 176 175
f 149 179 152
f 150 180 181
f 150 181 151
f 150 152 182
f 150 182 180
f 151 183 153
f 151 181 183
f 152 179 182
f 153 183 184
f 153 184 154
f 154 184 185
f 154 185 155
f 155 186 156
f 155 185 187
f 155 187 186
f 156 186 188
f 156 188 189
f 156 189 157
f 157 189 190
f 157 190 158
f 158 190 191
f 158 191 159
f 159 191 192
f 159 192 160
f 160 192 193
f 160 193 161
f 161 193 162
f 162 193 163
f 163 193 194
f 163 194 164
f 164 194 195
f 164 195 165
f 165 196 197
f 165 197 167
f 165 167 170
f 165 195 196
f 167 197 198
f 167 198 199
f 167 199 200
f 167 200 168
f 168 200 201
f 168 201 169
f 169 201 171
f 171 201 202
f 171 202 203
f 171 203 204
f 171 204 205
f 171 205 172
f 172 205 173
f 173 206 174
f 173 205 206
f 174 206 207
f 174 207 208
f 174 208 175
f 175 208 207
f 175 207 209
f 175 209 210
f 175 210 211
f 175 211 212
f 175 212 178
f 175 178 177
f 179 213 180
f 179 180 182
f 180 214 215
f 180 215 216
f 180 216 217
f 180 217 181
f 180 213 218
f 180 218 219
f 180 219 214
f 181 217 220
f 181 220 221
f 181 221 183
f 183 221 185
f 183 185 184
f 185 221 222
f 185 222 223
f 185 223 187
f 186 224 225
f 186 225 226
f 186 226 188
f 186 187 227
f 186 227 224
f 187 223 228
f 187 228 227
f 188 226 189
f 189 226 229
f 189 229 190
f 190 229 230
f 190 230 191
f 191 230 192
f 192 230 231
f 192 231 193
f 193 231 232
f 193 232 194
f 194 232 233
f 194 233 234
f 194 234 195
f 195 234 196
f 196 235 197
f 196 234 236
f 196 236 235
f 197 235 198
f 198 237 238
f 198 238 199
f 198 235 237
f 199 238 239
f 199 239 240
f 199 240 241
f 199 241 242
f 199 242 200
f 200 242 243
f 200 243 201
f 201 243 203
f 201 203 202
f 203 244 245
f 203 245 246
f 203 246 247
f 203 247 204
f 203 243 244
f 204 247 205
f 205 247 248
f 205 248 206
f 206 248 209
f 206 209 207
f 209 249 250
f 209 250 251
f 209 251 252
f 209 252 210
f 209 248 249
f 214 253 215
f 214 219 254
f 214 254 253
f 215 217 216
f 215 253 217
f 217 253 220
f 218 255 219
f 219 255 256
f 219 256 257
f 219 257 258
f 219 258 259
f 219 259 260
f 219 260 254
f 220 261 221
f 220 253 261
f 221 262 263
f 221 263 264
f 221 264 222
f 221 261 265
f 221 265 266
f 221 266 267
f 221 267 262
f 222 264 262
f 222 262 267
f 222 267 268
f 222 268 223
f 223 269 270
f 223 270 228
f 223 268 271
f 223 271 272
f 223 272 269
f 224 227 273
f 224 273 274
f 224 274 225
f 225 275 336
f 225 336 276
f 225 276 226
f 225 274 275
f 226 276 277
f 226 277 229
f 227 278 279
f 227 279 273
f 227 228 278
f 228 270 269
f 228 269 280
f 228 280 278
f 229 277 230
f 230 281 231
f 230 277 281
f 231 282 232
f 231 281 282
f 232 282 283
f 232 283 233
f 233 283 284
f 233 284 285
f 233 285 286
f 233 286 234
f 234 286 236
f 235 236 287
f 235 287 288
f 235 288 237
f 236 286 289
f 236 289 287
f 237 288 238
f 238 288 290
f 238 290 291
f 238 291 292
f 238 292 239
f 239 293 240
f 239 292 294
f 239 294 295
f 239 295 296
f 239 296 293
f 240 293 241
f 241 293 297
f 241 297 298
f 241 298 242
f 242 299 243
f 242 298 300
f 242 300 301
f 242 301 302
f 242 302 299
f 243 299 303
f 243 303 244
f 244 303 304
f 244 304 245
f 245 304 305
f 245 305 306
f 245 306 307
f 245 307 308
f 245 308 309
f 245 309 246
f 246 309 247
f 247 309 310
f 247 310 311
f 247 311 248
f 248 311 312
f 248 312 313
f 248 313 249
f 253 314 315
f 253 315 316
f 253 316 317
f 253 317 261
f 253 254 318
f 253 318 314
f 254 260 318
f 259 319 260
f 260 319 320
f 260 320 318
f 261 317 321
f 261 321 322
f 261 322 265
f 262 264 263
f 265 322 321
f 265 321 266
f 266 321 267
f 267 271 268
f 267 321 271
f 269 323 324
f 269 324 280
f 269 272 323
f 271 325 272
f 271 321 326
f 271 326 325
f 272 325 327
f 272 327 328
f 272 328 329
f 272 329 323
f 273 330 331
f 273 331 274
f 273 279 332
f 273 332 333
f 273 333 334
f 273 334 330
f 274 331 275
f 275 335 336
f 275 331 335
f 276 336 277
f 277 337 281
f 277 336 337
f 278 280 338
f 278 338 279
f 279 338 339
f 279 339 340
f 279 340 341
f 279 341 332
f 280 342 343
f 280 343 344
f 280 344 340
f 280 340 339
f 280 339 338
f 280 324 323
f 280 323 329
f 280 329 345
f 280 345 342
f 281 337 346
f 281 346 347
f 281 347 282
f 282 347 284
f 282 284 283
f 284 347 411
f 284 411 348
f 284 348 285
f 285 348 349
f 285 349 286
f 286 349 350
f 286 350 351
f 286 351 289
f 287 351 352
f 287 352 353
f 287 353 288
f 287 289 351
f 288 353 290
f 290 353 354
f 290 354 355
f 290 355 356
f 290 356 357
f 290 357 358
f 290 358 291
f 291 294 292
f 291 358 359
f 291 359 360
f 291 360 361
f 291 361 362
f 291 362 363
f 291 363 294
f 293 296 298
f 293 298 297
f 294 363 295
f 295 363 364
f 295 364 296
f 296 365 298
f 296 364 366
f 296 366 367
f 296 367 368
f 296 368 365
f 298 365 369
f 298 369 300
f 299 302 370
f 299 370 304
f 299 304 303
f 300 369 301
f 301 369 302
f 302 369 371
f 302 371 370
f 304 370 305
f 305 370 306
f 306 372 373
f 306 373 308
f 306 308 307
f 306 370 372
f 308 374 309
f 308 373 375
f 308 375 376
f 308 376 377
f 308 377 378
f 308 378 374
f 309 374 310
f 310 374 311
f 311 374 378
f 311 378 379
f 311 379 380
f 311 380 312
f 314 318 315
f 315 381 316
f 315 318 382
f 315 382 381
f 316 383 321
f 316 321 317
f 316 381 384
f 316 384 383
f 318 320 385
f 318 385 386
f 318 386 387
f 318 387 388
f 318 388 382
f 321 383 326
f 325 326 389
f 325 389 390
f 325 390 345
f 325 345 327
f 326 383 384
f 326 384 391
f 326 391 389
f 327 329 328
f 327 345 329
f 330 392 331
f 330 334 393
f 330 393 394
f 330 394 395
f 330 395 392
f 331 392 396
f 331 396 397
f 331 397 335
f 332 341 398
f 332 398 399
f 332 399 333
f 333 399 400
f 333 400 334
f 334 400 394
f 334 394 393
f 335 397 401
f 335 401 402
f 335 402 337
f 335 337 336
f 337 402 403
f 337 403 346
f 340 344 404
f 340 404 341
f 341 404 400
f 341 400 398
f 342 405 343
f 342 345 406
f 342 406 407
f 342 407 408
f 342 408 409
f 342 409 405
f 343 405 410
f 343 410 344
f 344 410 404
f 345 390 406
f 346 403 411
f 346 411 347
f 348 411 469
f 348 469 412
f 348 412 349
f 349 412 413
f 349 413 350
f 350 413 414
f 350 414 415
f 350 415 351
f 351 415 352
f 352 415 416
f 352 416 353
f 353 416 354
f 354 416 417
f 354 417 418
f 354 418 419
f 354 419 355
f 355 419 420
f 355 420 421
f 355 421 356
f 356 421 422
f 356 422 423
f 356 423 357
f 357 423 358
f 358 423 359
f 359 361 360
f 359 423 424
f 359 424 425
f 359 425 426
f 359 426 361
f 361 363 362
f 361 426 427
f 361 427 363
f 363 427 428
f 363 428 429
f 363 429 364
f 364 429 366
f 365 368 430
f 365 430 431
f 365 431 369
f 366 429 428
f 366 428 432
f 366 432 433
f 366 433 367
f 367 433 434
f 367 434 435
f 367 435 368
f 368 435 436
f 368 436 430
f 369 431 437
f 369 437 371
f 370 371 438
f 370 438 439
f 370 439 440
f 370 440 441
f 370 441 442
f 370 442 372
f 371 437 438
f 372 442 441
f 372 441 443
f 372 443 444
f 372 444 375
f 372 375 373
f 381 445 384
f 381 382 446
f 381 446 445
f 382 388 447
f 382 447 446
f 384 445 391
f 387 448 388
f 388 448 449
f 388 449 450
f 388 450 447
f 389 406 390
f 389 391 445
f 389 445 451
f 389 451 406
f 392 395 452
f 392 452 453
f 392 453 454
f 392 454 396
f 394 400 455
f 394 455 456
f 394 456 395
f 395 457 452
f 395 456 458
f 395 458 457
f 396 454 459
f 396 459 401
f 396 401 397
f 398 400 399
f 400 460 461
f 400 461 462
f 400 462 463
f 400 463 455
f 400 404 410
f 400 410 464
f 400 464 465
f 400 465 466
f 400 466 460
f 401 467 468
f 401 468 402
f 401 459 467
f 402 468 403
f 403 469 411
f 403 468 470
f 403 470 469
f 405 471 410
f 405 409 472
f 405 472 471
f 406 451 473
f 406 473 407
f 407 474 409
f 407 409 408
f 407 473 475
f 407 475 474
f 409 474 472
f 410 471 464
f 412 476 477
f 412 477 413
f 412 469 476
f 413 477 478
f 413 478 414
f 414 478 415
f 415 478 479
f 415 479 480
f 415 480 416
f 416 480 481
f 416 481 482
f 416 482 417
f 417 482 483
f 417 483 484
f 417 484 485
f 417 485 418
f 418 485 486
f 418 486 420
f 418 420 419
f 420 486 487
f 420 487 488
f 420 488 489
f 420 489 490
f 420 490 491
f 420 491 492
f 420 492 421
f 421 423 422
f 421 492 493
f 421 493 494
f 421 494 495
f 421 495 496
f 421 496 423
f 423 496 497
f 423 497 424
f 424 497 498
f 424 498 499
f 424 499 500
f 424 500 425
f 425 500 426
f 426 500 501
f 426 501 502
f 426 502 427
f 427 502 503
f 427 503 504
f 427 504 428
f 428 504 505
f 428 505 432
f 430 436 506
f 430 506 507
f 430 507 508
f 430 508 431
f 431 508 509
f 431 509 439
f 431 439 438
f 431 438 437
f 439 509 510
f 439 510 511
f 439 511 440
f 440 511 441
f 441 511 443
f 445 446 512
f 445 512 513
f 445 513 451
f 446 447 450
f 446 450 514
f 446 514 515
f 446 515 512
f 449 516 450
f 450 516 514
f 451 513 517
f 451 517 518
f 451 518 519
f 451 519 473
f 452 520 453
f 452 457 521
f 452 521 520
f 453 520 522
f 453 522 454
f 454 522 523
f 454 523 524
f 454 524 525
f 454 525 467
f 454 467 459
f 455 463 461
f 455 461 456
f 456 466 526
f 456 526 527
f 456 527 528
f 456 528 529
f 456 529 458
f 456 461 460
f 456 460 466
f 457 458 530
f 457 530 531
f 457 531 532
f 457 532 521
f 458 532 531
f 458 531 530
f 458 529 533
f 458 533 532
f 461 463 462
f 464 471 534
f 464 534 535
f 464 535 536
f 464 536 537
f 464 537 538
f 464 538 539
f 464 539 465
f 465 526 466
f 465 539 526
f 467 525 524
f 467 524 540
f 467 540 541
f 467 541 470
f 467 470 468
f 469 470 541
f 469 541 542
f 469 542 476
f 471 472 535
f 471 535 534
f 472 474 543
f 472 543 535
f 473 519 544
f 473 544 545
f 473 545 475
f 474 546 547
f 474 547 543
f 474 475 546
f 475 545 518
f 475 518 548
f 475 548 549
f 475 549 550
f 475 550 551
f 475 551 546
f 476 552 477
f 476 542 552
f 477 552 553
f 477 553 478
f 478 553 554
f 478 554 555
f 478 555 479
f 479 555 481
f 479 481 480
f 481 555 554
f 481 554 556
f 481 556 557
f 481 557 482
f 482 557 483
f 483 557 558
f 483 558 559
f 483 559 484
f 484 560 487
f 484 487 561
f 484 561 486
f 484 486 562
f 484 562 485
f 484 559 563
f 484 563 560
f 485 562 486
f 486 561 487
f 487 564 565
f 487 565 488
f 487 560 564
f 488 565 566
f 488 566 489
f 489 566 567
f 489 567 491
f 489 491 490
f 491 567 568
f 491 568 569
f 491 569 570
f 491 570 493
f 491 493 492
f 493 570 571
f 493 571 572
f 493 572 495
f 493 495 494
f 495 497 496
f 495 572 497
f 497 572 498
f 512 517 513
f 512 515 573
f 512 573 574
f 512 574 517
f 517 574 575
f 517 575 576
f 517 576 518
f 518 545 544
f 518 544 519
f 518 576 577
f 518 577 578
f 518 578 579
f 518 579 580
f 518 580 548
f 520 521 581
f 520 581 522
f 521 532 582
f 521 582 583
f 521 583 584
f 521 584 581
f 522 585 586
f 522 586 523
f 522 581 585
f 523 587 524
f 523 586 587
f 524 588 540
f 524 587 589
f 524 589 588
f 526 539 527
f 527 539 528
f 528 539 590
f 528 590 529
f 529 590 591
f 529 591 592
f 529 592 533
f 532 533 593
f 532 593 582
f 533 592 593
f 535 543 536
f 536 543 537
f 537 543 594
f 537 594 595
f 537 595 596
f 537 596 538
f 538 597 590
f 538 590 539
f 538 596 598
f 538 598 597
f 540 599 541
f 540 588 599
f 541 599 542
f 542 599 552
f 543 547 600
f 543 600 594
f 546 551 547
f 547 551 601
f 547 601 600
f 548 580 602
f 548 602 603
f 548 603 549
f 549 603 550
f 550 604 551
f 550 603 605
f 550 605 606
f 550 606 604
f 551 604 607
f 551 607 601
f 552 599 608
f 552 608 609
f 552 609 610
f 552 610 553
f 553 610 554
f 554 610 611
f 554 611 612
f 554 612 556
f 556 612 613
f 556 613 557
f 557 613 558
f 558 613 614
f 558 614 615
f 558 615 616
f 558 616 559
f 559 616 617
f 559 617 618
f 559 618 563
f 560 563 564
f 563 618 619
f 563 619 620
f 563 620 564
f 564 566 565
f 564 620 621
f 564 621 622
f 564 622 623
f 564 623 624
f 564 624 625
f 564 625 566
f 566 625 567
f 567 625 626
f 567 626 568
f 568 626 627
f 568 627 628
f 568 628 569
f 569 628 629
f 569 629 630
f 569 630 570
f 570 630 571
f 575 577 576
f 581 584 631
f 581 631 585
f 582 593 583
f 583 632 584
f 583 593 632
f 584 632 633
f 584 633 634
f 584 634 631
f 585 631 635
f 585 635 636
f 585 636 586
f 586 637 587
f 586 636 637
f 587 637 638
f 587 638 639
f 587 639 640
f 587 640 641
f 587 641 642
f 587 642 589
f 588 589 643
f 588 643 608
f 588 608 599
f 589 644 643
f 589 642 645
f 589 645 646
f 589 646 647
f 589 647 648
f 589 648 644
f 590 592 591
f 590 597 649
f 590 649 592
f 592 649 650
f 592 650 651
f 592 651 593
f 593 651 632
f 594 600 595
f 595 600 596
f 596 600 652
f 596 652 653
f 596 653 654
f 596 654 598
f 597 598 655
f 597 655 649
f 598 654 653
f 598 653 656
f 598 656 655
f 600 601 607
f 600 607 604
f 600 604 657
f 600 657 652
f 604 606 658
f 604 658 659
f 604 659 657
f 608 643 660
f 608 660 609
f 609 660 610
f 610 660 611
f 611 661 662
f 611 662 612
f 611 660 663
f 611 663 664
f 611 664 665
f 611 665 666
f 611 666 661
f 612 662 667
f 612 667 668
f 612 668 613
f 613 668 614
f 614 668 615
f 615 668 669
f 615 669 670
f 615 670 671
f 615 671 616
f 616 672 617
f 616 671 673
f 616 673 674
f 616 674 672
f 617 672 618
f 618 672 675
f 618 675 619
f 619 675 676
f 619 676 620
f 620 676 677
f 620 677 621
f 621 677 678
f 621 678 622
f 622 624 623
f 622 678 679
f 622 679 680
f 622 680 681
f 622 681 624
f 624 681 682
f 624 682 683
f 624 683 625
f 625 683 627
f 625 627 626
f 631 684 635
f 631 634 684
f 632 685 686
f 632 686 687
f 632 687 633
f 632 651 688
f 632 688 689
f 632 689 690
f 632 690 691
f 632 691 685
f 633 687 686
f 633 686 634
f 634 686 692
f 634 692 693
f 634 693 694
f 634 694 695
f 634 695 696
f 634 696 684
f 635 684 636
f 636 697 637
f 636 684 696
f 636 696 695
f 636 695 698
f 636 698 697
f 637 697 699
f 637 699 700
f 637 700 639
f 637 639 638
f 639 701 702
f 639 702 645
f 639 645 642
f 639 642 641
f 639 641 640
f 639 700 703
f 639 703 701
f 643 704 660
f 643 644 705
f 643 705 706
f 643 706 704
f 644 648 705
f 645 702 701
f 645 701 707
f 645 707 646
f 646 707 647
f 647 707 648
f 648 707 705
f 649 655 708
f 649 708 650
f 650 688 651
f 650 708 709
f 650 709 688
f 652 657 659
f 652 659 710
f 652 710 653
f 653 710 711
f 653 711 712
f 653 712 656
f 655 656 713
f 655 713 714
f 655 714 708
f 656 712 715
f 656 715 716
f 656 716 713
f 660 704 717
f 660 717 718
f 660 718 719
f 660 719 664
f 660 664 663
f 661 666 662
f 662 666 720
f 662 720 667
f 664 721 722
f 664 722 723
f 664 723 665
f 664 719 724
f 664 724 725
f 664 725 726
f 664 726 721
f 665 723 727
f 665 727 666
f 666 728 720
f 666 727 722
f 666 722 729
f 666 729 728
f 667 720 668
f 668 720 730
f 668 730 731
f 668 731 732
f 668 732 733
f 668 733 669
f 669 733 734
f 669 734 670
f 670 734 671
f 671 734 673
f 672 674 735
f 672 735 736
f 672 736 675
f 673 734 737
f 673 737 738
f 673 738 739
f 673 739 674
f 674 739 740
f 674 740 741
f 674 741 735
f 675 736 742
f 675 742 677
f 675 677 676
f 677 742 743
f 677 743 678
f 678 743 744
f 678 744 679
f 685 745 692
f 685 692 686
f 685 691 746
f 685 746 745
f 688 709 747
f 688 747 748
f 688 748 689
f 689 748 749
f 689 749 750
f 689 750 690
f 690 750 751
f 690 751 691
f 691 751 746
f 692 745 693
f 693 745 752
f 693 752 694
f 694 753 698
f 694 698 695
f 694 752 754
f 694 754 755
f 694 755 756
f 694 756 757
f 694 757 753
f 697 698 758
f 697 758 759
f 697 759 703
f 697 703 699
f 698 753 760
f 698 760 761
f 698 761 762
f 698 762 758
f 699 703 700
f 701 703 763
f 701 763 764
f 701 764 707
f 703 759 761
f 703 761 765
f 703 765 766
f 703 766 767
f 703 767 768
f 703 768 763
f 704 706 769
f 704 769 785
f 704 785 717
f 705 707 770
f 705 770 771
f 705 771 772
f 705 772 706
f 706 773 769
f 706 772 773
f 707 774 770
f 707 764 775
f 707 775 776
f 707 776 774
f 708 714 777
f 708 777 709
f 709 777 778
f 709 778 747
f 711 779 712
f 712 779 715
f 713 716 780
f 713 780 714
f 714 778 777
f 714 780 781
f 714 781 782
f 714 782 778
f 715 783 716
f 716 783 784
f 716 784 780
f 717 785 718
f 718 785 786
f 718 786 719
f 719 786 785
f 719 785 724
f 720 728 787
f 720 787 730
f 721 726 788
f 721 788 722
f 722 727 723
f 722 788 789
f 722 789 790
f 722 790 729
f 724 785 725
f 725 791 792
f 725 792 726
f 725 785 769
f 725 769 793
f 725 793 794
f 725 794 791
f 726 792 795
f 726 795 796
f 726 796 788
f 728 729 730
f 728 730 787
f 729 797 732
f 729 732 730
f 729 790 797
f 730 732 731
f 732 798 799
f 732 799 733
f 732 797 800
f 732 800 801
f 732 801 802
f 732 802 803
f 732 803 804
f 732 804 798
f 733 799 734
f 734 799 798
f 734 798 804
f 734 804 805
f 734 805 737
f 735 741 806
f 735 806 736
f 736 806 807
f 736 807 808
f 736 808 742
f 737 805 738
f 738 805 809
f 738 809 739
f 739 809 810
f 739 810 740
f 740 810 811
f 740 811 741
f 741 811 812
f 741 812 813
f 741 813 806
f 742 808 814
f 742 814 815
f 742 815 816
f 742 816 743
f 743 816 744
f 745 746 817
f 745 817 754
f 745 754 752
f 747 778 748
f 748 778 818
f 748 818 819
f 748 819 749
f 749 819 820
f 749 820 821
f 749 821 750
f 750 821 822
f 750 822 751
f 753 757 760
f 758 762 759
f 759 762 761
f 760 767 761
f 761 767 765
f 763 823 764
f 763 768 824
f 763 824 825
f 763 825 826
f 763 826 827
f 763 827 828
f 763 828 823
f 764 823 775
f 765 767 766
f 767 829 768
f 768 829 830
f 768 830 824
f 769 773 772
f 769 772 793
f 770 774 771
f 771 774 831
f 771 831 772
f 772 831 793
f 774 776 831
f 775 832 776
f 775 823 828
f 775 828 833
f 775 833 834
f 775 834 832
f 776 832 835
f 776 835 831
f 778 782 818
f 788 796 789
f 789 796 836
f 789 836 837
f 789 837 838
f 789 838 790
f 790 838 800
f 790 800 797
f 791 794 842
f 791 842 792
f 792 839 840
f 792 840 841
f 792 841 795
f 792 842 852
f 792 852 839
f 793 831 842
f 793 842 794
f 795 841 843
f 795 843 844
f 795 844 796
f 796 844 845
f 796 845 836
f 805 810 809
f 806 813 846
f 806 846 847
f 806 847 814
f 806 814 807
f 807 814 808
f 831 835 842
f 832 834 848
f 832 848 835
f 835 848 849
f 835 849 850
f 835 850 851
f 835 851 853
f 835 853 842
f 842 853 854
f 842 854 855
f 842 855 852

