# https://github.com/mikedh/trimesh
v -0.58501499 -0.12139955 1.17177018
v -0.59573573 -0.12331259 1.17177018
v -0.57744350 -0.12207346 1.17177018
v -0.54901714 0.00088286 1.14522224
v -0.59755115 -0.12661693 1.17177018
v -0.56477451 0.00088286 1.13997632
v -0.57344186 -0.12329085 1.17177018
v -0.54486615 0.00088286 1.14505763
v -0.59989788 -0.13533431 1.17177018
v -0.56477451 0.00088286 1.12816748
v -0.56589254 -0.13516039 1.17177018
v -0.54486615 0.00088286 1.12554451
v -0.54486615 -0.15298645 1.14862442
v -0.60140328 -0.14224735 1.17177018
v -0.54901714 0.00088286 1.12491896
v -0.58501499 -0.22120373 1.05966308
v -0.59961560 -0.22120373 1.07106584
v -0.60018563 -0.22120373 1.07266816
v -0.60009159 -0.20620376 1.08837303
v -0.59984804 -0.18859509 1.10682158
v -0.56645152 -0.15250819 1.17177018
v -0.54486615 -0.18898639 1.12399707
v -0.56847171 -0.22120373 1.07105487
v -0.58062045 -0.22120373 1.06143002
v -0.54486615 -0.22120373 1.14505763
v -0.60139776 -0.15298645 1.16102588
v -0.59892925 -0.15237775 1.17177018
v -0.60010264 -0.22120373 1.09438719
v -0.60120957 -0.17098642 1.14302731
v -0.57404516 -0.16133426 1.17177018
v -0.54486615 -0.19313855 1.12399707
v -0.54486615 -0.21113852 1.12466653
v -0.54486615 -0.22120373 1.12530307
v -0.58501499 -0.16268209 1.17177018
v -0.54901714 -0.22120373 1.14524421
v -0.60019121 -0.20811680 1.10806173
v -0.59734081 -0.15772557 1.17177018
v -0.59791643 -0.22120373 1.10044525
v -0.59765630 -0.20285594 1.12145093
v -0.59401446 -0.16200818 1.17177018
v -0.56561025 -0.22120373 1.13991047
v -0.59745153 -0.22022546 1.10274995
v -0.59530405 -0.16133426 1.17177018
v -0.59496640 -0.16274731 1.17085928
v -0.59417497 -0.18011684 1.15215829
f 1 2 5
f 1 5 9
f 1 9 14
f 1 14 27
f 1 27 37
f 1 37 43
f 1 43 40
f 1 40 34
f 1 34 30
f 1 30 21
f 1 21 11
f 1 11 7
f 1 7 3
f 1 3 4
f 1 4 2
f 2 4 6
f 2 6 5
f 3 7 8
f 3 8 4
f 4 8 12
f 4 12 15
f 4 15 10
f 4 10 6
f 5 6 9
f 6 10 9
f 7 11 8
f 8 11 13
f 8 13 25
f 8 25 33
f 8 33 32
f 8 32 31
f 8 31 22
f 8 22 12
f 9 10 14
f 10 15 16
f 10 16 17
f 10 17 18
f 10 18 19
f 10 19 20
f 10 20 14
f 11 21 13
f 12 22 23
f 12 23 24
f 12 24 16
f 12 16 15
f 13 21 25
f 14 26 27
f 14 20 19
f 14 19 18
f 14 18 26
f 16 24 23
f 16 23 33
f 16 33 25
f 16 25 35
f 16 35 41
f 16 41 38
f 16 38 28
f 16 28 18
f 16 18 17
f 18 28 29
f 18 29 26
f 21 30 25
f 22 31 23
f 23 31 32
f 23 32 33
f 25 30 34
f 25 34 35
f 26 29 27
f 27 29 36
f 27 36 37
f 28 38 39
f 28 39 37
f 28 37 36
f 28 36 29
f 34 40 35
f 35 40 41
f 37 39 42
f 37 42 43
f 38 41 42
f 38 42 39
f 40 43 41
f 41 43 44
f 41 44 45
f 41 45 42
f 42 45 44
f 42 44 43

