# https://github.com/mikedh/trimesh
v 0.58500914 -0.23602666 1.04302626
v 0.58634513 -0.23602666 1.04361942
v 0.57512660 -0.23602666 1.04987465
v 0.56898102 -0.23597790 1.05364937
v 0.57120141 -0.22900475 1.05645345
v 0.57512660 -0.14522952 1.13566842
v 0.57512660 -0.14010938 1.14111481
v 0.58500538 0.26213854 1.57520651
v 0.59766907 -0.22895599 1.05645345
v 0.59905398 -0.23602666 1.05370328
v 0.57512660 -0.23602666 1.07678295
v 0.56739665 -0.23597790 1.05715446
v 0.56721978 -0.18619063 1.10854445
v 0.56709184 0.26213854 1.58706991
v 0.57456960 0.26213854 1.57935874
v 0.60160177 0.26213854 1.58755524
v 0.60019803 -0.22378710 1.06993456
v 0.59996472 -0.23602666 1.07074343
v 0.57108097 -0.23597790 1.08487161
v 0.56766386 -0.23597790 1.07931741
v 0.58500914 -0.23602666 1.08994052
v 0.56454405 -0.13947545 1.17573429
v 0.56610583 -0.18867756 1.10854445
v 0.56539079 0.26213854 1.59230057
v 0.60263670 0.26213854 1.59106034
v 0.60299044 0.26204101 1.59391831
v 0.60148134 -0.11689808 1.19708837
v 0.60139856 -0.15293411 1.16112078
v 0.60120662 -0.17092774 1.14305609
v 0.60007008 -0.22564010 1.08967090
v 0.59757122 -0.23602666 1.08481769
v 0.57511904 -0.23597790 1.08702859
v 0.57512660 -0.20359910 1.13717833
v 0.56771278 0.22512725 1.59391831
v 0.56585745 0.15295766 1.50294779
v 0.56508973 0.26204101 1.59391831
v 0.56773537 0.26213854 1.59391831
v 0.60271572 0.26213854 1.59267808
v 0.59969376 0.22459085 1.59391831
v 0.59977653 0.22439579 1.59337906
v 0.60122169 0.15295766 1.50294779
v 0.60137973 -0.00888752 1.32294801
v 0.59991204 -0.08144721 1.25155205
v 0.59960342 -0.09909950 1.23305596
v 0.59910290 -0.11670302 1.21466773
v 0.59702929 -0.09319915 1.24578214
v 0.59665672 -0.11055886 1.22701644
v 0.59619006 -0.12791857 1.20835858
v 0.59563311 -0.14527828 1.18970073
v 0.59496324 -0.16268676 1.17093503
v 0.59417668 -0.18004647 1.15216932
v 0.59417668 0.12584530 1.49410416
v 0.57512660 -0.20047826 1.14062948
v 0.56800633 0.22444455 1.59391831
v 0.58500538 0.21498449 1.59391831
v 0.59702929 0.21264385 1.58766307
v 0.59952440 0.20679226 1.57493695
v 0.59972761 0.06259938 1.41316360
v 0.60110877 0.13496402 1.48493704
v 0.59910290 0.18913998 1.55649477
v 0.59665672 0.19528414 1.56889736
v 0.59619006 0.17792443 1.55018563
v 0.59591909 0.01627431 1.36991620
v 0.59563686 0.16056472 1.53152775
v 0.59496324 0.14315625 1.51281595
v 0.57936412 0.21634987 1.59391831
v 0.57176968 0.21264385 1.58766307
f 1 2 10
f 1 10 18
f 1 18 31
f 1 31 21
f 1 21 11
f 1 11 3
f 1 3 4
f 1 4 5
f 1 5 6
f 1 6 7
f 1 7 8
f 1 8 2
f 2 9 10
f 2 8 9
f 3 11 12
f 3 12 4
f 4 12 13
f 4 13 5
f 5 13 6
f 6 13 7
f 7 13 14
f 7 14 15
f 7 15 8
f 8 15 14
f 8 14 24
f 8 24 37
f 8 37 38
f 8 38 25
f 8 25 16
f 8 16 9
f 9 17 10
f 9 16 17
f 10 17 18
f 11 19 20
f 11 20 12
f 11 21 19
f 12 20 22
f 12 22 23
f 12 23 13
f 13 23 14
f 14 23 24
f 16 25 17
f 17 25 26
f 17 26 27
f 17 27 28
f 17 28 29
f 17 29 18
f 18 29 30
f 18 30 31
f 19 21 32
f 19 32 33
f 19 33 20
f 20 33 34
f 20 34 22
f 21 33 32
f 21 31 33
f 22 34 35
f 22 35 36
f 22 36 23
f 23 36 24
f 24 36 37
f 25 38 26
f 26 38 37
f 26 37 36
f 26 36 34
f 26 34 54
f 26 54 66
f 26 66 55
f 26 55 39
f 26 39 40
f 26 40 41
f 26 41 42
f 26 42 28
f 26 28 27
f 28 42 29
f 29 42 30
f 30 42 43
f 30 43 44
f 30 44 45
f 30 45 31
f 31 45 46
f 31 46 47
f 31 47 48
f 31 48 49
f 31 49 50
f 31 50 51
f 31 51 33
f 33 51 52
f 33 52 53
f 33 53 54
f 33 54 34
f 34 36 35
f 39 55 56
f 39 56 57
f 39 57 40
f 40 57 58
f 40 58 43
f 40 43 42
f 40 42 59
f 40 59 41
f 41 59 42
f 43 58 44
f 44 58 57
f 44 57 60
f 44 60 45
f 45 60 56
f 45 56 46
f 46 56 61
f 46 61 47
f 47 61 48
f 48 61 62
f 48 62 63
f 48 63 49
f 49 63 64
f 49 64 65
f 49 65 50
f 50 65 51
f 51 65 52
f 52 65 55
f 52 55 53
f 53 55 66
f 53 66 67
f 53 67 54
f 54 67 66
f 55 65 64
f 55 64 56
f 56 60 57
f 56 64 61
f 61 64 62
f 62 64 63

