# https://github.com/mikedh/trimesh
v 0.55869351 -0.38293885 1.76824140
v 0.56810844 -0.38293885 1.76054588
v 0.55869351 -0.38293885 1.77180606
v 0.55869351 0.05949370 1.76824140
v 0.58610591 -0.38293885 1.75429671
v 0.56810844 0.05949370 1.76054588
v 0.56440249 -0.38293885 1.78080460
v 0.56321508 0.05949370 1.77893532
v 0.55869351 0.05949370 1.77180606
v 0.60048185 -0.38293885 1.76199223
v 0.58610591 0.05949370 1.75429671
v 0.56631254 -0.38293885 1.78239762
v 0.56440249 0.05949370 1.78080460
v 0.60186367 -0.38293885 1.77846797
v 0.60048185 0.05949370 1.76199223
v 0.57339910 -0.38293885 1.78829885
v 0.57339910 0.05949370 1.78829885
v 0.57153132 0.05949370 1.78674339
v 0.59762948 -0.38293885 1.78621805
v 0.60186367 0.05949370 1.77846797
v 0.58610591 -0.38293885 1.78913801
v 0.58346479 0.05949370 1.78897085
v 0.59648428 -0.38293885 1.78830910
v 0.59648428 0.05949370 1.78831248
v 0.58610591 0.05949370 1.78914482
f 1 2 5
f 1 5 10
f 1 10 14
f 1 14 19
f 1 19 23
f 1 23 21
f 1 21 16
f 1 16 12
f 1 12 7
f 1 7 3
f 1 3 9
f 1 9 4
f 1 4 6
f 1 6 2
f 2 6 11
f 2 11 5
f 3 7 8
f 3 8 9
f 4 9 8
f 4 8 13
f 4 13 18
f 4 18 17
f 4 17 22
f 4 22 25
f 4 25 24
f 4 24 20
f 4 20 15
f 4 15 11
f 4 11 6
f 5 11 15
f 5 15 10
f 7 12 13
f 7 13 8
f 10 15 20
f 10 20 14
f 12 16 17
f 12 17 18
f 12 18 13
f 14 20 19
f 16 21 22
f 16 22 17
f 19 20 24
f 19 24 23
f 21 23 25
f 21 25 22
f 23 24 25

