# https://github.com/mikedh/trimesh
v 0.53228309 -0.38293885 1.62949003
v 0.55344792 -0.38293885 1.62350656
v 0.53228309 -0.38293885 1.65195927
v 0.53228309 0.05949370 1.62947351
v 0.55296217 0.05949370 1.62120093
v 0.56236369 -0.38293885 1.62350656
v 0.56573217 0.05949370 1.61826858
v 0.55010760 -0.38293885 1.65195927
v 0.54640471 0.05949370 1.65196260
v 0.53228309 0.05949370 1.65195927
v 0.56769624 -0.38293885 1.63447401
v 0.56750264 0.05949370 1.62194970
v 0.55315229 -0.38293885 1.65105880
v 0.55010760 0.05949370 1.65196260
v 0.56513028 -0.38293885 1.64490050
v 0.56823832 0.05949370 1.63447401
v 0.56756251 0.05949370 1.63722166
v 0.56443688 -0.38293885 1.64771414
v 0.56145909 0.05949370 1.64859814
v 0.56443688 0.05949370 1.64771414
f 1 2 6
f 1 6 11
f 1 11 15
f 1 15 18
f 1 18 13
f 1 13 8
f 1 8 3
f 1 3 10
f 1 10 4
f 1 4 5
f 1 5 2
f 2 5 7
f 2 7 6
f 3 8 14
f 3 14 9
f 3 9 10
f 4 10 9
f 4 9 14
f 4 14 19
f 4 19 20
f 4 20 17
f 4 17 16
f 4 16 12
f 4 12 7
f 4 7 5
f 6 7 11
f 7 12 11
f 8 13 14
f 11 12 16
f 11 16 17
f 11 17 15
f 13 18 19
f 13 19 14
f 15 17 18
f 17 20 18
f 18 20 19

