# https://github.com/mikedh/trimesh
v 0.58500941 -0.31039097 0.90287176
v 0.54489351 -0.31039097 1.12503031
v 0.56839741 -0.30819971 0.90287176
v 0.59537003 -0.30894954 0.90287176
v 0.58717728 -0.31009249 1.50546066
v 0.58500941 -0.31039097 1.50546066
v 0.54489351 -0.30870202 1.13688741
v 0.54489351 -0.30819971 1.11051862
v 0.55939579 -0.30132747 0.90287176
v 0.57068829 -0.30850546 1.50546066
v 0.56839741 -0.30819971 1.50546066
v 0.56715492 -0.30725332 1.50546066
v 0.55939579 -0.30132747 1.50546066
v 0.60074773 -0.30819971 0.90287176
v 0.60074773 -0.30819971 1.50546066
v 0.54489351 -0.30819971 1.13983695
v 0.54489351 -0.29830631 1.10391168
v 0.55764850 -0.29232223 0.90287176
v 0.55764850 -0.29232223 1.50546066
v 0.60972350 -0.29700321 0.90287176
v 0.60848745 -0.29854654 1.50546066
v 0.54489351 -0.30065044 1.14667987
v 0.54489351 -0.28035403 1.10892588
v 0.55764850 -0.28412502 0.90287176
v 0.55764850 -0.28449630 1.50546066
v 0.54489351 -0.27906549 1.15098616
v 0.54489351 -0.29839367 1.14797767
v 0.61073300 -0.27900726 0.90287176
v 0.61094656 -0.27900726 0.90906576
v 0.61099184 -0.27900726 1.05306179
v 0.60972350 -0.29700321 1.50546066
v 0.54489351 -0.23603390 1.12556122
v 0.56290973 -0.23603390 0.90906576
v 0.55874866 -0.27512705 0.90287176
v 0.55979700 -0.27673591 1.50546066
v 0.54489351 -0.23603390 1.14508711
v 0.60126541 -0.23603390 0.90287176
v 0.60342035 -0.23603390 0.90906576
v 0.60904397 -0.27900726 1.50546066
v 0.56591244 -0.23603390 0.90287176
v 0.56035352 -0.26588885 0.90287176
v 0.56014001 -0.27549833 1.50546066
v 0.54901574 -0.23603390 1.14526409
v 0.56914163 -0.26814561 1.50546066
v 0.58282206 -0.26653675 1.50546066
v 0.58500941 -0.26628197 1.50546066
v 0.59996467 -0.23603390 1.07075897
v 0.60006820 -0.26814561 1.50546066
v 0.56491586 -0.23603390 1.14001393
v 0.59757674 -0.23603390 1.08479873
f 1 2 3
f 1 3 9
f 1 9 18
f 1 18 24
f 1 24 34
f 1 34 41
f 1 41 40
f 1 40 37
f 1 37 28
f 1 28 20
f 1 20 14
f 1 14 4
f 1 4 5
f 1 5 6
f 1 6 2
f 2 7 16
f 2 16 22
f 2 22 27
f 2 27 26
f 2 26 36
f 2 36 32
f 2 32 23
f 2 23 17
f 2 17 8
f 2 8 9
f 2 9 3
f 2 6 10
f 2 10 11
f 2 11 12
f 2 12 13
f 2 13 7
f 4 14 5
f 5 15 21
f 5 21 31
f 5 31 39
f 5 39 48
f 5 48 46
f 5 46 45
f 5 45 44
f 5 44 42
f 5 42 35
f 5 35 25
f 5 25 19
f 5 19 13
f 5 13 12
f 5 12 11
f 5 11 10
f 5 10 6
f 5 14 15
f 7 13 16
f 8 17 18
f 8 18 9
f 13 19 16
f 14 20 21
f 14 21 15
f 16 19 22
f 17 23 24
f 17 24 18
f 19 25 26
f 19 26 27
f 19 27 22
f 20 28 29
f 20 29 30
f 20 30 31
f 20 31 21
f 23 32 24
f 24 33 34
f 24 32 33
f 25 35 36
f 25 36 26
f 28 37 38
f 28 38 29
f 29 38 30
f 30 38 39
f 30 39 31
f 32 36 43
f 32 43 49
f 32 49 50
f 32 50 47
f 32 47 38
f 32 38 37
f 32 37 40
f 32 40 33
f 33 40 41
f 33 41 34
f 35 42 36
f 36 42 44
f 36 44 45
f 36 45 46
f 36 46 43
f 38 47 39
f 39 47 48
f 43 46 49
f 46 48 49
f 47 50 48
f 48 50 49

