# https://github.com/mikedh/trimesh
v -0.54486610 -0.27906801 1.15093300
v -0.54486610 -0.29838957 1.14797533
v -0.54486610 -0.25947228 1.14709898
v -0.55765107 -0.28450655 1.46241995
v -0.55765107 -0.29232789 1.46241995
v -0.54486610 -0.30819990 1.13986911
v -0.54748137 -0.25947228 1.14759193
v -0.58501413 -0.26628167 1.46241995
v -0.58093588 -0.26676024 1.46241995
v -0.56914131 -0.26814604 1.46241995
v -0.56244785 -0.27361451 1.46241995
v -0.56013685 -0.27550377 1.46241995
v -0.54486610 -0.25947228 1.12371146
v -0.55809772 -0.29463591 1.46241995
v -0.54486610 -0.31039824 1.12508074
v -0.55939890 -0.30132567 1.46241995
v -0.56735470 -0.25947228 1.15000190
v -0.59620663 -0.26766750 1.46241995
v -0.57398991 -0.25947228 1.14978281
v -0.57673463 -0.25947228 1.14331973
v -0.60172843 -0.25947228 1.07124012
v -0.60629865 -0.25947228 1.05464428
v -0.54486610 -0.28036409 1.10892308
v -0.55765107 -0.28413269 0.90287176
v -0.55825957 -0.27821060 0.90287176
v -0.55874507 -0.27513491 0.90287176
v -0.56118551 -0.25947228 0.90906098
v -0.58501413 -0.31039824 0.90287176
v -0.57408057 -0.30895263 0.90287176
v -0.56839687 -0.30819990 0.90287176
v -0.56532201 -0.30585199 0.90287176
v -0.55939890 -0.30132567 0.90287176
v -0.54486610 -0.30870835 1.11341436
v -0.56608587 -0.30643523 1.46241995
v -0.56839687 -0.30819990 1.46241995
v -0.58501413 -0.31039824 1.46241995
v -0.60007121 -0.26814604 1.46241995
v -0.60638277 -0.25947228 1.05294636
v -0.54486610 -0.28364916 1.10788242
v -0.55765107 -0.29232789 0.90287176
v -0.54486610 -0.29830481 1.10393886
v -0.56343181 -0.25947228 0.90287176
v -0.60075095 -0.30819990 0.90287176
v -0.58904704 -0.30983493 1.46241995
v -0.55824659 -0.29540360 0.90287176
v -0.54486610 -0.30819990 1.11051146
v -0.60904338 -0.27900820 1.46241995
v -0.60640224 -0.25947228 0.90906098
v -0.60692009 -0.26100764 1.05305590
v -0.54486610 -0.30085212 1.10476044
v -0.60470619 -0.25947228 0.90287176
v -0.60972307 -0.29700374 0.90287176
v -0.60075095 -0.30819990 1.46241995
v -0.60741856 -0.29988006 1.46241995
v -0.60921815 -0.28362920 1.46241995
v -0.61099833 -0.27900820 1.05305590
v -0.60792347 -0.26715902 0.90287176
v -0.61073295 -0.27900820 0.90287176
v -0.61094656 -0.27900820 0.90906098
v -0.61052577 -0.28515459 0.90287176
v -0.60972307 -0.29700374 1.46241995
f 1 2 6
f 1 6 15
f 1 15 33
f 1 33 46
f 1 46 50
f 1 50 41
f 1 41 39
f 1 39 23
f 1 23 13
f 1 13 3
f 1 3 4
f 1 4 5
f 1 5 2
f 2 5 6
f 3 7 8
f 3 8 9
f 3 9 10
f 3 10 11
f 3 11 12
f 3 12 4
f 3 13 27
f 3 27 42
f 3 42 51
f 3 51 48
f 3 48 38
f 3 38 22
f 3 22 21
f 3 21 20
f 3 20 19
f 3 19 17
f 3 17 7
f 4 12 11
f 4 11 10
f 4 10 9
f 4 9 8
f 4 8 18
f 4 18 37
f 4 37 47
f 4 47 55
f 4 55 61
f 4 61 54
f 4 54 53
f 4 53 44
f 4 44 36
f 4 36 35
f 4 35 34
f 4 34 16
f 4 16 14
f 4 14 5
f 5 14 6
f 6 14 16
f 6 16 15
f 7 17 8
f 8 17 19
f 8 19 20
f 8 20 21
f 8 21 22
f 8 22 18
f 13 23 24
f 13 24 25
f 13 25 26
f 13 26 27
f 15 28 29
f 15 29 30
f 15 30 31
f 15 31 32
f 15 32 33
f 15 16 34
f 15 34 35
f 15 35 36
f 15 36 28
f 18 22 37
f 22 38 37
f 23 39 24
f 24 40 45
f 24 45 32
f 24 32 31
f 24 31 30
f 24 30 29
f 24 29 28
f 24 28 43
f 24 43 52
f 24 52 60
f 24 60 58
f 24 58 57
f 24 57 51
f 24 51 42
f 24 42 26
f 24 26 25
f 24 39 41
f 24 41 40
f 26 42 27
f 28 36 44
f 28 44 43
f 32 45 46
f 32 46 33
f 37 38 47
f 38 48 49
f 38 49 47
f 40 41 50
f 40 50 46
f 40 46 45
f 43 44 53
f 43 53 54
f 43 54 52
f 47 49 56
f 47 56 55
f 48 51 57
f 48 57 58
f 48 58 59
f 48 59 49
f 49 59 56
f 52 56 59
f 52 59 60
f 52 54 61
f 52 61 56
f 55 56 61
f 58 60 59

