# https://github.com/mikedh/trimesh
v 0.00106239 -0.47212620 1.63446993
v 0.00106239 -0.47103251 1.64027364
v 0.00106239 -0.47048568 1.61647317
v 0.53223106 -0.47054644 1.61664837
v 0.53223106 -0.47212620 1.63446993
v 0.00106239 -0.46987808 1.64620191
v 0.53223106 -0.46987808 1.64625261
v 0.00106239 -0.46939199 1.61165130
v 0.53223106 -0.46835907 1.60694006
v 0.53223106 -0.46975655 1.64631253
v 0.53223106 -0.45875901 1.65065958
v 0.00106239 -0.45875901 1.65044753
v 0.00106239 -0.46829832 1.60693544
v 0.53223106 -0.46829832 1.60678336
v 0.53223106 -0.44071333 1.65231450
v 0.00106239 -0.44071333 1.65195954
v 0.00106239 -0.46349829 1.60629010
v 0.53223106 -0.45875901 1.60523444
v 0.53223106 0.11718433 1.65232373
v 0.00106239 0.11718433 1.65195954
v 0.00106239 -0.45875901 1.60565394
v 0.53223106 0.13523001 1.60522983
v 0.53223106 0.11742736 1.65230528
v 0.00106239 0.12611603 1.65121276
v 0.00106239 0.13523001 1.60565394
v 0.00106239 0.14476932 1.60693544
v 0.53223106 0.14464781 1.60673723
v 0.00106239 0.13523001 1.65044753
v 0.53223106 0.13523001 1.65065958
v 0.00106239 0.14695668 1.61647317
v 0.53223106 0.14476932 1.60678336
v 0.00106239 0.14634908 1.64620191
v 0.53223106 0.14634908 1.64625261
v 0.00106239 0.14780732 1.62556832
v 0.53223106 0.14695668 1.61632103
v 0.53223106 0.14640984 1.64608663
v 0.00106239 0.14859720 1.63446993
v 0.53223106 0.14859720 1.63446993
f 1 2 6
f 1 6 12
f 1 12 16
f 1 16 20
f 1 20 24
f 1 24 28
f 1 28 32
f 1 32 37
f 1 37 34
f 1 34 30
f 1 30 26
f 1 26 25
f 1 25 21
f 1 21 17
f 1 17 13
f 1 13 8
f 1 8 3
f 1 3 4
f 1 4 5
f 1 5 2
f 2 5 7
f 2 7 6
f 3 8 9
f 3 9 4
f 4 9 14
f 4 14 18
f 4 18 22
f 4 22 27
f 4 27 31
f 4 31 35
f 4 35 38
f 4 38 36
f 4 36 33
f 4 33 29
f 4 29 23
f 4 23 19
f 4 19 15
f 4 15 11
f 4 11 10
f 4 10 7
f 4 7 5
f 6 7 10
f 6 10 11
f 6 11 12
f 8 13 9
f 9 13 14
f 11 15 12
f 12 15 16
f 13 17 18
f 13 18 14
f 15 19 16
f 16 19 20
f 17 21 18
f 18 21 22
f 19 23 20
f 20 23 24
f 21 25 22
f 22 25 26
f 22 26 27
f 23 28 24
f 23 29 28
f 26 30 35
f 26 35 31
f 26 31 27
f 28 29 32
f 29 33 32
f 30 34 35
f 32 33 36
f 32 36 37
f 34 37 38
f 34 38 35
f 36 38 37

