# https://github.com/mikedh/trimesh
v -0.58389094 -0.30197466 0.69267272
v -0.59350060 -0.30197466 0.69085409
v -0.56557177 -0.30197466 0.68942397
v -0.53002725 0.00029563 0.65596108
v -0.54789639 0.00029563 0.65596108
v -0.55342818 0.00029563 0.65534109
v -0.55902917 0.00029563 0.65471283
v -0.59556375 -0.30197466 0.68934958
v -0.55613523 -0.30197466 0.68263717
v -0.53002725 0.00029563 0.63150872
v -0.53002725 -0.29673759 0.65623389
v -0.56174314 0.00029563 0.64962892
v -0.59812537 -0.30197466 0.67996707
v -0.56449170 0.00029563 0.64447889
v -0.53002725 -0.30197466 0.65623389
v -0.53902064 0.00029563 0.62988019
v -0.53002725 -0.26075867 0.63127725
v -0.55519361 -0.25924968 0.60823018
v -0.55525594 -0.24291715 0.60823018
v -0.55526979 -0.24279880 0.60823018
v -0.60074932 -0.29673759 0.66246683
v -0.59980776 -0.30197466 0.66257431
v -0.56235929 0.00029563 0.63051673
v -0.59856847 -0.24161528 0.60823018
v -0.59856847 -0.24137857 0.60984216
v -0.60013316 -0.26075867 0.62647440
v -0.60053474 -0.27874813 0.64447889
v -0.53002725 -0.30197466 0.63150872
v -0.54789639 0.00029563 0.62827650
v -0.53002725 -0.27860018 0.63137644
v -0.55524902 -0.25963432 0.60823018
v -0.56113390 -0.23427747 0.60823018
v -0.59863773 -0.26182383 0.60823018
v -0.59840233 -0.27951742 0.62584615
v -0.59801459 -0.29709265 0.64434663
v -0.59689998 -0.30197466 0.64685965
v -0.59776536 -0.23750256 0.60823018
v -0.54272466 -0.30197466 0.62892128
v -0.56589021 -0.27037475 0.60823018
v -0.56193009 -0.26806688 0.60823018
v -0.56589021 -0.23155538 0.60823018
v -0.58389094 -0.22770895 0.60823018
v -0.59814618 -0.26389499 0.60823018
v -0.59603453 -0.27401406 0.61260317
v -0.59577146 -0.29129342 0.63142606
v -0.58407789 -0.30197466 0.63946939
v -0.54789639 -0.30197466 0.62798717
v -0.57252975 -0.27194290 0.60823018
v -0.58389094 -0.27445787 0.60823018
v -0.56537790 -0.30197466 0.62922716
v -0.56135545 -0.30197466 0.62860716
f 1 2 8
f 1 8 13
f 1 13 22
f 1 22 36
f 1 36 46
f 1 46 50
f 1 50 51
f 1 51 47
f 1 47 38
f 1 38 28
f 1 28 15
f 1 15 9
f 1 9 3
f 1 3 4
f 1 4 5
f 1 5 6
f 1 6 7
f 1 7 2
f 2 7 8
f 3 9 4
f 4 10 16
f 4 16 29
f 4 29 23
f 4 23 14
f 4 14 12
f 4 12 7
f 4 7 6
f 4 6 5
f 4 9 11
f 4 11 15
f 4 15 28
f 4 28 30
f 4 30 17
f 4 17 10
f 7 12 8
f 8 12 14
f 8 14 13
f 9 15 11
f 10 17 18
f 10 18 19
f 10 19 20
f 10 20 16
f 13 21 22
f 13 14 21
f 14 23 24
f 14 24 25
f 14 25 26
f 14 26 27
f 14 27 21
f 16 20 29
f 17 30 18
f 18 30 28
f 18 28 31
f 18 31 40
f 18 40 39
f 18 39 48
f 18 48 49
f 18 49 43
f 18 43 33
f 18 33 24
f 18 24 37
f 18 37 42
f 18 42 41
f 18 41 32
f 18 32 20
f 18 20 19
f 20 32 29
f 21 27 33
f 21 33 34
f 21 34 35
f 21 35 22
f 22 35 36
f 23 29 37
f 23 37 24
f 24 33 26
f 24 26 25
f 26 33 27
f 28 38 39
f 28 39 40
f 28 40 31
f 29 32 41
f 29 41 42
f 29 42 37
f 33 43 34
f 34 43 44
f 34 44 35
f 35 44 45
f 35 45 36
f 36 45 46
f 38 47 39
f 39 47 48
f 43 49 44
f 44 49 50
f 44 50 45
f 45 50 46
f 47 49 48
f 47 51 49
f 49 51 50

