# https://github.com/mikedh/trimesh
v -0.58388676 -0.27447846 0.60822189
v -0.57253554 -0.27191979 0.60822189
v -0.59814790 -0.26389325 0.60822189
v -0.59604548 -0.25660278 0.59375832
v -0.59347388 -0.23424064 0.56287335
v -0.59322122 0.01791177 0.27515987
v -0.58388676 -0.23448599 0.56259368
v -0.57258972 -0.23424064 0.56287335
v -0.56589900 -0.27037757 0.60822189
v -0.59863515 -0.26182528 0.60822189
v -0.59856745 -0.26186034 0.60730297
v -0.59794486 -0.17100976 0.50038429
v -0.59740348 -0.18856999 0.51888330
v -0.59532364 -0.18247123 0.50637748
v -0.59482282 -0.19971601 0.52519612
v -0.59421374 -0.21696080 0.54405471
v -0.59410549 -0.09088460 0.40017801
v -0.59400174 0.03519161 0.25634123
v -0.59465137 0.05243639 0.23752263
v -0.58389126 0.08359618 0.20004515
v -0.58389126 0.07637580 0.20823581
v -0.58389126 -0.09148046 0.39953873
v -0.58389126 -0.10833969 0.41875692
v -0.58388676 -0.18383820 0.50481925
v -0.57355065 0.01791177 0.27515987
v -0.57001357 -0.21696080 0.54401477
v -0.55675401 -0.19796350 0.52719386
v -0.57069935 0.03519161 0.25634123
v -0.57034745 -0.09088460 0.40017801
v -0.56192880 -0.26806425 0.60822189
v -0.59857196 -0.24160121 0.60822189
v -0.60034500 -0.22474198 0.57242253
v -0.59835540 -0.15344952 0.48188529
v -0.59868027 0.08359618 0.21259091
v -0.59780951 0.08107254 0.21259091
v -0.59572066 -0.16519140 0.48751889
v -0.59566648 -0.03911520 0.34368211
v -0.59518830 0.06971623 0.21866402
v -0.59183618 0.08359618 0.20256229
v -0.57947441 0.08359618 0.20088420
v -0.55685776 0.05415386 0.23944041
v -0.55680363 -0.07192235 0.38331716
v -0.55646975 -0.18047336 0.50861495
v -0.55524715 -0.25961711 0.60822189
v -0.55619005 -0.25365854 0.59703461
v -0.55654196 0.07164398 0.22082154
v -0.55650585 -0.05443220 0.36469829
v -0.56589900 0.08359618 0.20368099
v -0.56589900 0.06992651 0.21886379
v -0.56589900 0.06091858 0.22893238
v -0.56589900 0.05285699 0.23796209
v -0.59776890 -0.23750033 0.60822189
v -0.59850431 -0.22379562 0.59136104
v -0.60079165 -0.18874525 0.53646336
v -0.60065630 -0.20672609 0.55444293
v -0.60062025 -0.08075504 0.41044637
v -0.60057964 0.04521602 0.26652965
v -0.60028637 -0.09873589 0.42842596
v -0.60020966 0.02720010 0.28450925
v -0.60076912 0.06319685 0.24851014
v -0.60117064 0.08359618 0.23049058
v -0.59688463 0.08359618 0.20719704
v -0.55577050 0.08359618 0.21259091
v -0.55519302 -0.25923156 0.60822189
v -0.55598250 0.08359618 0.21187170
v -0.58388676 -0.22772126 0.60822189
v -0.59604548 -0.22915833 0.60474586
v -0.59824264 -0.20616529 0.57282210
v -0.60020966 -0.13476767 0.48244463
v -0.60057964 -0.15274851 0.50046420
v -0.60076912 -0.17076440 0.51844380
v -0.59763807 0.08359618 0.24807064
v -0.55567571 0.08359618 0.21382950
v -0.55525616 -0.24289808 0.60822189
v -0.55508021 0.08359618 0.22813324
v -0.58388676 -0.10059355 0.46354609
v -0.59321221 -0.12547932 0.49175407
v -0.59399268 -0.14275915 0.51061268
v -0.59465137 -0.16000394 0.52947127
v -0.59561235 -0.19452856 0.56710856
v -0.59593717 -0.21180840 0.58596717
v -0.56589900 -0.23154176 0.60822189
v -0.57125875 -0.14307461 0.51025308
v -0.57545453 -0.12575972 0.49143443
v -0.59410549 -0.01668296 0.36677593
v -0.59334304 0.00059688 0.34791732
v -0.59532364 0.07493873 0.26057644
v -0.58553798 0.08359618 0.25346451
v -0.59518374 -0.17728377 0.54824995
v -0.55632540 -0.19670168 0.56467135
v -0.55621264 -0.21429697 0.58317033
v -0.55527418 -0.24279293 0.60822189
v -0.55512532 0.08359618 0.23049058
v -0.55551784 0.08359618 0.24371559
v -0.55575242 0.08359618 0.24687201
v -0.58389126 0.08359618 0.25378412
v -0.56113476 -0.23427568 0.60822189
v -0.55686227 -0.16168636 0.52751350
v -0.56589900 -0.16066990 0.52871215
v -0.56589900 0.08359618 0.25070762
v -0.57441239 0.00028143 0.34755774
v -0.55654646 -0.17917650 0.54609241
v -0.55619005 -0.23199741 0.60186913
v -0.55680814 -0.03564521 0.38363678
f 1 2 9
f 1 9 30
f 1 30 44
f 1 44 64
f 1 64 74
f 1 74 92
f 1 92 97
f 1 97 82
f 1 82 66
f 1 66 52
f 1 52 31
f 1 31 10
f 1 10 3
f 1 3 4
f 1 4 5
f 1 5 6
f 1 6 7
f 1 7 8
f 1 8 2
f 2 8 9
f 3 10 11
f 3 11 12
f 3 12 13
f 3 13 4
f 4 13 14
f 4 14 15
f 4 15 16
f 4 16 5
f 5 16 17
f 5 17 18
f 5 18 6
f 6 18 19
f 6 19 20
f 6 20 21
f 6 21 22
f 6 22 23
f 6 23 24
f 6 24 7
f 7 24 25
f 7 25 8
f 8 26 27
f 8 27 9
f 8 25 28
f 8 28 29
f 8 29 26
f 9 27 30
f 10 31 32
f 10 32 11
f 11 32 33
f 11 33 12
f 12 33 34
f 12 34 35
f 12 35 13
f 13 35 36
f 13 36 14
f 14 36 37
f 14 37 38
f 14 38 15
f 15 38 19
f 15 19 17
f 15 17 16
f 17 19 18
f 19 38 20
f 20 38 39
f 20 39 62
f 20 62 34
f 20 34 61
f 20 61 72
f 20 72 88
f 20 88 96
f 20 96 100
f 20 100 95
f 20 95 94
f 20 94 93
f 20 93 75
f 20 75 73
f 20 73 63
f 20 63 65
f 20 65 48
f 20 48 40
f 20 40 28
f 20 28 25
f 20 25 21
f 21 25 22
f 22 25 24
f 22 24 23
f 26 29 41
f 26 41 42
f 26 42 27
f 27 43 44
f 27 44 45
f 27 45 30
f 27 42 46
f 27 46 47
f 27 47 43
f 28 40 48
f 28 48 49
f 28 49 50
f 28 50 51
f 28 51 41
f 28 41 29
f 30 45 44
f 31 52 53
f 31 53 54
f 31 54 55
f 31 55 32
f 32 55 56
f 32 56 57
f 32 57 58
f 32 58 34
f 32 34 33
f 34 58 59
f 34 59 57
f 34 57 60
f 34 60 61
f 34 62 35
f 35 62 37
f 35 37 36
f 37 62 38
f 38 62 39
f 41 51 50
f 41 50 49
f 41 49 48
f 41 48 46
f 41 46 42
f 43 47 63
f 43 63 44
f 44 63 64
f 46 48 65
f 46 65 63
f 46 63 47
f 52 66 67
f 52 67 53
f 53 67 68
f 53 68 69
f 53 69 70
f 53 70 71
f 53 71 54
f 54 71 61
f 54 61 55
f 55 61 56
f 56 61 60
f 56 60 57
f 57 59 58
f 61 71 70
f 61 70 69
f 61 69 72
f 63 73 64
f 64 73 75
f 64 75 74
f 66 76 77
f 66 77 78
f 66 78 79
f 66 79 80
f 66 80 81
f 66 81 67
f 66 82 83
f 66 83 84
f 66 84 76
f 67 81 68
f 68 81 72
f 68 72 69
f 72 85 86
f 72 86 87
f 72 87 88
f 72 81 80
f 72 80 89
f 72 89 79
f 72 79 85
f 74 90 91
f 74 91 92
f 74 75 93
f 74 93 94
f 74 94 95
f 74 95 90
f 76 96 77
f 76 84 96
f 77 96 86
f 77 86 78
f 78 86 85
f 78 85 79
f 79 89 80
f 82 97 98
f 82 98 99
f 82 99 83
f 83 99 98
f 83 98 100
f 83 100 101
f 83 101 84
f 84 101 96
f 86 96 88
f 86 88 87
f 90 102 97
f 90 97 103
f 90 103 91
f 90 95 102
f 91 103 92
f 92 103 97
f 95 100 104
f 95 104 98
f 95 98 102
f 96 101 100
f 97 102 98
f 98 104 100

