# https://github.com/mikedh/trimesh
v 0.00009662 -0.31027207 0.62101739
v 0.53086412 -0.30820682 0.63671380
v 0.00009662 -0.30814606 0.63684646
v 0.00009662 -0.30917869 0.61533630
v 0.53086412 -0.31027207 0.62101739
v 0.53086412 -0.30814606 0.63684646
v 0.53086412 -0.29775913 0.64576815
v 0.00009662 -0.29721245 0.64584454
v 0.00009662 -0.30802458 0.60953458
v 0.53086412 -0.30802458 0.60953458
v 0.53086412 -0.29763765 0.64584454
v 0.53086412 -0.28876925 0.64806794
v 0.00009662 -0.28822258 0.64803578
v 0.00009662 -0.30255778 0.60830830
v 0.53086412 -0.29696949 0.60703778
v 0.53086412 -0.30796386 0.60951447
v 0.53086412 -0.27905047 0.64810814
v 0.00009662 -0.27898975 0.64805587
v 0.00009662 -0.29696949 0.60705790
v 0.53086412 0.29696949 0.60703778
v 0.53086412 0.27880751 0.64811217
v 0.00009662 0.27898975 0.64805587
v 0.00009662 0.29696949 0.60705790
v 0.53086412 0.29709097 0.60706190
v 0.53086412 0.27898975 0.64811217
v 0.00009662 0.28822258 0.64803578
v 0.00009662 0.30802458 0.60953458
v 0.53086412 0.30802458 0.60953458
v 0.53086412 0.28864777 0.64808805
v 0.00009662 0.29277827 0.64693011
v 0.00009662 0.31027207 0.62101739
v 0.53086412 0.30808534 0.60962704
v 0.53086412 0.29757689 0.64586466
v 0.00009662 0.29721245 0.64584454
v 0.00009662 0.30923944 0.62884549
v 0.53086412 0.31027207 0.62101739
v 0.53086412 0.30808534 0.63691883
v 0.00009662 0.30814606 0.63684646
v 0.00009662 0.30274001 0.64129725
v 0.53086412 0.30814606 0.63684646
f 1 2 3
f 1 3 8
f 1 8 13
f 1 13 18
f 1 18 22
f 1 22 26
f 1 26 30
f 1 30 34
f 1 34 39
f 1 39 38
f 1 38 35
f 1 35 31
f 1 31 27
f 1 27 23
f 1 23 19
f 1 19 14
f 1 14 9
f 1 9 4
f 1 4 5
f 1 5 2
f 2 5 10
f 2 10 16
f 2 16 15
f 2 15 20
f 2 20 24
f 2 24 28
f 2 28 32
f 2 32 36
f 2 36 40
f 2 40 37
f 2 37 33
f 2 33 29
f 2 29 25
f 2 25 21
f 2 21 17
f 2 17 12
f 2 12 11
f 2 11 7
f 2 7 6
f 2 6 3
f 3 6 7
f 3 7 8
f 4 9 10
f 4 10 5
f 7 11 8
f 8 11 12
f 8 12 13
f 9 14 15
f 9 15 16
f 9 16 10
f 12 17 13
f 13 17 18
f 14 19 15
f 15 19 23
f 15 23 20
f 17 21 18
f 18 21 25
f 18 25 22
f 20 23 24
f 22 25 26
f 23 27 24
f 24 27 28
f 25 29 26
f 26 29 30
f 27 31 32
f 27 32 28
f 29 33 34
f 29 34 30
f 31 35 36
f 31 36 32
f 33 37 38
f 33 38 39
f 33 39 34
f 35 40 36
f 35 38 40
f 37 40 38

