# https://github.com/mikedh/trimesh
v 0.60943968 -0.44076839 0.80645265
v 0.60705246 -0.42277021 0.78844194
v 0.60905440 -0.44076839 0.81835386
v 0.60639521 -0.45268134 0.81835386
v 0.60483899 -0.45876060 0.81835386
v 0.60483143 -0.45876060 0.80645265
v 0.60456701 -0.45876060 0.45760985
v 0.60586638 -0.45190272 0.45760985
v 0.60796655 -0.44076839 0.45760985
v 0.60449899 -0.41094711 0.78844194
v 0.60788346 -0.43468316 0.81835386
v 0.59756393 -0.46878688 0.81835386
v 0.59756393 -0.46879289 0.62648677
v 0.59756393 -0.46879289 0.59050067
v 0.59756393 -0.46878688 0.45760985
v 0.60023825 -0.46496564 0.45760985
v 0.60529979 -0.43599484 0.45760985
v 0.60282192 -0.41094711 0.77537535
v 0.60412128 -0.41094711 0.79462209
v 0.60096347 -0.42825052 0.45760985
v 0.60273126 -0.42291395 0.81835386
v 0.59369602 -0.46913428 0.81835386
v 0.58610371 -0.47093710 0.62648677
v 0.58610371 -0.47093710 0.60847606
v 0.58610371 -0.46981108 0.45760985
v 0.58610371 -0.47092511 0.59050067
v 0.60142432 -0.41094711 0.76961898
v 0.59948278 -0.41094711 0.81086705
v 0.60053286 -0.41798466 0.81835386
v 0.59176960 -0.42775340 0.45760985
v 0.56626550 -0.41094711 0.62878226
v 0.58610371 -0.46981108 0.81835386
v 0.56810882 -0.47208704 0.62648677
v 0.56810882 -0.46939183 0.45760985
v 0.55011393 -0.47212897 0.62648677
v 0.53226254 -0.47212299 0.62648677
v 0.59714089 -0.41094711 0.81485765
v 0.59676318 -0.41224082 0.81722378
v 0.59756393 -0.41414546 0.81835386
v 0.58610371 -0.42744795 0.45760985
v 0.55730585 -0.41094711 0.62751092
v 0.56810882 -0.46939183 0.81835386
v 0.55838613 -0.46836762 0.45760985
v 0.53226254 -0.47211102 0.62662804
v 0.53226254 -0.46992489 0.61469151
v 0.55838613 -0.46836762 0.81835386
v 0.58610371 -0.41094711 0.81704719
v 0.59548645 -0.41303143 0.81835386
v 0.57496079 -0.42752582 0.45760985
v 0.55021967 -0.41094711 0.62683994
v 0.55654281 -0.46242015 0.45760985
v 0.53226254 -0.47053579 0.64446218
v 0.53226254 -0.45885643 0.61059498
v 0.55316596 -0.44076839 0.45760985
v 0.55401960 -0.44762028 0.45760985
v 0.55540963 -0.45876060 0.45760985
v 0.55602155 -0.46200687 0.81835386
v 0.53226254 -0.46833769 0.65410320
v 0.53226254 -0.47051782 0.64456813
v 0.57450750 -0.41094711 0.81542270
v 0.57116085 -0.41381603 0.81835386
v 0.58440394 -0.41227075 0.81835386
v 0.58610371 -0.41207313 0.81835386
v 0.56810882 -0.42757372 0.45760985
v 0.53832884 -0.41094711 0.62906477
v 0.53226254 -0.45876060 0.61055965
v 0.53226254 -0.44561984 0.61331423
v 0.53226254 -0.41094711 0.63107775
v 0.55614241 -0.42837629 0.45760985
v 0.55487324 -0.45876060 0.81835386
v 0.53226254 -0.46824186 0.65413852
v 0.55256912 -0.44076839 0.81835386
v 0.57233180 -0.41249238 0.81690593
v 0.57122131 -0.41094711 0.81432793
v 0.56360630 -0.41639148 0.81835386
v 0.53226254 -0.41094711 0.65618679
v 0.53226254 -0.45876060 0.65601022
v 0.55618018 -0.42441730 0.81835386
v 0.53226254 -0.42277021 0.65664590
v 0.53226254 -0.44061867 0.65728156
v 0.53226254 -0.44076839 0.65728156
v 0.53226254 -0.45856895 0.65604554
v 0.56322859 -0.41094711 0.81037264
v 0.56034275 -0.41442097 0.81348036
v 0.55843903 -0.41960780 0.81835386
v 0.55860522 -0.41094711 0.80119070
v 0.55865811 -0.41094711 0.80140259
f 1 2 3
f 1 3 4
f 1 4 5
f 1 5 6
f 1 6 7
f 1 7 8
f 1 8 9
f 1 9 2
f 2 10 11
f 2 11 3
f 2 9 10
f 3 11 21
f 3 21 29
f 3 29 39
f 3 39 48
f 3 48 63
f 3 63 62
f 3 62 61
f 3 61 75
f 3 75 85
f 3 85 78
f 3 78 72
f 3 72 70
f 3 70 57
f 3 57 46
f 3 46 42
f 3 42 32
f 3 32 22
f 3 22 12
f 3 12 5
f 3 5 4
f 5 12 13
f 5 13 14
f 5 14 15
f 5 15 6
f 6 15 16
f 6 16 7
f 7 16 15
f 7 15 25
f 7 25 34
f 7 34 43
f 7 43 51
f 7 51 56
f 7 56 55
f 7 55 54
f 7 54 69
f 7 69 64
f 7 64 49
f 7 49 40
f 7 40 30
f 7 30 20
f 7 20 17
f 7 17 9
f 7 9 8
f 9 17 10
f 10 18 27
f 10 27 31
f 10 31 41
f 10 41 50
f 10 50 65
f 10 65 68
f 10 68 76
f 10 76 86
f 10 86 87
f 10 87 83
f 10 83 74
f 10 74 60
f 10 60 47
f 10 47 37
f 10 37 28
f 10 28 19
f 10 19 11
f 10 17 20
f 10 20 18
f 11 19 21
f 12 22 23
f 12 23 13
f 13 23 24
f 13 24 14
f 14 24 15
f 15 24 26
f 15 26 25
f 18 20 27
f 19 28 29
f 19 29 21
f 20 30 31
f 20 31 27
f 22 32 23
f 23 33 24
f 23 32 33
f 24 33 26
f 25 26 33
f 25 33 35
f 25 35 36
f 25 36 34
f 28 37 38
f 28 38 29
f 29 38 39
f 30 40 31
f 31 40 41
f 32 42 36
f 32 36 35
f 32 35 33
f 34 36 43
f 36 44 52
f 36 52 59
f 36 59 58
f 36 58 71
f 36 71 77
f 36 77 82
f 36 82 81
f 36 81 80
f 36 80 79
f 36 79 76
f 36 76 68
f 36 68 67
f 36 67 66
f 36 66 53
f 36 53 45
f 36 45 43
f 36 42 46
f 36 46 44
f 37 47 38
f 38 47 48
f 38 48 39
f 40 49 50
f 40 50 41
f 43 45 51
f 44 46 52
f 45 53 54
f 45 54 55
f 45 55 56
f 45 56 51
f 46 57 58
f 46 58 59
f 46 59 52
f 47 60 61
f 47 61 62
f 47 62 63
f 47 63 48
f 49 64 50
f 50 64 65
f 53 66 54
f 54 66 67
f 54 67 68
f 54 68 69
f 57 70 58
f 58 70 72
f 58 72 71
f 60 73 61
f 60 74 73
f 61 73 74
f 61 74 75
f 64 69 68
f 64 68 65
f 71 72 77
f 72 78 76
f 72 76 79
f 72 79 80
f 72 80 81
f 72 81 82
f 72 82 77
f 74 83 75
f 75 83 84
f 75 84 85
f 76 78 86
f 78 85 86
f 83 87 84
f 84 87 85
f 85 87 86

