# https://github.com/mikedh/trimesh
v 0.00101039 -0.47206548 0.62647293
v 0.53226254 -0.47212623 0.62647293
v 0.00101039 -0.47133635 0.63536990
v 0.00101039 -0.47097178 0.62054468
v 0.53226254 -0.46993886 0.61480886
v 0.53226254 -0.47048571 0.64460128
v 0.00101039 -0.47048571 0.64446841
v 0.00101039 -0.46987811 0.61474014
v 0.53226254 -0.46987811 0.61466228
v 0.53226254 -0.46829834 0.65413045
v 0.00101039 -0.46829834 0.65400674
v 0.00101039 -0.45875904 0.61074523
v 0.53226254 -0.45875904 0.61053449
v 0.53226254 -0.46823759 0.65417167
v 0.53226254 -0.45875904 0.65603170
v 0.00101039 -0.45875904 0.65525287
v 0.00101039 0.13523004 0.61074523
v 0.53226254 0.13523004 0.61052991
v 0.53226254 -0.44071335 0.65731447
v 0.00101039 -0.44071335 0.65595840
v 0.00101039 0.14634911 0.61474014
v 0.53226254 0.14622758 0.61460271
v 0.53226254 0.11718435 0.65733279
v 0.00101039 0.11718435 0.65595840
v 0.00101039 0.14750356 0.62066839
v 0.53226254 0.14634911 0.61466228
v 0.53226254 0.13523004 0.65602712
v 0.00101039 0.13523004 0.65525287
v 0.00101039 0.12611605 0.65561022
v 0.00101039 0.14853648 0.62647293
v 0.53226254 0.14859723 0.62647293
v 0.53226254 0.14476934 0.65411669
v 0.00101039 0.14476934 0.65400674
v 0.00101039 0.13996932 0.65463438
v 0.00101039 0.14774660 0.63556688
v 0.53226254 0.14701746 0.64431265
v 0.53226254 0.14483012 0.65397925
v 0.00101039 0.14586304 0.64928796
v 0.00101039 0.14695671 0.64446841
f 1 2 3
f 1 3 7
f 1 7 11
f 1 11 16
f 1 16 20
f 1 20 24
f 1 24 29
f 1 29 28
f 1 28 34
f 1 34 33
f 1 33 38
f 1 38 39
f 1 39 35
f 1 35 30
f 1 30 25
f 1 25 21
f 1 21 17
f 1 17 12
f 1 12 8
f 1 8 4
f 1 4 2
f 2 4 5
f 2 5 9
f 2 9 13
f 2 13 18
f 2 18 22
f 2 22 26
f 2 26 31
f 2 31 36
f 2 36 37
f 2 37 32
f 2 32 27
f 2 27 23
f 2 23 19
f 2 19 15
f 2 15 14
f 2 14 10
f 2 10 6
f 2 6 3
f 3 6 7
f 4 8 5
f 5 8 9
f 6 10 11
f 6 11 7
f 8 12 13
f 8 13 9
f 10 14 11
f 11 14 15
f 11 15 16
f 12 17 18
f 12 18 13
f 15 19 16
f 16 19 20
f 17 21 18
f 18 21 22
f 19 23 20
f 20 23 24
f 21 25 26
f 21 26 22
f 23 27 28
f 23 28 29
f 23 29 24
f 25 30 31
f 25 31 26
f 27 32 33
f 27 33 34
f 27 34 28
f 30 35 31
f 31 35 36
f 32 37 33
f 33 37 38
f 35 39 36
f 36 39 37
f 37 39 38

