# https://github.com/mikedh/trimesh
v -0.54797616 -0.41098131 0.62668834
v -0.53002725 -0.41098131 0.63099138
v -0.56385269 -0.41098131 0.62881192
v -0.56135883 -0.30197467 0.62860700
v -0.54789886 -0.30197467 0.62799229
v -0.54272847 -0.30197467 0.62892366
v -0.53002725 -0.30197467 0.63151293
v -0.53002725 -0.41098131 0.65630652
v -0.59689837 -0.30197467 0.64686222
v -0.58407773 -0.30197467 0.63948564
v -0.56538413 -0.30197467 0.62922171
v -0.59888647 -0.41098131 0.76963798
v -0.53002725 -0.30197467 0.65625065
v -0.55599167 -0.41098131 0.80331703
v -0.59749553 -0.31466275 0.66286350
v -0.60080431 -0.31476948 0.68048540
v -0.59980674 -0.30197467 0.66258410
v -0.60178782 -0.41098131 0.78847068
v -0.60068489 -0.33277185 0.69847983
v -0.55613217 -0.30197467 0.68264622
v -0.55658884 -0.30527207 0.69006008
v -0.55991870 -0.41098131 0.81199758
v -0.55644829 -0.41098131 0.80566413
v -0.59812778 -0.30197467 0.67998244
v -0.60003859 -0.38675762 0.77045761
v -0.59818395 -0.33227030 0.71680958
v -0.59771328 -0.31470544 0.69829355
v -0.59842985 -0.41098131 0.80558962
v -0.60050224 -0.40475998 0.78847068
v -0.56558084 -0.30197467 0.68942673
v -0.56461841 -0.41098131 0.81397212
v -0.59556365 -0.30197467 0.68937085
v -0.59589383 -0.33793672 0.72983041
v -0.59554959 -0.32067066 0.71101634
v -0.59480490 -0.41098131 0.81494077
v -0.59627314 -0.40564570 0.80519843
v -0.58388804 -0.30197467 0.69268660
v -0.57226866 -0.39528395 0.79800811
v -0.56635358 -0.41098131 0.81425154
v -0.59510703 -0.30340461 0.69218364
v -0.59350532 -0.30197467 0.69086107
v -0.59307675 -0.41098131 0.81594667
v -0.59377225 -0.39497447 0.79836204
v -0.59295032 -0.37770841 0.77951071
v -0.59185442 -0.37770841 0.77951071
v -0.58506827 -0.37151909 0.77213411
v -0.57985566 -0.37798586 0.77923130
v -0.58388804 -0.41098131 0.81698983
v -0.56836277 -0.41098131 0.81456821
f 1 2 8
f 1 8 14
f 1 14 23
f 1 23 22
f 1 22 31
f 1 31 39
f 1 39 49
f 1 49 48
f 1 48 42
f 1 42 35
f 1 35 28
f 1 28 18
f 1 18 12
f 1 12 3
f 1 3 4
f 1 4 5
f 1 5 6
f 1 6 7
f 1 7 2
f 2 7 13
f 2 13 8
f 3 9 10
f 3 10 11
f 3 11 4
f 3 12 9
f 4 11 10
f 4 10 9
f 4 9 17
f 4 17 24
f 4 24 32
f 4 32 41
f 4 41 37
f 4 37 30
f 4 30 20
f 4 20 13
f 4 13 7
f 4 7 6
f 4 6 5
f 8 13 14
f 9 12 15
f 9 15 16
f 9 16 17
f 12 18 19
f 12 19 16
f 12 16 15
f 13 20 21
f 13 21 22
f 13 22 23
f 13 23 14
f 16 24 17
f 16 19 18
f 16 18 25
f 16 25 26
f 16 26 27
f 16 27 24
f 18 28 29
f 18 29 25
f 20 30 21
f 21 30 31
f 21 31 22
f 24 27 32
f 25 29 28
f 25 28 26
f 26 28 27
f 27 28 33
f 27 33 34
f 27 34 32
f 28 35 36
f 28 36 33
f 30 37 38
f 30 38 31
f 31 38 39
f 32 40 41
f 32 34 40
f 33 36 35
f 33 35 34
f 34 35 40
f 35 42 43
f 35 43 40
f 37 41 44
f 37 44 45
f 37 45 46
f 37 46 47
f 37 47 38
f 38 47 48
f 38 48 49
f 38 49 39
f 40 43 44
f 40 44 41
f 42 48 43
f 43 48 44
f 44 48 45
f 45 48 46
f 46 48 47

