# https://github.com/mikedh/trimesh
v 0.58610569 0.05950208 1.75429354
v 0.58909271 0.05950208 1.75588286
v 0.57185114 0.05950208 1.75924109
v 0.55566718 0.10447057 1.67057241
v 0.56811032 0.10322144 1.67057241
v 0.58610569 0.10290288 1.67057241
v 0.60133898 0.10407656 1.67057241
v 0.60047831 0.05950208 1.76199127
v 0.56811032 0.05950208 1.76054014
v 0.55214013 0.11723008 1.67057241
v 0.56065121 0.05950208 1.76663476
v 0.55869362 0.05950208 1.76823786
v 0.60826937 0.11715463 1.67057241
v 0.60076520 0.05950208 1.76540475
v 0.55215703 0.11733069 1.67057241
v 0.55869362 0.05950208 1.77180343
v 0.55232016 0.11723008 1.77846459
v 0.60326845 0.13512863 1.67057241
v 0.60946752 0.11723008 1.76045726
v 0.60186211 0.05950208 1.77846459
v 0.55547030 0.13522921 1.67057241
v 0.55552658 0.13522921 1.77846459
v 0.56321636 0.05950208 1.77893451
v 0.55708478 0.10574484 1.80797018
v 0.55302333 0.11723008 1.79645819
v 0.55598223 0.13522921 1.79645819
v 0.60324034 0.13522921 1.67057241
v 0.60960817 0.11723008 1.77846459
v 0.60859001 0.11723008 1.79645819
v 0.59925763 0.10542627 1.80828807
v 0.59648434 0.05950208 1.78830443
v 0.55901425 0.14429167 1.67057241
v 0.55903110 0.14429167 1.79645819
v 0.55905926 0.14427490 1.80553784
v 0.56440329 0.05950208 1.78080020
v 0.57340377 0.05950208 1.78829059
v 0.58346178 0.05950208 1.78896774
v 0.58610569 0.05950208 1.78913361
v 0.58610569 0.11723008 1.81174297
v 0.56811032 0.11723008 1.81090001
v 0.55607219 0.11723008 1.80921397
v 0.57153051 0.05950208 1.78674274
v 0.55755164 0.13522921 1.80738975
v 0.59630999 0.14462700 1.67057241
v 0.60363972 0.13522921 1.76045726
v 0.60363972 0.13522921 1.77846459
v 0.60313348 0.13522921 1.79645819
v 0.59906634 0.13522921 1.80830180
v 0.60159775 0.11723008 1.81005693
v 0.59432425 0.05950208 1.78848409
v 0.56805974 0.14474437 1.67057241
v 0.56811032 0.14474437 1.79645819
v 0.56811032 0.13522921 1.80926922
v 0.58610569 0.13522921 1.81018139
v 0.56811032 0.14448449 1.80588342
v 0.59621435 0.14468569 1.67057241
v 0.59627057 0.14468569 1.68848302
v 0.59627057 0.14468569 1.79645819
v 0.59588245 0.14453478 1.80595251
v 0.58610569 0.14513839 1.67057241
v 0.58610569 0.14512999 1.79645819
v 0.58610569 0.14468569 1.80618736
f 1 2 8
f 1 8 14
f 1 14 20
f 1 20 31
f 1 31 50
f 1 50 38
f 1 38 37
f 1 37 36
f 1 36 42
f 1 42 35
f 1 35 23
f 1 23 16
f 1 16 12
f 1 12 11
f 1 11 9
f 1 9 3
f 1 3 4
f 1 4 5
f 1 5 6
f 1 6 7
f 1 7 2
f 2 7 8
f 3 9 4
f 4 10 15
f 4 15 21
f 4 21 32
f 4 32 51
f 4 51 60
f 4 60 56
f 4 56 44
f 4 44 27
f 4 27 18
f 4 18 13
f 4 13 7
f 4 7 6
f 4 6 5
f 4 9 11
f 4 11 12
f 4 12 10
f 7 13 8
f 8 13 14
f 10 12 16
f 10 16 17
f 10 17 15
f 13 18 19
f 13 19 20
f 13 20 14
f 15 17 22
f 15 22 21
f 16 23 24
f 16 24 25
f 16 25 17
f 17 25 26
f 17 26 22
f 18 27 19
f 19 27 28
f 19 28 20
f 20 28 29
f 20 29 30
f 20 30 31
f 21 22 33
f 21 33 32
f 22 26 34
f 22 34 33
f 23 35 24
f 24 36 37
f 24 37 38
f 24 38 30
f 24 30 39
f 24 39 40
f 24 40 41
f 24 41 25
f 24 35 42
f 24 42 36
f 25 41 43
f 25 43 26
f 26 43 34
f 27 44 45
f 27 45 28
f 28 46 47
f 28 47 29
f 28 45 46
f 29 47 48
f 29 48 49
f 29 49 30
f 30 49 39
f 30 38 50
f 30 50 31
f 32 33 51
f 33 34 52
f 33 52 51
f 34 43 53
f 34 53 54
f 34 54 55
f 34 55 52
f 39 49 54
f 39 54 40
f 40 54 53
f 40 53 41
f 41 53 43
f 44 56 57
f 44 57 45
f 45 57 58
f 45 58 46
f 46 58 47
f 47 58 59
f 47 59 48
f 48 59 54
f 48 54 49
f 51 52 60
f 52 55 61
f 52 61 60
f 54 59 62
f 54 62 55
f 55 62 61
f 56 60 57
f 57 60 58
f 58 61 59
f 58 60 61
f 59 61 62

