# https://github.com/mikedh/trimesh
v -0.53083880 -0.27883230 0.64811509
v -0.53083880 -0.28869420 0.64811509
v -0.53083880 -0.26083442 0.64807118
v -0.55765172 -0.28413240 0.90287173
v -0.53083880 -0.29769558 0.64587574
v -0.55765172 -0.29232703 0.90287173
v -0.53083880 -0.26045305 0.64763209
v -0.53084663 -0.26045305 0.64807118
v -0.55826344 -0.27820644 0.90287173
v -0.53083880 -0.30820288 0.63687452
v -0.55824772 -0.29540245 0.90287173
v -0.53083880 -0.26045305 0.62734639
v -0.56321975 -0.26045305 0.90287173
v -0.55874963 -0.27513102 0.90287173
v -0.53083880 -0.31025155 0.62119922
v -0.55940056 -0.30132841 0.90287173
v -0.54901730 -0.26045305 0.62216519
v -0.53083880 -0.28561876 0.60956347
v -0.55765172 -0.28450397 0.45430332
v -0.55948682 -0.27785930 0.45430332
v -0.56013771 -0.27550259 0.45430332
v -0.56914072 -0.26814406 0.45430332
v -0.58501359 -0.26628121 0.45430332
v -0.60487817 -0.26045305 0.90287173
v -0.53083880 -0.31027110 0.62102359
v -0.56839569 -0.30820288 0.90287173
v -0.56617632 -0.26045305 0.61996978
v -0.53083880 -0.28573122 0.60951959
v -0.55765172 -0.29232703 0.45430332
v -0.53083880 -0.29700618 0.60706072
v -0.60007083 -0.26814406 0.45430332
v -0.58102971 -0.26045305 0.63902603
v -0.60792889 -0.26716130 0.90287173
v -0.60632902 -0.26045305 0.80100420
v -0.58501359 -0.31039821 0.45430332
v -0.56839569 -0.30820288 0.45430332
v -0.55940056 -0.30132841 0.45430332
v -0.53083880 -0.30809532 0.60965129
v -0.58501359 -0.31039821 0.90287173
v -0.55810658 -0.29467882 0.45430332
v -0.53083880 -0.30807576 0.60956347
v -0.60904247 -0.27900831 0.45430332
v -0.60551344 -0.26045305 0.78300175
v -0.61073643 -0.27900831 0.90287173
v -0.60657214 -0.26101043 0.80100420
v -0.61095600 -0.27900831 0.78300175
v -0.61092462 -0.27900831 0.80100420
v -0.60074532 -0.30820288 0.45430332
v -0.60074532 -0.30820288 0.90287173
v -0.60922282 -0.28371678 0.45430332
v -0.61052469 -0.28516406 0.90287173
v -0.60972473 -0.29700618 0.90287173
v -0.60972473 -0.29700618 0.45430332
f 1 2 5
f 1 5 10
f 1 10 15
f 1 15 25
f 1 25 38
f 1 38 41
f 1 41 30
f 1 30 28
f 1 28 18
f 1 18 12
f 1 12 7
f 1 7 3
f 1 3 4
f 1 4 6
f 1 6 2
f 2 6 5
f 3 7 8
f 3 8 4
f 4 9 14
f 4 14 13
f 4 13 24
f 4 24 33
f 4 33 44
f 4 44 51
f 4 51 52
f 4 52 49
f 4 49 39
f 4 39 26
f 4 26 16
f 4 16 11
f 4 11 6
f 4 8 9
f 5 6 10
f 6 11 10
f 7 12 17
f 7 17 27
f 7 27 32
f 7 32 43
f 7 43 34
f 7 34 24
f 7 24 13
f 7 13 8
f 8 13 14
f 8 14 9
f 10 11 16
f 10 16 15
f 12 18 19
f 12 19 20
f 12 20 21
f 12 21 22
f 12 22 23
f 12 23 17
f 15 16 25
f 16 26 25
f 17 23 27
f 18 28 19
f 19 29 40
f 19 40 37
f 19 37 36
f 19 36 35
f 19 35 48
f 19 48 53
f 19 53 50
f 19 50 42
f 19 42 31
f 19 31 23
f 19 23 22
f 19 22 21
f 19 21 20
f 19 28 30
f 19 30 29
f 23 31 32
f 23 32 27
f 24 34 33
f 25 35 36
f 25 36 37
f 25 37 38
f 25 26 39
f 25 39 35
f 29 30 41
f 29 41 40
f 31 42 34
f 31 34 43
f 31 43 32
f 33 34 45
f 33 45 46
f 33 46 47
f 33 47 44
f 34 42 45
f 35 39 49
f 35 49 48
f 37 40 41
f 37 41 38
f 42 50 46
f 42 46 45
f 44 47 51
f 46 52 51
f 46 51 47
f 46 50 53
f 46 53 52
f 48 49 52
f 48 52 53

