# https://github.com/mikedh/trimesh
v 0.58610183 -0.46981489 1.67352906
v 0.56811236 -0.46938968 1.67352906
v 0.59756548 -0.46878592 1.67352906
v 0.59756548 -0.46878592 1.79646725
v 0.58610183 -0.46980639 1.79646725
v 0.56811236 -0.46938968 1.79646725
v 0.55993683 -0.46853931 1.67352906
v 0.60456830 -0.45875979 1.67352906
v 0.60509573 -0.45875979 1.76046664
v 0.60509573 -0.45875979 1.77846019
v 0.60441676 -0.45875979 1.79646725
v 0.59674628 -0.46844576 1.80650108
v 0.58610183 -0.46878592 1.80702636
v 0.56811236 -0.46857332 1.80671662
v 0.55862383 -0.46816512 1.80608362
v 0.55838254 -0.46836070 1.79646725
v 0.55828716 -0.46836070 1.67352906
v 0.60739632 -0.44380141 1.67352906
v 0.60956225 -0.44075699 1.76046664
v 0.60971374 -0.44075699 1.77846019
v 0.60837269 -0.44075699 1.79646725
v 0.59968094 -0.45875979 1.80869641
v 0.58610183 -0.45875979 1.81071665
v 0.56811236 -0.45875979 1.80978743
v 0.55726030 -0.45875979 1.80776719
v 0.55540298 -0.45875979 1.79646725
v 0.55482502 -0.45875979 1.77846019
v 0.55485313 -0.45875979 1.67352906
v 0.55482502 -0.45875979 1.76046664
v 0.60796864 -0.44075699 1.67352906
v 0.60185809 -0.38294734 1.77846019
v 0.60138114 -0.44075699 1.80982777
v 0.58610183 -0.44075699 1.81110729
v 0.56811236 -0.44075699 1.81042043
v 0.55613807 -0.44075699 1.80914091
v 0.55316414 -0.44075699 1.79646725
v 0.55240100 -0.44075699 1.77846019
v 0.55238979 -0.44075699 1.67352906
v 0.60096588 -0.42824773 1.67352906
v 0.60047772 -0.38294734 1.76198853
v 0.60156627 -0.38294734 1.77495846
v 0.59762723 -0.38294734 1.78621794
v 0.59648257 -0.38294734 1.78830551
v 0.59901318 -0.42935323 1.80800955
v 0.55713124 -0.42949780 1.80791524
v 0.55869679 -0.38294734 1.77179340
v 0.55289479 -0.43866503 1.67352906
v 0.55869679 -0.38294734 1.76823781
v 0.58610183 -0.42743985 1.67352906
v 0.58610183 -0.38294734 1.75428469
v 0.59742526 -0.38294734 1.76034541
v 0.58610183 -0.38294734 1.78912707
v 0.57340371 -0.38294734 1.78829204
v 0.56440335 -0.38294734 1.78080369
v 0.55582945 -0.42823073 1.67352906
v 0.56811236 -0.38294734 1.76053397
v 0.56811236 -0.42743135 1.67352906
f 1 2 7
f 1 7 17
f 1 17 28
f 1 28 38
f 1 38 47
f 1 47 55
f 1 55 57
f 1 57 49
f 1 49 39
f 1 39 30
f 1 30 18
f 1 18 8
f 1 8 3
f 1 3 4
f 1 4 5
f 1 5 6
f 1 6 2
f 2 6 7
f 3 8 9
f 3 9 10
f 3 10 4
f 4 10 11
f 4 11 12
f 4 12 5
f 5 12 13
f 5 13 14
f 5 14 6
f 6 14 15
f 6 15 16
f 6 16 7
f 7 16 17
f 8 18 19
f 8 19 20
f 8 20 9
f 9 20 10
f 10 20 11
f 11 21 22
f 11 22 12
f 11 20 21
f 12 22 23
f 12 23 13
f 13 23 14
f 14 23 24
f 14 24 15
f 15 24 25
f 15 25 26
f 15 26 27
f 15 27 16
f 16 27 17
f 17 27 29
f 17 29 28
f 18 30 19
f 19 31 20
f 19 30 31
f 20 31 21
f 21 32 22
f 21 31 32
f 22 32 23
f 23 33 34
f 23 34 24
f 23 32 33
f 24 34 35
f 24 35 25
f 25 35 36
f 25 36 26
f 26 36 37
f 26 37 27
f 27 37 38
f 27 38 29
f 28 29 38
f 30 39 40
f 30 40 41
f 30 41 31
f 31 41 40
f 31 40 51
f 31 51 50
f 31 50 56
f 31 56 48
f 31 48 46
f 31 46 54
f 31 54 53
f 31 53 52
f 31 52 43
f 31 43 42
f 31 42 32
f 32 42 43
f 32 43 44
f 32 44 33
f 33 44 45
f 33 45 34
f 34 45 35
f 35 45 36
f 36 45 46
f 36 46 37
f 37 46 38
f 38 46 48
f 38 48 47
f 39 49 50
f 39 50 51
f 39 51 40
f 43 52 44
f 44 52 45
f 45 52 53
f 45 53 54
f 45 54 46
f 47 48 55
f 48 56 55
f 49 57 50
f 50 57 55
f 50 55 56

