# https://github.com/mikedh/trimesh
v -0.58501085 -0.26044817 0.75788842
v -0.58105803 -0.26044817 0.75921907
v -0.60034147 -0.26044817 0.76617938
v -0.59659159 -0.14661509 0.66327600
v -0.56743141 -0.15009669 0.65686160
v -0.56606393 -0.15033064 0.65686160
v -0.56850507 -0.26044817 0.76597466
v -0.60551758 -0.26044817 0.78301718
v -0.59923042 -0.13495931 0.65716867
v -0.59917162 -0.13480794 0.65686160
v -0.58501085 -0.14339496 0.65686160
v -0.55176958 -0.13501437 0.65686160
v -0.56236212 -0.26044817 0.78252246
v -0.60633487 -0.26044817 0.80099798
v -0.60147393 -0.13501437 0.67503004
v -0.59972718 -0.11987698 0.65841402
v -0.59939066 -0.12090908 0.65686160
v -0.55227171 -0.12206502 0.65686160
v -0.56119232 -0.26044817 0.80045207
v -0.56218053 -0.26044817 0.78301718
v -0.60132968 -0.26044817 0.81850110
v -0.59753710 -0.11987698 0.67112341
v -0.59940670 -0.11987698 0.65686160
v -0.55286465 -0.11987698 0.65686160
v -0.56133652 -0.26044817 0.80099798
v -0.59122323 -0.26044817 0.82849801
v -0.59649015 -0.24953548 0.81261555
v -0.59626575 -0.23185228 0.79427650
v -0.59600938 -0.21415532 0.77595452
v -0.59573697 -0.19647211 0.75761547
v -0.59543784 -0.17880267 0.73931054
v -0.59511200 -0.16110570 0.72098856
v -0.59475944 -0.14342248 0.70264951
v -0.59437480 -0.12572553 0.68432752
v -0.59687474 -0.13645930 0.69140725
v -0.59679459 -0.12133568 0.67503004
v -0.59549122 -0.11987698 0.67402355
v -0.57055627 -0.11987698 0.67231759
v -0.57544923 -0.12572553 0.68432752
v -0.57486165 -0.14342248 0.70264951
v -0.57433286 -0.16110570 0.72098856
v -0.57385209 -0.17880267 0.73931054
v -0.57341944 -0.19647211 0.75761547
v -0.57303480 -0.21415532 0.77595452
v -0.57269828 -0.23185228 0.79427650
v -0.57240452 -0.24953548 0.81261555
v -0.56756494 -0.26044817 0.81851816
v -0.56739402 -0.26044817 0.81827933
v -0.58501085 -0.26044817 0.83114225
v -0.58832803 -0.11987698 0.67832254
v -0.57607956 -0.11987698 0.67503004
v -0.58501085 -0.11987698 0.67842491
f 1 2 7
f 1 7 13
f 1 13 20
f 1 20 19
f 1 19 25
f 1 25 48
f 1 48 47
f 1 47 49
f 1 49 26
f 1 26 21
f 1 21 14
f 1 14 8
f 1 8 3
f 1 3 4
f 1 4 5
f 1 5 6
f 1 6 2
f 2 6 7
f 3 8 9
f 3 9 10
f 3 10 4
f 4 10 11
f 4 11 5
f 5 11 10
f 5 10 17
f 5 17 23
f 5 23 24
f 5 24 18
f 5 18 12
f 5 12 6
f 6 12 7
f 7 12 13
f 8 14 15
f 8 15 9
f 9 15 16
f 9 16 10
f 10 16 17
f 12 18 19
f 12 19 20
f 12 20 13
f 14 21 15
f 15 22 16
f 15 21 22
f 16 23 17
f 16 22 37
f 16 37 50
f 16 50 52
f 16 52 51
f 16 51 38
f 16 38 24
f 16 24 23
f 18 24 25
f 18 25 19
f 21 26 27
f 21 27 28
f 21 28 29
f 21 29 30
f 21 30 31
f 21 31 32
f 21 32 33
f 21 33 34
f 21 34 35
f 21 35 36
f 21 36 22
f 22 36 37
f 24 38 39
f 24 39 40
f 24 40 41
f 24 41 42
f 24 42 43
f 24 43 44
f 24 44 45
f 24 45 46
f 24 46 47
f 24 47 48
f 24 48 25
f 26 49 34
f 26 34 32
f 26 32 31
f 26 31 30
f 26 30 29
f 26 29 27
f 27 29 28
f 32 34 33
f 34 50 37
f 34 37 36
f 34 36 35
f 34 49 50
f 38 51 39
f 39 41 40
f 39 51 52
f 39 52 49
f 39 49 41
f 41 49 42
f 42 49 43
f 43 49 44
f 44 49 46
f 44 46 45
f 46 49 47
f 49 52 50

