# https://github.com/mikedh/trimesh
v -0.56639698 0.09501324 1.12880535
v -0.56620183 0.09501324 1.14944074
v -0.54788309 0.09501324 1.12502692
v -0.54789376 -0.10502268 1.12698330
v -0.56268143 -0.10502268 1.13184794
v -0.56268143 -0.10502268 1.14637768
v -0.54701722 0.09501324 1.15485142
v -0.54789376 -0.10502268 1.15296513
v -0.54505475 0.09501324 1.12557003
v -0.53014634 -0.10502268 1.12987697
v -0.53014634 0.09501324 1.15295344
v -0.53014634 -0.10502268 1.15261180
v -0.53014634 0.09501324 1.12960250
f 1 2 7
f 1 7 11
f 1 11 13
f 1 13 9
f 1 9 3
f 1 3 4
f 1 4 5
f 1 5 6
f 1 6 2
f 2 6 8
f 2 8 7
f 3 9 10
f 3 10 4
f 4 10 12
f 4 12 8
f 4 8 6
f 4 6 5
f 7 8 12
f 7 12 11
f 9 13 10
f 10 13 11
f 10 11 12

