# https://github.com/mikedh/trimesh
v 0.61095600 -0.27900831 0.78300175
v 0.60642456 -0.26045305 0.80043339
v 0.60656570 -0.26101043 0.80100420
v 0.61092462 -0.27900831 0.80100420
v 0.60971733 -0.29700618 0.90287173
v 0.60971733 -0.29700618 0.45430332
v 0.60954480 -0.29229768 0.45430332
v 0.60904306 -0.27900831 0.45430332
v 0.60551516 -0.26045305 0.78300175
v 0.60484094 -0.26045305 0.90287173
v 0.61073649 -0.27900831 0.90287173
v 0.60669896 -0.27616756 0.45430332
v 0.60006643 -0.26814406 0.45430332
v 0.60074854 -0.30820288 0.90287173
v 0.60074854 -0.30820288 0.45430332
v 0.58103132 -0.26045305 0.63902603
v 0.56314862 -0.26045305 0.90287173
v 0.58501397 -0.26628121 0.45430332
v 0.57889102 -0.26045305 0.62844411
v 0.58501397 -0.31039821 0.90287173
v 0.58501397 -0.31039821 0.45430332
v 0.56035760 -0.26588518 0.90287173
v 0.53086412 -0.26045305 0.64807118
v 0.56913825 -0.26814406 0.45430332
v 0.53087195 -0.26045305 0.62734639
v 0.54845676 -0.26045305 0.62225301
v 0.54902121 -0.26045305 0.62216519
v 0.56547705 -0.26045305 0.61988196
v 0.56617482 -0.26045305 0.61996978
v 0.56840132 -0.30820288 0.90287173
v 0.53086412 -0.31027110 0.62102359
v 0.56840132 -0.30820288 0.45430332
v 0.55875043 -0.27513102 0.90287173
v 0.53086412 -0.26045305 0.64745646
v 0.53086412 -0.27908652 0.64811509
v 0.55765290 -0.28413240 0.90287173
v 0.56013813 -0.27550259 0.45430332
v 0.53086412 -0.28561876 0.60956347
v 0.53086412 -0.26085885 0.62734639
v 0.55765290 -0.28450397 0.45430332
v 0.55940115 -0.30132841 0.90287173
v 0.53086412 -0.30820288 0.63687452
v 0.53086412 -0.30807576 0.60956347
v 0.55940115 -0.30132841 0.45430332
v 0.53086412 -0.28876754 0.64811509
v 0.55765290 -0.29232703 0.90287173
v 0.53086412 -0.29691327 0.60706072
v 0.55765290 -0.29232703 0.45430332
v 0.55879748 -0.29824808 0.90287173
v 0.53086412 -0.29769558 0.64587574
v 0.53086412 -0.30798287 0.60951959
v 0.55893862 -0.29897170 0.45430332
v 0.53086412 -0.29700618 0.60706072
f 1 2 3
f 1 3 4
f 1 4 5
f 1 5 6
f 1 6 7
f 1 7 8
f 1 8 2
f 2 9 16
f 2 16 19
f 2 19 29
f 2 29 28
f 2 28 27
f 2 27 26
f 2 26 25
f 2 25 34
f 2 34 23
f 2 23 17
f 2 17 10
f 2 10 11
f 2 11 3
f 2 8 12
f 2 12 13
f 2 13 9
f 3 11 4
f 4 11 5
f 5 11 10
f 5 10 17
f 5 17 22
f 5 22 33
f 5 33 36
f 5 36 46
f 5 46 49
f 5 49 41
f 5 41 30
f 5 30 20
f 5 20 14
f 5 14 15
f 5 15 6
f 6 15 21
f 6 21 32
f 6 32 44
f 6 44 52
f 6 52 48
f 6 48 40
f 6 40 37
f 6 37 24
f 6 24 18
f 6 18 13
f 6 13 12
f 6 12 8
f 6 8 7
f 9 13 16
f 13 18 19
f 13 19 16
f 14 20 21
f 14 21 15
f 17 23 22
f 18 24 25
f 18 25 26
f 18 26 27
f 18 27 28
f 18 28 29
f 18 29 19
f 20 30 31
f 20 31 21
f 21 31 32
f 22 23 33
f 23 34 39
f 23 39 38
f 23 38 47
f 23 47 53
f 23 53 51
f 23 51 43
f 23 43 31
f 23 31 42
f 23 42 50
f 23 50 45
f 23 45 35
f 23 35 36
f 23 36 33
f 24 37 25
f 25 38 39
f 25 39 34
f 25 37 40
f 25 40 38
f 30 41 31
f 31 43 44
f 31 44 32
f 31 41 42
f 35 45 46
f 35 46 36
f 38 40 47
f 40 48 53
f 40 53 47
f 41 49 42
f 42 49 46
f 42 46 50
f 43 51 48
f 43 48 52
f 43 52 44
f 45 50 46
f 48 51 53

