# https://github.com/mikedh/trimesh
v 0.60972494 -0.29700766 0.45430329
v 0.60904686 -0.27900809 0.45430329
v 0.60309698 -0.30527096 0.45430329
v 0.60972494 -0.29700766 0.18926869
v 0.60006847 -0.26814443 0.45430329
v 0.60904686 -0.27900809 0.18926869
v 0.60019084 -0.26828697 0.18926869
v 0.60074661 -0.30819960 0.45430329
v 0.60074661 -0.30819960 0.18926869
v 0.58895391 -0.26676649 0.45430329
v 0.60006847 -0.26814443 0.18926869
v 0.59986966 -0.26811852 0.18926869
v 0.58501279 -0.26626973 0.18926869
v 0.59663215 -0.30877409 0.45430329
v 0.58522184 -0.31036801 0.18926869
v 0.58501279 -0.26628272 0.45430329
v 0.56914137 -0.26813580 0.18926869
v 0.57329149 -0.26765631 0.45430329
v 0.58501279 -0.31039392 0.45430329
v 0.58501279 -0.31039392 0.18926869
v 0.56013749 -0.27550493 0.18926869
v 0.56013749 -0.27550493 0.45430329
v 0.56914137 -0.26814443 0.45430329
v 0.58066894 -0.30982375 0.45430329
v 0.56861623 -0.30822983 0.18926869
v 0.55763927 -0.28450255 0.18926869
v 0.55764946 -0.28450255 0.45430329
v 0.56839698 -0.30819960 0.45430329
v 0.56839698 -0.30819960 0.18926869
v 0.55763927 -0.29232526 0.18926869
v 0.55764946 -0.29232526 0.45430329
v 0.56174863 -0.30312414 0.45430329
v 0.55939825 -0.30132720 0.18926869
v 0.55939825 -0.30132720 0.45430329
v 0.55893937 -0.29897305 0.45430329
f 1 2 5
f 1 5 10
f 1 10 16
f 1 16 18
f 1 18 23
f 1 23 22
f 1 22 27
f 1 27 31
f 1 31 35
f 1 35 34
f 1 34 32
f 1 32 28
f 1 28 24
f 1 24 19
f 1 19 14
f 1 14 8
f 1 8 3
f 1 3 4
f 1 4 6
f 1 6 2
f 2 6 7
f 2 7 5
f 3 8 9
f 3 9 4
f 4 9 15
f 4 15 20
f 4 20 25
f 4 25 29
f 4 29 33
f 4 33 30
f 4 30 26
f 4 26 21
f 4 21 17
f 4 17 13
f 4 13 12
f 4 12 11
f 4 11 7
f 4 7 6
f 5 7 11
f 5 11 12
f 5 12 13
f 5 13 10
f 8 14 15
f 8 15 9
f 10 13 16
f 13 17 18
f 13 18 16
f 14 19 15
f 15 19 20
f 17 21 22
f 17 22 23
f 17 23 18
f 19 24 20
f 20 24 25
f 21 26 22
f 22 26 27
f 24 28 25
f 25 28 29
f 26 30 31
f 26 31 27
f 28 32 29
f 29 32 33
f 30 33 34
f 30 34 35
f 30 35 31
f 32 34 33

