# https://github.com/mikedh/trimesh
v 0.57722023 0.26213854 1.65643419
v 0.58500946 0.26213854 1.65434136
v 0.54488707 0.26213854 1.64961717
v 0.54488707 0.25686996 1.64959883
v 0.54488707 0.00088287 1.64695523
v 0.54901934 0.00088287 1.64695523
v 0.58961713 0.26213854 1.65254837
v 0.56507321 0.00088287 1.64250028
v 0.54488707 0.26213854 1.64276953
v 0.54488707 0.00088287 1.62506611
v 0.59702848 0.26213854 1.64467878
v 0.56507321 0.00088287 1.62917831
v 0.60714593 0.26213854 1.61104654
v 0.60345244 0.26213854 1.63013299
v 0.60171539 0.26213854 1.63773940
v 0.54492972 0.26213854 1.62385447
v 0.54488707 0.26119226 1.62398295
v 0.54901934 0.00088287 1.62417876
v 0.56501833 0.26213854 1.59401010
v 0.56509145 0.26206183 1.59391831
v 0.56771225 0.22518167 1.59391831
v 0.56799871 0.22451671 1.59391831
v 0.55626004 0.00088287 1.62643075
v 0.59969193 0.22464460 1.59391831
v 0.60712764 0.26213854 1.60988994
v 0.58500946 0.21500256 1.59391831
v 0.57935951 0.21638364 1.59391831
v 0.56773054 0.26213854 1.59391831
v 0.60298926 0.26208742 1.59391831
f 1 2 7
f 1 7 11
f 1 11 15
f 1 15 14
f 1 14 13
f 1 13 25
f 1 25 28
f 1 28 19
f 1 19 16
f 1 16 9
f 1 9 3
f 1 3 4
f 1 4 5
f 1 5 6
f 1 6 2
f 2 6 8
f 2 8 7
f 3 9 17
f 3 17 10
f 3 10 5
f 3 5 4
f 5 10 18
f 5 18 23
f 5 23 12
f 5 12 8
f 5 8 6
f 7 8 11
f 8 12 13
f 8 13 14
f 8 14 15
f 8 15 11
f 9 16 17
f 10 17 16
f 10 16 19
f 10 19 20
f 10 20 21
f 10 21 22
f 10 22 18
f 12 23 24
f 12 24 25
f 12 25 13
f 18 26 24
f 18 24 23
f 18 22 27
f 18 27 26
f 19 28 20
f 20 28 29
f 20 29 24
f 20 24 26
f 20 26 27
f 20 27 22
f 20 22 21
f 24 29 25
f 25 29 28

