# https://github.com/mikedh/trimesh
v -0.58501139 -0.31039164 1.46245375
v -0.58904790 -0.30982970 1.46245375
v -0.57266250 -0.30876530 1.46245375
v -0.54487259 -0.31035860 1.62907016
v -0.56701523 -0.31037842 1.62907016
v -0.58501139 -0.31039164 1.79101888
v -0.60074993 -0.30819673 1.46245375
v -0.60074993 -0.30819673 1.79101888
v -0.56839955 -0.30819673 1.46245375
v -0.56609017 -0.30643818 1.46245375
v -0.55939498 -0.30132774 1.46245375
v -0.54487259 -0.30854052 1.61598032
v -0.54487259 -0.30816369 1.64273504
v -0.55939498 -0.30132774 1.79101888
v -0.56839955 -0.30819673 1.79101888
v -0.57093533 -0.30746951 1.80201172
v -0.58501139 -0.30819673 1.80299257
v -0.59850529 -0.30746951 1.80201172
v -0.60741926 -0.29987990 1.46245375
v -0.60970923 -0.29700404 1.79101888
v -0.60972216 -0.29700404 1.77302459
v -0.55764844 -0.29232333 1.46245375
v -0.54487259 -0.30789924 1.61151561
v -0.54487259 -0.29802215 1.64977038
v -0.55777135 -0.29088209 1.80042198
v -0.56576674 -0.29693132 1.80343225
v -0.58501139 -0.29700404 1.80793086
v -0.60185610 -0.29700404 1.80397343
v -0.60972216 -0.29700404 1.46245375
v -0.60999387 -0.27900184 1.79101888
v -0.61094474 -0.27900184 1.77302459
v -0.55764844 -0.28449571 1.46245375
v -0.54487259 -0.29700404 1.60464936
v -0.54487259 -0.29717592 1.60475080
v -0.54487259 -0.29345383 1.65024391
v -0.55777135 -0.28566588 1.80042198
v -0.54487259 -0.27900184 1.65098803
v -0.56606431 -0.27940512 1.80329696
v -0.58501139 -0.27900184 1.80759257
v -0.60151975 -0.27900184 1.80380434
v -0.60921762 -0.28362303 1.46245375
v -0.59805247 -0.26855619 1.80177492
v -0.59677812 -0.24285859 1.78401738
v -0.60228951 -0.24285859 1.77302459
v -0.60904295 -0.27900184 1.46245375
v -0.55949852 -0.27780522 1.46245375
v -0.54487259 -0.24285859 1.62507899
v -0.54487259 -0.28135541 1.60887732
v -0.56453122 -0.24285859 1.77302459
v -0.57180213 -0.24285859 1.78391588
v -0.57143343 -0.26855619 1.80177492
v -0.54487259 -0.27650941 1.65095424
v -0.54487259 -0.25686105 1.64956744
v -0.54487259 -0.24285859 1.64699685
v -0.58501139 -0.26782234 1.80265428
v -0.58501139 -0.24285859 1.78597914
v -0.59954028 -0.24285859 1.75827737
v -0.60007072 -0.26814631 1.46245375
v -0.56013889 -0.27550453 1.46245375
v -0.56914346 -0.26814631 1.46245375
v -0.58093604 -0.26675796 1.46245375
v -0.58501139 -0.26628197 1.46245375
v -0.54901907 -0.24285859 1.62419952
v -0.59952086 -0.24285859 1.75817593
v -0.56517165 -0.24285859 1.62920546
v -0.54914841 -0.24285859 1.62423337
f 1 2 7
f 1 7 19
f 1 19 29
f 1 29 41
f 1 41 45
f 1 45 58
f 1 58 62
f 1 62 61
f 1 61 60
f 1 60 59
f 1 59 46
f 1 46 32
f 1 32 22
f 1 22 11
f 1 11 10
f 1 10 9
f 1 9 3
f 1 3 4
f 1 4 5
f 1 5 6
f 1 6 2
f 2 6 8
f 2 8 7
f 3 9 4
f 4 9 10
f 4 10 11
f 4 11 12
f 4 12 23
f 4 23 34
f 4 34 33
f 4 33 48
f 4 48 47
f 4 47 54
f 4 54 53
f 4 53 52
f 4 52 37
f 4 37 35
f 4 35 24
f 4 24 13
f 4 13 14
f 4 14 15
f 4 15 6
f 4 6 5
f 6 15 16
f 6 16 17
f 6 17 18
f 6 18 8
f 7 8 19
f 8 18 20
f 8 20 21
f 8 21 19
f 11 22 23
f 11 23 12
f 13 24 25
f 13 25 14
f 14 25 16
f 14 16 15
f 16 26 27
f 16 27 17
f 16 25 26
f 17 27 18
f 18 27 28
f 18 28 20
f 19 21 29
f 20 28 30
f 20 30 31
f 20 31 21
f 21 31 29
f 22 32 33
f 22 33 34
f 22 34 23
f 24 35 25
f 25 36 26
f 25 35 37
f 25 37 36
f 26 38 27
f 26 36 38
f 27 39 40
f 27 40 28
f 27 38 39
f 28 40 30
f 29 31 41
f 30 40 42
f 30 42 43
f 30 43 44
f 30 44 31
f 31 44 45
f 31 45 41
f 32 46 47
f 32 47 48
f 32 48 33
f 36 49 50
f 36 50 51
f 36 51 38
f 36 37 52
f 36 52 53
f 36 53 54
f 36 54 49
f 38 51 39
f 39 51 55
f 39 55 42
f 39 42 40
f 42 55 56
f 42 56 43
f 43 56 50
f 43 50 49
f 43 49 54
f 43 54 47
f 43 47 63
f 43 63 66
f 43 66 65
f 43 65 64
f 43 64 57
f 43 57 44
f 44 57 58
f 44 58 45
f 46 59 47
f 47 59 60
f 47 60 61
f 47 61 62
f 47 62 63
f 50 56 51
f 51 56 55
f 57 64 58
f 58 64 65
f 58 65 62
f 62 66 63
f 62 65 66

