# https://github.com/mikedh/trimesh
v 0.58501150 0.24737233 0.24491708
v 0.59174756 0.24737233 0.24711204
v 0.57760455 0.24737233 0.24711204
v 0.58432988 0.26541937 0.17045379
v 0.59765168 0.24737233 0.24991829
v 0.58499004 0.26549343 0.17045379
v 0.57261288 0.24737233 0.24861240
v 0.56613984 0.26791204 0.17045379
v 0.60058229 0.24737233 0.25566974
v 0.59960540 0.26789353 0.17045379
v 0.57100802 0.24737233 0.24991829
v 0.55877044 0.27210141 0.17045379
v 0.56597343 0.24737233 0.26072659
v 0.60187579 0.24737233 0.26072659
v 0.60007239 0.26812799 0.17045379
v 0.55675229 0.27930792 0.17045379
v 0.56061681 0.26100788 0.26103221
v 0.56755147 0.24737233 0.28073167
v 0.56013910 0.27550723 0.45430329
v 0.60716267 0.26100788 0.26103221
v 0.60904660 0.27900560 0.45430329
v 0.60129615 0.24737233 0.27723076
v 0.60904660 0.27900560 0.17045379
v 0.55669328 0.27952387 0.17045379
v 0.55764866 0.28449684 0.45430329
v 0.58019160 0.24737233 0.28976172
v 0.58501150 0.26628317 0.45430329
v 0.56914018 0.26814650 0.45430329
v 0.61071052 0.27900560 0.24302768
v 0.61095740 0.27900560 0.26103221
v 0.61087151 0.27900560 0.27900900
v 0.60922373 0.28371324 0.45430329
v 0.60007239 0.26814650 0.45430329
v 0.60054468 0.24737233 0.28059273
v 0.60972291 0.29700329 0.17045379
v 0.55612432 0.29337537 0.17045379
v 0.55764866 0.29232649 0.45430329
v 0.58501150 0.24737233 0.29170664
v 0.59613271 0.26765907 0.45430329
v 0.60972291 0.29700329 0.45430329
v 0.60944915 0.29734882 0.17045379
v 0.55622093 0.29414044 0.17045379
v 0.55810486 0.29467722 0.45430329
v 0.60737736 0.29993400 0.45430329
v 0.60074864 0.30820172 0.17045379
v 0.55930180 0.30309303 0.17045379
v 0.55939842 0.30132841 0.45430329
v 0.60074864 0.30820172 0.45430329
v 0.58501150 0.31039821 0.17045379
v 0.56779835 0.30802896 0.17045379
v 0.56839950 0.30820172 0.45430329
v 0.58501150 0.31039821 0.45430329
v 0.56824382 0.30821406 0.17045379
f 1 2 5
f 1 5 9
f 1 9 14
f 1 14 22
f 1 22 34
f 1 34 38
f 1 38 26
f 1 26 18
f 1 18 13
f 1 13 11
f 1 11 7
f 1 7 3
f 1 3 4
f 1 4 2
f 2 4 6
f 2 6 5
f 3 7 4
f 4 8 12
f 4 12 16
f 4 16 24
f 4 24 36
f 4 36 42
f 4 42 46
f 4 46 50
f 4 50 53
f 4 53 49
f 4 49 45
f 4 45 41
f 4 41 35
f 4 35 23
f 4 23 15
f 4 15 10
f 4 10 6
f 4 7 8
f 5 6 10
f 5 10 9
f 7 11 8
f 8 11 13
f 8 13 12
f 9 10 15
f 9 15 14
f 12 13 17
f 12 17 16
f 13 18 19
f 13 19 17
f 14 20 21
f 14 21 22
f 14 15 23
f 14 23 20
f 16 17 24
f 17 19 25
f 17 25 24
f 18 26 27
f 18 27 28
f 18 28 19
f 19 28 27
f 19 27 39
f 19 39 33
f 19 33 21
f 19 21 32
f 19 32 40
f 19 40 44
f 19 44 48
f 19 48 52
f 19 52 51
f 19 51 47
f 19 47 43
f 19 43 37
f 19 37 25
f 20 23 29
f 20 29 30
f 20 30 31
f 20 31 21
f 21 33 22
f 21 31 32
f 22 33 34
f 23 35 29
f 24 25 36
f 25 37 36
f 26 38 27
f 27 38 34
f 27 34 39
f 29 35 30
f 30 35 40
f 30 40 31
f 31 40 32
f 33 39 34
f 35 41 40
f 36 37 42
f 37 43 42
f 40 41 44
f 41 45 44
f 42 43 47
f 42 47 46
f 44 45 48
f 45 49 52
f 45 52 48
f 46 47 51
f 46 51 50
f 49 53 52
f 50 51 53
f 51 52 53

