# https://github.com/mikedh/trimesh
v -0.53014634 -0.47212620 1.63446977
v -0.53014634 -0.47054644 1.61647365
v 0.00101039 -0.47212620 1.63446977
v 0.00101039 -0.47103251 1.64027123
v -0.53014634 -0.46993884 1.64604034
v 0.00101039 -0.47048568 1.61647365
v -0.53014634 -0.46829832 1.60674286
v 0.00101039 -0.46939199 1.61165216
v 0.00101039 -0.46987808 1.64620218
v -0.53014634 -0.46987808 1.64627610
v -0.53014634 -0.46817681 1.60667355
v 0.00101039 -0.46829832 1.60693705
v -0.53014634 -0.45875901 1.65070003
v 0.00101039 -0.45875901 1.65044576
v -0.53014634 -0.45875901 1.60515269
v 0.00101039 -0.46349829 1.60628984
v -0.53014634 -0.44101711 1.65233645
v 0.00101039 -0.44982731 1.65119463
v 0.00101039 -0.45875901 1.60565657
v -0.53014634 0.13523001 1.60514346
v 0.00101039 -0.44071333 1.65195740
v -0.53014634 -0.44071333 1.65235957
v 0.00101039 0.13523001 1.60565657
v -0.53014634 0.14476932 1.60674286
v 0.00101039 0.14476932 1.60693705
v 0.00101039 0.11718433 1.65195740
v -0.53014634 0.11718433 1.65236418
v -0.53014634 0.14483007 1.60697401
v -0.53014634 0.14701744 1.61647365
v 0.00101039 0.14695668 1.61647365
v 0.00101039 0.12611603 1.65121314
v 0.00101039 0.13523001 1.65044576
v -0.53014634 0.13523001 1.65069542
v -0.53014634 0.14859720 1.63446977
v 0.00101039 0.14859720 1.63446977
v 0.00101039 0.14780732 1.62557111
v 0.00101039 0.14634908 1.64620218
v -0.53014634 0.14616680 1.64635930
v -0.53014634 0.14634908 1.64627149
f 1 2 3
f 1 3 4
f 1 4 5
f 1 5 10
f 1 10 13
f 1 13 17
f 1 17 22
f 1 22 27
f 1 27 33
f 1 33 38
f 1 38 39
f 1 39 34
f 1 34 29
f 1 29 28
f 1 28 24
f 1 24 20
f 1 20 15
f 1 15 11
f 1 11 7
f 1 7 2
f 2 6 3
f 2 7 8
f 2 8 6
f 3 6 8
f 3 8 12
f 3 12 16
f 3 16 19
f 3 19 23
f 3 23 25
f 3 25 30
f 3 30 36
f 3 36 35
f 3 35 37
f 3 37 32
f 3 32 31
f 3 31 26
f 3 26 21
f 3 21 18
f 3 18 14
f 3 14 9
f 3 9 4
f 4 9 5
f 5 9 10
f 7 11 12
f 7 12 8
f 9 13 10
f 9 14 13
f 11 15 12
f 12 15 16
f 13 14 17
f 14 18 17
f 15 19 16
f 15 20 19
f 17 18 21
f 17 21 22
f 19 20 23
f 20 24 25
f 20 25 23
f 21 26 27
f 21 27 22
f 24 28 25
f 25 28 29
f 25 29 30
f 26 31 27
f 27 31 32
f 27 32 33
f 29 34 35
f 29 35 36
f 29 36 30
f 32 37 33
f 33 37 38
f 34 39 35
f 35 39 37
f 37 39 38

