# https://github.com/mikedh/trimesh
v 0.54901472 0.22499913 1.14522710
v 0.56475981 0.24285832 1.14002165
v 0.54898141 0.24285832 1.14522511
v 0.54886784 0.24285832 1.14522114
v 0.54488702 0.24285832 1.14506420
v 0.54901472 0.00088287 1.14522710
v 0.56489103 0.24285832 1.13997793
v 0.56477156 0.00088287 1.13997793
v 0.54488702 0.24285832 1.12554963
v 0.54488702 0.00088287 1.14506420
v 0.56489103 0.24285832 1.12817223
v 0.56477156 0.00088287 1.12817223
v 0.54897165 0.24285832 1.12493769
v 0.54488702 0.00088287 1.12554963
v 0.54914396 0.24285832 1.12495756
v 0.55611869 0.00088287 1.12639205
v 0.54901472 0.00088287 1.12493173
v 0.54901472 0.22499913 1.12493173
f 1 2 3
f 1 3 4
f 1 4 5
f 1 5 10
f 1 10 6
f 1 6 2
f 2 7 11
f 2 11 15
f 2 15 13
f 2 13 9
f 2 9 5
f 2 5 4
f 2 4 3
f 2 6 8
f 2 8 7
f 5 9 14
f 5 14 10
f 6 10 14
f 6 14 17
f 6 17 16
f 6 16 12
f 6 12 8
f 7 8 12
f 7 12 11
f 9 13 14
f 11 12 16
f 11 16 17
f 11 17 15
f 13 15 18
f 13 18 17
f 13 17 14
f 15 17 18

