# https://github.com/mikedh/trimesh
v 0.60964663 -0.44076332 0.05051500
v 0.60594980 -0.45876038 0.01448451
v 0.60942696 -0.44076332 0.01448451
v 0.60429075 -0.40476920 0.05051500
v 0.60797245 -0.44076332 0.45760982
v 0.60457104 -0.45876038 0.45760982
v 0.59847271 -0.46901235 0.01448451
v 0.59774551 -0.46873528 0.00408677
v 0.60089689 -0.45876038 0.00196203
v 0.60023782 -0.46496170 0.45760982
v 0.59756366 -0.46878806 0.45760982
v 0.60266957 -0.44076332 0.00065096
v 0.60010908 -0.42873670 0.00232370
v 0.60428318 -0.40472961 0.05046978
v 0.60096508 -0.42825511 0.45760982
v 0.58610188 -0.47099150 0.12248559
v 0.58610188 -0.47099150 0.10449295
v 0.58610188 -0.47029222 0.01448451
v 0.58610188 -0.46922346 0.00336343
v 0.58610188 -0.45876038 -0.00160939
v 0.58610188 -0.44076332 -0.00418624
v 0.58610188 -0.46981063 0.45760982
v 0.58610188 -0.47097170 0.14047822
v 0.58610188 -0.42722594 0.00074141
v 0.59926815 -0.40472961 0.03785685
v 0.60010908 -0.40472961 0.06457460
v 0.59176837 -0.42775372 0.45760982
v 0.56445104 -0.40472961 0.15385971
v 0.56811000 -0.47211963 0.14047822
v 0.56811000 -0.46996896 0.01448451
v 0.56811000 -0.46910472 0.00354432
v 0.56811000 -0.47196787 0.12248559
v 0.56811000 -0.47171060 0.10449295
v 0.53226260 -0.47211963 0.14047822
v 0.56811000 -0.45876038 -0.00102166
v 0.56811000 -0.44076332 -0.00350818
v 0.56811000 -0.42753601 0.00105780
v 0.57923843 -0.46965227 0.45760982
v 0.58607157 -0.40472961 0.03451149
v 0.58610188 -0.42745026 0.45760982
v 0.55011055 -0.40472961 0.15815441
v 0.55811030 -0.46857694 0.00431282
v 0.53226260 -0.47210644 0.14061383
v 0.53226260 -0.47054290 0.12248559
v 0.56811000 -0.46938839 0.45760982
v 0.56440555 -0.46899915 0.45760982
v 0.55838302 -0.46836583 0.45760982
v 0.55657248 -0.45876038 0.00250448
v 0.55555732 -0.44076332 0.00137430
v 0.55674671 -0.42915231 0.00273053
v 0.55898904 -0.40472961 0.04129265
v 0.56809487 -0.40472961 0.03790207
v 0.56811000 -0.42757560 0.45760982
v 0.53226260 -0.40472961 0.15797357
v 0.53226260 -0.46834603 0.11281113
v 0.53226260 -0.46992277 0.15227742
v 0.55540582 -0.45876038 0.45760982
v 0.55248924 -0.44076332 0.01448451
v 0.53226260 -0.40472961 0.13550535
v 0.55614064 -0.42837385 0.45760982
v 0.53226260 -0.42261453 0.15815441
v 0.55317106 -0.44076332 0.45760982
v 0.53226260 -0.45884613 0.11131928
v 0.53226260 -0.46981063 0.15232264
v 0.55401950 -0.44762436 0.45760982
v 0.53226260 -0.44798061 0.11190701
v 0.53226260 -0.44061159 0.15833524
v 0.53226260 -0.44076332 0.15833524
v 0.53226260 -0.45856246 0.15670778
v 0.53226260 -0.45876038 0.15666256
f 1 2 3
f 1 3 4
f 1 4 5
f 1 5 6
f 1 6 2
f 2 7 8
f 2 8 9
f 2 9 3
f 2 6 10
f 2 10 11
f 2 11 7
f 3 9 12
f 3 12 13
f 3 13 14
f 3 14 4
f 4 14 5
f 5 15 27
f 5 27 40
f 5 40 53
f 5 53 60
f 5 60 62
f 5 62 65
f 5 65 57
f 5 57 47
f 5 47 46
f 5 46 45
f 5 45 38
f 5 38 22
f 5 22 11
f 5 11 10
f 5 10 6
f 5 14 15
f 7 16 17
f 7 17 18
f 7 18 8
f 7 11 16
f 8 18 19
f 8 19 20
f 8 20 9
f 9 20 21
f 9 21 12
f 11 22 23
f 11 23 16
f 12 21 13
f 13 21 24
f 13 24 25
f 13 25 14
f 14 25 39
f 14 39 52
f 14 52 51
f 14 51 59
f 14 59 54
f 14 54 41
f 14 41 28
f 14 28 26
f 14 26 15
f 15 26 28
f 15 28 27
f 16 23 29
f 16 29 17
f 17 29 18
f 18 30 31
f 18 31 19
f 18 29 32
f 18 32 33
f 18 33 34
f 18 34 30
f 19 31 20
f 20 35 21
f 20 31 35
f 21 36 37
f 21 37 24
f 21 35 36
f 22 38 34
f 22 34 29
f 22 29 23
f 24 37 39
f 24 39 25
f 27 28 40
f 28 41 40
f 29 34 32
f 30 42 31
f 30 34 42
f 31 42 35
f 32 34 33
f 34 43 56
f 34 56 64
f 34 64 70
f 34 70 69
f 34 69 68
f 34 68 67
f 34 67 61
f 34 61 54
f 34 54 59
f 34 59 66
f 34 66 63
f 34 63 55
f 34 55 44
f 34 44 42
f 34 38 45
f 34 45 46
f 34 46 47
f 34 47 43
f 35 48 36
f 35 42 48
f 36 48 49
f 36 49 50
f 36 50 37
f 37 50 51
f 37 51 52
f 37 52 39
f 40 41 54
f 40 54 53
f 42 44 55
f 42 55 48
f 43 47 56
f 47 57 56
f 48 58 49
f 48 55 58
f 49 58 50
f 50 58 59
f 50 59 51
f 53 54 60
f 54 61 62
f 54 62 60
f 55 63 58
f 56 57 65
f 56 65 62
f 56 62 64
f 58 63 66
f 58 66 59
f 61 67 62
f 62 67 68
f 62 68 69
f 62 69 70
f 62 70 64

