# https://github.com/mikedh/trimesh
v -0.53014634 -0.42212358 1.15302414
v -0.53014634 -0.34948625 1.15259418
v -0.54714468 -0.42212358 1.15595013
v -0.53014634 -0.42212358 1.12955633
v -0.54793834 -0.34948625 1.15276139
v -0.56621368 -0.42212358 1.15640396
v -0.54834234 -0.42212358 1.15608151
v -0.53014634 -0.34948625 1.12979519
v -0.55292382 -0.42212358 1.03439529
v -0.57199282 -0.42212358 1.15497083
v -0.56611267 -0.34948625 1.14572700
v -0.55692090 -0.39868850 1.03439529
v -0.55946052 -0.39403846 1.03439529
v -0.55619220 -0.35764871 1.08277599
v -0.55567989 -0.34948625 1.09600872
v -0.60372400 -0.42212358 1.03439529
v -0.56754846 -0.34948625 1.14509403
v -0.59129990 -0.34948625 1.13003404
v -0.59715843 -0.34948625 1.12218756
v -0.57394086 -0.42212358 1.14910685
v -0.56761336 -0.39164234 1.03439529
v -0.57233191 -0.37730117 1.04895369
v -0.56589621 -0.34948625 1.08447188
v -0.56258460 -0.34948625 1.08702765
v -0.60170381 -0.41083977 1.03439529
v -0.60373119 -0.42212358 1.03462221
v -0.60005157 -0.36876898 1.07648208
v -0.59883948 -0.34948625 1.11655051
v -0.59950327 -0.42212358 1.05869910
v -0.57608367 -0.39009945 1.03439529
v -0.58389019 -0.38920357 1.03439529
v -0.57956845 -0.35998083 1.06769210
v -0.58451788 -0.34948625 1.07938420
v -0.59653069 -0.39465706 1.03439529
v -0.59855088 -0.34948625 1.09304688
v -0.60384663 -0.42212358 1.04047422
v -0.59857255 -0.34948625 1.09316630
v -0.60375286 -0.42212358 1.04114303
v -0.59512382 -0.39172766 1.03439529
v -0.59376018 -0.37699544 1.04859540
v -0.59296657 -0.35970353 1.06740547
v -0.59156689 -0.35970353 1.06740547
v -0.58490031 -0.35347504 1.07481007
v -0.59531860 -0.35581428 1.07648208
v -0.59622771 -0.38766776 1.04175212
f 1 2 3
f 1 3 7
f 1 7 6
f 1 6 10
f 1 10 20
f 1 20 29
f 1 29 38
f 1 38 36
f 1 36 26
f 1 26 16
f 1 16 9
f 1 9 4
f 1 4 8
f 1 8 2
f 2 5 6
f 2 6 7
f 2 7 3
f 2 8 15
f 2 15 24
f 2 24 23
f 2 23 33
f 2 33 35
f 2 35 37
f 2 37 28
f 2 28 19
f 2 19 18
f 2 18 17
f 2 17 11
f 2 11 5
f 4 9 8
f 5 10 6
f 5 11 10
f 8 9 12
f 8 12 13
f 8 13 14
f 8 14 15
f 9 16 25
f 9 25 34
f 9 34 39
f 9 39 31
f 9 31 30
f 9 30 21
f 9 21 13
f 9 13 12
f 10 11 17
f 10 17 18
f 10 18 19
f 10 19 20
f 13 21 22
f 13 22 23
f 13 23 24
f 13 24 14
f 14 24 15
f 16 26 27
f 16 27 25
f 19 28 20
f 20 28 29
f 21 30 22
f 22 30 31
f 22 31 32
f 22 32 23
f 23 32 33
f 25 27 35
f 25 35 34
f 26 36 27
f 27 37 35
f 27 36 28
f 27 28 37
f 28 36 38
f 28 38 29
f 31 39 40
f 31 40 41
f 31 41 42
f 31 42 32
f 32 42 43
f 32 43 33
f 33 43 42
f 33 42 41
f 33 41 44
f 33 44 35
f 34 45 39
f 34 35 44
f 34 44 45
f 39 45 44
f 39 44 40
f 40 44 41

