# https://github.com/mikedh/trimesh
v 0.54901617 -0.24285859 1.64700871
v 0.54488707 -0.24285859 1.64699755
v 0.56516553 -0.24285859 1.64254803
v 0.54901617 0.00085901 1.64695957
v 0.54488707 0.00085901 1.64695957
v 0.54488707 -0.24285859 1.62506273
v 0.56516553 -0.24285859 1.62918379
v 0.56507020 0.00085901 1.64250109
v 0.55783030 0.00085901 1.64451242
v 0.54488707 0.00085901 1.62506273
v 0.54886731 -0.24285859 1.62421127
v 0.54660024 0.00085901 1.62469623
v 0.54901617 -0.24285859 1.62417999
v 0.54901617 0.00085901 1.62417999
v 0.55625409 0.00085901 1.62643493
v 0.56507020 0.00085901 1.62918379
f 1 2 6
f 1 6 11
f 1 11 13
f 1 13 7
f 1 7 3
f 1 3 4
f 1 4 5
f 1 5 2
f 2 5 10
f 2 10 6
f 3 7 16
f 3 16 8
f 3 8 9
f 3 9 4
f 4 9 8
f 4 8 16
f 4 16 15
f 4 15 14
f 4 14 12
f 4 12 10
f 4 10 5
f 6 10 12
f 6 12 11
f 7 13 14
f 7 14 15
f 7 15 16
f 11 12 14
f 11 14 13

