# https://github.com/mikedh/trimesh
v -0.53003465 0.11724376 0.65766064
v -0.53003465 0.11711491 0.65766064
v -0.53003465 0.13522749 0.65621007
v -0.53015535 0.11724376 1.15364655
v -0.53003465 0.08595172 0.65632165
v -0.53015535 0.11696151 1.15364655
v -0.53015535 0.09502027 1.15286546
v -0.53003465 0.14480531 0.65420158
v -0.53015535 0.13522749 1.15141489
v -0.54500840 0.13522749 1.59718846
v -0.53003465 0.08595172 0.63110392
v -0.55349475 0.09330840 1.59718846
v -0.55507887 0.08595172 0.90515147
v -0.54599658 0.11816411 1.59718846
v -0.53003465 0.14700191 0.64460544
v -0.53015535 0.14641901 1.14405043
v -0.54981358 0.14585451 1.59718846
v -0.53015535 0.14862786 1.13043731
v -0.53474933 0.08595172 0.62954175
v -0.56590372 0.10343232 0.45725781
v -0.55354003 0.10426064 0.45725781
v -0.55017563 0.11724376 0.45725781
v -0.53003465 0.12207869 0.61336224
v -0.60284397 0.09330840 1.59718846
v -0.59964554 0.08595172 0.90515147
v -0.53003465 0.14859104 0.62652901
v -0.56590372 0.14819836 1.59718846
v -0.56590372 0.14862786 1.13043731
v -0.54790508 0.14859718 0.62652901
v -0.54795030 0.08595172 0.62708694
v -0.58388729 0.10321755 0.45725781
v -0.53003465 0.14639447 0.61470122
v -0.53003465 0.13522749 0.61057266
v -0.55330619 0.13522749 0.45725781
v -0.60380200 0.09805744 1.59718846
v -0.60353045 0.09502027 0.91463601
v -0.60539367 0.11724376 0.45725781
v -0.59876298 0.10405202 0.45725781
v -0.56656757 0.08595172 0.64460544
v -0.55666303 0.14441264 0.45725781
v -0.56219992 0.14468260 0.45725781
v -0.56590372 0.14486054 0.45725781
v -0.57666823 0.14502619 0.45725781
v -0.58388729 0.14513050 0.45725781
v -0.56590372 0.14813699 0.59059932
v -0.56590372 0.14839470 0.60856417
v -0.58387978 0.14683008 1.59718846
v -0.58387978 0.14687917 1.09439604
v -0.58387978 0.14687917 1.13043731
v -0.56590372 0.14857264 0.62652901
v -0.58388729 0.14684237 0.60856417
v -0.55333634 0.08595172 0.62764484
v -0.56351999 0.08595172 0.62920701
v -0.55464891 0.13890890 0.45725781
v -0.60630643 0.11724991 1.59718846
v -0.60709849 0.11724376 0.91463601
v -0.60058850 0.13522749 0.45725781
v -0.56492311 0.08595172 0.63523249
v -0.59396537 0.14468260 0.45725781
v -0.58388729 0.14681783 0.59059932
v -0.59395781 0.14468260 1.59718846
v -0.59396537 0.14468874 0.59059932
v -0.59396537 0.14468874 0.62652901
v -0.60058850 0.13522749 1.59718846
v -0.60128249 0.13522749 1.00457182
v -0.60130513 0.13522749 0.91463601
v -0.60122970 0.13522749 0.82447705
v -0.60120707 0.13522749 0.80651221
f 1 2 5
f 1 5 11
f 1 11 23
f 1 23 33
f 1 33 32
f 1 32 26
f 1 26 15
f 1 15 8
f 1 8 3
f 1 3 4
f 1 4 6
f 1 6 2
f 2 6 7
f 2 7 5
f 3 8 9
f 3 9 4
f 4 9 10
f 4 10 6
f 5 7 12
f 5 12 13
f 5 13 25
f 5 25 39
f 5 39 58
f 5 58 53
f 5 53 52
f 5 52 30
f 5 30 19
f 5 19 11
f 6 10 7
f 7 10 14
f 7 14 12
f 8 15 16
f 8 16 9
f 9 16 10
f 10 17 27
f 10 27 47
f 10 47 61
f 10 61 64
f 10 64 55
f 10 55 35
f 10 35 24
f 10 24 12
f 10 12 14
f 10 16 18
f 10 18 17
f 11 19 20
f 11 20 21
f 11 21 22
f 11 22 23
f 12 24 25
f 12 25 13
f 15 26 18
f 15 18 16
f 17 18 27
f 18 28 27
f 18 26 29
f 18 29 28
f 19 30 20
f 20 31 38
f 20 38 37
f 20 37 57
f 20 57 59
f 20 59 44
f 20 44 43
f 20 43 42
f 20 42 41
f 20 41 40
f 20 40 54
f 20 54 34
f 20 34 22
f 20 22 21
f 20 30 31
f 22 32 33
f 22 33 23
f 22 34 32
f 24 35 36
f 24 36 25
f 25 37 38
f 25 38 39
f 25 36 37
f 26 32 40
f 26 40 41
f 26 41 42
f 26 42 43
f 26 43 44
f 26 44 45
f 26 45 46
f 26 46 29
f 27 28 47
f 28 48 49
f 28 49 47
f 28 29 50
f 28 50 51
f 28 51 48
f 29 46 50
f 30 52 31
f 31 52 53
f 31 53 38
f 32 34 54
f 32 54 40
f 35 55 56
f 35 56 36
f 36 56 37
f 37 56 57
f 38 53 58
f 38 58 39
f 44 59 45
f 45 59 46
f 46 59 60
f 46 60 50
f 47 49 61
f 48 51 59
f 48 59 62
f 48 62 63
f 48 63 49
f 49 63 61
f 50 60 51
f 51 60 59
f 55 64 65
f 55 65 56
f 56 65 66
f 56 66 67
f 56 67 68
f 56 68 57
f 57 68 59
f 59 68 67
f 59 67 66
f 59 66 62
f 61 66 65
f 61 65 64
f 61 63 66
f 62 66 63

