# https://github.com/mikedh/trimesh
v 0.58500640 0.24281621 0.89163108
v 0.59881950 0.24281621 0.89594244
v 0.56936888 0.24281621 0.89594244
v 0.58500640 0.26625262 0.67860482
v 0.60127153 0.24281621 0.90301751
v 0.58800841 0.26662307 0.67860482
v 0.60006166 0.26815108 0.67860482
v 0.56592043 0.24281621 0.90301751
v 0.56914888 0.26811801 0.67860482
v 0.60338715 0.24286910 0.90898711
v 0.60341955 0.24286910 0.90909768
v 0.56490465 0.24286910 1.13992219
v 0.54898892 0.24286910 1.14522849
v 0.60904182 0.27899283 0.67860482
v 0.54887895 0.24286910 1.14522849
v 0.54488707 0.24286910 1.14500742
v 0.54488707 0.24286910 1.12555092
v 0.56293784 0.24286910 0.90909768
v 0.56735025 0.26957991 0.67860482
v 0.61094393 0.27899283 0.90909768
v 0.61097628 0.27900608 1.61096779
v 0.61094393 0.27900608 1.77303141
v 0.60713966 0.26216464 1.61096779
v 0.60642150 0.26216464 1.77303141
v 0.60085100 0.26216464 1.79005583
v 0.60063105 0.26216464 1.79038747
v 0.58948999 0.26216464 1.79602541
v 0.58500640 0.26216464 1.79657817
v 0.60971464 0.29699849 0.67860482
v 0.54488707 0.27905900 1.15097699
v 0.56834017 0.26216464 1.79038747
v 0.56807489 0.26216464 1.79005583
v 0.56163742 0.26216464 1.77435796
v 0.54489351 0.26216464 1.64954915
v 0.54488707 0.28034226 1.10896871
v 0.55762613 0.28449641 0.67860482
v 0.55811784 0.28270376 0.67860482
v 0.56014291 0.27550681 0.67860482
v 0.60971464 0.29699849 1.77303141
v 0.60972114 0.29699849 0.90301751
v 0.60972114 0.29699849 1.28993603
v 0.60970172 0.29699849 1.79094023
v 0.60998641 0.27900608 1.79094023
v 0.59804308 0.26855461 1.80177396
v 0.58500640 0.26782696 1.80254774
v 0.57143922 0.26855461 1.80177396
v 0.60253316 0.30596162 0.67860482
v 0.54488707 0.29838758 1.14799221
v 0.54489351 0.27653873 1.65087570
v 0.54489351 0.27900608 1.65087570
v 0.54489351 0.29346614 1.65021242
v 0.54489351 0.29801716 1.64977022
v 0.55778138 0.28566723 1.80033679
v 0.55936006 0.27532822 1.79094023
v 0.54488707 0.28361662 1.10786323
v 0.54488707 0.29830159 1.10388349
v 0.55762613 0.29231515 0.67860482
v 0.60074103 0.30819743 1.79094023
v 0.60074103 0.30819743 1.29004656
v 0.59849601 0.30746978 1.80188447
v 0.60185385 0.29699849 1.80387429
v 0.60151095 0.27900608 1.80376378
v 0.58500640 0.27900608 1.80752240
v 0.56606924 0.27940295 1.80321102
v 0.60074103 0.30819081 0.67860482
v 0.54488707 0.30819081 1.13981163
v 0.54489351 0.30816436 1.64269512
v 0.55778138 0.29087972 1.80033679
v 0.56577162 0.29693231 1.80343214
v 0.54488707 0.30083508 1.10476788
v 0.54488707 0.30819081 1.11051638
v 0.55939884 0.30131797 0.67860482
v 0.58500640 0.31038695 1.79094023
v 0.59813369 0.30856125 1.29004656
v 0.58500640 0.31038695 0.67860482
v 0.58500640 0.30819743 1.80298989
v 0.58500640 0.29699849 1.80796455
v 0.54488707 0.31038695 1.12510874
v 0.54489351 0.31035388 1.62898717
v 0.55940534 0.30132460 1.79094023
v 0.57094101 0.30746978 1.80188447
v 0.54488707 0.30870017 1.11339063
v 0.56840487 0.30819081 0.67860482
v 0.56840487 0.30819743 1.79094023
f 1 2 5
f 1 5 8
f 1 8 3
f 1 3 4
f 1 4 2
f 2 4 6
f 2 6 7
f 2 7 5
f 3 8 9
f 3 9 4
f 4 9 19
f 4 19 38
f 4 38 37
f 4 37 36
f 4 36 57
f 4 57 72
f 4 72 83
f 4 83 75
f 4 75 65
f 4 65 47
f 4 47 29
f 4 29 14
f 4 14 7
f 4 7 6
f 5 7 10
f 5 10 11
f 5 11 12
f 5 12 13
f 5 13 15
f 5 15 8
f 7 14 11
f 7 11 10
f 8 15 16
f 8 16 17
f 8 17 18
f 8 18 9
f 9 18 19
f 11 14 20
f 11 20 21
f 11 21 22
f 11 22 23
f 11 23 24
f 11 24 12
f 12 24 25
f 12 25 26
f 12 26 27
f 12 27 13
f 13 27 28
f 13 28 15
f 14 29 20
f 15 28 16
f 16 30 48
f 16 48 66
f 16 66 78
f 16 78 82
f 16 82 71
f 16 71 70
f 16 70 56
f 16 56 55
f 16 55 35
f 16 35 17
f 16 28 31
f 16 31 32
f 16 32 33
f 16 33 34
f 16 34 30
f 17 35 36
f 17 36 37
f 17 37 38
f 17 38 18
f 18 38 19
f 20 29 21
f 21 39 22
f 21 29 40
f 21 40 41
f 21 41 39
f 22 39 42
f 22 42 43
f 22 43 24
f 22 24 23
f 24 43 25
f 25 43 44
f 25 44 26
f 26 44 27
f 27 44 28
f 28 44 45
f 28 45 46
f 28 46 31
f 29 47 40
f 30 34 49
f 30 49 50
f 30 50 51
f 30 51 52
f 30 52 48
f 31 46 32
f 32 46 53
f 32 53 54
f 32 54 33
f 33 54 34
f 34 54 53
f 34 53 49
f 35 55 36
f 36 55 56
f 36 56 57
f 39 58 42
f 39 41 58
f 40 47 59
f 40 59 58
f 40 58 41
f 42 58 60
f 42 60 61
f 42 61 43
f 43 61 62
f 43 62 44
f 44 62 63
f 44 63 45
f 45 63 46
f 46 63 64
f 46 64 53
f 47 65 59
f 48 52 67
f 48 67 66
f 49 53 68
f 49 68 50
f 50 68 51
f 51 68 52
f 52 68 67
f 53 64 69
f 53 69 68
f 56 70 57
f 57 70 71
f 57 71 72
f 58 73 60
f 58 59 74
f 58 74 73
f 59 65 75
f 59 75 74
f 60 76 77
f 60 77 61
f 60 73 76
f 61 77 62
f 62 77 63
f 63 77 64
f 64 77 69
f 66 67 79
f 66 79 78
f 67 68 80
f 67 80 79
f 68 69 81
f 68 81 80
f 69 77 81
f 71 82 72
f 72 82 78
f 72 78 83
f 73 78 79
f 73 79 84
f 73 84 81
f 73 81 76
f 73 74 75
f 73 75 78
f 75 83 78
f 76 81 77
f 79 80 84
f 80 81 84

