# https://github.com/mikedh/trimesh
v 0.53087082 -0.26044817 0.62733623
v 0.54846217 -0.26044817 0.62223657
v 0.53087082 -0.26044817 0.64805632
v 0.53087082 -0.11987698 0.62810336
v 0.54901488 -0.26044817 0.62212697
v 0.56446288 -0.26044817 0.65634510
v 0.55220288 -0.13501437 0.65719992
v 0.53087082 -0.13516574 0.64805997
v 0.53087082 -0.11987698 0.64805997
v 0.54901488 -0.11987698 0.62460373
v 0.56547389 -0.26044817 0.61988035
v 0.58102976 -0.26044817 0.63901503
v 0.59921427 -0.13502813 0.65719992
v 0.58991980 -0.14255553 0.65719992
v 0.56693648 -0.15059210 0.65719992
v 0.56610744 -0.15037192 0.65719992
v 0.55440686 -0.14463348 0.65719992
v 0.55419115 -0.11987698 0.65719992
v 0.56700386 -0.11987698 0.62458547
v 0.56616811 -0.26044817 0.61993150
v 0.57889322 -0.26044817 0.62840291
v 0.59958496 -0.11987698 0.64174385
v 0.59922774 -0.13495931 0.65716338
v 0.59924120 -0.13454648 0.65719992
v 0.59971972 -0.11987698 0.65719992
v 0.58501311 -0.11987698 0.63174182
v 0.59898510 -0.11987698 0.64034474
f 1 2 5
f 1 5 11
f 1 11 20
f 1 20 21
f 1 21 12
f 1 12 6
f 1 6 3
f 1 3 8
f 1 8 9
f 1 9 4
f 1 4 2
f 2 4 5
f 3 6 7
f 3 7 8
f 4 9 18
f 4 18 25
f 4 25 22
f 4 22 27
f 4 27 26
f 4 26 19
f 4 19 10
f 4 10 5
f 5 10 11
f 6 12 13
f 6 13 14
f 6 14 15
f 6 15 16
f 6 16 17
f 6 17 7
f 7 17 16
f 7 16 15
f 7 15 14
f 7 14 13
f 7 13 24
f 7 24 25
f 7 25 18
f 7 18 9
f 7 9 8
f 10 19 11
f 11 19 20
f 12 21 22
f 12 22 23
f 12 23 13
f 13 23 24
f 19 26 20
f 20 26 27
f 20 27 21
f 21 27 22
f 22 25 23
f 23 25 24

