# https://github.com/mikedh/trimesh
v -0.60228709 -0.24285859 1.77304493
v -0.59954446 -0.24285859 1.75830435
v -0.59678332 -0.24285859 1.78401824
v -0.60227229 0.00085901 1.77304493
v -0.59951855 -0.24285859 1.75818167
v -0.60102664 0.00085901 1.76635280
v -0.59950380 0.00085901 1.75820157
v -0.58501429 -0.24285859 1.78599137
v -0.59678332 0.00085901 1.78385574
v -0.59925982 0.00085901 1.77898092
v -0.58501429 -0.24285859 1.75211301
v -0.59296869 0.00085901 1.75547562
v -0.58490705 -0.24285859 1.78597480
v -0.57186281 0.00085901 1.78385574
v -0.57779536 0.00085901 1.78467153
v -0.58501429 0.00085901 1.78566306
v -0.56868398 -0.24285859 1.75797937
v -0.58501429 0.00085901 1.75216274
v -0.56868398 0.00085901 1.75800925
v -0.57180369 -0.24285859 1.78392870
v -0.56783756 0.00085901 1.77791975
v -0.56456631 -0.24285859 1.77292218
v -0.56453305 0.00085901 1.77304493
v -0.56453305 -0.24285859 1.77304493
f 1 2 5
f 1 5 11
f 1 11 17
f 1 17 22
f 1 22 24
f 1 24 20
f 1 20 13
f 1 13 8
f 1 8 3
f 1 3 4
f 1 4 2
f 2 4 6
f 2 6 7
f 2 7 5
f 3 8 9
f 3 9 10
f 3 10 4
f 4 10 9
f 4 9 16
f 4 16 15
f 4 15 14
f 4 14 21
f 4 21 23
f 4 23 19
f 4 19 18
f 4 18 12
f 4 12 7
f 4 7 6
f 5 7 11
f 7 12 11
f 8 13 14
f 8 14 15
f 8 15 16
f 8 16 9
f 11 12 18
f 11 18 19
f 11 19 17
f 13 20 14
f 14 20 21
f 17 19 23
f 17 23 22
f 20 24 23
f 20 23 21
f 22 23 24

