# https://github.com/mikedh/trimesh
v -0.58501209 -0.11986322 0.67841175
v -0.58832535 -0.11986322 0.67830301
v -0.57607034 -0.11986322 0.67501151
v -0.53084561 0.24293482 0.64805595
v -0.54902105 0.24293482 0.64812845
v -0.55825475 0.24293482 0.64811394
v -0.59548827 -0.11986322 0.67401099
v -0.57055047 -0.11986322 0.67229999
v -0.53084561 0.24293482 0.62809665
v -0.53084561 -0.11986322 0.64805595
v -0.56402578 0.24293482 0.63902243
v -0.59753189 -0.11986322 0.67111099
v -0.54902105 0.24293482 0.62458764
v -0.53084561 -0.08097679 0.62801691
v -0.56641569 -0.08140294 0.60435285
v -0.56757668 -0.06158684 0.60435285
v -0.53084561 -0.11986322 0.62810389
v -0.56378818 0.24293482 0.62563164
v -0.60019336 -0.06183543 0.60435285
v -0.59988109 -0.11521107 0.65879322
v -0.59972493 -0.11986322 0.65840898
v -0.57752327 -0.05199840 0.60435285
v -0.58501209 -0.04954802 0.60435285
v -0.53084561 -0.08115436 0.62801691
v -0.56745448 -0.08385332 0.60435285
v -0.54615590 -0.11986322 0.62515315
v -0.57642338 -0.09109791 0.60435285
v -0.56886670 -0.08523832 0.60435285
v -0.60003044 -0.08133192 0.60435285
v -0.59965020 -0.11712874 0.63897168
v -0.59898483 -0.11986322 0.64034917
v -0.54902105 -0.11986322 0.62460215
v -0.58501209 -0.09333522 0.60435285
v -0.59912742 -0.08523832 0.60435285
v -0.59965701 -0.09930136 0.62077414
v -0.59712456 -0.09351278 0.60828236
v -0.59696840 -0.11123364 0.62661040
v -0.58753778 -0.11986322 0.63254092
v -0.56494236 -0.11986322 0.62444264
v -0.56700638 -0.11986322 0.62458764
f 1 2 7
f 1 7 12
f 1 12 21
f 1 21 31
f 1 31 38
f 1 38 40
f 1 40 39
f 1 39 32
f 1 32 26
f 1 26 17
f 1 17 10
f 1 10 8
f 1 8 3
f 1 3 4
f 1 4 5
f 1 5 6
f 1 6 2
f 2 6 7
f 3 8 4
f 4 9 13
f 4 13 18
f 4 18 11
f 4 11 6
f 4 6 5
f 4 8 10
f 4 10 17
f 4 17 24
f 4 24 14
f 4 14 9
f 6 11 12
f 6 12 7
f 9 14 15
f 9 15 16
f 9 16 13
f 11 18 19
f 11 19 20
f 11 20 12
f 12 20 21
f 13 16 22
f 13 22 23
f 13 23 19
f 13 19 18
f 14 24 15
f 15 24 17
f 15 17 25
f 15 25 28
f 15 28 27
f 15 27 33
f 15 33 34
f 15 34 29
f 15 29 19
f 15 19 23
f 15 23 22
f 15 22 16
f 17 26 27
f 17 27 28
f 17 28 25
f 19 29 20
f 20 29 30
f 20 30 21
f 21 30 31
f 26 32 27
f 27 32 33
f 29 34 35
f 29 35 30
f 30 35 34
f 30 34 36
f 30 36 37
f 30 37 31
f 31 37 38
f 32 39 33
f 33 36 34
f 33 39 40
f 33 40 36
f 36 40 37
f 37 40 38

