# https://github.com/mikedh/trimesh
v 0.53086412 0.12564517 0.63767494
v 0.53086412 0.12564517 0.64805619
v 0.53086412 0.13501150 0.62810027
v 0.53093713 0.12564517 0.62810027
v 0.54901805 0.12564517 0.64805619
v 0.55950474 0.25530157 0.65392056
v 0.54330989 0.25530157 0.65097574
v 0.53086412 0.25530157 0.64805619
v 0.53086412 0.25530157 0.62755939
v 0.54901805 0.25530157 0.62285272
v 0.54901805 0.12564517 0.62463986
v 0.55336254 0.12564517 0.64804672
v 0.56262386 0.25530157 0.65391423
v 0.56546257 0.25530157 0.62161278
v 0.56378008 0.12564517 0.62567734
v 0.55807578 0.12564517 0.64803406
v 0.57010285 0.25528889 0.63901610
v 0.57009899 0.25530157 0.63897812
v 0.56384156 0.12564517 0.63901610
v 0.56381468 0.12564517 0.63261401
f 1 2 8
f 1 8 9
f 1 9 3
f 1 3 4
f 1 4 11
f 1 11 15
f 1 15 20
f 1 20 19
f 1 19 16
f 1 16 12
f 1 12 5
f 1 5 2
f 2 5 6
f 2 6 7
f 2 7 8
f 3 9 4
f 4 9 10
f 4 10 11
f 5 12 13
f 5 13 6
f 6 13 18
f 6 18 14
f 6 14 10
f 6 10 9
f 6 9 8
f 6 8 7
f 10 14 11
f 11 14 15
f 12 16 13
f 13 17 18
f 13 16 19
f 13 19 17
f 14 18 15
f 15 18 17
f 15 17 20
f 17 19 20

