# https://github.com/mikedh/trimesh
v 0.00101039 -0.47212620 0.14046926
v 0.00101039 -0.47103251 0.14627099
v 0.00101039 -0.47048568 0.12247427
v 0.53226254 -0.47054644 0.12263096
v 0.53226254 -0.47212620 0.14046926
v 0.00101039 -0.46987808 0.15220173
v 0.53226254 -0.46987808 0.15224781
v 0.00101039 -0.46939199 0.11765407
v 0.53226254 -0.46835907 0.11293070
v 0.53226254 -0.46975655 0.15230311
v 0.53226254 -0.45875901 0.15665328
v 0.00101039 -0.45875901 0.15644589
v 0.00101039 -0.46829832 0.11293531
v 0.53226254 -0.46829832 0.11279246
v 0.53226254 -0.44071333 0.15830761
v 0.00101039 -0.44982731 0.15719702
v 0.00101039 -0.46349829 0.11229013
v 0.53226254 -0.45881977 0.11128559
v 0.00101039 -0.44071333 0.15796199
v 0.53226254 0.11718433 0.15831223
v 0.00101039 -0.45875901 0.11165424
v 0.53226254 0.13523001 0.11123951
v 0.00101039 0.11718433 0.15796199
v 0.53226254 0.11736661 0.15829839
v 0.00101039 0.13523001 0.11165424
v 0.00101039 0.14476932 0.11293531
v 0.53226254 0.14470856 0.11275099
v 0.00101039 0.13523001 0.15644589
v 0.53226254 0.13523001 0.15665328
v 0.00101039 0.14695668 0.12247427
v 0.53226254 0.14476932 0.11279246
v 0.00101039 0.14634908 0.15220173
v 0.53226254 0.14634908 0.15224319
v 0.00101039 0.14780732 0.13157087
v 0.53226254 0.14695668 0.12234064
v 0.53226254 0.14640984 0.15210034
v 0.00101039 0.14859720 0.14046926
v 0.53226254 0.14859720 0.14046926
f 1 2 6
f 1 6 12
f 1 12 16
f 1 16 19
f 1 19 23
f 1 23 28
f 1 28 32
f 1 32 37
f 1 37 34
f 1 34 30
f 1 30 26
f 1 26 25
f 1 25 21
f 1 21 17
f 1 17 13
f 1 13 8
f 1 8 3
f 1 3 4
f 1 4 5
f 1 5 2
f 2 5 7
f 2 7 6
f 3 8 9
f 3 9 4
f 4 9 14
f 4 14 18
f 4 18 22
f 4 22 27
f 4 27 31
f 4 31 35
f 4 35 38
f 4 38 36
f 4 36 33
f 4 33 29
f 4 29 24
f 4 24 20
f 4 20 15
f 4 15 11
f 4 11 10
f 4 10 7
f 4 7 5
f 6 7 10
f 6 10 11
f 6 11 12
f 8 13 9
f 9 13 14
f 11 15 12
f 12 15 16
f 13 17 18
f 13 18 14
f 15 19 16
f 15 20 19
f 17 21 18
f 18 21 22
f 19 20 23
f 20 24 23
f 21 25 22
f 22 25 26
f 22 26 27
f 23 24 28
f 24 29 28
f 26 30 31
f 26 31 27
f 28 29 32
f 29 33 32
f 30 34 35
f 30 35 31
f 32 33 36
f 32 36 37
f 34 37 38
f 34 38 35
f 36 38 37

