# https://github.com/mikedh/trimesh
v -0.54487210 -0.25685759 1.14708648
v -0.54748566 -0.25947228 1.14758026
v -0.54487210 -0.25947228 1.14708648
v -0.54487210 -0.22120747 1.14505806
v -0.56735234 -0.25947228 1.14995566
v -0.54487210 -0.25947228 1.12369271
v -0.54901526 -0.22120747 1.14524488
v -0.54487210 -0.22120747 1.12530747
v -0.57398862 -0.25947228 1.14972879
v -0.56439556 -0.25947228 1.03502861
v -0.56561197 -0.22120747 1.13990688
v -0.57073673 -0.25947228 1.02020234
v -0.56847246 -0.22120747 1.07106008
v -0.59791417 -0.22120747 1.10043241
v -0.57672867 -0.25947228 1.14330986
v -0.58300365 -0.25947228 1.01433054
v -0.57539177 -0.25170694 1.02568712
v -0.57120645 -0.22903275 1.05644732
v -0.58061889 -0.22120747 1.06143835
v -0.60010018 -0.22120747 1.09437378
v -0.60172612 -0.25947228 1.07122023
v -0.58501499 -0.25947228 1.01363661
v -0.58501499 -0.22120747 1.05966347
v -0.60018451 -0.22120747 1.07267483
v -0.60638722 -0.25947228 1.05291090
v -0.60630289 -0.25947228 1.05461905
v -0.59869708 -0.25947228 1.02021567
v -0.59441541 -0.25170694 1.02568712
v -0.59961844 -0.22120747 1.07106008
v -0.59767330 -0.22904399 1.05644732
v -0.59948593 -0.25947228 1.02124324
v -0.60458661 -0.25947228 1.03632308
f 1 2 3
f 1 3 6
f 1 6 8
f 1 8 4
f 1 4 2
f 2 4 5
f 2 5 9
f 2 9 15
f 2 15 21
f 2 21 26
f 2 26 25
f 2 25 32
f 2 32 31
f 2 31 27
f 2 27 22
f 2 22 16
f 2 16 12
f 2 12 10
f 2 10 6
f 2 6 3
f 4 7 5
f 4 8 13
f 4 13 19
f 4 19 23
f 4 23 29
f 4 29 24
f 4 24 20
f 4 20 14
f 4 14 11
f 4 11 7
f 5 7 9
f 6 10 8
f 7 11 9
f 8 10 12
f 8 12 13
f 9 11 14
f 9 14 15
f 12 16 17
f 12 17 18
f 12 18 13
f 13 18 19
f 14 20 15
f 15 20 21
f 16 22 17
f 17 22 23
f 17 23 19
f 17 19 18
f 20 24 25
f 20 25 26
f 20 26 21
f 22 27 28
f 22 28 23
f 23 28 30
f 23 30 29
f 24 29 31
f 24 31 32
f 24 32 25
f 27 31 30
f 27 30 28
f 29 30 31

