# https://github.com/mikedh/trimesh
v -0.56656188 0.08595169 0.64447002
v -0.56493829 0.08595169 0.64939533
v -0.56490964 0.08595169 0.63509341
v -0.56235269 0.00030401 0.63051901
v -0.56342552 0.00030401 0.63754069
v -0.56448408 0.00030401 0.64447002
v -0.56103305 0.08595169 0.65727896
v -0.56350781 0.08595169 0.62916147
v -0.55517162 0.00030401 0.62940158
v -0.55902321 0.00030401 0.65471469
v -0.54798340 0.08595169 0.65848566
v -0.55341928 0.00030401 0.65534267
v -0.54789398 0.00030401 0.65596143
v -0.55332631 0.08595169 0.62757921
v -0.54789398 0.00030401 0.62827183
v -0.53002719 0.08595169 0.65619846
v -0.53002719 0.00030401 0.65596143
v -0.54794408 0.08595169 0.62704048
v -0.53002719 0.00030401 0.63150717
v -0.53002719 0.08595169 0.63108850
v -0.53464054 0.08595169 0.62952778
f 1 2 7
f 1 7 11
f 1 11 16
f 1 16 20
f 1 20 21
f 1 21 18
f 1 18 14
f 1 14 8
f 1 8 3
f 1 3 4
f 1 4 5
f 1 5 6
f 1 6 2
f 2 6 7
f 3 8 4
f 4 9 15
f 4 15 19
f 4 19 17
f 4 17 13
f 4 13 12
f 4 12 10
f 4 10 6
f 4 6 5
f 4 8 9
f 6 10 7
f 7 10 12
f 7 12 13
f 7 13 11
f 8 14 9
f 9 14 15
f 11 13 17
f 11 17 16
f 14 18 15
f 15 18 19
f 16 17 19
f 16 19 20
f 18 21 19
f 19 21 20

