# https://github.com/mikedh/trimesh
v -0.58500898 -0.25946283 0.93431467
v -0.58764244 -0.25946283 0.93345081
v -0.60487254 -0.26044817 0.90287221
v -0.56322013 -0.26044817 0.90287221
v -0.56739821 -0.25946283 0.92629013
v -0.56958019 0.24285832 0.92191358
v -0.58500898 0.24285832 0.92580616
v -0.58511965 0.24285832 0.92577493
v -0.59860100 0.24285832 0.92191358
v -0.60133183 -0.25946283 0.92627972
v -0.60189392 -0.26044817 0.89205833
v -0.60639951 -0.25946283 0.90902331
v -0.60339428 0.24285832 0.90897648
v -0.56712826 -0.26044817 0.89134018
v -0.56291478 0.24285832 0.90902852
v -0.56118422 -0.25946283 0.90902331
v -0.56665908 -0.25946283 0.92486424
v -0.59864086 0.24285832 0.92180950
v -0.60165048 -0.26044817 0.89135059
v -0.60126986 0.24285832 0.90287741
v -0.60128312 0.24275977 0.90287221
v -0.58025110 -0.26044817 0.88265994
v -0.56935890 0.24275977 0.89581561
v -0.56591555 0.24275977 0.90287221
v -0.56592440 0.24285832 0.90287741
v -0.58500898 -0.26044817 0.88115079
v -0.59882234 0.24275977 0.89581561
v -0.58500898 0.24275977 0.89161079
v -0.58483195 0.24275977 0.89165763
f 1 2 3
f 1 3 4
f 1 4 5
f 1 5 6
f 1 6 7
f 1 7 8
f 1 8 9
f 1 9 2
f 2 10 3
f 2 9 10
f 3 11 19
f 3 19 26
f 3 26 22
f 3 22 14
f 3 14 4
f 3 10 12
f 3 12 13
f 3 13 11
f 4 14 15
f 4 15 16
f 4 16 17
f 4 17 5
f 5 17 6
f 6 15 25
f 6 25 20
f 6 20 13
f 6 13 18
f 6 18 9
f 6 9 8
f 6 8 7
f 6 17 15
f 9 18 10
f 10 18 13
f 10 13 12
f 11 13 19
f 13 20 21
f 13 21 19
f 14 22 23
f 14 23 24
f 14 24 15
f 15 24 23
f 15 23 25
f 15 17 16
f 19 21 27
f 19 27 26
f 20 25 28
f 20 28 27
f 20 27 21
f 22 26 23
f 23 29 25
f 23 26 29
f 25 29 28
f 26 28 29
f 26 27 28

