# https://github.com/mikedh/trimesh
v 0.00009662 -0.31028247 0.13500147
v 0.00009662 -0.30924980 0.12721594
v 0.53086412 -0.31028247 0.13500147
v 0.53086412 -0.30809566 0.14641617
v 0.00009662 -0.30803491 0.14650871
v 0.00009662 -0.30815642 0.11925338
v 0.53086412 -0.30815642 0.11925338
v 0.53086412 -0.30803491 0.14650871
v 0.00009662 -0.29697944 0.15056845
v 0.53086412 -0.29697944 0.15065294
v 0.53086412 -0.30809566 0.11919302
v 0.00009662 -0.29697944 0.11168511
v 0.33296930 -0.29697944 0.11116609
v 0.53086412 -0.27899908 0.15226236
v 0.00009662 -0.27899908 0.15212154
v 0.53086412 -0.29697944 0.11168511
v 0.00009662 0.29697944 0.11168511
v 0.33296930 0.29697944 0.11116609
v 0.53086412 0.27899908 0.15226236
v 0.00009662 0.27899908 0.15212154
v 0.53086412 0.29697944 0.11168511
v 0.00009662 0.30815642 0.11925338
v 0.53086412 0.30815642 0.11925338
v 0.53086412 0.29685793 0.15066501
v 0.00009662 0.29697944 0.15056845
v 0.00009662 0.31028247 0.13500147
v 0.53086412 0.30821715 0.11938615
v 0.53086412 0.29697944 0.15065294
v 0.00009662 0.30256792 0.14851645
v 0.00009662 0.30918907 0.14069471
v 0.53086412 0.31028247 0.13500147
v 0.53086412 0.30797418 0.14654492
v 0.00009662 0.30803491 0.14650871
v 0.53086412 0.30803491 0.14650871
f 1 2 3
f 1 3 4
f 1 4 5
f 1 5 9
f 1 9 15
f 1 15 20
f 1 20 25
f 1 25 29
f 1 29 33
f 1 33 30
f 1 30 26
f 1 26 22
f 1 22 17
f 1 17 12
f 1 12 6
f 1 6 2
f 2 6 7
f 2 7 3
f 3 7 11
f 3 11 16
f 3 16 21
f 3 21 23
f 3 23 27
f 3 27 31
f 3 31 34
f 3 34 32
f 3 32 28
f 3 28 24
f 3 24 19
f 3 19 14
f 3 14 10
f 3 10 8
f 3 8 4
f 4 8 5
f 5 8 10
f 5 10 9
f 6 11 7
f 6 12 13
f 6 13 11
f 9 10 14
f 9 14 15
f 11 13 16
f 12 17 18
f 12 18 13
f 13 18 21
f 13 21 16
f 14 19 20
f 14 20 15
f 17 22 18
f 18 22 23
f 18 23 21
f 19 24 25
f 19 25 20
f 22 26 27
f 22 27 23
f 24 28 25
f 25 28 29
f 26 30 31
f 26 31 27
f 28 32 33
f 28 33 29
f 30 34 31
f 30 33 34
f 32 34 33

