# https://github.com/mikedh/trimesh
v 0.60955458 0.11723022 0.05048625
v 0.60429638 0.08112087 0.05048625
v 0.60915359 0.11723022 0.01447797
v 0.60418287 0.13523535 0.01447797
v 0.60366086 0.13523535 0.17640904
v 0.60890393 0.11723022 0.17640904
v 0.60010489 0.08112087 0.06457798
v 0.59929540 0.08112087 0.03775766
v 0.60001412 0.10487894 0.00217424
v 0.60151214 0.10318808 0.17640904
v 0.60247301 0.11723022 0.00052790
v 0.60002925 0.13523535 0.00231586
v 0.59675326 0.14481915 0.00456420
v 0.59697266 0.14490504 0.01447797
v 0.59626906 0.14468045 0.17640904
v 0.56443983 0.08112087 0.15392596
v 0.58610065 0.08112087 0.03416393
v 0.58610065 0.10319467 0.00052790
v 0.58610065 0.11723022 -0.00442903
v 0.58610065 0.09952890 0.17640904
v 0.58610065 0.13523535 -0.00083530
v 0.58610065 0.14560515 0.01447797
v 0.56810925 0.14818109 0.10446329
v 0.56810925 0.14843869 0.12246740
v 0.58610065 0.14688652 0.10446329
v 0.58610065 0.14511639 0.00410393
v 0.58610065 0.14688652 0.12246740
v 0.58610065 0.14686670 0.14045387
v 0.56810925 0.14859720 0.14045387
v 0.58610065 0.14513622 0.17640904
v 0.56434901 0.08112087 0.15396136
v 0.56810925 0.08112087 0.03768685
v 0.56810925 0.10358437 0.00091736
v 0.56810925 0.11723022 -0.00363242
v 0.56810925 0.13523535 -0.00028642
v 0.56810925 0.10048664 0.17640904
v 0.53226254 0.08112087 0.15796231
v 0.54999672 0.08112087 0.15817474
v 0.55011023 0.08112087 0.15817474
v 0.56810925 0.14501072 0.00426325
v 0.53226254 0.14859720 0.14045387
v 0.56810925 0.14475312 0.17640904
v 0.55898491 0.08112087 0.04128064
v 0.55672274 0.10540074 0.00270532
v 0.55552733 0.11723022 0.00130682
v 0.55688163 0.13523535 0.00286475
v 0.55853092 0.14468045 0.00477663
v 0.55550464 0.10413919 0.17640904
v 0.55150992 0.11717738 0.17640904
v 0.53226254 0.08139167 0.15798001
v 0.53226254 0.08112087 0.13547928
v 0.53226254 0.14639114 0.15224416
v 0.55898491 0.14426434 0.17640904
v 0.53226254 0.14701202 0.12246740
v 0.55239510 0.11723022 0.01447797
v 0.53226254 0.14470687 0.11273066
v 0.53226254 0.14481255 0.11278377
v 0.53226254 0.14699880 0.12232578
v 0.53226254 0.11723022 0.15831636
v 0.53226254 0.09943644 0.15815704
v 0.55498257 0.13517591 0.17640904
v 0.53226254 0.13523535 0.15665226
v 0.53226254 0.12444284 0.11188088
v 0.53226254 0.13523535 0.11122589
f 1 2 3
f 1 3 4
f 1 4 5
f 1 5 6
f 1 6 2
f 2 7 16
f 2 16 31
f 2 31 39
f 2 39 38
f 2 38 37
f 2 37 51
f 2 51 43
f 2 43 32
f 2 32 17
f 2 17 8
f 2 8 9
f 2 9 3
f 2 6 10
f 2 10 7
f 3 9 11
f 3 11 12
f 3 12 4
f 4 12 13
f 4 13 14
f 4 14 5
f 5 15 30
f 5 30 42
f 5 42 53
f 5 53 61
f 5 61 49
f 5 49 48
f 5 48 36
f 5 36 20
f 5 20 10
f 5 10 6
f 5 14 15
f 7 10 16
f 8 17 18
f 8 18 9
f 9 18 19
f 9 19 11
f 10 20 16
f 11 19 12
f 12 19 21
f 12 21 13
f 13 22 23
f 13 23 24
f 13 24 25
f 13 25 14
f 13 21 26
f 13 26 22
f 14 25 27
f 14 27 28
f 14 28 15
f 15 28 29
f 15 29 30
f 16 20 31
f 17 32 33
f 17 33 18
f 18 33 19
f 19 34 35
f 19 35 21
f 19 33 34
f 20 36 37
f 20 37 38
f 20 38 39
f 20 39 31
f 21 35 40
f 21 40 26
f 22 26 40
f 22 40 23
f 23 41 24
f 23 40 41
f 24 41 29
f 24 29 25
f 25 29 27
f 27 29 28
f 29 41 30
f 30 41 42
f 32 43 33
f 33 44 34
f 33 43 44
f 34 44 45
f 34 45 46
f 34 46 35
f 35 46 47
f 35 47 40
f 36 48 37
f 37 48 49
f 37 49 50
f 37 50 60
f 37 60 59
f 37 59 62
f 37 62 52
f 37 52 41
f 37 41 54
f 37 54 58
f 37 58 57
f 37 57 56
f 37 56 64
f 37 64 63
f 37 63 51
f 40 47 41
f 41 52 53
f 41 53 42
f 41 47 54
f 43 51 44
f 44 55 45
f 44 51 55
f 45 55 46
f 46 55 56
f 46 56 57
f 46 57 47
f 47 57 58
f 47 58 54
f 49 59 60
f 49 60 50
f 49 61 62
f 49 62 59
f 51 63 55
f 52 62 53
f 53 62 61
f 55 64 56
f 55 63 64

