# https://github.com/mikedh/trimesh
v 0.55640425 0.09454316 0.91447149
v 0.55721594 0.09454316 0.92890124
v 0.55644824 0.09454316 0.91194253
v 0.55850195 -0.40457769 0.91447556
v 0.55892247 -0.40457769 0.92376199
v 0.56698573 0.09454316 0.93318666
v 0.55687852 0.09454316 0.90373355
v 0.55869754 -0.40457769 0.90476628
v 0.56078060 -0.40472430 0.90373355
v 0.56811526 -0.40457769 0.92735621
v 0.56811526 0.09454316 0.93362984
v 0.60370790 0.09454316 0.90373355
v 0.58610473 0.08594182 0.89433734
v 0.58018809 0.08594182 0.89510579
v 0.56811038 0.08594182 0.89800882
v 0.55812054 0.08594182 0.90298137
v 0.56811526 -0.36865740 0.89909440
v 0.56809080 -0.40472430 0.90013526
v 0.60119945 -0.40472430 0.90373355
v 0.58609984 -0.40457769 0.93082846
v 0.58609984 0.09454316 0.93587419
v 0.60077893 0.08594182 0.89929770
v 0.59538554 0.08594182 0.89740300
v 0.60469565 0.09454316 0.90774249
v 0.60451471 -0.40457769 0.91447556
v 0.60013348 -0.40472430 0.90039955
v 0.58609984 -0.36865740 0.89481712
v 0.58606074 -0.40472430 0.89578479
v 0.59949780 -0.40457769 0.92712039
v 0.59944405 -0.40457769 0.92723424
v 0.60147330 0.09454316 0.93105615
v 0.60635326 0.09454316 0.91447149
f 1 2 6
f 1 6 11
f 1 11 21
f 1 21 31
f 1 31 32
f 1 32 24
f 1 24 12
f 1 12 7
f 1 7 3
f 1 3 4
f 1 4 5
f 1 5 2
f 2 5 6
f 3 7 8
f 3 8 4
f 4 8 9
f 4 9 5
f 5 9 10
f 5 10 11
f 5 11 6
f 7 12 13
f 7 13 14
f 7 14 15
f 7 15 16
f 7 16 8
f 8 17 9
f 8 16 17
f 9 18 28
f 9 28 26
f 9 26 19
f 9 19 20
f 9 20 10
f 9 17 18
f 10 20 11
f 11 20 21
f 12 22 23
f 12 23 13
f 12 24 25
f 12 25 19
f 12 19 26
f 12 26 22
f 13 23 27
f 13 27 14
f 14 27 17
f 14 17 15
f 15 17 16
f 17 28 18
f 17 27 28
f 19 25 29
f 19 29 30
f 19 30 20
f 20 30 21
f 21 30 31
f 22 27 23
f 22 26 27
f 24 32 25
f 25 32 31
f 25 31 29
f 26 28 27
f 29 31 30

