# https://github.com/mikedh/trimesh
v -0.56572611 0.06293103 1.63447320
v -0.56199569 0.06293103 1.64771698
v -0.56468466 0.06293103 1.62386936
v -0.56508173 -0.38293885 1.63447320
v -0.56442690 -0.38293885 1.63728641
v -0.56199569 -0.38293885 1.64771425
v -0.54789618 0.06293103 1.65196292
v -0.54611632 0.06293103 1.62386936
v -0.56014969 -0.38293885 1.62386936
v -0.54789618 -0.38293885 1.65196019
v -0.53014634 0.06293103 1.65196019
v -0.53014634 -0.38293885 1.65196019
v -0.53014634 0.06293103 1.62940780
v -0.53014634 -0.38293885 1.62944626
v -0.55034477 -0.38293885 1.62386936
f 1 2 7
f 1 7 11
f 1 11 13
f 1 13 8
f 1 8 3
f 1 3 4
f 1 4 5
f 1 5 6
f 1 6 2
f 2 6 10
f 2 10 7
f 3 8 15
f 3 15 9
f 3 9 4
f 4 9 15
f 4 15 14
f 4 14 12
f 4 12 10
f 4 10 6
f 4 6 5
f 7 10 12
f 7 12 11
f 8 13 14
f 8 14 15
f 11 12 14
f 11 14 13

