# https://github.com/mikedh/trimesh
v -0.54789993 0.08112079 0.15820607
v -0.53003417 0.08112079 0.15795131
v -0.56200229 0.08112079 0.15394811
v -0.56200229 -0.17603109 0.15370548
v -0.55202013 -0.17603109 0.15671395
v -0.54789993 -0.17603109 0.15795131
v -0.53003417 -0.17603109 0.15795131
v -0.53003417 0.08112079 0.13546056
v -0.59764987 0.08112079 0.06468870
v -0.59762192 -0.17603109 0.06461591
v -0.53003417 -0.17603109 0.13546056
v -0.55615432 0.08112079 0.04036616
v -0.60148328 0.08112079 0.05047123
v -0.60146225 -0.17603109 0.05047123
v -0.59874812 -0.17603109 0.06047924
v -0.55616130 -0.17603109 0.04057243
v -0.56589165 0.08112079 0.03688460
v -0.59672649 0.08112079 0.03777016
v -0.60007721 -0.17603109 0.04688050
v -0.56589165 -0.17603109 0.03777016
v -0.58377137 0.08112079 0.03430072
v -0.58389030 0.08112079 0.03428860
v -0.59672649 -0.17603109 0.03819475
v -0.58389030 -0.17603109 0.03539249
v -0.59297011 -0.17603109 0.03736981
f 1 2 8
f 1 8 12
f 1 12 17
f 1 17 21
f 1 21 22
f 1 22 18
f 1 18 13
f 1 13 9
f 1 9 3
f 1 3 4
f 1 4 5
f 1 5 6
f 1 6 7
f 1 7 2
f 2 7 11
f 2 11 8
f 3 9 10
f 3 10 4
f 4 10 15
f 4 15 14
f 4 14 19
f 4 19 23
f 4 23 25
f 4 25 24
f 4 24 20
f 4 20 16
f 4 16 11
f 4 11 7
f 4 7 6
f 4 6 5
f 8 11 12
f 9 13 14
f 9 14 15
f 9 15 10
f 11 16 12
f 12 16 17
f 13 18 14
f 14 18 19
f 16 20 17
f 17 20 21
f 18 22 23
f 18 23 19
f 20 24 21
f 21 24 22
f 22 24 25
f 22 25 23

