# https://github.com/mikedh/trimesh
v 0.60930347 0.11723995 0.91452171
v 0.60698916 0.09923992 0.91452171
v 0.60807470 0.10998010 0.90373347
v 0.60900194 0.11723995 0.90373347
v 0.60568501 0.12796927 0.90373347
v 0.60325761 0.13522910 0.90373347
v 0.60326518 0.13522910 0.91452171
v 0.60326518 0.13522910 1.00455947
v 0.60323503 0.13522910 1.59689535
v 0.60871548 0.11881699 1.59689535
v 0.60921303 0.11723995 1.59689535
v 0.60714746 0.10081695 1.59689535
v 0.60634838 0.09456316 0.91452171
v 0.60370994 0.09456316 0.90373347
v 0.59908887 0.14086839 0.90373347
v 0.59626193 0.14468048 1.59689535
v 0.60528547 0.09307856 1.59689535
v 0.60185546 0.09307856 1.57979701
v 0.55687353 0.09456316 0.90373347
v 0.58610011 0.09307856 1.57382615
v 0.59626193 0.14467506 0.90373347
v 0.59626193 0.14468048 1.05850072
v 0.58698964 0.14669259 1.59689535
v 0.55618753 0.09307856 1.59689535
v 0.55265951 0.11723995 0.90373347
v 0.56811333 0.09307856 1.57633664
v 0.56149460 0.09307856 1.57932205
v 0.55703183 0.09307856 1.58162896
v 0.53229060 0.09456316 1.12981171
v 0.58610011 0.14688292 1.09452939
v 0.59216105 0.14486539 0.90373347
v 0.56811333 0.14863398 1.13049020
v 0.58610011 0.14682311 1.59689535
v 0.58610011 0.14688292 1.13049020
v 0.54925214 0.11546712 1.59689535
v 0.53229060 0.09456316 1.15288091
v 0.55614982 0.09307856 1.59302787
v 0.55569749 0.13522910 0.90373347
v 0.53229060 0.12160672 1.11508813
v 0.53229060 0.13522910 1.11040644
v 0.53229060 0.14643156 1.11685224
v 0.58610011 0.14512643 0.90373347
v 0.56811333 0.14811191 1.09452939
v 0.53229060 0.14863398 1.13049020
v 0.56811333 0.14804124 1.59689535
v 0.56968891 0.14800859 1.59689535
v 0.54867922 0.11815354 1.59689535
v 0.53229060 0.11723995 1.15362729
v 0.54757860 0.13487019 1.59689535
v 0.55903705 0.14428896 0.90373347
v 0.53229060 0.14861222 1.13035451
v 0.57883304 0.14497416 0.90373347
v 0.56811333 0.14474032 0.90373347
v 0.56444964 0.14456086 0.90373347
v 0.53229060 0.14642612 1.14412819
v 0.54762382 0.13522910 1.59689535
v 0.55223733 0.14573547 1.59689535
v 0.55382042 0.14598564 1.59689535
v 0.53229060 0.11746834 1.15362729
v 0.53229060 0.13522910 1.15138821
f 1 2 3
f 1 3 4
f 1 4 5
f 1 5 6
f 1 6 7
f 1 7 8
f 1 8 9
f 1 9 10
f 1 10 11
f 1 11 12
f 1 12 2
f 2 13 3
f 2 12 13
f 3 13 14
f 3 14 19
f 3 19 25
f 3 25 38
f 3 38 50
f 3 50 54
f 3 54 53
f 3 53 52
f 3 52 42
f 3 42 31
f 3 31 21
f 3 21 15
f 3 15 6
f 3 6 5
f 3 5 4
f 6 15 7
f 7 15 8
f 8 15 16
f 8 16 9
f 9 16 23
f 9 23 33
f 9 33 46
f 9 46 45
f 9 45 58
f 9 58 57
f 9 57 56
f 9 56 49
f 9 49 47
f 9 47 35
f 9 35 24
f 9 24 17
f 9 17 12
f 9 12 11
f 9 11 10
f 12 17 13
f 13 17 18
f 13 18 14
f 14 18 20
f 14 20 19
f 15 21 22
f 15 22 16
f 16 22 23
f 17 24 37
f 17 37 28
f 17 28 27
f 17 27 26
f 17 26 20
f 17 20 18
f 19 20 26
f 19 26 27
f 19 27 28
f 19 28 29
f 19 29 25
f 21 30 22
f 21 31 32
f 21 32 30
f 22 30 23
f 23 30 34
f 23 34 33
f 24 35 36
f 24 36 37
f 25 29 39
f 25 39 40
f 25 40 41
f 25 41 38
f 28 37 29
f 29 36 48
f 29 48 59
f 29 59 60
f 29 60 55
f 29 55 44
f 29 44 51
f 29 51 41
f 29 41 40
f 29 40 39
f 29 37 36
f 30 32 34
f 31 42 32
f 32 42 43
f 32 43 44
f 32 44 45
f 32 45 46
f 32 46 33
f 32 33 34
f 35 47 36
f 36 47 49
f 36 49 48
f 38 41 50
f 41 51 50
f 42 52 44
f 42 44 43
f 44 52 53
f 44 53 54
f 44 54 50
f 44 50 51
f 44 55 56
f 44 56 57
f 44 57 58
f 44 58 45
f 48 49 59
f 49 56 55
f 49 55 60
f 49 60 59

