# https://github.com/mikedh/trimesh
v 0.00014994 -0.31036281 1.62903830
v 0.00014994 -0.30817544 1.61402038
v 0.54483369 -0.30787164 1.61150151
v 0.54483369 -0.31036281 1.62903830
v 0.54483369 -0.30866152 1.64006692
v 0.00014994 -0.30811468 1.64077493
v 0.00014994 -0.30264627 1.61062102
v 0.11704310 -0.29699559 1.60641837
v 0.54483369 -0.29699559 1.60463020
v 0.54483369 -0.30811468 1.64275826
v 0.54483369 -0.30082347 1.64865831
v 0.00014994 -0.30252476 1.64302601
v 0.00014994 -0.29699559 1.60714908
v 0.11704310 0.29699559 1.60641837
v 0.54483369 0.29699559 1.60463020
v 0.54483369 -0.29796773 1.64980204
v 0.00014994 -0.29699559 1.64523175
v 0.00014994 0.29699559 1.60714908
v 0.00014994 0.30817544 1.61402038
v 0.54483369 0.30787164 1.61150151
v 0.54483369 -0.27894981 1.65099565
v 0.00014994 -0.27894981 1.64696091
v 0.00014994 -0.28788155 1.64610768
v 0.00014994 0.30926913 1.62144992
v 0.54483369 0.30854001 1.61596289
v 0.54483369 0.27894981 1.65099565
v 0.00014994 0.27894981 1.64696091
v 0.00014994 0.31036281 1.62903830
v 0.54483369 0.31036281 1.62903830
v 0.54483369 0.29347148 1.65025132
v 0.00014994 0.29699559 1.64523175
v 0.00014994 0.30926913 1.63484307
v 0.54483369 0.30811468 1.64275826
v 0.54483369 0.29796773 1.64980204
v 0.00014994 0.30264627 1.64298062
v 0.00014994 0.30811468 1.64077493
f 1 2 3
f 1 3 4
f 1 4 5
f 1 5 6
f 1 6 12
f 1 12 17
f 1 17 23
f 1 23 22
f 1 22 27
f 1 27 31
f 1 31 35
f 1 35 36
f 1 36 32
f 1 32 28
f 1 28 24
f 1 24 19
f 1 19 18
f 1 18 13
f 1 13 7
f 1 7 2
f 2 7 8
f 2 8 3
f 3 8 9
f 3 9 15
f 3 15 20
f 3 20 25
f 3 25 29
f 3 29 33
f 3 33 34
f 3 34 30
f 3 30 26
f 3 26 21
f 3 21 16
f 3 16 11
f 3 11 10
f 3 10 5
f 3 5 4
f 5 10 6
f 6 10 11
f 6 11 12
f 7 13 8
f 8 13 18
f 8 18 14
f 8 14 15
f 8 15 9
f 11 16 12
f 12 16 17
f 14 18 19
f 14 19 20
f 14 20 15
f 16 21 22
f 16 22 23
f 16 23 17
f 19 24 25
f 19 25 20
f 21 26 27
f 21 27 22
f 24 28 25
f 25 28 29
f 26 30 27
f 27 30 31
f 28 32 33
f 28 33 29
f 30 34 31
f 31 34 35
f 32 36 33
f 33 36 34
f 34 36 35

