# https://github.com/mikedh/trimesh
v -0.58501037 -0.09336794 0.60431055
v -0.57643416 -0.09107406 0.60431055
v -0.59912511 -0.08522301 0.60431055
v -0.59726678 -0.07584803 0.58993198
v -0.59406848 0.03595357 0.46795971
v -0.58501037 0.04446419 0.45891174
v -0.57592667 0.03595357 0.46795971
v -0.57153455 -0.07584803 0.58993198
v -0.56887662 -0.08522301 0.60431055
v -0.60003054 -0.08133339 0.60431055
v -0.60002690 -0.08146636 0.60255709
v -0.59936609 0.18907822 0.31523130
v -0.59911052 0.17125911 0.33343250
v -0.59709152 0.23050098 0.26637928
v -0.59692720 0.21281486 0.28468562
v -0.59674465 0.19512872 0.30302710
v -0.59654385 0.17744260 0.32136852
v -0.59632117 0.15975647 0.33967486
v -0.59607290 0.14207034 0.35798125
v -0.59580638 0.12438421 0.37632268
v -0.59518935 0.08901195 0.41297050
v -0.59484613 0.07135907 0.43127684
v -0.58501402 0.24625894 0.24607394
v -0.57472914 0.07135907 0.43127684
v -0.57530235 0.05367294 0.44961826
v -0.56746001 -0.08385997 0.60431055
v -0.57421071 0.08901195 0.41297050
v -0.57374340 0.10669808 0.39466410
v -0.57332352 0.12438421 0.37632268
v -0.57295111 0.14207034 0.35798125
v -0.57262253 0.15975647 0.33967486
v -0.57233773 0.17744260 0.32136852
v -0.57208946 0.19512872 0.30302710
v -0.60019486 -0.06181880 0.60431055
v -0.60023139 -0.06175232 0.60413521
v -0.60159683 0.04502935 0.47700768
v -0.60144352 0.24625894 0.26069800
v -0.59959977 0.20689733 0.29703016
v -0.59819045 0.24625894 0.25238647
v -0.59503963 0.24625894 0.24940560
v -0.57028954 0.24625894 0.25238647
v -0.57170611 0.23050098 0.26637928
v -0.57188137 0.21281486 0.28468562
v -0.56641950 -0.08139988 0.60431055
v -0.56911390 0.15343999 0.35159856
v -0.56877073 0.17125911 0.33343250
v -0.56847498 0.18907822 0.31523130
v -0.56764256 0.24625894 0.25680526
v -0.58501037 -0.04951830 0.60431055
v -0.59746757 -0.04931883 0.59890983
v -0.60019486 -0.02611411 0.56780304
v -0.60192906 0.15297457 0.36902817
v -0.60196924 0.13498923 0.38701891
v -0.60196924 0.11700391 0.40500965
v -0.60192906 0.09898534 0.42300040
v -0.60185605 0.08100001 0.44099114
v -0.60174286 0.06301467 0.45901694
v -0.60185240 0.17099314 0.35103748
v -0.60174286 0.18897847 0.33304673
v -0.60158954 0.20699705 0.31505599
v -0.60035548 0.24625894 0.28058248
v -0.60000136 0.24250227 0.26062788
v -0.56753666 -0.06161933 0.60431055
v -0.56640850 0.24625894 0.26069800
v -0.56477290 0.09898534 0.42300040
v -0.58501402 0.24625894 0.29282183
v -0.59406119 0.21603958 0.32406888
v -0.59550699 0.14529506 0.39736446
v -0.59606925 0.10992281 0.43401228
v -0.59674465 0.05686442 0.48900152
v -0.59692720 0.03917830 0.50734294
v -0.59747852 -0.03156622 0.58063853
v -0.57752944 -0.05201165 0.60431055
v -0.57209311 0.05686442 0.48900152
v -0.57234138 0.07455055 0.47066007
v -0.57295476 0.10992281 0.43401228
v -0.57375070 0.14529506 0.39736446
v -0.57421801 0.16294794 0.37905812
v -0.57530964 0.19832020 0.34241030
v -0.57593762 0.21603958 0.32406888
v -0.60011091 -0.00832824 0.54960187
v -0.59882572 0.09851991 0.44039497
v -0.59851538 0.11633903 0.42222886
v -0.59654020 0.07455055 0.47066007
v -0.59735073 0.23951027 0.29366347
v -0.59043941 0.24625894 0.29029679
v -0.59998677 0.00949087 0.53140073
v -0.59980057 0.02727673 0.51319957
v -0.59959607 0.04509584 0.49499842
v -0.59936609 0.06291494 0.47679726
v -0.59910687 0.08070080 0.45859612
v -0.56775575 -0.00832824 0.54960187
v -0.56787259 0.00949087 0.53140073
v -0.57136294 -0.04931883 0.59919040
v -0.56467065 0.11700391 0.40500965
v -0.56467065 0.13498923 0.38701891
v -0.56477655 0.15297457 0.36902817
v -0.56711319 0.24625894 0.27886411
v -0.56560532 0.20699705 0.31505599
v -0.56525115 0.18897847 0.33304673
v -0.56497734 0.17099314 0.35103748
v -0.57144324 0.23980948 0.29366347
v -0.56765350 0.24625894 0.28075785
v -0.59446642 0.19832020 0.34241030
v -0.59518570 0.16294794 0.37905812
v -0.59708787 0.02149217 0.52564931
v -0.59736532 -0.01388009 0.56229710
v -0.57188501 0.03917830 0.50734294
v -0.56951919 0.11633903 0.42222886
v -0.56999379 0.13415813 0.40402772
v -0.57333082 0.12757570 0.41570588
v -0.57473644 0.18063409 0.36071670
v -0.59483883 0.18063409 0.36071670
v -0.56803321 0.02727673 0.51319957
v -0.57135564 -0.03156622 0.58063853
v -0.57145054 -0.01388009 0.56229710
v -0.57170975 0.02149217 0.52564931
v -0.56823400 0.04509584 0.49499842
v -0.56912119 0.09851991 0.44039497
v -0.56885833 0.08495611 0.45428253
v -0.56848228 0.06291494 0.47679726
v -0.57156373 0.00377279 0.54399073
f 1 2 9
f 1 9 26
f 1 26 44
f 1 44 63
f 1 63 73
f 1 73 49
f 1 49 34
f 1 34 10
f 1 10 3
f 1 3 4
f 1 4 5
f 1 5 6
f 1 6 7
f 1 7 2
f 2 8 9
f 2 7 8
f 3 10 11
f 3 11 12
f 3 12 4
f 4 12 13
f 4 13 14
f 4 14 15
f 4 15 16
f 4 16 17
f 4 17 18
f 4 18 19
f 4 19 20
f 4 20 21
f 4 21 22
f 4 22 5
f 5 22 21
f 5 21 23
f 5 23 6
f 6 23 7
f 7 23 24
f 7 24 25
f 7 25 8
f 8 26 9
f 8 25 24
f 8 24 27
f 8 27 28
f 8 28 29
f 8 29 30
f 8 30 31
f 8 31 32
f 8 32 33
f 8 33 26
f 10 34 35
f 10 35 36
f 10 36 11
f 11 36 37
f 11 37 38
f 11 38 12
f 12 38 14
f 12 14 13
f 14 38 39
f 14 39 40
f 14 40 23
f 14 23 15
f 15 23 19
f 15 19 18
f 15 18 16
f 16 18 17
f 19 23 21
f 19 21 20
f 23 40 39
f 23 39 37
f 23 37 61
f 23 61 86
f 23 86 66
f 23 66 103
f 23 103 98
f 23 98 64
f 23 64 48
f 23 48 41
f 23 41 42
f 23 42 43
f 23 43 31
f 23 31 30
f 23 30 29
f 23 29 27
f 23 27 24
f 26 33 43
f 26 43 45
f 26 45 46
f 26 46 47
f 26 47 48
f 26 48 44
f 27 29 28
f 31 43 33
f 31 33 32
f 34 49 50
f 34 50 51
f 34 51 35
f 35 51 52
f 35 52 53
f 35 53 54
f 35 54 55
f 35 55 56
f 35 56 57
f 35 57 36
f 36 57 37
f 37 56 55
f 37 55 54
f 37 54 53
f 37 53 52
f 37 52 58
f 37 58 59
f 37 59 60
f 37 60 61
f 37 39 62
f 37 62 38
f 37 57 56
f 38 62 39
f 41 48 42
f 42 48 47
f 42 47 46
f 42 46 45
f 42 45 43
f 44 48 64
f 44 64 65
f 44 65 63
f 49 66 67
f 49 67 68
f 49 68 69
f 49 69 70
f 49 70 71
f 49 71 72
f 49 72 50
f 49 73 74
f 49 74 75
f 49 75 76
f 49 76 77
f 49 77 78
f 49 78 79
f 49 79 80
f 49 80 66
f 50 72 51
f 51 72 81
f 51 81 60
f 51 60 59
f 51 59 58
f 51 58 52
f 60 81 61
f 61 82 83
f 61 83 70
f 61 70 84
f 61 84 69
f 61 69 85
f 61 85 86
f 61 81 87
f 61 87 88
f 61 88 89
f 61 89 90
f 61 90 91
f 61 91 82
f 63 92 93
f 63 93 94
f 63 94 73
f 63 65 95
f 63 95 96
f 63 96 97
f 63 97 92
f 64 98 99
f 64 99 100
f 64 100 101
f 64 101 97
f 64 97 96
f 64 96 95
f 64 95 65
f 66 80 102
f 66 102 103
f 66 86 67
f 67 104 68
f 67 86 85
f 67 85 104
f 68 104 105
f 68 105 85
f 68 85 69
f 69 84 70
f 70 83 71
f 71 106 107
f 71 107 72
f 71 83 82
f 71 82 91
f 71 91 90
f 71 90 106
f 72 107 90
f 72 90 89
f 72 89 88
f 72 88 87
f 72 87 81
f 73 94 108
f 73 108 74
f 74 108 109
f 74 109 75
f 75 109 110
f 75 110 76
f 76 110 102
f 76 102 111
f 76 111 77
f 77 111 102
f 77 102 78
f 78 112 79
f 78 102 112
f 79 112 102
f 79 102 80
f 85 105 113
f 85 113 104
f 90 107 106
f 92 97 101
f 92 101 93
f 93 114 94
f 93 101 100
f 93 100 114
f 94 115 116
f 94 116 117
f 94 117 108
f 94 114 118
f 94 118 115
f 98 103 100
f 98 100 99
f 100 103 114
f 102 110 103
f 103 110 109
f 103 109 119
f 103 119 120
f 103 120 121
f 103 121 118
f 103 118 114
f 104 113 105
f 108 117 120
f 108 120 119
f 108 119 109
f 115 118 121
f 115 121 116
f 116 122 117
f 116 121 122
f 117 122 121
f 117 121 120

