# https://github.com/mikedh/trimesh
v 0.58610446 -0.30236405 0.69324156
v 0.57096097 -0.30236405 0.69009925
v 0.59778440 -0.30236405 0.69014103
v 0.56136478 0.00029478 0.65471487
v 0.55577570 0.00029478 0.65533331
v 0.55010996 0.00029478 0.65596012
v 0.53226946 0.00029478 0.65596012
v 0.56788770 -0.30236405 0.68933875
v 0.59975658 -0.30236405 0.68529387
v 0.56705139 0.00029478 0.64447731
v 0.56422900 0.00029478 0.64956686
v 0.53226946 0.00029478 0.63163229
v 0.53226946 -0.29673511 0.65623590
v 0.56128115 -0.30236405 0.68676474
v 0.60345706 -0.30236405 0.66806967
v 0.56591547 0.00029478 0.63744890
v 0.60343619 -0.29673511 0.66247037
v 0.60315741 -0.27875214 0.64447731
v 0.60270443 -0.26073957 0.62647591
v 0.60108765 -0.23946813 0.60786443
v 0.55010996 0.00029478 0.62839806
v 0.55783848 -0.24317137 0.60786443
v 0.53226946 -0.26073957 0.63139830
v 0.53226946 -0.30236405 0.65623590
v 0.60034200 -0.30236405 0.64989277
v 0.60050229 -0.29709062 0.64434360
v 0.60087860 -0.27952242 0.62584076
v 0.60108765 -0.26242825 0.60786443
v 0.56479345 0.00029478 0.63052078
v 0.60113641 -0.26186535 0.60786443
v 0.60109463 -0.24166045 0.60786443
v 0.60004229 -0.23659441 0.60786443
v 0.55740643 0.00029478 0.62945107
v 0.59519194 -0.23058033 0.60786443
v 0.58610446 -0.22723260 0.60786443
v 0.58533788 -0.22741036 0.60786443
v 0.56810372 -0.23191351 0.60786443
v 0.55788724 -0.25893238 0.60786443
v 0.53226946 -0.30236405 0.63163229
v 0.59922695 -0.30236405 0.64705132
v 0.59811190 -0.29131356 0.63141501
v 0.59841156 -0.27404162 0.61257791
v 0.60082281 -0.26313927 0.60786443
v 0.56810372 -0.26941997 0.60786443
v 0.55010996 -0.30236405 0.62817243
v 0.56753923 -0.30236405 0.62930899
v 0.59334519 -0.27164192 0.60786443
v 0.58610446 -0.27418975 0.60786443
f 1 2 8
f 1 8 14
f 1 14 24
f 1 24 39
f 1 39 45
f 1 45 46
f 1 46 40
f 1 40 25
f 1 25 15
f 1 15 9
f 1 9 3
f 1 3 4
f 1 4 5
f 1 5 6
f 1 6 7
f 1 7 2
f 2 7 8
f 3 9 10
f 3 10 11
f 3 11 4
f 4 11 10
f 4 10 16
f 4 16 29
f 4 29 33
f 4 33 21
f 4 21 12
f 4 12 7
f 4 7 6
f 4 6 5
f 7 12 23
f 7 23 39
f 7 39 24
f 7 24 13
f 7 13 14
f 7 14 8
f 9 15 10
f 10 15 17
f 10 17 18
f 10 18 19
f 10 19 20
f 10 20 16
f 12 21 22
f 12 22 23
f 13 24 14
f 15 25 26
f 15 26 27
f 15 27 28
f 15 28 17
f 16 20 29
f 17 28 30
f 17 30 18
f 18 30 19
f 19 30 31
f 19 31 20
f 20 31 30
f 20 30 28
f 20 28 43
f 20 43 47
f 20 47 48
f 20 48 44
f 20 44 38
f 20 38 22
f 20 22 37
f 20 37 36
f 20 36 35
f 20 35 34
f 20 34 32
f 20 32 29
f 21 33 34
f 21 34 35
f 21 35 36
f 21 36 37
f 21 37 22
f 22 38 23
f 23 38 39
f 25 40 41
f 25 41 42
f 25 42 26
f 26 42 27
f 27 42 28
f 28 42 43
f 29 32 34
f 29 34 33
f 38 44 39
f 39 44 45
f 40 46 41
f 41 46 42
f 42 47 43
f 42 46 47
f 44 48 45
f 45 48 46
f 46 48 47

