# https://github.com/mikedh/trimesh
v -0.59886636 -0.38293885 1.77846781
v -0.59788917 -0.38293885 1.76563081
v -0.59785972 -0.38293885 1.78055762
v -0.59420800 0.06293103 1.78814463
v -0.59886636 0.06293103 1.77846781
v -0.59762385 -0.38293885 1.76216588
v -0.59762385 0.06293103 1.76216588
v -0.59412797 -0.38293885 1.78830379
v -0.59412797 0.06293103 1.78831060
v -0.58681187 -0.38293885 1.75616401
v -0.59739221 0.06293103 1.76203713
v -0.59195463 -0.38293885 1.78847996
v -0.58388879 0.06293103 1.78914380
v -0.58388879 -0.38293885 1.75454159
v -0.58388879 0.06293103 1.75454159
v -0.58388879 -0.38293885 1.78913023
v -0.57009060 0.06293103 1.78830041
v -0.58095730 -0.38293885 1.78895750
v -0.57009060 -0.38293885 1.78829703
v -0.56971997 -0.38293885 1.75802685
v -0.56589552 0.06293103 1.75896847
v -0.56108975 0.06293103 1.78381597
v -0.56817416 -0.38293885 1.78734528
v -0.56108975 -0.38293885 1.78381597
v -0.56589552 -0.38293885 1.75896847
v -0.55583750 0.06293103 1.76658938
v -0.55583750 0.06293103 1.77481652
v -0.55583750 -0.38293885 1.77481652
v -0.55583750 -0.38293885 1.76658938
f 1 2 6
f 1 6 10
f 1 10 14
f 1 14 20
f 1 20 25
f 1 25 29
f 1 29 28
f 1 28 24
f 1 24 23
f 1 23 19
f 1 19 18
f 1 18 16
f 1 16 12
f 1 12 8
f 1 8 3
f 1 3 4
f 1 4 5
f 1 5 2
f 2 5 7
f 2 7 6
f 3 8 4
f 4 9 13
f 4 13 17
f 4 17 22
f 4 22 27
f 4 27 26
f 4 26 21
f 4 21 15
f 4 15 11
f 4 11 7
f 4 7 5
f 4 8 9
f 6 7 11
f 6 11 10
f 8 12 13
f 8 13 9
f 10 11 15
f 10 15 14
f 12 16 13
f 13 16 18
f 13 18 19
f 13 19 17
f 14 15 20
f 15 21 20
f 17 19 23
f 17 23 24
f 17 24 22
f 20 21 25
f 21 26 29
f 21 29 25
f 22 24 28
f 22 28 27
f 26 27 28
f 26 28 29

