# https://github.com/mikedh/trimesh
v 0.58501370 0.31039824 0.17043657
v 0.58501370 0.31039824 0.00901514
v 0.53086412 0.31024213 0.13508247
v 0.53086412 0.30805664 0.14649927
v 0.56824436 0.30821275 0.17043657
v 0.60074821 0.30816071 0.17043657
v 0.53086412 0.31024213 0.13499626
v 0.60074821 0.30816071 0.00901514
v 0.59849821 0.30743220 -0.00197051
v 0.58501370 0.30816071 -0.00295351
v 0.57093340 0.30743220 -0.00197051
v 0.56840116 0.30816071 0.00901514
v 0.56779749 0.30800460 0.17043657
v 0.53086412 0.29697298 0.15065551
v 0.55929912 0.30306119 0.17043657
v 0.60944255 0.29733723 0.17043657
v 0.53086412 0.30821275 0.11937150
v 0.60972478 0.29697298 0.02700256
v 0.60968562 0.29697298 0.00901514
v 0.60183014 0.29697298 -0.00295351
v 0.58501370 0.29697298 -0.00571283
v 0.56576700 0.29692094 -0.00245343
v 0.55777038 0.29088479 -0.00038389
v 0.55940104 0.30129196 0.00901514
v 0.55621809 0.29411101 0.17043657
v 0.53086412 0.27896858 0.15225941
v 0.60972478 0.29697298 0.17043657
v 0.53086412 0.30816071 0.11925080
v 0.61094780 0.27896858 0.04500725
v 0.60900352 0.27896858 0.00901514
v 0.60149303 0.27896858 -0.00276382
v 0.60189285 -0.22120039 0.04500725
v 0.58501370 0.27896858 -0.00536799
v 0.56606490 0.27938484 -0.00229818
v 0.55777038 0.28562916 -0.00038389
v 0.53086412 0.29697298 0.11167985
v 0.53086412 0.29707705 0.11173157
v 0.55613183 0.29333047 0.17043657
v 0.53086412 0.27881247 0.15225941
v 0.60906628 0.27954095 0.17043657
v 0.59715761 -0.22120039 0.03388368
v 0.58501370 -0.22120039 0.03174520
v 0.57816954 -0.22120039 0.14656826
v 0.60904273 0.27896858 0.17043657
v 0.58212081 -0.22120039 0.03219357
v 0.57134110 -0.22120039 0.03388368
v 0.56995345 -0.22120039 0.03622911
v 0.56476351 -0.22120039 0.04500725
v 0.53089550 -0.22120039 0.13387528
v 0.53086412 -0.20699461 0.13387528
v 0.55669634 0.27948892 0.17043657
v 0.53086412 -0.22120039 0.15212143
v 0.56702135 -0.22120039 0.15063829
v 0.60006617 0.26809307 0.17043657
v 0.54902116 -0.22120039 0.15212143
v 0.53086412 -0.22120039 0.13763487
v 0.55675122 0.27928077 0.17043657
v 0.58433165 0.26538721 0.17043657
v 0.56651177 0.26783289 0.17043657
v 0.56614327 0.26788492 0.17043657
v 0.55877387 0.27204779 0.17043657
v 0.59960363 0.26788492 0.17043657
v 0.58499020 0.26543925 0.17043657
f 1 2 7
f 1 7 3
f 1 3 4
f 1 4 5
f 1 5 13
f 1 13 15
f 1 15 25
f 1 25 38
f 1 38 51
f 1 51 57
f 1 57 61
f 1 61 60
f 1 60 59
f 1 59 58
f 1 58 63
f 1 63 62
f 1 62 54
f 1 54 44
f 1 44 40
f 1 40 27
f 1 27 16
f 1 16 6
f 1 6 8
f 1 8 2
f 2 8 9
f 2 9 10
f 2 10 11
f 2 11 12
f 2 12 7
f 3 7 17
f 3 17 28
f 3 28 37
f 3 37 36
f 3 36 50
f 3 50 56
f 3 56 52
f 3 52 39
f 3 39 26
f 3 26 14
f 3 14 4
f 4 13 5
f 4 14 15
f 4 15 13
f 6 16 8
f 7 12 17
f 8 16 18
f 8 18 19
f 8 19 9
f 9 19 20
f 9 20 21
f 9 21 10
f 10 21 11
f 11 17 12
f 11 21 22
f 11 22 23
f 11 23 24
f 11 24 17
f 14 25 15
f 14 26 25
f 16 27 18
f 17 24 28
f 18 27 29
f 18 29 19
f 19 30 31
f 19 31 20
f 19 29 32
f 19 32 30
f 20 31 21
f 21 31 33
f 21 33 34
f 21 34 22
f 22 34 35
f 22 35 23
f 23 35 36
f 23 36 37
f 23 37 28
f 23 28 24
f 25 26 38
f 26 39 38
f 27 40 32
f 27 32 29
f 30 32 41
f 30 41 31
f 31 41 42
f 31 42 33
f 32 43 53
f 32 53 55
f 32 55 52
f 32 52 56
f 32 56 49
f 32 49 48
f 32 48 47
f 32 47 46
f 32 46 45
f 32 45 42
f 32 42 41
f 32 40 44
f 32 44 43
f 33 42 45
f 33 45 46
f 33 46 34
f 34 46 35
f 35 46 47
f 35 47 48
f 35 48 49
f 35 49 36
f 36 49 50
f 38 39 52
f 38 52 51
f 43 44 53
f 44 54 55
f 44 55 53
f 49 56 50
f 51 52 57
f 52 55 58
f 52 58 59
f 52 59 60
f 52 60 61
f 52 61 57
f 54 62 55
f 55 62 63
f 55 63 58

