# https://github.com/mikedh/trimesh
v 0.53229049 -0.47212620 1.63446912
v 0.56811193 -0.47212620 1.63446912
v 0.58610081 -0.46981272 1.67350578
v 0.56811193 -0.46939365 1.67350578
v 0.55993586 -0.46853811 1.67350578
v 0.53229049 -0.47210000 1.63462673
v 0.53229049 -0.47053732 1.61647268
v 0.56811193 -0.47017938 1.57288518
v 0.56811193 -0.47065080 1.58047974
v 0.56811193 -0.47170716 1.59847624
v 0.56811193 -0.47196905 1.61647268
v 0.58610081 -0.47097382 1.63446912
v 0.58610081 -0.47099128 1.59847624
v 0.58610081 -0.47099128 1.61647268
v 0.59756516 -0.46878254 1.67350578
v 0.55829172 -0.46836349 1.67350578
v 0.53229049 -0.46991746 1.64625008
v 0.53229049 -0.46834603 1.60678985
v 0.55803138 -0.46869526 1.57288518
v 0.56401276 -0.46969921 1.57288518
v 0.58610081 -0.47026668 1.57288518
v 0.58610081 -0.47051986 1.58047974
v 0.59756516 -0.46878254 1.57288518
v 0.59756516 -0.46879128 1.58047974
v 0.59756516 -0.46879128 1.63446912
v 0.60487080 -0.45876033 1.65246557
v 0.60457324 -0.45876033 1.67350578
v 0.60488566 -0.45876033 1.63446912
v 0.55485468 -0.45876033 1.67350578
v 0.53229049 -0.45876033 1.65065314
v 0.53229049 -0.46979523 1.64630915
v 0.53229049 -0.45876033 1.60523353
v 0.55497372 -0.45876033 1.57288518
v 0.60457324 -0.45876033 1.57288518
v 0.60827066 -0.44075871 1.65246557
v 0.60739277 -0.44380554 1.67350578
v 0.60828552 -0.44075871 1.63446912
v 0.55239220 -0.44075871 1.67350578
v 0.53229049 -0.44075871 1.65231783
v 0.53229049 -0.44816190 1.60585409
v 0.55309151 -0.44075871 1.57288518
v 0.60796564 -0.44075871 1.57288518
v 0.60096502 -0.42824840 1.67350578
v 0.60214793 -0.43036110 1.67350578
v 0.60796564 -0.44075871 1.67350578
v 0.60501956 -0.43548570 1.57288518
v 0.60096502 -0.42824840 1.57288518
v 0.55289807 -0.43866347 1.67350578
v 0.53229049 -0.38294758 1.65195337
v 0.53229049 -0.44796983 1.60588364
v 0.55614171 -0.42837060 1.57288518
v 0.53229049 -0.38294758 1.62948488
v 0.56770279 -0.38294758 1.63446912
v 0.56513613 -0.38294758 1.64490056
v 0.56444428 -0.38294758 1.64770792
v 0.55315845 -0.38294758 1.65105698
v 0.55010825 -0.38294758 1.65195337
v 0.59845045 -0.42810871 1.67350578
v 0.59236489 -0.42777698 1.57288518
v 0.56236862 -0.38294758 1.62350576
v 0.56657197 -0.38294758 1.63213464
v 0.55582924 -0.42823094 1.67350578
v 0.56811193 -0.42743650 1.67350578
v 0.55345602 -0.38294758 1.62350576
v 0.56118572 -0.42803015 1.57288518
v 0.58610081 -0.42745396 1.67350578
v 0.58610081 -0.42745396 1.57288518
v 0.56811193 -0.42756744 1.57288518
f 1 2 3
f 1 3 4
f 1 4 5
f 1 5 6
f 1 6 17
f 1 17 31
f 1 31 30
f 1 30 39
f 1 39 49
f 1 49 52
f 1 52 50
f 1 50 40
f 1 40 32
f 1 32 18
f 1 18 7
f 1 7 8
f 1 8 9
f 1 9 10
f 1 10 11
f 1 11 2
f 2 12 3
f 2 11 13
f 2 13 14
f 2 14 12
f 3 15 27
f 3 27 36
f 3 36 45
f 3 45 44
f 3 44 43
f 3 43 58
f 3 58 66
f 3 66 63
f 3 63 62
f 3 62 48
f 3 48 38
f 3 38 29
f 3 29 16
f 3 16 5
f 3 5 4
f 3 12 15
f 5 16 6
f 6 16 17
f 7 18 19
f 7 19 20
f 7 20 8
f 8 21 9
f 8 20 19
f 8 19 33
f 8 33 41
f 8 41 51
f 8 51 65
f 8 65 68
f 8 68 67
f 8 67 59
f 8 59 47
f 8 47 46
f 8 46 42
f 8 42 34
f 8 34 23
f 8 23 21
f 9 21 10
f 10 21 22
f 10 22 13
f 10 13 11
f 12 14 15
f 13 22 23
f 13 23 24
f 13 24 25
f 13 25 14
f 14 25 15
f 15 26 27
f 15 25 28
f 15 28 26
f 16 29 30
f 16 30 31
f 16 31 17
f 18 32 33
f 18 33 19
f 21 23 22
f 23 34 28
f 23 28 24
f 24 28 25
f 26 35 27
f 26 28 37
f 26 37 35
f 27 35 36
f 28 34 37
f 29 38 30
f 30 38 39
f 32 40 41
f 32 41 33
f 34 42 37
f 35 43 44
f 35 44 45
f 35 45 36
f 35 37 43
f 37 42 46
f 37 46 47
f 37 47 43
f 38 48 49
f 38 49 39
f 40 50 41
f 41 50 52
f 41 52 51
f 43 53 54
f 43 54 55
f 43 55 56
f 43 56 57
f 43 57 58
f 43 47 53
f 47 59 60
f 47 60 61
f 47 61 53
f 48 62 49
f 49 57 56
f 49 56 55
f 49 55 54
f 49 54 53
f 49 53 61
f 49 61 60
f 49 60 64
f 49 64 52
f 49 62 63
f 49 63 57
f 51 64 65
f 51 52 64
f 57 63 66
f 57 66 58
f 59 67 60
f 60 67 64
f 64 67 68
f 64 68 65

