# https://github.com/mikedh/trimesh
v -0.60735174 -0.44073130 0.91447434
v -0.60680977 -0.44073130 0.90514361
v -0.60476491 -0.45001973 0.90514361
v -0.60283173 -0.45870000 0.91447434
v -0.60235682 -0.45870000 0.93097302
v -0.60629017 -0.44073130 0.93097302
v -0.60354129 0.09501324 0.91447434
v -0.60121704 0.09501324 0.90514663
v -0.59895986 -0.10513073 0.90514361
v -0.60258030 -0.45870000 0.90514361
v -0.59886485 -0.46395241 0.90514361
v -0.59518293 -0.46876253 0.93097302
v -0.58388568 0.09501324 0.93600237
v -0.58493609 0.09501324 0.93571239
v -0.59893191 0.09501324 0.93118748
v -0.60005490 0.09501324 0.92814269
v -0.55383239 0.09501324 0.90514663
v -0.55574319 -0.10513073 0.90514361
v -0.59518293 -0.46876253 0.90514361
v -0.58388568 -0.46981299 0.93097302
v -0.56756004 0.09501324 0.93464912
v -0.56589503 -0.46948125 0.93097302
v -0.55598341 -0.46848604 0.93097302
v -0.55267582 -0.45870000 0.93097302
v -0.55031247 -0.44073130 0.93097302
v -0.55351390 0.09501324 0.90953561
v -0.55028452 -0.44073130 0.90514361
v -0.58388568 -0.46981299 0.90514361
v -0.56590061 0.09501324 0.93440143
v -0.56589503 -0.46948125 0.90514361
v -0.55598341 -0.46848604 0.90514361
v -0.55264793 -0.45870000 0.91447434
v -0.55027337 -0.44073130 0.91447434
v -0.55316194 0.09501324 0.91447434
v -0.55441904 0.09501324 0.92964998
v -0.55265908 -0.45870000 0.90514361
f 1 2 3
f 1 3 4
f 1 4 5
f 1 5 6
f 1 6 7
f 1 7 2
f 2 7 8
f 2 8 9
f 2 9 18
f 2 18 27
f 2 27 36
f 2 36 31
f 2 31 30
f 2 30 28
f 2 28 19
f 2 19 11
f 2 11 10
f 2 10 3
f 3 10 4
f 4 11 12
f 4 12 5
f 4 10 11
f 5 12 13
f 5 13 6
f 6 13 14
f 6 14 15
f 6 15 16
f 6 16 7
f 7 16 15
f 7 15 14
f 7 14 13
f 7 13 21
f 7 21 29
f 7 29 35
f 7 35 34
f 7 34 26
f 7 26 17
f 7 17 8
f 8 17 18
f 8 18 9
f 11 19 12
f 12 19 28
f 12 28 20
f 12 20 13
f 13 20 22
f 13 22 23
f 13 23 24
f 13 24 25
f 13 25 21
f 17 26 27
f 17 27 18
f 20 28 30
f 20 30 22
f 21 25 29
f 22 30 31
f 22 31 23
f 23 31 32
f 23 32 24
f 24 32 33
f 24 33 25
f 25 33 34
f 25 34 35
f 25 35 29
f 26 34 27
f 27 33 32
f 27 32 36
f 27 34 33
f 31 36 32

