# https://github.com/mikedh/trimesh
v -0.53003476 0.11723014 0.15831443
v -0.53003476 0.09923823 0.15815049
v -0.53003476 0.13523527 0.15664191
v -0.54614142 0.13523527 0.16308608
v -0.54591424 0.13401996 0.16308608
v -0.54383939 0.11718390 0.16308608
v -0.53003476 0.08112079 0.15795372
v -0.53003476 0.14629858 0.15228021
v -0.55157842 0.14557205 0.16308608
v -0.54843584 0.09966754 0.16308608
v -0.56607973 0.09804271 0.16308608
v -0.54789822 0.08112079 0.15819968
v -0.53003476 0.08112079 0.13545659
v -0.53003476 0.14639106 0.15223107
v -0.55421364 0.14570415 0.16308608
v -0.53003476 0.14857730 0.14058894
v -0.58389019 0.10097533 0.16308608
v -0.56199816 0.08112079 0.15395278
v -0.59495360 0.10293040 0.16308608
v -0.59891399 0.10382207 0.16308608
v -0.53003476 0.12443616 0.11184441
v -0.55615980 0.08112079 0.04036847
v -0.55428938 0.10525534 0.00255619
v -0.54953388 0.11723014 0.01447711
v -0.56589798 0.14623914 0.16308608
v -0.57050205 0.14630518 0.16308608
v -0.53003476 0.14859050 0.14045778
v -0.56589798 0.14859050 0.14045778
v -0.59764938 0.08112079 0.06468570
v -0.60084497 0.10742838 0.16308608
v -0.60148865 0.08112079 0.05048560
v -0.59767213 0.08112079 0.06460373
v -0.53003476 0.12458146 0.11182804
v -0.56589798 0.08112079 0.03689222
v -0.56589798 0.10347861 0.00081812
v -0.56589798 0.11723014 -0.00385515
v -0.55299447 0.11723014 0.00109685
v -0.55443326 0.13523527 0.00270382
v -0.53003476 0.14481247 0.11277905
v -0.53003476 0.13523527 0.11120491
v -0.58389019 0.14577018 0.16308608
v -0.53003476 0.14701191 0.12246992
v -0.55621280 0.14473981 0.00468790
v -0.56589798 0.14505685 0.00419599
v -0.56589798 0.14540690 0.01447711
v -0.56589798 0.14830648 0.10446565
v -0.56589798 0.14848482 0.12246992
v -0.58389019 0.14686662 0.14045778
v -0.58647241 0.14565791 0.16308608
v -0.58389019 0.14688641 0.10446565
v -0.58389019 0.14688641 0.12246992
v -0.60576709 0.11723014 0.16308608
v -0.60738763 0.11723014 0.05048560
v -0.60622902 0.11723014 0.01447711
v -0.59755851 0.10487886 0.00217907
v -0.59672558 0.08112079 0.03777767
v -0.58377662 0.08112079 0.03430147
v -0.58389019 0.10319459 0.00052297
v -0.58389019 0.11723014 -0.00442903
v -0.58389019 0.08112079 0.03428506
v -0.56589798 0.13523527 -0.00046087
v -0.58389019 0.14560507 0.01447711
v -0.58389019 0.13523527 -0.00083798
v -0.58389019 0.14511629 0.00411402
v -0.59440836 0.14481907 0.00457310
v -0.59462042 0.14490493 0.01447711
v -0.59396918 0.14468697 0.16308608
v -0.60082228 0.13523527 0.16308608
v -0.60134477 0.13523527 0.06847351
v -0.60147352 0.13523527 0.01447711
v -0.59752826 0.13523527 0.00232670
v -0.59989085 0.11723014 0.00052297
f 1 2 7
f 1 7 13
f 1 13 21
f 1 21 33
f 1 33 40
f 1 40 39
f 1 39 42
f 1 42 27
f 1 27 16
f 1 16 14
f 1 14 8
f 1 8 3
f 1 3 4
f 1 4 5
f 1 5 6
f 1 6 2
f 2 6 7
f 3 8 9
f 3 9 4
f 4 9 15
f 4 15 25
f 4 25 26
f 4 26 41
f 4 41 49
f 4 49 67
f 4 67 68
f 4 68 52
f 4 52 30
f 4 30 20
f 4 20 19
f 4 19 17
f 4 17 11
f 4 11 10
f 4 10 6
f 4 6 5
f 6 10 7
f 7 10 11
f 7 11 12
f 7 12 18
f 7 18 29
f 7 29 32
f 7 32 31
f 7 31 56
f 7 56 60
f 7 60 57
f 7 57 34
f 7 34 22
f 7 22 13
f 8 14 9
f 9 14 16
f 9 16 15
f 11 17 12
f 12 17 19
f 12 19 20
f 12 20 18
f 13 22 23
f 13 23 24
f 13 24 21
f 15 16 25
f 16 26 25
f 16 27 28
f 16 28 26
f 18 20 29
f 20 30 31
f 20 31 32
f 20 32 29
f 21 24 33
f 22 34 35
f 22 35 23
f 23 35 36
f 23 36 37
f 23 37 24
f 24 37 38
f 24 38 39
f 24 39 40
f 24 40 33
f 26 28 41
f 27 42 43
f 27 43 44
f 27 44 45
f 27 45 46
f 27 46 47
f 27 47 28
f 28 48 49
f 28 49 41
f 28 47 50
f 28 50 51
f 28 51 48
f 30 52 31
f 31 53 54
f 31 54 55
f 31 55 56
f 31 52 53
f 34 57 35
f 35 58 59
f 35 59 36
f 35 57 60
f 35 60 58
f 36 59 61
f 36 61 38
f 36 38 37
f 38 61 43
f 38 43 39
f 39 43 42
f 43 61 44
f 44 62 45
f 44 61 63
f 44 63 64
f 44 64 62
f 45 62 46
f 46 62 65
f 46 65 50
f 46 50 47
f 48 51 66
f 48 66 67
f 48 67 49
f 50 65 66
f 50 66 51
f 52 68 53
f 53 68 69
f 53 69 70
f 53 70 54
f 54 70 71
f 54 71 72
f 54 72 55
f 55 72 59
f 55 59 58
f 55 58 56
f 56 58 60
f 59 72 71
f 59 71 63
f 59 63 61
f 62 64 65
f 63 71 65
f 63 65 64
f 65 70 66
f 65 71 70
f 66 70 69
f 66 69 67
f 67 69 68

