# https://github.com/mikedh/trimesh
v -0.54901574 0.24285832 1.14522710
v -0.54486610 0.24285832 1.14506420
v -0.56489103 0.24285832 1.13997793
v -0.54901574 0.00088287 1.14522710
v -0.54658517 0.00088287 1.14513174
v -0.54486610 0.24285832 1.12555161
v -0.54486610 0.00088287 1.14506420
v -0.56489103 0.24285832 1.12817223
v -0.56477145 0.00088287 1.13997793
v -0.55611933 0.00088287 1.14286082
v -0.54886677 0.24285832 1.12495359
v -0.54486610 0.00088287 1.12555161
v -0.54901574 0.24285832 1.12493173
v -0.54901574 0.00088287 1.12493173
v -0.55766588 0.00088287 1.12670993
v -0.56477145 0.00088287 1.12817223
f 1 2 6
f 1 6 11
f 1 11 13
f 1 13 8
f 1 8 3
f 1 3 4
f 1 4 5
f 1 5 2
f 2 5 7
f 2 7 12
f 2 12 6
f 3 8 16
f 3 16 9
f 3 9 10
f 3 10 4
f 4 10 9
f 4 9 16
f 4 16 15
f 4 15 14
f 4 14 12
f 4 12 7
f 4 7 5
f 6 12 11
f 8 13 14
f 8 14 15
f 8 15 16
f 11 12 14
f 11 14 13

