# https://github.com/mikedh/trimesh
v -0.59940203 -0.11987698 0.65685801
v -0.59898590 -0.11987698 0.64034391
v -0.59938862 -0.12090908 0.65685801
v -0.55286766 -0.11987698 0.65685801
v -0.59916712 -0.13480794 0.65685801
v -0.58753520 -0.11987698 0.63253877
v -0.56616414 -0.26044817 0.61992909
v -0.58103126 -0.26044817 0.63901353
v -0.53083880 -0.11987698 0.64805868
v -0.55227026 -0.12206502 0.65685801
v -0.58501150 -0.14339496 0.65685801
v -0.57849415 -0.26044817 0.64914686
v -0.56445929 -0.26044817 0.65634464
v -0.56700316 -0.11987698 0.62458541
v -0.54901494 -0.26044817 0.62212711
v -0.56494258 -0.11987698 0.62444079
v -0.54901494 -0.11987698 0.62460349
v -0.53083880 -0.11987698 0.62810296
v -0.55176690 -0.13501437 0.65685801
v -0.53083880 -0.15301408 0.64805868
v -0.56742599 -0.15009669 0.65685801
v -0.56390223 -0.26044817 0.65634464
v -0.56605674 -0.15033064 0.65685801
v -0.53083880 -0.26044817 0.62733655
v -0.54615563 -0.11987698 0.62515298
v -0.53084556 -0.26044817 0.64805868
v -0.53083880 -0.24299890 0.64805506
v -0.53083880 -0.26044817 0.64762485
f 1 2 3
f 1 3 5
f 1 5 11
f 1 11 21
f 1 21 23
f 1 23 19
f 1 19 10
f 1 10 4
f 1 4 9
f 1 9 18
f 1 18 25
f 1 25 17
f 1 17 16
f 1 16 14
f 1 14 6
f 1 6 2
f 2 5 3
f 2 6 7
f 2 7 8
f 2 8 5
f 4 10 9
f 5 8 12
f 5 12 13
f 5 13 11
f 6 14 7
f 7 15 24
f 7 24 28
f 7 28 26
f 7 26 22
f 7 22 13
f 7 13 12
f 7 12 8
f 7 14 16
f 7 16 17
f 7 17 15
f 9 10 19
f 9 19 20
f 9 20 27
f 9 27 28
f 9 28 24
f 9 24 18
f 11 13 21
f 13 22 23
f 13 23 21
f 15 17 25
f 15 25 18
f 15 18 24
f 19 23 22
f 19 22 26
f 19 26 20
f 20 26 27
f 26 28 27

