# https://github.com/mikedh/trimesh
v -0.58500855 -0.16270013 1.17177018
v -0.59400942 -0.16200459 1.17177018
v -0.57405315 -0.16130904 1.17177018
v -0.57512601 -0.01843467 1.33255197
v -0.57575984 0.12587170 1.49415469
v -0.58501209 0.21244734 1.59110814
v -0.59417583 0.12587170 1.49415469
v -0.59458659 -0.01843467 1.33255197
v -0.59563466 -0.14535227 1.18958464
v -0.59530539 -0.16130904 1.17177018
v -0.56645088 -0.15251235 1.17177018
v -0.57356450 -0.14535227 1.18958464
v -0.57403191 -0.00104590 1.35122844
v -0.57356096 0.16056742 1.53154867
v -0.57454884 0.14321957 1.51283119
v -0.57278197 0.17795621 1.55026620
v -0.57219063 0.19530406 1.56894264
v -0.57176576 0.21269282 1.58766018
v -0.56955626 0.21964834 1.59110814
v -0.59326230 0.21469766 1.59110814
v -0.59563821 0.16056742 1.53154867
v -0.59496544 0.14321957 1.51283119
v -0.59531601 -0.00104590 1.35122844
v -0.59620122 -0.12800442 1.20830218
v -0.59849215 -0.13438712 1.19619324
v -0.59734140 -0.15770854 1.17177018
v -0.57219063 -0.11061564 1.22701968
v -0.57278551 -0.12800442 1.20830218
v -0.56589500 -0.13512359 1.17177018
v -0.56531783 -0.13495992 1.17907657
v -0.56549486 0.00901913 1.34108980
v -0.56568605 -0.00898336 1.32307008
v -0.56585606 0.15299819 1.50297987
v -0.56618533 0.13495478 1.48500120
v -0.56834881 0.20680111 1.57497659
v -0.56887995 0.18920775 1.55654638
v -0.56802661 0.22459903 1.59110814
v -0.59866564 0.21964834 1.59110814
v -0.59703331 0.21269282 1.58766018
v -0.59666155 0.19530406 1.56894264
v -0.59620122 0.17795621 1.55026620
v -0.59666509 -0.11061564 1.22701968
v -0.59703331 -0.09326778 1.24573719
v -0.59911181 -0.11675285 1.21462345
v -0.60140629 -0.14224276 1.17177018
v -0.59893124 -0.15234870 1.17177018
v -0.57345120 -0.12325831 1.17177018
v -0.57142935 -0.11818486 1.18063637
v -0.57084155 0.25528510 1.59110814
v -0.56803369 0.24296977 1.59110814
v -0.56600830 0.17095978 1.52099953
v -0.59975271 0.22218506 1.59110814
v -0.59952960 0.20680111 1.57497659
v -0.59911181 0.18920775 1.55654638
v -0.59719264 0.06838645 1.42605742
v -0.59685982 0.05103859 1.40733994
v -0.59961104 -0.09915950 1.23301257
v -0.59990142 -0.13532817 1.17177018
v -0.59991558 -0.08152525 1.25148381
v -0.60138858 -0.00898336 1.32307008
v -0.60149126 -0.11699836 1.19705525
v -0.57744527 -0.12207178 1.17177018
v -0.57529950 -0.10762887 1.18765544
v -0.58501209 0.25528510 1.58700345
v -0.59679963 0.25528510 1.59110814
v -0.59973501 0.06261747 1.41320968
v -0.59979874 0.22459903 1.59110814
v -0.60115844 0.17095978 1.52099953
v -0.60122217 0.15299819 1.50297987
v -0.60111236 0.13495478 1.48500120
v -0.59937736 0.04506504 1.39477947
v -0.59755029 -0.12657240 1.17177018
v -0.60144877 0.00901913 1.34108980
v -0.59981999 -0.04457921 1.26880570
v -0.60003596 -0.06217256 1.25037552
v -0.60133193 0.02702163 1.35906847
v -0.59975271 0.24190598 1.59110814
v -0.59978458 0.09944076 1.43077786
v -0.58500855 -0.12137621 1.17177018
v -0.59447329 -0.10762887 1.18765544
v -0.59446975 0.25528510 1.59024616
v -0.59573380 -0.12329922 1.17177018
f 1 2 10
f 1 10 26
f 1 26 46
f 1 46 45
f 1 45 58
f 1 58 72
f 1 72 82
f 1 82 79
f 1 79 62
f 1 62 47
f 1 47 29
f 1 29 11
f 1 11 3
f 1 3 4
f 1 4 5
f 1 5 6
f 1 6 7
f 1 7 8
f 1 8 2
f 2 9 10
f 2 8 9
f 3 11 12
f 3 12 4
f 4 12 13
f 4 13 14
f 4 14 15
f 4 15 5
f 5 15 6
f 6 15 14
f 6 14 16
f 6 16 17
f 6 17 18
f 6 18 19
f 6 19 37
f 6 37 50
f 6 50 49
f 6 49 65
f 6 65 77
f 6 77 67
f 6 67 52
f 6 52 38
f 6 38 20
f 6 20 21
f 6 21 7
f 7 21 22
f 7 22 8
f 8 22 21
f 8 21 23
f 8 23 9
f 9 24 25
f 9 25 26
f 9 26 10
f 9 23 21
f 9 21 24
f 11 27 28
f 11 28 12
f 11 29 30
f 11 30 31
f 11 31 32
f 11 32 33
f 11 33 34
f 11 34 35
f 11 35 36
f 11 36 18
f 11 18 17
f 11 17 27
f 12 28 14
f 12 14 13
f 14 28 16
f 16 28 17
f 17 28 27
f 18 36 35
f 18 35 19
f 19 35 37
f 20 38 39
f 20 39 40
f 20 40 41
f 20 41 21
f 21 41 24
f 24 42 25
f 24 41 42
f 25 42 43
f 25 43 44
f 25 44 45
f 25 45 46
f 25 46 26
f 29 47 48
f 29 48 49
f 29 49 50
f 29 50 51
f 29 51 31
f 29 31 30
f 31 51 33
f 31 33 32
f 33 51 37
f 33 37 35
f 33 35 34
f 37 51 50
f 38 52 53
f 38 53 39
f 39 53 54
f 39 54 55
f 39 55 43
f 39 43 56
f 39 56 40
f 40 56 43
f 40 43 42
f 40 42 41
f 43 55 44
f 44 57 45
f 44 55 54
f 44 54 57
f 45 57 59
f 45 59 60
f 45 60 61
f 45 61 58
f 47 62 63
f 47 63 49
f 47 49 48
f 49 64 81
f 49 81 65
f 49 63 64
f 52 66 53
f 52 67 68
f 52 68 69
f 52 69 70
f 52 70 60
f 52 60 59
f 52 59 66
f 53 66 57
f 53 57 71
f 53 71 54
f 54 71 57
f 57 66 59
f 58 61 72
f 60 70 69
f 60 69 73
f 60 73 61
f 61 74 75
f 61 75 72
f 61 73 76
f 61 76 77
f 61 77 78
f 61 78 74
f 62 79 63
f 63 79 64
f 64 79 80
f 64 80 81
f 65 78 77
f 65 81 80
f 65 80 82
f 65 82 72
f 65 72 74
f 65 74 78
f 67 77 68
f 68 77 76
f 68 76 73
f 68 73 69
f 72 75 74
f 79 82 80

