# https://github.com/mikedh/trimesh
v -0.53014634 -0.47210223 1.13021986
v -0.53014634 -0.47210223 1.13047140
v -0.53014634 -0.46991462 1.11679880
v 0.00101039 -0.46991462 1.11687980
v 0.00101039 -0.47100842 1.12360312
v 0.00101039 -0.47210223 1.13047140
v 0.00101039 -0.47106917 1.13719473
v -0.53014634 -0.46997537 1.14388395
v -0.53014634 -0.46967153 1.11665384
v -0.33184644 -0.45873345 1.11022043
v -0.11592104 -0.45873345 1.11025455
v 0.00101039 -0.46426325 1.11371213
v 0.00101039 -0.46991462 1.14406299
v -0.53014634 -0.46991462 1.14413549
v -0.53014634 -0.45873345 1.11030570
v -0.53014634 0.13520445 1.11030143
v -0.33184644 0.13520445 1.11022043
v 0.00101039 -0.45873345 1.11061266
v -0.11592104 0.13520445 1.11025455
v -0.53014634 -0.45873345 1.15145566
v 0.00101039 -0.45873345 1.15107197
v -0.53014634 0.14638562 1.11679880
v 0.00101039 0.14638562 1.11687980
v 0.00101039 0.13520445 1.11061266
v -0.11592104 -0.44074640 1.15358309
v -0.53014634 -0.44111099 1.15372803
v 0.00101039 -0.44074640 1.15302457
v -0.53014634 0.14644637 1.11705460
v 0.00101039 0.14754017 1.12374808
v -0.53014634 -0.44074640 1.15376215
v -0.11592104 -0.42275932 1.15368115
v 0.00101039 0.11721740 1.15302457
v -0.53014634 0.14857323 1.13047140
v 0.00101039 0.14857323 1.13047140
v -0.53014634 0.11721740 1.15377068
v -0.11592104 0.09923032 1.15368115
v 0.00101039 0.13520445 1.15107197
v -0.11592104 0.11721740 1.15358309
v -0.53014634 0.14857323 1.13070588
v 0.00101039 0.14747942 1.13733968
v -0.53014634 0.13520445 1.15145140
v 0.00101039 0.14073425 1.14760586
v 0.00101039 0.14638562 1.14406299
v -0.53014634 0.14638562 1.14413549
v -0.53014634 0.14620331 1.14426764
f 1 2 8
f 1 8 14
f 1 14 20
f 1 20 26
f 1 26 30
f 1 30 35
f 1 35 41
f 1 41 45
f 1 45 44
f 1 44 39
f 1 39 33
f 1 33 28
f 1 28 22
f 1 22 16
f 1 16 15
f 1 15 9
f 1 9 3
f 1 3 4
f 1 4 5
f 1 5 6
f 1 6 2
f 2 6 7
f 2 7 8
f 3 9 4
f 4 9 10
f 4 10 11
f 4 11 12
f 4 12 18
f 4 18 24
f 4 24 23
f 4 23 29
f 4 29 34
f 4 34 40
f 4 40 43
f 4 43 42
f 4 42 37
f 4 37 32
f 4 32 27
f 4 27 21
f 4 21 13
f 4 13 7
f 4 7 6
f 4 6 5
f 7 13 8
f 8 13 14
f 9 15 10
f 10 15 16
f 10 16 17
f 10 17 19
f 10 19 11
f 11 18 12
f 11 19 24
f 11 24 18
f 13 20 14
f 13 21 20
f 16 22 17
f 17 22 23
f 17 23 19
f 19 23 24
f 20 21 25
f 20 25 26
f 21 27 25
f 22 28 23
f 23 28 29
f 25 30 26
f 25 27 31
f 25 31 30
f 27 32 36
f 27 36 31
f 28 33 29
f 29 33 34
f 30 31 35
f 31 36 35
f 32 37 38
f 32 38 36
f 33 39 34
f 34 39 40
f 35 36 38
f 35 38 41
f 37 42 41
f 37 41 38
f 39 43 40
f 39 44 43
f 41 42 43
f 41 43 45
f 43 44 45

