# https://github.com/mikedh/trimesh
v 0.04962862 0.01893099 0.00567229
v 0.05062811 0.01892982 0.00567229
v 0.04962862 0.01893099 0.00277122
v -0.04735262 0.01893099 0.00567229
v 0.05070728 0.01890290 0.00567229
v 0.05062811 0.01892982 0.00277122
v 0.05062811 0.01882448 0.00177157
v -0.04735262 0.01893099 0.00277122
v -0.04835211 0.01892982 0.00567229
v 0.05140990 0.01865476 0.00567229
v 0.05140990 0.01865476 0.00277122
v 0.05137032 0.01860209 0.00177157
v 0.05126146 0.01849324 0.00109523
v 0.05062811 0.01854942 0.00100727
v -0.03835711 0.01854942 0.00100669
v -0.04835211 0.01882448 0.00177157
v -0.04835211 0.01892982 0.00277122
v -0.04905474 0.01868285 0.00567229
v 0.05165730 0.01795717 0.00567229
v 0.05167710 0.01787992 0.00277122
v 0.05164741 0.01787992 0.00177157
v 0.05126146 0.01755688 0.00015850
v 0.05062811 0.01814444 0.00050686
v 0.05140001 0.01788577 0.00076551
v -0.04835211 0.01854942 0.00100669
v -0.04898546 0.01849324 0.00109523
v -0.04909432 0.01860209 0.00177157
v -0.04913390 0.01865476 0.00277122
v -0.04913390 0.01865476 0.00567229
v 0.05167710 0.01787992 0.00567229
v 0.05167710 0.01688035 0.00177157
v 0.05164741 0.01688035 0.00077134
v 0.05062811 0.01688035 -0.00017297
v 0.05062811 0.01764466 0.00010258
v 0.05137032 0.01688035 0.00004957
v -0.04835211 0.01814444 0.00050686
v -0.04898546 0.01755688 0.00015908
v -0.04912401 0.01788577 0.00076551
v -0.04937141 0.01787992 0.00177157
v -0.04940110 0.01787992 0.00277122
v -0.04940110 0.01787992 0.00567229
v 0.05167710 0.01288091 0.00567229
v 0.05167710 0.01587962 0.00077134
v 0.05140990 0.01587962 -0.00000345
v 0.05062811 0.01587962 -0.00027841
v -0.04835211 0.01688035 -0.00017297
v -0.04835211 0.01764466 0.00010258
v -0.04909432 0.01688035 0.00004957
v -0.04937141 0.01688035 0.00077134
v -0.04940110 0.01688035 0.00177157
v -0.04940110 0.01288091 0.00567229
v 0.05165730 0.01198083 0.00567229
v 0.05166720 0.00888147 0.00077134
v 0.05167710 0.00988104 0.00077134
v 0.05140990 0.00988104 -0.00000345
v 0.05062811 0.00988104 -0.00027841
v -0.04835211 0.01587962 -0.00027841
v -0.04913390 0.01587962 -0.00000345
v -0.04940110 0.01587962 0.00077134
v -0.04940110 0.00988104 0.00077134
v -0.04939120 0.00888147 0.00077134
v -0.04937141 0.01188135 0.00567229
v 0.05164741 0.01188135 0.00567229
v 0.05159793 0.00788190 0.00177157
v 0.05153855 0.00788190 0.00077134
v 0.05139011 0.00888147 0.00000995
v 0.05062811 0.00888147 -0.00025278
v 0.04962862 0.00888147 -0.00025336
v -0.04835211 0.00988104 -0.00027841
v -0.04913390 0.00988104 -0.00000345
v -0.04932193 0.00788190 0.00177157
v -0.04911411 0.00888147 0.00000995
v -0.04926255 0.00788190 0.00077134
v -0.04913390 0.01090519 0.00567229
v 0.05143959 0.01096722 0.00567229
v 0.05127136 0.00726039 0.00238266
v 0.05136042 0.00717729 0.00177157
v 0.05127136 0.00725454 0.00077134
v 0.05115260 0.00736222 0.00025695
v 0.05127136 0.00788190 0.00013636
v 0.05062811 0.00788190 0.00000063
v 0.04962862 0.00788190 0.00000005
v -0.04735262 0.00888147 -0.00025336
v -0.04835211 0.00888147 -0.00025278
v -0.04908442 0.00717729 0.00177157
v -0.04899536 0.00726039 0.00238266
v -0.04899536 0.00788190 0.00013636
v -0.04887660 0.00736222 0.00025695
v -0.04899536 0.00725454 0.00077134
v -0.04835211 0.01043115 0.00567229
v 0.05140990 0.01090519 0.00567229
v 0.05081614 0.01048031 0.00567229
v 0.05062811 0.01043115 0.00567229
v 0.05062811 0.00719953 0.00243800
v 0.05062811 0.00697363 0.00177157
v 0.05062811 0.00712813 0.00077134
v 0.05062811 0.00735286 0.00024996
v -0.04735262 0.00788190 0.00000005
v -0.04835211 0.00788190 0.00000063
v -0.04835211 0.00697363 0.00177157
v -0.04835211 0.00719953 0.00243800
v -0.04835211 0.00735286 0.00024996
v -0.04835211 0.00712813 0.00077134
v -0.04735262 0.01041594 0.00567229
v 0.04996508 0.01041594 0.00567229
f 1 2 6
f 1 6 3
f 1 3 8
f 1 8 4
f 1 4 9
f 1 9 18
f 1 18 29
f 1 29 41
f 1 41 51
f 1 51 62
f 1 62 74
f 1 74 90
f 1 90 104
f 1 104 105
f 1 105 93
f 1 93 92
f 1 92 91
f 1 91 75
f 1 75 63
f 1 63 52
f 1 52 42
f 1 42 30
f 1 30 19
f 1 19 10
f 1 10 5
f 1 5 2
f 2 5 6
f 3 6 7
f 3 7 16
f 3 16 8
f 4 8 17
f 4 17 9
f 5 10 11
f 5 11 6
f 6 11 12
f 6 12 7
f 7 12 13
f 7 13 14
f 7 14 15
f 7 15 25
f 7 25 16
f 8 16 17
f 9 17 18
f 10 19 11
f 11 19 20
f 11 20 21
f 11 21 12
f 12 21 13
f 13 22 23
f 13 23 14
f 13 21 24
f 13 24 22
f 14 23 15
f 15 23 36
f 15 36 25
f 16 25 26
f 16 26 27
f 16 27 17
f 17 27 28
f 17 28 18
f 18 28 29
f 19 30 20
f 20 30 42
f 20 42 54
f 20 54 43
f 20 43 31
f 20 31 32
f 20 32 21
f 21 32 24
f 22 33 34
f 22 34 23
f 22 24 32
f 22 32 35
f 22 35 33
f 23 34 47
f 23 47 36
f 25 36 26
f 26 37 38
f 26 38 39
f 26 39 27
f 26 36 37
f 27 39 28
f 28 39 40
f 28 40 41
f 28 41 29
f 31 43 32
f 32 43 44
f 32 44 35
f 33 35 45
f 33 45 57
f 33 57 46
f 33 46 47
f 33 47 34
f 35 44 45
f 36 47 37
f 37 48 49
f 37 49 38
f 37 47 46
f 37 46 48
f 38 49 39
f 39 49 40
f 40 50 59
f 40 59 60
f 40 60 51
f 40 51 41
f 40 49 50
f 42 52 53
f 42 53 54
f 43 54 55
f 43 55 44
f 44 55 56
f 44 56 45
f 45 56 69
f 45 69 57
f 46 57 48
f 48 58 49
f 48 57 58
f 49 59 50
f 49 58 59
f 51 60 61
f 51 61 62
f 52 63 64
f 52 64 53
f 53 64 65
f 53 65 66
f 53 66 55
f 53 55 54
f 55 66 56
f 56 66 67
f 56 67 68
f 56 68 83
f 56 83 69
f 57 69 70
f 57 70 58
f 58 70 60
f 58 60 59
f 60 70 61
f 61 71 62
f 61 70 72
f 61 72 73
f 61 73 71
f 62 71 74
f 63 75 64
f 64 75 76
f 64 76 77
f 64 77 65
f 65 77 78
f 65 78 79
f 65 79 80
f 65 80 66
f 66 80 67
f 67 80 81
f 67 81 82
f 67 82 68
f 68 82 98
f 68 98 83
f 69 83 84
f 69 84 72
f 69 72 70
f 71 85 86
f 71 86 74
f 71 73 85
f 72 84 87
f 72 87 73
f 73 87 88
f 73 88 89
f 73 89 85
f 74 86 90
f 75 91 76
f 76 91 92
f 76 92 93
f 76 93 94
f 76 94 95
f 76 95 77
f 77 95 78
f 78 95 96
f 78 96 79
f 79 96 97
f 79 97 81
f 79 81 80
f 81 97 82
f 82 97 102
f 82 102 98
f 83 98 99
f 83 99 84
f 84 99 87
f 85 89 100
f 85 100 86
f 86 100 101
f 86 101 90
f 87 99 88
f 88 99 102
f 88 102 103
f 88 103 89
f 89 103 100
f 90 101 104
f 93 105 94
f 94 105 104
f 94 104 101
f 94 101 100
f 94 100 95
f 95 100 103
f 95 103 96
f 96 103 102
f 96 102 97
f 98 102 99

