# https://github.com/mikedh/trimesh
v 0.05167710 0.01301020 0.02977061
v 0.05167710 0.01301020 0.02663422
v 0.05140990 0.01301020 0.03054559
v 0.05167710 0.00988142 0.02977061
v 0.05167710 0.01288080 0.02663422
v -0.04940110 0.01301020 0.02663422
v 0.05140990 0.00988142 0.03054559
v 0.05073697 0.01301020 0.03078492
v 0.05166720 0.00888104 0.02977061
v 0.05159793 0.00788125 0.02877064
v 0.05152865 0.01188042 0.02663422
v -0.04940110 0.01288080 0.02663422
v -0.04940110 0.01301020 0.02977061
v 0.05062811 0.00988142 0.03082058
v 0.05139011 0.00888104 0.03053247
v 0.05062811 0.01301020 0.03082058
v 0.05153855 0.00788125 0.02977061
v 0.05136042 0.00717749 0.02877064
v 0.05127136 0.00725963 0.02816000
v 0.05125156 0.01127711 0.02663422
v -0.04939120 0.00888104 0.02977061
v -0.04940110 0.00988142 0.02977061
v -0.04939120 0.01274371 0.02663422
v -0.04932193 0.00788125 0.02877064
v -0.04937141 0.01301020 0.02987061
v 0.04962862 0.00888104 0.03079558
v 0.05062811 0.00888104 0.03079476
v -0.04835211 0.00988142 0.03082058
v 0.05127136 0.00788125 0.03040584
v -0.04835211 0.01301020 0.03082058
v 0.05115260 0.00736185 0.03028494
v 0.05127136 0.00725431 0.02977061
v 0.05062811 0.00697363 0.02877064
v 0.05062811 0.00719876 0.02810467
v 0.05116250 0.01124993 0.02663422
v -0.04926255 0.00788125 0.02977061
v -0.04911411 0.00888104 0.03053247
v -0.04913390 0.00988142 0.03054559
v -0.04925265 0.01188042 0.02663422
v -0.04908442 0.00717749 0.02877064
v -0.04899536 0.00725963 0.02816000
v -0.04913390 0.01301020 0.03054559
v 0.04962862 0.00788125 0.03054190
v 0.05062811 0.00788125 0.03054149
v -0.04735262 0.00888104 0.03079558
v -0.04903494 0.01301020 0.03058124
v -0.04835211 0.00888104 0.03079476
v 0.05062811 0.00735240 0.03029232
v 0.05062811 0.00712727 0.02977061
v -0.04835211 0.00697363 0.02877064
v 0.04962862 0.01112939 0.02663422
v 0.05049947 0.01114830 0.02663422
v 0.05062811 0.01115125 0.02663422
v -0.04835211 0.00719876 0.02810467
v -0.04899536 0.00725431 0.02977061
v -0.04887660 0.00736185 0.03028494
v -0.04899536 0.00788125 0.03040584
v -0.04921307 0.01178824 0.02663422
v -0.04897556 0.01127711 0.02663422
v -0.04735262 0.00788125 0.03054190
v -0.04835211 0.00788125 0.03054149
v -0.04835211 0.00735240 0.03029232
v -0.04835211 0.00712727 0.02977061
v -0.04735262 0.01112939 0.02663422
v -0.04835211 0.01115125 0.02663422
v -0.04749116 0.01113234 0.02663422
f 1 2 6
f 1 6 13
f 1 13 25
f 1 25 42
f 1 42 46
f 1 46 30
f 1 30 16
f 1 16 8
f 1 8 3
f 1 3 7
f 1 7 4
f 1 4 5
f 1 5 2
f 2 5 11
f 2 11 20
f 2 20 35
f 2 35 53
f 2 53 52
f 2 52 51
f 2 51 64
f 2 64 66
f 2 66 65
f 2 65 59
f 2 59 58
f 2 58 39
f 2 39 23
f 2 23 12
f 2 12 6
f 3 8 7
f 4 7 9
f 4 9 5
f 5 9 10
f 5 10 11
f 6 12 22
f 6 22 13
f 7 8 14
f 7 14 15
f 7 15 9
f 8 16 14
f 9 15 17
f 9 17 10
f 10 17 18
f 10 18 19
f 10 19 11
f 11 19 20
f 12 21 22
f 12 23 24
f 12 24 21
f 13 22 25
f 14 26 27
f 14 27 15
f 14 16 30
f 14 30 28
f 14 28 45
f 14 45 26
f 15 27 29
f 15 29 17
f 17 29 31
f 17 31 32
f 17 32 18
f 18 32 33
f 18 33 19
f 19 33 34
f 19 34 20
f 20 34 35
f 21 24 36
f 21 36 37
f 21 37 38
f 21 38 22
f 22 38 25
f 23 39 24
f 24 40 36
f 24 39 41
f 24 41 40
f 25 38 42
f 26 43 44
f 26 44 27
f 26 45 60
f 26 60 43
f 27 44 29
f 28 30 46
f 28 46 38
f 28 38 37
f 28 37 47
f 28 47 45
f 29 44 31
f 31 44 48
f 31 48 49
f 31 49 32
f 32 49 33
f 33 49 63
f 33 63 50
f 33 50 54
f 33 54 34
f 34 51 52
f 34 52 53
f 34 53 35
f 34 54 64
f 34 64 51
f 36 40 55
f 36 55 56
f 36 56 57
f 36 57 37
f 37 57 47
f 38 46 42
f 39 58 41
f 40 41 50
f 40 50 55
f 41 59 54
f 41 54 50
f 41 58 59
f 43 48 44
f 43 60 62
f 43 62 48
f 45 47 61
f 45 61 60
f 47 57 61
f 48 62 63
f 48 63 49
f 50 63 55
f 54 59 65
f 54 65 66
f 54 66 64
f 55 63 56
f 56 63 62
f 56 62 61
f 56 61 57
f 60 61 62

