# https://github.com/mikedh/trimesh
v -0.04735262 -0.00911888 -0.00027899
v -0.04835211 -0.01011849 -0.00017248
v -0.04835211 -0.00911888 -0.00027782
v -0.04735262 -0.00621847 -0.00027899
v 0.04962862 -0.00911888 -0.00027899
v -0.00735281 -0.01088277 0.00010258
v -0.04835211 -0.01088219 0.00010258
v -0.04898546 -0.01079422 0.00015876
v -0.04909432 -0.01011849 0.00004991
v 0.05062811 -0.01011849 -0.00017248
v -0.04905474 -0.00621847 -0.00003085
v -0.04835211 -0.00621847 -0.00027782
v -0.04913390 -0.00911888 -0.00000276
v 0.04962862 -0.00621847 -0.00027899
v 0.05062811 -0.00911888 -0.00027782
v -0.04835211 -0.01138258 0.00050756
v 0.05062811 -0.01088277 0.00010258
v -0.04898546 -0.01173093 0.00109629
v -0.04912401 -0.01112394 0.00076623
v -0.04937141 -0.01011849 0.00077208
v 0.05137032 -0.01011849 0.00004991
v 0.05126146 -0.01079481 0.00015876
v -0.04913390 -0.00621847 -0.00000276
v -0.04940110 -0.00911888 0.00077208
v -0.04938130 -0.00621847 0.00069483
v 0.05062811 -0.00621847 -0.00027782
v 0.05070728 -0.00621847 -0.00025090
v 0.05140990 -0.00911888 -0.00000276
v -0.04835211 -0.01178743 0.00100734
v 0.05062811 -0.01138258 0.00050756
v -0.04835211 -0.01206239 0.00177165
v -0.04909432 -0.01184044 0.00177165
v -0.04937141 -0.01111869 0.00177165
v 0.05164741 -0.01011849 0.00077208
v 0.05140001 -0.01112394 0.00076623
v 0.05126146 -0.01173093 0.00109512
v -0.04940110 -0.00621847 0.00077208
v -0.04940110 -0.01011849 0.00177165
v 0.05140990 -0.00621847 -0.00000276
v 0.05167710 -0.00911888 0.00077208
v 0.05062811 -0.01178743 0.00100734
v 0.03062821 -0.01206297 0.00177165
v -0.04735262 -0.01216899 0.00277238
v -0.04835211 -0.01216841 0.00277238
v -0.04913390 -0.01189345 0.00277238
v -0.04940110 -0.01111869 0.00277238
v 0.05164741 -0.01111869 0.00177165
v 0.05137032 -0.01184044 0.00177165
v 0.05062811 -0.01206239 0.00177165
v -0.04940110 -0.00621847 0.00577109
v 0.05167710 -0.00621847 0.00077208
v 0.05167710 -0.01011849 0.00177165
v 0.04962862 -0.01206297 0.00177165
v -0.04735262 -0.01216899 0.00877096
v 0.04962862 -0.01216899 0.00277238
v -0.04835211 -0.01216841 0.00877096
v -0.04913390 -0.01189345 0.00877096
v -0.04940110 -0.01111869 0.00877096
v 0.05167710 -0.01111869 0.00277238
v 0.05140990 -0.01189345 0.00277238
v 0.05062811 -0.01216841 0.00277238
v -0.04939120 -0.01111869 0.00977053
v -0.04938130 -0.00621847 0.00667117
v 0.05167710 -0.00621847 0.00577109
v -0.04735262 -0.01214336 0.00977053
v 0.04962862 -0.01216899 0.00877096
v -0.04835211 -0.01214278 0.00977053
v -0.04911411 -0.01188006 0.00977053
v 0.05167710 -0.01111869 0.00877096
v 0.05140990 -0.01189345 0.00877096
v 0.05062811 -0.01216841 0.00877096
v -0.04932193 -0.01011849 0.01077010
v -0.04926255 -0.01111869 0.01077010
v -0.04937141 -0.00621847 0.00677065
v 0.05164741 -0.00621847 0.00677065
v 0.05166720 -0.01111869 0.00977053
v -0.04735262 -0.01188996 0.01077010
v 0.04962862 -0.01214336 0.00977053
v -0.04835211 -0.01188938 0.01077010
v -0.04899536 -0.01175365 0.01077010
v 0.05139011 -0.01188006 0.00977053
v 0.05062811 -0.01214278 0.00977053
v -0.04908442 -0.01011849 0.01147471
v -0.04899536 -0.00950742 0.01139161
v -0.04916359 -0.00621847 0.00768478
v -0.04887660 -0.01163306 0.01128978
v -0.04899536 -0.01111869 0.01139746
v 0.05159793 -0.01011849 0.01077010
v 0.05140990 -0.00621847 0.00774681
v 0.05153855 -0.01111869 0.01077010
v -0.04835211 -0.01164005 0.01129914
v 0.04962862 -0.01188996 0.01077010
v 0.05127136 -0.01175365 0.01077010
v 0.05062811 -0.01188938 0.01077010
v -0.04835211 -0.01011849 0.01167837
v -0.04913390 -0.00621847 0.00774681
v -0.04835211 -0.00945208 0.01145247
v -0.04835211 -0.00621847 0.00822202
v -0.04835211 -0.01111869 0.01152387
v 0.05136042 -0.01011849 0.01147471
v 0.05127136 -0.00950742 0.01139161
v 0.05081614 -0.00621847 0.00817169
v 0.05127136 -0.01111869 0.01139746
v 0.05115260 -0.01163306 0.01128978
v 0.05062811 -0.01164005 0.01129914
v 0.05062811 -0.01011849 0.01167837
v -0.04735262 -0.00621847 0.00823723
v 0.05062811 -0.00945208 0.01145247
v 0.05062811 -0.01111869 0.01152387
v 0.05062811 -0.00621847 0.00822202
v 0.04997498 -0.00621847 0.00823723
f 1 2 3
f 1 3 12
f 1 12 4
f 1 4 14
f 1 14 5
f 1 5 10
f 1 10 2
f 2 6 7
f 2 7 8
f 2 8 9
f 2 9 3
f 2 10 17
f 2 17 6
f 3 11 12
f 3 9 13
f 3 13 11
f 4 12 11
f 4 11 23
f 4 23 25
f 4 25 37
f 4 37 50
f 4 50 63
f 4 63 74
f 4 74 85
f 4 85 96
f 4 96 98
f 4 98 107
f 4 107 111
f 4 111 110
f 4 110 102
f 4 102 89
f 4 89 75
f 4 75 64
f 4 64 51
f 4 51 39
f 4 39 27
f 4 27 26
f 4 26 14
f 5 14 26
f 5 26 15
f 5 15 10
f 6 16 7
f 6 17 30
f 6 30 16
f 7 16 8
f 8 16 18
f 8 18 19
f 8 19 20
f 8 20 9
f 9 20 13
f 10 15 21
f 10 21 22
f 10 22 17
f 11 13 23
f 13 20 24
f 13 24 25
f 13 25 23
f 15 26 27
f 15 27 28
f 15 28 21
f 16 29 18
f 16 30 41
f 16 41 29
f 17 22 30
f 18 29 31
f 18 31 32
f 18 32 33
f 18 33 19
f 19 33 20
f 20 33 24
f 21 28 34
f 21 34 22
f 22 34 35
f 22 35 36
f 22 36 30
f 24 37 25
f 24 33 38
f 24 38 46
f 24 46 58
f 24 58 50
f 24 50 37
f 27 39 28
f 28 39 51
f 28 51 40
f 28 40 34
f 29 41 53
f 29 53 42
f 29 42 31
f 30 36 41
f 31 43 44
f 31 44 32
f 31 42 43
f 32 44 45
f 32 45 33
f 33 46 38
f 33 45 46
f 34 40 47
f 34 47 35
f 35 47 36
f 36 47 48
f 36 48 49
f 36 49 41
f 40 51 64
f 40 64 69
f 40 69 59
f 40 59 52
f 40 52 47
f 41 49 53
f 42 53 55
f 42 55 43
f 43 54 56
f 43 56 44
f 43 55 66
f 43 66 54
f 44 56 57
f 44 57 45
f 45 57 58
f 45 58 46
f 47 52 59
f 47 59 60
f 47 60 48
f 48 60 61
f 48 61 49
f 49 61 55
f 49 55 53
f 50 58 62
f 50 62 63
f 54 65 67
f 54 67 56
f 54 66 78
f 54 78 65
f 55 61 71
f 55 71 66
f 56 67 68
f 56 68 57
f 57 68 62
f 57 62 58
f 59 69 70
f 59 70 60
f 60 70 71
f 60 71 61
f 62 72 63
f 62 68 73
f 62 73 72
f 63 72 74
f 64 75 76
f 64 76 69
f 65 77 79
f 65 79 67
f 65 78 92
f 65 92 77
f 66 71 82
f 66 82 78
f 67 79 80
f 67 80 68
f 68 80 73
f 69 76 70
f 70 81 71
f 70 76 81
f 71 81 82
f 72 73 83
f 72 83 84
f 72 84 85
f 72 85 74
f 73 80 86
f 73 86 87
f 73 87 83
f 75 88 76
f 75 89 88
f 76 88 90
f 76 90 81
f 77 91 79
f 77 92 105
f 77 105 91
f 78 82 94
f 78 94 92
f 79 91 86
f 79 86 80
f 81 90 93
f 81 93 82
f 82 93 94
f 83 87 95
f 83 95 84
f 84 96 85
f 84 95 97
f 84 97 98
f 84 98 96
f 86 91 99
f 86 99 87
f 87 99 95
f 88 100 90
f 88 89 101
f 88 101 100
f 89 102 101
f 90 100 103
f 90 103 104
f 90 104 93
f 91 105 109
f 91 109 99
f 92 94 105
f 93 104 94
f 94 104 105
f 95 99 109
f 95 109 106
f 95 106 108
f 95 108 97
f 97 107 98
f 97 108 111
f 97 111 107
f 100 101 106
f 100 106 103
f 101 102 110
f 101 110 108
f 101 108 106
f 103 106 109
f 103 109 104
f 104 109 105
f 108 110 111

