# https://github.com/mikedh/trimesh
v 3.86641066 3.87948499 1.60208653
v 3.86641066 3.90274520 0.60258865
v 8.41494213 7.43725606 0.60258865
v 8.41494213 7.41558129 1.60208653
v 3.86641066 3.87948499 30.59745643
v 3.86641066 4.30292857 -0.12971924
v 4.22575193 4.47420892 -0.06044820
v 8.41494213 7.56201560 -0.02085964
v 8.41494213 7.41558129 98.58318547
v 3.86641066 3.88001359 98.58318547
v 3.86641066 5.16091687 -0.35732663
v 8.41494213 8.16519800 -0.29794975
v 8.41494213 7.43725606 99.58268335
v 3.86641066 3.90274520 99.58268335
v 3.86641066 6.16586846 -0.44639195
v 4.53388497 6.16586846 -0.42659767
v 8.41494213 9.16539175 -0.44639195
v 8.41494213 7.53822641 100.12696644
v 8.41494213 7.56201560 100.20613164
v 3.86641066 3.91490392 99.62226893
v 3.86641066 7.16553323 -0.43649183
v 4.53388497 7.16553323 -0.44639195
v 8.41494213 9.27957839 -0.44639195
v 3.86641066 4.30292857 100.31499124
v 4.22575193 4.47420892 100.24572020
v 8.41494213 8.16519800 100.48322175
v 6.53363546 9.27957839 -0.44639195
v 3.86641066 8.17101305 -0.26826132
v 4.53388497 8.16519800 -0.42659767
v 5.53398336 9.16539175 -0.42659767
v 8.41494213 9.27957839 100.63166395
v 3.86641066 4.46892247 100.38426228
v 8.41494213 9.04697549 100.62176383
v 3.86641066 5.49872010 100.61186967
v 3.86641066 5.16091687 100.54259863
v 5.53398336 9.27957839 -0.41670351
v 3.86641066 8.83287497 -0.06044820
v 4.56060218 9.27957839 -0.17919600
v 6.53363546 9.27957839 100.63166395
v 8.41494213 9.16539175 100.63166395
v 3.86641066 6.16586846 100.63166395
v 3.86641066 8.85349177 -0.05054808
v 4.08949565 9.27957839 0.60258865
v 5.64841959 9.27957839 100.61186967
v 3.86641066 7.16553323 100.62176383
v 3.86641066 6.49838524 100.63166395
v 3.86641066 9.04697549 0.60258865
v 4.07480192 9.27957839 1.60208653
v 5.53398336 9.27957839 100.60197551
v 5.53398336 9.16539175 100.61186967
v 3.86641066 7.49805001 100.61186967
v 3.86641066 9.05226157 1.60208653
v 4.07480192 9.27957839 98.89985819
v 4.63273717 9.27957839 100.39415644
v 3.86641066 8.51568817 100.37436812
v 3.86641066 9.05226157 99.35507596
v 4.08949565 9.27957839 99.58268335
v 4.56060218 9.27957839 100.36446800
v 3.86641066 8.85772063 100.23582008
v 3.86641066 9.04697549 99.58268335
v 4.13714109 9.27957839 99.76081101
v 3.86641066 8.86829352 100.21603176
f 1 2 3
f 1 3 4
f 1 4 9
f 1 9 5
f 1 5 10
f 1 10 14
f 1 14 20
f 1 20 24
f 1 24 32
f 1 32 35
f 1 35 34
f 1 34 41
f 1 41 46
f 1 46 45
f 1 45 51
f 1 51 55
f 1 55 59
f 1 59 62
f 1 62 60
f 1 60 56
f 1 56 52
f 1 52 47
f 1 47 42
f 1 42 37
f 1 37 28
f 1 28 21
f 1 21 15
f 1 15 11
f 1 11 6
f 1 6 2
f 2 6 7
f 2 7 8
f 2 8 3
f 3 8 12
f 3 12 17
f 3 17 23
f 3 23 31
f 3 31 40
f 3 40 33
f 3 33 26
f 3 26 19
f 3 19 18
f 3 18 13
f 3 13 9
f 3 9 4
f 5 9 10
f 6 8 7
f 6 11 12
f 6 12 8
f 9 13 10
f 10 13 14
f 11 15 16
f 11 16 17
f 11 17 12
f 13 18 14
f 14 18 19
f 14 19 20
f 15 21 22
f 15 22 27
f 15 27 23
f 15 23 17
f 15 17 16
f 19 24 25
f 19 25 20
f 19 26 24
f 20 25 24
f 21 27 22
f 21 28 29
f 21 29 30
f 21 30 27
f 23 27 36
f 23 36 38
f 23 38 43
f 23 43 48
f 23 48 53
f 23 53 57
f 23 57 61
f 23 61 58
f 23 58 54
f 23 54 49
f 23 49 44
f 23 44 39
f 23 39 31
f 24 26 32
f 26 33 34
f 26 34 35
f 26 35 32
f 27 30 36
f 28 36 29
f 28 37 38
f 28 38 36
f 29 36 30
f 31 39 46
f 31 46 41
f 31 41 40
f 33 40 34
f 34 40 41
f 37 42 38
f 38 42 43
f 39 44 45
f 39 45 46
f 42 47 43
f 43 47 48
f 44 49 50
f 44 50 45
f 45 50 51
f 47 52 48
f 48 52 56
f 48 56 53
f 49 54 51
f 49 51 50
f 51 54 55
f 53 56 57
f 54 58 55
f 55 58 59
f 56 60 57
f 57 60 61
f 58 61 62
f 58 62 59
f 60 62 61

