# https://github.com/mikedh/trimesh
v 0.05062811 -0.00021222 0.02877104
v 0.05062811 -0.00036508 0.02977044
v 0.05127136 -0.00049207 0.02977044
v 0.05136042 -0.00041564 0.02877104
v 0.05127136 -0.00049736 0.02815991
v 0.05062811 -0.00043681 0.02810478
v -0.04835211 -0.00021222 0.02877104
v 0.05062811 -0.00059026 0.03029234
v 0.05115260 -0.00059966 0.03028481
v -0.04835211 -0.00036508 0.02977044
v 0.05153855 -0.00111939 0.02977044
v 0.05159793 -0.00111939 0.02877104
v 0.05124167 -0.00452643 0.02676948
v 0.05151876 -0.00511847 0.02676948
v 0.05062811 -0.00441178 0.02676948
v 0.04962862 -0.00439003 0.02676948
v -0.04835211 -0.00043681 0.02810478
v -0.04899536 -0.00049736 0.02815991
v -0.04908442 -0.00041564 0.02877104
v -0.04899536 -0.00049207 0.02977044
v 0.04962862 -0.00111939 0.03054219
v 0.05062811 -0.00111939 0.03054140
v -0.04835211 -0.00059026 0.03029234
v 0.05127136 -0.00111939 0.03040576
v -0.04887660 -0.00059966 0.03028481
v 0.05139011 -0.00211945 0.03053228
v 0.05166720 -0.00211945 0.02977044
v 0.05167710 -0.00611853 0.02676948
v -0.04735262 -0.00439003 0.02676948
v -0.04835211 -0.00441178 0.02676948
v -0.04896567 -0.00452701 0.02676948
v -0.04924276 -0.00511964 0.02676948
v -0.04932193 -0.00111939 0.02877104
v -0.04926255 -0.00111939 0.02977044
v 0.04962862 -0.00211945 0.03079561
v -0.04735262 -0.00111939 0.03054219
v 0.05062811 -0.00211945 0.03079481
v -0.04835211 -0.00111939 0.03054140
v -0.04899536 -0.00111939 0.03040576
v 0.05140990 -0.00311893 0.03054576
v 0.05062811 -0.00311893 0.03082059
v 0.05167710 -0.00311893 0.02977044
v 0.05167710 -0.00621730 0.02676948
v -0.04940110 -0.00611971 0.02676948
v -0.04939120 -0.00211945 0.02977044
v -0.04911411 -0.00211945 0.03053228
v 0.04962862 -0.00311893 0.03082099
v -0.04735262 -0.00211945 0.03079561
v -0.04835211 -0.00211945 0.03079481
v 0.05140990 -0.00621789 0.03054576
v 0.05165730 -0.00621789 0.02984737
v 0.05062811 -0.00621789 0.03082059
v 0.05167710 -0.00621789 0.02977044
v 0.05167710 -0.00621789 0.02677107
v 0.04740200 -0.00621789 0.02676948
v -0.04940110 -0.00621789 0.02676948
v -0.04940110 -0.00311893 0.02977044
v -0.04913390 -0.00311893 0.03054576
v -0.04835211 -0.00311893 0.03082059
v 0.04962862 -0.00621789 0.03082099
v -0.04735262 -0.00311893 0.03082099
v -0.04940110 -0.00621789 0.02977044
v -0.04913390 -0.00621789 0.03054576
v -0.04843128 -0.00621789 0.03079363
v -0.04835211 -0.00621789 0.03082059
v -0.04735262 -0.00621789 0.03082099
f 1 2 3
f 1 3 4
f 1 4 5
f 1 5 6
f 1 6 17
f 1 17 7
f 1 7 10
f 1 10 2
f 2 8 9
f 2 9 3
f 2 10 23
f 2 23 8
f 3 9 11
f 3 11 4
f 4 11 12
f 4 12 5
f 5 13 6
f 5 12 14
f 5 14 13
f 6 13 15
f 6 15 16
f 6 16 29
f 6 29 17
f 7 17 18
f 7 18 19
f 7 19 20
f 7 20 10
f 8 21 22
f 8 22 9
f 8 23 36
f 8 36 21
f 9 22 24
f 9 24 11
f 10 20 25
f 10 25 23
f 11 24 26
f 11 26 27
f 11 27 12
f 12 27 28
f 12 28 14
f 13 14 28
f 13 28 43
f 13 43 55
f 13 55 56
f 13 56 44
f 13 44 32
f 13 32 31
f 13 31 30
f 13 30 29
f 13 29 16
f 13 16 15
f 17 29 30
f 17 30 31
f 17 31 18
f 18 31 32
f 18 32 33
f 18 33 19
f 19 33 34
f 19 34 20
f 20 34 25
f 21 35 37
f 21 37 22
f 21 36 48
f 21 48 35
f 22 37 24
f 23 25 38
f 23 38 36
f 24 37 26
f 25 34 39
f 25 39 38
f 26 40 27
f 26 37 41
f 26 41 40
f 27 42 28
f 27 40 42
f 28 42 53
f 28 53 54
f 28 54 43
f 32 44 33
f 33 44 45
f 33 45 34
f 34 46 39
f 34 45 46
f 35 47 41
f 35 41 37
f 35 48 61
f 35 61 47
f 36 38 49
f 36 49 48
f 38 39 49
f 39 46 49
f 40 41 52
f 40 52 50
f 40 50 51
f 40 51 42
f 41 47 60
f 41 60 52
f 42 51 53
f 43 54 55
f 44 56 62
f 44 62 57
f 44 57 45
f 45 57 58
f 45 58 46
f 46 58 59
f 46 59 49
f 47 61 66
f 47 66 60
f 48 49 59
f 48 59 61
f 50 52 60
f 50 60 66
f 50 66 65
f 50 65 64
f 50 64 63
f 50 63 62
f 50 62 56
f 50 56 55
f 50 55 54
f 50 54 53
f 50 53 51
f 57 62 63
f 57 63 58
f 58 63 64
f 58 64 59
f 59 64 65
f 59 65 66
f 59 66 61

