# https://github.com/mikedh/trimesh
v -6.55868618 -13.83406077 99.58268335
v -6.78385505 -13.16785451 99.58268335
v -6.84499768 -13.22301445 100.22592592
v -6.76269027 -13.83406077 100.31499124
v -6.83911856 -14.83380004 100.22592592
v -6.71213022 -14.83380004 99.58268335
v -6.55868618 -13.83406077 0.60258865
v -7.46641648 -12.99294246 99.58268335
v -6.78385505 -13.16785451 0.60258865
v -7.46641648 -13.16356754 100.29519696
v -7.46641648 -13.83406077 100.55249279
v -7.46641648 -14.83380004 100.49311591
v -6.94670562 -15.34824568 100.10717216
v -6.93729909 -15.35539064 99.58268335
v -6.71213022 -14.83380004 0.60258865
v -6.83911856 -14.83380004 -0.04065392
v -6.76269027 -13.83406077 -0.12971924
v -6.84499768 -13.22301445 -0.04065392
v -9.47588753 -12.96436264 98.58318547
v -9.47647536 -12.96436264 99.58268335
v -9.50234323 -12.96436264 99.61237179
v -10.13846021 -12.96436264 100.30509112
v -7.46641648 -12.99294246 0.60258865
v -11.46536984 -12.96436264 100.55249279
v -12.46540192 -12.96436264 100.63166395
v -8.46644892 -14.83380004 100.62176383
v -8.46644892 -15.59546557 100.34467968
v -7.46641648 -15.46885459 100.22592592
v -7.46641648 -15.60461021 99.58268335
v -7.46641648 -15.60518241 98.58318547
v -6.93729909 -15.35539064 0.60258865
v -6.94670562 -15.34824568 0.07809984
v -7.46641648 -14.83380004 -0.30784391
v -7.46641648 -13.83406077 -0.36722079
v -7.46641648 -13.16356754 -0.10992496
v -9.47588753 -12.96436264 0.61248579
v -10.13846021 -12.96436264 -0.11981912
v -9.78630338 -12.96436264 0.14737088
v -9.47647536 -12.96436264 0.60258865
v -12.56475850 -12.96436264 100.63166395
v -9.46648137 -14.83380004 100.63166395
v -9.46648137 -15.60889868 100.36446800
v -9.46648137 -15.88384009 99.58268335
v -8.46644892 -15.85811825 99.58268335
v -8.46644892 -15.85869045 98.58318547
v -7.46641648 -15.60518241 1.60208653
v -7.46641648 -15.60461021 0.60258865
v -7.46641648 -15.46885459 -0.04065392
v -8.46644892 -15.59546557 -0.15940768
v -8.46644892 -14.83380004 -0.43649183
v -12.33488618 -12.96436264 -0.44639195
v -11.33485410 -12.96436264 -0.35732663
v -12.56475850 -14.83380004 100.63166395
v -12.56475850 -12.96436264 -0.44639195
v -12.56475850 -14.91039484 100.61186967
v -12.56475850 -15.60889868 100.36446800
v -12.56475850 -15.88384009 99.58268335
v -9.46648137 -15.88412619 98.58318547
v -8.46644892 -15.85869045 1.60208653
v -8.46644892 -15.85811825 0.60258865
v -9.46648137 -15.60889868 -0.17919600
v -9.46648137 -15.88384009 0.60258865
v -9.46648137 -14.83380004 -0.44639195
v -12.56475850 -14.83380004 -0.44639195
v -12.56475850 -15.88412619 98.58318547
v -9.46648137 -15.88412619 15.59507472
v -12.56475850 -15.85668926 0.52342047
v -12.56475850 -15.60861258 -0.17919600
v -12.56475850 -15.88384009 0.60258865
v -12.56475850 -15.88412619 70.58731493
v -12.46540192 -15.88412619 56.58443184
f 1 2 3
f 1 3 4
f 1 4 5
f 1 5 6
f 1 6 15
f 1 15 7
f 1 7 9
f 1 9 2
f 2 8 3
f 2 9 23
f 2 23 8
f 3 8 10
f 3 10 11
f 3 11 4
f 4 11 12
f 4 12 5
f 5 13 6
f 5 12 13
f 6 13 14
f 6 14 31
f 6 31 15
f 7 15 16
f 7 16 17
f 7 17 18
f 7 18 9
f 8 19 20
f 8 20 21
f 8 21 22
f 8 22 10
f 8 23 36
f 8 36 19
f 9 18 23
f 10 22 24
f 10 24 11
f 11 24 25
f 11 25 26
f 11 26 12
f 12 27 28
f 12 28 13
f 12 26 27
f 13 28 29
f 13 29 14
f 14 29 30
f 14 30 46
f 14 46 31
f 15 31 32
f 15 32 16
f 16 32 33
f 16 33 17
f 17 33 34
f 17 34 18
f 18 35 23
f 18 34 35
f 19 36 39
f 19 39 38
f 19 38 37
f 19 37 52
f 19 52 51
f 19 51 54
f 19 54 40
f 19 40 25
f 19 25 24
f 19 24 22
f 19 22 21
f 19 21 20
f 23 35 37
f 23 37 38
f 23 38 39
f 23 39 36
f 25 40 53
f 25 53 41
f 25 41 26
f 26 41 42
f 26 42 27
f 27 42 43
f 27 43 44
f 27 44 28
f 28 44 29
f 29 44 45
f 29 45 30
f 30 45 59
f 30 59 46
f 31 46 47
f 31 47 32
f 32 48 33
f 32 47 48
f 33 48 49
f 33 49 50
f 33 50 34
f 34 50 51
f 34 51 35
f 35 51 52
f 35 52 37
f 40 54 64
f 40 64 68
f 40 68 67
f 40 67 69
f 40 69 70
f 40 70 65
f 40 65 57
f 40 57 56
f 40 56 55
f 40 55 53
f 41 53 55
f 41 55 42
f 42 56 57
f 42 57 43
f 42 55 56
f 43 57 65
f 43 65 58
f 43 58 45
f 43 45 44
f 45 58 66
f 45 66 59
f 46 59 60
f 46 60 47
f 47 60 48
f 48 60 49
f 49 61 50
f 49 60 62
f 49 62 61
f 50 63 51
f 50 61 63
f 51 63 64
f 51 64 54
f 58 65 70
f 58 70 71
f 58 71 66
f 59 66 62
f 59 62 60
f 61 62 67
f 61 67 68
f 61 68 64
f 61 64 63
f 62 69 67
f 62 66 69
f 66 71 69
f 69 71 70

