# https://github.com/mikedh/trimesh
v 1.53376267 -0.35418087 -0.44639195
v -2.98071553 4.16582033 -0.44639195
v 3.86574012 6.16570679 -0.44639195
v 2.05324629 -0.35418087 -0.39690923
v 1.05382701 -0.35418087 -0.39690923
v -2.98071553 3.68150159 -0.39690923
v 3.53327102 7.16565020 -0.42659767
v 3.86574012 7.16565020 -0.43649183
v 3.53327102 6.16570679 -0.44639195
v -2.98071553 4.68052413 -0.39690923
v 3.86574012 5.16023888 -0.35732663
v 2.53318158 -0.35418087 -0.34743247
v 0.53367360 -0.35418087 -0.32763819
v -2.98071553 3.16587729 -0.32763819
v -2.98071553 5.16484287 -0.34743247
v 3.86574012 8.17111810 -0.26826132
v 3.86574012 4.30301313 -0.12971924
v 3.15857294 -0.35418087 -0.07034236
v -0.09171757 -0.35418087 -0.06044820
v -2.98071553 2.86294762 -0.19899028
v -2.98071553 5.79003754 -0.07034236
v 3.86574012 8.83222231 -0.06044820
v 3.86574012 3.90340419 0.60258865
v 3.28391883 -0.35418087 0.60258865
v 3.22359202 -0.35418087 0.27601879
v -0.15472578 -0.35418087 0.25622749
v -2.98071553 2.54068244 -0.06044820
v 3.86574012 8.85339939 -0.05054808
v -2.98071553 5.91526050 0.60258865
v 3.86574012 9.04675868 0.60258865
v 3.86574012 3.88038537 1.60208653
v 3.28391883 -0.35418087 99.58268335
v -0.22309662 -0.35418087 0.60258865
v -2.98071553 2.40993480 0.60258865
v 3.86574012 9.05228317 1.60208653
v -2.98071553 5.91526050 99.58268335
v 3.86574012 3.88038537 98.58318547
v 3.86574012 3.90340419 99.58268335
v 3.86574012 3.91445317 99.62226893
v 3.86574012 4.30301313 100.31499124
v 3.21889974 -0.35418087 99.93894165
v -0.22577766 -0.35418087 1.07759772
v -2.98071553 2.40717237 1.08749486
v 3.86574012 9.05228317 64.59032021
v -2.98071553 5.79003754 100.25561436
v 3.86574012 9.04675868 99.58268335
v 3.86574012 9.05136230 99.35507596
v 3.15857294 -0.35418087 100.25561436
v 3.86574012 4.46782875 100.38426228
v -0.22845906 -0.35418087 1.60208653
v -2.98071553 2.40441013 1.60208653
v 3.86574012 8.85708288 100.23582008
v 3.86574012 8.86813185 100.21603176
v -2.98071553 5.16484287 100.53270447
v 3.86574012 5.16023888 100.54259863
v 3.86574012 5.49815722 100.61186967
v 2.53318158 -0.35418087 100.53270447
v -0.22845906 -0.35418087 98.58318547
v -2.98071553 2.40441013 98.58318547
v 3.86574012 8.51548105 100.37436812
v -2.98071553 4.16582033 100.63166395
v 3.86574012 7.49804405 100.61186967
v 3.86574012 6.16570679 100.63166395
v 1.53376267 -0.35418087 100.63166395
v -0.22309662 -0.35418087 99.58268335
v -2.98071553 2.40993480 99.58268335
v 3.86574012 6.49810063 100.63166395
v 3.86574012 7.16565020 100.62176383
v -2.98071553 3.65111653 100.57228707
v 1.01360926 -0.35418087 100.57228707
v -0.09171757 -0.35418087 100.24572020
v -2.98071553 2.54068244 100.24572020
v -2.98071553 3.16587729 100.51291019
v 0.53367360 -0.35418087 100.51291019
v 0.20857744 -0.35418087 100.37436812
f 1 2 9
f 1 9 3
f 1 3 4
f 1 4 12
f 1 12 18
f 1 18 25
f 1 25 24
f 1 24 32
f 1 32 41
f 1 41 48
f 1 48 57
f 1 57 64
f 1 64 70
f 1 70 74
f 1 74 75
f 1 75 71
f 1 71 65
f 1 65 58
f 1 58 50
f 1 50 42
f 1 42 33
f 1 33 26
f 1 26 19
f 1 19 13
f 1 13 5
f 1 5 6
f 1 6 2
f 2 7 8
f 2 8 9
f 2 6 14
f 2 14 20
f 2 20 27
f 2 27 34
f 2 34 43
f 2 43 51
f 2 51 59
f 2 59 66
f 2 66 72
f 2 72 73
f 2 73 69
f 2 69 61
f 2 61 54
f 2 54 45
f 2 45 36
f 2 36 29
f 2 29 21
f 2 21 15
f 2 15 10
f 2 10 7
f 3 9 8
f 3 8 16
f 3 16 22
f 3 22 28
f 3 28 30
f 3 30 35
f 3 35 44
f 3 44 47
f 3 47 46
f 3 46 53
f 3 53 52
f 3 52 60
f 3 60 62
f 3 62 68
f 3 68 67
f 3 67 63
f 3 63 56
f 3 56 55
f 3 55 49
f 3 49 40
f 3 40 39
f 3 39 38
f 3 38 37
f 3 37 31
f 3 31 23
f 3 23 17
f 3 17 11
f 3 11 12
f 3 12 4
f 5 13 6
f 6 13 14
f 7 10 15
f 7 15 16
f 7 16 8
f 11 17 18
f 11 18 12
f 13 19 20
f 13 20 14
f 15 21 22
f 15 22 16
f 17 23 24
f 17 24 25
f 17 25 18
f 19 26 27
f 19 27 20
f 21 28 22
f 21 29 30
f 21 30 28
f 23 31 24
f 24 31 37
f 24 37 32
f 26 33 27
f 27 33 34
f 29 35 30
f 29 36 44
f 29 44 35
f 32 37 38
f 32 38 39
f 32 39 40
f 32 40 41
f 33 42 43
f 33 43 34
f 36 45 46
f 36 46 47
f 36 47 44
f 40 48 41
f 40 49 48
f 42 50 51
f 42 51 43
f 45 52 53
f 45 53 46
f 45 54 52
f 48 49 55
f 48 55 56
f 48 56 57
f 50 58 59
f 50 59 51
f 52 54 60
f 54 61 62
f 54 62 60
f 56 63 64
f 56 64 57
f 58 65 59
f 59 65 66
f 61 64 63
f 61 63 67
f 61 67 68
f 61 68 62
f 61 69 70
f 61 70 64
f 65 71 72
f 65 72 66
f 69 73 70
f 70 73 74
f 71 75 72
f 72 75 73
f 73 75 74

