# https://github.com/mikedh/trimesh
v 12.58303719 -9.20514819 99.58268335
v 12.30827012 -9.20514819 100.36446800
v 12.58303719 -12.83373291 99.58268335
v 12.58303719 -9.20514819 0.60258865
v 12.30827012 -12.83373291 100.36446800
v 11.53277810 -9.20514819 100.63166395
v 12.54055638 -12.96399459 99.68164283
v 12.56947892 -12.96399459 99.58268335
v 12.58303719 -12.83373291 0.60258865
v 12.41040348 -9.20514819 0.10778828
v 12.20704125 -12.96399459 100.39415644
v 12.30103874 -12.96399459 100.35457384
v 11.53277810 -12.96399459 100.63166395
v 5.53401539 -9.20514819 100.63166395
v 12.56947892 -12.96399459 0.60258865
v 12.30103874 -12.96399459 -0.16930184
v 12.30827012 -12.83373291 -0.17919600
v 12.30827012 -9.20514819 -0.17919600
v 6.40350640 -12.96399459 100.63166395
v 4.52985281 -9.20514819 100.53270447
v 5.40386324 -12.96399459 100.54259863
v 11.53277810 -12.96399459 -0.44639195
v 11.82110196 -9.20514819 -0.34743247
v 3.69742020 -9.20514819 100.30509112
v 4.20718399 -12.96399459 100.30509112
v 6.53456229 -12.96399459 -0.44639195
v 11.53277810 -9.20514819 -0.44639195
v 3.35125052 -9.20514819 99.58268335
v 3.54467166 -12.96399459 99.58268335
v 3.85559115 -12.96399459 100.03790112
v 5.53401539 -9.20514819 -0.44639195
v 5.53401539 -12.96399459 -0.36722079
v 4.90584875 -9.20514819 -0.42659767
v 3.35034678 -9.20514819 16.59457259
v 3.54467166 -12.96399459 0.60258865
v 4.20718399 -12.96399459 -0.11981912
v 4.52985281 -9.20514819 -0.34743247
v 3.35034678 -9.20514819 0.60258865
v 3.39373059 -9.20514819 0.44425229
v 3.69742020 -9.20514819 -0.11981912
v 3.57088224 -12.96399459 0.57290021
v 3.88360995 -9.20514819 -0.19899028
f 1 2 5
f 1 5 3
f 1 3 9
f 1 9 4
f 1 4 10
f 1 10 18
f 1 18 23
f 1 23 27
f 1 27 31
f 1 31 33
f 1 33 37
f 1 37 42
f 1 42 40
f 1 40 39
f 1 39 38
f 1 38 34
f 1 34 28
f 1 28 24
f 1 24 20
f 1 20 14
f 1 14 6
f 1 6 2
f 2 6 13
f 2 13 5
f 3 5 7
f 3 7 8
f 3 8 15
f 3 15 9
f 4 9 10
f 5 11 12
f 5 12 7
f 5 13 11
f 6 14 19
f 6 19 13
f 7 12 11
f 7 11 13
f 7 13 19
f 7 19 21
f 7 21 25
f 7 25 30
f 7 30 29
f 7 29 35
f 7 35 41
f 7 41 36
f 7 36 32
f 7 32 26
f 7 26 22
f 7 22 16
f 7 16 15
f 7 15 8
f 9 15 16
f 9 16 17
f 9 17 10
f 10 17 18
f 14 20 21
f 14 21 19
f 16 22 17
f 17 22 23
f 17 23 18
f 20 24 25
f 20 25 21
f 22 26 31
f 22 31 27
f 22 27 23
f 24 28 29
f 24 29 30
f 24 30 25
f 26 32 33
f 26 33 31
f 28 34 29
f 29 34 38
f 29 38 35
f 32 36 33
f 33 36 37
f 35 38 39
f 35 39 40
f 35 40 41
f 36 41 40
f 36 40 42
f 36 42 37

