# https://github.com/mikedh/trimesh
v 0.05167710 0.01301020 0.02663377
v 0.05167710 0.01288044 0.02663377
v 0.05167710 0.01301020 0.02477072
v -0.04940110 0.01301020 0.02663377
v 0.05167710 0.00988110 0.02208524
v 0.05152865 0.01188049 0.02663377
v 0.05158803 0.00887850 0.02208524
v 0.05165730 0.00988110 0.02277097
v 0.05167710 0.01088053 0.02277097
v 0.05166720 0.01088053 0.02208524
v 0.05165730 0.01288044 0.02377107
v 0.05164741 0.01301020 0.02377107
v -0.04940110 0.01301020 0.02477072
v -0.04940110 0.01288044 0.02663377
v 0.05125156 0.01127723 0.02663377
v 0.05136042 0.00802154 0.02208524
v 0.05149897 0.01188684 0.02208524
v 0.05165730 0.01188049 0.02277097
v 0.05140990 0.01301020 0.02280169
v -0.04939120 0.01088053 0.02208524
v -0.04940110 0.01019571 0.02208524
v -0.04938130 0.01301020 0.02390064
v -0.04940110 0.00988110 0.02208524
v -0.04938130 0.00919575 0.02208524
v -0.04939120 0.01274380 0.02663377
v 0.05116250 0.01125022 0.02663377
v 0.05066770 0.00763914 0.02208524
v 0.05128125 0.00820003 0.02245215
v 0.05128125 0.01255683 0.02208524
v 0.05128125 0.01256319 0.02208835
v 0.05078645 0.01301020 0.02238090
v -0.04938130 0.01119513 0.02208524
v -0.04937141 0.01301020 0.02377107
v -0.04931203 0.00887850 0.02208524
v -0.04925265 0.01188049 0.02663377
v 0.05062811 0.01115170 0.02663377
v 0.05062811 0.00762961 0.02208524
v 0.05126146 0.01256637 0.02208524
v 0.05062811 0.01301020 0.02233726
v -0.04916359 0.01301020 0.02288362
v -0.04922297 0.01188684 0.02208524
v -0.04914380 0.00817832 0.02208524
v -0.04908442 0.00802154 0.02208524
v -0.04921307 0.01178833 0.02663377
v 0.05049947 0.01114853 0.02663377
v 0.04962862 0.00760048 0.02208524
v 0.05062811 0.01274697 0.02208524
v 0.05044009 0.01275121 0.02208524
v 0.04992549 0.01301020 0.02232213
v -0.04913390 0.01301020 0.02280169
v -0.04914380 0.01221416 0.02208524
v -0.04835211 0.00762961 0.02208524
v -0.04900525 0.00820003 0.02245215
v -0.04897556 0.01127723 0.02663377
v 0.04962862 0.01112946 0.02663377
v -0.01936660 0.00759942 0.02208524
v -0.04735262 0.01275121 0.02208524
v -0.04735262 0.01301020 0.02232213
v -0.04835211 0.01301020 0.02233726
v -0.04900525 0.01256319 0.02208835
v -0.04900525 0.01255683 0.02208524
v -0.04737241 0.00760101 0.02208524
v -0.04835211 0.01115170 0.02663377
v -0.04735262 0.01112946 0.02663377
v -0.04735262 0.00760048 0.02208524
v -0.04835211 0.01274697 0.02208524
v -0.04898546 0.01256637 0.02208524
f 1 2 5
f 1 5 9
f 1 9 3
f 1 3 12
f 1 12 19
f 1 19 31
f 1 31 39
f 1 39 49
f 1 49 58
f 1 58 59
f 1 59 50
f 1 50 40
f 1 40 33
f 1 33 22
f 1 22 13
f 1 13 4
f 1 4 14
f 1 14 25
f 1 25 35
f 1 35 44
f 1 44 54
f 1 54 63
f 1 63 64
f 1 64 55
f 1 55 45
f 1 45 36
f 1 36 26
f 1 26 15
f 1 15 6
f 1 6 2
f 2 6 7
f 2 7 8
f 2 8 5
f 3 9 10
f 3 10 11
f 3 11 12
f 4 13 21
f 4 21 23
f 4 23 14
f 5 10 9
f 5 8 7
f 5 7 16
f 5 16 27
f 5 27 37
f 5 37 46
f 5 46 56
f 5 56 65
f 5 65 62
f 5 62 52
f 5 52 43
f 5 43 42
f 5 42 34
f 5 34 24
f 5 24 23
f 5 23 21
f 5 21 20
f 5 20 32
f 5 32 41
f 5 41 51
f 5 51 61
f 5 61 67
f 5 67 66
f 5 66 57
f 5 57 48
f 5 48 47
f 5 47 38
f 5 38 29
f 5 29 17
f 5 17 10
f 6 15 16
f 6 16 7
f 10 17 18
f 10 18 11
f 11 18 12
f 12 18 17
f 12 17 19
f 13 20 21
f 13 22 20
f 14 23 24
f 14 24 25
f 15 26 27
f 15 27 28
f 15 28 16
f 16 28 27
f 17 29 30
f 17 30 19
f 19 30 31
f 20 22 32
f 22 33 32
f 24 34 35
f 24 35 25
f 26 36 37
f 26 37 27
f 29 38 30
f 30 38 31
f 31 38 39
f 32 33 40
f 32 40 41
f 34 42 35
f 35 42 43
f 35 43 44
f 36 45 46
f 36 46 37
f 38 47 39
f 39 47 48
f 39 48 49
f 40 50 51
f 40 51 41
f 43 52 53
f 43 53 54
f 43 54 44
f 45 55 46
f 46 55 56
f 48 57 58
f 48 58 49
f 50 59 60
f 50 60 51
f 51 60 61
f 52 62 63
f 52 63 54
f 52 54 53
f 55 64 56
f 56 64 65
f 57 66 58
f 58 66 59
f 59 66 67
f 59 67 60
f 60 67 61
f 62 65 63
f 63 65 64

