# https://github.com/mikedh/trimesh
v -6.55927477 13.16559753 99.58268335
v -6.71239173 14.16553796 99.58268335
v -6.83959687 14.16553796 100.22592592
v -6.76244925 13.16559753 100.31499124
v -6.84489710 12.55476578 100.22592592
v -6.78365017 12.49963267 99.58268335
v -6.55927477 13.16559753 0.60258865
v -6.93735609 14.68712558 99.58268335
v -6.94677864 14.67998658 100.10717216
v -6.71239173 14.16553796 0.60258865
v -7.46619892 14.16553796 100.49311591
v -7.46619892 13.16559753 100.55249279
v -10.87305314 11.16373410 100.19623748
v -11.46549799 11.16373410 100.47332760
v -10.75880391 11.16373410 99.58268335
v -10.73701440 11.16373410 98.58318547
v -6.78365017 12.49963267 0.60258865
v -6.84489710 12.55476578 -0.04065392
v -6.76244925 13.16559753 -0.12971924
v -6.83959687 14.16553796 -0.04065392
v -7.46619892 14.93701271 98.58318547
v -7.46619892 14.93621850 99.58268335
v -6.93735609 14.68712558 0.60258865
v -7.46619892 14.80056569 100.22592592
v -6.94677864 14.67998658 0.07809984
v -8.46617065 14.92709620 100.34467968
v -8.46617065 14.16553796 100.62176383
v -12.46547046 11.16373410 100.63166395
v -10.73701440 11.16373410 1.60208653
v -10.75880391 11.16373410 0.60258865
v -10.87305314 11.16373410 -0.01096548
v -11.46549799 11.16373410 -0.28805560
v -7.46619892 13.16559753 -0.36722079
v -7.46619892 14.16553796 -0.30784391
v -8.46617065 15.19046711 98.58318547
v -7.46619892 14.93701271 1.60208653
v -8.46617065 15.18967438 99.58268335
v -7.46619892 14.93621850 0.60258865
v -7.46619892 14.80056569 -0.04065392
v -9.46614312 14.94058146 100.36446800
v -9.46614312 15.21545582 99.58268335
v -9.46614312 14.16553796 100.63166395
v -12.57500805 11.16373410 100.63166395
v -12.46605904 11.16373410 -0.44639195
v -8.46617065 14.16553796 -0.43649183
v -8.46617065 14.92709620 -0.15940768
v -8.46617065 15.19046711 1.60208653
v -8.46617065 15.18967438 0.60258865
v -12.57500805 15.18570778 99.67174867
v -12.57500805 14.94058146 100.36446800
v -12.57500805 14.85570030 100.39415644
v -12.57500805 15.21545582 99.58268335
v -9.46614312 15.21545582 0.60258865
v -12.57500805 14.16553796 100.63166395
v -12.57500805 11.16373410 -0.44639195
v -9.46614312 14.16553796 -0.44639195
v -9.46614312 14.94058146 -0.17919600
v -12.57500805 15.21545582 0.60258865
v -12.57500805 14.16553796 -0.44639195
v -12.57500805 14.94058146 -0.17919600
f 1 2 3
f 1 3 4
f 1 4 5
f 1 5 6
f 1 6 17
f 1 17 7
f 1 7 10
f 1 10 2
f 2 8 9
f 2 9 3
f 2 10 23
f 2 23 8
f 3 9 11
f 3 11 4
f 4 11 12
f 4 12 5
f 5 13 6
f 5 12 14
f 5 14 13
f 6 13 15
f 6 15 16
f 6 16 29
f 6 29 17
f 7 17 18
f 7 18 19
f 7 19 20
f 7 20 10
f 8 21 22
f 8 22 9
f 8 23 36
f 8 36 21
f 9 22 24
f 9 24 11
f 10 20 25
f 10 25 23
f 11 24 26
f 11 26 27
f 11 27 12
f 12 27 28
f 12 28 14
f 13 14 28
f 13 28 43
f 13 43 55
f 13 55 44
f 13 44 32
f 13 32 31
f 13 31 30
f 13 30 29
f 13 29 16
f 13 16 15
f 17 29 30
f 17 30 31
f 17 31 18
f 18 31 32
f 18 32 33
f 18 33 19
f 19 33 34
f 19 34 20
f 20 34 25
f 21 35 37
f 21 37 22
f 21 36 47
f 21 47 35
f 22 37 24
f 23 25 38
f 23 38 36
f 24 37 26
f 25 34 39
f 25 39 38
f 26 40 27
f 26 37 41
f 26 41 40
f 27 42 28
f 27 40 42
f 28 42 54
f 28 54 43
f 32 44 33
f 33 44 45
f 33 45 34
f 34 46 39
f 34 45 46
f 35 41 37
f 35 47 53
f 35 53 41
f 36 38 48
f 36 48 47
f 38 39 48
f 39 46 48
f 40 41 49
f 40 49 50
f 40 50 51
f 40 51 42
f 41 52 49
f 41 53 58
f 41 58 52
f 42 51 54
f 43 54 51
f 43 51 50
f 43 50 49
f 43 49 52
f 43 52 58
f 43 58 60
f 43 60 59
f 43 59 55
f 44 55 59
f 44 59 56
f 44 56 45
f 45 56 57
f 45 57 46
f 46 57 53
f 46 53 48
f 47 48 53
f 53 57 60
f 53 60 58
f 56 59 60
f 56 60 57

