# https://github.com/mikedh/trimesh
v -2.98138569 4.16519859 100.63166395
v -9.46560371 6.48581638 100.63166395
v -7.46608940 -0.35418087 100.63166395
v -6.98682912 -0.35418087 100.58218123
v -2.98138569 3.65032418 100.57228707
v -2.98138569 5.16548771 100.53270447
v -10.46536086 6.48581638 100.62176383
v -9.46560371 6.16510777 100.63166395
v -8.46309735 6.48581638 100.54259863
v -10.46536086 6.16510777 100.61186967
v -7.98566987 -0.35418087 100.58218123
v -6.46633225 -0.35418087 100.51291019
v -2.98138569 3.16557890 100.51291019
v -2.98138569 5.79016680 100.25561436
v -11.47153208 6.48581638 100.45353332
v -7.60904250 6.48581638 100.31499124
v -8.46584656 -0.35418087 100.53270447
v -5.84045289 -0.35418087 100.24572020
v -2.98138569 2.54023075 100.24572020
v -2.98138569 5.85109449 99.92904451
v -12.14964486 6.48581638 100.23582008
v -2.98138569 5.91537039 99.58268335
v -7.22050265 6.48581638 99.58268335
v -9.09080914 -0.35418087 100.25561436
v -5.77722358 -0.35418087 99.92904451
v -5.70941227 -0.35418087 99.58268335
v -2.98138569 2.40967087 99.58268335
v -12.33750053 6.48581638 99.58268335
v -7.19576092 6.48581638 98.58318547
v -2.98138569 5.91537039 0.60258865
v -9.15587144 -0.35418087 99.90925321
v -5.70666325 -0.35418087 99.10767428
v -2.98138569 2.40431458 98.58318547
v -12.34208179 6.48581638 98.58318547
v -9.21543532 -0.35418087 99.58268335
v -7.19576092 6.48581638 1.59219237
v -2.98138569 5.85511175 0.27601879
v -7.60904250 6.48581638 -0.12971924
v -7.23241550 6.48581638 0.55310891
v -7.22050265 6.48581638 0.60258865
v -5.70391404 -0.35418087 98.58318547
v -2.98138569 2.40431458 1.60208653
v -12.34299820 6.48581638 41.90861923
v -9.21543532 -0.35418087 0.60258865
v -2.98138569 5.79016680 -0.07034236
v -7.76849046 6.48581638 -0.18909612
v -5.70391404 -0.35418087 1.60208653
v -2.98138569 2.40699263 1.08749486
v -12.34299820 6.48581638 0.80050760
v -12.33750053 6.48581638 0.60258865
v -9.15037302 -0.35418087 0.24633035
v -2.98138569 5.16548771 -0.34743247
v -8.78565888 6.48581638 -0.42659767
v -8.46309735 6.48581638 -0.35732663
v -5.70941227 -0.35418087 0.60258865
v -2.98138569 2.40967087 0.60258865
v -12.15239332 6.48581638 -0.05054808
v -9.09080914 -0.35418087 -0.07034236
v -2.98138569 4.68074242 -0.39690923
v -2.98138569 4.16519859 -0.44639195
v -9.46560371 6.48581638 -0.44639195
v -5.84045289 -0.35418087 -0.06044820
v -2.98138569 2.54023075 -0.06044820
v -11.80509043 6.48581638 -0.18909612
v -8.46584656 -0.35418087 -0.34743247
v -7.46608940 -0.35418087 -0.44639195
v -2.98138569 3.68045331 -0.39690923
v -9.78541603 6.48581638 -0.44639195
v -6.14102152 -0.35418087 -0.18909612
v -2.98138569 3.16557890 -0.32763819
v -2.98138569 2.86294799 -0.19899028
v -11.47153208 6.48581638 -0.26826132
v -10.78517318 6.48581638 -0.42659767
v -10.46536086 6.48581638 -0.43649183
v -6.94650893 -0.35418087 -0.38701507
v -6.46633225 -0.35418087 -0.32763819
f 1 2 8
f 1 8 3
f 1 3 4
f 1 4 5
f 1 5 13
f 1 13 19
f 1 19 27
f 1 27 33
f 1 33 42
f 1 42 48
f 1 48 56
f 1 56 63
f 1 63 71
f 1 71 70
f 1 70 67
f 1 67 60
f 1 60 59
f 1 59 52
f 1 52 45
f 1 45 37
f 1 37 30
f 1 30 22
f 1 22 20
f 1 20 14
f 1 14 6
f 1 6 2
f 2 7 8
f 2 6 9
f 2 9 16
f 2 16 23
f 2 23 29
f 2 29 36
f 2 36 40
f 2 40 39
f 2 39 38
f 2 38 46
f 2 46 54
f 2 54 53
f 2 53 61
f 2 61 68
f 2 68 74
f 2 74 73
f 2 73 72
f 2 72 64
f 2 64 57
f 2 57 50
f 2 50 49
f 2 49 43
f 2 43 34
f 2 34 28
f 2 28 21
f 2 21 15
f 2 15 7
f 3 8 7
f 3 7 10
f 3 10 11
f 3 11 17
f 3 17 24
f 3 24 31
f 3 31 35
f 3 35 44
f 3 44 51
f 3 51 58
f 3 58 65
f 3 65 66
f 3 66 75
f 3 75 76
f 3 76 69
f 3 69 62
f 3 62 55
f 3 55 47
f 3 47 41
f 3 41 32
f 3 32 26
f 3 26 25
f 3 25 18
f 3 18 12
f 3 12 4
f 4 12 13
f 4 13 5
f 6 14 9
f 7 15 10
f 9 14 16
f 10 15 17
f 10 17 11
f 12 18 13
f 13 18 19
f 14 20 16
f 15 21 17
f 16 20 22
f 16 22 23
f 17 21 24
f 18 25 19
f 19 25 26
f 19 26 27
f 21 28 24
f 22 29 23
f 22 30 36
f 22 36 29
f 24 28 31
f 26 32 27
f 27 32 33
f 28 34 35
f 28 35 31
f 30 37 38
f 30 38 39
f 30 39 40
f 30 40 36
f 32 41 33
f 33 41 47
f 33 47 42
f 34 43 35
f 35 43 49
f 35 49 44
f 37 45 38
f 38 45 46
f 42 47 48
f 44 49 50
f 44 50 51
f 45 52 53
f 45 53 54
f 45 54 46
f 47 55 56
f 47 56 48
f 50 57 58
f 50 58 51
f 52 59 53
f 53 59 60
f 53 60 61
f 55 62 63
f 55 63 56
f 57 64 65
f 57 65 58
f 60 66 68
f 60 68 61
f 60 67 66
f 62 69 70
f 62 70 71
f 62 71 63
f 64 72 65
f 65 72 73
f 65 73 66
f 66 73 74
f 66 74 68
f 66 67 75
f 67 70 76
f 67 76 75
f 69 76 70

