# https://github.com/mikedh/trimesh
v 8.14287807 -9.20514745 100.53270447
v 8.14287807 -8.97902194 100.51291019
v 2.53418627 -0.35418087 100.53270447
v 1.53406926 -0.35418087 100.63166395
v 7.53368690 -9.20514745 100.57228707
v 8.14287807 -9.20514745 -0.36722079
v 8.14287807 -8.83346902 100.49311591
v 3.15858113 -0.35418087 100.25561436
v -2.95071268 -4.83337983 100.63166395
v 5.53345214 -8.83346902 100.63166395
v 6.53356915 -9.20514745 100.62176383
v 6.53356915 -8.83346902 100.61186967
v 1.01392144 -0.35418087 100.57228707
v 7.90397956 -9.20514745 -0.38701507
v 1.53406926 -0.35418087 -0.44639195
v 2.05421708 -0.35418087 -0.39690923
v 2.53418627 -0.35418087 -0.34743247
v 8.14287807 -9.05959527 -0.34743247
v 8.14287807 -8.20967354 100.21603176
v 3.21830557 -0.35418087 99.93894165
v 5.53345214 -9.20514745 100.63166395
v -2.95071268 -4.31874830 100.57228707
v -2.95071268 -5.83318579 100.53270447
v 0.53395188 -0.35418087 100.51291019
v -2.95071268 -3.83444036 100.51291019
v 6.90386255 -9.20514745 -0.43649183
v 5.90483106 -9.20514745 -0.44639195
v -2.95071268 -4.83337983 -0.44639195
v -2.95071268 -4.34993838 -0.39690923
v 1.05409970 -0.35418087 -0.39690923
v 8.14287807 -8.83346902 -0.30784391
v 3.15858113 -0.35418087 -0.07034236
v 8.14287807 -8.06325488 99.58268335
v 3.28345988 -0.35418087 99.58268335
v 4.52899154 -9.20514745 100.53270447
v -2.95071268 -6.45871423 100.25561436
v 0.20926698 -0.35418087 100.37436812
v -2.95071268 -3.20891211 100.24572020
v 5.53345214 -9.20514745 -0.44639195
v 4.90471406 -9.20514745 -0.42659767
v -2.95071268 -5.34887785 -0.39690923
v -2.95071268 -3.83444036 -0.32763819
v 0.53395188 -0.35418087 -0.32763819
v 8.14287807 -8.57008917 -0.19899028
v 3.22373507 -0.35418087 0.27601879
v 8.14287807 -8.13256540 0.22653905
v 8.14287807 -8.20967354 -0.03075976
v 8.14287807 -8.04159501 98.58318547
v 3.28345988 -0.35418087 0.60258865
v 3.69610296 -9.20514745 100.30509112
v -2.95071268 -6.51936066 99.92904451
v 3.34970009 -9.20514745 99.58268335
v -0.09152851 -0.35418087 100.24572020
v -0.22292284 -0.35418087 99.58268335
v -2.95071268 -3.07808829 99.58268335
v -2.95071268 -5.83318579 -0.34743247
v 4.52899154 -9.20514745 -0.34743247
v -2.95071268 -6.45871423 -0.07034236
v -2.95071268 -3.53120672 -0.19899028
v -0.09152851 -0.35418087 -0.06044820
v 8.14287807 -8.06325488 0.60258865
v 8.14287807 -8.04159501 1.60208653
v 8.14287807 -8.05459153 0.98853240
v -2.95071268 -6.58347303 99.58268335
v 3.34970009 -9.20514745 0.60258865
v -0.22835234 -0.35418087 98.58318547
v -2.95071268 -3.07289013 98.58318547
v 3.88287832 -9.20514745 -0.19899028
v 3.69610296 -9.20514745 -0.11981912
v 3.39205052 -9.20514745 0.44425229
v -2.95071268 -6.58347303 0.60258865
v -2.95071268 -3.20891211 -0.06044820
v -0.15451084 -0.35418087 0.25622749
v -0.22835234 -0.35418087 1.60208653
v -2.95071268 -3.07289013 1.60208653
v -2.95071268 -3.07808829 0.60258865
v -0.22292284 -0.35418087 0.60258865
v -2.95071268 -3.07548921 1.08749486
f 1 2 3
f 1 3 4
f 1 4 5
f 1 5 11
f 1 11 21
f 1 21 35
f 1 35 50
f 1 50 52
f 1 52 65
f 1 65 70
f 1 70 69
f 1 69 68
f 1 68 57
f 1 57 40
f 1 40 39
f 1 39 27
f 1 27 26
f 1 26 14
f 1 14 6
f 1 6 18
f 1 18 31
f 1 31 44
f 1 44 47
f 1 47 46
f 1 46 61
f 1 61 63
f 1 63 62
f 1 62 48
f 1 48 33
f 1 33 19
f 1 19 7
f 1 7 2
f 2 7 3
f 3 7 8
f 3 8 20
f 3 20 34
f 3 34 49
f 3 49 45
f 3 45 32
f 3 32 17
f 3 17 16
f 3 16 15
f 3 15 30
f 3 30 43
f 3 43 60
f 3 60 73
f 3 73 77
f 3 77 74
f 3 74 66
f 3 66 54
f 3 54 53
f 3 53 37
f 3 37 24
f 3 24 13
f 3 13 4
f 4 9 21
f 4 21 10
f 4 10 11
f 4 11 12
f 4 12 5
f 4 13 9
f 5 12 11
f 6 14 15
f 6 15 16
f 6 16 17
f 6 17 18
f 7 19 8
f 8 19 20
f 9 13 22
f 9 22 25
f 9 25 38
f 9 38 55
f 9 55 67
f 9 67 75
f 9 75 78
f 9 78 76
f 9 76 72
f 9 72 59
f 9 59 42
f 9 42 29
f 9 29 28
f 9 28 41
f 9 41 56
f 9 56 58
f 9 58 71
f 9 71 64
f 9 64 51
f 9 51 36
f 9 36 23
f 9 23 21
f 10 21 11
f 13 24 25
f 13 25 22
f 14 26 15
f 15 26 27
f 15 27 39
f 15 39 28
f 15 28 29
f 15 29 30
f 17 31 18
f 17 32 31
f 19 33 34
f 19 34 20
f 21 23 35
f 23 36 35
f 24 37 38
f 24 38 25
f 28 39 40
f 28 40 41
f 29 42 43
f 29 43 30
f 31 32 44
f 32 45 46
f 32 46 47
f 32 47 44
f 33 48 34
f 34 48 62
f 34 62 49
f 35 36 50
f 36 51 52
f 36 52 50
f 37 53 38
f 38 53 54
f 38 54 55
f 40 56 41
f 40 57 58
f 40 58 56
f 42 59 43
f 43 59 60
f 45 49 46
f 46 49 61
f 49 62 63
f 49 63 61
f 51 64 52
f 52 64 71
f 52 71 65
f 54 66 55
f 55 66 67
f 57 68 58
f 58 69 70
f 58 70 71
f 58 68 69
f 59 72 60
f 60 72 73
f 65 71 70
f 66 74 75
f 66 75 67
f 72 76 73
f 73 76 77
f 74 77 76
f 74 76 78
f 74 78 75

