# https://github.com/mikedh/trimesh
v 0.05062811 -0.00021222 0.00177088
v 0.05062811 -0.00043681 0.00243753
v 0.05127136 -0.00049736 0.00238208
v 0.05136042 -0.00041564 0.00177088
v 0.05127136 -0.00049207 0.00077149
v 0.05062811 -0.00036508 0.00077149
v -0.04835211 -0.00021222 0.00177088
v 0.04962862 -0.00438826 0.00376727
v 0.05062811 -0.00441002 0.00376727
v 0.05124167 -0.00452525 0.00376727
v -0.04835211 -0.00043681 0.00243753
v 0.05151876 -0.00511847 0.00376727
v 0.05159793 -0.00111939 0.00177088
v 0.05153855 -0.00111939 0.00077149
v 0.05115260 -0.00059966 0.00025695
v 0.05062811 -0.00059026 0.00024982
v -0.04835211 -0.00036508 0.00077149
v -0.04899536 -0.00049207 0.00077149
v -0.04908442 -0.00041564 0.00177088
v -0.04899536 -0.00049736 0.00238208
v -0.04735262 -0.00438826 0.00376727
v -0.04896567 -0.00452819 0.00376727
v -0.04835211 -0.00441002 0.00376727
v 0.05167710 -0.00611853 0.00376727
v 0.05166720 -0.00211945 0.00077149
v 0.05139011 -0.00211945 0.00000977
v 0.05127136 -0.00111939 0.00013613
v 0.05062811 -0.00111939 0.00000066
v 0.04962862 -0.00111939 -0.00000013
v -0.04835211 -0.00059026 0.00024982
v -0.04887660 -0.00059966 0.00025695
v -0.04926255 -0.00111939 0.00077149
v -0.04932193 -0.00111939 0.00177088
v -0.04924276 -0.00512200 0.00376727
v 0.05167710 -0.00621730 0.00376727
v 0.05167710 -0.00311893 0.00077149
v 0.05140990 -0.00311893 -0.00000369
v 0.05062811 -0.00311893 -0.00027859
v 0.05062811 -0.00211945 -0.00025285
v 0.04962862 -0.00211945 -0.00025324
v -0.04735262 -0.00111939 -0.00000013
v -0.04835211 -0.00111939 0.00000066
v -0.04899536 -0.00111939 0.00013613
v -0.04911411 -0.00211945 0.00000977
v -0.04939120 -0.00211945 0.00077149
v -0.04940110 -0.00612206 0.00376727
v 0.05167710 -0.00621789 0.00287008
v 0.05157814 -0.00621789 0.00376727
v 0.05167710 -0.00621789 0.00077149
v 0.05140990 -0.00621789 -0.00000369
v 0.05070728 -0.00621789 -0.00025166
v 0.05062811 -0.00621789 -0.00027859
v 0.04962862 -0.00311893 -0.00027899
v -0.04735262 -0.00211945 -0.00025324
v -0.04835211 -0.00211945 -0.00025285
v -0.04913390 -0.00311893 -0.00000369
v -0.04835211 -0.00311893 -0.00027859
v -0.04940110 -0.00311893 0.00077149
v -0.04940110 -0.00621789 0.00376727
v 0.04962862 -0.00621789 -0.00027899
v -0.04735262 -0.00311893 -0.00027899
v -0.04913390 -0.00621789 -0.00000369
v -0.04938130 -0.00621789 0.00069465
v -0.04835211 -0.00621789 -0.00027859
v -0.04940110 -0.00621789 0.00077149
v -0.04735262 -0.00621789 -0.00027899
f 1 2 3
f 1 3 4
f 1 4 5
f 1 5 6
f 1 6 17
f 1 17 7
f 1 7 11
f 1 11 2
f 2 8 9
f 2 9 10
f 2 10 3
f 2 11 21
f 2 21 8
f 3 10 12
f 3 12 13
f 3 13 4
f 4 13 14
f 4 14 5
f 5 15 6
f 5 14 15
f 6 15 16
f 6 16 30
f 6 30 17
f 7 17 18
f 7 18 19
f 7 19 20
f 7 20 11
f 8 21 23
f 8 23 22
f 8 22 34
f 8 34 46
f 8 46 59
f 8 59 48
f 8 48 35
f 8 35 24
f 8 24 12
f 8 12 10
f 8 10 9
f 11 20 22
f 11 22 23
f 11 23 21
f 12 24 13
f 13 24 25
f 13 25 14
f 14 26 27
f 14 27 15
f 14 25 26
f 15 27 28
f 15 28 16
f 16 28 29
f 16 29 41
f 16 41 30
f 17 30 31
f 17 31 18
f 18 31 32
f 18 32 19
f 19 32 33
f 19 33 20
f 20 33 34
f 20 34 22
f 24 35 47
f 24 47 49
f 24 49 36
f 24 36 25
f 25 36 37
f 25 37 26
f 26 37 38
f 26 38 39
f 26 39 27
f 27 39 28
f 28 39 29
f 29 39 40
f 29 40 54
f 29 54 41
f 30 41 42
f 30 42 31
f 31 43 32
f 31 42 43
f 32 43 44
f 32 44 45
f 32 45 33
f 33 45 46
f 33 46 34
f 35 48 47
f 36 49 50
f 36 50 37
f 37 50 51
f 37 51 38
f 38 51 52
f 38 52 60
f 38 60 53
f 38 53 40
f 38 40 39
f 40 53 61
f 40 61 54
f 41 54 55
f 41 55 42
f 42 55 43
f 43 55 44
f 44 56 45
f 44 55 57
f 44 57 56
f 45 58 46
f 45 56 58
f 46 58 65
f 46 65 59
f 47 48 59
f 47 59 65
f 47 65 63
f 47 63 62
f 47 62 64
f 47 64 66
f 47 66 60
f 47 60 52
f 47 52 51
f 47 51 50
f 47 50 49
f 53 60 66
f 53 66 61
f 54 61 57
f 54 57 55
f 56 62 63
f 56 63 58
f 56 57 64
f 56 64 62
f 57 61 66
f 57 66 64
f 58 63 65

