# https://github.com/mikedh/trimesh
v -2.95165330 -4.83390956 100.63166395
v -7.46600149 -0.35418087 100.63166395
v -10.35793249 -7.72610543 100.63166395
v -9.35756664 -7.72610543 100.61186967
v -2.95165330 -5.83333331 100.53270447
v -2.95165330 -4.31868311 100.57228707
v -6.98605204 -0.35418087 100.58218123
v -11.35735587 -7.72610543 100.62176383
v -10.46521483 -7.72610543 100.63166395
v -7.98547616 -0.35418087 100.58218123
v -8.45883794 -7.72610543 100.40405656
v -2.95165330 -6.45896568 100.25561436
v -2.95165330 -3.83448544 100.51291019
v -6.46657737 -0.35418087 100.51291019
v -8.46542561 -0.35418087 100.53270447
v -12.39160028 -7.72610543 100.38426228
v -8.34402658 -7.72610543 100.37436812
v -8.22356854 -7.72610543 100.32488540
v -7.93653993 -7.72610543 99.99831554
v -2.95165330 -6.51958045 99.92904451
v -2.95165330 -3.20885325 100.24572020
v -5.84076078 -0.35418087 100.24572020
v -9.09030102 -0.35418087 100.25561436
v -12.43865416 -7.72610543 100.36446800
v -7.82266992 -7.72610543 99.58268335
v -2.95165330 -6.58380346 99.58268335
v -2.95165330 -3.07752113 99.58268335
v -5.77770861 -0.35418087 99.92904451
v -9.15523517 -0.35418087 99.90925321
v -12.56475850 -7.39849698 99.80039659
v -12.56475850 -7.72610543 100.14675476
v -7.82266992 -7.72610543 0.60258865
v -2.95165330 -6.58380346 0.60258865
v -5.70900995 -0.35418087 99.58268335
v -2.95165330 -3.07246974 98.58318547
v -9.21546400 -0.35418087 99.58268335
v -12.56475850 -7.33643795 99.58268335
v -12.56475850 -7.72610543 0.04841140
v -8.22356854 -7.72610543 -0.13961340
v -2.95165330 -6.45896568 -0.07034236
v -5.70430463 -0.35418087 98.58318547
v -2.95165330 -3.07246974 1.60208653
v -12.56475850 -7.32489278 98.96912923
v -9.21546400 -0.35418087 0.60258865
v -12.56475850 -7.33643795 0.60258865
v -12.56287652 -7.72610543 0.03851724
v -8.45883794 -7.72610543 -0.21878456
v -9.46579071 -7.72610543 -0.42659767
v -2.95165330 -5.83333331 -0.34743247
v -5.70430463 -0.35418087 1.60208653
v -2.95165330 -3.07752113 0.60258865
v -5.70618679 -0.35418087 1.11718330
v -12.56475850 -7.32489278 1.60208653
v -9.15052986 -0.35418087 0.24633035
v -9.09030102 -0.35418087 -0.07034236
v -12.43865416 -7.72610543 -0.17919600
v -10.46521483 -7.72610543 -0.44639195
v -2.95165330 -4.83390956 -0.44639195
v -2.95165330 -5.34913600 -0.39690923
v -2.95165330 -3.20885325 -0.06044820
v -5.84076078 -0.35418087 -0.06044820
v -5.70900995 -0.35418087 0.60258865
v -8.46542561 -0.35418087 -0.34743247
v -11.46746266 -7.72610543 -0.40680935
v -10.46521483 -6.83347937 -0.43649183
v -7.46600149 -0.35418087 -0.44639195
v -2.95165330 -4.34899031 -0.39690923
v -2.95165330 -3.53141086 -0.19899028
v -6.46657737 -0.35418087 -0.32763819
v -6.14096452 -0.35418087 -0.18909612
v -6.94652681 -0.35418087 -0.38701507
v -2.95165330 -3.83448544 -0.32763819
f 1 2 9
f 1 9 3
f 1 3 4
f 1 4 5
f 1 5 12
f 1 12 20
f 1 20 26
f 1 26 33
f 1 33 40
f 1 40 49
f 1 49 59
f 1 59 58
f 1 58 67
f 1 67 72
f 1 72 68
f 1 68 60
f 1 60 51
f 1 51 42
f 1 42 35
f 1 35 27
f 1 27 21
f 1 21 13
f 1 13 6
f 1 6 7
f 1 7 2
f 2 8 9
f 2 7 14
f 2 14 22
f 2 22 28
f 2 28 34
f 2 34 41
f 2 41 50
f 2 50 52
f 2 52 62
f 2 62 61
f 2 61 70
f 2 70 69
f 2 69 71
f 2 71 66
f 2 66 63
f 2 63 55
f 2 55 54
f 2 54 44
f 2 44 36
f 2 36 29
f 2 29 23
f 2 23 15
f 2 15 10
f 2 10 8
f 3 9 8
f 3 8 16
f 3 16 24
f 3 24 31
f 3 31 38
f 3 38 46
f 3 46 56
f 3 56 64
f 3 64 57
f 3 57 48
f 3 48 47
f 3 47 39
f 3 39 32
f 3 32 25
f 3 25 19
f 3 19 18
f 3 18 17
f 3 17 11
f 3 11 4
f 4 11 12
f 4 12 5
f 6 13 7
f 7 13 14
f 8 10 15
f 8 15 16
f 11 17 12
f 12 18 19
f 12 19 20
f 12 17 18
f 13 21 14
f 14 21 22
f 15 23 24
f 15 24 16
f 19 25 26
f 19 26 20
f 21 27 22
f 22 27 28
f 23 29 30
f 23 30 31
f 23 31 24
f 25 32 33
f 25 33 26
f 27 34 28
f 27 35 34
f 29 36 30
f 30 36 37
f 30 37 43
f 30 43 53
f 30 53 45
f 30 45 38
f 30 38 31
f 32 39 33
f 33 39 40
f 34 35 41
f 35 42 50
f 35 50 41
f 36 43 37
f 36 44 53
f 36 53 43
f 38 45 46
f 39 47 40
f 40 47 48
f 40 48 49
f 42 51 52
f 42 52 50
f 44 54 45
f 44 45 53
f 45 54 55
f 45 55 46
f 46 55 56
f 48 57 58
f 48 58 59
f 48 59 49
f 51 60 61
f 51 61 62
f 51 62 52
f 55 63 56
f 56 63 64
f 57 64 65
f 57 65 66
f 57 66 58
f 58 66 67
f 60 68 69
f 60 69 70
f 60 70 61
f 63 66 64
f 64 66 65
f 66 71 67
f 67 71 69
f 67 69 72
f 68 72 69

