# https://github.com/mikedh/trimesh
v 12.58394019 12.16605495 98.58318547
v 12.47742896 13.16541723 99.58268335
v 12.58277047 12.16605495 99.58268335
v 12.58394019 9.28010737 98.58318547
v 12.58394019 12.16605495 1.60208653
v 12.20237281 13.92946391 99.58268335
v 12.14619216 13.84172923 100.21603176
v 12.25504282 13.16541723 100.32488540
v 12.47742896 13.16541723 0.60258865
v 12.33931603 9.28010737 100.27540268
v 12.58277047 9.28010737 99.58268335
v 12.30771432 12.16605495 100.36446800
v 12.58394019 9.28010737 1.60208653
v 12.58277047 12.16605495 0.60258865
v 11.79739621 14.42972693 99.58268335
v 12.20237281 13.92946391 0.60258865
v 11.20982916 14.77834109 100.21603176
v 11.53872652 14.17117048 100.35457384
v 11.53287347 13.16541723 100.60197551
v 12.25504282 13.16541723 -0.13961340
v 12.14619216 13.84172923 -0.03075976
v 12.30771432 9.28010737 100.36446800
v 11.53287347 12.16605495 100.63166395
v 11.62182852 9.28010737 100.60197551
v 12.58277047 9.28010737 0.60258865
v 12.55233848 9.28010737 0.51352333
v 12.30771432 12.16605495 -0.17919600
v 11.29761300 14.83470054 99.58268335
v 11.79739621 14.42972693 0.60258865
v 10.53330705 15.10952573 99.58268335
v 10.53330705 14.88757321 100.32488540
v 10.53330705 14.16536064 100.60197551
v 11.53287347 13.16541723 -0.41670351
v 11.53872652 14.17117048 -0.16930184
v 11.20982916 14.77834109 -0.03075976
v 11.53287347 9.28010737 100.63166395
v 10.53330705 13.16541723 100.63166395
v 12.30771432 9.28010737 -0.17919600
v 11.53287347 12.16605495 -0.44639195
v 11.29761300 14.83470054 0.60258865
v 9.53257016 15.21527105 99.58268335
v 10.53330705 15.10952573 0.60258865
v 9.53257016 14.94044736 100.36446800
v 9.53257016 14.16536064 100.63166395
v 10.53330705 14.16536064 -0.41670351
v 10.53330705 14.88757321 -0.13961340
v 6.53387015 9.28010737 100.63166395
v 11.53287347 9.28010737 -0.44639195
v 10.53330705 13.16541723 -0.44639195
v 3.53399967 15.21527105 99.58268335
v 9.53257016 15.21527105 0.60258865
v 3.53399967 14.94044736 100.36446800
v 3.53399967 14.16536064 100.63166395
v 9.53257016 14.16536064 -0.44639195
v 9.53257016 14.94044736 -0.17919600
v 2.53443250 14.16536064 100.62176383
v 5.64900743 9.28010737 100.61186967
v 6.53387015 9.28010737 -0.44639195
v 2.53443250 15.19028681 98.58318547
v 2.53443250 15.18970717 99.58268335
v 2.53443250 14.92708279 100.34467968
v 3.53399967 15.21527105 0.60258865
v 3.53399967 14.16536064 -0.44639195
v 3.53399967 14.94044736 -0.17919600
v 1.53486571 13.16541723 100.55249279
v 1.53486571 14.16536064 100.49311591
v 5.53430298 9.28010737 100.60197551
v 5.53430298 9.28010737 -0.41670351
v 2.53443250 14.16536064 -0.43649183
v 1.53486571 14.93696056 98.58318547
v 2.53443250 15.19028681 1.60208653
v 1.53486571 14.93637943 99.58268335
v 1.53486571 14.80041967 100.22592592
v 2.53443250 14.92708279 -0.15940768
v 2.53443250 15.18970717 0.60258865
v 0.83025328 13.16541723 100.31499124
v 0.91335528 12.55418018 100.22592592
v 4.63305455 9.28010737 100.39415644
v 1.01518466 14.67956638 100.10717216
v 0.90750297 14.16536064 100.22592592
v 1.53486571 13.16541723 -0.36722079
v 4.56048596 9.28010737 -0.17919600
v 1.53486571 14.16536064 -0.30784391
v 1.00582097 14.68711962 99.58268335
v 1.53486571 14.93696056 1.60208653
v 1.53486571 14.80041967 -0.04065392
v 1.53486571 14.93637943 0.60258865
v 0.62659451 13.16541723 99.58268335
v 4.13678273 9.28010737 99.76081101
v 4.56048596 9.28010737 100.36446800
v 0.85249167 12.49898299 99.58268335
v 4.08996428 9.28010737 99.58268335
v 0.78109428 14.16536064 99.58268335
v 0.83025328 13.16541723 -0.12971924
v 0.91335528 12.55418018 -0.04065392
v 4.08996428 9.28010737 0.60258865
v 0.90750297 14.16536064 -0.04065392
v 1.01518466 14.67956638 0.07809984
v 1.00582097 14.68711962 0.60258865
v 0.62659451 13.16541723 0.60258865
v 4.07474828 9.28010737 98.89985819
v 0.85249167 12.49898299 0.60258865
v 0.78109428 14.16536064 0.60258865
v 4.07474828 9.28010737 1.60208653
f 1 2 3
f 1 3 11
f 1 11 4
f 1 4 13
f 1 13 5
f 1 5 9
f 1 9 2
f 2 6 7
f 2 7 8
f 2 8 3
f 2 9 16
f 2 16 6
f 3 10 11
f 3 8 12
f 3 12 10
f 4 11 10
f 4 10 22
f 4 22 24
f 4 24 36
f 4 36 47
f 4 47 57
f 4 57 67
f 4 67 78
f 4 78 90
f 4 90 89
f 4 89 92
f 4 92 101
f 4 101 104
f 4 104 96
f 4 96 82
f 4 82 68
f 4 68 58
f 4 58 48
f 4 48 38
f 4 38 26
f 4 26 25
f 4 25 13
f 5 13 25
f 5 25 14
f 5 14 9
f 6 15 7
f 6 16 29
f 6 29 15
f 7 15 17
f 7 17 18
f 7 18 19
f 7 19 8
f 8 19 12
f 9 14 20
f 9 20 21
f 9 21 16
f 10 12 22
f 12 19 23
f 12 23 24
f 12 24 22
f 14 25 26
f 14 26 27
f 14 27 20
f 15 28 17
f 15 29 40
f 15 40 28
f 16 21 29
f 17 28 30
f 17 30 31
f 17 31 32
f 17 32 18
f 18 32 19
f 19 32 23
f 20 27 33
f 20 33 21
f 21 33 34
f 21 34 35
f 21 35 29
f 23 36 24
f 23 32 37
f 23 37 44
f 23 44 53
f 23 53 47
f 23 47 36
f 26 38 27
f 27 38 48
f 27 48 39
f 27 39 33
f 28 40 42
f 28 42 30
f 29 35 40
f 30 41 31
f 30 42 51
f 30 51 41
f 31 41 43
f 31 43 32
f 32 44 37
f 32 43 44
f 33 39 45
f 33 45 34
f 34 45 35
f 35 45 46
f 35 46 42
f 35 42 40
f 39 48 58
f 39 58 63
f 39 63 54
f 39 54 49
f 39 49 45
f 41 50 52
f 41 52 43
f 41 51 62
f 41 62 50
f 42 46 51
f 43 52 53
f 43 53 44
f 45 49 54
f 45 54 55
f 45 55 46
f 46 55 51
f 47 53 56
f 47 56 57
f 50 59 60
f 50 60 61
f 50 61 52
f 50 62 71
f 50 71 59
f 51 55 64
f 51 64 62
f 52 61 56
f 52 56 53
f 54 63 64
f 54 64 55
f 56 65 57
f 56 61 66
f 56 66 65
f 57 65 67
f 58 68 69
f 58 69 63
f 59 70 72
f 59 72 60
f 59 71 85
f 59 85 70
f 60 72 73
f 60 73 61
f 61 73 66
f 62 64 74
f 62 74 75
f 62 75 71
f 63 69 64
f 64 69 74
f 65 66 76
f 65 76 77
f 65 77 78
f 65 78 67
f 66 73 79
f 66 79 80
f 66 80 76
f 68 81 69
f 68 82 81
f 69 81 83
f 69 83 74
f 70 84 72
f 70 85 99
f 70 99 84
f 71 75 87
f 71 87 85
f 72 84 79
f 72 79 73
f 74 83 86
f 74 86 75
f 75 86 87
f 76 80 88
f 76 88 77
f 77 89 90
f 77 90 78
f 77 88 91
f 77 91 92
f 77 92 89
f 79 84 93
f 79 93 80
f 80 93 88
f 81 94 83
f 81 82 95
f 81 95 94
f 82 96 95
f 83 94 97
f 83 97 98
f 83 98 86
f 84 99 103
f 84 103 93
f 85 87 99
f 86 98 87
f 87 98 99
f 88 93 103
f 88 103 100
f 88 100 102
f 88 102 91
f 91 101 92
f 91 102 104
f 91 104 101
f 94 95 100
f 94 100 97
f 95 96 102
f 95 102 100
f 96 104 102
f 97 100 103
f 97 103 98
f 98 103 99

