# https://github.com/mikedh/trimesh
v -0.04835211 -0.01011849 0.01886363
v -0.04835211 -0.01111869 0.01901813
v -0.04899536 -0.01111869 0.01914454
v -0.04908442 -0.01011849 0.01906729
v -0.04899536 -0.00950742 0.01915039
v -0.04835211 -0.00945208 0.01908953
v 0.05062811 -0.01011849 0.01886363
v -0.04835211 -0.01164005 0.01924286
v -0.04887660 -0.01163306 0.01925222
v 0.05062811 -0.01111869 0.01901813
v -0.04926255 -0.01111869 0.01977190
v -0.04932193 -0.01011849 0.01977190
v -0.04855993 -0.00621847 0.02234222
v -0.04835211 -0.00621847 0.02228370
v -0.04914380 -0.00621847 0.02278465
v -0.04772867 -0.00621847 0.02227082
v 0.05062811 -0.00945208 0.01908953
v 0.05127136 -0.00950742 0.01915039
v 0.05136042 -0.01011849 0.01906729
v 0.05127136 -0.01111869 0.01914454
v -0.04735262 -0.01188996 0.01977190
v -0.04835211 -0.01188938 0.01977190
v 0.05062811 -0.01164005 0.01924286
v -0.04899536 -0.01175365 0.01977190
v 0.05115260 -0.01163306 0.01925222
v -0.04911411 -0.01188006 0.02077147
v -0.04939120 -0.01111869 0.02077147
v -0.04938130 -0.00621847 0.02377135
v 0.04962862 -0.00621847 0.02227082
v 0.05062811 -0.00621847 0.02228370
v 0.05141980 -0.00621847 0.02278465
v 0.05143959 -0.00621847 0.02284318
v 0.05159793 -0.01011849 0.01977190
v 0.05153855 -0.01111869 0.01977190
v -0.04735262 -0.01214336 0.02077147
v 0.04962862 -0.01188996 0.01977190
v -0.04835211 -0.01214278 0.02077147
v 0.05062811 -0.01188938 0.01977190
v 0.05127136 -0.01175365 0.01977190
v -0.04913390 -0.01189345 0.02177104
v -0.04835211 -0.01216841 0.02177104
v -0.04940110 -0.01111869 0.02177104
v -0.04940110 -0.00621847 0.02477091
v 0.05165730 -0.00621847 0.02377135
v 0.05166720 -0.00621847 0.02387083
v 0.05166720 -0.01111869 0.02077147
v 0.05139011 -0.01188006 0.02077147
v -0.04735262 -0.01216899 0.02177104
v 0.04962862 -0.01214336 0.02077147
v 0.05062811 -0.01214278 0.02077147
v -0.04913390 -0.01189345 0.02776962
v -0.04835211 -0.01216841 0.02776962
v -0.04940110 -0.01111869 0.02776962
v -0.04940110 -0.00621847 0.02976992
v 0.05167710 -0.00621847 0.02477091
v 0.05167710 -0.01111869 0.02177104
v 0.05140990 -0.01189345 0.02177104
v 0.05062811 -0.01216841 0.02177104
v -0.04735262 -0.01216899 0.02776962
v 0.04962862 -0.01216899 0.02177104
v -0.04909432 -0.01184044 0.02877035
v -0.04937141 -0.01111869 0.02877035
v -0.04835211 -0.01206297 0.02877035
v -0.04940110 -0.01011849 0.02877035
v -0.04940110 -0.00911888 0.02976992
v -0.04913390 -0.00621847 0.03054476
v 0.05167710 -0.00621847 0.02976992
v 0.05167710 -0.01111869 0.02776962
v 0.05140990 -0.01189345 0.02776962
v 0.05062811 -0.01216841 0.02776962
v 0.04962862 -0.01216899 0.02776962
v -0.04898546 -0.01173093 0.02944688
v -0.04937141 -0.01011849 0.02976992
v -0.04912401 -0.01112394 0.02977577
v -0.04835211 -0.01178743 0.02953466
v 0.00363180 -0.01206297 0.02877035
v -0.04913390 -0.00911888 0.03054476
v -0.04843128 -0.00621847 0.03079290
v 0.05167710 -0.00911888 0.02976992
v 0.05165730 -0.00621847 0.02984717
v 0.05167710 -0.01011849 0.02877035
v 0.05164741 -0.01111869 0.02877035
v 0.05137032 -0.01184044 0.02877035
v 0.05062811 -0.01206239 0.02877035
v -0.04898546 -0.01079481 0.03038324
v -0.04835211 -0.01138258 0.03003444
v -0.04909432 -0.01011849 0.03049209
v 0.05062811 -0.01178743 0.02953466
v -0.04835211 -0.00911888 0.03081982
v -0.04835211 -0.00621847 0.03081982
v 0.05140990 -0.00911888 0.03054476
v 0.05164741 -0.01011849 0.02976992
v 0.05140990 -0.00621847 0.03054476
v 0.05140001 -0.01112394 0.02977577
v 0.05126146 -0.01173093 0.02944571
v -0.04835211 -0.01088277 0.03043942
v -0.04835211 -0.01011849 0.03071448
v 0.05062811 -0.01138258 0.03003444
v -0.04735262 -0.00911888 0.03082099
v -0.04735262 -0.00621847 0.03082099
v 0.05133074 -0.00621847 0.03057285
v 0.05062811 -0.00911888 0.03081982
v 0.05137032 -0.01011849 0.03049209
v 0.05126146 -0.01079481 0.03038324
v 0.05062811 -0.01088277 0.03043942
v 0.05062811 -0.01011849 0.03071448
v 0.04962862 -0.00911888 0.03082099
v 0.04962862 -0.00621847 0.03082099
v 0.05062811 -0.00621847 0.03081982
f 1 2 3
f 1 3 4
f 1 4 5
f 1 5 6
f 1 6 17
f 1 17 7
f 1 7 10
f 1 10 2
f 2 8 9
f 2 9 3
f 2 10 23
f 2 23 8
f 3 9 11
f 3 11 4
f 4 11 12
f 4 12 5
f 5 13 14
f 5 14 6
f 5 12 15
f 5 15 13
f 6 14 16
f 6 16 29
f 6 29 17
f 7 17 18
f 7 18 19
f 7 19 20
f 7 20 10
f 8 21 22
f 8 22 9
f 8 23 36
f 8 36 21
f 9 24 11
f 9 22 24
f 10 20 25
f 10 25 23
f 11 24 26
f 11 26 27
f 11 27 12
f 12 27 28
f 12 28 15
f 13 15 28
f 13 28 43
f 13 43 54
f 13 54 66
f 13 66 78
f 13 78 90
f 13 90 100
f 13 100 108
f 13 108 109
f 13 109 101
f 13 101 93
f 13 93 80
f 13 80 67
f 13 67 55
f 13 55 45
f 13 45 44
f 13 44 32
f 13 32 31
f 13 31 30
f 13 30 29
f 13 29 16
f 13 16 14
f 17 29 30
f 17 30 18
f 18 31 32
f 18 32 33
f 18 33 19
f 18 30 31
f 19 34 20
f 19 33 34
f 20 34 25
f 21 35 37
f 21 37 22
f 21 36 49
f 21 49 35
f 22 37 24
f 23 25 38
f 23 38 36
f 24 37 26
f 25 34 39
f 25 39 38
f 26 40 27
f 26 37 41
f 26 41 40
f 27 42 43
f 27 43 28
f 27 40 42
f 32 44 33
f 33 44 45
f 33 45 46
f 33 46 34
f 34 47 39
f 34 46 47
f 35 48 41
f 35 41 37
f 35 49 60
f 35 60 48
f 36 38 50
f 36 50 49
f 38 39 50
f 39 47 50
f 40 41 52
f 40 52 51
f 40 51 53
f 40 53 42
f 41 48 59
f 41 59 52
f 42 53 64
f 42 64 65
f 42 65 54
f 42 54 43
f 45 55 46
f 46 55 56
f 46 56 57
f 46 57 47
f 47 57 58
f 47 58 50
f 48 60 71
f 48 71 59
f 49 50 58
f 49 58 60
f 51 61 62
f 51 62 53
f 51 52 61
f 52 59 63
f 52 63 61
f 53 62 64
f 54 65 77
f 54 77 66
f 55 67 79
f 55 79 81
f 55 81 68
f 55 68 56
f 56 68 69
f 56 69 57
f 57 69 70
f 57 70 58
f 58 70 71
f 58 71 60
f 59 71 76
f 59 76 63
f 61 72 62
f 61 63 72
f 62 73 65
f 62 65 64
f 62 72 74
f 62 74 73
f 63 75 72
f 63 76 88
f 63 88 75
f 65 73 77
f 66 77 78
f 67 80 79
f 68 81 82
f 68 82 69
f 69 83 70
f 69 82 83
f 70 83 84
f 70 84 71
f 71 84 76
f 72 85 74
f 72 75 86
f 72 86 85
f 73 74 85
f 73 85 87
f 73 87 77
f 75 88 98
f 75 98 86
f 76 84 88
f 77 87 89
f 77 89 78
f 78 89 90
f 79 80 91
f 79 91 92
f 79 92 82
f 79 82 81
f 80 93 91
f 82 92 94
f 82 94 95
f 82 95 83
f 83 95 84
f 84 95 88
f 85 86 96
f 85 96 97
f 85 97 87
f 86 98 105
f 86 105 96
f 87 97 89
f 88 95 98
f 89 97 99
f 89 99 100
f 89 100 90
f 91 93 101
f 91 101 102
f 91 102 103
f 91 103 92
f 92 103 104
f 92 104 94
f 94 104 95
f 95 104 98
f 96 105 106
f 96 106 97
f 97 106 107
f 97 107 99
f 98 104 105
f 99 107 108
f 99 108 100
f 101 109 102
f 102 109 108
f 102 108 107
f 102 107 106
f 102 106 103
f 103 106 104
f 104 106 105

