# https://github.com/mikedh/trimesh
v 0.06813764 0.10453921 0.00612627
v 0.08909755 0.09887426 0.00943983
v 0.07284193 0.10436371 0.00627357
v 0.07753649 0.10426168 0.00636547
v 0.06813764 0.10453921 0.00377760
v 0.00479036 0.10446574 0.00546816
v 0.09058774 0.09887426 0.00943983
v 0.00479036 0.08438127 0.01304663
v 0.08224078 0.10408617 0.00637087
v 0.07753649 0.10426168 0.00407760
v 0.06813764 0.10104146 0.00246541
v 0.06344308 0.10104146 0.00233974
v 0.06344308 0.10449431 0.00366273
v 0.04465512 0.10449431 0.00339246
v 0.00479036 0.10446574 0.00331272
v 0.09058774 0.09848244 0.00943983
v 0.10103848 0.07284729 0.00714655
v 0.10103848 0.07754904 0.00710872
v 0.10403832 0.07754904 0.00577222
v 0.10026904 0.08694438 0.00638573
v 0.09925611 0.09037274 0.00598978
v 0.09093837 0.09926607 0.00704926
v 0.08526984 0.10373926 0.00581816
v 0.01985774 0.08225079 0.01304663
v 0.02115313 0.08203448 0.01304663
v 0.02583794 0.08063865 0.01304663
v 0.03534393 0.07643482 0.01304663
v 0.03723344 0.07556141 0.01304663
v 0.03779834 0.07529612 0.01304663
v 0.04005796 0.07413293 0.01304663
v 0.04459668 0.07159023 0.01304663
v 0.05238848 0.06630076 0.01304663
v 0.05460913 0.06450087 0.01304663
v 0.05641099 0.06284791 0.01304663
v 0.00479036 0.07929995 0.01304663
v 0.08224078 0.10408617 0.00421813
v 0.07284193 0.07973667 0.00008026
v 0.07284193 0.10104146 0.00269650
v 0.07753649 0.09634380 0.00222893
v 0.04465512 0.10104146 0.00202081
v 0.03995083 0.10104146 0.00194514
v 0.03995083 0.10448615 0.00333030
v 0.00704998 0.10104146 0.00185460
v 0.00479036 0.10269443 0.00255867
v 0.03525627 0.10446574 0.00331272
v 0.10103848 0.06814963 0.00696953
v 0.10428181 0.06814963 0.00581546
v 0.10423311 0.07284729 0.00586951
v 0.10403832 0.07754904 0.00403166
v 0.10370717 0.08141411 0.00533437
v 0.09925611 0.09037274 0.00442625
v 0.09499010 0.09496838 0.00624520
v 0.09499010 0.09496838 0.00448301
v 0.08526984 0.10373926 0.00446679
v 0.10103848 0.06284791 0.00657087
v 0.10103848 0.06344788 0.00663709
v 0.04802507 0.06284791 0.01304663
v 0.00479036 0.07938566 0.01229391
v 0.04957369 0.06284791 0.00729385
v 0.04836596 0.06284791 0.01174796
v 0.04809325 0.06284791 0.01278040
v 0.08224078 0.10104146 0.00332083
v 0.07753649 0.10104146 0.00294515
v 0.07606578 0.07667563 -0.00005625
v 0.07284193 0.07738579 -0.00011704
v 0.01175428 0.08694438 0.00050999
v 0.03525627 0.10104146 0.00192487
v 0.08224078 0.09634380 0.00255596
v 0.00704998 0.09164205 0.00096000
v 0.00479036 0.10104146 0.00186406
v 0.10418441 0.06344788 0.00564248
v 0.10428181 0.06814963 0.00369922
v 0.10423311 0.07284729 0.00380597
v 0.10370717 0.08141411 0.00436544
v 0.10103848 0.07284729 0.00254920
v 0.10103848 0.07754904 0.00291001
v 0.10026904 0.08694438 0.00411003
v 0.09633418 0.08694438 0.00313976
v 0.09647054 0.09182163 0.00408300
v 0.08687690 0.10092311 0.00414246
v 0.10415520 0.06284791 0.00560059
v 0.00479036 0.07946321 0.01162769
v 0.04962239 0.06284791 0.00715196
v 0.00479036 0.07982237 0.00864523
v 0.08693533 0.09634380 0.00323029
v 0.07753649 0.06814963 -0.00029138
v 0.07284193 0.06814963 -0.00056705
v 0.07284193 0.07284729 -0.00036298
v 0.08693533 0.09164205 0.00247893
v 0.09163963 0.08694438 0.00247082
v 0.09633418 0.08224671 0.00257353
v 0.08009804 0.07094129 -0.00001706
v 0.08381862 0.06284791 -0.00009544
v 0.07759492 0.07264323 -0.00011435
v 0.00704998 0.08694438 0.00053026
v 0.06813764 0.06814963 -0.00060759
v 0.00479036 0.09860897 0.00163973
v 0.10418441 0.06344788 0.00367219
v 0.10103848 0.06344788 0.00231677
v 0.10103848 0.06814963 0.00237488
v 0.10148651 0.08268750 0.00377489
v 0.08493869 0.06284791 0.00001133
v 0.09633418 0.07754904 0.00226406
v 0.09163963 0.09164205 0.00317084
v 0.10415520 0.06284791 0.00368975
v 0.05095673 0.06284791 0.00443300
v 0.00479036 0.08013256 0.00633033
v 0.07753649 0.06344788 -0.00046299
v 0.08250375 0.06357848 -0.00015082
v 0.07814035 0.06284791 -0.00044814
v 0.07753649 0.06284791 -0.00048055
v 0.07343605 0.06284791 -0.00067247
v 0.07284193 0.06344788 -0.00068191
v 0.06813764 0.06344788 -0.00075625
v 0.08305892 0.06284791 -0.00014272
v 0.00479036 0.08694438 0.00057756
v 0.06344308 0.06344788 -0.00071706
v 0.05873878 0.06344788 -0.00065759
v 0.10103848 0.06284791 0.00232892
v 0.05202810 0.06284791 0.00238974
v 0.00479036 0.08074476 0.00501950
v 0.05466758 0.06284791 -0.00027785
v 0.07284193 0.06284791 -0.00069003
v 0.06874150 0.06284791 -0.00075491
v 0.06813764 0.06284791 -0.00075625
v 0.06344308 0.06284791 -0.00072110
v 0.00479036 0.08223855 0.00258568
v 0.05934265 0.06284791 -0.00066975
v 0.05874853 0.06284791 -0.00062921
v 0.05508638 0.06284791 -0.00032111
f 1 2 3
f 1 3 4
f 1 4 10
f 1 10 5
f 1 5 15
f 1 15 6
f 1 6 2
f 2 7 4
f 2 4 3
f 2 6 8
f 2 8 7
f 4 7 9
f 4 9 36
f 4 36 10
f 5 11 12
f 5 12 13
f 5 13 14
f 5 14 15
f 5 10 11
f 6 15 44
f 6 44 70
f 6 70 97
f 6 97 116
f 6 116 127
f 6 127 121
f 6 121 107
f 6 107 84
f 6 84 82
f 6 82 58
f 6 58 35
f 6 35 8
f 7 16 17
f 7 17 18
f 7 18 19
f 7 19 20
f 7 20 21
f 7 21 22
f 7 22 23
f 7 23 9
f 7 8 24
f 7 24 25
f 7 25 26
f 7 26 27
f 7 27 28
f 7 28 29
f 7 29 30
f 7 30 31
f 7 31 32
f 7 32 33
f 7 33 34
f 7 34 16
f 8 35 57
f 8 57 34
f 8 34 33
f 8 33 32
f 8 32 31
f 8 31 30
f 8 30 29
f 8 29 28
f 8 28 27
f 8 27 26
f 8 26 25
f 8 25 24
f 9 23 54
f 9 54 36
f 10 36 11
f 11 37 12
f 11 36 38
f 11 38 39
f 11 39 37
f 12 37 40
f 12 40 13
f 13 40 41
f 13 41 14
f 14 41 42
f 14 42 15
f 15 43 44
f 15 42 45
f 15 45 43
f 16 34 17
f 17 46 47
f 17 47 48
f 17 48 18
f 17 34 46
f 18 48 19
f 19 48 73
f 19 73 49
f 19 49 74
f 19 74 50
f 19 50 20
f 20 50 21
f 21 50 74
f 21 74 51
f 21 51 53
f 21 53 52
f 21 52 22
f 22 52 53
f 22 53 54
f 22 54 23
f 34 55 56
f 34 56 46
f 34 57 61
f 34 61 60
f 34 60 59
f 34 59 83
f 34 83 106
f 34 106 120
f 34 120 122
f 34 122 130
f 34 130 129
f 34 129 128
f 34 128 126
f 34 126 125
f 34 125 124
f 34 124 123
f 34 123 112
f 34 112 111
f 34 111 110
f 34 110 115
f 34 115 93
f 34 93 102
f 34 102 119
f 34 119 105
f 34 105 81
f 34 81 55
f 35 58 59
f 35 59 60
f 35 60 61
f 35 61 57
f 36 54 62
f 36 62 63
f 36 63 38
f 37 39 64
f 37 64 65
f 37 65 66
f 37 66 67
f 37 67 41
f 37 41 40
f 38 63 39
f 39 63 68
f 39 68 64
f 41 67 42
f 42 67 43
f 42 43 45
f 43 66 69
f 43 69 70
f 43 70 44
f 43 67 66
f 46 56 71
f 46 71 47
f 47 71 98
f 47 98 72
f 47 72 73
f 47 73 48
f 49 73 75
f 49 75 76
f 49 76 74
f 51 74 77
f 51 77 78
f 51 78 79
f 51 79 53
f 53 79 80
f 53 80 54
f 54 80 62
f 55 81 56
f 56 81 71
f 58 82 59
f 59 82 84
f 59 84 83
f 62 68 63
f 62 80 85
f 62 85 68
f 64 86 87
f 64 87 88
f 64 88 65
f 64 68 89
f 64 89 90
f 64 90 91
f 64 91 92
f 64 92 93
f 64 93 94
f 64 94 86
f 65 88 66
f 66 95 69
f 66 88 96
f 66 96 95
f 68 85 89
f 69 95 97
f 69 97 70
f 71 81 105
f 71 105 98
f 72 98 99
f 72 99 100
f 72 100 73
f 73 100 75
f 74 101 77
f 74 76 101
f 75 100 102
f 75 102 103
f 75 103 91
f 75 91 76
f 76 91 78
f 76 78 101
f 77 101 78
f 78 91 90
f 78 90 89
f 78 89 104
f 78 104 79
f 79 104 85
f 79 85 80
f 83 84 107
f 83 107 106
f 85 104 89
f 86 108 87
f 86 94 93
f 86 93 109
f 86 109 110
f 86 110 108
f 87 108 111
f 87 111 112
f 87 112 113
f 87 113 114
f 87 114 96
f 87 96 88
f 91 103 92
f 92 103 102
f 92 102 93
f 93 115 109
f 95 116 97
f 95 96 117
f 95 117 118
f 95 118 116
f 96 114 117
f 98 105 119
f 98 119 99
f 99 119 102
f 99 102 100
f 106 107 120
f 107 121 122
f 107 122 120
f 108 110 111
f 109 115 110
f 112 123 113
f 113 123 124
f 113 124 114
f 114 124 125
f 114 125 126
f 114 126 117
f 116 118 128
f 116 128 129
f 116 129 130
f 116 130 122
f 116 122 127
f 117 126 128
f 117 128 118
f 121 127 122

