# https://github.com/mikedh/trimesh
v 0.04802007 0.06284791 0.01304798
v 0.05641262 0.06284791 0.01304798
v 0.04836724 0.06284791 0.01174883
v 0.07965605 -0.00463829 -0.00027469
v 0.07919867 -0.00463829 0.00235062
v 0.07835556 -0.00463829 0.01304798
v 0.10104243 0.06284791 0.00657213
v 0.05732737 0.06206180 0.01304798
v 0.04956854 0.06284791 0.00729277
v 0.08224049 -0.00463829 -0.00098679
v 0.04961813 0.06284791 0.00715205
v 0.05095168 0.06284791 0.00443295
v 0.05202623 0.06284791 0.00238900
v 0.05468231 0.06284791 -0.00027755
v 0.08289073 -0.00463829 0.01304798
v 0.10415588 0.06284791 0.00559990
v 0.05797761 0.06134175 0.01304798
v 0.05968037 0.05945246 0.01304798
v 0.06168069 0.05710075 0.01304798
v 0.06597339 0.05190188 0.01304798
v 0.06640321 0.05132716 0.01304798
v 0.06855232 0.04842055 0.01304798
v 0.07004017 0.04640575 0.01304798
v 0.07144535 0.04406064 0.01304798
v 0.07603011 0.03462737 0.01304798
v 0.08024016 0.02446084 0.01304798
v 0.08044406 0.02368795 0.01304798
v 0.08111083 0.02115127 0.01304798
v 0.08136982 0.01985651 0.01304798
v 0.08197047 0.01645445 0.01304798
v 0.08212476 0.01515308 0.01304798
v 0.08243336 0.01175103 0.01304798
v 0.08251601 0.01045627 0.01304798
v 0.08299543 0.00235079 0.01304798
v 0.08224049 0.01645445 -0.00145303
v 0.08694097 -0.00463829 -0.00120997
v 0.05509009 0.06284791 -0.00032158
v 0.05875460 0.06284791 -0.00063003
v 0.10395199 -0.00463829 0.00507115
v 0.08296237 -0.00364740 0.01304798
v 0.10415588 0.06284791 0.00369098
v 0.08300094 0.00105603 0.01304798
v 0.08300645 -0.00234603 0.01304798
v 0.10431569 0.03524172 0.00543076
v 0.08224049 0.02115127 -0.00147292
v 0.05934974 0.06284791 -0.00066983
v 0.08694097 0.00235079 -0.00119717
v 0.09957663 -0.00463829 -0.00007712
v 0.10395199 -0.00463829 0.00295043
v 0.10431569 0.03524172 0.00326599
v 0.10159348 0.01645445 0.00066912
v 0.10146673 0.02115127 0.00068048
v 0.10104243 0.06284791 0.00232929
v 0.08224049 0.02585469 -0.00133930
v 0.08694097 0.04464196 -0.00051207
v 0.09104632 0.04934538 -0.00011267
v 0.09205475 0.04493262 -0.00016382
v 0.09164146 0.03994514 -0.00031592
v 0.08694097 0.02585469 -0.00100528
v 0.09890985 0.02444763 -0.00001742
v 0.08694097 0.02115127 -0.00107635
v 0.08694097 0.01645445 -0.00112327
v 0.08694097 0.01175103 -0.00116305
v 0.08694097 0.00705421 -0.00118579
v 0.06344957 0.06284791 -0.00072101
v 0.06815005 0.06284791 -0.00075653
v 0.06874519 0.06284791 -0.00075513
v 0.07285054 0.06284791 -0.00068972
v 0.07344568 0.06284791 -0.00067126
v 0.10072282 -0.00463829 0.00025123
v 0.09924048 0.01645445 -0.00004869
v 0.10192411 -0.00463829 0.00060088
v 0.10425507 0.03054490 0.00316934
v 0.09911925 0.02115127 -0.00003731
v 0.09390078 0.04668980 0.00005507
v 0.08928295 0.05637410 0.00000675
v 0.08515556 0.06209483 -0.00003731
v 0.08494065 0.06284791 0.00001101
v 0.07754000 0.05874563 -0.00060162
v 0.07754000 0.06284791 -0.00048080
v 0.08224049 0.05404220 -0.00049215
v 0.09015361 0.05324289 -0.00005011
v 0.09423692 0.04355198 -0.00002454
v 0.09164146 0.03524172 -0.00041682
v 0.09584599 0.03054490 -0.00015670
v 0.09164146 0.02585469 -0.00060731
v 0.09634194 0.02115127 -0.00027612
v 0.09164146 0.02115127 -0.00067695
v 0.09672217 0.02595378 -0.00017376
v 0.09528392 0.03524172 -0.00010838
v 0.09164146 0.01645445 -0.00071958
v 0.09634194 0.01645445 -0.00030738
v 0.07814065 0.06284791 -0.00044809
v 0.08306156 0.06284791 -0.00014250
v 0.08381650 0.06284791 -0.00009418
v 0.08224049 0.05874563 -0.00034007
f 1 2 7
f 1 7 16
f 1 16 41
f 1 41 53
f 1 53 78
f 1 78 95
f 1 95 94
f 1 94 93
f 1 93 80
f 1 80 69
f 1 69 68
f 1 68 67
f 1 67 66
f 1 66 65
f 1 65 46
f 1 46 38
f 1 38 37
f 1 37 14
f 1 14 13
f 1 13 12
f 1 12 11
f 1 11 9
f 1 9 3
f 1 3 4
f 1 4 5
f 1 5 6
f 1 6 15
f 1 15 40
f 1 40 43
f 1 43 42
f 1 42 34
f 1 34 33
f 1 33 32
f 1 32 31
f 1 31 30
f 1 30 29
f 1 29 28
f 1 28 27
f 1 27 26
f 1 26 25
f 1 25 24
f 1 24 23
f 1 23 22
f 1 22 21
f 1 21 20
f 1 20 19
f 1 19 18
f 1 18 17
f 1 17 8
f 1 8 2
f 2 8 7
f 3 9 4
f 4 10 36
f 4 36 48
f 4 48 70
f 4 70 72
f 4 72 49
f 4 49 39
f 4 39 15
f 4 15 6
f 4 6 5
f 4 9 11
f 4 11 12
f 4 12 13
f 4 13 14
f 4 14 10
f 7 8 17
f 7 17 18
f 7 18 19
f 7 19 20
f 7 20 21
f 7 21 22
f 7 22 23
f 7 23 24
f 7 24 25
f 7 25 26
f 7 26 27
f 7 27 28
f 7 28 29
f 7 29 30
f 7 30 31
f 7 31 32
f 7 32 33
f 7 33 34
f 7 34 16
f 10 35 36
f 10 14 37
f 10 37 38
f 10 38 35
f 15 39 40
f 16 34 42
f 16 42 43
f 16 43 44
f 16 44 50
f 16 50 41
f 35 45 36
f 35 38 46
f 35 46 45
f 36 47 48
f 36 45 47
f 39 43 40
f 39 49 50
f 39 50 44
f 39 44 43
f 41 50 51
f 41 51 52
f 41 52 53
f 45 54 55
f 45 55 56
f 45 56 57
f 45 57 58
f 45 58 59
f 45 59 60
f 45 60 61
f 45 61 62
f 45 62 63
f 45 63 64
f 45 64 47
f 45 46 65
f 45 65 66
f 45 66 67
f 45 67 68
f 45 68 69
f 45 69 54
f 47 64 48
f 48 64 71
f 48 71 70
f 49 72 73
f 49 73 50
f 50 73 72
f 50 72 51
f 51 71 74
f 51 74 52
f 51 72 71
f 52 74 60
f 52 60 53
f 53 75 76
f 53 76 77
f 53 77 78
f 53 60 75
f 54 69 79
f 54 79 80
f 54 80 81
f 54 81 55
f 55 81 82
f 55 82 56
f 56 82 75
f 56 75 83
f 56 83 57
f 57 83 58
f 58 83 84
f 58 84 59
f 59 84 85
f 59 85 86
f 59 86 60
f 60 74 87
f 60 87 88
f 60 88 61
f 60 86 89
f 60 89 85
f 60 85 90
f 60 90 83
f 60 83 75
f 61 88 62
f 62 88 87
f 62 87 91
f 62 91 63
f 63 91 74
f 63 74 92
f 63 92 64
f 64 92 71
f 69 80 79
f 70 71 72
f 71 92 74
f 74 91 87
f 75 82 76
f 76 93 94
f 76 94 95
f 76 95 77
f 76 82 93
f 77 95 78
f 80 93 81
f 81 93 96
f 81 96 82
f 82 96 93
f 83 90 84
f 84 90 85
f 85 89 86

