# https://github.com/mikedh/trimesh
v -0.06518872 -0.04542941 0.01304798
v -0.06518872 -0.04563246 0.01174822
v -0.06518872 -0.05403877 0.01304798
v 0.00326727 -0.08073128 0.01304798
v 0.00326727 -0.08135784 0.00235031
v -0.06518872 -0.04645626 0.00728629
v -0.06518872 -0.10104219 0.00765061
v -0.06444492 -0.05490319 0.01304798
v 0.00326727 -0.08531443 0.01304798
v 0.00326727 -0.08324911 -0.00077390
v -0.06518872 -0.04772098 0.00342499
v -0.06518872 -0.04712923 0.00449266
v -0.06518872 -0.04650268 0.00706122
v -0.04676136 -0.07107185 0.01304798
v -0.04730413 -0.07071796 0.01304798
v -0.04955561 -0.06912256 0.01304798
v -0.05271842 -0.06672076 0.01304798
v -0.05506372 -0.06446979 0.01304798
v -0.05676574 -0.06276996 0.01304798
v -0.05976103 -0.05976481 0.01304798
v -0.06144964 -0.05806498 0.01304798
v -0.06209293 -0.05741522 0.01304798
v -0.06518872 -0.10426199 0.00627912
v -0.03994658 -0.10467970 0.00585430
v 0.00234925 -0.08536665 0.01304798
v -0.00105479 -0.08541886 0.01304798
v -0.00235475 -0.08543626 0.01304798
v -0.00575209 -0.08539565 0.01304798
v -0.00705206 -0.08536085 0.01304798
v -0.01045609 -0.08514039 0.01304798
v -0.01161534 -0.08504756 0.01304798
v -0.01451011 -0.08468788 0.01304798
v -0.02585467 -0.08174074 0.01304798
v -0.02951334 -0.08048182 0.01304798
v -0.03896155 -0.07595668 0.01304798
v -0.03960484 -0.07557379 0.01304798
v -0.02115067 -0.10441283 0.00546184
v 0.00326727 -0.10387330 0.00499483
v 0.00326727 -0.08693884 -0.00131826
v -0.06518872 -0.05112644 -0.00021684
v -0.06518872 -0.05100460 -0.00013950
v -0.06518872 -0.05077255 0.00010527
v -0.06518872 -0.04859120 0.00245862
v -0.06518872 -0.10426199 0.00405799
v -0.06343980 -0.10433162 0.00614830
v -0.04934119 -0.10465069 0.00592745
v -0.04464389 -0.10469130 0.00585711
v -0.03994658 -0.10467970 0.00328011
v -0.02115067 -0.10441283 0.00315632
v 0.00326727 -0.10387330 0.00274698
v 0.00326727 -0.10006754 -0.00008463
v 0.00234925 -0.08693884 -0.00132249
v -0.06360062 -0.05416640 -0.00038708
v -0.06518872 -0.05272184 -0.00031814
v -0.06518872 -0.10104219 0.00297908
v -0.06343980 -0.10104219 0.00281029
v -0.06343980 -0.10433162 0.00397500
v -0.04934119 -0.10465069 0.00342499
v -0.04464389 -0.10469130 0.00334764
v -0.00705206 -0.10253317 0.00039363
v -0.01645336 -0.10430841 0.00299878
v 0.00326727 -0.10241713 0.00039786
v 0.00326727 -0.10052585 0.00000539
v -0.00705206 -0.10018357 -0.00011275
v -0.00235475 -0.09164382 -0.00090189
v -0.00235475 -0.08693884 -0.00128311
v -0.06343980 -0.05874956 -0.00055728
v -0.06518872 -0.05412579 -0.00038988
v -0.06518872 -0.09929595 0.00268087
v -0.06518872 -0.09634300 0.00226309
v -0.06343980 -0.09634300 0.00214774
v -0.02399183 -0.09901168 -0.00007336
v -0.05404519 -0.10104219 0.00226168
v -0.01174936 -0.10234172 0.00044146
v -0.02115067 -0.09926114 -0.00012541
v -0.01174936 -0.09999212 -0.00012401
v -0.01645336 -0.09953961 -0.00013387
v -0.02115067 -0.09634300 -0.00031534
v -0.04934119 -0.07284710 -0.00047991
v -0.05404519 -0.06814792 -0.00054039
v -0.05874250 -0.06344873 -0.00055585
v -0.06343980 -0.06344873 -0.00035472
v -0.06518872 -0.06352995 -0.00027452
v -0.06518872 -0.05874956 -0.00047288
v -0.06518872 -0.05700912 -0.00049677
v -0.06518872 -0.09459677 0.00209429
v -0.05186071 -0.07999450 -0.00000585
v -0.05716779 -0.07579424 -0.00003118
v -0.05404519 -0.07284710 -0.00030548
v -0.05873579 -0.07293412 -0.00011418
v -0.06222694 -0.07143154 -0.00004664
v -0.05874250 -0.06814792 -0.00034626
v -0.06365422 -0.06836837 -0.00012824
v -0.06518872 -0.06771281 -0.00009166
f 1 2 6
f 1 6 13
f 1 13 12
f 1 12 11
f 1 11 43
f 1 43 42
f 1 42 41
f 1 41 40
f 1 40 54
f 1 54 68
f 1 68 85
f 1 85 84
f 1 84 83
f 1 83 94
f 1 94 86
f 1 86 70
f 1 70 69
f 1 69 55
f 1 55 44
f 1 44 23
f 1 23 7
f 1 7 3
f 1 3 8
f 1 8 22
f 1 22 21
f 1 21 20
f 1 20 19
f 1 19 18
f 1 18 17
f 1 17 16
f 1 16 15
f 1 15 14
f 1 14 36
f 1 36 35
f 1 35 34
f 1 34 33
f 1 33 32
f 1 32 31
f 1 31 30
f 1 30 29
f 1 29 28
f 1 28 27
f 1 27 26
f 1 26 25
f 1 25 9
f 1 9 4
f 1 4 5
f 1 5 2
f 2 5 6
f 3 7 8
f 4 9 38
f 4 38 50
f 4 50 62
f 4 62 63
f 4 63 51
f 4 51 39
f 4 39 10
f 4 10 5
f 5 10 11
f 5 11 12
f 5 12 13
f 5 13 6
f 7 14 15
f 7 15 16
f 7 16 17
f 7 17 18
f 7 18 19
f 7 19 20
f 7 20 21
f 7 21 22
f 7 22 8
f 7 23 24
f 7 24 25
f 7 25 26
f 7 26 27
f 7 27 28
f 7 28 29
f 7 29 30
f 7 30 31
f 7 31 32
f 7 32 33
f 7 33 34
f 7 34 35
f 7 35 36
f 7 36 14
f 9 37 38
f 9 25 24
f 9 24 37
f 10 39 40
f 10 40 41
f 10 41 42
f 10 42 43
f 10 43 11
f 23 44 57
f 23 57 45
f 23 45 46
f 23 46 24
f 24 46 47
f 24 47 59
f 24 59 48
f 24 48 49
f 24 49 37
f 37 49 50
f 37 50 38
f 39 51 52
f 39 52 53
f 39 53 40
f 40 53 54
f 44 55 56
f 44 56 57
f 45 57 58
f 45 58 46
f 46 58 59
f 46 59 47
f 48 59 60
f 48 60 61
f 48 61 49
f 49 61 50
f 50 61 62
f 51 63 64
f 51 64 65
f 51 65 52
f 52 65 66
f 52 66 67
f 52 67 53
f 53 67 68
f 53 68 54
f 55 69 56
f 56 69 70
f 56 70 71
f 56 71 72
f 56 72 73
f 56 73 57
f 57 73 74
f 57 74 58
f 58 74 60
f 58 60 59
f 60 74 75
f 60 75 76
f 60 76 64
f 60 64 62
f 60 62 61
f 62 64 63
f 64 76 65
f 65 76 77
f 65 77 75
f 65 75 66
f 66 75 78
f 66 78 79
f 66 79 80
f 66 80 81
f 66 81 67
f 67 81 82
f 67 82 83
f 67 83 84
f 67 84 85
f 67 85 68
f 70 86 71
f 71 86 72
f 72 78 75
f 72 75 74
f 72 74 73
f 72 86 87
f 72 87 88
f 72 88 89
f 72 89 79
f 72 79 78
f 75 77 76
f 79 89 80
f 80 89 90
f 80 90 91
f 80 91 92
f 80 92 81
f 81 92 93
f 81 93 94
f 81 94 82
f 82 94 83
f 86 94 91
f 86 91 88
f 86 88 87
f 88 91 90
f 88 90 89
f 91 94 93
f 91 93 92

