# https://github.com/mikedh/trimesh
v 0.04693711 -0.05189372 0.09048948
v -0.01037964 -0.07040820 0.09048948
v 0.04693711 -0.05893278 0.09048948
v 0.04693711 -0.05499706 0.07141602
v -0.01037964 -0.07753170 0.03302726
v -0.01037964 -0.07372867 0.06207335
v -0.01037964 -0.07355979 0.06344579
v -0.01037964 -0.07555931 0.09048948
v 0.04569719 -0.06001850 0.09048948
v 0.04608432 -0.06031405 0.08694028
v 0.04693711 -0.05923738 0.08878519
v 0.04693711 -0.06080866 0.03644710
v 0.04693711 -0.06141485 0.03302726
v -0.01037964 -0.08245059 0.03302726
v -0.00704700 -0.07596344 0.09048948
v -0.01037964 -0.08001678 0.05595927
v -0.00984103 -0.07997154 0.05699985
v 0.04392428 -0.06140881 0.09048948
v 0.04693711 -0.05955405 0.08694028
v 0.04693711 -0.05932786 0.08826208
v 0.04373353 -0.06213866 0.08694028
v 0.04693711 -0.06587232 0.04721282
v 0.04693711 -0.06783565 0.03302726
v -0.00926876 -0.08250186 0.03302726
v -0.00704700 -0.08251694 0.03524902
v -0.01037964 -0.08236011 0.03524902
v -0.00350118 -0.07609614 0.09048948
v -0.00704700 -0.08166344 0.04464795
v -0.01037964 -0.08182329 0.04131810
v -0.01037964 -0.08198916 0.03995129
v -0.00704700 -0.08223646 0.03995129
v 0.04334640 -0.06185516 0.09048948
v 0.03768542 -0.06586025 0.08987075
v 0.04104049 -0.06971454 0.04935022
v 0.04492295 -0.06706660 0.04896211
v 0.04231968 -0.07051375 0.03775765
v 0.04693711 -0.06707866 0.03866324
v 0.04508565 -0.06916867 0.03302726
v 0.04693711 -0.06780850 0.03324662
v -0.00704700 -0.08255916 0.03302726
v -0.00234542 -0.08264059 0.03302726
v 0.00235056 -0.08270091 0.03302726
v -0.00234542 -0.08256519 0.03524902
v -0.01037964 -0.08227567 0.03662146
v -0.00234542 -0.07613534 0.09048948
v -0.00234542 -0.08227869 0.03995129
v 0.00235056 -0.08178710 0.04464795
v 0.03836990 -0.06528724 0.09048948
v 0.03691117 -0.06625231 0.09048948
v 0.03928441 -0.07147883 0.04464795
v 0.04025502 -0.07156026 0.03957444
v 0.04274047 -0.07079423 0.03302726
v 0.04385135 -0.07003422 0.03302726
v 0.04489489 -0.06902089 0.03524902
v 0.04693711 -0.06754613 0.03524902
v 0.00705215 -0.08258329 0.03302726
v 0.00235056 -0.08259837 0.03524902
v 0.00235056 -0.08231789 0.03995129
v 0.00120041 -0.07614137 0.09048948
v 0.00705215 -0.08057773 0.05404686
v 0.00235056 -0.07614137 0.09048948
v 0.03552538 -0.06706660 0.09048948
v 0.03309604 -0.07530296 0.04312927
v 0.03581712 -0.07416296 0.03995129
v 0.03424619 -0.07594534 0.03302726
v 0.01175374 -0.08222742 0.03302726
v 0.00705215 -0.08244757 0.03524902
v 0.00705215 -0.08203139 0.03995129
v 0.00705215 -0.08110852 0.04935022
v 0.01011548 -0.08002582 0.05740482
v 0.00720364 -0.07574629 0.09048948
v 0.03458282 -0.06753708 0.09048948
v 0.03306237 -0.07058915 0.07592705
v 0.03083501 -0.07588201 0.04467607
v 0.03054327 -0.07662994 0.03995129
v 0.03054327 -0.07717582 0.03524902
v 0.03346633 -0.07550804 0.03995129
v 0.02823736 -0.07050772 0.08940391
v 0.03399933 -0.07581265 0.03524902
v 0.03054327 -0.07737487 0.03302726
v 0.01644972 -0.08160313 0.03302726
v 0.01175374 -0.08201630 0.03524902
v 0.01170886 -0.08018868 0.05368126
v 0.01416064 -0.07991424 0.05187009
v 0.01644972 -0.07643090 0.07284471
v 0.01418869 -0.07520947 0.08472976
v 0.01002571 -0.07530597 0.09023637
v 0.00956565 -0.07535423 0.09048948
v 0.03026835 -0.06946423 0.09048948
v 0.03106504 -0.06971756 0.08694028
v 0.02355821 -0.07991424 0.03302726
v 0.02690206 -0.07081835 0.09048948
v 0.02595389 -0.07114105 0.09048948
v 0.02933701 -0.06985931 0.09048948
v 0.02113448 -0.08057170 0.03302726
v 0.01908104 -0.07528788 0.07597205
v 0.02114570 -0.07265502 0.09048948
v 0.01664609 -0.07568598 0.07754135
v 0.01998433 -0.07292946 0.09048948
f 1 2 8
f 1 8 15
f 1 15 27
f 1 27 45
f 1 45 59
f 1 59 61
f 1 61 71
f 1 71 88
f 1 88 99
f 1 99 97
f 1 97 93
f 1 93 92
f 1 92 94
f 1 94 89
f 1 89 72
f 1 72 62
f 1 62 49
f 1 49 48
f 1 48 32
f 1 32 18
f 1 18 9
f 1 9 3
f 1 3 11
f 1 11 20
f 1 20 19
f 1 19 22
f 1 22 37
f 1 37 55
f 1 55 39
f 1 39 23
f 1 23 13
f 1 13 12
f 1 12 4
f 1 4 5
f 1 5 6
f 1 6 7
f 1 7 2
f 2 7 6
f 2 6 5
f 2 5 14
f 2 14 26
f 2 26 44
f 2 44 30
f 2 30 29
f 2 29 16
f 2 16 8
f 3 9 10
f 3 10 11
f 4 12 5
f 5 12 13
f 5 13 23
f 5 23 38
f 5 38 53
f 5 53 52
f 5 52 65
f 5 65 80
f 5 80 91
f 5 91 95
f 5 95 81
f 5 81 66
f 5 66 56
f 5 56 42
f 5 42 41
f 5 41 40
f 5 40 24
f 5 24 14
f 8 16 17
f 8 17 15
f 9 18 10
f 10 19 20
f 10 20 11
f 10 18 21
f 10 21 22
f 10 22 19
f 14 24 25
f 14 25 26
f 15 17 28
f 15 28 27
f 16 29 17
f 17 29 30
f 17 30 31
f 17 31 28
f 18 32 21
f 21 32 33
f 21 33 34
f 21 34 35
f 21 35 22
f 22 35 36
f 22 36 37
f 23 39 38
f 24 40 25
f 25 40 41
f 25 41 42
f 25 42 43
f 25 43 31
f 25 31 26
f 26 31 44
f 27 28 45
f 28 31 45
f 30 44 31
f 31 43 46
f 31 46 47
f 31 47 45
f 32 48 33
f 33 48 49
f 33 49 34
f 34 50 36
f 34 36 35
f 34 49 50
f 36 51 52
f 36 52 53
f 36 53 38
f 36 38 54
f 36 54 37
f 36 50 51
f 37 54 55
f 38 39 54
f 39 55 54
f 42 56 57
f 42 57 43
f 43 57 58
f 43 58 46
f 45 47 59
f 46 58 47
f 47 58 69
f 47 69 60
f 47 60 61
f 47 61 59
f 49 62 50
f 50 63 64
f 50 64 51
f 50 62 63
f 51 64 65
f 51 65 52
f 56 66 67
f 56 67 58
f 56 58 57
f 58 67 68
f 58 68 69
f 60 69 70
f 60 70 61
f 61 70 71
f 62 72 73
f 62 73 63
f 63 74 75
f 63 75 76
f 63 76 77
f 63 77 64
f 63 73 78
f 63 78 74
f 64 77 79
f 64 79 65
f 65 79 76
f 65 76 80
f 66 81 82
f 66 82 68
f 66 68 67
f 68 82 70
f 68 70 69
f 70 82 83
f 70 83 84
f 70 84 85
f 70 85 86
f 70 86 87
f 70 87 88
f 70 88 71
f 72 89 90
f 72 90 73
f 73 90 78
f 74 91 75
f 74 78 92
f 74 92 93
f 74 93 91
f 75 91 76
f 76 79 77
f 76 91 80
f 78 90 89
f 78 89 94
f 78 94 92
f 81 95 84
f 81 84 83
f 81 83 82
f 84 95 91
f 84 91 96
f 84 96 85
f 85 96 97
f 85 97 98
f 85 98 86
f 86 97 99
f 86 99 87
f 86 98 97
f 87 99 88
f 91 93 97
f 91 97 96

