# https://github.com/mikedh/trimesh
v 0.01163017 0.08584315 0.01252804
v 0.01163017 0.08048595 0.01252804
v 0.01163017 0.08508631 0.01953520
v 0.01625676 0.08494331 0.01483606
v 0.01625676 0.08517002 0.01252804
v 0.01163017 0.08047897 0.01256601
v 0.05828886 0.05432074 0.01252804
v 0.05828886 0.05021565 0.03099029
v 0.01163017 0.08452129 0.02415664
v 0.01625676 0.08439573 0.01953520
v 0.01856320 0.08473405 0.01252804
v 0.01163017 0.07779340 0.03099029
v 0.05828886 0.06254489 0.01252804
v 0.05828886 0.05865255 0.03099029
v 0.01163017 0.08451083 0.02423256
v 0.01625676 0.08367027 0.02423256
v 0.02007038 0.08275300 0.02423256
v 0.02135834 0.08310177 0.01988403
v 0.02095643 0.08395278 0.01483606
v 0.02095643 0.08423181 0.01252804
v 0.01163017 0.08340521 0.03099029
v 0.05828886 0.06210892 0.01483606
v 0.05674971 0.06408648 0.01252804
v 0.05653048 0.06387373 0.01483606
v 0.05828886 0.05913037 0.02893172
v 0.05716076 0.05981746 0.03099029
v 0.01163017 0.08377142 0.02885580
v 0.01637094 0.08285065 0.02894617
v 0.01911127 0.08248792 0.02739002
v 0.01552144 0.08268673 0.03099029
v 0.02318979 0.08224378 0.02168416
v 0.02393882 0.08256466 0.01855200
v 0.02473808 0.08282972 0.01483606
v 0.02533639 0.08294831 0.01252804
v 0.02341816 0.08351681 0.01252804
v 0.01163017 0.08350635 0.03041195
v 0.01166214 0.08340172 0.03099029
v 0.05626102 0.06361912 0.01750916
v 0.05828886 0.06127535 0.01892071
v 0.05392717 0.06659070 0.01252804
v 0.05828886 0.06015926 0.02423256
v 0.05739368 0.06005114 0.02893172
v 0.05549829 0.06291460 0.02423256
v 0.05493195 0.06239841 0.02893172
v 0.05467619 0.06216822 0.03099029
v 0.02565152 0.07972562 0.03099029
v 0.02818633 0.07880136 0.03099029
v 0.03035119 0.07920594 0.02423256
v 0.03035119 0.07991744 0.01953520
v 0.03020047 0.08098470 0.01252804
v 0.05315074 0.06498981 0.02423256
v 0.05591391 0.06329476 0.02064132
v 0.05789151 0.06056384 0.02423256
v 0.05828886 0.06095098 0.02048228
v 0.05828886 0.06123350 0.01912494
v 0.05168467 0.06840782 0.01336667
v 0.05177144 0.06848456 0.01252804
v 0.05258440 0.06449455 0.02893172
v 0.05232407 0.06426785 0.03099029
v 0.02975289 0.07820844 0.03099029
v 0.03047451 0.07835143 0.02860457
v 0.03279465 0.07769225 0.02682251
v 0.03329248 0.07793291 0.02423256
v 0.03416025 0.07834795 0.01953520
v 0.03519244 0.07893738 0.01252804
v 0.05133299 0.06807998 0.01649883
v 0.05094934 0.06779049 0.01953520
v 0.05034190 0.06734057 0.02423256
v 0.04913616 0.07042375 0.01252804
v 0.04951524 0.06973666 0.01489389
v 0.04860179 0.06960064 0.01953520
v 0.04969792 0.06684182 0.02893172
v 0.04927317 0.06670929 0.03099029
v 0.03086729 0.07768179 0.03099029
v 0.03483620 0.07577398 0.03099029
v 0.03879598 0.07375805 0.03099029
v 0.03563546 0.07674358 0.02423256
v 0.03756283 0.07773759 0.01305942
v 0.03532489 0.07856070 0.01470955
v 0.03763133 0.07777596 0.01252804
v 0.04798978 0.06914374 0.02423256
v 0.04735038 0.06866243 0.02893172
v 0.04718596 0.07185025 0.01252804
v 0.04596651 0.07233853 0.01483606
v 0.04531796 0.07195139 0.01953520
v 0.04705807 0.06844619 0.03099029
v 0.03915222 0.07396383 0.02893172
v 0.03982817 0.07314072 0.03099029
v 0.04013874 0.07424285 0.02446571
v 0.04245432 0.07317559 0.02305415
v 0.04296585 0.07350693 0.01953520
v 0.04361439 0.07392198 0.01483606
v 0.03980533 0.07650292 0.01252804
v 0.04625424 0.07252687 0.01252804
v 0.04615833 0.06904609 0.03099029
v 0.04114809 0.07233156 0.03099029
v 0.04456894 0.07009939 0.03099029
v 0.04410765 0.07396732 0.01252804
f 1 2 6
f 1 6 12
f 1 12 21
f 1 21 36
f 1 36 27
f 1 27 15
f 1 15 9
f 1 9 3
f 1 3 4
f 1 4 5
f 1 5 11
f 1 11 20
f 1 20 35
f 1 35 34
f 1 34 50
f 1 50 65
f 1 65 80
f 1 80 93
f 1 93 98
f 1 98 94
f 1 94 83
f 1 83 69
f 1 69 57
f 1 57 40
f 1 40 23
f 1 23 13
f 1 13 7
f 1 7 2
f 2 7 8
f 2 8 6
f 3 9 10
f 3 10 4
f 4 10 11
f 4 11 5
f 6 8 12
f 7 13 22
f 7 22 39
f 7 39 55
f 7 55 54
f 7 54 41
f 7 41 25
f 7 25 14
f 7 14 8
f 8 14 26
f 8 26 45
f 8 45 59
f 8 59 73
f 8 73 86
f 8 86 95
f 8 95 97
f 8 97 96
f 8 96 88
f 8 88 76
f 8 76 75
f 8 75 74
f 8 74 60
f 8 60 47
f 8 47 46
f 8 46 30
f 8 30 37
f 8 37 21
f 8 21 12
f 9 15 10
f 10 15 16
f 10 16 17
f 10 17 18
f 10 18 19
f 10 19 20
f 10 20 11
f 13 23 24
f 13 24 22
f 14 25 26
f 15 27 16
f 16 28 29
f 16 29 17
f 16 27 30
f 16 30 28
f 17 29 31
f 17 31 32
f 17 32 18
f 18 32 19
f 19 32 33
f 19 33 34
f 19 34 35
f 19 35 20
f 21 37 36
f 22 24 38
f 22 38 39
f 23 40 24
f 24 40 38
f 25 41 42
f 25 42 26
f 26 42 43
f 26 43 44
f 26 44 45
f 27 36 30
f 28 30 29
f 29 30 46
f 29 46 31
f 30 36 37
f 31 46 32
f 32 46 47
f 32 47 48
f 32 48 33
f 33 48 34
f 34 48 49
f 34 49 50
f 38 51 52
f 38 52 53
f 38 53 54
f 38 54 55
f 38 55 39
f 38 40 56
f 38 56 51
f 40 57 56
f 41 54 53
f 41 53 42
f 42 53 52
f 42 52 43
f 43 51 58
f 43 58 44
f 43 52 51
f 44 58 45
f 45 58 59
f 47 60 48
f 48 60 61
f 48 61 62
f 48 62 63
f 48 63 64
f 48 64 49
f 49 64 65
f 49 65 50
f 51 56 66
f 51 66 67
f 51 67 68
f 51 68 58
f 56 57 69
f 56 69 70
f 56 70 71
f 56 71 66
f 58 68 59
f 59 68 72
f 59 72 73
f 60 74 62
f 60 62 61
f 62 75 76
f 62 76 77
f 62 77 63
f 62 74 75
f 63 77 64
f 64 77 78
f 64 78 79
f 64 79 65
f 65 79 78
f 65 78 80
f 66 71 67
f 67 71 68
f 68 71 81
f 68 81 82
f 68 82 72
f 69 83 70
f 70 83 71
f 71 83 84
f 71 84 85
f 71 85 81
f 72 82 86
f 72 86 73
f 76 87 77
f 76 88 87
f 77 87 78
f 78 87 89
f 78 89 90
f 78 90 91
f 78 91 92
f 78 92 93
f 78 93 80
f 81 85 82
f 82 85 86
f 83 94 84
f 84 94 92
f 84 92 85
f 85 92 91
f 85 91 90
f 85 90 86
f 86 90 95
f 87 88 90
f 87 90 89
f 88 96 90
f 90 96 97
f 90 97 95
f 92 94 98
f 92 98 93

