# https://github.com/mikedh/trimesh
v 0.05166670 0.05292646 0.08825800
v 0.05314729 0.05145168 0.08825800
v 0.05716477 0.05981294 0.03099212
v 0.05467761 0.06216260 0.03099212
v 0.05232799 0.06426229 0.03099212
v 0.05166670 0.06478721 0.03099212
v 0.05166670 0.04490265 0.08825800
v 0.05565199 0.04883957 0.08825800
v 0.05951440 0.05738830 0.03099212
v 0.05166670 0.05721958 0.03099212
v 0.05166670 0.04638993 0.08061695
v 0.06842133 0.00094664 0.08825800
v 0.06166798 0.05503865 0.03099212
v 0.05761245 0.04648991 0.08825800
v 0.05166670 0.05694462 0.03217499
v 0.07646799 0.00094664 0.03099212
v 0.07482355 0.00094664 0.03943483
v 0.07360923 0.00094664 0.04856151
v 0.07309717 0.00094664 0.05242969
v 0.05166670 0.04924575 0.06638316
v 0.07351852 0.00094664 0.08825800
v 0.05166670 0.05343889 0.04727211
v 0.06412879 0.05200785 0.03099212
v 0.05996208 0.04349036 0.08825800
v 0.06089257 0.04475267 0.07826801
v 0.08155641 0.00094664 0.03099212
v 0.07518053 0.00094664 0.07972558
v 0.07348926 0.00482106 0.08825800
v 0.06575568 0.04967069 0.03214696
v 0.06586102 0.04981442 0.03099212
v 0.06059119 0.04261548 0.08825800
v 0.06164457 0.04114070 0.08825800
v 0.07984466 0.00094664 0.04418316
v 0.08154470 0.00482106 0.03099212
v 0.07970129 0.00282136 0.04547816
v 0.07970129 0.00198398 0.04547816
v 0.07515712 0.00482106 0.07954619
v 0.07325518 0.00952037 0.08825800
v 0.06680321 0.04650866 0.03833044
v 0.06644916 0.04893955 0.03099212
v 0.06570302 0.04490889 0.05070862
v 0.06379814 0.03759123 0.08825800
v 0.06576738 0.03565401 0.08401983
v 0.06465549 0.03849734 0.08061695
v 0.06564449 0.04013460 0.06916937
v 0.08138377 0.00745817 0.03099212
v 0.08120236 0.00482106 0.03363256
v 0.08058496 0.00482106 0.03833044
v 0.07506641 0.00784562 0.07884543
v 0.07310595 0.01127011 0.08825800
v 0.06953615 0.04356534 0.03363256
v 0.06973805 0.04394029 0.03099212
v 0.06487202 0.03577899 0.08825800
v 0.07040227 0.03557277 0.05551302
v 0.07034082 0.04014710 0.04099892
v 0.07095530 0.04121569 0.03363256
v 0.06531970 0.03502285 0.08825800
v 0.06655742 0.03277944 0.08825800
v 0.08125503 0.00952037 0.03099212
v 0.08090683 0.00952037 0.03363256
v 0.07969836 0.01193251 0.04075787
v 0.07526830 0.00945788 0.07593589
v 0.07509860 0.01248868 0.07438301
v 0.07276067 0.01421343 0.08825800
v 0.07054857 0.04262173 0.03099212
v 0.07200867 0.03770371 0.03833044
v 0.07119816 0.03794117 0.04275363
v 0.07041397 0.03092971 0.06967952
v 0.07557847 0.03253572 0.03099212
v 0.07116890 0.04159063 0.03099212
v 0.06852374 0.02817387 0.08825800
v 0.07033497 0.02607418 0.08326301
v 0.08093023 0.01215748 0.03099212
v 0.08064641 0.01437590 0.03099212
v 0.07527123 0.01411969 0.07094088
v 0.07503129 0.01674430 0.06919180
v 0.07244466 0.01596942 0.08825800
v 0.08020457 0.01460087 0.03400817
v 0.07988270 0.01748169 0.03269075
v 0.07402765 0.03579149 0.03099212
v 0.07322006 0.03747874 0.03099212
v 0.07519808 0.03116093 0.03735498
v 0.07547606 0.03183582 0.03363256
v 0.07620464 0.03085472 0.03099212
v 0.07069487 0.02275592 0.08825800
v 0.07678401 0.02831135 0.03363256
v 0.07085288 0.02373702 0.08502331
v 0.07154343 0.02361204 0.08061695
v 0.07997341 0.01813785 0.03099212
v 0.07548191 0.01908771 0.06176377
v 0.07508396 0.02158109 0.06016043
v 0.07223983 0.01891273 0.08531483
v 0.07180385 0.01891273 0.08825800
v 0.07710587 0.02831135 0.03099212
v 0.07505177 0.02614292 0.05052362
v 0.07689812 0.02361204 0.04303393
f 1 2 3
f 1 3 4
f 1 4 5
f 1 5 6
f 1 6 10
f 1 10 15
f 1 15 22
f 1 22 20
f 1 20 11
f 1 11 7
f 1 7 12
f 1 12 21
f 1 21 28
f 1 28 38
f 1 38 50
f 1 50 64
f 1 64 77
f 1 77 93
f 1 93 85
f 1 85 71
f 1 71 58
f 1 58 57
f 1 57 53
f 1 53 42
f 1 42 32
f 1 32 31
f 1 31 24
f 1 24 14
f 1 14 8
f 1 8 2
f 2 8 9
f 2 9 3
f 3 9 13
f 3 13 23
f 3 23 30
f 3 30 40
f 3 40 52
f 3 52 65
f 3 65 70
f 3 70 81
f 3 81 80
f 3 80 69
f 3 69 84
f 3 84 94
f 3 94 89
f 3 89 74
f 3 74 73
f 3 73 59
f 3 59 46
f 3 46 34
f 3 34 26
f 3 26 16
f 3 16 10
f 3 10 6
f 3 6 5
f 3 5 4
f 7 11 12
f 8 13 9
f 8 14 13
f 10 16 17
f 10 17 18
f 10 18 19
f 10 19 12
f 10 12 15
f 11 20 12
f 12 19 18
f 12 18 17
f 12 17 16
f 12 16 26
f 12 26 33
f 12 33 27
f 12 27 21
f 12 20 22
f 12 22 15
f 13 14 23
f 14 24 25
f 14 25 23
f 21 27 28
f 23 29 30
f 23 25 29
f 24 31 25
f 25 31 32
f 25 32 29
f 26 34 35
f 26 35 36
f 26 36 33
f 27 33 36
f 27 36 35
f 27 35 37
f 27 37 28
f 28 37 38
f 29 32 39
f 29 39 30
f 30 39 40
f 32 41 39
f 32 42 43
f 32 43 44
f 32 44 45
f 32 45 41
f 34 46 47
f 34 47 35
f 35 47 48
f 35 48 37
f 37 49 38
f 37 48 49
f 38 49 50
f 39 41 45
f 39 45 51
f 39 51 52
f 39 52 40
f 42 53 43
f 43 54 55
f 43 55 56
f 43 56 45
f 43 45 44
f 43 53 57
f 43 57 58
f 43 58 54
f 45 56 51
f 46 59 47
f 47 59 48
f 48 59 49
f 49 59 60
f 49 60 61
f 49 61 62
f 49 62 63
f 49 63 64
f 49 64 50
f 51 56 65
f 51 65 52
f 54 66 67
f 54 67 56
f 54 56 55
f 54 58 68
f 54 68 69
f 54 69 66
f 56 70 65
f 56 67 66
f 56 66 70
f 58 71 72
f 58 72 68
f 59 73 61
f 59 61 60
f 61 63 62
f 61 73 74
f 61 74 63
f 63 75 76
f 63 76 77
f 63 77 64
f 63 74 78
f 63 78 79
f 63 79 75
f 66 80 81
f 66 81 70
f 66 69 80
f 68 72 82
f 68 82 83
f 68 83 69
f 69 83 84
f 71 85 72
f 72 86 82
f 72 85 87
f 72 87 88
f 72 88 86
f 74 89 79
f 74 79 78
f 75 79 76
f 76 79 89
f 76 89 90
f 76 90 91
f 76 91 92
f 76 92 77
f 77 92 93
f 82 86 83
f 83 86 84
f 84 86 94
f 85 93 92
f 85 92 91
f 85 91 88
f 85 88 87
f 86 88 95
f 86 95 96
f 86 96 89
f 86 89 94
f 88 91 95
f 89 96 91
f 89 91 90
f 91 96 95

