# https://github.com/mikedh/trimesh
v 0.04693711 -0.06783835 0.03302995
v 0.04835940 -0.06682032 0.03302995
v 0.04693711 -0.06754655 0.03525101
v 0.04693711 -0.06140594 0.03302995
v 0.05247136 -0.06639884 0.01305555
v 0.05247136 -0.06602275 0.01598918
v 0.04815169 -0.06667117 0.03525101
v 0.04770811 -0.06634048 0.03995845
v 0.04693711 -0.06707320 0.03866977
v 0.07837531 -0.00449348 0.01305555
v 0.05247136 -0.05916887 0.01305555
v 0.04693711 -0.06080291 0.03644871
v 0.06874318 -0.00159500 0.09048190
v 0.07026757 -0.00159500 0.07798180
v 0.07326704 -0.00159500 0.05404286
v 0.07435488 -0.00159500 0.04540876
v 0.07497097 -0.00159500 0.04056488
v 0.05415065 -0.06483613 0.01305555
v 0.05455199 -0.06398668 0.01645158
v 0.05247136 -0.06595790 0.01645158
v 0.05480194 -0.06422012 0.01305555
v 0.05050340 -0.06481019 0.03525101
v 0.05071110 -0.06496581 0.03302995
v 0.04726804 -0.06599681 0.04465072
v 0.04693711 -0.06630806 0.04411250
v 0.08290269 -0.00449348 0.01305555
v 0.07678052 -0.00159500 0.03302995
v 0.04693711 -0.05499300 0.07140958
v 0.04693711 -0.05188703 0.09048190
v 0.07329521 -0.00159500 0.09048190
v 0.05247136 -0.06554291 0.01926391
v 0.05693890 -0.06163938 0.01645158
v 0.05660093 -0.06129571 0.02115143
v 0.05641434 -0.06110767 0.02360749
v 0.05550956 -0.06021932 0.03525101
v 0.05278469 -0.06211273 0.03995845
v 0.05546028 -0.06357169 0.01305555
v 0.05178486 -0.06116603 0.05216290
v 0.05005981 -0.06446004 0.03995845
v 0.04702865 -0.06580876 0.04713710
v 0.04693711 -0.06586713 0.04721290
v 0.04693711 -0.06589307 0.04703855
v 0.08288157 -0.00449348 0.01388940
v 0.08247318 -0.01174938 0.01305555
v 0.08118116 -0.00159500 0.03302995
v 0.04693711 -0.05892895 0.09048190
v 0.07330225 -0.00235366 0.09048190
v 0.07522797 -0.00159500 0.08017254
v 0.05929060 -0.05925316 0.01645158
v 0.06128673 -0.05657516 0.02115143
v 0.05716421 -0.06187281 0.01305555
v 0.06111071 -0.05640009 0.02356959
v 0.05785071 -0.05786553 0.03525101
v 0.04961623 -0.06409692 0.04465072
v 0.05244320 -0.05705500 0.07284228
v 0.05202778 -0.05667243 0.07753456
v 0.05177430 -0.05645844 0.08023319
v 0.04693711 -0.05955145 0.08693427
v 0.08251191 -0.00449348 0.02115143
v 0.08243094 -0.00705476 0.02115143
v 0.08235349 -0.01174938 0.01645158
v 0.08202608 -0.01645696 0.01305555
v 0.07522797 -0.00235366 0.08017254
v 0.08208593 -0.00449348 0.02585129
v 0.04772219 -0.05824162 0.09048190
v 0.04693711 -0.05923371 0.08878389
v 0.07321423 -0.00705476 0.09048190
v 0.07520332 -0.00558283 0.07999060
v 0.06160358 -0.05690586 0.01645158
v 0.06583523 -0.05174438 0.01919569
v 0.06015312 -0.05881872 0.01305555
v 0.06559232 -0.05151094 0.02233397
v 0.06055799 -0.05581650 0.03055114
v 0.05913218 -0.05689938 0.03302995
v 0.05562222 -0.05077174 0.09048190
v 0.04693711 -0.05932450 0.08826084
v 0.05327052 -0.05313201 0.09048190
v 0.05267555 -0.05370263 0.09048190
v 0.04836996 -0.05766452 0.09048190
v 0.08199439 -0.01174938 0.02115143
v 0.08197327 -0.00705476 0.02585129
v 0.08099809 -0.02122939 0.01305555
v 0.08173740 -0.01645696 0.01645158
v 0.07543216 -0.00710664 0.07795906
v 0.07278825 -0.01174938 0.09048190
v 0.07512235 -0.00871474 0.07980867
v 0.06395176 -0.05424731 0.01645158
v 0.06181129 -0.05711984 0.01305555
v 0.06964795 -0.04566213 0.02115143
v 0.06702517 -0.04970183 0.02091645
v 0.06416299 -0.05444832 0.01305555
v 0.06471571 -0.05379989 0.01305555
v 0.06595141 -0.05190648 0.01645158
v 0.06260693 -0.05347568 0.03055114
v 0.06699701 -0.04877458 0.02585129
v 0.06150852 -0.04280905 0.09048190
v 0.05795984 -0.04763983 0.09048190
v 0.05738248 -0.04841795 0.09048190
v 0.08116708 -0.01645696 0.02115143
v 0.07537231 -0.01037471 0.07667796
v 0.08141352 -0.01174938 0.02585129
v 0.08011796 -0.02419918 0.01305555
v 0.07670659 -0.02115157 0.04935057
v 0.07522445 -0.02357669 0.05665809
v 0.07659745 -0.02585267 0.03995845
v 0.07713961 -0.02585267 0.03525101
v 0.07198205 -0.01645048 0.09048190
v 0.06609223 -0.05210101 0.01305555
v 0.07139765 -0.04384005 0.01305555
v 0.07107376 -0.04331482 0.02115143
v 0.07079564 -0.04282850 0.02585129
v 0.06934519 -0.04516932 0.02585129
v 0.06470867 -0.03961878 0.08261343
v 0.06574370 -0.03755030 0.08443272
v 0.06200492 -0.04201797 0.09048190
v 0.07100335 -0.02110618 0.09048190
v 0.07152791 -0.02115157 0.08693427
v 0.07221088 -0.02115157 0.08224198
v 0.07526669 -0.01445980 0.07111395
v 0.07663265 -0.03055377 0.02585129
v 0.07702695 -0.03055377 0.02115143
v 0.07570676 -0.03395802 0.02115143
v 0.07600600 -0.03459996 0.01305555
v 0.07534415 -0.01956293 0.06235856
v 0.07054920 -0.02362857 0.08957225
v 0.07076748 -0.02417973 0.08693427
v 0.07111601 -0.02521073 0.08224198
v 0.07136596 -0.02628712 0.07791358
v 0.07550256 -0.02886138 0.03995845
v 0.07582294 -0.02962652 0.03525101
v 0.07547793 -0.03348466 0.02585129
v 0.07041894 -0.03750491 0.05129116
v 0.07067594 -0.02861497 0.07660216
v 0.06628938 -0.03420442 0.09048190
v 0.06603239 -0.03476855 0.09048190
v 0.06520858 -0.03654524 0.09048190
v 0.06368420 -0.03925567 0.09048190
v 0.06327230 -0.03994300 0.09048190
v 0.07071819 -0.02232523 0.09048190
v 0.07598136 -0.03080666 0.03041471
v 0.07528430 -0.03309561 0.02876217
v 0.06991551 -0.02457527 0.09048190
v 0.07041542 -0.02814811 0.07974045
f 1 2 3
f 1 3 9
f 1 9 25
f 1 25 42
f 1 42 41
f 1 41 58
f 1 58 76
f 1 76 66
f 1 66 46
f 1 46 29
f 1 29 28
f 1 28 12
f 1 12 4
f 1 4 11
f 1 11 5
f 1 5 2
f 2 5 6
f 2 6 7
f 2 7 3
f 3 7 8
f 3 8 9
f 4 10 11
f 4 12 13
f 4 13 14
f 4 14 15
f 4 15 16
f 4 16 17
f 4 17 10
f 5 18 6
f 5 11 10
f 5 10 26
f 5 26 44
f 5 44 62
f 5 62 82
f 5 82 102
f 5 102 123
f 5 123 109
f 5 109 108
f 5 108 92
f 5 92 91
f 5 91 88
f 5 88 71
f 5 71 51
f 5 51 37
f 5 37 21
f 5 21 18
f 6 19 20
f 6 20 7
f 6 18 21
f 6 21 19
f 7 22 8
f 7 20 23
f 7 23 22
f 8 24 9
f 8 22 24
f 9 24 25
f 10 17 27
f 10 27 45
f 10 45 26
f 12 28 13
f 13 28 29
f 13 29 46
f 13 46 65
f 13 65 79
f 13 79 78
f 13 78 77
f 13 77 75
f 13 75 98
f 13 98 97
f 13 97 96
f 13 96 115
f 13 115 138
f 13 138 137
f 13 137 136
f 13 136 135
f 13 135 134
f 13 134 142
f 13 142 139
f 13 139 116
f 13 116 107
f 13 107 85
f 13 85 67
f 13 67 47
f 13 47 30
f 13 30 48
f 13 48 45
f 13 45 27
f 13 27 17
f 13 17 16
f 13 16 15
f 13 15 14
f 19 31 20
f 19 21 32
f 19 32 33
f 19 33 34
f 19 34 35
f 19 35 36
f 19 36 31
f 20 31 22
f 20 22 23
f 21 37 32
f 22 38 39
f 22 39 24
f 22 31 38
f 24 39 40
f 24 40 41
f 24 41 42
f 24 42 25
f 26 43 44
f 26 45 43
f 30 47 48
f 31 36 38
f 32 49 50
f 32 50 33
f 32 37 51
f 32 51 49
f 33 50 52
f 33 52 34
f 34 52 35
f 35 53 38
f 35 38 36
f 35 52 53
f 38 40 54
f 38 54 39
f 38 53 55
f 38 55 56
f 38 56 57
f 38 57 58
f 38 58 40
f 39 54 40
f 40 58 41
f 43 45 59
f 43 59 60
f 43 60 61
f 43 61 44
f 44 61 62
f 45 48 63
f 45 63 64
f 45 64 59
f 46 66 65
f 47 67 68
f 47 68 63
f 47 63 48
f 49 51 69
f 49 69 50
f 50 69 70
f 50 70 52
f 51 71 69
f 52 70 72
f 52 72 73
f 52 73 74
f 52 74 53
f 53 75 55
f 53 74 75
f 55 75 56
f 56 75 57
f 57 66 76
f 57 76 58
f 57 75 77
f 57 77 78
f 57 78 79
f 57 79 65
f 57 65 66
f 59 64 60
f 60 80 61
f 60 64 81
f 60 81 80
f 61 80 62
f 62 80 83
f 62 83 82
f 63 68 64
f 64 68 84
f 64 84 81
f 67 85 86
f 67 86 68
f 68 86 84
f 69 87 70
f 69 71 88
f 69 88 87
f 70 89 90
f 70 90 72
f 70 87 91
f 70 91 92
f 70 92 93
f 70 93 89
f 72 94 73
f 72 90 95
f 72 95 96
f 72 96 97
f 72 97 98
f 72 98 75
f 72 75 94
f 73 94 75
f 73 75 74
f 80 99 83
f 80 81 100
f 80 100 101
f 80 101 99
f 81 84 86
f 81 86 100
f 82 83 103
f 82 103 104
f 82 104 105
f 82 105 106
f 82 106 102
f 83 99 103
f 85 107 100
f 85 100 86
f 87 88 91
f 89 93 108
f 89 108 109
f 89 109 110
f 89 110 111
f 89 111 112
f 89 112 95
f 89 95 90
f 92 108 93
f 95 112 96
f 96 113 114
f 96 114 115
f 96 112 113
f 99 101 100
f 99 100 103
f 100 107 116
f 100 116 117
f 100 117 118
f 100 118 119
f 100 119 103
f 102 120 121
f 102 121 122
f 102 122 123
f 102 106 120
f 103 119 124
f 103 124 104
f 104 124 118
f 104 118 125
f 104 125 126
f 104 126 127
f 104 127 128
f 104 128 129
f 104 129 105
f 105 129 130
f 105 130 120
f 105 120 106
f 109 123 110
f 110 123 122
f 110 122 131
f 110 131 111
f 111 131 132
f 111 132 114
f 111 114 112
f 112 114 113
f 114 133 134
f 114 134 135
f 114 135 136
f 114 136 137
f 114 137 138
f 114 138 115
f 114 132 133
f 116 139 117
f 117 139 125
f 117 125 118
f 118 124 119
f 120 140 141
f 120 141 131
f 120 131 122
f 120 122 121
f 120 130 140
f 125 139 142
f 125 142 134
f 125 134 143
f 125 143 126
f 126 143 127
f 127 143 128
f 128 143 133
f 128 133 129
f 129 133 141
f 129 141 130
f 130 141 140
f 131 141 132
f 132 141 133
f 133 143 134

