# https://github.com/mikedh/trimesh
v 0.01172284 0.01628640 0.46229304
v 0.00766629 0.01710102 0.46229304
v 0.01172284 0.01013199 0.46229304
v 0.01172284 0.01842299 0.44881585
v 0.01020576 0.01911713 0.44881585
v 0.00964959 0.01889717 0.45179171
v 0.00704866 0.01721266 0.46229304
v -0.00358894 0.00981808 0.46229304
v -0.00358894 0.01783164 0.41005822
v 0.01172284 0.02110891 0.39159504
v 0.01172284 0.01954820 0.44109008
v 0.01102576 0.01942330 0.44411600
v 0.01172284 0.02041035 0.43474493
v 0.01172284 0.02096412 0.43004508
v 0.00704866 0.01898007 0.45266443
v 0.00891953 0.02110891 0.43284925
v 0.00704866 0.02110891 0.43556043
v 0.00704866 0.02066457 0.43941615
v 0.00297111 0.01724361 0.46229304
v -0.00358894 0.01595260 0.46229304
v -0.00358894 0.02110891 0.38922010
v 0.01172284 0.02110891 0.42855715
v 0.00235049 0.01894470 0.45248559
v 0.00235049 0.01724140 0.46229304
v 0.00235049 0.02072979 0.43941615
v 0.00235049 0.02110891 0.43631870
v -0.00234918 0.01643010 0.46229304
v -0.00358894 0.01867500 0.44631928
v -0.00358894 0.02110891 0.42726953
v -0.00022346 0.01884964 0.45155563
v -0.00234918 0.02067673 0.43471632
v 0.00088587 0.02110891 0.43471632
v -0.00104647 0.01905965 0.44881585
v -0.00258304 0.01935367 0.44407309
v -0.00358894 0.01889385 0.44497443
v -0.00358894 0.02079942 0.43001647
v -0.00271946 0.02110891 0.43001647
v -0.00234918 0.02110891 0.43111811
v -0.00358894 0.01998922 0.43673360
v -0.00358894 0.01947635 0.44092554
v -0.00234918 0.02004781 0.43941615
v -0.00358894 0.01914697 0.44337203
f 1 2 7
f 1 7 19
f 1 19 24
f 1 24 27
f 1 27 20
f 1 20 8
f 1 8 3
f 1 3 10
f 1 10 22
f 1 22 14
f 1 14 13
f 1 13 11
f 1 11 4
f 1 4 5
f 1 5 6
f 1 6 2
f 2 6 7
f 3 8 9
f 3 9 10
f 4 11 5
f 5 11 12
f 5 12 13
f 5 13 14
f 5 14 6
f 6 15 7
f 6 14 16
f 6 16 17
f 6 17 18
f 6 18 15
f 7 15 19
f 8 20 28
f 8 28 35
f 8 35 42
f 8 42 40
f 8 40 39
f 8 39 36
f 8 36 29
f 8 29 21
f 8 21 9
f 9 21 10
f 10 21 29
f 10 29 37
f 10 37 38
f 10 38 32
f 10 32 26
f 10 26 17
f 10 17 16
f 10 16 22
f 11 13 12
f 14 22 16
f 15 23 24
f 15 24 19
f 15 18 25
f 15 25 23
f 17 26 18
f 18 26 25
f 20 27 28
f 23 30 24
f 23 25 30
f 24 30 27
f 25 26 31
f 25 31 30
f 26 32 31
f 27 30 33
f 27 33 28
f 28 33 34
f 28 34 35
f 29 36 37
f 30 31 33
f 31 32 38
f 31 38 36
f 31 36 39
f 31 39 40
f 31 40 41
f 31 41 33
f 33 41 34
f 34 41 40
f 34 40 42
f 34 42 35
f 36 38 37

