# https://github.com/mikedh/trimesh
v -0.06274136 0.05142976 0.03302726
v -0.06179254 0.05142976 0.03798264
v -0.06129059 0.05196973 0.03863512
v -0.06181703 0.05272629 0.03302726
v -0.05612417 0.05142976 0.03302726
v -0.06159667 0.05142976 0.03898947
v -0.06097840 0.05383592 0.03302726
v -0.06092332 0.05155436 0.04176808
v -0.05055374 0.05142976 0.09048948
v -0.05564671 0.05142976 0.03470342
v -0.00021173 0.07696296 0.03302726
v -0.00021173 0.07491877 0.04085688
v -0.00021173 0.07419187 0.04464795
v -0.00021173 0.07331367 0.04935022
v -0.00021173 0.06881287 0.07754135
v -0.00021173 0.06809191 0.08224362
v -0.06098452 0.05142976 0.04189182
v -0.05995002 0.05507608 0.03302726
v -0.06083149 0.05142976 0.04260617
v -0.04865612 0.05334341 0.09048948
v -0.05871350 0.05636372 0.03302726
v -0.04311018 0.05142976 0.09048948
v -0.05466729 0.05142976 0.03837638
v -0.00021173 0.08168332 0.03302726
v -0.00021173 0.06732942 0.09048948
v -0.05158825 0.05142976 0.05089139
v -0.05373073 0.05142976 0.04215056
v -0.04807459 0.05391899 0.09048948
v -0.05759942 0.05747038 0.03302726
v -0.04433445 0.05142976 0.08447664
v -0.00021173 0.08167145 0.03310600
v -0.00235421 0.08173672 0.03302726
v -0.04513634 0.05142976 0.08056746
v -0.04844188 0.05142976 0.06493634
v -0.04923765 0.05142976 0.06120152
v -0.05009464 0.05142976 0.05737671
v -0.05085369 0.05142976 0.05404686
v -0.00021173 0.07188065 0.09048948
v -0.04617086 0.05569320 0.09048948
v -0.04662995 0.05607296 0.08694028
v -0.04694826 0.05634295 0.08442602
v -0.05633230 0.05858297 0.03302726
v -0.00235421 0.07593641 0.06814243
v -0.00021173 0.07531633 0.07119104
v -0.00483335 0.08162694 0.03302726
v -0.00550670 0.07532523 0.07120791
v -0.00235421 0.07536677 0.07146102
v -0.00235421 0.07197559 0.09048948
v -0.04439566 0.05708468 0.09048948
v -0.04696051 0.06574508 0.03743142
v -0.05255543 0.06186140 0.03302726
v -0.05366339 0.06090309 0.03302726
v -0.00705540 0.08146080 0.03302726
v -0.00705540 0.08113147 0.03524902
v -0.00738596 0.08027700 0.04037314
v -0.00917339 0.07982306 0.04222369
v -0.01175048 0.07742580 0.05404686
v -0.01175048 0.07660397 0.05874914
v -0.01441939 0.07060191 0.09048948
v -0.01048948 0.07116266 0.09048948
v -0.00705540 0.07157209 0.09048948
v -0.00589847 0.07167297 0.09048948
v -0.04382025 0.05752082 0.09048948
v -0.04631777 0.06689031 0.03302726
v -0.04741961 0.06610408 0.03302726
v -0.04821539 0.06549290 0.03302726
v -0.04955596 0.06439515 0.03302726
v -0.04300611 0.05809936 0.09048948
v -0.04424263 0.06717217 0.03995129
v -0.04150026 0.06991359 0.03524902
v -0.04180021 0.07009161 0.03302726
v -0.04309181 0.06918670 0.03302726
v -0.00955292 0.08108993 0.03302726
v -0.01064252 0.08009602 0.03909071
v -0.01645168 0.07660694 0.05404686
v -0.01456018 0.07059301 0.09041073
v -0.01464588 0.07054554 0.09048948
v -0.04011071 0.06006939 0.09048948
v -0.04094934 0.06019697 0.08694028
v -0.04076570 0.06952196 0.03995129
v -0.03914966 0.07135254 0.03524902
v -0.04088812 0.07065235 0.03302726
v -0.01189127 0.08072204 0.03302726
v -0.01202595 0.08036007 0.03548526
v -0.01541105 0.08012272 0.03302726
v -0.01496419 0.08005152 0.03407908
v -0.02115288 0.07770173 0.03995129
v -0.02115288 0.07694813 0.04464795
v -0.02355245 0.07051291 0.08001061
v -0.02469715 0.06788423 0.09048948
v -0.03807230 0.06140450 0.09048948
v -0.03793763 0.06603288 0.06703999
v -0.03788866 0.07066718 0.04326426
v -0.03841510 0.07096091 0.03995129
v -0.03559315 0.07156023 0.04476045
v -0.03719083 0.07259271 0.03302726
v -0.03963325 0.07140595 0.03302726
v -0.02352185 0.07788271 0.03302726
v -0.02585408 0.07696296 0.03524902
v -0.02616627 0.07615003 0.03996254
v -0.02492364 0.07579104 0.04464795
v -0.02880457 0.07073839 0.06713561
v -0.02915961 0.06619606 0.09048948
v -0.02585408 0.06756973 0.09048948
v -0.03556255 0.06286125 0.09048948
v -0.03333438 0.06604771 0.08125368
v -0.03318746 0.07064642 0.05729795
v -0.03373838 0.07092234 0.05404686
v -0.03453416 0.07131101 0.04935022
v -0.03138778 0.07511162 0.03302726
v -0.03346292 0.07422154 0.03302726
v -0.03524424 0.07242360 0.03995129
v -0.02585408 0.07717065 0.03302726
v -0.03000436 0.07568719 0.03302726
v -0.02961871 0.07104399 0.06344579
v -0.03084911 0.07131694 0.05882226
v -0.03097153 0.06688438 0.08259236
v -0.03281406 0.06568872 0.08438664
v -0.03150409 0.06508347 0.09048948
v -0.03464434 0.06338639 0.09048948
f 1 2 3
f 1 3 4
f 1 4 7
f 1 7 18
f 1 18 21
f 1 21 29
f 1 29 42
f 1 42 52
f 1 52 51
f 1 51 67
f 1 67 66
f 1 66 65
f 1 65 64
f 1 64 72
f 1 72 71
f 1 71 82
f 1 82 97
f 1 97 96
f 1 96 111
f 1 111 110
f 1 110 114
f 1 114 113
f 1 113 98
f 1 98 85
f 1 85 83
f 1 83 73
f 1 73 53
f 1 53 45
f 1 45 32
f 1 32 24
f 1 24 11
f 1 11 5
f 1 5 10
f 1 10 23
f 1 23 27
f 1 27 26
f 1 26 37
f 1 37 36
f 1 36 35
f 1 35 34
f 1 34 33
f 1 33 30
f 1 30 22
f 1 22 9
f 1 9 19
f 1 19 17
f 1 17 6
f 1 6 2
f 2 6 3
f 3 7 4
f 3 6 8
f 3 8 9
f 3 9 7
f 5 11 12
f 5 12 13
f 5 13 14
f 5 14 15
f 5 15 16
f 5 16 10
f 6 17 8
f 7 9 18
f 8 17 19
f 8 19 9
f 9 20 21
f 9 21 18
f 9 22 25
f 9 25 38
f 9 38 48
f 9 48 62
f 9 62 61
f 9 61 60
f 9 60 59
f 9 59 77
f 9 77 90
f 9 90 104
f 9 104 103
f 9 103 119
f 9 119 120
f 9 120 105
f 9 105 91
f 9 91 78
f 9 78 68
f 9 68 63
f 9 63 49
f 9 49 39
f 9 39 28
f 9 28 20
f 10 16 23
f 11 24 31
f 11 31 44
f 11 44 38
f 11 38 25
f 11 25 16
f 11 16 15
f 11 15 14
f 11 14 13
f 11 13 12
f 16 25 26
f 16 26 27
f 16 27 23
f 20 28 29
f 20 29 21
f 22 30 25
f 24 32 31
f 25 30 33
f 25 33 34
f 25 34 35
f 25 35 36
f 25 36 37
f 25 37 26
f 28 39 40
f 28 40 41
f 28 41 29
f 29 41 42
f 31 43 44
f 31 32 43
f 32 45 46
f 32 46 43
f 38 44 47
f 38 47 48
f 39 49 40
f 40 49 41
f 41 49 50
f 41 50 51
f 41 51 52
f 41 52 42
f 43 47 44
f 43 46 47
f 45 53 54
f 45 54 55
f 45 55 46
f 46 55 56
f 46 56 57
f 46 57 58
f 46 58 59
f 46 59 60
f 46 60 61
f 46 61 62
f 46 62 48
f 46 48 47
f 49 63 50
f 50 64 65
f 50 65 66
f 50 66 67
f 50 67 51
f 50 63 68
f 50 68 69
f 50 69 70
f 50 70 71
f 50 71 72
f 50 72 64
f 53 73 74
f 53 74 56
f 53 56 54
f 54 56 55
f 56 74 57
f 57 74 75
f 57 75 76
f 57 76 58
f 58 76 59
f 59 76 77
f 68 78 79
f 68 79 69
f 69 79 78
f 69 78 80
f 69 80 70
f 70 80 94
f 70 94 81
f 70 81 82
f 70 82 71
f 73 83 74
f 74 83 84
f 74 84 85
f 74 85 86
f 74 86 75
f 75 86 85
f 75 85 87
f 75 87 88
f 75 88 89
f 75 89 76
f 76 89 90
f 76 90 77
f 78 91 80
f 80 91 92
f 80 92 93
f 80 93 94
f 81 94 95
f 81 95 96
f 81 96 97
f 81 97 82
f 83 85 84
f 85 98 87
f 87 98 99
f 87 99 100
f 87 100 101
f 87 101 88
f 88 101 89
f 89 101 100
f 89 100 102
f 89 102 103
f 89 103 104
f 89 104 90
f 91 105 106
f 91 106 92
f 92 106 93
f 93 106 107
f 93 107 108
f 93 108 95
f 93 95 94
f 95 108 109
f 95 109 110
f 95 110 111
f 95 111 112
f 95 112 96
f 96 112 111
f 98 113 99
f 99 113 114
f 99 114 100
f 100 115 102
f 100 114 107
f 100 107 116
f 100 116 115
f 102 115 107
f 102 107 117
f 102 117 103
f 103 117 118
f 103 118 119
f 105 120 106
f 106 120 118
f 106 118 117
f 106 117 107
f 107 115 116
f 107 114 108
f 108 114 109
f 109 114 110
f 118 120 119

