# https://github.com/mikedh/trimesh
v 0.01938059 -0.03123383 0.34989473
v 0.01938059 -0.03123383 0.39035417
v 0.00078806 -0.03123383 0.39634735
v 0.00078806 -0.03108175 0.39712625
v 0.01938059 -0.01189062 0.45017787
v 0.01792099 -0.03123383 0.39712625
v 0.01938059 -0.03016302 0.39712625
v 0.00078806 -0.03123383 0.42484205
v 0.00078806 -0.02082787 0.45500271
v 0.01938059 -0.00995317 0.46039010
v 0.01655422 -0.03123383 0.40270835
v 0.01880913 -0.02350904 0.44182635
v 0.01938059 -0.02341946 0.43878649
v 0.01901660 -0.02370695 0.43941393
v 0.00191278 -0.03123383 0.42484205
v 0.00235139 -0.03086509 0.43001306
v 0.00078806 -0.03095467 0.42845527
v 0.00078806 -0.01990914 0.46040091
v 0.01936785 -0.00996151 0.46040091
v 0.01938059 -0.01000734 0.46040091
v 0.01546953 -0.02904639 0.42062301
v 0.01489807 -0.02864640 0.42531803
v 0.01572250 -0.03123383 0.40576985
v 0.01938059 -0.02331321 0.43943557
v 0.01938059 -0.02297364 0.44138282
v 0.01938059 -0.02276948 0.44248626
v 0.01938059 -0.01937999 0.46040091
v 0.01747875 -0.02079870 0.46040091
v 0.01625393 -0.02170076 0.46040091
v 0.01425927 -0.02305906 0.46040091
v 0.01390620 -0.02336946 0.46000064
v 0.01442124 -0.02836516 0.42871490
v 0.00234775 -0.03123383 0.42480959
v 0.00078806 -0.03079217 0.43001306
v 0.00603677 -0.03123383 0.42423624
v 0.00705048 -0.03048385 0.43001306
v 0.00235139 -0.03027969 0.43471891
v 0.00078806 -0.02529441 0.46040091
v 0.01485439 -0.03123383 0.40855009
v 0.01379700 -0.02333822 0.46040091
v 0.01013164 -0.02841932 0.43828885
v 0.01096335 -0.02873806 0.43471891
v 0.01209172 -0.02904431 0.43017533
v 0.01174775 -0.02994845 0.42531803
v 0.01320370 -0.03123383 0.41310447
v 0.00078806 -0.03040051 0.43315028
v 0.00705048 -0.03123383 0.42338161
v 0.00705048 -0.02978595 0.43471891
v 0.01027723 -0.03123383 0.41915176
v 0.01174775 -0.03123383 0.41678261
v 0.00078806 -0.03014636 0.43471891
v 0.00594213 -0.02843182 0.44296224
v 0.00705048 -0.02508608 0.46040091
v 0.00235139 -0.02545899 0.46040091
v 0.00151785 -0.02537149 0.46040091
v 0.01150206 -0.02405694 0.46040091
v 0.00878670 -0.02471734 0.46040091
f 1 2 6
f 1 6 11
f 1 11 23
f 1 23 39
f 1 39 45
f 1 45 50
f 1 50 49
f 1 49 47
f 1 47 35
f 1 35 33
f 1 33 15
f 1 15 8
f 1 8 3
f 1 3 4
f 1 4 5
f 1 5 10
f 1 10 20
f 1 20 27
f 1 27 26
f 1 26 25
f 1 25 24
f 1 24 13
f 1 13 7
f 1 7 2
f 2 7 6
f 3 8 17
f 3 17 34
f 3 34 46
f 3 46 51
f 3 51 38
f 3 38 18
f 3 18 9
f 3 9 4
f 4 9 10
f 4 10 5
f 6 7 12
f 6 12 11
f 7 13 14
f 7 14 12
f 8 15 16
f 8 16 17
f 9 18 10
f 10 18 19
f 10 19 20
f 11 21 22
f 11 22 23
f 11 12 21
f 12 14 24
f 12 24 25
f 12 25 26
f 12 26 27
f 12 27 28
f 12 28 29
f 12 29 30
f 12 30 31
f 12 31 32
f 12 32 22
f 12 22 21
f 13 24 14
f 15 33 16
f 16 34 17
f 16 33 35
f 16 35 36
f 16 36 37
f 16 37 34
f 18 38 55
f 18 55 54
f 18 54 53
f 18 53 57
f 18 57 56
f 18 56 40
f 18 40 30
f 18 30 29
f 18 29 28
f 18 28 27
f 18 27 20
f 18 20 19
f 22 32 23
f 23 32 39
f 30 40 31
f 31 40 41
f 31 41 42
f 31 42 32
f 32 42 43
f 32 43 44
f 32 44 45
f 32 45 39
f 34 37 46
f 35 47 36
f 36 48 37
f 36 47 49
f 36 49 50
f 36 50 48
f 37 51 46
f 37 48 52
f 37 52 53
f 37 53 54
f 37 54 51
f 38 51 55
f 40 56 41
f 41 48 42
f 41 56 57
f 41 57 48
f 42 48 44
f 42 44 43
f 44 48 50
f 44 50 45
f 48 57 53
f 48 53 52
f 51 54 55

