# https://github.com/mikedh/trimesh
v 0.00084019 -0.01483518 0.46978828
v -0.00254318 -0.01483518 0.46976072
v 0.00084019 -0.01816811 0.46914077
v 0.00084019 -0.01483518 0.46183916
v -0.00719660 -0.01483518 0.46914077
v -0.00254318 -0.01780657 0.46908568
v 0.00084019 -0.02056607 0.46737737
v 0.00084019 -0.03011083 0.38592986
v -0.02022289 -0.01483518 0.39189515
v -0.00807492 -0.01483518 0.46879636
v -0.00608943 -0.01704648 0.46875504
v -0.00295965 -0.02030374 0.46615125
v -0.00167105 -0.02145732 0.46473225
v 0.00084019 -0.02093266 0.46674365
v 0.00084019 -0.03201440 0.37686482
v -0.02022289 -0.01483518 0.42826547
v -0.02022289 -0.03201440 0.32904610
v -0.01084388 -0.01483518 0.46682631
v -0.00922126 -0.01599212 0.46790089
v -0.00748937 -0.01803022 0.46617880
v -0.00480288 -0.02098479 0.46346481
v -0.00295965 -0.02194498 0.46163250
v 0.00084019 -0.02268825 0.46132943
v 0.00084019 -0.02164734 0.46521443
v 0.00084019 -0.03201440 0.40886797
v -0.02022289 -0.01547755 0.42633675
v -0.02021258 -0.01483518 0.42833436
v -0.02022289 -0.03201440 0.36406632
v -0.01149540 -0.01483518 0.46571039
v -0.01025421 -0.01692541 0.46477359
v -0.00717598 -0.02010027 0.46163250
v -0.00556574 -0.02136819 0.46032372
v -0.00498019 -0.02576053 0.44026494
v -0.00254318 -0.02310528 0.45653516
v -0.00065665 -0.02582947 0.44534852
v 0.00084019 -0.02299093 0.45991044
v 0.00084019 -0.03057663 0.41747837
v -0.00104014 -0.03055477 0.41734060
v -0.00254318 -0.03201440 0.40782094
v -0.01929303 -0.01682115 0.42833436
v -0.02022289 -0.01792091 0.41893869
v -0.02010330 -0.01818997 0.41893869
v -0.01957961 -0.01483518 0.43227449
v -0.01905180 -0.01643438 0.43104836
v -0.01940024 -0.03201440 0.36726251
v -0.02022289 -0.03157045 0.36629814
v -0.01298400 -0.01483518 0.46237645
v -0.01329945 -0.01508574 0.46123299
v -0.01095109 -0.01755096 0.46123299
v -0.00876355 -0.02050721 0.45653516
v -0.00938002 -0.02086539 0.45368340
v -0.00641313 -0.02178859 0.45653516
v -0.00958001 -0.02571513 0.43066261
v -0.00947898 -0.03033448 0.40698056
v -0.00764400 -0.03129971 0.40518960
v -0.00640694 -0.03090622 0.40954303
v -0.00546059 -0.03060521 0.41284941
v 0.00084019 -0.02586983 0.44559650
v -0.00254318 -0.03171675 0.40954303
v -0.00736154 -0.03201440 0.40163523
v -0.01922705 -0.02133624 0.41313873
v -0.02022289 -0.01869613 0.41645890
v -0.02022289 -0.01928637 0.41440617
v -0.01829925 -0.01483518 0.43921791
v -0.01889717 -0.02093602 0.41626602
v -0.01458187 -0.01668662 0.45182353
v -0.01430766 -0.01635198 0.45426201
v -0.01495918 -0.01483518 0.45551568
v -0.02010949 -0.03146619 0.36726251
v -0.01813431 -0.03201440 0.37179502
v -0.01601068 -0.03165621 0.38135601
v -0.01918375 -0.03060690 0.37514275
v -0.01955899 -0.03095331 0.37196034
v -0.02022289 -0.03134680 0.36726251
v -0.01347882 -0.01483518 0.46123299
v -0.01387262 -0.01579705 0.45738931
v -0.01280256 -0.01966809 0.44712570
v -0.00993051 -0.02127402 0.45054231
v -0.00758627 -0.02216527 0.45200264
v -0.01423343 -0.02567140 0.41640379
v -0.01430766 -0.03043874 0.39316260
v -0.01007896 -0.03067920 0.40385327
v -0.00805430 -0.03201440 0.40014736
v -0.02022289 -0.02199879 0.40483141
v -0.01956518 -0.02177850 0.40954303
v -0.02022289 -0.02685189 0.38605384
v -0.02012598 -0.02697632 0.38605384
v -0.01924973 -0.02600436 0.39433361
v -0.01889717 -0.02563777 0.39746091
v -0.01439838 -0.02113613 0.43584264
v -0.01509525 -0.01731890 0.44712570
v -0.01397983 -0.02073927 0.43896994
v -0.01348913 -0.02028524 0.44242788
v -0.01467465 -0.01483518 0.45664537
v -0.01690961 -0.03201440 0.37617600
v -0.01535710 -0.03201440 0.38135601
v -0.01534473 -0.03117528 0.38605384
v -0.02022289 -0.02708899 0.38508949
v -0.01045214 -0.02165238 0.44712570
v -0.01466022 -0.03068929 0.39075168
v -0.01228712 -0.03201440 0.39028328
v -0.01209125 -0.03125936 0.39502244
v -0.01073460 -0.03102730 0.40014736
v -0.01195723 -0.03201440 0.39123387
v -0.02022289 -0.02265293 0.40248939
f 1 2 3
f 1 3 7
f 1 7 14
f 1 14 24
f 1 24 23
f 1 23 36
f 1 36 58
f 1 58 37
f 1 37 25
f 1 25 15
f 1 15 8
f 1 8 4
f 1 4 9
f 1 9 16
f 1 16 27
f 1 27 43
f 1 43 64
f 1 64 68
f 1 68 94
f 1 94 75
f 1 75 47
f 1 47 29
f 1 29 18
f 1 18 10
f 1 10 5
f 1 5 2
f 2 5 6
f 2 6 3
f 3 6 7
f 4 8 9
f 5 10 11
f 5 11 6
f 6 11 7
f 7 11 12
f 7 12 13
f 7 13 14
f 8 15 9
f 9 15 17
f 9 17 28
f 9 28 46
f 9 46 74
f 9 74 98
f 9 98 86
f 9 86 105
f 9 105 84
f 9 84 63
f 9 63 62
f 9 62 41
f 9 41 26
f 9 26 16
f 10 18 19
f 10 19 11
f 11 19 20
f 11 20 12
f 12 20 21
f 12 21 13
f 13 21 22
f 13 22 23
f 13 23 24
f 13 24 14
f 15 25 39
f 15 39 60
f 15 60 83
f 15 83 104
f 15 104 101
f 15 101 96
f 15 96 95
f 15 95 70
f 15 70 45
f 15 45 28
f 15 28 17
f 16 26 27
f 18 29 30
f 18 30 19
f 19 30 20
f 20 30 21
f 21 30 31
f 21 31 32
f 21 32 33
f 21 33 22
f 22 33 34
f 22 34 35
f 22 35 36
f 22 36 23
f 25 37 38
f 25 38 39
f 26 40 27
f 26 41 42
f 26 42 40
f 27 40 44
f 27 44 43
f 28 45 46
f 29 47 48
f 29 48 30
f 30 48 49
f 30 49 31
f 31 49 50
f 31 50 32
f 32 50 51
f 32 51 52
f 32 52 33
f 33 35 34
f 33 52 53
f 33 53 54
f 33 54 55
f 33 55 56
f 33 56 57
f 33 57 35
f 35 58 36
f 35 57 59
f 35 59 39
f 35 39 38
f 35 38 58
f 37 58 38
f 39 59 57
f 39 57 60
f 40 42 61
f 40 61 44
f 41 62 42
f 42 62 63
f 42 63 61
f 43 44 64
f 44 61 65
f 44 65 66
f 44 66 67
f 44 67 68
f 44 68 64
f 45 69 46
f 45 70 71
f 45 71 72
f 45 72 73
f 45 73 69
f 46 69 74
f 47 75 48
f 48 75 76
f 48 76 49
f 49 51 50
f 49 76 67
f 49 67 77
f 49 77 78
f 49 78 51
f 51 78 52
f 52 78 79
f 52 79 53
f 53 79 78
f 53 78 80
f 53 80 81
f 53 81 82
f 53 82 54
f 54 82 55
f 55 82 60
f 55 60 56
f 56 60 57
f 60 82 83
f 61 63 84
f 61 84 85
f 61 85 86
f 61 86 87
f 61 87 88
f 61 88 89
f 61 89 65
f 65 89 90
f 65 90 91
f 65 91 66
f 66 91 90
f 66 90 67
f 67 90 92
f 67 92 93
f 67 93 77
f 67 76 94
f 67 94 68
f 69 73 74
f 70 95 71
f 71 96 97
f 71 97 72
f 71 95 96
f 72 89 88
f 72 88 74
f 72 74 73
f 72 97 80
f 72 80 90
f 72 90 89
f 74 88 87
f 74 87 98
f 75 94 76
f 77 93 78
f 78 93 92
f 78 92 90
f 78 90 99
f 78 99 80
f 80 99 90
f 80 97 100
f 80 100 81
f 81 100 101
f 81 101 102
f 81 102 103
f 81 103 82
f 82 103 104
f 82 104 83
f 84 105 85
f 85 105 86
f 86 98 87
f 96 101 100
f 96 100 97
f 101 104 102
f 102 104 103

