# https://github.com/mikedh/trimesh
v 0.02941921 0.02251721 0.32061902
v 0.02941921 0.02251721 0.36312823
v 0.00198805 0.02251721 0.40972620
v 0.00198805 0.02336254 0.40013872
v 0.00198805 0.02338291 0.39996246
v 0.00198805 0.02393288 0.39541547
v 0.00198805 0.02459488 0.39055123
v 0.00198805 0.02523143 0.38603947
v 0.00198805 0.02575594 0.38233843
v 0.00198805 0.02926965 0.35766476
v 0.00198805 0.04817242 0.22629513
v 0.00198805 0.05698726 0.16521019
v 0.00198805 0.05769000 0.16034596
v 0.00198805 0.05836728 0.15569321
v 0.00198805 0.05877467 0.15297911
v 0.00198805 0.06189118 0.13232372
v 0.00198805 0.06326102 0.12340596
v 0.00198805 0.06628078 0.10412524
v 0.00198805 0.06706500 0.09926101
v 0.00198805 0.06786959 0.09436153
v 0.02941921 0.06167221 0.08826361
v 0.02941921 0.02264452 0.36252900
v 0.02910236 0.02251721 0.36517261
v 0.00198805 0.02251721 0.44814661
v 0.00198805 0.06826679 0.09224666
v 0.00198805 0.06925980 0.08826361
v 0.02941921 0.06748257 0.08826361
v 0.02941921 0.02287877 0.36136580
v 0.02872913 0.02251721 0.36725225
v 0.02941921 0.02632628 0.34374177
v 0.02817868 0.02613786 0.35177833
v 0.00215721 0.02251721 0.44835809
v 0.00198805 0.07452018 0.08833410
v 0.00198805 0.07453037 0.08826361
v 0.02827266 0.06836864 0.08826361
v 0.02941921 0.06779320 0.08829887
v 0.02786452 0.02251721 0.37194023
v 0.02787795 0.02584251 0.35491541
v 0.02941921 0.02723272 0.33905377
v 0.02941921 0.02733456 0.33852505
v 0.02941921 0.03161213 0.31554330
v 0.02941921 0.03185147 0.31423911
v 0.00685616 0.02251721 0.44772363
v 0.00215721 0.07453037 0.08826361
v 0.02582115 0.06932600 0.08826361
v 0.02825118 0.06835845 0.08840460
v 0.02941921 0.06334759 0.11822449
v 0.02463970 0.02251721 0.38938804
v 0.02437387 0.02251721 0.39072746
v 0.02803637 0.03069551 0.32749240
v 0.02941921 0.03496289 0.29675606
v 0.00722671 0.02251721 0.44712440
v 0.01335146 0.07302304 0.08826361
v 0.01138864 0.07339987 0.08826361
v 0.00685616 0.07409752 0.08826361
v 0.02270641 0.07034446 0.08826361
v 0.02095035 0.07004911 0.09474928
v 0.02377509 0.06842975 0.09943726
v 0.01908956 0.04962883 0.23926643
v 0.02342603 0.04951170 0.22904448
v 0.02809276 0.06359202 0.12086810
v 0.02821627 0.05426286 0.18241126
v 0.02941921 0.05953852 0.14349738
v 0.02340186 0.02251721 0.39545070
v 0.02941921 0.03579294 0.29206807
v 0.02941921 0.03641421 0.28854326
v 0.02032203 0.02251721 0.41007868
v 0.02041869 0.02251721 0.40962044
v 0.01169743 0.02251721 0.43961656
v 0.01440671 0.04958299 0.24836044
v 0.01382136 0.07290591 0.08826361
v 0.02095035 0.07086898 0.08826361
v 0.02095035 0.07065001 0.09002603
v 0.02330519 0.06825152 0.10179888
v 0.01444968 0.07274296 0.08826361
v 0.01660046 0.05011769 0.24064111
v 0.02499413 0.04560588 0.24980561
v 0.02804174 0.04947606 0.21469851
v 0.01238482 0.02251721 0.43771317
v 0.02369722 0.04495915 0.25812416
v 0.02933597 0.05484848 0.17462143
v 0.02941921 0.05476700 0.17483292
v 0.02941921 0.03992792 0.26855759
v 0.01927483 0.02251721 0.41423796
v 0.02941921 0.04064594 0.26443357
v 0.02941921 0.04073760 0.26390484
v 0.02941921 0.04101259 0.26228343
v 0.02941921 0.04467398 0.24039437
v 0.02824313 0.04490823 0.24367244
v 0.01530623 0.04981724 0.24511761
v 0.02600105 0.04581467 0.24518811
v 0.01635880 0.02251721 0.42562307
v 0.02941921 0.05024500 0.20447656
v 0.01394487 0.02251721 0.43302519
v 0.02941921 0.05408462 0.17930943
v 0.01689582 0.02251721 0.42361393
v 0.02941921 0.04542256 0.23570637
v 0.02866469 0.04516285 0.24039437
v 0.02925541 0.04552440 0.23570637
f 1 2 23
f 1 23 29
f 1 29 37
f 1 37 48
f 1 48 49
f 1 49 64
f 1 64 68
f 1 68 67
f 1 67 84
f 1 84 96
f 1 96 92
f 1 92 94
f 1 94 79
f 1 79 69
f 1 69 52
f 1 52 43
f 1 43 32
f 1 32 24
f 1 24 3
f 1 3 4
f 1 4 5
f 1 5 6
f 1 6 7
f 1 7 8
f 1 8 9
f 1 9 10
f 1 10 11
f 1 11 12
f 1 12 13
f 1 13 14
f 1 14 15
f 1 15 16
f 1 16 17
f 1 17 18
f 1 18 19
f 1 19 20
f 1 20 21
f 1 21 27
f 1 27 36
f 1 36 47
f 1 47 63
f 1 63 82
f 1 82 95
f 1 95 93
f 1 93 97
f 1 97 88
f 1 88 87
f 1 87 86
f 1 86 85
f 1 85 83
f 1 83 66
f 1 66 65
f 1 65 51
f 1 51 42
f 1 42 41
f 1 41 40
f 1 40 39
f 1 39 30
f 1 30 28
f 1 28 22
f 1 22 2
f 2 22 23
f 3 24 33
f 3 33 34
f 3 34 26
f 3 26 25
f 3 25 20
f 3 20 19
f 3 19 18
f 3 18 17
f 3 17 16
f 3 16 15
f 3 15 14
f 3 14 13
f 3 13 12
f 3 12 11
f 3 11 10
f 3 10 9
f 3 9 8
f 3 8 7
f 3 7 6
f 3 6 5
f 3 5 4
f 20 25 21
f 21 25 26
f 21 26 34
f 21 34 44
f 21 44 55
f 21 55 54
f 21 54 53
f 21 53 71
f 21 71 75
f 21 75 72
f 21 72 56
f 21 56 45
f 21 45 35
f 21 35 27
f 22 28 23
f 23 28 30
f 23 30 31
f 23 31 29
f 24 32 33
f 27 35 36
f 29 31 38
f 29 38 37
f 30 39 31
f 31 39 40
f 31 40 41
f 31 41 42
f 31 42 38
f 32 34 33
f 32 43 44
f 32 44 34
f 35 45 46
f 35 46 36
f 36 46 47
f 37 38 48
f 38 49 48
f 38 42 49
f 42 50 49
f 42 51 50
f 43 52 53
f 43 53 54
f 43 54 55
f 43 55 44
f 45 56 57
f 45 57 58
f 45 58 59
f 45 59 60
f 45 60 46
f 46 61 47
f 46 60 61
f 47 61 62
f 47 62 63
f 49 50 64
f 50 51 65
f 50 65 66
f 50 66 67
f 50 67 68
f 50 68 64
f 52 69 70
f 52 70 53
f 53 70 71
f 56 72 73
f 56 73 57
f 57 74 58
f 57 73 75
f 57 75 76
f 57 76 59
f 57 59 74
f 58 74 59
f 59 76 69
f 59 69 60
f 60 77 78
f 60 78 62
f 60 62 61
f 60 69 79
f 60 79 80
f 60 80 77
f 62 78 63
f 63 78 81
f 63 81 82
f 66 83 67
f 67 83 85
f 67 85 86
f 67 86 87
f 67 87 88
f 67 88 89
f 67 89 84
f 69 76 90
f 69 90 70
f 70 90 75
f 70 75 71
f 72 75 73
f 75 90 76
f 77 91 78
f 77 80 92
f 77 92 91
f 78 91 89
f 78 89 93
f 78 93 81
f 79 94 80
f 80 94 92
f 81 93 95
f 81 95 82
f 84 89 96
f 88 97 98
f 88 98 89
f 89 98 93
f 89 91 92
f 89 92 96
f 93 98 99
f 93 99 97
f 97 99 98

