# https://github.com/mikedh/trimesh
v -0.00173409 0.08712039 0.01252804
v -0.00254549 0.08473756 0.02893172
v 0.00109389 0.08711774 0.01252804
v -0.00400720 0.08703840 0.01252804
v -0.00254549 0.08440169 0.03099029
v 0.00215587 0.08469524 0.02893172
v -0.00466348 0.08700931 0.01252804
v -0.00724684 0.08450747 0.02893172
v 0.00396959 0.08695642 0.01252804
v 0.00009157 0.08437788 0.03099029
v -0.00724684 0.08416895 0.03099029
v 0.00685125 0.08438053 0.02893172
v 0.00215587 0.08435673 0.03099029
v -0.00479474 0.08699609 0.01252804
v -0.01194223 0.08466879 0.02423256
v -0.01194223 0.08397590 0.02893172
v 0.01155261 0.08452598 0.02423256
v 0.01155261 0.08509723 0.01953520
v 0.01163017 0.08508665 0.01953520
v 0.01151084 0.08586682 0.01252804
v -0.01194223 0.08363473 0.03099029
v 0.00479292 0.08417953 0.03099029
v 0.00685125 0.08403143 0.03099029
v 0.00949427 0.08369027 0.03099029
v 0.01155261 0.08377226 0.02893172
v -0.01434063 0.08563409 0.01252804
v -0.01664358 0.08452598 0.01953520
v -0.01664358 0.08388069 0.02423256
v -0.01349344 0.08337291 0.03099029
v 0.01163017 0.08377226 0.02885580
v 0.01163017 0.08451276 0.02423256
v 0.01163017 0.08452334 0.02415664
v 0.01163017 0.08584567 0.01252804
v 0.01163017 0.08340465 0.03099029
v 0.01163017 0.08350515 0.03041195
v -0.01664358 0.08520831 0.01252804
v -0.01664358 0.08498879 0.01483606
v -0.02133300 0.08424301 0.01252804
v -0.02133300 0.08399970 0.01483606
v -0.02133300 0.08342052 0.01953520
v -0.01641687 0.08284134 0.03099029
v -0.02136880 0.08278580 0.02390543
v -0.01982356 0.08257423 0.02794850
v -0.01701945 0.08299737 0.02928053
v 0.01163017 0.08048495 0.01252804
v 0.01163017 0.07779534 0.03099029
v -0.02573605 0.08296828 0.01252804
v -0.02431610 0.08256100 0.01953520
v -0.02379107 0.08238381 0.02212155
v -0.01874368 0.08226745 0.03099029
v -0.01895846 0.08220398 0.03099029
v -0.02603436 0.08003800 0.03099029
v -0.02320042 0.08091338 0.03099029
v -0.04932037 0.06010526 0.03099029
v -0.04932037 0.06333174 0.01252804
v -0.03321764 0.07990049 0.01252804
v -0.03469725 0.07842741 0.01953520
v -0.03073571 0.07945883 0.02423256
v -0.03055673 0.07844064 0.03099029
v -0.04932037 0.06745740 0.03099029
v -0.04932037 0.07048552 0.01252804
v -0.03559815 0.07888758 0.01252804
v -0.03397535 0.07807832 0.02423256
v -0.03574134 0.07854642 0.01465713
v -0.03794286 0.07774245 0.01252804
v -0.03788916 0.07770806 0.01297086
v -0.03632602 0.07686707 0.02423256
v -0.03105788 0.07856494 0.02903654
v -0.03342646 0.07781121 0.02754003
v -0.03251960 0.07751501 0.03099029
v -0.04880132 0.06786996 0.03099029
v -0.04932037 0.06760021 0.03031253
v -0.04932037 0.06955989 0.01927315
v -0.04909366 0.06969477 0.01953520
v -0.04840755 0.07116784 0.01252804
v -0.04231011 0.07521151 0.01252804
v -0.04348545 0.07359564 0.01953520
v -0.04013245 0.07479630 0.02423256
v -0.04037110 0.07396324 0.02864796
v -0.03981028 0.07386275 0.03099029
v -0.03687491 0.07539664 0.03099029
v -0.03528194 0.07617681 0.03099029
v -0.03311622 0.07722674 0.03099029
v -0.04775723 0.06868451 0.03099029
v -0.04932037 0.06787525 0.02893172
v -0.04932037 0.06952022 0.01953520
v -0.04859250 0.06931394 0.02423256
v -0.04583016 0.07204322 0.01953520
v -0.04658189 0.07250074 0.01252804
v -0.04932037 0.06875592 0.02423256
v -0.04423719 0.07405845 0.01252804
v -0.04398064 0.07391299 0.01483606
v -0.04291269 0.07322802 0.02423256
v -0.04538866 0.07330736 0.01252804
v -0.04256665 0.07300587 0.02689119
v -0.04194617 0.07255100 0.03099029
v -0.04624779 0.06970800 0.03099029
v -0.04526337 0.07166239 0.02423256
v -0.04801975 0.06888551 0.02893172
v -0.04932037 0.06827195 0.02684601
v -0.04478607 0.07068387 0.03099029
f 1 2 3
f 1 3 9
f 1 9 20
f 1 20 33
f 1 33 45
f 1 45 55
f 1 55 61
f 1 61 75
f 1 75 89
f 1 89 94
f 1 94 91
f 1 91 76
f 1 76 65
f 1 65 62
f 1 62 56
f 1 56 47
f 1 47 38
f 1 38 36
f 1 36 26
f 1 26 14
f 1 14 7
f 1 7 4
f 1 4 2
f 2 5 6
f 2 6 3
f 2 4 7
f 2 7 8
f 2 8 5
f 3 6 9
f 5 10 6
f 5 8 11
f 5 11 21
f 5 21 29
f 5 29 41
f 5 41 50
f 5 50 51
f 5 51 53
f 5 53 52
f 5 52 59
f 5 59 70
f 5 70 83
f 5 83 82
f 5 82 81
f 5 81 80
f 5 80 96
f 5 96 101
f 5 101 97
f 5 97 84
f 5 84 71
f 5 71 60
f 5 60 54
f 5 54 46
f 5 46 34
f 5 34 24
f 5 24 23
f 5 23 22
f 5 22 13
f 5 13 10
f 6 12 9
f 6 10 13
f 6 13 12
f 7 14 8
f 8 14 15
f 8 15 16
f 8 16 11
f 9 12 17
f 9 17 18
f 9 18 19
f 9 19 20
f 11 16 21
f 12 13 22
f 12 22 23
f 12 23 24
f 12 24 25
f 12 25 17
f 14 26 27
f 14 27 15
f 15 27 28
f 15 28 16
f 16 28 29
f 16 29 21
f 17 25 30
f 17 30 31
f 17 31 32
f 17 32 19
f 17 19 18
f 19 32 31
f 19 31 30
f 19 30 35
f 19 35 34
f 19 34 46
f 19 46 45
f 19 45 33
f 19 33 20
f 24 34 35
f 24 35 25
f 25 35 30
f 26 36 37
f 26 37 27
f 27 37 38
f 27 38 39
f 27 39 40
f 27 40 28
f 28 41 29
f 28 40 42
f 28 42 43
f 28 43 44
f 28 44 41
f 36 38 37
f 38 47 39
f 39 47 48
f 39 48 40
f 40 48 49
f 40 49 42
f 41 44 43
f 41 43 50
f 42 49 43
f 43 51 50
f 43 49 52
f 43 52 53
f 43 53 51
f 45 46 54
f 45 54 55
f 47 56 57
f 47 57 58
f 47 58 48
f 48 58 49
f 49 58 59
f 49 59 52
f 54 60 72
f 54 72 85
f 54 85 100
f 54 100 90
f 54 90 86
f 54 86 73
f 54 73 61
f 54 61 55
f 56 62 57
f 57 63 58
f 57 62 64
f 57 64 65
f 57 65 66
f 57 66 67
f 57 67 63
f 58 68 59
f 58 63 69
f 58 69 68
f 59 68 69
f 59 69 70
f 60 71 72
f 61 73 74
f 61 74 75
f 62 65 64
f 63 67 69
f 65 76 77
f 65 77 66
f 66 77 78
f 66 78 67
f 67 78 79
f 67 79 80
f 67 80 69
f 69 80 81
f 69 81 82
f 69 82 83
f 69 83 70
f 71 84 72
f 72 84 85
f 73 86 74
f 74 87 88
f 74 88 89
f 74 89 75
f 74 86 90
f 74 90 87
f 76 91 92
f 76 92 77
f 77 93 78
f 77 92 94
f 77 94 88
f 77 88 93
f 78 93 95
f 78 95 79
f 79 95 80
f 80 95 96
f 84 97 95
f 84 95 98
f 84 98 99
f 84 99 85
f 85 99 100
f 87 90 99
f 87 99 98
f 87 98 88
f 88 98 93
f 88 94 89
f 90 100 99
f 91 94 92
f 93 98 95
f 95 97 101
f 95 101 96

