# https://github.com/mikedh/trimesh
v 0.05166388 0.05293040 0.08825800
v 0.05094884 0.05364914 0.08825800
v 0.05166388 0.04497408 0.08825800
v 0.05166388 0.06424469 0.03361575
v 0.04875807 0.05556963 0.08825800
v 0.05166388 0.06478568 0.03099212
v 0.05165881 0.04490838 0.08825800
v 0.05166388 0.04548415 0.08531483
v 0.04577112 0.05805429 0.08825800
v 0.05166388 0.05722350 0.03099212
v 0.04927534 0.06670617 0.03099212
v 0.05166388 0.04639609 0.08061695
v -0.00014374 0.06930676 0.08825800
v -0.00014374 0.07033849 0.08061695
v -0.00014374 0.07102631 0.07591907
v -0.00014374 0.07142046 0.07362059
v -0.00014374 0.07700419 0.04112225
v -0.00014374 0.07736355 0.03903680
v 0.04489380 0.05871507 0.08825800
v 0.04705921 0.06844504 0.03099212
v -0.00014374 0.07913721 0.03099212
v 0.05166388 0.05344434 0.04727211
v 0.05166388 0.04925171 0.06638316
v -0.00014374 0.07458908 0.08825800
v 0.04341807 0.05981635 0.08825800
v 0.04456924 0.07009892 0.03099212
v -0.00014374 0.08438088 0.03099212
v 0.00215860 0.07452725 0.08825800
v 0.00215860 0.07988685 0.05712756
v -0.00014374 0.07954681 0.05942604
v 0.03972115 0.06226237 0.08825800
v 0.04114617 0.07233240 0.03099212
v 0.03758110 0.06366893 0.08825800
v -0.00014374 0.08416836 0.03228712
v 0.00215860 0.08435770 0.03099212
v 0.00685962 0.07409833 0.08825800
v 0.00532811 0.08243334 0.04118953
v 0.00215860 0.08311730 0.03833044
v -0.00014374 0.07994096 0.05712756
v 0.03982765 0.07314002 0.03099212
v 0.03631329 0.06436062 0.08825800
v 0.03879819 0.07375828 0.03099212
v -0.00014374 0.08394423 0.03363256
v 0.00215860 0.08392105 0.03363256
v 0.00479563 0.08417995 0.03099212
v 0.01138823 0.07339891 0.08825800
v 0.01041455 0.08254154 0.03709150
v 0.00685962 0.08358487 0.03363256
v 0.00685962 0.08403311 0.03099212
v -0.00014374 0.08355395 0.03593665
v 0.03524833 0.06492093 0.08825800
v 0.03482742 0.07577538 0.03099212
v 0.01335079 0.07302409 0.08825800
v 0.01488737 0.08256473 0.03251696
v 0.01180914 0.08287386 0.03390166
v 0.01166207 0.08339939 0.03099212
v 0.00949666 0.08368920 0.03099212
v 0.02827033 0.06837163 0.08825800
v 0.03086173 0.07768041 0.03099212
v 0.01382241 0.07290816 0.08825800
v 0.01400498 0.07297385 0.08782073
v 0.01552127 0.08268838 0.03099212
v 0.02582093 0.06932608 0.08825800
v 0.02974606 0.07820594 0.03099212
v 0.02894480 0.07804751 0.03363256
v 0.01445124 0.07274200 0.08825800
v 0.02095255 0.07086789 0.08825800
v 0.02095255 0.07905992 0.04303393
v 0.02095255 0.07986753 0.03833044
v 0.02565358 0.07929950 0.03363256
v 0.02565358 0.07972456 0.03099212
v 0.02270720 0.07034622 0.08825800
v 0.02817905 0.07880102 0.03099212
f 1 2 5
f 1 5 9
f 1 9 19
f 1 19 25
f 1 25 31
f 1 31 33
f 1 33 41
f 1 41 51
f 1 51 58
f 1 58 63
f 1 63 72
f 1 72 67
f 1 67 66
f 1 66 60
f 1 60 53
f 1 53 46
f 1 46 36
f 1 36 28
f 1 28 24
f 1 24 13
f 1 13 7
f 1 7 3
f 1 3 8
f 1 8 12
f 1 12 23
f 1 23 22
f 1 22 10
f 1 10 6
f 1 6 4
f 1 4 2
f 2 4 6
f 2 6 5
f 3 7 8
f 5 6 9
f 6 10 21
f 6 21 27
f 6 27 35
f 6 35 45
f 6 45 49
f 6 49 57
f 6 57 56
f 6 56 62
f 6 62 71
f 6 71 73
f 6 73 64
f 6 64 59
f 6 59 52
f 6 52 42
f 6 42 40
f 6 40 32
f 6 32 26
f 6 26 20
f 6 20 11
f 6 11 9
f 7 12 8
f 7 13 14
f 7 14 15
f 7 15 16
f 7 16 17
f 7 17 18
f 7 18 12
f 9 11 20
f 9 20 19
f 10 22 21
f 12 18 23
f 13 24 30
f 13 30 39
f 13 39 50
f 13 50 43
f 13 43 34
f 13 34 27
f 13 27 21
f 13 21 18
f 13 18 17
f 13 17 16
f 13 16 15
f 13 15 14
f 18 21 22
f 18 22 23
f 19 20 25
f 20 26 25
f 24 28 29
f 24 29 30
f 25 26 31
f 26 32 33
f 26 33 31
f 27 34 35
f 28 36 37
f 28 37 29
f 29 37 38
f 29 38 30
f 30 38 39
f 32 40 33
f 33 40 42
f 33 42 41
f 34 43 44
f 34 44 35
f 35 44 45
f 36 46 47
f 36 47 48
f 36 48 37
f 37 48 49
f 37 49 45
f 37 45 44
f 37 44 38
f 38 44 39
f 39 44 50
f 41 42 51
f 42 52 51
f 43 50 44
f 46 53 54
f 46 54 55
f 46 55 47
f 47 55 56
f 47 56 57
f 47 57 49
f 47 49 48
f 51 52 58
f 52 59 58
f 53 60 61
f 53 61 54
f 54 62 56
f 54 56 55
f 54 61 62
f 58 59 64
f 58 64 65
f 58 65 63
f 60 66 61
f 61 66 67
f 61 67 68
f 61 68 62
f 62 68 69
f 62 69 70
f 62 70 71
f 63 65 70
f 63 70 72
f 64 73 70
f 64 70 65
f 67 72 68
f 68 70 69
f 68 72 70
f 70 73 71

