# https://github.com/mikedh/trimesh
v 0.00084020 -0.03201845 0.40887725
v -0.00254846 -0.03201845 0.40781021
v -0.00161593 -0.03527908 0.38929396
v 0.00084020 -0.03528718 0.38935672
v 0.00084020 -0.03201845 0.37683472
v -0.00254846 -0.03252880 0.40482877
v -0.00736219 -0.03201845 0.40162767
v -0.00587145 -0.03537629 0.38515134
v -0.00474846 -0.03506441 0.38828968
v -0.00292936 -0.03561122 0.38643805
v -0.00254846 -0.03650233 0.38132256
v -0.00254846 -0.03725977 0.37664642
v -0.00131383 -0.03990879 0.36073498
v 0.00084020 -0.03991689 0.36070361
v 0.00084020 -0.03235869 0.37325699
v -0.05987983 -0.03201845 0.08826361
v -0.00805831 -0.03201845 0.40012127
v -0.00989055 -0.03525073 0.37965923
v -0.00735563 -0.03565578 0.38129116
v -0.00724399 -0.03647398 0.37664642
v -0.00593712 -0.04003435 0.35684343
v -0.00274548 -0.04019232 0.35819293
v -0.00254846 -0.04096191 0.35314019
v -0.00254846 -0.04165454 0.34843267
v -0.00254846 -0.04461140 0.32793925
v 0.00067602 -0.04461140 0.32790787
v 0.00084020 -0.04463570 0.32762542
v 0.00084020 -0.03248830 0.37193889
v 0.00084020 -0.06635844 0.09943611
v 0.00084020 -0.06694577 0.09472858
v 0.00084020 -0.06754523 0.09002107
v 0.00084020 -0.06777206 0.08826361
v -0.06624998 -0.03201845 0.08826361
v -0.01195921 -0.03201845 0.39120835
v -0.01432996 -0.03514947 0.36971066
v -0.01455324 -0.03994929 0.34215597
v -0.01002190 -0.03996954 0.35169654
v -0.00509652 -0.04455469 0.32749988
v -0.00740160 -0.04030573 0.35320295
v -0.00968041 -0.04455064 0.32276097
v -0.00689593 -0.04471266 0.32458122
v -0.00254846 -0.04502860 0.32495782
v -0.00254846 -0.04567667 0.32025030
v -0.00254846 -0.04631260 0.31554277
v -0.00254846 -0.04692828 0.31086664
v -0.00254846 -0.04944362 0.29144026
v 0.00084020 -0.04939907 0.29065567
v 0.00084020 -0.07339414 0.08826361
v -0.06111445 -0.03201845 0.12291095
v -0.06573773 -0.03297436 0.08826361
v -0.06037893 -0.03342801 0.12291095
v -0.01229414 -0.03201845 0.39026684
v -0.01536100 -0.03201845 0.38132256
v -0.01781712 -0.03432722 0.36255524
v -0.01855265 -0.03481328 0.35784771
v -0.01894011 -0.03507251 0.35533703
v -0.01472399 -0.03538035 0.36723138
v -0.01926190 -0.03999385 0.32828447
v -0.01218249 -0.04051231 0.34372514
v -0.01698966 -0.04084445 0.32975950
v -0.01509832 -0.04020447 0.33904900
v -0.01926190 -0.04466405 0.30003934
v -0.01442847 -0.04457899 0.31356561
v -0.00724399 -0.04527567 0.32025030
v -0.00724399 -0.04593995 0.31554277
v -0.00724399 -0.04658398 0.31086664
v -0.00623921 -0.04937071 0.29087536
v -0.01194608 -0.04565237 0.31086664
v -0.01194608 -0.04632070 0.30615911
v -0.01040279 -0.04940312 0.28638752
v -0.00254846 -0.04994994 0.28736041
v -0.00254846 -0.05111647 0.27794536
v 0.00084020 -0.05867468 0.21502148
v 0.00038706 -0.06803129 0.13480530
v -0.00063741 -0.06803129 0.13480530
v -0.00254846 -0.07334958 0.08826361
v 0.00084020 -0.06071207 0.19810578
v -0.04291683 -0.03201845 0.24508686
v -0.06524520 -0.03384926 0.08826361
v -0.06514013 -0.03359003 0.09002107
v -0.06147565 -0.03546135 0.10787827
v -0.01691085 -0.03201845 0.37614429
v -0.02370131 -0.03513732 0.33672663
v -0.01936041 -0.03540465 0.35219869
v -0.01813892 -0.03201845 0.37178199
v -0.01940638 -0.03201845 0.36723138
v -0.02370131 -0.03983183 0.31322040
v -0.01972817 -0.04028143 0.32495782
v -0.01664160 -0.04618704 0.29674407
v -0.01696996 -0.04536074 0.30154574
v -0.01583384 -0.04512581 0.30615911
v -0.02209235 -0.04361498 0.29674407
v -0.02374727 -0.04455874 0.28522633
v -0.01974130 -0.04491113 0.29674407
v -0.01925533 -0.04934236 0.26714945
v -0.01440220 -0.04926135 0.28058157
v -0.00757891 -0.04962995 0.28770563
v -0.00724399 -0.05031043 0.28265289
v -0.00724399 -0.05090990 0.27794536
v -0.01195921 -0.04958539 0.28237043
v -0.01194608 -0.05016056 0.27794536
v -0.01194608 -0.05075598 0.27326922
v -0.00724399 -0.05148102 0.27326922
v -0.00254846 -0.06071207 0.19810578
v -0.00495204 -0.07272176 0.09243759
v -0.00695503 -0.07304174 0.08826361
v -0.04172818 -0.03395863 0.24508686
v -0.04220758 -0.03201845 0.24976300
v -0.05731206 -0.03631196 0.13232601
v -0.05767326 -0.03689118 0.12761849
v -0.06298609 -0.03772557 0.08826361
v -0.06259863 -0.03789569 0.09030353
v -0.06245415 -0.03706534 0.09472858
v -0.02397712 -0.03538440 0.33434148
v -0.02061474 -0.03201845 0.36255524
v -0.02397056 -0.03201845 0.34843267
v -0.02504101 -0.03201845 0.34375652
v -0.02823922 -0.03497124 0.31726886
v -0.02858071 -0.03532769 0.31413052
v -0.02743146 -0.03900148 0.30145159
v -0.02398369 -0.04004650 0.31086664
v -0.02038489 -0.04068243 0.32025030
v -0.02450907 -0.03587045 0.32963396
v -0.01492757 -0.04943552 0.27794536
v -0.02695862 -0.04350157 0.27794536
v -0.02751026 -0.04388231 0.27326922
v -0.02833773 -0.04446558 0.26598826
v -0.02404936 -0.04475721 0.28265289
v -0.02368160 -0.04921275 0.25208537
v -0.02205951 -0.04841885 0.26385418
v -0.02134369 -0.04615463 0.28265289
v -0.02158011 -0.04540934 0.28701519
v -0.02041772 -0.04525948 0.29206793
v -0.02453534 -0.04045965 0.30615911
v -0.01696996 -0.04994183 0.26865585
v -0.01584041 -0.04973931 0.27326922
v -0.03319743 -0.06337729 0.10693676
v -0.03102370 -0.06417118 0.10863149
v -0.03074131 -0.06487597 0.10414365
v -0.02824578 -0.06790573 0.08826361
v -0.02596698 -0.06878063 0.08826361
v -0.02559922 -0.06870367 0.09002107
v -0.02417414 -0.06818926 0.09852600
v -0.01924877 -0.06809205 0.11183259
v -0.01194608 -0.05131495 0.26856170
v -0.01002846 -0.06339754 0.16822871
v -0.00724399 -0.06083358 0.19339826
v -0.00552995 -0.06338944 0.17290484
v -0.00621951 -0.06815281 0.13119620
v -0.00941115 -0.07277441 0.08826361
v -0.00757234 -0.06838369 0.12796370
v -0.03797176 -0.03538035 0.26272437
v -0.04137355 -0.03336726 0.24976300
v -0.05668161 -0.03997764 0.12127902
v -0.04257534 -0.03526288 0.23400849
v -0.03878609 -0.03201845 0.27138621
v -0.06146908 -0.04010321 0.08892266
v -0.05779803 -0.03782684 0.12287957
v -0.06225057 -0.03896097 0.08826361
v -0.02810787 -0.03201845 0.32963396
v -0.02738549 -0.03403153 0.32495782
v -0.02909295 -0.03201845 0.32495782
v -0.02964459 -0.03201845 0.32222746
v -0.03220579 -0.03400723 0.30145159
v -0.03263922 -0.03459050 0.29674407
v -0.03292161 -0.03496314 0.29369987
v -0.03323683 -0.03531148 0.29056152
v -0.02890907 -0.03567603 0.31086664
v -0.02828519 -0.03971436 0.29395094
v -0.02796996 -0.03944703 0.29674407
v -0.02862011 -0.04002625 0.29081259
v -0.02508041 -0.04086470 0.30145159
v -0.02896817 -0.04033814 0.28736041
v -0.03227803 -0.04385801 0.24976300
v -0.02864638 -0.04471671 0.26284991
v -0.02515922 -0.04545390 0.27326922
v -0.02460757 -0.04510961 0.27794536
v -0.02944758 -0.04075129 0.28265289
v -0.02990728 -0.04115228 0.27794536
v -0.02685354 -0.04833379 0.24508686
v -0.03782728 -0.06333678 0.08826361
v -0.03755146 -0.06349070 0.08826361
v -0.03354549 -0.06356361 0.10414365
v -0.01664160 -0.05063041 0.26385418
v -0.03412997 -0.06387145 0.09943611
v -0.03470788 -0.06417523 0.09472858
v -0.03064937 -0.06682020 0.08826361
v -0.02345175 -0.06957453 0.08826361
v -0.02134369 -0.07004439 0.09002107
v -0.02134369 -0.06950162 0.09472858
v -0.01664160 -0.07012134 0.09943611
v -0.01664160 -0.06958668 0.10414365
v -0.01458608 -0.06808395 0.12118487
v -0.01052100 -0.06817306 0.12661421
v -0.00971324 -0.07272176 0.08826361
v -0.01203145 -0.06834723 0.12281680
v -0.03707862 -0.03413279 0.27326922
v -0.03848400 -0.03201845 0.27326922
v -0.03826071 -0.03576109 0.25917804
v -0.03755803 -0.03956855 0.24508686
v -0.03715086 -0.03909464 0.24976300
v -0.03393952 -0.03614183 0.28265289
v -0.03351922 -0.03565173 0.28736041
v -0.05691147 -0.04029763 0.11823482
v -0.05515803 -0.04264691 0.11823482
v -0.03902907 -0.03674536 0.24976300
v -0.03864818 -0.03625930 0.25447052
v -0.06151505 -0.04017612 0.08826361
v -0.05999803 -0.04227427 0.08826361
v -0.03278370 -0.03201845 0.30615911
v -0.03367683 -0.03201845 0.30145159
v -0.03419564 -0.03201845 0.29856431
v -0.03435325 -0.03224122 0.29674407
v -0.03669116 -0.03354548 0.27794536
v -0.03270489 -0.03943488 0.27326922
v -0.03225832 -0.03897312 0.27794536
v -0.02985474 -0.03664815 0.30145159
v -0.02938847 -0.03616614 0.30615911
v -0.03297414 -0.03971841 0.27038194
v -0.03326967 -0.04001410 0.26724360
v -0.03300698 -0.04444128 0.24238788
v -0.02569772 -0.04578199 0.26856170
v -0.03329594 -0.04470456 0.23924953
v -0.04267385 -0.05876784 0.09805524
v -0.03968579 -0.05990197 0.10414365
v -0.03811624 -0.06314641 0.08826361
v -0.03562728 -0.06449927 0.08826361
v -0.03572579 -0.06426434 0.08977001
v -0.02134369 -0.07021451 0.08826361
v -0.03771564 -0.03201845 0.27794536
v -0.03776161 -0.03981157 0.24267033
v -0.05672102 -0.04470861 0.09802384
v -0.05212400 -0.04481392 0.12677112
v -0.05748281 -0.04566047 0.08826361
v -0.05734490 -0.04549035 0.09002107
v -0.03356519 -0.04031384 0.26385418
v -0.03397892 -0.04071483 0.25917804
v -0.03479982 -0.04150873 0.24976300
v -0.04735624 -0.05408548 0.10279414
v -0.04806549 -0.05474976 0.09472858
v -0.04579325 -0.05747169 0.09002107
v -0.04300221 -0.05901492 0.09472858
v -0.04344221 -0.05934706 0.09002107
v -0.03996161 -0.06191102 0.08826361
v -0.05243266 -0.04518251 0.12291095
v -0.05280699 -0.04562807 0.11823482
v -0.05113236 -0.04840670 0.11352729
v -0.05202550 -0.04938287 0.10270001
v -0.05097475 -0.05300805 0.08826361
v -0.05555206 -0.04800975 0.08826361
v -0.04847922 -0.05512240 0.09002107
v -0.04595086 -0.05760535 0.08826361
v -0.04359982 -0.05946047 0.08826361
v -0.05305654 -0.05050890 0.09002107
v -0.05320102 -0.05066282 0.08826361
v -0.04863027 -0.05525607 0.08826361
f 1 2 3
f 1 3 4
f 1 4 14
f 1 14 27
f 1 27 47
f 1 47 73
f 1 73 77
f 1 77 48
f 1 48 32
f 1 32 31
f 1 31 30
f 1 30 29
f 1 29 28
f 1 28 15
f 1 15 5
f 1 5 16
f 1 16 33
f 1 33 49
f 1 49 78
f 1 78 108
f 1 108 156
f 1 156 198
f 1 198 230
f 1 230 212
f 1 212 211
f 1 211 210
f 1 210 163
f 1 163 162
f 1 162 160
f 1 160 117
f 1 117 116
f 1 116 115
f 1 115 86
f 1 86 85
f 1 85 82
f 1 82 53
f 1 53 52
f 1 52 34
f 1 34 17
f 1 17 7
f 1 7 2
f 2 6 3
f 2 7 8
f 2 8 9
f 2 9 6
f 3 6 10
f 3 10 11
f 3 11 12
f 3 12 13
f 3 13 4
f 4 13 14
f 5 15 16
f 6 9 10
f 7 17 18
f 7 18 8
f 8 18 19
f 8 19 20
f 8 20 21
f 8 21 9
f 9 11 10
f 9 21 11
f 11 21 12
f 12 22 13
f 12 21 22
f 13 22 23
f 13 23 24
f 13 24 25
f 13 25 14
f 14 25 26
f 14 26 27
f 15 28 16
f 16 29 30
f 16 30 31
f 16 31 32
f 16 32 48
f 16 48 76
f 16 76 106
f 16 106 150
f 16 150 195
f 16 195 229
f 16 229 188
f 16 188 141
f 16 141 140
f 16 140 187
f 16 187 227
f 16 227 182
f 16 182 181
f 16 181 226
f 16 226 244
f 16 244 253
f 16 253 252
f 16 252 256
f 16 256 249
f 16 249 255
f 16 255 250
f 16 250 234
f 16 234 209
f 16 209 208
f 16 208 159
f 16 159 111
f 16 111 79
f 16 79 50
f 16 50 33
f 16 28 29
f 17 34 18
f 18 34 35
f 18 35 36
f 18 36 37
f 18 37 19
f 19 37 20
f 20 37 21
f 21 38 22
f 21 37 39
f 21 39 40
f 21 40 41
f 21 41 38
f 22 38 23
f 23 38 24
f 24 38 25
f 25 38 42
f 25 42 26
f 26 42 43
f 26 43 44
f 26 44 45
f 26 45 46
f 26 46 47
f 26 47 27
f 33 50 51
f 33 51 49
f 34 52 35
f 35 52 53
f 35 53 54
f 35 54 55
f 35 55 56
f 35 56 57
f 35 57 58
f 35 58 36
f 36 59 37
f 36 58 60
f 36 60 61
f 36 61 62
f 36 62 63
f 36 63 59
f 37 59 63
f 37 63 40
f 37 40 39
f 38 41 64
f 38 64 65
f 38 65 66
f 38 66 67
f 38 67 44
f 38 44 43
f 38 43 42
f 40 63 68
f 40 68 69
f 40 69 70
f 40 70 66
f 40 66 65
f 40 65 64
f 40 64 41
f 44 67 45
f 45 67 46
f 46 67 71
f 46 71 47
f 47 71 72
f 47 72 73
f 48 74 75
f 48 75 76
f 48 77 74
f 49 51 78
f 50 79 80
f 50 80 51
f 51 80 81
f 51 81 78
f 53 82 54
f 54 82 55
f 55 82 56
f 56 83 84
f 56 84 58
f 56 58 57
f 56 82 85
f 56 85 86
f 56 86 83
f 58 84 87
f 58 87 88
f 58 88 62
f 58 62 60
f 60 62 61
f 62 89 90
f 62 90 91
f 62 91 63
f 62 88 92
f 62 92 93
f 62 93 94
f 62 94 95
f 62 95 89
f 63 91 89
f 63 89 96
f 63 96 69
f 63 69 68
f 66 70 97
f 66 97 67
f 67 97 98
f 67 98 99
f 67 99 72
f 67 72 71
f 69 96 70
f 70 96 100
f 70 100 101
f 70 101 102
f 70 102 103
f 70 103 99
f 70 99 97
f 72 99 103
f 72 103 104
f 72 104 77
f 72 77 73
f 74 77 104
f 74 104 75
f 75 104 76
f 76 105 106
f 76 104 105
f 78 107 108
f 78 81 109
f 78 109 110
f 78 110 107
f 79 111 112
f 79 112 113
f 79 113 81
f 79 81 80
f 81 113 110
f 81 110 109
f 83 114 87
f 83 87 84
f 83 86 115
f 83 115 116
f 83 116 117
f 83 117 118
f 83 118 119
f 83 119 114
f 87 120 121
f 87 121 93
f 87 93 122
f 87 122 88
f 87 114 123
f 87 123 120
f 88 122 92
f 89 124 96
f 89 91 90
f 89 95 124
f 92 122 93
f 93 125 126
f 93 126 127
f 93 127 128
f 93 128 129
f 93 129 130
f 93 130 131
f 93 131 132
f 93 132 133
f 93 133 94
f 93 121 134
f 93 134 125
f 94 133 95
f 95 135 136
f 95 136 124
f 95 133 131
f 95 131 130
f 95 130 129
f 95 129 137
f 95 137 138
f 95 138 139
f 95 139 140
f 95 140 141
f 95 141 142
f 95 142 143
f 95 143 135
f 96 102 101
f 96 101 100
f 96 124 144
f 96 144 102
f 97 99 98
f 102 145 103
f 102 144 145
f 103 145 146
f 103 146 147
f 103 147 104
f 104 147 148
f 104 148 149
f 104 149 105
f 105 149 106
f 106 149 151
f 106 151 150
f 107 152 153
f 107 153 108
f 107 110 154
f 107 154 155
f 107 155 152
f 108 153 156
f 110 113 157
f 110 157 158
f 110 158 154
f 111 159 112
f 112 159 157
f 112 157 113
f 114 119 123
f 117 160 161
f 117 161 118
f 118 161 160
f 118 160 162
f 118 162 163
f 118 163 119
f 119 163 164
f 119 164 165
f 119 165 166
f 119 166 167
f 119 167 168
f 119 168 169
f 119 169 170
f 119 170 120
f 119 120 123
f 120 170 121
f 121 170 169
f 121 169 171
f 121 171 134
f 124 136 144
f 125 134 172
f 125 172 171
f 125 171 126
f 126 171 173
f 126 173 127
f 127 174 175
f 127 175 176
f 127 176 177
f 127 177 128
f 127 173 178
f 127 178 179
f 127 179 174
f 128 177 129
f 129 177 176
f 129 176 180
f 129 180 181
f 129 181 182
f 129 182 183
f 129 183 137
f 131 133 132
f 134 171 172
f 135 143 184
f 135 184 136
f 136 184 144
f 137 183 139
f 137 139 138
f 139 183 185
f 139 185 186
f 139 186 187
f 139 187 140
f 141 188 142
f 142 188 189
f 142 189 143
f 143 189 190
f 143 190 144
f 143 144 184
f 144 190 189
f 144 189 191
f 144 191 192
f 144 192 193
f 144 193 145
f 145 193 146
f 146 193 194
f 146 194 147
f 147 194 150
f 147 150 151
f 147 151 149
f 147 149 148
f 150 194 196
f 150 196 195
f 152 197 198
f 152 198 153
f 152 155 199
f 152 199 200
f 152 200 201
f 152 201 202
f 152 202 203
f 152 203 167
f 152 167 197
f 153 198 156
f 154 158 157
f 154 157 204
f 154 204 205
f 154 205 206
f 154 206 155
f 155 206 207
f 155 207 199
f 157 159 208
f 157 208 209
f 157 209 204
f 163 210 164
f 164 210 211
f 164 211 165
f 165 211 166
f 166 211 167
f 167 211 212
f 167 212 213
f 167 213 214
f 167 214 197
f 167 203 215
f 167 215 216
f 167 216 217
f 167 217 218
f 167 218 168
f 168 218 171
f 168 171 169
f 171 216 215
f 171 215 219
f 171 219 173
f 171 218 217
f 171 217 216
f 173 219 178
f 174 220 221
f 174 221 175
f 174 179 220
f 175 222 176
f 175 221 223
f 175 223 224
f 175 224 225
f 175 225 181
f 175 181 222
f 176 222 180
f 178 219 220
f 178 220 179
f 180 222 181
f 181 225 226
f 182 227 228
f 182 228 186
f 182 186 185
f 182 185 183
f 186 228 227
f 186 227 187
f 188 229 189
f 189 229 195
f 189 195 191
f 191 195 193
f 191 193 192
f 193 195 196
f 193 196 194
f 197 214 230
f 197 230 198
f 199 207 200
f 200 207 231
f 200 231 220
f 200 220 201
f 201 220 202
f 202 220 219
f 202 219 215
f 202 215 203
f 204 209 232
f 204 232 205
f 205 232 233
f 205 233 231
f 205 231 206
f 206 231 207
f 209 234 235
f 209 235 232
f 212 230 214
f 212 214 213
f 220 231 236
f 220 236 221
f 221 236 223
f 223 236 237
f 223 237 238
f 223 238 239
f 223 239 240
f 223 240 241
f 223 241 242
f 223 242 224
f 224 242 225
f 225 242 226
f 226 243 244
f 226 242 243
f 231 238 237
f 231 237 236
f 231 233 245
f 231 245 246
f 231 246 247
f 231 247 248
f 231 248 249
f 231 249 238
f 232 235 246
f 232 246 245
f 232 245 233
f 234 250 246
f 234 246 235
f 238 249 239
f 239 249 240
f 240 249 251
f 240 251 241
f 241 251 252
f 241 252 242
f 242 252 243
f 243 252 253
f 243 253 244
f 246 250 248
f 246 248 247
f 248 250 254
f 248 254 249
f 249 254 255
f 249 256 251
f 250 255 254
f 251 256 252

