# https://github.com/mikedh/trimesh
v 0.06735872 -0.03123383 0.09048948
v 0.06629004 -0.03420556 0.09048948
v 0.06206096 -0.03123383 0.09048948
v 0.06722840 -0.03123383 0.09166772
v 0.06602940 -0.03478144 0.09048948
v 0.06661586 -0.03123383 0.09657709
v 0.06621185 -0.03400774 0.09166772
v 0.06171559 -0.03123383 0.13307008
v 0.00079457 -0.07164235 0.09048948
v 0.00079457 -0.07061807 0.09415514
v 0.00079457 -0.07049059 0.09494063
v 0.00079457 -0.07024001 0.09651164
v 0.00079457 -0.06563734 0.13035356
v 0.00079457 -0.03123383 0.39634327
v 0.06520835 -0.03655305 0.09048948
v 0.06597074 -0.03337031 0.09536611
v 0.06109655 -0.03290433 0.13163001
v 0.04294861 -0.03123383 0.25524796
v 0.00079457 -0.07613951 0.09048948
v 0.00079457 -0.03123383 0.42481763
v 0.06184592 -0.03884779 0.10577398
v 0.06223038 -0.03939730 0.10106099
v 0.06367701 -0.03926102 0.09048948
v 0.05751257 -0.03488255 0.14806002
v 0.06146146 -0.03823674 0.11045425
v 0.04230349 -0.03291312 0.25384061
v 0.03843280 -0.03123383 0.28375504
v 0.00119858 -0.07614391 0.09048948
v 0.00079457 -0.07565595 0.09480972
v 0.00079457 -0.03292631 0.41846818
v 0.00191537 -0.03123383 0.42485035
v 0.04719073 -0.03788945 0.20333954
v 0.05998877 -0.04058863 0.11045425
v 0.06032111 -0.04119968 0.10577398
v 0.06118778 -0.04241739 0.09461335
v 0.06150055 -0.04282182 0.09048948
v 0.06231510 -0.04030289 0.09624980
v 0.06326648 -0.03995120 0.09048948
v 0.03610648 -0.03123383 0.29841770
v 0.03791801 -0.03337031 0.27963117
v 0.00235197 -0.07613951 0.09048948
v 0.00476300 -0.07520315 0.09880267
v 0.00079457 -0.07520315 0.09880267
v 0.00604020 -0.03123383 0.42422850
v 0.00235197 -0.03123383 0.42481763
v 0.00079457 -0.03293950 0.41840271
v 0.00387679 -0.03270651 0.41800996
v 0.04714512 -0.04246135 0.18422573
v 0.04784236 -0.03888296 0.19505907
v 0.05764290 -0.04401316 0.11045425
v 0.05646345 -0.04709479 0.10390842
v 0.06199580 -0.04203053 0.09048948
v 0.05729753 -0.04833447 0.09166772
v 0.05795568 -0.04764429 0.09048948
v 0.03151248 -0.03123383 0.32659748
v 0.02394052 -0.03123383 0.37110910
v 0.02324979 -0.03123383 0.37516753
v 0.00720662 -0.07574386 0.09048948
v 0.01175501 -0.07170389 0.11984750
v 0.01175501 -0.07117197 0.12456050
v 0.00553844 -0.06593628 0.17529067
v 0.00235197 -0.06601979 0.17607617
v 0.00079457 -0.06601540 0.17601071
v 0.00705023 -0.03123383 0.42337754
v 0.00598155 -0.03308017 0.41486797
v 0.00079457 -0.03901484 0.38302252
v 0.00235197 -0.03909397 0.38302252
v 0.00491939 -0.03766525 0.39038658
v 0.05116568 -0.05114795 0.11516725
v 0.05156318 -0.04688378 0.13572115
v 0.03750097 -0.04220198 0.23914522
v 0.05554464 -0.05068197 0.09166772
v 0.05183686 -0.04716512 0.13261187
v 0.05737573 -0.04842679 0.09048948
v 0.02245480 -0.03123383 0.37919320
v 0.02261770 -0.03215700 0.37359652
v 0.00956553 -0.07535262 0.09048948
v 0.01411392 -0.07049938 0.12694974
v 0.01012593 -0.06127646 0.20818345
v 0.00079457 -0.05179856 0.29462111
v 0.01028232 -0.03123383 0.41915549
v 0.00911590 -0.03276365 0.41326424
v 0.00079457 -0.03927861 0.38145152
v 0.00235197 -0.03980173 0.37830952
v 0.00079457 -0.04238222 0.36145402
v 0.01003470 -0.03309336 0.41012225
v 0.00547980 -0.04242178 0.35801746
v 0.00705023 -0.04265038 0.35477726
v 0.00973495 -0.04241739 0.35320627
v 0.04234911 -0.05175460 0.16010435
v 0.04345037 -0.05284043 0.14806002
v 0.04693660 -0.05632650 0.10783591
v 0.05319225 -0.05303825 0.09166772
v 0.05326394 -0.05313936 0.09048948
v 0.05561633 -0.05077428 0.09048948
v 0.01655753 -0.03123383 0.40269273
v 0.02205730 -0.03175256 0.37830952
v 0.01971143 -0.03348461 0.37830952
v 0.02027183 -0.03385827 0.37359652
v 0.03203378 -0.05111718 0.21384560
v 0.04122830 -0.05557917 0.14334703
v 0.01999163 -0.07292600 0.09048948
v 0.02115154 -0.07254794 0.09166772
v 0.01645327 -0.07228417 0.10577398
v 0.01461567 -0.07064005 0.12456050
v 0.01907935 -0.06121051 0.19345534
v 0.01645327 -0.06215567 0.19034607
v 0.00528431 -0.04718271 0.32574653
v 0.00235197 -0.04871254 0.31720422
v 0.00079457 -0.04878287 0.31720422
v 0.01175501 -0.03123383 0.41676625
v 0.01399010 -0.03282960 0.40393644
v 0.01038007 -0.04263279 0.35009700
v 0.01434199 -0.03773559 0.37212371
v 0.04238169 -0.05647157 0.13212094
v 0.04720376 -0.05658147 0.10469392
v 0.05267095 -0.05371085 0.09048948
v 0.01572996 -0.03123383 0.40576927
v 0.01443321 -0.03311534 0.40082717
v 0.01910541 -0.03781472 0.35366447
v 0.01949639 -0.03811365 0.35009700
v 0.02846284 -0.05657268 0.19384809
v 0.03305684 -0.05650234 0.17457063
v 0.03759220 -0.05639244 0.15509679
v 0.04101326 -0.06017745 0.11516725
v 0.02115154 -0.07265344 0.09048948
v 0.02596057 -0.07114120 0.09048948
v 0.02115154 -0.07203360 0.09634799
v 0.01913799 -0.07061807 0.11379262
v 0.01677909 -0.07111043 0.11529816
v 0.01645327 -0.07175225 0.11045425
v 0.01559964 -0.07091700 0.11984750
v 0.02690544 -0.07082029 0.09048948
v 0.02934254 -0.06985755 0.09048948
v 0.03054806 -0.06742214 0.10577398
v 0.03312852 -0.06592308 0.10901416
v 0.02844981 -0.06122810 0.16085712
v 0.02371896 -0.05651993 0.21240551
v 0.01404875 -0.04225034 0.34289659
v 0.01320815 -0.03123383 0.41310059
v 0.01485677 -0.03123383 0.40855124
v 0.01475251 -0.03799056 0.36891627
v 0.04569849 -0.06001479 0.09048948
v 0.04771855 -0.05824318 0.09048948
v 0.04836367 -0.05766730 0.09048948
v 0.01597758 -0.03871591 0.35952300
v 0.01685728 -0.03888736 0.35507184
v 0.03353253 -0.06615607 0.10577398
v 0.02886034 -0.05684084 0.19034607
v 0.03866087 -0.06174683 0.11516725
v 0.03913657 -0.06208973 0.11045425
v 0.03837416 -0.06528566 0.09048948
v 0.04334610 -0.06185234 0.09048948
v 0.04392605 -0.06140394 0.09048948
v 0.03027437 -0.06946191 0.09048948
v 0.03469244 -0.06682428 0.09634799
v 0.03587841 -0.06478450 0.10577398
v 0.03742277 -0.06558898 0.09300961
v 0.03690798 -0.06624839 0.09048948
v 0.03458166 -0.06753643 0.09048948
v 0.03561124 -0.06690340 0.09153680
v 0.03552653 -0.06706166 0.09048948
f 1 2 5
f 1 5 15
f 1 15 23
f 1 23 38
f 1 38 52
f 1 52 36
f 1 36 54
f 1 54 74
f 1 74 95
f 1 95 94
f 1 94 117
f 1 117 145
f 1 145 144
f 1 144 143
f 1 143 154
f 1 154 153
f 1 153 152
f 1 152 159
f 1 159 162
f 1 162 160
f 1 160 155
f 1 155 134
f 1 134 133
f 1 133 127
f 1 127 126
f 1 126 102
f 1 102 77
f 1 77 58
f 1 58 41
f 1 41 28
f 1 28 19
f 1 19 9
f 1 9 3
f 1 3 14
f 1 14 20
f 1 20 31
f 1 31 45
f 1 45 44
f 1 44 64
f 1 64 81
f 1 81 111
f 1 111 140
f 1 140 141
f 1 141 118
f 1 118 96
f 1 96 75
f 1 75 57
f 1 57 56
f 1 56 55
f 1 55 39
f 1 39 27
f 1 27 18
f 1 18 8
f 1 8 6
f 1 6 4
f 1 4 2
f 2 4 6
f 2 6 7
f 2 7 8
f 2 8 5
f 3 9 10
f 3 10 11
f 3 11 12
f 3 12 13
f 3 13 14
f 5 8 15
f 6 16 7
f 6 8 16
f 7 16 8
f 8 17 15
f 8 18 17
f 9 19 29
f 9 29 43
f 9 43 63
f 9 63 80
f 9 80 110
f 9 110 85
f 9 85 83
f 9 83 66
f 9 66 46
f 9 46 30
f 9 30 20
f 9 20 14
f 9 14 13
f 9 13 12
f 9 12 11
f 9 11 10
f 15 21 22
f 15 22 23
f 15 17 21
f 17 24 25
f 17 25 21
f 17 18 26
f 17 26 24
f 18 27 26
f 19 28 29
f 20 30 31
f 21 32 22
f 21 25 26
f 21 26 32
f 22 32 33
f 22 33 34
f 22 34 35
f 22 35 36
f 22 36 37
f 22 37 23
f 23 37 38
f 24 26 25
f 26 27 39
f 26 39 40
f 26 40 32
f 28 41 42
f 28 42 29
f 29 42 43
f 30 44 45
f 30 45 31
f 30 46 47
f 30 47 44
f 32 48 49
f 32 49 33
f 32 40 48
f 33 49 34
f 34 49 48
f 34 48 50
f 34 50 35
f 35 51 36
f 35 50 51
f 36 52 37
f 36 51 53
f 36 53 54
f 37 52 38
f 39 55 40
f 40 55 56
f 40 56 57
f 40 57 48
f 41 58 42
f 42 58 59
f 42 59 60
f 42 60 61
f 42 61 62
f 42 62 43
f 43 62 63
f 44 47 65
f 44 65 64
f 46 65 47
f 46 66 67
f 46 67 68
f 46 68 65
f 48 69 70
f 48 70 51
f 48 51 50
f 48 57 71
f 48 71 69
f 51 72 53
f 51 70 73
f 51 73 72
f 53 72 74
f 53 74 54
f 57 75 76
f 57 76 71
f 58 77 59
f 59 78 60
f 59 77 78
f 60 78 79
f 60 79 61
f 61 79 80
f 61 80 62
f 62 80 63
f 64 65 82
f 64 82 81
f 65 68 82
f 66 83 67
f 67 84 68
f 67 83 85
f 67 85 84
f 68 86 82
f 68 84 87
f 68 87 88
f 68 88 89
f 68 89 86
f 69 90 91
f 69 91 92
f 69 92 93
f 69 93 72
f 69 72 73
f 69 73 70
f 69 71 90
f 71 76 90
f 72 93 94
f 72 94 95
f 72 95 74
f 75 96 97
f 75 97 76
f 76 97 98
f 76 98 99
f 76 99 100
f 76 100 101
f 76 101 90
f 77 102 103
f 77 103 104
f 77 104 78
f 78 104 105
f 78 105 106
f 78 106 107
f 78 107 79
f 79 108 109
f 79 109 80
f 79 107 106
f 79 106 108
f 80 109 110
f 81 82 86
f 81 86 111
f 84 85 109
f 84 109 108
f 84 108 87
f 85 110 109
f 86 112 111
f 86 89 112
f 87 108 88
f 88 108 89
f 89 113 114
f 89 114 112
f 89 108 106
f 89 106 113
f 90 101 91
f 91 101 115
f 91 115 92
f 92 116 93
f 92 115 116
f 93 116 117
f 93 117 94
f 96 118 119
f 96 119 98
f 96 98 97
f 98 119 120
f 98 120 99
f 99 120 121
f 99 121 100
f 100 121 120
f 100 120 122
f 100 122 123
f 100 123 124
f 100 124 101
f 101 124 125
f 101 125 115
f 102 126 103
f 103 126 127
f 103 127 128
f 103 128 104
f 104 128 129
f 104 129 130
f 104 130 131
f 104 131 132
f 104 132 105
f 105 132 106
f 106 132 129
f 106 129 128
f 106 128 127
f 106 127 133
f 106 133 134
f 106 134 135
f 106 135 136
f 106 136 137
f 106 137 138
f 106 138 139
f 106 139 113
f 111 112 140
f 112 119 118
f 112 118 141
f 112 141 140
f 112 114 119
f 113 139 114
f 114 139 138
f 114 138 142
f 114 142 120
f 114 120 119
f 115 125 143
f 115 143 116
f 116 143 144
f 116 144 145
f 116 145 117
f 120 142 146
f 120 146 147
f 120 147 138
f 120 138 122
f 122 137 148
f 122 148 149
f 122 149 123
f 122 138 137
f 123 149 150
f 123 150 125
f 123 125 124
f 125 150 151
f 125 151 152
f 125 152 153
f 125 153 154
f 125 154 143
f 129 132 130
f 130 132 131
f 134 155 136
f 134 136 135
f 136 155 148
f 136 148 137
f 138 147 146
f 138 146 142
f 148 155 156
f 148 156 149
f 149 156 157
f 149 157 150
f 150 157 158
f 150 158 151
f 151 158 152
f 152 158 159
f 155 160 156
f 156 160 161
f 156 161 159
f 156 159 158
f 156 158 157
f 159 161 162
f 160 162 161

