# https://github.com/mikedh/trimesh
v -0.00359043 0.02374254 0.41024620
v -0.00359043 0.02376139 0.41018359
v -0.00367930 0.02374254 0.41012100
v -0.00359043 0.02374254 0.37434556
v -0.00436483 0.02374254 0.40877512
v -0.00359043 0.07187046 0.09048948
v -0.00590093 0.07167260 0.09048948
v -0.00704982 0.07157367 0.09048948
v -0.01049017 0.07116381 0.09048948
v -0.01340368 0.07029698 0.09355683
v -0.01441928 0.07059848 0.09048948
v -0.02115398 0.06731960 0.10106875
v -0.02405479 0.06601936 0.10473080
v -0.00359043 0.02566464 0.35941564
v -0.06311100 0.02374254 0.09048948
v -0.00447274 0.02374254 0.40852473
v -0.00359043 0.06723952 0.09048948
v -0.01464779 0.07054195 0.09048948
v -0.02115398 0.06803097 0.09637380
v -0.02585114 0.06756929 0.09048948
v -0.02585114 0.06739498 0.09164756
v -0.02474667 0.06633500 0.10106875
v -0.00359043 0.04064573 0.25487498
v -0.06843656 0.02374254 0.09048948
v -0.00359043 0.06550114 0.09684330
v -0.00359043 0.05555144 0.15747062
v -0.00359043 0.05499083 0.16091358
v -0.00359043 0.05478826 0.16216556
v -0.00359043 0.04670412 0.21462369
v -0.00517096 0.02374254 0.40674065
v -0.02469589 0.06788493 0.09048948
v -0.02915819 0.06619367 0.09048948
v -0.06695124 0.02374254 0.10106875
v -0.06816996 0.02454342 0.09048948
v -0.00985542 0.02375197 0.39240543
v -0.00986812 0.02374254 0.39240543
v -0.03150677 0.06508186 0.09048948
v -0.03485825 0.06227880 0.09637380
v -0.06623398 0.02374254 0.10576368
v -0.06648152 0.02502394 0.10106875
v -0.06756695 0.02584837 0.09164756
v -0.06770024 0.02584837 0.09048948
v -0.01474300 0.02394512 0.37362567
v -0.01445736 0.02374254 0.37569144
v -0.03802565 0.06136957 0.09080247
v -0.03826051 0.06127535 0.09048948
v -0.04010764 0.06006461 0.09048948
v -0.04300210 0.05809540 0.09048948
v -0.03464878 0.06338589 0.09048948
v -0.03556917 0.06285826 0.09048948
v -0.03807009 0.06139783 0.09048948
v -0.06123214 0.02374254 0.13737628
v -0.06674177 0.02616872 0.09643640
v -0.06122579 0.02377081 0.13734498
v -0.06633554 0.02939578 0.09048948
v -0.01502229 0.02374254 0.37362567
v -0.04367493 0.05741230 0.09164756
v -0.04382093 0.05751595 0.09048948
v -0.05912477 0.02374254 0.15017782
v -0.05752519 0.02625352 0.15299478
v -0.06514220 0.03174659 0.09048948
v -0.01618388 0.02374254 0.36889943
v -0.04439855 0.05708253 0.09048948
v -0.04616950 0.05568806 0.09048948
v -0.05654768 0.02374254 0.16532682
v -0.05652863 0.02377552 0.16535812
v -0.05722686 0.02523594 0.15747062
v -0.05626204 0.02809083 0.15471626
v -0.06196210 0.03414450 0.10106875
v -0.06238739 0.03477107 0.09637380
v -0.06332682 0.03474752 0.09048948
v -0.02381994 0.02377081 0.33600354
v -0.02378820 0.02374254 0.33625395
v -0.04707720 0.04708100 0.12723521
v -0.04807376 0.05391671 0.09048948
v -0.04417004 0.02374254 0.23105598
v -0.05181878 0.03306097 0.16035019
v -0.02889794 0.02374254 0.31209065
v -0.02844092 0.02374254 0.31450072
v -0.05652863 0.04248303 0.09944116
v -0.06136544 0.03781911 0.09048948
v -0.06282536 0.03553897 0.09048948
v -0.02512752 0.02374254 0.33005662
v -0.02384533 0.02374254 0.33600354
v -0.04854347 0.05321477 0.09164756
v -0.05089205 0.05084983 0.09164756
v -0.05183783 0.04716109 0.10413611
v -0.04865773 0.05333726 0.09048948
v -0.05184418 0.03779556 0.14178952
v -0.05073971 0.04111683 0.13396462
v -0.05309463 0.04404239 0.11045862
v -0.05494176 0.04520601 0.09637380
v -0.05680793 0.04285521 0.09637380
v -0.05789969 0.04273743 0.09048948
v -0.05100631 0.05097232 0.09048948
v -0.05214251 0.04749086 0.10106875
v -0.05259318 0.04799023 0.09637380
v -0.05536069 0.04574778 0.09164756
v -0.05722051 0.04339698 0.09164756
v -0.05732207 0.04352417 0.09048948
v -0.05260588 0.04920097 0.09048948
v -0.05301212 0.04850373 0.09164756
v -0.05544956 0.04587498 0.09048948
v -0.05367860 0.04795255 0.09048948
f 1 2 3
f 1 3 5
f 1 5 16
f 1 16 30
f 1 30 36
f 1 36 44
f 1 44 56
f 1 56 62
f 1 62 73
f 1 73 84
f 1 84 83
f 1 83 79
f 1 79 78
f 1 78 76
f 1 76 65
f 1 65 59
f 1 59 52
f 1 52 39
f 1 39 33
f 1 33 24
f 1 24 15
f 1 15 4
f 1 4 14
f 1 14 23
f 1 23 29
f 1 29 28
f 1 28 27
f 1 27 26
f 1 26 25
f 1 25 17
f 1 17 6
f 1 6 2
f 2 5 3
f 2 6 7
f 2 7 8
f 2 8 9
f 2 9 10
f 2 10 11
f 2 11 12
f 2 12 13
f 2 13 5
f 4 15 14
f 5 13 16
f 6 17 15
f 6 15 24
f 6 24 34
f 6 34 42
f 6 42 55
f 6 55 61
f 6 61 71
f 6 71 82
f 6 82 81
f 6 81 94
f 6 94 100
f 6 100 103
f 6 103 104
f 6 104 101
f 6 101 95
f 6 95 88
f 6 88 75
f 6 75 64
f 6 64 63
f 6 63 58
f 6 58 48
f 6 48 47
f 6 47 46
f 6 46 51
f 6 51 50
f 6 50 49
f 6 49 37
f 6 37 32
f 6 32 20
f 6 20 31
f 6 31 18
f 6 18 11
f 6 11 9
f 6 9 8
f 6 8 7
f 9 11 10
f 11 18 12
f 12 18 19
f 12 19 13
f 13 19 20
f 13 20 21
f 13 21 22
f 13 22 16
f 14 15 23
f 15 17 25
f 15 25 26
f 15 26 27
f 15 27 28
f 15 28 29
f 15 29 23
f 16 22 30
f 18 31 19
f 19 31 20
f 20 32 21
f 21 32 22
f 22 32 30
f 24 33 34
f 30 35 36
f 30 32 37
f 30 37 38
f 30 38 35
f 33 39 40
f 33 40 41
f 33 41 34
f 34 41 42
f 35 43 44
f 35 44 36
f 35 38 45
f 35 45 46
f 35 46 47
f 35 47 48
f 35 48 43
f 37 49 38
f 38 49 50
f 38 50 51
f 38 51 45
f 39 52 40
f 40 53 41
f 40 52 54
f 40 54 53
f 41 55 42
f 41 53 55
f 43 56 44
f 43 48 57
f 43 57 56
f 45 51 46
f 48 58 57
f 52 59 54
f 53 54 55
f 54 59 60
f 54 60 55
f 55 60 61
f 56 57 63
f 56 63 64
f 56 64 62
f 57 58 63
f 59 65 66
f 59 66 67
f 59 67 60
f 60 67 68
f 60 68 61
f 61 69 70
f 61 70 71
f 61 68 69
f 62 72 73
f 62 64 74
f 62 74 72
f 64 75 74
f 65 76 66
f 66 68 67
f 66 76 68
f 68 77 69
f 68 76 78
f 68 78 79
f 68 79 77
f 69 80 70
f 69 77 80
f 70 80 81
f 70 81 82
f 70 82 71
f 72 83 84
f 72 84 73
f 72 74 83
f 74 75 85
f 74 85 86
f 74 86 87
f 74 87 79
f 74 79 83
f 75 88 85
f 77 89 80
f 77 79 89
f 79 87 90
f 79 90 89
f 80 91 87
f 80 87 92
f 80 92 93
f 80 93 81
f 80 89 91
f 81 93 94
f 85 88 95
f 85 95 86
f 86 95 96
f 86 96 87
f 87 96 92
f 87 91 90
f 89 90 91
f 92 96 97
f 92 97 98
f 92 98 93
f 93 98 99
f 93 99 94
f 94 99 100
f 95 101 97
f 95 97 96
f 97 101 102
f 97 102 98
f 98 102 103
f 98 103 100
f 98 100 99
f 101 104 102
f 102 104 103

