# https://github.com/mikedh/trimesh
v -0.10488928 -0.04217425 0.00170685
v -0.10488928 -0.04217425 0.00443709
v -0.10465342 -0.00294261 0.00165479
v -0.10485390 -0.03747962 0.00165913
v -0.10121778 -0.03278499 0.00005106
v -0.10121778 -0.03747962 0.00008866
v -0.10121778 -0.04217425 0.00017398
v -0.10482639 -0.04687856 0.00181386
v -0.10465342 -0.00294261 0.00415366
v -0.10482639 -0.04687856 0.00449494
v -0.10433894 -0.07976035 0.00879999
v -0.10437040 -0.07506571 0.00863513
v -0.10242065 -0.00294261 0.00063673
v -0.10121778 -0.00928279 0.00003371
v -0.10121778 -0.01398710 0.00000189
v -0.10121778 -0.01868173 -0.00001835
v -0.10464556 -0.00458816 0.00164612
v -0.10463770 -0.00928279 0.00162875
v -0.10121778 -0.02338604 -0.00000534
v -0.08970405 -0.02808067 -0.00162498
v -0.08960184 -0.03142984 -0.00161918
v -0.10121778 -0.04687856 0.00032003
v -0.08936599 -0.03456604 -0.00158593
v -0.10121778 -0.05157320 0.00051960
v -0.10470846 -0.05157320 0.00197583
v -0.10433894 -0.07976035 0.00676387
v -0.08385088 -0.00294261 0.01252804
v -0.10400482 -0.08306111 0.00845727
v -0.10141826 -0.08456145 0.00935818
v -0.10121778 -0.07976035 0.00980358
v -0.10121778 -0.00294261 0.00010022
v -0.10121778 -0.00458816 0.00008143
v -0.08958612 -0.01986265 -0.00161775
v -0.08969619 -0.02338604 -0.00162352
v -0.08712142 -0.02808067 -0.00173488
v -0.08712142 -0.02338604 -0.00173342
v -0.08752631 -0.03291082 -0.00169584
v -0.08674405 -0.03747962 -0.00170161
v -0.08619765 -0.04217425 -0.00168427
v -0.08500657 -0.04983086 -0.00162640
v -0.08550187 -0.04687856 -0.00165245
v -0.10121778 -0.05626783 0.00084353
v -0.10454729 -0.05626783 0.00219563
v -0.07988456 -0.06283063 -0.00155556
v -0.09652030 -0.06096246 0.00047477
v -0.10400482 -0.08306111 0.00725555
v -0.10432322 -0.06096246 0.00247329
v -0.10396944 -0.06566677 0.00279721
v -0.10369034 -0.06842548 0.00301124
v -0.08379584 -0.00481079 0.01252804
v -0.07865417 -0.00294261 0.01252804
v -0.09901645 -0.09167600 0.00812176
v -0.09981836 -0.08915929 0.00885928
v -0.09652030 -0.08915929 0.01027212
v -0.08521098 -0.00294261 -0.00162932
v -0.08916944 -0.01398710 -0.00154833
v -0.08941709 -0.01673612 -0.00159750
v -0.08681874 -0.01398710 -0.00169726
v -0.08755775 -0.01844942 -0.00169584
v -0.08242787 -0.02808067 -0.00189685
v -0.08242787 -0.03278499 -0.00189251
v -0.08242787 -0.03747962 -0.00186937
v -0.08242787 -0.04217425 -0.00183898
v -0.08242787 -0.04687856 -0.00178695
v -0.07302899 -0.06566677 -0.00188817
v -0.07695207 -0.06566677 -0.00170595
v -0.07610299 -0.06897722 -0.00166113
v -0.09652030 -0.06566677 0.00087823
v -0.10121778 -0.06096246 0.00132218
v -0.09181890 -0.07036141 0.00057599
v -0.10121778 -0.07976035 0.00493745
v -0.10141826 -0.08456145 0.00639512
v -0.09981836 -0.08915929 0.00713264
v -0.09901645 -0.09167600 0.00764745
v -0.10121778 -0.06566677 0.00192376
v -0.10122565 -0.07013877 0.00261645
v -0.09966506 -0.07394287 0.00285795
v -0.08336344 -0.00928279 0.01252804
v -0.06473470 -0.04283247 0.01252804
v -0.06473470 -0.04327773 0.01013618
v -0.06473470 -0.04418762 0.00543635
v -0.07889396 -0.00294261 0.01013618
v -0.09423249 -0.09626416 0.00789907
v -0.09608790 -0.09348610 0.00870743
v -0.09181890 -0.09385393 0.01006098
v -0.06473470 -0.05211526 0.01252804
v -0.06653508 -0.04992765 0.01252804
v -0.06883074 -0.04669465 0.01252804
v -0.06980562 -0.04532014 0.01252804
v -0.07049353 -0.04434249 0.01252804
v -0.07190081 -0.04217425 0.01252804
v -0.07445985 -0.03772161 0.01252804
v -0.07562341 -0.03558240 0.01252804
v -0.07607940 -0.03460476 0.01252804
v -0.07683021 -0.03298826 0.01252804
v -0.07880748 -0.02791612 0.01252804
v -0.08065502 -0.02314405 0.01252804
v -0.08192078 -0.01868173 0.01252804
v -0.08240429 -0.01629086 0.01252804
v -0.08280524 -0.01398710 0.01252804
v -0.08470389 -0.00294261 -0.00162932
v -0.06473470 -0.05516435 -0.00220631
v -0.08242787 -0.02338604 -0.00184767
v -0.08551367 -0.00458816 -0.00164231
v -0.08628413 -0.00928279 -0.00167413
v -0.07302899 -0.04687856 -0.00208918
v -0.06473470 -0.05985898 -0.00224535
v -0.07772647 -0.04217425 -0.00198650
v -0.07772647 -0.04687856 -0.00195757
v -0.07302899 -0.05626783 -0.00201686
v -0.07302899 -0.06096246 -0.00195614
v -0.06833151 -0.06096246 -0.00211665
v -0.06833151 -0.06566677 -0.00204722
v -0.06833151 -0.07036141 -0.00194889
v -0.07319802 -0.07046788 -0.00174790
v -0.07174751 -0.07380736 -0.00167704
v -0.08242787 -0.07976035 0.00024629
v -0.08712142 -0.07506571 0.00034318
v -0.09181890 -0.07506571 0.00114576
v -0.09652030 -0.07036141 0.00147981
v -0.09863122 -0.07706940 0.00327298
v -0.09614687 -0.08410651 0.00417535
v -0.09652030 -0.08915929 0.00573859
v -0.09608790 -0.09348610 0.00721650
v -0.09423249 -0.09626416 0.00773422
v -0.09684657 -0.07532706 0.00237495
v -0.09528599 -0.07976035 0.00279143
v -0.09433077 -0.08230610 0.00304305
v -0.06473470 -0.04485551 0.00326720
v -0.07936960 -0.00294261 0.00543635
v -0.08562373 -0.10119111 0.00819696
v -0.09181890 -0.09713533 0.00866116
v -0.08712142 -0.09385393 0.00996845
v -0.08716073 -0.09880023 0.00912103
v -0.08242787 -0.09855824 0.00930757
v -0.07385055 -0.10116206 0.00801620
v -0.06473470 -0.09855824 0.00616663
v -0.08364647 -0.00294261 -0.00087445
v -0.06473470 -0.05020836 -0.00183898
v -0.06473470 -0.05089562 -0.00191710
v -0.06833151 -0.05626783 -0.00217015
v -0.07302899 -0.05157320 -0.00206747
v -0.06473470 -0.06096246 -0.00223233
v -0.06473470 -0.06456329 -0.00218172
v -0.06473470 -0.06566677 -0.00216438
v -0.06473470 -0.07036141 -0.00206313
v -0.06473470 -0.07396224 -0.00193298
v -0.06473470 -0.07510444 -0.00188382
v -0.06837082 -0.07524963 -0.00174065
v -0.06682989 -0.07785346 -0.00164523
v -0.06996285 -0.07693389 -0.00148326
v -0.07772647 -0.08445498 0.00029545
v -0.08242787 -0.08445498 0.00089125
v -0.08712142 -0.07976035 0.00092595
v -0.09181890 -0.07976035 0.00194401
v -0.08516774 -0.09188895 0.00298666
v -0.09181890 -0.09385393 0.00575739
v -0.08981019 -0.08717496 0.00299823
v -0.09181890 -0.09713533 0.00716589
v -0.08562373 -0.10119111 0.00735244
v -0.09155552 -0.08410651 0.00275239
v -0.06473470 -0.04587188 0.00158104
v -0.07984917 -0.00294261 0.00249208
v -0.07951111 -0.00294261 0.00447903
v -0.08242787 -0.10146213 0.00846738
v -0.07772647 -0.10144277 0.00833146
v -0.06473470 -0.10182996 0.00471040
v -0.08250649 -0.00294261 0.00000913
v -0.06473470 -0.04910489 -0.00129815
v -0.06473470 -0.07826000 -0.00170740
v -0.06473470 -0.07882142 -0.00167270
v -0.06473470 -0.09745476 0.00074663
v -0.06833151 -0.09385393 0.00056298
v -0.07302899 -0.08915929 0.00040536
v -0.07772647 -0.08915929 0.00098235
v -0.08712142 -0.08445498 0.00180229
v -0.08242787 -0.08915929 0.00180807
v -0.08210554 -0.09362162 0.00273648
v -0.08032482 -0.09642871 0.00303003
v -0.08688950 -0.09362162 0.00410882
v -0.08688950 -0.08890762 0.00270756
v -0.07531680 -0.10086199 0.00316162
v -0.08716073 -0.09880023 0.00639802
v -0.08242787 -0.10146213 0.00679569
v -0.06473470 -0.04643330 0.00100549
v -0.06473470 -0.04688824 0.00058902
v -0.06473470 -0.10182996 0.00223033
v -0.06473470 -0.09855824 0.00094330
v -0.07302899 -0.09385393 0.00113563
v -0.07772647 -0.09385393 0.00193100
v -0.07772647 -0.09751284 0.00277262
v -0.07346139 -0.09899382 0.00233880
v -0.06833151 -0.09855824 0.00140606
v -0.07218384 -0.10122982 0.00282179
v -0.06833151 -0.10158797 0.00249642
f 1 2 9
f 1 9 3
f 1 3 4
f 1 4 5
f 1 5 6
f 1 6 7
f 1 7 8
f 1 8 10
f 1 10 2
f 2 10 11
f 2 11 12
f 2 12 9
f 3 9 27
f 3 27 51
f 3 51 82
f 3 82 130
f 3 130 164
f 3 164 163
f 3 163 168
f 3 168 138
f 3 138 101
f 3 101 55
f 3 55 31
f 3 31 13
f 3 13 14
f 3 14 15
f 3 15 16
f 3 16 17
f 3 17 18
f 3 18 4
f 4 18 16
f 4 16 19
f 4 19 5
f 5 20 21
f 5 21 6
f 5 19 20
f 6 21 7
f 7 22 8
f 7 21 23
f 7 23 22
f 8 22 24
f 8 24 25
f 8 25 26
f 8 26 11
f 8 11 10
f 9 12 27
f 11 26 46
f 11 46 28
f 11 28 29
f 11 29 30
f 11 30 12
f 12 30 27
f 13 31 32
f 13 32 14
f 14 33 15
f 14 32 33
f 15 33 34
f 15 34 16
f 16 18 17
f 16 34 20
f 16 20 19
f 20 35 21
f 20 34 36
f 20 36 35
f 21 35 37
f 21 37 38
f 21 38 39
f 21 39 23
f 22 23 40
f 22 40 24
f 23 39 41
f 23 41 40
f 24 42 43
f 24 43 25
f 24 40 44
f 24 44 45
f 24 45 42
f 25 43 26
f 26 43 47
f 26 47 48
f 26 48 49
f 26 49 46
f 27 50 78
f 27 78 100
f 27 100 99
f 27 99 98
f 27 98 97
f 27 97 96
f 27 96 95
f 27 95 94
f 27 94 93
f 27 93 92
f 27 92 91
f 27 91 90
f 27 90 89
f 27 89 88
f 27 88 87
f 27 87 86
f 27 86 79
f 27 79 51
f 27 30 50
f 28 46 74
f 28 74 52
f 28 52 53
f 28 53 29
f 29 53 54
f 29 54 30
f 30 54 50
f 31 55 56
f 31 56 57
f 31 57 33
f 31 33 32
f 33 36 34
f 33 57 58
f 33 58 59
f 33 59 36
f 35 60 61
f 35 61 37
f 35 36 60
f 36 59 58
f 36 58 60
f 37 62 38
f 37 61 62
f 38 62 63
f 38 63 39
f 39 63 64
f 39 64 41
f 40 65 66
f 40 66 67
f 40 67 44
f 40 41 64
f 40 64 65
f 42 45 68
f 42 68 69
f 42 69 48
f 42 48 47
f 42 47 43
f 44 67 45
f 45 67 70
f 45 70 68
f 46 71 72
f 46 72 73
f 46 73 74
f 46 49 71
f 48 69 49
f 49 69 75
f 49 75 76
f 49 76 77
f 49 77 71
f 50 54 78
f 51 79 80
f 51 80 81
f 51 81 82
f 52 74 125
f 52 125 83
f 52 83 84
f 52 84 53
f 53 84 54
f 54 84 85
f 54 85 86
f 54 86 87
f 54 87 88
f 54 88 89
f 54 89 90
f 54 90 91
f 54 91 92
f 54 92 93
f 54 93 94
f 54 94 95
f 54 95 96
f 54 96 97
f 54 97 98
f 54 98 99
f 54 99 100
f 54 100 78
f 55 101 102
f 55 102 103
f 55 103 60
f 55 60 104
f 55 104 57
f 55 57 56
f 57 104 105
f 57 105 58
f 58 105 60
f 60 106 61
f 60 105 104
f 60 103 102
f 60 102 107
f 60 107 106
f 61 106 108
f 61 108 62
f 62 108 109
f 62 109 63
f 63 109 64
f 64 109 110
f 64 110 111
f 64 111 65
f 65 111 112
f 65 112 113
f 65 113 114
f 65 114 115
f 65 115 67
f 65 67 66
f 67 115 116
f 67 116 117
f 67 117 118
f 67 118 70
f 68 75 69
f 68 70 119
f 68 119 120
f 68 120 75
f 70 118 119
f 71 121 122
f 71 122 123
f 71 123 72
f 71 77 121
f 72 123 73
f 73 123 74
f 74 123 124
f 74 124 125
f 75 120 76
f 76 120 126
f 76 126 77
f 77 126 127
f 77 127 128
f 77 128 121
f 79 86 137
f 79 137 167
f 79 167 187
f 79 187 188
f 79 188 172
f 79 172 171
f 79 171 170
f 79 170 148
f 79 148 147
f 79 147 146
f 79 146 145
f 79 145 144
f 79 144 143
f 79 143 107
f 79 107 102
f 79 102 140
f 79 140 139
f 79 139 169
f 79 169 186
f 79 186 185
f 79 185 162
f 79 162 129
f 79 129 81
f 79 81 80
f 81 129 130
f 81 130 82
f 83 125 160
f 83 160 131
f 83 131 132
f 83 132 84
f 84 132 85
f 85 133 86
f 85 132 134
f 85 134 135
f 85 135 133
f 86 133 135
f 86 135 136
f 86 136 137
f 101 138 139
f 101 139 140
f 101 140 102
f 106 107 141
f 106 141 142
f 106 142 108
f 107 143 112
f 107 112 141
f 108 142 109
f 109 142 110
f 110 142 141
f 110 141 112
f 110 112 111
f 112 143 144
f 112 144 113
f 113 144 145
f 113 145 114
f 114 146 147
f 114 147 116
f 114 116 115
f 114 145 146
f 116 147 148
f 116 148 149
f 116 149 150
f 116 150 151
f 116 151 152
f 116 152 117
f 117 152 153
f 117 153 154
f 117 154 118
f 118 154 119
f 119 154 155
f 119 155 126
f 119 126 120
f 121 128 122
f 122 128 123
f 123 156 157
f 123 157 124
f 123 128 158
f 123 158 156
f 124 157 159
f 124 159 125
f 125 159 160
f 126 155 127
f 127 155 128
f 128 161 158
f 128 155 161
f 129 162 163
f 129 163 164
f 129 164 130
f 131 160 184
f 131 184 165
f 131 165 134
f 131 134 132
f 134 165 135
f 135 165 166
f 135 166 136
f 136 166 167
f 136 167 137
f 138 168 139
f 139 168 163
f 139 163 169
f 148 170 149
f 149 170 150
f 150 170 171
f 150 171 172
f 150 172 173
f 150 173 151
f 151 173 174
f 151 174 152
f 152 174 175
f 152 175 153
f 153 176 154
f 153 175 177
f 153 177 176
f 154 176 155
f 155 176 161
f 156 177 178
f 156 178 179
f 156 179 180
f 156 180 157
f 156 158 181
f 156 181 177
f 157 180 179
f 157 179 182
f 157 182 159
f 158 161 176
f 158 176 181
f 159 182 183
f 159 183 160
f 160 182 184
f 160 183 182
f 162 185 163
f 163 185 186
f 163 186 169
f 165 184 187
f 165 187 167
f 165 167 166
f 172 188 189
f 172 189 173
f 173 189 174
f 174 189 175
f 175 189 190
f 175 190 177
f 176 177 181
f 177 190 178
f 178 190 179
f 179 191 182
f 179 190 191
f 182 192 193
f 182 193 194
f 182 194 184
f 182 191 192
f 184 195 187
f 184 194 195
f 187 195 188
f 188 195 194
f 188 194 193
f 188 193 189
f 189 193 192
f 189 192 190
f 190 192 191

