# https://github.com/mikedh/trimesh
v -0.08215719 0.00094664 0.03099352
v -0.08241308 0.00202892 0.02893274
v -0.08286361 0.00202892 0.02423298
v -0.08396289 0.00202892 0.01252804
v -0.07698877 0.00094664 0.03099352
v -0.08012802 0.00094664 0.04580445
v -0.08011721 0.00327456 0.04572291
v -0.08235182 0.00482651 0.02893274
v -0.08282396 0.00482651 0.02423298
v -0.08391604 0.00482651 0.01252804
v -0.07875482 0.00202892 0.01252804
v -0.07528038 0.00094664 0.04001499
v -0.07545338 0.00094664 0.07882882
v -0.08035869 0.00483332 0.04331373
v -0.08206708 0.00482651 0.03099352
v -0.07543175 0.00331540 0.07866574
v -0.08024336 0.00864512 0.04193493
v -0.08196616 0.00952319 0.02893274
v -0.08254644 0.00952319 0.02423298
v -0.08384395 0.00650098 0.01252804
v -0.04932653 0.06332408 0.01252804
v -0.04714599 0.06192188 0.03099352
v -0.06845763 0.00094664 0.08825800
v -0.07368732 0.00094664 0.08825800
v -0.07364407 0.00306355 0.08825800
v -0.07360803 0.00481970 0.08825800
v -0.07706085 0.00481970 0.06651603
v -0.07554708 0.00852260 0.07478880
v -0.07567684 0.00486054 0.07618243
v -0.07328725 0.00952319 0.08825800
v -0.08053890 0.00993160 0.03875480
v -0.08130659 0.00952319 0.03363992
v -0.08167783 0.00952319 0.03099352
v -0.07731314 0.00952319 0.06181627
v -0.08028300 0.01308315 0.03747238
v -0.08131380 0.01421988 0.02893274
v -0.08195896 0.01421988 0.02423298
v -0.08250319 0.01421988 0.01954062
v -0.08349074 0.01208255 0.01252804
v -0.08364572 0.00963891 0.01252804
v -0.04932653 0.07048482 0.01252804
v -0.04714599 0.06909623 0.03099352
v -0.04714599 0.05099698 0.08200154
v -0.04714599 0.04969688 0.08824317
v -0.04714599 0.04972411 0.08825800
v -0.07583902 0.00986353 0.07157162
v -0.07260245 0.01421988 0.08825800
v -0.08001990 0.01176944 0.04060803
v -0.07557592 0.01292659 0.07024472
v -0.07726629 0.01421988 0.05712392
v -0.08068307 0.01604410 0.03099352
v -0.08056053 0.01447854 0.03385490
v -0.08023975 0.01732378 0.03243903
v -0.08105070 0.01891657 0.02423298
v -0.08166702 0.01891657 0.01954062
v -0.08221846 0.01891657 0.01484086
v -0.08280955 0.01660907 0.01252804
v -0.05208735 0.06840875 0.01252804
v -0.05202247 0.06835429 0.01329156
v -0.04932653 0.06951826 0.01954062
v -0.04776231 0.06867421 0.03099352
v -0.04754966 0.06851766 0.03264660
v -0.04714599 0.06887842 0.03214251
v -0.04932653 0.06874909 0.02423298
v -0.04714599 0.05730687 0.08825800
v -0.07146353 0.01900506 0.08825800
v -0.07194649 0.01892337 0.08530768
v -0.07550744 0.01709235 0.06507052
v -0.07583542 0.01438324 0.06659017
v -0.07657428 0.01421988 0.06181627
v -0.08031544 0.01792278 0.03099352
v -0.08043798 0.01889615 0.02864364
v -0.08011721 0.02142147 0.02687937
v -0.08029742 0.02208172 0.02423298
v -0.08137868 0.02362006 0.01252804
v -0.08243831 0.01891657 0.01252804
v -0.05265321 0.06791866 0.01252804
v -0.05667549 0.06363039 0.01771706
v -0.05459227 0.06517553 0.01938496
v -0.05175216 0.06809564 0.01642721
v -0.05145301 0.06786421 0.01954062
v -0.05423545 0.06654369 0.01252804
v -0.05094842 0.06749664 0.02423298
v -0.04932653 0.06826581 0.02684972
v -0.04932653 0.06787102 0.02893274
v -0.04714599 0.06873548 0.03287640
v -0.04880753 0.06786421 0.03099352
v -0.04750641 0.06380736 0.05609352
v -0.04714599 0.06343979 0.05925141
v -0.04714599 0.05924681 0.07947374
v -0.04743793 0.05906303 0.07928101
v -0.04794252 0.05660577 0.08825800
v -0.07077152 0.02142827 0.08825800
v -0.07076071 0.02151676 0.08819870
v -0.07558313 0.02193878 0.05616766
v -0.07607690 0.01933178 0.05748715
v -0.08009559 0.02603647 0.01736125
v -0.08051727 0.02370855 0.01917739
v -0.08040554 0.02700984 0.01252804
v -0.05578886 0.06518233 0.01252804
v -0.05708998 0.06402518 0.01252804
v -0.05824332 0.06286802 0.01252804
v -0.05943991 0.06165641 0.01252804
v -0.06133933 0.05890647 0.01753915
v -0.05640157 0.06335811 0.02085271
v -0.05371284 0.06514830 0.02423298
v -0.05320105 0.06469905 0.02893274
v -0.05137372 0.06580856 0.03099352
v -0.05037535 0.06704058 0.02893274
v -0.04932653 0.06759193 0.03031895
v -0.04932653 0.06745580 0.03099352
v -0.05220629 0.06382778 0.03730929
v -0.04785602 0.05942379 0.07591555
v -0.04714599 0.06151347 0.06856940
v -0.05078263 0.05783100 0.07121579
v -0.04907424 0.05557795 0.08825800
v -0.07072467 0.02157802 0.08825800
v -0.06865946 0.02690774 0.08825800
v -0.07071746 0.02607731 0.07854713
v -0.07124367 0.02372897 0.08031140
v -0.07196811 0.02362006 0.07591555
v -0.07556511 0.02648572 0.04664211
v -0.07615259 0.02400124 0.04802090
v -0.07610573 0.03244847 0.02893274
v -0.07637245 0.03343546 0.02458138
v -0.07723746 0.03301343 0.01954062
v -0.07692389 0.02831675 0.03363992
v -0.07997304 0.02816700 0.01252804
v -0.06059686 0.06046523 0.01252804
v -0.06547335 0.05352230 0.01954062
v -0.06278822 0.05683040 0.01927376
v -0.06278461 0.05591829 0.02423298
v -0.06106181 0.05862059 0.02066738
v -0.06170695 0.05930807 0.01252804
v -0.06286030 0.05795352 0.01252804
v -0.06598875 0.05415533 0.01255028
v -0.05839830 0.06068985 0.02423298
v -0.05605917 0.06304500 0.02423298
v -0.05554738 0.06257533 0.02893274
v -0.05295957 0.06448804 0.03099352
v -0.05264960 0.06420896 0.03363992
v -0.05207654 0.05902218 0.06031145
v -0.05215943 0.05442079 0.08061533
v -0.05188912 0.05414852 0.08298003
v -0.04997168 0.05475432 0.08825800
v -0.06810081 0.02831675 0.08825800
v -0.06658344 0.03189031 0.08825800
v -0.07084721 0.03104627 0.06522618
v -0.07548582 0.03093736 0.03667179
v -0.07557952 0.03579741 0.02324706
v -0.07583542 0.03634195 0.01954062
v -0.07623549 0.03746508 0.01252804
v -0.07725548 0.03503505 0.01252804
v -0.07869355 0.03149552 0.01252804
v -0.06719615 0.05116715 0.01954062
v -0.06513095 0.05301859 0.02423298
v -0.06234130 0.05540097 0.02893274
v -0.06074824 0.05827344 0.02423298
v -0.06419025 0.05634031 0.01252804
v -0.06597433 0.05417575 0.01252804
v -0.06755657 0.05197035 0.01252804
v -0.05794778 0.06022699 0.02893274
v -0.05637635 0.06132288 0.03099352
v -0.05743238 0.05970967 0.03363992
v -0.05268565 0.05495172 0.07591555
v -0.05674758 0.05433231 0.06027439
v -0.05639797 0.05396474 0.06341004
v -0.05556180 0.05301179 0.07121579
v -0.05331998 0.05134412 0.08825800
v -0.05249102 0.05223581 0.08825800
v -0.05126559 0.05352911 0.08825800
v -0.06532197 0.03423865 0.08825800
v -0.06616896 0.03570892 0.07939220
v -0.06709163 0.03340142 0.08082288
v -0.07089766 0.03578380 0.05143823
v -0.07451628 0.03749230 0.02458138
v -0.07464243 0.03869030 0.01954062
v -0.07271058 0.04400640 0.01252804
v -0.07267814 0.04240000 0.01954062
v -0.06954609 0.04770930 0.01954062
v -0.06684295 0.05067025 0.02423298
v -0.07000022 0.04845804 0.01252804
v -0.06642125 0.05007806 0.02893274
v -0.06469123 0.05241960 0.02893274
v -0.06345139 0.05348826 0.03099352
v -0.06029411 0.05775612 0.02893274
v -0.06186554 0.05484282 0.03363992
v -0.06098252 0.05648325 0.03099352
v -0.05904345 0.05861378 0.03099352
v -0.05772432 0.06000236 0.03099352
v -0.06151233 0.05442760 0.03710915
v -0.05678002 0.04968327 0.07921429
v -0.05434358 0.05020058 0.08825800
v -0.06391994 0.03669591 0.08825800
v -0.06318468 0.03796878 0.08825800
v -0.06164929 0.04060301 0.08825800
v -0.06511293 0.03858820 0.07591555
v -0.06611850 0.04028989 0.06498899
v -0.07122565 0.04103864 0.03363992
v -0.07186359 0.03811172 0.03863620
v -0.07163293 0.04176016 0.02893274
v -0.07183476 0.04276076 0.02430710
v -0.07150678 0.04610289 0.01252804
v -0.07105986 0.04536776 0.01954062
v -0.07081837 0.04498658 0.02278746
v -0.06598514 0.04476876 0.05014840
v -0.06139700 0.04490490 0.07415871
v -0.06147268 0.04969688 0.05574512
v -0.05766665 0.04616415 0.08825800
v -0.05697825 0.04704904 0.08825800
v -0.05581409 0.04851250 0.08825800
v -0.06125643 0.04117478 0.08825800
v -0.06984524 0.04338698 0.03363992
v -0.06020401 0.04268589 0.08825800
v -0.05854247 0.04497297 0.08825800
f 1 2 3
f 1 3 4
f 1 4 11
f 1 11 5
f 1 5 12
f 1 12 23
f 1 23 24
f 1 24 13
f 1 13 6
f 1 6 7
f 1 7 2
f 2 7 8
f 2 8 9
f 2 9 3
f 3 9 4
f 4 10 20
f 4 20 40
f 4 40 39
f 4 39 57
f 4 57 76
f 4 76 75
f 4 75 99
f 4 99 128
f 4 128 154
f 4 154 153
f 4 153 152
f 4 152 178
f 4 178 203
f 4 203 182
f 4 182 161
f 4 161 160
f 4 160 159
f 4 159 135
f 4 135 134
f 4 134 129
f 4 129 103
f 4 103 102
f 4 102 101
f 4 101 100
f 4 100 82
f 4 82 77
f 4 77 58
f 4 58 41
f 4 41 21
f 4 21 11
f 4 9 10
f 5 11 12
f 6 13 7
f 7 14 15
f 7 15 8
f 7 13 16
f 7 16 14
f 8 15 17
f 8 17 18
f 8 18 19
f 8 19 9
f 9 19 20
f 9 20 10
f 11 21 22
f 11 22 12
f 12 22 23
f 13 24 25
f 13 25 26
f 13 26 16
f 14 16 27
f 14 27 17
f 14 17 15
f 16 28 29
f 16 29 27
f 16 26 30
f 16 30 28
f 17 31 32
f 17 32 33
f 17 33 18
f 17 27 29
f 17 29 28
f 17 28 34
f 17 34 31
f 18 33 31
f 18 31 35
f 18 35 36
f 18 36 37
f 18 37 19
f 19 37 38
f 19 38 39
f 19 39 40
f 19 40 20
f 21 41 42
f 21 42 22
f 22 42 63
f 22 63 86
f 22 86 89
f 22 89 114
f 22 114 90
f 22 90 65
f 22 65 45
f 22 45 44
f 22 44 43
f 22 43 23
f 23 43 44
f 23 44 45
f 23 45 65
f 23 65 92
f 23 92 116
f 23 116 145
f 23 145 171
f 23 171 170
f 23 170 169
f 23 169 193
f 23 193 211
f 23 211 210
f 23 210 209
f 23 209 215
f 23 215 214
f 23 214 212
f 23 212 196
f 23 196 195
f 23 195 194
f 23 194 172
f 23 172 147
f 23 147 146
f 23 146 118
f 23 118 117
f 23 117 93
f 23 93 66
f 23 66 47
f 23 47 30
f 23 30 26
f 23 26 25
f 23 25 24
f 28 46 34
f 28 30 47
f 28 47 46
f 31 48 35
f 31 33 32
f 31 34 48
f 34 46 49
f 34 49 35
f 34 35 48
f 35 49 50
f 35 50 36
f 36 51 37
f 36 50 52
f 36 52 51
f 37 51 53
f 37 53 54
f 37 54 55
f 37 55 56
f 37 56 38
f 38 56 57
f 38 57 39
f 41 58 59
f 41 59 60
f 41 60 42
f 42 61 62
f 42 62 63
f 42 60 64
f 42 64 61
f 46 47 49
f 47 66 67
f 47 67 68
f 47 68 69
f 47 69 49
f 49 69 70
f 49 70 50
f 50 53 52
f 50 70 68
f 50 68 53
f 51 52 53
f 53 68 71
f 53 71 54
f 54 71 72
f 54 72 73
f 54 73 55
f 55 73 74
f 55 74 75
f 55 75 56
f 56 75 76
f 56 76 57
f 58 77 59
f 59 78 79
f 59 79 80
f 59 80 81
f 59 81 60
f 59 77 82
f 59 82 78
f 60 81 83
f 60 83 64
f 61 64 84
f 61 84 85
f 61 85 62
f 62 86 63
f 62 85 87
f 62 87 88
f 62 88 89
f 62 89 86
f 64 83 84
f 65 90 91
f 65 91 92
f 66 93 94
f 66 94 67
f 67 94 95
f 67 95 96
f 67 96 68
f 68 70 69
f 68 96 73
f 68 73 72
f 68 72 71
f 73 97 74
f 73 96 95
f 73 95 97
f 74 97 98
f 74 98 75
f 75 98 97
f 75 97 99
f 78 82 100
f 78 100 101
f 78 101 102
f 78 102 103
f 78 103 104
f 78 104 105
f 78 105 79
f 79 105 106
f 79 106 81
f 79 81 80
f 81 106 83
f 83 106 107
f 83 107 108
f 83 108 109
f 83 109 85
f 83 85 84
f 85 109 110
f 85 110 87
f 87 111 88
f 87 110 111
f 88 108 112
f 88 112 113
f 88 113 91
f 88 91 114
f 88 114 89
f 88 111 109
f 88 109 108
f 90 114 91
f 91 113 115
f 91 115 92
f 92 115 116
f 93 117 94
f 94 117 118
f 94 118 119
f 94 119 120
f 94 120 121
f 94 121 122
f 94 122 95
f 95 122 123
f 95 123 97
f 97 124 125
f 97 125 126
f 97 126 99
f 97 123 122
f 97 122 127
f 97 127 124
f 99 126 128
f 103 129 104
f 104 130 131
f 104 131 132
f 104 132 133
f 104 133 105
f 104 129 134
f 104 134 135
f 104 135 136
f 104 136 130
f 105 133 137
f 105 137 138
f 105 138 106
f 106 138 107
f 107 138 139
f 107 139 140
f 107 140 108
f 108 140 141
f 108 141 112
f 109 111 110
f 112 142 113
f 112 141 139
f 112 139 142
f 113 142 115
f 115 142 143
f 115 143 144
f 115 144 145
f 115 145 116
f 118 146 119
f 119 121 120
f 119 146 147
f 119 147 148
f 119 148 149
f 119 149 122
f 119 122 121
f 122 149 127
f 124 150 125
f 124 127 149
f 124 149 148
f 124 148 150
f 125 150 126
f 126 150 151
f 126 151 152
f 126 152 153
f 126 153 154
f 126 154 128
f 130 155 156
f 130 156 132
f 130 132 131
f 130 136 155
f 132 157 158
f 132 158 133
f 132 156 157
f 133 158 137
f 135 159 136
f 136 159 160
f 136 160 161
f 136 161 155
f 137 158 162
f 137 162 138
f 138 162 139
f 139 162 163
f 139 163 142
f 139 141 140
f 142 163 164
f 142 164 165
f 142 165 143
f 143 165 166
f 143 166 167
f 143 167 168
f 143 168 144
f 144 169 170
f 144 170 171
f 144 171 145
f 144 168 169
f 147 172 173
f 147 173 174
f 147 174 175
f 147 175 148
f 148 175 150
f 150 176 177
f 150 177 151
f 150 175 176
f 151 177 152
f 152 177 179
f 152 179 178
f 155 180 181
f 155 181 156
f 155 161 182
f 155 182 180
f 156 181 183
f 156 183 184
f 156 184 185
f 156 185 157
f 157 186 158
f 157 185 187
f 157 187 188
f 157 188 186
f 158 186 162
f 162 186 189
f 162 189 190
f 162 190 163
f 163 190 164
f 164 190 189
f 164 189 166
f 164 166 165
f 166 191 192
f 166 192 168
f 166 168 167
f 166 189 186
f 166 186 191
f 168 192 193
f 168 193 169
f 172 194 173
f 173 194 195
f 173 195 196
f 173 196 197
f 173 197 198
f 173 198 199
f 173 199 175
f 173 175 174
f 175 199 200
f 175 200 176
f 176 201 202
f 176 202 177
f 176 200 199
f 176 199 201
f 177 202 179
f 178 179 204
f 178 204 203
f 179 202 204
f 180 204 205
f 180 205 181
f 180 182 204
f 181 205 183
f 182 203 204
f 183 205 206
f 183 206 196
f 183 196 207
f 183 207 208
f 183 208 184
f 184 208 191
f 184 191 185
f 185 191 187
f 186 188 191
f 187 191 188
f 191 208 192
f 192 209 210
f 192 210 211
f 192 211 193
f 192 208 209
f 196 212 207
f 196 206 198
f 196 198 197
f 198 206 205
f 198 205 213
f 198 213 199
f 199 213 201
f 201 205 202
f 201 213 205
f 202 205 204
f 207 212 214
f 207 214 215
f 207 215 209
f 207 209 208

