# https://github.com/mikedh/trimesh
v 0.07351718 0.00094050 0.08825800
v 0.06842056 0.00094050 0.08825800
v 0.07352902 0.00011189 0.08825800
v 0.07518054 0.00094050 0.07972558
v 0.07309690 0.00094050 0.05242969
v 0.05132229 -0.05431265 0.03099212
v 0.05132229 -0.05247743 0.04171649
v 0.05132229 -0.04708837 0.07392331
v 0.05132229 -0.04641935 0.07795406
v 0.05132229 -0.04476826 0.08825800
v 0.07518350 0.00011189 0.07976483
v 0.07347574 -0.00282816 0.08825800
v 0.07984505 0.00094050 0.04418316
v 0.07360893 0.00094050 0.04856151
v 0.05132229 -0.06175790 0.03099212
v 0.07473658 0.00094050 0.04007392
v 0.07482537 0.00094050 0.03943483
v 0.07646801 0.00094050 0.03099212
v 0.05132229 -0.05291322 0.08825800
v 0.07338991 -0.00458359 0.08825800
v 0.07510359 -0.00354015 0.07913695
v 0.08121243 0.00011189 0.03363256
v 0.08155577 0.00094050 0.03099212
v 0.08155577 0.00011189 0.03099212
v 0.05321354 -0.06013136 0.03099212
v 0.05298860 -0.05993495 0.03363256
v 0.05258608 -0.05957895 0.03833044
v 0.05217764 -0.05922295 0.04303393
v 0.05154722 -0.05865827 0.05037786
v 0.05132229 -0.05881171 0.05056846
v 0.05132229 -0.05334901 0.08557831
v 0.05164785 -0.05406714 0.07923786
v 0.05630348 -0.05403031 0.05075907
v 0.05234043 -0.05186978 0.08825800
v 0.07319161 -0.00752977 0.08825800
v 0.07307027 -0.00928520 0.08825800
v 0.07489049 -0.00667047 0.07808861
v 0.07535220 -0.00489662 0.07628347
v 0.08093719 -0.00458359 0.03363256
v 0.08128051 -0.00458359 0.03099212
v 0.08143738 -0.00194430 0.03099212
v 0.05453357 -0.05894675 0.03099212
v 0.05556356 -0.05800766 0.03099212
v 0.05132229 -0.05431879 0.07946771
v 0.05132229 -0.05374183 0.08314528
v 0.05691910 -0.05467479 0.04303393
v 0.05654618 -0.05428196 0.04773180
v 0.06022214 -0.05317101 0.03099212
v 0.05405706 -0.05005911 0.08825800
v 0.05317802 -0.05099207 0.08825800
v 0.07516575 -0.00810673 0.07495483
v 0.07239249 -0.01398068 0.08825800
v 0.07972370 -0.00718605 0.04096530
v 0.08103781 -0.00664592 0.03099212
v 0.05658466 -0.05697649 0.03099212
v 0.05919217 -0.05426969 0.03099212
v 0.05767087 -0.05544816 0.03363256
v 0.06109822 -0.05213985 0.03099212
v 0.05552804 -0.04845712 0.08825800
v 0.07540844 -0.00951844 0.07140619
v 0.07969706 -0.01168511 0.03605998
v 0.08072409 -0.00928520 0.03099212
v 0.07122636 -0.01889098 0.08825800
v 0.07499704 -0.01636831 0.06424165
v 0.08000784 -0.01338530 0.03099212
v 0.07513022 -0.01230504 0.06996544
v 0.05787213 -0.05565685 0.03099212
v 0.06221700 -0.05082020 0.03099212
v 0.06201869 -0.05058083 0.03363256
v 0.05674152 -0.04698403 0.08825800
v 0.08049619 -0.01067236 0.03099212
v 0.07985689 -0.01244621 0.03363256
v 0.07061666 -0.02103310 0.08825800
v 0.07650945 -0.01868229 0.04773180
v 0.07709547 -0.01868229 0.04303393
v 0.07694453 -0.02338390 0.03363256
v 0.07801595 -0.02062186 0.03099212
v 0.06353703 -0.04916298 0.03099212
v 0.06166353 -0.05015118 0.03833044
v 0.05746073 -0.04610631 0.08825800
v 0.07046572 -0.02154868 0.08825800
v 0.07517758 -0.02160392 0.05154392
v 0.07633483 -0.02338390 0.03833044
v 0.07507103 -0.02593726 0.04129604
v 0.07526933 -0.02644056 0.03833044
v 0.07558306 -0.02722621 0.03363256
v 0.07568370 -0.02785228 0.03099212
v 0.07722866 -0.02338390 0.03099212
v 0.06456700 -0.04784333 0.03099212
v 0.05833977 -0.04495853 0.08825800
v 0.06844719 -0.02672290 0.08825800
v 0.07029110 -0.02572857 0.07826801
v 0.07047163 -0.03081073 0.06085559
v 0.07191006 -0.03277485 0.04303393
v 0.07270030 -0.03438911 0.03099212
v 0.06532469 -0.04681831 0.03099212
v 0.05981074 -0.04298827 0.08825800
v 0.06791444 -0.02807937 0.08825800
v 0.06632803 -0.03192169 0.08825800
v 0.07035325 -0.03524228 0.04585938
v 0.07119085 -0.03680743 0.03363256
v 0.07126188 -0.03734757 0.03099212
v 0.06628364 -0.04549867 0.03099212
v 0.06581601 -0.04483578 0.03749514
v 0.06083481 -0.04151518 0.08825800
v 0.06505240 -0.03426635 0.08825800
v 0.06573905 -0.03538958 0.07940043
v 0.06570946 -0.04000527 0.06030620
v 0.07028517 -0.03901093 0.03099212
v 0.06765103 -0.04333813 0.03099212
v 0.06690518 -0.04189573 0.04303393
v 0.06593143 -0.04035513 0.05712756
v 0.06143859 -0.04063747 0.08825800
v 0.06384780 -0.03642075 0.08825800
v 0.06462028 -0.03814549 0.07591907
v 0.06217851 -0.03934851 0.08825800
v 0.07000104 -0.03948968 0.03099212
f 1 2 10
f 1 10 19
f 1 19 34
f 1 34 50
f 1 50 49
f 1 49 59
f 1 59 70
f 1 70 80
f 1 80 90
f 1 90 97
f 1 97 105
f 1 105 113
f 1 113 116
f 1 116 114
f 1 114 106
f 1 106 99
f 1 99 98
f 1 98 91
f 1 91 81
f 1 81 73
f 1 73 63
f 1 63 52
f 1 52 36
f 1 36 35
f 1 35 20
f 1 20 12
f 1 12 3
f 1 3 4
f 1 4 13
f 1 13 23
f 1 23 18
f 1 18 17
f 1 17 16
f 1 16 14
f 1 14 5
f 1 5 2
f 2 5 6
f 2 6 7
f 2 7 8
f 2 8 9
f 2 9 10
f 3 11 4
f 3 12 11
f 4 11 13
f 5 14 6
f 6 15 30
f 6 30 44
f 6 44 45
f 6 45 31
f 6 31 19
f 6 19 10
f 6 10 9
f 6 9 8
f 6 8 7
f 6 14 16
f 6 16 17
f 6 17 18
f 6 18 23
f 6 23 24
f 6 24 41
f 6 41 40
f 6 40 54
f 6 54 62
f 6 62 71
f 6 71 65
f 6 65 77
f 6 77 88
f 6 88 87
f 6 87 95
f 6 95 102
f 6 102 109
f 6 109 117
f 6 117 110
f 6 110 103
f 6 103 96
f 6 96 89
f 6 89 78
f 6 78 68
f 6 68 58
f 6 58 48
f 6 48 56
f 6 56 67
f 6 67 55
f 6 55 43
f 6 43 42
f 6 42 25
f 6 25 15
f 11 12 20
f 11 20 21
f 11 21 22
f 11 22 13
f 13 22 24
f 13 24 23
f 15 25 26
f 15 26 27
f 15 27 28
f 15 28 29
f 15 29 30
f 19 31 32
f 19 32 33
f 19 33 34
f 20 35 21
f 21 35 36
f 21 36 37
f 21 37 38
f 21 38 39
f 21 39 40
f 21 40 41
f 21 41 24
f 21 24 22
f 25 42 26
f 26 42 27
f 27 42 28
f 28 42 29
f 29 42 43
f 29 43 32
f 29 32 44
f 29 44 30
f 31 45 32
f 32 46 47
f 32 47 33
f 32 45 44
f 32 43 46
f 33 47 48
f 33 48 49
f 33 49 50
f 33 50 34
f 36 51 37
f 36 52 51
f 37 51 38
f 38 51 53
f 38 53 39
f 39 53 40
f 40 53 54
f 43 55 46
f 46 56 48
f 46 48 47
f 46 55 57
f 46 57 56
f 48 58 59
f 48 59 49
f 51 60 61
f 51 61 62
f 51 62 53
f 51 52 60
f 52 63 64
f 52 64 65
f 52 65 61
f 52 61 66
f 52 66 60
f 53 62 54
f 55 67 57
f 56 57 67
f 58 68 59
f 59 68 69
f 59 69 70
f 60 66 61
f 61 71 62
f 61 65 72
f 61 72 71
f 63 73 74
f 63 74 64
f 64 74 65
f 65 71 72
f 65 74 75
f 65 75 76
f 65 76 77
f 68 78 69
f 69 78 79
f 69 79 70
f 70 79 80
f 73 81 82
f 73 82 74
f 74 82 76
f 74 76 75
f 76 83 84
f 76 84 85
f 76 85 86
f 76 86 87
f 76 87 88
f 76 88 77
f 76 82 81
f 76 81 83
f 78 89 80
f 78 80 79
f 80 89 90
f 81 91 92
f 81 92 84
f 81 84 83
f 84 92 85
f 85 92 86
f 86 92 87
f 87 92 93
f 87 93 94
f 87 94 95
f 89 96 97
f 89 97 90
f 91 98 92
f 92 98 99
f 92 99 93
f 93 99 94
f 94 99 100
f 94 100 95
f 95 100 101
f 95 101 102
f 96 103 97
f 97 103 104
f 97 104 105
f 99 106 107
f 99 107 100
f 100 107 101
f 101 107 102
f 102 107 108
f 102 108 109
f 103 110 104
f 104 110 111
f 104 111 112
f 104 112 113
f 104 113 105
f 106 114 107
f 107 115 108
f 107 114 116
f 107 116 113
f 107 113 115
f 108 113 112
f 108 112 117
f 108 117 109
f 108 115 113
f 110 117 111
f 111 117 112

