# https://github.com/mikedh/trimesh
v -0.01937070 -0.00479130 0.45170669
v -0.02064172 -0.00705147 0.44410471
v -0.01937070 -0.00694071 0.45167132
v -0.01937070 -0.00361481 0.45096416
v -0.02372698 -0.00361481 0.42441032
v -0.02375335 -0.00705147 0.42458711
v -0.02361095 -0.00987145 0.42370316
v -0.01937070 -0.00950922 0.44880732
v -0.01937070 -0.00361481 0.41900054
v -0.02436512 -0.00705147 0.42059166
v -0.06121942 -0.00361481 0.17778834
v -0.06114030 -0.00435124 0.17895515
v -0.02352657 -0.01415530 0.41839946
v -0.05311864 -0.01175144 0.22796133
v -0.05317665 -0.01645140 0.22325872
v -0.01937070 -0.01139220 0.44573118
v -0.02140644 -0.00361481 0.40181656
v -0.01937070 -0.03419749 0.33562641
v -0.06114030 -0.00518945 0.17895515
v -0.05646232 -0.00979661 0.20717083
v -0.07061757 -0.00361481 0.11382573
v -0.01987173 -0.02056162 0.42059166
v -0.01939180 -0.01980723 0.42529426
v -0.01937070 -0.01822660 0.42928971
v -0.01937070 -0.01234716 0.44350362
v -0.03767127 -0.01906781 0.31996281
v -0.03908469 -0.02114836 0.30779966
v -0.03825141 -0.02142677 0.31267907
v -0.03776093 -0.02388452 0.31119404
v -0.03768710 -0.02836894 0.30122308
v -0.06599760 -0.01080845 0.14246572
v -0.06128270 -0.01500848 0.17036316
v -0.06224783 -0.01645140 0.16216011
v -0.05646760 -0.01899596 0.19797776
v -0.02182309 -0.00361481 0.39838683
v -0.04050338 -0.00361481 0.27024948
v -0.03125816 -0.00361481 0.33131273
v -0.02654326 -0.00361481 0.36419566
v -0.02316794 -0.00361481 0.38788550
v -0.02303082 -0.00361481 0.38887553
v -0.02239794 -0.00361481 0.39368422
v -0.01937070 -0.03419749 0.36812041
v -0.05816580 -0.03419749 0.10551661
v -0.06848163 -0.00361481 0.09048946
v -0.06828649 -0.00361481 0.09165628
v -0.07059121 -0.00527028 0.11371966
v -0.07275352 -0.00361481 0.09635890
v -0.07269551 -0.00705147 0.09635890
v -0.01937070 -0.02096276 0.42179382
v -0.03278760 -0.03280547 0.31455305
v -0.01937070 -0.01981621 0.42536498
v -0.01937070 -0.01977729 0.42547105
v -0.03907414 -0.02584833 0.29842980
v -0.03793497 -0.02885091 0.29842980
v -0.03664813 -0.03120089 0.29842980
v -0.07250037 -0.01175144 0.09635890
v -0.07050155 -0.01413435 0.10813311
v -0.07069668 -0.01508631 0.10576412
v -0.07105004 -0.01675076 0.10123829
v -0.07062812 -0.01922647 0.09978862
v -0.06593959 -0.02389051 0.12308953
v -0.06621384 -0.02456407 0.11987196
v -0.05337179 -0.02114836 0.21385349
v -0.01937070 -0.03404482 0.36893363
v -0.02027782 -0.03419749 0.36476138
v -0.06044414 -0.03419749 0.09208058
v -0.07324927 -0.00361481 0.09048946
v -0.06082914 -0.03419749 0.09048946
v -0.07287482 -0.00361481 0.09508600
v -0.07315434 -0.00705147 0.09165628
v -0.07301194 -0.01175144 0.09165628
v -0.01937070 -0.02131900 0.42059166
v -0.03312514 -0.03321559 0.31144154
v -0.02931208 -0.03419749 0.32689298
v -0.01937070 -0.02293255 0.41507580
v -0.05251214 -0.02150760 0.21876825
v -0.06643534 -0.02599501 0.11474504
v -0.06593959 -0.03318266 0.09950576
v -0.03832524 -0.02963224 0.29372719
v -0.03765018 -0.03296413 0.28700917
v -0.07233688 -0.01645140 0.09165628
v -0.07177784 -0.01645140 0.09635890
v -0.07083907 -0.01988506 0.09635890
v -0.06710513 -0.02584833 0.11046673
v -0.01937070 -0.03340419 0.37229264
v -0.02381136 -0.03419749 0.35012318
v -0.07321762 -0.00705147 0.09048946
v -0.07320180 -0.00361481 0.09133806
v -0.06659356 -0.03419749 0.09048946
v -0.07318071 -0.00361481 0.09165628
v -0.07307523 -0.01175144 0.09048946
v -0.07294865 -0.01290397 0.09048946
v -0.07244236 -0.01645140 0.09048946
v -0.03344685 -0.03364667 0.30779966
v -0.03301439 -0.03419749 0.30779966
v -0.03219165 -0.03419749 0.31218406
v -0.02380609 -0.03321259 0.35482579
v -0.02353184 -0.03293120 0.35730084
v -0.01937070 -0.02418987 0.41054998
v -0.06731082 -0.03054529 0.09635890
v -0.06616110 -0.03365864 0.09635890
v -0.03700148 -0.03419749 0.28432196
v -0.03640553 -0.03419749 0.28814063
v -0.03391095 -0.03419749 0.30270812
v -0.06587103 -0.03419749 0.09635890
v -0.07214702 -0.01760393 0.09048946
v -0.07109750 -0.02126512 0.09048946
v -0.01937070 -0.02882696 0.39159810
v -0.06753759 -0.03160204 0.09048946
v -0.06658828 -0.03419749 0.09056018
v -0.07081271 -0.02211829 0.09048946
v -0.06780129 -0.03054529 0.09165628
v -0.06646698 -0.03419749 0.09176236
v -0.06641952 -0.03419749 0.09218665
f 1 2 3
f 1 3 8
f 1 8 16
f 1 16 25
f 1 25 24
f 1 24 52
f 1 52 51
f 1 51 49
f 1 49 72
f 1 72 75
f 1 75 99
f 1 99 108
f 1 108 85
f 1 85 64
f 1 64 42
f 1 42 18
f 1 18 9
f 1 9 4
f 1 4 5
f 1 5 2
f 2 5 6
f 2 6 7
f 2 7 3
f 3 7 8
f 4 9 17
f 4 17 35
f 4 35 41
f 4 41 40
f 4 40 39
f 4 39 38
f 4 38 37
f 4 37 36
f 4 36 45
f 4 45 44
f 4 44 67
f 4 67 88
f 4 88 90
f 4 90 69
f 4 69 47
f 4 47 21
f 4 21 11
f 4 11 5
f 5 10 6
f 5 11 12
f 5 12 10
f 6 10 7
f 7 13 8
f 7 10 14
f 7 14 15
f 7 15 13
f 8 13 16
f 9 18 17
f 10 12 19
f 10 19 20
f 10 20 14
f 11 21 12
f 12 21 19
f 13 22 23
f 13 23 24
f 13 24 25
f 13 25 16
f 13 15 26
f 13 26 27
f 13 27 28
f 13 28 29
f 13 29 30
f 13 30 22
f 14 20 31
f 14 31 32
f 14 32 15
f 15 32 33
f 15 33 34
f 15 34 27
f 15 27 26
f 17 18 35
f 18 36 37
f 18 37 38
f 18 38 39
f 18 39 40
f 18 40 41
f 18 41 35
f 18 42 65
f 18 65 86
f 18 86 74
f 18 74 96
f 18 96 95
f 18 95 104
f 18 104 103
f 18 103 102
f 18 102 105
f 18 105 114
f 18 114 113
f 18 113 110
f 18 110 89
f 18 89 68
f 18 68 66
f 18 66 43
f 18 43 44
f 18 44 45
f 18 45 36
f 19 21 46
f 19 46 31
f 19 31 20
f 21 47 48
f 21 48 46
f 22 49 23
f 22 30 50
f 22 50 49
f 23 49 51
f 23 51 52
f 23 52 24
f 27 29 28
f 27 34 29
f 29 34 53
f 29 53 30
f 30 53 54
f 30 54 55
f 30 55 50
f 31 46 56
f 31 56 57
f 31 57 32
f 32 57 58
f 32 58 33
f 33 58 59
f 33 59 34
f 34 59 60
f 34 60 61
f 34 61 62
f 34 62 63
f 34 63 53
f 42 64 65
f 43 66 44
f 44 66 68
f 44 68 89
f 44 89 109
f 44 109 111
f 44 111 107
f 44 107 106
f 44 106 93
f 44 93 92
f 44 92 91
f 44 91 87
f 44 87 67
f 46 48 56
f 47 69 70
f 47 70 48
f 48 70 71
f 48 71 56
f 49 50 72
f 50 55 73
f 50 73 74
f 50 74 75
f 50 75 72
f 53 63 76
f 53 76 62
f 53 62 54
f 54 62 77
f 54 77 78
f 54 78 79
f 54 79 55
f 55 79 80
f 55 80 73
f 56 71 81
f 56 81 82
f 56 82 58
f 56 58 57
f 58 82 59
f 59 82 60
f 60 82 81
f 60 81 83
f 60 83 84
f 60 84 62
f 60 62 61
f 62 76 63
f 62 84 77
f 64 85 65
f 65 85 86
f 67 87 70
f 67 70 88
f 69 90 70
f 70 90 88
f 70 87 91
f 70 91 71
f 71 91 92
f 71 92 93
f 71 93 81
f 73 94 95
f 73 95 96
f 73 96 74
f 73 80 94
f 74 86 97
f 74 97 98
f 74 98 99
f 74 99 75
f 77 84 78
f 78 84 100
f 78 100 101
f 78 101 80
f 78 80 79
f 80 102 103
f 80 103 104
f 80 104 95
f 80 95 94
f 80 101 105
f 80 105 102
f 81 93 106
f 81 106 83
f 83 100 84
f 83 106 107
f 83 107 100
f 85 98 86
f 85 108 98
f 86 98 97
f 89 110 109
f 98 108 99
f 100 107 111
f 100 111 112
f 100 112 113
f 100 113 101
f 101 113 114
f 101 114 105
f 109 112 111
f 109 110 113
f 109 113 112

