# https://github.com/mikedh/trimesh
v 0.06473048 0.02067662 0.09048948
v 0.02559084 0.05997639 0.09613114
v 0.02559084 0.06008416 0.09551669
v 0.02559084 0.06065002 0.09250037
v 0.02559084 0.06107666 0.09048948
v 0.07023197 0.02067662 0.09048948
v 0.06051807 0.02067662 0.11573733
v 0.02559084 0.02067662 0.33763362
v 0.02559084 0.06655554 0.09048948
v 0.06807770 0.02585013 0.09048948
v 0.06733921 0.02585013 0.09635457
v 0.06112546 0.02356426 0.14590070
v 0.04665729 0.02067662 0.25141665
v 0.02559084 0.02067662 0.37581264
v 0.02593605 0.06644326 0.09048948
v 0.02559084 0.06214100 0.12076456
v 0.06764509 0.02687854 0.09048948
v 0.06649148 0.02951469 0.09048948
v 0.06639972 0.02934404 0.09166249
v 0.04702872 0.02354630 0.23985402
v 0.04165832 0.02067662 0.28431706
v 0.02559084 0.02092362 0.37449998
v 0.03240762 0.02067662 0.34070582
v 0.03186577 0.02238316 0.33601373
v 0.03234207 0.02289063 0.33132166
v 0.03317232 0.03317028 0.27836818
v 0.02691924 0.06610195 0.09048948
v 0.02625941 0.06200627 0.12017805
v 0.02559084 0.04667437 0.22591743
v 0.06159302 0.03839318 0.09048948
v 0.04772788 0.02925871 0.21385208
v 0.04217833 0.02809108 0.25328789
v 0.04119077 0.02152540 0.28431706
v 0.03402879 0.02067662 0.33132166
v 0.02559084 0.02197000 0.36891416
v 0.03325097 0.02067662 0.33601373
v 0.03743280 0.02803270 0.28104937
v 0.03635785 0.03147272 0.27021290
v 0.03012662 0.03602199 0.27468154
v 0.02676193 0.03671358 0.28431706
v 0.02943620 0.03394720 0.28900915
v 0.03676423 0.03200713 0.26552082
v 0.03353500 0.03349362 0.27490498
v 0.03304997 0.04242599 0.22636429
v 0.02802041 0.06567981 0.09048948
v 0.02861469 0.06131018 0.11883745
v 0.02559084 0.04636899 0.22795625
v 0.06039135 0.04016708 0.09048948
v 0.05999807 0.04074640 0.09048948
v 0.05765153 0.04376877 0.09048948
v 0.02559084 0.03739620 0.28431706
v 0.02827385 0.03765218 0.27292201
v 0.02993435 0.04335561 0.23264833
v 0.05558465 0.04611751 0.09048948
v 0.03778675 0.04244845 0.20301561
v 0.05311575 0.04829559 0.09166249
v 0.04826098 0.05296611 0.09048948
v 0.04564352 0.05531933 0.09048948
v 0.04102035 0.05552592 0.11045873
v 0.03776927 0.05650044 0.11825094
v 0.02931822 0.06504211 0.09048948
v 0.03489399 0.06214548 0.09048948
v 0.02627689 0.04603667 0.22795625
v 0.02930074 0.04295592 0.23731248
v 0.02864091 0.04255623 0.24203249
v 0.05323373 0.04838091 0.09048948
v 0.04329260 0.05703935 0.09048948
v 0.04234000 0.05642409 0.09892404
f 1 2 3
f 1 3 4
f 1 4 5
f 1 5 9
f 1 9 15
f 1 15 27
f 1 27 45
f 1 45 61
f 1 61 62
f 1 62 67
f 1 67 58
f 1 58 57
f 1 57 66
f 1 66 54
f 1 54 50
f 1 50 49
f 1 49 48
f 1 48 30
f 1 30 18
f 1 18 17
f 1 17 10
f 1 10 6
f 1 6 13
f 1 13 21
f 1 21 34
f 1 34 36
f 1 36 23
f 1 23 14
f 1 14 8
f 1 8 7
f 1 7 2
f 2 7 8
f 2 8 14
f 2 14 22
f 2 22 35
f 2 35 51
f 2 51 47
f 2 47 29
f 2 29 16
f 2 16 9
f 2 9 5
f 2 5 4
f 2 4 3
f 6 10 11
f 6 11 12
f 6 12 13
f 9 16 15
f 10 17 11
f 11 17 18
f 11 18 19
f 11 19 12
f 12 19 18
f 12 18 20
f 12 20 13
f 13 20 21
f 14 23 24
f 14 24 25
f 14 25 26
f 14 26 22
f 15 16 28
f 15 28 27
f 16 29 28
f 18 30 20
f 20 31 32
f 20 32 33
f 20 33 21
f 20 30 31
f 21 33 34
f 22 26 35
f 23 36 37
f 23 37 25
f 23 25 24
f 25 37 38
f 25 38 26
f 26 39 40
f 26 40 41
f 26 41 35
f 26 38 42
f 26 42 43
f 26 43 44
f 26 44 39
f 27 28 46
f 27 46 45
f 28 29 46
f 29 47 46
f 30 48 32
f 30 32 31
f 32 37 36
f 32 36 34
f 32 34 33
f 32 48 49
f 32 49 50
f 32 50 37
f 35 41 40
f 35 40 51
f 37 42 38
f 37 50 42
f 39 52 40
f 39 44 52
f 40 52 44
f 40 44 53
f 40 53 51
f 42 50 54
f 42 54 43
f 43 55 44
f 43 54 56
f 43 56 57
f 43 57 55
f 44 55 58
f 44 58 59
f 44 59 60
f 44 60 53
f 45 46 61
f 46 60 62
f 46 62 61
f 46 47 63
f 46 63 60
f 47 51 63
f 51 53 64
f 51 64 65
f 51 65 63
f 53 63 64
f 53 60 63
f 54 66 56
f 55 57 58
f 56 66 57
f 58 67 68
f 58 68 59
f 59 68 60
f 60 68 67
f 60 67 62
f 63 65 64

