# https://github.com/mikedh/trimesh
v -0.03543369 0.10712438 0.00448161
v -0.03543369 0.10712438 0.00179901
v -0.04013104 0.10706742 0.00455861
v -0.05447639 0.10637920 0.00570345
v 0.00178162 0.10694876 0.00392551
v -0.00254676 0.10699148 0.00395814
v -0.00724411 0.10702470 0.00400122
v -0.03543369 0.10348865 0.00042705
v -0.04013104 0.10706742 0.00196089
v -0.00724411 0.10702470 0.00153533
v -0.03073084 0.10710539 0.00170373
v -0.03073084 0.10348865 0.00027823
v -0.04482839 0.10690604 0.00465521
v -0.05447639 0.10638395 0.00557552
v -0.05447639 0.10372597 0.00713546
v -0.04953124 0.10670669 0.00483145
v 0.00109327 0.08711839 0.01252674
v 0.00178162 0.08704245 0.01252674
v 0.00178162 0.10694876 0.00148051
v -0.00254676 0.10699148 0.00150791
v -0.04482839 0.07529991 -0.00062510
v -0.04482839 0.09409082 0.00029260
v -0.05422859 0.08939190 0.00040617
v -0.04953124 0.09409082 0.00048710
v -0.04013104 0.10348865 0.00069204
v -0.04482839 0.10690604 0.00217366
v 0.00178162 0.10376868 -0.00001417
v -0.02603900 0.10707692 0.00165411
v 0.00178162 0.10348865 -0.00014080
v -0.02134165 0.10348865 0.00013725
v -0.02603900 0.10348865 0.00019600
v -0.01194146 0.08939190 -0.00067470
v -0.03073084 0.08469299 -0.00051414
v -0.05447639 0.10647412 0.00274803
v -0.05447639 0.06633399 0.01252674
v -0.05264812 0.06792878 0.01252674
v -0.05208091 0.06842240 0.01252674
v -0.04840784 0.07117055 0.01252674
v -0.04658507 0.07250429 0.01252674
v -0.04539008 0.07330643 0.01252674
v -0.04423365 0.07406110 0.01252674
v -0.04230625 0.07521447 0.01252674
v -0.03794482 0.07774429 0.01252674
v -0.03559890 0.07889292 0.01252674
v -0.03321994 0.07990390 0.01252674
v -0.02574163 0.08296531 0.01252674
v -0.02134165 0.08424208 0.01252674
v -0.01664431 0.08520560 0.01252674
v -0.01434244 0.08563277 0.01252674
v -0.00479356 0.08699498 0.01252674
v -0.00466140 0.08700922 0.01252674
v -0.00400608 0.08703770 0.01252674
v -0.00173175 0.08711839 0.01252674
v -0.04953124 0.10670669 0.00238906
v 0.00178162 0.08142273 0.01252674
v -0.04953124 0.07060099 -0.00043452
v -0.05422859 0.07060099 -0.00043974
v -0.00724411 0.08939190 -0.00072431
v 0.00178162 0.08939190 -0.00080785
v -0.05447639 0.08939190 0.00042052
v -0.05422859 0.09409082 0.00080039
v -0.04482839 0.10348865 0.00105494
v -0.05447639 0.10646463 0.00261098
v -0.05422859 0.10647887 0.00259923
v -0.05447639 0.05864011 0.01252674
v 0.00178162 0.08214893 0.00501551
v -0.05447639 0.06590208 -0.00022825
v -0.05447639 0.07060099 -0.00042277
v 0.00178162 0.08432752 0.00133169
v -0.05422859 0.06590208 -0.00021129
v -0.05447639 0.09409082 0.00082127
v -0.04953124 0.10348865 0.00145701
v -0.05447639 0.10363104 0.00192826
v -0.05447639 0.05900559 0.01013526
v 0.00178162 0.08233879 0.00308745
v -0.05447639 0.06263656 0.00125989
v 0.00178162 0.08423259 0.00137216
v -0.05447639 0.10348865 0.00190214
v -0.05422859 0.10348865 0.00187734
v -0.05447639 0.05944225 0.00737044
v -0.05447639 0.05976500 0.00543845
v -0.05447639 0.06154015 0.00180033
f 1 2 9
f 1 9 3
f 1 3 4
f 1 4 5
f 1 5 6
f 1 6 7
f 1 7 10
f 1 10 2
f 2 8 9
f 2 10 11
f 2 11 12
f 2 12 8
f 3 9 26
f 3 26 13
f 3 13 4
f 4 14 34
f 4 34 63
f 4 63 73
f 4 73 78
f 4 78 71
f 4 71 60
f 4 60 68
f 4 68 67
f 4 67 76
f 4 76 82
f 4 82 81
f 4 81 80
f 4 80 74
f 4 74 65
f 4 65 35
f 4 35 15
f 4 15 5
f 4 13 16
f 4 16 14
f 5 17 18
f 5 18 55
f 5 55 66
f 5 66 75
f 5 75 77
f 5 77 69
f 5 69 59
f 5 59 29
f 5 29 27
f 5 27 19
f 5 19 20
f 5 20 6
f 5 15 17
f 6 20 10
f 6 10 7
f 8 21 22
f 8 22 23
f 8 23 24
f 8 24 25
f 8 25 9
f 8 12 21
f 9 25 26
f 10 20 27
f 10 27 28
f 10 28 11
f 11 28 29
f 11 29 30
f 11 30 31
f 11 31 12
f 12 31 32
f 12 32 33
f 12 33 21
f 13 26 54
f 13 54 16
f 14 16 34
f 15 35 36
f 15 36 37
f 15 37 38
f 15 38 39
f 15 39 40
f 15 40 41
f 15 41 42
f 15 42 43
f 15 43 44
f 15 44 45
f 15 45 46
f 15 46 47
f 15 47 48
f 15 48 49
f 15 49 50
f 15 50 51
f 15 51 52
f 15 52 53
f 15 53 17
f 16 54 34
f 17 53 52
f 17 52 51
f 17 51 50
f 17 50 49
f 17 49 48
f 17 48 47
f 17 47 46
f 17 46 45
f 17 45 44
f 17 44 43
f 17 43 42
f 17 42 41
f 17 41 40
f 17 40 39
f 17 39 38
f 17 38 37
f 17 37 36
f 17 36 35
f 17 35 65
f 17 65 55
f 17 55 18
f 19 27 20
f 21 56 57
f 21 57 23
f 21 23 22
f 21 33 32
f 21 32 58
f 21 58 59
f 21 59 56
f 23 57 60
f 23 60 24
f 24 60 61
f 24 61 25
f 25 62 63
f 25 63 64
f 25 64 54
f 25 54 26
f 25 61 62
f 27 29 28
f 29 59 58
f 29 58 32
f 29 32 30
f 30 32 31
f 34 54 64
f 34 64 63
f 55 65 66
f 56 67 57
f 56 59 67
f 57 67 68
f 57 68 60
f 59 69 70
f 59 70 67
f 60 71 61
f 61 71 62
f 62 72 63
f 62 71 72
f 63 72 73
f 65 74 75
f 65 75 66
f 67 70 76
f 69 77 70
f 70 77 76
f 71 78 79
f 71 79 72
f 72 79 73
f 73 79 78
f 74 80 75
f 75 80 81
f 75 81 82
f 75 82 77
f 76 77 82

