# https://github.com/mikedh/trimesh
v 0.05386754 0.05329917 0.03302726
v 0.06087922 0.05329917 0.03302726
v 0.05801521 0.05329917 0.01304798
v 0.07837704 -0.00448864 0.01304798
v 0.07774091 -0.00448864 0.01901086
v 0.07734725 -0.00448864 0.02370842
v 0.07669400 -0.00448864 0.03302726
v 0.06140409 0.05329917 0.03054745
v 0.06168080 0.05236583 0.03302726
v 0.06480154 0.05329917 0.01304798
v 0.08290125 -0.00448864 0.01304798
v 0.08110697 -0.00448864 0.03302726
v 0.06235401 0.05329917 0.02584793
v 0.06194038 0.05267129 0.03054745
v 0.06409695 0.04925471 0.03302726
v 0.06669851 0.04812338 0.02584793
v 0.06475590 0.05047653 0.02584793
v 0.06597395 0.05190199 0.01304798
v 0.06428237 0.05329917 0.01585439
v 0.06585414 0.05176058 0.01439544
v 0.08296686 -0.00364580 0.01304798
v 0.08288128 -0.00448864 0.01388892
v 0.08115546 -0.00448864 0.03268502
v 0.08117543 -0.00234478 0.03302726
v 0.06307857 0.05329917 0.02211062
v 0.06485574 0.04827045 0.03302726
v 0.06716348 0.04868339 0.02115038
v 0.06610803 0.04741066 0.03054745
v 0.06656729 0.04592297 0.03302726
v 0.07071212 0.04265911 0.02446136
v 0.06950832 0.04546478 0.02115038
v 0.06640184 0.05133068 0.01304798
v 0.08251330 -0.00448864 0.02115038
v 0.08300965 -0.00234478 0.01304798
v 0.08180585 -0.00448864 0.02798550
v 0.08218525 -0.00234478 0.02584793
v 0.08122963 0.00235019 0.03302726
v 0.06579995 0.04700338 0.03302726
v 0.07003605 0.04640944 0.01304798
v 0.07124840 0.03881262 0.03302726
v 0.07097741 0.04311164 0.02115038
v 0.07510796 0.03284491 0.02799528
v 0.08257891 -0.00234478 0.02115038
v 0.08209111 -0.00448864 0.02584793
v 0.08300109 0.00105483 0.01304798
v 0.08257320 0.00235019 0.02115038
v 0.08219095 0.00235019 0.02584793
v 0.08112408 0.00457324 0.03302726
v 0.07144238 0.04406195 0.01304798
v 0.07125981 0.04364336 0.01645087
v 0.07587531 0.02967156 0.03302726
v 0.07607784 0.03009015 0.03054745
v 0.07535043 0.03321259 0.02486228
v 0.07602649 0.03463240 0.01304798
v 0.07626041 0.03098955 0.02619604
v 0.08299538 0.00235019 0.01304798
v 0.08239349 0.00705082 0.02115038
v 0.08195419 0.00705082 0.02584793
v 0.08132947 0.00705082 0.03054745
v 0.08099572 0.00705082 0.03302726
v 0.07650003 0.02785014 0.03302726
v 0.07990602 0.02353981 0.01891699
v 0.08024263 0.02445052 0.01304798
v 0.07697641 0.03054268 0.02115038
v 0.08004295 0.02394143 0.01645087
v 0.08251900 0.01045610 0.01304798
v 0.08243343 0.01175146 0.01304798
v 0.08227083 0.01175146 0.01645087
v 0.08192566 0.01175146 0.02115038
v 0.08140363 0.01175146 0.02584793
v 0.08072472 0.00927387 0.03302726
v 0.07716754 0.02584770 0.03302726
v 0.08017131 0.01976120 0.02584793
v 0.08033962 0.02129980 0.02074947
v 0.08044516 0.02368688 0.01304798
v 0.08212535 0.01515107 0.01304798
v 0.08196845 0.01645209 0.01304798
v 0.08170886 0.01645209 0.01645087
v 0.08131236 0.01645209 0.02115038
v 0.08077322 0.01645209 0.02584793
v 0.08075895 0.01175146 0.03054745
v 0.08041949 0.01163833 0.03302726
v 0.07998304 0.01476643 0.03302726
v 0.07996308 0.01904847 0.02866999
v 0.08111553 0.02115272 0.01304798
v 0.08137226 0.01985171 0.01304798
v 0.08015420 0.01626542 0.03036165
f 1 2 8
f 1 8 13
f 1 13 25
f 1 25 19
f 1 19 10
f 1 10 3
f 1 3 4
f 1 4 5
f 1 5 6
f 1 6 7
f 1 7 12
f 1 12 24
f 1 24 37
f 1 37 48
f 1 48 60
f 1 60 71
f 1 71 82
f 1 82 83
f 1 83 72
f 1 72 61
f 1 61 51
f 1 51 40
f 1 40 29
f 1 29 38
f 1 38 26
f 1 26 15
f 1 15 9
f 1 9 2
f 2 9 8
f 3 10 18
f 3 18 32
f 3 32 39
f 3 39 49
f 3 49 54
f 3 54 63
f 3 63 75
f 3 75 85
f 3 85 86
f 3 86 77
f 3 77 76
f 3 76 67
f 3 67 66
f 3 66 56
f 3 56 45
f 3 45 34
f 3 34 21
f 3 21 11
f 3 11 4
f 4 11 22
f 4 22 33
f 4 33 44
f 4 44 35
f 4 35 23
f 4 23 12
f 4 12 7
f 4 7 6
f 4 6 5
f 8 9 14
f 8 14 13
f 9 15 16
f 9 16 17
f 9 17 14
f 10 19 20
f 10 20 18
f 11 21 22
f 12 23 24
f 13 14 17
f 13 17 25
f 15 26 16
f 16 27 17
f 16 26 28
f 16 28 29
f 16 29 30
f 16 30 31
f 16 31 27
f 17 27 19
f 17 19 25
f 18 20 27
f 18 27 32
f 19 27 20
f 21 33 22
f 21 34 33
f 23 35 36
f 23 36 24
f 24 36 37
f 26 38 28
f 27 31 39
f 27 39 32
f 28 38 29
f 29 40 30
f 30 41 31
f 30 40 42
f 30 42 41
f 31 41 39
f 33 34 43
f 33 43 36
f 33 36 44
f 34 45 46
f 34 46 43
f 35 44 36
f 36 43 47
f 36 47 37
f 37 47 48
f 39 41 50
f 39 50 49
f 40 51 52
f 40 52 42
f 41 42 53
f 41 53 54
f 41 54 50
f 42 55 53
f 42 52 55
f 43 46 47
f 45 56 46
f 46 56 57
f 46 57 47
f 47 57 58
f 47 58 59
f 47 59 48
f 48 59 60
f 49 50 54
f 51 61 52
f 52 61 62
f 52 62 55
f 53 55 54
f 54 55 64
f 54 64 63
f 55 62 65
f 55 65 63
f 55 63 64
f 56 66 57
f 57 66 67
f 57 67 68
f 57 68 69
f 57 69 58
f 58 69 70
f 58 70 59
f 59 70 60
f 60 70 71
f 61 72 62
f 62 72 73
f 62 73 74
f 62 74 65
f 63 65 74
f 63 74 75
f 67 76 68
f 68 76 69
f 69 76 77
f 69 77 78
f 69 78 79
f 69 79 70
f 70 79 80
f 70 80 81
f 70 81 71
f 71 81 82
f 72 83 84
f 72 84 73
f 73 84 80
f 73 80 79
f 73 79 85
f 73 85 74
f 74 85 75
f 77 86 78
f 78 86 79
f 79 86 85
f 80 84 87
f 80 87 83
f 80 83 81
f 81 83 82
f 83 87 84

