# https://github.com/mikedh/trimesh
v 0.02559084 -0.00361481 0.41393077
v 0.02559084 0.02111002 0.33528540
v 0.02559084 -0.00361481 0.45936022
v 0.01172570 -0.00361481 0.46729298
v 0.01172570 -0.00360755 0.46719934
v 0.01172570 0.02111002 0.39160399
v 0.02559084 0.02111002 0.37347769
v 0.02559084 -0.00234904 0.46073808
v 0.02544696 -0.00234904 0.46291858
v 0.02535466 -0.00361481 0.46291858
v 0.01172570 -0.00361481 0.47192154
v 0.01172570 0.02111002 0.42855220
v 0.02388739 0.02111002 0.38302912
v 0.02370686 0.01432376 0.42531488
v 0.02408420 0.01474729 0.42061944
v 0.02443032 0.01514663 0.41591062
v 0.02477101 0.01551934 0.41121518
v 0.02559084 0.01436248 0.41121518
v 0.02559084 0.00235100 0.45466477
v 0.02484838 0.00235100 0.46291858
v 0.02451176 -0.00234904 0.46761405
v 0.02528272 0.00235100 0.45820977
v 0.02440996 -0.00361481 0.46762741
v 0.01175013 -0.00361481 0.47192154
v 0.01172570 -0.00234904 0.47194829
v 0.01172570 0.02096238 0.43003708
v 0.01175013 0.02111002 0.42852545
v 0.02295626 0.02111002 0.38773795
v 0.02236039 0.01786936 0.41121518
v 0.02350733 0.01410836 0.42772281
v 0.02423894 0.01052645 0.43941461
v 0.02559084 0.01332421 0.41579022
v 0.02559084 0.00705104 0.44106002
v 0.02390232 0.00545370 0.46291858
v 0.02369057 0.00508825 0.46574121
v 0.02397290 0.00192262 0.46742675
v 0.02351819 0.00007116 0.46998182
v 0.02360370 -0.00234904 0.47004871
v 0.02360913 -0.00361481 0.47006210
v 0.02410185 -0.00361481 0.46873773
v 0.01644921 -0.00361481 0.47157374
v 0.01172570 0.00705104 0.47152021
v 0.01644921 -0.00234904 0.47157374
v 0.01644921 0.00235100 0.47152021
v 0.01175013 0.00235100 0.47173425
v 0.01175013 0.02096238 0.43001033
v 0.01172570 0.02041058 0.43474591
v 0.01644921 0.02111002 0.41451938
v 0.02129624 0.02111002 0.39555031
v 0.02047370 0.02010321 0.40651973
v 0.01954393 0.01937473 0.41591062
v 0.02189347 0.01749665 0.41591062
v 0.01911772 0.01434312 0.44797610
v 0.01751743 0.01311607 0.46291858
v 0.02018866 0.01076605 0.46291858
v 0.02253820 0.00780372 0.46291858
v 0.02389282 0.00999159 0.44411005
v 0.02527458 0.00705104 0.44411005
v 0.02559084 0.01099597 0.42531488
v 0.02559084 0.01174866 0.42223810
v 0.01965658 0.01017310 0.46661073
v 0.02121752 0.00709944 0.46773443
v 0.02277845 0.00320291 0.46887151
v 0.01850421 0.00910579 0.46974103
v 0.01964437 0.00597647 0.47042327
v 0.02118630 0.00192262 0.47057042
v 0.02114829 -0.00234904 0.47085135
v 0.02119173 -0.00361481 0.47079785
v 0.01988326 -0.00361481 0.47105201
v 0.01175013 0.00705104 0.47152021
v 0.01172570 0.01191081 0.47065070
v 0.01674239 0.00734630 0.47083796
v 0.01175013 0.02040816 0.43471916
v 0.01609087 0.01997010 0.42531488
v 0.01172570 0.01954656 0.44108677
v 0.01876210 0.02111002 0.40665350
v 0.01991448 0.02111002 0.40183766
v 0.01914216 0.01906252 0.41968303
v 0.01516789 0.01478844 0.46291858
v 0.01465618 0.01446655 0.46627630
v 0.01658087 0.01189629 0.46800198
v 0.01537149 0.01048773 0.47042327
v 0.01317940 0.01362190 0.46940660
v 0.01172570 0.01199552 0.47059720
v 0.01548279 0.01961917 0.43001033
v 0.01172570 0.01879388 0.44626381
v 0.01434670 0.01894151 0.43800999
v 0.01482177 0.01922468 0.43471916
v 0.01172570 0.01842117 0.44881888
v 0.01175013 0.01621152 0.46291858
v 0.01172570 0.01494333 0.46772105
v 0.01172570 0.01490219 0.46781470
v 0.01172570 0.01621636 0.46291858
f 1 2 7
f 1 7 18
f 1 18 32
f 1 32 60
f 1 60 59
f 1 59 33
f 1 33 19
f 1 19 8
f 1 8 3
f 1 3 10
f 1 10 23
f 1 23 40
f 1 40 39
f 1 39 68
f 1 68 69
f 1 69 41
f 1 41 24
f 1 24 11
f 1 11 4
f 1 4 5
f 1 5 2
f 2 6 12
f 2 12 27
f 2 27 48
f 2 48 76
f 2 76 77
f 2 77 49
f 2 49 28
f 2 28 13
f 2 13 7
f 2 5 6
f 3 8 9
f 3 9 10
f 4 11 25
f 4 25 42
f 4 42 71
f 4 71 84
f 4 84 92
f 4 92 91
f 4 91 93
f 4 93 89
f 4 89 86
f 4 86 75
f 4 75 47
f 4 47 26
f 4 26 12
f 4 12 6
f 4 6 5
f 7 13 14
f 7 14 15
f 7 15 16
f 7 16 17
f 7 17 18
f 8 19 9
f 9 20 21
f 9 21 10
f 9 19 22
f 9 22 20
f 10 21 23
f 11 24 25
f 12 26 46
f 12 46 27
f 13 28 29
f 13 29 14
f 14 30 31
f 14 31 15
f 14 29 30
f 15 18 16
f 15 31 18
f 16 18 17
f 18 31 32
f 19 33 22
f 20 34 35
f 20 35 36
f 20 36 21
f 20 22 33
f 20 33 34
f 21 36 37
f 21 37 38
f 21 38 39
f 21 39 40
f 21 40 23
f 24 41 25
f 25 41 43
f 25 43 44
f 25 44 45
f 25 45 70
f 25 70 42
f 26 47 46
f 27 46 48
f 28 49 50
f 28 50 51
f 28 51 29
f 29 51 52
f 29 52 30
f 30 53 54
f 30 54 55
f 30 55 56
f 30 56 57
f 30 57 31
f 30 52 53
f 31 57 56
f 31 56 34
f 31 34 58
f 31 58 59
f 31 59 60
f 31 60 32
f 33 59 58
f 33 58 34
f 34 56 35
f 35 56 61
f 35 61 62
f 35 62 63
f 35 63 37
f 35 37 36
f 37 64 65
f 37 65 66
f 37 66 67
f 37 67 38
f 37 63 64
f 38 67 39
f 39 67 68
f 41 69 43
f 42 70 71
f 43 69 67
f 43 67 44
f 44 67 66
f 44 66 65
f 44 65 72
f 44 72 70
f 44 70 45
f 46 47 73
f 46 73 74
f 46 74 48
f 47 75 73
f 48 74 76
f 49 77 50
f 50 77 51
f 51 78 54
f 51 54 53
f 51 53 52
f 51 77 76
f 51 76 74
f 51 74 78
f 54 79 80
f 54 80 61
f 54 61 55
f 54 78 79
f 55 61 56
f 61 80 81
f 61 81 64
f 61 64 62
f 62 64 63
f 64 82 65
f 64 81 83
f 64 83 82
f 65 82 72
f 67 69 68
f 70 72 71
f 71 72 82
f 71 82 83
f 71 83 84
f 73 75 85
f 73 85 74
f 74 85 78
f 75 86 87
f 75 87 88
f 75 88 85
f 78 85 79
f 79 85 88
f 79 88 87
f 79 87 89
f 79 89 90
f 79 90 80
f 80 90 91
f 80 91 92
f 80 92 83
f 80 83 81
f 83 92 84
f 86 89 87
f 89 93 90
f 90 93 91

