# https://github.com/mikedh/trimesh
v 0.04670699 0.06523331 0.01252804
v 0.05543689 0.06523331 0.01252804
v 0.04721020 0.06523331 0.01013504
v 0.07923494 -0.00263039 0.00070976
v 0.07857341 -0.00263039 0.00543645
v 0.07793450 -0.00263039 0.01252804
v 0.10083355 0.06523331 0.00530844
v 0.05675430 0.06408398 0.01252804
v 0.04820532 0.06523331 0.00543645
v 0.07978339 -0.00263039 -0.00140072
v 0.08300056 -0.00263039 0.01252804
v 0.10446912 0.06523331 0.00431721
v 0.05910640 0.06173218 0.01252804
v 0.06138499 0.05938036 0.01252804
v 0.06387844 0.05647714 0.01252804
v 0.06572733 0.05431134 0.01252804
v 0.06645671 0.05328824 0.01252804
v 0.06870138 0.05005284 0.01252804
v 0.06969650 0.04861784 0.01252804
v 0.07045980 0.04746851 0.01252804
v 0.07122876 0.04627267 0.01252804
v 0.07344516 0.04223340 0.01252804
v 0.07476256 0.03979523 0.01252804
v 0.07588772 0.03760286 0.01252804
v 0.07669060 0.03553672 0.01252804
v 0.08002086 0.02696656 0.01252804
v 0.08098205 0.02361157 0.01252804
v 0.08154181 0.02121990 0.01252804
v 0.08201675 0.01891460 0.01252804
v 0.04832406 0.06523331 0.00511957
v 0.08186409 -0.00263039 -0.00250434
v 0.05025210 0.06523331 0.00154176
v 0.05079489 0.06523331 0.00094858
v 0.05203879 0.06523331 -0.00012226
v 0.05260985 0.06523331 -0.00057026
v 0.05474709 0.06523331 -0.00175975
v 0.10341746 -0.00263039 0.00326354
v 0.08302318 -0.00227164 0.01252804
v 0.10446912 0.06523331 0.00164479
v 0.08235034 0.01652292 0.01252804
v 0.08259347 0.01421762 0.01252804
v 0.08288183 0.00952064 0.01252804
v 0.08308538 0.00481702 0.01252804
v 0.08308538 0.00012003 0.01252804
v 0.10354185 -0.00263039 0.00222548
v 0.10370017 -0.00263039 0.00073942
v 0.08673226 -0.00263039 -0.00341908
v 0.05512592 0.06523331 -0.00180501
v 0.10361536 -0.00263039 -0.00032831
v 0.10346269 -0.00263039 -0.00181904
v 0.10347400 0.00012003 -0.00183153
v 0.10337223 0.01891460 -0.00174569
v 0.10333830 0.02361157 -0.00171917
v 0.10326480 0.02831520 -0.00166609
v 0.10320261 0.03128486 -0.00162394
v 0.10083355 0.06523331 0.00009472
v 0.08673226 0.00012003 -0.00339877
v 0.09143080 0.00481702 -0.00310219
v 0.09143080 0.00012003 -0.00313186
v 0.09143080 -0.00263039 -0.00313186
v 0.05920817 0.06523331 -0.00205633
v 0.10236015 -0.00263039 -0.00199076
v 0.10083355 0.00012003 -0.00224521
v 0.10083355 0.00481702 -0.00220774
v 0.10083355 0.00952064 -0.00216558
v 0.10083355 0.01421762 -0.00212346
v 0.10083355 0.01891460 -0.00206882
v 0.10083355 0.02361157 -0.00198765
v 0.09613500 0.01891460 -0.00248092
v 0.09143080 0.01891460 -0.00285556
v 0.09143080 0.02361157 -0.00273535
v 0.09613500 0.03300553 -0.00211408
v 0.10109929 0.03291252 -0.00173788
v 0.09613500 0.03770251 -0.00197673
v 0.09971404 0.03770251 -0.00169105
v 0.09520773 0.04710311 -0.00173788
v 0.09442181 0.05090986 -0.00166452
v 0.09372070 0.05404561 -0.00158959
v 0.10284640 0.03441396 -0.00150842
v 0.08897128 0.06334655 -0.00157242
v 0.08668137 0.06523331 -0.00167545
v 0.08673226 0.00481702 -0.00334726
v 0.06324519 0.06523331 -0.00215155
v 0.09613500 0.00481702 -0.00267916
v 0.09143080 0.00952064 -0.00303977
v 0.09613500 0.00952064 -0.00263233
v 0.09613500 0.00012003 -0.00269633
v 0.09613500 -0.00263039 -0.00268852
v 0.10083355 -0.00263039 -0.00222647
v 0.09613500 0.01421762 -0.00256520
v 0.09143080 0.01421762 -0.00295546
v 0.08673226 0.01891460 -0.00307878
v 0.08673226 0.02361157 -0.00296328
v 0.08673226 0.01421762 -0.00318336
v 0.08673226 0.02831520 -0.00283996
v 0.09143080 0.02831520 -0.00260111
v 0.09143080 0.03770251 -0.00232013
v 0.09143080 0.04240613 -0.00217340
v 0.09642336 0.04242606 -0.00179720
v 0.09143080 0.03300553 -0.00246219
v 0.09143080 0.04710311 -0.00201263
v 0.09186616 0.05220535 -0.00179876
v 0.08975154 0.06021080 -0.00165985
v 0.08607638 0.06523331 -0.00172384
v 0.08673226 0.00952064 -0.00327234
v 0.06390672 0.06523331 -0.00216247
v 0.08203372 0.02831520 -0.00294765
v 0.08203372 0.03300553 -0.00284774
v 0.07733516 0.06523331 -0.00212500
v 0.07799670 0.06523331 -0.00210472
v 0.08203372 0.06120069 -0.00206257
v 0.08673226 0.03300553 -0.00270101
v 0.08203372 0.06523331 -0.00194239
v 0.08673226 0.05650371 -0.00197359
v 0.08713370 0.06154615 -0.00178470
v 0.08281398 0.06523331 -0.00190178
v 0.06794374 0.06523331 -0.00219995
v 0.07264228 0.06523331 -0.00220774
v 0.07330380 0.06523331 -0.00219995
f 1 2 7
f 1 7 12
f 1 12 39
f 1 39 56
f 1 56 81
f 1 81 104
f 1 104 116
f 1 116 113
f 1 113 110
f 1 110 109
f 1 109 119
f 1 119 118
f 1 118 117
f 1 117 106
f 1 106 83
f 1 83 61
f 1 61 48
f 1 48 36
f 1 36 35
f 1 35 34
f 1 34 33
f 1 33 32
f 1 32 30
f 1 30 9
f 1 9 3
f 1 3 4
f 1 4 5
f 1 5 6
f 1 6 11
f 1 11 38
f 1 38 44
f 1 44 43
f 1 43 42
f 1 42 41
f 1 41 40
f 1 40 29
f 1 29 28
f 1 28 27
f 1 27 26
f 1 26 25
f 1 25 24
f 1 24 23
f 1 23 22
f 1 22 21
f 1 21 20
f 1 20 19
f 1 19 18
f 1 18 17
f 1 17 16
f 1 16 15
f 1 15 14
f 1 14 13
f 1 13 8
f 1 8 2
f 2 8 7
f 3 9 4
f 4 10 31
f 4 31 47
f 4 47 60
f 4 60 88
f 4 88 89
f 4 89 62
f 4 62 50
f 4 50 49
f 4 49 46
f 4 46 45
f 4 45 37
f 4 37 11
f 4 11 6
f 4 6 5
f 4 9 10
f 7 8 13
f 7 13 14
f 7 14 15
f 7 15 16
f 7 16 17
f 7 17 18
f 7 18 19
f 7 19 20
f 7 20 21
f 7 21 22
f 7 22 23
f 7 23 24
f 7 24 25
f 7 25 26
f 7 26 27
f 7 27 28
f 7 28 29
f 7 29 12
f 9 30 10
f 10 30 32
f 10 32 33
f 10 33 34
f 10 34 35
f 10 35 36
f 10 36 31
f 11 37 38
f 12 29 40
f 12 40 41
f 12 41 42
f 12 42 43
f 12 43 44
f 12 44 38
f 12 38 37
f 12 37 45
f 12 45 46
f 12 46 39
f 31 36 47
f 36 48 47
f 39 46 49
f 39 49 50
f 39 50 51
f 39 51 52
f 39 52 53
f 39 53 54
f 39 54 55
f 39 55 56
f 47 57 58
f 47 58 59
f 47 59 60
f 47 48 61
f 47 61 57
f 50 62 63
f 50 63 51
f 51 63 52
f 52 63 53
f 53 63 64
f 53 64 65
f 53 65 66
f 53 66 67
f 53 67 54
f 54 67 55
f 55 67 68
f 55 68 69
f 55 69 70
f 55 70 71
f 55 71 72
f 55 72 73
f 55 73 74
f 55 74 75
f 55 75 76
f 55 76 77
f 55 77 78
f 55 78 79
f 55 79 56
f 56 78 80
f 56 80 81
f 56 79 78
f 57 82 58
f 57 61 83
f 57 83 82
f 58 84 59
f 58 82 85
f 58 85 86
f 58 86 84
f 59 87 60
f 59 84 87
f 60 87 88
f 62 89 63
f 63 89 88
f 63 88 87
f 63 87 84
f 63 84 64
f 64 84 65
f 65 84 66
f 66 84 86
f 66 86 67
f 67 86 90
f 67 90 68
f 68 90 69
f 69 90 85
f 69 85 91
f 69 91 70
f 70 92 93
f 70 93 71
f 70 91 94
f 70 94 92
f 71 93 95
f 71 95 96
f 71 96 72
f 72 74 73
f 72 96 74
f 74 97 98
f 74 98 76
f 74 76 99
f 74 99 75
f 74 96 100
f 74 100 97
f 75 99 76
f 76 98 101
f 76 101 77
f 77 101 102
f 77 102 103
f 77 103 78
f 78 103 80
f 80 103 81
f 81 103 104
f 82 105 85
f 82 83 106
f 82 106 107
f 82 107 105
f 85 90 86
f 85 105 91
f 91 105 94
f 92 108 93
f 92 94 108
f 93 108 95
f 94 105 107
f 94 107 108
f 95 108 109
f 95 109 110
f 95 110 111
f 95 111 112
f 95 112 100
f 95 100 96
f 97 100 112
f 97 112 113
f 97 113 98
f 98 113 114
f 98 114 104
f 98 104 115
f 98 115 101
f 101 115 103
f 101 103 102
f 103 115 104
f 104 114 116
f 106 117 107
f 107 117 118
f 107 118 108
f 108 118 119
f 108 119 109
f 110 113 111
f 111 113 112
f 113 116 114

