# https://github.com/mikedh/trimesh
v 0.06080155 -0.05029662 0.01304798
v 0.06080155 -0.05816192 0.01304798
v 0.06080155 -0.05058263 0.01095285
v 0.00326727 -0.08136059 0.00235125
v 0.00326727 -0.08073561 0.01304798
v 0.06014827 -0.05882928 0.01304798
v 0.06080155 -0.10287498 0.00586769
v 0.06080155 -0.05167371 0.00342814
v 0.00326727 -0.08325144 -0.00077415
v 0.06080155 -0.05210273 0.00065920
v 0.00326727 -0.08531178 0.01304798
v 0.05715779 -0.06188007 0.01304798
v 0.05545699 -0.06358024 0.01304798
v 0.05479244 -0.06423171 0.01304798
v 0.05414479 -0.06484610 0.01304798
v 0.05244399 -0.06642446 0.01304798
v 0.06080155 -0.10440567 0.00561651
v 0.00326727 -0.08694311 -0.00131863
v 0.06080155 -0.05445437 -0.00105391
v 0.06080155 -0.05853797 -0.00187512
v 0.00367276 -0.08529060 0.01304798
v 0.00326727 -0.10387602 0.00499535
v 0.04476224 -0.07174215 0.01304798
v 0.04934651 -0.10431563 0.00538188
v 0.06080155 -0.10440567 0.00334241
v 0.04094389 -0.07429506 0.01304798
v 0.03859544 -0.07579927 0.01304798
v 0.02874545 -0.08011592 0.01304798
v 0.02585071 -0.08120170 0.01304798
v 0.02115381 -0.08238812 0.01304798
v 0.01047032 -0.08475565 0.01304798
v 0.00821760 -0.08499400 0.01304798
v 0.00707998 -0.08511052 0.01304798
v 0.01645127 -0.09633910 -0.00097267
v 0.00326727 -0.10006784 -0.00008530
v 0.05874596 -0.06344783 -0.00231730
v 0.03524453 -0.07754182 -0.00218494
v 0.02115381 -0.08223981 -0.00183750
v 0.02585071 -0.08223981 -0.00201048
v 0.02115381 -0.08694311 -0.00178638
v 0.02115381 -0.09164110 -0.00151564
v 0.02115381 -0.09633910 -0.00115167
v 0.06080155 -0.06344783 -0.00222253
v 0.00326727 -0.10387602 0.00274681
v 0.04934651 -0.10431563 0.00320403
v 0.06080155 -0.10256778 0.00235726
v 0.01340448 -0.10344171 -0.00002815
v 0.01514470 -0.10344171 -0.00002815
v 0.03524453 -0.10315570 0.00026213
v 0.03994707 -0.10298621 0.00035237
v 0.00326727 -0.10052333 0.00000644
v 0.06080155 -0.06550287 -0.00212928
v 0.06080155 -0.06814582 -0.00200445
v 0.05874596 -0.06814582 -0.00209320
v 0.05404342 -0.06814582 -0.00227819
v 0.03994707 -0.07754182 -0.00224511
v 0.04464397 -0.07284912 -0.00228270
v 0.02585071 -0.09164110 -0.00149158
v 0.02585071 -0.09633910 -0.00111405
v 0.02115381 -0.10093117 -0.00047786
v 0.00326727 -0.10241948 0.00039750
v 0.06080155 -0.10104239 0.00166840
v 0.02585071 -0.10089939 -0.00044327
v 0.03055325 -0.10086231 -0.00039965
v 0.03524453 -0.10080405 -0.00033797
v 0.03994707 -0.10063456 -0.00028836
v 0.04464397 -0.09995661 -0.00020712
v 0.05203850 -0.09877549 -0.00001762
v 0.06080155 -0.07020616 -0.00190518
v 0.06080155 -0.07284912 -0.00176080
v 0.06080155 -0.07490416 -0.00164500
v 0.06080155 -0.07754182 -0.00148256
v 0.06080155 -0.07959686 -0.00135471
v 0.06080155 -0.08223981 -0.00118775
v 0.05874596 -0.08694311 -0.00094861
v 0.04464397 -0.09164110 -0.00112310
v 0.03994707 -0.09164110 -0.00123439
v 0.03055325 -0.09633910 -0.00103436
v 0.06080155 -0.09900854 0.00110891
v 0.03994707 -0.09633910 -0.00082530
v 0.04464397 -0.09633910 -0.00068843
v 0.04934651 -0.09633910 -0.00047935
v 0.05377872 -0.09650859 -0.00023119
v 0.05874596 -0.09507323 -0.00013793
v 0.06080155 -0.09461773 -0.00007779
v 0.06080155 -0.08694311 -0.00086589
v 0.04934651 -0.09164110 -0.00095012
v 0.05404342 -0.09164110 -0.00075611
v 0.05874596 -0.09164110 -0.00053501
v 0.06080155 -0.09174704 -0.00041167
v 0.06080155 -0.09341543 -0.00021766
f 1 2 7
f 1 7 17
f 1 17 25
f 1 25 46
f 1 46 62
f 1 62 79
f 1 79 85
f 1 85 91
f 1 91 90
f 1 90 86
f 1 86 74
f 1 74 73
f 1 73 72
f 1 72 71
f 1 71 70
f 1 70 69
f 1 69 53
f 1 53 52
f 1 52 43
f 1 43 20
f 1 20 19
f 1 19 10
f 1 10 8
f 1 8 3
f 1 3 4
f 1 4 5
f 1 5 11
f 1 11 21
f 1 21 33
f 1 33 32
f 1 32 31
f 1 31 30
f 1 30 29
f 1 29 28
f 1 28 27
f 1 27 26
f 1 26 23
f 1 23 16
f 1 16 15
f 1 15 14
f 1 14 13
f 1 13 12
f 1 12 6
f 1 6 2
f 2 6 7
f 3 8 4
f 4 9 18
f 4 18 35
f 4 35 51
f 4 51 61
f 4 61 44
f 4 44 22
f 4 22 11
f 4 11 5
f 4 8 10
f 4 10 9
f 6 12 7
f 7 12 13
f 7 13 14
f 7 14 15
f 7 15 16
f 7 16 17
f 9 10 19
f 9 19 20
f 9 20 18
f 11 22 17
f 11 17 21
f 16 23 17
f 17 24 45
f 17 45 25
f 17 23 26
f 17 26 27
f 17 27 28
f 17 28 29
f 17 29 30
f 17 30 31
f 17 31 32
f 17 32 33
f 17 33 21
f 17 22 24
f 18 34 35
f 18 20 36
f 18 36 37
f 18 37 38
f 18 38 39
f 18 39 40
f 18 40 41
f 18 41 42
f 18 42 34
f 20 43 36
f 22 44 45
f 22 45 24
f 25 45 47
f 25 47 48
f 25 48 49
f 25 49 50
f 25 50 46
f 34 42 35
f 35 42 47
f 35 47 51
f 36 43 52
f 36 52 53
f 36 53 54
f 36 54 55
f 36 55 56
f 36 56 57
f 36 57 37
f 37 39 38
f 37 57 56
f 37 56 39
f 39 56 40
f 40 56 41
f 41 56 58
f 41 58 42
f 42 58 59
f 42 59 60
f 42 60 47
f 44 61 47
f 44 47 45
f 46 50 62
f 47 61 51
f 47 60 48
f 48 60 63
f 48 63 64
f 48 64 65
f 48 65 49
f 49 65 66
f 49 66 50
f 50 66 67
f 50 67 68
f 50 68 62
f 53 69 54
f 54 69 55
f 55 69 70
f 55 70 71
f 55 71 56
f 56 71 72
f 56 72 73
f 56 73 74
f 56 74 75
f 56 75 76
f 56 76 77
f 56 77 58
f 58 78 59
f 58 77 78
f 59 78 66
f 59 66 65
f 59 65 64
f 59 64 63
f 59 63 60
f 62 68 79
f 66 78 80
f 66 80 81
f 66 81 67
f 67 81 82
f 67 82 68
f 68 82 83
f 68 83 84
f 68 84 85
f 68 85 79
f 74 86 75
f 75 86 87
f 75 87 76
f 76 87 81
f 76 81 80
f 76 80 77
f 77 80 78
f 81 87 88
f 81 88 82
f 82 88 89
f 82 89 83
f 83 89 84
f 84 89 90
f 84 90 91
f 84 91 85
f 86 90 89
f 86 89 88
f 86 88 87

