# https://github.com/mikedh/trimesh
v 0.01941598 0.01533271 0.45631329
v 0.01941598 0.00569926 0.45631329
v 0.01941598 0.01554503 0.45531095
v 0.01843165 0.01642394 0.45631329
v 0.00198805 0.01567012 0.45631329
v 0.00198805 0.02070328 0.41858332
v 0.00198805 0.02079051 0.41802368
v 0.01941598 0.02251047 0.37098025
v 0.01864148 0.01659676 0.45439214
v 0.01941598 0.01710534 0.44713348
v 0.01861930 0.02127276 0.42606750
v 0.01651417 0.01768141 0.45631329
v 0.00198805 0.02149331 0.45631329
v 0.00198805 0.02146697 0.41470758
v 0.00198805 0.02173690 0.41340453
v 0.00198805 0.02251047 0.40973761
v 0.01941598 0.02251047 0.41368853
v 0.01888372 0.01680908 0.45183615
v 0.01941598 0.02179780 0.41894250
v 0.01941598 0.01728145 0.44617289
v 0.01636063 0.02251047 0.42564150
v 0.01422138 0.02142418 0.44126140
v 0.01888031 0.02146039 0.42363681
v 0.01728867 0.02251047 0.42208319
v 0.01689459 0.02251047 0.42363681
v 0.01223395 0.02056831 0.45183615
v 0.01117285 0.02026876 0.45631329
v 0.01374201 0.02113779 0.44439373
v 0.00230024 0.02152787 0.45631329
v 0.00198805 0.02203316 0.45203662
v 0.00198805 0.02251047 0.44815253
v 0.01938357 0.02182249 0.41894250
v 0.01941598 0.02184553 0.41864179
v 0.01394160 0.02251047 0.43303381
v 0.01238237 0.02251047 0.43773649
v 0.01169658 0.02251047 0.43962423
v 0.01192688 0.02202493 0.44267303
v 0.00934920 0.02130897 0.45453414
v 0.00856446 0.02108512 0.45631329
v 0.00654804 0.02145545 0.45631329
v 0.00616932 0.02251047 0.44781841
v 0.00215694 0.02251047 0.44835300
v 0.00215694 0.02207596 0.45183615
v 0.00722700 0.02251047 0.44713348
v 0.00685681 0.02251047 0.44771817
v 0.00685681 0.02198872 0.45183615
v 0.00657875 0.02145710 0.45627153
v 0.00657875 0.02145052 0.45631329
f 1 2 8
f 1 8 17
f 1 17 33
f 1 33 19
f 1 19 20
f 1 20 10
f 1 10 3
f 1 3 4
f 1 4 12
f 1 12 27
f 1 27 39
f 1 39 48
f 1 48 40
f 1 40 29
f 1 29 13
f 1 13 5
f 1 5 2
f 2 5 6
f 2 6 7
f 2 7 8
f 3 9 4
f 3 10 9
f 4 9 11
f 4 11 12
f 5 13 30
f 5 30 31
f 5 31 16
f 5 16 15
f 5 15 14
f 5 14 7
f 5 7 6
f 7 14 8
f 8 14 15
f 8 15 16
f 8 16 31
f 8 31 42
f 8 42 41
f 8 41 45
f 8 45 44
f 8 44 36
f 8 36 35
f 8 35 34
f 8 34 21
f 8 21 25
f 8 25 24
f 8 24 17
f 9 10 18
f 9 18 19
f 9 19 11
f 10 20 18
f 11 21 22
f 11 22 12
f 11 19 23
f 11 23 17
f 11 17 24
f 11 24 25
f 11 25 21
f 12 26 27
f 12 22 28
f 12 28 26
f 13 29 30
f 17 23 32
f 17 32 33
f 18 20 19
f 19 33 32
f 19 32 23
f 21 34 22
f 22 34 35
f 22 35 36
f 22 36 37
f 22 37 38
f 22 38 28
f 26 38 27
f 26 28 38
f 27 38 39
f 29 40 41
f 29 41 42
f 29 42 43
f 29 43 30
f 30 43 42
f 30 42 31
f 36 44 38
f 36 38 37
f 38 44 45
f 38 45 46
f 38 46 47
f 38 47 40
f 38 40 48
f 38 48 39
f 40 47 46
f 40 46 45
f 40 45 41

