# https://github.com/mikedh/trimesh
v -0.05782806 -0.04802801 0.03099029
v -0.06080601 -0.04802801 0.01252804
v -0.06504072 -0.04802801 0.03099029
v -0.01204960 -0.07441780 0.03099029
v -0.01204960 -0.07456520 0.02905823
v -0.01204960 -0.07457175 0.02897689
v -0.01204960 -0.07495824 0.02433557
v -0.06786567 -0.04802801 0.01252804
v -0.01204960 -0.07543318 0.01953520
v -0.01204960 -0.07613411 0.01258046
v -0.01204960 -0.07614066 0.01252804
v -0.06508989 -0.04802801 0.03097223
v -0.06507350 -0.04804766 0.03099029
v -0.01204960 -0.07976324 0.03099029
v -0.06653241 -0.04992445 0.01252804
v -0.06636850 -0.04972466 0.01483606
v -0.06710069 -0.04802801 0.01818511
v -0.01204960 -0.08148937 0.01252804
v -0.06545052 -0.04802801 0.02893172
v -0.06272392 -0.05094965 0.03099029
v -0.06525381 -0.04829004 0.02893172
v -0.01457949 -0.07934399 0.03099029
v -0.01663947 -0.07972066 0.02423256
v -0.01204960 -0.07997614 0.02893172
v -0.06554888 -0.05111997 0.01252804
v -0.06443419 -0.05207311 0.01483606
v -0.06612807 -0.04941677 0.01819595
v -0.06696955 -0.04802801 0.01915386
v -0.01204960 -0.07998596 0.02882688
v -0.01663947 -0.08011371 0.01953520
v -0.02133862 -0.07963222 0.01483606
v -0.02133862 -0.07980581 0.01252804
v -0.06619911 -0.04802801 0.02423256
v -0.06561991 -0.04880755 0.02423256
v -0.06290423 -0.05116910 0.02893172
v -0.06089344 -0.05351756 0.02893172
v -0.06070766 -0.05329811 0.03099029
v -0.01663947 -0.07896077 0.03099029
v -0.01663947 -0.07921953 0.02893172
v -0.02133862 -0.07917367 0.01953520
v -0.06459812 -0.05227291 0.01252804
v -0.06208462 -0.05480806 0.01483606
v -0.06172398 -0.05441174 0.01953520
v -0.06145078 -0.05411368 0.02290234
v -0.02364994 -0.07921297 0.01252804
v -0.06115572 -0.05381234 0.02603450
v -0.05835808 -0.05576120 0.03099029
v -0.02103809 -0.07789627 0.03099029
v -0.02133862 -0.07863978 0.02423256
v -0.02400511 -0.07751960 0.02743160
v -0.02457885 -0.07770957 0.02423256
v -0.02538207 -0.07797815 0.01953520
v -0.02621808 -0.07845963 0.01252804
v -0.06224854 -0.05498821 0.01252804
v -0.06001371 -0.05733666 0.01252804
v -0.05983340 -0.05715651 0.01483606
v -0.05945091 -0.05676346 0.01953520
v -0.05678988 -0.05882696 0.02311199
v -0.05650575 -0.05854528 0.02624415
v -0.05624893 -0.05830290 0.02893172
v -0.05604129 -0.05810965 0.03099029
v -0.02326745 -0.07713638 0.03099029
v -0.02337127 -0.07717896 0.03056376
v -0.02161729 -0.07799780 0.02897147
v -0.02587931 -0.07623565 0.03099029
v -0.03073692 -0.07455210 0.03099029
v -0.02867148 -0.07752615 0.01350042
v -0.02640386 -0.07813537 0.01497523
v -0.02879715 -0.07757855 0.01252804
v -0.05766414 -0.05964253 0.01252804
v -0.05748382 -0.05947549 0.01483606
v -0.05710133 -0.05911519 0.01953520
v -0.05444030 -0.06146365 0.01953520
v -0.05188309 -0.06332407 0.02190286
v -0.05419442 -0.06093958 0.02407351
v -0.05389936 -0.06038932 0.02893172
v -0.05369172 -0.06021573 0.03099029
v -0.03275864 -0.07371360 0.03099029
v -0.03433778 -0.07331072 0.02893172
v -0.03496069 -0.07360879 0.02423256
v -0.03543607 -0.07446693 0.01483606
v -0.03543607 -0.07468966 0.01252804
v -0.05504136 -0.06199099 0.01252804
v -0.05485011 -0.06182394 0.01483606
v -0.05118368 -0.06273777 0.02893172
v -0.05209620 -0.06349438 0.01953520
v -0.04981765 -0.06459492 0.02377529
v -0.04883411 -0.06457526 0.02893172
v -0.05095965 -0.06256418 0.03099029
v -0.03403725 -0.07316661 0.03099029
v -0.03506451 -0.07265565 0.03099029
v -0.03802606 -0.07284562 0.01825921
v -0.03583495 -0.07372997 0.01970871
v -0.03863804 -0.07317971 0.01252804
v -0.03712995 -0.07390357 0.01252804
v -0.05269178 -0.06398570 0.01252804
v -0.05250054 -0.06382848 0.01483606
v -0.04861008 -0.06440495 0.03099029
v -0.04721673 -0.06804063 0.01267626
v -0.04605833 -0.06725781 0.02423256
v -0.04556110 -0.06692045 0.02893172
v -0.03638683 -0.07196127 0.03099029
v -0.03832113 -0.07090659 0.03099029
v -0.04030460 -0.06982244 0.03099029
v -0.04210777 -0.06882017 0.03099029
v -0.04321152 -0.06848280 0.02893172
v -0.04073627 -0.07173854 0.01483606
v -0.03982923 -0.07251481 0.01252804
v -0.04722765 -0.06805045 0.01252804
v -0.04514036 -0.06685821 0.03099029
v -0.04617308 -0.06871536 0.01252804
v -0.04513489 -0.06912805 0.01448001
v -0.04418413 -0.06909858 0.01953520
v -0.04370876 -0.06880052 0.02423256
v -0.04297656 -0.06833213 0.03099029
v -0.04274707 -0.07079523 0.01252804
v -0.04098216 -0.07185645 0.01252804
v -0.04499829 -0.06943921 0.01252804
f 1 2 8
f 1 8 17
f 1 17 28
f 1 28 33
f 1 33 19
f 1 19 12
f 1 12 3
f 1 3 13
f 1 13 20
f 1 20 37
f 1 37 47
f 1 47 61
f 1 61 77
f 1 77 89
f 1 89 98
f 1 98 110
f 1 110 115
f 1 115 105
f 1 105 104
f 1 104 103
f 1 103 102
f 1 102 91
f 1 91 90
f 1 90 78
f 1 78 66
f 1 66 65
f 1 65 62
f 1 62 48
f 1 48 38
f 1 38 22
f 1 22 14
f 1 14 4
f 1 4 5
f 1 5 6
f 1 6 7
f 1 7 2
f 2 7 9
f 2 9 10
f 2 10 11
f 2 11 18
f 2 18 32
f 2 32 45
f 2 45 53
f 2 53 69
f 2 69 82
f 2 82 95
f 2 95 94
f 2 94 108
f 2 108 117
f 2 117 116
f 2 116 118
f 2 118 111
f 2 111 109
f 2 109 96
f 2 96 83
f 2 83 70
f 2 70 55
f 2 55 54
f 2 54 41
f 2 41 25
f 2 25 15
f 2 15 8
f 3 12 13
f 4 14 24
f 4 24 29
f 4 29 18
f 4 18 11
f 4 11 10
f 4 10 9
f 4 9 7
f 4 7 6
f 4 6 5
f 8 15 16
f 8 16 17
f 12 19 13
f 13 19 21
f 13 21 20
f 14 22 23
f 14 23 24
f 15 25 16
f 16 25 26
f 16 26 27
f 16 27 28
f 16 28 17
f 18 29 23
f 18 23 30
f 18 30 31
f 18 31 32
f 19 33 34
f 19 34 21
f 20 21 35
f 20 35 36
f 20 36 37
f 21 34 35
f 22 38 39
f 22 39 23
f 23 29 24
f 23 39 40
f 23 40 31
f 23 31 30
f 25 41 26
f 26 41 42
f 26 42 43
f 26 43 44
f 26 44 27
f 27 34 33
f 27 33 28
f 27 44 35
f 27 35 34
f 31 40 45
f 31 45 32
f 35 44 46
f 35 46 36
f 36 47 37
f 36 46 47
f 38 48 39
f 39 48 49
f 39 49 40
f 40 49 50
f 40 50 51
f 40 51 52
f 40 52 53
f 40 53 45
f 41 54 42
f 42 54 55
f 42 55 56
f 42 56 43
f 43 56 57
f 43 57 44
f 44 57 58
f 44 58 59
f 44 59 47
f 44 47 46
f 47 59 60
f 47 60 61
f 48 62 63
f 48 63 50
f 48 50 64
f 48 64 49
f 49 64 50
f 50 63 65
f 50 65 66
f 50 66 51
f 51 66 67
f 51 67 52
f 52 67 68
f 52 68 53
f 53 68 67
f 53 67 69
f 55 70 71
f 55 71 56
f 56 71 72
f 56 72 57
f 57 72 58
f 58 72 73
f 58 73 74
f 58 74 75
f 58 75 76
f 58 76 59
f 59 76 77
f 59 77 60
f 60 77 61
f 62 65 63
f 66 78 79
f 66 79 67
f 67 79 80
f 67 80 81
f 67 81 69
f 69 81 82
f 70 83 71
f 71 83 84
f 71 84 72
f 72 84 73
f 73 84 74
f 74 85 76
f 74 76 75
f 74 84 86
f 74 86 87
f 74 87 88
f 74 88 85
f 76 85 77
f 77 85 89
f 78 90 79
f 79 90 91
f 79 91 92
f 79 92 80
f 80 92 93
f 80 93 81
f 81 93 92
f 81 92 94
f 81 94 95
f 81 95 82
f 83 96 97
f 83 97 84
f 84 97 86
f 85 88 98
f 85 98 89
f 86 97 99
f 86 99 87
f 87 99 100
f 87 100 88
f 88 100 101
f 88 101 98
f 91 102 92
f 92 103 104
f 92 104 105
f 92 105 106
f 92 106 107
f 92 107 94
f 92 102 103
f 94 107 108
f 96 109 99
f 96 99 97
f 98 101 110
f 99 109 111
f 99 111 112
f 99 112 113
f 99 113 114
f 99 114 100
f 100 114 106
f 100 106 101
f 101 106 115
f 101 115 110
f 105 115 106
f 106 114 107
f 107 116 117
f 107 117 108
f 107 114 113
f 107 113 112
f 107 112 118
f 107 118 116
f 111 118 112

