# https://github.com/mikedh/trimesh
v 0.07330520 -0.00234983 0.09048948
v 0.07327718 -0.00361481 0.09048948
v 0.07325383 0.00235105 0.09048948
v 0.07305299 -0.00234983 0.09636087
v 0.07322113 -0.00361481 0.09164926
v 0.06870471 -0.00361481 0.09048948
v 0.07310904 0.00705192 0.09048948
v 0.07319311 0.00235105 0.09164926
v 0.07293156 0.00235105 0.09636087
v 0.07256258 -0.00234983 0.10107249
v 0.07296425 -0.00361481 0.09636087
v 0.06051723 0.02067662 0.11575098
v 0.06473006 0.02067662 0.09048948
v 0.06001281 -0.00361481 0.14804367
v 0.02559084 0.02067662 0.33763183
v 0.07304832 0.00820515 0.09048948
v 0.07304832 0.00705192 0.09164926
v 0.07256725 0.00705192 0.09636087
v 0.07242246 0.00235105 0.10107249
v 0.07243180 -0.00361481 0.10107249
v 0.02559084 -0.00234983 0.46074997
v 0.07022731 0.02067662 0.09048948
v 0.05148905 -0.00361481 0.21001953
v 0.03271810 -0.00361481 0.35067938
v 0.02716948 -0.00361481 0.39710692
v 0.02675848 -0.00361481 0.40055002
v 0.02661836 -0.00361481 0.40181853
v 0.02625873 -0.00361481 0.40522540
v 0.02613729 -0.00361481 0.40649391
v 0.02581502 -0.00361481 0.40993701
v 0.02572628 -0.00361481 0.41120553
v 0.02559084 -0.00361481 0.41392377
v 0.02559084 0.02067662 0.37579591
v 0.07273072 0.01174804 0.09048948
v 0.07263264 0.01174804 0.09164926
v 0.07203948 0.01174804 0.09636087
v 0.02559084 -0.00361481 0.45933649
v 0.02559084 0.00235105 0.45466111
v 0.07072705 0.01950437 0.09048948
v 0.04665970 0.02067662 0.25144551
v 0.04711741 0.01902644 0.25463491
v 0.02559084 0.00705192 0.44103367
v 0.02559084 0.01436123 0.41120553
v 0.03240517 0.02067662 0.34071250
v 0.07251588 0.01290365 0.09048948
v 0.07108669 0.01590916 0.09636087
v 0.07073172 0.01481776 0.10107249
v 0.07070370 0.01943779 0.09081567
v 0.07134356 0.01690546 0.09212041
v 0.07122680 0.01794455 0.09048948
v 0.04165754 0.02067662 0.28431809
v 0.02712278 0.01219744 0.41120553
v 0.02559084 0.01099666 0.42530412
v 0.02559084 0.01332451 0.41577216
v 0.03312444 0.01910015 0.34440931
v 0.03341868 0.01950913 0.34071250
v 0.03325054 0.02067662 0.33600089
v 0.07160045 0.01676279 0.09048948
v 0.03403053 0.02067662 0.33132552
v 0.02828575 0.01421143 0.39536725
f 1 2 6
f 1 6 13
f 1 13 22
f 1 22 39
f 1 39 50
f 1 50 58
f 1 58 45
f 1 45 34
f 1 34 16
f 1 16 7
f 1 7 3
f 1 3 4
f 1 4 2
f 2 4 5
f 2 5 11
f 2 11 20
f 2 20 37
f 2 37 32
f 2 32 31
f 2 31 30
f 2 30 29
f 2 29 28
f 2 28 27
f 2 27 26
f 2 26 25
f 2 25 24
f 2 24 23
f 2 23 14
f 2 14 6
f 3 7 17
f 3 17 8
f 3 8 4
f 4 9 10
f 4 10 11
f 4 11 5
f 4 8 9
f 6 12 13
f 6 14 15
f 6 15 12
f 7 16 17
f 8 17 9
f 9 18 19
f 9 19 10
f 9 17 18
f 10 20 11
f 10 19 21
f 10 21 20
f 12 15 33
f 12 33 44
f 12 44 57
f 12 57 59
f 12 59 51
f 12 51 40
f 12 40 22
f 12 22 13
f 14 23 15
f 15 24 25
f 15 25 26
f 15 26 27
f 15 27 28
f 15 28 29
f 15 29 30
f 15 30 31
f 15 31 32
f 15 32 37
f 15 37 21
f 15 21 38
f 15 38 42
f 15 42 53
f 15 53 54
f 15 54 43
f 15 43 33
f 15 23 24
f 16 34 35
f 16 35 17
f 17 35 18
f 18 35 36
f 18 36 21
f 18 21 19
f 20 21 37
f 21 36 38
f 22 40 41
f 22 41 42
f 22 42 39
f 33 43 44
f 34 45 35
f 35 45 36
f 36 45 46
f 36 46 47
f 36 47 38
f 38 47 46
f 38 46 48
f 38 48 39
f 38 39 42
f 39 48 46
f 39 46 49
f 39 49 50
f 40 51 41
f 41 51 42
f 42 51 52
f 42 52 53
f 43 54 55
f 43 55 56
f 43 56 57
f 43 57 44
f 45 58 46
f 46 58 49
f 49 58 50
f 51 59 56
f 51 56 55
f 51 55 52
f 52 60 54
f 52 54 53
f 52 55 60
f 54 60 55
f 56 59 57

