# https://github.com/mikedh/trimesh
v 0.05323785 0.04838409 0.09048948
v 0.05126693 0.05014717 0.09047260
v 0.05126693 0.04724662 0.09048948
v 0.05558712 0.04612179 0.09048948
v 0.05506213 0.05974613 0.03302726
v 0.05244303 0.06172407 0.03524902
v 0.05200016 0.06134490 0.03848325
v 0.05126693 0.06173038 0.03896135
v 0.05126693 0.04305695 0.09048948
v 0.05660192 0.04719607 0.08089932
v 0.05730582 0.05739537 0.03302726
v 0.05765484 0.04377102 0.09048948
v 0.05270993 0.06195155 0.03302726
v 0.05126693 0.06296264 0.03302726
v 0.05126693 0.06281730 0.03380347
v 0.05126693 0.06255820 0.03517591
v 0.05126693 0.04309486 0.09026448
v 0.06874716 -0.00159500 0.09048948
v 0.06131219 0.04724662 0.05753420
v 0.05965803 0.05471599 0.03302726
v 0.06000411 0.04073777 0.09048948
v 0.06031500 0.04123068 0.08694028
v 0.05126693 0.05606832 0.03302726
v 0.05126693 0.04457989 0.08224362
v 0.07026934 -0.00159500 0.07798571
v 0.07329613 -0.00159500 0.09048948
v 0.05126693 0.04547090 0.07754135
v 0.05126693 0.04640616 0.07284471
v 0.05126693 0.04701913 0.07006609
v 0.05126693 0.05183441 0.04918147
v 0.05126693 0.05418517 0.03995129
v 0.05126693 0.05605568 0.03306663
v 0.06585236 0.04693066 0.03302726
v 0.06164361 0.04763841 0.05404686
v 0.06168174 0.05236523 0.03302726
v 0.06097491 0.04220385 0.07940314
v 0.06480824 0.04554042 0.04464795
v 0.06039419 0.04016272 0.09048948
v 0.06159669 0.03838701 0.09048948
v 0.06190171 0.03887991 0.08694028
v 0.07678044 -0.00159500 0.03302726
v 0.07497375 -0.00159500 0.04055877
v 0.07376246 -0.00159500 0.05010394
v 0.07329319 -0.00119057 0.09048948
v 0.07522892 -0.00159500 0.08017935
v 0.07522598 0.00063570 0.08017373
v 0.07489457 -0.00159500 0.04116623
v 0.06485810 0.04827034 0.03302726
v 0.06207182 0.04817555 0.04935022
v 0.06656506 0.04592589 0.03302726
v 0.06639495 0.04318965 0.04464795
v 0.07072981 0.03796993 0.03891073
v 0.07124895 0.03881040 0.03302726
v 0.06649467 0.02951475 0.09048948
v 0.08117982 -0.00159500 0.03302726
v 0.07325213 0.00235454 0.09048948
v 0.08122968 0.00235454 0.03302726
v 0.07997439 0.00235454 0.04293240
v 0.07996266 0.00519189 0.04285366
v 0.07544596 0.00225975 0.07778322
v 0.07304976 0.00820618 0.09048948
v 0.07310841 0.00704976 0.09048948
v 0.07321693 0.00350464 0.09048948
v 0.07146598 0.03473447 0.04464795
v 0.07169768 0.03566340 0.04026628
v 0.07587710 0.02967906 0.03302726
v 0.06764731 0.02687962 0.09048948
v 0.07062129 0.02381477 0.08080932
v 0.07540196 0.02866165 0.03891635
v 0.07569525 0.02930622 0.03524902
v 0.08112410 0.00457260 0.03302726
v 0.08099505 0.00704976 0.03302726
v 0.08072522 0.00927414 0.03302726
v 0.08041726 0.01163754 0.03302726
v 0.07273300 0.01175129 0.09048948
v 0.07535210 0.00574167 0.07638266
v 0.07650181 0.02785911 0.03302726
v 0.06807845 0.02584958 0.09048948
v 0.07072688 0.01951135 0.09048948
v 0.07688016 0.02584958 0.03524902
v 0.07998319 0.01476558 0.03302726
v 0.07251890 0.01290772 0.09048948
v 0.07716759 0.02584958 0.03302726
v 0.07122841 0.01795049 0.09048948
v 0.07160089 0.01676879 0.09048948
v 0.07682736 0.02115436 0.04464795
v 0.07216695 0.01645283 0.08694028
f 1 2 3
f 1 3 9
f 1 9 18
f 1 18 26
f 1 26 44
f 1 44 56
f 1 56 63
f 1 63 62
f 1 62 61
f 1 61 75
f 1 75 82
f 1 82 85
f 1 85 84
f 1 84 79
f 1 79 78
f 1 78 67
f 1 67 54
f 1 54 39
f 1 39 38
f 1 38 21
f 1 21 12
f 1 12 4
f 1 4 5
f 1 5 6
f 1 6 2
f 2 6 7
f 2 7 8
f 2 8 16
f 2 16 15
f 2 15 14
f 2 14 23
f 2 23 32
f 2 32 31
f 2 31 30
f 2 30 29
f 2 29 28
f 2 28 27
f 2 27 24
f 2 24 17
f 2 17 9
f 2 9 3
f 4 10 11
f 4 11 5
f 4 12 10
f 5 11 20
f 5 20 35
f 5 35 48
f 5 48 33
f 5 33 50
f 5 50 53
f 5 53 66
f 5 66 77
f 5 77 83
f 5 83 81
f 5 81 74
f 5 74 73
f 5 73 72
f 5 72 71
f 5 71 57
f 5 57 55
f 5 55 41
f 5 41 23
f 5 23 14
f 5 14 13
f 5 13 6
f 6 13 14
f 6 14 15
f 6 15 16
f 6 16 7
f 7 16 8
f 9 17 18
f 10 12 19
f 10 19 11
f 11 19 20
f 12 21 22
f 12 22 19
f 17 24 18
f 18 25 43
f 18 43 47
f 18 47 42
f 18 42 41
f 18 41 55
f 18 55 45
f 18 45 26
f 18 24 27
f 18 27 28
f 18 28 29
f 18 29 30
f 18 30 31
f 18 31 32
f 18 32 25
f 19 33 34
f 19 34 35
f 19 35 20
f 19 22 36
f 19 36 37
f 19 37 33
f 21 38 22
f 22 37 36
f 22 38 39
f 22 39 40
f 22 40 51
f 22 51 37
f 23 41 42
f 23 42 32
f 25 32 43
f 26 45 46
f 26 46 44
f 32 42 47
f 32 47 43
f 33 48 49
f 33 49 34
f 33 37 50
f 34 49 35
f 35 49 48
f 37 51 50
f 39 52 53
f 39 53 40
f 39 54 52
f 40 53 51
f 44 46 56
f 45 57 58
f 45 58 46
f 45 55 57
f 46 58 59
f 46 59 60
f 46 60 61
f 46 61 62
f 46 62 63
f 46 63 56
f 50 51 53
f 52 64 65
f 52 65 53
f 52 54 64
f 53 65 66
f 54 67 68
f 54 68 69
f 54 69 70
f 54 70 66
f 54 66 64
f 57 71 59
f 57 59 58
f 59 71 72
f 59 72 73
f 59 73 74
f 59 74 75
f 59 75 76
f 59 76 60
f 60 76 61
f 61 76 75
f 64 66 65
f 66 70 77
f 67 78 68
f 68 78 79
f 68 79 69
f 69 79 80
f 69 80 70
f 70 80 77
f 74 81 75
f 75 81 82
f 77 80 83
f 79 84 80
f 80 84 85
f 80 85 86
f 80 86 81
f 80 81 83
f 81 86 87
f 81 87 82
f 82 87 85
f 85 87 86

