# https://github.com/mikedh/trimesh
v 0.06448922 -0.10213395 0.00164344
v 0.06794315 -0.10216318 0.00173713
v 0.06448922 -0.10213395 0.00423902
v 0.06448922 -0.09951313 0.00038523
v 0.07264220 -0.10211446 0.00193902
v 0.06794315 -0.10216318 0.00436984
v 0.06448922 -0.10118890 0.00450390
v 0.08838149 -0.09664874 0.00791190
v 0.06448922 -0.09855833 -0.00002825
v 0.07734124 -0.10201703 0.00220067
v 0.07264220 -0.10211446 0.00451683
v 0.06794315 -0.09855833 0.00017688
v 0.07264220 -0.09855833 0.00047406
v 0.07734124 -0.10201703 0.00470095
v 0.09143451 -0.09669744 0.00799911
v 0.06448922 -0.09855833 0.00508536
v 0.06448922 -0.05106202 0.01252804
v 0.06448922 -0.09053024 -0.00166279
v 0.06518695 -0.09126095 -0.00148190
v 0.07734124 -0.09855833 0.00091663
v 0.08204028 -0.10160784 0.00254147
v 0.08204028 -0.10160784 0.00496907
v 0.09402496 -0.09642465 0.00794421
v 0.09580975 -0.09345308 0.00801043
v 0.06515225 -0.05026310 0.01252804
v 0.06448922 -0.04161146 0.01252804
v 0.06448922 -0.08913701 -0.00188730
v 0.06794315 -0.08799709 -0.00175810
v 0.07067623 -0.08708127 -0.00164665
v 0.08204028 -0.09385254 0.00080679
v 0.08204028 -0.09855833 0.00158369
v 0.07608842 -0.08298928 -0.00175000
v 0.08507789 -0.10119864 0.00284998
v 0.08507789 -0.10119864 0.00444899
v 0.09402496 -0.09642465 0.00662461
v 0.09855825 -0.09161169 0.00785052
v 0.06579216 -0.04948367 0.01252804
v 0.09884350 -0.08915649 0.00798297
v 0.07124289 -0.04139712 0.01252804
v 0.06972794 -0.04375489 0.01252804
v 0.07794259 -0.00263039 0.01252804
v 0.06448922 -0.04166992 0.01207902
v 0.06448922 -0.08446045 -0.00244129
v 0.06794315 -0.07976441 -0.00276596
v 0.06794315 -0.08446045 -0.00220712
v 0.07240320 -0.08451891 -0.00186954
v 0.08673547 -0.08915649 0.00077449
v 0.08673547 -0.09385254 0.00153200
v 0.09172362 -0.09413508 0.00250271
v 0.08668150 -0.09849013 0.00250110
v 0.07264220 -0.07976441 -0.00242676
v 0.07753013 -0.07990080 -0.00191962
v 0.08035957 -0.07842963 -0.00172093
v 0.09034745 -0.09687281 0.00286289
v 0.09348143 -0.09588879 0.00349443
v 0.09855825 -0.09161169 0.00734337
v 0.10339221 -0.07869269 0.00396929
v 0.10358495 -0.07505861 0.00436823
v 0.09888977 -0.08536653 0.00798297
v 0.08300399 -0.00263039 0.01252804
v 0.08274958 -0.00697569 0.01252804
v 0.08259924 -0.00928475 0.01252804
v 0.08199788 -0.01398079 0.01252804
v 0.08091853 -0.01868658 0.01252804
v 0.08049835 -0.02016749 0.01252804
v 0.07998565 -0.02192120 0.01252804
v 0.07584171 -0.03266755 0.01252804
v 0.07511315 -0.03409974 0.01252804
v 0.07242632 -0.03923421 0.01252804
v 0.07857864 -0.00263039 0.00543585
v 0.06448922 -0.04358926 0.00073896
v 0.06448922 -0.04263446 0.00515966
v 0.06448922 -0.04258575 0.00543585
v 0.06448922 -0.07976441 -0.00295008
v 0.06794315 -0.07505861 -0.00317622
v 0.09143451 -0.08915649 0.00157561
v 0.09143451 -0.08446045 0.00090047
v 0.09468800 -0.09275160 0.00287582
v 0.09613355 -0.07505861 0.00078418
v 0.09613355 -0.07976441 0.00122835
v 0.07264220 -0.06566652 -0.00323436
v 0.07734124 -0.06566652 -0.00275142
v 0.08204028 -0.06566652 -0.00213444
v 0.08459989 -0.06876474 -0.00164181
v 0.09878954 -0.08756841 0.00294526
v 0.09782197 -0.09069586 0.00421318
v 0.10339221 -0.07869269 0.00288712
v 0.10358495 -0.07505861 0.00268846
v 0.10370059 -0.07036257 0.00426163
v 0.10386636 -0.03748050 0.00383199
v 0.10341920 -0.00263039 0.00326346
v 0.07924167 -0.00263039 0.00070989
v 0.06448922 -0.04529426 -0.00216026
v 0.06448922 -0.07505861 -0.00333771
v 0.06448922 -0.07160965 -0.00352024
v 0.06448922 -0.07036257 -0.00358485
v 0.06794315 -0.07036257 -0.00341849
v 0.09613355 -0.08446045 0.00181950
v 0.09620680 -0.08914675 0.00258347
v 0.10083260 -0.07505861 0.00175328
v 0.09613355 -0.07036257 0.00049022
v 0.10083260 -0.07036257 0.00139471
v 0.10120652 -0.08006643 0.00241873
v 0.06794315 -0.06566652 -0.00357032
v 0.06794315 -0.06096074 -0.00369789
v 0.07264220 -0.04688234 -0.00374150
v 0.07734124 -0.03748050 -0.00364137
v 0.08204028 -0.03278446 -0.00337003
v 0.08673547 -0.02338262 -0.00322952
v 0.08673547 -0.02807867 -0.00307444
v 0.09143451 -0.02338262 -0.00275465
v 0.09143451 -0.02807867 -0.00256730
v 0.09613355 -0.02338262 -0.00215220
v 0.09641881 -0.02800073 -0.00190024
v 0.09527007 -0.03278446 -0.00183562
v 0.09870088 -0.02637367 -0.00164181
v 0.09976482 -0.08446045 0.00270784
v 0.10370059 -0.07036257 0.00253341
v 0.10323031 -0.01235374 -0.00164665
v 0.10379312 -0.05626469 0.00400158
v 0.10381239 -0.05157839 0.00395960
v 0.10386636 -0.03748050 0.00185826
v 0.10371602 -0.00458870 0.00073896
v 0.10370059 -0.00263039 0.00073896
v 0.10382395 -0.03278446 0.00374154
v 0.10354254 -0.00263039 0.00222490
v 0.10352713 -0.00928475 0.00335390
v 0.07978906 -0.00263039 -0.00139953
v 0.06448922 -0.04719411 -0.00268196
v 0.06448922 -0.06690386 -0.00371083
v 0.06448922 -0.06566652 -0.00375119
v 0.06448922 -0.06220782 -0.00384972
v 0.06448922 -0.06096074 -0.00388364
v 0.06794315 -0.05626469 -0.00382228
v 0.06794315 -0.05157839 -0.00392565
v 0.08204028 -0.02338262 -0.00358001
v 0.08204028 -0.02807867 -0.00350248
v 0.08673547 -0.01868658 -0.00334096
v 0.09143451 -0.01868658 -0.00290810
v 0.09613355 -0.01398079 -0.00250269
v 0.09613355 -0.01868658 -0.00234439
v 0.10111400 -0.01394182 -0.00187117
v 0.10379312 -0.05626469 0.00227498
v 0.10333053 -0.00928475 -0.00171771
v 0.10345389 -0.00458870 -0.00180977
v 0.10083260 -0.00928475 -0.00208596
v 0.10381239 -0.05157839 0.00219745
v 0.10346159 -0.00263039 -0.00181787
v 0.10361579 -0.00263039 -0.00032867
v 0.08186682 -0.00263039 -0.00250431
v 0.06448922 -0.05157839 -0.00361715
v 0.06448922 -0.05626469 -0.00397248
v 0.08673547 -0.00263039 -0.00341849
v 0.08673547 -0.00458870 -0.00343140
v 0.08673547 -0.00928475 -0.00344109
v 0.08673547 -0.01398079 -0.00340880
v 0.09143451 -0.00928475 -0.00308898
v 0.09143451 -0.01398079 -0.00301792
v 0.09613355 -0.00928475 -0.00261735
v 0.10083260 -0.00458870 -0.00221196
v 0.10083260 -0.00263039 -0.00222650
v 0.10236296 -0.00263039 -0.00199067
v 0.09143451 -0.00263039 -0.00313099
v 0.09143451 -0.00458870 -0.00313099
v 0.09613355 -0.00458870 -0.00268196
v 0.09613355 -0.00263039 -0.00268843
f 1 2 6
f 1 6 3
f 1 3 7
f 1 7 16
f 1 16 17
f 1 17 26
f 1 26 42
f 1 42 73
f 1 73 72
f 1 72 71
f 1 71 93
f 1 93 129
f 1 129 151
f 1 151 152
f 1 152 133
f 1 133 132
f 1 132 131
f 1 131 130
f 1 130 96
f 1 96 95
f 1 95 94
f 1 94 74
f 1 74 43
f 1 43 27
f 1 27 18
f 1 18 9
f 1 9 4
f 1 4 2
f 2 5 11
f 2 11 6
f 2 4 5
f 3 6 8
f 3 8 7
f 4 9 5
f 5 10 14
f 5 14 11
f 5 9 12
f 5 12 13
f 5 13 10
f 6 11 14
f 6 14 15
f 6 15 8
f 7 8 16
f 8 15 17
f 8 17 16
f 9 18 19
f 9 19 12
f 10 13 20
f 10 20 21
f 10 21 22
f 10 22 14
f 12 19 13
f 13 19 20
f 14 22 15
f 15 22 23
f 15 23 17
f 17 23 24
f 17 24 25
f 17 25 37
f 17 37 40
f 17 40 39
f 17 39 69
f 17 69 68
f 17 68 67
f 17 67 66
f 17 66 65
f 17 65 64
f 17 64 63
f 17 63 62
f 17 62 61
f 17 61 60
f 17 60 41
f 17 41 26
f 18 27 19
f 19 27 28
f 19 28 29
f 19 29 20
f 20 30 31
f 20 31 21
f 20 29 32
f 20 32 30
f 21 33 34
f 21 34 22
f 21 31 33
f 22 34 23
f 23 34 33
f 23 33 35
f 23 35 56
f 23 56 36
f 23 36 24
f 24 37 25
f 24 36 38
f 24 38 39
f 24 39 40
f 24 40 37
f 26 41 42
f 27 43 44
f 27 44 45
f 27 45 46
f 27 46 28
f 28 46 29
f 29 46 32
f 30 47 48
f 30 48 31
f 30 32 47
f 31 48 49
f 31 49 50
f 31 50 33
f 32 46 51
f 32 51 52
f 32 52 53
f 32 53 47
f 33 50 54
f 33 54 55
f 33 55 35
f 35 55 56
f 36 56 87
f 36 87 57
f 36 57 38
f 38 57 58
f 38 58 59
f 38 59 60
f 38 60 61
f 38 61 62
f 38 62 63
f 38 63 64
f 38 64 65
f 38 65 66
f 38 66 67
f 38 67 68
f 38 68 69
f 38 69 39
f 41 60 91
f 41 91 126
f 41 126 124
f 41 124 149
f 41 149 148
f 41 148 162
f 41 162 161
f 41 161 166
f 41 166 163
f 41 163 153
f 41 153 150
f 41 150 128
f 41 128 92
f 41 92 70
f 41 70 71
f 41 71 72
f 41 72 73
f 41 73 42
f 43 74 44
f 44 74 75
f 44 75 51
f 44 51 45
f 45 51 46
f 47 76 48
f 47 53 77
f 47 77 76
f 48 76 49
f 49 54 50
f 49 76 78
f 49 78 54
f 51 75 53
f 51 53 52
f 53 79 80
f 53 80 77
f 53 75 81
f 53 81 82
f 53 82 83
f 53 83 84
f 53 84 79
f 54 78 55
f 55 78 85
f 55 85 86
f 55 86 56
f 56 86 87
f 57 87 88
f 57 88 58
f 58 88 118
f 58 118 89
f 58 89 59
f 59 89 90
f 59 90 91
f 59 91 60
f 70 92 71
f 71 92 93
f 74 94 75
f 75 94 95
f 75 95 96
f 75 96 97
f 75 97 81
f 76 77 98
f 76 98 99
f 76 99 78
f 77 80 98
f 78 99 85
f 79 100 80
f 79 84 101
f 79 101 102
f 79 102 100
f 80 100 103
f 80 103 98
f 81 97 104
f 81 104 105
f 81 105 106
f 81 106 107
f 81 107 108
f 81 108 109
f 81 109 110
f 81 110 111
f 81 111 82
f 82 111 112
f 82 112 83
f 83 112 113
f 83 113 84
f 84 113 114
f 84 114 115
f 84 115 116
f 84 116 101
f 85 98 117
f 85 117 87
f 85 87 86
f 85 99 98
f 87 117 103
f 87 103 100
f 87 100 102
f 87 102 88
f 88 102 119
f 88 119 118
f 89 118 143
f 89 143 120
f 89 120 121
f 89 121 90
f 90 122 123
f 90 123 124
f 90 124 125
f 90 125 91
f 90 121 147
f 90 147 122
f 91 125 127
f 91 127 126
f 92 128 93
f 93 128 129
f 96 130 97
f 97 130 131
f 97 131 104
f 98 103 117
f 101 116 119
f 101 119 102
f 104 131 132
f 104 132 133
f 104 133 105
f 105 133 134
f 105 134 106
f 106 134 135
f 106 135 107
f 107 136 137
f 107 137 108
f 107 135 136
f 108 137 109
f 109 138 139
f 109 139 111
f 109 111 110
f 109 137 138
f 111 139 140
f 111 140 141
f 111 141 112
f 112 141 113
f 113 141 142
f 113 142 119
f 113 119 114
f 114 116 115
f 114 119 116
f 118 119 144
f 118 144 145
f 118 145 143
f 119 142 146
f 119 146 144
f 120 143 147
f 120 147 121
f 122 147 143
f 122 143 145
f 122 145 148
f 122 148 149
f 122 149 123
f 123 149 124
f 124 126 127
f 124 127 125
f 128 150 151
f 128 151 129
f 133 152 135
f 133 135 134
f 135 152 153
f 135 153 154
f 135 154 136
f 136 154 155
f 136 155 156
f 136 156 138
f 136 138 137
f 138 156 157
f 138 157 158
f 138 158 139
f 139 158 159
f 139 159 160
f 139 160 140
f 140 160 146
f 140 146 141
f 141 146 142
f 144 146 160
f 144 160 145
f 145 160 161
f 145 161 162
f 145 162 148
f 150 153 151
f 151 153 152
f 153 163 154
f 154 163 155
f 155 163 164
f 155 164 156
f 156 164 157
f 157 164 165
f 157 165 160
f 157 160 159
f 157 159 158
f 160 165 161
f 161 165 166
f 163 166 164
f 164 166 165

