# https://github.com/mikedh/trimesh
v -0.02022289 -0.00458362 0.44671683
v -0.02022289 -0.00109387 0.44640104
v -0.05860372 -0.00109387 0.19342065
v -0.02087181 -0.00458362 0.44243617
v -0.05664125 -0.00747713 0.20556089
v -0.05686628 -0.00913877 0.20282408
v -0.02374488 -0.00716538 0.42162932
v -0.02077238 -0.00928405 0.43773444
v -0.02022289 -0.00954435 0.44068180
v -0.02022289 -0.00109387 0.40959433
v -0.06152912 -0.00109387 0.17394712
v -0.05861942 -0.00458362 0.19342065
v -0.05790770 -0.00458362 0.19812236
v -0.06150820 -0.00458362 0.17387695
v -0.06139306 -0.00784941 0.17310502
v -0.05825309 -0.00928405 0.19342065
v -0.05755184 -0.00928405 0.19812236
v -0.05669358 -0.01221993 0.20124514
v -0.04266317 -0.01702932 0.28615673
v -0.03782239 -0.01646333 0.31812139
v -0.05212493 -0.01287672 0.23012210
v -0.05241799 -0.01425688 0.22650810
v -0.03911501 -0.01867886 0.30615657
v -0.03834049 -0.01882111 0.31075303
v -0.03789042 -0.02129391 0.30913901
v -0.02022289 -0.01092754 0.43773444
v -0.02116488 -0.00109387 0.40012072
v -0.02022289 -0.03201440 0.32903358
v -0.06230365 -0.00109387 0.16871909
v -0.06597741 -0.00221374 0.14408772
v -0.06597741 -0.00224098 0.14408772
v -0.06208909 -0.00458362 0.16991206
v -0.06277464 -0.00458362 0.16521035
v -0.06686707 -0.00458362 0.13703514
v -0.07298476 -0.00458362 0.09471970
v -0.06611347 -0.00790994 0.14029827
v -0.07250854 -0.00928405 0.09471970
v -0.06163902 -0.00936275 0.17001732
v -0.06141399 -0.01228349 0.16854366
v -0.05749950 -0.01398146 0.19342065
v -0.05688198 -0.01386342 0.19777149
v -0.04285680 -0.01863043 0.28226203
v -0.05205167 -0.01694155 0.22510460
v -0.05660985 -0.01644517 0.19598203
v -0.04250094 -0.02106993 0.28040239
v -0.03813639 -0.02192951 0.30615657
v -0.03779622 -0.02574312 0.29913909
v -0.02022289 -0.01407831 0.43043627
v -0.02158877 -0.00109387 0.39664706
v -0.03618437 -0.00109387 0.29675314
v -0.03600121 -0.00109387 0.29798120
v -0.03271995 -0.00109387 0.32026172
v -0.03202915 -0.00109387 0.32496344
v -0.02242086 -0.00109387 0.39071729
v -0.02175624 -0.00109387 0.39541900
v -0.02022289 -0.03201440 0.36405083
v -0.05987541 -0.03201440 0.08826361
v -0.06845798 -0.00109387 0.08826361
v -0.06299968 -0.00109387 0.16401737
v -0.06612917 -0.00109387 0.14285966
v -0.07258704 -0.00109387 0.09822844
v -0.07069259 -0.00247706 0.11131605
v -0.07308943 -0.00109387 0.09471970
v -0.07322026 -0.00109387 0.09352672
v -0.07348716 -0.00458362 0.09005307
v -0.07313653 -0.00928405 0.09005307
v -0.07237771 -0.01398146 0.09005307
v -0.05817983 -0.01398146 0.18871893
v -0.05353268 -0.01867886 0.21219242
v -0.05679825 -0.01707775 0.19342065
v -0.05660461 -0.02109415 0.18654351
v -0.07072399 -0.01651176 0.09742142
v -0.07092809 -0.01722303 0.09471970
v -0.07144618 -0.01876663 0.08826361
v -0.07120022 -0.01881506 0.08987763
v -0.04268410 -0.02157539 0.27794628
v -0.04263177 -0.02603671 0.26724461
v -0.03909408 -0.02337626 0.29675314
v -0.05207783 -0.02156328 0.21584152
v -0.05236043 -0.02229876 0.21219242
v -0.03837712 -0.02346706 0.30099872
v -0.03836142 -0.02685088 0.29205142
v -0.03798462 -0.03074319 0.28152519
v -0.03671294 -0.02846713 0.29675314
v -0.03359391 -0.02661783 0.32026172
v -0.03328514 -0.02607303 0.32366520
v -0.02022289 -0.01481379 0.42833101
v -0.02022289 -0.03156947 0.36626136
v -0.02058398 -0.03201440 0.36264733
v -0.06624954 -0.03201440 0.08826361
v -0.07368602 -0.00109387 0.08826361
v -0.07354996 -0.00109387 0.09005307
v -0.07358659 -0.00109387 0.08959693
v -0.07367555 -0.00163867 0.08826361
v -0.07361799 -0.00458362 0.08826361
v -0.07352379 -0.00633910 0.08826361
v -0.07330400 -0.00928405 0.08826361
v -0.07308420 -0.01103650 0.08826361
v -0.07260797 -0.01398146 0.08826361
v -0.07219977 -0.01573693 0.08826361
v -0.07077632 -0.02109415 0.08826361
v -0.05194700 -0.02587327 0.20563108
v -0.05333905 -0.02337626 0.20282408
v -0.05259069 -0.02360326 0.20731527
v -0.07073446 -0.02121219 0.08826361
v -0.07068735 -0.02134233 0.08826361
v -0.06611347 -0.02604881 0.10742135
v -0.04323360 -0.02730489 0.25920959
v -0.04259514 -0.03061607 0.25285876
v -0.03873298 -0.02757123 0.28734971
v -0.03895801 -0.02848529 0.28292869
v -0.03827245 -0.03119417 0.27794628
v -0.03772296 -0.03201440 0.27794628
v -0.03420097 -0.03201440 0.29857769
v -0.03394977 -0.03165422 0.30145485
v -0.03352587 -0.03105191 0.30615657
v -0.03323804 -0.03064028 0.30931444
v -0.03425330 -0.02840660 0.31085828
v -0.03401257 -0.02735937 0.31556001
v -0.03218615 -0.02896653 0.32026172
v -0.02022289 -0.01791916 0.41892758
v -0.02022289 -0.01775875 0.41941881
v -0.02022289 -0.01547966 0.42633103
v -0.02022289 -0.03134550 0.36724379
v -0.02377628 -0.03051922 0.35587546
v -0.02396991 -0.03201440 0.34843693
v -0.02066248 -0.03197202 0.36254208
v -0.02061015 -0.03201440 0.36254208
v -0.06652167 -0.03149683 0.08826361
v -0.06111569 -0.03201440 0.12292999
v -0.05187373 -0.03042236 0.19103470
v -0.06779859 -0.02807669 0.09005307
v -0.06693510 -0.02843384 0.09489513
v -0.06612917 -0.03073109 0.09342146
v -0.05215633 -0.02630608 0.20282408
v -0.04342723 -0.02838541 0.25447278
v -0.06801839 -0.02807669 0.08826361
v -0.04282540 -0.03101256 0.24980615
v -0.04221311 -0.03201440 0.24980615
v -0.03879578 -0.03201440 0.27138492
v -0.03849225 -0.03201440 0.27324456
v -0.03368287 -0.03201440 0.30145485
v -0.03279321 -0.03201440 0.30615657
v -0.02937588 -0.03167843 0.32496344
v -0.02891012 -0.03109126 0.32963006
v -0.02858043 -0.03066752 0.33292828
v -0.02022289 -0.01869399 0.41643638
v -0.02022289 -0.02708999 0.38506822
v -0.02457697 -0.03141209 0.34843693
v -0.02022289 -0.02685088 0.38605066
v -0.02022289 -0.02264986 0.40247158
v -0.02810420 -0.03201440 0.32963006
v -0.02503750 -0.03201440 0.34373521
v -0.06638560 -0.03123654 0.09005307
v -0.06740609 -0.02951739 0.08826361
v -0.04291960 -0.03201440 0.24510444
v -0.02964278 -0.03201440 0.32222662
v -0.02909329 -0.03201440 0.32496344
v -0.02022289 -0.02199610 0.40482243
v -0.02022289 -0.01928419 0.41440130
v -0.02508460 -0.03201440 0.34352469
f 1 2 3
f 1 3 4
f 1 4 5
f 1 5 6
f 1 6 7
f 1 7 8
f 1 8 9
f 1 9 26
f 1 26 48
f 1 48 87
f 1 87 123
f 1 123 122
f 1 122 121
f 1 121 147
f 1 147 160
f 1 160 159
f 1 159 151
f 1 151 150
f 1 150 148
f 1 148 124
f 1 124 88
f 1 88 56
f 1 56 28
f 1 28 10
f 1 10 2
f 2 10 27
f 2 27 49
f 2 49 55
f 2 55 54
f 2 54 53
f 2 53 52
f 2 52 51
f 2 51 50
f 2 50 58
f 2 58 91
f 2 91 93
f 2 93 92
f 2 92 64
f 2 64 63
f 2 63 61
f 2 61 60
f 2 60 59
f 2 59 29
f 2 29 11
f 2 11 3
f 3 11 12
f 3 12 13
f 3 13 4
f 4 13 5
f 5 13 12
f 5 12 14
f 5 14 15
f 5 15 16
f 5 16 17
f 5 17 6
f 6 17 18
f 6 18 7
f 7 19 20
f 7 20 8
f 7 18 21
f 7 21 22
f 7 22 19
f 8 20 23
f 8 23 24
f 8 24 25
f 8 25 9
f 9 25 26
f 10 28 27
f 11 29 30
f 11 30 31
f 11 31 12
f 12 31 14
f 14 32 15
f 14 31 32
f 15 32 33
f 15 33 34
f 15 34 35
f 15 35 36
f 15 36 37
f 15 37 38
f 15 38 16
f 16 18 17
f 16 38 18
f 18 38 39
f 18 39 40
f 18 40 41
f 18 41 22
f 18 22 21
f 19 42 20
f 19 22 43
f 19 43 42
f 20 42 23
f 22 41 44
f 22 44 43
f 23 25 24
f 23 42 45
f 23 45 25
f 25 45 46
f 25 46 47
f 25 47 48
f 25 48 26
f 27 28 49
f 28 50 51
f 28 51 52
f 28 52 53
f 28 53 54
f 28 54 55
f 28 55 49
f 28 56 89
f 28 89 128
f 28 128 126
f 28 126 153
f 28 153 161
f 28 161 152
f 28 152 158
f 28 158 157
f 28 157 143
f 28 143 142
f 28 142 114
f 28 114 113
f 28 113 141
f 28 141 140
f 28 140 139
f 28 139 156
f 28 156 130
f 28 130 90
f 28 90 57
f 28 57 58
f 28 58 50
f 29 59 30
f 30 59 60
f 30 60 61
f 30 61 31
f 31 61 62
f 31 62 35
f 31 35 34
f 31 34 33
f 31 33 32
f 35 62 63
f 35 63 64
f 35 64 65
f 35 65 66
f 35 66 37
f 35 37 36
f 37 66 67
f 37 67 39
f 37 39 38
f 39 68 40
f 39 67 68
f 40 44 41
f 40 68 44
f 42 43 45
f 43 44 69
f 43 69 45
f 44 70 71
f 44 71 69
f 44 68 67
f 44 67 72
f 44 72 73
f 44 73 74
f 44 74 75
f 44 75 70
f 45 76 77
f 45 77 78
f 45 78 46
f 45 69 79
f 45 79 80
f 45 80 76
f 46 81 47
f 46 78 81
f 47 81 78
f 47 78 77
f 47 77 82
f 47 82 83
f 47 83 84
f 47 84 85
f 47 85 86
f 47 86 48
f 48 86 87
f 56 88 89
f 57 90 129
f 57 129 155
f 57 155 137
f 57 137 106
f 57 106 105
f 57 105 101
f 57 101 74
f 57 74 100
f 57 100 99
f 57 99 98
f 57 98 97
f 57 97 96
f 57 96 95
f 57 95 94
f 57 94 91
f 57 91 58
f 61 63 62
f 64 92 65
f 65 92 93
f 65 93 91
f 65 91 94
f 65 94 95
f 65 95 96
f 65 96 66
f 66 96 97
f 66 97 98
f 66 98 67
f 67 98 99
f 67 99 100
f 67 100 72
f 69 71 79
f 70 75 101
f 70 101 71
f 71 102 103
f 71 103 104
f 71 104 80
f 71 80 79
f 71 101 105
f 71 105 106
f 71 106 107
f 71 107 102
f 72 100 73
f 73 100 74
f 74 101 75
f 76 80 77
f 77 108 109
f 77 109 82
f 77 80 104
f 77 104 102
f 77 102 108
f 82 109 110
f 82 110 111
f 82 111 83
f 83 112 113
f 83 113 114
f 83 114 115
f 83 115 116
f 83 116 117
f 83 117 84
f 83 111 109
f 83 109 112
f 84 117 118
f 84 118 119
f 84 119 85
f 85 119 117
f 85 117 86
f 86 117 120
f 86 120 121
f 86 121 122
f 86 122 123
f 86 123 87
f 88 124 125
f 88 125 126
f 88 126 127
f 88 127 89
f 89 127 128
f 90 130 131
f 90 131 129
f 102 104 103
f 102 107 132
f 102 132 133
f 102 133 134
f 102 134 135
f 102 135 109
f 102 109 136
f 102 136 108
f 106 137 132
f 106 132 107
f 108 136 109
f 109 135 131
f 109 131 130
f 109 130 138
f 109 138 139
f 109 139 112
f 109 111 110
f 112 140 141
f 112 141 113
f 112 139 140
f 114 142 115
f 115 142 116
f 116 142 143
f 116 143 117
f 117 143 144
f 117 144 145
f 117 145 146
f 117 146 147
f 117 147 120
f 117 119 118
f 120 147 121
f 124 148 125
f 125 149 126
f 125 148 150
f 125 150 151
f 125 151 146
f 125 146 152
f 125 152 149
f 126 149 153
f 126 128 127
f 129 154 132
f 129 132 155
f 129 131 154
f 130 156 138
f 131 135 154
f 132 137 155
f 132 154 134
f 132 134 133
f 134 154 135
f 138 156 139
f 143 157 144
f 144 157 158
f 144 158 145
f 145 158 152
f 145 152 146
f 146 151 159
f 146 159 160
f 146 160 147
f 149 161 153
f 149 152 161

