# https://github.com/mikedh/trimesh
v 0.00084019 -0.00120013 0.47017790
v 0.00084019 -0.00109386 0.47017023
v -0.00724196 -0.00109386 0.46985606
v -0.00724196 -0.00458300 0.46993269
v -0.00724196 -0.00928001 0.46998633
v 0.00084019 -0.00589983 0.47013191
v 0.00084019 -0.00109386 0.46492883
v -0.01193868 -0.00109386 0.46954954
v -0.00254318 -0.01397971 0.46996333
v -0.01193868 -0.00458300 0.46952655
v -0.01205208 -0.00909573 0.46905145
v -0.00748937 -0.01424604 0.46925070
v 0.00084019 -0.01397971 0.46997865
v 0.00084019 -0.01483518 0.46184069
v -0.02022289 -0.01483518 0.39189393
v -0.02022289 -0.00109386 0.40963349
v -0.01479217 -0.00109386 0.46869897
v -0.00254318 -0.01483518 0.46976411
v 0.00084019 -0.01483518 0.46978708
v -0.01472414 -0.00458300 0.46864531
v -0.01055935 -0.01285792 0.46881392
v -0.01446641 -0.00740766 0.46843842
v -0.00719660 -0.01483518 0.46914340
v -0.02022289 -0.01483518 0.42827728
v -0.02022289 -0.00109386 0.44639998
v -0.01630139 -0.00109386 0.46593266
v -0.01619212 -0.00458300 0.46593266
v -0.00807492 -0.01483518 0.46879857
v -0.01369325 -0.01053900 0.46738861
v -0.01084388 -0.01483518 0.46682922
v -0.01509525 -0.00909573 0.46586369
v -0.02021258 -0.01483518 0.42834625
v -0.02022289 -0.01481231 0.42834625
v -0.02022289 -0.00160365 0.44644597
v -0.01908479 -0.00123510 0.45476785
v -0.01910953 -0.00109386 0.45451498
v -0.01662303 -0.00109386 0.46472193
v -0.01743743 -0.00458300 0.46122765
v -0.01644159 -0.00928001 0.46122765
v -0.01456744 -0.01207104 0.46426216
v -0.01197373 -0.01403082 0.46608592
v -0.01149540 -0.01483518 0.46571810
v -0.01957961 -0.01483518 0.43228497
v -0.02022289 -0.01407655 0.43045353
v -0.02022289 -0.00458300 0.44671417
v -0.01749310 -0.00109386 0.46122765
v -0.01907242 -0.00109386 0.45472953
v -0.01908479 -0.00312493 0.45476785
v -0.01877552 -0.00625762 0.45374868
v -0.01918169 -0.00758387 0.45061457
v -0.01895902 -0.01159623 0.44472182
v -0.01497567 -0.01273551 0.46122765
v -0.01347882 -0.01483518 0.46122765
v -0.01298400 -0.01483518 0.46238475
v -0.01829925 -0.01483518 0.43921987
v -0.01924767 -0.01218269 0.44159536
v -0.01956930 -0.01288751 0.43773327
v -0.01979404 -0.01418416 0.43278305
v -0.02022289 -0.01092638 0.43773327
v -0.02015897 -0.00458300 0.44713562
v -0.02022289 -0.00954095 0.44071413
v -0.01936725 -0.00464890 0.45203987
v -0.01946828 -0.00856981 0.44713562
v -0.01982496 -0.00973061 0.44286740
v -0.01813019 -0.01384117 0.44286740
v -0.01526226 -0.01412901 0.45610885
v -0.01495918 -0.01483518 0.45551881
v -0.01467465 -0.01483518 0.45665292
f 1 2 3
f 1 3 4
f 1 4 5
f 1 5 6
f 1 6 13
f 1 13 19
f 1 19 14
f 1 14 7
f 1 7 2
f 2 7 16
f 2 16 25
f 2 25 36
f 2 36 47
f 2 47 46
f 2 46 37
f 2 37 26
f 2 26 17
f 2 17 8
f 2 8 3
f 3 8 4
f 4 8 5
f 5 9 6
f 5 8 10
f 5 10 11
f 5 11 12
f 5 12 9
f 6 9 13
f 7 14 15
f 7 15 16
f 8 17 10
f 9 18 19
f 9 19 13
f 9 12 18
f 10 17 20
f 10 20 11
f 11 21 12
f 11 20 22
f 11 22 21
f 12 21 23
f 12 23 18
f 14 19 18
f 14 18 23
f 14 23 28
f 14 28 30
f 14 30 42
f 14 42 54
f 14 54 53
f 14 53 68
f 14 68 67
f 14 67 55
f 14 55 43
f 14 43 32
f 14 32 24
f 14 24 15
f 15 24 33
f 15 33 44
f 15 44 59
f 15 59 61
f 15 61 45
f 15 45 34
f 15 34 25
f 15 25 16
f 17 26 20
f 20 26 27
f 20 27 22
f 21 28 23
f 21 22 29
f 21 29 30
f 21 30 28
f 22 27 31
f 22 31 29
f 24 32 33
f 25 34 35
f 25 35 36
f 26 37 27
f 27 37 38
f 27 38 39
f 27 39 31
f 29 31 40
f 29 40 41
f 29 41 30
f 30 41 42
f 31 39 40
f 32 43 44
f 32 44 33
f 34 45 35
f 35 46 47
f 35 47 36
f 35 45 48
f 35 48 46
f 37 46 48
f 37 48 38
f 38 48 49
f 38 49 39
f 39 49 50
f 39 50 51
f 39 51 52
f 39 52 40
f 40 52 53
f 40 53 54
f 40 54 42
f 40 42 41
f 43 55 56
f 43 56 57
f 43 57 58
f 43 58 44
f 44 58 57
f 44 57 56
f 44 56 59
f 45 50 60
f 45 60 48
f 45 61 50
f 48 60 62
f 48 62 50
f 48 50 49
f 50 63 51
f 50 62 60
f 50 61 63
f 51 63 64
f 51 64 61
f 51 61 56
f 51 56 65
f 51 65 52
f 52 65 66
f 52 66 67
f 52 67 68
f 52 68 53
f 55 67 66
f 55 66 65
f 55 65 56
f 56 61 59
f 61 64 63

