# https://github.com/mikedh/trimesh
v -0.01937070 -0.03419749 0.33567336
v 0.00078806 -0.03419749 0.38331363
v -0.01937070 -0.03419749 0.36814259
v -0.01937070 -0.00361481 0.41902043
v -0.01853207 -0.00361481 0.42094691
v 0.00078806 -0.03419749 0.40962884
v 0.00078806 -0.00361481 0.46728949
v -0.01937070 -0.03340419 0.37231663
v -0.01915167 -0.03419749 0.36895868
v -0.01421656 -0.03298808 0.39534076
v -0.01937070 -0.00361481 0.45099467
v 0.00078806 -0.03292521 0.41847192
v 0.00074070 -0.03292821 0.41847192
v -0.00235139 -0.03419749 0.41013721
v 0.00078806 -0.00361481 0.47233313
v -0.01888726 -0.03297610 0.37637028
v -0.01937070 -0.02882696 0.39160821
v -0.01530185 -0.03419749 0.38304607
v -0.01260836 -0.03419749 0.39243766
v -0.01188615 -0.03419749 0.39479225
v -0.01201441 -0.03379036 0.39699967
v -0.01375877 -0.03266177 0.39847130
v -0.01441192 -0.02847671 0.41481963
v -0.01937070 -0.00479130 0.45170372
v -0.01886357 -0.00439315 0.45629250
v -0.01902736 -0.00361481 0.45417871
v 0.00078806 -0.03014415 0.43471322
v -0.00074714 -0.03292821 0.41847192
v -0.00235139 -0.03402985 0.41122085
v -0.00545927 -0.03314075 0.41494004
v -0.00704971 -0.03419749 0.40545479
v -0.00361625 -0.00361481 0.47194515
v -0.00704971 -0.00705147 0.47162408
v 0.00078806 -0.00705147 0.47225284
v -0.01503546 -0.02442337 0.43001743
v -0.01898394 -0.02374382 0.41456545
v -0.01937070 -0.02418987 0.41053857
v -0.00873684 -0.03419749 0.40182926
v -0.01079297 -0.03352693 0.40182926
v -0.00987935 -0.03311082 0.40651169
v -0.00940972 -0.03290126 0.40889302
v -0.00950838 -0.02827315 0.43271985
v -0.01225910 -0.02677335 0.43001743
v -0.01413171 -0.02353127 0.43722836
v -0.01444743 -0.02384261 0.43471322
v -0.01937070 -0.00494098 0.45170372
v -0.01874321 -0.00361481 0.45565033
v -0.01886357 -0.00518646 0.45629250
v -0.01605169 -0.00705147 0.46761057
v -0.01597473 -0.00361481 0.46761057
v -0.01628453 -0.00361481 0.46635301
v 0.00078806 -0.02514782 0.46134951
v -0.00137463 -0.02843480 0.44299443
v -0.00235139 -0.02987772 0.43471322
v -0.00388066 -0.03277254 0.41807057
v -0.00232771 -0.03322158 0.41626450
v -0.00703590 -0.03334132 0.41076600
v -0.00704971 -0.03403584 0.40651169
v -0.00133911 -0.02391146 0.46647341
v -0.00268290 -0.02428866 0.46316895
v -0.00552241 -0.02846474 0.43844578
v -0.00704971 -0.02967415 0.43001743
v -0.00704971 -0.00361481 0.47162408
v -0.00831456 -0.00361481 0.47149029
v -0.01174802 -0.00705147 0.47111571
v -0.00704971 -0.01175144 0.47146354
v 0.00078806 -0.00861414 0.47217259
v -0.01323586 -0.01770871 0.46291477
v -0.01862679 -0.02333968 0.41769597
v -0.01788879 -0.02215721 0.42532163
v -0.01937070 -0.02096276 0.42180312
v -0.01937070 -0.02131900 0.42061245
v -0.01937070 -0.02293255 0.41510058
v -0.01937070 -0.02388452 0.41164896
v -0.00707339 -0.02875811 0.43445904
v -0.00519880 -0.02376178 0.46177761
v -0.00688001 -0.02248052 0.46316895
v -0.01088571 -0.01997786 0.46291477
v -0.01937070 -0.00694071 0.45169034
v -0.01908853 -0.00687186 0.45342952
v -0.01890896 -0.00973075 0.45181074
v -0.01633584 -0.01175144 0.46291477
v -0.01720407 -0.00705147 0.46291477
v -0.01501178 -0.01160475 0.46762395
v -0.01431720 -0.00994030 0.47013908
v -0.01453228 -0.00705147 0.47029962
v -0.01490918 -0.00361481 0.46956381
v 0.00078806 -0.02483349 0.46299504
v 0.00078806 -0.02402522 0.46680788
v 0.00078806 -0.02341752 0.46815908
v 0.00078806 -0.02293555 0.46893503
v -0.00268290 -0.02266912 0.46786476
v -0.00447264 -0.02336064 0.46490815
v -0.01174802 -0.00361481 0.47108893
v -0.01249786 -0.00361481 0.47087488
v -0.01179538 -0.01160475 0.47063406
v -0.00235139 -0.01645140 0.47147690
v -0.00726479 -0.01666394 0.47076785
v 0.00078806 -0.01645140 0.47154379
v -0.01020494 -0.01941507 0.46650016
v -0.01446717 -0.01473007 0.46607206
v -0.01483419 -0.01536172 0.46291477
v -0.01937070 -0.01983417 0.42532163
v -0.01937070 -0.00950922 0.44881400
v -0.01918522 -0.01048514 0.44881400
v -0.01937070 -0.01139220 0.44573698
v -0.01937070 -0.01234716 0.44351617
v -0.01937070 -0.01822660 0.42930837
v -0.01339174 -0.01307461 0.46920260
v -0.01026019 -0.01523899 0.47035313
v -0.01450071 -0.00361481 0.47028623
v 0.00078806 -0.02054066 0.47072774
v -0.00235139 -0.02021436 0.47067420
v -0.00584208 -0.01941507 0.47036652
v -0.00897560 -0.01837329 0.46963070
v -0.00726479 -0.02039697 0.46787813
v -0.01179933 -0.01655019 0.46785138
v -0.01937070 -0.01977729 0.42548217
f 1 2 6
f 1 6 14
f 1 14 31
f 1 31 38
f 1 38 20
f 1 20 19
f 1 19 18
f 1 18 9
f 1 9 3
f 1 3 8
f 1 8 17
f 1 17 37
f 1 37 74
f 1 74 73
f 1 73 72
f 1 72 71
f 1 71 103
f 1 103 118
f 1 118 108
f 1 108 107
f 1 107 106
f 1 106 104
f 1 104 79
f 1 79 46
f 1 46 24
f 1 24 11
f 1 11 4
f 1 4 5
f 1 5 2
f 2 5 7
f 2 7 15
f 2 15 34
f 2 34 67
f 2 67 99
f 2 99 112
f 2 112 91
f 2 91 90
f 2 90 89
f 2 89 88
f 2 88 52
f 2 52 27
f 2 27 12
f 2 12 6
f 3 9 10
f 3 10 8
f 4 11 26
f 4 26 47
f 4 47 51
f 4 51 50
f 4 50 87
f 4 87 111
f 4 111 95
f 4 95 94
f 4 94 64
f 4 64 63
f 4 63 32
f 4 32 15
f 4 15 7
f 4 7 5
f 6 12 13
f 6 13 14
f 8 16 17
f 8 10 16
f 9 18 10
f 10 19 20
f 10 20 21
f 10 21 22
f 10 22 23
f 10 23 16
f 10 18 19
f 11 24 25
f 11 25 26
f 12 27 13
f 13 28 14
f 13 27 28
f 14 28 29
f 14 29 30
f 14 30 31
f 15 32 33
f 15 33 34
f 16 23 35
f 16 35 17
f 17 36 37
f 17 35 36
f 20 38 39
f 20 39 21
f 21 39 22
f 22 39 40
f 22 40 41
f 22 41 42
f 22 42 43
f 22 43 23
f 23 43 44
f 23 44 45
f 23 45 35
f 24 46 48
f 24 48 25
f 25 47 26
f 25 48 49
f 25 49 50
f 25 50 51
f 25 51 47
f 27 52 53
f 27 53 54
f 27 54 55
f 27 55 56
f 27 56 28
f 28 56 29
f 29 56 30
f 30 41 57
f 30 57 58
f 30 58 31
f 30 56 55
f 30 55 54
f 30 54 59
f 30 59 60
f 30 60 61
f 30 61 62
f 30 62 41
f 31 58 41
f 31 41 39
f 31 39 38
f 32 63 33
f 33 63 64
f 33 64 65
f 33 65 66
f 33 66 34
f 34 66 67
f 35 45 68
f 35 68 69
f 35 69 36
f 36 69 70
f 36 70 71
f 36 71 72
f 36 72 73
f 36 73 74
f 36 74 37
f 39 41 40
f 41 58 57
f 41 62 42
f 42 62 75
f 42 75 76
f 42 76 77
f 42 77 78
f 42 78 43
f 43 78 44
f 44 78 68
f 44 68 45
f 46 79 48
f 48 79 80
f 48 80 81
f 48 81 82
f 48 82 83
f 48 83 49
f 49 83 82
f 49 82 84
f 49 84 85
f 49 85 86
f 49 86 87
f 49 87 50
f 52 88 53
f 53 88 59
f 53 59 54
f 59 88 89
f 59 89 90
f 59 90 91
f 59 91 92
f 59 92 93
f 59 93 60
f 60 93 61
f 61 93 76
f 61 76 75
f 61 75 62
f 64 94 65
f 65 94 95
f 65 95 86
f 65 86 85
f 65 85 96
f 65 96 66
f 66 97 67
f 66 96 98
f 66 98 97
f 67 97 99
f 68 78 100
f 68 100 101
f 68 101 102
f 68 102 70
f 68 70 69
f 70 102 71
f 71 102 103
f 76 93 77
f 77 93 100
f 77 100 78
f 79 81 80
f 79 104 81
f 81 104 105
f 81 105 82
f 82 102 101
f 82 101 84
f 82 105 106
f 82 106 107
f 82 107 108
f 82 108 102
f 84 101 85
f 85 109 110
f 85 110 96
f 85 101 109
f 86 111 87
f 86 95 111
f 91 112 113
f 91 113 114
f 91 114 92
f 92 114 115
f 92 115 116
f 92 116 93
f 93 116 100
f 96 110 98
f 97 98 113
f 97 113 112
f 97 112 99
f 98 110 114
f 98 114 113
f 100 116 115
f 100 115 117
f 100 117 101
f 101 117 109
f 102 108 118
f 102 118 103
f 104 106 105
f 109 117 115
f 109 115 110
f 110 115 114

