# https://github.com/mikedh/trimesh
v 0.00216369 0.10694899 0.00392194
v 0.00216369 0.10694899 0.00147830
v 0.00178162 0.10694899 0.00392482
v 0.07263501 0.10650801 0.00433594
v 0.06793960 0.10656518 0.00422486
v 0.04914792 0.10669584 0.00399406
v 0.00178162 0.10694899 0.00147974
v 0.04914792 0.10669584 0.00176680
v 0.04445252 0.10671625 0.00167448
v 0.01155451 0.10687958 0.00145089
v 0.00685910 0.10690816 0.00145810
v 0.02095537 0.10349059 -0.00022677
v 0.01625997 0.10349059 -0.00022532
v 0.00178162 0.08703972 0.01252804
v 0.08816906 0.10145312 0.00789320
v 0.07733042 0.10638960 0.00442538
v 0.07263501 0.10650801 0.00236689
v 0.06793960 0.10656518 0.00223563
v 0.00178162 0.10377232 -0.00001328
v 0.01155451 0.10349059 -0.00020513
v 0.00685910 0.10349059 -0.00018494
v 0.04914792 0.10349059 0.00020887
v 0.04445252 0.10349059 0.00008771
v 0.03975711 0.10349059 0.00000403
v 0.03505165 0.10349059 -0.00007819
v 0.03035624 0.10349059 -0.00015176
v 0.02095537 0.10678159 0.00143935
v 0.01625997 0.10684283 0.00143935
v 0.02566083 0.10349059 -0.00019936
v 0.04914792 0.08743578 -0.00162313
v 0.04445252 0.08744803 -0.00162313
v 0.03975711 0.08734595 -0.00161881
v 0.00178162 0.08142135 0.01252804
v 0.00398354 0.08695805 0.01252804
v 0.09142669 0.10141637 0.00789465
v 0.09385986 0.10119588 0.00782541
v 0.08203588 0.10612420 0.00407918
v 0.07733042 0.10638960 0.00253855
v 0.06793960 0.10349059 0.00088397
v 0.06323414 0.10349059 0.00070510
v 0.00178162 0.10349059 -0.00014022
v 0.00216369 0.10349059 -0.00014599
v 0.03651959 0.08721121 -0.00161447
v 0.06793960 0.09879093 0.00023340
v 0.07090565 0.08291169 -0.00165920
v 0.05217430 0.08726429 -0.00161736
v 0.06793960 0.08000042 -0.00186836
v 0.06793960 0.07530076 -0.00204002
v 0.04671476 0.06523996 0.01252804
v 0.00178162 0.08216039 0.00492882
v 0.04821286 0.06523996 0.00543659
v 0.04687563 0.06523996 0.01173176
v 0.01151429 0.08586786 0.01252804
v 0.01625997 0.08517374 0.01252804
v 0.01856242 0.08473684 0.01252804
v 0.02095537 0.08423462 0.01252804
v 0.02341870 0.08352007 0.01252804
v 0.02533909 0.08295252 0.01252804
v 0.05178218 0.06848604 0.01252804
v 0.09570986 0.09839895 0.00790618
v 0.09857537 0.09656971 0.00785282
v 0.09859548 0.09659013 0.00543659
v 0.09385986 0.10119588 0.00669735
v 0.08459975 0.10590372 0.00349062
v 0.03020543 0.08098854 0.01252804
v 0.03520246 0.07893881 0.01252804
v 0.03763563 0.07777921 0.01252804
v 0.03981744 0.07650528 0.01252804
v 0.04411067 0.07396967 0.01252804
v 0.04626231 0.07252833 0.01252804
v 0.04914792 0.07042961 0.01252804
v 0.08203588 0.10612420 0.00281407
v 0.07263501 0.10349059 0.00116094
v 0.07263501 0.09879093 0.00042526
v 0.00178162 0.08939568 -0.00080667
v 0.03499132 0.08425912 -0.00162890
v 0.03339267 0.08553305 -0.00159284
v 0.06793960 0.07060110 -0.00212945
v 0.06389773 0.06523996 -0.00216264
v 0.07733042 0.09879093 0.00071519
v 0.08203588 0.09409126 0.00046853
v 0.08673129 0.08939568 0.00036033
v 0.08100027 0.07402275 -0.00170679
v 0.07733042 0.07060110 -0.00202991
v 0.06793960 0.08330775 -0.00168228
v 0.07263501 0.07060110 -0.00213522
v 0.05543193 0.06523996 0.01252804
v 0.00178162 0.08234005 0.00308816
v 0.04832346 0.06523996 0.00512068
v 0.05392377 0.06659148 0.01252804
v 0.09880662 0.09409126 0.00790618
v 0.10414551 0.08000042 0.00473551
v 0.10369306 0.08470010 0.00450904
v 0.10332105 0.08750520 0.00381807
v 0.09853516 0.09651255 0.00305209
v 0.10332105 0.08750520 0.00295833
v 0.09366882 0.10104481 0.00356707
v 0.08459975 0.10590372 0.00302612
v 0.07733042 0.10349059 0.00153743
v 0.00178162 0.08423462 0.00137154
v 0.03269892 0.08240130 -0.00161015
v 0.03269892 0.08234822 -0.00161015
v 0.05920233 0.06523996 -0.00205733
v 0.05512024 0.06523996 -0.00180490
v 0.05473817 0.06523996 -0.00176017
v 0.07263501 0.06523996 -0.00220880
v 0.06793960 0.06523996 -0.00220015
v 0.06323414 0.06523996 -0.00215110
v 0.08203588 0.09879093 0.00116094
v 0.08673129 0.09409126 0.00093447
v 0.09142669 0.08939568 0.00085512
v 0.09142669 0.08470010 0.00035456
v 0.08413725 0.07246300 -0.00152504
v 0.08493154 0.06933124 -0.00165055
v 0.08235762 0.07078075 -0.00176451
v 0.07733042 0.06523996 -0.00212514
v 0.08203588 0.06523996 -0.00194337
v 0.07799401 0.06523996 -0.00210495
v 0.07329860 0.06523996 -0.00220015
v 0.10082756 0.06523996 0.00530820
v 0.09882673 0.09111875 0.00787878
v 0.05260664 0.06523996 -0.00057009
v 0.05204359 0.06523996 -0.00012147
v 0.05079684 0.06523996 0.00094889
v 0.05025391 0.06523996 0.00154176
v 0.10449742 0.07060110 0.00448740
v 0.10436670 0.07530076 0.00458550
v 0.10414551 0.08000042 0.00227457
v 0.10369306 0.08470010 0.00265972
v 0.10082756 0.08470010 0.00174950
v 0.10082756 0.08000042 0.00106574
v 0.09613215 0.08939568 0.00158361
v 0.09142669 0.09409126 0.00158505
v 0.09613215 0.09759457 0.00287610
v 0.09053185 0.10170627 0.00288331
v 0.08203588 0.10349059 0.00206685
v 0.08673129 0.09879093 0.00174084
v 0.09613215 0.08470010 0.00090562
v 0.09613215 0.08000042 0.00043391
v 0.10082756 0.07530076 0.00060990
v 0.08668101 0.06523996 -0.00167651
v 0.08588672 0.06590551 -0.00171258
v 0.10082756 0.07060110 0.00030119
v 0.08606770 0.06523996 -0.00172412
v 0.08281007 0.06523996 -0.00190155
v 0.10446725 0.06523996 0.00431719
v 0.10447731 0.06590551 0.00434315
v 0.10449742 0.07060110 0.00178123
v 0.10436670 0.07530076 0.00200337
v 0.09182887 0.09920332 0.00252412
v 0.10082756 0.06590551 0.00011367
v 0.10082756 0.06523996 0.00009492
v 0.10446725 0.06523996 0.00164419
v 0.10447731 0.06590551 0.00165284
f 1 2 7
f 1 7 3
f 1 3 4
f 1 4 5
f 1 5 6
f 1 6 8
f 1 8 2
f 2 8 9
f 2 9 10
f 2 10 11
f 2 11 12
f 2 12 13
f 2 13 7
f 3 7 19
f 3 19 41
f 3 41 75
f 3 75 100
f 3 100 88
f 3 88 50
f 3 50 33
f 3 33 14
f 3 14 15
f 3 15 4
f 4 15 16
f 4 16 38
f 4 38 17
f 4 17 18
f 4 18 5
f 5 18 8
f 5 8 6
f 7 13 20
f 7 20 21
f 7 21 19
f 8 22 23
f 8 23 9
f 8 18 22
f 9 23 24
f 9 24 25
f 9 25 26
f 9 26 27
f 9 27 28
f 9 28 10
f 10 28 11
f 11 28 12
f 12 28 29
f 12 29 30
f 12 30 31
f 12 31 13
f 13 31 32
f 13 32 20
f 14 33 49
f 14 49 87
f 14 87 90
f 14 90 59
f 14 59 71
f 14 71 70
f 14 70 69
f 14 69 68
f 14 68 67
f 14 67 66
f 14 66 65
f 14 65 58
f 14 58 57
f 14 57 56
f 14 56 55
f 14 55 54
f 14 54 53
f 14 53 34
f 14 34 35
f 14 35 15
f 15 35 16
f 16 35 36
f 16 36 37
f 16 37 72
f 16 72 38
f 17 38 39
f 17 39 40
f 17 40 22
f 17 22 18
f 19 21 42
f 19 42 41
f 20 32 21
f 21 32 43
f 21 43 42
f 22 40 44
f 22 44 45
f 22 45 23
f 23 45 46
f 23 46 24
f 24 46 25
f 25 46 26
f 26 29 27
f 26 46 29
f 27 29 28
f 29 46 30
f 30 46 47
f 30 47 48
f 30 48 31
f 31 48 32
f 32 48 43
f 33 50 51
f 33 51 52
f 33 52 49
f 34 53 35
f 35 53 54
f 35 54 55
f 35 55 56
f 35 56 57
f 35 57 58
f 35 58 36
f 36 59 60
f 36 60 61
f 36 61 62
f 36 62 63
f 36 63 98
f 36 98 64
f 36 64 37
f 36 58 65
f 36 65 66
f 36 66 67
f 36 67 68
f 36 68 69
f 36 69 70
f 36 70 71
f 36 71 59
f 37 64 98
f 37 98 72
f 38 72 73
f 38 73 39
f 39 44 40
f 39 73 74
f 39 74 44
f 41 42 43
f 41 43 75
f 43 76 77
f 43 77 75
f 43 48 78
f 43 78 79
f 43 79 76
f 44 74 45
f 45 74 80
f 45 80 81
f 45 81 82
f 45 82 83
f 45 83 84
f 45 84 47
f 45 47 85
f 45 85 46
f 46 85 47
f 47 84 86
f 47 86 48
f 48 86 78
f 49 52 51
f 49 51 89
f 49 89 125
f 49 125 124
f 49 124 123
f 49 123 122
f 49 122 105
f 49 105 104
f 49 104 103
f 49 103 108
f 49 108 79
f 49 79 107
f 49 107 106
f 49 106 119
f 49 119 116
f 49 116 118
f 49 118 117
f 49 117 145
f 49 145 144
f 49 144 141
f 49 141 152
f 49 152 153
f 49 153 146
f 49 146 120
f 49 120 87
f 50 88 51
f 51 88 89
f 59 90 60
f 60 90 87
f 60 87 61
f 61 91 92
f 61 92 93
f 61 93 94
f 61 94 62
f 61 87 91
f 62 95 63
f 62 94 96
f 62 96 95
f 63 95 97
f 63 97 98
f 72 99 73
f 72 98 99
f 73 99 80
f 73 80 74
f 75 77 101
f 75 101 102
f 75 102 103
f 75 103 104
f 75 104 105
f 75 105 100
f 76 101 77
f 76 79 101
f 78 86 106
f 78 106 107
f 78 107 79
f 79 108 101
f 80 99 109
f 80 109 81
f 81 109 110
f 81 110 82
f 82 110 111
f 82 111 112
f 82 112 83
f 83 112 113
f 83 113 114
f 83 114 115
f 83 115 84
f 84 116 86
f 84 115 117
f 84 117 118
f 84 118 116
f 86 116 119
f 86 119 106
f 87 120 121
f 87 121 91
f 88 100 105
f 88 105 122
f 88 122 123
f 88 123 124
f 88 124 125
f 88 125 89
f 91 121 126
f 91 126 127
f 91 127 92
f 92 127 149
f 92 149 128
f 92 128 129
f 92 129 93
f 93 129 96
f 93 96 94
f 95 96 130
f 95 130 131
f 95 131 132
f 95 132 111
f 95 111 133
f 95 133 134
f 95 134 135
f 95 135 97
f 96 129 130
f 97 135 98
f 98 135 136
f 98 136 99
f 99 136 109
f 101 108 102
f 102 108 103
f 109 136 137
f 109 137 110
f 110 137 133
f 110 133 111
f 111 132 138
f 111 138 112
f 112 138 139
f 112 139 113
f 113 139 140
f 113 140 114
f 114 141 142
f 114 142 115
f 114 140 143
f 114 143 141
f 115 142 144
f 115 144 145
f 115 145 117
f 120 146 121
f 121 146 147
f 121 147 126
f 126 147 154
f 126 154 148
f 126 148 149
f 126 149 127
f 128 149 140
f 128 140 131
f 128 131 129
f 129 131 130
f 131 140 139
f 131 139 138
f 131 138 132
f 133 150 134
f 133 137 150
f 134 150 135
f 135 150 136
f 136 150 137
f 140 149 143
f 141 144 142
f 141 143 151
f 141 151 152
f 143 149 148
f 143 148 151
f 146 153 154
f 146 154 147
f 148 154 152
f 148 152 151
f 152 154 153

