# https://github.com/mikedh/trimesh
v 0.04259103 -0.07022232 0.01252804
v 0.04433118 -0.06916857 0.01252804
v 0.04395461 -0.06919686 0.01483606
v 0.04259103 -0.07000308 0.01483606
v 0.04259103 -0.06375834 0.01252804
v 0.04552431 -0.06836233 0.01252804
v 0.04647565 -0.06771877 0.01252804
v 0.04590485 -0.06737931 0.01953520
v 0.04355822 -0.06894226 0.01953520
v 0.04259103 -0.06964948 0.01825559
v 0.04259103 -0.06131845 0.03099029
v 0.07646256 0.00202001 0.03099029
v 0.07694219 0.00202001 0.02423256
v 0.07736236 0.00202001 0.01953520
v 0.07811154 0.00202001 0.01252804
v 0.05041180 -0.06484747 0.01252804
v 0.05160890 -0.06340474 0.01787966
v 0.04546882 -0.06711764 0.02423256
v 0.04953182 -0.06474138 0.01948099
v 0.04872714 -0.06476967 0.02423256
v 0.04311822 -0.06866644 0.02423256
v 0.04259103 -0.06904834 0.02353852
v 0.04259103 -0.06816432 0.03099029
v 0.08155220 0.00202001 0.03099029
v 0.08308227 0.00202001 0.01252804
v 0.05196565 -0.06369470 0.01252804
v 0.05181898 -0.06357447 0.01483606
v 0.04830697 -0.06445849 0.02893172
v 0.05416562 -0.06155183 0.01483606
v 0.05648846 -0.05889976 0.01953520
v 0.05627838 -0.05869466 0.02240712
v 0.05338869 -0.06028591 0.02893172
v 0.05065756 -0.06263387 0.02893172
v 0.04341552 -0.06761269 0.03099029
v 0.04259103 -0.06817846 0.03088728
v 0.04259103 -0.06833405 0.02968177
v 0.04811670 -0.06431705 0.03099029
v 0.04501693 -0.06680645 0.02893172
v 0.08182175 0.00202001 0.02893172
v 0.08155617 0.00011052 0.03099029
v 0.08232913 0.00202001 0.02423256
v 0.08233309 0.00011052 0.02423256
v 0.08308227 0.00011052 0.01252804
v 0.05311914 -0.06271166 0.01252804
v 0.05431228 -0.06167912 0.01252804
v 0.05566001 -0.06048393 0.01252804
v 0.05680954 -0.05920386 0.01483606
v 0.05916013 -0.05682054 0.01483606
v 0.05883905 -0.05649522 0.01953520
v 0.05658360 -0.05697613 0.03099029
v 0.05573928 -0.05817132 0.02893172
v 0.05453426 -0.05894220 0.03099029
v 0.05321428 -0.06013032 0.03099029
v 0.06092407 -0.05394923 0.02207998
v 0.05787186 -0.05565363 0.03099029
v 0.05168025 -0.06145282 0.03099029
v 0.05046730 -0.06248536 0.03099029
v 0.04943668 -0.06329159 0.03099029
v 0.04463640 -0.06677109 0.03099029
v 0.04626953 -0.06563248 0.03099029
v 0.08182571 0.00011052 0.02893172
v 0.08143725 -0.00194748 0.03099029
v 0.08211508 -0.00458541 0.02423256
v 0.08249958 -0.00458541 0.01953520
v 0.08302281 -0.00227988 0.01252804
v 0.05694431 -0.05933116 0.01252804
v 0.05809781 -0.05817132 0.01252804
v 0.05929490 -0.05695491 0.01252804
v 0.06139577 -0.05447258 0.01483606
v 0.06109848 -0.05414018 0.01953520
v 0.05556487 -0.05800867 0.03099029
v 0.06552615 -0.04916844 0.01686031
v 0.06237485 -0.05100720 0.02893172
v 0.06022246 -0.05317129 0.03099029
v 0.06038101 -0.05335517 0.02893172
v 0.05919184 -0.05427455 0.03099029
v 0.08154824 -0.00458541 0.02893172
v 0.08127869 -0.00458541 0.03099029
v 0.08159184 -0.00928841 0.02423256
v 0.08209922 -0.00928841 0.01953520
v 0.08247183 -0.00928841 0.01483606
v 0.08274930 -0.00697580 0.01252804
v 0.06043254 -0.05575971 0.01252804
v 0.06151865 -0.05460695 0.01252804
v 0.06267214 -0.05324201 0.01252804
v 0.06514959 -0.05025755 0.01252804
v 0.06572831 -0.04939475 0.01372814
v 0.06407140 -0.05120523 0.01511077
v 0.06705622 -0.04659417 0.01953520
v 0.06675100 -0.04616276 0.02423256
v 0.06503067 -0.04851073 0.02423256
v 0.06222026 -0.05081626 0.03099029
v 0.06109848 -0.05213876 0.03099029
v 0.06472148 -0.04805103 0.02893172
v 0.08103689 -0.00664341 0.03099029
v 0.08099329 -0.00928841 0.02893172
v 0.08049384 -0.01066748 0.03099029
v 0.08075149 -0.01398434 0.02423256
v 0.08131041 -0.01398434 0.01953520
v 0.08181382 -0.01398434 0.01483606
v 0.08259471 -0.00928841 0.01252804
v 0.08199616 -0.01398434 0.01252804
v 0.06578777 -0.04947254 0.01252804
v 0.06703640 -0.04730845 0.01511077
v 0.06964068 -0.04356020 0.01483606
v 0.06940681 -0.04312172 0.01953520
v 0.06642596 -0.04570307 0.02893172
v 0.06353231 -0.04916137 0.03099029
v 0.06627930 -0.04549798 0.03099029
v 0.06532003 -0.04681340 0.03099029
v 0.06456293 -0.04784594 0.03099029
v 0.08072375 -0.00928841 0.03099029
v 0.08000628 -0.01338320 0.03099029
v 0.08012520 -0.01413285 0.02888472
v 0.07978034 -0.01667884 0.02728701
v 0.07997061 -0.01739313 0.02423256
v 0.08016880 -0.01885707 0.01929663
v 0.08069204 -0.01868027 0.01483606
v 0.08091402 -0.01868027 0.01252804
v 0.06972392 -0.04374407 0.01252804
v 0.07123813 -0.04139611 0.01252804
v 0.07112714 -0.04121223 0.01483606
v 0.07085760 -0.04076669 0.01953520
v 0.07056427 -0.04027871 0.02423256
v 0.06910159 -0.04262667 0.02423256
v 0.07037401 -0.03996046 0.02718037
v 0.06765081 -0.04334096 0.03099029
v 0.07801641 -0.02062512 0.03099029
v 0.07722759 -0.02338327 0.03099029
v 0.07972881 -0.02116260 0.01757061
v 0.08049384 -0.02016542 0.01252804
v 0.07242334 -0.03922495 0.01252804
v 0.07511086 -0.03409762 0.01252804
v 0.07207055 -0.03747105 0.02423256
v 0.07131742 -0.03779637 0.02882146
v 0.07126192 -0.03735082 0.03099029
v 0.07028283 -0.03901279 0.03099029
v 0.07000140 -0.03948662 0.03099029
v 0.07568166 -0.02785288 0.03099029
v 0.07986754 -0.02158693 0.01483606
v 0.07647049 -0.02807920 0.02423256
v 0.07699768 -0.02807920 0.01953520
v 0.07998250 -0.02192640 0.01252804
v 0.07584022 -0.03266197 0.01252804
v 0.07581248 -0.03223056 0.01483606
v 0.07414764 -0.03339040 0.02423256
v 0.07507123 -0.03061811 0.02720929
v 0.07270082 -0.03438758 0.03099029
v 0.07576491 -0.02836915 0.02883772
v 0.07526149 -0.03104244 0.02423256
v 0.07555086 -0.03167186 0.01953520
f 1 2 3
f 1 3 4
f 1 4 10
f 1 10 22
f 1 22 36
f 1 36 35
f 1 35 23
f 1 23 11
f 1 11 5
f 1 5 15
f 1 15 25
f 1 25 43
f 1 43 65
f 1 65 82
f 1 82 101
f 1 101 102
f 1 102 119
f 1 119 131
f 1 131 143
f 1 143 144
f 1 144 133
f 1 133 132
f 1 132 121
f 1 121 120
f 1 120 103
f 1 103 86
f 1 86 85
f 1 85 84
f 1 84 83
f 1 83 68
f 1 68 67
f 1 67 66
f 1 66 46
f 1 46 45
f 1 45 44
f 1 44 26
f 1 26 16
f 1 16 7
f 1 7 6
f 1 6 2
f 2 6 3
f 3 6 7
f 3 7 8
f 3 8 9
f 3 9 10
f 3 10 4
f 5 11 12
f 5 12 13
f 5 13 14
f 5 14 15
f 7 16 17
f 7 17 8
f 8 18 9
f 8 17 19
f 8 19 20
f 8 20 18
f 9 21 10
f 9 18 21
f 10 21 22
f 11 23 34
f 11 34 59
f 11 59 60
f 11 60 37
f 11 37 58
f 11 58 57
f 11 57 56
f 11 56 53
f 11 53 52
f 11 52 71
f 11 71 50
f 11 50 55
f 11 55 76
f 11 76 74
f 11 74 93
f 11 93 92
f 11 92 108
f 11 108 111
f 11 111 110
f 11 110 109
f 11 109 127
f 11 127 138
f 11 138 137
f 11 137 136
f 11 136 148
f 11 148 139
f 11 139 129
f 11 129 128
f 11 128 113
f 11 113 97
f 11 97 112
f 11 112 95
f 11 95 78
f 11 78 62
f 11 62 40
f 11 40 24
f 11 24 12
f 12 24 39
f 12 39 41
f 12 41 25
f 12 25 15
f 12 15 14
f 12 14 13
f 16 26 27
f 16 27 17
f 17 28 20
f 17 20 19
f 17 27 29
f 17 29 30
f 17 30 31
f 17 31 32
f 17 32 33
f 17 33 28
f 18 34 35
f 18 35 36
f 18 36 21
f 18 20 28
f 18 28 37
f 18 37 38
f 18 38 34
f 21 36 22
f 23 35 34
f 24 40 61
f 24 61 39
f 25 41 42
f 25 42 43
f 26 44 27
f 27 44 29
f 28 33 37
f 29 44 45
f 29 45 46
f 29 46 47
f 29 47 30
f 30 47 48
f 30 48 49
f 30 49 31
f 31 50 51
f 31 51 52
f 31 52 53
f 31 53 32
f 31 49 54
f 31 54 55
f 31 55 50
f 32 53 56
f 32 56 33
f 33 56 57
f 33 57 58
f 33 58 37
f 34 38 59
f 37 60 38
f 38 60 59
f 39 61 42
f 39 42 41
f 40 62 61
f 42 61 63
f 42 63 64
f 42 64 65
f 42 65 43
f 46 66 47
f 47 66 67
f 47 67 48
f 48 67 68
f 48 68 69
f 48 69 70
f 48 70 49
f 49 70 54
f 50 71 51
f 51 71 52
f 54 70 72
f 54 72 73
f 54 73 74
f 54 74 75
f 54 75 76
f 54 76 55
f 61 62 77
f 61 77 63
f 62 78 77
f 63 77 79
f 63 79 80
f 63 80 64
f 64 80 81
f 64 81 82
f 64 82 65
f 68 83 69
f 69 83 84
f 69 84 85
f 69 85 86
f 69 86 87
f 69 87 88
f 69 88 70
f 70 88 72
f 72 88 87
f 72 87 89
f 72 89 90
f 72 90 91
f 72 91 73
f 73 92 93
f 73 93 74
f 73 91 94
f 73 94 92
f 74 76 75
f 77 78 95
f 77 95 96
f 77 96 79
f 79 96 97
f 79 97 98
f 79 98 99
f 79 99 80
f 80 99 100
f 80 100 81
f 81 101 82
f 81 100 102
f 81 102 101
f 86 103 87
f 87 103 104
f 87 104 89
f 89 104 105
f 89 105 106
f 89 106 90
f 90 107 94
f 90 94 91
f 90 106 107
f 92 94 108
f 94 107 109
f 94 109 110
f 94 110 111
f 94 111 108
f 95 112 96
f 96 112 97
f 97 113 98
f 98 114 115
f 98 115 99
f 98 113 114
f 99 115 116
f 99 116 117
f 99 117 118
f 99 118 100
f 100 118 119
f 100 119 102
f 103 120 105
f 103 105 104
f 105 120 121
f 105 121 122
f 105 122 106
f 106 122 123
f 106 123 124
f 106 124 125
f 106 125 107
f 107 125 109
f 109 125 126
f 109 126 127
f 113 115 114
f 113 128 115
f 115 128 129
f 115 129 130
f 115 130 116
f 116 130 117
f 117 130 118
f 118 130 119
f 119 130 131
f 121 132 122
f 122 132 123
f 123 132 133
f 123 133 134
f 123 134 124
f 124 134 126
f 124 126 125
f 126 134 135
f 126 135 136
f 126 136 137
f 126 137 138
f 126 138 127
f 129 139 130
f 130 140 131
f 130 139 141
f 130 141 142
f 130 142 140
f 131 140 143
f 133 144 145
f 133 145 134
f 134 145 146
f 134 146 135
f 135 146 136
f 136 146 147
f 136 147 148
f 139 149 141
f 139 148 147
f 139 147 149
f 140 142 143
f 141 149 147
f 141 147 150
f 141 150 151
f 141 151 142
f 142 151 145
f 142 145 143
f 143 145 144
f 145 151 146
f 146 151 150
f 146 150 147

