# https://github.com/mikedh/trimesh
v -0.06473077 -0.04283313 0.01252804
v -0.06473077 -0.04324538 0.01032101
v -0.06473077 -0.05211753 0.01252804
v 0.00178162 -0.07691079 0.01252804
v 0.00178162 -0.07753207 0.00449296
v -0.06473077 -0.04328022 0.01013488
v -0.06473077 -0.09855698 0.00616662
v -0.06225023 -0.05498589 0.01252804
v 0.00178162 -0.08252556 0.01252804
v 0.00178162 -0.07830432 0.00073899
v -0.06473077 -0.04418601 0.00543614
v -0.04098007 -0.07185923 0.01252804
v -0.04274444 -0.07080247 0.01252804
v -0.04499711 -0.06944378 0.01252804
v -0.04616902 -0.06871798 0.01252804
v -0.04723025 -0.06805605 0.01252804
v -0.04939828 -0.06644188 0.01252804
v -0.05269265 -0.06398578 0.01252804
v -0.05504299 -0.06199419 0.01252804
v -0.05766025 -0.05964260 0.01252804
v -0.06001058 -0.05733747 0.01252804
v -0.06473077 -0.10182598 0.00470882
v -0.00028875 -0.08255459 0.01252804
v -0.00273023 -0.08257782 0.01252804
v -0.00524984 -0.08246749 0.01252804
v -0.00724208 -0.08236879 0.01252804
v -0.00983331 -0.08214815 0.01252804
v -0.02134406 -0.07980236 0.01252804
v -0.02364882 -0.07921012 0.01252804
v -0.02622051 -0.07845528 0.01252804
v -0.02879871 -0.07757852 0.01252804
v -0.03543303 -0.07468694 0.01252804
v -0.03712578 -0.07390308 0.01252804
v -0.03862974 -0.07317728 0.01252804
v -0.03982769 -0.07251535 0.01252804
v 0.00178162 -0.10125695 0.00329325
v -0.05422916 -0.10214533 0.00440694
v -0.04952850 -0.10213952 0.00429744
v 0.00178162 -0.08053397 -0.00256139
v -0.06473077 -0.04586406 0.00158050
v -0.06473077 -0.04485375 0.00326667
v -0.06473077 -0.10182598 0.00222962
v -0.06362397 -0.10190146 0.00460871
v -0.05892331 -0.10206984 0.00449296
v 0.00178162 -0.10164598 0.00073899
v -0.05422916 -0.10214533 0.00174787
v -0.04952850 -0.10213952 0.00166028
v 0.00178162 -0.08415135 -0.00338258
v -0.06473077 -0.05020142 -0.00183876
v -0.06473077 -0.04910402 -0.00129912
v -0.06473077 -0.04689179 0.00058882
v -0.06473077 -0.04643308 0.00100489
v -0.06473077 -0.09855698 0.00094389
v -0.06362397 -0.09855698 0.00080156
v -0.06362397 -0.10190146 0.00214829
v -0.05892331 -0.10206984 0.00189959
v 0.00178162 -0.10129759 -0.00184187
v -0.01542592 -0.10097244 -0.00164791
v -0.01194274 -0.10107115 -0.00170424
v -0.00724208 -0.10116986 -0.00176367
v -0.00254793 -0.10124534 -0.00180904
v 0.00178162 -0.08445908 -0.00345140
v -0.06473077 -0.05089239 -0.00191696
v -0.06473077 -0.09745377 0.00074680
v -0.06128015 -0.08211911 -0.00161038
v -0.05258849 -0.08716486 -0.00164481
v -0.05892331 -0.09855698 0.00043241
v -0.01855752 -0.10078083 -0.00154000
v 0.00178162 -0.09855698 -0.00230330
v -0.02603821 -0.09730280 -0.00173709
v -0.02134406 -0.09802280 -0.00181686
v -0.01685174 -0.09895182 -0.00184971
v -0.01194274 -0.09855698 -0.00203582
v -0.00724208 -0.09855698 -0.00214690
v -0.00254793 -0.09855698 -0.00223605
v 0.00178162 -0.08916226 -0.00321053
v -0.00254793 -0.08916226 -0.00314796
v -0.00254793 -0.08445908 -0.00338101
v -0.06473077 -0.05986905 -0.00224387
v -0.06473077 -0.05517169 -0.00220634
v -0.06473077 -0.07882689 -0.00167295
v -0.05892331 -0.08289136 -0.00167295
v -0.05418359 -0.08461005 -0.00177305
v -0.04952850 -0.08445908 -0.00199359
v -0.04952850 -0.08791969 -0.00171676
v -0.04316763 -0.09178093 -0.00164324
v -0.03289389 -0.09614153 -0.00157284
v -0.02976879 -0.09668152 -0.00166668
v 0.00178162 -0.09818537 -0.00234240
v -0.02603821 -0.09385962 -0.00212186
v -0.02134406 -0.09385962 -0.00227829
v -0.01664340 -0.09385962 -0.00241124
v -0.01194274 -0.09385962 -0.00253011
v -0.00724208 -0.09385962 -0.00263491
v -0.00254793 -0.09385962 -0.00271781
v 0.00178162 -0.09385962 -0.00278192
v -0.00724208 -0.08916226 -0.00306349
v -0.01194274 -0.08445908 -0.00322302
v -0.03073887 -0.07976172 -0.00289300
v -0.06362397 -0.06097226 -0.00226734
v -0.06473077 -0.06097226 -0.00223135
v -0.06473077 -0.07825787 -0.00170735
v -0.05892331 -0.07976172 -0.00187629
v -0.05422916 -0.07976172 -0.00208587
v -0.04482784 -0.08445908 -0.00218600
v -0.03543303 -0.08916226 -0.00221101
v -0.04013369 -0.08916226 -0.00201395
v -0.04476924 -0.08936548 -0.00179652
v -0.04013369 -0.09237318 -0.00171048
v -0.03543303 -0.09329640 -0.00181372
v -0.03109696 -0.09428929 -0.00188254
v -0.03073887 -0.08916226 -0.00239715
v -0.02603821 -0.08916226 -0.00256453
v -0.02134406 -0.08916226 -0.00271468
v -0.01664340 -0.08916226 -0.00284763
v -0.01194274 -0.08916226 -0.00296339
v -0.01664340 -0.08445908 -0.00313073
v -0.02134406 -0.08445908 -0.00300873
v -0.03543303 -0.07976172 -0.00276630
v -0.04482784 -0.07506436 -0.00259735
v -0.04013369 -0.07506436 -0.00271625
v -0.04952850 -0.07037280 -0.00253635
v -0.05892331 -0.06566963 -0.00235335
v -0.06473077 -0.06457223 -0.00218130
v -0.06473077 -0.07510500 -0.00188410
v -0.04952850 -0.07976172 -0.00227358
v -0.04013369 -0.08445908 -0.00236744
v -0.03543303 -0.08445908 -0.00254576
v -0.03073887 -0.08445908 -0.00271468
v -0.02603821 -0.08445908 -0.00286796
v -0.04013369 -0.07976172 -0.00260987
v -0.04952850 -0.07506436 -0.00244877
v -0.05422916 -0.07037280 -0.00241124
v -0.06362397 -0.06566963 -0.00220163
v -0.06473077 -0.06566963 -0.00216567
v -0.06473077 -0.07396115 -0.00193259
v -0.04482784 -0.07976172 -0.00244407
v -0.05892331 -0.07506436 -0.00210778
v -0.05422916 -0.07506436 -0.00228296
v -0.06473077 -0.07037280 -0.00206400
v -0.05892331 -0.07037280 -0.00225795
f 1 2 6
f 1 6 11
f 1 11 41
f 1 41 40
f 1 40 52
f 1 52 51
f 1 51 50
f 1 50 49
f 1 49 63
f 1 63 80
f 1 80 79
f 1 79 101
f 1 101 124
f 1 124 135
f 1 135 140
f 1 140 136
f 1 136 125
f 1 125 102
f 1 102 81
f 1 81 64
f 1 64 53
f 1 53 42
f 1 42 22
f 1 22 7
f 1 7 3
f 1 3 8
f 1 8 21
f 1 21 20
f 1 20 19
f 1 19 18
f 1 18 17
f 1 17 16
f 1 16 15
f 1 15 14
f 1 14 13
f 1 13 12
f 1 12 35
f 1 35 34
f 1 34 33
f 1 33 32
f 1 32 31
f 1 31 30
f 1 30 29
f 1 29 28
f 1 28 27
f 1 27 26
f 1 26 25
f 1 25 24
f 1 24 23
f 1 23 9
f 1 9 4
f 1 4 5
f 1 5 2
f 2 5 6
f 3 7 8
f 4 9 36
f 4 36 45
f 4 45 57
f 4 57 69
f 4 69 89
f 4 89 96
f 4 96 76
f 4 76 62
f 4 62 48
f 4 48 39
f 4 39 10
f 4 10 5
f 5 10 11
f 5 11 6
f 7 12 13
f 7 13 14
f 7 14 15
f 7 15 16
f 7 16 17
f 7 17 18
f 7 18 19
f 7 19 20
f 7 20 21
f 7 21 8
f 7 22 9
f 7 9 23
f 7 23 24
f 7 24 25
f 7 25 26
f 7 26 27
f 7 27 28
f 7 28 29
f 7 29 30
f 7 30 31
f 7 31 32
f 7 32 33
f 7 33 34
f 7 34 35
f 7 35 12
f 9 22 37
f 9 37 38
f 9 38 36
f 10 39 40
f 10 40 41
f 10 41 11
f 22 42 55
f 22 55 43
f 22 43 44
f 22 44 37
f 36 38 45
f 37 44 56
f 37 56 46
f 37 46 47
f 37 47 38
f 38 47 45
f 39 48 49
f 39 49 50
f 39 50 51
f 39 51 52
f 39 52 40
f 42 53 54
f 42 54 55
f 43 55 56
f 43 56 44
f 45 47 57
f 46 56 58
f 46 58 59
f 46 59 60
f 46 60 61
f 46 61 57
f 46 57 47
f 48 62 49
f 49 62 63
f 53 64 54
f 54 65 66
f 54 66 67
f 54 67 55
f 54 64 65
f 55 67 68
f 55 68 56
f 56 68 58
f 57 61 69
f 58 68 70
f 58 70 71
f 58 71 72
f 58 72 73
f 58 73 74
f 58 74 59
f 59 74 75
f 59 75 60
f 60 75 69
f 60 69 61
f 62 76 77
f 62 77 78
f 62 78 79
f 62 79 80
f 62 80 63
f 64 81 65
f 65 81 82
f 65 82 66
f 66 83 84
f 66 84 85
f 66 85 86
f 66 86 67
f 66 82 83
f 67 86 87
f 67 87 88
f 67 88 68
f 68 88 70
f 69 75 89
f 70 88 90
f 70 90 71
f 71 90 91
f 71 91 72
f 72 91 73
f 73 91 92
f 73 92 93
f 73 93 74
f 74 93 94
f 74 94 75
f 75 95 89
f 75 94 95
f 76 96 77
f 77 96 95
f 77 95 94
f 77 94 97
f 77 97 98
f 77 98 78
f 78 98 99
f 78 99 100
f 78 100 79
f 79 100 101
f 81 102 103
f 81 103 82
f 82 103 84
f 82 84 83
f 84 103 104
f 84 104 105
f 84 105 106
f 84 106 107
f 84 107 85
f 85 107 108
f 85 108 86
f 86 108 107
f 86 107 106
f 86 106 109
f 86 109 88
f 86 88 87
f 88 109 110
f 88 110 111
f 88 111 90
f 89 95 96
f 90 111 110
f 90 110 112
f 90 112 113
f 90 113 91
f 91 114 115
f 91 115 92
f 91 113 114
f 92 115 93
f 93 116 94
f 93 115 116
f 94 116 97
f 97 116 117
f 97 117 98
f 98 117 99
f 99 118 119
f 99 119 120
f 99 120 121
f 99 121 100
f 99 117 118
f 100 122 123
f 100 123 124
f 100 124 101
f 100 121 122
f 102 125 104
f 102 104 103
f 104 126 105
f 104 125 126
f 105 126 127
f 105 127 112
f 105 112 106
f 106 112 110
f 106 110 109
f 112 127 128
f 112 128 129
f 112 129 113
f 113 130 114
f 113 129 130
f 114 130 118
f 114 118 115
f 115 118 117
f 115 117 116
f 118 130 119
f 119 130 129
f 119 129 131
f 119 131 132
f 119 132 120
f 120 132 133
f 120 133 123
f 120 123 122
f 120 122 121
f 123 133 134
f 123 134 124
f 124 134 135
f 125 136 126
f 126 137 128
f 126 128 127
f 126 136 138
f 126 138 139
f 126 139 137
f 128 137 129
f 129 137 131
f 131 137 139
f 131 139 132
f 132 139 140
f 132 140 141
f 132 141 133
f 133 141 135
f 133 135 134
f 135 141 140
f 136 140 139
f 136 139 138

