# https://github.com/mikedh/trimesh
v 0.05126693 0.04725094 0.09048948
v 0.05126693 0.04306150 0.09048948
v 0.05126693 0.05015104 0.09047260
v 0.05125685 0.05015860 0.09048948
v 0.05126693 0.04458528 0.08224362
v -0.00020058 0.06732851 0.09048948
v -0.00020058 0.06809229 0.08224362
v -0.00020058 0.06881448 0.07754135
v -0.00020058 0.07331397 0.04935022
v 0.05126693 0.06173629 0.03896135
v 0.05003251 0.05131183 0.09048948
v 0.05126693 0.04547762 0.07754135
v -0.00020058 0.07419119 0.04464795
v -0.00020058 0.07188094 0.09048948
v 0.05126693 0.06255678 0.03517591
v 0.04563901 0.05531978 0.09048948
v 0.04825899 0.05297173 0.09048948
v 0.05126693 0.04640776 0.07284471
v -0.00020058 0.07491715 0.04085688
v 0.00235390 0.07181288 0.09048948
v -0.00020058 0.07531795 0.07119104
v 0.05126693 0.06281768 0.03380347
v 0.04936744 0.06436036 0.03302726
v 0.04328606 0.05704396 0.09048948
v 0.05126693 0.04702786 0.07006609
v -0.00020058 0.07696272 0.03302726
v 0.05126693 0.05419302 0.03995129
v 0.05126693 0.05184118 0.04918147
v 0.00704971 0.07149527 0.09048948
v 0.00077688 0.07529148 0.07106729
v 0.00704971 0.08145087 0.03302726
v -0.00020058 0.08168530 0.03302726
v 0.05126693 0.06296136 0.03302726
v 0.04462124 0.06772931 0.03302726
v 0.03797052 0.06132793 0.08575345
v 0.03488701 0.06214843 0.09048948
v 0.04142184 0.06992234 0.03302726
v 0.05126693 0.05607222 0.03302726
v 0.05126693 0.05606088 0.03306663
v 0.00820855 0.07137049 0.09048948
v 0.01186141 0.08099714 0.03302726
v 0.00927166 0.08126181 0.03302726
v 0.04058043 0.07043278 0.03302726
v 0.03925532 0.07121547 0.03302726
v 0.02823629 0.06581230 0.08943202
v 0.02931451 0.06504096 0.09048948
v 0.01164980 0.07094323 0.09048948
v 0.01582665 0.08027495 0.03302726
v 0.02990401 0.07580193 0.03302726
v 0.02691622 0.06610344 0.09048948
v 0.02801964 0.06568374 0.09048948
v 0.02922886 0.07563934 0.03524902
v 0.01294971 0.07067856 0.09048948
v 0.01820982 0.07958679 0.03302726
v 0.01426978 0.07054622 0.08961202
v 0.02807002 0.07645606 0.03302726
v 0.02584808 0.07684551 0.03524902
v 0.02593373 0.06644374 0.09048948
v 0.01394732 0.07040254 0.09048948
v 0.02584808 0.07720093 0.03302726
v 0.02115226 0.07659596 0.04464795
f 1 2 5
f 1 5 12
f 1 12 18
f 1 18 25
f 1 25 28
f 1 28 27
f 1 27 39
f 1 39 38
f 1 38 33
f 1 33 22
f 1 22 15
f 1 15 10
f 1 10 3
f 1 3 4
f 1 4 11
f 1 11 17
f 1 17 16
f 1 16 24
f 1 24 36
f 1 36 46
f 1 46 51
f 1 51 50
f 1 50 58
f 1 58 59
f 1 59 53
f 1 53 47
f 1 47 40
f 1 40 29
f 1 29 20
f 1 20 14
f 1 14 6
f 1 6 2
f 2 6 7
f 2 7 8
f 2 8 9
f 2 9 5
f 3 10 4
f 4 10 11
f 5 9 13
f 5 13 12
f 6 14 21
f 6 21 32
f 6 32 26
f 6 26 19
f 6 19 13
f 6 13 9
f 6 9 8
f 6 8 7
f 10 15 16
f 10 16 17
f 10 17 11
f 12 13 19
f 12 19 18
f 14 20 21
f 15 22 23
f 15 23 24
f 15 24 16
f 18 19 25
f 19 26 27
f 19 27 28
f 19 28 25
f 20 29 30
f 20 30 21
f 21 30 31
f 21 31 32
f 22 33 23
f 23 33 38
f 23 38 26
f 23 26 32
f 23 32 31
f 23 31 42
f 23 42 41
f 23 41 48
f 23 48 54
f 23 54 60
f 23 60 56
f 23 56 49
f 23 49 44
f 23 44 43
f 23 43 37
f 23 37 34
f 23 34 24
f 24 35 36
f 24 34 37
f 24 37 35
f 26 38 39
f 26 39 27
f 29 40 41
f 29 41 42
f 29 42 31
f 29 31 30
f 35 37 43
f 35 43 44
f 35 44 36
f 36 45 46
f 36 44 45
f 40 47 41
f 41 47 48
f 44 49 45
f 45 50 51
f 45 51 46
f 45 49 52
f 45 52 50
f 47 53 48
f 48 53 55
f 48 55 54
f 49 56 57
f 49 57 52
f 50 52 57
f 50 57 58
f 53 59 55
f 54 57 60
f 54 55 61
f 54 61 57
f 55 59 58
f 55 58 57
f 55 57 61
f 56 60 57

