# https://github.com/mikedh/trimesh
v 0.35442470 -0.70002154 0.66575850
v 0.35442470 -0.68380410 0.66583364
v 0.35442470 -0.71569921 0.66614677
v -0.19600087 -0.69799741 0.66727406
v -0.19600087 -0.68231979 0.66698597
v -0.19600087 -0.66674024 0.66696094
v 0.33715310 -0.66674024 0.66625952
v 0.33729469 -0.66674024 0.66625952
v 0.35442470 -0.66815097 0.66625952
v 0.35442470 -0.72937730 0.66674799
v -0.18035734 -0.72937730 0.66828860
v -0.18035734 -0.71368738 0.66775002
v -0.19600087 -0.71368738 0.66780011
v -0.21171519 -0.69799741 0.66737426
v -0.21171519 -0.68231979 0.66706111
v -0.21171519 -0.66674024 0.66703608
v 0.35300901 -0.66674024 0.66629708
v 0.35442470 -0.66674024 0.66634719
v 0.35442470 -0.73126647 0.66684819
v -0.36871669 -0.77639806 0.67105669
v -0.18035734 -0.74504272 0.66901508
v -0.22735869 -0.68231979 0.66728659
v -0.22735869 -0.66674024 0.66727406
v 0.35442470 -0.66674024 0.79106169
v 0.35442470 -0.74685827 0.66805062
v 0.32150960 -0.74504272 0.66787528
v -0.36871669 -0.78530412 0.67381227
v -0.36871669 -0.69799741 0.67023004
v 0.35442470 -0.76236420 0.66992942
v 0.35442470 -0.77641031 0.67219651
v 0.35442470 -0.78513238 0.67453874
v -0.36871669 -0.68231979 0.67019246
v -0.36871669 -0.66674024 0.67025507
v 0.35442470 -0.77641031 0.79242694
v 0.35286742 -0.66674024 0.79107422
v -0.36871669 -0.78540228 0.67386236
v 0.32150960 -0.78558628 0.67471409
v 0.35442470 -0.78823600 0.68364464
v 0.33715310 -0.78855499 0.68364464
v -0.36871669 -0.66674024 0.79182575
v 0.35442470 -0.78808885 0.78944593
v 0.32150960 -0.77641031 0.79260233
v 0.30579528 -0.77641031 0.79267750
v -0.18035734 -0.66674024 0.79361690
v -0.36871669 -0.78854275 0.68353191
v 0.32150960 -0.78873898 0.68364464
v 0.30579528 -0.78873898 0.68364464
v 0.35442470 -0.79038284 0.69933886
v -0.36871669 -0.77639806 0.79206373
v -0.19614244 -0.66674024 0.79350415
v 0.35442470 -0.79131513 0.77887458
v 0.32150960 -0.78823600 0.78952110
v 0.35286742 -0.78810109 0.78943340
v 0.32150960 -0.79189169 0.77773478
v 0.29015173 -0.77641031 0.79272756
v 0.30579528 -0.78828508 0.78955868
v -0.18049891 -0.66674024 0.79361690
v -0.18035734 -0.68231979 0.79362938
v 0.25872314 -0.77641031 0.79280273
v -0.36871669 -0.78856724 0.68364464
v 0.32150960 -0.79046866 0.69933886
v 0.30579528 -0.79050550 0.69933886
v 0.27443741 -0.79050550 0.69933886
v -0.36871669 -0.79048091 0.69922613
v 0.35442470 -0.79164637 0.77773478
v 0.35286742 -0.79165862 0.77773478
v 0.30579528 -0.79196527 0.77773478
v 0.27443741 -0.79205119 0.77773478
v -0.36871669 -0.78769628 0.78893243
v -0.36850437 -0.78769628 0.78894491
v -0.33714651 -0.77639806 0.79236435
v -0.19600087 -0.77639806 0.79360437
v 0.29015173 -0.78832192 0.78958374
v -0.18035734 -0.77639806 0.79369202
v 0.25872314 -0.79206344 0.77773478
v -0.08628384 -0.79196527 0.77774729
v -0.16471382 -0.79186720 0.77774729
v -0.19600087 -0.79181811 0.77774729
v -0.21171519 -0.79176903 0.77774729
v -0.33714651 -0.79136422 0.77774729
v -0.36871669 -0.79121697 0.77762206
v 0.00778967 -0.79205119 0.77773478
v -0.00587187 -0.79203894 0.77773478
v 0.25872314 -0.78834641 0.78960879
v -0.36871669 -0.78772077 0.78885726
v -0.35286083 -0.78776985 0.78902008
v -0.33714651 -0.78783118 0.78913283
v -0.36871669 -0.79121697 0.77774729
v -0.32150301 -0.78788027 0.78920795
v -0.19600087 -0.78828508 0.78964633
v -0.18035734 -0.78830967 0.78967138
v 0.03921829 -0.78838325 0.78964633
v -0.00594266 -0.79203894 0.77774729
v 0.00778967 -0.78838325 0.78962127
v -0.00587187 -0.78838325 0.78960879
f 1 2 9
f 1 9 18
f 1 18 24
f 1 24 34
f 1 34 41
f 1 41 51
f 1 51 65
f 1 65 48
f 1 48 38
f 1 38 31
f 1 31 30
f 1 30 29
f 1 29 25
f 1 25 19
f 1 19 10
f 1 10 3
f 1 3 4
f 1 4 5
f 1 5 6
f 1 6 2
f 2 7 8
f 2 8 9
f 2 6 7
f 3 10 11
f 3 11 12
f 3 12 4
f 4 12 13
f 4 13 14
f 4 14 15
f 4 15 5
f 5 15 16
f 5 16 6
f 6 16 23
f 6 23 33
f 6 33 40
f 6 40 50
f 6 50 57
f 6 57 44
f 6 44 35
f 6 35 24
f 6 24 18
f 6 18 17
f 6 17 8
f 6 8 7
f 8 17 9
f 9 17 18
f 10 19 20
f 10 20 21
f 10 21 11
f 11 21 20
f 11 20 13
f 11 13 12
f 13 20 14
f 14 20 15
f 15 20 22
f 15 22 16
f 16 22 23
f 19 25 26
f 19 26 20
f 20 27 36
f 20 36 45
f 20 45 60
f 20 60 64
f 20 64 81
f 20 81 88
f 20 88 85
f 20 85 69
f 20 69 49
f 20 49 40
f 20 40 33
f 20 33 32
f 20 32 28
f 20 28 22
f 20 26 25
f 20 25 29
f 20 29 30
f 20 30 31
f 20 31 27
f 22 28 32
f 22 32 23
f 23 32 33
f 24 35 34
f 27 31 37
f 27 37 36
f 31 38 39
f 31 39 37
f 34 35 42
f 34 42 41
f 35 43 42
f 35 44 43
f 36 37 46
f 36 46 47
f 36 47 45
f 37 39 46
f 38 48 39
f 39 48 46
f 40 49 50
f 41 42 43
f 41 43 52
f 41 52 53
f 41 53 54
f 41 54 51
f 43 55 56
f 43 56 52
f 43 44 55
f 44 57 58
f 44 58 59
f 44 59 55
f 45 47 60
f 46 48 61
f 46 61 62
f 46 62 63
f 46 63 47
f 47 63 64
f 47 64 60
f 48 65 66
f 48 66 54
f 48 54 67
f 48 67 68
f 48 68 61
f 49 69 70
f 49 70 71
f 49 71 50
f 50 72 57
f 50 71 72
f 51 54 66
f 51 66 65
f 52 54 53
f 52 56 67
f 52 67 54
f 55 59 56
f 56 59 73
f 56 73 67
f 57 72 58
f 58 72 74
f 58 74 59
f 59 74 73
f 61 68 62
f 62 68 75
f 62 75 63
f 63 75 64
f 64 76 77
f 64 77 78
f 64 78 79
f 64 79 80
f 64 80 81
f 64 75 82
f 64 82 83
f 64 83 76
f 67 73 68
f 68 73 84
f 68 84 75
f 69 85 70
f 70 86 87
f 70 87 72
f 70 72 71
f 70 85 88
f 70 88 86
f 72 87 89
f 72 89 74
f 73 74 84
f 74 89 90
f 74 90 91
f 74 91 92
f 74 92 84
f 75 84 92
f 75 92 82
f 76 93 91
f 76 91 77
f 76 83 93
f 77 91 78
f 78 91 90
f 78 90 79
f 79 90 80
f 80 89 87
f 80 87 88
f 80 88 81
f 80 90 89
f 82 92 94
f 82 94 95
f 82 95 91
f 82 91 93
f 82 93 83
f 86 88 87
f 91 95 94
f 91 94 92

