# https://github.com/mikedh/trimesh
v 0.48151436 -0.00520573 0.74637792
v 0.48141947 -0.00520573 0.72806850
v 0.48132467 -0.00520573 0.76206452
v 0.48132467 -0.03926673 0.76206452
v 0.48132467 -0.54111600 0.74637792
v 0.48132467 -0.65087535 0.73069135
v 0.48113498 -0.65087535 0.71501737
v 0.48122987 -0.00520573 0.71501737
v 0.47923814 -0.00520573 0.77773850
v 0.48104018 -0.58819272 0.76206452
v 0.47904844 -0.66674024 0.77773850
v 0.48122987 -0.66674024 0.74649142
v 0.48122987 -0.66674024 0.73069135
v 0.48104018 -0.66674024 0.71501737
v 0.48066079 -0.66674024 0.69933077
v 0.48075559 -0.63520465 0.69933077
v 0.48075559 -0.00520573 0.69933077
v 0.47383210 -0.00520573 0.78804071
v 0.47392690 -0.11768471 0.78805333
v 0.47392690 -0.13335537 0.78806595
v 0.47392690 -0.22744402 0.78807853
v 0.47392690 -0.47836867 0.78809115
v 0.47392690 -0.66674024 0.78809115
v 0.48094528 -0.66674024 0.76217802
v 0.47715160 -0.66674024 0.68364417
v 0.47715160 -0.66661075 0.68364417
v 0.47582384 -0.00520573 0.68364417
v 0.47383210 -0.02353132 0.78805333
v 0.46453749 -0.00520573 0.79012131
v 0.46264065 -0.05493736 0.79056268
v 0.46264065 -0.16469667 0.79058788
v 0.46264065 -0.22744402 0.79060050
v 0.46264065 -0.63520465 0.79061312
v 0.46264065 -0.66674024 0.79061312
v 0.47221976 -0.66674024 0.67465339
v 0.47506507 -0.00520573 0.68229493
v 0.46264065 -0.00520573 0.79053744
v 0.46264065 -0.02353132 0.79055006
v 0.40260522 -0.00520573 0.79087793
v 0.41559871 -0.13335537 0.79082750
v 0.39994970 -0.13335537 0.79090313
v 0.38420577 -0.18043208 0.79097881
v -0.18029779 -0.55678670 0.79362685
v -0.18029779 -0.66674024 0.79362685
v 0.47089199 -0.00520573 0.67559912
v 0.46264065 -0.66674024 0.67292586
v 0.41825433 -0.00520573 0.79078963
v 0.39994970 -0.00520573 0.79089051
v 0.38420577 -0.02353132 0.79096619
v -0.18029779 -0.33720333 0.79357642
v -0.46264439 -0.00520573 0.79399254
v -0.46264439 -0.08627868 0.79395468
v -0.44699538 -0.60386338 0.79322335
v -0.44699538 -0.61953403 0.79319810
v -0.44699538 -0.63520465 0.79316029
v -0.44709027 -0.66674024 0.79305941
v 0.46264065 -0.00520573 0.67515777
v 0.36865157 -0.66674024 0.66687315
v -0.18029779 -0.00520573 0.79341248
v -0.18029779 -0.29019137 0.79356379
v -0.47838830 -0.00520573 0.78994480
v -0.47838830 -0.00786067 0.78994480
v -0.47838830 -0.08627868 0.78993218
v -0.47838830 -0.16469667 0.78988174
v -0.47838830 -0.43129195 0.78965474
v -0.47838830 -0.57245732 0.78950343
v -0.46264439 -0.60386338 0.79313504
v -0.46264439 -0.61953403 0.79309723
v -0.46264439 -0.63520465 0.79304679
v -0.46264439 -0.66674024 0.79292072
v 0.43134262 -0.00520573 0.67378331
v 0.41559871 -0.00520573 0.67310239
v 0.35300253 -0.66674024 0.66629308
v 0.22743084 -0.00520573 0.66532213
v 0.24307988 -0.00520573 0.66592742
v -0.48626026 -0.00520573 0.78573312
v -0.48635506 -0.16469667 0.78577093
v -0.48635506 -0.38428002 0.78578355
v -0.48635506 -0.43129195 0.78578355
v -0.48635506 -0.57245732 0.78577093
v -0.48635506 -0.58819272 0.78575831
v -0.47838830 -0.58819272 0.78947823
v -0.48626026 -0.65087535 0.78573312
v -0.47838830 -0.60386338 0.78945299
v -0.47838830 -0.63520465 0.78938998
v -0.47838830 -0.65087535 0.78933954
v -0.47838830 -0.66661075 0.78927648
v -0.47838830 -0.66674024 0.78926386
v 0.33725865 -0.66674024 0.66625527
v 0.21168695 -0.00520573 0.66518344
v -0.48663964 -0.00520573 0.77773850
v -0.48673444 -0.22744402 0.77773850
v -0.48673444 -0.65087535 0.77773850
v -0.48626026 -0.66674024 0.78569530
v 0.33716380 -0.66674024 0.66625527
v -0.19604168 -0.66674024 0.66694881
v -0.19604168 -0.00786067 0.66675965
v -0.19604168 -0.00520573 0.66675965
v -0.48711383 -0.00520573 0.76206452
v -0.48663964 -0.66674024 0.77773850
v -0.48711383 -0.66674024 0.76206452
v -0.21169072 -0.66674024 0.66702446
v -0.19869727 -0.00520573 0.66677227
v -0.48730352 -0.00520573 0.74901337
v -0.48730352 -0.66674024 0.74637792
v -0.22724491 -0.66674024 0.66726406
v -0.22743460 -0.66661075 0.66726406
v -0.22743460 -0.00520573 0.66706228
v -0.21169072 -0.00786067 0.66686053
v -0.21169072 -0.00520573 0.66686053
v -0.48730352 -0.00520573 0.73069135
v -0.48739832 -0.54111600 0.73069135
v -0.48730352 -0.66674024 0.71489128
v -0.46264439 -0.66674024 0.67174053
v -0.22999535 -0.00520573 0.66711272
v -0.48720863 -0.00520573 0.71501737
v -0.48730352 -0.30586203 0.71501737
v -0.48720863 -0.54111600 0.69933077
v -0.48720863 -0.61953403 0.69933077
v -0.48711383 -0.66674024 0.69933077
v -0.47525850 -0.66674024 0.67382115
v -0.47459462 -0.00520573 0.67471645
v -0.46264439 -0.00520573 0.67344286
v -0.25873268 -0.00520573 0.66779366
v -0.24573923 -0.00520573 0.66745319
v -0.24308364 -0.00520573 0.66739015
v -0.48711383 -0.21177338 0.69933077
v -0.48701903 -0.00520573 0.69933077
v -0.48663964 -0.00520573 0.69117222
v -0.48663964 -0.39995068 0.68910422
v -0.48663964 -0.49403933 0.68878897
v -0.48663964 -0.50970999 0.68875115
v -0.48663964 -0.58819272 0.68872593
v -0.48663964 -0.60386338 0.68872593
v -0.48663964 -0.61953403 0.68875115
v -0.48663964 -0.63520465 0.68890247
v -0.48663964 -0.65087535 0.68915466
v -0.48654475 -0.66674024 0.68938163
v -0.47535330 -0.66674024 0.67385897
v -0.48332015 -0.52544539 0.68090785
v -0.47592238 -0.00520573 0.67588915
v -0.48654475 -0.00520573 0.68952035
v -0.48332015 -0.58819272 0.68088263
v -0.48322525 -0.61953403 0.68090785
v -0.48322525 -0.66674024 0.68145008
v -0.48246657 -0.00520573 0.68167705
f 1 2 8
f 1 8 17
f 1 17 27
f 1 27 36
f 1 36 45
f 1 45 57
f 1 57 71
f 1 71 72
f 1 72 75
f 1 75 74
f 1 74 90
f 1 90 98
f 1 98 103
f 1 103 110
f 1 110 108
f 1 108 115
f 1 115 126
f 1 126 125
f 1 125 124
f 1 124 123
f 1 123 122
f 1 122 141
f 1 141 146
f 1 146 142
f 1 142 129
f 1 129 128
f 1 128 116
f 1 116 111
f 1 111 104
f 1 104 99
f 1 99 91
f 1 91 76
f 1 76 61
f 1 61 51
f 1 51 59
f 1 59 48
f 1 48 39
f 1 39 47
f 1 47 37
f 1 37 29
f 1 29 18
f 1 18 9
f 1 9 3
f 1 3 4
f 1 4 5
f 1 5 6
f 1 6 2
f 2 6 7
f 2 7 8
f 3 9 4
f 4 10 5
f 4 9 11
f 4 11 10
f 5 10 12
f 5 12 6
f 6 12 13
f 6 13 14
f 6 14 7
f 7 14 15
f 7 15 16
f 7 16 8
f 8 16 17
f 9 18 19
f 9 19 20
f 9 20 21
f 9 21 22
f 9 22 23
f 9 23 11
f 10 24 12
f 10 11 24
f 11 23 34
f 11 34 44
f 11 44 56
f 11 56 70
f 11 70 88
f 11 88 94
f 11 94 100
f 11 100 101
f 11 101 105
f 11 105 113
f 11 113 120
f 11 120 138
f 11 138 145
f 11 145 139
f 11 139 121
f 11 121 114
f 11 114 106
f 11 106 102
f 11 102 96
f 11 96 95
f 11 95 89
f 11 89 73
f 11 73 58
f 11 58 46
f 11 46 35
f 11 35 25
f 11 25 15
f 11 15 14
f 11 14 13
f 11 13 12
f 11 12 24
f 15 25 16
f 16 25 26
f 16 26 17
f 17 26 27
f 18 28 20
f 18 20 19
f 18 29 28
f 20 28 30
f 20 30 31
f 20 31 32
f 20 32 21
f 21 32 22
f 22 32 33
f 22 33 34
f 22 34 23
f 25 35 26
f 26 35 27
f 27 35 36
f 28 29 30
f 29 37 38
f 29 38 30
f 30 38 39
f 30 39 31
f 31 39 32
f 32 39 40
f 32 40 33
f 33 40 41
f 33 41 42
f 33 42 43
f 33 43 44
f 33 44 34
f 35 45 36
f 35 46 45
f 37 47 38
f 38 47 39
f 39 48 41
f 39 41 40
f 41 48 49
f 41 49 43
f 41 43 42
f 43 50 51
f 43 51 44
f 43 49 50
f 44 51 52
f 44 52 53
f 44 53 54
f 44 54 55
f 44 55 56
f 45 46 58
f 45 58 57
f 48 59 60
f 48 60 49
f 49 60 50
f 50 60 51
f 51 61 62
f 51 62 63
f 51 63 52
f 51 60 59
f 52 63 64
f 52 64 65
f 52 65 66
f 52 66 67
f 52 67 53
f 53 67 54
f 54 67 68
f 54 68 55
f 55 68 56
f 56 68 69
f 56 69 70
f 57 58 71
f 58 72 71
f 58 73 74
f 58 74 75
f 58 75 72
f 61 76 77
f 61 77 78
f 61 78 79
f 61 79 62
f 62 79 80
f 62 80 63
f 63 80 64
f 64 80 81
f 64 81 65
f 65 81 66
f 66 82 67
f 66 81 83
f 66 83 82
f 67 82 84
f 67 84 85
f 67 85 68
f 68 85 86
f 68 86 69
f 69 86 70
f 70 86 87
f 70 87 88
f 73 89 90
f 73 90 74
f 76 91 77
f 77 91 92
f 77 92 78
f 78 92 93
f 78 93 79
f 79 93 80
f 80 93 81
f 81 93 94
f 81 94 83
f 82 83 84
f 83 94 85
f 83 85 84
f 85 94 86
f 86 94 87
f 87 94 88
f 89 95 90
f 90 95 96
f 90 96 97
f 90 97 98
f 91 99 92
f 92 99 101
f 92 101 93
f 93 100 94
f 93 101 100
f 96 102 97
f 97 102 103
f 97 103 98
f 99 104 101
f 101 104 105
f 102 106 107
f 102 107 108
f 102 108 109
f 102 109 103
f 103 109 110
f 104 111 112
f 104 112 105
f 105 112 113
f 106 114 107
f 107 114 108
f 108 114 115
f 108 110 109
f 111 116 117
f 111 117 112
f 112 117 113
f 113 117 118
f 113 118 119
f 113 119 120
f 114 121 122
f 114 122 123
f 114 123 124
f 114 124 125
f 114 125 126
f 114 126 115
f 116 127 117
f 116 128 127
f 117 127 118
f 118 127 129
f 118 129 130
f 118 130 131
f 118 131 132
f 118 132 133
f 118 133 134
f 118 134 119
f 119 134 135
f 119 135 136
f 119 136 137
f 119 137 120
f 120 137 138
f 121 139 122
f 122 139 140
f 122 140 141
f 127 128 129
f 129 142 130
f 130 142 131
f 131 142 132
f 132 142 140
f 132 140 143
f 132 143 133
f 133 143 134
f 134 143 135
f 135 143 144
f 135 144 136
f 136 144 145
f 136 145 137
f 137 145 138
f 139 145 144
f 139 144 143
f 139 143 140
f 140 142 146
f 140 146 141

