# https://github.com/mikedh/trimesh
v -0.46271334 -0.79145359 0.76204966
v -0.36871674 -0.79122164 0.77763244
v -0.36871674 -0.79122164 0.77774619
v -0.46271334 -0.79117284 0.77774619
v -0.47839111 -0.78796217 0.76204966
v -0.47839111 -0.78799881 0.69930149
v -0.46271334 -0.79105074 0.69930149
v -0.41566855 -0.78841392 0.40573102
v -0.36871674 -0.79048923 0.69930149
v -0.36871674 -0.78773021 0.78885507
v -0.47970433 -0.78704661 0.77649502
v -0.36871674 -0.78770581 0.78893093
v -0.46271334 -0.78747386 0.78847591
v -0.47534619 -0.78639965 0.78749014
v -0.48625899 -0.78428768 0.77046664
v -0.48628227 -0.78433649 0.76204966
v -0.48638684 -0.78447083 0.73065662
v -0.48645659 -0.78456844 0.69930149
v -0.48641008 -0.78450748 0.68944378
v -0.47605514 -0.78596015 0.40573102
v -0.47228969 -0.78647285 0.40573102
v -0.46271334 -0.78774246 0.40573102
v -0.41124067 -0.78823077 0.40573102
v -0.36871674 -0.79047698 0.69918775
v -0.39997919 -0.78774246 0.40573102
v -0.39089101 -0.78554514 0.40573102
v -0.36871674 -0.77649922 0.79203989
v -0.46271334 -0.77641377 0.79139536
v -0.47785648 -0.77641377 0.78847591
v -0.48570118 -0.77641377 0.78043810
v -0.48636361 -0.77641377 0.77258985
v -0.48692143 -0.76072693 0.76204966
v -0.48658444 -0.77641377 0.76204966
v -0.48672388 -0.77641377 0.74635315
v -0.48682850 -0.77641377 0.73065662
v -0.48689819 -0.77641377 0.69930149
v -0.48652633 -0.77083487 0.40573102
v -0.48686332 -0.77641377 0.71499800
v -0.48579416 -0.77305669 0.40573102
v -0.48389979 -0.77868439 0.40573102
v -0.36871674 -0.78857257 0.68360498
v -0.38889206 -0.77641377 0.40573102
v -0.36871674 -0.78541079 0.67382307
v -0.36871674 -0.78854817 0.68349122
v -0.36871674 -0.77641377 0.79203989
v -0.44702403 -0.66674024 0.79306357
v -0.44702403 -0.68231722 0.79298775
v -0.44702403 -0.69800405 0.79287402
v -0.44702403 -0.71367864 0.79264651
v -0.46271334 -0.71367864 0.79249486
v -0.47836783 -0.71367864 0.78896880
v -0.47830972 -0.72935327 0.78881716
v -0.48623576 -0.70545071 0.78551862
v -0.48620089 -0.71367864 0.78532905
v -0.48615442 -0.72935327 0.78491198
v -0.48607309 -0.74504010 0.78434328
v -0.48591037 -0.76072693 0.78309211
v -0.46271334 -0.69800405 0.79268442
v -0.48651469 -0.76072693 0.77524383
v -0.48706091 -0.74504010 0.76204966
v -0.48713066 -0.76072693 0.74635315
v -0.48722359 -0.76072693 0.73065662
v -0.48723523 -0.76072693 0.71499800
v -0.48703768 -0.76072693 0.47973974
v -0.48696794 -0.76072693 0.40573102
v -0.48665413 -0.76799049 0.40573102
v -0.38832260 -0.76515832 0.40573102
v -0.36871674 -0.78531319 0.67378516
v -0.38810180 -0.76072693 0.40573102
v -0.36871674 -0.66674024 0.79181238
v -0.43133468 -0.66674024 0.79283606
v -0.46271334 -0.66674024 0.79291193
v -0.47839111 -0.66674024 0.78927213
v -0.47996003 -0.69933466 0.78836218
v -0.48625899 -0.69500093 0.78559442
v -0.48629387 -0.68231722 0.78563238
v -0.48660767 -0.72935327 0.77706373
v -0.48657280 -0.74504010 0.77649502
v -0.48711902 -0.72935327 0.76204966
v -0.48727010 -0.74504010 0.74635315
v -0.48732821 -0.74504010 0.73065662
v -0.48735144 -0.74504010 0.58953956
v -0.48735144 -0.74504010 0.57384305
v -0.48729333 -0.74504010 0.49543626
v -0.48721200 -0.74504010 0.40573102
v -0.48703768 -0.75629555 0.40573102
v -0.36871674 -0.77641377 0.67101742
v -0.38804367 -0.74504010 0.40573102
v -0.36871674 -0.66674024 0.67022121
v -0.48631710 -0.66674024 0.78567029
v -0.48671224 -0.66674024 0.77774619
v -0.48730497 -0.72935327 0.74635315
v -0.48716553 -0.66674024 0.76204966
v -0.48735144 -0.72935327 0.73065662
v -0.48743282 -0.72935327 0.58953956
v -0.48743282 -0.72935327 0.57384305
v -0.48737472 -0.72935327 0.49543626
v -0.48730497 -0.72935327 0.41699157
v -0.48723523 -0.74062091 0.40573102
v -0.36871674 -0.69799180 0.67022121
v -0.38804367 -0.72935327 0.40573102
v -0.36871674 -0.68231722 0.67014538
v -0.46271334 -0.69251060 0.40573102
v -0.46271334 -0.66674024 0.67169986
v -0.38817152 -0.71367864 0.40573102
v -0.39021694 -0.70233774 0.40573102
v -0.39297129 -0.70062867 0.40573102
v -0.39997919 -0.69630719 0.40573102
v -0.40440708 -0.69553808 0.40573102
v -0.41566855 -0.69359707 0.40573102
v -0.44702403 -0.69277916 0.40573102
v -0.48732821 -0.69800405 0.74635315
v -0.48732821 -0.66674024 0.74635315
v -0.48737472 -0.69800405 0.73065662
v -0.48737472 -0.66674024 0.73065662
v -0.48737472 -0.66674024 0.73054286
v -0.48729333 -0.72935327 0.40573102
v -0.47839111 -0.69832145 0.40573102
v -0.48663090 -0.66674024 0.68936794
v -0.48328383 -0.66674024 0.68151968
v -0.48322572 -0.66674024 0.68144384
v -0.47543917 -0.66674024 0.67382307
v -0.47533455 -0.66674024 0.67378516
v -0.48732821 -0.66674024 0.71488426
v -0.48715389 -0.71367864 0.40573102
v -0.48721200 -0.71367864 0.43268809
v -0.48725846 -0.72494633 0.40573102
v -0.48072708 -0.70021362 0.40573102
v -0.48715389 -0.66674024 0.69930149
v -0.48663090 -0.70501121 0.40573102
f 1 2 3
f 1 3 4
f 1 4 5
f 1 5 6
f 1 6 7
f 1 7 2
f 2 7 8
f 2 8 9
f 2 9 24
f 2 24 41
f 2 41 44
f 2 44 43
f 2 43 68
f 2 68 87
f 2 87 100
f 2 100 102
f 2 102 89
f 2 89 70
f 2 70 45
f 2 45 27
f 2 27 12
f 2 12 10
f 2 10 3
f 3 10 4
f 4 11 5
f 4 10 12
f 4 12 13
f 4 13 14
f 4 14 11
f 5 11 15
f 5 15 16
f 5 16 17
f 5 17 18
f 5 18 6
f 6 18 19
f 6 19 20
f 6 20 7
f 7 20 21
f 7 21 22
f 7 22 8
f 8 22 21
f 8 21 20
f 8 20 40
f 8 40 39
f 8 39 37
f 8 37 66
f 8 66 65
f 8 65 86
f 8 86 85
f 8 85 99
f 8 99 117
f 8 117 127
f 8 127 125
f 8 125 130
f 8 130 128
f 8 128 118
f 8 118 103
f 8 103 111
f 8 111 110
f 8 110 109
f 8 109 108
f 8 108 107
f 8 107 106
f 8 106 105
f 8 105 101
f 8 101 88
f 8 88 69
f 8 69 67
f 8 67 42
f 8 42 26
f 8 26 25
f 8 25 23
f 8 23 9
f 9 23 25
f 9 25 26
f 9 26 24
f 11 14 15
f 12 27 13
f 13 27 28
f 13 28 14
f 14 28 29
f 14 29 30
f 14 30 15
f 15 30 31
f 15 31 32
f 15 32 33
f 15 33 34
f 15 34 35
f 15 35 17
f 15 17 16
f 17 35 18
f 18 36 37
f 18 37 19
f 18 35 38
f 18 38 36
f 19 37 39
f 19 39 40
f 19 40 20
f 24 26 41
f 26 42 43
f 26 43 44
f 26 44 41
f 27 45 46
f 27 46 47
f 27 47 48
f 27 48 49
f 27 49 28
f 28 49 50
f 28 50 29
f 29 51 52
f 29 52 53
f 29 53 54
f 29 54 55
f 29 55 56
f 29 56 57
f 29 57 30
f 29 50 58
f 29 58 51
f 30 57 31
f 31 57 59
f 31 59 32
f 32 59 60
f 32 60 80
f 32 80 61
f 32 61 33
f 33 61 34
f 34 61 35
f 35 62 38
f 35 61 62
f 36 38 62
f 36 62 63
f 36 63 64
f 36 64 65
f 36 65 66
f 36 66 37
f 42 67 43
f 43 67 69
f 43 69 68
f 45 70 71
f 45 71 46
f 46 71 70
f 46 70 89
f 46 89 104
f 46 104 123
f 46 123 122
f 46 122 121
f 46 121 120
f 46 120 119
f 46 119 129
f 46 129 124
f 46 124 116
f 46 116 115
f 46 115 113
f 46 113 93
f 46 93 91
f 46 91 90
f 46 90 73
f 46 73 72
f 46 72 47
f 47 72 48
f 48 72 58
f 48 58 50
f 48 50 49
f 51 73 74
f 51 74 75
f 51 75 53
f 51 53 52
f 51 58 72
f 51 72 73
f 53 75 76
f 53 76 77
f 53 77 78
f 53 78 55
f 53 55 54
f 55 78 56
f 56 78 59
f 56 59 57
f 59 78 60
f 60 78 79
f 60 79 80
f 61 80 62
f 62 81 63
f 62 80 81
f 63 81 82
f 63 82 83
f 63 83 84
f 63 84 64
f 64 84 85
f 64 85 86
f 64 86 65
f 68 69 87
f 69 88 87
f 73 90 76
f 73 76 75
f 73 75 74
f 76 90 91
f 76 91 77
f 77 91 79
f 77 79 78
f 79 92 80
f 79 91 93
f 79 93 92
f 80 92 81
f 81 92 94
f 81 94 95
f 81 95 82
f 82 95 96
f 82 96 83
f 83 96 97
f 83 97 84
f 84 97 98
f 84 98 85
f 85 98 99
f 87 88 100
f 88 101 102
f 88 102 100
f 89 103 104
f 89 102 101
f 89 101 105
f 89 105 106
f 89 106 107
f 89 107 108
f 89 108 109
f 89 109 110
f 89 110 111
f 89 111 103
f 92 112 114
f 92 114 94
f 92 93 112
f 93 113 112
f 94 114 95
f 95 114 115
f 95 115 116
f 95 116 96
f 96 116 97
f 97 116 98
f 98 117 99
f 98 116 117
f 103 118 119
f 103 119 120
f 103 120 121
f 103 121 122
f 103 122 123
f 103 123 104
f 112 113 115
f 112 115 114
f 116 124 125
f 116 125 126
f 116 126 127
f 116 127 117
f 118 128 119
f 119 128 130
f 119 130 129
f 124 129 130
f 124 130 125
f 125 127 126

