# https://github.com/mikedh/trimesh
v 0.48128625 0.66647323 0.73083885
v 0.48128625 0.66647323 0.73068214
v 0.48119089 0.66647323 0.74652185
v 0.48720368 0.35285648 0.76206120
v 0.48109543 0.66647323 0.71501221
v 0.48749004 0.33720851 0.76206120
v 0.48080907 0.66647323 0.76220483
v 0.48701277 0.35285648 0.77165903
v 0.48061816 0.66647323 0.69932921
v 0.48720368 0.33720851 0.77195937
v 0.48758549 0.32156055 0.76206120
v 0.48071361 0.65089101 0.69932921
v 0.47861390 0.66647323 0.77783559
v 0.47765954 0.66647323 0.68364621
v 0.48195443 0.33720851 0.77980741
v 0.48195443 0.19611385 0.77944177
v 0.48720368 0.32156055 0.77190713
v 0.47365092 0.66647323 0.78802108
v 0.48701277 0.19611385 0.77159375
v 0.48701277 0.19611385 0.76356291
v 0.48653559 0.29019890 0.75023039
v 0.48500850 0.32156055 0.73068214
v 0.48214524 0.39993189 0.69932921
v 0.47937744 0.35285648 0.68364621
v 0.47279192 0.66647323 0.67352605
v 0.47412819 0.39993189 0.78804716
v 0.47412819 0.19611385 0.78806025
v 0.47412819 0.18040015 0.78804716
v 0.47384183 -0.00520573 0.78804716
v 0.48195443 0.18040015 0.77932425
v 0.46267515 0.66647323 0.79047602
v 0.48691741 0.18040015 0.77148927
v 0.48691741 0.18040015 0.76416359
v 0.48071361 -0.00520573 0.69932921
v 0.48080907 0.00787808 0.69932921
v 0.48147716 0.13332478 0.69932921
v 0.48491305 0.29019890 0.73068214
v 0.48367233 0.32156055 0.71501221
v 0.48224070 0.36857019 0.69932921
v 0.47947289 0.30591261 0.68364621
v 0.47393728 0.32156055 0.67331712
v 0.46277051 0.66647323 0.66975221
v 0.46267515 0.57245395 0.79050215
v 0.46267515 0.43129354 0.79054132
v 0.46267515 0.19611385 0.79055436
v 0.46267515 0.05495346 0.79055436
v 0.46458396 -0.00520573 0.79011037
v 0.47918653 -0.00520573 0.77774420
v 0.44702268 0.66647323 0.79055436
v 0.41562218 0.49408266 0.79076331
v 0.48653559 0.16475219 0.77074494
v 0.48653559 0.16475219 0.76659242
v 0.48147716 -0.00520573 0.73068214
v 0.48119089 -0.00520573 0.71501221
v 0.47995007 -0.00520573 0.69669145
v 0.47785035 0.13332478 0.68364621
v 0.47928198 0.27455091 0.68364621
v 0.47937744 0.29019890 0.68364621
v 0.48214524 0.27455091 0.69932921
v 0.48357687 0.29019890 0.71501221
v 0.48224070 0.30591261 0.69932921
v 0.47393728 0.29019890 0.67334323
v 0.47393728 0.30591261 0.67329099
v 0.46267515 0.66647323 0.66972608
v 0.39996971 0.19611385 0.79088083
v 0.41562218 0.19611385 0.79080249
v 0.41829462 -0.00520573 0.79078940
v 0.46267515 -0.00520573 0.79052823
v 0.47956835 -0.00520573 0.77510642
v 0.36856935 0.66647323 0.79092000
v 0.39996971 0.47836895 0.79084166
v 0.48138170 -0.00520573 0.76206120
v 0.48147716 -0.00520573 0.74637821
v 0.47584609 -0.00520573 0.68364621
v 0.47765954 0.11767681 0.68364621
v 0.47317374 0.19611385 0.67391780
v 0.46267515 0.21176184 0.67128002
v 0.46267515 0.29019890 0.67084909
v 0.46267515 0.30591261 0.67077075
v 0.44702268 0.66647323 0.66771511
v 0.38422182 -0.00520573 0.79095918
v 0.38689420 -0.00520573 0.79094614
v -0.18031735 0.22747555 0.79347942
v 0.08625203 0.66647323 0.79204302
v -0.18031735 0.60381565 0.79336190
v -0.18031735 0.58816766 0.79338803
v -0.18031735 0.57245395 0.79341411
v -0.18031735 0.46265524 0.79344025
v 0.47088311 -0.00520573 0.67560232
v 0.47250565 0.11767681 0.67453152
v 0.47288738 0.16475219 0.67412673
v 0.46267515 0.19611385 0.67141060
v 0.44702268 0.21176184 0.66989586
v 0.39996971 0.58816766 0.66527321
v 0.43127475 0.66647323 0.66678798
v -0.18031735 0.18040015 0.79347942
v -0.18031735 -0.00520573 0.79341411
v -0.46263467 0.02359179 0.79400175
v -0.18031735 0.66647323 0.79300934
v -0.18031735 0.65089101 0.79311377
v -0.18031735 0.63524307 0.79320521
v -0.18031735 0.61952936 0.79329660
v -0.19596984 0.61952936 0.79325742
v -0.46263467 0.30591261 0.79361003
v -0.46263467 0.25883720 0.79374059
v -0.46263467 0.22747555 0.79379285
v -0.46263467 0.10196310 0.79392341
v 0.46945148 -0.00520573 0.67552398
v 0.46267515 0.13332478 0.67219410
v 0.46267515 0.14903848 0.67195907
v 0.47260111 0.13332478 0.67436179
v 0.47269656 0.14903848 0.67423118
v 0.39996971 0.50973060 0.66584778
v 0.44702268 0.16475219 0.67069240
v 0.22741069 -0.00520573 0.66532545
v 0.22741069 0.03923975 0.66486842
v 0.22741069 0.05495346 0.66471170
v 0.22741069 0.07060143 0.66456808
v 0.22741069 0.13332478 0.66399350
v 0.24306316 0.29019890 0.66317083
v 0.38422182 0.58816766 0.66485535
v 0.24325405 0.66647323 0.66076811
v 0.36866478 0.66647323 0.66412409
v 0.38422182 0.66647323 0.66469864
v 0.41562218 0.66647323 0.66604365
v -0.46263467 -0.00520573 0.79398871
v -0.47838260 0.16475219 0.78987533
v -0.47838260 0.11767681 0.78991451
v -0.47838260 0.10196310 0.78992755
v -0.47838260 0.00787808 0.78994064
v -0.47838260 -0.00520573 0.78994064
v -0.18050824 0.66647323 0.79300934
v -0.19596984 0.66647323 0.79299626
v -0.19596984 0.65089101 0.79308769
v -0.19596984 0.63524307 0.79317908
v -0.46263467 0.39993189 0.79320521
v -0.46263467 0.33720851 0.79347942
v -0.47838260 0.54109225 0.78902658
v -0.47838260 0.52544431 0.78907879
v -0.47838260 0.38428390 0.78952278
v -0.47838260 0.32156055 0.78969251
v -0.47838260 0.30591261 0.78973169
v -0.47838260 0.24312349 0.78979699
v 0.46267515 -0.00520573 0.67515833
v 0.24306316 0.27455091 0.66328835
v 0.43127475 -0.00520573 0.67377415
v 0.41294983 -0.00520573 0.67299065
v 0.24306316 -0.00520573 0.66592613
v 0.24039079 -0.00520573 0.66582165
v 0.22473832 -0.00520573 0.66529932
v 0.21166276 -0.00520573 0.66518180
v 0.22741069 0.18040015 0.66364093
v 0.21166276 0.02359179 0.66493370
v 0.21166276 0.03923975 0.66480311
v 0.21166276 0.05495346 0.66467253
v -0.19596984 -0.00520573 0.66674880
v 0.22741069 0.24312349 0.66318389
v 0.24306316 0.35285648 0.66275297
v 0.22741069 0.30591261 0.66276604
v 0.22741069 0.33720851 0.66257015
v 0.22741069 0.66647323 0.66059835
v -0.48620884 0.54109225 0.78563140
v -0.48620884 0.52544431 0.78564444
v -0.48630429 0.30591261 0.78569670
v -0.48630429 0.10196310 0.78574892
v -0.48630429 -0.00520573 0.78573587
v -0.43142517 0.66647323 0.79179489
v -0.43132972 0.65089101 0.79191241
v -0.43132972 0.61952936 0.79214750
v -0.43132972 0.60381565 0.79226502
v -0.43132972 0.58816766 0.79236944
v -0.43132972 0.54109225 0.79261757
v -0.46263467 0.54109225 0.79239558
v -0.47828714 0.58816766 0.78879149
v -0.47838260 0.55680596 0.78894818
v -0.48620884 0.56647089 0.78559222
v -0.21171776 -0.00520573 0.66685326
v 0.22741069 0.29019890 0.66287049
v -0.21171776 0.10196310 0.66650068
v -0.18031735 0.58816766 0.66465946
v -0.14891695 0.66647323 0.66412409
v -0.48659056 0.55680596 0.77774420
v -0.48668601 0.13332478 0.77774420
v -0.48668601 -0.00520573 0.77774420
v -0.44717310 0.66647323 0.79154682
v -0.46263467 0.60381565 0.79191241
v -0.46263467 0.58816766 0.79204302
v -0.46263467 0.55680596 0.79227806
v -0.47809624 0.63524307 0.78853032
v -0.47819169 0.61952936 0.78862176
v -0.48620884 0.57692479 0.78535716
v -0.48659056 0.58816766 0.77723491
v -0.47771451 0.66647323 0.78836059
v -0.22737023 -0.00520573 0.66706219
v -0.22737023 0.13332478 0.66660516
v -0.19596984 0.55680596 0.66492063
v -0.18022191 0.66647323 0.66442443
v -0.16466487 0.65089101 0.66431995
v -0.48716329 0.61952936 0.76206120
v -0.48716329 0.03923975 0.76206120
v -0.48706783 -0.00520573 0.76469896
v -0.46263467 0.66647323 0.79125952
v -0.46263467 0.61952936 0.79175572
v -0.48611338 0.60381565 0.78473038
v -0.48659056 0.66647323 0.77438822
v -0.48659056 0.65089101 0.77527618
v -0.48659056 0.63524307 0.77590299
v -0.48659056 0.60381565 0.77688236
v -0.46282558 0.66647323 0.79123339
v -0.48554075 0.66647323 0.78236683
v -0.48573166 0.65089101 0.78312420
v -0.48592247 0.63524307 0.78375101
v -0.23004261 -0.00520573 0.66711443
v -0.43132972 0.66647323 0.66800238
v -0.19596984 0.66647323 0.66459418
v -0.48706783 0.66647323 0.76206120
v -0.48735410 0.66647323 0.74637821
v -0.48735410 -0.00520573 0.74637821
v -0.24311816 -0.00520573 0.66738866
v -0.44698219 0.66647323 0.66831579
v -0.48735410 0.66647323 0.73053851
v -0.48744956 0.54109225 0.73068214
v -0.48735410 -0.00520573 0.73068214
v -0.24569510 -0.00520573 0.66745394
v -0.46263467 -0.00520573 0.67343464
v -0.46263467 0.66647323 0.66891647
v -0.25877064 -0.00520573 0.66779347
v -0.48716329 0.66647323 0.71486856
v -0.48725865 0.57245395 0.71501221
v -0.48725865 -0.00520573 0.71501221
v -0.48706783 0.49408266 0.69932921
v -0.48706783 0.39993189 0.69932921
v -0.47456489 -0.00520573 0.67471434
v -0.47580561 0.66647323 0.67255975
v -0.48630429 0.56278902 0.67568067
v -0.48687692 0.66647323 0.69923780
v -0.48706783 -0.00520573 0.70196699
v -0.48630429 0.56791739 0.67568067
v -0.47590106 -0.00520573 0.67588960
v -0.48363194 0.66647323 0.68230122
v -0.48315467 -0.00520573 0.68299331
v -0.48649520 -0.00520573 0.68952245
v -0.48659056 -0.00520573 0.69116778
v -0.48697238 -0.00520573 0.69932921
v -0.48239112 -0.00520573 0.68167441
v -0.48639974 0.66647323 0.69014924
f 1 2 5
f 1 5 9
f 1 9 14
f 1 14 25
f 1 25 42
f 1 42 64
f 1 64 80
f 1 80 95
f 1 95 125
f 1 125 124
f 1 124 123
f 1 123 122
f 1 122 161
f 1 161 181
f 1 181 197
f 1 197 215
f 1 215 214
f 1 214 220
f 1 220 226
f 1 226 234
f 1 234 240
f 1 240 246
f 1 246 236
f 1 236 228
f 1 228 221
f 1 221 217
f 1 217 216
f 1 216 205
f 1 205 210
f 1 210 193
f 1 193 209
f 1 209 202
f 1 202 185
f 1 185 167
f 1 167 133
f 1 133 132
f 1 132 99
f 1 99 84
f 1 84 70
f 1 70 49
f 1 49 31
f 1 31 18
f 1 18 13
f 1 13 7
f 1 7 3
f 1 3 4
f 1 4 2
f 2 4 6
f 2 6 5
f 3 7 8
f 3 8 4
f 4 8 6
f 5 6 9
f 6 8 10
f 6 10 11
f 6 11 12
f 6 12 9
f 7 13 8
f 8 13 10
f 9 12 14
f 10 15 16
f 10 16 17
f 10 17 11
f 10 13 18
f 10 18 15
f 11 17 19
f 11 19 20
f 11 20 21
f 11 21 22
f 11 22 23
f 11 23 12
f 12 23 14
f 14 23 24
f 14 24 25
f 15 18 26
f 15 26 27
f 15 27 28
f 15 28 29
f 15 29 16
f 16 30 19
f 16 19 17
f 16 29 30
f 18 31 26
f 19 32 33
f 19 33 20
f 19 30 32
f 20 33 34
f 20 34 35
f 20 35 21
f 21 35 36
f 21 36 37
f 21 37 22
f 22 37 60
f 22 60 38
f 22 38 39
f 22 39 23
f 23 39 24
f 24 39 40
f 24 40 41
f 24 41 25
f 25 41 42
f 26 31 43
f 26 43 44
f 26 44 27
f 27 29 28
f 27 44 45
f 27 45 46
f 27 46 47
f 27 47 29
f 29 48 32
f 29 32 30
f 29 47 68
f 29 68 67
f 29 67 82
f 29 82 81
f 29 81 97
f 29 97 126
f 29 126 131
f 29 131 166
f 29 166 184
f 29 184 201
f 29 201 218
f 29 218 223
f 29 223 230
f 29 230 237
f 29 237 244
f 29 244 243
f 29 243 242
f 29 242 241
f 29 241 245
f 29 245 239
f 29 239 233
f 29 233 225
f 29 225 227
f 29 227 224
f 29 224 219
f 29 219 213
f 29 213 194
f 29 194 177
f 29 177 156
f 29 156 151
f 29 151 150
f 29 150 115
f 29 115 149
f 29 149 148
f 29 148 147
f 29 147 146
f 29 146 144
f 29 144 108
f 29 108 89
f 29 89 74
f 29 74 55
f 29 55 34
f 29 34 54
f 29 54 53
f 29 53 73
f 29 73 72
f 29 72 69
f 29 69 48
f 31 49 50
f 31 50 43
f 32 51 52
f 32 52 33
f 32 48 51
f 33 52 53
f 33 53 54
f 33 54 34
f 34 55 56
f 34 56 57
f 34 57 35
f 35 57 58
f 35 58 40
f 35 40 36
f 36 40 59
f 36 59 60
f 36 60 37
f 38 60 59
f 38 59 61
f 38 61 39
f 39 61 40
f 40 58 62
f 40 62 63
f 40 63 41
f 40 61 59
f 41 63 42
f 42 63 64
f 43 50 44
f 44 50 65
f 44 65 66
f 44 66 45
f 45 66 67
f 45 67 46
f 46 67 68
f 46 68 47
f 48 69 51
f 49 70 50
f 50 70 71
f 50 71 65
f 51 69 72
f 51 72 73
f 51 73 53
f 51 53 52
f 55 74 75
f 55 75 56
f 56 75 76
f 56 76 62
f 56 62 57
f 57 62 58
f 62 76 77
f 62 77 78
f 62 78 79
f 62 79 63
f 63 79 64
f 64 79 80
f 65 81 82
f 65 82 67
f 65 67 66
f 65 71 83
f 65 83 81
f 70 84 85
f 70 85 86
f 70 86 87
f 70 87 71
f 71 87 88
f 71 88 83
f 74 89 90
f 74 90 75
f 75 90 91
f 75 91 76
f 76 91 92
f 76 92 77
f 77 92 93
f 77 93 78
f 78 93 79
f 79 93 80
f 80 93 94
f 80 94 95
f 81 83 96
f 81 96 97
f 83 88 98
f 83 98 96
f 84 99 100
f 84 100 101
f 84 101 102
f 84 102 85
f 85 102 103
f 85 103 104
f 85 104 105
f 85 105 86
f 86 105 106
f 86 106 87
f 87 106 107
f 87 107 98
f 87 98 88
f 89 108 109
f 89 109 110
f 89 110 111
f 89 111 90
f 90 111 91
f 91 111 112
f 91 112 92
f 92 112 111
f 92 111 110
f 92 110 93
f 93 113 94
f 93 110 109
f 93 109 114
f 93 114 115
f 93 115 116
f 93 116 117
f 93 117 118
f 93 118 119
f 93 119 113
f 94 113 120
f 94 120 121
f 94 121 122
f 94 122 123
f 94 123 124
f 94 124 125
f 94 125 95
f 96 98 97
f 97 98 126
f 98 107 143
f 98 143 127
f 98 127 128
f 98 128 129
f 98 129 130
f 98 130 131
f 98 131 126
f 99 132 100
f 100 132 133
f 100 133 134
f 100 134 135
f 100 135 101
f 101 135 102
f 102 135 103
f 103 135 136
f 103 136 137
f 103 137 104
f 104 137 138
f 104 138 139
f 104 139 140
f 104 140 105
f 105 140 141
f 105 141 142
f 105 142 106
f 106 142 107
f 107 142 143
f 108 144 109
f 109 144 114
f 113 119 145
f 113 145 120
f 114 144 146
f 114 146 147
f 114 147 148
f 114 148 149
f 114 149 115
f 115 150 116
f 116 150 151
f 116 151 117
f 117 151 118
f 118 151 119
f 119 152 120
f 119 120 145
f 119 151 153
f 119 153 154
f 119 154 155
f 119 155 156
f 119 156 152
f 120 152 157
f 120 157 158
f 120 158 121
f 121 158 122
f 122 158 159
f 122 159 160
f 122 160 161
f 127 143 162
f 127 162 163
f 127 163 128
f 128 163 129
f 129 163 164
f 129 164 165
f 129 165 130
f 130 165 131
f 131 165 166
f 133 167 168
f 133 168 169
f 133 169 170
f 133 170 171
f 133 171 134
f 134 171 135
f 135 171 172
f 135 172 136
f 136 173 174
f 136 174 175
f 136 175 138
f 136 138 137
f 136 172 171
f 136 171 173
f 138 175 176
f 138 176 139
f 139 176 140
f 140 176 141
f 141 176 142
f 142 176 162
f 142 162 143
f 151 156 153
f 152 156 157
f 153 156 154
f 154 156 155
f 156 177 161
f 156 161 160
f 156 160 159
f 156 159 178
f 156 178 157
f 157 178 158
f 158 178 159
f 161 177 179
f 161 179 180
f 161 180 181
f 162 176 164
f 162 164 163
f 164 176 182
f 164 182 183
f 164 183 165
f 165 183 184
f 165 184 166
f 167 185 186
f 167 186 187
f 167 187 188
f 167 188 169
f 167 169 168
f 169 188 173
f 169 173 170
f 170 173 171
f 173 188 189
f 173 189 190
f 173 190 174
f 174 190 176
f 174 176 175
f 176 191 192
f 176 192 182
f 176 190 189
f 176 189 193
f 176 193 191
f 177 194 195
f 177 195 179
f 179 195 196
f 179 196 180
f 180 196 197
f 180 197 198
f 180 198 181
f 181 198 197
f 182 192 199
f 182 199 183
f 183 199 200
f 183 200 184
f 184 200 201
f 185 202 203
f 185 203 186
f 186 203 193
f 186 193 187
f 187 193 189
f 187 189 188
f 191 193 204
f 191 204 205
f 191 205 206
f 191 206 207
f 191 207 208
f 191 208 192
f 192 208 199
f 193 203 209
f 193 210 211
f 193 211 212
f 193 212 204
f 194 213 214
f 194 214 195
f 195 215 196
f 195 214 215
f 196 215 197
f 199 216 217
f 199 217 218
f 199 218 200
f 199 208 207
f 199 207 206
f 199 206 216
f 200 218 201
f 202 209 203
f 204 212 205
f 205 212 211
f 205 211 210
f 205 216 206
f 213 219 220
f 213 220 214
f 217 221 222
f 217 222 218
f 218 222 223
f 219 224 220
f 220 225 226
f 220 224 227
f 220 227 225
f 221 228 229
f 221 229 222
f 222 230 223
f 222 229 231
f 222 231 232
f 222 232 230
f 225 233 226
f 226 233 235
f 226 235 234
f 228 231 229
f 228 236 231
f 230 232 237
f 231 236 238
f 231 238 235
f 231 235 232
f 232 235 237
f 233 239 235
f 234 235 238
f 234 238 240
f 235 241 242
f 235 242 243
f 235 243 244
f 235 244 237
f 235 239 245
f 235 245 241
f 236 246 238
f 238 246 240

