# https://github.com/mikedh/trimesh
v 0.22741046 0.66647323 0.66060987
v 0.22741046 0.66662800 0.66060987
v 0.22755296 0.66647323 0.66060987
v 0.00799809 0.66647323 0.66356071
v 0.00033754 0.66654465 0.66358649
v 0.00033754 0.68231848 0.66347051
v 0.22741046 0.68231848 0.66067431
v 0.36430267 0.69799709 0.66116397
v 0.24308785 0.66647323 0.66076451
v 0.00785557 0.66647323 0.66357361
v 0.00033754 0.66647323 0.73073431
v 0.00033754 0.75254473 0.67131795
v 0.10195560 0.74504473 0.66607345
v 0.11766863 0.74504473 0.66560957
v 0.36430267 0.74504473 0.66348339
v 0.36430267 0.66652086 0.66401171
v 0.35304344 0.66647323 0.66375400
v 0.00771304 0.66647323 0.79221238
v 0.00033754 0.66655657 0.79222523
v 0.00033754 0.76072333 0.67234883
v 0.00033754 0.77134239 0.67447498
v 0.11766863 0.76072333 0.66903719
v 0.36430267 0.76072333 0.66546781
v 0.36430267 0.66647323 0.69861005
v 0.00785557 0.66647323 0.79221238
v 0.02339044 0.66647323 0.79219948
v 0.00033754 0.67480656 0.79221238
v 0.00033754 0.77794954 0.68364967
v 0.36430267 0.78219956 0.67951331
v 0.36430267 0.77633047 0.67229727
v 0.36430267 0.77386618 0.67041595
v 0.36430267 0.76228286 0.66598325
v 0.36430267 0.66647323 0.79093669
v 0.05492341 0.66647323 0.79213506
v 0.05492341 0.66662800 0.79213506
v 0.05492341 0.68231848 0.79210926
v 0.03924601 0.68231848 0.79213506
v 0.00033754 0.68231848 0.79218658
v 0.00033754 0.78219956 0.69933166
v 0.36430267 0.78517576 0.68736075
v 0.36430267 0.78316383 0.68165237
v 0.36430267 0.76072333 0.79094955
v 0.08627820 0.66647323 0.79204484
v 0.07060081 0.66647323 0.79209640
v 0.07060081 0.66662800 0.79209640
v 0.07060081 0.69799709 0.79201909
v 0.08627820 0.68231848 0.79203194
v 0.05492341 0.69799709 0.79204484
v 0.00033754 0.69049709 0.79214796
v 0.00033754 0.78253285 0.70683117
v 0.36430267 0.78743759 0.71501366
v 0.36430267 0.78684242 0.70359684
v 0.36430267 0.78661617 0.69933166
v 0.36430267 0.77215193 0.78976408
v 0.35290093 0.76072333 0.79098821
v 0.08627820 0.66662800 0.79204484
v 0.08627820 0.69799709 0.79198043
v 0.11766863 0.71368756 0.79182579
v 0.11766863 0.72935425 0.79174848
v 0.33722352 0.76072333 0.79103977
v 0.07060081 0.72935425 0.79182579
v 0.02353297 0.71368756 0.79199333
v 0.02353297 0.69799709 0.79208350
v 0.00033754 0.69799709 0.79210926
v 0.00033754 0.78288999 0.71501366
v 0.36430267 0.78792570 0.73068275
v 0.36430267 0.77641381 0.78927442
v 0.24308785 0.76072333 0.79124591
v 0.25880088 0.76072333 0.79122016
v 0.29015568 0.76072333 0.79116864
v 0.30583310 0.76072333 0.79112994
v 0.18041387 0.74504473 0.79150367
v 0.11766863 0.74504473 0.79160674
v 0.02353297 0.74504473 0.79174848
v 0.00033754 0.73753281 0.79183870
v 0.00033754 0.72935425 0.79190311
v 0.10195560 0.74504473 0.79163250
v 0.00785557 0.71368756 0.79200618
v 0.00033754 0.70617564 0.79205775
v 0.00033754 0.78321146 0.73068275
v 0.36430267 0.78809240 0.74637764
v 0.19605564 0.76072333 0.79131038
v 0.36430267 0.78274714 0.78730288
v 0.00033754 0.77427095 0.78850125
v 0.00033754 0.76779477 0.78997023
v 0.00033754 0.76072333 0.79155518
v 0.00785557 0.76072333 0.79155518
v 0.03924601 0.76072333 0.79151652
v 0.00033754 0.74504473 0.79177423
v 0.00033754 0.72186612 0.79195467
v 0.00033754 0.78327097 0.74637764
v 0.36430267 0.78804481 0.75064283
v 0.36430267 0.78508049 0.78656841
v 0.00033754 0.77796142 0.78289594
v 0.35290093 0.78499719 0.78647819
v 0.33722352 0.78486621 0.78633646
v 0.32154611 0.78472335 0.78616892
v 0.30583310 0.78456862 0.78597563
v 0.29015568 0.78439006 0.78576948
v 0.28103429 0.78428282 0.78562775
v 0.00033754 0.78298526 0.76205964
v 0.36430267 0.78790196 0.76205964
v 0.36430267 0.78637815 0.78011262
v 0.00033754 0.78134239 0.77774163
v 0.36430267 0.78680671 0.77774163
v 0.36430267 0.78762812 0.76632482
f 1 2 3
f 1 3 9
f 1 9 17
f 1 17 24
f 1 24 33
f 1 33 43
f 1 43 44
f 1 44 34
f 1 34 26
f 1 26 25
f 1 25 18
f 1 18 11
f 1 11 10
f 1 10 4
f 1 4 5
f 1 5 6
f 1 6 2
f 2 7 8
f 2 8 3
f 2 6 7
f 3 8 9
f 4 10 5
f 5 10 11
f 5 11 19
f 5 19 27
f 5 27 38
f 5 38 49
f 5 49 64
f 5 64 79
f 5 79 90
f 5 90 76
f 5 76 75
f 5 75 89
f 5 89 86
f 5 86 85
f 5 85 84
f 5 84 94
f 5 94 104
f 5 104 101
f 5 101 91
f 5 91 80
f 5 80 65
f 5 65 50
f 5 50 39
f 5 39 28
f 5 28 21
f 5 21 20
f 5 20 12
f 5 12 6
f 6 12 13
f 6 13 14
f 6 14 7
f 7 15 8
f 7 14 15
f 8 15 23
f 8 23 32
f 8 32 31
f 8 31 30
f 8 30 29
f 8 29 41
f 8 41 40
f 8 40 53
f 8 53 52
f 8 52 51
f 8 51 66
f 8 66 81
f 8 81 92
f 8 92 102
f 8 102 106
f 8 106 105
f 8 105 103
f 8 103 93
f 8 93 83
f 8 83 67
f 8 67 54
f 8 54 42
f 8 42 33
f 8 33 24
f 8 24 16
f 8 16 9
f 9 16 17
f 11 18 19
f 12 20 13
f 13 20 21
f 13 21 14
f 14 21 22
f 14 22 23
f 14 23 15
f 16 24 17
f 18 25 19
f 19 25 26
f 19 26 27
f 21 28 29
f 21 29 30
f 21 30 31
f 21 31 32
f 21 32 22
f 22 32 23
f 26 34 35
f 26 35 36
f 26 36 37
f 26 37 27
f 27 37 38
f 28 39 40
f 28 40 41
f 28 41 29
f 33 42 43
f 34 44 45
f 34 45 35
f 35 45 47
f 35 47 36
f 36 46 48
f 36 48 37
f 36 47 57
f 36 57 46
f 37 48 38
f 38 48 49
f 39 50 51
f 39 51 52
f 39 52 53
f 39 53 40
f 42 54 55
f 42 55 47
f 42 47 56
f 42 56 43
f 43 56 45
f 43 45 44
f 45 56 47
f 46 57 58
f 46 58 59
f 46 59 48
f 47 55 60
f 47 60 57
f 48 59 61
f 48 61 62
f 48 62 63
f 48 63 49
f 49 63 64
f 50 65 51
f 51 65 66
f 54 67 68
f 54 68 69
f 54 69 70
f 54 70 71
f 54 71 60
f 54 60 55
f 57 60 71
f 57 71 58
f 58 71 70
f 58 70 59
f 59 72 73
f 59 73 61
f 59 70 72
f 61 74 75
f 61 75 76
f 61 76 62
f 61 73 77
f 61 77 74
f 62 76 78
f 62 78 64
f 62 64 63
f 64 78 79
f 65 80 66
f 66 80 81
f 67 82 68
f 67 83 84
f 67 84 85
f 67 85 86
f 67 86 87
f 67 87 88
f 67 88 82
f 68 82 74
f 68 74 77
f 68 77 73
f 68 73 69
f 69 73 72
f 69 72 70
f 74 88 87
f 74 87 89
f 74 89 75
f 74 82 88
f 76 90 78
f 78 90 79
f 80 91 81
f 81 91 92
f 83 93 84
f 84 93 95
f 84 95 96
f 84 96 97
f 84 97 98
f 84 98 99
f 84 99 100
f 84 100 94
f 86 89 87
f 91 101 102
f 91 102 92
f 93 103 95
f 94 100 104
f 95 103 96
f 96 103 97
f 97 103 98
f 98 103 105
f 98 105 99
f 99 105 100
f 100 105 104
f 101 104 105
f 101 105 106
f 101 106 102

