# https://github.com/mikedh/trimesh
v 0.44702286 -0.78899543 0.32288910
v 0.46270956 -0.78782268 0.32288910
v 0.46270956 -0.78782268 0.33857326
v 0.44702286 -0.78898346 0.33857326
v 0.39997457 -0.78828938 0.32288910
v 0.39997457 -0.78827742 0.30720493
v 0.39997457 -0.78822955 0.28021357
v 0.43572614 -0.78874413 0.28021357
v 0.44702286 -0.78889970 0.28021357
v 0.47158308 -0.78539331 0.32288910
v 0.47159477 -0.78540528 0.33857326
v 0.46270956 -0.78776284 0.30720493
v 0.47154793 -0.78535741 0.30720493
v 0.47159477 -0.78539331 0.35424341
v 0.46270956 -0.78779874 0.35424341
v 0.44702286 -0.78894756 0.35424341
v 0.41564953 -0.78836119 0.38561174
v 0.39997457 -0.78824152 0.33857326
v 0.38428790 -0.78715253 0.33857326
v 0.38868953 -0.78734400 0.28021357
v 0.45141283 -0.78855266 0.28021357
v 0.47324540 -0.77640610 0.32288910
v 0.47326882 -0.77640610 0.33857326
v 0.47328051 -0.77640610 0.35424341
v 0.46270956 -0.78764317 0.28021357
v 0.47147772 -0.78526167 0.28021357
v 0.47319856 -0.77640610 0.30720493
v 0.47326882 -0.77640610 0.36992757
v 0.47158308 -0.78536938 0.36992757
v 0.47154793 -0.78533348 0.38561174
v 0.46270956 -0.78775088 0.36992757
v 0.44702286 -0.78882789 0.38561174
v 0.43133622 -0.78860052 0.38561174
v 0.41564953 -0.78830135 0.40129591
v 0.39997457 -0.78795431 0.42353152
v 0.39997457 -0.78809792 0.38561174
v 0.37239414 -0.78522577 0.33857326
v 0.38428790 -0.78698500 0.28021357
v 0.38428790 -0.78688926 0.41698008
v 0.47384239 -0.76072932 0.29152076
v 0.47387754 -0.76072932 0.30720493
v 0.47400628 -0.76072932 0.42353152
v 0.47309320 -0.77640610 0.28021357
v 0.47360829 -0.76512120 0.28021357
v 0.47380728 -0.76072932 0.28021357
v 0.47319856 -0.77640610 0.41698008
v 0.47146598 -0.78522577 0.42353152
v 0.47147772 -0.78524971 0.41698008
v 0.46270956 -0.78767907 0.38561174
v 0.44702286 -0.78874413 0.40129591
v 0.41564953 -0.78820562 0.42353152
v 0.40651848 -0.78806201 0.42353152
v 0.39083183 -0.78732007 0.42353152
v 0.38428790 -0.78686533 0.42353152
v 0.35442470 -0.78229389 0.33857326
v 0.37567194 -0.78504627 0.28021357
v 0.47383070 -0.74504052 0.28021357
v 0.47385412 -0.74504052 0.29152076
v 0.47387754 -0.74504052 0.30720493
v 0.47401801 -0.74504052 0.42353152
v 0.47317514 -0.77640610 0.42353152
v 0.46635029 -0.78653026 0.42353152
v 0.46270956 -0.78758334 0.40129591
v 0.46270956 -0.78747564 0.41698008
v 0.46270956 -0.78742777 0.42353152
v 0.45356682 -0.78809792 0.42353152
v 0.44702286 -0.78857659 0.42353152
v 0.43133622 -0.78839709 0.42353152
v 0.37557829 -0.78509414 0.42353152
v 0.35442470 -0.78163571 0.34042507
v 0.35442470 -0.77547268 0.32458658
v 0.37393939 -0.77640610 0.28021357
v 0.47381902 -0.73374366 0.28021357
v 0.47394775 -0.72935173 0.42353152
v 0.47380728 -0.72935173 0.28021357
v 0.47381902 -0.72935173 0.29152076
v 0.37461837 -0.78148014 0.42353152
v 0.35442470 -0.77575989 0.35178837
v 0.35442470 -0.76263205 0.31935385
v 0.37338919 -0.76072932 0.28021357
v 0.35442470 -0.76072932 0.31870852
v 0.47380728 -0.71368691 0.42353152
v 0.47372534 -0.71807880 0.28021357
v 0.47369023 -0.71368691 0.28021357
v 0.37327212 -0.77640610 0.42353152
v 0.37261656 -0.76987210 0.42353152
v 0.37170345 -0.76072932 0.42353152
v 0.35442470 -0.76072932 0.35697902
v 0.37519198 -0.74402334 0.28021357
v 0.35442470 -0.68469077 0.31782471
v 0.35442470 -0.66814036 0.31774054
v 0.35442470 -0.66674024 0.31785277
v 0.47283568 -0.70711701 0.42353152
v 0.47207475 -0.70273709 0.28021357
v 0.37152785 -0.74504052 0.42353152
v 0.35442470 -0.74504052 0.35734377
v 0.37779082 -0.72665918 0.28021357
v 0.36860123 -0.66674024 0.31806320
v 0.44702286 -0.69333099 0.28021357
v 0.43133622 -0.69384556 0.28021357
v 0.41127134 -0.69541322 0.28021357
v 0.39997457 -0.69695700 0.28021357
v 0.39554954 -0.69802205 0.28021357
v 0.38651215 -0.70144462 0.28021357
v 0.38175931 -0.70982157 0.28021357
v 0.38045988 -0.71356724 0.28021357
v 0.35442470 -0.66674024 0.35836786
v 0.47213328 -0.70239000 0.42353152
v 0.46270956 -0.69646636 0.28021357
v 0.46270956 -0.69586801 0.42353152
v 0.46819992 -0.69966156 0.42353152
v 0.37149272 -0.72935173 0.42353152
v 0.35442470 -0.71368691 0.35786283
v 0.35442470 -0.72935173 0.35762434
v 0.36876512 -0.66674024 0.31807723
v 0.38428790 -0.66674024 0.32037795
v 0.38436987 -0.66674024 0.32042003
v 0.37159809 -0.71368691 0.42353152
v 0.37262827 -0.70882827 0.42353152
v 0.37407986 -0.70201903 0.42353152
v 0.38428790 -0.69570048 0.42353152
v 0.39997457 -0.69309165 0.42353152
v 0.41564953 -0.69290018 0.42353152
v 0.43133622 -0.69275658 0.42353152
v 0.44702286 -0.69273265 0.42353152
v 0.36861294 -0.66674024 0.35836786
v 0.39448425 -0.66674024 0.32666284
v 0.39453109 -0.66674024 0.32677507
v 0.39717675 -0.66674024 0.33857326
v 0.39482372 -0.66674024 0.35086247
v 0.38428790 -0.66674024 0.35683873
f 1 2 3
f 1 3 4
f 1 4 5
f 1 5 6
f 1 6 7
f 1 7 8
f 1 8 9
f 1 9 2
f 2 10 11
f 2 11 3
f 2 9 12
f 2 12 13
f 2 13 10
f 3 11 14
f 3 14 15
f 3 15 4
f 4 15 16
f 4 16 5
f 5 16 17
f 5 17 18
f 5 18 19
f 5 19 6
f 6 19 7
f 7 19 20
f 7 20 38
f 7 38 56
f 7 56 72
f 7 72 80
f 7 80 89
f 7 89 97
f 7 97 106
f 7 106 105
f 7 105 104
f 7 104 103
f 7 103 102
f 7 102 101
f 7 101 100
f 7 100 99
f 7 99 109
f 7 109 94
f 7 94 84
f 7 84 83
f 7 83 75
f 7 75 73
f 7 73 57
f 7 57 45
f 7 45 44
f 7 44 43
f 7 43 26
f 7 26 25
f 7 25 21
f 7 21 9
f 7 9 8
f 9 21 12
f 10 22 23
f 10 23 11
f 10 13 22
f 11 23 24
f 11 24 14
f 12 21 25
f 12 25 26
f 12 26 13
f 13 27 22
f 13 26 27
f 14 24 28
f 14 28 29
f 14 29 15
f 15 29 30
f 15 30 31
f 15 31 16
f 16 31 32
f 16 32 33
f 16 33 17
f 17 33 34
f 17 34 35
f 17 35 36
f 17 36 18
f 18 36 19
f 19 37 38
f 19 38 20
f 19 36 39
f 19 39 37
f 22 27 40
f 22 40 41
f 22 41 23
f 23 41 42
f 23 42 24
f 24 42 28
f 26 43 27
f 27 43 44
f 27 44 45
f 27 45 40
f 28 42 46
f 28 46 29
f 29 46 30
f 30 46 47
f 30 47 48
f 30 48 31
f 31 48 47
f 31 47 49
f 31 49 32
f 32 49 50
f 32 50 51
f 32 51 33
f 33 51 34
f 34 51 52
f 34 52 35
f 35 52 51
f 35 51 68
f 35 68 67
f 35 67 66
f 35 66 65
f 35 65 62
f 35 62 47
f 35 47 61
f 35 61 42
f 35 42 60
f 35 60 74
f 35 74 82
f 35 82 93
f 35 93 108
f 35 108 111
f 35 111 110
f 35 110 125
f 35 125 124
f 35 124 123
f 35 123 122
f 35 122 121
f 35 121 120
f 35 120 119
f 35 119 118
f 35 118 112
f 35 112 95
f 35 95 87
f 35 87 86
f 35 86 85
f 35 85 77
f 35 77 69
f 35 69 54
f 35 54 53
f 35 53 36
f 36 53 54
f 36 54 39
f 37 55 38
f 37 39 55
f 38 55 56
f 39 54 55
f 40 45 57
f 40 57 41
f 41 57 58
f 41 58 59
f 41 59 60
f 41 60 42
f 42 61 46
f 46 61 47
f 47 62 49
f 49 62 63
f 49 63 50
f 50 63 64
f 50 64 65
f 50 65 66
f 50 66 67
f 50 67 68
f 50 68 51
f 54 69 55
f 55 70 78
f 55 78 88
f 55 88 96
f 55 96 114
f 55 114 113
f 55 113 107
f 55 107 92
f 55 92 91
f 55 91 90
f 55 90 81
f 55 81 79
f 55 79 71
f 55 71 56
f 55 69 70
f 56 71 72
f 57 73 58
f 58 73 59
f 59 73 60
f 60 73 75
f 60 75 76
f 60 76 74
f 62 65 64
f 62 64 63
f 69 77 78
f 69 78 70
f 71 79 72
f 72 79 81
f 72 81 80
f 74 76 83
f 74 83 84
f 74 84 82
f 75 83 76
f 77 85 78
f 78 85 86
f 78 86 87
f 78 87 88
f 80 81 90
f 80 90 91
f 80 91 92
f 80 92 89
f 82 84 94
f 82 94 93
f 87 95 88
f 88 95 96
f 89 92 97
f 92 98 99
f 92 99 100
f 92 100 101
f 92 101 102
f 92 102 103
f 92 103 104
f 92 104 105
f 92 105 106
f 92 106 97
f 92 107 126
f 92 126 131
f 92 131 130
f 92 130 129
f 92 129 128
f 92 128 127
f 92 127 117
f 92 117 116
f 92 116 115
f 92 115 98
f 93 94 108
f 94 109 110
f 94 110 111
f 94 111 108
f 95 112 107
f 95 107 113
f 95 113 114
f 95 114 96
f 98 115 99
f 99 115 116
f 99 116 117
f 99 117 109
f 107 112 118
f 107 118 119
f 107 119 120
f 107 120 121
f 107 121 122
f 107 122 123
f 107 123 124
f 107 124 125
f 107 125 126
f 109 117 127
f 109 127 128
f 109 128 129
f 109 129 110
f 110 129 130
f 110 130 125
f 125 130 131
f 125 131 126

