# https://github.com/mikedh/trimesh
v 0.35442470 -0.66674024 0.35837180
v 0.35442470 -0.66674024 0.31785057
v 0.33715310 -0.66674024 0.35838468
v 0.35442470 -0.71368088 0.35786523
v 0.35442470 -0.66813816 0.31774325
v 0.30579528 -0.66674024 0.31687178
v 0.33708233 -0.66674024 0.35838468
v 0.32136801 -0.66674024 0.35835463
v 0.30565369 -0.66674024 0.35829453
v 0.24307960 -0.66674024 0.35800689
v 0.35442470 -0.72934705 0.35762483
v 0.35442470 -0.66825372 0.31774325
v 0.29015173 -0.66674024 0.31658845
v 0.22729450 -0.66674024 0.35791245
v -0.36871669 -0.76071398 0.35323742
v 0.35442470 -0.74503631 0.35734578
v 0.35442470 -0.68469390 0.31782052
v 0.35442470 -0.76071398 0.31870487
v 0.27457901 -0.66674024 0.31637380
v 0.14886453 -0.66674024 0.35741447
v -0.36871669 -0.74518651 0.35330611
v -0.36871669 -0.77542122 0.34980735
v 0.35442470 -0.76071398 0.35698517
v 0.13329179 -0.66674024 0.35730285
v 0.16479120 -0.66674024 0.31541647
v 0.18043472 -0.66674024 0.31549374
v 0.19600745 -0.66674024 0.31558819
v 0.21179255 -0.66674024 0.31569980
v 0.22750687 -0.66674024 0.31582859
v 0.24322119 -0.66674024 0.31598314
v 0.25886469 -0.66674024 0.31617632
v 0.35442470 -0.76263182 0.31934452
v -0.36871669 -0.76225056 0.31529627
v -0.36871669 -0.71383107 0.35332758
v 0.11764826 -0.66674024 0.35718265
v -0.36871669 -0.78286148 0.33855980
v -0.31223013 -0.78423631 0.34528257
v -0.30175394 -0.78428254 0.34643738
v -0.18035734 -0.77641479 0.35019371
v 0.35442470 -0.77574470 0.35177782
v -0.16471382 -0.77641479 0.35024952
v 0.14914767 -0.66674024 0.31534348
v 0.35442470 -0.77546745 0.32458622
v -0.36871669 -0.76244698 0.31538641
v -0.36871669 -0.74503631 0.31505156
v 0.00743574 -0.66674024 0.31481975
v 0.02513204 -0.66674024 0.31486697
v 0.03921829 -0.66674024 0.31490990
v 0.04289911 -0.66674024 0.31492277
v 0.07057612 -0.66674024 0.31502151
v 0.10193396 -0.66674024 0.31513742
v 0.11524157 -0.66674024 0.31519323
v -0.18049891 -0.66674024 0.35467985
v -0.36871669 -0.66674024 0.35309575
v 0.10179239 -0.66674024 0.35705386
v -0.36871669 -0.78281529 0.33838379
v -0.31676039 -0.78428254 0.33060495
v -0.35286083 -0.78353157 0.33855980
v -0.33714651 -0.78386660 0.33855980
v -0.32178615 -0.78414389 0.33945703
v -0.31676039 -0.78428254 0.33482922
v -0.30649651 -0.78434032 0.33945703
v -0.27443082 -0.78453674 0.33855980
v -0.25871655 -0.78460602 0.33855980
v -0.24307300 -0.78466380 0.33855980
v -0.21171519 -0.78474467 0.33855980
v -0.21171519 -0.78445578 0.34669925
v -0.25871655 -0.78436341 0.34657046
v -0.22735869 -0.78442119 0.34666061
v 0.00184371 -0.78424786 0.34640733
v 0.35442470 -0.78163684 0.34041865
v -0.14899950 -0.77641479 0.35028816
v -0.19600087 -0.78447897 0.34672930
v -0.18035734 -0.78450206 0.34675076
v -0.16471382 -0.78450206 0.34675935
v -0.14899950 -0.78450206 0.34675935
v -0.13335598 -0.78447897 0.34673788
v 0.35442470 -0.78228384 0.33855980
v 0.01656703 -0.78424786 0.33071657
v -0.11764167 -0.78444428 0.33013702
v -0.19600087 -0.77641479 0.32265439
v -0.36871669 -0.77592958 0.32295061
v -0.21171519 -0.77641479 0.32259429
v -0.22735869 -0.77641479 0.32255136
v -0.24307300 -0.77641479 0.32251272
v -0.25871655 -0.77641479 0.32251272
v -0.27443082 -0.77641479 0.32256853
v -0.36871669 -0.69801476 0.31453212
v -0.00587187 -0.66680956 0.31479399
v -0.00657973 -0.66674024 0.31479399
v -0.36871669 -0.66674024 0.31455788
v -0.36871669 -0.77604508 0.32304505
v -0.30578869 -0.78434032 0.33039459
v -0.29014514 -0.78444428 0.33855980
v -0.29014514 -0.78439810 0.33014990
v -0.27443082 -0.78445578 0.32997818
v -0.25871655 -0.78450206 0.32987085
v -0.19600087 -0.78476776 0.33855980
v 0.00736495 -0.78425940 0.33791156
v 0.01656703 -0.78424786 0.33226203
v 0.01224913 -0.78422476 0.34271109
v 0.18029315 -0.78363554 0.33855980
v 0.19600745 -0.78357781 0.33855980
v 0.24307960 -0.78328896 0.33855980
v 0.25872314 -0.78317341 0.33855980
v 0.27443741 -0.78303476 0.33855980
v -0.13335598 -0.78469848 0.33855980
v -0.00785386 -0.78430563 0.33855980
v -0.14899950 -0.78472158 0.33855980
v -0.00587187 -0.78428254 0.33062212
v -0.16471382 -0.78450206 0.32996101
v -0.13335598 -0.78445578 0.33006833
v -0.19600087 -0.78452515 0.32983222
v -0.21171519 -0.78452515 0.32981505
v -0.22735869 -0.78452515 0.32981505
v -0.24307300 -0.78450206 0.32982793
v -0.36843355 -0.66674024 0.31455788
v -0.19585930 -0.66674024 0.31461798
v -0.16457224 -0.66674024 0.31463515
v -0.14885793 -0.66674024 0.31464803
v -0.02328503 -0.66674024 0.31476823
f 1 2 6
f 1 6 13
f 1 13 19
f 1 19 31
f 1 31 30
f 1 30 29
f 1 29 28
f 1 28 27
f 1 27 26
f 1 26 25
f 1 25 42
f 1 42 52
f 1 52 51
f 1 51 50
f 1 50 49
f 1 49 48
f 1 48 47
f 1 47 46
f 1 46 90
f 1 90 121
f 1 121 120
f 1 120 119
f 1 119 118
f 1 118 117
f 1 117 91
f 1 91 54
f 1 54 53
f 1 53 55
f 1 55 35
f 1 35 24
f 1 24 20
f 1 20 14
f 1 14 10
f 1 10 9
f 1 9 8
f 1 8 7
f 1 7 3
f 1 3 4
f 1 4 11
f 1 11 16
f 1 16 23
f 1 23 40
f 1 40 71
f 1 71 78
f 1 78 43
f 1 43 32
f 1 32 18
f 1 18 17
f 1 17 12
f 1 12 5
f 1 5 2
f 2 5 6
f 3 7 4
f 4 7 8
f 4 8 9
f 4 9 10
f 4 10 11
f 5 12 13
f 5 13 6
f 10 14 15
f 10 15 11
f 11 15 16
f 12 17 13
f 13 17 18
f 13 18 19
f 14 20 15
f 15 21 34
f 15 34 54
f 15 54 91
f 15 91 88
f 15 88 45
f 15 45 33
f 15 33 44
f 15 44 82
f 15 82 92
f 15 92 56
f 15 56 36
f 15 36 22
f 15 22 23
f 15 23 16
f 15 20 24
f 15 24 21
f 18 25 26
f 18 26 27
f 18 27 28
f 18 28 29
f 18 29 30
f 18 30 31
f 18 31 19
f 18 32 33
f 18 33 25
f 21 24 35
f 21 35 34
f 22 36 37
f 22 37 38
f 22 38 39
f 22 39 23
f 23 39 41
f 23 41 40
f 25 33 42
f 32 43 33
f 33 45 46
f 33 46 47
f 33 47 48
f 33 48 49
f 33 49 50
f 33 50 51
f 33 51 52
f 33 52 42
f 33 43 44
f 34 53 54
f 34 35 55
f 34 55 53
f 36 56 57
f 36 57 58
f 36 58 37
f 37 58 59
f 37 59 60
f 37 60 61
f 37 61 62
f 37 62 63
f 37 63 38
f 38 63 64
f 38 64 65
f 38 65 66
f 38 66 67
f 38 67 68
f 38 68 39
f 39 68 69
f 39 69 41
f 40 70 71
f 40 41 72
f 40 72 73
f 40 73 74
f 40 74 75
f 40 75 76
f 40 76 77
f 40 77 70
f 41 69 67
f 41 67 73
f 41 73 72
f 43 78 79
f 43 79 80
f 43 80 81
f 43 81 44
f 44 81 83
f 44 83 84
f 44 84 85
f 44 85 86
f 44 86 87
f 44 87 82
f 45 88 89
f 45 89 46
f 46 89 90
f 56 92 57
f 57 61 59
f 57 59 58
f 57 92 93
f 57 93 63
f 57 63 94
f 57 94 61
f 59 61 60
f 61 94 62
f 62 94 63
f 63 93 64
f 64 93 95
f 64 95 96
f 64 96 65
f 65 96 97
f 65 97 66
f 66 98 74
f 66 74 73
f 66 73 67
f 66 97 98
f 67 69 68
f 70 99 100
f 70 100 101
f 70 101 102
f 70 102 103
f 70 103 104
f 70 104 105
f 70 105 106
f 70 106 78
f 70 78 71
f 70 77 107
f 70 107 108
f 70 108 99
f 74 98 75
f 75 98 76
f 76 98 109
f 76 109 107
f 76 107 77
f 78 106 79
f 79 110 80
f 79 106 105
f 79 105 104
f 79 104 103
f 79 103 100
f 79 100 107
f 79 107 110
f 80 107 109
f 80 109 111
f 80 111 112
f 80 112 81
f 80 110 107
f 81 112 113
f 81 113 83
f 82 87 92
f 83 113 84
f 84 113 85
f 85 113 114
f 85 114 115
f 85 115 86
f 86 115 116
f 86 116 97
f 86 97 87
f 87 97 92
f 88 91 117
f 88 117 118
f 88 118 119
f 88 119 120
f 88 120 121
f 88 121 89
f 89 121 90
f 92 97 96
f 92 96 95
f 92 95 93
f 97 116 115
f 97 115 98
f 98 113 111
f 98 111 109
f 98 115 114
f 98 114 113
f 99 108 100
f 100 103 102
f 100 102 101
f 100 108 107
f 111 113 112

