# https://github.com/mikedh/trimesh
v 0.47382205 -0.74504622 0.28021356
v 0.47382205 -0.74943035 0.28021356
v 0.47382205 -0.74504622 0.27582027
v 0.47381205 -0.73375796 0.28021356
v 0.47381205 -0.76072796 0.28021356
v 0.47376180 -0.72936444 0.24444772
v 0.47380200 -0.72936444 0.27582027
v 0.47365134 -0.74504622 0.18170265
v 0.47366139 -0.72936444 0.18170265
v 0.47380200 -0.72936444 0.28021356
v 0.47361118 -0.76512148 0.28021356
v 0.47356098 -0.76072796 0.15033011
v 0.47356098 -0.74504622 0.13467197
v 0.47359108 -0.74504622 0.15033011
v 0.47360113 -0.71368266 0.16601638
v 0.47373169 -0.71807618 0.28021356
v 0.47364129 -0.71368266 0.19738890
v 0.47370154 -0.71368266 0.26013399
v 0.47363129 -0.72936444 0.16601638
v 0.47352078 -0.71368266 0.11898573
v 0.47308894 -0.77640975 0.28021356
v 0.47304879 -0.77640975 0.26013399
v 0.47300863 -0.77640975 0.24444772
v 0.47352078 -0.76072796 0.13467197
v 0.47352078 -0.74504622 0.11898573
v 0.47353083 -0.72936444 0.11898573
v 0.47196420 -0.70289093 0.07192691
v 0.47202445 -0.70280660 0.11898573
v 0.47369149 -0.71368266 0.28021356
v 0.47208471 -0.70272232 0.26013399
v 0.47205456 -0.70275041 0.16601638
v 0.47206461 -0.70273166 0.18170265
v 0.47207466 -0.70273166 0.21307518
v 0.47348062 -0.71368266 0.10329945
v 0.47189389 -0.70300335 0.02486810
v 0.47263705 -0.77890161 0.28021356
v 0.47143195 -0.78521549 0.24444772
v 0.47124114 -0.78499074 0.13467197
v 0.47275756 -0.77640975 0.15033011
v 0.47343042 -0.76072796 0.10329945
v 0.47347057 -0.74504622 0.10329945
v 0.47348062 -0.72936444 0.10329945
v 0.46270488 -0.69658635 0.07192691
v 0.46270488 -0.69668938 0.04055437
v 0.47252659 -0.70579495 0.28021356
v 0.46270488 -0.69644583 0.26013399
v 0.46270488 -0.69645518 0.27582027
v 0.46945354 -0.70097987 0.28021356
v 0.47207466 -0.70273166 0.27582027
v 0.47207466 -0.70274101 0.28021356
v 0.46270488 -0.69646458 0.18170265
v 0.46270488 -0.69651142 0.11898573
v 0.46270488 -0.69647393 0.16601638
v 0.47321950 -0.71368266 0.02486810
v 0.47146206 -0.70392139 0.01554644
v 0.46270488 -0.69682055 0.02486810
v 0.47147211 -0.78527177 0.28021356
v 0.47145201 -0.78523428 0.26013399
v 0.46270488 -0.78765112 0.28021356
v 0.47126119 -0.78502813 0.15033011
v 0.47120094 -0.78496260 0.11898573
v 0.47116078 -0.78490641 0.10329945
v 0.47264710 -0.77640975 0.11898573
v 0.47337016 -0.76072796 0.08761318
v 0.47341032 -0.74504622 0.08761318
v 0.44702838 -0.69322329 0.04055437
v 0.44702838 -0.69324203 0.26013399
v 0.46270488 -0.69646458 0.28021356
v 0.47316930 -0.72936444 0.02486810
v 0.47185374 -0.72936444 0.01444813
v 0.47189389 -0.71368266 0.01458893
v 0.47329986 -0.76072796 0.07192691
v 0.46270488 -0.71368266 0.00856226
v 0.46270488 -0.70139208 0.01329347
v 0.44702838 -0.69342939 0.02486810
v 0.45141699 -0.78855985 0.28021356
v 0.44702838 -0.78883154 0.24444772
v 0.46270488 -0.78755744 0.24444772
v 0.46270488 -0.78736074 0.19738890
v 0.46270488 -0.78702351 0.11898573
v 0.47099007 -0.78472840 0.05624064
v 0.47257680 -0.77640975 0.10329945
v 0.43134183 -0.69342939 0.02486810
v 0.43134183 -0.69330762 0.04055437
v 0.39997873 -0.69328887 0.16601638
v 0.39997873 -0.69327952 0.18170265
v 0.41566528 -0.69325143 0.16601638
v 0.43134183 -0.69320459 0.22876145
v 0.43134183 -0.69321394 0.24444772
v 0.44702838 -0.69330762 0.27582027
v 0.44702838 -0.69332636 0.28021356
v 0.47308894 -0.74504622 0.02486810
v 0.47180353 -0.74504622 0.01461710
v 0.47320945 -0.76072796 0.05624064
v 0.46270488 -0.72936444 0.00749209
v 0.44494956 -0.72936444 -0.00208302
v 0.44246905 -0.71908789 -0.00030879
v 0.43134183 -0.71684901 -0.00228014
v 0.44702838 -0.69974331 0.01151927
v 0.43134183 -0.69970587 0.01112499
v 0.44702838 -0.78889708 0.28021356
v 0.44702838 -0.78889708 0.27582027
v 0.39997873 -0.78800714 0.07192691
v 0.39997873 -0.78793216 0.04055437
v 0.44702838 -0.78803528 0.02486810
v 0.46270488 -0.78657382 0.04055437
v 0.47084946 -0.78457853 0.02486810
v 0.47230563 -0.77640975 0.05624064
v 0.41566528 -0.69976206 0.01112499
v 0.39997873 -0.69368233 0.02486810
v 0.39997873 -0.69356056 0.04055437
v 0.39997873 -0.69331697 0.15033011
v 0.38429217 -0.69545286 0.15033011
v 0.39997873 -0.69329827 0.19738890
v 0.41566528 -0.69326078 0.22876145
v 0.43134183 -0.69384159 0.28021356
v 0.39997873 -0.69335446 0.21307518
v 0.41566528 -0.69353246 0.24444772
v 0.47295843 -0.76072796 0.02486810
v 0.47172318 -0.76072796 0.01484239
v 0.47309899 -0.76072796 0.04055437
v 0.46270488 -0.74504622 0.00788636
v 0.44457798 -0.74504622 -0.00197036
v 0.43134183 -0.74504622 -0.00672976
v 0.43134183 -0.72936444 -0.00687056
v 0.41566528 -0.72936444 -0.00740565
v 0.41566528 -0.71667101 -0.00256178
v 0.43134183 -0.70900810 0.00329595
v 0.41566528 -0.70883014 0.00326776
v 0.43573044 -0.78873786 0.28021356
v 0.39997873 -0.78823198 0.28021356
v 0.39997873 -0.78821319 0.24444772
v 0.39997873 -0.78814765 0.16601638
v 0.39997873 -0.78812895 0.15033011
v 0.39997873 -0.78803528 0.08761318
v 0.38429217 -0.78732325 0.10329945
v 0.38429217 -0.78715468 0.04055437
v 0.39997873 -0.78785727 0.02486810
v 0.39997873 -0.78603055 0.01405384
v 0.43134183 -0.78609608 0.01394120
v 0.44702838 -0.78613357 0.01394120
v 0.46270488 -0.78533731 0.01526483
v 0.46270488 -0.78648014 0.02486810
v 0.47071890 -0.78444737 0.01670108
v 0.47201440 -0.77640975 0.02486810
v 0.47217507 -0.77640975 0.04055437
v 0.39997873 -0.69981825 0.01132212
v 0.38429217 -0.70091429 0.01244862
v 0.38429217 -0.69593060 0.02486810
v 0.38429217 -0.69585567 0.04055437
v 0.38429217 -0.69547156 0.16601638
v 0.37435000 -0.70199159 0.02486810
v 0.37421944 -0.70170120 0.15033011
v 0.41127666 -0.69541537 0.28021356
v 0.39997873 -0.69386034 0.22876145
v 0.38429217 -0.69570576 0.18170265
v 0.47124114 -0.77640975 0.01577174
v 0.46270488 -0.76072796 0.00881571
v 0.46270488 -0.77640975 0.01137845
v 0.43134183 -0.75792701 -0.00213935
v 0.41566528 -0.74504622 -0.00746198
v 0.40117382 -0.74504622 -0.00273077
v 0.40158556 -0.72936444 -0.00261811
v 0.38429217 -0.71368266 0.00726680
v 0.40446780 -0.71884435 -0.00070309
v 0.38868079 -0.78735139 0.28021356
v 0.38429217 -0.78719217 0.24444772
v 0.38429217 -0.78726706 0.22876145
v 0.38429217 -0.78728585 0.21307518
v 0.38429217 -0.78733269 0.15033011
v 0.38429217 -0.78733269 0.11898573
v 0.37522370 -0.78544034 0.10329945
v 0.37534421 -0.78532796 0.04055437
v 0.37541451 -0.78526233 0.02486810
v 0.38429217 -0.78705166 0.02486810
v 0.38429217 -0.78560899 0.01475792
v 0.39997873 -0.77640975 0.00802716
v 0.41566528 -0.77640975 0.00757658
v 0.43134183 -0.77640975 0.00754842
v 0.44702838 -0.77640975 0.00802716
v 0.37504293 -0.70327499 0.01467340
v 0.37426964 -0.70173865 0.16601638
v 0.37210044 -0.71368266 0.02486810
v 0.37188955 -0.71368266 0.10329945
v 0.37179916 -0.71368266 0.15033011
v 0.39997873 -0.69695171 0.28021356
v 0.38429217 -0.69623038 0.19738890
v 0.39554996 -0.69801962 0.28021356
v 0.37445041 -0.70198224 0.18170265
v 0.41566528 -0.75835791 -0.00261811
v 0.38429217 -0.77640975 0.00991402
v 0.38429217 -0.74504622 0.00577421
v 0.38429217 -0.76072796 0.00670356
v 0.38429217 -0.72936444 0.00611214
v 0.37427969 -0.71368266 0.01337796
v 0.38429217 -0.78698602 0.28021356
v 0.37534421 -0.78533731 0.22876145
v 0.37531408 -0.78537480 0.21307518
v 0.37522370 -0.78544968 0.11898573
v 0.37268291 -0.77640975 0.13467197
v 0.37269296 -0.77640975 0.11898573
v 0.37272309 -0.77640975 0.10329945
v 0.37304444 -0.77640975 0.04055437
v 0.37315493 -0.77640975 0.02486810
v 0.37579612 -0.78488762 0.01594072
v 0.37189960 -0.71368266 0.16601638
v 0.37185942 -0.72936444 0.02486810
v 0.37165858 -0.72936444 0.07192691
v 0.37153807 -0.72936444 0.10329945
v 0.37150792 -0.72936444 0.11898573
v 0.37148784 -0.72936444 0.13467197
v 0.37147781 -0.72936444 0.15033011
v 0.37476173 -0.70249747 0.19738890
v 0.38651158 -0.70144826 0.28021356
v 0.37223100 -0.71368266 0.18170265
v 0.37484209 -0.77640975 0.01433548
v 0.37414913 -0.76072796 0.01312449
v 0.37410898 -0.74504622 0.01304002
v 0.37416923 -0.72936444 0.01315267
v 0.37807581 -0.78559020 0.28021356
v 0.37544464 -0.78525298 0.24444772
v 0.37287373 -0.77640975 0.19738890
v 0.37278334 -0.77640975 0.18170265
v 0.37272309 -0.77640975 0.16601638
v 0.37269296 -0.77640975 0.15033011
v 0.37523375 -0.78543099 0.13467197
v 0.37123679 -0.76072796 0.15033011
v 0.37125687 -0.76072796 0.13467197
v 0.37129705 -0.76072796 0.11898573
v 0.37134725 -0.76072796 0.10329945
v 0.37181924 -0.76072796 0.02486810
v 0.37157822 -0.72936444 0.16601638
v 0.37183934 -0.72936444 0.18170265
v 0.37172888 -0.74504622 0.02486810
v 0.37139746 -0.74504622 0.08761318
v 0.37132715 -0.74504622 0.10329945
v 0.37128700 -0.74504622 0.11898573
v 0.37126689 -0.74504622 0.13467197
v 0.37125687 -0.74504622 0.15033011
v 0.37132715 -0.74504622 0.16601638
v 0.37279337 -0.71368266 0.19738890
v 0.37547477 -0.70390264 0.21307518
v 0.38176144 -0.70982311 0.28021356
v 0.37338590 -0.76072796 0.28021356
v 0.37567561 -0.78504693 0.28021356
v 0.37301431 -0.77640975 0.21307518
v 0.37139746 -0.76072796 0.18170265
v 0.37126689 -0.76072796 0.16601638
v 0.37153807 -0.74504622 0.18170265
v 0.37184939 -0.74504622 0.19738890
v 0.37384786 -0.71368266 0.21307518
v 0.37613757 -0.70526097 0.22296007
v 0.38045591 -0.71357023 0.28021356
v 0.37393824 -0.77640975 0.28021356
v 0.37519357 -0.74402511 0.28021356
v 0.37194980 -0.76072796 0.21307518
v 0.37319510 -0.77640975 0.22876145
v 0.37163848 -0.76072796 0.19738890
v 0.37778456 -0.72665712 0.28021356
f 1 2 3
f 1 3 4
f 1 4 10
f 1 10 16
f 1 16 29
f 1 29 45
f 1 45 50
f 1 50 48
f 1 48 68
f 1 68 91
f 1 91 116
f 1 116 154
f 1 154 186
f 1 186 188
f 1 188 214
f 1 214 243
f 1 243 253
f 1 253 259
f 1 259 255
f 1 255 244
f 1 244 254
f 1 254 245
f 1 245 220
f 1 220 196
f 1 196 166
f 1 166 131
f 1 131 130
f 1 130 101
f 1 101 76
f 1 76 59
f 1 59 57
f 1 57 36
f 1 36 21
f 1 21 11
f 1 11 5
f 1 5 2
f 2 5 3
f 3 6 7
f 3 7 4
f 3 5 8
f 3 8 9
f 3 9 6
f 4 7 10
f 5 11 12
f 5 12 13
f 5 13 14
f 5 14 8
f 6 9 15
f 6 15 17
f 6 17 7
f 7 16 10
f 7 17 18
f 7 18 16
f 8 14 19
f 8 19 9
f 9 19 20
f 9 20 15
f 11 21 12
f 12 21 22
f 12 22 23
f 12 23 24
f 12 24 25
f 12 25 13
f 13 25 26
f 13 26 19
f 13 19 14
f 15 20 27
f 15 27 28
f 15 28 17
f 16 18 29
f 17 28 18
f 18 30 29
f 18 28 31
f 18 31 32
f 18 32 33
f 18 33 30
f 19 26 20
f 20 26 34
f 20 34 35
f 20 35 27
f 21 36 37
f 21 37 22
f 22 37 38
f 22 38 23
f 23 39 24
f 23 38 39
f 24 40 25
f 24 39 40
f 25 40 41
f 25 41 42
f 25 42 26
f 26 42 34
f 27 43 28
f 27 35 44
f 27 44 43
f 28 43 31
f 29 30 45
f 30 46 47
f 30 47 48
f 30 48 49
f 30 49 50
f 30 50 45
f 30 33 32
f 30 32 51
f 30 51 46
f 31 43 32
f 32 43 52
f 32 52 53
f 32 53 51
f 34 42 54
f 34 54 35
f 35 54 55
f 35 55 56
f 35 56 44
f 36 57 58
f 36 58 37
f 37 58 57
f 37 57 59
f 37 59 60
f 37 60 38
f 38 61 39
f 38 60 61
f 39 61 62
f 39 62 63
f 39 63 40
f 40 63 64
f 40 64 65
f 40 65 41
f 41 65 54
f 41 54 42
f 43 44 66
f 43 66 52
f 44 56 66
f 46 67 47
f 46 51 66
f 46 66 67
f 47 68 48
f 47 67 68
f 48 50 49
f 51 53 66
f 52 66 53
f 54 69 70
f 54 70 71
f 54 71 55
f 54 65 64
f 54 64 72
f 54 72 69
f 55 71 73
f 55 73 74
f 55 74 56
f 56 74 75
f 56 75 66
f 59 76 77
f 59 77 78
f 59 78 61
f 59 61 60
f 61 78 79
f 61 79 62
f 62 79 80
f 62 80 81
f 62 81 63
f 63 81 82
f 63 82 72
f 63 72 64
f 66 75 83
f 66 83 84
f 66 84 85
f 66 85 86
f 66 86 87
f 66 87 88
f 66 88 67
f 67 88 89
f 67 89 90
f 67 90 68
f 68 90 91
f 69 92 93
f 69 93 70
f 69 72 94
f 69 94 92
f 70 93 95
f 70 95 71
f 71 95 73
f 72 82 108
f 72 108 94
f 73 95 96
f 73 96 97
f 73 97 74
f 74 97 98
f 74 98 99
f 74 99 75
f 75 99 100
f 75 100 83
f 76 101 102
f 76 102 77
f 77 102 103
f 77 103 104
f 77 104 105
f 77 105 78
f 78 105 79
f 79 105 80
f 80 105 106
f 80 106 81
f 81 106 107
f 81 107 82
f 82 107 108
f 83 100 109
f 83 109 110
f 83 110 111
f 83 111 84
f 84 111 112
f 84 112 85
f 85 112 113
f 85 113 86
f 86 113 151
f 86 151 114
f 86 114 115
f 86 115 89
f 86 89 88
f 86 88 87
f 89 91 90
f 89 115 91
f 91 115 117
f 91 117 118
f 91 118 116
f 92 119 120
f 92 120 93
f 92 94 121
f 92 121 119
f 93 120 95
f 94 108 121
f 95 122 123
f 95 123 96
f 95 120 122
f 96 123 124
f 96 124 125
f 96 125 97
f 97 125 98
f 98 125 126
f 98 126 127
f 98 127 128
f 98 128 99
f 99 128 100
f 100 128 129
f 100 129 109
f 101 130 102
f 102 130 131
f 102 131 132
f 102 132 133
f 102 133 134
f 102 134 135
f 102 135 103
f 103 135 136
f 103 136 104
f 104 136 137
f 104 137 138
f 104 138 105
f 105 138 139
f 105 139 140
f 105 140 141
f 105 141 142
f 105 142 143
f 105 143 106
f 106 143 107
f 107 143 144
f 107 144 145
f 107 145 146
f 107 146 108
f 108 146 121
f 109 147 110
f 109 129 147
f 110 147 148
f 110 148 149
f 110 149 111
f 111 149 150
f 111 150 113
f 111 113 112
f 113 150 152
f 113 152 153
f 113 153 151
f 114 117 115
f 114 151 117
f 116 118 117
f 116 117 155
f 116 155 154
f 117 151 156
f 117 156 155
f 119 145 157
f 119 157 120
f 119 121 146
f 119 146 145
f 120 157 158
f 120 158 122
f 122 158 123
f 123 158 159
f 123 159 124
f 124 160 161
f 124 161 125
f 124 159 160
f 125 161 126
f 126 161 162
f 126 162 163
f 126 163 164
f 126 164 165
f 126 165 127
f 127 129 128
f 127 165 148
f 127 148 147
f 127 147 129
f 131 166 167
f 131 167 168
f 131 168 169
f 131 169 170
f 131 170 171
f 131 171 132
f 132 171 136
f 132 136 133
f 133 136 134
f 134 136 135
f 136 171 199
f 136 199 172
f 136 172 173
f 136 173 137
f 137 173 174
f 137 174 175
f 137 175 138
f 138 175 176
f 138 176 139
f 139 176 177
f 139 177 178
f 139 178 140
f 140 178 179
f 140 179 141
f 141 179 180
f 141 180 142
f 142 180 159
f 142 159 144
f 142 144 143
f 144 159 158
f 144 158 157
f 144 157 145
f 148 165 164
f 148 164 181
f 148 181 149
f 149 181 152
f 149 152 150
f 151 153 182
f 151 182 156
f 152 181 183
f 152 183 184
f 152 184 185
f 152 185 153
f 153 185 182
f 154 155 186
f 155 156 187
f 155 187 188
f 155 188 186
f 156 182 189
f 156 189 187
f 159 180 160
f 160 190 161
f 160 180 190
f 161 190 191
f 161 191 162
f 162 192 163
f 162 191 193
f 162 193 192
f 163 192 194
f 163 194 164
f 164 194 195
f 164 195 181
f 166 196 167
f 167 196 197
f 167 197 168
f 168 197 198
f 168 198 169
f 169 198 199
f 169 199 170
f 170 199 171
f 172 199 200
f 172 200 201
f 172 201 202
f 172 202 173
f 173 203 174
f 173 202 203
f 174 203 204
f 174 204 205
f 174 205 175
f 175 205 176
f 176 205 191
f 176 191 177
f 177 191 190
f 177 190 178
f 178 190 179
f 179 190 180
f 181 195 183
f 182 206 189
f 182 185 206
f 183 195 207
f 183 207 208
f 183 208 209
f 183 209 184
f 184 209 185
f 185 209 210
f 185 210 211
f 185 211 212
f 185 212 232
f 185 232 206
f 187 189 213
f 187 213 214
f 187 214 188
f 189 215 213
f 189 206 215
f 191 205 216
f 191 216 193
f 192 193 217
f 192 217 218
f 192 218 219
f 192 219 195
f 192 195 194
f 193 216 217
f 195 219 207
f 196 220 221
f 196 221 197
f 197 222 223
f 197 223 224
f 197 224 198
f 197 221 222
f 198 224 225
f 198 225 226
f 198 226 199
f 199 226 225
f 199 225 200
f 200 225 227
f 200 227 201
f 201 227 228
f 201 228 202
f 202 228 229
f 202 229 230
f 202 230 203
f 203 231 204
f 203 230 231
f 204 231 216
f 204 216 205
f 206 232 233
f 206 233 215
f 207 219 234
f 207 234 235
f 207 235 236
f 207 236 208
f 208 236 209
f 209 236 237
f 209 237 210
f 210 237 238
f 210 238 211
f 211 238 239
f 211 239 212
f 212 239 240
f 212 240 232
f 213 215 241
f 213 241 242
f 213 242 214
f 214 242 243
f 215 233 244
f 215 244 241
f 216 231 217
f 217 231 234
f 217 234 218
f 218 234 219
f 220 245 221
f 221 245 222
f 222 245 246
f 222 246 247
f 222 247 248
f 222 248 223
f 223 248 224
f 224 248 227
f 224 227 225
f 227 248 239
f 227 239 238
f 227 238 237
f 227 237 228
f 228 237 236
f 228 236 229
f 229 236 230
f 230 236 235
f 230 235 234
f 230 234 231
f 232 240 249
f 232 249 233
f 233 249 250
f 233 250 244
f 239 248 240
f 240 248 247
f 240 247 249
f 241 251 242
f 241 244 251
f 242 251 252
f 242 252 243
f 243 252 253
f 244 255 251
f 244 250 256
f 244 256 254
f 245 254 257
f 245 257 246
f 246 257 247
f 247 258 249
f 247 257 254
f 247 254 258
f 249 258 256
f 249 256 250
f 251 255 259
f 251 259 252
f 252 259 253
f 254 256 258

