# https://github.com/mikedh/trimesh
v -0.36841191 0.66648445 0.79206195
v -0.36841191 0.68250313 0.79198370
v -0.36876143 0.66647323 0.79206195
v -0.36860997 0.66647323 0.79206195
v -0.36841191 0.66647323 0.67067433
v -0.36860997 0.68231278 0.79198370
v -0.36841191 0.71386880 0.79174894
v -0.43133986 0.66662992 0.79174894
v -0.41566907 0.66662992 0.79182720
v -0.43149132 0.66647323 0.79174894
v -0.36841191 0.66647323 0.31676401
v -0.36841191 0.74523452 0.79143584
v -0.43133986 0.72936135 0.79120109
v -0.44717381 0.66647323 0.79151409
v -0.38404777 0.66647323 0.31512047
v -0.43133986 0.67858519 0.02491713
v -0.41566907 0.67870832 0.02491713
v -0.39997494 0.68066729 0.02491713
v -0.38981509 0.68634267 0.02491713
v -0.38751982 0.69799564 0.02491713
v -0.36841191 0.66662992 0.31676401
v -0.36841191 0.76087259 0.79112283
v -0.43133986 0.74504421 0.79096624
v -0.44702235 0.72936135 0.79096624
v -0.46285629 0.66647323 0.79120109
v -0.38679746 0.66647323 0.31512047
v -0.44702235 0.67854041 0.02491713
v -0.44702235 0.68432775 0.01059480
v -0.43133986 0.68433892 0.01082961
v -0.41566907 0.68442848 0.01145572
v -0.39997494 0.68540238 0.01278621
v -0.39057242 0.68758521 0.01489935
v -0.38980345 0.69799564 0.01364710
v -0.38986170 0.72936135 0.01333405
v -0.38763633 0.74504421 0.02491713
v -0.36841191 0.68231278 0.31723360
v -0.36841191 0.77230174 0.78830529
v -0.46270483 0.77180919 0.78783569
v -0.46270483 0.76072707 0.79026187
v -0.46270483 0.74504421 0.79049672
v -0.46270483 0.72936135 0.79065323
v -0.47712898 0.74504421 0.78799219
v -0.47776981 0.66647323 0.78830529
v -0.39857678 0.66647323 0.31770318
v -0.46270483 0.67860758 0.02491713
v -0.46270483 0.68441726 0.01114266
v -0.44702235 0.69192848 0.00276840
v -0.43133986 0.69322698 0.00300318
v -0.43133986 0.70107402 -0.00177090
v -0.39997494 0.69799564 0.00793383
v -0.38985006 0.71367850 0.01341232
v -0.39997494 0.71367850 0.00707292
v -0.38986170 0.74504421 0.01372538
v -0.39997494 0.72936135 0.00691639
v -0.39036270 0.76072707 0.01482107
v -0.38841696 0.76072707 0.02491713
v -0.36841191 0.77043234 0.32795578
v -0.36841191 0.77032039 0.32787752
v -0.36841191 0.76072707 0.32279035
v -0.36841191 0.74504421 0.32028590
v -0.36841191 0.69799564 0.31793797
v -0.36841191 0.77792112 0.77773962
v -0.46270483 0.77722714 0.77773962
v -0.47456573 0.77071216 0.78705307
v -0.47680274 0.76072707 0.78783569
v -0.48512167 0.72936135 0.78102672
v -0.48561105 0.66647323 0.78235722
v -0.40134977 0.66647323 0.31942499
v -0.47822418 0.68442848 0.02491713
v -0.47554444 0.68637623 0.01349057
v -0.40937744 0.66647323 0.32795578
v -0.48646154 0.66647323 0.69008382
v -0.46270483 0.69476056 0.00331624
v -0.44702235 0.69977552 -0.00302312
v -0.43133986 0.71367850 -0.00576241
v -0.42105191 0.70355911 0.00010743
v -0.41891971 0.71367850 -0.00137964
v -0.41839541 0.72936135 -0.00184915
v -0.39997494 0.74504421 0.00777731
v -0.39128314 0.76946962 0.01607329
v -0.39997494 0.76072707 0.01059480
v -0.39065399 0.77014126 0.02491713
v -0.36841191 0.77226813 0.33844317
v -0.36841191 0.78023830 0.76200855
v -0.36860997 0.78023830 0.76200855
v -0.44702235 0.77986892 0.76200855
v -0.46270483 0.77977935 0.76200855
v -0.47923786 0.77211144 0.77664393
v -0.48631009 0.76873085 0.77061761
v -0.48465562 0.76072707 0.77961798
v -0.48497022 0.74504421 0.78055714
v -0.48649651 0.74504421 0.77273074
v -0.48653147 0.72936135 0.77312205
v -0.48655475 0.71367850 0.77343510
v -0.48658972 0.66647323 0.77437427
v -0.48638002 0.68991356 0.04330920
v -0.48622856 0.69022699 0.03282181
v -0.48606542 0.69267847 0.02491713
v -0.48633341 0.70391732 0.01685593
v -0.47838732 0.69949566 0.00996869
v -0.47075578 0.70554047 0.00120315
v -0.46270483 0.70260760 -0.00091003
v -0.48689268 0.66647323 0.69916247
v -0.46270483 0.71367850 -0.00451019
v -0.44702235 0.71367850 -0.00740598
v -0.43133986 0.72936135 -0.00623201
v -0.42034119 0.74113750 -0.00051868
v -0.43601199 0.75444723 0.00034219
v -0.39997494 0.77048830 0.01482107
v -0.39997494 0.77269352 0.02491713
v -0.43100199 0.74583903 -0.00208400
v -0.36841191 0.77229053 0.33859970
v -0.36841191 0.78024952 0.76185202
v -0.36860997 0.78077564 0.74635572
v -0.46270483 0.78027191 0.74635572
v -0.47839896 0.77464127 0.76200855
v -0.47839896 0.77527934 0.74635572
v -0.48647323 0.76906667 0.76200855
v -0.48716062 0.76072707 0.74635572
v -0.48683439 0.76072707 0.76200855
v -0.48641498 0.76072707 0.77179155
v -0.48699753 0.74504421 0.76200855
v -0.48705577 0.72936135 0.76200855
v -0.48707910 0.71367850 0.76200855
v -0.48712570 0.66647323 0.76185202
v -0.48649651 0.68972326 0.05630106
v -0.48698589 0.69799564 0.05630106
v -0.48664796 0.69647327 0.03908293
v -0.48724219 0.66647323 0.71481529
v -0.48647323 0.70052551 0.02491713
v -0.48693928 0.71367850 0.04056996
v -0.48660141 0.71367850 0.02491713
v -0.48632177 0.71367850 0.01685593
v -0.48190595 0.72855541 0.01075133
v -0.47302775 0.72936135 -0.00083178
v -0.47216558 0.71367850 -0.00012742
v -0.46270483 0.72936135 -0.00529280
v -0.44702235 0.72936135 -0.00748423
v -0.44702235 0.74504421 -0.00419709
v -0.44702235 0.75480544 0.00018569
v -0.44702235 0.76265248 0.00550765
v -0.41566907 0.77103681 0.01372538
v -0.41566907 0.77361146 0.02491713
v -0.39997494 0.77302934 0.04056996
v -0.36841191 0.78083160 0.73062464
v -0.36841191 0.78077564 0.74635572
v -0.46270483 0.78029430 0.73062464
v -0.47839896 0.77541369 0.73062464
v -0.48663632 0.76944727 0.74635572
v -0.48669462 0.76955918 0.73062464
v -0.48731212 0.74504421 0.74635572
v -0.48725383 0.76072707 0.73062464
v -0.48735868 0.72936135 0.74635572
v -0.48737037 0.71367850 0.74635572
v -0.48738201 0.66662992 0.74635572
v -0.48738201 0.66647323 0.74635572
v -0.48655475 0.68962252 0.07195388
v -0.48716062 0.69799564 0.08760669
v -0.48709074 0.69799564 0.07195388
v -0.48740534 0.66647323 0.73046812
v -0.48712570 0.71367850 0.05630106
v -0.48693928 0.72936135 0.05630106
v -0.48672953 0.72936135 0.04056996
v -0.48638002 0.72855541 0.02452583
v -0.48618196 0.73324573 0.01904734
v -0.48625184 0.72280164 0.01701246
v -0.47747854 0.76072707 0.01169050
v -0.47750182 0.74520095 0.00809036
v -0.47190927 0.74008526 0.00018569
v -0.46232035 0.74520095 -0.00145789
v -0.45683266 0.75388754 0.00081180
v -0.46232035 0.75976440 0.00503806
v -0.46270483 0.77081294 0.01325579
v -0.43133986 0.77096964 0.01341232
v -0.46270483 0.77315247 0.02491713
v -0.46270483 0.77356668 0.05630106
v -0.46270483 0.77375693 0.07195388
v -0.41566907 0.77377937 0.04056996
v -0.46270483 0.77392484 0.08760669
v -0.47675613 0.77084651 0.02491713
v -0.47750182 0.77123828 0.08760669
v -0.47775812 0.77130546 0.10333779
v -0.47793291 0.77137263 0.11899061
v -0.48579747 0.76620098 0.13472169
v -0.48660141 0.75815247 0.11899061
v -0.48661304 0.75835394 0.13472169
v -0.48739365 0.74504421 0.73062464
v -0.48712570 0.74504421 0.15037451
v -0.48742861 0.72936135 0.73062464
v -0.48742861 0.68231278 0.73062464
v -0.48740534 0.66647323 0.73062464
v -0.48725383 0.69799564 0.11899061
v -0.48728880 0.71367850 0.08760669
v -0.48721891 0.71367850 0.07195388
v -0.48732376 0.71367850 0.10333779
v -0.48727716 0.69799564 0.15037451
v -0.48705577 0.72936135 0.07195388
v -0.48693928 0.74504421 0.08760669
v -0.48681111 0.74504421 0.07195388
v -0.48665965 0.74504421 0.05630106
v -0.48641498 0.74553677 0.04033518
v -0.48631009 0.74064499 0.02953473
v -0.48607706 0.74553677 0.02452583
v -0.48443428 0.76072707 0.02491713
v -0.47474046 0.77006291 0.01442974
v -0.46729539 0.75054051 0.00206402
v -0.48559937 0.76523830 0.10333779
v -0.48577415 0.76599951 0.11899061
v -0.48706741 0.74504421 0.11899061
v -0.48710238 0.74504421 0.13472169
v -0.48656644 0.75739126 0.10333779
v -0.48700917 0.74504421 0.10333779
v -0.48725383 0.72936135 0.13472169
v -0.48723055 0.72936135 0.11899061
v -0.48719559 0.72936135 0.10333779
v -0.48714898 0.72936135 0.08760669
v -0.48651983 0.75647337 0.08760669
v -0.48644990 0.75530917 0.07195388
v -0.48635669 0.75421214 0.05630106
v -0.48628681 0.75349572 0.04542234
v -0.48619360 0.75110020 0.03501322
f 1 2 3
f 1 3 4
f 1 4 5
f 1 5 11
f 1 11 21
f 1 21 36
f 1 36 61
f 1 61 60
f 1 60 59
f 1 59 58
f 1 58 57
f 1 57 83
f 1 83 112
f 1 112 145
f 1 145 146
f 1 146 113
f 1 113 84
f 1 84 62
f 1 62 37
f 1 37 22
f 1 22 12
f 1 12 7
f 1 7 2
f 2 6 3
f 2 7 8
f 2 8 6
f 3 6 9
f 3 9 10
f 3 10 14
f 3 14 25
f 3 25 43
f 3 43 67
f 3 67 95
f 3 95 125
f 3 125 156
f 3 156 191
f 3 191 160
f 3 160 129
f 3 129 103
f 3 103 72
f 3 72 71
f 3 71 68
f 3 68 44
f 3 44 26
f 3 26 15
f 3 15 11
f 3 11 5
f 3 5 4
f 6 8 9
f 7 12 13
f 7 13 8
f 8 10 9
f 8 13 10
f 10 13 24
f 10 24 14
f 11 15 16
f 11 16 17
f 11 17 18
f 11 18 19
f 11 19 20
f 11 20 21
f 12 22 23
f 12 23 13
f 13 23 39
f 13 39 40
f 13 40 24
f 14 24 41
f 14 41 25
f 15 26 27
f 15 27 16
f 16 27 28
f 16 28 29
f 16 29 17
f 17 29 30
f 17 30 31
f 17 31 18
f 18 31 32
f 18 32 19
f 19 32 20
f 20 32 33
f 20 33 34
f 20 34 35
f 20 35 36
f 20 36 21
f 22 37 38
f 22 38 39
f 22 39 23
f 24 40 41
f 25 41 42
f 25 42 43
f 26 44 45
f 26 45 27
f 27 45 28
f 28 45 46
f 28 46 47
f 28 47 29
f 29 47 30
f 30 47 48
f 30 48 31
f 31 48 49
f 31 49 50
f 31 50 32
f 32 50 33
f 33 51 34
f 33 50 52
f 33 52 51
f 34 53 35
f 34 51 54
f 34 54 53
f 35 53 55
f 35 55 56
f 35 56 57
f 35 57 58
f 35 58 59
f 35 59 60
f 35 60 61
f 35 61 36
f 37 62 63
f 37 63 38
f 38 64 39
f 38 63 64
f 39 64 65
f 39 65 40
f 40 65 42
f 40 42 41
f 42 65 66
f 42 66 67
f 42 67 43
f 44 68 45
f 45 69 70
f 45 70 46
f 45 68 71
f 45 71 72
f 45 72 69
f 46 73 47
f 46 70 73
f 47 73 74
f 47 74 48
f 48 74 49
f 49 74 75
f 49 75 76
f 49 76 50
f 50 76 75
f 50 75 77
f 50 77 52
f 51 52 54
f 52 77 78
f 52 78 54
f 53 54 79
f 53 79 55
f 54 78 79
f 55 80 56
f 55 79 81
f 55 81 80
f 56 80 82
f 56 82 57
f 57 82 83
f 62 84 85
f 62 85 86
f 62 86 87
f 62 87 63
f 63 87 88
f 63 88 64
f 64 88 89
f 64 89 90
f 64 90 65
f 65 90 91
f 65 91 66
f 66 91 92
f 66 92 67
f 67 92 93
f 67 93 94
f 67 94 95
f 69 96 97
f 69 97 98
f 69 98 70
f 69 72 96
f 70 98 99
f 70 99 100
f 70 100 101
f 70 101 102
f 70 102 73
f 72 103 96
f 73 102 74
f 74 104 105
f 74 105 75
f 74 102 104
f 75 105 106
f 75 106 78
f 75 78 77
f 78 106 107
f 78 107 79
f 79 107 81
f 80 81 108
f 80 108 109
f 80 109 110
f 80 110 82
f 81 107 111
f 81 111 108
f 82 110 112
f 82 112 83
f 84 113 85
f 85 113 86
f 86 113 114
f 86 114 115
f 86 115 87
f 87 116 88
f 87 115 117
f 87 117 116
f 88 116 89
f 89 116 118
f 89 118 119
f 89 119 120
f 89 120 121
f 89 121 90
f 90 121 91
f 91 121 92
f 92 121 122
f 92 122 123
f 92 123 93
f 93 123 94
f 94 123 95
f 95 123 124
f 95 124 125
f 96 126 127
f 96 127 128
f 96 128 97
f 96 103 129
f 96 129 126
f 97 130 98
f 97 128 130
f 98 130 99
f 99 130 131
f 99 131 132
f 99 132 133
f 99 133 134
f 99 134 135
f 99 135 136
f 99 136 100
f 100 136 101
f 101 136 104
f 101 104 102
f 104 137 105
f 104 136 135
f 104 135 137
f 105 138 106
f 105 137 138
f 106 138 139
f 106 139 111
f 106 111 107
f 108 111 139
f 108 139 140
f 108 140 141
f 108 141 142
f 108 142 109
f 109 142 143
f 109 143 110
f 110 143 144
f 110 144 145
f 110 145 112
f 113 146 114
f 114 146 145
f 114 145 115
f 115 145 147
f 115 147 148
f 115 148 117
f 116 117 118
f 117 149 118
f 117 148 150
f 117 150 149
f 118 149 119
f 119 151 122
f 119 122 120
f 119 149 152
f 119 152 151
f 120 122 121
f 122 151 123
f 123 151 153
f 123 153 124
f 124 153 125
f 125 153 154
f 125 154 155
f 125 155 156
f 126 157 158
f 126 158 159
f 126 159 127
f 126 129 160
f 126 160 157
f 127 161 131
f 127 131 130
f 127 130 128
f 127 159 161
f 131 161 162
f 131 162 163
f 131 163 132
f 132 163 164
f 132 164 165
f 132 165 166
f 132 166 133
f 133 166 134
f 134 166 165
f 134 165 167
f 134 167 168
f 134 168 135
f 135 168 169
f 135 169 137
f 137 169 170
f 137 170 139
f 137 139 138
f 139 170 171
f 139 171 140
f 140 171 172
f 140 172 141
f 141 172 173
f 141 173 174
f 141 174 142
f 142 174 143
f 143 174 173
f 143 173 175
f 143 175 176
f 143 176 177
f 143 177 179
f 143 179 178
f 143 178 145
f 143 145 144
f 145 178 147
f 147 178 179
f 147 179 180
f 147 180 181
f 147 181 182
f 147 182 183
f 147 183 148
f 148 183 184
f 148 184 150
f 149 150 152
f 150 184 185
f 150 185 186
f 150 186 152
f 151 152 187
f 151 187 153
f 152 186 185
f 152 185 188
f 152 188 187
f 153 187 189
f 153 189 154
f 154 189 155
f 155 189 190
f 155 190 156
f 156 190 191
f 157 160 158
f 158 192 193
f 158 193 194
f 158 194 159
f 158 160 192
f 159 194 161
f 160 191 190
f 160 190 195
f 160 195 196
f 160 196 192
f 161 194 216
f 161 216 197
f 161 197 162
f 162 197 198
f 162 198 199
f 162 199 200
f 162 200 163
f 163 200 201
f 163 201 202
f 163 202 164
f 164 202 165
f 165 202 203
f 165 203 204
f 165 204 167
f 167 204 205
f 167 205 206
f 167 206 169
f 167 169 168
f 169 206 170
f 170 206 171
f 171 206 172
f 172 206 205
f 172 205 173
f 173 205 175
f 175 205 180
f 175 180 176
f 176 180 177
f 177 180 179
f 180 205 204
f 180 204 207
f 180 207 208
f 180 208 182
f 180 182 181
f 182 208 184
f 182 184 183
f 184 208 185
f 185 209 210
f 185 210 188
f 185 208 211
f 185 211 212
f 185 212 209
f 187 188 213
f 187 213 195
f 187 195 189
f 188 210 214
f 188 214 213
f 189 195 190
f 192 196 195
f 192 195 193
f 193 195 214
f 193 214 215
f 193 215 216
f 193 216 194
f 195 213 214
f 197 216 198
f 198 216 212
f 198 212 211
f 198 211 217
f 198 217 218
f 198 218 199
f 199 218 219
f 199 219 220
f 199 220 200
f 200 220 201
f 201 220 221
f 201 221 202
f 202 221 203
f 203 221 204
f 204 221 220
f 204 220 207
f 207 220 208
f 208 220 218
f 208 218 217
f 208 217 211
f 209 214 210
f 209 212 216
f 209 216 215
f 209 215 214
f 218 220 219

