# https://github.com/mikedh/trimesh
v 0.25879922 0.77324974 0.33857055
v 0.22738489 0.77322885 0.33857055
v 0.36430267 0.77090854 0.35307829
v 0.29014185 0.77320795 0.33857055
v 0.36430267 0.77129522 0.32841466
v -0.35284816 0.77060544 0.32782356
v -0.35284816 0.77250766 0.33856124
v 0.36430267 0.76072838 0.35954324
v 0.36430267 0.77303027 0.33857055
v -0.35284816 0.77047998 0.34944321
v 0.36430267 0.77057407 0.32492387
v -0.36841189 0.76071791 0.32277354
v -0.36841189 0.77043819 0.32792596
v -0.36841189 0.77225682 0.33844023
v -0.36841189 0.77227772 0.33856124
v -0.36841189 0.77044866 0.34910810
v 0.36430267 0.74871916 0.36270823
v -0.32150553 0.76071791 0.35521466
v -0.36841189 0.77041729 0.34924307
v -0.33721270 0.76071791 0.35509364
v 0.36430267 0.76251565 0.32099091
v -0.36841189 0.74502963 0.32022293
v 0.36430267 0.76072838 0.32027413
v 0.36430267 0.74504010 0.36362980
v -0.36841189 0.76084333 0.35432567
v -0.35284816 0.76071791 0.35482369
v -0.33721270 0.74502963 0.35768614
v -0.32150553 0.74502963 0.35791420
v -0.36841189 0.69800658 0.31791435
v 0.36430267 0.74504010 0.31917104
v 0.36430267 0.73489131 0.36391838
v -0.36841189 0.76071791 0.35438618
v -0.32150553 0.72935182 0.35805849
v -0.36841189 0.74502963 0.35676922
v -0.36841189 0.72953992 0.35687162
v -0.33721270 0.72935182 0.35778388
v -0.27459918 0.66648370 0.35931052
v -0.27445574 0.66663001 0.35931052
v -0.25889201 0.66648370 0.35945016
v 0.36430267 0.71965244 0.36423953
v -0.36841189 0.68213014 0.31720689
v 0.36430267 0.68253776 0.31979938
v -0.36841189 0.66648370 0.31675075
v -0.36841189 0.72935182 0.35687162
v -0.33721270 0.71368443 0.35780716
v -0.29009117 0.66663001 0.35894283
v -0.29009117 0.66648370 0.35894283
v 0.00769962 0.66647323 0.36017624
v -0.18049958 0.66648370 0.35992025
v 0.36430267 0.70377601 0.36415575
v 0.36430267 0.71369486 0.36429538
v 0.36430267 0.66651502 0.32172630
v 0.32162793 0.66647323 0.32129810
v 0.30592074 0.66647323 0.32116777
v 0.00031223 0.66647323 0.34165641
v -0.36841189 0.66648370 0.35581508
v 0.29028531 0.66647323 0.32109796
v 0.22752833 0.66647323 0.32086524
v 0.21182116 0.66647323 0.32085593
v 0.21167770 0.66647323 0.32085593
v 0.18040680 0.66647323 0.32087455
v 0.16469963 0.66647323 0.32088851
v 0.14899246 0.66647323 0.32092575
v 0.10194266 0.66647323 0.32105607
v 0.08623548 0.66647323 0.32110261
v 0.07067176 0.66647323 0.32114916
v 0.00784306 0.66647323 0.32138188
v -0.36841189 0.71387254 0.35683904
v -0.33721270 0.69800658 0.35777923
v -0.32150553 0.66648370 0.35817020
v -0.32150553 0.68231829 0.35817951
v 0.08609204 0.66647323 0.36019951
v 0.36430267 0.69800658 0.36398353
v -0.02364301 0.66648370 0.36016228
v -0.03935018 0.66648370 0.36014832
v -0.10210715 0.66648370 0.36009246
v -0.16472068 0.66648370 0.35997610
v -0.32164897 0.66648370 0.35816554
v -0.33721270 0.66648370 0.35764425
v -0.35284816 0.66648370 0.35677388
v 0.36430267 0.66647323 0.33188684
v 0.35304227 0.66647323 0.32171699
v 0.35289883 0.66647323 0.32171234
v 0.33719166 0.66647323 0.32146566
v -0.33721270 0.68231829 0.35772803
v 0.10194266 0.66647323 0.36019951
v 0.14899246 0.66647323 0.36015762
v 0.19604226 0.66647323 0.36011108
v 0.21153426 0.66647323 0.36009246
v 0.36430267 0.66647323 0.35985974
f 1 2 3
f 1 3 4
f 1 4 5
f 1 5 2
f 2 5 6
f 2 6 7
f 2 7 3
f 3 8 17
f 3 17 24
f 3 24 31
f 3 31 40
f 3 40 51
f 3 51 50
f 3 50 73
f 3 73 90
f 3 90 81
f 3 81 52
f 3 52 42
f 3 42 30
f 3 30 23
f 3 23 21
f 3 21 11
f 3 11 5
f 3 5 9
f 3 9 4
f 3 7 10
f 3 10 8
f 4 9 5
f 5 11 6
f 6 12 13
f 6 13 7
f 6 11 12
f 7 13 14
f 7 14 15
f 7 15 16
f 7 16 10
f 8 10 18
f 8 18 17
f 10 16 19
f 10 19 20
f 10 20 18
f 11 21 12
f 12 22 29
f 12 29 41
f 12 41 43
f 12 43 56
f 12 56 68
f 12 68 44
f 12 44 35
f 12 35 34
f 12 34 32
f 12 32 25
f 12 25 19
f 12 19 16
f 12 16 15
f 12 15 14
f 12 14 13
f 12 21 23
f 12 23 22
f 17 18 24
f 18 20 24
f 19 25 26
f 19 26 20
f 20 26 27
f 20 27 28
f 20 28 24
f 22 23 30
f 22 30 29
f 24 28 31
f 25 32 26
f 26 32 27
f 27 33 28
f 27 32 34
f 27 34 35
f 27 35 36
f 27 36 37
f 27 37 33
f 28 33 37
f 28 37 38
f 28 38 39
f 28 39 40
f 28 40 31
f 29 30 41
f 30 42 43
f 30 43 41
f 35 44 45
f 35 45 36
f 36 45 37
f 37 39 38
f 37 45 46
f 37 46 47
f 37 47 48
f 37 48 39
f 39 48 49
f 39 49 50
f 39 50 51
f 39 51 40
f 42 52 53
f 42 53 54
f 42 54 43
f 43 55 56
f 43 54 57
f 43 57 58
f 43 58 59
f 43 59 60
f 43 60 61
f 43 61 62
f 43 62 63
f 43 63 64
f 43 64 65
f 43 65 66
f 43 66 67
f 43 67 55
f 44 68 69
f 44 69 45
f 45 69 70
f 45 70 71
f 45 71 47
f 45 47 46
f 47 71 70
f 47 70 48
f 48 72 73
f 48 73 74
f 48 74 75
f 48 75 76
f 48 76 77
f 48 77 49
f 48 70 78
f 48 78 79
f 48 79 80
f 48 80 56
f 48 56 55
f 48 55 67
f 48 67 66
f 48 66 65
f 48 65 64
f 48 64 63
f 48 63 62
f 48 62 61
f 48 61 60
f 48 60 59
f 48 59 58
f 48 58 57
f 48 57 54
f 48 54 53
f 48 53 84
f 48 84 83
f 48 83 82
f 48 82 81
f 48 81 90
f 48 90 89
f 48 89 88
f 48 88 87
f 48 87 86
f 48 86 72
f 49 77 73
f 49 73 50
f 52 81 82
f 52 82 83
f 52 83 84
f 52 84 53
f 56 80 68
f 68 80 79
f 68 79 85
f 68 85 69
f 69 85 70
f 70 85 78
f 72 86 73
f 73 77 76
f 73 76 75
f 73 75 74
f 73 86 87
f 73 87 88
f 73 88 89
f 73 89 90
f 78 85 79

