# https://github.com/mikedh/trimesh
v -0.41566804 -0.78853162 0.22873686
v -0.46271217 -0.78803088 0.05623433
v -0.46271217 -0.78803088 0.02487392
v -0.41566804 -0.78850778 0.19741691
v -0.39997503 -0.78757792 0.15035605
v -0.39997503 -0.78773283 0.35421900
v -0.39997503 -0.78773283 0.40573102
v -0.41123408 -0.78822170 0.40573102
v -0.41566804 -0.78841242 0.40573102
v -0.47653643 -0.78613535 0.05623433
v -0.47659444 -0.78614732 0.02487392
v -0.46271217 -0.78781632 0.33855902
v -0.47604892 -0.78596847 0.40573102
v -0.47459803 -0.78551541 0.01402929
v -0.46271217 -0.78613535 0.01249160
v -0.41566804 -0.78809053 0.02487392
v -0.41566804 -0.78818589 0.05623433
v -0.41566804 -0.78840045 0.13469607
v -0.41566804 -0.78846010 0.16605648
v -0.41566804 -0.78848394 0.18171646
v -0.39997503 -0.78755408 0.13469607
v -0.36871674 -0.78288078 0.33855902
v -0.39088657 -0.78555122 0.40573102
v -0.46271217 -0.78774480 0.40573102
v -0.46271217 -0.78775667 0.40127986
v -0.48441773 -0.77880359 0.04057435
v -0.48444097 -0.77862474 0.02487392
v -0.48410435 -0.77897047 0.18171646
v -0.48431326 -0.77893471 0.07193476
v -0.48437131 -0.77889895 0.05623433
v -0.47826592 -0.78391793 0.40573102
v -0.47925253 -0.77568009 0.01208697
v -0.46271217 -0.77640731 0.00500558
v -0.48636777 -0.76995773 0.01661905
v -0.44701922 -0.78613535 0.01241068
v -0.44701922 -0.77640731 0.00468186
v -0.43133781 -0.78614732 0.01245114
v -0.41566804 -0.78615919 0.01253208
v -0.39997503 -0.78574194 0.01354370
v -0.39997503 -0.78725603 0.02487392
v -0.39997503 -0.78751827 0.11899564
v -0.36871674 -0.78282118 0.33835669
v -0.36871674 -0.77541780 0.34976784
v -0.39106068 -0.78533665 0.02487392
v -0.39140888 -0.78497896 0.01536463
v -0.38889012 -0.77640731 0.40573102
v -0.48651867 -0.77109029 0.07193476
v -0.48650703 -0.77105453 0.05623433
v -0.48653026 -0.77083992 0.40573102
v -0.48654185 -0.77085184 0.38557941
v -0.48656508 -0.77110221 0.21307689
v -0.48656508 -0.77111413 0.19741691
v -0.48656508 -0.77112605 0.18171646
v -0.48648384 -0.77095912 0.04057435
v -0.48646061 -0.77078032 0.02487392
v -0.48389540 -0.77868434 0.40573102
v -0.48578738 -0.77305734 0.40573102
v -0.47319351 -0.74504150 -0.00045721
v -0.47142924 -0.75517491 0.00091861
v -0.46271217 -0.75840564 -0.00106420
v -0.44701922 -0.76056346 -0.00292561
v -0.48648384 -0.76073039 0.01629533
v -0.48195700 -0.72935266 0.00832372
v -0.48104004 -0.74504150 0.00828323
v -0.47412211 -0.72935266 -0.00118555
v -0.48676240 -0.76073039 0.02487392
v -0.43133781 -0.77640731 0.00484370
v -0.41566804 -0.77640731 0.00528883
v -0.39997503 -0.77640731 0.00763581
v -0.36871674 -0.77606158 0.32302044
v -0.38897136 -0.77640731 0.02487392
v -0.36871674 -0.76087343 0.35320737
v -0.39054996 -0.77640731 0.01346276
v -0.38832136 -0.76515332 0.40573102
v -0.48653026 -0.77106645 0.08763520
v -0.48700618 -0.76073039 0.21307689
v -0.48698294 -0.76073039 0.18171646
v -0.48697135 -0.76073039 0.16605648
v -0.48687847 -0.76073039 0.07193476
v -0.48665792 -0.76799063 0.40573102
v -0.48698294 -0.76073039 0.38557941
v -0.48700618 -0.76073039 0.22873686
v -0.48684364 -0.76073039 0.05623433
v -0.48680882 -0.76073039 0.04057435
v -0.46271217 -0.74504150 -0.00478697
v -0.44701922 -0.74504150 -0.00741720
v -0.43133781 -0.75938323 -0.00150931
v -0.48686687 -0.74504150 0.02487392
v -0.48653026 -0.74504150 0.01613345
v -0.48651867 -0.72935266 0.01617393
v -0.48639096 -0.71368761 0.01657856
v -0.48626329 -0.70577167 0.01694276
v -0.47265958 -0.71772905 -0.00005253
v -0.46271217 -0.72935266 -0.00567724
v -0.43133781 -0.74504150 -0.00547488
v -0.39997503 -0.76073039 0.00512697
v -0.36871674 -0.77593046 0.32293951
v -0.38790350 -0.76073039 0.02487392
v -0.36871674 -0.74518459 0.35328830
v -0.38804278 -0.74504150 0.40573102
v -0.38810082 -0.76073039 0.40573102
v -0.39002762 -0.76073039 0.01232974
v -0.48721508 -0.74504150 0.40573102
v -0.48718026 -0.74504150 0.27579772
v -0.48716866 -0.74504150 0.24443730
v -0.48715707 -0.74504150 0.22873686
v -0.48699454 -0.74504150 0.08763520
v -0.48697135 -0.74504150 0.07193476
v -0.48691329 -0.74504150 0.04057435
v -0.48711060 -0.74504150 0.18171646
v -0.48697135 -0.76073039 0.40573102
v -0.48704100 -0.75629555 0.40573102
v -0.43133781 -0.72935266 -0.00632466
v -0.44701922 -0.72935266 -0.00766000
v -0.48684364 -0.72935266 0.02487392
v -0.48690170 -0.72935266 0.04057435
v -0.48658832 -0.71368761 0.02487392
v -0.47839358 -0.70288663 0.01342230
v -0.46626400 -0.70727379 0.00180883
v -0.48630971 -0.70567631 0.02487392
v -0.47839358 -0.69984662 0.02487392
v -0.46170238 -0.71297231 -0.00134748
v -0.44701922 -0.71368761 -0.00341115
v -0.41678231 -0.72935266 -0.00183302
v -0.39997503 -0.74504150 0.00484370
v -0.36871674 -0.76244708 0.31537255
v -0.38782226 -0.74504150 0.02487392
v -0.36871674 -0.76226827 0.31529161
v -0.36871674 -0.71383070 0.35332876
v -0.38804278 -0.72935266 0.40573102
v -0.38999280 -0.74504150 0.01216789
v -0.39997503 -0.72935266 0.00460092
v -0.48723831 -0.74061858 0.40573102
v -0.48728473 -0.72935266 0.40127986
v -0.48719190 -0.72935266 0.24443730
v -0.48699454 -0.72935266 0.08763520
v -0.48709901 -0.72935266 0.16605648
v -0.43153512 -0.71245970 -0.00175210
v -0.41909215 -0.71685878 -0.00057860
v -0.39997503 -0.71368761 0.00464138
v -0.48666956 -0.71368761 0.04057435
v -0.48685528 -0.71368761 0.11899564
v -0.48682045 -0.71368761 0.10329520
v -0.48678563 -0.71368761 0.08763520
v -0.46271217 -0.69413614 0.02487392
v -0.46170238 -0.70107453 0.00791904
v -0.45580589 -0.70566434 0.00124232
v -0.48636777 -0.70555706 0.04057435
v -0.47839358 -0.69967969 0.04057435
v -0.40794922 -0.66674024 0.33014229
v -0.44701922 -0.70549746 0.00108049
v -0.43689768 -0.70554514 0.00112092
v -0.38999280 -0.72935266 0.01200603
v -0.38782226 -0.72935266 0.02487392
v -0.36871674 -0.69799877 0.31452277
v -0.36871674 -0.74504150 0.31500835
v -0.36871674 -0.76144569 0.31525115
v -0.36871674 -0.71368761 0.35332876
v -0.38817047 -0.71368761 0.40573102
v -0.36871674 -0.66674024 0.35308598
v -0.39001603 -0.71368761 0.01196557
v -0.48728473 -0.72935266 0.40573102
v -0.48726150 -0.72494165 0.40573102
v -0.48714543 -0.71368761 0.40573102
v -0.48697135 -0.71368761 0.21307689
v -0.48692488 -0.71368761 0.16605648
v -0.42645117 -0.70640348 0.00160649
v -0.39997503 -0.70105069 0.01087299
v -0.39073568 -0.70338732 0.01366510
v -0.44701922 -0.69407653 0.02487392
v -0.44701922 -0.69964393 0.00921394
v -0.40084558 -0.66674024 0.32233253
v -0.39301069 -0.66674024 0.31480603
v -0.47839358 -0.69960817 0.05623433
v -0.48647220 -0.70531866 0.11899564
v -0.47839358 -0.69932204 0.11899564
v -0.47839358 -0.69939361 0.10329520
v -0.47839358 -0.69832066 0.40573102
v -0.40792599 -0.66674024 0.33944925
v -0.43153512 -0.70096725 0.00775721
v -0.41566804 -0.69995390 0.00969953
v -0.38788029 -0.71368761 0.02487392
v -0.36871674 -0.66674024 0.31452277
v -0.38963297 -0.70555706 0.40573102
v -0.36872833 -0.66674024 0.35308598
v -0.46271217 -0.69251481 0.40573102
v -0.44701922 -0.69277710 0.40573102
v -0.42009040 -0.69348043 0.40573102
v -0.41566804 -0.69359968 0.40573102
v -0.39997503 -0.69630588 0.40573102
v -0.39297587 -0.70062152 0.40573102
v -0.39021334 -0.70233821 0.40573102
v -0.48700618 -0.71121987 0.40573102
v -0.48650703 -0.70523517 0.16605648
v -0.48648384 -0.70528285 0.13469607
v -0.41566804 -0.69402885 0.02487392
v -0.39997503 -0.69625820 0.02487392
v -0.38429365 -0.66674024 0.31456324
v -0.48072666 -0.70021619 0.40573102
v -0.46713454 -0.69414806 0.40573102
v -0.40779833 -0.66674024 0.34572133
v -0.38440972 -0.66674024 0.35296458
v -0.40090363 -0.66674024 0.34916087
v -0.40151881 -0.66674024 0.34899900
v -0.48662310 -0.70500869 0.40573102
f 1 2 3
f 1 3 4
f 1 4 5
f 1 5 6
f 1 6 7
f 1 7 8
f 1 8 9
f 1 9 2
f 2 10 11
f 2 11 3
f 2 9 12
f 2 12 13
f 2 13 10
f 3 11 14
f 3 14 15
f 3 15 16
f 3 16 17
f 3 17 18
f 3 18 19
f 3 19 20
f 3 20 4
f 4 20 5
f 5 20 19
f 5 19 21
f 5 21 22
f 5 22 6
f 6 22 7
f 7 22 23
f 7 23 46
f 7 46 74
f 7 74 101
f 7 101 100
f 7 100 130
f 7 130 159
f 7 159 184
f 7 184 192
f 7 192 191
f 7 191 190
f 7 190 189
f 7 189 188
f 7 188 187
f 7 187 186
f 7 186 200
f 7 200 178
f 7 178 199
f 7 199 205
f 7 205 193
f 7 193 164
f 7 164 163
f 7 163 162
f 7 162 133
f 7 133 103
f 7 103 112
f 7 112 111
f 7 111 80
f 7 80 49
f 7 49 57
f 7 57 56
f 7 56 31
f 7 31 13
f 7 13 24
f 7 24 9
f 7 9 8
f 9 24 25
f 9 25 12
f 10 13 11
f 11 26 27
f 11 27 14
f 11 13 28
f 11 28 29
f 11 29 30
f 11 30 26
f 12 25 13
f 13 25 24
f 13 31 28
f 14 32 33
f 14 33 15
f 14 27 34
f 14 34 32
f 15 35 16
f 15 33 36
f 15 36 35
f 16 35 37
f 16 37 38
f 16 38 39
f 16 39 40
f 16 40 17
f 17 40 41
f 17 41 18
f 18 41 21
f 18 21 19
f 21 41 22
f 22 42 70
f 22 70 97
f 22 97 126
f 22 126 128
f 22 128 157
f 22 157 156
f 22 156 155
f 22 155 183
f 22 183 160
f 22 160 158
f 22 158 129
f 22 129 99
f 22 99 72
f 22 72 43
f 22 43 23
f 22 41 40
f 22 40 44
f 22 44 45
f 22 45 42
f 23 43 46
f 26 47 48
f 26 48 27
f 26 30 49
f 26 49 50
f 26 50 51
f 26 51 52
f 26 52 53
f 26 53 47
f 27 48 54
f 27 54 55
f 27 55 34
f 28 30 29
f 28 31 56
f 28 56 30
f 30 56 57
f 30 57 49
f 32 34 58
f 32 58 59
f 32 59 33
f 33 59 60
f 33 60 61
f 33 61 36
f 34 62 63
f 34 63 64
f 34 64 65
f 34 65 58
f 34 55 66
f 34 66 62
f 35 36 37
f 36 67 38
f 36 38 37
f 36 61 67
f 38 67 68
f 38 68 39
f 39 45 40
f 39 68 69
f 39 69 45
f 40 45 44
f 42 45 71
f 42 71 70
f 43 72 46
f 45 69 73
f 45 73 71
f 46 72 74
f 47 53 75
f 47 75 76
f 47 76 77
f 47 77 78
f 47 78 48
f 48 78 79
f 48 79 54
f 49 80 50
f 50 80 81
f 50 81 51
f 51 82 52
f 51 81 82
f 52 82 53
f 53 82 76
f 53 76 75
f 54 79 55
f 55 79 83
f 55 83 84
f 55 84 66
f 58 65 85
f 58 85 59
f 59 85 60
f 60 85 86
f 60 86 61
f 61 86 87
f 61 87 68
f 61 68 67
f 62 66 88
f 62 88 89
f 62 89 63
f 63 65 64
f 63 89 90
f 63 90 91
f 63 91 92
f 63 92 65
f 65 93 94
f 65 94 85
f 65 92 93
f 66 84 109
f 66 109 88
f 68 87 95
f 68 95 69
f 69 95 96
f 69 96 73
f 70 71 98
f 70 98 97
f 71 73 98
f 72 99 100
f 72 100 101
f 72 101 74
f 73 102 98
f 73 96 102
f 76 82 103
f 76 103 104
f 76 104 105
f 76 105 106
f 76 106 77
f 77 106 78
f 78 106 79
f 79 107 108
f 79 108 109
f 79 109 83
f 79 106 110
f 79 110 107
f 80 111 81
f 81 111 112
f 81 112 103
f 81 103 82
f 83 109 84
f 85 94 86
f 86 113 95
f 86 95 87
f 86 94 114
f 86 114 113
f 88 115 90
f 88 90 89
f 88 109 116
f 88 116 115
f 90 115 91
f 91 115 117
f 91 117 92
f 92 118 119
f 92 119 93
f 92 117 120
f 92 120 121
f 92 121 118
f 93 119 122
f 93 122 94
f 94 122 123
f 94 123 114
f 95 113 124
f 95 124 96
f 96 124 125
f 96 125 102
f 97 98 126
f 98 102 127
f 98 127 128
f 98 128 126
f 99 129 100
f 100 129 158
f 100 158 130
f 102 131 127
f 102 125 132
f 102 132 131
f 103 133 104
f 104 133 134
f 104 134 105
f 105 134 135
f 105 135 106
f 106 135 110
f 107 136 108
f 107 110 137
f 107 137 136
f 108 136 109
f 109 136 116
f 110 135 137
f 113 114 123
f 113 123 138
f 113 138 139
f 113 139 140
f 113 140 124
f 115 116 141
f 115 141 117
f 116 136 142
f 116 142 143
f 116 143 144
f 116 144 141
f 117 141 120
f 118 121 145
f 118 145 146
f 118 146 119
f 119 146 147
f 119 147 122
f 120 141 148
f 120 148 149
f 120 149 121
f 121 149 150
f 121 150 145
f 122 147 123
f 123 147 151
f 123 151 152
f 123 152 138
f 124 140 132
f 124 132 125
f 127 131 153
f 127 153 154
f 127 154 183
f 127 183 155
f 127 155 156
f 127 156 157
f 127 157 128
f 130 158 160
f 130 160 159
f 131 132 153
f 132 140 161
f 132 161 153
f 133 162 134
f 134 162 163
f 134 163 135
f 135 163 164
f 135 164 165
f 135 165 166
f 135 166 137
f 136 137 166
f 136 166 142
f 138 152 167
f 138 167 140
f 138 140 139
f 140 168 169
f 140 169 161
f 140 167 168
f 141 144 148
f 142 166 148
f 142 148 143
f 143 148 144
f 145 170 171
f 145 171 146
f 145 150 172
f 145 172 173
f 145 173 170
f 146 171 147
f 147 171 151
f 148 174 149
f 148 166 175
f 148 175 176
f 148 176 177
f 148 177 174
f 149 174 150
f 150 178 179
f 150 179 201
f 150 201 204
f 150 204 203
f 150 203 202
f 150 202 185
f 150 185 160
f 150 160 183
f 150 183 198
f 150 198 173
f 150 173 172
f 150 174 177
f 150 177 176
f 150 176 178
f 151 171 152
f 152 171 180
f 152 180 181
f 152 181 167
f 153 161 154
f 154 161 182
f 154 182 183
f 159 160 184
f 160 185 186
f 160 186 187
f 160 187 188
f 160 188 189
f 160 189 190
f 160 190 191
f 160 191 192
f 160 192 184
f 161 169 182
f 164 193 194
f 164 194 195
f 164 195 175
f 164 175 165
f 165 175 166
f 167 181 168
f 168 181 196
f 168 196 197
f 168 197 169
f 169 197 183
f 169 183 182
f 170 196 171
f 170 173 198
f 170 198 196
f 171 181 180
f 171 196 181
f 175 195 178
f 175 178 176
f 178 200 201
f 178 201 179
f 178 195 194
f 178 194 199
f 183 196 198
f 183 197 196
f 185 202 186
f 186 202 203
f 186 203 204
f 186 204 201
f 186 201 200
f 193 205 194
f 194 205 199

