# https://github.com/mikedh/trimesh
v 0.00033755 0.68230792 0.66347367
v 0.00033755 0.75255207 0.67131085
v 0.00033755 0.66655326 0.66358782
v -0.00785608 0.66647323 0.66361318
v -0.00785608 0.68230792 0.66349905
v -0.36841189 0.76053228 0.66872383
v -0.36841189 0.76072665 0.66873652
v 0.00033755 0.76072665 0.67235075
v 0.00033755 0.66647323 0.73073641
v -0.00771170 0.66647323 0.66361318
v -0.11765794 0.66647323 0.66395557
v -0.03922288 0.68230792 0.66360049
v -0.21172225 0.69799391 0.66516032
v -0.19605689 0.68230792 0.66452624
v -0.21172225 0.68230792 0.66481793
v -0.22742371 0.68230792 0.66521104
v -0.24308906 0.68230792 0.66562953
v -0.24308906 0.66647323 0.66570563
v -0.35289093 0.66647323 0.66964958
v -0.36841189 0.66647323 0.67042315
v -0.11765794 0.68230792 0.66386680
v -0.13335939 0.68230792 0.66395557
v -0.14902475 0.68230792 0.66406972
v -0.36841189 0.77115353 0.67247757
v 0.00033755 0.77134785 0.67446856
v 0.00033755 0.66655326 0.79222907
v -0.00785608 0.66647323 0.79224174
v -0.13335939 0.66647323 0.66401898
v -0.18039154 0.68230792 0.66436139
v -0.16472619 0.68230792 0.66420921
v -0.19605689 0.66647323 0.66458965
v -0.21157787 0.66647323 0.66488132
v -0.22727931 0.66647323 0.66527445
v -0.36841189 0.66647323 0.67075287
v -0.14902475 0.66647323 0.66413311
v -0.36841189 0.77616115 0.68364997
v -0.33722555 0.77666423 0.68364997
v -0.32152411 0.77687000 0.68364997
v -0.30585876 0.77701865 0.68364997
v -0.29015730 0.77715580 0.68364997
v -0.27445586 0.77724729 0.68364997
v -0.25879050 0.77732731 0.68364997
v -0.13335939 0.77795614 0.68364997
v -0.11765794 0.77797899 0.68364997
v 0.00033755 0.77794468 0.68364997
v 0.00033755 0.77450337 0.67885635
v -0.18039154 0.66647323 0.79300266
v 0.00033755 0.67480787 0.79220373
v -0.18039154 0.66662188 0.79300266
v -0.18024717 0.66647323 0.66442480
v -0.35303528 0.66647323 0.79205153
v -0.36841189 0.66648463 0.79205153
v -0.36841189 0.77927095 0.69913409
v -0.35289093 0.77973967 0.69932432
v -0.33722555 0.78008269 0.69932432
v -0.32152411 0.78032277 0.69932432
v -0.30585876 0.78048283 0.69932432
v -0.29015730 0.78059717 0.69932432
v -0.10195649 0.78182045 0.69932432
v -0.08629114 0.78191193 0.69932432
v -0.05492433 0.78202627 0.69932432
v -0.03922288 0.78208344 0.69932432
v 0.00033755 0.78220919 0.69932432
v -0.18053592 0.66647323 0.79300266
v 0.00033755 0.68230792 0.79217835
v -0.18039154 0.68230792 0.79288851
v -0.19605689 0.66662188 0.79298995
v 0.00033755 0.69799391 0.79211496
v 0.00033755 0.70617994 0.79206420
v 0.00033755 0.71367994 0.79201348
v -0.19620129 0.66647323 0.79298995
v -0.36841189 0.66681620 0.79205153
v -0.36841189 0.77930521 0.69932432
v -0.36841189 0.78039135 0.71482113
v -0.36841189 0.78040280 0.71501134
v -0.35289093 0.78063143 0.71501134
v -0.33722555 0.78082580 0.71501134
v -0.32152411 0.78098586 0.71501134
v -0.30585876 0.78112305 0.71501134
v -0.29015730 0.78122594 0.71501134
v -0.08629114 0.78250644 0.71501134
v -0.05492433 0.78266650 0.71501134
v -0.00785608 0.78286087 0.71501134
v 0.00033755 0.78288373 0.71501134
v -0.18039154 0.69799391 0.79273635
v -0.19605689 0.71367994 0.79260953
v -0.19605689 0.69799391 0.79274902
v -0.19605689 0.68230792 0.79287584
v 0.00033755 0.72935458 0.79189937
v 0.00033755 0.73754057 0.79183594
v 0.00033755 0.74504061 0.79177255
v -0.32152411 0.74504061 0.79191204
v -0.33722555 0.74504061 0.79183594
v -0.33722555 0.72935458 0.79192471
v -0.36841189 0.68250224 0.79198814
v -0.36841189 0.78082580 0.73049549
v -0.29015730 0.78145462 0.73068569
v -0.35289093 0.78096300 0.73068569
v -0.10195649 0.78267795 0.73068569
v -0.08629114 0.78276939 0.73068569
v -0.07058968 0.78286087 0.73068569
v 0.00033755 0.78321529 0.73068569
v 0.00033755 0.78304378 0.72251880
v -0.18039154 0.71367994 0.79257148
v -0.19605689 0.72935458 0.79244466
v 0.00033755 0.76072665 0.79155696
v -0.19605689 0.74504061 0.79224174
v -0.30585876 0.76072665 0.79175988
v -0.32152411 0.76072665 0.79170912
v -0.33722555 0.76072665 0.79156963
v -0.35289093 0.74504061 0.79165840
v -0.36841189 0.72954894 0.79163306
v -0.35289093 0.72935458 0.79181060
v -0.36841189 0.69818828 0.79189937
v -0.36841189 0.78082580 0.73068569
v -0.36841189 0.78078008 0.74637274
v -0.27445586 0.78148893 0.74637274
v -0.25879050 0.78160327 0.74637274
v -0.22742371 0.78183190 0.74637274
v -0.14902475 0.78236925 0.74637274
v -0.13335939 0.78247218 0.74637274
v -0.10195649 0.78267795 0.74637274
v -0.08629114 0.78276939 0.74637274
v -0.02355752 0.78313526 0.74637274
v -0.00785608 0.78322675 0.74637274
v 0.00033755 0.78327246 0.74637274
v 0.00033755 0.76779220 0.78997177
v -0.18039154 0.76072665 0.79196276
v -0.19605689 0.76072665 0.79198814
v -0.29015730 0.76072665 0.79179789
v -0.19605689 0.77372594 0.78871628
v -0.24308906 0.77331435 0.78869094
v -0.30585876 0.77276555 0.78860217
v -0.32152411 0.77266267 0.78856412
v -0.33722555 0.77255978 0.78848802
v -0.36841189 0.77229679 0.78829781
v -0.25879050 0.77315429 0.78867827
v -0.35289093 0.76072665 0.79137942
v -0.36841189 0.74504061 0.79146819
v -0.36841189 0.71387431 0.79177255
v -0.36841189 0.78024274 0.76205976
v -0.22742371 0.78151179 0.76205976
v -0.21172225 0.78164899 0.76205976
v -0.19605689 0.78177473 0.76205976
v -0.14902475 0.78214061 0.76205976
v -0.13335939 0.78225491 0.76205976
v -0.08629114 0.78252930 0.76205976
v -0.05492433 0.78270081 0.76205976
v -0.00785608 0.78295235 0.76205976
v 0.00033755 0.78298666 0.76205976
v 0.00033755 0.77426328 0.78850069
v -0.18039154 0.77381738 0.78870361
v -0.21172225 0.77361160 0.78869094
v -0.22742371 0.77347440 0.78869094
v -0.13335939 0.78078008 0.77774680
v -0.18039154 0.78035704 0.77774680
v -0.19605689 0.78020843 0.77774680
v -0.36841189 0.77236541 0.78817099
v -0.36841189 0.76072665 0.79118921
v -0.21172225 0.78001406 0.77774680
v -0.36841189 0.77794468 0.77755657
v -0.22742371 0.77980829 0.77774680
v -0.14902475 0.78064288 0.77774680
v -0.03922288 0.78121454 0.77774680
v -0.02355752 0.78128311 0.77774680
v -0.11765794 0.78086011 0.77774680
v 0.00033755 0.78220919 0.76956721
v 0.00033755 0.77796759 0.78289547
v -0.02355752 0.77426328 0.78850069
v -0.13335939 0.77404606 0.78861484
v -0.36841189 0.77791042 0.77774680
v 0.00033755 0.78134028 0.77774680
f 1 2 8
f 1 8 25
f 1 25 46
f 1 46 45
f 1 45 63
f 1 63 84
f 1 84 103
f 1 103 102
f 1 102 126
f 1 126 150
f 1 150 167
f 1 167 172
f 1 172 168
f 1 168 151
f 1 151 127
f 1 127 106
f 1 106 91
f 1 91 90
f 1 90 89
f 1 89 70
f 1 70 69
f 1 69 68
f 1 68 65
f 1 65 48
f 1 48 26
f 1 26 9
f 1 9 3
f 1 3 4
f 1 4 5
f 1 5 6
f 1 6 7
f 1 7 2
f 2 7 8
f 3 9 10
f 3 10 4
f 4 10 9
f 4 9 27
f 4 27 47
f 4 47 64
f 4 64 71
f 4 71 51
f 4 51 34
f 4 34 20
f 4 20 19
f 4 19 18
f 4 18 33
f 4 33 32
f 4 32 31
f 4 31 50
f 4 50 35
f 4 35 28
f 4 28 11
f 4 11 5
f 5 11 12
f 5 12 6
f 6 13 14
f 6 14 15
f 6 15 16
f 6 16 17
f 6 17 18
f 6 18 19
f 6 19 20
f 6 20 34
f 6 34 52
f 6 52 72
f 6 72 95
f 6 95 114
f 6 114 140
f 6 140 112
f 6 112 139
f 6 139 159
f 6 159 136
f 6 136 158
f 6 158 171
f 6 171 161
f 6 161 141
f 6 141 116
f 6 116 115
f 6 115 96
f 6 96 75
f 6 75 74
f 6 74 73
f 6 73 53
f 6 53 36
f 6 36 24
f 6 24 7
f 6 12 21
f 6 21 22
f 6 22 23
f 6 23 13
f 7 24 25
f 7 25 8
f 9 26 27
f 11 28 21
f 11 21 12
f 13 29 14
f 13 23 30
f 13 30 29
f 14 29 31
f 14 31 15
f 15 31 32
f 15 32 33
f 15 33 16
f 16 33 17
f 17 33 18
f 21 28 22
f 22 28 35
f 22 35 23
f 23 35 30
f 24 36 37
f 24 37 38
f 24 38 39
f 24 39 40
f 24 40 41
f 24 41 42
f 24 42 43
f 24 43 44
f 24 44 45
f 24 45 46
f 24 46 25
f 26 47 27
f 26 48 49
f 26 49 47
f 29 30 50
f 29 50 31
f 30 35 50
f 34 51 52
f 36 53 54
f 36 54 55
f 36 55 37
f 37 55 56
f 37 56 38
f 38 56 57
f 38 57 39
f 39 57 40
f 40 57 58
f 40 58 59
f 40 59 60
f 40 60 41
f 41 60 42
f 42 60 43
f 43 60 61
f 43 61 62
f 43 62 63
f 43 63 44
f 44 63 45
f 47 49 64
f 48 65 49
f 49 66 88
f 49 88 67
f 49 67 71
f 49 71 64
f 49 65 68
f 49 68 69
f 49 69 70
f 49 70 66
f 51 71 52
f 52 71 72
f 53 73 54
f 54 73 74
f 54 74 55
f 55 74 75
f 55 75 56
f 56 75 76
f 56 76 77
f 56 77 57
f 57 77 78
f 57 78 79
f 57 79 58
f 58 79 80
f 58 80 59
f 59 81 60
f 59 80 81
f 60 81 82
f 60 82 83
f 60 83 61
f 61 83 62
f 62 83 63
f 63 83 84
f 66 85 86
f 66 86 87
f 66 87 88
f 66 70 89
f 66 89 90
f 66 90 91
f 66 91 85
f 67 88 92
f 67 92 93
f 67 93 94
f 67 94 71
f 71 94 95
f 71 95 72
f 75 96 76
f 76 96 77
f 77 96 78
f 78 96 79
f 79 97 80
f 79 96 98
f 79 98 97
f 80 97 99
f 80 99 81
f 81 99 100
f 81 100 101
f 81 101 82
f 82 101 102
f 82 102 83
f 83 102 103
f 83 103 84
f 85 104 86
f 85 91 104
f 86 105 92
f 86 92 87
f 86 104 105
f 87 92 88
f 91 106 107
f 91 107 105
f 91 105 104
f 92 108 109
f 92 109 93
f 92 105 108
f 93 110 111
f 93 111 112
f 93 112 113
f 93 113 114
f 93 114 95
f 93 95 94
f 93 109 110
f 96 115 98
f 97 98 116
f 97 116 117
f 97 117 118
f 97 118 119
f 97 119 120
f 97 120 121
f 97 121 122
f 97 122 99
f 98 115 116
f 99 122 123
f 99 123 100
f 100 123 124
f 100 124 125
f 100 125 101
f 101 125 126
f 101 126 102
f 105 107 108
f 106 127 128
f 106 128 107
f 107 129 130
f 107 130 108
f 107 128 129
f 108 130 131
f 108 131 132
f 108 132 109
f 109 133 134
f 109 134 135
f 109 135 136
f 109 136 110
f 109 132 137
f 109 137 133
f 110 136 138
f 110 138 111
f 111 138 159
f 111 159 139
f 111 139 112
f 112 140 113
f 113 140 114
f 116 141 142
f 116 142 143
f 116 143 144
f 116 144 145
f 116 145 117
f 117 145 146
f 117 146 118
f 118 146 119
f 119 146 120
f 120 146 121
f 121 146 122
f 122 146 123
f 123 146 124
f 124 146 147
f 124 147 125
f 125 147 126
f 126 147 148
f 126 148 149
f 126 149 150
f 127 151 128
f 128 151 129
f 129 131 130
f 129 151 152
f 129 152 131
f 131 153 154
f 131 154 132
f 131 152 155
f 131 155 153
f 132 154 134
f 132 134 133
f 132 133 137
f 134 154 135
f 135 154 156
f 135 156 157
f 135 157 136
f 136 159 138
f 136 157 160
f 136 160 158
f 141 161 162
f 141 162 160
f 141 160 157
f 141 157 156
f 141 156 163
f 141 163 142
f 142 163 155
f 142 155 143
f 143 155 144
f 144 155 145
f 145 155 146
f 146 155 147
f 147 155 148
f 148 155 149
f 149 164 165
f 149 165 150
f 149 155 166
f 149 166 164
f 150 165 167
f 151 168 169
f 151 169 170
f 151 170 152
f 152 170 165
f 152 165 164
f 152 164 166
f 152 166 155
f 153 155 154
f 154 155 163
f 154 163 156
f 158 160 162
f 158 162 171
f 161 171 162
f 165 172 167
f 165 170 172
f 168 172 170
f 168 170 169

