# https://github.com/mikedh/trimesh
v 0.36860904 0.66647323 0.32175348
v 0.36875787 0.66647323 0.32175348
v 0.36433831 0.66647323 0.33190601
v 0.36433831 0.66652226 0.32175348
v 0.39998120 0.67878886 0.02490926
v 0.38438674 0.66647323 0.32222206
v 0.36433831 0.66647323 0.79087826
v 0.36433831 0.68253870 0.31980107
v 0.37128826 0.71368925 0.02490926
v 0.37158596 0.69800368 0.02490926
v 0.37412779 0.68631303 0.02490926
v 0.38429514 0.68062699 0.02490926
v 0.38429514 0.68538167 0.01264813
v 0.39998120 0.68451164 0.01163288
v 0.41566734 0.67886239 0.02490926
v 0.39545857 0.66647323 0.32675165
v 0.43134197 0.67907069 0.02490926
v 0.36860904 0.66647323 0.79087826
v 0.36433831 0.76072142 0.79095633
v 0.36433831 0.74503585 0.31917631
v 0.37133407 0.72935028 0.02490926
v 0.37393315 0.72935028 0.01272624
v 0.37388736 0.71368925 0.01296053
v 0.37400184 0.69800368 0.01335099
v 0.36433831 0.76072142 0.32026965
v 0.37488348 0.68756296 0.01475675
v 0.38429514 0.69800368 0.00764997
v 0.40524807 0.70361614 -0.00000345
v 0.41566734 0.70207213 -0.00125305
v 0.41566734 0.69422935 0.00382324
v 0.41566734 0.68458517 0.01163288
v 0.39889348 0.66647323 0.33862229
v 0.44702805 0.67880111 0.04060663
v 0.44702805 0.67947509 0.02490926
v 0.43134197 0.68476898 0.01202337
v 0.46270268 0.76072142 0.79080020
v 0.46270268 0.66647323 0.79048775
v 0.41566734 0.77640699 0.78962866
v 0.38429514 0.77640699 0.78939437
v 0.36433831 0.77214248 0.78970682
v 0.43134197 0.77640699 0.78962866
v 0.37170046 0.74503585 0.02490926
v 0.37413925 0.74503585 0.01288241
v 0.36433831 0.76252280 0.32105062
v 0.36433831 0.77057393 0.32495543
v 0.38580650 0.72799007 0.00444802
v 0.38580650 0.71518426 0.00507280
v 0.39204659 0.72142171 0.00132417
v 0.40000411 0.71518426 -0.00117489
v 0.41566734 0.71368925 -0.00539209
v 0.43134197 0.70322404 -0.00055018
v 0.43134197 0.69538125 0.00421373
v 0.44702805 0.68512434 0.01288241
v 0.47769034 0.66647323 0.68357387
v 0.46270268 0.68182793 0.04060663
v 0.48067874 0.66647323 0.69927122
v 0.46270268 0.68253870 0.02490926
v 0.46270268 0.68668064 0.01436626
v 0.47364863 0.66647323 0.78798864
v 0.47376311 0.76072142 0.78822293
v 0.47253800 0.77640699 0.78728577
v 0.46270268 0.77640699 0.78923824
v 0.44702805 0.77640699 0.78947253
v 0.43134197 0.78549970 0.78697342
v 0.41566734 0.78546296 0.78689535
v 0.39998120 0.78536489 0.78681719
v 0.38429514 0.78524242 0.78673913
v 0.36433831 0.77640699 0.78923824
v 0.37269658 0.76072142 0.02490926
v 0.37463159 0.76072142 0.01366339
v 0.38429514 0.74503585 0.00616615
v 0.36433831 0.77130920 0.32846977
v 0.39882481 0.72799007 -0.00187776
v 0.39204659 0.72183840 0.00132417
v 0.41566734 0.72935028 -0.00687598
v 0.43134197 0.71368925 -0.00414258
v 0.44007806 0.70514794 0.00101177
v 0.47194260 0.68773452 0.02490926
v 0.48114816 0.66647323 0.71496859
v 0.47140447 0.68871486 0.01600628
v 0.47861778 0.66647323 0.77783615
v 0.47862923 0.76072142 0.77767995
v 0.47657972 0.77640699 0.77767995
v 0.47101517 0.78466642 0.78603626
v 0.46270268 0.78508311 0.78642677
v 0.44702805 0.78540172 0.78681719
v 0.44702805 0.78886968 0.77767995
v 0.36433831 0.78508311 0.78650484
v 0.36860904 0.78510760 0.78658290
v 0.36433831 0.78274251 0.78728577
v 0.37495218 0.77027981 0.02490926
v 0.37546741 0.76970386 0.01514721
v 0.36433831 0.77302481 0.33862229
v 0.38429514 0.76072142 0.00827475
v 0.40329018 0.74200902 -0.00125305
v 0.43134197 0.72935028 -0.00547025
v 0.41558717 0.74635935 -0.00203398
v 0.43036872 0.74519516 -0.00140918
v 0.44223065 0.71368925 -0.00047202
v 0.46270268 0.69800368 0.01030524
v 0.47362572 0.69800368 0.02490926
v 0.48114816 0.66663254 0.71496859
v 0.48129700 0.66647323 0.73066597
v 0.47396921 0.71368925 0.02490926
v 0.47404933 0.72935028 0.02490926
v 0.47204568 0.69800368 0.01499104
v 0.47866359 0.66647323 0.77767995
v 0.47866359 0.66663254 0.77767995
v 0.48064438 0.72935028 0.76206069
v 0.48058712 0.74503585 0.76206069
v 0.48049555 0.76072142 0.76206069
v 0.47877807 0.77640699 0.76206069
v 0.48086194 0.66663254 0.76206069
v 0.47251509 0.78623501 0.77767995
v 0.46270268 0.78858781 0.77767995
v 0.46270268 0.79144312 0.76206069
v 0.44702805 0.79141863 0.76206069
v 0.43134197 0.78853882 0.77767995
v 0.36433831 0.78638207 0.78010095
v 0.38429514 0.77329439 0.02490926
v 0.36433831 0.78743590 0.71496859
v 0.36433831 0.78791383 0.73066597
v 0.38429514 0.77090480 0.01327290
v 0.39998120 0.76072142 0.00569755
v 0.44181845 0.74007287 -0.00015967
v 0.44353588 0.72935028 -0.00133111
v 0.42076242 0.75350362 0.00108989
v 0.42449505 0.75350362 0.00108989
v 0.46270268 0.76072142 0.01124239
v 0.46270268 0.77053719 0.01475675
v 0.47124418 0.76936075 0.01616248
v 0.46270268 0.71368925 0.00850904
v 0.48093061 0.72935028 0.71496859
v 0.48129700 0.66663254 0.73066597
v 0.48129700 0.66647323 0.73082214
v 0.47227464 0.71368925 0.01428817
v 0.47230899 0.72935028 0.01405388
v 0.47398066 0.74503585 0.02490926
v 0.48087339 0.74503585 0.71496859
v 0.48086194 0.66647323 0.76206069
v 0.48123978 0.66647323 0.74651952
v 0.48098787 0.72935028 0.74636332
v 0.48090770 0.74503585 0.74636332
v 0.48077032 0.76072142 0.74636332
v 0.47894981 0.77640699 0.74636332
v 0.47384323 0.78764420 0.76206069
v 0.46270268 0.79159018 0.74636332
v 0.44702805 0.79166367 0.74636332
v 0.36433831 0.78790158 0.76206069
v 0.36433831 0.78763196 0.76627789
v 0.36433831 0.78681092 0.77767995
v 0.39998120 0.77453207 0.02490926
v 0.36433831 0.78796282 0.73488317
v 0.44702805 0.79146762 0.73066597
v 0.39998120 0.77151754 0.01257004
v 0.41558717 0.75953277 0.00444802
v 0.46270268 0.74503585 0.00905571
v 0.46270268 0.72935028 0.00804046
v 0.43036872 0.75953277 0.00515088
v 0.44702805 0.77135823 0.01350719
v 0.47189679 0.76072142 0.01522533
v 0.44702805 0.77429928 0.02490926
v 0.46270268 0.77269394 0.02490926
v 0.47167928 0.76985092 0.02490926
v 0.47335091 0.76072142 0.02490926
v 0.48110235 0.71368925 0.73066597
v 0.48123978 0.66663254 0.74636332
v 0.47227464 0.74503585 0.01436626
v 0.48071305 0.76072142 0.71496859
v 0.48096496 0.74503585 0.73066597
v 0.48080467 0.76072142 0.73066597
v 0.47883533 0.77640699 0.73066597
v 0.47388904 0.78766879 0.74636332
v 0.47375165 0.78746040 0.73066597
v 0.46270268 0.79128381 0.73066597
v 0.36433831 0.78808539 0.74636332
v 0.36433831 0.78803640 0.75058054
v 0.41566734 0.77145626 0.01280433
v 0.43134197 0.77140722 0.01311670
f 1 2 6
f 1 6 16
f 1 16 32
f 1 32 54
f 1 54 56
f 1 56 79
f 1 79 103
f 1 103 135
f 1 135 141
f 1 141 140
f 1 140 107
f 1 107 81
f 1 81 59
f 1 59 37
f 1 37 18
f 1 18 7
f 1 7 3
f 1 3 4
f 1 4 5
f 1 5 2
f 2 5 6
f 3 7 19
f 3 19 40
f 3 40 68
f 3 68 90
f 3 90 88
f 3 88 119
f 3 119 151
f 3 151 150
f 3 150 149
f 3 149 177
f 3 177 176
f 3 176 153
f 3 153 122
f 3 122 121
f 3 121 93
f 3 93 72
f 3 72 45
f 3 45 44
f 3 44 25
f 3 25 20
f 3 20 8
f 3 8 4
f 4 8 9
f 4 9 10
f 4 10 11
f 4 11 12
f 4 12 5
f 5 12 13
f 5 13 14
f 5 14 31
f 5 31 15
f 5 15 6
f 6 15 17
f 6 17 16
f 7 18 19
f 8 20 9
f 9 21 22
f 9 22 23
f 9 23 24
f 9 24 10
f 9 20 25
f 9 25 21
f 10 24 26
f 10 26 11
f 11 26 12
f 12 26 13
f 13 26 27
f 13 27 28
f 13 28 29
f 13 29 14
f 14 29 30
f 14 30 31
f 15 31 17
f 16 17 33
f 16 33 32
f 17 34 33
f 17 31 35
f 17 35 34
f 18 36 19
f 18 37 36
f 19 38 39
f 19 39 40
f 19 36 41
f 19 41 38
f 21 42 43
f 21 43 22
f 21 25 44
f 21 44 45
f 21 45 42
f 22 43 46
f 22 46 23
f 23 46 24
f 24 46 47
f 24 47 27
f 24 27 26
f 27 47 48
f 27 48 49
f 27 49 28
f 28 49 50
f 28 50 29
f 29 50 51
f 29 51 52
f 29 52 30
f 30 52 53
f 30 53 35
f 30 35 31
f 32 33 54
f 33 34 55
f 33 55 56
f 33 56 54
f 34 57 55
f 34 35 53
f 34 53 58
f 34 58 57
f 36 37 59
f 36 59 60
f 36 60 61
f 36 61 62
f 36 62 63
f 36 63 41
f 38 64 65
f 38 65 66
f 38 66 67
f 38 67 39
f 38 41 64
f 39 68 40
f 39 67 68
f 41 63 64
f 42 69 70
f 42 70 43
f 42 45 69
f 43 70 71
f 43 71 46
f 45 72 69
f 46 71 73
f 46 73 74
f 46 74 48
f 46 48 47
f 48 74 73
f 48 73 49
f 49 73 75
f 49 75 50
f 50 75 76
f 50 76 51
f 51 76 77
f 51 77 58
f 51 58 52
f 52 58 53
f 55 57 78
f 55 78 56
f 56 78 79
f 57 58 80
f 57 80 78
f 58 77 80
f 59 81 60
f 60 81 82
f 60 82 61
f 61 82 83
f 61 83 84
f 61 84 62
f 62 84 85
f 62 85 86
f 62 86 63
f 63 86 64
f 64 86 87
f 64 87 65
f 65 87 66
f 66 87 67
f 67 87 88
f 67 88 89
f 67 89 90
f 67 90 68
f 69 91 92
f 69 92 70
f 69 72 93
f 69 93 91
f 70 92 94
f 70 94 71
f 71 94 73
f 73 95 75
f 73 94 95
f 75 96 76
f 75 95 97
f 75 97 98
f 75 98 96
f 76 96 99
f 76 99 100
f 76 100 77
f 77 100 80
f 78 80 101
f 78 101 79
f 79 102 134
f 79 134 103
f 79 101 104
f 79 104 105
f 79 105 102
f 80 100 106
f 80 106 101
f 81 107 108
f 81 108 82
f 82 109 110
f 82 110 111
f 82 111 112
f 82 112 83
f 82 108 113
f 82 113 109
f 83 112 114
f 83 114 84
f 84 114 115
f 84 115 85
f 85 115 86
f 86 115 87
f 87 115 116
f 87 116 117
f 87 117 118
f 87 118 88
f 88 118 119
f 88 90 89
f 91 120 92
f 91 93 121
f 91 121 122
f 91 122 120
f 92 123 94
f 92 120 123
f 94 124 97
f 94 97 95
f 94 123 124
f 96 98 125
f 96 125 126
f 96 126 99
f 97 127 128
f 97 128 98
f 97 124 127
f 98 129 125
f 98 128 130
f 98 130 131
f 98 131 129
f 99 126 132
f 99 132 100
f 100 132 106
f 101 106 104
f 102 133 134
f 102 105 133
f 103 134 135
f 104 106 136
f 104 136 105
f 105 136 137
f 105 137 138
f 105 138 139
f 105 139 133
f 106 132 136
f 107 140 113
f 107 113 108
f 109 113 141
f 109 141 110
f 110 141 142
f 110 142 143
f 110 143 111
f 111 143 144
f 111 144 112
f 112 144 145
f 112 145 146
f 112 146 114
f 113 140 141
f 114 146 116
f 114 116 115
f 116 146 147
f 116 147 148
f 116 148 117
f 117 149 150
f 117 150 151
f 117 151 118
f 117 148 149
f 118 151 119
f 120 152 123
f 120 122 152
f 122 153 148
f 122 148 154
f 122 154 152
f 123 152 155
f 123 155 124
f 124 156 127
f 124 155 156
f 125 129 126
f 126 129 157
f 126 157 158
f 126 158 132
f 127 156 128
f 128 156 159
f 128 159 160
f 128 160 130
f 129 131 161
f 129 161 157
f 130 160 162
f 130 162 163
f 130 163 131
f 131 163 164
f 131 164 165
f 131 165 161
f 132 158 136
f 133 139 134
f 134 166 142
f 134 142 167
f 134 167 141
f 134 141 135
f 134 139 166
f 136 158 137
f 137 168 138
f 137 158 168
f 138 168 161
f 138 161 165
f 138 165 169
f 138 169 139
f 139 169 171
f 139 171 170
f 139 170 166
f 141 167 142
f 142 166 170
f 142 170 143
f 143 170 144
f 144 170 171
f 144 171 145
f 145 171 169
f 145 169 172
f 145 172 173
f 145 173 146
f 146 173 147
f 147 173 174
f 147 174 175
f 147 175 154
f 147 154 148
f 148 176 177
f 148 177 149
f 148 153 176
f 152 162 155
f 152 154 162
f 154 175 162
f 155 162 178
f 155 178 156
f 156 178 179
f 156 179 160
f 156 160 159
f 157 161 168
f 157 168 158
f 160 179 162
f 162 179 178
f 162 175 163
f 163 175 164
f 164 175 174
f 164 174 173
f 164 173 172
f 164 172 165
f 165 172 169

