# https://github.com/mikedh/trimesh
v -0.41123249 0.66647323 0.33855437
v -0.40964651 0.66647323 0.34839413
v -0.40932929 0.66647323 0.32793368
v -0.40821913 -0.43118322 0.32889972
v -0.40813980 -0.50961523 0.32911376
v -0.40790191 -0.66674024 0.33018392
v -0.40853630 -0.49395490 0.33856016
v -0.40806052 -0.52540603 0.34681491
v -0.40813980 -0.47829462 0.34692482
v -0.39997195 0.66647323 0.35264009
v -0.39989267 -0.30577034 0.35094518
v -0.39989267 -0.27444973 0.35100303
v -0.40124076 0.66647323 0.31942440
v -0.40052705 -0.50961523 0.32126972
v -0.40813980 -0.49395490 0.32903856
v -0.40068566 -0.66674024 0.32235724
v -0.40782259 -0.66674024 0.34015673
v -0.40774331 -0.66674024 0.34573896
v -0.40774331 -0.64364129 0.34640420
v -0.40139932 -0.66674024 0.34902466
v -0.39989267 -0.49395490 0.35043034
v -0.39989267 -0.39986261 0.35071958
v -0.38427063 -0.03915375 0.35508702
v -0.38427063 -0.02349345 0.35509859
v -0.38427063 -0.00509260 0.35509859
v -0.38427063 0.66647323 0.35509280
v -0.38427063 -0.22733833 0.35492505
v -0.38427063 -0.21167805 0.35494819
v -0.38427063 -0.14890634 0.35500025
v -0.40044773 0.66647323 0.31889799
v -0.39291430 -0.66674024 0.31481400
v -0.38434993 -0.66674024 0.35297560
v -0.39989267 -0.63515860 0.34972461
v -0.39989267 -0.50961523 0.35036093
v -0.38427063 -0.30577034 0.35465895
v -0.38427063 -0.24312915 0.35487298
v -0.22733667 0.00782715 0.36595067
v -0.33716665 0.66647323 0.35763807
v -0.22733667 0.02348744 0.36594488
v -0.22733667 0.03914774 0.36589861
v -0.22733667 0.05493855 0.36584076
v -0.22733667 0.07059885 0.36578291
v -0.22733667 -0.03915375 0.36585233
v -0.22733667 -0.00783315 0.36592174
v -0.22733667 -0.00509260 0.36592753
v -0.39854457 0.66647323 0.31764850
v -0.38427063 -0.66674024 0.31457683
v -0.39235915 0.47828864 0.31498754
v -0.24303799 0.16469114 0.30828309
v -0.24303799 0.11757974 0.30830622
v -0.21163535 -0.08626515 0.30803435
v -0.38427063 -0.66674024 0.35298139
v -0.22733667 -0.08626515 0.36567300
v -0.22733667 -0.05481405 0.36579448
v -0.21163535 0.00782715 0.36635560
v -0.21163535 0.02348744 0.36636138
v -0.32154463 0.66647323 0.35817026
v -0.22733667 0.11757974 0.36559780
v -0.22733667 0.16469114 0.36540112
v -0.22733667 0.18035143 0.36533170
v -0.22733667 0.21167204 0.36518709
v -0.22733667 0.32155513 0.36467803
v -0.22733667 0.33708492 0.36459126
v -0.22733667 0.35274522 0.36448714
v -0.22733667 0.36853602 0.36436566
v -0.22733667 0.38419632 0.36421526
v -0.21163535 0.03914774 0.36630353
v -0.21163535 -0.03915375 0.36623990
v -0.38672890 0.66647323 0.31506274
v -0.39212129 0.59704591 0.31503960
v -0.39235915 0.49407943 0.31499333
v -0.11750671 -0.52540603 0.31233815
v -0.10188469 -0.52540603 0.31229766
v -0.08618336 -0.52540603 0.31226874
v -0.10188469 -0.54106631 0.31249434
v -0.08618336 -0.54106631 0.31247120
v -0.07048203 -0.54106631 0.31245385
v -0.07048203 -0.55672664 0.31267945
v 0.00770739 -0.57238692 0.31283564
v 0.00770739 -0.58817771 0.31307281
v -0.36856930 -0.66674024 0.31456526
v -0.21163535 -0.10192545 0.30815004
v -0.24303799 0.18035143 0.30830044
v -0.21163535 -0.00509260 0.30805749
v -0.21163535 -0.02349345 0.30804592
v -0.21163535 -0.05481405 0.30802856
v -0.21163535 -0.07060485 0.30802278
v 0.16464133 -0.35275123 0.31148780
v 0.16464133 -0.36854203 0.31152830
v 0.14894001 -0.43118322 0.31167292
v 0.14894001 -0.44697401 0.31175390
v 0.13323868 -0.46263434 0.31176547
v 0.13323868 -0.47829462 0.31186960
v 0.10183604 -0.66674024 0.35705381
v -0.21163535 -0.38746489 0.36197080
v -0.21163535 -0.37963475 0.36217326
v -0.22067552 -0.37754670 0.36212120
v -0.22733667 -0.32156114 0.36317980
v -0.22733667 -0.30577034 0.36348060
v -0.22733667 -0.29011004 0.36375248
v -0.22733667 -0.27444973 0.36398966
v -0.22733667 -0.25878943 0.36419790
v -0.22733667 -0.24312915 0.36438880
v -0.22733667 -0.22733833 0.36456234
v -0.22733667 -0.21167805 0.36471853
v -0.22733667 -0.19601774 0.36486893
v -0.22733667 -0.18035744 0.36500198
v -0.22733667 -0.14890634 0.36526229
v -0.22733667 -0.13324605 0.36538955
v -0.22733667 -0.11758574 0.36549946
v -0.22733667 -0.10192545 0.36559780
v -0.21163535 -0.08626515 0.36604901
v -0.21163535 -0.05481405 0.36618205
v -0.19601333 -0.03915375 0.36629196
v 0.14894001 -0.08626515 0.36710760
v 0.14894001 -0.07060485 0.36711917
v 0.16464133 0.07059885 0.36683573
v 0.14894001 -0.05481405 0.36710182
v 0.16464133 -0.02349345 0.36705554
v -0.29014199 0.66647323 0.35894541
v -0.22733667 0.41551691 0.36389710
v -0.22733667 0.43117724 0.36372934
v -0.22733667 0.44696803 0.36353845
v -0.22733667 0.47828864 0.36312195
v -0.21163535 0.16469114 0.36575977
v -0.21163535 0.32155513 0.36502511
v -0.21163535 0.33708492 0.36493256
v -0.21163535 0.35274522 0.36480530
v -0.21163535 0.36853602 0.36466068
v 0.16464133 0.08625914 0.36677788
v 0.16464133 0.10191944 0.36671425
v -0.38514292 0.66647323 0.31506274
v -0.24303799 0.19601174 0.30851448
v -0.07048203 -0.52540603 0.31225717
v -0.00775603 -0.54106631 0.31240757
v 0.00770739 -0.55672664 0.31261004
v -0.00775603 -0.55672664 0.31262161
v 0.02340872 -0.57238692 0.31283564
v 0.02340872 -0.55672664 0.31260425
v 0.02340872 -0.58817771 0.31307281
v 0.00770739 -0.60383804 0.31333312
v -0.36841069 -0.66674024 0.31456526
v 0.13323868 -0.49395490 0.31199107
v 0.11753736 -0.49395490 0.31196215
v 0.00770739 -0.50961523 0.31205471
v -0.00775603 -0.50961523 0.31206049
v -0.00775603 -0.52540603 0.31221667
v 0.19604399 0.36853602 0.31430495
v 0.19604399 0.35274522 0.31410827
v 0.19604399 0.33708492 0.31392895
v 0.19604399 0.32155513 0.31376119
v 0.21174531 0.30589482 0.31373805
v 0.21174531 0.27444373 0.31341989
v 0.21174531 0.25878344 0.31327527
v 0.21174531 0.24312314 0.31314801
v 0.21174531 0.22746284 0.31303810
v 0.19604399 0.18035143 0.31256376
v 0.21174531 0.13324004 0.31240179
v 0.21174531 0.11757974 0.31230344
v 0.21174531 0.10191944 0.31222824
v 0.18034267 0.02348744 0.31156301
v 0.18034267 0.00782715 0.31150516
v -0.21163535 0.02348744 0.30810955
v -0.21163535 0.00782715 0.30807484
v 0.18026336 -0.00783315 0.31148202
v 0.16464133 -0.03915375 0.31134319
v 0.16464133 -0.33709093 0.31147623
v 0.18026336 -0.33709093 0.31164399
v 0.18026336 -0.35275123 0.31166713
v 0.18026336 -0.36854203 0.31171919
v 0.18026336 -0.43118322 0.31197950
v 0.16464133 -0.43118322 0.31180597
v 0.16464133 -0.44697401 0.31188695
v 0.14894001 -0.46263434 0.31184068
v 0.14894001 -0.47829462 0.31193902
v 0.14894001 -0.49395490 0.31205471
v 0.13308009 -0.66674024 0.35730256
v 0.11753736 -0.66660972 0.35718686
v 0.13323868 -0.66660972 0.35730834
v -0.21163535 -0.36854203 0.36244514
v 0.14894001 -0.66660972 0.35741825
v 0.11753736 -0.63515860 0.35799093
v -0.21163535 -0.35275123 0.36278644
v -0.21163535 -0.32156114 0.36343432
v -0.21163535 -0.30577034 0.36374091
v -0.21163535 -0.29011004 0.36402436
v -0.21163535 -0.27444973 0.36426154
v -0.21163535 -0.25878943 0.36448714
v -0.21163535 -0.24312915 0.36469539
v -0.21163535 -0.22733833 0.36488050
v -0.21163535 -0.21167805 0.36504247
v -0.21163535 -0.19601774 0.36519287
v -0.21163535 -0.14890634 0.36561515
v -0.21163535 -0.13324605 0.36574820
v -0.21163535 -0.11758574 0.36585811
v -0.21163535 -0.10192545 0.36595645
v -0.19601333 -0.05481405 0.36622833
v 0.14894001 -0.10192545 0.36704976
v 0.16464133 -0.08626515 0.36711339
v 0.16464133 -0.10192545 0.36706711
v 0.16464133 -0.07060485 0.36711339
v 0.16464133 -0.05481405 0.36710760
v 0.18034267 0.07059885 0.36680680
v 0.18034267 0.08625914 0.36676631
v 0.18034267 0.10191944 0.36671425
v 0.16464133 -0.03915375 0.36708446
v -0.27451994 0.66647323 0.35930984
v -0.23598035 0.53492670 0.36211542
v -0.21163535 0.41551691 0.36415741
v -0.21163535 0.43117724 0.36396073
v -0.21163535 0.44696803 0.36374091
v -0.22733667 0.49407943 0.36289635
v 0.16464133 0.11757974 0.36663904
v 0.16464133 0.13324004 0.36655806
v 0.16464133 0.16469114 0.36638452
v 0.16464133 0.18035143 0.36629196
v -0.19593403 0.33708492 0.36494413
v -0.19593403 0.35274522 0.36482844
v 0.18034267 0.18035143 0.36630932
v 0.18034267 0.19601174 0.36621098
v 0.18034267 0.21167204 0.36610685
v -0.19593403 0.36853602 0.36468382
v -0.19593403 0.39985663 0.36437144
v -0.19593403 0.41551691 0.36420947
v 0.18034267 0.11757974 0.36665061
v -0.38403271 0.66647323 0.31506853
v 0.19604399 0.39985663 0.31476194
v 0.19604399 0.38419632 0.31451899
v 0.00770739 -0.54106631 0.31240179
v 0.03911004 -0.57238692 0.31284721
v 0.02340872 -0.54106631 0.31240179
v 0.05481136 -0.54106631 0.31241914
v 0.05481136 -0.55672664 0.31262739
v 0.02340872 -0.60383804 0.31334469
v 0.07051269 -0.57238692 0.31288770
v 0.00770739 -0.61949832 0.31364550
v -0.21163535 -0.66674024 0.31461733
v 0.14894001 -0.50961523 0.31221667
v 0.13323868 -0.50961523 0.31215883
v 0.11753736 -0.50961523 0.31212412
v 0.07051269 -0.52540603 0.31225138
v 0.02340872 -0.52540603 0.31221667
v 0.21174531 0.36853602 0.31444378
v 0.21174531 0.35274522 0.31425289
v 0.21174531 0.32155513 0.31390581
v 0.22736733 0.30589482 0.31408513
v 0.22736733 0.27444373 0.31376119
v 0.22736733 0.25878344 0.31362236
v 0.22736733 0.22746284 0.31338518
v 0.22736733 0.13324004 0.31276623
v 0.22736733 0.11757974 0.31268524
v 0.22736733 0.10191944 0.31262739
v 0.21174531 0.08625914 0.31217618
v 0.19604399 0.02348744 0.31173655
v 0.19604399 0.00782715 0.31169606
v 0.19596469 -0.00509260 0.31169027
v 0.19596469 -0.00783315 0.31169027
v 0.18026336 -0.02349345 0.31148780
v 0.21166601 -0.21167805 0.31213569
v 0.21166601 -0.29011004 0.31219932
v 0.21166601 -0.30577034 0.31221667
v 0.21166601 -0.38420233 0.31232658
v 0.21166601 -0.41552294 0.31239600
v 0.21166601 -0.43118322 0.31243649
v 0.19596469 -0.41552294 0.31212991
v 0.19596469 -0.43118322 0.31218775
v 0.19596469 -0.44697401 0.31226874
v 0.19596469 -0.50961523 0.31259268
v 0.18026336 -0.49395490 0.31232080
v 0.16464133 -0.47829462 0.31206049
v 0.16464133 -0.49395490 0.31215883
v 0.16464133 -0.50961523 0.31230344
v 0.14878141 -0.66674024 0.35741246
v -0.19601333 -0.36854203 0.36252034
v 0.22720873 -0.66674024 0.35790994
v 0.24291005 -0.66674024 0.35800829
v 0.24306866 -0.63515860 0.35873716
v 0.22736733 -0.46263434 0.36243357
v 0.22736733 -0.41552294 0.36335334
v 0.22736733 -0.39986261 0.36364258
v 0.22736733 -0.36854203 0.36412849
v 0.22736733 -0.35275123 0.36434831
v 0.21166601 -0.27444973 0.36531435
v 0.14894001 -0.16456664 0.36651178
v 0.14894001 -0.14890634 0.36667954
v 0.14894001 -0.13324605 0.36681837
v 0.14894001 -0.11758574 0.36693985
v 0.19596469 -0.08626515 0.36681837
v 0.19596469 -0.07060485 0.36683573
v 0.18026336 -0.05481405 0.36699191
v 0.19596469 -0.13324605 0.36670846
v 0.19596469 -0.11758574 0.36674895
v 0.16464133 -0.11758574 0.36695720
v 0.19596469 -0.14890634 0.36663326
v 0.18026336 -0.03915375 0.36698034
v 0.18034267 0.05493855 0.36683573
v 0.19604399 0.10191944 0.36665640
v 0.19604399 0.11757974 0.36661591
v -0.25881862 0.66647323 0.35944867
v -0.23153956 0.54536690 0.36203443
v -0.22678159 0.55580710 0.36193609
v -0.22115132 0.54993450 0.36210963
v -0.22733667 0.57238093 0.36161215
v -0.22733667 0.52540000 0.36242201
v -0.19593403 0.43117724 0.36401858
v -0.18023271 0.46262831 0.36365415
v -0.21163535 0.46262831 0.36350374
v 0.18034267 0.14903083 0.36648864
v 0.18034267 0.16469114 0.36640187
v 0.19604399 0.27444373 0.36567300
v 0.21174531 0.33708492 0.36518709
v 0.18034267 0.35274522 0.36504247
v 0.18034267 0.36853602 0.36490364
v 0.19604399 0.19601174 0.36621098
v 0.19604399 0.21167204 0.36611264
v 0.19604399 0.22746284 0.36600273
v -0.18023271 0.41551691 0.36423261
v -0.18023271 0.43117724 0.36405907
v 0.19604399 0.13324004 0.36654649
v 0.19604399 0.16469114 0.36639609
v 0.32149597 0.66647323 0.32129864
v 0.21174531 0.50960920 0.31691384
v 0.21174531 0.49407943 0.31658412
v 0.21174531 0.47828864 0.31626596
v 0.21174531 0.46262831 0.31597094
v 0.21174531 0.44696803 0.31568171
v 0.21174531 0.43117724 0.31540404
v 0.19604399 0.42008451 0.31509745
v 0.20730453 0.40977482 0.31500489
v 0.21222111 0.40077013 0.31491234
v 0.21174531 0.38419632 0.31466360
v 0.07051269 -0.54106631 0.31243649
v 0.10183604 -0.54106631 0.31248277
v 0.07051269 -0.55672664 0.31265632
v 0.07051269 -0.58817771 0.31316536
v 0.07051269 -0.60383804 0.31346617
v 0.02340872 -0.61949832 0.31366864
v 0.08613471 -0.57238692 0.31292241
v 0.10183604 -0.55672664 0.31271416
v 0.00770739 -0.63515860 0.31400415
v -0.16445208 -0.66674024 0.31463468
v -0.19585473 -0.66674024 0.31462311
v 0.16464133 -0.52540603 0.31248856
v 0.14894001 -0.52540603 0.31241914
v 0.13323868 -0.52540603 0.31236129
v 0.11753736 -0.52540603 0.31231501
v 0.10183604 -0.52540603 0.31228609
v 0.21777208 0.40664278 0.31505696
v 0.22165776 0.39620257 0.31497597
v 0.22736733 0.35274522 0.31460576
v 0.22736733 0.32155513 0.31425289
v 0.22427465 0.38419632 0.31489499
v 0.36859997 0.66647323 0.32172671
v 0.38422199 0.66647323 0.32216635
v 0.24306866 0.21167204 0.31387110
v 0.24306866 0.16469114 0.31358765
v 0.24306866 0.11757974 0.31335626
v 0.24306866 0.13324004 0.31342568
v 0.24306866 0.08625914 0.31326949
v 0.22736733 0.08625914 0.31259847
v 0.21174531 0.03914774 0.31207784
v 0.21174531 0.07059885 0.31214148
v 0.24306866 0.10191944 0.31330420
v 0.21174531 0.02348744 0.31204892
v 0.21174531 0.00782715 0.31203157
v 0.21166601 -0.00783315 0.31202578
v 0.21166601 -0.02349345 0.31203157
v 0.21166601 -0.19601774 0.31212412
v 0.22736733 -0.29011004 0.31262739
v 0.22736733 -0.33709093 0.31266788
v 0.22736733 -0.39986261 0.31274309
v 0.22736733 -0.41552294 0.31276623
v 0.22736733 -0.43118322 0.31280093
v 0.22736733 -0.44697401 0.31284143
v 0.21166601 -0.44697401 0.31250013
v 0.21166601 -0.50961523 0.31281829
v 0.21166601 -0.52540603 0.31293976
v 0.19596469 -0.52540603 0.31274309
v 0.18026336 -0.50961523 0.31242492
v 0.18026336 -0.52540603 0.31259268
v 0.30579465 -0.63515860 0.35903796
v 0.22736733 -0.47451006 0.36217905
v 0.30571537 -0.66674024 0.35829174
v 0.30579465 -0.66660972 0.35829752
v 0.30579465 -0.65081893 0.35867353
v 0.24306866 -0.47594556 0.36220797
v 0.24306866 -0.46263434 0.36249142
v 0.24306866 -0.44697401 0.36279222
v 0.24306866 -0.41552294 0.36339383
v 0.24306866 -0.39986261 0.36366571
v 0.24306866 -0.38420233 0.36390288
v 0.24306866 -0.36854203 0.36412849
v 0.24306866 -0.35275123 0.36433095
v 0.22736733 -0.32156114 0.36473010
v 0.21166601 -0.25878943 0.36549946
v 0.19596469 -0.22733833 0.36584076
v 0.19596469 -0.16456664 0.36649443
v 0.18026336 -0.14890634 0.36666218
v 0.16464133 -0.13324605 0.36682416
v 0.21166601 -0.08626515 0.36659277
v 0.21166601 -0.07060485 0.36659855
v 0.19596469 -0.05481405 0.36683573
v 0.21166601 -0.11758574 0.36651757
v 0.21166601 -0.14890634 0.36641344
v 0.21166601 -0.10192545 0.36655806
v 0.21166601 -0.22733833 0.36582340
v 0.22736733 -0.25878943 0.36541269
v 0.21166601 -0.18035744 0.36620519
v 0.21166601 -0.16456664 0.36632089
v 0.19604399 0.05493855 0.36672581
v 0.21174531 0.11757974 0.36646550
v 0.21174531 0.13324004 0.36642501
v 0.21174531 0.16469114 0.36632089
v 0.21174531 0.18035143 0.36625725
v -0.18023271 0.66647323 0.35992302
v -0.16461068 0.54106032 0.36253191
v -0.16009060 0.56624731 0.36212120
v -0.16461068 0.58804121 0.36165264
v -0.21163535 0.50960920 0.36278644
v -0.18023271 0.44696803 0.36386239
v 0.10191534 0.49407943 0.36350374
v -0.16461068 0.47828864 0.36345168
v -0.14890935 0.54106032 0.36258398
v -0.16461068 0.52540000 0.36276909
v 0.21174531 0.27444373 0.36567879
v 0.21174531 0.29010403 0.36555731
v 0.22736733 0.33708492 0.36508296
v 0.22736733 0.35274522 0.36494992
v 0.21174531 0.35274522 0.36504825
v 0.19604399 0.36853602 0.36489785
v 0.16464133 0.43117724 0.36426154
v 0.21174531 0.21167204 0.36610107
v 0.21174531 0.22746284 0.36600273
v 0.14894001 0.46262831 0.36391445
v 0.13331799 0.47828864 0.36373513
v 0.21174531 0.19601174 0.36618784
v 0.21222111 0.41512541 0.31513794
v 0.11753736 -0.54106631 0.31252327
v 0.10183604 -0.58817771 0.31325792
v 0.10183604 -0.57238692 0.31296290
v 0.11753736 -0.57238692 0.31300918
v 0.11753736 -0.58817771 0.31330998
v 0.11753736 -0.60383804 0.31362814
v 0.10183604 -0.61949832 0.31390002
v 0.07051269 -0.61949832 0.31380168
v 0.02340872 -0.63515860 0.31403307
v 0.11753736 -0.55672664 0.31275466
v 0.00770739 -0.65081893 0.31439751
v -0.00775603 -0.65081893 0.31437437
v -0.14875076 -0.66674024 0.31464624
v 0.16464133 -0.54106631 0.31271416
v 0.14894001 -0.54106631 0.31263318
v 0.13323868 -0.54106631 0.31257533
v 0.38438057 0.66647323 0.32220684
v 0.38422199 -0.02349345 0.32086479
v 0.36852066 -0.32156114 0.31790303
v 0.36852066 -0.19601774 0.31814020
v 0.36852066 -0.16456664 0.31820962
v 0.36852066 -0.10192545 0.31834845
v 0.36852066 -0.08626515 0.31839473
v 0.36852066 -0.05481405 0.31849885
v 0.24306866 0.07059885 0.31324056
v 0.22736733 0.07059885 0.31258111
v 0.36852066 -0.33709093 0.31787989
v 0.36852066 -0.35275123 0.31785675
v 0.36852066 -0.43118322 0.31774105
v 0.22736733 -0.00783315 0.31251170
v 0.22736733 -0.02349345 0.31251170
v 0.22736733 -0.19601774 0.31256954
v 0.22736733 -0.21167805 0.31257533
v 0.24306866 -0.33709093 0.31317693
v 0.24306866 -0.39986261 0.31322321
v 0.24306866 -0.43118322 0.31325792
v 0.24306866 -0.44697401 0.31328684
v 0.24306866 -0.46263434 0.31333891
v 0.22736733 -0.46263434 0.31291084
v 0.22736733 -0.49395490 0.31307281
v 0.22736733 -0.50961523 0.31315958
v 0.22736733 -0.52540603 0.31326370
v 0.22736733 -0.54106631 0.31346039
v 0.26765155 -0.59731292 0.31501646
v 0.21166601 -0.54106631 0.31317115
v 0.19596469 -0.54106631 0.31296869
v 0.18026336 -0.54106631 0.31282986
v 0.32133739 -0.66674024 0.35835537
v 0.32149597 -0.65081893 0.35872559
v 0.32149597 -0.63515860 0.35908424
v 0.25876998 -0.46263434 0.36252613
v 0.25876998 -0.44697401 0.36281536
v 0.25876998 -0.43118322 0.36308146
v 0.25876998 -0.41552294 0.36333599
v 0.25876998 -0.39986261 0.36356159
v 0.25876998 -0.38420233 0.36374091
v 0.24306866 -0.33709093 0.36448714
v 0.22736733 -0.27444973 0.36527386
v 0.22736733 -0.29011004 0.36510032
v 0.21166601 -0.24312915 0.36566722
v 0.22736733 -0.08626515 0.36601430
v 0.22736733 -0.13324605 0.36595067
v 0.22736733 -0.11758574 0.36597959
v 0.22736733 -0.07060485 0.36602008
v 0.22736733 0.00782715 0.36603744
v 0.22736733 0.05493855 0.36603165
v 0.22736733 0.11757974 0.36599694
v 0.21174531 0.05493855 0.36652335
v 0.21174531 0.10191944 0.36648286
v 0.22736733 -0.18035744 0.36581183
v 0.22736733 -0.24312915 0.36552838
v 0.22736733 -0.22733833 0.36562094
v 0.22736733 -0.21167805 0.36569036
v 0.22736733 -0.19601774 0.36575399
v 0.24306866 -0.32156114 0.36462597
v 0.22736733 0.13324004 0.36597380
v 0.22736733 0.16469114 0.36592174
v 0.22736733 0.18035143 0.36589282
v 0.22736733 0.19601174 0.36585233
v 0.22736733 0.21167204 0.36580605
v 0.22736733 0.22746284 0.36574820
v -0.16468998 0.66647323 0.35996930
v -0.14890935 0.58804121 0.36173941
v -0.14890935 0.55672061 0.36233523
v -0.14890935 0.56742184 0.36214434
v -0.14890935 0.57525195 0.36199394
v 0.14894001 0.49407943 0.36352110
v 0.11761666 0.50960920 0.36326657
v 0.02348802 0.54106032 0.36272860
v -0.11750671 0.55672061 0.36236994
v 0.22736733 0.29010403 0.36541848
v 0.22736733 0.30589482 0.36530856
v 0.22736733 0.32155513 0.36519866
v 0.36971015 0.66647323 0.36012548
v 0.25876998 0.47828864 0.36336491
v 0.24306866 0.47828864 0.36356159
v 0.22736733 0.46262831 0.36383347
v 0.21174531 0.36853602 0.36488628
v 0.18034267 0.43117724 0.36425575
v 0.18034267 0.44696803 0.36408221
v 0.22736733 0.27444373 0.36551681
v 0.19604399 0.47828864 0.36372356
v 0.14894001 0.47828864 0.36373513
v 0.22736733 0.24312314 0.36567879
v 0.13323868 -0.57238692 0.31306124
v 0.13323868 -0.58817771 0.31336783
v 0.14894001 -0.60383804 0.31376119
v 0.11753736 -0.61949832 0.31395787
v 0.08613471 -0.63515860 0.31421818
v 0.07051269 -0.63515860 0.31416612
v 0.02340872 -0.65081893 0.31443800
v 0.13323868 -0.55672664 0.31280672
v 0.00857969 -0.66674024 0.31481979
v -0.00648724 -0.66674024 0.31479086
v -0.00775603 -0.66660972 0.31478508
v -0.02321946 -0.66674024 0.31476773
v -0.03892078 -0.66674024 0.31475037
v 0.16464133 -0.55672664 0.31295133
v 0.14894001 -0.55672664 0.31287035
v 0.39540322 0.66647323 0.32673047
v 0.38422199 -0.57238692 0.32020533
v 0.24306866 -0.02349345 0.31311909
v 0.36852066 -0.49395490 0.31767164
v 0.36852066 -0.50961523 0.31766007
v 0.36852066 -0.55672664 0.31763115
v 0.36852066 -0.57238692 0.31763115
v 0.25876998 -0.43118322 0.31377854
v 0.25876998 -0.44697401 0.31379011
v 0.25876998 -0.46263434 0.31381904
v 0.25876998 -0.47829462 0.31386531
v 0.27439200 -0.52540603 0.31451899
v 0.24306866 -0.47829462 0.31340832
v 0.24306866 -0.49395490 0.31348931
v 0.25876998 -0.52540603 0.31407934
v 0.25876998 -0.54106631 0.31416612
v 0.28335287 -0.56808034 0.31500489
v 0.28137037 -0.57852054 0.31505696
v 0.27859490 -0.58817771 0.31510902
v 0.27351971 -0.60305500 0.31521315
v 0.29009332 -0.63515860 0.31600565
v 0.26289357 -0.60775307 0.31509745
v 0.22736733 -0.58817771 0.31417768
v 0.21166601 -0.58817771 0.31395787
v 0.19596469 -0.55672664 0.31324056
v 0.18026336 -0.55672664 0.31307281
v 0.33703871 -0.66674024 0.35837850
v 0.33719730 -0.66660972 0.35838429
v 0.33719730 -0.65081893 0.35873716
v 0.36852066 -0.66674024 0.35837272
v 0.32149597 -0.61949832 0.35940818
v 0.27439200 -0.48495026 0.36206914
v 0.27439200 -0.46263434 0.36246828
v 0.27439200 -0.47712009 0.36221376
v 0.27439200 -0.44697401 0.36270546
v 0.25876998 -0.36854203 0.36389710
v 0.36852066 -0.65081893 0.35854626
v 0.24306866 -0.11758574 0.36529121
v 0.24306866 -0.24312915 0.36508296
v 0.24306866 -0.22733833 0.36512346
v 0.24306866 -0.18035744 0.36521023
v 0.24306866 -0.14890634 0.36525650
v 0.24306866 -0.30577034 0.36474167
v 0.24306866 -0.29011004 0.36484579
v 0.24306866 -0.27444973 0.36494413
v 0.24306866 -0.25878943 0.36502511
v 0.25876998 -0.35275123 0.36402436
v -0.11766530 0.66647323 0.36006185
v -0.11750671 0.61949229 0.36113780
v -0.11750671 0.63515262 0.36079072
v -0.10180538 0.63515262 0.36082543
v -0.10180538 0.65081290 0.36046678
v -0.11750671 0.58804121 0.36179726
v -0.11750671 0.60370150 0.36147332
v -0.13320803 0.57590447 0.36201129
v -0.11750671 0.56872683 0.36216748
v 0.19604399 0.49407943 0.36351531
v 0.18034267 0.50960920 0.36327814
v 0.13331799 0.50960920 0.36327235
v 0.13331799 0.52540000 0.36301783
v 0.08621402 0.54106032 0.36274016
v 0.00778669 0.55672061 0.36245671
v -0.00775603 0.55672061 0.36245093
v -0.10180538 0.56911837 0.36217326
v 0.38184299 0.66647323 0.35900904
v 0.36836205 0.66647323 0.36013705
v 0.24306866 0.49407943 0.36337070
v 0.25876998 0.49407943 0.36321451
v 0.36852066 -0.47829462 0.35911316
v 0.22736733 0.47828864 0.36367150
v 0.21174531 0.46262831 0.36387975
v 0.19604399 0.43117724 0.36424418
v 0.19604399 0.44696803 0.36407064
v 0.21174531 0.47828864 0.36370621
v 0.21174531 0.49407943 0.36350374
v 0.14894001 -0.57238692 0.31313644
v 0.14894001 -0.58817771 0.31344303
v 0.16464133 -0.60383804 0.31384796
v 0.16464133 -0.61949832 0.31418347
v 0.13323868 -0.63515860 0.31440908
v 0.11753736 -0.63515860 0.31433966
v 0.10183604 -0.63515860 0.31427603
v 0.08613471 -0.65081893 0.31463468
v 0.03911004 -0.65081893 0.31448428
v 0.02340872 -0.66674024 0.31486028
v 0.16464133 -0.57238692 0.31322900
v 0.39889241 0.66647323 0.33855437
v 0.39445162 -0.66674024 0.32678253
v 0.39437234 -0.66674024 0.32666105
v 0.38422199 -0.58817771 0.32019376
v 0.36852066 -0.58817771 0.31764850
v 0.36852066 -0.60383804 0.31768321
v 0.36852066 -0.61949832 0.31773527
v 0.28462166 -0.55672664 0.31496440
v 0.27439200 -0.54106631 0.31459419
v 0.36852066 -0.63515860 0.31782204
v 0.36852066 -0.65081893 0.31793774
v 0.36852066 -0.66674024 0.31807078
v 0.29009332 -0.61949832 0.31578583
v 0.29009332 -0.65081893 0.31628332
v 0.27439200 -0.63515860 0.31573955
v 0.24306866 -0.60383804 0.31469831
v 0.22736733 -0.60383804 0.31444378
v 0.21166601 -0.60383804 0.31424132
v 0.19596469 -0.58817771 0.31379590
v 0.18026336 -0.57238692 0.31335048
v 0.33719730 -0.66674024 0.35837850
v 0.38422199 -0.66674024 0.35685135
v 0.36852066 -0.63515860 0.35869667
v 0.36852066 -0.52540603 0.35906110
v 0.25876998 -0.32156114 0.36418634
v 0.36852066 -0.58817771 0.35892227
v 0.36852066 -0.54106631 0.35904375
v 0.25876998 -0.33709093 0.36411692
v 0.36852066 -0.61949832 0.35880079
v -0.10196398 0.66647323 0.36009077
v -0.10180538 0.61949229 0.36116673
v -0.08618336 0.61949229 0.36117830
v -0.08618336 0.63515262 0.36083122
v 0.00762809 0.66647323 0.36017176
v -0.00783533 0.66647323 0.36016598
v -0.03923798 0.66647323 0.36014284
v -0.10180538 0.58804121 0.36182040
v -0.11750671 0.57655700 0.36202286
v -0.10180538 0.60370150 0.36149645
v 0.21174531 0.50960920 0.36326657
v 0.21174531 0.52540000 0.36301204
v 0.16464133 0.52540000 0.36301783
v 0.19604399 0.54106032 0.36275173
v 0.13331799 0.54106032 0.36274595
v 0.18034267 0.55672061 0.36247407
v -0.00775603 0.57055388 0.36220797
v -0.10180538 0.57694849 0.36202864
v 0.38311178 0.66647323 0.35886442
v 0.38422199 -0.57238692 0.35736040
v 0.08621402 0.66647323 0.36019490
v 0.10191534 0.65081290 0.36054198
v 0.10191534 0.63515262 0.36088906
v 0.11761666 0.61949229 0.36123036
v 0.19604399 0.60370150 0.36153695
v 0.21174531 0.58804121 0.36185511
v 0.21174531 0.57055388 0.36221376
v 0.22736733 0.57016239 0.36220219
v 0.24306866 0.56937935 0.36219062
v 0.24306866 0.55672061 0.36242201
v 0.24306866 0.54106032 0.36269389
v 0.24306866 0.52540000 0.36293684
v 0.24306866 0.50960920 0.36315666
v 0.22736733 0.49407943 0.36346903
v 0.22736733 0.50960920 0.36323765
v 0.16464133 -0.58817771 0.31352980
v 0.18026336 -0.60383804 0.31395208
v 0.18026336 -0.61949832 0.31428181
v 0.18026336 -0.63515860 0.31466360
v 0.16464133 -0.63515860 0.31457683
v 0.16464133 -0.65603901 0.31510902
v 0.14894001 -0.65747456 0.31507431
v 0.13315939 -0.65212393 0.31486028
v 0.11753736 -0.65081893 0.31475616
v 0.10183604 -0.65081893 0.31469252
v 0.10183604 -0.66674024 0.31513216
v 0.05481136 -0.66674024 0.31496440
v 0.39714782 -0.66674024 0.33856016
v 0.39556183 0.66647323 0.35119971
v 0.39476884 -0.66674024 0.35085841
v 0.38430129 -0.66674024 0.32041937
v 0.38422199 -0.60383804 0.32021690
v 0.38422199 -0.66674024 0.32037888
v 0.36867925 -0.66674024 0.31807657
v 0.30579465 -0.66674024 0.31686757
v 0.29009332 -0.66660972 0.31658412
v 0.27439200 -0.65081893 0.31603457
v 0.23601099 -0.62798096 0.31502803
v 0.22736733 -0.61949832 0.31474459
v 0.19596469 -0.60383804 0.31409091
v 0.21166601 -0.61949832 0.31457105
v 0.38422199 -0.65081893 0.35700175
v 0.38422199 -0.63515860 0.35712901
v 0.38422199 -0.60383804 0.35727363
v 0.38422199 -0.58817771 0.35733148
v -0.08618336 0.60370150 0.36150802
v 0.00778669 0.60370150 0.36154273
v -0.07048203 0.61949229 0.36118408
v 0.08605541 0.66647323 0.36019490
v -0.03907938 0.63515262 0.36084857
v 0.08621402 0.65081290 0.36054198
v -0.02337806 0.57812302 0.36205178
v -0.00775603 0.58804121 0.36186089
v 0.22736733 0.52540000 0.36298890
v 0.22736733 0.54106032 0.36272860
v 0.21174531 0.54106032 0.36274595
v 0.19604399 0.55672061 0.36247407
v 0.16464133 0.57094538 0.36221376
v 0.13331799 0.58804121 0.36187825
v 0.07051269 0.60370150 0.36156008
v 0.38422199 -0.55672664 0.35737197
v 0.39468951 -0.58817771 0.35109558
v 0.08621402 0.61949229 0.36123036
v 0.13331799 0.60370150 0.36156008
v 0.19604399 0.57864503 0.36205757
v 0.19604399 0.57081486 0.36221376
v 0.21174531 0.55672061 0.36246828
v 0.22736733 0.55672061 0.36245093
v 0.19596469 -0.61949832 0.31442065
v 0.21475870 -0.64116171 0.31508010
v 0.20421184 -0.64311928 0.31503382
v 0.19596469 -0.65212393 0.31520158
v 0.18026336 -0.65421200 0.31514951
v 0.18026336 -0.66674024 0.31549660
v 0.16472064 -0.66674024 0.31541561
v 0.11753736 -0.65982358 0.31500489
v 0.11515837 -0.66674024 0.31519001
v 0.39468951 -0.60383804 0.35106666
v 0.29025193 -0.66674024 0.31658990
v 0.25876998 -0.66660972 0.31616762
v 0.24306866 -0.65081893 0.31560650
v 0.22736733 -0.63816018 0.31514373
v 0.22736733 -0.63033002 0.31497597
v 0.00778669 0.61949229 0.36120722
v 0.14894001 0.58804121 0.36187825
v 0.22736733 -0.65081893 0.31543297
v 0.21039722 -0.64938337 0.31523629
v 0.21166601 -0.66660972 0.31569328
v 0.19612329 -0.66674024 0.31558915
v 0.25884929 -0.66674024 0.31617341
v 0.24306866 -0.66674024 0.31597672
v 0.22736733 -0.66660972 0.31582633
v 0.21182462 -0.66674024 0.31569906
v 0.22744664 -0.66674024 0.31583211
f 1 2 10
f 1 10 26
f 1 26 38
f 1 38 57
f 1 57 120
f 1 120 207
f 1 207 299
f 1 299 415
f 1 415 519
f 1 519 604
f 1 604 672
f 1 672 678
f 1 678 677
f 1 677 676
f 1 676 740
f 1 740 692
f 1 692 622
f 1 622 531
f 1 531 621
f 1 621 690
f 1 690 720
f 1 720 643
f 1 643 557
f 1 557 454
f 1 454 354
f 1 354 353
f 1 353 321
f 1 321 226
f 1 226 132
f 1 132 69
f 1 69 46
f 1 46 30
f 1 30 13
f 1 13 3
f 1 3 4
f 1 4 5
f 1 5 6
f 1 6 7
f 1 7 8
f 1 8 9
f 1 9 2
f 2 9 11
f 2 11 12
f 2 12 10
f 3 13 4
f 4 14 15
f 4 15 5
f 4 13 14
f 5 15 14
f 5 14 16
f 5 16 6
f 6 16 31
f 6 31 47
f 6 47 81
f 6 81 142
f 6 142 237
f 6 237 342
f 6 342 341
f 6 341 450
f 6 450 554
f 6 554 553
f 6 553 551
f 6 551 550
f 6 550 641
f 6 641 718
f 6 718 717
f 6 717 768
f 6 768 766
f 6 766 765
f 6 765 780
f 6 780 784
f 6 784 785
f 6 785 782
f 6 782 781
f 6 781 770
f 6 770 726
f 6 726 654
f 6 654 725
f 6 725 724
f 6 724 722
f 6 722 645
f 6 645 644
f 6 644 719
f 6 719 721
f 6 721 664
f 6 664 586
f 6 586 663
f 6 663 583
f 6 583 485
f 6 485 383
f 6 383 276
f 6 276 275
f 6 275 273
f 6 273 177
f 6 177 94
f 6 94 52
f 6 52 32
f 6 32 20
f 6 20 18
f 6 18 17
f 6 17 7
f 7 17 18
f 7 18 8
f 8 18 19
f 8 19 20
f 8 20 21
f 8 21 22
f 8 22 9
f 9 22 11
f 10 23 24
f 10 24 25
f 10 25 26
f 10 12 27
f 10 27 28
f 10 28 29
f 10 29 23
f 11 27 12
f 11 22 27
f 13 30 31
f 13 31 14
f 14 31 16
f 18 20 19
f 20 32 33
f 20 33 34
f 20 34 21
f 21 34 35
f 21 35 36
f 21 36 27
f 21 27 22
f 23 37 24
f 23 29 37
f 24 37 25
f 25 37 26
f 26 37 39
f 26 39 40
f 26 40 41
f 26 41 42
f 26 42 38
f 27 36 43
f 27 43 44
f 27 44 45
f 27 45 37
f 27 37 28
f 28 37 29
f 30 46 31
f 31 46 48
f 31 48 49
f 31 49 50
f 31 50 51
f 31 51 47
f 32 52 35
f 32 35 34
f 32 34 33
f 35 53 54
f 35 54 43
f 35 43 36
f 35 52 53
f 37 55 56
f 37 56 39
f 37 45 55
f 38 42 58
f 38 58 59
f 38 59 60
f 38 60 61
f 38 61 62
f 38 62 63
f 38 63 64
f 38 64 65
f 38 65 66
f 38 66 57
f 39 56 40
f 40 56 41
f 41 56 67
f 41 67 42
f 42 67 58
f 43 54 113
f 43 113 68
f 43 68 55
f 43 55 44
f 44 55 45
f 46 69 70
f 46 70 71
f 46 71 48
f 47 72 73
f 47 73 74
f 47 74 75
f 47 75 76
f 47 76 77
f 47 77 78
f 47 78 79
f 47 79 80
f 47 80 81
f 47 51 82
f 47 82 72
f 48 71 49
f 49 71 70
f 49 70 83
f 49 83 84
f 49 84 85
f 49 85 86
f 49 86 87
f 49 87 50
f 50 87 51
f 51 87 167
f 51 167 88
f 51 88 89
f 51 89 90
f 51 90 91
f 51 91 92
f 51 92 93
f 51 93 82
f 52 94 95
f 52 95 96
f 52 96 97
f 52 97 98
f 52 98 99
f 52 99 100
f 52 100 101
f 52 101 102
f 52 102 103
f 52 103 104
f 52 104 105
f 52 105 106
f 52 106 107
f 52 107 108
f 52 108 109
f 52 109 110
f 52 110 111
f 52 111 53
f 53 111 112
f 53 112 113
f 53 113 54
f 55 68 114
f 55 114 115
f 55 115 116
f 55 116 56
f 56 117 130
f 56 130 67
f 56 116 118
f 56 118 119
f 56 119 117
f 57 66 121
f 57 121 122
f 57 122 123
f 57 123 124
f 57 124 120
f 58 67 59
f 59 67 125
f 59 125 60
f 60 125 61
f 61 125 62
f 62 126 63
f 62 125 126
f 63 126 127
f 63 127 64
f 64 127 65
f 65 127 128
f 65 128 129
f 65 129 66
f 66 129 121
f 67 130 131
f 67 131 125
f 68 113 114
f 69 132 133
f 69 133 83
f 69 83 70
f 72 82 73
f 73 82 74
f 74 82 134
f 74 134 135
f 74 135 77
f 74 77 76
f 74 76 75
f 77 135 136
f 77 136 137
f 77 137 78
f 78 137 79
f 79 138 140
f 79 140 80
f 79 137 136
f 79 136 139
f 79 139 138
f 80 140 141
f 80 141 81
f 81 141 142
f 82 93 143
f 82 143 144
f 82 144 145
f 82 145 146
f 82 146 147
f 82 147 134
f 83 133 228
f 83 228 148
f 83 148 149
f 83 149 150
f 83 150 151
f 83 151 152
f 83 152 153
f 83 153 154
f 83 154 155
f 83 155 156
f 83 156 157
f 83 157 158
f 83 158 159
f 83 159 160
f 83 160 161
f 83 161 162
f 83 162 163
f 83 163 164
f 83 164 84
f 84 165 85
f 84 164 165
f 85 165 86
f 86 165 87
f 87 165 166
f 87 166 167
f 88 167 168
f 88 168 169
f 88 169 89
f 89 169 170
f 89 170 171
f 89 171 172
f 89 172 90
f 90 172 173
f 90 173 91
f 91 173 270
f 91 270 174
f 91 174 92
f 92 174 175
f 92 175 93
f 93 175 176
f 93 176 143
f 94 177 178
f 94 178 95
f 95 178 179
f 95 179 96
f 96 180 97
f 96 179 181
f 96 181 182
f 96 182 180
f 97 180 183
f 97 183 98
f 98 183 184
f 98 184 185
f 98 185 99
f 99 185 186
f 99 186 100
f 100 186 187
f 100 187 101
f 101 187 188
f 101 188 189
f 101 189 102
f 102 189 103
f 103 189 190
f 103 190 104
f 104 190 191
f 104 191 105
f 105 191 192
f 105 192 106
f 106 192 193
f 106 193 194
f 106 194 107
f 107 194 108
f 108 194 109
f 109 194 195
f 109 195 110
f 110 195 196
f 110 196 111
f 111 196 112
f 112 197 113
f 112 196 198
f 112 198 197
f 113 197 114
f 114 197 198
f 114 198 115
f 115 199 116
f 115 198 200
f 115 200 199
f 116 199 201
f 116 201 202
f 116 202 118
f 117 203 204
f 117 204 205
f 117 205 130
f 117 119 203
f 118 202 206
f 118 206 119
f 119 206 296
f 119 296 203
f 120 124 208
f 120 208 207
f 121 129 209
f 121 209 122
f 122 209 123
f 123 209 210
f 123 210 124
f 124 210 211
f 124 211 212
f 124 212 208
f 125 131 126
f 126 131 213
f 126 213 214
f 126 214 215
f 126 215 216
f 126 216 127
f 127 217 218
f 127 218 128
f 127 216 219
f 127 219 220
f 127 220 221
f 127 221 217
f 128 218 222
f 128 222 129
f 129 222 223
f 129 223 224
f 129 224 209
f 130 205 225
f 130 225 131
f 131 225 213
f 132 226 133
f 133 226 227
f 133 227 228
f 134 147 135
f 135 147 229
f 135 229 136
f 136 229 139
f 138 139 233
f 138 233 230
f 138 230 140
f 139 229 231
f 139 231 232
f 139 232 233
f 140 234 141
f 140 230 235
f 140 235 234
f 141 234 236
f 141 236 142
f 142 236 237
f 143 176 238
f 143 238 239
f 143 239 240
f 143 240 144
f 144 240 241
f 144 241 242
f 144 242 145
f 145 242 147
f 145 147 146
f 147 242 231
f 147 231 229
f 148 228 243
f 148 243 149
f 149 243 244
f 149 244 150
f 150 244 245
f 150 245 151
f 151 245 152
f 152 245 351
f 152 351 246
f 152 246 247
f 152 247 153
f 153 247 154
f 154 247 248
f 154 248 155
f 155 248 249
f 155 249 156
f 156 249 158
f 156 158 157
f 158 249 250
f 158 250 159
f 159 250 251
f 159 251 160
f 160 251 252
f 160 252 253
f 160 253 254
f 160 254 161
f 161 254 162
f 162 164 163
f 162 254 255
f 162 255 165
f 162 165 164
f 165 256 257
f 165 257 258
f 165 258 166
f 165 255 256
f 166 258 167
f 167 258 168
f 168 259 260
f 168 260 261
f 168 261 262
f 168 262 169
f 168 258 257
f 168 257 259
f 169 262 263
f 169 263 264
f 169 264 170
f 170 264 265
f 170 265 266
f 170 266 171
f 171 266 267
f 171 267 268
f 171 268 269
f 171 269 173
f 171 173 172
f 173 269 270
f 174 270 271
f 174 271 175
f 175 271 176
f 176 271 272
f 176 272 238
f 177 273 181
f 177 181 179
f 177 179 178
f 180 274 183
f 180 182 275
f 180 275 276
f 180 276 277
f 180 277 274
f 181 273 275
f 181 275 182
f 183 274 278
f 183 278 184
f 184 278 279
f 184 279 185
f 185 279 280
f 185 280 186
f 186 280 281
f 186 281 187
f 187 281 188
f 188 281 282
f 188 282 189
f 189 283 284
f 189 284 190
f 189 282 283
f 190 284 285
f 190 285 191
f 191 285 192
f 192 285 193
f 193 285 286
f 193 286 194
f 194 286 287
f 194 287 198
f 194 198 195
f 195 198 196
f 198 287 293
f 198 293 200
f 199 288 289
f 199 289 290
f 199 290 201
f 199 200 291
f 199 291 292
f 199 292 288
f 200 293 294
f 200 294 291
f 201 290 202
f 202 290 295
f 202 295 206
f 203 296 297
f 203 297 298
f 203 298 204
f 204 298 205
f 205 298 225
f 206 295 296
f 207 208 300
f 207 300 301
f 207 301 302
f 207 302 303
f 207 303 299
f 208 304 300
f 208 212 304
f 209 224 305
f 209 305 210
f 210 305 306
f 210 306 211
f 211 306 307
f 211 307 302
f 211 302 212
f 212 302 304
f 213 225 308
f 213 308 214
f 214 308 215
f 215 308 309
f 215 309 219
f 215 219 216
f 217 221 310
f 217 310 218
f 218 310 311
f 218 311 312
f 218 312 313
f 218 313 222
f 219 314 315
f 219 315 220
f 219 309 320
f 219 320 314
f 220 315 221
f 221 315 316
f 221 316 310
f 222 313 317
f 222 317 223
f 223 317 224
f 224 317 318
f 224 318 305
f 225 298 319
f 225 319 320
f 225 320 308
f 226 321 322
f 226 322 323
f 226 323 324
f 226 324 325
f 226 325 326
f 226 326 327
f 226 327 328
f 226 328 329
f 226 329 227
f 227 329 228
f 228 329 330
f 228 330 331
f 228 331 243
f 230 233 235
f 231 242 232
f 232 242 241
f 232 241 332
f 232 332 233
f 233 332 333
f 233 333 334
f 233 334 235
f 234 235 335
f 234 335 336
f 234 336 337
f 234 337 236
f 235 338 335
f 235 334 333
f 235 333 339
f 235 339 338
f 236 337 340
f 236 340 341
f 236 341 342
f 236 342 237
f 238 272 343
f 238 343 344
f 238 344 345
f 238 345 239
f 239 345 346
f 239 346 240
f 240 346 347
f 240 347 241
f 241 347 332
f 243 331 348
f 243 348 349
f 243 349 244
f 244 350 351
f 244 351 245
f 244 349 352
f 244 352 350
f 246 351 353
f 246 353 247
f 247 353 354
f 247 354 248
f 248 354 249
f 249 355 250
f 249 354 355
f 250 356 251
f 250 355 354
f 250 354 356
f 251 357 252
f 251 356 358
f 251 358 357
f 252 359 462
f 252 462 360
f 252 360 364
f 252 364 361
f 252 361 362
f 252 362 253
f 252 357 363
f 252 363 359
f 253 362 255
f 253 255 254
f 255 362 361
f 255 361 364
f 255 364 365
f 255 365 256
f 256 366 257
f 256 365 366
f 257 366 367
f 257 367 368
f 257 368 259
f 259 368 369
f 259 369 260
f 260 369 370
f 260 370 261
f 261 370 371
f 261 371 262
f 262 371 372
f 262 372 373
f 262 373 263
f 263 373 374
f 263 374 264
f 264 266 265
f 264 374 375
f 264 375 266
f 266 375 376
f 266 376 267
f 267 376 268
f 268 376 377
f 268 377 378
f 268 378 379
f 268 379 269
f 269 379 271
f 269 271 270
f 271 379 272
f 272 379 380
f 272 380 343
f 274 277 381
f 274 381 382
f 274 382 278
f 276 383 384
f 276 384 385
f 276 385 381
f 276 381 277
f 278 382 381
f 278 381 386
f 278 386 387
f 278 387 279
f 279 387 388
f 279 388 389
f 279 389 280
f 280 389 390
f 280 390 281
f 281 390 391
f 281 391 392
f 281 392 282
f 282 392 393
f 282 393 394
f 282 394 283
f 283 394 395
f 283 395 284
f 284 395 396
f 284 396 285
f 285 396 397
f 285 397 398
f 285 398 399
f 285 399 286
f 286 399 293
f 286 293 287
f 288 292 405
f 288 405 400
f 288 400 289
f 289 400 401
f 289 401 402
f 289 402 290
f 290 402 295
f 291 403 405
f 291 405 292
f 291 294 404
f 291 404 403
f 293 399 294
f 294 398 397
f 294 397 406
f 294 406 407
f 294 407 408
f 294 408 409
f 294 409 404
f 294 399 398
f 295 402 410
f 295 410 297
f 295 297 296
f 297 411 412
f 297 412 298
f 297 410 411
f 298 412 413
f 298 413 414
f 298 414 436
f 298 436 319
f 299 303 415
f 300 304 301
f 301 304 302
f 302 416 417
f 302 417 418
f 302 418 303
f 302 307 419
f 302 419 416
f 303 418 415
f 305 318 420
f 305 420 306
f 306 420 421
f 306 421 422
f 306 422 423
f 306 423 424
f 306 424 416
f 306 416 307
f 307 416 419
f 308 320 309
f 310 316 425
f 310 425 426
f 310 426 311
f 311 427 428
f 311 428 429
f 311 429 313
f 311 313 312
f 311 426 427
f 313 429 430
f 313 430 536
f 313 536 431
f 313 431 317
f 314 432 433
f 314 433 315
f 314 320 432
f 315 433 425
f 315 425 316
f 317 431 434
f 317 434 435
f 317 435 318
f 318 435 420
f 319 436 320
f 320 436 432
f 321 353 322
f 322 353 323
f 323 353 324
f 324 353 325
f 325 353 326
f 326 353 327
f 327 353 348
f 327 348 437
f 327 437 329
f 327 329 328
f 329 437 348
f 329 348 330
f 330 348 331
f 332 347 333
f 333 438 447
f 333 447 339
f 333 347 346
f 333 346 438
f 335 439 336
f 335 338 440
f 335 440 441
f 335 441 439
f 336 439 442
f 336 442 443
f 336 443 444
f 336 444 445
f 336 445 337
f 337 445 547
f 337 547 446
f 337 446 340
f 338 339 447
f 338 447 440
f 340 446 448
f 340 448 449
f 340 449 450
f 340 450 341
f 343 380 451
f 343 451 452
f 343 452 344
f 344 452 453
f 344 453 345
f 345 453 438
f 345 438 346
f 348 353 349
f 349 353 352
f 350 352 353
f 350 353 351
f 354 454 455
f 354 455 456
f 354 456 457
f 354 457 458
f 354 458 459
f 354 459 460
f 354 460 461
f 354 461 357
f 354 357 358
f 354 358 356
f 357 461 363
f 359 363 459
f 359 459 458
f 359 458 457
f 359 457 456
f 359 456 462
f 360 463 365
f 360 365 364
f 360 462 456
f 360 456 464
f 360 464 465
f 360 465 466
f 360 466 463
f 363 461 460
f 363 460 459
f 365 463 467
f 365 467 366
f 366 467 468
f 366 468 469
f 366 469 470
f 366 470 367
f 367 470 368
f 368 470 369
f 369 471 472
f 369 472 370
f 369 470 471
f 370 472 473
f 370 473 371
f 371 473 372
f 372 473 474
f 372 474 373
f 373 474 374
f 374 474 475
f 374 475 569
f 374 569 476
f 374 476 375
f 375 476 376
f 376 476 477
f 376 477 478
f 376 478 479
f 376 479 377
f 377 479 480
f 377 480 481
f 377 481 482
f 377 482 483
f 377 483 378
f 378 483 380
f 378 380 379
f 380 483 484
f 380 484 555
f 380 555 451
f 381 385 485
f 381 485 486
f 381 486 487
f 381 487 387
f 381 387 386
f 383 485 384
f 384 485 385
f 387 488 388
f 387 487 488
f 388 488 389
f 389 488 489
f 389 489 390
f 390 489 490
f 390 490 491
f 390 491 391
f 391 491 492
f 391 492 392
f 392 492 393
f 393 492 493
f 393 493 592
f 393 592 494
f 393 494 495
f 393 495 496
f 393 496 394
f 394 496 395
f 395 496 495
f 395 495 497
f 395 497 396
f 396 497 397
f 397 497 406
f 400 498 501
f 400 501 401
f 400 405 499
f 400 499 500
f 400 500 498
f 401 501 502
f 401 502 503
f 401 503 504
f 401 504 505
f 401 505 402
f 402 505 506
f 402 506 410
f 403 404 507
f 403 507 499
f 403 499 405
f 404 409 508
f 404 508 509
f 404 509 510
f 404 510 511
f 404 511 507
f 406 497 495
f 406 495 407
f 407 508 408
f 407 495 512
f 407 512 508
f 408 508 409
f 410 506 411
f 411 506 504
f 411 504 513
f 411 513 514
f 411 514 515
f 411 515 516
f 411 516 412
f 412 516 517
f 412 517 413
f 413 517 518
f 413 518 414
f 414 518 541
f 414 541 436
f 415 418 520
f 415 520 519
f 416 424 423
f 416 423 521
f 416 521 417
f 417 522 523
f 417 523 520
f 417 520 418
f 417 521 522
f 420 435 421
f 421 524 525
f 421 525 526
f 421 526 423
f 421 423 422
f 421 435 524
f 423 526 527
f 423 527 521
f 425 433 528
f 425 528 529
f 425 529 530
f 425 530 427
f 425 427 426
f 427 530 531
f 427 531 428
f 428 531 532
f 428 532 533
f 428 533 534
f 428 534 429
f 429 534 535
f 429 535 430
f 430 535 628
f 430 628 536
f 431 536 537
f 431 537 434
f 432 436 538
f 432 538 433
f 433 538 528
f 434 537 539
f 434 539 540
f 434 540 435
f 435 540 524
f 436 541 538
f 438 453 549
f 438 549 447
f 439 441 542
f 439 542 442
f 440 447 441
f 441 447 549
f 441 549 542
f 442 543 443
f 442 542 543
f 443 543 544
f 443 544 545
f 443 545 444
f 444 545 638
f 444 638 546
f 444 546 547
f 444 547 445
f 446 547 548
f 446 548 448
f 448 548 550
f 448 550 551
f 448 551 552
f 448 552 449
f 449 552 553
f 449 553 554
f 449 554 450
f 451 555 556
f 451 556 452
f 452 556 549
f 452 549 453
f 454 557 455
f 455 557 558
f 455 558 466
f 455 466 465
f 455 465 464
f 455 464 456
f 463 559 467
f 463 466 560
f 463 560 559
f 466 558 560
f 467 559 560
f 467 560 561
f 467 561 562
f 467 562 563
f 467 563 468
f 468 563 469
f 469 563 470
f 470 563 471
f 471 564 565
f 471 565 472
f 471 563 564
f 472 565 473
f 473 565 474
f 474 565 566
f 474 566 567
f 474 567 475
f 475 567 568
f 475 568 569
f 476 569 570
f 476 570 477
f 477 570 571
f 477 571 572
f 477 572 478
f 478 572 479
f 479 572 573
f 479 573 574
f 479 574 575
f 479 575 480
f 480 575 481
f 481 575 576
f 481 576 577
f 481 577 578
f 481 578 579
f 481 579 482
f 482 579 580
f 482 580 483
f 483 580 581
f 483 581 582
f 483 582 484
f 484 582 555
f 485 583 584
f 485 584 486
f 486 584 487
f 487 584 585
f 487 585 586
f 487 586 587
f 487 587 488
f 488 588 590
f 488 590 489
f 488 587 588
f 489 589 490
f 489 590 589
f 490 589 491
f 491 589 591
f 491 591 492
f 492 591 586
f 492 586 493
f 493 586 593
f 493 593 592
f 494 512 495
f 494 592 512
f 498 531 501
f 498 500 598
f 498 598 594
f 498 594 531
f 499 507 595
f 499 595 596
f 499 596 597
f 499 597 500
f 500 597 598
f 501 531 502
f 502 531 503
f 503 531 504
f 504 506 505
f 504 531 513
f 507 511 602
f 507 602 595
f 508 512 599
f 508 599 600
f 508 600 601
f 508 601 509
f 509 601 602
f 509 602 510
f 510 602 511
f 512 592 603
f 512 603 599
f 513 531 514
f 514 531 515
f 515 531 516
f 516 531 517
f 517 531 518
f 518 531 541
f 519 520 605
f 519 605 606
f 519 606 607
f 519 607 608
f 519 608 604
f 520 609 610
f 520 610 605
f 520 523 611
f 520 611 609
f 521 527 612
f 521 612 522
f 522 612 680
f 522 680 611
f 522 611 523
f 524 613 614
f 524 614 615
f 524 615 525
f 524 540 613
f 525 615 526
f 526 616 617
f 526 617 618
f 526 618 619
f 526 619 527
f 526 615 616
f 527 619 620
f 527 620 612
f 528 538 531
f 528 531 529
f 529 531 530
f 531 622 623
f 531 623 533
f 531 533 624
f 531 624 532
f 531 538 541
f 531 594 625
f 531 625 621
f 532 624 533
f 533 626 534
f 533 623 626
f 534 626 535
f 535 626 627
f 535 627 628
f 536 628 629
f 536 629 537
f 537 629 539
f 539 630 631
f 539 631 613
f 539 613 540
f 539 629 627
f 539 627 630
f 542 632 633
f 542 633 543
f 542 549 556
f 542 556 632
f 543 633 544
f 544 633 707
f 544 707 634
f 544 634 635
f 544 635 545
f 545 635 636
f 545 636 637
f 545 637 638
f 546 638 716
f 546 716 639
f 546 639 547
f 547 639 640
f 547 640 548
f 548 640 641
f 548 641 550
f 551 553 552
f 555 582 662
f 555 662 642
f 555 642 632
f 555 632 556
f 557 643 644
f 557 644 645
f 557 645 646
f 557 646 558
f 558 646 561
f 558 561 560
f 561 646 562
f 562 646 563
f 563 646 647
f 563 647 565
f 563 565 564
f 565 647 566
f 566 647 648
f 566 648 567
f 567 648 649
f 567 649 568
f 568 649 650
f 568 650 651
f 568 651 569
f 569 651 571
f 569 571 570
f 571 651 572
f 572 651 650
f 572 650 573
f 573 650 652
f 573 652 653
f 573 653 654
f 573 654 574
f 574 654 575
f 575 654 655
f 575 655 576
f 576 655 577
f 577 654 656
f 577 656 657
f 577 657 578
f 577 655 654
f 578 658 579
f 578 657 658
f 579 658 659
f 579 659 580
f 580 659 660
f 580 660 661
f 580 661 662
f 580 662 582
f 580 582 581
f 583 663 584
f 584 663 586
f 584 586 585
f 586 664 593
f 586 591 589
f 586 589 590
f 586 590 588
f 586 588 587
f 592 593 665
f 592 665 603
f 593 664 665
f 594 598 669
f 594 669 666
f 594 666 625
f 595 602 667
f 595 667 668
f 595 668 669
f 595 669 596
f 596 669 597
f 597 669 598
f 599 603 600
f 600 603 601
f 601 603 670
f 601 670 602
f 602 670 667
f 603 665 671
f 603 671 670
f 604 608 672
f 605 673 607
f 605 607 606
f 605 610 673
f 607 673 674
f 607 674 675
f 607 675 676
f 607 676 677
f 607 677 608
f 608 677 678
f 608 678 672
f 609 679 681
f 609 681 610
f 609 611 680
f 609 680 679
f 610 681 673
f 612 620 689
f 612 689 680
f 613 631 682
f 613 682 614
f 614 682 683
f 614 683 684
f 614 684 616
f 614 616 615
f 616 684 685
f 616 685 686
f 616 686 617
f 617 686 618
f 618 687 688
f 618 688 619
f 618 686 687
f 619 688 620
f 620 688 689
f 621 625 666
f 621 666 669
f 621 669 691
f 621 691 690
f 622 692 693
f 622 693 694
f 622 694 695
f 622 695 696
f 622 696 697
f 622 697 698
f 622 698 699
f 622 699 700
f 622 700 701
f 622 701 702
f 622 702 703
f 622 703 704
f 622 704 623
f 623 705 626
f 623 704 705
f 626 630 627
f 626 705 631
f 626 631 630
f 627 629 628
f 631 705 706
f 631 706 682
f 632 642 707
f 632 707 633
f 634 707 708
f 634 708 709
f 634 709 635
f 635 709 710
f 635 710 711
f 635 711 636
f 636 711 712
f 636 712 713
f 636 713 714
f 636 714 715
f 636 715 637
f 637 715 716
f 637 716 638
f 639 716 717
f 639 717 718
f 639 718 641
f 639 641 640
f 642 662 707
f 643 719 644
f 643 720 721
f 643 721 719
f 645 722 723
f 645 723 646
f 646 723 647
f 647 723 648
f 648 723 724
f 648 724 649
f 649 724 652
f 649 652 650
f 652 724 725
f 652 725 653
f 653 725 654
f 654 726 656
f 656 727 728
f 656 728 657
f 656 726 727
f 657 728 729
f 657 729 659
f 657 659 658
f 659 729 730
f 659 730 660
f 660 731 661
f 660 730 732
f 660 732 760
f 660 760 731
f 661 731 662
f 662 731 708
f 662 708 707
f 664 721 733
f 664 733 665
f 665 733 734
f 665 734 671
f 667 670 671
f 667 671 668
f 668 671 735
f 668 735 736
f 668 736 669
f 669 736 691
f 671 734 735
f 673 681 737
f 673 737 674
f 674 737 738
f 674 738 739
f 674 739 676
f 674 676 675
f 676 739 741
f 676 741 742
f 676 742 740
f 679 680 689
f 679 689 688
f 679 688 743
f 679 743 744
f 679 744 737
f 679 737 681
f 682 706 745
f 682 745 683
f 683 745 746
f 683 746 747
f 683 747 685
f 683 685 684
f 685 747 758
f 685 758 748
f 685 748 687
f 685 687 686
f 687 748 749
f 687 749 688
f 688 749 750
f 688 750 751
f 688 751 744
f 688 744 743
f 690 691 752
f 690 752 753
f 690 753 720
f 691 736 753
f 691 753 752
f 692 740 742
f 692 742 694
f 692 694 693
f 694 742 754
f 694 754 695
f 695 754 751
f 695 751 755
f 695 755 696
f 696 755 756
f 696 756 697
f 697 756 698
f 698 756 757
f 698 757 748
f 698 748 758
f 698 758 759
f 698 759 699
f 699 759 700
f 700 759 701
f 701 759 746
f 701 746 702
f 702 746 745
f 702 745 706
f 702 706 703
f 703 706 705
f 703 705 704
f 708 731 760
f 708 760 709
f 709 760 761
f 709 761 762
f 709 762 710
f 710 762 763
f 710 763 764
f 710 764 712
f 710 712 711
f 712 764 765
f 712 765 766
f 712 766 713
f 713 767 715
f 713 715 714
f 713 766 768
f 713 768 717
f 713 717 767
f 715 767 717
f 715 717 716
f 720 753 721
f 721 753 769
f 721 769 736
f 721 736 735
f 721 735 734
f 721 734 733
f 722 724 723
f 726 770 727
f 727 771 772
f 727 772 728
f 727 770 771
f 728 772 729
f 729 772 773
f 729 773 774
f 729 774 730
f 730 774 732
f 732 774 773
f 732 773 761
f 732 761 760
f 736 769 753
f 737 744 738
f 738 751 754
f 738 754 775
f 738 775 739
f 738 744 751
f 739 775 742
f 739 742 741
f 742 775 754
f 746 759 758
f 746 758 747
f 748 757 749
f 749 757 776
f 749 776 750
f 750 776 755
f 750 755 751
f 755 776 756
f 756 776 757
f 761 773 777
f 761 777 778
f 761 778 762
f 762 778 763
f 763 778 779
f 763 779 780
f 763 780 764
f 764 780 765
f 770 781 771
f 771 781 782
f 771 782 772
f 772 782 777
f 772 777 773
f 777 782 778
f 778 782 783
f 778 783 779
f 779 784 780
f 779 783 784
f 782 785 783
f 783 785 784

