# https://github.com/mikedh/trimesh
v 0.48130920 -0.66674024 0.73078865
v 0.48124707 -0.72936631 0.74635740
v 0.48130920 -0.66674024 0.73068029
v 0.48128433 -0.66674024 0.74646576
v 0.48120982 -0.74504122 0.74635740
v 0.48123464 -0.72936631 0.73068029
v 0.48125951 -0.71367915 0.73068029
v 0.48098623 -0.72936631 0.76203454
v 0.48097380 -0.74504122 0.76203454
v 0.48111044 -0.66674024 0.71500316
v 0.48102349 -0.66674024 0.76203454
v 0.48088685 -0.76072843 0.76203454
v 0.48106075 -0.76072843 0.74635740
v 0.48116013 -0.74504122 0.73068029
v 0.48094898 -0.72936631 0.71500316
v 0.48101106 -0.71367915 0.71500316
v 0.48101106 -0.66674024 0.76217900
v 0.47914787 -0.77641559 0.77774778
v 0.47400544 -0.76072843 0.42356763
v 0.47401782 -0.74504122 0.42356763
v 0.47398057 -0.73590368 0.42356763
v 0.47394331 -0.72936631 0.42356763
v 0.48070052 -0.66674024 0.69943441
v 0.48005464 -0.77641559 0.76203454
v 0.48092411 -0.76072843 0.73068029
v 0.48081234 -0.74504122 0.71500316
v 0.47908575 -0.66674024 0.77774778
v 0.47487490 -0.78819019 0.77774778
v 0.47440291 -0.77641559 0.78890962
v 0.47334707 -0.78687786 0.78825939
v 0.47318561 -0.77641559 0.42356763
v 0.47386875 -0.72022877 0.42356763
v 0.48068809 -0.66674024 0.69928992
v 0.47380667 -0.71367915 0.42356763
v 0.47283783 -0.70711724 0.42356763
v 0.47212977 -0.70239514 0.42356763
v 0.47492459 -0.78799395 0.76203454
v 0.47990557 -0.77641559 0.74635740
v 0.47395570 -0.66674024 0.78807876
v 0.46270194 -0.79204147 0.77774778
v 0.47145902 -0.78522203 0.42356763
v 0.46270194 -0.77641559 0.79226899
v 0.46270194 -0.78816570 0.78959594
v 0.47719769 -0.66674024 0.68361278
v 0.46819220 -0.69966001 0.42356763
v 0.46270194 -0.69587007 0.42356763
v 0.46270194 -0.66674024 0.79060732
v 0.38429816 -0.78811661 0.78959594
v 0.35442472 -0.78809203 0.78945145
v 0.35442472 -0.79164899 0.77774778
v 0.44702614 -0.78857042 0.42356763
v 0.46270194 -0.78742973 0.42356763
v 0.46635384 -0.78652212 0.42356763
v 0.36860995 -0.66674024 0.79100471
v 0.38429816 -0.77641559 0.79255797
v 0.47225397 -0.66674024 0.67461833
v 0.44702614 -0.69274246 0.42356763
v 0.35442472 -0.78697593 0.78974043
v 0.35442472 -0.79038564 0.69928992
v 0.39997396 -0.78794487 0.42356763
v 0.40652002 -0.78805528 0.42356763
v 0.41566215 -0.78820244 0.42356763
v 0.43133795 -0.78839868 0.42356763
v 0.35442472 -0.66674024 0.79104084
v 0.35442472 -0.77641559 0.79241348
v 0.46270194 -0.66674024 0.67292058
v 0.43133795 -0.69275471 0.42356763
v 0.35442472 -0.66674024 0.66631017
v 0.36872174 -0.66674024 0.66685200
v 0.35442472 -0.78825152 0.68361278
v 0.37557833 -0.78508713 0.42356763
v 0.38429816 -0.78686551 0.42356763
v 0.39083181 -0.78731941 0.42356763
v 0.41566215 -0.69290191 0.42356763
v 0.35442472 -0.66813849 0.66623792
v 0.39997396 -0.69309815 0.42356763
v 0.38429816 -0.69571062 0.42356763
v 0.37408778 -0.70202721 0.42356763
v 0.37263448 -0.70882210 0.42356763
v 0.37160351 -0.71367915 0.42356763
v 0.37149172 -0.72936631 0.42356763
v 0.35442472 -0.78513621 0.67450995
v 0.37328039 -0.77641559 0.42356763
v 0.37462189 -0.78148113 0.42356763
v 0.35442472 -0.68380111 0.66580445
v 0.35442472 -0.70000345 0.66573221
v 0.37152897 -0.74504122 0.42356763
v 0.35442472 -0.71367915 0.66605730
v 0.35442472 -0.77641559 0.67216199
v 0.37170287 -0.76072843 0.42356763
v 0.37162833 -0.75419106 0.42356763
v 0.35442472 -0.76237196 0.66988627
v 0.35442472 -0.74685649 0.66800792
v 0.35442472 -0.74504122 0.66786343
v 0.35442472 -0.73127970 0.66681588
v 0.35442472 -0.72936631 0.66670751
v 0.35442472 -0.71569061 0.66612957
f 1 2 3
f 1 3 10
f 1 10 23
f 1 23 33
f 1 33 44
f 1 44 56
f 1 56 66
f 1 66 69
f 1 69 68
f 1 68 64
f 1 64 54
f 1 54 47
f 1 47 39
f 1 39 27
f 1 27 17
f 1 17 11
f 1 11 4
f 1 4 2
f 2 5 6
f 2 6 7
f 2 7 3
f 2 4 8
f 2 8 9
f 2 9 5
f 3 7 10
f 4 11 8
f 5 9 12
f 5 12 13
f 5 13 14
f 5 14 6
f 6 14 15
f 6 15 16
f 6 16 10
f 6 10 7
f 8 11 17
f 8 17 18
f 8 18 9
f 9 18 12
f 10 16 19
f 10 19 20
f 10 20 21
f 10 21 22
f 10 22 23
f 12 18 24
f 12 24 13
f 13 25 14
f 13 24 25
f 14 25 26
f 14 26 15
f 15 26 19
f 15 19 16
f 17 27 18
f 18 28 24
f 18 27 29
f 18 29 30
f 18 30 28
f 19 31 41
f 19 41 53
f 19 53 52
f 19 52 51
f 19 51 63
f 19 63 62
f 19 62 61
f 19 61 60
f 19 60 73
f 19 73 72
f 19 72 71
f 19 71 84
f 19 84 83
f 19 83 90
f 19 90 91
f 19 91 87
f 19 87 81
f 19 81 80
f 19 80 79
f 19 79 78
f 19 78 77
f 19 77 76
f 19 76 74
f 19 74 67
f 19 67 57
f 19 57 46
f 19 46 45
f 19 45 36
f 19 36 35
f 19 35 34
f 19 34 32
f 19 32 22
f 19 22 21
f 19 21 20
f 19 26 25
f 19 25 31
f 22 32 23
f 23 32 34
f 23 34 35
f 23 35 36
f 23 36 33
f 24 28 37
f 24 37 38
f 24 38 25
f 25 38 31
f 27 39 29
f 28 40 41
f 28 41 37
f 28 30 40
f 29 42 30
f 29 39 42
f 30 42 43
f 30 43 40
f 31 38 41
f 33 36 45
f 33 45 46
f 33 46 44
f 37 41 38
f 39 47 42
f 40 43 48
f 40 48 49
f 40 49 50
f 40 50 51
f 40 51 52
f 40 52 53
f 40 53 41
f 42 54 55
f 42 55 43
f 42 47 54
f 43 55 48
f 44 46 56
f 46 57 56
f 48 55 58
f 48 58 49
f 49 58 65
f 49 65 64
f 49 64 68
f 49 68 75
f 49 75 85
f 49 85 86
f 49 86 88
f 49 88 97
f 49 97 96
f 49 96 95
f 49 95 94
f 49 94 93
f 49 93 92
f 49 92 89
f 49 89 82
f 49 82 70
f 49 70 59
f 49 59 50
f 50 59 60
f 50 60 61
f 50 61 62
f 50 62 63
f 50 63 51
f 54 64 55
f 55 65 58
f 55 64 65
f 56 57 66
f 57 67 68
f 57 68 69
f 57 69 66
f 59 70 71
f 59 71 72
f 59 72 73
f 59 73 60
f 67 74 68
f 68 74 76
f 68 76 77
f 68 77 78
f 68 78 79
f 68 79 80
f 68 80 81
f 68 81 75
f 70 82 83
f 70 83 84
f 70 84 71
f 75 81 85
f 81 86 85
f 81 87 88
f 81 88 86
f 82 89 90
f 82 90 83
f 87 91 92
f 87 92 93
f 87 93 94
f 87 94 95
f 87 95 96
f 87 96 97
f 87 97 88
f 89 92 91
f 89 91 90

