# https://github.com/mikedh/trimesh
v -0.00644653 -0.02155359 0.03603519
v -0.00606392 -0.02141668 0.03603519
v -0.00644653 -0.02155359 0.03720510
v -0.00644653 -0.02148228 0.02285178
v -0.00547942 -0.02119707 0.03603519
v -0.00608066 -0.02141668 0.03720510
v -0.00619589 -0.02139387 0.02317716
v -0.00555279 -0.02117140 0.04053934
v -0.00644653 -0.02150510 0.04053934
v -0.00644653 -0.02147373 0.02200725
v -0.00349596 -0.02031292 0.03379043
v -0.00359198 -0.02035570 0.03486894
v -0.00299911 -0.02008761 0.03667499
v -0.00242298 -0.01981380 0.04053934
v -0.00301241 -0.02007905 0.01940055
v -0.00300699 -0.02008190 0.02017927
v -0.00620623 -0.02138531 0.02200725
v -0.00644653 -0.01712997 0.04053934
v -0.00644653 -0.02137105 0.01382886
v -0.00633180 -0.02133112 0.01382886
v -0.00299862 -0.02008761 0.03603519
v -0.00141599 -0.01933180 0.04040042
v -0.00141599 -0.01933180 0.04053934
v -0.00324236 -0.01999349 0.01032278
v -0.00242298 -0.01957993 0.01032278
v -0.00141599 -0.01902662 0.01010708
v -0.00242298 -0.01973965 0.01850484
v -0.00141599 -0.01918919 0.01849021
v -0.00141599 -0.01928331 0.02765572
v -0.00141599 -0.01930898 0.03371000
v -0.00644653 -0.01073841 0.03916470
v -0.00141599 -0.01637702 0.04053934
v -0.00141599 -0.00563314 0.03838963
v -0.00644653 -0.02136820 0.01365337
v -0.00644653 -0.02121989 0.00755888
v -0.00396573 -0.02018172 0.00798297
v -0.00330884 -0.01995070 0.00915288
v -0.00242298 -0.01951433 0.00915288
v -0.00141599 -0.01899525 0.00915288
v -0.00644653 -0.00999401 0.03898556
v -0.00141599 -0.00446378 0.03813372
v -0.00644653 -0.02112862 0.00681306
v -0.00592949 -0.02092898 0.00681306
v -0.00476049 -0.02043841 0.00681306
v -0.00407751 -0.02013038 0.00681306
v -0.00338172 -0.01990222 0.00798297
v -0.00242298 -0.01942877 0.00798297
v -0.00161197 -0.01902662 0.00798297
v -0.00141599 -0.01892395 0.00798297
v -0.00644653 -0.00973732 0.03890878
v -0.00141599 -0.00356251 0.03787780
v -0.00141599 -0.00305769 0.03772790
v -0.00644653 -0.02093183 0.00564680
v -0.00592949 -0.02074644 0.00564680
v -0.00473193 -0.02026729 0.00574186
v -0.00416220 -0.02008761 0.00619520
v -0.00188822 -0.01888972 0.00525196
v -0.00233582 -0.01915211 0.00564315
v -0.00179367 -0.01893820 0.00603068
v -0.00242298 -0.01933465 0.00681306
v -0.00170701 -0.01898384 0.00681306
v -0.00141599 -0.01882412 0.00681306
v -0.00644653 -0.00933517 0.03878814
v -0.00141599 -0.00215642 0.03743908
v -0.00644653 -0.02084626 0.00521906
v -0.00583790 -0.02040134 0.00439647
v -0.00510272 -0.02019028 0.00472916
v -0.00432322 -0.02001915 0.00541648
v -0.00370081 -0.01979954 0.00574186
v -0.00265540 -0.01907796 0.00447690
v -0.00207090 -0.01879845 0.00447690
v -0.00141599 -0.01844764 0.00447690
v -0.00141599 -0.01867011 0.00559197
v -0.00644653 -0.00832267 0.03845544
v -0.00141599 -0.00078741 0.03696381
v -0.00644653 -0.02066373 0.00448055
v -0.00616142 -0.02024447 0.00330699
v -0.00359198 -0.01949151 0.00447690
v -0.00287798 -0.01897528 0.00374936
v -0.00141599 -0.01805405 0.00335451
v -0.00644653 -0.00719039 0.03804963
v -0.00141599 0.00001403 0.03666036
v -0.00644653 -0.02035285 0.00330699
v -0.00620130 -0.02022450 0.00319000
v -0.00246188 -0.01858169 0.00333989
v -0.00368012 -0.01911504 0.00319000
v -0.00312812 -0.01884409 0.00319000
v -0.00276915 -0.01866726 0.00319000
v -0.00141599 -0.01804550 0.00333624
v -0.00644653 -0.00682247 0.03790705
v -0.00141599 0.00044755 0.03642638
v -0.00644653 -0.00449800 0.03678467
v -0.00644653 -0.00484026 0.03696747
v -0.00644653 -0.00599251 0.03754145
v -0.00644653 -0.00629198 0.03768769
v -0.00644653 -0.00645740 0.03776081
v -0.00644653 -0.02030436 0.00319000
v -0.00141599 -0.01797419 0.00319000
v -0.00141599 0.00125184 0.03596939
v -0.00644653 -0.00410156 0.03655800
v -0.00644653 -0.01629145 0.00319000
v -0.00141599 -0.00915264 0.00319000
v -0.00141599 0.00213599 0.03544658
v -0.00644653 -0.00363952 0.03627649
v -0.00534154 -0.01248389 0.00319000
v -0.00644653 -0.01248389 0.00354828
v -0.00350876 -0.01019651 0.00319000
v -0.00141599 0.00135166 0.01000471
v -0.00141599 0.00483979 0.03365150
v -0.00644653 -0.00268692 0.03566228
v -0.00481269 -0.01124893 0.00319000
v -0.00644653 -0.01217016 0.00362140
v -0.00644653 -0.01104073 0.00407839
v -0.00644653 -0.01066425 0.00433431
v -0.00141599 0.00157413 0.01015827
v -0.00141599 0.00694464 0.03213793
v -0.00644653 -0.00245875 0.03550873
v -0.00644653 -0.01162541 0.00375667
v -0.00644653 -0.00340279 0.00956235
v -0.00141599 0.00242976 0.01076150
v -0.00141599 0.00757781 0.03164803
v -0.00644653 -0.00234181 0.03542465
v -0.00644653 -0.00284093 0.01000106
v -0.00141599 0.00312852 0.01133914
v -0.00150955 0.00757781 0.03151642
v -0.00644653 0.00073561 0.03245235
v -0.00644653 -0.00033393 0.03361129
v -0.00644653 -0.00059632 0.03388914
v -0.00644653 -0.00092146 0.03421087
v -0.00644653 -0.00115819 0.03444119
v -0.00644653 -0.00145481 0.03471173
v -0.00141599 0.00757781 0.01563125
v -0.00644653 -0.00218495 0.01055311
v -0.00141599 0.00360197 0.01175592
v -0.00193499 0.00757781 0.03089490
v -0.00644653 0.00104364 0.03208309
v -0.00141599 0.00719563 0.01518888
v -0.00644653 -0.00103270 0.01170474
v -0.00644653 -0.00047083 0.01236282
v -0.00644653 0.00004255 0.01297336
v -0.00644653 0.00059015 0.01368262
v -0.00644653 0.00102938 0.01429316
v -0.00644653 0.00149427 0.01495855
v -0.00644653 0.00201050 0.01576652
v -0.00171932 0.00757781 0.01616502
v -0.00644653 -0.00158030 0.01110516
v -0.00141599 0.00444334 0.01252002
v -0.00225507 0.00757781 0.03039404
v -0.00644653 0.00122047 0.03187105
v -0.00141599 0.00692753 0.01490371
v -0.00644653 0.00237557 0.01642825
v -0.00216791 0.00757781 0.01716675
v -0.00141599 0.00602911 0.01401531
v -0.00141599 0.00572679 0.01371918
v -0.00141599 0.00482553 0.01287099
v -0.00234518 0.00757781 0.03024780
v -0.00644653 0.00159124 0.03139212
v -0.00644653 0.00255240 0.01679750
v -0.00644653 0.00280624 0.01733493
v -0.00221124 0.00757781 0.01730568
v -0.00237374 0.00757781 0.03019296
v -0.00644653 0.00239839 0.03027705
v -0.00644653 0.00289750 0.01760547
v -0.00254559 0.00757781 0.01845000
v -0.00286911 0.00757781 0.02914004
v -0.00644653 0.00325687 0.02894993
v -0.00644653 0.00316560 0.01850118
v -0.00260321 0.00757781 0.01866570
v -0.00291835 0.00757781 0.02902305
v -0.00644653 0.00343370 0.02859530
v -0.00307987 0.00757781 0.02084466
v -0.00288093 0.00757781 0.01987582
v -0.00283710 0.00757781 0.01967475
v -0.00644653 0.00380447 0.02141864
v -0.00355160 0.00757781 0.02318813
v -0.00307593 0.00757781 0.02860261
v -0.00333297 0.00757781 0.02788970
v -0.00335611 0.00757781 0.02782389
v -0.00644653 0.00353638 0.02834304
v -0.00644653 0.00400983 0.02238382
v -0.00644653 0.00417525 0.02317716
v -0.00644653 0.00439771 0.02430320
v -0.00644653 0.00440627 0.02434707
v -0.00360232 0.00757781 0.02354276
v -0.00357081 0.00757781 0.02695377
v -0.00644653 0.00369895 0.02785314
v -0.00644653 0.00440627 0.02435438
v -0.00373281 0.00757781 0.02551698
v -0.00372050 0.00757781 0.02448600
v -0.00371509 0.00757781 0.02434707
v -0.00362694 0.00757781 0.02666130
v -0.00644653 0.00434637 0.02551332
v -0.00372395 0.00757781 0.02566687
f 1 2 3
f 1 3 9
f 1 9 18
f 1 18 31
f 1 31 40
f 1 40 50
f 1 50 63
f 1 63 74
f 1 74 81
f 1 81 90
f 1 90 96
f 1 96 95
f 1 95 94
f 1 94 93
f 1 93 92
f 1 92 100
f 1 100 104
f 1 104 110
f 1 110 117
f 1 117 122
f 1 122 131
f 1 131 130
f 1 130 129
f 1 129 128
f 1 128 127
f 1 127 126
f 1 126 136
f 1 136 149
f 1 149 157
f 1 157 162
f 1 162 166
f 1 166 170
f 1 170 179
f 1 179 186
f 1 186 192
f 1 192 187
f 1 187 183
f 1 183 182
f 1 182 181
f 1 181 180
f 1 180 174
f 1 174 167
f 1 167 163
f 1 163 159
f 1 159 158
f 1 158 151
f 1 151 144
f 1 144 143
f 1 143 142
f 1 142 141
f 1 141 140
f 1 140 139
f 1 139 138
f 1 138 146
f 1 146 133
f 1 133 123
f 1 123 119
f 1 119 114
f 1 114 113
f 1 113 118
f 1 118 112
f 1 112 106
f 1 106 101
f 1 101 97
f 1 97 83
f 1 83 76
f 1 76 65
f 1 65 53
f 1 53 42
f 1 42 35
f 1 35 34
f 1 34 19
f 1 19 10
f 1 10 4
f 1 4 2
f 2 5 6
f 2 6 3
f 2 4 7
f 2 7 5
f 3 6 8
f 3 8 9
f 4 10 7
f 5 11 12
f 5 12 13
f 5 13 14
f 5 14 8
f 5 8 6
f 5 7 15
f 5 15 16
f 5 16 11
f 7 10 17
f 7 17 15
f 8 14 23
f 8 23 32
f 8 32 18
f 8 18 9
f 10 19 20
f 10 20 17
f 11 21 13
f 11 13 12
f 11 16 21
f 13 21 14
f 14 22 23
f 14 21 22
f 15 20 24
f 15 24 25
f 15 25 26
f 15 26 27
f 15 27 28
f 15 28 29
f 15 29 16
f 15 17 20
f 16 29 30
f 16 30 22
f 16 22 21
f 18 32 33
f 18 33 31
f 19 34 20
f 20 34 35
f 20 35 24
f 22 30 29
f 22 29 28
f 22 28 26
f 22 26 39
f 22 39 49
f 22 49 62
f 22 62 73
f 22 73 72
f 22 72 80
f 22 80 89
f 22 89 98
f 22 98 102
f 22 102 108
f 22 108 115
f 22 115 120
f 22 120 124
f 22 124 134
f 22 134 147
f 22 147 155
f 22 155 154
f 22 154 153
f 22 153 150
f 22 150 137
f 22 137 132
f 22 132 121
f 22 121 116
f 22 116 109
f 22 109 103
f 22 103 99
f 22 99 91
f 22 91 82
f 22 82 75
f 22 75 64
f 22 64 52
f 22 52 51
f 22 51 41
f 22 41 33
f 22 33 32
f 22 32 23
f 24 35 36
f 24 36 37
f 24 37 38
f 24 38 25
f 25 38 39
f 25 39 26
f 26 28 27
f 31 33 41
f 31 41 40
f 35 42 43
f 35 43 44
f 35 44 36
f 36 44 45
f 36 45 46
f 36 46 37
f 37 46 38
f 38 46 47
f 38 47 48
f 38 48 39
f 39 48 49
f 40 41 51
f 40 51 52
f 40 52 50
f 42 53 54
f 42 54 43
f 43 54 55
f 43 55 44
f 44 55 56
f 44 56 45
f 45 56 57
f 45 57 58
f 45 58 59
f 45 59 60
f 45 60 46
f 46 60 61
f 46 61 47
f 47 61 48
f 48 61 49
f 49 61 62
f 50 52 63
f 52 64 63
f 53 65 54
f 54 65 66
f 54 66 67
f 54 67 55
f 55 67 68
f 55 68 57
f 55 57 69
f 55 69 56
f 56 69 57
f 57 70 71
f 57 71 72
f 57 72 73
f 57 73 59
f 57 59 58
f 57 68 70
f 59 73 62
f 59 62 61
f 59 61 60
f 63 64 74
f 64 75 74
f 65 76 66
f 66 76 77
f 66 77 67
f 67 77 78
f 67 78 68
f 68 78 70
f 70 78 79
f 70 79 71
f 71 79 80
f 71 80 72
f 74 75 81
f 75 82 81
f 76 83 77
f 77 83 84
f 77 84 79
f 77 79 78
f 79 85 80
f 79 84 86
f 79 86 87
f 79 87 88
f 79 88 85
f 80 85 89
f 81 82 90
f 82 91 92
f 82 92 93
f 82 93 94
f 82 94 95
f 82 95 96
f 82 96 90
f 83 97 84
f 84 97 101
f 84 101 105
f 84 105 111
f 84 111 107
f 84 107 102
f 84 102 98
f 84 98 88
f 84 88 87
f 84 87 86
f 85 88 89
f 88 98 89
f 91 99 92
f 92 99 100
f 99 103 100
f 100 103 104
f 101 106 105
f 102 107 108
f 103 109 110
f 103 110 104
f 105 106 111
f 106 112 111
f 107 111 113
f 107 113 114
f 107 114 108
f 108 114 115
f 109 116 122
f 109 122 117
f 109 117 110
f 111 112 118
f 111 118 113
f 114 119 120
f 114 120 115
f 116 121 122
f 119 123 120
f 120 123 124
f 121 125 126
f 121 126 127
f 121 127 128
f 121 128 129
f 121 129 130
f 121 130 131
f 121 131 122
f 121 132 145
f 121 145 152
f 121 152 160
f 121 160 164
f 121 164 168
f 121 168 173
f 121 173 172
f 121 172 171
f 121 171 175
f 121 175 184
f 121 184 190
f 121 190 189
f 121 189 188
f 121 188 193
f 121 193 191
f 121 191 185
f 121 185 178
f 121 178 177
f 121 177 176
f 121 176 169
f 121 169 165
f 121 165 161
f 121 161 156
f 121 156 148
f 121 148 135
f 121 135 125
f 123 133 124
f 124 133 134
f 125 135 126
f 126 135 136
f 132 137 138
f 132 138 139
f 132 139 140
f 132 140 141
f 132 141 142
f 132 142 143
f 132 143 144
f 132 144 145
f 133 146 147
f 133 147 134
f 135 148 149
f 135 149 136
f 137 150 146
f 137 146 138
f 144 151 145
f 145 151 152
f 146 150 153
f 146 153 154
f 146 154 155
f 146 155 147
f 148 156 157
f 148 157 149
f 151 158 152
f 152 158 159
f 152 159 160
f 156 161 162
f 156 162 157
f 159 163 160
f 160 163 164
f 161 165 166
f 161 166 162
f 163 167 168
f 163 168 164
f 165 169 166
f 166 169 170
f 167 171 172
f 167 172 173
f 167 173 168
f 167 174 175
f 167 175 171
f 169 176 170
f 170 176 177
f 170 177 178
f 170 178 179
f 174 180 175
f 175 180 181
f 175 181 182
f 175 182 183
f 175 183 184
f 178 185 186
f 178 186 179
f 183 187 188
f 183 188 189
f 183 189 190
f 183 190 184
f 185 191 192
f 185 192 186
f 187 192 188
f 188 192 193
f 191 193 192

