# https://github.com/mikedh/trimesh
v -0.06502829 0.03256748 0.07861775
v -0.06441349 0.03256748 0.07800434
v -0.06502042 0.03256748 0.07929244
v -0.06501414 0.03266126 0.07863727
v -0.06371222 0.03357719 0.07755364
v -0.06383171 0.03279865 0.07751839
v -0.06385216 0.03256748 0.07751025
v -0.06498112 0.03256748 0.07964009
v -0.06500313 0.03262855 0.07929244
v -0.06396065 0.03518662 0.07929244
v -0.06394493 0.03515827 0.07850657
v -0.06412103 0.03427723 0.07827607
v -0.06263357 0.03605022 0.07753466
v -0.05912719 0.03369714 0.07572970
v -0.05933317 0.03316938 0.07572970
v -0.05955802 0.03256748 0.07572970
v -0.06495281 0.03256748 0.07984293
v -0.06386474 0.03499907 0.07997310
v -0.06283483 0.03764002 0.07929244
v -0.06145744 0.04070622 0.07870832
v -0.06145744 0.04070622 0.07870778
v -0.06294176 0.03651037 0.07808515
v -0.06280024 0.03756369 0.07844962
v -0.05828126 0.03555954 0.07572970
v -0.05888976 0.03422489 0.07572970
v -0.06147945 0.03841638 0.07752707
v -0.05690858 0.03853851 0.07572970
v -0.05726236 0.03779050 0.07572970
v -0.05729066 0.03772943 0.07572970
v -0.05676549 0.03256748 0.07572970
v -0.06491508 0.03256748 0.07990856
v -0.06400468 0.03427723 0.08013093
v -0.06290245 0.03661505 0.08021065
v -0.06273106 0.03742412 0.08001540
v -0.06137096 0.04053612 0.07948769
v -0.06036936 0.04202561 0.07996876
v -0.06010992 0.04272564 0.07929244
v -0.05914920 0.04425002 0.07887808
v -0.06123102 0.03919493 0.07768001
v -0.06159109 0.04012177 0.07852067
v -0.05914920 0.04425002 0.07866981
v -0.05935833 0.04363067 0.07847348
v -0.06180336 0.03886563 0.07809112
v -0.05524816 0.04119908 0.07572970
v -0.05537080 0.04101153 0.07572970
v -0.05580320 0.04034421 0.07572970
v -0.05591170 0.04017629 0.07572970
v -0.05655951 0.03914041 0.07572970
v -0.05688657 0.03858213 0.07572970
v -0.05915392 0.04193837 0.07752219
v -0.05678436 0.03256748 0.07615653
v -0.04896655 0.04450299 0.07572970
v -0.04896655 0.04450735 0.07584251
v -0.06438519 0.03256748 0.08032943
v -0.06438833 0.03299274 0.08021553
v -0.06329711 0.03427723 0.08071504
v -0.06244961 0.03568167 0.08096236
v -0.06220903 0.03661505 0.08079477
v -0.06176248 0.03895286 0.08021282
v -0.06156751 0.03975758 0.08001161
v -0.05973884 0.04243341 0.08030827
v -0.05937091 0.04338642 0.08012387
v -0.05804225 0.04549089 0.07996930
v -0.05907688 0.04416279 0.07965745
v -0.06057534 0.04129068 0.08016889
v -0.05946211 0.04371573 0.07927780
v -0.05813188 0.04566100 0.07929244
v -0.05678436 0.04771967 0.07870995
v -0.05810043 0.04564355 0.07851199
v -0.05743690 0.04600556 0.07818169
v -0.05678436 0.04771967 0.07870670
v -0.05463022 0.04211720 0.07572970
v -0.05438335 0.04881661 0.07755093
v -0.05678751 0.03256748 0.07620155
v -0.04896655 0.04840226 0.07572970
v -0.04896655 0.04460113 0.07661754
v -0.06386788 0.03256748 0.08070582
v -0.06264143 0.03490312 0.08105293
v -0.06032376 0.03960710 0.08106161
v -0.06102975 0.03895286 0.08079748
v -0.06084736 0.04007161 0.08048237
v -0.05889605 0.04246177 0.08093199
v -0.05857529 0.04370046 0.08054637
v -0.05827968 0.04479740 0.08018082
v -0.05772307 0.04624545 0.07929244
v -0.05561452 0.04888858 0.07987656
v -0.05566955 0.04894528 0.07929244
v -0.05568685 0.04896491 0.07861015
v -0.05701707 0.04713521 0.07848107
v -0.05502803 0.04837827 0.07775269
v -0.05460977 0.04214555 0.07572970
v -0.05216474 0.05127219 0.07751948
v -0.05310502 0.04404720 0.07572970
v -0.05360032 0.04346493 0.07572970
v -0.05362862 0.04343004 0.07572970
v -0.05418524 0.04270165 0.07572970
v -0.05680480 0.03256748 0.07631219
v -0.04896655 0.04464256 0.07695488
v -0.04896655 0.04464693 0.07697386
v -0.04905460 0.04833465 0.07572970
v -0.04940838 0.05322400 0.07763879
v -0.04896655 0.05307353 0.07752544
v -0.06351095 0.03256748 0.08093199
v -0.06319648 0.03256748 0.08105456
v -0.06271219 0.03427723 0.08107788
v -0.06205337 0.03535454 0.08112398
v -0.06162411 0.03661505 0.08110229
v -0.06004074 0.04038783 0.08095314
v -0.05831270 0.04246177 0.08114459
v -0.05807528 0.04323595 0.08109903
v -0.05908788 0.04182061 0.08103666
v -0.05769319 0.04401231 0.08096887
v -0.05502960 0.04830412 0.08048508
v -0.05376541 0.04938144 0.08065430
v -0.05491481 0.04935527 0.08002462
v -0.05444782 0.05005967 0.07987819
v -0.05337861 0.05132671 0.07901204
v -0.05612554 0.04818636 0.07844637
v -0.05337861 0.05132671 0.07855158
v -0.05255312 0.05168872 0.07820122
v -0.05152322 0.05271152 0.07838454
v -0.05013796 0.05384117 0.07841816
v -0.04896655 0.05459573 0.07828366
v -0.04896655 0.05415739 0.07797071
v -0.05027633 0.04715484 0.07572970
v -0.05037067 0.04706107 0.07572970
v -0.05088955 0.04649624 0.07572970
v -0.05690701 0.03256748 0.07695488
v -0.04896655 0.04498931 0.07815132
v -0.04896655 0.05393713 0.07787743
v -0.06292760 0.03256748 0.08111585
v -0.06284270 0.03310832 0.08111097
v -0.06087409 0.03661505 0.08119178
v -0.05736614 0.04246177 0.08121456
v -0.05152322 0.04947303 0.08121673
v -0.05259872 0.04938144 0.08109849
v -0.05331100 0.04893219 0.08105781
v -0.05415850 0.04830412 0.08093470
v -0.05292577 0.04971074 0.08092548
v -0.05386133 0.05032354 0.08007994
v -0.05245877 0.05157314 0.08013255
v -0.05128265 0.05266354 0.08012008
v -0.05206254 0.05235387 0.07972361
v -0.05216317 0.05244328 0.07894425
v -0.05216317 0.05244328 0.07862968
v -0.04896655 0.05484652 0.07929244
v -0.05694946 0.03256748 0.07713006
v -0.04896655 0.04592487 0.07939006
v -0.05735670 0.03256748 0.07852555
v -0.05720733 0.03256748 0.07816380
v -0.06249678 0.03256748 0.08113700
v -0.06087409 0.03544614 0.08120533
v -0.05035337 0.04947303 0.08127042
v -0.04918510 0.05181085 0.08120154
v -0.05046187 0.05074880 0.08118690
v -0.05152322 0.05036498 0.08110717
v -0.05005620 0.05181085 0.08110391
v -0.05214588 0.05009456 0.08105673
v -0.04977632 0.05239966 0.08104805
v -0.05161284 0.05190244 0.08040807
v -0.05026218 0.05292087 0.08045146
v -0.04896655 0.05423808 0.08019547
v -0.04896655 0.05435366 0.08011411
v -0.04896655 0.05467424 0.07970897
v -0.05077949 0.05346171 0.07929244
v -0.05161284 0.05280965 0.07931739
v -0.04896655 0.04595977 0.07943508
v -0.05766489 0.03256748 0.07904296
v -0.06199834 0.03256748 0.08113863
v -0.06204236 0.03310832 0.08115110
v -0.04915208 0.04952101 0.08114242
v -0.04896655 0.04971292 0.08113754
v -0.04896655 0.05086002 0.08122486
v -0.04896655 0.05181085 0.08120262
v -0.06149046 0.03256748 0.08110174
v -0.06124517 0.03256748 0.08107842
v -0.04896655 0.05203547 0.08119232
v -0.04896655 0.05265482 0.08110717
v -0.04918510 0.05257413 0.08109578
v -0.04896655 0.05281619 0.08106541
v -0.04896655 0.05323055 0.08086094
v -0.04896655 0.05334395 0.08080074
v -0.04896655 0.05411159 0.08028170
v -0.04896655 0.04606444 0.07954409
v -0.05789917 0.03256748 0.07931305
v -0.04896655 0.04645481 0.07991886
v -0.06099674 0.03256748 0.08104263
v -0.04951845 0.04868358 0.08110391
v -0.04896655 0.04902160 0.08103612
v -0.05818691 0.03256748 0.07962762
v -0.04896655 0.04710250 0.08025241
v -0.05877184 0.03256748 0.08013418
v -0.05845736 0.03256748 0.07989012
v -0.06071214 0.03256748 0.08098242
v -0.04896655 0.04868358 0.08092548
v -0.06021684 0.03256748 0.08083003
v -0.05970425 0.03256748 0.08064508
v -0.04896655 0.04720718 0.08030339
v -0.05914763 0.03256748 0.08035492
v -0.04896655 0.04829976 0.08078826
f 1 2 7
f 1 7 16
f 1 16 30
f 1 30 51
f 1 51 74
f 1 74 97
f 1 97 128
f 1 128 147
f 1 147 150
f 1 150 149
f 1 149 168
f 1 168 185
f 1 185 190
f 1 190 193
f 1 193 192
f 1 192 199
f 1 199 197
f 1 197 196
f 1 196 194
f 1 194 187
f 1 187 176
f 1 176 175
f 1 175 169
f 1 169 151
f 1 151 131
f 1 131 104
f 1 104 103
f 1 103 77
f 1 77 54
f 1 54 31
f 1 31 17
f 1 17 8
f 1 8 3
f 1 3 4
f 1 4 5
f 1 5 2
f 2 6 7
f 2 5 6
f 3 8 9
f 3 9 4
f 4 9 10
f 4 10 11
f 4 11 12
f 4 12 5
f 5 12 13
f 5 13 14
f 5 14 15
f 5 15 16
f 5 16 6
f 6 16 7
f 8 17 10
f 8 10 9
f 10 17 18
f 10 18 19
f 10 19 20
f 10 20 21
f 10 21 11
f 11 22 13
f 11 13 12
f 11 21 23
f 11 23 22
f 13 24 25
f 13 25 14
f 13 22 23
f 13 23 26
f 13 26 27
f 13 27 28
f 13 28 29
f 13 29 24
f 14 25 24
f 14 24 29
f 14 29 28
f 14 28 27
f 14 27 49
f 14 49 48
f 14 48 47
f 14 47 46
f 14 46 45
f 14 45 44
f 14 44 72
f 14 72 91
f 14 91 96
f 14 96 95
f 14 95 94
f 14 94 93
f 14 93 127
f 14 127 126
f 14 126 125
f 14 125 100
f 14 100 75
f 14 75 52
f 14 52 30
f 14 30 16
f 14 16 15
f 17 31 18
f 18 31 32
f 18 32 33
f 18 33 34
f 18 34 19
f 19 34 35
f 19 35 20
f 20 35 36
f 20 36 37
f 20 37 38
f 20 38 41
f 20 41 21
f 21 39 40
f 21 40 23
f 21 41 42
f 21 42 39
f 23 40 43
f 23 43 26
f 26 44 45
f 26 45 46
f 26 46 47
f 26 47 48
f 26 48 49
f 26 49 27
f 26 43 40
f 26 40 39
f 26 39 50
f 26 50 44
f 30 52 53
f 30 53 51
f 31 54 55
f 31 55 32
f 32 56 57
f 32 57 33
f 32 55 56
f 33 58 59
f 33 59 34
f 33 57 58
f 34 59 60
f 34 60 35
f 35 60 36
f 36 61 62
f 36 62 63
f 36 63 64
f 36 64 37
f 36 60 65
f 36 65 61
f 37 64 66
f 37 66 38
f 38 66 67
f 38 67 68
f 38 68 71
f 38 71 41
f 39 42 69
f 39 69 70
f 39 70 50
f 41 71 69
f 41 69 42
f 44 50 72
f 50 70 73
f 50 73 72
f 51 53 74
f 52 75 102
f 52 102 130
f 52 130 124
f 52 124 123
f 52 123 146
f 52 146 164
f 52 164 163
f 52 163 162
f 52 162 183
f 52 183 182
f 52 182 181
f 52 181 180
f 52 180 178
f 52 178 177
f 52 177 174
f 52 174 173
f 52 173 172
f 52 172 189
f 52 189 195
f 52 195 200
f 52 200 198
f 52 198 191
f 52 191 186
f 52 186 184
f 52 184 167
f 52 167 148
f 52 148 129
f 52 129 99
f 52 99 98
f 52 98 76
f 52 76 53
f 53 76 74
f 54 77 78
f 54 78 56
f 54 56 55
f 56 78 57
f 57 78 79
f 57 79 80
f 57 80 58
f 58 80 59
f 59 80 81
f 59 81 65
f 59 65 60
f 61 82 62
f 61 65 82
f 62 82 83
f 62 83 84
f 62 84 63
f 63 85 64
f 63 84 86
f 63 86 85
f 64 85 67
f 64 67 66
f 65 81 82
f 67 85 68
f 68 86 87
f 68 87 88
f 68 88 71
f 68 85 86
f 69 71 89
f 69 89 70
f 70 89 90
f 70 90 73
f 71 88 89
f 72 73 91
f 73 90 88
f 73 88 92
f 73 92 93
f 73 93 94
f 73 94 95
f 73 95 96
f 73 96 91
f 74 76 98
f 74 98 99
f 74 99 97
f 75 100 92
f 75 92 101
f 75 101 102
f 77 103 78
f 78 103 104
f 78 104 105
f 78 105 106
f 78 106 107
f 78 107 79
f 79 108 81
f 79 81 80
f 79 107 109
f 79 109 110
f 79 110 111
f 79 111 82
f 79 82 108
f 81 108 82
f 82 111 110
f 82 110 83
f 83 110 112
f 83 112 86
f 83 86 84
f 86 113 114
f 86 114 115
f 86 115 116
f 86 116 117
f 86 117 87
f 86 112 113
f 87 117 88
f 88 90 118
f 88 118 89
f 88 117 119
f 88 119 92
f 89 118 90
f 92 119 120
f 92 120 121
f 92 121 122
f 92 122 123
f 92 123 124
f 92 124 101
f 92 100 125
f 92 125 126
f 92 126 127
f 92 127 93
f 97 99 128
f 99 129 128
f 101 124 130
f 101 130 102
f 104 131 132
f 104 132 105
f 105 132 106
f 106 132 133
f 106 133 107
f 107 133 109
f 109 134 135
f 109 135 110
f 109 133 134
f 110 135 136
f 110 136 137
f 110 137 138
f 110 138 112
f 112 138 113
f 113 138 114
f 114 138 139
f 114 139 140
f 114 140 115
f 115 140 116
f 116 140 141
f 116 141 142
f 116 142 143
f 116 143 117
f 117 143 144
f 117 144 145
f 117 145 119
f 119 145 120
f 120 145 121
f 121 145 122
f 122 145 146
f 122 146 123
f 128 129 147
f 129 148 149
f 129 149 150
f 129 150 147
f 131 151 152
f 131 152 133
f 131 133 132
f 133 152 134
f 134 153 135
f 134 152 153
f 135 153 154
f 135 154 155
f 135 155 156
f 135 156 136
f 136 156 157
f 136 157 158
f 136 158 137
f 137 158 139
f 137 139 138
f 139 158 159
f 139 159 160
f 139 160 140
f 140 160 141
f 141 160 142
f 142 160 159
f 142 159 161
f 142 161 162
f 142 162 163
f 142 163 164
f 142 164 143
f 143 164 146
f 143 146 165
f 143 165 166
f 143 166 144
f 144 166 165
f 144 165 146
f 144 146 145
f 148 167 149
f 149 167 168
f 151 169 170
f 151 170 152
f 152 170 169
f 152 169 153
f 153 171 172
f 153 172 173
f 153 173 174
f 153 174 154
f 153 169 175
f 153 175 176
f 153 176 171
f 154 174 177
f 154 177 178
f 154 178 179
f 154 179 157
f 154 157 155
f 155 157 156
f 157 179 159
f 157 159 158
f 159 179 180
f 159 180 181
f 159 181 182
f 159 182 183
f 159 183 162
f 159 162 161
f 167 184 168
f 168 184 186
f 168 186 185
f 171 176 172
f 172 176 187
f 172 187 188
f 172 188 189
f 178 180 179
f 185 186 190
f 186 191 192
f 186 192 193
f 186 193 190
f 187 194 188
f 188 194 189
f 189 194 196
f 189 196 197
f 189 197 195
f 191 198 192
f 192 198 200
f 192 200 199
f 195 197 200
f 197 199 200

