# https://github.com/mikedh/trimesh
v 0.01020535 -0.00627904 0.04053935
v 0.01336124 -0.00627904 0.04053935
v 0.01020535 -0.00627904 0.04056717
v 0.01053687 0.00271159 0.04053935
v 0.01343903 -0.00616915 0.04053935
v 0.01345662 -0.00619357 0.04188382
v 0.01339087 -0.00627904 0.04170727
v 0.01020998 -0.00627904 0.04090957
v 0.01104433 0.00388103 0.04053935
v 0.01022572 -0.00627904 0.04188382
v 0.01028962 -0.00627904 0.04539028
v 0.01030351 -0.00627904 0.04600500
v 0.01351033 -0.00606333 0.04053935
v 0.01348626 -0.00623834 0.04539028
v 0.01339458 -0.00627904 0.04188382
v 0.01447895 -0.00480299 0.04539028
v 0.01402057 -0.00547047 0.04539028
v 0.01160643 0.00442505 0.04053935
v 0.01713109 0.00758066 0.04600500
v 0.01344088 -0.00627904 0.04600500
v 0.01473824 -0.00420470 0.04053935
v 0.01347607 -0.00622884 0.04600500
v 0.01345662 -0.00627904 0.04539028
v 0.01373073 -0.00586390 0.04600500
v 0.01465212 -0.00448282 0.04600500
v 0.01446877 -0.00478942 0.04600500
v 0.01400113 -0.00547047 0.04600500
v 0.01537720 -0.00316007 0.04071483
v 0.01573464 -0.00260926 0.04539028
v 0.01573001 -0.00260112 0.04600500
v 0.01708756 0.00758066 0.04566688
v 0.01698570 0.00758066 0.04428709
v 0.01676160 0.00758066 0.04053935
v 0.01966469 0.00758066 0.04600500
v 0.01538275 -0.00313836 0.04053935
v 0.01570964 -0.00257127 0.04053935
v 0.01571149 -0.00257534 0.04071483
v 0.01607542 -0.00196349 0.04539028
v 0.01607264 -0.00196349 0.04600500
v 0.01953412 0.00758066 0.04053935
v 0.01965913 0.00758066 0.04539028
v 0.01962302 0.00738801 0.04600500
v 0.01599763 -0.00197841 0.04053935
v 0.01687828 -0.00023509 0.04116584
v 0.01689495 -0.00026765 0.04188382
v 0.01660696 -0.00085238 0.04188382
v 0.01662363 -0.00088087 0.04600500
v 0.01964061 0.00758066 0.04402921
v 0.01949523 0.00738801 0.04053935
v 0.01964432 0.00758066 0.04422128
v 0.01961746 0.00738801 0.04539028
v 0.01960635 0.00738801 0.04422128
v 0.01921464 0.00559450 0.04576371
v 0.01921464 0.00559450 0.04600500
v 0.01709497 0.00031842 0.04053935
v 0.01717924 0.00050836 0.04053935
v 0.01677642 -0.00057426 0.04600500
v 0.01761910 0.00154350 0.04053935
v 0.01716350 0.00037541 0.04188382
v 0.01723017 0.00037541 0.04600500
v 0.01929243 0.00646955 0.04053935
v 0.01934428 0.00629183 0.04422128
v 0.01908685 0.00514273 0.04600500
v 0.01908500 0.00514273 0.04538065
v 0.01903870 0.00505048 0.04422128
v 0.01819509 0.00293815 0.04053935
v 0.01819972 0.00293136 0.04071483
v 0.01865440 0.00388103 0.04422128
v 0.01745982 0.00092892 0.04600500
v 0.01913685 0.00588483 0.04053935
v 0.01887572 0.00447525 0.04600500
v 0.01893961 0.00517258 0.04053935
v 0.01855161 0.00388103 0.04071483
v 0.01860161 0.00405604 0.04053935
v 0.01854420 0.00388103 0.04053935
v 0.01867107 0.00388103 0.04600500
f 1 2 7
f 1 7 15
f 1 15 23
f 1 23 20
f 1 20 12
f 1 12 11
f 1 11 10
f 1 10 8
f 1 8 3
f 1 3 4
f 1 4 9
f 1 9 18
f 1 18 33
f 1 33 40
f 1 40 49
f 1 49 61
f 1 61 70
f 1 70 72
f 1 72 74
f 1 74 75
f 1 75 66
f 1 66 58
f 1 58 56
f 1 56 55
f 1 55 43
f 1 43 36
f 1 36 35
f 1 35 21
f 1 21 13
f 1 13 5
f 1 5 2
f 2 5 6
f 2 6 7
f 3 8 4
f 4 8 10
f 4 10 11
f 4 11 12
f 4 12 9
f 5 13 6
f 6 14 15
f 6 15 7
f 6 13 16
f 6 16 17
f 6 17 14
f 9 12 19
f 9 19 18
f 12 20 22
f 12 22 24
f 12 24 27
f 12 27 26
f 12 26 25
f 12 25 30
f 12 30 39
f 12 39 47
f 12 47 57
f 12 57 60
f 12 60 69
f 12 69 76
f 12 76 71
f 12 71 63
f 12 63 54
f 12 54 42
f 12 42 34
f 12 34 19
f 13 21 16
f 14 22 20
f 14 20 23
f 14 23 15
f 14 17 24
f 14 24 22
f 16 25 26
f 16 26 27
f 16 27 17
f 16 21 28
f 16 28 29
f 16 29 30
f 16 30 25
f 17 27 24
f 18 19 31
f 18 31 32
f 18 32 33
f 19 34 41
f 19 41 50
f 19 50 48
f 19 48 40
f 19 40 33
f 19 33 32
f 19 32 31
f 21 35 28
f 28 35 36
f 28 36 37
f 28 37 29
f 29 37 38
f 29 38 39
f 29 39 30
f 34 42 51
f 34 51 41
f 36 43 44
f 36 44 45
f 36 45 46
f 36 46 37
f 37 46 38
f 38 46 47
f 38 47 39
f 40 48 49
f 41 51 52
f 41 52 50
f 42 53 51
f 42 54 53
f 43 55 44
f 44 55 56
f 44 56 45
f 45 57 46
f 45 56 58
f 45 58 59
f 45 59 60
f 45 60 57
f 46 57 47
f 48 50 52
f 48 52 49
f 49 52 61
f 51 53 52
f 52 53 62
f 52 62 61
f 53 54 63
f 53 63 64
f 53 64 65
f 53 65 61
f 53 61 62
f 58 66 67
f 58 67 59
f 59 67 68
f 59 68 69
f 59 69 60
f 61 65 70
f 63 71 64
f 64 71 65
f 65 72 70
f 65 71 68
f 65 68 73
f 65 73 74
f 65 74 72
f 66 75 73
f 66 73 67
f 67 73 68
f 68 71 76
f 68 76 69
f 73 75 74

