# https://github.com/mikedh/trimesh
v -0.01470159 0.00758066 0.00062889
v 0.01043447 0.00758066 -0.00103452
v -0.01470159 0.00758066 0.00315269
v -0.01470159 0.04947382 -0.00094395
v 0.01160242 0.00758066 -0.00106905
v 0.01267332 0.00758066 0.00351138
v -0.01470159 0.00855797 0.00324909
v -0.01470159 0.05006215 -0.00094889
v 0.01277372 0.02141863 -0.00105022
v 0.01277372 0.01323546 -0.00104842
v 0.01277372 0.01206852 -0.00104708
v 0.01277372 0.00855797 -0.00100896
v 0.01277372 0.00758066 -0.00098520
v -0.01294129 0.04947382 -0.00096861
v 0.00108751 0.04245759 -0.00103945
v 0.01825874 0.00758066 0.00351138
v 0.01185341 0.00834889 0.00351138
v -0.01411259 0.02726305 0.00349793
v -0.01470159 0.01381893 0.00343516
v -0.01470159 0.05064076 -0.00094350
v 0.01277372 0.02259043 -0.00104125
v 0.01394167 0.02025169 -0.00096323
v 0.01394167 0.01323546 -0.00097130
v 0.01394167 0.01089672 -0.00092423
v 0.01394167 0.01206852 -0.00094978
v 0.01362040 0.00758066 -0.00085069
v 0.01401195 0.00973950 -0.00087670
v -0.01177334 0.04947382 -0.00096234
v -0.00592689 0.04713507 -0.00098207
v -0.00475894 0.04713507 -0.00097534
v 0.00108751 0.04362453 -0.00097893
v 0.00225546 0.04245759 -0.00099955
v 0.00692727 0.03661316 -0.00100807
v 0.01822862 0.00758066 0.00342215
v 0.01898829 0.01092103 0.00351138
v 0.01162919 0.00856283 0.00351138
v -0.01470159 0.02726305 0.00349479
v 0.01160577 0.00859687 0.00351138
v -0.01470159 0.05375746 0.00351138
v -0.01294129 0.05064076 -0.00092871
v -0.01470159 0.05118533 -0.00089374
v 0.01277372 0.02492431 -0.00097489
v 0.01394167 0.02141863 -0.00095023
v 0.00809522 0.03427442 -0.00101031
v 0.01043447 0.03077360 -0.00097579
v 0.01043447 0.03194054 -0.00094395
v 0.01471807 0.02025169 -0.00083994
v 0.01476158 0.01791294 -0.00084711
v 0.01473146 0.01440726 -0.00084218
v 0.01471138 0.01323546 -0.00083994
v 0.01456748 0.01013334 -0.00079958
v 0.01420605 0.00758066 -0.00070095
v -0.00359099 0.04713507 -0.00093902
v -0.00943409 0.04947382 -0.00093140
v -0.00826614 0.04947382 -0.00089553
v 0.00226550 0.04365856 -0.00087894
v -0.00237953 0.04719828 -0.00085428
v 0.00067254 0.04550622 -0.00081528
v 0.00107078 0.04478174 -0.00085922
v 0.00345353 0.04248190 -0.00087491
v 0.00648887 0.03971528 -0.00082245
v 0.00692727 0.03778010 -0.00094037
v 0.00809522 0.03544136 -0.00097220
v 0.00926652 0.03310262 -0.00097893
v 0.01815165 0.00758066 0.00323519
v 0.01803117 0.00799395 0.00272631
v 0.01905522 0.01206852 0.00311548
v 0.01913554 0.01172816 0.00351138
v -0.01470159 0.05725342 0.00351138
v -0.01470159 0.05165697 -0.00084576
v -0.01294129 0.05146734 -0.00084263
v -0.01177334 0.05064076 -0.00090001
v 0.01277372 0.02609611 -0.00093095
v 0.01369068 0.02492431 -0.00085787
v 0.01465783 0.02141863 -0.00082379
v 0.01405210 0.02265850 -0.00088388
v 0.01127780 0.03194054 -0.00083545
v 0.01164927 0.03073956 -0.00085608
v 0.01160242 0.02960180 -0.00091391
v 0.00926652 0.03427442 -0.00092467
v 0.00924644 0.03536843 -0.00085025
v 0.00990236 0.03493082 -0.00079734
v 0.01530372 0.02025169 -0.00066283
v 0.01534723 0.01791294 -0.00068525
v 0.01534388 0.01674114 -0.00069332
v 0.01533049 0.01557420 -0.00068929
v 0.01531711 0.01440726 -0.00067270
v 0.01529703 0.01323546 -0.00065701
v 0.01501926 0.00973950 -0.00059200
v 0.01510962 0.00758066 -0.00031267
v -0.00478237 0.04837008 -0.00086056
v -0.00359099 0.04802487 -0.00084308
v -0.00943409 0.05038792 -0.00084308
v -0.00720863 0.04947868 -0.00084532
v 0.00308876 0.04329390 -0.00082917
v -0.00196121 0.04763102 -0.00077537
v -0.00125174 0.04736360 -0.00071439
v 0.00107078 0.04591951 -0.00062383
v 0.00144894 0.04516100 -0.00074488
v 0.00266040 0.04407186 -0.00076013
v 0.00802829 0.03886925 -0.00062248
v 0.00842653 0.03778010 -0.00074713
v 0.00784423 0.03778010 -0.00083949
v 0.00386851 0.04289033 -0.00076147
v 0.00460475 0.04248190 -0.00069915
v 0.00575932 0.04245759 -0.00043103
v 0.00819561 0.03669582 -0.00088612
v 0.01798432 0.00758066 0.00283705
v 0.01760281 0.00758066 0.00214523
v 0.01800775 0.01040563 0.00159734
v 0.01832232 0.01083351 0.00204704
v 0.01860343 0.01206852 0.00213627
v 0.01912215 0.01323546 0.00295855
v 0.01922924 0.01236511 0.00351138
v 0.01919578 0.01206852 0.00351138
v -0.01448740 0.05722424 0.00351138
v -0.01470159 0.05723397 0.00345444
v -0.01470159 0.05217237 -0.00073861
v -0.01177334 0.05135551 -0.00082066
v -0.01470159 0.05245924 -0.00067180
v -0.01294129 0.05205567 -0.00070184
v 0.01332590 0.02776386 -0.00078165
v 0.01353339 0.02609611 -0.00083052
v 0.01451393 0.02309124 -0.00078344
v 0.01524014 0.02141863 -0.00063549
v 0.01207094 0.03110423 -0.00076327
v 0.01224831 0.03032627 -0.00079779
v 0.01109374 0.03264557 -0.00080272
v 0.01061518 0.03427442 -0.00069691
v 0.01186345 0.03194054 -0.00071081
v 0.00865075 0.03714315 -0.00078030
v 0.01034746 0.03536843 -0.00059737
v 0.01628092 0.02025169 -0.00019968
v 0.01628092 0.01907988 -0.00023510
v 0.01628092 0.01674114 -0.00029115
v 0.01628092 0.01557420 -0.00028621
v 0.01628092 0.01440726 -0.00024183
v 0.01628092 0.01323546 -0.00018757
v 0.01620060 0.00972978 0.00002898
v 0.01594626 0.00758066 0.00018680
v 0.01607008 0.00855797 0.00011462
v -0.00826614 0.05016912 -0.00080989
v -0.00767045 0.05006215 -0.00078658
v -0.00440755 0.04880283 -0.00076999
v -0.01028412 0.05112698 -0.00077044
v -0.00359099 0.04860834 -0.00072605
v -0.00237953 0.04824853 -0.00066911
v -0.00125174 0.04830201 -0.00043821
v 0.00342007 0.04479633 -0.00037588
v 0.00458802 0.04362453 -0.00045435
v 0.00345353 0.04365856 -0.00069018
v 0.00926652 0.03895191 -0.00021896
v 0.00926652 0.03778010 -0.00049739
v 0.00692727 0.04128578 -0.00037723
v 0.00583629 0.04369746 0.00001105
v 0.00698416 0.04251594 0.00003930
v 0.01749572 0.00758066 0.00197620
v 0.01706736 0.00758066 0.00131084
v 0.01810480 0.01118359 0.00146776
v 0.01816503 0.01206852 0.00139378
v 0.01869379 0.01323546 0.00213627
v 0.01921251 0.01607015 0.00270209
v 0.01930621 0.01323546 0.00351138
v -0.01423976 0.05718049 0.00351138
v -0.01470159 0.05695196 0.00292627
v -0.01106387 0.05126313 -0.00079331
v -0.01177334 0.05193898 -0.00067853
v -0.01064555 0.05171531 -0.00066194
v -0.01470159 0.05292602 -0.00053909
v 0.01394167 0.02843486 -0.00053281
v 0.01427633 0.02492431 -0.00072471
v 0.01442357 0.02375737 -0.00076506
v 0.01294439 0.02960180 -0.00070453
v 0.01510962 0.02375737 -0.00051174
v 0.01628092 0.02141863 -0.00011718
v 0.01269005 0.03073956 -0.00063100
v 0.01160242 0.03427442 -0.00038799
v 0.01277372 0.03194054 -0.00040862
v 0.01394167 0.02960180 -0.00040279
v 0.01702386 0.02025169 0.00026168
v 0.01712425 0.01674114 0.00020070
v 0.01710417 0.01557420 0.00020205
v 0.01705732 0.01440726 0.00022940
v 0.01701716 0.01323546 0.00026841
v 0.01678625 0.00972978 0.00045358
v 0.01653191 0.00758066 0.00072707
v 0.01665573 0.00855797 0.00057598
v -0.00943409 0.05097139 -0.00073547
v -0.00826614 0.05075745 -0.00067898
v -0.00720863 0.05052406 -0.00062069
v -0.00592689 0.05064076 -0.00042700
v -0.00241969 0.04947382 -0.00021403
v -0.00126512 0.04949813 0.00009624
v 0.00181706 0.04780606 0.00033118
v 0.00108751 0.04713507 -0.00019654
v 0.00466164 0.04487899 0.00002764
v 0.00993583 0.03963262 0.00033566
v 0.01016674 0.03895191 0.00020698
v 0.01223827 0.03610749 0.00034821
v 0.01160242 0.03544136 -0.00013422
v 0.00814542 0.04130524 0.00009399
v 0.00550163 0.04454349 0.00021146
v 0.00778733 0.04216099 0.00023612
v 0.01698035 0.00758066 0.00121534
v 0.01718114 0.00855797 0.00116064
v 0.01760281 0.01323546 0.00077595
v 0.01768982 0.01557420 0.00071362
v 0.01829555 0.01674114 0.00125255
v 0.01887785 0.01674114 0.00210892
v 0.01921585 0.01674114 0.00269357
v 0.01948024 0.01674114 0.00351138
v 0.01944008 0.01562282 0.00351138
v 0.01935641 0.01563741 0.00323653
v -0.01411259 0.05715617 0.00351138
v -0.01411259 0.05689847 0.00302715
v -0.01177334 0.05611079 0.00241424
v -0.01294129 0.05621776 0.00223266
v -0.01470159 0.05646573 0.00213133
v -0.01294129 0.05297950 -0.00039875
v -0.01177334 0.05297950 -0.00030056
v -0.01060539 0.05297950 -0.00020103
v -0.00943409 0.05180770 -0.00049874
v -0.01470159 0.05356783 -0.00030863
v 0.01510962 0.02492431 -0.00039203
v 0.01618721 0.02375737 0.00005185
v 0.01695358 0.02141863 0.00031683
v 0.01394167 0.03077360 -0.00015664
v 0.01277372 0.03310262 -0.00015529
v 0.01492221 0.02960180 0.00010027
v 0.01518324 0.02839110 0.00007651
v 0.01760616 0.02025169 0.00075891
v 0.01770656 0.01674114 0.00066879
v -0.00826614 0.05180770 -0.00035391
v -0.00709819 0.05180770 -0.00016247
v -0.00166002 0.05015939 0.00031638
v -0.00594697 0.05187577 0.00011372
v -0.00088027 0.04990656 0.00047824
v 0.00259347 0.04749002 0.00049572
v 0.00510004 0.04532145 0.00042264
v 0.01120752 0.03979307 0.00137047
v 0.01074905 0.03895191 0.00056746
v 0.01096322 0.03826147 0.00042040
v 0.00856374 0.04170880 0.00045851
v 0.01219476 0.03837816 0.00154443
v 0.01441688 0.03463423 0.00167849
v 0.01461098 0.03385626 0.00147314
v 0.01479504 0.03310262 0.00129246
v 0.01414246 0.03310262 0.00070869
v 0.01437003 0.03219338 0.00050603
v 0.01455409 0.03141542 0.00036346
v 0.01470468 0.03077360 0.00025137
v 0.01355681 0.03310262 0.00025092
v 0.00628138 0.04413506 0.00042399
v 0.00740917 0.04294381 0.00044147
v 0.01822862 0.02025169 0.00134267
v 0.01884439 0.01791294 0.00209860
v 0.01922255 0.01868118 0.00268819
v 0.01922255 0.01791294 0.00268281
v 0.01948693 0.01770873 0.00351138
v -0.01367084 0.05706865 0.00351138
v -0.01081622 0.05600382 0.00258104
v -0.01294129 0.05581906 0.00164800
v -0.01356710 0.05589685 0.00155968
v -0.01308854 0.05695196 0.00351138
v -0.01470159 0.05619831 0.00174978
v -0.01470159 0.05419506 -0.00004007
v -0.01470159 0.05460835 0.00017066
v -0.01470159 0.05485147 0.00029620
v -0.01436024 0.05481743 0.00032221
v -0.01060539 0.05375746 0.00024016
v -0.00974532 0.05366022 0.00030517
v -0.00938724 0.05306216 0.00005768
v -0.00826614 0.05279960 0.00012403
v 0.01606674 0.02492431 0.00013121
v 0.01676952 0.02375737 0.00045985
v 0.01683310 0.02297941 0.00040740
v 0.01689334 0.02220145 0.00036077
v 0.01550452 0.02960180 0.00057688
v 0.01561830 0.02875090 0.00045492
v 0.01572873 0.02797294 0.00035584
v -0.00709819 0.05258079 0.00024240
v -0.00147596 0.05140413 0.00137226
v -0.00117811 0.05068452 0.00092570
v -0.00556881 0.05231337 0.00044147
v -0.00069621 0.05120964 0.00157716
v 0.00226885 0.04830201 0.00093511
v 0.00524394 0.04660995 0.00149691
v 0.00316573 0.04801514 0.00127452
v 0.00568235 0.04589520 0.00126331
v 0.00583629 0.04487899 0.00061992
v 0.01090968 0.04057104 0.00166952
v 0.01159573 0.04009453 0.00214658
v 0.01198727 0.03916098 0.00184438
v 0.00985551 0.04187898 0.00154623
v 0.00814542 0.04251594 0.00066700
v 0.00917951 0.04234576 0.00132967
v 0.01452732 0.03602969 0.00271778
v 0.01491552 0.03425497 0.00209546
v 0.01558149 0.03223714 0.00170808
v 0.01467457 0.03544136 0.00252141
v 0.01572873 0.03145431 0.00150722
v 0.01506611 0.03182384 0.00100685
v 0.01529033 0.03077360 0.00078178
v 0.00759993 0.04429552 0.00147494
v 0.00803163 0.04354673 0.00127676
v 0.00698416 0.04369746 0.00063023
v 0.01722465 0.02492431 0.00114225
v 0.01799436 0.02284813 0.00160900
v 0.01821858 0.02492431 0.00244608
v 0.01873395 0.02025169 0.00213627
v 0.01917904 0.01946400 0.00278504
v 0.01935641 0.01907502 0.00322667
v 0.01943673 0.01907502 0.00351138
v 0.01944677 0.01881246 0.00351138
v 0.01948024 0.01791294 0.00351138
v -0.01049830 0.05621776 0.00319484
v -0.01003647 0.05589685 0.00273168
v -0.00887521 0.05472505 0.00156192
v -0.00965496 0.05484661 0.00143593
v -0.01470159 0.05543493 0.00086203
v -0.01470159 0.05598437 0.00144804
v -0.01358049 0.05471533 0.00039529
v -0.01052507 0.05633445 0.00351138
v -0.01470159 0.05506541 0.00049841
v -0.00896557 0.05350948 0.00042085
v -0.00931027 0.05419020 0.00092839
v 0.01664904 0.02492431 0.00055805
v 0.01692346 0.02802643 0.00149242
v -0.00475894 0.05275584 0.00119247
v -0.00388883 0.05254676 0.00140320
v -0.00549853 0.05349976 0.00163366
v -0.00627828 0.05365049 0.00145431
v 0.00044162 0.05118533 0.00278907
v 0.00182710 0.05015939 0.00258911
v 0.00312222 0.04911401 0.00243621
v 0.00271394 0.04879310 0.00165697
v 0.00193754 0.04907025 0.00137450
v -0.00475894 0.05333931 0.00187622
v -0.00361441 0.05298436 0.00214927
v -0.00411975 0.05358728 0.00268192
v -0.00241969 0.05260997 0.00243487
v -0.00178050 0.05243006 0.00266488
v -0.00028793 0.05200219 0.00351138
v 0.00514355 0.04769423 0.00275589
v 0.00568235 0.04680930 0.00224701
v 0.00756312 0.04543329 0.00266533
v 0.00642528 0.04546246 0.00147628
v 0.00686034 0.04472826 0.00125076
v 0.01120418 0.04098919 0.00244922
v 0.01067542 0.04134413 0.00209008
v 0.01093980 0.04177201 0.00283750
v 0.01224496 0.03961803 0.00262363
v 0.00873441 0.04310427 0.00150139
v 0.01008643 0.04213668 0.00213627
v 0.01235540 0.04023068 0.00351138
v 0.01303140 0.03894704 0.00329168
v 0.01328574 0.03872338 0.00351138
v 0.01437003 0.03695352 0.00351138
v 0.01460763 0.03654995 0.00351138
v 0.01465449 0.03628253 0.00330513
v 0.01527026 0.03524201 0.00351138
v 0.01555806 0.03436680 0.00321143
v 0.01567519 0.03364233 0.00275903
v 0.01543089 0.03319500 0.00211295
v 0.01583917 0.03286437 0.00248733
v 0.01597303 0.03188219 0.00211295
v 0.01678960 0.02880439 0.00165114
v 0.00720503 0.04507348 0.00188608
v 0.01712091 0.02609611 0.00127318
v 0.01781030 0.02492431 0.00186142
v 0.01770321 0.02609611 0.00202014
v 0.01810814 0.02609611 0.00260480
v 0.01891466 0.02367957 0.00340960
v 0.01898159 0.02358233 0.00351138
v 0.01909873 0.02259043 0.00351138
v -0.00948764 0.05606703 0.00351138
v -0.00943409 0.05605244 0.00351138
v -0.00845020 0.05574126 0.00351138
v -0.00830295 0.05562456 0.00335939
v -0.00730568 0.05489036 0.00249719
v -0.00826614 0.05504109 0.00226853
v -0.00826614 0.05460835 0.00168387
v 0.01700378 0.02726305 0.00140455
v 0.01719453 0.02842513 0.00207887
v 0.01762958 0.02715608 0.00225015
v -0.00652593 0.05472505 0.00273348
v 0.00054202 0.05148193 0.00351138
v 0.00080305 0.05131661 0.00351138
v 0.00223204 0.05031985 0.00336656
v 0.00260351 0.04989683 0.00301729
v 0.00390197 0.04879796 0.00286888
v -0.00334000 0.05342197 0.00300697
v -0.00263722 0.05332472 0.00351138
v -0.00117811 0.05252245 0.00351138
v 0.00778399 0.04563264 0.00330513
v 0.00465160 0.04836522 0.00320201
v 0.00534769 0.04796166 0.00351138
v 0.00842987 0.04485954 0.00318901
v 0.01012324 0.04320637 0.00351138
v 0.00980866 0.04299730 0.00277473
v 0.00898206 0.04338142 0.00213627
v 0.01100338 0.04218044 0.00351138
v 0.01132465 0.04175742 0.00351138
v 0.01179317 0.04108157 0.00351138
v 0.01560491 0.03455157 0.00351138
v 0.01583582 0.03407021 0.00351138
v 0.01587933 0.03397296 0.00351138
v 0.01608347 0.03319500 0.00321143
v 0.01661892 0.03197457 0.00330737
v 0.01675613 0.03105075 0.00291865
v 0.01702051 0.02960180 0.00246850
v 0.01803786 0.02669417 0.00271599
v 0.01865698 0.02492431 0.00330513
v 0.01878080 0.02470065 0.00351138
v -0.00727890 0.05532311 0.00351138
v -0.00698775 0.05510917 0.00319618
v 0.01795420 0.02747213 0.00294600
v -0.00613438 0.05490009 0.00351138
v -0.00340693 0.05368939 0.00351138
v 0.00245291 0.05024691 0.00351138
v 0.00320589 0.04970234 0.00351138
v 0.00339999 0.04945437 0.00333293
v 0.00383169 0.04920639 0.00351138
v 0.00431360 0.04881255 0.00351138
v 0.00769028 0.04582713 0.00351138
v 0.00799147 0.04554512 0.00351138
v 0.00849011 0.04501027 0.00351138
v 0.00542801 0.04788872 0.00351138
v 0.00894525 0.04451432 0.00351138
v 0.01633781 0.03291299 0.00351138
v 0.01679629 0.03178495 0.00351138
v 0.01701381 0.03117717 0.00351138
v 0.01707071 0.03070553 0.00330737
v 0.01743548 0.02960180 0.00330513
v 0.01782703 0.02843972 0.00332352
v 0.01841937 0.02609611 0.00330513
v 0.01852981 0.02589190 0.00351138
v 0.01813157 0.02757424 0.00351138
v 0.01816838 0.02715608 0.00332352
v 0.01794751 0.02825495 0.00351138
v 0.01786719 0.02854182 0.00351138
v 0.01822862 0.02717553 0.00351138
v 0.01848631 0.02609611 0.00351138
f 1 2 5
f 1 5 13
f 1 13 26
f 1 26 52
f 1 52 90
f 1 90 140
f 1 140 186
f 1 186 204
f 1 204 158
f 1 158 157
f 1 157 109
f 1 109 108
f 1 108 65
f 1 65 34
f 1 34 16
f 1 16 6
f 1 6 3
f 1 3 7
f 1 7 19
f 1 19 37
f 1 37 39
f 1 39 69
f 1 69 117
f 1 117 165
f 1 165 218
f 1 218 265
f 1 265 321
f 1 321 320
f 1 320 324
f 1 324 268
f 1 268 267
f 1 267 266
f 1 266 223
f 1 223 169
f 1 169 120
f 1 120 118
f 1 118 70
f 1 70 41
f 1 41 20
f 1 20 8
f 1 8 4
f 1 4 2
f 2 4 5
f 3 6 7
f 4 8 5
f 5 9 10
f 5 10 11
f 5 11 12
f 5 12 13
f 5 8 14
f 5 14 15
f 5 15 9
f 6 16 35
f 6 35 68
f 6 68 115
f 6 115 114
f 6 114 163
f 6 163 212
f 6 212 211
f 6 211 259
f 6 259 315
f 6 315 314
f 6 314 313
f 6 313 375
f 6 375 374
f 6 374 414
f 6 414 437
f 6 437 443
f 6 443 442
f 6 442 438
f 6 438 440
f 6 440 441
f 6 441 432
f 6 432 431
f 6 431 430
f 6 430 407
f 6 407 406
f 6 406 405
f 6 405 361
f 6 361 359
f 6 359 358
f 6 358 357
f 6 357 355
f 6 355 404
f 6 404 403
f 6 403 402
f 6 402 399
f 6 399 429
f 6 429 427
f 6 427 426
f 6 426 425
f 6 425 428
f 6 428 397
f 6 397 424
f 6 424 423
f 6 423 421
f 6 421 420
f 6 420 388
f 6 388 387
f 6 387 343
f 6 343 394
f 6 394 393
f 6 393 419
f 6 419 418
f 6 418 415
f 6 415 378
f 6 378 377
f 6 377 376
f 6 376 323
f 6 323 264
f 6 264 260
f 6 260 214
f 6 214 164
f 6 164 116
f 6 116 69
f 6 69 39
f 6 39 38
f 6 38 36
f 6 36 17
f 6 17 18
f 6 18 19
f 6 19 7
f 8 20 14
f 9 21 22
f 9 22 23
f 9 23 10
f 9 15 21
f 10 23 11
f 11 23 12
f 12 24 13
f 12 23 25
f 12 25 24
f 13 24 27
f 13 27 26
f 14 20 28
f 14 28 29
f 14 29 15
f 15 29 30
f 15 30 31
f 15 31 32
f 15 32 33
f 15 33 21
f 16 34 35
f 17 36 18
f 18 37 19
f 18 36 38
f 18 38 39
f 18 39 37
f 20 40 28
f 20 41 40
f 21 42 43
f 21 43 22
f 21 33 44
f 21 44 45
f 21 45 46
f 21 46 42
f 22 43 47
f 22 47 48
f 22 48 23
f 23 49 50
f 23 50 25
f 23 48 49
f 24 51 27
f 24 25 51
f 25 50 51
f 26 27 51
f 26 51 52
f 28 40 30
f 28 30 29
f 30 53 31
f 30 40 54
f 30 54 55
f 30 55 53
f 31 56 32
f 31 53 57
f 31 57 58
f 31 58 59
f 31 59 56
f 32 56 60
f 32 60 61
f 32 61 62
f 32 62 33
f 33 62 63
f 33 63 46
f 33 46 64
f 33 64 44
f 34 65 35
f 35 65 66
f 35 66 67
f 35 67 68
f 40 41 70
f 40 70 71
f 40 71 72
f 40 72 54
f 42 73 74
f 42 74 43
f 42 46 73
f 43 75 47
f 43 74 76
f 43 76 75
f 44 64 45
f 45 64 46
f 46 77 78
f 46 78 79
f 46 79 73
f 46 63 80
f 46 80 81
f 46 81 82
f 46 82 77
f 47 83 84
f 47 84 48
f 47 75 83
f 48 84 85
f 48 85 49
f 49 85 50
f 50 85 86
f 50 86 87
f 50 87 88
f 50 88 51
f 51 89 52
f 51 88 89
f 52 89 90
f 53 55 91
f 53 91 92
f 53 92 57
f 54 72 55
f 55 72 93
f 55 93 94
f 55 94 91
f 56 95 60
f 56 59 58
f 56 58 95
f 57 92 96
f 57 96 58
f 58 96 97
f 58 97 98
f 58 98 99
f 58 99 100
f 58 100 95
f 60 95 61
f 61 101 102
f 61 102 103
f 61 103 62
f 61 95 104
f 61 104 105
f 61 105 106
f 61 106 101
f 62 103 107
f 62 107 63
f 63 107 80
f 65 108 66
f 66 108 109
f 66 109 110
f 66 110 111
f 66 111 67
f 67 112 113
f 67 113 114
f 67 114 115
f 67 115 68
f 67 111 112
f 69 116 117
f 70 118 71
f 71 119 72
f 71 118 120
f 71 120 121
f 71 121 119
f 72 119 93
f 73 122 123
f 73 123 74
f 73 79 78
f 73 78 122
f 74 123 124
f 74 124 76
f 75 125 83
f 75 76 124
f 75 124 125
f 77 126 127
f 77 127 78
f 77 82 128
f 77 128 126
f 78 127 122
f 80 107 81
f 81 107 82
f 82 129 130
f 82 130 128
f 82 107 131
f 82 131 102
f 82 102 132
f 82 132 129
f 83 125 133
f 83 133 134
f 83 134 135
f 83 135 84
f 84 135 85
f 85 135 136
f 85 136 86
f 86 136 87
f 87 136 88
f 88 136 137
f 88 137 138
f 88 138 89
f 89 139 90
f 89 138 139
f 90 139 141
f 90 141 140
f 91 94 92
f 92 94 142
f 92 142 143
f 92 143 144
f 92 144 96
f 93 142 94
f 93 119 145
f 93 145 142
f 95 100 104
f 96 144 146
f 96 146 147
f 96 147 148
f 96 148 97
f 97 148 98
f 98 149 150
f 98 150 99
f 98 148 149
f 99 150 100
f 100 150 151
f 100 151 104
f 101 152 153
f 101 153 102
f 101 106 154
f 101 154 152
f 102 131 103
f 102 153 132
f 103 131 107
f 104 151 105
f 105 151 150
f 105 150 106
f 106 150 155
f 106 155 156
f 106 156 154
f 109 157 110
f 110 157 158
f 110 158 159
f 110 159 111
f 111 159 112
f 112 159 160
f 112 160 161
f 112 161 162
f 112 162 113
f 113 163 114
f 113 162 163
f 116 164 117
f 117 164 165
f 119 166 145
f 119 121 167
f 119 167 168
f 119 168 166
f 120 169 121
f 121 169 167
f 122 170 171
f 122 171 172
f 122 172 124
f 122 124 123
f 122 127 173
f 122 173 170
f 124 172 174
f 124 174 125
f 125 175 133
f 125 174 175
f 126 128 130
f 126 130 176
f 126 176 173
f 126 173 127
f 129 132 130
f 130 177 178
f 130 178 179
f 130 179 176
f 130 132 177
f 132 153 177
f 133 175 180
f 133 180 181
f 133 181 134
f 134 181 135
f 135 181 136
f 136 182 137
f 136 181 182
f 137 182 138
f 138 182 183
f 138 183 184
f 138 184 139
f 139 185 141
f 139 184 185
f 140 141 185
f 140 185 187
f 140 187 186
f 142 145 143
f 143 145 188
f 143 188 189
f 143 189 144
f 144 189 190
f 144 190 146
f 145 166 168
f 145 168 188
f 146 190 191
f 146 191 147
f 147 191 192
f 147 192 148
f 148 192 193
f 148 193 194
f 148 194 195
f 148 195 149
f 149 195 196
f 149 196 150
f 150 196 155
f 152 197 198
f 152 198 199
f 152 199 200
f 152 200 153
f 152 154 201
f 152 201 197
f 153 200 177
f 154 156 201
f 155 196 202
f 155 202 203
f 155 203 156
f 156 203 201
f 158 204 187
f 158 187 205
f 158 205 159
f 159 205 187
f 159 187 185
f 159 185 160
f 160 206 207
f 160 207 208
f 160 208 209
f 160 209 162
f 160 162 161
f 160 185 206
f 162 209 210
f 162 210 211
f 162 211 212
f 162 212 213
f 162 213 163
f 163 213 212
f 164 214 215
f 164 215 165
f 165 215 216
f 165 216 217
f 165 217 218
f 167 169 219
f 167 219 220
f 167 220 221
f 167 221 168
f 168 221 222
f 168 222 189
f 168 189 188
f 169 223 219
f 170 224 174
f 170 174 171
f 170 173 179
f 170 179 224
f 171 174 172
f 173 176 179
f 174 224 225
f 174 225 175
f 175 226 180
f 175 225 226
f 177 200 178
f 178 227 179
f 178 200 228
f 178 228 227
f 179 227 229
f 179 229 230
f 179 230 224
f 180 226 231
f 180 231 232
f 180 232 181
f 181 232 182
f 182 207 183
f 182 232 207
f 183 207 206
f 183 206 184
f 184 206 185
f 186 187 204
f 189 222 191
f 189 191 190
f 191 222 233
f 191 233 234
f 191 234 192
f 192 235 193
f 192 234 236
f 192 236 235
f 193 235 194
f 194 235 237
f 194 237 238
f 194 238 239
f 194 239 196
f 194 196 195
f 196 239 202
f 197 240 241
f 197 241 242
f 197 242 198
f 197 201 203
f 197 203 243
f 197 243 240
f 198 242 199
f 199 242 241
f 199 241 240
f 199 240 244
f 199 244 245
f 199 245 246
f 199 246 247
f 199 247 248
f 199 248 249
f 199 249 250
f 199 250 251
f 199 251 252
f 199 252 227
f 199 227 228
f 199 228 200
f 202 253 203
f 202 239 253
f 203 253 254
f 203 254 243
f 207 232 208
f 208 232 255
f 208 255 256
f 208 256 209
f 209 256 257
f 209 257 258
f 209 258 210
f 210 258 211
f 211 258 259
f 214 260 216
f 214 216 215
f 216 261 262
f 216 262 263
f 216 263 217
f 216 260 264
f 216 264 261
f 217 263 218
f 218 263 265
f 219 223 220
f 220 223 221
f 221 223 266
f 221 266 267
f 221 267 268
f 221 268 269
f 221 269 270
f 221 270 271
f 221 271 272
f 221 272 273
f 221 273 234
f 221 234 233
f 221 233 222
f 224 230 225
f 225 230 274
f 225 274 275
f 225 275 276
f 225 276 277
f 225 277 226
f 226 277 231
f 227 251 229
f 227 252 251
f 229 278 279
f 229 279 280
f 229 280 230
f 229 251 278
f 230 280 274
f 231 277 276
f 231 276 255
f 231 255 232
f 234 273 281
f 234 281 236
f 235 282 283
f 235 283 237
f 235 236 284
f 235 284 282
f 236 281 284
f 237 283 285
f 237 285 286
f 237 286 238
f 238 287 239
f 238 286 288
f 238 288 287
f 239 287 289
f 239 289 290
f 239 290 253
f 240 291 292
f 240 292 293
f 240 293 244
f 240 243 294
f 240 294 291
f 243 254 295
f 243 295 296
f 243 296 294
f 244 293 297
f 244 297 245
f 245 298 299
f 245 299 246
f 245 297 300
f 245 300 298
f 246 299 247
f 247 299 301
f 247 301 302
f 247 302 249
f 247 249 248
f 249 302 303
f 249 303 250
f 250 303 251
f 251 303 278
f 253 304 305
f 253 305 306
f 253 306 295
f 253 295 254
f 253 290 304
f 255 276 275
f 255 275 307
f 255 307 308
f 255 308 309
f 255 309 310
f 255 310 257
f 255 257 256
f 257 310 311
f 257 311 312
f 257 312 313
f 257 313 314
f 257 314 315
f 257 315 259
f 257 259 258
f 261 264 316
f 261 316 317
f 261 317 318
f 261 318 319
f 261 319 262
f 262 319 263
f 263 320 321
f 263 321 265
f 263 319 322
f 263 322 269
f 263 269 320
f 264 323 316
f 268 324 269
f 269 324 320
f 269 322 271
f 269 271 270
f 271 325 284
f 271 284 281
f 271 281 273
f 271 273 272
f 271 322 319
f 271 319 326
f 271 326 325
f 274 280 275
f 275 280 327
f 275 327 307
f 278 303 328
f 278 328 279
f 279 328 280
f 280 328 327
f 282 285 283
f 282 284 329
f 282 329 330
f 282 330 331
f 282 331 285
f 284 325 326
f 284 326 318
f 284 318 332
f 284 332 329
f 285 333 334
f 285 334 335
f 285 335 336
f 285 336 337
f 285 337 286
f 285 331 338
f 285 338 339
f 285 339 340
f 285 340 341
f 285 341 342
f 285 342 343
f 285 343 333
f 286 337 288
f 287 344 345
f 287 345 346
f 287 346 347
f 287 347 289
f 287 288 336
f 287 336 335
f 287 335 344
f 288 337 336
f 289 347 290
f 290 347 348
f 290 348 304
f 291 349 292
f 291 294 350
f 291 350 351
f 291 351 349
f 292 349 352
f 292 352 293
f 293 352 297
f 294 296 353
f 294 353 354
f 294 354 351
f 294 351 350
f 295 306 305
f 295 305 353
f 295 353 296
f 297 352 355
f 297 355 356
f 297 356 357
f 297 357 358
f 297 358 359
f 297 359 360
f 297 360 361
f 297 361 362
f 297 362 363
f 297 363 300
f 298 300 299
f 299 300 364
f 299 364 365
f 299 365 366
f 299 366 367
f 299 367 301
f 300 363 364
f 301 303 302
f 301 367 328
f 301 328 303
f 304 353 305
f 304 348 347
f 304 347 368
f 304 368 346
f 304 346 353
f 307 327 369
f 307 369 308
f 308 369 370
f 308 370 309
f 309 370 371
f 309 371 372
f 309 372 373
f 309 373 310
f 310 374 311
f 310 373 374
f 311 374 375
f 311 375 312
f 312 375 313
f 316 323 376
f 316 376 377
f 316 377 317
f 317 377 378
f 317 378 379
f 317 379 380
f 317 380 381
f 317 381 318
f 318 326 319
f 318 381 380
f 318 380 382
f 318 382 332
f 327 328 383
f 327 383 369
f 328 367 384
f 328 384 385
f 328 385 372
f 328 372 371
f 328 371 370
f 328 370 383
f 329 332 331
f 329 331 330
f 331 332 382
f 331 382 380
f 331 380 386
f 331 386 338
f 333 387 388
f 333 388 389
f 333 389 390
f 333 390 334
f 333 343 387
f 334 390 335
f 335 390 391
f 335 391 344
f 338 386 340
f 338 340 339
f 340 392 341
f 340 386 392
f 341 392 342
f 342 392 393
f 342 393 394
f 342 394 343
f 344 395 346
f 344 346 345
f 344 391 396
f 344 396 397
f 344 397 395
f 346 368 347
f 346 395 398
f 346 398 399
f 346 399 400
f 346 400 401
f 346 401 353
f 349 351 352
f 351 354 400
f 351 400 399
f 351 399 402
f 351 402 403
f 351 403 404
f 351 404 352
f 352 404 355
f 353 401 354
f 354 401 400
f 355 357 356
f 359 361 360
f 361 405 362
f 362 405 406
f 362 406 363
f 363 406 407
f 363 407 408
f 363 408 409
f 363 409 365
f 363 365 364
f 365 409 410
f 365 410 411
f 365 411 366
f 366 411 367
f 367 411 384
f 369 383 370
f 372 385 412
f 372 412 413
f 372 413 373
f 373 413 374
f 374 413 414
f 378 415 416
f 378 416 379
f 379 416 380
f 380 416 386
f 384 417 412
f 384 412 385
f 384 411 417
f 386 416 418
f 386 418 419
f 386 419 392
f 388 420 389
f 389 420 390
f 390 420 421
f 390 421 422
f 390 422 391
f 391 422 423
f 391 423 424
f 391 424 396
f 392 419 393
f 395 425 426
f 395 426 427
f 395 427 398
f 395 397 428
f 395 428 425
f 396 424 397
f 398 427 429
f 398 429 399
f 407 430 408
f 408 430 431
f 408 431 409
f 409 431 410
f 410 431 432
f 410 432 411
f 411 432 433
f 411 433 434
f 411 434 435
f 411 435 417
f 412 436 413
f 412 417 436
f 413 436 414
f 414 436 437
f 415 418 416
f 417 438 439
f 417 439 436
f 417 435 440
f 417 440 438
f 421 423 422
f 432 441 435
f 432 435 434
f 432 434 433
f 435 441 440
f 436 439 442
f 436 442 443
f 436 443 437
f 438 442 439

