# https://github.com/mikedh/trimesh
v 0.02198467 0.01557228 0.06964909
v 0.02633846 0.01557228 0.06887330
v 0.02633846 0.01627771 0.06887701
v 0.02633846 0.01674128 0.06887107
v 0.02198467 0.01674128 0.06960459
v 0.02198467 0.01525522 0.06962906
v 0.02633846 0.01525522 0.06884363
v 0.02633846 0.01791028 0.06875760
v 0.02198467 0.01791028 0.06952968
v 0.02198467 0.01685989 0.06959717
v 0.02198467 0.01525522 0.06552540
v 0.02633846 0.01525522 0.06614173
v 0.02633846 0.01907928 0.06851952
v 0.02198467 0.01912269 0.06924562
v 0.02633846 0.01966611 0.06234215
v 0.02198467 0.02032503 0.06245711
v 0.02625364 0.01967231 0.06234660
v 0.02633846 0.01950254 0.06838380
v 0.02633846 0.01982347 0.06827106
v 0.02198467 0.02030642 0.06882658
v 0.02633846 0.01975913 0.06230952
v 0.02198467 0.02130100 0.06235847
v 0.02563350 0.02039867 0.06217750
v 0.02633846 0.02022658 0.06215896
v 0.02633846 0.02040797 0.06790913
v 0.02198467 0.02152503 0.06821321
v 0.02198467 0.02095371 0.06851804
v 0.02198467 0.02159093 0.06239407
v 0.02633846 0.02141651 0.06207218
v 0.02633846 0.02118782 0.06732469
v 0.02633846 0.02177232 0.06677660
v 0.02198467 0.02216690 0.06755016
v 0.02198467 0.02171418 0.06245488
v 0.02495411 0.02201884 0.06232880
v 0.02563350 0.02205992 0.06229320
v 0.02633846 0.02167232 0.06213819
v 0.02633846 0.02205915 0.06642430
v 0.02198467 0.02229016 0.06741814
v 0.02198467 0.02273667 0.06307714
v 0.02633846 0.02209403 0.06226650
v 0.02633846 0.02224209 0.06619216
v 0.02198467 0.02280876 0.06660453
v 0.02198467 0.02315218 0.06358445
v 0.02633846 0.02254210 0.06292659
v 0.02633846 0.02250178 0.06566409
v 0.02633846 0.02269713 0.06526433
v 0.02198467 0.02298628 0.06621219
v 0.02198467 0.02317466 0.06365862
v 0.02633846 0.02271341 0.06339013
v 0.02633846 0.02285683 0.06455974
v 0.02435528 0.02301884 0.06515234
v 0.02198467 0.02317466 0.06575383
v 0.02268068 0.02317466 0.06402945
v 0.02633846 0.02290411 0.06409546
v 0.02389284 0.02317156 0.06468805
v 0.02240961 0.02317466 0.06555432
v 0.02384255 0.02317466 0.06466135
v 0.02389284 0.02317156 0.06467248
v 0.02384255 0.02317466 0.06470066
f 1 2 3
f 1 3 4
f 1 4 5
f 1 5 10
f 1 10 9
f 1 9 14
f 1 14 20
f 1 20 27
f 1 27 26
f 1 26 32
f 1 32 38
f 1 38 42
f 1 42 47
f 1 47 52
f 1 52 48
f 1 48 43
f 1 43 39
f 1 39 33
f 1 33 28
f 1 28 22
f 1 22 16
f 1 16 11
f 1 11 6
f 1 6 2
f 2 6 7
f 2 7 12
f 2 12 15
f 2 15 21
f 2 21 24
f 2 24 29
f 2 29 36
f 2 36 40
f 2 40 44
f 2 44 49
f 2 49 54
f 2 54 50
f 2 50 46
f 2 46 45
f 2 45 41
f 2 41 37
f 2 37 31
f 2 31 30
f 2 30 25
f 2 25 19
f 2 19 18
f 2 18 13
f 2 13 8
f 2 8 4
f 2 4 3
f 4 8 9
f 4 9 10
f 4 10 5
f 6 11 12
f 6 12 7
f 8 13 9
f 9 13 14
f 11 15 12
f 11 16 17
f 11 17 15
f 13 18 14
f 14 18 19
f 14 19 20
f 15 17 21
f 16 22 23
f 16 23 24
f 16 24 21
f 16 21 17
f 19 25 26
f 19 26 27
f 19 27 20
f 22 28 29
f 22 29 23
f 23 29 24
f 25 30 26
f 26 30 31
f 26 31 32
f 28 33 34
f 28 34 35
f 28 35 36
f 28 36 29
f 31 37 38
f 31 38 32
f 33 39 34
f 34 39 35
f 35 39 40
f 35 40 36
f 37 41 38
f 38 41 42
f 39 43 40
f 40 43 44
f 41 45 42
f 42 45 46
f 42 46 47
f 43 48 49
f 43 49 44
f 46 50 51
f 46 51 52
f 46 52 47
f 48 53 54
f 48 54 49
f 48 52 56
f 48 56 59
f 48 59 57
f 48 57 53
f 50 54 55
f 50 55 51
f 51 55 56
f 51 56 52
f 53 57 54
f 54 57 58
f 54 58 55
f 55 58 57
f 55 57 59
f 55 59 56

