# https://github.com/mikedh/trimesh
v 0.04606041 0.00679416 0.04600500
v 0.04606639 0.00679700 0.04538945
v 0.04617525 0.00679416 0.04600500
v 0.04575298 0.00689766 0.04600500
v 0.03798357 0.00789148 0.02304560
v 0.03798357 0.00787305 0.02272920
v 0.04608792 0.00680409 0.04478541
v 0.04618242 0.00679700 0.04538945
v 0.04645277 0.00681826 0.04600500
v 0.04658076 0.00683244 0.04432519
v 0.04547546 0.00699690 0.04600500
v 0.03798357 0.00800348 0.02360938
v 0.04433786 0.00741938 0.04600500
v 0.04342635 0.00781067 0.04600500
v 0.04311892 0.00797370 0.04600500
v 0.04284260 0.00812823 0.04600500
v 0.04248612 0.00840611 0.04600500
v 0.04212846 0.00871233 0.04600500
v 0.03798357 0.00790282 0.02201873
v 0.04317036 0.00741654 0.03019345
v 0.04667526 0.00685654 0.04305094
v 0.04612859 0.00680409 0.04478541
v 0.04676019 0.00688632 0.04600500
v 0.04676618 0.00684662 0.04538945
v 0.03798357 0.00820054 0.02406960
v 0.04182223 0.00902139 0.04600500
v 0.04154470 0.00931203 0.04600500
v 0.04136049 0.00958848 0.04600500
v 0.04116072 0.00989613 0.04600500
v 0.04089516 0.01045045 0.04600500
v 0.04068223 0.01089703 0.04600500
v 0.03798357 0.00791983 0.02169945
v 0.03966306 0.00780925 0.02318079
v 0.04317036 0.00747467 0.02902563
v 0.04433786 0.00726059 0.03369978
v 0.04667526 0.00690475 0.04188313
v 0.04784516 0.00727335 0.04305094
v 0.04783440 0.00751011 0.04600500
v 0.04784516 0.00730738 0.04421876
v 0.03798357 0.00867973 0.02488650
v 0.04034490 0.01205814 0.04600500
v 0.03798357 0.00796094 0.02141469
v 0.04026116 0.00796803 0.02258538
v 0.04202319 0.00782343 0.02551355
v 0.04271699 0.00791841 0.02589899
v 0.04436298 0.00775538 0.02905727
v 0.04433786 0.00757107 0.03019345
v 0.04550656 0.00737543 0.03369978
v 0.04550656 0.00726343 0.03486759
v 0.04550656 0.00716702 0.03603829
v 0.04784516 0.00735274 0.04188313
v 0.04667526 0.00707912 0.03954461
v 0.04854136 0.00783618 0.04305094
v 0.04851623 0.00787730 0.04188313
v 0.04793488 0.00751578 0.04536069
v 0.04845523 0.00793401 0.04495224
v 0.04817532 0.00786312 0.04600500
v 0.04849829 0.00787730 0.04421876
v 0.03798357 0.00891081 0.02520865
v 0.04025877 0.01248488 0.04600500
v 0.03798357 0.00797370 0.02138017
v 0.03798357 0.00821897 0.02081064
v 0.03798357 0.00837917 0.02043959
v 0.03798357 0.00877046 0.01970898
v 0.03798357 0.00894909 0.01938395
v 0.03798357 0.00910646 0.01911932
v 0.04166074 0.00897745 0.02236965
v 0.04242871 0.00803183 0.02511948
v 0.04354716 0.00808712 0.02668712
v 0.04373617 0.00798079 0.02729404
v 0.04399096 0.00786312 0.02807354
v 0.04498382 0.00793117 0.02946860
v 0.04550656 0.00755831 0.03252908
v 0.04667526 0.00746474 0.03603829
v 0.04667526 0.00732155 0.03720610
v 0.04667526 0.00719112 0.03837392
v 0.04841934 0.00798646 0.04020619
v 0.04776860 0.00757958 0.03954461
v 0.04888108 0.00855780 0.04305094
v 0.04885955 0.00855780 0.04188313
v 0.04872198 0.00844864 0.04064340
v 0.04869328 0.00859608 0.04600500
v 0.04848872 0.00825441 0.04600500
v 0.04836791 0.00806302 0.04600500
v 0.04881768 0.00855780 0.04421876
v 0.03798357 0.00947790 0.02559984
v 0.04023963 0.01260255 0.04600500
v 0.03798357 0.00917734 0.01904166
v 0.04117507 0.00928651 0.02159015
v 0.04166791 0.01006625 0.02119033
v 0.04205429 0.00969056 0.02199284
v 0.04244067 0.00931486 0.02280686
v 0.04378402 0.00910929 0.02489225
v 0.04311533 0.00886828 0.02444066
v 0.04313208 0.00830828 0.02551355
v 0.04476969 0.00807436 0.02868909
v 0.04548264 0.00856064 0.02906015
v 0.04571351 0.00828702 0.03019345
v 0.04591567 0.00809846 0.03116279
v 0.04609271 0.00797229 0.03193942
v 0.04619438 0.00788581 0.03252908
v 0.04638698 0.00775679 0.03369978
v 0.04728294 0.00795102 0.03538247
v 0.04735830 0.00787588 0.03603829
v 0.04762745 0.00766322 0.03837392
v 0.04835355 0.00807578 0.03954461
v 0.04871361 0.00865988 0.03954461
v 0.04930095 0.00972742 0.04305094
v 0.04928420 0.00972742 0.04421876
v 0.04923157 0.00972742 0.04538945
v 0.04929617 0.00972742 0.04071243
v 0.04930335 0.00972742 0.04188313
v 0.04895285 0.00918585 0.04600500
v 0.04918612 0.00972742 0.04600500
v 0.03798357 0.00972742 0.02570339
v 0.04023126 0.01274148 0.04600500
v 0.03872523 0.00945096 0.01938395
v 0.03798357 0.00973451 0.01855555
v 0.03839866 0.00979547 0.01882018
v 0.03914510 0.01023071 0.01903015
v 0.04119301 0.01066453 0.02041082
v 0.04194065 0.01101612 0.02089406
v 0.04244784 0.01058797 0.02161316
v 0.04271101 0.01009461 0.02239266
v 0.04379239 0.01026190 0.02371868
v 0.04457112 0.00972033 0.02549054
v 0.04478405 0.00932479 0.02637935
v 0.04396584 0.00893350 0.02551930
v 0.04397660 0.00981390 0.02444066
v 0.04517282 0.00887962 0.02785781
v 0.04617525 0.00904691 0.02943120
v 0.04632238 0.00887112 0.03019345
v 0.04644200 0.00851527 0.03147344
v 0.04734634 0.00902848 0.03281385
v 0.04747314 0.00885836 0.03369978
v 0.04757482 0.00851669 0.03494238
v 0.04798870 0.00867405 0.03615047
v 0.04821240 0.00825725 0.03837392
v 0.04723150 0.00918869 0.03203434
v 0.04843131 0.00914048 0.03661357
v 0.04849231 0.00903983 0.03720610
v 0.04860715 0.00884135 0.03837392
v 0.04918731 0.00972742 0.03954461
v 0.04900788 0.00972742 0.03837392
v 0.04954976 0.01049298 0.04421876
v 0.04954019 0.01057096 0.04071243
v 0.04954498 0.01051425 0.04188313
v 0.04954498 0.01048590 0.04305094
v 0.04932129 0.01018534 0.04600500
v 0.03798357 0.01907867 0.02483185
v 0.04020614 0.01325611 0.04600500
v 0.04021093 0.01430097 0.04600500
v 0.03798357 0.01024205 0.01812409
v 0.03798357 0.01042777 0.01798602
v 0.03853383 0.01080630 0.01819600
v 0.04143345 0.01144427 0.02024111
v 0.03895131 0.01178452 0.01802054
v 0.04263206 0.01136630 0.02137729
v 0.04157341 0.01206523 0.02008291
v 0.04371703 0.01161582 0.02265154
v 0.04352802 0.01089703 0.02289603
v 0.04394431 0.01089703 0.02347994
v 0.04455438 0.01088711 0.02438313
v 0.04483549 0.01049157 0.02508497
v 0.04506038 0.01010453 0.02586447
v 0.04625659 0.01006342 0.02813682
v 0.04598026 0.00928509 0.02865170
v 0.04642765 0.00969623 0.02903426
v 0.04693006 0.00978554 0.03022221
v 0.04711308 0.00939567 0.03136127
v 0.04834398 0.00933188 0.03583406
v 0.04743486 0.00998119 0.03136127
v 0.04759754 0.00963810 0.03246580
v 0.04857605 0.00972316 0.03615047
v 0.04879615 0.00972742 0.03720610
v 0.04937392 0.01089703 0.03837392
v 0.04950790 0.01090696 0.03944394
v 0.04918372 0.01089703 0.03720610
v 0.04970647 0.01107708 0.04421876
v 0.04951627 0.01069288 0.04538945
v 0.04972082 0.01106999 0.04305094
v 0.04963709 0.01130250 0.03976610
v 0.04966938 0.01115506 0.04071243
v 0.04969690 0.01109977 0.04188313
v 0.04948397 0.01086584 0.04600500
v 0.03798357 0.02001011 0.02413576
v 0.04025638 0.01488223 0.04600500
v 0.03798357 0.01107141 0.01764660
v 0.03817138 0.01113521 0.01774440
v 0.03798357 0.01145420 0.01747402
v 0.03798357 0.01209075 0.01720652
v 0.03798357 0.01267910 0.01697353
v 0.03798357 0.01292578 0.01688436
v 0.03843455 0.01322351 0.01712598
v 0.03924438 0.01323485 0.01776454
v 0.04238564 0.01323485 0.02048273
v 0.04289044 0.01323485 0.02106664
v 0.04347539 0.01323485 0.02178286
v 0.04337969 0.01202979 0.02207338
v 0.04180069 0.01323485 0.01990745
v 0.04111287 0.01323485 0.01932067
v 0.04382468 0.01239556 0.02250484
v 0.04498980 0.01359069 0.02367553
v 0.04487376 0.01281237 0.02384236
v 0.04514291 0.01206523 0.02459310
v 0.04502209 0.01127131 0.02479445
v 0.04525655 0.01088711 0.02549054
v 0.04604366 0.01042210 0.02735732
v 0.04701858 0.01090554 0.02904864
v 0.04718246 0.01052134 0.02984828
v 0.04643363 0.01084600 0.02779166
v 0.04730926 0.01021511 0.03062778
v 0.04796837 0.00972742 0.03369978
v 0.04851265 0.01011162 0.03514085
v 0.04783200 0.01089703 0.03136127
v 0.04821359 0.01095516 0.03256360
v 0.04895166 0.01089703 0.03603829
v 0.04955694 0.01171931 0.03837392
v 0.04959522 0.01149673 0.03898659
v 0.04946842 0.01212903 0.03725500
v 0.04903300 0.01206523 0.03486759
v 0.04925071 0.01206523 0.03603829
v 0.04986078 0.01206523 0.04421876
v 0.04964546 0.01127698 0.04538945
v 0.04989666 0.01206523 0.04305094
v 0.04987035 0.01206523 0.04188313
v 0.04982609 0.01206523 0.04071243
v 0.04971604 0.01195749 0.03944394
v 0.04960240 0.01143577 0.04600500
v 0.03798357 0.02042834 0.02322106
v 0.04039155 0.01554005 0.04600500
v 0.04058414 0.01618511 0.04600500
v 0.04075281 0.01674086 0.04600500
v 0.03798357 0.01359353 0.01668014
v 0.03800511 0.01360629 0.01668876
v 0.03996092 0.01440163 0.01815573
v 0.04239999 0.01440163 0.02043096
v 0.04296102 0.01440163 0.02101487
v 0.04354477 0.01440163 0.02171095
v 0.04392397 0.01323485 0.02236677
v 0.04058893 0.01440163 0.01873964
v 0.04501372 0.01440163 0.02364677
v 0.04543479 0.01440163 0.02434861
v 0.04592882 0.01440163 0.02524892
v 0.04618721 0.01323485 0.02593063
v 0.04612261 0.01253308 0.02605144
v 0.04575777 0.01211202 0.02560560
v 0.04602093 0.01175475 0.02625278
v 0.04587021 0.01084600 0.02666123
v 0.04620754 0.01120042 0.02703229
v 0.04716093 0.01183698 0.02867471
v 0.04732600 0.01130108 0.02945421
v 0.04744682 0.01090554 0.03022221
v 0.04694681 0.01216164 0.02795849
v 0.04846001 0.01138473 0.03297780
v 0.04824230 0.01208366 0.03138428
v 0.04837269 0.01170513 0.03219830
v 0.04966221 0.01230341 0.03837392
v 0.04955933 0.01288467 0.03690121
v 0.04961317 0.01256143 0.03768071
v 0.04925430 0.01323485 0.03486759
v 0.04948995 0.01325895 0.03606705
v 0.04846839 0.01248488 0.03178985
v 0.04997083 0.01323485 0.04421876
v 0.04986676 0.01323485 0.04538945
v 0.04960718 0.01146554 0.04600500
v 0.05002347 0.01323485 0.04305094
v 0.05014787 0.01440163 0.04305094
v 0.04960479 0.01144853 0.04600500
v 0.05003423 0.01323485 0.04188313
v 0.04999476 0.01323485 0.04071243
v 0.04992059 0.01323485 0.03954461
v 0.04981173 0.01323485 0.03837392
v 0.03798357 0.02071755 0.02197558
v 0.04119660 0.01768931 0.04600500
v 0.04157102 0.01827341 0.04600500
v 0.04215477 0.01895533 0.04600500
v 0.04274211 0.01953943 0.04600500
v 0.03798357 0.01363322 0.01667151
v 0.03804099 0.01440163 0.01665712
v 0.03862475 0.01440163 0.01709434
v 0.03937716 0.01440163 0.01767824
v 0.03986163 0.01557124 0.01824490
v 0.04049203 0.01557124 0.01882880
v 0.04285695 0.01557124 0.02114718
v 0.04344190 0.01557124 0.02184902
v 0.04497664 0.01517854 0.02369567
v 0.04587500 0.01557124 0.02535822
v 0.04658435 0.01557124 0.02668712
v 0.04667885 0.01440163 0.02668712
v 0.04658794 0.01323485 0.02668712
v 0.04632358 0.01211202 0.02666123
v 0.04726978 0.01261672 0.02841871
v 0.04740495 0.01216164 0.02904864
v 0.04782722 0.01206523 0.03019345
v 0.04962393 0.01366441 0.03647838
v 0.04966699 0.01325895 0.03725500
v 0.04906051 0.01440163 0.03369978
v 0.04931770 0.01440163 0.03486759
v 0.04850427 0.01323485 0.03168342
v 0.04802459 0.01323485 0.03019345
v 0.04833680 0.01323485 0.03110239
v 0.05007968 0.01440163 0.04421876
v 0.04997562 0.01440163 0.04538945
v 0.04978901 0.01318523 0.04600500
v 0.05018017 0.01557124 0.04305094
v 0.05015624 0.01440163 0.04188313
v 0.05020290 0.01557124 0.04188313
v 0.05010840 0.01440163 0.04071243
v 0.05004380 0.01440163 0.03954461
v 0.04992418 0.01440163 0.03837392
v 0.03798357 0.02060130 0.02084228
v 0.04304954 0.01975492 0.04600500
v 0.04332587 0.01994773 0.04600500
v 0.04433068 0.02054459 0.04600500
v 0.04486898 0.02085932 0.04600500
v 0.04548742 0.02107340 0.04600500
v 0.04606161 0.02120099 0.04600500
v 0.03903744 0.02084940 0.02383949
v 0.03903744 0.02084940 0.02360650
v 0.03966306 0.02085932 0.02358637
v 0.03798357 0.01440163 0.01661973
v 0.03798836 0.01520122 0.01668876
v 0.03927788 0.01557124 0.01777317
v 0.04035088 0.01641478 0.01898988
v 0.03913553 0.01627868 0.01786521
v 0.04270981 0.01649985 0.02128237
v 0.04369310 0.01704000 0.02268893
v 0.04486300 0.01595828 0.02384524
v 0.04524938 0.01556983 0.02427958
v 0.04611065 0.01621630 0.02606869
v 0.04632238 0.01666005 0.02667849
v 0.04696834 0.01664587 0.02796136
v 0.04708557 0.01557124 0.02773413
v 0.04712145 0.01440163 0.02762770
v 0.04707719 0.01323485 0.02771399
v 0.04731883 0.01323485 0.02829790
v 0.04759156 0.01323485 0.02902563
v 0.04964426 0.01440163 0.03641797
v 0.04975910 0.01440163 0.03720610
v 0.04875189 0.01440163 0.03252908
v 0.04903659 0.01557124 0.03369978
v 0.04964187 0.01557124 0.03646687
v 0.04851265 0.01440163 0.03167767
v 0.04734873 0.01440163 0.02821161
v 0.04764300 0.01440163 0.02902563
v 0.04803895 0.01440163 0.03019345
v 0.04832963 0.01440163 0.03109664
v 0.05010361 0.01557124 0.04421876
v 0.04997442 0.01557124 0.04538945
v 0.04990384 0.01557124 0.04600500
v 0.04989786 0.01440163 0.04600500
v 0.04984523 0.01378917 0.04600500
v 0.05014428 0.01674086 0.04305094
v 0.05016582 0.01674086 0.04188313
v 0.05015385 0.01557124 0.04071243
v 0.05008327 0.01557124 0.03954461
v 0.04994930 0.01557124 0.03837392
v 0.03849436 0.02043117 0.02084228
v 0.03798357 0.02014196 0.01973487
v 0.04031978 0.02084940 0.02368416
v 0.04109852 0.02074307 0.02404946
v 0.04075759 0.02057720 0.02324983
v 0.04667526 0.02127755 0.04600500
v 0.04667526 0.02127330 0.04538945
v 0.04075759 0.02087208 0.02440326
v 0.03798357 0.01520405 0.01668589
v 0.03798357 0.01522816 0.01669164
v 0.04018939 0.01719453 0.01914233
v 0.04256507 0.01727817 0.02144633
v 0.03798357 0.01672526 0.01714611
v 0.03853144 0.01669691 0.01755456
v 0.03894653 0.01705701 0.01802917
v 0.04290360 0.01790906 0.02223158
v 0.04353520 0.01801397 0.02312039
v 0.04393235 0.01769498 0.02346843
v 0.04496707 0.01742987 0.02486636
v 0.04510822 0.01674086 0.02465063
v 0.04471945 0.01674086 0.02406385
v 0.04571231 0.01666005 0.02561422
v 0.04599223 0.01699605 0.02628155
v 0.04621233 0.01759149 0.02706105
v 0.04718485 0.01697336 0.02864019
v 0.04726739 0.01619362 0.02841871
v 0.04730328 0.01557124 0.02831804
v 0.04976389 0.01557124 0.03720610
v 0.04888467 0.01674086 0.03369978
v 0.04916698 0.01674086 0.03486759
v 0.04962153 0.01628577 0.03653878
v 0.04870644 0.01557124 0.03252908
v 0.04844566 0.01625316 0.03189052
v 0.04830092 0.01557124 0.03120019
v 0.04848035 0.01557124 0.03178122
v 0.04756166 0.01557124 0.02902563
v 0.04797435 0.01557124 0.03019345
v 0.05004261 0.01674086 0.04421876
v 0.04985360 0.01674086 0.04600500
v 0.04997921 0.01790906 0.04305094
v 0.04988710 0.01790906 0.04421876
v 0.04973637 0.01790906 0.04600500
v 0.04998040 0.01790906 0.04188313
v 0.05011677 0.01674086 0.04071243
v 0.05002706 0.01674086 0.03954461
v 0.04986198 0.01674086 0.03837392
v 0.04082219 0.01999452 0.02200722
v 0.03844292 0.01992647 0.01970611
v 0.03798357 0.01974642 0.01898988
v 0.04149446 0.02086074 0.02482897
v 0.04193108 0.02052049 0.02440326
v 0.04201601 0.01998601 0.02318079
v 0.04728414 0.02115988 0.04600500
v 0.04794205 0.02102803 0.04540384
v 0.04794684 0.02101811 0.04418712
v 0.04667526 0.02111309 0.03837392
v 0.04165954 0.02088059 0.02551930
v 0.04667526 0.02108474 0.03720610
v 0.03941544 0.01790906 0.01880292
v 0.04000039 0.01790906 0.01931491
v 0.04238923 0.01790906 0.02164767
v 0.04061405 0.01790906 0.01990170
v 0.04180428 0.01790906 0.02105513
v 0.04156504 0.01868880 0.02127374
v 0.03798357 0.01725265 0.01736184
v 0.03812233 0.01790906 0.01773865
v 0.03870728 0.01790906 0.01821901
v 0.04268230 0.01867179 0.02247895
v 0.04374454 0.01847331 0.02377908
v 0.04479362 0.01820961 0.02511661
v 0.04520512 0.01785518 0.02551067
v 0.04603050 0.01837123 0.02739471
v 0.04643004 0.01795301 0.02781467
v 0.04584270 0.01795301 0.02667849
v 0.04701140 0.01790622 0.02902851
v 0.04732840 0.01751351 0.02941970
v 0.04780210 0.01674086 0.03019345
v 0.04739658 0.01664587 0.02902851
v 0.04855930 0.01668273 0.03251470
v 0.04837747 0.01703291 0.03211776
v 0.04849351 0.01755605 0.03289726
v 0.04893252 0.01790906 0.03486759
v 0.04920765 0.01790906 0.03603829
v 0.04944928 0.01670116 0.03610444
v 0.04955216 0.01706552 0.03688970
v 0.04823154 0.01668273 0.03144468
v 0.04971723 0.01876677 0.04305094
v 0.04968374 0.01870581 0.04421876
v 0.04963111 0.01859098 0.04600500
v 0.04972202 0.01883057 0.04188313
v 0.04993136 0.01790906 0.04071243
v 0.04969810 0.01878237 0.04071243
v 0.04982489 0.01790906 0.03954461
v 0.04967417 0.01784384 0.03847459
v 0.04163681 0.01979462 0.02239554
v 0.03924199 0.01975918 0.02011743
v 0.03801826 0.01973649 0.01900139
v 0.03798357 0.01912120 0.01844049
v 0.04415365 0.02092312 0.03019345
v 0.04392756 0.02088059 0.02931902
v 0.04473859 0.02077284 0.03019345
v 0.04432470 0.02065234 0.02896810
v 0.04224329 0.02070479 0.02551930
v 0.04271221 0.01976768 0.02356911
v 0.04326845 0.02015330 0.02542151
v 0.04400532 0.01986976 0.02574654
v 0.04782124 0.02103228 0.04600500
v 0.04845523 0.02085082 0.04502415
v 0.04845523 0.02085082 0.04455530
v 0.04739299 0.02091461 0.03720610
v 0.04731165 0.02086641 0.03649851
v 0.03919654 0.01863209 0.01898701
v 0.04039395 0.01868171 0.02011743
v 0.04241674 0.01945011 0.02278960
v 0.03798357 0.01791473 0.01763510
v 0.03798357 0.01837123 0.01785658
v 0.04294667 0.01906733 0.02318079
v 0.04505798 0.01870014 0.02589611
v 0.04622070 0.01869447 0.02817422
v 0.04718246 0.01829326 0.02981952
v 0.04746716 0.01790622 0.03020208
v 0.04787626 0.01790906 0.03136127
v 0.04826025 0.01793174 0.03251470
v 0.04838346 0.01833579 0.03328270
v 0.04848753 0.01861083 0.03406220
v 0.04860237 0.01883199 0.03486759
v 0.04960359 0.01850733 0.03893194
v 0.04948637 0.01941467 0.04188313
v 0.04944330 0.01921194 0.04538945
v 0.04941100 0.01917508 0.04600500
v 0.04963948 0.01860515 0.03954461
v 0.04945765 0.01936647 0.04071243
v 0.04120498 0.01946713 0.02161603
v 0.04002192 0.01946146 0.02047123
v 0.03879820 0.01941184 0.01933793
v 0.03836756 0.01896809 0.01860445
v 0.03798357 0.01857255 0.01797452
v 0.04550656 0.02036454 0.03019345
v 0.04307466 0.02063958 0.02673027
v 0.04372420 0.01963300 0.02496704
v 0.04439887 0.01916657 0.02543014
v 0.04478285 0.01947989 0.02645701
v 0.04553049 0.01998885 0.02908316
v 0.04613697 0.01970672 0.02950887
v 0.04836910 0.02079269 0.04600500
v 0.04839662 0.02081112 0.04580365
v 0.04878897 0.02035178 0.04540384
v 0.04890261 0.02015755 0.04188313
v 0.04887390 0.02013345 0.04071243
v 0.04879735 0.02009517 0.03954461
v 0.04811670 0.02068069 0.03954461
v 0.04805211 0.02057578 0.03837392
v 0.04797794 0.02041841 0.03720610
v 0.04753534 0.01993781 0.03369978
v 0.04740136 0.01980738 0.03275632
v 0.04678412 0.02014763 0.03243129
v 0.04653650 0.02002712 0.03136127
v 0.03960923 0.01904748 0.01972912
v 0.03798357 0.01848748 0.01791699
v 0.04593600 0.01947421 0.02872936
v 0.04638339 0.01908151 0.02908316
v 0.04690494 0.01903614 0.03020208
v 0.04732481 0.01861791 0.03059902
v 0.04767530 0.01918358 0.03243129
v 0.04815498 0.01903189 0.03368252
v 0.04839422 0.01960748 0.03561833
v 0.04870763 0.01916232 0.03602103
v 0.04929976 0.01896951 0.03847459
v 0.04938230 0.01919067 0.03954461
v 0.04909640 0.01972373 0.04600500
v 0.04869806 0.01999168 0.03837392
v 0.04629008 0.01983857 0.03019345
v 0.04724586 0.01964292 0.03197681
v 0.04712145 0.01944870 0.03136127
v 0.04879256 0.02024971 0.04600500
v 0.04856408 0.01983431 0.03720610
f 1 2 8
f 1 8 3
f 1 3 9
f 1 9 23
f 1 23 38
f 1 38 57
f 1 57 84
f 1 84 83
f 1 83 82
f 1 82 113
f 1 113 114
f 1 114 149
f 1 149 185
f 1 185 229
f 1 229 269
f 1 269 266
f 1 266 305
f 1 305 353
f 1 353 352
f 1 352 351
f 1 351 397
f 1 397 400
f 1 400 447
f 1 447 488
f 1 488 528
f 1 528 533
f 1 533 503
f 1 503 465
f 1 465 411
f 1 411 364
f 1 364 318
f 1 318 317
f 1 317 316
f 1 316 315
f 1 315 314
f 1 314 313
f 1 313 278
f 1 278 277
f 1 277 276
f 1 276 275
f 1 275 233
f 1 233 232
f 1 232 231
f 1 231 187
f 1 187 152
f 1 152 151
f 1 151 116
f 1 116 87
f 1 87 60
f 1 60 41
f 1 41 31
f 1 31 30
f 1 30 29
f 1 29 28
f 1 28 27
f 1 27 26
f 1 26 18
f 1 18 17
f 1 17 16
f 1 16 15
f 1 15 14
f 1 14 13
f 1 13 11
f 1 11 4
f 1 4 5
f 1 5 6
f 1 6 2
f 2 7 22
f 2 22 8
f 2 6 7
f 3 8 10
f 3 10 9
f 4 11 5
f 5 12 25
f 5 25 40
f 5 40 59
f 5 59 86
f 5 86 115
f 5 115 150
f 5 150 186
f 5 186 230
f 5 230 274
f 5 274 312
f 5 312 360
f 5 360 407
f 5 407 456
f 5 456 495
f 5 495 517
f 5 517 474
f 5 474 473
f 5 473 423
f 5 423 371
f 5 371 368
f 5 368 367
f 5 367 322
f 5 322 279
f 5 279 234
f 5 234 193
f 5 193 192
f 5 192 191
f 5 191 190
f 5 190 188
f 5 188 154
f 5 154 153
f 5 153 118
f 5 118 88
f 5 88 66
f 5 66 65
f 5 65 64
f 5 64 63
f 5 63 62
f 5 62 61
f 5 61 42
f 5 42 32
f 5 32 19
f 5 19 6
f 5 11 13
f 5 13 14
f 5 14 15
f 5 15 16
f 5 16 17
f 5 17 18
f 5 18 12
f 6 19 20
f 6 20 7
f 7 21 22
f 7 20 21
f 8 22 21
f 8 21 10
f 9 10 24
f 9 24 23
f 10 21 24
f 12 18 26
f 12 26 27
f 12 27 28
f 12 28 29
f 12 29 30
f 12 30 31
f 12 31 25
f 19 32 33
f 19 33 20
f 20 33 34
f 20 34 35
f 20 35 21
f 21 36 37
f 21 37 24
f 21 35 36
f 23 24 39
f 23 39 38
f 24 37 39
f 25 31 41
f 25 41 40
f 32 42 33
f 33 42 43
f 33 43 34
f 34 43 44
f 34 44 45
f 34 45 46
f 34 46 47
f 34 47 48
f 34 48 49
f 34 49 50
f 34 50 35
f 35 50 36
f 36 51 37
f 36 50 52
f 36 52 51
f 37 53 39
f 37 51 54
f 37 54 53
f 38 39 55
f 38 55 56
f 38 56 57
f 39 53 58
f 39 58 55
f 40 41 60
f 40 60 59
f 42 61 43
f 43 61 62
f 43 62 63
f 43 63 64
f 43 64 65
f 43 65 66
f 43 66 67
f 43 67 68
f 43 68 45
f 43 45 44
f 45 68 69
f 45 69 70
f 45 70 71
f 45 71 46
f 46 71 72
f 46 72 73
f 46 73 48
f 46 48 47
f 48 73 74
f 48 74 75
f 48 75 76
f 48 76 49
f 49 76 52
f 49 52 50
f 51 77 54
f 51 52 76
f 51 76 75
f 51 75 78
f 51 78 77
f 53 79 58
f 53 54 80
f 53 80 79
f 54 77 81
f 54 81 80
f 55 58 56
f 56 82 83
f 56 83 84
f 56 84 57
f 56 58 82
f 58 85 82
f 58 79 85
f 59 60 87
f 59 87 86
f 66 88 89
f 66 89 67
f 67 89 90
f 67 90 91
f 67 91 92
f 67 92 93
f 67 93 94
f 67 94 68
f 68 95 69
f 68 94 95
f 69 95 96
f 69 96 70
f 70 96 72
f 70 72 71
f 72 96 97
f 72 97 98
f 72 98 99
f 72 99 100
f 72 100 101
f 72 101 73
f 73 101 102
f 73 102 74
f 74 102 103
f 74 103 104
f 74 104 105
f 74 105 78
f 74 78 75
f 77 78 105
f 77 105 104
f 77 104 103
f 77 103 106
f 77 106 107
f 77 107 81
f 79 108 109
f 79 109 110
f 79 110 85
f 79 80 111
f 79 111 112
f 79 112 108
f 80 81 111
f 81 107 111
f 82 85 113
f 85 110 114
f 85 114 113
f 86 87 116
f 86 116 115
f 88 117 90
f 88 90 89
f 88 118 119
f 88 119 117
f 90 117 120
f 90 120 121
f 90 121 122
f 90 122 123
f 90 123 91
f 91 123 92
f 92 123 124
f 92 124 125
f 92 125 93
f 93 126 127
f 93 127 128
f 93 128 95
f 93 95 94
f 93 125 129
f 93 129 126
f 95 128 96
f 96 128 130
f 96 130 97
f 97 131 98
f 97 130 131
f 98 131 132
f 98 132 99
f 99 132 100
f 100 132 133
f 100 133 103
f 100 103 101
f 101 103 102
f 103 134 135
f 103 135 136
f 103 136 137
f 103 137 138
f 103 138 106
f 103 133 132
f 103 132 139
f 103 139 134
f 106 138 140
f 106 140 141
f 106 141 142
f 106 142 107
f 107 143 111
f 107 142 144
f 107 144 143
f 108 145 109
f 108 112 145
f 109 145 110
f 110 145 114
f 111 146 147
f 111 147 148
f 111 148 112
f 111 143 146
f 112 148 145
f 114 145 149
f 115 116 151
f 115 151 152
f 115 152 150
f 117 119 120
f 118 153 119
f 119 153 120
f 120 153 154
f 120 154 155
f 120 155 121
f 121 156 122
f 121 155 157
f 121 157 156
f 122 158 123
f 122 156 159
f 122 159 158
f 123 160 161
f 123 161 125
f 123 125 124
f 123 158 160
f 125 162 163
f 125 163 164
f 125 164 129
f 125 161 162
f 126 129 164
f 126 164 165
f 126 165 127
f 127 165 166
f 127 166 167
f 127 167 128
f 128 167 130
f 130 167 131
f 131 167 168
f 131 168 169
f 131 169 170
f 131 170 139
f 131 139 132
f 134 171 140
f 134 140 135
f 134 139 171
f 135 140 136
f 136 140 137
f 137 140 138
f 139 170 172
f 139 172 173
f 139 173 171
f 140 171 174
f 140 174 175
f 140 175 144
f 140 144 141
f 141 144 142
f 143 144 176
f 143 176 177
f 143 177 146
f 144 175 178
f 144 178 176
f 145 179 180
f 145 180 149
f 145 148 181
f 145 181 179
f 146 177 182
f 146 182 183
f 146 183 184
f 146 184 181
f 146 181 147
f 147 181 148
f 149 180 185
f 150 152 187
f 150 187 186
f 154 188 189
f 154 189 155
f 155 189 157
f 156 157 159
f 157 189 190
f 157 190 191
f 157 191 192
f 157 192 193
f 157 193 194
f 157 194 195
f 157 195 159
f 158 159 196
f 158 196 197
f 158 197 198
f 158 198 199
f 158 199 160
f 159 200 196
f 159 195 201
f 159 201 200
f 160 162 161
f 160 199 202
f 160 202 203
f 160 203 204
f 160 204 205
f 160 205 206
f 160 206 162
f 162 206 163
f 163 206 164
f 164 206 207
f 164 207 208
f 164 208 165
f 165 208 166
f 166 209 210
f 166 210 168
f 166 168 167
f 166 208 211
f 166 211 209
f 168 210 169
f 169 212 170
f 169 210 212
f 170 212 172
f 171 173 213
f 171 213 214
f 171 214 174
f 172 212 215
f 172 215 216
f 172 216 173
f 173 216 213
f 174 214 175
f 175 214 217
f 175 217 178
f 176 218 219
f 176 219 177
f 176 178 220
f 176 220 218
f 177 219 182
f 178 217 221
f 178 221 222
f 178 222 220
f 179 223 224
f 179 224 180
f 179 181 225
f 179 225 223
f 180 224 185
f 181 184 226
f 181 226 225
f 182 227 183
f 182 219 228
f 182 228 227
f 183 227 226
f 183 226 184
f 185 224 229
f 186 187 231
f 186 231 232
f 186 232 233
f 186 233 230
f 188 190 189
f 193 234 235
f 193 235 194
f 194 235 195
f 195 235 236
f 195 236 201
f 196 200 237
f 196 237 238
f 196 238 197
f 197 238 239
f 197 239 198
f 198 239 203
f 198 203 240
f 198 240 202
f 198 202 199
f 200 201 236
f 200 236 241
f 200 241 237
f 202 240 203
f 203 205 204
f 203 239 242
f 203 242 243
f 203 243 244
f 203 244 245
f 203 245 246
f 203 246 247
f 203 247 205
f 205 247 206
f 206 247 248
f 206 248 207
f 207 248 249
f 207 249 208
f 208 249 250
f 208 250 211
f 209 251 252
f 209 252 210
f 209 211 251
f 210 252 253
f 210 253 215
f 210 215 212
f 211 250 254
f 211 254 251
f 213 216 214
f 214 216 255
f 214 255 217
f 215 256 257
f 215 257 216
f 215 253 252
f 215 252 256
f 216 257 255
f 217 255 221
f 218 258 219
f 218 220 259
f 218 259 260
f 218 260 258
f 219 258 228
f 220 222 259
f 221 261 262
f 221 262 222
f 221 255 257
f 221 257 263
f 221 263 261
f 222 262 259
f 223 264 265
f 223 265 266
f 223 266 224
f 223 225 267
f 223 267 268
f 223 268 264
f 224 266 269
f 224 269 229
f 225 226 270
f 225 270 267
f 226 227 271
f 226 271 270
f 227 228 272
f 227 272 271
f 228 258 273
f 228 273 272
f 230 233 275
f 230 275 276
f 230 276 277
f 230 277 278
f 230 278 274
f 234 279 235
f 235 279 280
f 235 280 281
f 235 281 282
f 235 282 236
f 236 283 284
f 236 284 241
f 236 282 283
f 237 285 238
f 237 241 284
f 237 284 285
f 238 285 239
f 239 286 287
f 239 287 242
f 239 285 286
f 242 287 243
f 243 287 288
f 243 288 244
f 244 288 289
f 244 289 290
f 244 290 291
f 244 291 245
f 245 291 246
f 246 291 292
f 246 292 248
f 246 248 247
f 248 292 254
f 248 254 250
f 248 250 249
f 251 254 293
f 251 293 294
f 251 294 252
f 252 294 295
f 252 295 256
f 254 292 293
f 256 263 257
f 256 295 263
f 258 260 273
f 259 262 296
f 259 296 297
f 259 297 260
f 260 297 273
f 261 298 299
f 261 299 296
f 261 296 262
f 261 263 300
f 261 300 298
f 263 295 301
f 263 301 302
f 263 302 300
f 264 303 304
f 264 304 265
f 264 268 303
f 265 304 305
f 265 305 266
f 267 270 268
f 268 306 303
f 268 270 307
f 268 307 308
f 268 308 306
f 270 271 307
f 271 309 307
f 271 272 310
f 271 310 309
f 272 273 310
f 273 311 310
f 273 297 296
f 273 296 311
f 274 278 313
f 274 313 314
f 274 314 315
f 274 315 316
f 274 316 317
f 274 317 318
f 274 318 319
f 274 319 320
f 274 320 321
f 274 321 312
f 279 322 280
f 280 322 323
f 280 323 281
f 281 323 282
f 282 323 324
f 282 324 283
f 283 325 284
f 283 324 326
f 283 326 325
f 284 325 327
f 284 327 285
f 285 327 286
f 286 328 287
f 286 327 328
f 287 329 330
f 287 330 288
f 287 328 329
f 288 331 289
f 288 330 331
f 289 332 333
f 289 333 334
f 289 334 290
f 289 331 332
f 290 334 335
f 290 335 336
f 290 336 291
f 291 336 292
f 292 336 293
f 293 336 337
f 293 337 338
f 293 338 301
f 293 301 295
f 293 295 294
f 296 339 340
f 296 340 311
f 296 299 339
f 298 341 342
f 298 342 299
f 298 300 341
f 299 342 343
f 299 343 339
f 300 302 344
f 300 344 341
f 301 338 345
f 301 345 346
f 301 346 302
f 302 347 348
f 302 348 344
f 302 346 347
f 303 349 304
f 303 306 349
f 304 350 351
f 304 351 352
f 304 352 353
f 304 353 305
f 304 349 350
f 306 354 349
f 306 308 354
f 307 309 308
f 308 355 354
f 308 309 356
f 308 356 402
f 308 402 355
f 309 310 356
f 310 357 356
f 310 311 357
f 311 358 357
f 311 340 358
f 312 359 360
f 312 321 361
f 312 361 362
f 312 362 363
f 312 363 359
f 318 364 319
f 319 364 320
f 320 364 365
f 320 365 321
f 321 366 361
f 321 365 366
f 322 367 323
f 323 367 368
f 323 368 324
f 324 368 326
f 325 326 369
f 325 369 370
f 325 370 327
f 326 368 371
f 326 371 372
f 326 372 373
f 326 373 369
f 327 370 328
f 328 370 374
f 328 374 375
f 328 375 376
f 328 376 377
f 328 377 378
f 328 378 379
f 328 379 329
f 329 379 378
f 329 378 330
f 330 378 380
f 330 380 331
f 331 380 381
f 331 381 332
f 332 381 382
f 332 382 333
f 333 383 384
f 333 384 334
f 333 382 383
f 334 384 385
f 334 385 345
f 334 345 335
f 335 345 337
f 335 337 336
f 337 345 338
f 339 343 386
f 339 386 358
f 339 358 340
f 341 344 342
f 342 387 388
f 342 388 389
f 342 389 343
f 342 344 390
f 342 390 391
f 342 391 387
f 343 389 386
f 344 348 392
f 344 392 393
f 344 393 390
f 345 385 394
f 345 394 346
f 346 394 395
f 346 395 347
f 347 395 392
f 347 392 348
f 349 396 397
f 349 397 350
f 349 354 396
f 350 397 351
f 354 398 399
f 354 399 400
f 354 400 396
f 354 355 398
f 355 401 398
f 355 402 449
f 355 449 401
f 356 357 402
f 357 403 402
f 357 358 403
f 358 404 403
f 358 386 389
f 358 389 404
f 359 363 405
f 359 405 360
f 360 406 407
f 360 405 406
f 361 366 408
f 361 408 362
f 362 409 363
f 362 408 409
f 363 409 410
f 363 410 405
f 364 411 365
f 365 411 412
f 365 412 413
f 365 413 414
f 365 414 366
f 366 415 408
f 366 414 416
f 366 416 415
f 369 373 417
f 369 417 418
f 369 418 370
f 370 419 374
f 370 418 420
f 370 420 421
f 370 421 422
f 370 422 419
f 371 423 372
f 372 423 424
f 372 424 373
f 373 425 417
f 373 424 425
f 374 419 426
f 374 426 375
f 375 426 427
f 375 427 428
f 375 428 376
f 376 428 377
f 377 428 429
f 377 429 378
f 378 429 381
f 378 381 380
f 381 429 382
f 382 430 431
f 382 431 383
f 382 429 432
f 382 432 430
f 383 431 433
f 383 433 434
f 383 434 435
f 383 435 436
f 383 436 384
f 384 436 435
f 384 435 395
f 384 395 394
f 384 394 385
f 387 391 437
f 387 437 438
f 387 438 439
f 387 439 440
f 387 440 388
f 388 440 441
f 388 441 442
f 388 442 389
f 389 442 443
f 389 443 404
f 390 393 391
f 391 438 437
f 391 393 392
f 391 392 395
f 391 395 435
f 391 435 444
f 391 444 438
f 396 400 397
f 398 445 446
f 398 446 447
f 398 447 399
f 398 401 448
f 398 448 445
f 399 447 400
f 401 449 450
f 401 450 448
f 402 403 449
f 403 451 449
f 403 404 451
f 404 452 451
f 404 443 452
f 405 410 453
f 405 453 454
f 405 454 406
f 406 454 455
f 406 455 407
f 407 455 456
f 408 415 416
f 408 416 457
f 408 457 458
f 408 458 459
f 408 459 460
f 408 460 461
f 408 461 409
f 409 462 410
f 409 461 463
f 409 463 464
f 409 464 462
f 410 462 453
f 411 465 412
f 412 465 466
f 412 466 467
f 412 467 413
f 413 467 468
f 413 468 416
f 413 416 414
f 416 468 469
f 416 469 457
f 417 425 470
f 417 470 418
f 418 470 471
f 418 471 420
f 419 422 426
f 420 471 421
f 421 471 422
f 422 471 472
f 422 472 426
f 423 473 424
f 424 473 474
f 424 474 425
f 425 474 470
f 426 472 475
f 426 475 427
f 427 475 476
f 427 476 428
f 428 476 429
f 429 476 432
f 430 432 476
f 430 476 477
f 430 477 478
f 430 478 433
f 430 433 431
f 433 478 434
f 434 478 479
f 434 479 480
f 434 480 438
f 434 438 435
f 435 438 444
f 438 480 481
f 438 481 439
f 439 481 482
f 439 482 440
f 440 482 483
f 440 483 484
f 440 484 441
f 441 485 452
f 441 452 443
f 441 443 442
f 441 484 485
f 445 448 486
f 445 486 487
f 445 487 446
f 446 487 447
f 447 487 488
f 448 450 486
f 449 451 489
f 449 489 450
f 450 490 486
f 450 489 490
f 451 452 485
f 451 485 489
f 453 472 491
f 453 491 492
f 453 492 454
f 453 462 472
f 454 492 455
f 455 493 494
f 455 494 456
f 455 492 493
f 456 494 495
f 457 469 458
f 458 469 459
f 459 496 460
f 459 469 496
f 460 496 464
f 460 464 497
f 460 497 461
f 461 497 463
f 462 464 498
f 462 498 499
f 462 499 476
f 462 476 472
f 463 497 464
f 464 500 498
f 464 496 501
f 464 501 502
f 464 502 500
f 465 503 504
f 465 504 466
f 466 504 505
f 466 505 486
f 466 486 467
f 467 486 506
f 467 506 507
f 467 507 508
f 467 508 509
f 467 509 468
f 468 509 510
f 468 510 469
f 469 510 511
f 469 511 512
f 469 512 513
f 469 513 514
f 469 514 515
f 469 515 496
f 470 493 516
f 470 516 471
f 470 474 517
f 470 517 495
f 470 495 494
f 470 494 493
f 471 516 492
f 471 492 491
f 471 491 472
f 472 476 475
f 476 499 500
f 476 500 477
f 477 518 519
f 477 519 520
f 477 520 478
f 477 500 518
f 478 520 521
f 478 521 482
f 478 482 480
f 478 480 479
f 480 482 481
f 482 521 522
f 482 522 523
f 482 523 483
f 483 523 484
f 484 524 525
f 484 525 485
f 484 523 524
f 485 526 527
f 485 527 490
f 485 490 489
f 485 525 526
f 486 490 507
f 486 507 506
f 486 505 487
f 487 505 488
f 488 505 528
f 490 527 529
f 490 529 508
f 490 508 507
f 492 516 493
f 496 530 501
f 496 515 530
f 498 500 499
f 500 502 518
f 501 530 502
f 502 519 518
f 502 530 531
f 502 531 532
f 502 532 520
f 502 520 519
f 503 533 504
f 504 533 505
f 505 533 528
f 508 529 510
f 508 510 509
f 510 529 511
f 511 529 534
f 511 534 524
f 511 524 512
f 512 524 513
f 513 524 523
f 513 523 522
f 513 522 531
f 513 531 530
f 513 530 515
f 513 515 514
f 520 532 521
f 521 532 531
f 521 531 522
f 524 534 529
f 524 529 527
f 524 527 526
f 524 526 525

