# https://github.com/mikedh/trimesh
v 0.00764308 -0.06451720 0.05752023
v 0.00764009 -0.06334172 0.05752023
v 0.00764308 -0.06804589 0.05752023
v 0.00764308 -0.06018843 0.02506009
v 0.00733019 -0.06205979 0.05752023
v 0.00750984 -0.06922249 0.05752023
v 0.00759218 -0.06922249 0.05644567
v 0.00763110 -0.06922249 0.05526895
v 0.00764009 -0.06922249 0.05409222
v 0.00764308 -0.06922249 0.05291550
v 0.00764308 -0.06018843 0.02270665
v 0.00760266 -0.06018843 0.02623681
v 0.00732121 -0.06204410 0.05752023
v 0.00721492 -0.07001473 0.05752023
v 0.00729726 -0.07016937 0.05644567
v 0.00733618 -0.07031953 0.05526895
v 0.00743050 -0.07039909 0.05291550
v 0.00745295 -0.07039909 0.05173878
v 0.00746044 -0.07039909 0.05056206
v 0.00764308 -0.06922249 0.03997155
v 0.00764308 -0.06098852 0.02350500
v 0.00763410 -0.06216512 0.02350500
v 0.00763859 -0.06018843 0.02232828
v 0.00736013 -0.06018843 0.02755353
v 0.00656369 -0.06132133 0.05752023
v 0.00658015 -0.06132806 0.05752023
v 0.00702628 -0.06159475 0.05708511
v 0.00714455 -0.07006740 0.05752023
v 0.00704724 -0.07098291 0.05465599
v 0.00709814 -0.07102997 0.05387277
v 0.00731522 -0.07051451 0.05419439
v 0.00713707 -0.07106919 0.05291550
v 0.00715952 -0.07109496 0.05173878
v 0.00716701 -0.07110281 0.05056206
v 0.00746044 -0.07039909 0.04232500
v 0.00764158 -0.06922249 0.03879861
v 0.00764308 -0.06804589 0.03409551
v 0.00764308 -0.06334172 0.02585845
v 0.00750385 -0.06216512 0.02232828
v 0.00763110 -0.06098852 0.02232828
v 0.00764308 -0.06451720 0.02703517
v 0.00762661 -0.06334172 0.02468173
v 0.00762811 -0.06018843 0.02152992
v 0.00722839 -0.06018843 0.02802271
v 0.00528967 -0.06106584 0.05752023
v 0.00537950 -0.06107929 0.05752023
v 0.00646488 -0.07045512 0.05752023
v 0.00689155 -0.07090783 0.05526895
v 0.00630319 -0.07113082 0.05526895
v 0.00658015 -0.07120142 0.05419439
v 0.00646638 -0.07135494 0.05291550
v 0.00646638 -0.07140872 0.05173878
v 0.00646638 -0.07142666 0.05056206
v 0.00716701 -0.07110281 0.04232500
v 0.00745295 -0.07039909 0.04114828
v 0.00763559 -0.06922249 0.03762567
v 0.00763260 -0.06804589 0.03291878
v 0.00764009 -0.06686929 0.03056534
v 0.00764308 -0.06569380 0.02938862
v 0.00748738 -0.06334172 0.02350500
v 0.00719995 -0.06325432 0.02242665
v 0.00719695 -0.06206315 0.02124236
v 0.00748140 -0.06098852 0.02115156
v 0.00758020 -0.06018843 0.02115156
v 0.00763559 -0.06569380 0.02821189
v 0.00761014 -0.06451720 0.02585845
v 0.00716402 -0.06018843 0.02818162
v 0.00421177 -0.06106024 0.05752023
v 0.00684514 -0.06018843 0.02857513
v 0.00655470 -0.06018843 0.02876431
v 0.00628074 -0.06018843 0.02889674
v 0.00528967 -0.06018843 0.02912376
v 0.00632865 -0.07048425 0.05752023
v 0.00605917 -0.07104118 0.05607865
v 0.00645739 -0.07077784 0.05646081
v 0.00528967 -0.07145915 0.05409222
v 0.00528967 -0.07155888 0.05291550
v 0.00528967 -0.07161603 0.05173878
v 0.00528967 -0.07163508 0.05056206
v 0.00646638 -0.07142666 0.04232500
v 0.00715952 -0.07109385 0.04114828
v 0.00742451 -0.07039909 0.03997155
v 0.00761464 -0.06922249 0.03644895
v 0.00757721 -0.06804589 0.03174206
v 0.00759368 -0.06686929 0.02938862
v 0.00756972 -0.06922249 0.03527223
v 0.00736762 -0.06461918 0.02458335
v 0.00720144 -0.06422361 0.02350500
v 0.00756374 -0.06569380 0.02703517
v 0.00709066 -0.06280497 0.02169262
v 0.00707569 -0.06395692 0.02288448
v 0.00707269 -0.06160260 0.02054238
v 0.00719845 -0.06098852 0.02029266
v 0.00739457 -0.06018843 0.02023212
v -0.00412097 -0.06106024 0.05752023
v 0.00411297 -0.06018843 0.02913133
v 0.00528967 -0.07069156 0.05752023
v 0.00528967 -0.07092352 0.05677863
v 0.00528967 -0.07106919 0.05618838
v 0.00528967 -0.07127426 0.05526895
v -0.00529767 -0.07145915 0.05409222
v -0.00529767 -0.07155888 0.05291550
v -0.00529767 -0.07161603 0.05173878
v -0.00529767 -0.07163508 0.05056206
v 0.00528967 -0.07163508 0.04232500
v 0.00646638 -0.07140760 0.04114828
v 0.00713108 -0.07106359 0.03997155
v 0.00738109 -0.07039909 0.03879861
v 0.00748140 -0.06922249 0.03409551
v 0.00744097 -0.06804589 0.03056534
v 0.00736612 -0.06697910 0.02810595
v 0.00731971 -0.07022764 0.03644895
v 0.00727630 -0.07010662 0.03527223
v 0.00732271 -0.06572630 0.02585466
v 0.00720743 -0.06535652 0.02490874
v 0.00727031 -0.06666646 0.02703517
v 0.00646638 -0.06356360 0.02212774
v 0.00646638 -0.06297530 0.02152236
v 0.00646638 -0.06235786 0.02093589
v 0.00701580 -0.06507861 0.02412553
v 0.00646638 -0.06411044 0.02271421
v 0.00646638 -0.06176956 0.02039104
v 0.00653225 -0.06096499 0.01975160
v 0.00696790 -0.06033411 0.01944134
v 0.00731821 -0.06018843 0.02000132
v -0.00529767 -0.06106584 0.05752023
v -0.00415390 -0.06018843 0.02913133
v -0.00529767 -0.06018843 0.02912376
v -0.00529767 -0.07069156 0.05752023
v -0.00529767 -0.07092352 0.05677863
v -0.00529767 -0.07106919 0.05618838
v -0.00529767 -0.07127426 0.05526895
v -0.00647438 -0.07135494 0.05291550
v -0.00606717 -0.07104118 0.05607865
v -0.00631119 -0.07113082 0.05526895
v -0.00658815 -0.07120142 0.05419439
v -0.00647438 -0.07140872 0.05173878
v -0.00647438 -0.07142666 0.05056206
v -0.00529767 -0.07163508 0.04232500
v 0.00528967 -0.07161491 0.04114828
v 0.00646638 -0.07134261 0.03997155
v 0.00708766 -0.07101989 0.03879861
v 0.00728827 -0.07047193 0.03771270
v 0.00731073 -0.06929196 0.03292635
v 0.00728228 -0.06898381 0.03174206
v 0.00725384 -0.06804141 0.02949834
v 0.00718947 -0.06764696 0.02842756
v 0.00706221 -0.07099411 0.03816674
v 0.00718647 -0.06996655 0.03409551
v 0.00715354 -0.06641657 0.02624438
v 0.00528967 -0.06370927 0.02197261
v 0.00528967 -0.06312097 0.02138236
v 0.00528967 -0.06251138 0.02079211
v 0.00623133 -0.06525230 0.02390985
v 0.00656069 -0.06476373 0.02351257
v 0.00703377 -0.06744414 0.02764434
v 0.00676280 -0.06613980 0.02546116
v 0.00597833 -0.06631572 0.02522279
v 0.00528967 -0.06424939 0.02256287
v 0.00528967 -0.06192308 0.02025482
v 0.00618343 -0.06055822 0.01927107
v 0.00631517 -0.06018843 0.01905162
v 0.00682867 -0.06018843 0.01927485
v 0.00709665 -0.06018843 0.01958890
v -0.00657169 -0.06132133 0.05752023
v -0.00614951 -0.06018843 0.02893836
v -0.00628874 -0.06018843 0.02889674
v -0.00685314 -0.06018843 0.02857513
v -0.00723639 -0.06018843 0.02802271
v -0.00745047 -0.06018843 0.02706544
v -0.00647288 -0.07045512 0.05752023
v -0.00705524 -0.07098291 0.05465599
v -0.00710614 -0.07102997 0.05387277
v -0.00714507 -0.07106919 0.05291550
v -0.00646539 -0.07077784 0.05646081
v -0.00689955 -0.07090783 0.05526895
v -0.00716752 -0.07109496 0.05173878
v -0.00717501 -0.07110281 0.05056206
v -0.00647438 -0.07142666 0.04232500
v -0.00647438 -0.07140760 0.04114828
v -0.00529767 -0.07161491 0.04114828
v 0.00528967 -0.07154656 0.03997155
v 0.00646638 -0.07125073 0.03879861
v 0.00710413 -0.06986234 0.03332364
v 0.00715054 -0.06875409 0.03056534
v 0.00705922 -0.06863979 0.02996373
v 0.00649781 -0.07112074 0.03771270
v 0.00691101 -0.07091343 0.03737974
v -0.00529767 -0.06370927 0.02197261
v -0.00529767 -0.06312097 0.02138236
v -0.00529767 -0.06251138 0.02079211
v 0.00528967 -0.06532514 0.02381905
v 0.00528967 -0.06483769 0.02322879
v 0.00646638 -0.06845377 0.02913889
v 0.00657117 -0.06786772 0.02810595
v 0.00624930 -0.06759654 0.02737570
v 0.00657117 -0.06724468 0.02700490
v 0.00640799 -0.06656785 0.02585466
v 0.00528967 -0.06733096 0.02666059
v 0.00528967 -0.06679421 0.02585845
v 0.00528967 -0.06633253 0.02519630
v 0.00528967 -0.06591232 0.02460983
v -0.00529767 -0.06424939 0.02256287
v -0.00529767 -0.06192308 0.02025482
v 0.00528967 -0.06122497 0.01966457
v 0.00528967 -0.06063666 0.01921053
v 0.00571185 -0.06018843 0.01892676
v -0.00657917 -0.06132358 0.05752023
v -0.00762114 -0.06018843 0.02585845
v -0.00722292 -0.07001473 0.05752023
v -0.00730526 -0.07016937 0.05644567
v -0.00734418 -0.07031953 0.05526895
v -0.00732322 -0.07051451 0.05419439
v -0.00743850 -0.07039909 0.05291550
v -0.00746095 -0.07039909 0.05173878
v -0.00746844 -0.07039909 0.05056206
v -0.00717501 -0.07110281 0.04232500
v -0.00716752 -0.07109385 0.04114828
v -0.00713908 -0.07106359 0.03997155
v -0.00709566 -0.07101989 0.03879861
v -0.00647438 -0.07134261 0.03997155
v -0.00529767 -0.07154656 0.03997155
v 0.00528967 -0.07145018 0.03879861
v 0.00690053 -0.06973011 0.03253663
v 0.00665800 -0.07081594 0.03644895
v 0.00646638 -0.07035203 0.03409551
v 0.00646638 -0.06910931 0.03056534
v 0.00646638 -0.06875521 0.02972915
v 0.00611606 -0.06988587 0.03213178
v 0.00606965 -0.07104678 0.03644895
v -0.00647438 -0.06411044 0.02271421
v -0.00647438 -0.06356360 0.02212774
v -0.00647438 -0.06297530 0.02152236
v -0.00647438 -0.06235786 0.02093589
v -0.00647438 -0.06176956 0.02039104
v -0.00529767 -0.06532514 0.02381905
v -0.00529767 -0.06483769 0.02322879
v 0.00528967 -0.06857816 0.02890809
v 0.00528967 -0.06819829 0.02821189
v 0.00528967 -0.06766601 0.02725084
v -0.00529767 -0.06733096 0.02666059
v -0.00529767 -0.06679421 0.02585845
v -0.00529767 -0.06633253 0.02519630
v -0.00529767 -0.06591232 0.02460983
v -0.00623933 -0.06525230 0.02390985
v -0.00619143 -0.06055822 0.01927107
v -0.00529767 -0.06122497 0.01966457
v -0.00529767 -0.06063666 0.01921053
v 0.00528967 -0.06018843 0.01887378
v -0.00708818 -0.06154096 0.05752023
v -0.00765108 -0.06018843 0.02468173
v -0.00733819 -0.06205979 0.05752023
v -0.00749239 -0.06930205 0.05752023
v -0.00760018 -0.06922249 0.05644567
v -0.00751784 -0.06922249 0.05752023
v -0.00763910 -0.06922249 0.05526895
v -0.00764809 -0.06922249 0.05409222
v -0.00765108 -0.06922249 0.05291550
v -0.00746844 -0.07039909 0.04232500
v -0.00746095 -0.07039909 0.04114828
v -0.00743251 -0.07039909 0.03997155
v -0.00738909 -0.07039909 0.03879861
v -0.00729627 -0.07047193 0.03771270
v -0.00707021 -0.07099411 0.03816674
v -0.00647438 -0.07125073 0.03879861
v -0.00529767 -0.07145018 0.03879861
v 0.00528967 -0.07131011 0.03762567
v 0.00649183 -0.07000801 0.03292635
v 0.00635260 -0.07070613 0.03538574
v 0.00588401 -0.07098851 0.03585113
v 0.00528967 -0.06934463 0.03056534
v 0.00528967 -0.06886839 0.02949834
v 0.00528967 -0.07058174 0.03409551
v 0.00528967 -0.07022652 0.03291878
v 0.00528967 -0.06992397 0.03202962
v 0.00528967 -0.06969873 0.03144315
v -0.00708369 -0.06395692 0.02288448
v -0.00656869 -0.06476373 0.02351257
v -0.00702380 -0.06507861 0.02412553
v -0.00709866 -0.06280497 0.02169262
v -0.00708069 -0.06160260 0.02054238
v -0.00654025 -0.06096499 0.01975160
v -0.00598633 -0.06631572 0.02522279
v -0.00529767 -0.06857816 0.02890809
v -0.00529767 -0.06819829 0.02821189
v -0.00529767 -0.06766601 0.02725084
v -0.00625730 -0.06759654 0.02737570
v -0.00697590 -0.06033411 0.01944134
v -0.00632317 -0.06018843 0.01905162
v -0.00529767 -0.06018843 0.01887378
v -0.00765108 -0.06451720 0.05752023
v -0.00764809 -0.06334172 0.05752023
v -0.00765108 -0.06018843 0.02350500
v -0.00764659 -0.06814450 0.05752023
v -0.00765108 -0.06804589 0.05752023
v -0.00765108 -0.06922249 0.03997155
v -0.00764958 -0.06922249 0.03879861
v -0.00764359 -0.06922249 0.03762567
v -0.00762264 -0.06922249 0.03644895
v -0.00757772 -0.06922249 0.03527223
v -0.00732921 -0.07022764 0.03644895
v -0.00728430 -0.07010662 0.03527223
v -0.00719447 -0.06996655 0.03409551
v -0.00711213 -0.06986234 0.03332364
v -0.00691901 -0.07091343 0.03737974
v -0.00650581 -0.07112074 0.03771270
v -0.00607765 -0.07104678 0.03644895
v -0.00529767 -0.07131011 0.03762567
v 0.00528967 -0.07110505 0.03644895
v 0.00528967 -0.07098963 0.03584735
v 0.00528967 -0.07086749 0.03526088
v -0.00529767 -0.06934463 0.03056534
v -0.00529767 -0.06886839 0.02949834
v -0.00529767 -0.07058174 0.03409551
v -0.00529767 -0.07022652 0.03291878
v -0.00529767 -0.06992397 0.03202962
v -0.00529767 -0.06969873 0.03144315
v -0.00720795 -0.06325432 0.02242665
v -0.00721543 -0.06535652 0.02490874
v -0.00720944 -0.06422361 0.02350500
v -0.00677080 -0.06613867 0.02546116
v -0.00704177 -0.06744414 0.02764434
v -0.00716154 -0.06641657 0.02624438
v -0.00720495 -0.06206315 0.02124236
v -0.00720645 -0.06098852 0.02029266
v -0.00701782 -0.06018843 0.01938836
v -0.00641599 -0.06656785 0.02585466
v -0.00647438 -0.06875521 0.02972915
v -0.00647438 -0.06845377 0.02913889
v -0.00657917 -0.06786772 0.02810595
v -0.00657917 -0.06724468 0.02700490
v -0.00683667 -0.06018843 0.01927485
v -0.00764659 -0.06018843 0.02232828
v -0.00765108 -0.06098852 0.02350500
v -0.00765108 -0.06804589 0.03409551
v -0.00764060 -0.06804589 0.03291878
v -0.00758521 -0.06804589 0.03174206
v -0.00748940 -0.06922249 0.03409551
v -0.00731873 -0.06929196 0.03292635
v -0.00729178 -0.06898381 0.03174206
v -0.00690853 -0.06973123 0.03253663
v -0.00647438 -0.07035203 0.03409551
v -0.00666600 -0.07081594 0.03644895
v -0.00715854 -0.06875409 0.03056534
v -0.00706722 -0.06863979 0.02996373
v -0.00636060 -0.07070613 0.03538574
v -0.00589201 -0.07098851 0.03585113
v -0.00529767 -0.07110505 0.03644895
v -0.00529767 -0.07098963 0.03584735
v -0.00529767 -0.07086749 0.03526088
v -0.00612406 -0.06988587 0.03213178
v -0.00749538 -0.06334172 0.02350500
v -0.00751185 -0.06216512 0.02232828
v -0.00733220 -0.06572630 0.02585466
v -0.00737711 -0.06461918 0.02458335
v -0.00719747 -0.06764696 0.02842756
v -0.00727831 -0.06666646 0.02703517
v -0.00749089 -0.06098852 0.02115156
v -0.00732621 -0.06018843 0.02000132
v -0.00647438 -0.06910931 0.03056534
v -0.00763910 -0.06098852 0.02232828
v -0.00764210 -0.06216512 0.02350500
v -0.00758820 -0.06018843 0.02115156
v -0.00765108 -0.06334172 0.02585845
v -0.00765108 -0.06569380 0.02938862
v -0.00764809 -0.06686929 0.03056534
v -0.00760168 -0.06686929 0.02938862
v -0.00744897 -0.06804589 0.03056534
v -0.00726184 -0.06804141 0.02949834
v -0.00649983 -0.07000801 0.03292635
v -0.00757174 -0.06569380 0.02703517
v -0.00761814 -0.06451720 0.02585845
v -0.00763461 -0.06334172 0.02468173
v -0.00737412 -0.06697910 0.02810595
v -0.00764509 -0.06569380 0.02821189
v -0.00765108 -0.06451720 0.02703517
f 1 2 5
f 1 5 13
f 1 13 26
f 1 26 25
f 1 25 46
f 1 46 45
f 1 45 68
f 1 68 95
f 1 95 126
f 1 126 165
f 1 165 208
f 1 208 250
f 1 250 252
f 1 252 292
f 1 292 291
f 1 291 295
f 1 295 294
f 1 294 255
f 1 255 253
f 1 253 210
f 1 210 171
f 1 171 129
f 1 129 97
f 1 97 73
f 1 73 47
f 1 47 28
f 1 28 14
f 1 14 6
f 1 6 3
f 1 3 10
f 1 10 20
f 1 20 37
f 1 37 59
f 1 59 41
f 1 41 38
f 1 38 21
f 1 21 11
f 1 11 4
f 1 4 2
f 2 4 5
f 3 6 7
f 3 7 8
f 3 8 9
f 3 9 10
f 4 11 23
f 4 23 43
f 4 43 64
f 4 64 94
f 4 94 125
f 4 125 164
f 4 164 163
f 4 163 162
f 4 162 207
f 4 207 249
f 4 249 290
f 4 290 289
f 4 289 332
f 4 332 326
f 4 326 359
f 4 359 363
f 4 363 333
f 4 333 293
f 4 293 251
f 4 251 209
f 4 209 170
f 4 170 169
f 4 169 168
f 4 168 167
f 4 167 166
f 4 166 128
f 4 128 127
f 4 127 96
f 4 96 72
f 4 72 71
f 4 71 70
f 4 70 69
f 4 69 67
f 4 67 44
f 4 44 24
f 4 24 12
f 4 12 5
f 5 12 13
f 6 14 15
f 6 15 7
f 7 15 16
f 7 16 17
f 7 17 8
f 8 17 18
f 8 18 9
f 9 18 19
f 9 19 10
f 10 19 35
f 10 35 20
f 11 21 22
f 11 22 23
f 12 24 25
f 12 25 26
f 12 26 27
f 12 27 13
f 13 27 26
f 14 28 29
f 14 29 15
f 15 29 16
f 16 29 30
f 16 30 31
f 16 31 17
f 17 32 33
f 17 33 18
f 17 31 32
f 18 33 34
f 18 34 19
f 19 34 54
f 19 54 35
f 20 35 36
f 20 36 37
f 21 38 22
f 22 39 40
f 22 40 23
f 22 38 41
f 22 41 65
f 22 65 42
f 22 42 39
f 23 40 43
f 24 44 45
f 24 45 46
f 24 46 25
f 28 47 48
f 28 48 29
f 29 48 49
f 29 49 50
f 29 50 51
f 29 51 30
f 30 51 32
f 30 32 31
f 32 51 52
f 32 52 33
f 33 52 53
f 33 53 34
f 34 53 80
f 34 80 54
f 35 54 55
f 35 55 56
f 35 56 36
f 36 56 37
f 37 56 57
f 37 57 58
f 37 58 59
f 39 43 40
f 39 42 60
f 39 60 61
f 39 61 62
f 39 62 63
f 39 63 64
f 39 64 43
f 41 59 58
f 41 58 65
f 42 65 66
f 42 66 60
f 44 67 45
f 45 67 69
f 45 69 70
f 45 70 71
f 45 71 72
f 45 72 68
f 47 73 74
f 47 74 75
f 47 75 48
f 48 75 74
f 48 74 49
f 49 74 76
f 49 76 50
f 50 76 51
f 51 76 77
f 51 77 78
f 51 78 52
f 52 78 79
f 52 79 53
f 53 79 105
f 53 105 80
f 54 80 81
f 54 81 55
f 55 81 82
f 55 82 83
f 55 83 56
f 56 83 57
f 57 84 85
f 57 85 58
f 57 83 86
f 57 86 84
f 58 85 65
f 60 87 88
f 60 88 61
f 60 66 89
f 60 89 87
f 61 90 62
f 61 88 91
f 61 91 90
f 62 92 93
f 62 93 63
f 62 90 92
f 63 93 94
f 63 94 64
f 65 85 66
f 66 85 89
f 68 72 96
f 68 96 127
f 68 127 95
f 73 97 74
f 74 97 98
f 74 98 99
f 74 99 100
f 74 100 76
f 76 101 102
f 76 102 77
f 76 100 132
f 76 132 101
f 77 102 103
f 77 103 78
f 78 103 104
f 78 104 79
f 79 104 139
f 79 139 105
f 80 105 106
f 80 106 81
f 81 106 107
f 81 107 82
f 82 107 108
f 82 108 83
f 83 108 86
f 84 86 109
f 84 109 110
f 84 110 85
f 85 111 89
f 85 110 111
f 86 108 112
f 86 112 113
f 86 113 109
f 87 89 114
f 87 114 115
f 87 115 88
f 88 115 91
f 89 116 114
f 89 111 116
f 90 91 117
f 90 117 118
f 90 118 119
f 90 119 92
f 91 115 120
f 91 120 121
f 91 121 117
f 92 119 122
f 92 122 123
f 92 123 124
f 92 124 93
f 93 125 94
f 93 124 125
f 95 127 128
f 95 128 126
f 97 129 130
f 97 130 98
f 98 130 131
f 98 131 99
f 99 131 132
f 99 132 100
f 101 133 102
f 101 132 134
f 101 134 135
f 101 135 136
f 101 136 133
f 102 133 103
f 103 133 137
f 103 137 104
f 104 137 138
f 104 138 179
f 104 179 139
f 105 139 181
f 105 181 140
f 105 140 106
f 106 140 141
f 106 141 142
f 106 142 107
f 107 142 143
f 107 143 108
f 108 143 112
f 109 113 144
f 109 144 145
f 109 145 110
f 110 145 146
f 110 146 111
f 111 146 147
f 111 147 116
f 112 143 148
f 112 148 113
f 113 149 144
f 113 148 149
f 114 116 150
f 114 150 115
f 115 150 120
f 116 147 150
f 117 121 151
f 117 151 118
f 118 151 152
f 118 152 153
f 118 153 119
f 119 153 122
f 120 154 155
f 120 155 121
f 120 150 156
f 120 156 157
f 120 157 158
f 120 158 154
f 121 159 151
f 121 155 154
f 121 154 159
f 122 153 160
f 122 160 161
f 122 161 123
f 123 161 124
f 124 161 162
f 124 162 163
f 124 163 164
f 124 164 125
f 126 128 166
f 126 166 167
f 126 167 168
f 126 168 169
f 126 169 170
f 126 170 165
f 129 171 134
f 129 134 130
f 130 134 131
f 131 134 132
f 133 136 172
f 133 172 173
f 133 173 174
f 133 174 137
f 134 171 175
f 134 175 176
f 134 176 135
f 135 176 172
f 135 172 136
f 137 174 177
f 137 177 138
f 138 177 178
f 138 178 217
f 138 217 179
f 139 179 180
f 139 180 181
f 140 181 222
f 140 222 182
f 140 182 141
f 141 182 183
f 141 183 148
f 141 148 142
f 142 148 143
f 144 149 145
f 145 149 184
f 145 184 185
f 145 185 146
f 146 185 186
f 146 186 147
f 147 156 150
f 147 186 156
f 148 187 188
f 148 188 184
f 148 184 149
f 148 183 187
f 151 189 190
f 151 190 152
f 151 159 203
f 151 203 189
f 152 190 191
f 152 191 153
f 153 191 204
f 153 204 160
f 154 192 193
f 154 193 159
f 154 158 192
f 156 186 194
f 156 194 195
f 156 195 196
f 156 196 197
f 156 197 198
f 156 198 157
f 157 198 158
f 158 198 196
f 158 196 199
f 158 199 200
f 158 200 201
f 158 201 202
f 158 202 192
f 159 193 237
f 159 237 203
f 160 204 247
f 160 247 205
f 160 205 161
f 161 206 207
f 161 207 162
f 161 205 206
f 165 170 208
f 170 209 208
f 171 210 176
f 171 176 175
f 172 176 210
f 172 210 211
f 172 211 212
f 172 212 173
f 173 212 213
f 173 213 174
f 174 213 214
f 174 214 177
f 177 214 215
f 177 215 178
f 178 215 216
f 178 216 259
f 178 259 217
f 179 217 218
f 179 218 180
f 180 218 219
f 180 219 220
f 180 220 221
f 180 221 181
f 181 221 222
f 182 222 266
f 182 266 223
f 182 223 183
f 183 223 187
f 184 224 186
f 184 186 185
f 184 188 225
f 184 225 226
f 184 226 224
f 186 227 228
f 186 228 194
f 186 224 229
f 186 229 227
f 187 223 230
f 187 230 188
f 188 230 225
f 189 203 231
f 189 231 232
f 189 232 233
f 189 233 190
f 190 233 191
f 191 233 234
f 191 234 235
f 191 235 204
f 192 236 237
f 192 237 193
f 192 202 244
f 192 244 236
f 194 238 196
f 194 196 195
f 194 228 238
f 196 238 239
f 196 239 240
f 196 240 199
f 196 198 197
f 199 240 286
f 199 286 241
f 199 241 242
f 199 242 200
f 200 242 243
f 200 243 201
f 201 243 244
f 201 244 202
f 203 237 245
f 203 245 231
f 204 235 246
f 204 246 247
f 205 247 248
f 205 248 206
f 206 248 290
f 206 290 249
f 206 249 207
f 208 209 250
f 209 251 252
f 209 252 250
f 210 253 211
f 211 254 212
f 211 253 255
f 211 255 254
f 212 254 214
f 212 214 213
f 214 254 256
f 214 256 215
f 215 256 257
f 215 257 216
f 216 257 258
f 216 258 296
f 216 296 259
f 217 259 260
f 217 260 218
f 218 260 261
f 218 261 219
f 219 261 262
f 219 262 263
f 219 263 220
f 220 263 264
f 220 264 221
f 221 264 265
f 221 265 222
f 222 265 266
f 223 266 308
f 223 308 267
f 223 267 230
f 224 226 268
f 224 268 229
f 225 230 269
f 225 269 226
f 226 269 270
f 226 270 229
f 226 229 268
f 227 229 228
f 228 229 271
f 228 271 272
f 228 272 238
f 229 270 273
f 229 273 274
f 229 274 275
f 229 275 276
f 229 276 271
f 230 267 270
f 230 270 269
f 231 277 232
f 231 245 278
f 231 278 279
f 231 279 277
f 232 277 280
f 232 280 233
f 233 280 234
f 234 281 235
f 234 280 281
f 235 282 246
f 235 281 282
f 236 244 283
f 236 283 245
f 236 245 237
f 238 284 285
f 238 285 239
f 238 272 313
f 238 313 284
f 239 285 286
f 239 286 240
f 241 283 242
f 241 286 287
f 241 287 283
f 242 283 243
f 243 283 244
f 245 279 278
f 245 283 279
f 246 248 247
f 246 282 288
f 246 288 289
f 246 289 290
f 246 290 248
f 251 291 292
f 251 292 252
f 251 293 334
f 251 334 364
f 251 364 376
f 251 376 365
f 251 365 335
f 251 335 296
f 251 296 258
f 251 258 295
f 251 295 291
f 254 255 294
f 254 294 256
f 256 294 295
f 256 295 257
f 257 295 258
f 259 296 297
f 259 297 298
f 259 298 260
f 260 298 299
f 260 299 261
f 261 299 262
f 262 299 300
f 262 300 301
f 262 301 263
f 263 301 264
f 264 301 302
f 264 302 303
f 264 303 304
f 264 304 305
f 264 305 306
f 264 306 265
f 265 306 266
f 266 306 307
f 266 307 308
f 267 308 348
f 267 348 309
f 267 309 270
f 270 310 311
f 270 311 273
f 270 309 310
f 271 276 317
f 271 317 312
f 271 312 313
f 271 313 272
f 273 314 315
f 273 315 274
f 273 311 350
f 273 350 314
f 274 315 316
f 274 316 275
f 275 316 317
f 275 317 276
f 277 318 280
f 277 279 319
f 277 319 320
f 277 320 318
f 279 283 321
f 279 321 322
f 279 322 323
f 279 323 319
f 280 318 324
f 280 324 281
f 281 324 325
f 281 325 326
f 281 326 288
f 281 288 282
f 283 287 327
f 283 327 321
f 284 287 285
f 284 313 328
f 284 328 329
f 284 329 287
f 285 287 286
f 287 329 330
f 287 330 322
f 287 322 331
f 287 331 327
f 288 326 332
f 288 332 289
f 293 333 334
f 296 335 297
f 297 335 298
f 298 335 336
f 298 336 299
f 299 336 300
f 300 302 301
f 300 336 337
f 300 337 338
f 300 338 302
f 302 338 339
f 302 339 303
f 303 339 340
f 303 340 304
f 304 341 342
f 304 342 343
f 304 343 305
f 304 340 344
f 304 344 345
f 304 345 341
f 305 343 307
f 305 307 306
f 307 343 346
f 307 346 347
f 307 347 308
f 308 347 348
f 309 348 349
f 309 349 310
f 310 349 350
f 310 350 311
f 312 317 351
f 312 351 328
f 312 328 313
f 314 351 315
f 314 350 347
f 314 347 351
f 315 351 316
f 316 351 317
f 318 320 352
f 318 352 353
f 318 353 324
f 319 323 354
f 319 354 355
f 319 355 320
f 320 355 352
f 321 327 322
f 322 356 323
f 322 327 331
f 322 330 329
f 322 329 345
f 322 345 356
f 323 356 357
f 323 357 354
f 324 358 325
f 324 353 358
f 325 358 359
f 325 359 326
f 328 351 360
f 328 360 345
f 328 345 329
f 333 361 362
f 333 362 334
f 333 363 361
f 334 362 364
f 335 365 366
f 335 366 336
f 336 366 367
f 336 367 337
f 337 368 340
f 337 340 338
f 337 367 368
f 338 340 339
f 340 368 369
f 340 369 344
f 341 351 370
f 341 370 342
f 341 345 351
f 342 370 351
f 342 351 347
f 342 347 346
f 342 346 343
f 344 369 345
f 345 360 351
f 345 369 356
f 347 350 349
f 347 349 348
f 352 355 371
f 352 371 372
f 352 372 373
f 352 373 353
f 353 373 362
f 353 362 361
f 353 361 363
f 353 363 358
f 354 357 371
f 354 371 355
f 356 374 357
f 356 369 374
f 357 374 371
f 358 363 359
f 362 373 375
f 362 375 376
f 362 376 364
f 365 376 366
f 366 376 375
f 366 375 367
f 367 375 372
f 367 372 371
f 367 371 374
f 367 374 368
f 368 374 369
f 372 375 373

