# https://github.com/mikedh/trimesh
v -0.01705477 0.05888124 0.07461391
v -0.01762159 0.05892701 0.07461391
v -0.01705477 0.05608750 0.07461391
v -0.01705477 0.05867504 0.04600780
v -0.01762159 0.05873288 0.04600780
v -0.01879034 0.05897428 0.07461391
v -0.01823523 0.05877060 0.04600780
v -0.03413458 0.05392492 0.07461391
v -0.01705477 0.05602715 0.07110746
v -0.01705477 0.05571835 0.04600780
v -0.01995909 0.05897428 0.07461391
v -0.01879034 0.05879273 0.04600780
v -0.01995909 0.05887018 0.05123666
v -0.03413458 0.05692286 0.07461391
v -0.03413458 0.05384094 0.06760102
v -0.01705477 0.05572087 0.04621505
v -0.03413458 0.05383692 0.05006878
v -0.03413458 0.05384144 0.04889810
v -0.03413458 0.05391738 0.04600780
v -0.03413458 0.05383993 0.06738256
v -0.02112784 0.05897378 0.07461391
v -0.01940398 0.05880932 0.04600780
v -0.01995909 0.05886213 0.05006878
v -0.02112784 0.05882642 0.04600780
v -0.02112784 0.05885811 0.05123666
v -0.03395734 0.05698321 0.07461391
v -0.03413458 0.05672269 0.04600780
v -0.02229827 0.05893707 0.07461391
v -0.02229659 0.05882994 0.05123666
v -0.01995909 0.05882089 0.04600780
v -0.02057273 0.05882542 0.04600780
v -0.02174315 0.05880832 0.04600780
v -0.03291399 0.05732670 0.07461391
v -0.03323503 0.05702344 0.04600780
v -0.03398577 0.05677299 0.04600780
v -0.02346702 0.05889180 0.07461391
v -0.02229659 0.05879424 0.04656234
v -0.02346702 0.05873288 0.04773022
v -0.02580284 0.05878016 0.07461391
v -0.02463577 0.05884503 0.07461391
v -0.02229659 0.05878619 0.04600780
v -0.03164827 0.05765159 0.07461391
v -0.03164827 0.05745042 0.04600780
v -0.03216492 0.05731715 0.04600780
v -0.03265149 0.05719041 0.04600780
v -0.03292904 0.05711296 0.04600780
v -0.02291190 0.05874747 0.04600780
v -0.02346702 0.05872031 0.04656234
v -0.02463577 0.05862274 0.04600780
v -0.02697159 0.05863984 0.07461391
v -0.02580284 0.05851813 0.04600780
v -0.02959836 0.05816558 0.07461391
v -0.03047952 0.05773206 0.04600780
v -0.02346702 0.05870974 0.04600780
v -0.02814034 0.05845476 0.07461391
v -0.02641648 0.05844420 0.04600780
v -0.02769893 0.05827321 0.04773022
v -0.02901314 0.05830590 0.07461391
v -0.02930909 0.05797799 0.04656234
v -0.02930909 0.05796793 0.04600780
v -0.02740298 0.05829483 0.04600780
f 1 2 6
f 1 6 11
f 1 11 21
f 1 21 28
f 1 28 36
f 1 36 40
f 1 40 39
f 1 39 50
f 1 50 55
f 1 55 58
f 1 58 52
f 1 52 42
f 1 42 33
f 1 33 26
f 1 26 14
f 1 14 8
f 1 8 3
f 1 3 9
f 1 9 16
f 1 16 10
f 1 10 4
f 1 4 5
f 1 5 2
f 2 5 7
f 2 7 6
f 3 8 9
f 4 10 19
f 4 19 27
f 4 27 35
f 4 35 34
f 4 34 46
f 4 46 45
f 4 45 44
f 4 44 43
f 4 43 53
f 4 53 60
f 4 60 61
f 4 61 56
f 4 56 51
f 4 51 49
f 4 49 54
f 4 54 47
f 4 47 41
f 4 41 32
f 4 32 24
f 4 24 31
f 4 31 30
f 4 30 22
f 4 22 12
f 4 12 7
f 4 7 5
f 6 7 12
f 6 12 13
f 6 13 11
f 8 14 27
f 8 27 19
f 8 19 18
f 8 18 17
f 8 17 20
f 8 20 15
f 8 15 10
f 8 10 16
f 8 16 9
f 10 17 18
f 10 18 19
f 10 15 20
f 10 20 17
f 11 13 21
f 12 22 23
f 12 23 13
f 13 23 24
f 13 24 25
f 13 25 21
f 14 26 27
f 21 25 29
f 21 29 28
f 22 30 23
f 23 30 31
f 23 31 24
f 24 32 29
f 24 29 25
f 26 33 34
f 26 34 35
f 26 35 27
f 28 29 36
f 29 32 37
f 29 37 38
f 29 38 39
f 29 39 40
f 29 40 36
f 32 41 37
f 33 42 43
f 33 43 44
f 33 44 45
f 33 45 46
f 33 46 34
f 37 41 47
f 37 47 48
f 37 48 38
f 38 48 49
f 38 49 39
f 39 49 51
f 39 51 50
f 42 52 43
f 43 52 53
f 47 54 48
f 48 54 49
f 50 51 56
f 50 56 57
f 50 57 55
f 52 58 53
f 53 59 60
f 53 58 59
f 55 57 58
f 56 61 57
f 57 61 59
f 57 59 58
f 59 61 60

