# https://github.com/mikedh/trimesh
v 0.00445624 0.04694199 0.07462607
v 0.00445624 0.04707979 0.07694769
v 0.00445624 0.05039028 0.07462607
v 0.01796890 0.02318122 0.07462607
v 0.01796270 0.02317466 0.07487066
v 0.01796270 0.02317466 0.07578557
v 0.00445624 0.04738492 0.07807187
v 0.01801232 0.02317466 0.07645263
v 0.00816106 0.04719790 0.07462607
v 0.00445624 0.05574155 0.07763829
v 0.00613499 0.05458336 0.07760951
v 0.00750155 0.05354330 0.07754281
v 0.01081976 0.05105304 0.07761867
v 0.01867389 0.02317466 0.07462607
v 0.00445624 0.04745382 0.07822556
v 0.01803299 0.02317466 0.07652718
v 0.01479748 0.04678450 0.07744275
v 0.00929814 0.04600363 0.07462607
v 0.00445624 0.05621728 0.07808430
v 0.00544240 0.05606308 0.07849369
v 0.00479323 0.05561687 0.07771480
v 0.00578766 0.05532814 0.07805095
v 0.00669939 0.05503614 0.07838840
v 0.01012718 0.05257541 0.07848257
v 0.01047243 0.05182735 0.07805029
v 0.01132008 0.05152878 0.07839755
v 0.01557483 0.04635798 0.07763371
v 0.02049529 0.02317466 0.07462607
v 0.00445624 0.04816907 0.07910777
v 0.01817358 0.02317466 0.07703336
v 0.01855192 0.02317466 0.07812288
v 0.01259361 0.04233879 0.07462607
v 0.01142552 0.04368727 0.07462607
v 0.01138417 0.04373320 0.07462607
v 0.01042282 0.04478639 0.07462607
v 0.00445624 0.05624353 0.07811046
v 0.00445624 0.05626322 0.07815885
v 0.00445624 0.05669302 0.07929219
v 0.00549822 0.05609261 0.07929219
v 0.00608330 0.05572842 0.07929219
v 0.00878956 0.05363844 0.07858132
v 0.01075154 0.05219482 0.07929219
v 0.01139451 0.05160752 0.07929219
v 0.01587667 0.04673201 0.07841260
v 0.01691865 0.04547211 0.07861140
v 0.01809915 0.04198445 0.07749965
v 0.01487397 0.03903158 0.07462607
v 0.01419999 0.04006508 0.07462607
v 0.01317662 0.04159729 0.07462607
v 0.02538061 0.02317466 0.07823471
v 0.02042086 0.02384726 0.07462607
v 0.02467561 0.02492669 0.07775797
v 0.00445624 0.04834296 0.07929023
v 0.01899848 0.02317466 0.07900509
v 0.00445624 0.05623041 0.08020906
v 0.00459269 0.05620416 0.08017244
v 0.00534110 0.05599418 0.07998737
v 0.00665598 0.05497708 0.08008546
v 0.00999693 0.05248682 0.07997887
v 0.01122084 0.05143363 0.08004884
v 0.01197959 0.05096774 0.07929219
v 0.01587667 0.04673201 0.07909142
v 0.01691865 0.04547211 0.07884618
v 0.02040432 0.03959918 0.07865326
v 0.01940369 0.04099359 0.07840213
v 0.01905843 0.04053426 0.07762325
v 0.01930032 0.03975667 0.07747348
v 0.01548593 0.03797182 0.07462607
v 0.02548811 0.02317466 0.07877555
v 0.02534752 0.02375539 0.07826545
v 0.02041053 0.02393256 0.07462607
v 0.02527517 0.02492669 0.07834196
v 0.02030922 0.02471343 0.07462607
v 0.02029475 0.02481514 0.07462607
v 0.02377629 0.02843405 0.07757354
v 0.00445624 0.04855951 0.07948904
v 0.01921762 0.02317466 0.07929939
v 0.00445624 0.05536423 0.08082446
v 0.00463818 0.05529533 0.08079830
v 0.00574425 0.05534783 0.08028558
v 0.00726587 0.05338909 0.08097487
v 0.01040628 0.05181751 0.08025746
v 0.01048071 0.05068229 0.08087939
v 0.01164260 0.04952411 0.08083558
v 0.01160952 0.05061667 0.08026466
v 0.01485123 0.04713557 0.08013582
v 0.01569267 0.04654499 0.07987096
v 0.01673258 0.04517355 0.07962507
v 0.01930032 0.04083611 0.07999129
v 0.02003219 0.04003883 0.07924968
v 0.02040432 0.03959918 0.07883179
v 0.02286248 0.03403138 0.07929219
v 0.02285215 0.03401826 0.07844202
v 0.02173161 0.03640352 0.07842371
v 0.02254824 0.03343424 0.07766314
v 0.02024720 0.03821461 0.07761867
v 0.01974275 0.04006508 0.07813793
v 0.02047668 0.03743703 0.07747283
v 0.01620539 0.03661678 0.07462607
v 0.01580225 0.03738781 0.07462607
v 0.02557701 0.02317466 0.07929219
v 0.02536820 0.02492669 0.07929219
v 0.02551912 0.02375539 0.07929219
v 0.02363157 0.02960207 0.07768995
v 0.02414015 0.02960207 0.07827395
v 0.02513665 0.02609472 0.07854077
v 0.02005493 0.02608488 0.07462607
v 0.02005286 0.02609472 0.07462607
v 0.02285422 0.03194140 0.07745517
v 0.02276325 0.03265666 0.07750619
v 0.00445624 0.04928132 0.07999521
v 0.01944711 0.02317466 0.07958975
v 0.00445624 0.05509191 0.08094937
v 0.00505786 0.05463586 0.08101869
v 0.00648852 0.05362204 0.08107297
v 0.00772483 0.05260822 0.08110305
v 0.00973643 0.05110226 0.08101607
v 0.01089832 0.04995064 0.08101542
v 0.01205608 0.04872355 0.08100038
v 0.01424961 0.04633173 0.08096310
v 0.01517582 0.04604957 0.08053867
v 0.01595317 0.04576412 0.08011424
v 0.01862841 0.04125279 0.08031501
v 0.01950500 0.04012086 0.08016983
v 0.02050976 0.03862802 0.08004296
v 0.02028648 0.03940561 0.07961068
v 0.02058626 0.03899220 0.07924968
v 0.02177089 0.03647898 0.07929219
v 0.02276945 0.03381812 0.07996121
v 0.02391480 0.03144926 0.07885141
v 0.02391480 0.03144926 0.07863233
v 0.02299067 0.03307006 0.07808037
v 0.01668297 0.03563577 0.07462607
v 0.02524415 0.02317466 0.08010705
v 0.02514285 0.02492669 0.07999979
v 0.02522141 0.02375539 0.08009397
v 0.02506429 0.02567147 0.07989843
v 0.02506222 0.02672795 0.07867745
v 0.02506222 0.02672795 0.07887692
v 0.02501881 0.02644906 0.07965646
v 0.02400370 0.03077010 0.07848192
v 0.01977996 0.02725618 0.07462607
v 0.01820252 0.03201358 0.07462607
v 0.01783245 0.03300772 0.07462607
v 0.01730733 0.03426761 0.07462607
v 0.01730319 0.03427745 0.07462607
v 0.01946158 0.02843405 0.07462607
v 0.01924450 0.02911649 0.07462607
v 0.00445624 0.04950770 0.08011359
v 0.02003219 0.02317466 0.08014105
v 0.00445624 0.05455384 0.08112594
v 0.00576078 0.05382546 0.08111678
v 0.00689787 0.05299209 0.08114294
v 0.00810937 0.05182079 0.08116779
v 0.00895702 0.05144019 0.08110632
v 0.01127666 0.04916976 0.08111286
v 0.01466310 0.04555086 0.08110240
v 0.01548800 0.04479624 0.08092779
v 0.01631910 0.04478967 0.08031566
v 0.01777043 0.04128888 0.08092255
v 0.01799785 0.04061628 0.08104092
v 0.01985439 0.03899220 0.08036079
v 0.02069170 0.03778481 0.08022084
v 0.02165511 0.03625588 0.08002138
v 0.02380316 0.03118678 0.07963030
v 0.02180190 0.03544548 0.08016329
v 0.02214716 0.03423808 0.08028231
v 0.02212649 0.03310943 0.08063350
v 0.02287903 0.03310943 0.08007762
v 0.02396236 0.03040591 0.07997560
v 0.02402851 0.03078650 0.07926146
v 0.02485341 0.02317466 0.08039741
v 0.02446474 0.02492669 0.08052428
v 0.02404298 0.02960207 0.08005800
v 0.02431588 0.02726274 0.08024830
v 0.02456191 0.02607503 0.08025942
v 0.02435103 0.02366024 0.08073552
v 0.00445624 0.05063308 0.08063088
v 0.02095633 0.02317466 0.08063873
v 0.00445624 0.05148285 0.08096506
v 0.00445624 0.05419949 0.08116518
v 0.00463818 0.05420605 0.08115537
v 0.00576078 0.05297897 0.08122338
v 0.00693094 0.05181095 0.08125020
v 0.01160745 0.04713557 0.08130644
v 0.01164260 0.04832328 0.08117891
v 0.01389402 0.04595114 0.08115864
v 0.01394363 0.04479624 0.08128159
v 0.01490499 0.04479624 0.08114164
v 0.02028235 0.03585560 0.08103961
v 0.02007560 0.03661678 0.08096833
v 0.01972001 0.03776840 0.08083819
v 0.02101421 0.03663319 0.08036929
v 0.02336694 0.03078650 0.08030324
v 0.02085295 0.03545860 0.08080418
v 0.02202105 0.03198078 0.08084931
v 0.02276945 0.02801409 0.08107101
v 0.02329458 0.02960207 0.08057856
v 0.02440892 0.02317466 0.08072178
v 0.02388586 0.02320747 0.08104877
v 0.02339795 0.02726274 0.08083296
v 0.02197763 0.02317466 0.08095918
v 0.00445624 0.05206686 0.08111875
v 0.00459269 0.05297897 0.08122207
v 0.00445624 0.05297897 0.08121488
v 0.01277554 0.04479624 0.08128747
v 0.01277554 0.04596426 0.08129924
v 0.02212649 0.02726274 0.08112398
v 0.02142770 0.03240074 0.08104289
v 0.02281287 0.02726274 0.08108147
v 0.02388586 0.02317466 0.08104877
v 0.02328217 0.02317466 0.08107493
v 0.02256271 0.02317466 0.08107362
f 1 2 7
f 1 7 15
f 1 15 29
f 1 29 53
f 1 53 76
f 1 76 111
f 1 111 149
f 1 149 178
f 1 178 180
f 1 180 203
f 1 203 205
f 1 205 181
f 1 181 151
f 1 151 113
f 1 113 78
f 1 78 55
f 1 55 38
f 1 38 37
f 1 37 36
f 1 36 19
f 1 19 10
f 1 10 3
f 1 3 9
f 1 9 18
f 1 18 35
f 1 35 34
f 1 34 33
f 1 33 32
f 1 32 49
f 1 49 48
f 1 48 47
f 1 47 68
f 1 68 100
f 1 100 99
f 1 99 133
f 1 133 146
f 1 146 145
f 1 145 144
f 1 144 143
f 1 143 148
f 1 148 147
f 1 147 142
f 1 142 108
f 1 108 107
f 1 107 74
f 1 74 73
f 1 73 71
f 1 71 51
f 1 51 28
f 1 28 14
f 1 14 4
f 1 4 5
f 1 5 6
f 1 6 2
f 2 6 8
f 2 8 7
f 3 10 11
f 3 11 12
f 3 12 13
f 3 13 9
f 4 14 5
f 5 14 28
f 5 28 50
f 5 50 69
f 5 69 101
f 5 101 134
f 5 134 172
f 5 172 199
f 5 199 211
f 5 211 212
f 5 212 213
f 5 213 202
f 5 202 179
f 5 179 150
f 5 150 112
f 5 112 77
f 5 77 54
f 5 54 31
f 5 31 30
f 5 30 16
f 5 16 8
f 5 8 6
f 7 8 15
f 8 16 15
f 9 13 17
f 9 17 18
f 10 19 20
f 10 20 21
f 10 21 11
f 11 21 22
f 11 22 12
f 12 22 20
f 12 20 23
f 12 23 24
f 12 24 25
f 12 25 13
f 13 25 26
f 13 26 27
f 13 27 17
f 15 16 30
f 15 30 31
f 15 31 29
f 17 27 32
f 17 32 33
f 17 33 34
f 17 34 35
f 17 35 18
f 19 36 20
f 20 22 21
f 20 36 37
f 20 37 38
f 20 38 39
f 20 39 40
f 20 40 41
f 20 41 24
f 20 24 23
f 24 42 26
f 24 26 25
f 24 41 42
f 26 42 43
f 26 43 44
f 26 44 27
f 27 45 46
f 27 46 47
f 27 47 48
f 27 48 49
f 27 49 32
f 27 44 45
f 28 51 52
f 28 52 50
f 29 31 54
f 29 54 53
f 38 55 56
f 38 56 57
f 38 57 39
f 39 57 40
f 40 42 41
f 40 57 58
f 40 58 42
f 42 59 60
f 42 60 43
f 42 58 59
f 43 61 62
f 43 62 44
f 43 60 61
f 44 62 63
f 44 63 45
f 45 63 91
f 45 91 64
f 45 64 65
f 45 65 66
f 45 66 46
f 46 66 67
f 46 67 68
f 46 68 47
f 50 52 70
f 50 70 69
f 51 71 52
f 52 72 70
f 52 71 73
f 52 73 74
f 52 74 75
f 52 75 72
f 53 54 76
f 54 77 76
f 55 78 56
f 56 78 79
f 56 79 80
f 56 80 57
f 57 80 58
f 58 80 81
f 58 81 59
f 59 82 60
f 59 81 82
f 60 62 61
f 60 82 83
f 60 83 84
f 60 84 85
f 60 85 86
f 60 86 87
f 60 87 62
f 62 87 63
f 63 87 88
f 63 88 89
f 63 89 90
f 63 90 91
f 64 92 93
f 64 93 94
f 64 94 95
f 64 95 96
f 64 96 97
f 64 97 65
f 64 91 92
f 65 97 66
f 66 97 96
f 66 96 67
f 67 96 98
f 67 98 99
f 67 99 100
f 67 100 68
f 69 70 72
f 69 72 101
f 72 102 103
f 72 103 101
f 72 75 104
f 72 104 105
f 72 105 106
f 72 106 102
f 74 107 75
f 75 107 108
f 75 108 109
f 75 109 110
f 75 110 104
f 76 77 112
f 76 112 111
f 78 113 114
f 78 114 81
f 78 81 79
f 79 81 80
f 81 114 115
f 81 115 116
f 81 116 117
f 81 117 83
f 81 83 82
f 83 117 118
f 83 118 84
f 84 118 119
f 84 119 120
f 84 120 85
f 85 120 121
f 85 121 86
f 86 121 87
f 87 121 122
f 87 122 89
f 87 89 88
f 89 123 124
f 89 124 125
f 89 125 126
f 89 126 90
f 89 122 123
f 90 126 91
f 91 126 127
f 91 127 128
f 91 128 92
f 92 129 130
f 92 130 131
f 92 131 93
f 92 128 129
f 93 131 132
f 93 132 110
f 93 110 95
f 93 95 94
f 95 110 98
f 95 98 96
f 98 110 133
f 98 133 99
f 101 103 135
f 101 135 136
f 101 136 134
f 102 137 135
f 102 135 103
f 102 106 138
f 102 138 139
f 102 139 140
f 102 140 137
f 104 110 105
f 105 110 141
f 105 141 106
f 106 141 138
f 108 142 110
f 108 110 109
f 110 143 144
f 110 144 145
f 110 145 146
f 110 146 133
f 110 132 131
f 110 131 141
f 110 142 147
f 110 147 148
f 110 148 143
f 111 112 150
f 111 150 149
f 113 151 114
f 114 151 115
f 115 151 152
f 115 152 153
f 115 153 116
f 116 154 155
f 116 155 117
f 116 153 154
f 117 155 156
f 117 156 118
f 118 156 157
f 118 157 119
f 119 157 120
f 120 157 121
f 121 157 158
f 121 158 122
f 122 158 159
f 122 159 123
f 123 160 124
f 123 159 158
f 123 158 160
f 124 160 161
f 124 161 125
f 125 162 163
f 125 163 164
f 125 164 126
f 125 161 162
f 126 164 128
f 126 128 127
f 128 164 129
f 129 165 130
f 129 164 166
f 129 166 167
f 129 167 168
f 129 168 169
f 129 169 170
f 129 170 165
f 130 165 171
f 130 171 139
f 130 139 138
f 130 138 131
f 131 138 141
f 134 136 172
f 135 173 136
f 135 137 170
f 135 170 174
f 135 174 175
f 135 175 176
f 135 176 173
f 136 173 177
f 136 177 172
f 137 140 170
f 139 171 140
f 140 171 170
f 149 150 178
f 150 179 180
f 150 180 178
f 151 181 182
f 151 182 153
f 151 153 152
f 153 182 183
f 153 183 154
f 154 183 184
f 154 184 185
f 154 185 186
f 154 186 156
f 154 156 155
f 156 186 157
f 157 187 188
f 157 188 189
f 157 189 161
f 157 161 158
f 157 186 187
f 158 161 160
f 161 189 188
f 161 188 190
f 161 190 191
f 161 191 192
f 161 192 163
f 161 163 162
f 163 192 191
f 163 191 193
f 163 193 164
f 164 193 166
f 165 170 171
f 166 193 167
f 167 193 168
f 168 194 170
f 168 170 169
f 168 193 195
f 168 195 190
f 168 190 196
f 168 196 197
f 168 197 198
f 168 198 194
f 170 198 174
f 170 194 198
f 172 177 199
f 173 200 177
f 173 176 175
f 173 175 198
f 173 198 201
f 173 201 200
f 174 198 175
f 177 200 199
f 179 202 203
f 179 203 180
f 181 204 183
f 181 183 182
f 181 205 204
f 183 204 184
f 184 204 185
f 185 204 206
f 185 206 207
f 185 207 186
f 186 207 187
f 187 207 188
f 188 207 208
f 188 208 197
f 188 197 190
f 190 197 209
f 190 209 196
f 190 195 191
f 191 195 193
f 196 209 197
f 197 208 210
f 197 210 200
f 197 200 201
f 197 201 198
f 199 200 211
f 200 212 211
f 200 210 208
f 200 208 212
f 202 213 203
f 203 213 205
f 204 205 213
f 204 213 206
f 206 213 208
f 206 208 207
f 208 213 212

