# https://github.com/mikedh/trimesh
v -0.03513919 0.03274967 0.02668523
v -0.02544895 0.03842206 0.02551664
v -0.02544895 0.03839058 0.02668523
v -0.02544895 0.03844174 0.02767345
v -0.02544895 0.03845158 0.02785381
v -0.03513919 0.03286182 0.02785381
v -0.03513919 0.03280673 0.02551664
v -0.02544895 0.03853815 0.02461108
v -0.02544895 0.03845354 0.02787260
v -0.02544895 0.03862472 0.02903367
v -0.03513919 0.03304087 0.02905621
v -0.03513919 0.03302906 0.02428418
v -0.02544895 0.03858340 0.02426539
v -0.02544895 0.03870539 0.02939815
v -0.03513919 0.03305661 0.02915015
v -0.03513919 0.03327500 0.02325462
v -0.02544895 0.03880770 0.02317571
v -0.02544895 0.03891788 0.03019098
v -0.03513919 0.03333600 0.03010456
v -0.03513919 0.03343044 0.02276239
v -0.02544895 0.03913431 0.02199210
v -0.02544895 0.03900839 0.03045401
v -0.02544895 0.03930942 0.03118672
v -0.03513919 0.03366457 0.03076588
v -0.03513919 0.03367244 0.02201089
v -0.02544895 0.03942944 0.02117296
v -0.02544895 0.03940780 0.03136708
v -0.02544895 0.03963603 0.03177289
v -0.03513919 0.03406792 0.03141593
v -0.03513919 0.03419384 0.02086860
v -0.02544895 0.04054110 0.01861410
v -0.02544895 0.04007282 0.01967372
v -0.02544895 0.03966751 0.02060934
v -0.02544895 0.03983082 0.03206973
v -0.03513919 0.03411514 0.03148732
v -0.03513919 0.03475655 0.01967372
v -0.02544895 0.04097789 0.01770854
v -0.02544895 0.04015349 0.03255445
v -0.03513919 0.03414465 0.03152865
v -0.02544895 0.04033844 0.03281372
v -0.03513919 0.03537239 0.01845629
v -0.02544895 0.04113136 0.01739667
v -0.02544895 0.04062373 0.03321202
v -0.03513919 0.03464244 0.03218997
v -0.03513919 0.03538813 0.01842622
v -0.02544895 0.04167046 0.01644978
v -0.02544895 0.04111561 0.03376813
v -0.03513919 0.03503791 0.03264087
v -0.03513919 0.03539797 0.01841119
v -0.02544895 0.04195772 0.01604021
v -0.03513919 0.03612596 0.01733655
v -0.02544895 0.04131827 0.03399358
v -0.02544895 0.04172555 0.03444448
v -0.03513919 0.03574819 0.03339238
v -0.02544895 0.04208561 0.01586361
v -0.03513919 0.03684017 0.01640844
v -0.02544895 0.04271915 0.01502192
v -0.02544895 0.04192624 0.03463611
v -0.03513919 0.03634632 0.03398982
v -0.03513919 0.03704283 0.01616045
v -0.02544895 0.04312250 0.01451090
v -0.02544895 0.04237877 0.03506071
v -0.03513919 0.03691690 0.03450084
v -0.03513919 0.03793608 0.01514592
v -0.02544895 0.04368718 0.01386085
v -0.02544895 0.04256372 0.03522604
v -0.02544895 0.04292968 0.03553791
v -0.03513919 0.03730451 0.03478641
v -0.03513919 0.03812300 0.01495429
v -0.02544895 0.04511757 0.01232779
v -0.02544895 0.04480474 0.01265469
v -0.02544895 0.04466504 0.01280500
v -0.02544895 0.04306937 0.03563936
v -0.03513919 0.03775704 0.03511707
v -0.03513919 0.03909693 0.01396606
v -0.02544895 0.04583769 0.01159132
v -0.02544895 0.04566455 0.01176792
v -0.02544895 0.04359470 0.03601887
v -0.03513919 0.03829811 0.03549282
v -0.02544895 0.04432859 0.03654492
v -0.03513919 0.03928975 0.01377443
v -0.02544895 0.04595181 0.01147859
v -0.03513919 0.03888837 0.03586857
v -0.02544895 0.04450567 0.03665765
v -0.03513919 0.04029122 0.01282002
v -0.02544895 0.04626661 0.01117424
v -0.03513919 0.03986230 0.03645474
v -0.02544895 0.04491295 0.03689813
v -0.03513919 0.04057258 0.01256827
v -0.02544895 0.04777571 0.00978396
v -0.02544895 0.04706346 0.01042649
v -0.02544895 0.04674275 0.01072333
v -0.02544895 0.04521201 0.03707098
v -0.03513919 0.04043878 0.03677037
v -0.03513919 0.04134188 0.01188441
v -0.02544895 0.04836006 0.00932930
v -0.03513919 0.04140681 0.01182804
v -0.03513919 0.04217611 0.01117799
v -0.03513919 0.04218989 0.01116672
v -0.03204097 0.05284997 0.00360662
v -0.02544895 0.04623907 0.03761957
v -0.02544895 0.04654207 0.03777739
v -0.03513919 0.04129072 0.03720249
v -0.02544895 0.04911953 0.00874313
v -0.03513919 0.05175209 0.00360662
v -0.03510504 0.05175996 0.00360662
v -0.03513919 0.05284997 0.00360662
v -0.02544895 0.05284997 0.00604148
v -0.02544895 0.05108903 0.00730025
v -0.02544895 0.05050467 0.00772109
v -0.02544895 0.04970389 0.00830350
v -0.03513919 0.04222530 0.03764212
v -0.02544895 0.04707330 0.03799532
v -0.03398376 0.05284997 0.04180919
v -0.03513919 0.05284997 0.04199331
v -0.02544895 0.05284997 0.03936305
v -0.02544895 0.04830301 0.03845374
v -0.02544895 0.04865913 0.03855519
v -0.02544895 0.04954452 0.03880694
v -0.02544895 0.05012494 0.03894597
v -0.02544895 0.05015642 0.03895349
v -0.02544895 0.05063453 0.03903991
v -0.02544895 0.05097688 0.03909627
v -0.02544895 0.05181111 0.03923154
v -0.02544895 0.05216527 0.03927663
f 1 2 3
f 1 3 4
f 1 4 5
f 1 5 6
f 1 6 11
f 1 11 15
f 1 15 19
f 1 19 24
f 1 24 29
f 1 29 35
f 1 35 39
f 1 39 44
f 1 44 48
f 1 48 54
f 1 54 59
f 1 59 63
f 1 63 68
f 1 68 74
f 1 74 79
f 1 79 83
f 1 83 87
f 1 87 94
f 1 94 103
f 1 103 112
f 1 112 115
f 1 115 107
f 1 107 105
f 1 105 99
f 1 99 98
f 1 98 97
f 1 97 95
f 1 95 89
f 1 89 85
f 1 85 81
f 1 81 75
f 1 75 69
f 1 69 64
f 1 64 60
f 1 60 56
f 1 56 51
f 1 51 49
f 1 49 45
f 1 45 41
f 1 41 36
f 1 36 30
f 1 30 25
f 1 25 20
f 1 20 16
f 1 16 12
f 1 12 7
f 1 7 2
f 2 7 8
f 2 8 13
f 2 13 17
f 2 17 21
f 2 21 26
f 2 26 33
f 2 33 32
f 2 32 31
f 2 31 37
f 2 37 42
f 2 42 46
f 2 46 50
f 2 50 55
f 2 55 57
f 2 57 61
f 2 61 65
f 2 65 72
f 2 72 71
f 2 71 70
f 2 70 77
f 2 77 76
f 2 76 82
f 2 82 86
f 2 86 92
f 2 92 91
f 2 91 90
f 2 90 96
f 2 96 104
f 2 104 111
f 2 111 110
f 2 110 109
f 2 109 108
f 2 108 116
f 2 116 125
f 2 125 124
f 2 124 123
f 2 123 122
f 2 122 121
f 2 121 120
f 2 120 119
f 2 119 118
f 2 118 117
f 2 117 113
f 2 113 102
f 2 102 101
f 2 101 93
f 2 93 88
f 2 88 84
f 2 84 80
f 2 80 78
f 2 78 73
f 2 73 67
f 2 67 66
f 2 66 62
f 2 62 58
f 2 58 53
f 2 53 52
f 2 52 47
f 2 47 43
f 2 43 40
f 2 40 38
f 2 38 34
f 2 34 28
f 2 28 27
f 2 27 23
f 2 23 22
f 2 22 18
f 2 18 14
f 2 14 10
f 2 10 9
f 2 9 5
f 2 5 4
f 2 4 3
f 5 9 6
f 6 9 10
f 6 10 11
f 7 12 13
f 7 13 8
f 10 14 15
f 10 15 11
f 12 16 17
f 12 17 13
f 14 18 15
f 15 18 19
f 16 20 21
f 16 21 17
f 18 22 19
f 19 22 23
f 19 23 24
f 20 25 21
f 21 25 26
f 23 27 24
f 24 27 28
f 24 28 29
f 25 30 31
f 25 31 32
f 25 32 33
f 25 33 26
f 28 34 29
f 29 34 35
f 30 36 31
f 31 36 37
f 34 38 35
f 35 38 40
f 35 40 39
f 36 41 42
f 36 42 37
f 39 40 43
f 39 43 44
f 41 45 42
f 42 45 46
f 43 47 48
f 43 48 44
f 45 49 46
f 46 49 51
f 46 51 50
f 47 52 48
f 48 52 53
f 48 53 54
f 50 51 55
f 51 56 57
f 51 57 55
f 53 58 59
f 53 59 54
f 56 60 61
f 56 61 57
f 58 62 59
f 59 62 63
f 60 64 65
f 60 65 61
f 62 66 63
f 63 66 67
f 63 67 68
f 64 69 70
f 64 70 71
f 64 71 72
f 64 72 65
f 67 73 74
f 67 74 68
f 69 75 76
f 69 76 77
f 69 77 70
f 73 78 74
f 74 78 80
f 74 80 79
f 75 81 76
f 76 81 82
f 79 80 84
f 79 84 83
f 81 85 86
f 81 86 82
f 83 84 87
f 84 88 87
f 85 89 90
f 85 90 91
f 85 91 92
f 85 92 86
f 87 88 93
f 87 93 94
f 89 95 90
f 90 95 97
f 90 97 98
f 90 98 99
f 90 99 100
f 90 100 96
f 93 101 94
f 94 101 102
f 94 102 103
f 96 100 104
f 99 105 106
f 99 106 100
f 100 106 105
f 100 105 107
f 100 107 115
f 100 115 114
f 100 114 116
f 100 116 108
f 100 108 109
f 100 109 110
f 100 110 111
f 100 111 104
f 102 112 103
f 102 113 114
f 102 114 112
f 112 114 115
f 113 117 114
f 114 117 118
f 114 118 119
f 114 119 120
f 114 120 121
f 114 121 122
f 114 122 123
f 114 123 124
f 114 124 125
f 114 125 116

