# https://github.com/mikedh/trimesh
v 0.00669035 0.03447589 0.00439642
v 0.01948499 0.02920590 0.00439642
v 0.00669035 0.03966855 0.00809412
v 0.00669035 0.04386908 0.00439642
v 0.01948499 0.03503324 0.00809412
v 0.01948499 0.03980278 0.00439642
v 0.00669035 0.04410982 0.00809412
v 0.00669035 0.04396100 0.00468022
v 0.00798297 0.04365315 0.00439642
v 0.01948499 0.03849696 0.00809412
v 0.01758740 0.04070154 0.00439642
v 0.01948499 0.03986990 0.00463244
v 0.00764353 0.04394349 0.00809412
v 0.00669035 0.04410982 0.00703277
v 0.00669035 0.04409085 0.00585668
v 0.00764353 0.04379613 0.00468022
v 0.00914532 0.04344888 0.00439642
v 0.01948499 0.04004060 0.00809304
v 0.01948374 0.04004060 0.00809412
v 0.01748094 0.04075115 0.00439642
v 0.01948499 0.03987281 0.00464438
v 0.00764353 0.04394349 0.00703277
v 0.00882091 0.04373485 0.00809412
v 0.00764353 0.04392598 0.00585668
v 0.00882091 0.04358749 0.00468022
v 0.00994319 0.04327526 0.00439642
v 0.01948499 0.04004060 0.00703277
v 0.01940733 0.04007708 0.00809412
v 0.01769637 0.04080513 0.00514356
v 0.01814603 0.04051187 0.00472293
v 0.01616327 0.04129099 0.00439642
v 0.01587769 0.04148358 0.00468022
v 0.01710142 0.04099043 0.00472293
v 0.01948499 0.03988157 0.00471063
v 0.00882091 0.04373485 0.00703277
v 0.00893490 0.04371150 0.00809412
v 0.00882091 0.04371734 0.00585668
v 0.00999704 0.04346931 0.00585668
v 0.01079616 0.04318772 0.00499551
v 0.01005842 0.04330590 0.00463425
v 0.01030141 0.04319355 0.00439642
v 0.01948499 0.04002018 0.00585668
v 0.01940733 0.04005811 0.00585668
v 0.01940733 0.04007708 0.00703277
v 0.01835395 0.04056585 0.00809412
v 0.01774522 0.04082702 0.00585668
v 0.01833266 0.04055710 0.00585668
v 0.01948499 0.04001288 0.00576256
v 0.01587769 0.04162802 0.00585668
v 0.01705507 0.04113925 0.00585668
v 0.01458758 0.04189356 0.00439642
v 0.01493704 0.04182791 0.00468022
v 0.01513745 0.04190232 0.00585668
v 0.00999704 0.04349265 0.00703277
v 0.00999704 0.04349265 0.00809412
v 0.01098404 0.04324316 0.00703277
v 0.01094271 0.04323003 0.00585668
v 0.01153140 0.04306953 0.00585668
v 0.01235056 0.04284047 0.00585668
v 0.01235056 0.04270040 0.00468022
v 0.01118194 0.04300972 0.00463425
v 0.01079366 0.04306516 0.00439642
v 0.01835395 0.04056585 0.00703277
v 0.01776526 0.04083577 0.00809412
v 0.01776526 0.04083577 0.00703277
v 0.01705507 0.04115821 0.00703277
v 0.01517627 0.04191691 0.00703277
v 0.01587769 0.04165136 0.00703277
v 0.01426443 0.04201028 0.00439642
v 0.01434835 0.04203946 0.00468022
v 0.01352543 0.04232981 0.00468022
v 0.01455001 0.04210950 0.00585668
v 0.01098404 0.04324316 0.00809412
v 0.01151512 0.04309579 0.00809412
v 0.01157273 0.04307975 0.00703277
v 0.01235056 0.04285943 0.00703277
v 0.01352543 0.04248885 0.00703277
v 0.01352543 0.04246696 0.00585668
v 0.01381226 0.04216932 0.00439642
v 0.01273133 0.04250197 0.00439642
v 0.01712396 0.04112757 0.00809412
v 0.01599293 0.04160322 0.00809412
v 0.01705507 0.04115821 0.00809412
v 0.01458758 0.04212117 0.00703277
v 0.01517627 0.04191691 0.00809412
v 0.01587769 0.04165136 0.00809412
v 0.01157273 0.04307975 0.00809412
v 0.01235056 0.04285943 0.00809412
v 0.01352543 0.04248885 0.00809412
v 0.01458758 0.04212117 0.00809412
f 1 2 3
f 1 3 7
f 1 7 14
f 1 14 15
f 1 15 8
f 1 8 4
f 1 4 9
f 1 9 17
f 1 17 26
f 1 26 41
f 1 41 62
f 1 62 80
f 1 80 79
f 1 79 69
f 1 69 51
f 1 51 31
f 1 31 20
f 1 20 11
f 1 11 6
f 1 6 2
f 2 5 3
f 2 6 12
f 2 12 21
f 2 21 34
f 2 34 48
f 2 48 42
f 2 42 27
f 2 27 18
f 2 18 10
f 2 10 5
f 3 5 10
f 3 10 19
f 3 19 28
f 3 28 45
f 3 45 64
f 3 64 81
f 3 81 83
f 3 83 82
f 3 82 86
f 3 86 85
f 3 85 90
f 3 90 89
f 3 89 88
f 3 88 87
f 3 87 74
f 3 74 73
f 3 73 55
f 3 55 36
f 3 36 23
f 3 23 13
f 3 13 7
f 4 8 9
f 6 11 12
f 7 13 22
f 7 22 14
f 8 15 24
f 8 24 16
f 8 16 9
f 9 16 17
f 10 18 19
f 11 20 21
f 11 21 12
f 13 23 35
f 13 35 22
f 14 22 24
f 14 24 15
f 16 25 17
f 16 24 37
f 16 37 25
f 17 25 26
f 18 27 44
f 18 44 28
f 18 28 19
f 20 29 30
f 20 30 21
f 20 31 32
f 20 32 33
f 20 33 29
f 21 30 29
f 21 29 34
f 22 35 37
f 22 37 24
f 23 36 35
f 25 37 38
f 25 38 39
f 25 39 40
f 25 40 26
f 26 40 41
f 27 42 43
f 27 43 44
f 28 44 63
f 28 63 45
f 29 46 47
f 29 47 43
f 29 43 48
f 29 48 34
f 29 33 32
f 29 32 49
f 29 49 50
f 29 50 46
f 31 51 32
f 32 51 52
f 32 52 53
f 32 53 49
f 35 36 54
f 35 54 37
f 36 55 54
f 37 54 38
f 38 54 56
f 38 56 57
f 38 57 39
f 39 58 59
f 39 59 60
f 39 60 61
f 39 61 62
f 39 62 40
f 39 57 58
f 40 62 41
f 42 48 43
f 43 47 44
f 44 47 63
f 45 63 65
f 45 65 64
f 46 65 63
f 46 63 47
f 46 50 66
f 46 66 65
f 49 53 67
f 49 67 68
f 49 68 50
f 50 68 66
f 51 69 52
f 52 69 70
f 52 70 53
f 53 70 71
f 53 71 72
f 53 72 67
f 54 55 73
f 54 73 56
f 56 73 74
f 56 74 75
f 56 75 58
f 56 58 57
f 58 75 59
f 59 76 77
f 59 77 78
f 59 78 71
f 59 71 60
f 59 75 76
f 60 71 79
f 60 79 80
f 60 80 62
f 60 62 61
f 64 65 81
f 65 66 81
f 66 68 82
f 66 82 83
f 66 83 81
f 67 72 78
f 67 78 84
f 67 84 90
f 67 90 85
f 67 85 86
f 67 86 68
f 68 86 82
f 69 79 71
f 69 71 70
f 71 78 72
f 74 87 75
f 75 87 88
f 75 88 76
f 76 88 89
f 76 89 77
f 77 84 78
f 77 89 90
f 77 90 84

