# https://github.com/mikedh/trimesh
v 0.02198467 0.01525446 0.06962917
v 0.02633846 0.01525446 0.06884370
v 0.02198467 0.01525446 0.06552584
v 0.02198467 0.01452914 0.06958301
v 0.02198467 0.01440263 0.06957436
v 0.02633846 0.01510725 0.06883000
v 0.02633846 0.01525446 0.06614181
v 0.02198467 0.01164934 0.06333677
v 0.02633846 0.01037658 0.06230535
v 0.02603499 0.01036661 0.06231112
v 0.02633846 0.01440263 0.06874128
v 0.02198467 0.01324872 0.06927503
v 0.02633846 0.01141242 0.06821836
v 0.02633846 0.01202963 0.06835757
v 0.02633846 0.01323338 0.06856601
v 0.02633846 0.01393877 0.06867997
v 0.02198467 0.01106510 0.06298767
v 0.02633846 0.01011360 0.06228371
v 0.02633846 0.00971567 0.06226063
v 0.02564075 0.00969957 0.06229092
v 0.02198467 0.00972717 0.06256717
v 0.02198467 0.00992498 0.06259602
v 0.02198467 0.01206413 0.06891727
v 0.02633846 0.01134265 0.06818590
v 0.02198467 0.01188932 0.06886390
v 0.02198467 0.01074691 0.06842609
v 0.02633846 0.00904249 0.06229236
v 0.02563350 0.00905322 0.06230102
v 0.02495411 0.00908312 0.06232121
v 0.02495411 0.00929091 0.06232121
v 0.02198467 0.00877184 0.06265805
v 0.02633846 0.01088262 0.06796663
v 0.02198467 0.00974557 0.06790605
v 0.02633846 0.00966277 0.06736509
v 0.02633846 0.00845748 0.06269483
v 0.02563350 0.00846898 0.06266959
v 0.02198467 0.00782647 0.06312976
v 0.02198467 0.00855255 0.06267969
v 0.02198467 0.00965586 0.06785844
v 0.02633846 0.00936681 0.06720136
v 0.02633846 0.00779810 0.06327979
v 0.02563350 0.00777510 0.06325454
v 0.02198467 0.00772680 0.06320694
v 0.02563350 0.00904939 0.06709966
v 0.02198467 0.00875650 0.06730883
v 0.02633846 0.00910459 0.06704773
v 0.02633846 0.00747761 0.06409555
v 0.02563350 0.00742471 0.06409555
v 0.02212703 0.00772603 0.06321127
v 0.02198467 0.00742241 0.06409555
v 0.02633846 0.00857632 0.06658395
v 0.02198467 0.00818453 0.06674624
v 0.02633846 0.00789854 0.06594201
v 0.02633846 0.00753665 0.06480024
v 0.02563350 0.00752975 0.06526474
v 0.02198467 0.00750981 0.06526474
v 0.02198467 0.00813469 0.06668493
v 0.02198467 0.00780807 0.06617282
v 0.02633846 0.00775900 0.06566432
v 0.02633846 0.00757882 0.06526474
f 1 2 7
f 1 7 3
f 1 3 8
f 1 8 17
f 1 17 22
f 1 22 21
f 1 21 31
f 1 31 38
f 1 38 37
f 1 37 43
f 1 43 50
f 1 50 56
f 1 56 58
f 1 58 57
f 1 57 52
f 1 52 45
f 1 45 39
f 1 39 33
f 1 33 26
f 1 26 25
f 1 25 23
f 1 23 12
f 1 12 5
f 1 5 4
f 1 4 2
f 2 4 5
f 2 5 6
f 2 6 11
f 2 11 16
f 2 16 15
f 2 15 14
f 2 14 13
f 2 13 24
f 2 24 32
f 2 32 34
f 2 34 40
f 2 40 46
f 2 46 51
f 2 51 53
f 2 53 59
f 2 59 60
f 2 60 54
f 2 54 47
f 2 47 41
f 2 41 35
f 2 35 27
f 2 27 19
f 2 19 18
f 2 18 9
f 2 9 7
f 3 7 9
f 3 9 10
f 3 10 8
f 5 11 6
f 5 12 13
f 5 13 14
f 5 14 15
f 5 15 16
f 5 16 11
f 8 10 17
f 9 18 10
f 10 18 19
f 10 19 20
f 10 20 21
f 10 21 22
f 10 22 17
f 12 23 13
f 13 23 25
f 13 25 26
f 13 26 24
f 19 27 28
f 19 28 29
f 19 29 20
f 20 29 30
f 20 30 21
f 21 30 29
f 21 29 31
f 24 26 32
f 26 33 34
f 26 34 32
f 27 35 36
f 27 36 37
f 27 37 38
f 27 38 28
f 28 38 29
f 29 38 31
f 33 39 34
f 34 39 40
f 35 41 42
f 35 42 43
f 35 43 36
f 36 43 37
f 39 44 40
f 39 45 44
f 40 44 46
f 41 47 48
f 41 48 42
f 42 48 49
f 42 49 43
f 43 49 48
f 43 48 50
f 44 45 51
f 44 51 46
f 45 52 53
f 45 53 51
f 47 54 48
f 48 54 55
f 48 55 56
f 48 56 50
f 52 57 53
f 53 57 58
f 53 58 59
f 54 60 55
f 55 60 59
f 55 59 58
f 55 58 56

