# https://github.com/mikedh/trimesh
v -0.04078376 0.01650143 0.03081358
v -0.04077004 0.01653718 0.03081358
v -0.03615857 0.01650143 0.03081358
v -0.04365760 0.01650143 0.08114848
v -0.04346366 0.01705433 0.08114848
v -0.04072107 0.01666349 0.03081358
v -0.02364649 0.03244735 0.03081358
v -0.02364649 0.03244020 0.07052160
v -0.03615466 0.01650143 0.07526639
v -0.04359295 0.01650143 0.08178661
v -0.04237446 0.01964724 0.08178661
v -0.04314434 0.01784078 0.08114848
v -0.04001387 0.01844849 0.03081358
v -0.04020585 0.01796947 0.03081358
v -0.04025679 0.01784078 0.03081358
v -0.04062312 0.01691372 0.03081358
v -0.02364649 0.03767607 0.03081358
v -0.02364649 0.03245450 0.08019644
v -0.03615466 0.01650143 0.08114848
v -0.04347933 0.01650143 0.08213655
v -0.04247828 0.01890368 0.08223948
v -0.04236075 0.01843420 0.08291877
v -0.04194740 0.02010004 0.08223948
v -0.04137929 0.02131070 0.08227035
v -0.04122257 0.02203519 0.08184322
v -0.04159674 0.02137029 0.08114848
v -0.04212762 0.02024780 0.08114848
v -0.04238034 0.01965915 0.08114848
v -0.04237054 0.01963532 0.08053094
v -0.03979838 0.01891322 0.03081358
v -0.02370526 0.03764032 0.03081358
v -0.02364649 0.04084571 0.08114848
v -0.02364649 0.03245688 0.08114848
v -0.03616445 0.01650143 0.08131316
v -0.04286420 0.01784078 0.08232696
v -0.04331477 0.01650143 0.08244018
v -0.04246849 0.01784078 0.08299082
v -0.04136754 0.02019299 0.08303714
v -0.04122845 0.02087935 0.08295479
v -0.04100512 0.02166342 0.08263058
v -0.04003738 0.02319819 0.08294450
v -0.04017059 0.02364385 0.08223433
v -0.04002171 0.02433974 0.08178146
v -0.04123824 0.02206618 0.08114848
v -0.03886982 0.02086266 0.03081358
v -0.03919501 0.02019299 0.03081358
v -0.02391879 0.03750448 0.03081358
v -0.02423614 0.04047631 0.08114848
v -0.02364649 0.04080996 0.08182263
v -0.02364649 0.03278100 0.08233211
v -0.03633880 0.01650143 0.08215714
v -0.04280740 0.01650143 0.08303714
v -0.04271336 0.01650143 0.08310404
v -0.04267027 0.01666349 0.08309889
v -0.04177305 0.01890368 0.08308345
v -0.04176913 0.01784078 0.08322754
v -0.04059178 0.02019299 0.08327386
v -0.04060549 0.02131070 0.08310918
v -0.04019214 0.02254520 0.08303199
v -0.03901674 0.02463525 0.08302684
v -0.03774340 0.02680634 0.08298053
v -0.03877579 0.02541932 0.08286217
v -0.03980034 0.02398464 0.08256883
v -0.03940071 0.02487834 0.08232181
v -0.03900107 0.02575535 0.08207994
v -0.03769051 0.02789069 0.08183293
v -0.03869939 0.02646554 0.08114848
v -0.03907747 0.02587689 0.08114848
v -0.03966517 0.02493554 0.08114848
v -0.04002562 0.02434689 0.08114848
v -0.04036257 0.02372249 0.08114848
v -0.04092872 0.02265482 0.08114848
v -0.04001583 0.02433259 0.08053608
v -0.03855638 0.02145131 0.03081358
v -0.02438111 0.03719704 0.03081358
v -0.02647723 0.03900112 0.08114848
v -0.02514120 0.03988767 0.08114848
v -0.02715504 0.03849112 0.08188953
v -0.02364649 0.04079328 0.08188953
v -0.03639757 0.01650143 0.08228064
v -0.02364649 0.03288586 0.08247620
v -0.03660718 0.01650143 0.08268720
v -0.04192977 0.01650143 0.08330473
v -0.04176913 0.01666349 0.08333561
v -0.04059178 0.01901569 0.08336135
v -0.03941638 0.02137029 0.08336135
v -0.03941638 0.02254520 0.08326357
v -0.03941246 0.02364385 0.08309374
v -0.03797652 0.02607470 0.08307831
v -0.03531425 0.03020953 0.08292907
v -0.03637798 0.02889878 0.08280041
v -0.03745934 0.02759041 0.08261515
v -0.03706559 0.02722101 0.08311433
v -0.03667379 0.02811709 0.08302684
v -0.03791579 0.02722101 0.08226521
v -0.03856814 0.02611760 0.08241445
v -0.03703424 0.02839593 0.08231667
v -0.03661110 0.02919668 0.08201819
v -0.03622714 0.02986636 0.08114848
v -0.03667379 0.02927771 0.08114848
v -0.03726149 0.02850079 0.08114848
v -0.03770422 0.02791214 0.08114848
v -0.03816458 0.02725200 0.08114848
v -0.03629962 0.02522390 0.03081358
v -0.03667771 0.02463525 0.03081358
v -0.03723406 0.02372249 0.03081358
v -0.03761802 0.02307903 0.03081358
v -0.03796868 0.02249038 0.03081358
v -0.02450648 0.03711363 0.03081358
v -0.02719422 0.03851733 0.08114848
v -0.02500211 0.03979472 0.08212112
v -0.02778192 0.03807644 0.08114848
v -0.02853809 0.03748780 0.08114848
v -0.02912775 0.03701592 0.08114848
v -0.02844602 0.03741392 0.08204907
v -0.02765263 0.03783574 0.08236299
v -0.02684748 0.03825995 0.08267690
v -0.02470042 0.03959454 0.08290848
v -0.02364649 0.04043103 0.08253281
v -0.02364649 0.03337918 0.08305257
v -0.03711065 0.01650143 0.08309889
v -0.04176913 0.01650143 0.08334076
v -0.04059178 0.01784078 0.08338193
v -0.03941638 0.02019299 0.08338708
v -0.03706363 0.02489979 0.08337678
v -0.03823902 0.02372249 0.08335105
v -0.03706363 0.02607470 0.08330988
v -0.03832718 0.02497605 0.08316579
v -0.03553170 0.02960182 0.08302684
v -0.03462272 0.03067425 0.08303199
v -0.03347084 0.03187300 0.08306287
v -0.03417411 0.03142496 0.08294965
v -0.03325339 0.03287632 0.08232696
v -0.03384108 0.03223525 0.08232696
v -0.03496163 0.03099599 0.08232696
v -0.03548272 0.03040972 0.08232696
v -0.03594700 0.02847695 0.08316064
v -0.03471088 0.02960182 0.08325842
v -0.03563944 0.03059323 0.08114848
v -0.03427207 0.02803368 0.03081358
v -0.03768463 0.02788354 0.08050006
v -0.03571192 0.02605802 0.03081358
v -0.02467496 0.03699686 0.03081358
v -0.02529988 0.03656312 0.03081358
v -0.02543505 0.03646779 0.03081358
v -0.02593851 0.03611269 0.03081358
v -0.02640279 0.03574569 0.03081358
v -0.02984670 0.03642728 0.08114848
v -0.02725887 0.03505694 0.03081358
v -0.03024046 0.03575998 0.08232696
v -0.02965276 0.03626760 0.08232696
v -0.02944119 0.03609363 0.08292907
v -0.02815217 0.03717322 0.08283643
v -0.03043440 0.03593396 0.08114848
v -0.02606192 0.03853640 0.08299082
v -0.02391683 0.03982094 0.08304228
v -0.02364649 0.04014267 0.08287760
v -0.02364649 0.03360796 0.08312462
v -0.03726345 0.01650143 0.08314521
v -0.04075241 0.01650143 0.08338193
v -0.04059178 0.01666349 0.08338708
v -0.03588627 0.02607470 0.08338708
v -0.03353548 0.02960182 0.08338193
v -0.03471088 0.02842929 0.08337164
v -0.03588627 0.02725200 0.08335105
v -0.03229544 0.03307175 0.08307316
v -0.03303398 0.03263801 0.08297024
v -0.03353548 0.03077912 0.08328415
v -0.03235813 0.03195641 0.08330473
v -0.03269116 0.03346497 0.08232696
v -0.03287922 0.03365086 0.08114848
v -0.03342578 0.03306221 0.08114848
v -0.03401152 0.03242114 0.08114848
v -0.03454241 0.03183487 0.08114848
v -0.03513010 0.03117949 0.08114848
v -0.03321225 0.02932299 0.03081358
v -0.03379799 0.02861995 0.03081358
v -0.03472655 0.02741882 0.03081358
v -0.03484801 0.02725200 0.03081358
v -0.03528682 0.02664667 0.03081358
v -0.02784853 0.03457315 0.03081358
v -0.02856160 0.03398451 0.03081358
v -0.03108478 0.03534769 0.08114848
v -0.03089280 0.03517133 0.08232696
v -0.03066164 0.03495923 0.08295479
v -0.02990351 0.03540489 0.08303714
v -0.02882998 0.03632480 0.08303199
v -0.02736857 0.03747588 0.08303714
v -0.02902392 0.03359128 0.03081358
v -0.02914930 0.03348404 0.03081358
v -0.02646352 0.03785481 0.08312462
v -0.02529988 0.03879617 0.08308345
v -0.02423418 0.03912743 0.08317608
v -0.02364649 0.03960169 0.08314521
v -0.02364649 0.03992103 0.08305772
v -0.02364649 0.03428717 0.08326872
v -0.03823902 0.01650143 0.08336135
v -0.04059178 0.01650143 0.08338708
v -0.03353548 0.02842929 0.08338708
v -0.03118273 0.03195641 0.08338193
v -0.03110633 0.03424189 0.08306287
v -0.03186250 0.03380577 0.08297024
v -0.03118273 0.03313132 0.08330473
v -0.03000538 0.03430862 0.08329445
v -0.02882998 0.03430862 0.08338193
v -0.03210150 0.03403455 0.08232696
v -0.03229152 0.03421567 0.08114848
v -0.02978009 0.03289539 0.03081358
v -0.03024437 0.03244496 0.03081358
v -0.03096528 0.03173239 0.03081358
v -0.03142956 0.03127005 0.03081358
v -0.03155298 0.03114613 0.03081358
v -0.03211130 0.03055748 0.03081358
v -0.03257362 0.03004986 0.03081358
v -0.03269899 0.02991164 0.03081358
v -0.03167248 0.03480433 0.08114848
v -0.02928447 0.03336011 0.03081358
v -0.03148050 0.03462320 0.08232696
v -0.02882998 0.03548592 0.08326357
v -0.02771727 0.03673232 0.08316579
v -0.02529988 0.03783812 0.08332018
v -0.02364649 0.03907500 0.08325842
v -0.02364649 0.03478526 0.08335620
v -0.03839966 0.01650143 0.08337164
v -0.03941638 0.01650143 0.08338708
v -0.02647723 0.03548592 0.08338708
v -0.02765263 0.03548592 0.08337164
v -0.02647723 0.03666083 0.08335620
v -0.02412252 0.03783812 0.08338193
v -0.02529988 0.03666083 0.08338708
v -0.02364649 0.03831476 0.08337164
v -0.02364649 0.03548592 0.08337678
v -0.02364649 0.03596017 0.08338708
v -0.03823902 0.01784078 0.08338708
v -0.02364649 0.03783812 0.08338193
v -0.02364649 0.03713747 0.08338708
f 1 2 6
f 1 6 16
f 1 16 15
f 1 15 14
f 1 14 13
f 1 13 30
f 1 30 46
f 1 46 45
f 1 45 74
f 1 74 108
f 1 108 107
f 1 107 106
f 1 106 105
f 1 105 104
f 1 104 142
f 1 142 180
f 1 180 179
f 1 179 178
f 1 178 140
f 1 140 177
f 1 177 176
f 1 176 215
f 1 215 214
f 1 214 213
f 1 213 212
f 1 212 211
f 1 211 210
f 1 210 209
f 1 209 208
f 1 208 217
f 1 217 190
f 1 190 189
f 1 189 182
f 1 182 181
f 1 181 149
f 1 149 147
f 1 147 146
f 1 146 145
f 1 145 144
f 1 144 143
f 1 143 109
f 1 109 75
f 1 75 47
f 1 47 31
f 1 31 17
f 1 17 7
f 1 7 3
f 1 3 9
f 1 9 19
f 1 19 34
f 1 34 51
f 1 51 80
f 1 80 82
f 1 82 121
f 1 121 159
f 1 159 197
f 1 197 224
f 1 224 225
f 1 225 198
f 1 198 160
f 1 160 122
f 1 122 83
f 1 83 53
f 1 53 52
f 1 52 36
f 1 36 20
f 1 20 10
f 1 10 4
f 1 4 5
f 1 5 2
f 2 5 6
f 3 7 8
f 3 8 9
f 4 10 5
f 5 10 11
f 5 11 12
f 5 12 13
f 5 13 14
f 5 14 15
f 5 15 16
f 5 16 6
f 7 17 32
f 7 32 49
f 7 49 79
f 7 79 119
f 7 119 157
f 7 157 195
f 7 195 194
f 7 194 222
f 7 222 231
f 7 231 235
f 7 235 236
f 7 236 233
f 7 233 232
f 7 232 223
f 7 223 196
f 7 196 158
f 7 158 120
f 7 120 81
f 7 81 50
f 7 50 33
f 7 33 18
f 7 18 8
f 8 18 19
f 8 19 9
f 10 20 11
f 11 20 21
f 11 21 22
f 11 22 23
f 11 23 24
f 11 24 25
f 11 25 26
f 11 26 27
f 11 27 28
f 11 28 12
f 12 28 29
f 12 29 13
f 13 29 27
f 13 27 30
f 17 31 32
f 18 33 19
f 19 33 34
f 20 35 21
f 20 36 22
f 20 22 35
f 21 35 22
f 22 36 37
f 22 37 38
f 22 38 39
f 22 39 23
f 23 39 24
f 24 39 40
f 24 40 41
f 24 41 25
f 25 41 42
f 25 42 43
f 25 43 44
f 25 44 26
f 26 44 45
f 26 45 46
f 26 46 27
f 27 46 30
f 27 29 28
f 31 47 48
f 31 48 32
f 32 48 49
f 33 50 51
f 33 51 34
f 36 52 37
f 37 52 53
f 37 53 54
f 37 54 38
f 38 54 55
f 38 55 56
f 38 56 57
f 38 57 58
f 38 58 59
f 38 59 39
f 39 59 41
f 39 41 40
f 41 59 60
f 41 60 61
f 41 61 62
f 41 62 63
f 41 63 42
f 42 63 43
f 43 63 64
f 43 64 65
f 43 65 66
f 43 66 67
f 43 67 68
f 43 68 69
f 43 69 70
f 43 70 71
f 43 71 72
f 43 72 44
f 44 72 73
f 44 73 45
f 45 73 74
f 47 75 76
f 47 76 77
f 47 77 48
f 48 77 49
f 49 77 78
f 49 78 79
f 50 80 51
f 50 81 82
f 50 82 80
f 53 56 54
f 53 83 84
f 53 84 56
f 54 56 55
f 56 84 57
f 57 84 85
f 57 85 86
f 57 86 87
f 57 87 58
f 58 88 59
f 58 87 88
f 59 88 60
f 60 88 89
f 60 89 61
f 61 90 91
f 61 91 92
f 61 92 62
f 61 89 93
f 61 93 94
f 61 94 90
f 62 92 95
f 62 95 96
f 62 96 65
f 62 65 64
f 62 64 63
f 65 96 95
f 65 95 66
f 66 95 92
f 66 92 97
f 66 97 98
f 66 98 99
f 66 99 100
f 66 100 101
f 66 101 102
f 66 102 103
f 66 103 67
f 67 103 104
f 67 104 105
f 67 105 68
f 68 105 73
f 68 73 69
f 69 73 70
f 70 73 71
f 71 73 72
f 73 105 106
f 73 106 107
f 73 107 108
f 73 108 74
f 75 109 76
f 76 110 78
f 76 78 77
f 76 109 110
f 78 111 79
f 78 110 112
f 78 112 113
f 78 113 114
f 78 114 115
f 78 115 116
f 78 116 117
f 78 117 118
f 78 118 111
f 79 111 118
f 79 118 119
f 81 120 82
f 82 120 121
f 83 122 84
f 84 122 85
f 85 123 124
f 85 124 86
f 85 122 123
f 86 125 126
f 86 126 87
f 86 124 125
f 87 126 127
f 87 127 128
f 87 128 88
f 88 128 89
f 89 128 127
f 89 127 93
f 90 94 129
f 90 129 130
f 90 130 131
f 90 131 132
f 90 132 133
f 90 133 134
f 90 134 135
f 90 135 136
f 90 136 98
f 90 98 91
f 91 98 97
f 91 97 92
f 93 137 94
f 93 127 138
f 93 138 137
f 94 137 129
f 98 136 139
f 98 139 99
f 99 139 140
f 99 140 100
f 100 140 101
f 101 140 141
f 101 141 102
f 102 141 103
f 103 141 104
f 104 141 142
f 109 143 110
f 110 143 144
f 110 144 145
f 110 145 146
f 110 146 112
f 112 146 113
f 113 146 147
f 113 147 114
f 114 148 115
f 114 147 149
f 114 149 148
f 115 150 151
f 115 151 152
f 115 152 153
f 115 153 116
f 115 148 154
f 115 154 150
f 116 153 117
f 117 153 118
f 118 153 155
f 118 155 156
f 118 156 157
f 118 157 119
f 120 158 121
f 121 158 159
f 122 160 123
f 123 160 161
f 123 161 124
f 124 161 198
f 124 198 225
f 124 225 234
f 124 234 233
f 124 233 236
f 124 236 230
f 124 230 226
f 124 226 199
f 124 199 162
f 124 162 125
f 125 163 164
f 125 164 165
f 125 165 126
f 125 162 163
f 126 165 127
f 127 165 138
f 129 137 138
f 129 138 130
f 130 138 131
f 131 166 167
f 131 167 132
f 131 138 168
f 131 168 169
f 131 169 166
f 132 167 133
f 133 170 171
f 133 171 172
f 133 172 134
f 133 167 170
f 134 172 173
f 134 173 174
f 134 174 135
f 135 174 175
f 135 175 136
f 136 175 139
f 138 165 168
f 139 175 176
f 139 176 177
f 139 177 140
f 140 178 141
f 141 178 179
f 141 179 180
f 141 180 142
f 148 149 181
f 148 181 182
f 148 182 154
f 150 154 183
f 150 183 184
f 150 184 152
f 150 152 151
f 152 185 186
f 152 186 187
f 152 187 188
f 152 188 155
f 152 155 153
f 152 184 185
f 154 182 189
f 154 189 190
f 154 190 183
f 155 188 191
f 155 191 192
f 155 192 156
f 156 192 193
f 156 193 194
f 156 194 195
f 156 195 157
f 158 196 159
f 159 196 197
f 160 198 161
f 162 199 163
f 163 169 164
f 163 199 200
f 163 200 169
f 164 169 168
f 164 168 165
f 166 201 202
f 166 202 167
f 166 169 203
f 166 203 204
f 166 204 201
f 167 202 170
f 169 200 205
f 169 205 203
f 170 206 171
f 170 202 206
f 171 206 207
f 171 207 208
f 171 208 209
f 171 209 210
f 171 210 211
f 171 211 212
f 171 212 213
f 171 213 172
f 172 213 173
f 173 213 214
f 173 214 215
f 173 215 174
f 174 215 175
f 175 215 176
f 183 216 184
f 183 190 217
f 183 217 216
f 184 216 218
f 184 218 185
f 185 202 201
f 185 201 186
f 185 218 206
f 185 206 202
f 186 201 219
f 186 219 187
f 187 219 220
f 187 220 188
f 188 220 191
f 191 220 219
f 191 219 221
f 191 221 192
f 192 221 193
f 193 221 222
f 193 222 194
f 196 223 197
f 197 223 224
f 199 226 205
f 199 205 200
f 201 204 219
f 203 205 227
f 203 227 204
f 204 227 228
f 204 228 219
f 205 229 227
f 205 226 230
f 205 230 229
f 206 218 216
f 206 216 207
f 207 216 208
f 208 216 217
f 219 228 221
f 221 228 231
f 221 231 222
f 223 232 224
f 224 232 233
f 224 233 234
f 224 234 225
f 227 229 228
f 228 229 231
f 229 235 231
f 229 230 236
f 229 236 235

