# https://github.com/mikedh/trimesh
v 0.00003763 0.04990700 0.04065175
v -0.00687174 0.04990700 0.04122467
v 0.00003763 0.04019030 0.03899581
v 0.00003763 0.04990700 0.00351138
v -0.00740988 0.04990700 0.04126533
v 0.00003763 0.03903713 0.03878512
v 0.00003763 0.04811333 0.00351138
v -0.00254923 0.04990700 0.00351138
v -0.00765660 0.04990700 0.04127272
v 0.00003763 0.03778143 0.03850420
v 0.00002176 0.04812132 0.00351138
v 0.00003763 0.03870289 0.00870098
v -0.01470159 0.04990700 0.00748859
v -0.00234147 0.04954481 0.00351138
v -0.00826688 0.04990700 0.04126903
v 0.00003763 0.03656434 0.03815305
v -0.00900990 0.04990700 0.04123207
v -0.00015425 0.04821320 0.00351138
v 0.00003763 0.03701842 0.00964723
v -0.01470159 0.04990700 0.04008991
v 0.00003763 0.03643384 0.00999468
v -0.01470159 0.04949687 0.00773994
v 0.00003763 0.03632865 0.03807913
v -0.00932731 0.04990700 0.04119510
v -0.01470159 0.04941298 0.03996793
v -0.01391528 0.04967930 0.04022298
v -0.01368588 0.04990700 0.04032647
v 0.00003763 0.03630335 0.01007970
v -0.01470159 0.04857007 0.00833874
v -0.01470159 0.04663925 0.03892188
v 0.00003763 0.03630335 0.03806804
v -0.01003282 0.04990700 0.04109530
v -0.01060559 0.04830376 0.04048541
v -0.01126205 0.04768323 0.04014535
v -0.01204258 0.04789495 0.04006034
v -0.01470159 0.04888833 0.03979421
v -0.01351420 0.04890031 0.04012687
v -0.01251004 0.04990700 0.04060000
v -0.00066932 0.03630335 0.01067850
v -0.01470159 0.04280956 0.01411974
v -0.01470159 0.04304925 0.01382404
v -0.01470159 0.04328494 0.01353573
v -0.01470159 0.04357923 0.01318089
v -0.01470159 0.04390813 0.01278538
v -0.01470159 0.04436487 0.01224942
v -0.01470159 0.04493613 0.01162105
v -0.01470159 0.04549807 0.01102595
v -0.01470159 0.04565786 0.01086331
v -0.01470159 0.04608663 0.01043824
v -0.01470159 0.04639557 0.01013514
v -0.01470159 0.04668452 0.00986161
v -0.01470159 0.04686562 0.00970267
v -0.01470159 0.04722382 0.00939588
v -0.01470159 0.04798550 0.00877860
v -0.01470159 0.04827979 0.00855312
v -0.01470159 0.04598943 0.03854855
v -0.01470159 0.04721051 0.03915844
v -0.00005615 0.03630335 0.03803477
v -0.01063878 0.04990700 0.04098811
v -0.01060559 0.04947290 0.04086244
v -0.01170065 0.04829310 0.04027842
v -0.01273511 0.04867394 0.04020819
v -0.01305251 0.04829310 0.03999011
v -0.01470159 0.04830376 0.03959830
v -0.01177423 0.04947290 0.04064066
v -0.01136160 0.04990700 0.04084765
v -0.01470159 0.04783902 0.03941349
v -0.00139791 0.03630335 0.01130317
v -0.01470159 0.04251927 0.01450786
v -0.00189566 0.03630335 0.01173194
v -0.01470159 0.04507062 0.03798672
v -0.01470159 0.04448605 0.03761709
v -0.00088573 0.03630335 0.03769101
v -0.01470159 0.04221034 0.01494771
v -0.00304265 0.03630335 0.01275581
v -0.01470159 0.04406260 0.03732139
v -0.01470159 0.04363782 0.03701829
v -0.01470159 0.04308121 0.03658952
v -0.00240351 0.03630335 0.03697024
v -0.01470159 0.04183216 0.01551325
v -0.00428054 0.03630335 0.01390166
v -0.01470159 0.04301729 0.03653038
v -0.00359379 0.03630335 0.03636035
v -0.00344086 0.03630335 0.03644167
v -0.00545783 0.03630335 0.01507708
v -0.01470159 0.04176691 0.01562783
v -0.01470159 0.04247533 0.03601659
v -0.00454889 0.03630335 0.03581699
v -0.00622105 0.03630335 0.01593463
v -0.01470159 0.04125291 0.01654082
v -0.01470159 0.04147130 0.01614901
v -0.01470159 0.04222499 0.03577264
v -0.01470159 0.04188543 0.03543997
v -0.00504953 0.03630335 0.03549542
v -0.00653702 0.03630335 0.01632274
v -0.01470159 0.04060576 0.01773842
v -0.01470159 0.04073226 0.01748707
v -0.01470159 0.04136211 0.03484117
v -0.00550400 0.03630335 0.03519971
v -0.00671592 0.03630335 0.01655930
v -0.01470159 0.04024356 0.01847028
v -0.00598155 0.03630335 0.03487074
v -0.01470159 0.04081082 0.03414627
v -0.00718770 0.03630335 0.01721724
v -0.01470159 0.03950053 0.02017058
v -0.01470159 0.03963768 0.01985270
v -0.01470159 0.03975486 0.01958287
v -0.01470159 0.04004382 0.01891753
v -0.00625568 0.03630335 0.03466005
v -0.01470159 0.04040602 0.03359552
v -0.00727138 0.03630335 0.01733552
v -0.01470159 0.03946457 0.02027408
v -0.00766670 0.03630335 0.01792323
v -0.00800719 0.03630335 0.01844811
v -0.00717760 0.03630335 0.03381360
v -0.01470159 0.03981612 0.03256425
v -0.01470159 0.03927815 0.02088027
v -0.00923353 0.03630335 0.02082482
v -0.00819763 0.03630335 0.03266775
v -0.00827843 0.03630335 0.03257534
v -0.01470159 0.03964967 0.03221311
v -0.00980775 0.03630335 0.02201133
v -0.01470159 0.03913833 0.02142362
v -0.01470159 0.03923953 0.03132969
v -0.00907916 0.03630335 0.03155147
v -0.01011506 0.03630335 0.02268036
v -0.01470159 0.03899185 0.02201133
v -0.01470159 0.03878013 0.03019863
v -0.00929413 0.03630335 0.03126316
v -0.01034157 0.03630335 0.02324959
v -0.01470159 0.03888532 0.02255839
v -0.00989720 0.03630335 0.03018754
v -0.01470159 0.03849783 0.02914888
v -0.01470159 0.03878412 0.02316827
v -0.01063734 0.03630335 0.02425868
v -0.01046998 0.03630335 0.02897885
v -0.01470159 0.03836067 0.02847615
v -0.01066330 0.03630335 0.02434739
v -0.01470159 0.03861101 0.02434739
v -0.01083499 0.03630335 0.02787366
v -0.01470159 0.03833404 0.02785517
v -0.01084221 0.03630335 0.02785148
v -0.01470159 0.03845122 0.02551542
v -0.01086673 0.03630335 0.02551542
v -0.01470159 0.03830874 0.02665388
v -0.01092877 0.03630335 0.02668345
v -0.01093021 0.03630335 0.02661692
f 1 2 3
f 1 3 6
f 1 6 10
f 1 10 16
f 1 16 23
f 1 23 31
f 1 31 28
f 1 28 21
f 1 21 19
f 1 19 12
f 1 12 7
f 1 7 4
f 1 4 8
f 1 8 13
f 1 13 20
f 1 20 27
f 1 27 38
f 1 38 66
f 1 66 59
f 1 59 32
f 1 32 24
f 1 24 17
f 1 17 15
f 1 15 9
f 1 9 5
f 1 5 2
f 2 5 3
f 3 5 6
f 4 7 11
f 4 11 18
f 4 18 14
f 4 14 8
f 5 9 6
f 6 9 10
f 7 12 11
f 8 14 13
f 9 15 10
f 10 15 17
f 10 17 16
f 11 12 18
f 12 19 13
f 12 13 14
f 12 14 18
f 13 19 21
f 13 21 22
f 13 22 29
f 13 29 55
f 13 55 54
f 13 54 53
f 13 53 52
f 13 52 51
f 13 51 50
f 13 50 49
f 13 49 48
f 13 48 47
f 13 47 46
f 13 46 45
f 13 45 44
f 13 44 43
f 13 43 42
f 13 42 41
f 13 41 40
f 13 40 69
f 13 69 74
f 13 74 80
f 13 80 86
f 13 86 91
f 13 91 90
f 13 90 97
f 13 97 96
f 13 96 101
f 13 101 108
f 13 108 107
f 13 107 106
f 13 106 105
f 13 105 112
f 13 112 117
f 13 117 123
f 13 123 127
f 13 127 131
f 13 131 134
f 13 134 139
f 13 139 143
f 13 143 145
f 13 145 141
f 13 141 137
f 13 137 133
f 13 133 128
f 13 128 124
f 13 124 121
f 13 121 116
f 13 116 110
f 13 110 103
f 13 103 98
f 13 98 93
f 13 93 92
f 13 92 87
f 13 87 82
f 13 82 78
f 13 78 77
f 13 77 76
f 13 76 72
f 13 72 71
f 13 71 56
f 13 56 30
f 13 30 57
f 13 57 67
f 13 67 64
f 13 64 36
f 13 36 25
f 13 25 20
f 16 17 24
f 16 24 23
f 20 25 26
f 20 26 27
f 21 28 29
f 21 29 22
f 23 30 31
f 23 24 32
f 23 32 33
f 23 33 34
f 23 34 35
f 23 35 30
f 25 36 37
f 25 37 26
f 26 37 38
f 26 38 27
f 28 39 40
f 28 40 41
f 28 41 42
f 28 42 43
f 28 43 44
f 28 44 45
f 28 45 46
f 28 46 47
f 28 47 48
f 28 48 49
f 28 49 50
f 28 50 51
f 28 51 52
f 28 52 53
f 28 53 54
f 28 54 55
f 28 55 29
f 28 31 58
f 28 58 73
f 28 73 79
f 28 79 84
f 28 84 83
f 28 83 88
f 28 88 94
f 28 94 99
f 28 99 102
f 28 102 109
f 28 109 115
f 28 115 119
f 28 119 120
f 28 120 125
f 28 125 129
f 28 129 132
f 28 132 136
f 28 136 140
f 28 140 142
f 28 142 146
f 28 146 147
f 28 147 144
f 28 144 138
f 28 138 135
f 28 135 130
f 28 130 126
f 28 126 122
f 28 122 118
f 28 118 114
f 28 114 113
f 28 113 111
f 28 111 104
f 28 104 100
f 28 100 95
f 28 95 89
f 28 89 85
f 28 85 81
f 28 81 75
f 28 75 70
f 28 70 68
f 28 68 39
f 30 56 31
f 30 35 57
f 31 56 58
f 32 59 60
f 32 60 33
f 33 60 61
f 33 61 34
f 34 61 62
f 34 62 35
f 35 62 37
f 35 37 63
f 35 63 57
f 36 64 37
f 37 62 65
f 37 65 66
f 37 66 38
f 37 64 67
f 37 67 57
f 37 57 63
f 39 68 40
f 40 68 70
f 40 70 69
f 56 71 58
f 58 71 72
f 58 72 73
f 59 66 65
f 59 65 60
f 60 65 62
f 60 62 61
f 69 70 75
f 69 75 74
f 72 76 73
f 73 76 77
f 73 77 78
f 73 78 79
f 74 75 81
f 74 81 80
f 78 82 83
f 78 83 84
f 78 84 79
f 80 85 86
f 80 81 85
f 82 87 83
f 83 87 88
f 85 89 90
f 85 90 91
f 85 91 86
f 87 92 88
f 88 92 93
f 88 93 94
f 89 95 96
f 89 96 97
f 89 97 90
f 93 98 99
f 93 99 94
f 95 100 101
f 95 101 96
f 98 102 99
f 98 103 102
f 100 104 105
f 100 105 106
f 100 106 107
f 100 107 108
f 100 108 101
f 102 103 109
f 103 110 109
f 104 111 105
f 105 111 113
f 105 113 114
f 105 114 112
f 109 110 115
f 110 116 115
f 112 114 117
f 114 118 117
f 115 116 119
f 116 120 119
f 116 121 120
f 117 118 122
f 117 122 123
f 120 121 124
f 120 124 125
f 122 126 123
f 123 126 127
f 124 128 125
f 125 128 129
f 126 130 127
f 127 130 131
f 128 132 129
f 128 133 132
f 130 134 131
f 130 135 134
f 132 133 136
f 133 137 136
f 134 135 138
f 134 138 139
f 136 137 140
f 137 141 142
f 137 142 140
f 138 143 139
f 138 144 145
f 138 145 143
f 141 146 142
f 141 145 146
f 144 147 145
f 145 147 146

