# https://github.com/mikedh/trimesh
v 0.01405588 -0.00525946 0.03603746
v 0.01391654 -0.00547130 0.03603746
v 0.01405285 -0.00525946 0.03571611
v 0.01405285 -0.00525946 0.03887371
v 0.01344706 -0.00618112 0.03603746
v 0.01373481 -0.00544104 0.01967311
v 0.01385294 -0.00525946 0.01967311
v 0.00997134 -0.00525946 0.03887371
v 0.01391200 -0.00547130 0.03887371
v 0.01343797 -0.00616874 0.03887371
v 0.01301846 -0.00675338 0.03887371
v 0.01243387 -0.00755124 0.03887371
v 0.01218701 -0.00788689 0.03887371
v 0.01301392 -0.00676576 0.03603746
v 0.01243236 -0.00753473 0.03369720
v 0.01241419 -0.00751272 0.03019030
v 0.01235361 -0.00745219 0.01967311
v 0.01291699 -0.00664058 0.01967311
v 0.01333802 -0.00602568 0.01967311
v 0.01373178 -0.00541490 0.01850298
v 0.01384991 -0.00525946 0.01944257
v 0.00246258 -0.00525946 0.03871653
v -0.00141447 -0.01035337 0.03879338
v -0.00141447 -0.01156391 0.03881783
v -0.00141447 -0.01555871 0.03887371
v 0.01096938 -0.00949774 0.03887371
v 0.01141312 -0.00891447 0.03837423
v 0.01243236 -0.00754023 0.03486733
v 0.01096635 -0.00949498 0.03720410
v 0.01095575 -0.00948398 0.03486733
v 0.01191441 -0.00803683 0.01967311
v 0.01190835 -0.00801207 0.01850298
v 0.01227940 -0.00734627 0.01265931
v 0.01366060 -0.00525946 0.01032255
v 0.01383325 -0.00525946 0.01850298
v 0.00129795 -0.00525946 0.03865715
v -0.00141447 -0.00797218 0.03868160
v -0.00141447 -0.00914007 0.03875146
v -0.00141447 -0.01930038 0.03887371
v 0.01068163 -0.00981688 0.03887371
v 0.00988350 -0.01076743 0.03720410
v 0.01096938 -0.00949911 0.03837423
v 0.01041508 -0.01014703 0.03720410
v 0.00987896 -0.01076193 0.03603746
v 0.00976386 -0.01063262 0.01967311
v 0.01132376 -0.00874390 0.01850298
v 0.01126167 -0.00869575 0.01382944
v 0.01226577 -0.00732701 0.01148918
v 0.01365908 -0.00525946 0.01028413
v 0.01219156 -0.00722934 0.00738500
v 0.00012878 -0.00525946 0.03854887
v -0.00141447 -0.00680290 0.03855935
v -0.00119033 -0.01919309 0.03887371
v -0.00141447 -0.01931139 0.03371117
v 0.01028635 -0.01025157 0.03887371
v 0.00929740 -0.01135207 0.03720410
v 0.00755121 -0.01310323 0.03518868
v 0.00927014 -0.01132180 0.03887371
v 0.00779201 -0.01281985 0.03887371
v 0.00752849 -0.01308397 0.03887371
v 0.00865375 -0.01187480 0.02668341
v 0.00917927 -0.01121726 0.01967311
v 0.00849624 -0.01171523 0.01032255
v 0.00904448 -0.01113059 0.01032255
v 0.01016822 -0.00990767 0.01032255
v 0.01075281 -0.00922399 0.01032255
v 0.01119504 -0.00861596 0.00915242
v 0.01362425 -0.00525946 0.00956808
v 0.01116777 -0.00857332 0.00798229
v 0.01109205 -0.00847978 0.00681565
v 0.01097089 -0.00832846 0.00538006
v 0.01248537 -0.00643286 0.00564552
v 0.01306995 -0.00561849 0.00564552
v 0.01315022 -0.00572854 0.00681565
v 0.01360153 -0.00525946 0.00911749
v -0.00104040 -0.00525946 0.03838121
v -0.00141447 -0.00563363 0.03838820
v -0.00065875 -0.01891934 0.03887371
v -0.00125242 -0.01923160 0.03369720
v -0.00141447 -0.01928388 0.02765444
v -0.00064815 -0.01892484 0.02718290
v 0.00754818 -0.01310047 0.03603746
v 0.00692876 -0.01360808 0.03603746
v 0.00624574 -0.01416108 0.03603746
v 0.00492057 -0.01518729 0.03136043
v 0.00613518 -0.01405791 0.01850298
v 0.00612458 -0.01405103 0.01733634
v 0.00734524 -0.01292165 0.01499608
v 0.00795860 -0.01233701 0.01499608
v 0.00732556 -0.01325317 0.03887371
v 0.00791166 -0.01227373 0.01032255
v 0.00788288 -0.01224622 0.00915242
v 0.00846747 -0.01168359 0.00915242
v 0.00902025 -0.01109895 0.00915242
v 0.00960484 -0.01046617 0.00915242
v 0.01013793 -0.00988153 0.00915242
v 0.01072252 -0.00920060 0.00915242
v 0.01068011 -0.00915658 0.00798229
v 0.01002738 -0.00976736 0.00681565
v 0.01061196 -0.00906304 0.00681565
v 0.00993802 -0.00966281 0.00564552
v 0.01059228 -0.00887045 0.00571887
v 0.00987593 -0.00959128 0.00498536
v 0.01130105 -0.00758150 0.00447539
v 0.01188563 -0.00681391 0.00447539
v 0.01232483 -0.00622927 0.00447539
v 0.01307753 -0.00525946 0.00463956
v 0.01330470 -0.00525946 0.00564552
v 0.01344100 -0.00525946 0.00681565
v 0.01351521 -0.00525946 0.00784956
v -0.00141447 -0.00525946 0.03830786
v -0.00014534 -0.01863458 0.03887371
v -0.00064815 -0.01892484 0.02757410
v -0.00019684 -0.01867448 0.03479398
v -0.00141447 -0.01918896 0.01849250
v 0.00144182 -0.01760425 0.02551677
v 0.00092236 -0.01804032 0.03486733
v -0.00007568 -0.01860707 0.03369720
v -0.00140387 -0.01918346 0.01850298
v -0.00091621 -0.01878590 0.01148918
v -0.00008477 -0.01828105 0.01032255
v 0.00065127 -0.01783810 0.01032255
v 0.00598525 -0.01435366 0.03887371
v 0.00565055 -0.01461641 0.03887371
v 0.00490391 -0.01520104 0.03887371
v 0.00433598 -0.01565500 0.03136043
v 0.00555059 -0.01452974 0.01850298
v 0.00546427 -0.01446922 0.01032255
v 0.00604885 -0.01397950 0.01032255
v 0.00670008 -0.01339486 0.01032255
v 0.00728466 -0.01285699 0.01032255
v 0.00724680 -0.01282948 0.00915242
v 0.00783745 -0.01220632 0.00798229
v 0.00779504 -0.01215956 0.00681565
v 0.00837963 -0.01159005 0.00681565
v 0.00898542 -0.01105218 0.00798229
v 0.00957001 -0.01042490 0.00798229
v 0.01009553 -0.00984026 0.00798229
v 0.00951700 -0.01035199 0.00681565
v 0.00885972 -0.01093388 0.00564552
v 0.00944430 -0.01024745 0.00564552
v 0.00877188 -0.01082933 0.00480373
v 0.00925954 -0.01013327 0.00450683
v 0.00959878 -0.00925288 0.00330875
v 0.01006372 -0.00866824 0.00330875
v 0.01004403 -0.00864072 0.00319000
v 0.01301695 -0.00525946 0.00444395
v 0.01294880 -0.00538739 0.00452080
v 0.01115263 -0.00737791 0.00363010
v 0.01220216 -0.00607520 0.00386413
v -0.00141447 -0.00525946 0.00671436
v 0.00094962 -0.01801556 0.03887371
v -0.00141447 -0.01902664 0.01010599
v 0.00225358 -0.01709252 0.02551677
v 0.00294115 -0.01664957 0.02551677
v 0.00153269 -0.01765789 0.03837423
v 0.00153421 -0.01765927 0.03887371
v -0.00093287 -0.01877214 0.01032255
v -0.00096013 -0.01876114 0.00915242
v -0.00008477 -0.01824941 0.00915242
v 0.00061189 -0.01781747 0.00915242
v 0.00123586 -0.01746669 0.01032255
v 0.00431932 -0.01563161 0.03887371
v 0.00386044 -0.01596726 0.03887371
v 0.00225358 -0.01714204 0.03887371
v 0.00183862 -0.01744055 0.03887371
v 0.00352574 -0.01620249 0.02551677
v 0.00472975 -0.01506211 0.01148918
v 0.00470097 -0.01505385 0.01032255
v 0.00466765 -0.01502634 0.00915242
v 0.00542338 -0.01444170 0.00915242
v 0.00537491 -0.01440869 0.00798229
v 0.00600796 -0.01393823 0.00915242
v 0.00666222 -0.01335359 0.00915242
v 0.00719985 -0.01278958 0.00798229
v 0.00713927 -0.01274282 0.00681565
v 0.00770417 -0.01207564 0.00564552
v 0.00828876 -0.01151714 0.00564552
v 0.00893241 -0.01100679 0.00681565
v 0.00759059 -0.01197385 0.00481421
v 0.00746337 -0.01185554 0.00403528
v 0.00862800 -0.01067526 0.00402480
v 0.00901419 -0.00994206 0.00330875
v 0.00898693 -0.00991042 0.00319000
v 0.01242327 -0.00535575 0.00319000
v 0.01245659 -0.00545342 0.00340656
v 0.01257775 -0.00525946 0.00337163
v -0.00141296 -0.00525946 0.00619042
v -0.00141447 -0.00526634 0.00618693
v -0.00141447 -0.01899637 0.00915242
v 0.00275336 -0.01652164 0.01148918
v 0.00342276 -0.01603879 0.01148918
v 0.00414516 -0.01550918 0.01148918
v -0.00141447 -0.01892484 0.00798229
v -0.00102677 -0.01872262 0.00798229
v -0.00008477 -0.01817100 0.00798229
v 0.00048165 -0.01773356 0.00645239
v 0.00113742 -0.01740753 0.00798229
v 0.00213545 -0.01688205 0.01032255
v 0.00411639 -0.01548580 0.01032255
v 0.00408307 -0.01546241 0.00915242
v 0.00404975 -0.01543765 0.00826172
v 0.00449955 -0.01507174 0.00791592
v 0.00595950 -0.01389146 0.00798229
v 0.00530828 -0.01435229 0.00681565
v 0.00703780 -0.01265890 0.00564552
v 0.00636992 -0.01308947 0.00498885
v 0.00623816 -0.01296979 0.00420993
v 0.00419968 -0.01438943 0.00359168
v 0.00539157 -0.01324767 0.00330875
v 0.00597616 -0.01273731 0.00330875
v 0.00722106 -0.01164232 0.00330875
v 0.00843264 -0.01052670 0.00330875
v 0.00839477 -0.01048955 0.00319000
v 0.01246719 -0.00525946 0.00319000
v 0.00298507 -0.00525946 0.00319000
v 0.00254588 -0.00562537 0.00319000
v -0.00132512 -0.00902177 0.00319000
v -0.00141447 -0.00915521 0.00319000
v 0.00272004 -0.01649550 0.01032255
v 0.00342276 -0.01598927 0.01032255
v -0.00141447 -0.01882304 0.00681565
v -0.00112218 -0.01866210 0.00681565
v 0.00193706 -0.01677475 0.00681565
v 0.00202035 -0.01682290 0.00798229
v -0.00141447 -0.01868548 0.00570490
v -0.00141447 -0.01867035 0.00558963
v -0.00021804 -0.01800043 0.00564552
v 0.00036655 -0.01766340 0.00564552
v 0.00108441 -0.01719569 0.00564552
v 0.00174169 -0.01662343 0.00484564
v 0.00183710 -0.01669221 0.00564552
v 0.00342276 -0.01593287 0.00915242
v 0.00266552 -0.01646111 0.00915242
v 0.00399523 -0.01539776 0.00748280
v 0.00459193 -0.01487502 0.00681565
v 0.00523558 -0.01428626 0.00600529
v 0.00513108 -0.01420097 0.00522288
v 0.00581411 -0.01343338 0.00454874
v 0.00293812 -0.01548580 0.00374886
v 0.00499327 -0.01409367 0.00447539
v 0.00406792 -0.01428901 0.00319000
v 0.00451166 -0.01392447 0.00319000
v 0.00535068 -0.01321328 0.00319000
v 0.00718319 -0.01160105 0.00319000
v -0.00141447 -0.01797429 0.00319000
v 0.00242169 -0.01627678 0.00564552
v -0.00141447 -0.01844750 0.00447539
v -0.00125242 -0.01835946 0.00447539
v -0.00043007 -0.01788900 0.00447539
v 0.00015452 -0.01753134 0.00447539
v 0.00116316 -0.01690131 0.00446491
v 0.00160539 -0.01653402 0.00406672
v 0.00218089 -0.01622863 0.00446491
v 0.00306988 -0.01558897 0.00447539
v 0.00134944 -0.01636481 0.00330875
v 0.00225358 -0.01575267 0.00333670
v 0.00240806 -0.01555733 0.00319000
v 0.00272761 -0.01532347 0.00319000
v 0.00353634 -0.01470445 0.00319000
v -0.00136298 -0.01795228 0.00319000
v -0.00141447 -0.01805545 0.00335416
v -0.00058151 -0.01779683 0.00377681
v 0.00076486 -0.01674036 0.00330875
v 0.00072094 -0.01671285 0.00319000
v 0.00131158 -0.01631805 0.00319000
v 0.00218543 -0.01571827 0.00319000
v -0.00110552 -0.01781609 0.00319000
v -0.00127666 -0.01798529 0.00335416
v -0.00082231 -0.01766065 0.00319000
v -0.00049216 -0.01746118 0.00319000
v -0.00014837 -0.01733187 0.00335416
f 1 2 3
f 1 3 7
f 1 7 21
f 1 21 35
f 1 35 34
f 1 34 49
f 1 49 68
f 1 68 75
f 1 75 110
f 1 110 109
f 1 109 108
f 1 108 107
f 1 107 147
f 1 147 187
f 1 187 215
f 1 215 216
f 1 216 188
f 1 188 151
f 1 151 111
f 1 111 76
f 1 76 51
f 1 51 36
f 1 36 22
f 1 22 8
f 1 8 4
f 1 4 2
f 2 5 3
f 2 4 5
f 3 5 6
f 3 6 7
f 4 8 25
f 4 25 39
f 4 39 53
f 4 53 78
f 4 78 112
f 4 112 152
f 4 152 157
f 4 157 166
f 4 166 165
f 4 165 164
f 4 164 163
f 4 163 125
f 4 125 124
f 4 124 123
f 4 123 90
f 4 90 60
f 4 60 59
f 4 59 58
f 4 58 55
f 4 55 40
f 4 40 26
f 4 26 13
f 4 13 12
f 4 12 11
f 4 11 10
f 4 10 9
f 4 9 5
f 5 9 10
f 5 10 11
f 5 11 12
f 5 12 13
f 5 13 14
f 5 14 15
f 5 15 16
f 5 16 17
f 5 17 18
f 5 18 19
f 5 19 6
f 6 19 20
f 6 20 21
f 6 21 7
f 8 22 23
f 8 23 24
f 8 24 25
f 13 26 27
f 13 27 15
f 13 15 28
f 13 28 14
f 14 28 15
f 15 27 29
f 15 29 30
f 15 30 31
f 15 31 16
f 16 31 17
f 17 31 32
f 17 32 33
f 17 33 18
f 18 33 34
f 18 34 20
f 18 20 19
f 20 35 21
f 20 34 35
f 22 36 37
f 22 37 38
f 22 38 23
f 23 38 37
f 23 37 52
f 23 52 77
f 23 77 111
f 23 111 151
f 23 151 189
f 23 189 219
f 23 219 246
f 23 246 262
f 23 262 248
f 23 248 227
f 23 227 226
f 23 226 222
f 23 222 194
f 23 194 190
f 23 190 153
f 23 153 115
f 23 115 80
f 23 80 54
f 23 54 39
f 23 39 25
f 23 25 24
f 26 40 41
f 26 41 42
f 26 42 27
f 27 42 29
f 29 42 43
f 29 43 30
f 30 43 44
f 30 44 45
f 30 45 46
f 30 46 31
f 31 46 47
f 31 47 32
f 32 47 48
f 32 48 33
f 33 48 34
f 34 48 50
f 34 50 49
f 36 51 37
f 37 51 52
f 39 54 53
f 40 55 41
f 41 56 57
f 41 57 44
f 41 44 43
f 41 43 42
f 41 55 58
f 41 58 59
f 41 59 60
f 41 60 56
f 44 57 61
f 44 61 45
f 45 62 63
f 45 63 64
f 45 64 65
f 45 65 66
f 45 66 46
f 45 61 62
f 46 66 47
f 47 66 48
f 48 66 67
f 48 67 50
f 49 50 68
f 50 69 70
f 50 70 71
f 50 71 72
f 50 72 73
f 50 73 74
f 50 74 75
f 50 75 68
f 50 67 69
f 51 76 77
f 51 77 52
f 53 54 79
f 53 79 78
f 54 80 81
f 54 81 79
f 56 82 57
f 56 60 82
f 57 82 83
f 57 83 84
f 57 84 85
f 57 85 86
f 57 86 87
f 57 87 88
f 57 88 89
f 57 89 61
f 60 90 82
f 61 89 63
f 61 63 62
f 63 89 91
f 63 91 92
f 63 92 93
f 63 93 94
f 63 94 64
f 64 94 95
f 64 95 65
f 65 95 96
f 65 96 97
f 65 97 66
f 66 97 67
f 67 97 69
f 69 98 99
f 69 99 100
f 69 100 70
f 69 97 98
f 70 100 101
f 70 101 102
f 70 102 71
f 71 102 101
f 71 101 103
f 71 103 104
f 71 104 72
f 72 104 105
f 72 105 106
f 72 106 107
f 72 107 73
f 73 107 108
f 73 108 74
f 74 109 110
f 74 110 75
f 74 108 109
f 76 111 77
f 78 79 113
f 78 113 114
f 78 114 112
f 79 81 113
f 80 115 81
f 81 116 117
f 81 117 118
f 81 118 114
f 81 114 113
f 81 115 119
f 81 119 120
f 81 120 121
f 81 121 122
f 81 122 116
f 82 90 123
f 82 123 83
f 83 123 84
f 84 123 124
f 84 124 125
f 84 125 126
f 84 126 85
f 85 126 127
f 85 127 86
f 86 127 87
f 87 127 128
f 87 128 129
f 87 129 88
f 88 129 130
f 88 130 131
f 88 131 91
f 88 91 89
f 91 131 92
f 92 132 133
f 92 133 93
f 92 131 130
f 92 130 132
f 93 133 134
f 93 134 135
f 93 135 136
f 93 136 94
f 94 136 137
f 94 137 95
f 95 137 96
f 96 137 138
f 96 138 97
f 97 138 98
f 98 138 99
f 99 138 139
f 99 139 140
f 99 140 141
f 99 141 101
f 99 101 100
f 101 141 103
f 103 141 140
f 103 140 142
f 103 142 143
f 103 143 144
f 103 144 145
f 103 145 104
f 104 145 146
f 104 146 105
f 105 146 106
f 106 147 148
f 106 148 107
f 106 146 149
f 106 149 150
f 106 150 147
f 107 148 147
f 112 114 152
f 114 118 117
f 114 117 152
f 115 153 120
f 115 120 119
f 116 154 117
f 116 122 154
f 117 154 155
f 117 155 156
f 117 156 157
f 117 157 152
f 120 153 158
f 120 158 121
f 121 158 159
f 121 159 160
f 121 160 122
f 122 160 161
f 122 161 162
f 122 162 154
f 125 163 126
f 126 163 164
f 126 164 165
f 126 165 166
f 126 166 157
f 126 157 155
f 126 155 167
f 126 167 127
f 127 168 128
f 127 167 168
f 128 168 169
f 128 169 170
f 128 170 171
f 128 171 129
f 129 171 172
f 129 172 173
f 129 173 174
f 129 174 132
f 129 132 130
f 132 174 175
f 132 175 133
f 133 175 134
f 134 175 176
f 134 176 177
f 134 177 178
f 134 178 135
f 135 178 140
f 135 140 179
f 135 179 136
f 136 179 137
f 137 179 138
f 138 179 139
f 139 179 140
f 140 178 142
f 142 178 180
f 142 180 181
f 142 181 182
f 142 182 183
f 142 183 144
f 142 144 143
f 144 183 184
f 144 184 146
f 144 146 145
f 146 184 214
f 146 214 245
f 146 245 244
f 146 244 243
f 146 243 242
f 146 242 260
f 146 260 259
f 146 259 258
f 146 258 267
f 146 267 266
f 146 266 265
f 146 265 271
f 146 271 270
f 146 270 268
f 146 268 261
f 146 261 246
f 146 246 219
f 146 219 218
f 146 218 217
f 146 217 216
f 146 216 215
f 146 215 185
f 146 185 186
f 146 186 150
f 146 150 149
f 147 150 186
f 147 186 187
f 151 188 189
f 153 190 159
f 153 159 158
f 154 162 191
f 154 191 155
f 155 157 156
f 155 191 192
f 155 192 193
f 155 193 168
f 155 168 167
f 159 190 194
f 159 194 195
f 159 195 160
f 160 195 196
f 160 196 197
f 160 197 161
f 161 197 198
f 161 198 199
f 161 199 162
f 162 199 191
f 168 193 169
f 169 193 200
f 169 200 201
f 169 201 170
f 170 201 202
f 170 202 203
f 170 203 172
f 170 172 171
f 172 204 173
f 172 203 205
f 172 205 176
f 172 176 204
f 173 204 175
f 173 175 174
f 175 204 176
f 176 205 177
f 177 206 207
f 177 207 180
f 177 180 178
f 177 205 206
f 180 207 181
f 181 208 209
f 181 209 210
f 181 210 211
f 181 211 212
f 181 212 213
f 181 213 183
f 181 183 182
f 181 207 208
f 183 213 184
f 184 213 214
f 185 215 187
f 185 187 186
f 188 216 217
f 188 217 218
f 188 218 219
f 188 219 189
f 191 199 220
f 191 220 221
f 191 221 192
f 192 221 201
f 192 201 200
f 192 200 193
f 194 222 195
f 195 222 223
f 195 223 197
f 195 197 196
f 197 224 225
f 197 225 198
f 197 223 226
f 197 226 227
f 197 227 228
f 197 228 229
f 197 229 230
f 197 230 231
f 197 231 232
f 197 232 224
f 198 225 220
f 198 220 199
f 201 221 220
f 201 220 233
f 201 233 202
f 202 233 234
f 202 234 225
f 202 225 224
f 202 224 235
f 202 235 203
f 203 235 205
f 205 235 236
f 205 236 237
f 205 237 206
f 206 237 207
f 207 237 238
f 207 238 239
f 207 239 208
f 208 240 209
f 208 239 241
f 208 241 240
f 209 240 242
f 209 242 243
f 209 243 210
f 210 243 244
f 210 244 211
f 211 244 212
f 212 214 213
f 212 244 245
f 212 245 214
f 220 225 234
f 220 234 233
f 222 226 223
f 224 232 247
f 224 247 235
f 227 248 249
f 227 249 228
f 228 249 250
f 228 250 229
f 229 250 251
f 229 251 252
f 229 252 231
f 229 231 230
f 231 252 253
f 231 253 254
f 231 254 255
f 231 255 247
f 231 247 232
f 235 247 236
f 236 247 237
f 237 247 255
f 237 255 238
f 238 255 240
f 238 240 241
f 238 241 239
f 240 255 254
f 240 254 253
f 240 253 256
f 240 256 257
f 240 257 258
f 240 258 259
f 240 259 260
f 240 260 242
f 246 261 262
f 248 262 263
f 248 263 249
f 249 263 250
f 250 263 251
f 251 263 253
f 251 253 252
f 253 263 264
f 253 264 256
f 256 264 265
f 256 265 266
f 256 266 267
f 256 267 257
f 257 267 258
f 261 268 269
f 261 269 262
f 262 269 263
f 263 269 270
f 263 270 271
f 263 271 272
f 263 272 264
f 264 272 265
f 265 272 271
f 268 270 269

