# https://github.com/mikedh/trimesh
v 0.00764308 -0.06018586 0.02505574
v 0.00760266 -0.06018586 0.02623300
v 0.00764308 -0.06018586 0.02270277
v 0.00764308 -0.04529950 0.01762260
v 0.00736013 -0.06018586 0.02755216
v 0.00761464 -0.04529950 0.01840537
v 0.00759368 -0.04529950 0.01879831
v 0.00763859 -0.06018586 0.02232698
v 0.00764308 -0.05745779 0.01997557
v 0.00764308 -0.04529950 0.01644534
v 0.00722839 -0.06018586 0.02801839
v 0.00739756 -0.04529950 0.01942826
v 0.00762811 -0.06018586 0.02152707
v 0.00762512 -0.05980988 0.02115128
v 0.00763110 -0.05628029 0.01879831
v 0.00763410 -0.05392820 0.01762260
v 0.00764308 -0.05510424 0.01879831
v 0.00764308 -0.04922402 0.01644534
v 0.00764158 -0.04529950 0.01605240
v 0.00716402 -0.06018586 0.02818055
v 0.00729875 -0.04529950 0.01972609
v 0.00758020 -0.06018586 0.02115128
v 0.00760416 -0.05863383 0.01997557
v 0.00757871 -0.05510424 0.01762260
v 0.00762062 -0.05157611 0.01644534
v 0.00764158 -0.05040007 0.01644534
v 0.00764308 -0.05275070 0.01762260
v 0.00763559 -0.04529950 0.01526963
v 0.00684514 -0.06018586 0.02857350
v 0.00669243 -0.04529950 0.02013930
v 0.00739457 -0.06018586 0.02023285
v 0.00754727 -0.05745779 0.01879831
v 0.00735265 -0.05635315 0.01753528
v 0.00728528 -0.05510424 0.01666052
v 0.00755326 -0.05275070 0.01644534
v 0.00752481 -0.04922402 0.01526963
v 0.00758619 -0.04804652 0.01526963
v 0.00761913 -0.04687048 0.01526963
v 0.00763260 -0.04569443 0.01526963
v 0.00733917 -0.04569443 0.01417657
v 0.00732420 -0.04529950 0.01411732
v 0.00655470 -0.06018586 0.02876217
v 0.00641847 -0.04529950 0.02031706
v 0.00731821 -0.06018586 0.01999896
v 0.00736313 -0.05988857 0.01988981
v 0.00730923 -0.05862217 0.01877648
v 0.00725384 -0.05745779 0.01787521
v 0.00734666 -0.05399232 0.01635802
v 0.00717599 -0.05600923 0.01687726
v 0.00715952 -0.05364402 0.01573430
v 0.00725833 -0.05275070 0.01557681
v 0.00742451 -0.05040007 0.01526963
v 0.00729276 -0.04804652 0.01435121
v 0.00732420 -0.04687048 0.01425610
v 0.00719096 -0.04529950 0.01388810
v 0.00628074 -0.06018586 0.02889315
v 0.00528967 -0.04529950 0.02052288
v 0.00528967 -0.06018586 0.02912081
v 0.00539896 -0.06018586 0.02909586
v 0.00709665 -0.06018586 0.01958887
v 0.00719845 -0.05954756 0.01915227
v 0.00714006 -0.05822141 0.01810442
v 0.00696940 -0.05679326 0.01708465
v 0.00697239 -0.05442805 0.01590738
v 0.00706521 -0.05102233 0.01466931
v 0.00713258 -0.05040007 0.01459602
v 0.00727779 -0.05147993 0.01523689
v 0.00723138 -0.04922402 0.01446816
v 0.00694394 -0.04529950 0.01356377
v -0.00529767 -0.04529950 0.02052288
v 0.00411297 -0.06018586 0.02912704
v 0.00682867 -0.06018586 0.01927389
v 0.00672687 -0.05900545 0.01836794
v 0.00618493 -0.05705557 0.01692248
v 0.00653374 -0.05635315 0.01667767
v 0.00653524 -0.05513485 0.01606955
v 0.00638703 -0.05862217 0.01797188
v 0.00653374 -0.05745196 0.01730919
v 0.00618792 -0.05476323 0.01574678
v 0.00653524 -0.05399232 0.01555031
v 0.00639901 -0.05267929 0.01499676
v 0.00674783 -0.05180782 0.01482368
v 0.00596336 -0.05223918 0.01465371
v 0.00639901 -0.05147993 0.01456639
v 0.00646638 -0.05040007 0.01429664
v 0.00646638 -0.04922402 0.01402844
v 0.00639152 -0.04799260 0.01374309
v 0.00668645 -0.04687048 0.01366824
v 0.00689304 -0.04569443 0.01358872
v 0.00630469 -0.04569443 0.01337198
v 0.00638404 -0.04529950 0.01336574
v -0.00603274 -0.04529950 0.02039346
v -0.00529767 -0.06018586 0.02912081
v -0.00415390 -0.06018586 0.02912704
v 0.00631517 -0.06018586 0.01905091
v 0.00594240 -0.05925173 0.01818863
v 0.00528967 -0.05714884 0.01686635
v 0.00528967 -0.05628029 0.01637829
v 0.00528967 -0.05547586 0.01595728
v 0.00528967 -0.05488710 0.01569220
v 0.00528967 -0.05392820 0.01527587
v 0.00528967 -0.05227562 0.01464124
v 0.00528967 -0.05157611 0.01441203
v 0.00528967 -0.05040007 0.01407990
v 0.00594988 -0.04756415 0.01348425
v 0.00528967 -0.05286291 0.01485330
v 0.00609809 -0.04687048 0.01344059
v 0.00596485 -0.04529950 0.01329090
v -0.00642647 -0.04529950 0.02031706
v -0.00614951 -0.06018586 0.02893525
v 0.00571185 -0.06018586 0.01892773
v 0.00528967 -0.06018586 0.01887003
v 0.00528967 -0.05926630 0.01817927
v 0.00528967 -0.05863383 0.01777541
v 0.00528967 -0.05773759 0.01721875
v -0.00529767 -0.05714884 0.01686635
v -0.00529767 -0.05628029 0.01637829
v -0.00529767 -0.05547586 0.01595728
v -0.00529767 -0.05488710 0.01569220
v -0.00529767 -0.05392820 0.01527587
v -0.00529767 -0.05227562 0.01464124
v -0.00529767 -0.05157611 0.01441203
v -0.00529767 -0.05040007 0.01407990
v 0.00528967 -0.04922402 0.01380234
v 0.00528967 -0.04820537 0.01358560
v 0.00528967 -0.04761661 0.01347489
v 0.00528967 -0.04687048 0.01337666
v 0.00528967 -0.04569443 0.01323944
v 0.00528967 -0.04529950 0.01320202
v -0.00529767 -0.05286291 0.01485330
v -0.00685314 -0.06018586 0.02857350
v -0.00628874 -0.06018586 0.02889315
v -0.00730675 -0.04529950 0.01972609
v -0.00529767 -0.06018586 0.01887003
v -0.00529767 -0.05926630 0.01817927
v -0.00529767 -0.05863383 0.01777541
v -0.00529767 -0.05773759 0.01721875
v -0.00595040 -0.05925173 0.01818863
v -0.00619293 -0.05705557 0.01692248
v -0.00619592 -0.05476323 0.01574678
v -0.00597136 -0.05223918 0.01465371
v -0.00595788 -0.04756415 0.01348425
v -0.00529767 -0.04922402 0.01380234
v -0.00529767 -0.04820537 0.01358560
v -0.00529767 -0.04761661 0.01347489
v -0.00529767 -0.04687048 0.01337666
v -0.00529767 -0.04569443 0.01323944
v 0.00136583 -0.04529950 0.01319890
v 0.00371924 -0.04529950 0.01320046
v -0.00723639 -0.06018586 0.02801839
v -0.00760168 -0.04529950 0.01879831
v -0.00632317 -0.06018586 0.01905091
v -0.00683667 -0.06018586 0.01927389
v -0.00673487 -0.05900545 0.01836794
v -0.00639503 -0.05862217 0.01797188
v -0.00654025 -0.05745196 0.01730919
v -0.00697740 -0.05679326 0.01708465
v -0.00654025 -0.05635315 0.01667767
v -0.00654324 -0.05513485 0.01606955
v -0.00698039 -0.05442805 0.01590738
v -0.00654324 -0.05399232 0.01555031
v -0.00640701 -0.05267929 0.01499676
v -0.00675583 -0.05180782 0.01482368
v -0.00707321 -0.05102233 0.01466931
v -0.00640701 -0.05147993 0.01456639
v -0.00647438 -0.05040007 0.01429664
v -0.00647438 -0.04922402 0.01402844
v -0.00639952 -0.04799260 0.01374309
v -0.00669445 -0.04687048 0.01366824
v -0.00610609 -0.04687048 0.01344059
v -0.00529767 -0.04529950 0.01320202
v -0.00059086 -0.04529950 0.01319890
v -0.00745047 -0.06018586 0.02706410
v -0.00765108 -0.04529950 0.01762260
v -0.00762114 -0.06018586 0.02585565
v -0.00760617 -0.05980988 0.02585565
v -0.00701782 -0.06018586 0.01938772
v -0.00714806 -0.05822141 0.01810442
v -0.00718399 -0.05600923 0.01687726
v -0.00716752 -0.05364402 0.01573430
v -0.00714058 -0.05040007 0.01459602
v -0.00726633 -0.05275070 0.01557681
v -0.00690104 -0.04569443 0.01358872
v -0.00631269 -0.04569443 0.01337198
v -0.00639204 -0.04529950 0.01336574
v -0.00765108 -0.05980988 0.02467995
v -0.00765108 -0.04529950 0.01644534
v -0.00765108 -0.06018586 0.02467995
v -0.00720645 -0.05954756 0.01915227
v -0.00732621 -0.06018586 0.01999896
v -0.00726184 -0.05745779 0.01787521
v -0.00731873 -0.05862217 0.01877648
v -0.00729328 -0.05510424 0.01666052
v -0.00728729 -0.05147993 0.01523689
v -0.00723938 -0.04922402 0.01446816
v -0.00743251 -0.05040007 0.01526963
v -0.00735466 -0.05399232 0.01635802
v -0.00756126 -0.05275070 0.01644534
v -0.00695194 -0.04529950 0.01356377
v -0.00662858 -0.04529950 0.01344371
v -0.00765108 -0.04922402 0.01644534
v -0.00764359 -0.04529950 0.01526963
v -0.00765108 -0.06018586 0.02350269
v -0.00737113 -0.05988857 0.01988981
v -0.00758820 -0.06018586 0.02115128
v -0.00736214 -0.05635315 0.01753528
v -0.00755676 -0.05745779 0.01879831
v -0.00758671 -0.05510424 0.01762260
v -0.00730076 -0.04804652 0.01435121
v -0.00753281 -0.04922402 0.01526963
v -0.00762862 -0.05157611 0.01644534
v -0.00733220 -0.04529950 0.01411732
v -0.00733370 -0.04687048 0.01425610
v -0.00764958 -0.05040007 0.01644534
v -0.00765108 -0.05275070 0.01762260
v -0.00744748 -0.04529950 0.01454145
v -0.00734717 -0.04569443 0.01417657
v -0.00764060 -0.04569443 0.01526963
v -0.00765108 -0.05980988 0.02232698
v -0.00764659 -0.06018586 0.02232698
v -0.00761216 -0.05863383 0.01997557
v -0.00763461 -0.05980988 0.02115128
v -0.00764359 -0.05392820 0.01762260
v -0.00763910 -0.05628029 0.01879831
v -0.00759419 -0.04804652 0.01526963
v -0.00762713 -0.04687048 0.01526963
v -0.00765108 -0.05510424 0.01879831
v -0.00765108 -0.05745779 0.01997557
f 1 2 5
f 1 5 11
f 1 11 20
f 1 20 29
f 1 29 42
f 1 42 56
f 1 56 59
f 1 59 58
f 1 58 71
f 1 71 94
f 1 94 93
f 1 93 110
f 1 110 132
f 1 132 131
f 1 131 150
f 1 150 173
f 1 173 175
f 1 175 188
f 1 188 203
f 1 203 220
f 1 220 205
f 1 205 190
f 1 190 177
f 1 177 153
f 1 153 152
f 1 152 134
f 1 134 112
f 1 112 111
f 1 111 95
f 1 95 72
f 1 72 60
f 1 60 44
f 1 44 31
f 1 31 22
f 1 22 13
f 1 13 8
f 1 8 3
f 1 3 9
f 1 9 17
f 1 17 27
f 1 27 18
f 1 18 10
f 1 10 4
f 1 4 2
f 2 4 6
f 2 6 7
f 2 7 5
f 3 8 9
f 4 10 19
f 4 19 28
f 4 28 41
f 4 41 55
f 4 55 69
f 4 69 91
f 4 91 108
f 4 108 129
f 4 129 149
f 4 149 148
f 4 148 172
f 4 172 171
f 4 171 185
f 4 185 200
f 4 200 199
f 4 199 212
f 4 212 216
f 4 216 202
f 4 202 187
f 4 187 174
f 4 174 151
f 4 151 133
f 4 133 109
f 4 109 92
f 4 92 70
f 4 70 57
f 4 57 43
f 4 43 30
f 4 30 21
f 4 21 12
f 4 12 7
f 4 7 6
f 5 7 11
f 7 12 11
f 8 13 9
f 9 13 14
f 9 14 15
f 9 15 16
f 9 16 17
f 10 18 19
f 11 12 21
f 11 21 20
f 13 22 14
f 14 22 23
f 14 23 15
f 15 23 24
f 15 24 16
f 16 24 25
f 16 25 26
f 16 26 27
f 16 27 17
f 18 26 28
f 18 28 19
f 18 27 26
f 20 21 29
f 21 30 29
f 22 31 23
f 23 32 24
f 23 31 32
f 24 33 34
f 24 34 35
f 24 35 25
f 24 32 33
f 25 35 36
f 25 36 37
f 25 37 38
f 25 38 26
f 26 38 39
f 26 39 28
f 28 39 40
f 28 40 41
f 29 30 42
f 30 43 42
f 31 44 45
f 31 45 32
f 32 45 46
f 32 46 47
f 32 47 33
f 33 47 34
f 34 48 35
f 34 47 49
f 34 49 50
f 34 50 51
f 34 51 48
f 35 48 51
f 35 51 52
f 35 52 36
f 36 52 53
f 36 53 54
f 36 54 37
f 37 54 40
f 37 40 38
f 38 40 39
f 40 55 41
f 40 54 55
f 42 43 56
f 43 57 58
f 43 58 59
f 43 59 56
f 44 60 61
f 44 61 45
f 45 61 46
f 46 61 62
f 46 62 47
f 47 62 49
f 49 62 63
f 49 63 64
f 49 64 50
f 50 64 65
f 50 65 51
f 51 65 66
f 51 66 67
f 51 67 52
f 52 67 68
f 52 68 53
f 53 68 69
f 53 69 55
f 53 55 54
f 57 70 94
f 57 94 71
f 57 71 58
f 60 72 61
f 61 72 62
f 62 72 73
f 62 73 63
f 63 74 75
f 63 75 76
f 63 76 64
f 63 73 77
f 63 77 78
f 63 78 74
f 64 79 80
f 64 80 81
f 64 81 82
f 64 82 65
f 64 76 79
f 65 82 83
f 65 83 84
f 65 84 85
f 65 85 86
f 65 86 87
f 65 87 88
f 65 88 66
f 66 68 67
f 66 88 89
f 66 89 68
f 68 89 69
f 69 89 90
f 69 90 91
f 70 92 93
f 70 93 94
f 72 95 96
f 72 96 73
f 73 96 77
f 74 78 77
f 74 77 96
f 74 96 97
f 74 97 98
f 74 98 99
f 74 99 79
f 74 79 75
f 75 79 76
f 79 99 100
f 79 100 101
f 79 101 83
f 79 83 80
f 80 83 81
f 81 83 82
f 83 102 103
f 83 103 104
f 83 104 105
f 83 105 85
f 83 85 84
f 83 101 106
f 83 106 102
f 85 105 86
f 86 105 87
f 87 105 88
f 88 105 107
f 88 107 89
f 89 107 90
f 90 108 91
f 90 107 108
f 92 109 93
f 93 109 110
f 95 111 96
f 96 111 112
f 96 112 113
f 96 113 114
f 96 114 115
f 96 115 97
f 97 116 117
f 97 117 98
f 97 115 137
f 97 137 116
f 98 117 118
f 98 118 99
f 99 118 119
f 99 119 100
f 100 119 120
f 100 120 101
f 101 120 130
f 101 130 106
f 102 106 130
f 102 130 121
f 102 121 122
f 102 122 103
f 103 122 123
f 103 123 104
f 104 123 143
f 104 143 124
f 104 124 105
f 105 124 125
f 105 125 126
f 105 126 127
f 105 127 128
f 105 128 129
f 105 129 107
f 107 129 108
f 109 131 132
f 109 132 110
f 109 133 131
f 112 134 135
f 112 135 113
f 113 135 136
f 113 136 114
f 114 136 137
f 114 137 115
f 116 137 138
f 116 138 139
f 116 139 117
f 117 139 118
f 118 140 119
f 118 139 140
f 119 140 120
f 120 140 141
f 120 141 130
f 121 130 141
f 121 141 122
f 122 141 123
f 123 142 143
f 123 141 142
f 124 143 144
f 124 144 125
f 125 144 145
f 125 145 126
f 126 145 146
f 126 146 127
f 127 146 147
f 127 147 128
f 128 147 172
f 128 172 148
f 128 148 149
f 128 149 129
f 131 133 150
f 133 151 150
f 134 152 138
f 134 138 135
f 135 138 136
f 136 138 137
f 138 152 153
f 138 153 154
f 138 154 155
f 138 155 139
f 139 155 156
f 139 156 157
f 139 157 158
f 139 158 140
f 140 158 159
f 140 159 160
f 140 160 161
f 140 161 141
f 141 161 162
f 141 162 163
f 141 163 164
f 141 164 165
f 141 165 166
f 141 166 142
f 142 144 143
f 142 166 167
f 142 167 168
f 142 168 169
f 142 169 170
f 142 170 171
f 142 171 147
f 142 147 146
f 142 146 145
f 142 145 144
f 147 171 172
f 150 151 173
f 151 174 175
f 151 175 176
f 151 176 173
f 153 177 154
f 154 177 178
f 154 178 157
f 154 157 155
f 155 157 156
f 157 179 160
f 157 160 159
f 157 159 158
f 157 178 179
f 160 180 164
f 160 164 163
f 160 163 162
f 160 162 161
f 160 179 180
f 164 181 169
f 164 169 168
f 164 168 167
f 164 167 166
f 164 166 165
f 164 180 182
f 164 182 181
f 169 183 170
f 169 181 183
f 170 184 171
f 170 183 184
f 171 184 185
f 173 176 175
f 174 186 175
f 174 187 201
f 174 201 215
f 174 215 227
f 174 227 228
f 174 228 219
f 174 219 203
f 174 203 188
f 174 188 186
f 175 186 188
f 177 189 178
f 177 190 189
f 178 191 179
f 178 189 192
f 178 192 191
f 179 191 193
f 179 193 180
f 180 193 182
f 181 182 194
f 181 194 195
f 181 195 183
f 182 196 194
f 182 193 197
f 182 197 198
f 182 198 196
f 183 199 200
f 183 200 184
f 183 195 199
f 184 200 185
f 187 202 201
f 189 190 204
f 189 204 192
f 190 205 204
f 191 206 193
f 191 192 207
f 191 207 206
f 192 204 207
f 193 206 208
f 193 208 198
f 193 198 197
f 194 196 195
f 195 196 209
f 195 209 199
f 196 198 210
f 196 210 209
f 198 211 210
f 198 208 211
f 199 209 213
f 199 213 212
f 201 214 215
f 201 202 214
f 202 216 217
f 202 217 218
f 202 218 214
f 203 219 220
f 204 221 207
f 204 205 221
f 205 222 221
f 205 220 222
f 206 207 208
f 207 221 208
f 208 223 211
f 208 221 224
f 208 224 223
f 209 210 213
f 210 225 213
f 210 211 225
f 211 223 214
f 211 214 226
f 211 226 225
f 212 213 217
f 212 217 216
f 213 225 217
f 214 223 215
f 214 218 226
f 215 223 227
f 217 225 226
f 217 226 218
f 219 228 220
f 220 228 222
f 221 222 224
f 222 228 224
f 223 224 228
f 223 228 227

