# https://github.com/mikedh/trimesh
v 0.03730214 0.02355429 0.00584219
v 0.03759931 0.02305694 0.00584219
v 0.03719334 0.02355429 0.00497424
v 0.03067173 0.02355429 0.00584219
v 0.03794845 0.02246851 0.00584219
v 0.03787700 0.02234747 0.00468002
v 0.03715599 0.02355429 0.00468002
v 0.02579352 0.02355429 0.00439642
v 0.02579839 0.02304975 0.00439642
v 0.03663796 0.01131224 0.00584219
v 0.03854443 0.02141148 0.00584219
v 0.03883186 0.02080148 0.00521596
v 0.03848922 0.02126288 0.00476635
v 0.03819204 0.02162361 0.00439642
v 0.03783640 0.02227795 0.00439642
v 0.03712838 0.02355429 0.00460120
v 0.03760581 0.02266385 0.00439642
v 0.03705531 0.02355429 0.00439642
v 0.03253760 0.01131224 0.00439642
v 0.04238172 0.01131224 0.00584219
v 0.03884972 0.02083623 0.00584219
v 0.03874254 0.02062411 0.00443180
v 0.03915502 0.02020466 0.00584219
v 0.03998970 0.01840940 0.00546390
v 0.03957399 0.01901461 0.00468002
v 0.03901698 0.02021544 0.00476635
v 0.03871494 0.02065167 0.00439642
v 0.04216087 0.01131224 0.00439642
v 0.04236710 0.01131224 0.00531913
v 0.04236061 0.01140812 0.00584219
v 0.03935638 0.01929504 0.00439642
v 0.03875391 0.02057617 0.00439642
v 0.03978022 0.01888757 0.00584219
v 0.04015697 0.01766397 0.00468002
v 0.03992475 0.01825240 0.00468002
v 0.04017808 0.01796238 0.00584219
v 0.04068149 0.01667525 0.00584219
v 0.04104849 0.01572250 0.00584219
v 0.04122712 0.01504298 0.00498868
v 0.04124498 0.01462353 0.00439642
v 0.04222095 0.01131224 0.00458775
v 0.04235574 0.01131224 0.00521738
v 0.04235087 0.01137456 0.00525913
v 0.04219659 0.01198217 0.00584219
v 0.03997834 0.01793841 0.00439642
v 0.04054346 0.01666207 0.00468002
v 0.04108097 0.01510890 0.00439642
v 0.04012286 0.01757408 0.00439642
v 0.04126285 0.01514365 0.00584219
v 0.04151942 0.01432152 0.00584219
v 0.04152267 0.01431073 0.00584219
v 0.04136353 0.01438264 0.00462993
v 0.04099653 0.01545525 0.00462993
v 0.04173378 0.01313267 0.00468002
v 0.04212514 0.01184195 0.00479225
v 0.04186044 0.01314705 0.00584219
f 1 2 3
f 1 3 7
f 1 7 16
f 1 16 18
f 1 18 8
f 1 8 4
f 1 4 10
f 1 10 20
f 1 20 30
f 1 30 44
f 1 44 56
f 1 56 51
f 1 51 50
f 1 50 49
f 1 49 38
f 1 38 37
f 1 37 36
f 1 36 33
f 1 33 23
f 1 23 21
f 1 21 11
f 1 11 5
f 1 5 2
f 2 5 6
f 2 6 3
f 3 6 7
f 4 8 9
f 4 9 10
f 5 11 12
f 5 12 6
f 6 13 14
f 6 14 15
f 6 15 7
f 6 12 13
f 7 15 17
f 7 17 16
f 8 18 17
f 8 17 15
f 8 15 14
f 8 14 27
f 8 27 32
f 8 32 31
f 8 31 45
f 8 45 48
f 8 48 47
f 8 47 40
f 8 40 28
f 8 28 19
f 8 19 9
f 9 19 10
f 10 19 28
f 10 28 41
f 10 41 42
f 10 42 29
f 10 29 20
f 11 21 12
f 12 22 13
f 12 21 23
f 12 23 24
f 12 24 25
f 12 25 26
f 12 26 22
f 13 22 14
f 14 22 27
f 16 17 18
f 20 29 30
f 22 26 25
f 22 25 31
f 22 31 32
f 22 32 27
f 23 33 24
f 24 34 35
f 24 35 25
f 24 33 36
f 24 36 37
f 24 37 38
f 24 38 39
f 24 39 34
f 25 35 31
f 28 40 41
f 29 42 43
f 29 43 30
f 30 43 44
f 31 35 45
f 34 46 47
f 34 47 48
f 34 48 35
f 34 39 46
f 35 48 45
f 38 49 39
f 39 49 50
f 39 50 51
f 39 51 43
f 39 43 52
f 39 52 40
f 39 40 47
f 39 47 53
f 39 53 46
f 40 52 54
f 40 54 55
f 40 55 41
f 41 55 43
f 41 43 42
f 43 55 54
f 43 54 52
f 43 51 56
f 43 56 44
f 46 53 47

