# https://github.com/mikedh/trimesh
v -0.05865991 0.03500034 0.04096426
v -0.05865105 0.03500034 0.04600500
v -0.05845178 0.03544647 0.04600500
v -0.05824897 0.03587881 0.04600500
v -0.05845001 0.03544647 0.04096426
v -0.05175114 0.03500034 0.04096426
v -0.05578428 0.03500034 0.04600500
v -0.05806831 0.03626102 0.04600500
v -0.05837031 0.03561564 0.04096426
v -0.05163600 0.03544647 0.04096426
v -0.04961235 0.04400555 0.04600500
v -0.05792749 0.03653922 0.04600500
v -0.05806476 0.03623846 0.04188399
v -0.05687980 0.03852548 0.04188399
v -0.05805325 0.03622593 0.04096426
v -0.04961235 0.04345918 0.04096426
v -0.04961235 0.04771616 0.04600500
v -0.05776454 0.03684625 0.04600500
v -0.05689220 0.03853927 0.04305289
v -0.05555313 0.04061074 0.04305289
v -0.05649986 0.03911071 0.04188399
v -0.05590295 0.03996787 0.04096426
v -0.05656894 0.03893276 0.04096426
v -0.05684526 0.03847285 0.04096426
v -0.05714460 0.03794276 0.04096426
v -0.05764232 0.03701668 0.04096426
v -0.04961235 0.04777882 0.04096426
v -0.04961235 0.04774749 0.04557277
v -0.05002151 0.04733395 0.04600500
v -0.05750416 0.03733498 0.04600500
v -0.05726239 0.03778361 0.04600500
v -0.05705249 0.03816958 0.04600500
v -0.05686385 0.03851045 0.04600500
v -0.05669824 0.03878739 0.04600500
v -0.05651226 0.03909442 0.04600500
v -0.05592775 0.04000171 0.04600500
v -0.05553187 0.04058192 0.04188399
v -0.05554693 0.04060322 0.04422130
v -0.05506958 0.04129121 0.04422130
v -0.05507223 0.04129121 0.04305289
v -0.05454263 0.04200927 0.04096426
v -0.05502264 0.04129121 0.04096426
v -0.04972925 0.04768483 0.04096426
v -0.04961235 0.04780012 0.04422130
v -0.04974076 0.04769361 0.04422130
v -0.04961235 0.04780138 0.04446505
v -0.05088234 0.04649684 0.04600500
v -0.05574000 0.04027865 0.04600500
v -0.05553099 0.04058568 0.04600500
v -0.05504921 0.04129121 0.04600500
v -0.05455414 0.04201428 0.04539020
v -0.05455149 0.04201303 0.04422130
v -0.05352327 0.04337146 0.04305289
v -0.05307692 0.04395041 0.04188399
v -0.05397406 0.04275866 0.04096426
v -0.04986121 0.04756077 0.04096426
v -0.05092396 0.04653443 0.04188399
v -0.05091422 0.04652441 0.04305289
v -0.05116662 0.04618856 0.04600500
v -0.05454706 0.04200676 0.04600500
v -0.05307515 0.04394164 0.04600500
v -0.05308134 0.04394791 0.04539020
v -0.05306541 0.04394164 0.04096426
v -0.05249683 0.04466973 0.04539020
v -0.05249241 0.04466597 0.04188399
v -0.05248089 0.04466722 0.04096426
v -0.05031731 0.04710086 0.04096426
v -0.05090182 0.04651062 0.04096426
v -0.05187070 0.04540157 0.04096426
v -0.05210184 0.04512713 0.04096426
v -0.05200443 0.04525997 0.04600500
v -0.05169711 0.04560333 0.04600500
v -0.05141991 0.04591161 0.04600500
v -0.05276872 0.04433263 0.04600500
v -0.05249063 0.04467600 0.04600500
f 1 2 3
f 1 3 4
f 1 4 5
f 1 5 9
f 1 9 15
f 1 15 26
f 1 26 25
f 1 25 24
f 1 24 23
f 1 23 22
f 1 22 42
f 1 42 41
f 1 41 55
f 1 55 63
f 1 63 66
f 1 66 70
f 1 70 69
f 1 69 68
f 1 68 67
f 1 67 56
f 1 56 43
f 1 43 27
f 1 27 16
f 1 16 10
f 1 10 6
f 1 6 7
f 1 7 2
f 2 7 11
f 2 11 17
f 2 17 29
f 2 29 47
f 2 47 59
f 2 59 73
f 2 73 72
f 2 72 71
f 2 71 75
f 2 75 74
f 2 74 61
f 2 61 60
f 2 60 50
f 2 50 49
f 2 49 48
f 2 48 36
f 2 36 35
f 2 35 34
f 2 34 33
f 2 33 32
f 2 32 31
f 2 31 30
f 2 30 18
f 2 18 12
f 2 12 8
f 2 8 4
f 2 4 3
f 4 8 9
f 4 9 5
f 6 10 11
f 6 11 7
f 8 12 13
f 8 13 9
f 9 13 14
f 9 14 15
f 10 16 11
f 11 16 27
f 11 27 44
f 11 44 46
f 11 46 28
f 11 28 17
f 12 18 19
f 12 19 13
f 13 19 14
f 14 19 20
f 14 20 21
f 14 21 22
f 14 22 23
f 14 23 24
f 14 24 25
f 14 25 26
f 14 26 15
f 17 28 29
f 18 30 19
f 19 30 31
f 19 31 32
f 19 32 33
f 19 33 34
f 19 34 35
f 19 35 36
f 19 36 20
f 20 37 21
f 20 36 38
f 20 38 39
f 20 39 40
f 20 40 41
f 20 41 37
f 21 37 22
f 22 37 42
f 27 43 44
f 28 45 29
f 28 46 45
f 29 45 47
f 36 48 38
f 37 41 42
f 38 49 50
f 38 50 39
f 38 48 49
f 39 50 51
f 39 51 40
f 40 51 52
f 40 52 41
f 41 52 53
f 41 53 54
f 41 54 55
f 43 56 45
f 43 45 44
f 44 45 46
f 45 56 57
f 45 57 58
f 45 58 47
f 47 58 59
f 50 60 51
f 51 60 61
f 51 61 62
f 51 62 53
f 51 53 52
f 53 62 54
f 54 63 55
f 54 62 64
f 54 64 65
f 54 65 66
f 54 66 63
f 56 67 57
f 57 67 68
f 57 68 69
f 57 69 70
f 57 70 65
f 57 65 71
f 57 71 72
f 57 72 73
f 57 73 58
f 58 73 59
f 61 74 62
f 62 74 64
f 64 75 71
f 64 71 65
f 64 74 75
f 65 70 66

