# https://github.com/mikedh/trimesh
v -0.03891055 0.02739508 0.02434242
v -0.03891247 0.02739508 0.02550013
v -0.03987835 0.01168075 0.02668414
v -0.03993596 0.01168075 0.02469199
v -0.03995516 0.01168075 0.02434242
v -0.04001660 0.01168075 0.02362826
v -0.04007037 0.01168075 0.02320352
v -0.03905649 0.02739508 0.02324862
v -0.03898736 0.02739508 0.02668414
v -0.03993403 0.01168075 0.02782681
v -0.04032384 0.01168075 0.02201199
v -0.04043714 0.01168075 0.02153462
v -0.04058308 0.01168075 0.02094449
v -0.03912370 0.02739508 0.02299678
v -0.03907185 0.02739508 0.02785312
v -0.03918898 0.02739508 0.02869508
v -0.03923507 0.02739508 0.02901834
v -0.03931380 0.02739508 0.02937542
v -0.03948278 0.02739508 0.03009711
v -0.04019519 0.01168075 0.02889054
v -0.04094216 0.01168075 0.01967779
v -0.03938293 0.02739508 0.02211723
v -0.03949622 0.02739508 0.03014973
v -0.03950583 0.02739508 0.03018356
v -0.03985339 0.02739508 0.03119843
v -0.03995708 0.02739508 0.03144275
v -0.04046018 0.01168075 0.02951074
v -0.04117451 0.01168075 0.01904256
v -0.04065796 0.02739508 0.01852009
v -0.03986683 0.02739508 0.02071145
v -0.03982074 0.02739508 0.02083925
v -0.04030848 0.02739508 0.03214188
v -0.04152015 0.01168075 0.03184118
v -0.04129548 0.01168075 0.03134878
v -0.04078278 0.01168075 0.03022114
v -0.04133581 0.01168075 0.01861406
v -0.04116875 0.02739508 0.01727593
v -0.04166033 0.01168075 0.03210053
v -0.04054083 0.02739508 0.03255158
v -0.04236314 0.01168075 0.01617461
v -0.04270110 0.01168075 0.01547924
v -0.04137421 0.02739508 0.01687750
v -0.04060036 0.02739508 0.03265307
v -0.04130124 0.02739508 0.03370177
v -0.04196372 0.01168075 0.03252527
v -0.04289504 0.01168075 0.01511840
v -0.04163537 0.02739508 0.01638134
v -0.04256476 0.01168075 0.03336348
v -0.04165649 0.02739508 0.03418665
v -0.04300833 0.01168075 0.01492294
v -0.04180050 0.02739508 0.01608816
v -0.04271454 0.01168075 0.03355518
v -0.04214231 0.02739508 0.03477678
v -0.04303330 0.01168075 0.03394985
v -0.04342311 0.01168075 0.01425012
v -0.04248411 0.02739508 0.01499060
v -0.04273758 0.02739508 0.03546839
v -0.04361705 0.01168075 0.03462643
v -0.04362281 0.01168075 0.01394190
v -0.04251867 0.02739508 0.01494173
v -0.04388204 0.01168075 0.01355851
v -0.04401454 0.01168075 0.01337057
v -0.04330405 0.02739508 0.03599838
v -0.04582724 0.01168075 0.03695686
v -0.04527997 0.01168075 0.03642688
v -0.04475767 0.01168075 0.03587810
v -0.04414319 0.01168075 0.03520904
v -0.04321188 0.02739508 0.01396445
v -0.04429489 0.01168075 0.01298341
v -0.04331941 0.02739508 0.01381410
v -0.04395501 0.02739508 0.03659602
v -0.04656461 0.01168075 0.03756203
v -0.04455412 0.01168075 0.01263009
v -0.04501882 0.01168075 0.01200614
v -0.04396653 0.02739508 0.01297966
v -0.04440626 0.02739508 0.03694935
v -0.04526077 0.02739508 0.03758834
v -0.04531838 0.02739508 0.03762968
v -0.04714836 0.01168075 0.03797549
v -0.04529341 0.01168075 0.01165281
v -0.04423536 0.02739508 0.01264137
v -0.04581572 0.02739508 0.03796797
v -0.04804319 0.01168075 0.03856938
v -0.04489016 0.02739508 0.01182571
v -0.04433714 0.02739508 0.01251357
v -0.04588677 0.01168075 0.01092361
v -0.04589253 0.02739508 0.03801684
v -0.04862694 0.01168075 0.03894525
v -0.04494585 0.02739508 0.01175806
v -0.04607879 0.01168075 0.01070936
v -0.04537982 0.02739508 0.01123934
v -0.04691217 0.02739508 0.03865207
v -0.04742680 0.02739508 0.03896029
v -0.04880744 0.01168075 0.03905050
v -0.04597510 0.02739508 0.01058156
v -0.04664334 0.01168075 0.01012299
v -0.04651852 0.02739508 0.01001023
v -0.04787421 0.02739508 0.03918206
v -0.04918189 0.01168075 0.03924971
v -0.04703699 0.01168075 0.00973583
v -0.04709267 0.02739508 0.00944265
v -0.04904940 0.02739508 0.03971204
v -0.05038204 0.01168075 0.03982105
v -0.04722901 0.01168075 0.00955541
v -0.04767835 0.01168075 0.00916074
v -0.04778012 0.02739508 0.00884501
v -0.04919341 0.02739508 0.03977594
v -0.05104260 0.01168075 0.04009168
v -0.04829474 0.01168075 0.00863452
v -0.04848676 0.01168075 0.00847665
v -0.04836195 0.02739508 0.00839020
v -0.04995191 0.02739508 0.04006913
v -0.05120390 0.01168075 0.04014806
v -0.04892074 0.01168075 0.00816467
v -0.05506742 0.01323587 0.00350755
v -0.05504245 0.01440337 0.00350755
v -0.04924910 0.02739508 0.00775496
v -0.05052798 0.02739508 0.04024203
v -0.05159947 0.01168075 0.04027962
v -0.04972340 0.01168075 0.00758958
v -0.05513846 0.01301437 0.00350755
v -0.05534969 0.01548935 0.00350755
v -0.05583167 0.02730432 0.00360904
v -0.05582015 0.02739508 0.00361279
v -0.05011513 0.02739508 0.00717987
v -0.04940080 0.02739508 0.00764972
v -0.05152074 0.02739508 0.04049763
v -0.05268824 0.01168075 0.04057656
v -0.05201040 0.01168075 0.04039614
v -0.05021114 0.01168075 0.00727384
v -0.05540154 0.01237140 0.00350755
v -0.05690508 0.01883495 0.00350755
v -0.05606594 0.02739508 0.00360904
v -0.05255574 0.02739508 0.04071564
v -0.05852576 0.01168075 0.04190717
v -0.05043965 0.01168075 0.00712725
v -0.05594880 0.01191609 0.00350755
v -0.05852576 0.01883495 0.00350755
v -0.05793240 0.02739508 0.00360904
v -0.05269016 0.02739508 0.04073819
v -0.05385767 0.02739508 0.04089230
v -0.05793240 0.02739200 0.04131704
v -0.05852576 0.01788588 0.04021196
v -0.05852576 0.01168075 0.00350755
v -0.05107908 0.01168075 0.00672882
v -0.05652679 0.01168075 0.00350755
v -0.05244437 0.01168075 0.00589437
v -0.05327583 0.01168075 0.00540197
v -0.05852576 0.01883495 0.03994885
v -0.05793240 0.02739508 0.04129825
v -0.05792473 0.02739508 0.04130201
f 1 2 3
f 1 3 4
f 1 4 5
f 1 5 6
f 1 6 7
f 1 7 8
f 1 8 14
f 1 14 22
f 1 22 31
f 1 31 30
f 1 30 29
f 1 29 37
f 1 37 42
f 1 42 47
f 1 47 51
f 1 51 56
f 1 56 60
f 1 60 68
f 1 68 70
f 1 70 75
f 1 75 81
f 1 81 85
f 1 85 84
f 1 84 89
f 1 89 91
f 1 91 95
f 1 95 97
f 1 97 101
f 1 101 106
f 1 106 111
f 1 111 117
f 1 117 126
f 1 126 125
f 1 125 124
f 1 124 133
f 1 133 139
f 1 139 150
f 1 150 151
f 1 151 141
f 1 141 140
f 1 140 134
f 1 134 127
f 1 127 118
f 1 118 112
f 1 112 107
f 1 107 102
f 1 102 98
f 1 98 93
f 1 93 92
f 1 92 87
f 1 87 82
f 1 82 78
f 1 78 77
f 1 77 76
f 1 76 71
f 1 71 63
f 1 63 57
f 1 57 53
f 1 53 49
f 1 49 44
f 1 44 43
f 1 43 39
f 1 39 32
f 1 32 26
f 1 26 25
f 1 25 24
f 1 24 23
f 1 23 19
f 1 19 18
f 1 18 17
f 1 17 16
f 1 16 15
f 1 15 9
f 1 9 2
f 2 9 10
f 2 10 3
f 3 10 20
f 3 20 27
f 3 27 35
f 3 35 34
f 3 34 33
f 3 33 38
f 3 38 45
f 3 45 48
f 3 48 52
f 3 52 54
f 3 54 58
f 3 58 67
f 3 67 66
f 3 66 65
f 3 65 64
f 3 64 72
f 3 72 79
f 3 79 83
f 3 83 88
f 3 88 94
f 3 94 99
f 3 99 103
f 3 103 108
f 3 108 113
f 3 113 119
f 3 119 129
f 3 129 128
f 3 128 135
f 3 135 144
f 3 144 146
f 3 146 148
f 3 148 147
f 3 147 145
f 3 145 136
f 3 136 130
f 3 130 120
f 3 120 114
f 3 114 110
f 3 110 109
f 3 109 105
f 3 105 104
f 3 104 100
f 3 100 96
f 3 96 90
f 3 90 86
f 3 86 80
f 3 80 74
f 3 74 73
f 3 73 69
f 3 69 62
f 3 62 61
f 3 61 59
f 3 59 55
f 3 55 50
f 3 50 46
f 3 46 41
f 3 41 40
f 3 40 36
f 3 36 28
f 3 28 21
f 3 21 13
f 3 13 12
f 3 12 11
f 3 11 7
f 3 7 6
f 3 6 5
f 3 5 4
f 7 11 8
f 8 11 12
f 8 12 13
f 8 13 14
f 9 15 10
f 10 15 16
f 10 16 17
f 10 17 18
f 10 18 19
f 10 19 20
f 13 21 14
f 14 21 22
f 19 23 20
f 20 23 24
f 20 24 25
f 20 25 26
f 20 26 27
f 21 28 29
f 21 29 30
f 21 30 31
f 21 31 22
f 26 32 33
f 26 33 34
f 26 34 35
f 26 35 27
f 28 36 29
f 29 36 37
f 32 38 33
f 32 39 38
f 36 40 37
f 37 40 41
f 37 41 42
f 38 39 43
f 38 43 44
f 38 44 45
f 41 46 47
f 41 47 42
f 44 48 45
f 44 49 48
f 46 50 51
f 46 51 47
f 48 49 52
f 49 53 54
f 49 54 52
f 50 55 51
f 51 55 56
f 53 57 54
f 54 57 58
f 55 59 56
f 56 59 61
f 56 61 62
f 56 62 60
f 57 63 64
f 57 64 65
f 57 65 66
f 57 66 67
f 57 67 58
f 60 62 68
f 62 69 70
f 62 70 68
f 63 71 64
f 64 71 72
f 69 73 70
f 70 73 74
f 70 74 75
f 71 76 72
f 72 76 77
f 72 77 78
f 72 78 79
f 74 80 75
f 75 80 81
f 78 82 79
f 79 82 83
f 80 84 85
f 80 85 81
f 80 86 84
f 82 87 88
f 82 88 83
f 84 86 89
f 86 90 91
f 86 91 89
f 87 92 88
f 88 92 93
f 88 93 94
f 90 95 91
f 90 96 97
f 90 97 95
f 93 98 99
f 93 99 94
f 96 100 101
f 96 101 97
f 98 102 103
f 98 103 99
f 100 104 101
f 101 104 105
f 101 105 106
f 102 107 103
f 103 107 108
f 105 109 106
f 106 109 110
f 106 110 111
f 107 112 108
f 108 112 113
f 110 114 115
f 110 115 116
f 110 116 111
f 111 116 117
f 112 118 119
f 112 119 113
f 114 120 115
f 115 121 131
f 115 131 137
f 115 137 146
f 115 146 144
f 115 144 138
f 115 138 132
f 115 132 122
f 115 122 116
f 115 120 121
f 116 122 123
f 116 123 124
f 116 124 125
f 116 125 126
f 116 126 117
f 118 127 128
f 118 128 129
f 118 129 119
f 120 130 131
f 120 131 121
f 122 132 123
f 123 133 124
f 123 132 133
f 127 134 135
f 127 135 128
f 130 136 131
f 131 136 137
f 132 138 139
f 132 139 133
f 134 140 135
f 135 140 141
f 135 141 142
f 135 142 143
f 135 143 149
f 135 149 138
f 135 138 144
f 136 145 137
f 137 145 147
f 137 147 148
f 137 148 146
f 138 149 150
f 138 150 139
f 141 151 142
f 142 151 150
f 142 150 149
f 142 149 143

