# https://github.com/mikedh/trimesh
v 0.01902736 0.02938174 0.04188332
v 0.01895698 0.02960058 0.04188332
v 0.01895698 0.02960058 0.04217474
v 0.01901856 0.02938174 0.04217474
v 0.01901856 0.02938174 0.03837501
v 0.01857869 0.03076999 0.04217474
v 0.01894818 0.02960058 0.03837501
v 0.01629433 0.02938174 0.04217474
v 0.01853178 0.03076999 0.03369726
v 0.01857283 0.02938174 0.00915420
v 0.01830598 0.03158573 0.04217474
v 0.01820041 0.03181203 0.03603613
v 0.01427389 0.03344148 0.04217474
v 0.00743252 0.03236014 0.04014998
v 0.00763779 0.03158031 0.04009321
v 0.00805420 0.03069885 0.04000995
v 0.00809819 0.02938174 0.03970340
v 0.01819455 0.03179577 0.03486670
v 0.01850538 0.02960058 0.00915420
v 0.01799807 0.03122732 0.00915420
v 0.01776055 0.03193872 0.00915420
v 0.01853471 0.02938174 0.00798476
v 0.01821214 0.03186284 0.04217474
v 0.01798634 0.03239673 0.03603613
v 0.01800687 0.03244687 0.04217474
v 0.01816229 0.03200851 0.04217474
v 0.01393372 0.03416236 0.04217474
v 0.00729470 0.03310678 0.04019540
v 0.00671114 0.03310678 0.04001374
v 0.00699559 0.03195769 0.03994940
v 0.01344694 0.03531348 0.04217474
v 0.00692814 0.03076999 0.03965042
v 0.00686363 0.02938174 0.03924168
v 0.01798048 0.03238047 0.03486670
v 0.01846726 0.02960058 0.00798476
v 0.01797755 0.03116838 0.00798476
v 0.01769897 0.03193872 0.00798476
v 0.01725910 0.03310678 0.00915420
v 0.01687495 0.03488054 0.03067716
v 0.01769017 0.03310678 0.03486670
v 0.01843501 0.02938174 0.00703483
v 0.01778987 0.03294756 0.04217474
v 0.01320941 0.03591377 0.04217474
v 0.01305693 0.03630267 0.04217474
v 0.00263213 0.03630267 0.03901839
v 0.00205738 0.03630267 0.03883295
v 0.00106035 0.03630267 0.03846206
v -0.00005397 0.03630267 0.03803440
v 0.00575811 0.03193872 0.03944605
v 0.00574638 0.03083368 0.03916599
v 0.00612759 0.02983365 0.03906002
v 0.00679325 0.02938174 0.03921519
v 0.01834410 0.02960058 0.00681532
v 0.01790424 0.03096715 0.00681532
v 0.01755234 0.03193872 0.00681532
v 0.01709782 0.03304580 0.00681532
v 0.01603628 0.03544492 0.00681532
v 0.01712714 0.03321112 0.00792043
v 0.01573717 0.03610551 0.00681532
v 0.01611545 0.03544492 0.00798476
v 0.01666089 0.03439001 0.00915420
v 0.01625035 0.03544492 0.01265873
v 0.01615357 0.03630267 0.03370483
v 0.01688375 0.03489680 0.03369726
v 0.01717113 0.03427619 0.03369726
v 0.01587499 0.03630267 0.01382817
v 0.01841155 0.02938174 0.00681532
v 0.01771656 0.03310678 0.04188332
v 0.01717993 0.03427619 0.04188332
v 0.01771656 0.03310678 0.04217474
v 0.01617410 0.03630267 0.04217474
v -0.00088385 0.03630267 0.03769000
v 0.00591939 0.02938174 0.03882916
v 0.01799514 0.03006062 0.00536204
v 0.01736174 0.03193872 0.00564589
v 0.01701278 0.03287100 0.00564589
v 0.01570491 0.03604521 0.00618330
v 0.01562574 0.03630267 0.00681532
v 0.01564920 0.03630267 0.00717486
v 0.01576649 0.03616310 0.00798476
v 0.01584567 0.03629115 0.01265873
v 0.01615064 0.03544492 0.00915420
v 0.01616237 0.03630267 0.03723585
v 0.01660810 0.03548422 0.04188332
v 0.01659344 0.03548151 0.03720557
v 0.01583980 0.03630267 0.01268144
v 0.01828545 0.02938174 0.00594866
v 0.01681630 0.03504382 0.04217474
v 0.01717699 0.03427619 0.04217474
v 0.01731188 0.03398485 0.04217474
v 0.01660810 0.03548286 0.04217474
v -0.00239992 0.03630267 0.03697093
v 0.00574931 0.02938174 0.03874590
v 0.01824440 0.02938174 0.00569509
v 0.01809484 0.02938174 0.00489275
v 0.01751716 0.03076999 0.00447645
v 0.01708022 0.03197395 0.00446509
v 0.01692480 0.03265961 0.00485113
v 0.01675765 0.03345570 0.00564589
v 0.01562867 0.03587989 0.00540367
v 0.01544099 0.03630267 0.00562697
v 0.01550551 0.03630267 0.00593352
v 0.01558468 0.03630267 0.00643687
v 0.01569025 0.03630267 0.00798476
v 0.01569905 0.03630267 0.00825725
v -0.00343800 0.03630267 0.03644109
v 0.00451769 0.02938174 0.03813658
v 0.01804499 0.02938174 0.00472245
v 0.01787785 0.02964326 0.00445374
v 0.01695999 0.03160809 0.00370061
v 0.01681044 0.03238725 0.00407150
v 0.01579582 0.03510006 0.00472623
v 0.01662863 0.03307155 0.00446509
v 0.01551137 0.03547202 0.00439319
v 0.01524159 0.03630267 0.00488897
v -0.00359049 0.03630267 0.03636161
v 0.00436520 0.02938174 0.03805710
v 0.01791010 0.02938174 0.00432128
v 0.01759047 0.02938174 0.00351138
v 0.01701278 0.03117515 0.00351138
v 0.01679871 0.03178289 0.00351138
v 0.01633832 0.03291368 0.00351138
v 0.01588086 0.03397333 0.00351138
v 0.01586326 0.03404380 0.00354166
v 0.01567852 0.03482363 0.00394661
v 0.01602162 0.03437036 0.00439319
v 0.01508324 0.03630267 0.00440454
v -0.00454646 0.03630267 0.03581663
v 0.00357931 0.02938174 0.03761052
v 0.01379003 0.02938174 0.00351138
v 0.01583687 0.03407157 0.00351138
v 0.01560521 0.03455533 0.00351138
v 0.01527091 0.03524505 0.00351138
v 0.01472841 0.03630267 0.00351138
v 0.01483691 0.03630267 0.00378387
v -0.00504790 0.03630267 0.03549494
v -0.00550243 0.03630267 0.03519974
v 0.00341216 0.02938174 0.03750077
v 0.01139717 0.03630267 0.00351138
v 0.00945883 0.02938174 0.00561561
v -0.00598042 0.03630267 0.03487048
v 0.00248258 0.02938174 0.03687253
v 0.00262334 0.03630267 0.00831781
v 0.00845008 0.02938174 0.00611518
v 0.00842075 0.02960058 0.00609625
v -0.00625313 0.03630267 0.03465854
v 0.00191662 0.02938174 0.03645622
v 0.00246205 0.03630267 0.00840864
v 0.00783720 0.02960058 0.00641794
v 0.00801021 0.02938174 0.00635739
v -0.00717392 0.03630267 0.03381458
v -0.00649066 0.03604860 0.03426116
v 0.00114832 0.02938174 0.03580906
v 0.00198407 0.03630267 0.00869627
v 0.00788998 0.02938174 0.00642551
v -0.00718858 0.03630267 0.03379944
v 0.00050612 0.02938174 0.03517325
v 0.00076124 0.02938174 0.03542682
v 0.00193128 0.03630267 0.00873033
v 0.00694867 0.02938174 0.00708403
v 0.00046800 0.03630267 0.00971432
v 0.00139758 0.03630267 0.00908608
v -0.00819734 0.03630267 0.03266785
v 0.00008678 0.02938174 0.03471153
v 0.00645016 0.02938174 0.00749277
v 0.00023047 0.03630267 0.00991112
v -0.00827651 0.03630267 0.03257324
v -0.00051730 0.02938174 0.03398489
v 0.00600736 0.02938174 0.00790907
v -0.00427668 0.03630267 0.01390008
v -0.00304212 0.03630267 0.01275713
v -0.00210961 0.03630267 0.01192452
v -0.00189261 0.03630267 0.01173151
v -0.00139703 0.03630267 0.01130385
v -0.00908000 0.03630267 0.03155140
v -0.00152605 0.02938174 0.03274354
v -0.00090731 0.02938174 0.03351181
v 0.00476988 0.02938174 0.00907851
v -0.00545551 0.03630267 0.01507708
v 0.00404263 0.02938174 0.00977487
v -0.00929407 0.03630267 0.03126377
v -0.00199231 0.02938174 0.03213801
v -0.00622088 0.03630064 0.01593997
v -0.00621795 0.03630267 0.01593618
v 0.00381390 0.02938174 0.01002466
v 0.00360570 0.02938174 0.01025552
v 0.00349427 0.02938174 0.01038041
v -0.00314476 0.02938174 0.03033276
v -0.00277234 0.02938174 0.03097992
v -0.00254068 0.02938174 0.03137352
v -0.00989815 0.03630267 0.03018516
v 0.00091373 0.02938174 0.01341186
v 0.00078763 0.02938174 0.01356325
v 0.00039176 0.02938174 0.01404389
v -0.00653465 0.03630267 0.01632600
v 0.00293124 0.02938174 0.01102000
v 0.00283154 0.02938174 0.01113732
v -0.01046997 0.03630267 0.02897788
v -0.00327965 0.02938174 0.03003378
v -0.00021526 0.02938174 0.01484244
v -0.00671353 0.03630267 0.01656064
v -0.00374884 0.02938174 0.02886434
v -0.00366673 0.02938174 0.02908763
v -0.01084239 0.03630267 0.02785007
v -0.00071377 0.02938174 0.01552366
v -0.00718565 0.03630267 0.01721916
v -0.00403915 0.02938174 0.02785385
v -0.00423855 0.02938174 0.02668442
v -0.00408020 0.02938174 0.02761542
v -0.01092743 0.03630267 0.02668442
v -0.00099235 0.02938174 0.01593997
v -0.00766657 0.03630267 0.01792309
v -0.00726776 0.03630267 0.01733648
v -0.01093036 0.03630267 0.02661629
v -0.00428840 0.02938174 0.02551498
v -0.00110379 0.02938174 0.01611406
v -0.00800673 0.03630267 0.01844915
v -0.01086585 0.03630267 0.02551498
v -0.00423855 0.02938174 0.02434554
v -0.00117123 0.02938174 0.01622003
v -0.00923248 0.03630267 0.02082587
v -0.00167268 0.02938174 0.01704128
v -0.00189261 0.02938174 0.01740460
v -0.00237353 0.02938174 0.01826749
v -0.01066351 0.03630267 0.02434554
v -0.00407141 0.02938174 0.02317610
v -0.00980724 0.03630267 0.02201423
v -0.00248789 0.02938174 0.01850213
v -0.01034094 0.03630267 0.02324801
v -0.00379576 0.02938174 0.02191205
v -0.00382215 0.02938174 0.02201045
v -0.00391305 0.02938174 0.02242675
v -0.01011515 0.03630267 0.02268411
v -0.00293655 0.02938174 0.01949748
v -0.00313889 0.02938174 0.01998948
v -0.00338522 0.02938174 0.02061772
v -0.00345266 0.02938174 0.02079938
v -0.00347905 0.02938174 0.02087507
v -0.00301280 0.02938174 0.01967536
f 1 2 3
f 1 3 4
f 1 4 8
f 1 8 17
f 1 17 33
f 1 33 52
f 1 52 73
f 1 73 93
f 1 93 107
f 1 107 117
f 1 117 129
f 1 129 138
f 1 138 142
f 1 142 147
f 1 147 153
f 1 153 158
f 1 158 157
f 1 157 164
f 1 164 168
f 1 168 177
f 1 177 176
f 1 176 182
f 1 182 190
f 1 190 189
f 1 189 188
f 1 188 199
f 1 199 203
f 1 203 202
f 1 202 207
f 1 207 209
f 1 209 208
f 1 208 215
f 1 215 219
f 1 219 226
f 1 226 232
f 1 232 231
f 1 231 230
f 1 230 238
f 1 238 237
f 1 237 236
f 1 236 235
f 1 235 239
f 1 239 234
f 1 234 228
f 1 228 224
f 1 224 223
f 1 223 222
f 1 222 220
f 1 220 216
f 1 216 211
f 1 211 205
f 1 205 200
f 1 200 194
f 1 194 193
f 1 193 192
f 1 192 197
f 1 197 196
f 1 196 187
f 1 187 186
f 1 186 185
f 1 185 180
f 1 180 178
f 1 178 169
f 1 169 165
f 1 165 160
f 1 160 155
f 1 155 150
f 1 150 144
f 1 144 140
f 1 140 130
f 1 130 119
f 1 119 118
f 1 118 108
f 1 108 95
f 1 95 94
f 1 94 87
f 1 87 67
f 1 67 41
f 1 41 22
f 1 22 10
f 1 10 5
f 1 5 7
f 1 7 2
f 2 6 3
f 2 7 6
f 3 6 11
f 3 11 23
f 3 23 26
f 3 26 25
f 3 25 42
f 3 42 70
f 3 70 90
f 3 90 89
f 3 89 88
f 3 88 91
f 3 91 71
f 3 71 44
f 3 44 43
f 3 43 31
f 3 31 27
f 3 27 13
f 3 13 8
f 3 8 4
f 5 9 7
f 5 10 9
f 6 7 12
f 6 12 11
f 7 9 12
f 8 13 14
f 8 14 15
f 8 15 16
f 8 16 17
f 9 18 12
f 9 10 19
f 9 19 20
f 9 20 21
f 9 21 18
f 10 22 35
f 10 35 19
f 11 12 23
f 12 24 25
f 12 25 26
f 12 26 23
f 12 18 34
f 12 34 24
f 13 27 14
f 14 28 29
f 14 29 30
f 14 30 15
f 14 27 31
f 14 31 28
f 15 30 32
f 15 32 17
f 15 17 16
f 17 32 33
f 18 21 34
f 19 35 20
f 20 35 36
f 20 36 21
f 21 36 37
f 21 37 38
f 21 38 39
f 21 39 40
f 21 40 34
f 22 41 35
f 24 34 40
f 24 40 25
f 25 40 42
f 28 31 43
f 28 43 44
f 28 44 45
f 28 45 29
f 29 45 46
f 29 46 30
f 30 46 47
f 30 47 48
f 30 48 49
f 30 49 32
f 32 49 50
f 32 50 51
f 32 51 52
f 32 52 33
f 35 41 53
f 35 53 36
f 36 53 54
f 36 54 37
f 37 54 55
f 37 55 56
f 37 56 57
f 37 57 58
f 37 58 38
f 38 58 59
f 38 59 60
f 38 60 61
f 38 61 62
f 38 62 39
f 39 63 64
f 39 64 65
f 39 65 40
f 39 62 66
f 39 66 63
f 40 65 42
f 41 67 53
f 42 68 69
f 42 69 70
f 42 65 68
f 44 71 83
f 44 83 63
f 44 63 66
f 44 66 86
f 44 86 105
f 44 105 104
f 44 104 79
f 44 79 78
f 44 78 103
f 44 103 102
f 44 102 101
f 44 101 115
f 44 115 127
f 44 127 135
f 44 135 134
f 44 134 139
f 44 139 143
f 44 143 148
f 44 148 154
f 44 154 159
f 44 159 162
f 44 162 161
f 44 161 166
f 44 166 174
f 44 174 173
f 44 173 172
f 44 172 171
f 44 171 170
f 44 170 179
f 44 179 184
f 44 184 195
f 44 195 201
f 44 201 206
f 44 206 213
f 44 213 212
f 44 212 217
f 44 217 221
f 44 221 227
f 44 227 233
f 44 233 229
f 44 229 225
f 44 225 218
f 44 218 214
f 44 214 210
f 44 210 204
f 44 204 198
f 44 198 191
f 44 191 181
f 44 181 175
f 44 175 167
f 44 167 163
f 44 163 156
f 44 156 151
f 44 151 146
f 44 146 141
f 44 141 137
f 44 137 136
f 44 136 128
f 44 128 116
f 44 116 106
f 44 106 92
f 44 92 72
f 44 72 48
f 44 48 47
f 44 47 46
f 44 46 45
f 48 72 49
f 49 72 50
f 50 72 51
f 51 73 52
f 51 72 73
f 53 67 74
f 53 74 54
f 54 74 75
f 54 75 55
f 55 75 76
f 55 76 56
f 56 76 77
f 56 77 57
f 57 59 58
f 57 77 59
f 59 78 79
f 59 79 80
f 59 80 60
f 59 77 78
f 60 80 81
f 60 81 82
f 60 82 61
f 61 82 66
f 61 66 62
f 63 83 84
f 63 84 85
f 63 85 64
f 64 85 84
f 64 84 69
f 64 69 65
f 65 69 68
f 66 82 81
f 66 81 86
f 67 87 74
f 69 84 88
f 69 88 89
f 69 89 90
f 69 90 70
f 71 91 84
f 71 84 83
f 72 92 73
f 73 92 93
f 74 87 94
f 74 94 95
f 74 95 96
f 74 96 97
f 74 97 98
f 74 98 75
f 75 98 76
f 76 98 99
f 76 99 77
f 77 99 100
f 77 100 101
f 77 101 102
f 77 102 103
f 77 103 78
f 79 104 80
f 80 104 105
f 80 105 81
f 81 105 86
f 84 91 88
f 92 106 107
f 92 107 93
f 95 108 96
f 96 109 110
f 96 110 111
f 96 111 97
f 96 108 109
f 97 111 98
f 98 112 100
f 98 100 99
f 98 111 113
f 98 113 112
f 100 112 114
f 100 114 115
f 100 115 101
f 106 116 117
f 106 117 107
f 108 118 109
f 109 118 110
f 110 118 119
f 110 119 120
f 110 120 121
f 110 121 122
f 110 122 111
f 111 122 123
f 111 123 124
f 111 124 125
f 111 125 113
f 112 113 126
f 112 126 125
f 112 125 114
f 113 125 126
f 114 125 127
f 114 127 115
f 116 128 129
f 116 129 117
f 119 130 139
f 119 139 134
f 119 134 133
f 119 133 132
f 119 132 131
f 119 131 123
f 119 123 122
f 119 122 121
f 119 121 120
f 123 131 124
f 124 131 125
f 125 131 132
f 125 132 133
f 125 133 134
f 125 134 135
f 125 135 127
f 128 136 129
f 129 136 137
f 129 137 138
f 130 140 139
f 137 141 142
f 137 142 138
f 139 140 144
f 139 144 145
f 139 145 143
f 141 146 147
f 141 147 142
f 143 145 149
f 143 149 148
f 144 150 145
f 145 150 149
f 146 151 152
f 146 152 153
f 146 153 147
f 148 149 155
f 148 155 154
f 149 150 155
f 151 156 157
f 151 157 158
f 151 158 152
f 152 158 153
f 154 155 159
f 155 160 161
f 155 161 162
f 155 162 159
f 156 163 164
f 156 164 157
f 160 165 161
f 161 165 166
f 163 167 164
f 164 167 168
f 165 169 170
f 165 170 171
f 165 171 172
f 165 172 173
f 165 173 174
f 165 174 166
f 167 175 176
f 167 176 177
f 167 177 168
f 169 178 170
f 170 178 180
f 170 180 179
f 175 181 182
f 175 182 176
f 179 183 184
f 179 180 185
f 179 185 186
f 179 186 187
f 179 187 183
f 181 188 189
f 181 189 190
f 181 190 182
f 181 191 188
f 183 192 193
f 183 193 194
f 183 194 195
f 183 195 184
f 183 187 196
f 183 196 197
f 183 197 192
f 188 191 198
f 188 198 199
f 194 200 201
f 194 201 195
f 198 202 203
f 198 203 199
f 198 204 202
f 200 205 201
f 201 205 206
f 202 204 207
f 204 208 209
f 204 209 207
f 204 210 208
f 205 211 212
f 205 212 213
f 205 213 206
f 208 210 214
f 208 214 215
f 211 216 217
f 211 217 212
f 214 218 219
f 214 219 215
f 216 220 217
f 217 220 222
f 217 222 223
f 217 223 224
f 217 224 221
f 218 225 226
f 218 226 219
f 221 224 228
f 221 228 227
f 225 229 230
f 225 230 231
f 225 231 232
f 225 232 226
f 227 228 233
f 228 234 233
f 229 233 235
f 229 235 236
f 229 236 237
f 229 237 238
f 229 238 230
f 233 234 239
f 233 239 235

