# https://github.com/mikedh/trimesh
v 0.01629049 0.01898227 0.00351138
v 0.01629049 0.02938174 0.00351138
v 0.01944126 0.01898227 0.00351138
v 0.01629049 0.01898227 0.03761526
v 0.01759101 0.02938174 0.00351138
v 0.01629049 0.02938174 0.04188292
v 0.01943667 0.01907592 0.00351138
v 0.02215833 0.01898227 0.01242106
v 0.01824012 0.01898227 0.04600500
v 0.01644559 0.02938174 0.04600500
v 0.01629049 0.01899041 0.03761942
v 0.01786904 0.02853683 0.00351138
v 0.01791155 0.02938174 0.00432248
v 0.01629854 0.02938174 0.04285209
v 0.01910177 0.02258686 0.00351138
v 0.01921493 0.02323836 0.00386910
v 0.02215833 0.01904335 0.01243770
v 0.02215833 0.01898227 0.01738753
v 0.02069697 0.01898227 0.04600500
v 0.01903973 0.02938174 0.04600500
v 0.01635770 0.02938174 0.04423721
v 0.01795118 0.02825384 0.00351138
v 0.01798220 0.02882695 0.00404796
v 0.01804596 0.02938174 0.00472180
v 0.01811087 0.02928096 0.00482578
v 0.01898229 0.02358141 0.00351138
v 0.01878296 0.02469709 0.00351138
v 0.01915290 0.02401811 0.00413115
v 0.02215833 0.02092148 0.01316562
v 0.02215833 0.02040741 0.01292021
v 0.02215833 0.02034837 0.01289525
v 0.02215833 0.01907999 0.01245018
v 0.02215833 0.01908203 0.01742496
v 0.02066193 0.01963376 0.04600500
v 0.02215833 0.01910748 0.01742496
v 0.02215833 0.02024657 0.01740416
v 0.02215833 0.02118411 0.01703397
v 0.01907994 0.02926671 0.04600500
v 0.02215833 0.02190788 0.01497917
v 0.01902135 0.02938174 0.03837645
v 0.01809019 0.02804719 0.00372767
v 0.01813328 0.02757079 0.00351138
v 0.01809651 0.02938174 0.00489650
v 0.01852906 0.02726133 0.00447639
v 0.02215833 0.02132968 0.01372715
v 0.01848770 0.02609271 0.00351138
v 0.01880192 0.02609271 0.00447639
v 0.02054073 0.02141723 0.04600500
v 0.02215833 0.02179489 0.01614799
v 0.01918277 0.02894911 0.04600500
v 0.02215833 0.02190687 0.01499996
v 0.01828608 0.02938174 0.00594886
v 0.01841302 0.02938174 0.00681404
v 0.01853595 0.02938174 0.00798286
v 0.01857387 0.02938174 0.00915168
v 0.01822921 0.02717073 0.00351138
v 0.01824587 0.02938174 0.00569513
v 0.02044078 0.02254818 0.04600500
v 0.02215833 0.02180202 0.01613551
v 0.02032359 0.02376973 0.04600500
v 0.01927066 0.02867222 0.04600500
v 0.02215833 0.02181423 0.01610639
v 0.02015758 0.02492410 0.04600500
v 0.01936429 0.02836480 0.04600500
v 0.01951249 0.02777642 0.04600500
f 1 2 5
f 1 5 12
f 1 12 22
f 1 22 42
f 1 42 56
f 1 56 46
f 1 46 27
f 1 27 26
f 1 26 15
f 1 15 7
f 1 7 3
f 1 3 8
f 1 8 18
f 1 18 19
f 1 19 9
f 1 9 4
f 1 4 11
f 1 11 6
f 1 6 2
f 2 6 14
f 2 14 21
f 2 21 10
f 2 10 20
f 2 20 40
f 2 40 55
f 2 55 54
f 2 54 53
f 2 53 52
f 2 52 57
f 2 57 43
f 2 43 24
f 2 24 13
f 2 13 5
f 3 7 8
f 4 9 10
f 4 10 11
f 5 13 12
f 6 11 14
f 7 15 16
f 7 16 8
f 8 16 17
f 8 17 32
f 8 32 31
f 8 31 30
f 8 30 29
f 8 29 45
f 8 45 39
f 8 39 51
f 8 51 62
f 8 62 59
f 8 59 49
f 8 49 37
f 8 37 36
f 8 36 35
f 8 35 33
f 8 33 18
f 9 19 34
f 9 34 48
f 9 48 58
f 9 58 60
f 9 60 63
f 9 63 65
f 9 65 64
f 9 64 61
f 9 61 50
f 9 50 38
f 9 38 20
f 9 20 10
f 10 21 11
f 11 21 14
f 12 13 23
f 12 23 22
f 13 24 25
f 13 25 23
f 15 26 16
f 16 26 27
f 16 27 28
f 16 28 29
f 16 29 30
f 16 30 31
f 16 31 32
f 16 32 17
f 18 33 19
f 19 33 35
f 19 35 36
f 19 36 37
f 19 37 34
f 20 38 39
f 20 39 40
f 22 23 41
f 22 41 42
f 23 25 41
f 24 43 25
f 25 44 41
f 25 43 45
f 25 45 29
f 25 29 44
f 27 46 28
f 28 46 47
f 28 47 29
f 29 47 44
f 34 37 48
f 37 49 48
f 38 50 51
f 38 51 39
f 39 45 52
f 39 52 53
f 39 53 54
f 39 54 55
f 39 55 40
f 41 44 42
f 42 44 56
f 43 57 45
f 44 47 46
f 44 46 56
f 45 57 52
f 48 49 58
f 49 59 60
f 49 60 58
f 50 61 51
f 51 61 62
f 59 62 60
f 60 62 63
f 61 64 62
f 62 64 65
f 62 65 63

