# https://github.com/mikedh/trimesh
v 0.01629049 0.02938174 0.04188450
v 0.00921322 0.02938174 0.04000642
v 0.00926560 0.01898227 0.03818091
v 0.01043608 0.01898227 0.03839877
v 0.01160455 0.01898227 0.03851146
v 0.01277301 0.01898227 0.03847765
v 0.01384679 0.01898227 0.03831238
v 0.01394349 0.01898227 0.03829360
v 0.01506361 0.01898227 0.03798559
v 0.01629049 0.01898227 0.03761749
v 0.01629049 0.02938174 0.00351138
v 0.00809714 0.02938174 0.03970592
v 0.00919711 0.01898227 0.03816213
v 0.01629049 0.01898227 0.00351138
v 0.01379240 0.02938174 0.00351138
v 0.00686219 0.02938174 0.03924391
v 0.00838926 0.01898227 0.03792549
v 0.01249500 0.01898227 0.00351138
v 0.01253730 0.01941694 0.00351138
v 0.00946102 0.02938174 0.00561859
v 0.00670103 0.02938174 0.03917254
v 0.00834091 0.01898227 0.03790296
v 0.00592138 0.02938174 0.03882698
v 0.00575014 0.02938174 0.03874810
v 0.00788964 0.02938174 0.00642617
v 0.00801051 0.02938174 0.00635481
v 0.00845171 0.02938174 0.00611441
v 0.00725101 0.01898227 0.00832680
v 0.00645122 0.02938174 0.00749293
v 0.00695084 0.02938174 0.00708726
v 0.00780502 0.01898227 0.03764753
v 0.00451922 0.02938174 0.03813959
v 0.00666678 0.01898227 0.00887144
v 0.00477306 0.02938174 0.00907804
v 0.00772847 0.01898227 0.03760622
v 0.00436611 0.02938174 0.03805696
v 0.00607449 0.01898227 0.00945741
v 0.00404378 0.02938174 0.00977668
v 0.00692868 0.01898227 0.03717426
v 0.00358042 0.02938174 0.03760997
v 0.00686824 0.01898227 0.03714045
v 0.00549227 0.01898227 0.01014479
v 0.00293172 0.02938174 0.01101998
v 0.00349379 0.02938174 0.01037767
v 0.00360460 0.02938174 0.01025372
v 0.00381411 0.02938174 0.01002459
v 0.00341119 0.02938174 0.03750104
v 0.00616313 0.01898227 0.03673478
v 0.00504704 0.01898227 0.01072700
v 0.00030066 0.02938174 0.01416390
v 0.00039333 0.02938174 0.01404370
v 0.00078618 0.02938174 0.01356291
v 0.00248247 0.02938174 0.03687001
v 0.00557890 0.01898227 0.03635541
v 0.00454340 0.01898227 0.01142189
v -0.00071268 0.02938174 0.01552364
v -0.00031580 0.02938174 0.01497899
v -0.00021507 0.02938174 0.01484377
v 0.00191435 0.02938174 0.03645683
v 0.00551242 0.01898227 0.03630658
v 0.00406795 0.01898227 0.01208298
v -0.00099271 0.02938174 0.01594057
v 0.00404176 0.01898227 0.01212054
v 0.00363884 0.01898227 0.01269899
v 0.00304857 0.01898227 0.01355165
v 0.00114679 0.02938174 0.03580701
v 0.00474083 0.01898227 0.03573188
v 0.00478918 0.01898227 0.03576945
v 0.00266177 0.01898227 0.01413761
v -0.00110351 0.02938174 0.01611336
v 0.00075999 0.02938174 0.03542763
v 0.00420494 0.01898227 0.03523982
v 0.00216819 0.01898227 0.01499777
v -0.00189323 0.02938174 0.01740549
v -0.00171393 0.02938174 0.01710875
v -0.00117201 0.02938174 0.01622229
v 0.00050615 0.02938174 0.03517221
v 0.00416264 0.01898227 0.03519475
v 0.00175923 0.01898227 0.01575277
v -0.00237270 0.02938174 0.01826565
v 0.00008711 0.02938174 0.03471020
v 0.00370331 0.01898227 0.03465762
v 0.00148927 0.01898227 0.01628990
v -0.00248955 0.02938174 0.01850229
v 0.00146510 0.01898227 0.01633873
v -0.00051726 0.02938174 0.03398526
v -0.00090810 0.02938174 0.03351198
v 0.00311908 0.01898227 0.03393643
v -0.00293478 0.02938174 0.01949768
v 0.00105815 0.01898227 0.01725148
v -0.00152456 0.02938174 0.03274197
v 0.00265169 0.01898227 0.03335047
v -0.00301335 0.02938174 0.01967422
v 0.00102189 0.01898227 0.01733412
v -0.00199195 0.02938174 0.03213722
v -0.00254193 0.02938174 0.03137096
v 0.00203120 0.01898227 0.03244523
v -0.00313825 0.02938174 0.01998974
v 0.00067336 0.01898227 0.01823184
v -0.00338605 0.02938174 0.02061702
v -0.00277361 0.02938174 0.03098032
v 0.00198285 0.01898227 0.03235508
v -0.00314631 0.02938174 0.03033425
v 0.00045377 0.01898227 0.01885161
v -0.00348073 0.02938174 0.02087619
v -0.00345253 0.02938174 0.02079732
v 0.00159403 0.01898227 0.03157379
v -0.00327927 0.02938174 0.03003376
v 0.00149532 0.01898227 0.03137472
v 0.00043765 0.01898227 0.01890044
v -0.00379501 0.02938174 0.02191290
v -0.00366809 0.02938174 0.02908720
v 0.00144495 0.01898227 0.03125076
v 0.00027246 0.01898227 0.01967422
v -0.00407302 0.02938174 0.02317873
v -0.00382321 0.02938174 0.02201056
v -0.00375069 0.02938174 0.02886559
v 0.00016568 0.01898227 0.02785518
v 0.00041751 0.01898227 0.02852378
v 0.00009114 0.01898227 0.02084239
v -0.00423822 0.02938174 0.02434690
v -0.00404079 0.02938174 0.02785518
v -0.00016068 0.01898227 0.02668325
v -0.00005995 0.01898227 0.02191666
v -0.00429060 0.02938174 0.02551508
v -0.00007204 0.01898227 0.02201056
v -0.00018486 0.01898227 0.02308107
v -0.00019291 0.01898227 0.02317873
v -0.00423822 0.02938174 0.02668325
v -0.00025738 0.01898227 0.02551508
v -0.00023724 0.01898227 0.02424924
v -0.00023925 0.01898227 0.02434690
f 1 2 3
f 1 3 4
f 1 4 5
f 1 5 6
f 1 6 7
f 1 7 8
f 1 8 9
f 1 9 10
f 1 10 14
f 1 14 11
f 1 11 15
f 1 15 20
f 1 20 27
f 1 27 26
f 1 26 25
f 1 25 30
f 1 30 29
f 1 29 34
f 1 34 38
f 1 38 46
f 1 46 45
f 1 45 44
f 1 44 43
f 1 43 52
f 1 52 51
f 1 51 50
f 1 50 58
f 1 58 57
f 1 57 56
f 1 56 62
f 1 62 70
f 1 70 76
f 1 76 75
f 1 75 74
f 1 74 80
f 1 80 84
f 1 84 89
f 1 89 93
f 1 93 98
f 1 98 100
f 1 100 106
f 1 106 105
f 1 105 111
f 1 111 116
f 1 116 115
f 1 115 121
f 1 121 125
f 1 125 129
f 1 129 122
f 1 122 117
f 1 117 112
f 1 112 108
f 1 108 103
f 1 103 101
f 1 101 96
f 1 96 95
f 1 95 91
f 1 91 87
f 1 87 86
f 1 86 81
f 1 81 77
f 1 77 71
f 1 71 66
f 1 66 59
f 1 59 53
f 1 53 47
f 1 47 40
f 1 40 36
f 1 36 32
f 1 32 24
f 1 24 23
f 1 23 21
f 1 21 16
f 1 16 12
f 1 12 2
f 2 12 3
f 3 13 17
f 3 17 22
f 3 22 31
f 3 31 35
f 3 35 39
f 3 39 41
f 3 41 48
f 3 48 54
f 3 54 60
f 3 60 68
f 3 68 67
f 3 67 72
f 3 72 78
f 3 78 82
f 3 82 88
f 3 88 92
f 3 92 97
f 3 97 102
f 3 102 107
f 3 107 109
f 3 109 113
f 3 113 119
f 3 119 118
f 3 118 123
f 3 123 130
f 3 130 132
f 3 132 131
f 3 131 128
f 3 128 127
f 3 127 126
f 3 126 124
f 3 124 120
f 3 120 114
f 3 114 110
f 3 110 104
f 3 104 99
f 3 99 94
f 3 94 90
f 3 90 85
f 3 85 83
f 3 83 79
f 3 79 73
f 3 73 69
f 3 69 65
f 3 65 64
f 3 64 63
f 3 63 61
f 3 61 55
f 3 55 49
f 3 49 42
f 3 42 37
f 3 37 33
f 3 33 28
f 3 28 18
f 3 18 14
f 3 14 10
f 3 10 9
f 3 9 8
f 3 8 7
f 3 7 6
f 3 6 5
f 3 5 4
f 3 12 13
f 11 14 18
f 11 18 19
f 11 19 15
f 12 16 17
f 12 17 13
f 15 19 20
f 16 21 17
f 17 21 23
f 17 23 24
f 17 24 22
f 18 25 26
f 18 26 27
f 18 27 19
f 18 28 29
f 18 29 30
f 18 30 25
f 19 27 20
f 22 24 31
f 24 32 31
f 28 33 29
f 29 33 34
f 31 32 36
f 31 36 35
f 33 37 38
f 33 38 34
f 35 36 39
f 36 40 41
f 36 41 39
f 37 42 43
f 37 43 44
f 37 44 45
f 37 45 46
f 37 46 38
f 40 47 48
f 40 48 41
f 42 49 50
f 42 50 51
f 42 51 52
f 42 52 43
f 47 53 54
f 47 54 48
f 49 55 56
f 49 56 57
f 49 57 58
f 49 58 50
f 53 59 54
f 54 59 60
f 55 61 56
f 56 61 63
f 56 63 64
f 56 64 65
f 56 65 62
f 59 66 67
f 59 67 68
f 59 68 60
f 62 69 70
f 62 65 69
f 66 71 72
f 66 72 67
f 69 73 74
f 69 74 75
f 69 75 76
f 69 76 70
f 71 77 72
f 72 77 78
f 73 79 80
f 73 80 74
f 77 81 78
f 78 81 82
f 79 83 80
f 80 83 85
f 80 85 84
f 81 86 82
f 82 86 87
f 82 87 88
f 84 85 89
f 85 90 89
f 87 91 88
f 88 91 92
f 89 90 93
f 90 94 93
f 91 95 92
f 92 95 96
f 92 96 97
f 93 94 98
f 94 99 100
f 94 100 98
f 96 101 97
f 97 101 103
f 97 103 102
f 99 104 105
f 99 105 106
f 99 106 100
f 102 103 107
f 103 108 109
f 103 109 107
f 104 110 105
f 105 110 111
f 108 112 109
f 109 112 113
f 110 114 115
f 110 115 116
f 110 116 111
f 112 117 118
f 112 118 119
f 112 119 113
f 114 120 115
f 115 120 121
f 117 122 118
f 118 122 123
f 120 124 121
f 121 124 126
f 121 126 127
f 121 127 128
f 121 128 125
f 122 129 123
f 123 129 130
f 125 128 131
f 125 131 132
f 125 132 130
f 125 130 129

