# https://github.com/mikedh/trimesh
v 0.01696228 0.00758066 0.00351138
v 0.01696228 0.01898227 0.00351138
v 0.01826195 0.00758066 0.00351138
v 0.01696228 0.00758066 0.04088464
v 0.01944156 0.01898227 0.00351138
v 0.01696228 0.01898227 0.03760278
v 0.01899088 0.01092101 0.00351138
v 0.01916383 0.01063642 0.00403964
v 0.01862056 0.00758066 0.00447639
v 0.01698314 0.00758066 0.04422057
v 0.01945021 0.01880816 0.00351138
v 0.02215840 0.01898227 0.01242106
v 0.02215840 0.01811844 0.01215901
v 0.02215840 0.01756153 0.01201343
v 0.01698670 0.00758066 0.04428712
v 0.01708792 0.00758066 0.04566392
v 0.01713167 0.00758066 0.04600500
v 0.01824058 0.01898227 0.04600500
v 0.01913890 0.01172568 0.00351138
v 0.01908753 0.00965429 0.00444727
v 0.01919893 0.01206496 0.00351138
v 0.01926658 0.01206496 0.00370272
v 0.02215840 0.01087414 0.01259160
v 0.02215840 0.00997236 0.01304499
v 0.02215840 0.00995674 0.01305331
v 0.01888914 0.00758066 0.00563273
v 0.02215840 0.00938867 0.01343183
v 0.02215840 0.00936969 0.01344847
v 0.02215840 0.00880386 0.01401832
v 0.02215840 0.00878823 0.01404327
v 0.02215840 0.00826034 0.01499996
v 0.02215840 0.00825587 0.01502908
v 0.01948175 0.01790974 0.00351138
v 0.02215840 0.01674012 0.01189281
v 0.02215840 0.01898227 0.01738753
v 0.01966436 0.00758066 0.04600500
v 0.02069697 0.01898227 0.04600500
v 0.01922996 0.01236295 0.00351138
v 0.02215840 0.01204264 0.01218813
v 0.02215840 0.01196117 0.01221309
v 0.02215840 0.01089646 0.01258328
v 0.01906362 0.00758066 0.00696378
v 0.01984952 0.00758066 0.01576116
v 0.01983019 0.00758066 0.01499996
v 0.02215840 0.00832060 0.01616879
v 0.01948735 0.01770327 0.00351138
v 0.02215840 0.01557384 0.01178050
v 0.02215840 0.00972683 0.01724610
v 0.02072597 0.01846442 0.04600500
v 0.02075496 0.01790974 0.04600500
v 0.02076412 0.01674012 0.04600500
v 0.01989479 0.00855832 0.04600500
v 0.01930677 0.01323459 0.00351138
v 0.02215840 0.01319441 0.01193440
v 0.02215840 0.00833623 0.01619374
v 0.02041415 0.01234733 0.04600500
v 0.02014710 0.01028151 0.04600500
v 0.01998585 0.00911300 0.04600500
v 0.01948175 0.01674012 0.00351138
v 0.02215840 0.01440087 0.01177218
v 0.02215840 0.00889202 0.01697989
v 0.02073563 0.01612629 0.04600500
v 0.02215840 0.00886412 0.01696741
v 0.01944156 0.01562071 0.00351138
v 0.02050978 0.01323459 0.04600500
v 0.02070410 0.01557161 0.04600500
v 0.02065781 0.01495666 0.04600500
v 0.02061152 0.01440198 0.04600500
f 1 2 5
f 1 5 11
f 1 11 33
f 1 33 46
f 1 46 59
f 1 59 64
f 1 64 53
f 1 53 38
f 1 38 21
f 1 21 19
f 1 19 7
f 1 7 3
f 1 3 9
f 1 9 26
f 1 26 42
f 1 42 44
f 1 44 43
f 1 43 36
f 1 36 17
f 1 17 16
f 1 16 15
f 1 15 10
f 1 10 4
f 1 4 6
f 1 6 2
f 2 6 18
f 2 18 37
f 2 37 35
f 2 35 12
f 2 12 5
f 3 7 8
f 3 8 9
f 4 10 6
f 5 12 13
f 5 13 14
f 5 14 11
f 6 10 15
f 6 15 16
f 6 16 17
f 6 17 18
f 7 19 8
f 8 20 9
f 8 19 21
f 8 21 22
f 8 22 23
f 8 23 24
f 8 24 25
f 8 25 20
f 9 20 25
f 9 25 27
f 9 27 28
f 9 28 29
f 9 29 30
f 9 30 31
f 9 31 32
f 9 32 26
f 11 14 34
f 11 34 33
f 12 35 48
f 12 48 61
f 12 61 63
f 12 63 55
f 12 55 45
f 12 45 32
f 12 32 31
f 12 31 30
f 12 30 29
f 12 29 28
f 12 28 27
f 12 27 25
f 12 25 24
f 12 24 23
f 12 23 41
f 12 41 40
f 12 40 39
f 12 39 54
f 12 54 60
f 12 60 47
f 12 47 34
f 12 34 14
f 12 14 13
f 17 36 52
f 17 52 58
f 17 58 57
f 17 57 56
f 17 56 65
f 17 65 68
f 17 68 67
f 17 67 66
f 17 66 62
f 17 62 51
f 17 51 50
f 17 50 49
f 17 49 37
f 17 37 18
f 21 38 22
f 22 38 39
f 22 39 40
f 22 40 41
f 22 41 23
f 26 32 42
f 32 43 44
f 32 44 42
f 32 45 36
f 32 36 43
f 33 34 47
f 33 47 46
f 35 37 49
f 35 49 50
f 35 50 51
f 35 51 48
f 36 45 52
f 38 53 39
f 39 53 54
f 45 55 56
f 45 56 57
f 45 57 58
f 45 58 52
f 46 47 60
f 46 60 59
f 48 51 61
f 51 62 63
f 51 63 61
f 53 64 54
f 54 64 60
f 55 63 65
f 55 65 56
f 59 60 64
f 62 66 63
f 63 66 67
f 63 67 68
f 63 68 65

