# https://github.com/mikedh/trimesh
v -0.01705310 -0.02163363 0.07577447
v -0.03282414 -0.01978258 0.06994646
v -0.03282414 -0.01983446 0.07462344
v -0.03282414 -0.01987326 0.07577447
v -0.01705310 -0.02416012 0.07577447
v -0.01705310 -0.02149246 0.04600500
v -0.03282414 -0.01966198 0.05241290
v -0.03282414 -0.02252363 0.07577447
v -0.01763207 -0.02421528 0.07577447
v -0.01705310 -0.02402035 0.04712689
v -0.01705310 -0.02400680 0.04600500
v -0.03281641 -0.01967740 0.04600500
v -0.03282414 -0.01967507 0.04601083
v -0.03282414 -0.01966198 0.05240707
v -0.03279326 -0.02253624 0.07577447
v -0.03282414 -0.02234413 0.05240707
v -0.01879000 -0.02429708 0.07577447
v -0.01879000 -0.02420079 0.05123855
v -0.01762126 -0.02405120 0.04600500
v -0.03282414 -0.01969236 0.04600500
v -0.03164768 -0.02286485 0.07577447
v -0.03236405 -0.02247548 0.04656158
v -0.03282414 -0.02233478 0.05123855
v -0.02112748 -0.02443637 0.07577447
v -0.01995874 -0.02424332 0.05123855
v -0.01879000 -0.02412366 0.04600500
v -0.01817553 -0.02408907 0.04600500
v -0.02113829 -0.02443684 0.07577447
v -0.03282414 -0.02225906 0.04600500
v -0.03048974 -0.02316775 0.07577447
v -0.03164768 -0.02266666 0.04656158
v -0.03282414 -0.02229224 0.04656158
v -0.03231773 -0.02245538 0.04600500
v -0.03212938 -0.02250586 0.04600500
v -0.02112748 -0.02423070 0.05357558
v -0.02112748 -0.02415591 0.04656158
v -0.01995874 -0.02419050 0.04773009
v -0.02229776 -0.02442048 0.07577447
v -0.01995874 -0.02415545 0.04600500
v -0.03047894 -0.02317056 0.07577447
v -0.03167392 -0.02262366 0.04600500
v -0.03047894 -0.02288495 0.04600500
v -0.02726606 -0.02354451 0.04600500
v -0.02765513 -0.02361789 0.05474410
v -0.02926542 -0.02346551 0.07577447
v -0.02168329 -0.02412600 0.04600500
v -0.02112748 -0.02414282 0.04600500
v -0.02230857 -0.02441955 0.07577447
v -0.02463524 -0.02407785 0.05825256
v -0.02463524 -0.02406570 0.05708113
v -0.02346650 -0.02415825 0.05825256
v -0.02668247 -0.02363893 0.04600500
v -0.02697118 -0.02373008 0.05474410
v -0.02697118 -0.02374457 0.05591262
v -0.02697118 -0.02393108 0.07577447
v -0.02697889 -0.02392967 0.07577447
v -0.02814609 -0.02370624 0.07577447
v -0.02229776 -0.02408907 0.04600500
v -0.02580244 -0.02409935 0.07577447
v -0.02580244 -0.02392126 0.05591262
v -0.02346650 -0.02400072 0.04600500
v -0.02285203 -0.02405027 0.04600500
v -0.02624245 -0.02369175 0.04600500
f 1 2 3
f 1 3 4
f 1 4 8
f 1 8 15
f 1 15 21
f 1 21 30
f 1 30 40
f 1 40 45
f 1 45 57
f 1 57 56
f 1 56 55
f 1 55 59
f 1 59 48
f 1 48 38
f 1 38 28
f 1 28 24
f 1 24 17
f 1 17 9
f 1 9 5
f 1 5 10
f 1 10 11
f 1 11 6
f 1 6 7
f 1 7 2
f 2 7 14
f 2 14 13
f 2 13 20
f 2 20 29
f 2 29 32
f 2 32 23
f 2 23 16
f 2 16 8
f 2 8 4
f 2 4 3
f 5 9 10
f 6 11 19
f 6 19 27
f 6 27 26
f 6 26 39
f 6 39 47
f 6 47 46
f 6 46 58
f 6 58 62
f 6 62 61
f 6 61 63
f 6 63 52
f 6 52 43
f 6 43 42
f 6 42 41
f 6 41 34
f 6 34 33
f 6 33 29
f 6 29 20
f 6 20 12
f 6 12 13
f 6 13 14
f 6 14 7
f 8 16 15
f 9 17 18
f 9 18 10
f 10 18 19
f 10 19 11
f 12 20 13
f 15 16 22
f 15 22 21
f 16 23 22
f 17 24 18
f 18 25 26
f 18 26 27
f 18 27 19
f 18 24 28
f 18 28 25
f 21 22 31
f 21 31 30
f 22 23 32
f 22 32 29
f 22 29 33
f 22 33 34
f 22 34 31
f 25 35 36
f 25 36 37
f 25 37 26
f 25 28 38
f 25 38 35
f 26 37 39
f 30 31 40
f 31 34 41
f 31 41 42
f 31 42 43
f 31 43 44
f 31 44 45
f 31 45 40
f 35 38 36
f 36 46 47
f 36 47 39
f 36 39 37
f 36 38 46
f 38 48 49
f 38 49 50
f 38 50 51
f 38 51 46
f 43 52 53
f 43 53 44
f 44 53 54
f 44 54 55
f 44 55 56
f 44 56 57
f 44 57 45
f 46 51 58
f 48 59 49
f 49 60 50
f 49 59 60
f 50 60 61
f 50 61 62
f 50 62 58
f 50 58 51
f 52 63 60
f 52 60 53
f 53 60 54
f 54 60 55
f 55 60 59
f 60 63 61

