# https://github.com/mikedh/trimesh
v 0.00003763 0.05311604 0.04600500
v 0.00003763 0.05010126 0.04600500
v 0.00003763 0.05311769 0.04592597
v -0.00008500 0.05318878 0.04600500
v 0.00003763 0.05009713 0.04595509
v -0.01470159 0.05550422 0.04600500
v -0.01470159 0.04990783 0.04008601
v -0.01459049 0.04990783 0.04011513
v 0.00003763 0.05312596 0.04538939
v -0.00008500 0.05319870 0.04538939
v -0.00041683 0.05337809 0.04600500
v -0.01251004 0.04990783 0.04060179
v -0.01136160 0.04990783 0.04084720
v -0.01063878 0.04990783 0.04098863
v -0.01003282 0.04990783 0.04109261
v 0.00003763 0.04993263 0.04305174
v -0.01470159 0.05835202 0.04600500
v -0.01470159 0.04990783 0.00748788
v -0.00068807 0.05355664 0.04422057
v 0.00003763 0.05309538 0.03954527
v -0.00069529 0.05355168 0.03837645
v -0.00070250 0.05355003 0.04538939
v -0.00070971 0.05354507 0.04600500
v -0.00949178 0.04990783 0.04117164
v -0.00932731 0.04990783 0.04119244
v -0.00900990 0.04990783 0.04122988
v -0.00826688 0.04990783 0.04126731
v -0.00765660 0.04990783 0.04127147
v -0.00740988 0.04990783 0.04126731
v 0.00003763 0.04990783 0.04065170
v -0.01378976 0.05820074 0.04600500
v -0.01379698 0.05819908 0.04538939
v -0.01411294 0.05805938 0.01148933
v -0.01470159 0.05813957 0.01032051
v -0.01470159 0.05376248 0.00351138
v -0.00254923 0.04990783 0.00351138
v -0.00297629 0.05475280 0.04444518
v -0.00297629 0.05475280 0.04494433
v -0.00298206 0.05474867 0.03869673
v 0.00003763 0.05308793 0.03837645
v -0.00008500 0.05316564 0.03837645
v -0.00008500 0.05296559 0.01032051
v -0.00090304 0.05345331 0.01032051
v -0.00129403 0.05383687 0.04600500
v 0.00003763 0.04990783 0.00351138
v -0.01294286 0.05800152 0.04600500
v -0.01060559 0.05751049 0.04305174
v -0.01177423 0.05777584 0.04305174
v -0.01294286 0.05782792 0.01032051
v -0.01411294 0.05805111 0.01032051
v -0.01470159 0.05810567 0.00915168
v -0.01470159 0.05725340 0.00351138
v -0.00476098 0.05548851 0.04422057
v -0.00556604 0.05581917 0.04422057
v -0.00615901 0.05604815 0.04600500
v -0.00585171 0.05592002 0.04600500
v -0.00557470 0.05580429 0.04600500
v -0.00418965 0.05520332 0.04600500
v -0.00360677 0.05494210 0.04600500
v -0.00329225 0.05479909 0.04600500
v -0.00283057 0.05458747 0.04600500
v -0.00246844 0.05441883 0.04600500
v -0.00557181 0.05580677 0.03954527
v -0.00324031 0.05461806 0.01032051
v -0.00382463 0.05489663 0.01032051
v -0.00633792 0.05598037 0.01148933
v 0.00003763 0.05288789 0.01032051
v 0.00003763 0.05288623 0.01012501
v -0.00008500 0.05293087 0.00915168
v -0.00095066 0.05342190 0.00915168
v -0.00330524 0.05459739 0.00915168
v 0.00003763 0.05178680 0.00351138
v -0.00932587 0.05709551 0.04600500
v -0.01060559 0.05748238 0.04422057
v -0.00904886 0.05701946 0.04600500
v -0.00963318 0.05721372 0.04305174
v -0.00990730 0.05711370 0.01032051
v -0.01060559 0.05727903 0.01032051
v -0.01060559 0.05725175 0.00915168
v -0.01177423 0.05752454 0.00915168
v -0.01177423 0.05747990 0.00798286
v -0.01294286 0.05777997 0.00915168
v -0.01411294 0.05800730 0.00915168
v -0.01470159 0.05805608 0.00798286
v -0.01470159 0.05757166 0.00447639
v -0.01411294 0.05750470 0.00447639
v -0.01448806 0.05722695 0.00351138
v -0.00615613 0.05604898 0.04538939
v -0.00615613 0.05604319 0.03954527
v -0.00665244 0.05621513 0.04600500
v -0.00396025 0.05483464 0.00798286
v -0.00476098 0.05512727 0.00681404
v -0.00652259 0.05590018 0.00746708
v -0.00636966 0.05596631 0.01032051
v -0.00709969 0.05622671 0.01032051
v -0.00709969 0.05624076 0.01148933
v 0.00003763 0.05285730 0.00915168
v 0.00003763 0.05284738 0.00894371
v 0.00003763 0.05276637 0.00782896
v -0.00111946 0.05332353 0.00681404
v -0.00170378 0.05363517 0.00681404
v -0.00403672 0.05480736 0.00681404
v -0.00028987 0.05200420 0.00351138
v -0.00064768 0.05241008 0.00386494
v 0.00003763 0.05218111 0.00441815
v -0.00826688 0.05662515 0.01265816
v -0.00826688 0.05661192 0.01148933
v -0.00709969 0.05619199 0.00915168
v -0.00826688 0.05656067 0.00915168
v -0.01005158 0.05706410 0.00774161
v -0.01050749 0.05718810 0.00807021
v -0.01411294 0.05794448 0.00798286
v -0.01077584 0.05717074 0.00681404
v -0.01177423 0.05739145 0.00681404
v -0.01470159 0.05795853 0.00686395
v -0.01470159 0.05769648 0.00506704
v -0.01411294 0.05770888 0.00564521
v -0.01294286 0.05747246 0.00564521
v -0.01133707 0.05704509 0.00521262
v -0.01293276 0.05724596 0.00448887
v -0.01331509 0.05713933 0.00376095
v -0.01411294 0.05721455 0.00361536
v -0.01411294 0.05716082 0.00351138
v -0.00411318 0.05476437 0.00609860
v -0.00593106 0.05560590 0.00681404
v -0.00662358 0.05587043 0.00681404
v -0.01019152 0.05703186 0.00681404
v -0.00698716 0.05608370 0.00790799
v 0.00003763 0.05267544 0.00682652
v 0.00000301 0.05269197 0.00680156
v -0.00177591 0.05359963 0.00608196
v -0.00118150 0.05252581 0.00351138
v -0.00291858 0.05361285 0.00379007
v -0.00047743 0.05250846 0.00447639
v -0.00264012 0.05332601 0.00351138
v 0.00003763 0.05220012 0.00447639
v -0.01099658 0.05711453 0.00599461
v -0.01470159 0.05789157 0.00623170
v -0.01470159 0.05779733 0.00564521
v -0.01060559 0.05669128 0.00447639
v -0.01060704 0.05695581 0.00562025
v -0.01052480 0.05633500 0.00351138
v -0.01308858 0.05695250 0.00351138
v -0.00236744 0.05382034 0.00567433
v -0.00367025 0.05446513 0.00568681
v -0.00431372 0.05467427 0.00532077
v -0.00472635 0.05493962 0.00568681
v -0.00593106 0.05544057 0.00564521
v -0.00687606 0.05579024 0.00564521
v -0.00943696 0.05661689 0.00564521
v 0.00003763 0.05253987 0.00594886
v -0.00023793 0.05265394 0.00564521
v -0.00133299 0.05327145 0.00567433
v -0.00194183 0.05351118 0.00529997
v -0.00535395 0.05473048 0.00390238
v -0.00359235 0.05412703 0.00447639
v -0.00272525 0.05371867 0.00447639
v -0.00340767 0.05369221 0.00351138
v -0.00613881 0.05490242 0.00351138
v 0.00003763 0.05249110 0.00564521
v 0.00003763 0.05238281 0.00520430
v -0.00943696 0.05637220 0.00447639
v -0.00871702 0.05594978 0.00378591
v -0.00943696 0.05606055 0.00352801
v -0.00948746 0.05606799 0.00351138
v -0.00509281 0.05485199 0.00468436
v -0.00581852 0.05507436 0.00436824
v -0.00718914 0.05565054 0.00455958
v -0.00763640 0.05591754 0.00500880
v -0.00703621 0.05523391 0.00351138
v -0.00830295 0.05602831 0.00455958
v -0.00793649 0.05581256 0.00422682
v -0.00728148 0.05532401 0.00351138
v -0.00845011 0.05574229 0.00351138
v -0.00943696 0.05605394 0.00351138
f 1 2 5
f 1 5 16
f 1 16 30
f 1 30 45
f 1 45 72
f 1 72 105
f 1 105 136
f 1 136 161
f 1 161 160
f 1 160 151
f 1 151 129
f 1 129 99
f 1 99 98
f 1 98 97
f 1 97 68
f 1 68 67
f 1 67 40
f 1 40 20
f 1 20 9
f 1 9 3
f 1 3 4
f 1 4 11
f 1 11 23
f 1 23 44
f 1 44 62
f 1 62 61
f 1 61 60
f 1 60 59
f 1 59 58
f 1 58 57
f 1 57 56
f 1 56 55
f 1 55 90
f 1 90 75
f 1 75 73
f 1 73 46
f 1 46 31
f 1 31 17
f 1 17 6
f 1 6 2
f 2 6 7
f 2 7 8
f 2 8 5
f 3 9 10
f 3 10 4
f 4 10 11
f 5 12 13
f 5 13 14
f 5 14 15
f 5 15 16
f 5 8 12
f 6 17 34
f 6 34 51
f 6 51 84
f 6 84 115
f 6 115 138
f 6 138 139
f 6 139 116
f 6 116 85
f 6 85 52
f 6 52 35
f 6 35 18
f 6 18 7
f 7 18 36
f 7 36 45
f 7 45 30
f 7 30 29
f 7 29 28
f 7 28 27
f 7 27 26
f 7 26 25
f 7 25 24
f 7 24 15
f 7 15 14
f 7 14 13
f 7 13 12
f 7 12 8
f 9 19 10
f 9 20 21
f 9 21 19
f 10 19 22
f 10 22 23
f 10 23 11
f 15 24 16
f 16 24 25
f 16 25 26
f 16 26 27
f 16 27 28
f 16 28 29
f 16 29 30
f 17 31 32
f 17 32 33
f 17 33 34
f 18 35 36
f 19 37 38
f 19 38 22
f 19 21 39
f 19 39 37
f 20 40 41
f 20 41 21
f 21 41 42
f 21 42 43
f 21 43 39
f 22 38 23
f 23 38 44
f 31 46 47
f 31 47 48
f 31 48 32
f 32 48 49
f 32 49 33
f 33 49 50
f 33 50 34
f 34 50 51
f 35 52 87
f 35 87 123
f 35 123 143
f 35 143 142
f 35 142 165
f 35 165 175
f 35 175 174
f 35 174 173
f 35 173 170
f 35 170 159
f 35 159 158
f 35 158 135
f 35 135 132
f 35 132 103
f 35 103 72
f 35 72 45
f 35 45 36
f 37 53 38
f 37 39 53
f 38 53 54
f 38 54 55
f 38 55 56
f 38 56 57
f 38 57 58
f 38 58 59
f 38 59 60
f 38 60 61
f 38 61 62
f 38 62 44
f 39 63 54
f 39 54 53
f 39 43 64
f 39 64 65
f 39 65 66
f 39 66 63
f 40 67 42
f 40 42 41
f 42 67 68
f 42 68 69
f 42 69 43
f 43 69 70
f 43 70 71
f 43 71 64
f 46 73 74
f 46 74 47
f 47 74 73
f 47 73 75
f 47 75 76
f 47 76 77
f 47 77 78
f 47 78 49
f 47 49 48
f 49 78 79
f 49 79 80
f 49 80 81
f 49 81 82
f 49 82 83
f 49 83 50
f 50 83 51
f 51 83 84
f 52 85 86
f 52 86 87
f 54 88 55
f 54 63 89
f 54 89 88
f 55 88 90
f 63 66 89
f 64 71 65
f 65 71 91
f 65 91 92
f 65 92 93
f 65 93 94
f 65 94 66
f 66 94 95
f 66 95 96
f 66 96 89
f 68 97 69
f 69 97 98
f 69 98 70
f 70 98 99
f 70 99 100
f 70 100 101
f 70 101 102
f 70 102 71
f 71 102 91
f 72 103 104
f 72 104 105
f 75 90 88
f 75 88 76
f 76 88 89
f 76 89 96
f 76 96 106
f 76 106 77
f 77 106 107
f 77 107 95
f 77 95 108
f 77 108 109
f 77 109 110
f 77 110 79
f 77 79 78
f 79 110 111
f 79 111 80
f 80 111 81
f 81 112 82
f 81 111 110
f 81 110 113
f 81 113 114
f 81 114 112
f 82 112 83
f 83 112 84
f 84 112 115
f 85 116 86
f 86 116 117
f 86 117 118
f 86 118 119
f 86 119 120
f 86 120 121
f 86 121 122
f 86 122 87
f 87 122 123
f 91 102 92
f 92 102 124
f 92 124 125
f 92 125 93
f 93 125 126
f 93 126 127
f 93 127 110
f 93 110 128
f 93 128 108
f 93 108 94
f 94 108 95
f 95 107 96
f 96 107 106
f 99 129 100
f 100 130 131
f 100 131 101
f 100 129 130
f 101 131 102
f 102 131 124
f 103 132 104
f 104 133 134
f 104 134 105
f 104 132 135
f 104 135 133
f 105 134 136
f 108 128 110
f 108 110 109
f 110 127 113
f 112 114 115
f 113 127 137
f 113 137 114
f 114 137 118
f 114 118 117
f 114 117 138
f 114 138 115
f 116 139 117
f 117 139 138
f 118 137 119
f 119 140 120
f 119 137 141
f 119 141 140
f 120 140 121
f 121 140 142
f 121 142 143
f 121 143 123
f 121 123 122
f 124 131 144
f 124 144 145
f 124 145 146
f 124 146 147
f 124 147 148
f 124 148 125
f 125 148 126
f 126 148 149
f 126 149 127
f 127 149 150
f 127 150 141
f 127 141 137
f 129 151 130
f 130 151 152
f 130 152 131
f 131 152 153
f 131 153 154
f 131 154 144
f 133 155 156
f 133 156 157
f 133 157 134
f 133 135 158
f 133 158 159
f 133 159 155
f 134 157 154
f 134 154 153
f 134 153 152
f 134 152 160
f 134 160 161
f 134 161 136
f 140 162 163
f 140 163 164
f 140 164 165
f 140 165 142
f 140 141 162
f 141 150 162
f 144 154 157
f 144 157 145
f 145 157 156
f 145 156 146
f 146 156 166
f 146 166 147
f 147 166 148
f 148 166 167
f 148 167 168
f 148 168 149
f 149 168 169
f 149 169 150
f 150 169 162
f 151 160 152
f 155 167 166
f 155 166 156
f 155 159 167
f 159 170 163
f 159 163 168
f 159 168 167
f 162 169 171
f 162 171 163
f 163 171 172
f 163 172 168
f 163 170 173
f 163 173 174
f 163 174 175
f 163 175 164
f 164 175 165
f 168 171 169
f 168 172 171

