# https://github.com/mikedh/trimesh
v 0.01345625 -0.00627904 0.04539028
v 0.01344066 -0.00627904 0.04595311
v 0.01306466 -0.00681357 0.04600500
v 0.01306271 -0.00682405 0.04539028
v 0.01339001 -0.00627904 0.04170727
v 0.01343871 -0.00627904 0.04600500
v 0.01275684 -0.00720886 0.04600500
v 0.01301985 -0.00675518 0.04053935
v 0.01248020 -0.00756371 0.04600500
v 0.01096840 -0.00949670 0.04600500
v 0.01247825 -0.00757120 0.04539028
v 0.01201069 -0.00817011 0.04422128
v 0.01201069 -0.00816861 0.04305282
v 0.01335884 -0.00627904 0.04053935
v 0.01030212 -0.00627904 0.04600500
v 0.01243539 -0.00753526 0.04053935
v 0.01068201 -0.00983808 0.04600500
v 0.01047745 -0.01004920 0.04053935
v 0.01095281 -0.00947724 0.04053935
v 0.01020276 -0.00627904 0.04053935
v 0.01028848 -0.00627904 0.04539028
v -0.00644653 -0.01713134 0.04053935
v -0.00644653 -0.01886969 0.04600500
v 0.01042096 -0.01014802 0.04600500
v 0.00987741 -0.01076340 0.04071483
v 0.00993975 -0.01068554 0.04053935
v 0.01020860 -0.00627904 0.04090957
v 0.01022419 -0.00627904 0.04188382
v -0.00644653 -0.02150491 0.04053935
v -0.00644653 -0.02157378 0.04600500
v 0.00988910 -0.01077538 0.04600500
v 0.00988715 -0.01077688 0.04539028
v 0.00933971 -0.01136082 0.04539028
v 0.00903579 -0.01168423 0.04600500
v 0.00931828 -0.01134734 0.04071483
v 0.00987546 -0.01076041 0.04053935
v -0.00644653 -0.02153485 0.04144244
v -0.00555231 -0.02117400 0.04053935
v -0.00546464 -0.02121144 0.04188382
v -0.00644653 -0.02154533 0.04188382
v -0.00546853 -0.02120844 0.04305282
v -0.00609390 -0.02143603 0.04600500
v 0.00934165 -0.01136082 0.04600500
v 0.00875720 -0.01197171 0.04600500
v 0.00873382 -0.01194775 0.04071483
v 0.00872992 -0.01194626 0.04053935
v -0.00242155 -0.01981447 0.04053935
v -0.00475939 -0.02091647 0.04305282
v -0.00475939 -0.02089551 0.04188382
v -0.00296705 -0.02010045 0.04219680
v -0.00359047 -0.02039841 0.04305282
v -0.00359047 -0.02038943 0.04600500
v 0.00666288 -0.01380588 0.04600500
v 0.00864615 -0.01202412 0.04053935
v -0.00142797 -0.01933983 0.04053935
v -0.00294757 -0.02011243 0.04422128
v -0.00125264 -0.01925599 0.04053935
v -0.00295536 -0.02010644 0.04305282
v -0.00295341 -0.02010794 0.04600500
v 0.00625376 -0.01416224 0.04600500
v 0.00623038 -0.01413828 0.04053935
v -0.00125264 -0.01930390 0.04600500
v -0.00058051 -0.01897001 0.04539028
v -0.00005839 -0.01861964 0.04053935
v -0.00005644 -0.01862264 0.04071483
v 0.00566931 -0.01463388 0.04600500
v 0.00564398 -0.01465035 0.04188382
v 0.00564593 -0.01464436 0.04071483
v 0.00573360 -0.01456949 0.04053935
v -0.00058051 -0.01897150 0.04600500
v 0.00096051 -0.01803870 0.04071483
v 0.00095857 -0.01803421 0.04053935
v 0.00531084 -0.01491088 0.04600500
v 0.00492120 -0.01522980 0.04071483
v 0.00564593 -0.01464286 0.04053935
v 0.00150796 -0.01764491 0.04600500
v 0.00154497 -0.01765839 0.04071483
v 0.00104624 -0.01798180 0.04053935
v 0.00490756 -0.01521782 0.04600500
v 0.00490756 -0.01523579 0.04188382
v 0.00491925 -0.01522680 0.04053935
v 0.00294962 -0.01666419 0.04539028
v 0.00154302 -0.01765839 0.04053935
v 0.00225412 -0.01714033 0.04600500
v 0.00294378 -0.01665521 0.04600500
f 1 2 3
f 1 3 4
f 1 4 5
f 1 5 14
f 1 14 20
f 1 20 27
f 1 27 28
f 1 28 21
f 1 21 15
f 1 15 6
f 1 6 2
f 2 6 3
f 3 6 15
f 3 15 23
f 3 23 30
f 3 30 42
f 3 42 52
f 3 52 59
f 3 59 62
f 3 62 70
f 3 70 76
f 3 76 84
f 3 84 85
f 3 85 79
f 3 79 73
f 3 73 66
f 3 66 60
f 3 60 53
f 3 53 44
f 3 44 34
f 3 34 43
f 3 43 31
f 3 31 24
f 3 24 17
f 3 17 10
f 3 10 9
f 3 9 7
f 3 7 4
f 4 8 5
f 4 7 9
f 4 9 10
f 4 10 11
f 4 11 12
f 4 12 13
f 4 13 8
f 5 8 14
f 8 16 19
f 8 19 18
f 8 18 26
f 8 26 36
f 8 36 46
f 8 46 54
f 8 54 61
f 8 61 69
f 8 69 75
f 8 75 81
f 8 81 83
f 8 83 78
f 8 78 72
f 8 72 64
f 8 64 57
f 8 57 55
f 8 55 47
f 8 47 38
f 8 38 29
f 8 29 22
f 8 22 20
f 8 20 14
f 8 13 16
f 10 17 18
f 10 18 19
f 10 19 13
f 10 13 12
f 10 12 11
f 13 19 16
f 15 21 22
f 15 22 23
f 17 24 25
f 17 25 18
f 18 25 26
f 20 22 27
f 21 28 22
f 22 29 37
f 22 37 40
f 22 40 30
f 22 30 23
f 22 28 27
f 24 31 32
f 24 32 25
f 25 32 33
f 25 33 34
f 25 34 35
f 25 35 36
f 25 36 26
f 29 38 39
f 29 39 37
f 30 40 39
f 30 39 41
f 30 41 42
f 31 43 32
f 32 43 33
f 33 43 34
f 34 44 35
f 35 44 45
f 35 45 46
f 35 46 36
f 37 39 40
f 38 47 39
f 39 48 41
f 39 47 49
f 39 49 50
f 39 50 51
f 39 51 48
f 41 48 42
f 42 48 52
f 44 53 54
f 44 54 45
f 45 54 46
f 47 50 49
f 47 55 50
f 48 51 56
f 48 56 52
f 50 55 57
f 50 57 58
f 50 58 51
f 51 58 56
f 52 56 59
f 53 60 61
f 53 61 54
f 56 62 59
f 56 58 62
f 57 63 62
f 57 62 58
f 57 64 65
f 57 65 63
f 60 66 67
f 60 67 68
f 60 68 69
f 60 69 61
f 62 63 70
f 63 65 71
f 63 71 70
f 64 72 71
f 64 71 65
f 66 73 74
f 66 74 67
f 67 74 68
f 68 75 69
f 68 74 75
f 70 71 76
f 71 77 76
f 71 72 78
f 71 78 77
f 73 79 80
f 73 80 74
f 74 81 75
f 74 80 82
f 74 82 77
f 74 77 83
f 74 83 81
f 76 77 84
f 77 82 84
f 77 78 83
f 79 85 82
f 79 82 80
f 82 85 84

