# https://github.com/mikedh/trimesh
v 0.01406273 -0.00525946 0.03954561
v 0.01405212 -0.00525946 0.03887371
v 0.01404000 -0.00525946 0.04053935
v 0.01397485 -0.00535866 0.04053935
v 0.01350970 -0.00606412 0.04053935
v 0.01392182 -0.00547165 0.03954561
v 0.01399303 -0.00534902 0.03887371
v 0.00997184 -0.00525946 0.03887371
v 0.01093850 -0.00525946 0.04053935
v 0.01344303 -0.00617572 0.03954561
v 0.01343697 -0.00617021 0.04053935
v 0.01370818 -0.00577064 0.03887371
v 0.01391121 -0.00547165 0.03887371
v -0.00141447 -0.01555876 0.03887371
v -0.00141447 -0.01637720 0.04053935
v 0.01302940 -0.00675992 0.03954561
v 0.01343697 -0.00616883 0.03887371
v 0.01302031 -0.00675441 0.04053935
v -0.00141447 -0.01929958 0.03887371
v -0.00141447 -0.01933403 0.04053935
v 0.01244455 -0.00755631 0.03954561
v 0.01243395 -0.00755080 0.03887371
v 0.01301879 -0.00675303 0.03887371
v 0.01243546 -0.00753426 0.04053935
v -0.00141447 -0.01932438 0.03954561
v -0.00134781 -0.01926789 0.03887371
v -0.00125235 -0.01925549 0.04053935
v 0.01096729 -0.00949492 0.03954561
v 0.01096880 -0.00949768 0.03887371
v 0.01218698 -0.00788699 0.03887371
v 0.01095213 -0.00947839 0.04053935
v -0.00119023 -0.01919211 0.03887371
v -0.00125235 -0.01924584 0.03954561
v -0.00005842 -0.01861893 0.04053935
v 0.01047789 -0.01005019 0.04053935
v 0.00994002 -0.01068537 0.04053935
v 0.00987638 -0.01075977 0.04053935
v 0.01068244 -0.00981733 0.03887371
v -0.00065993 -0.01891930 0.03887371
v -0.00014478 -0.01863546 0.03887371
v 0.00095067 -0.01801682 0.03887371
v 0.00080521 -0.01812291 0.04053935
v 0.00986881 -0.01075013 0.03995011
v 0.00872942 -0.01194609 0.04053935
v 0.01028699 -0.01025273 0.03887371
v 0.00153400 -0.01765996 0.03887371
v 0.00104612 -0.01798237 0.04053935
v 0.00095824 -0.01803473 0.04053935
v 0.00871578 -0.01193369 0.03979066
v 0.00927032 -0.01132193 0.03887371
v 0.00864608 -0.01202462 0.04053935
v 0.00753094 -0.01308555 0.03913099
v 0.00752942 -0.01308418 0.03887371
v 0.00153854 -0.01766134 0.03954561
v 0.00183854 -0.01744088 0.03887371
v 0.00154309 -0.01765858 0.04053935
v 0.00779154 -0.01281963 0.03887371
v 0.00623246 -0.01413822 0.04053935
v 0.00732488 -0.01325365 0.03887371
v 0.00573549 -0.01456948 0.04053935
v 0.00564761 -0.01464251 0.04053935
v 0.00225369 -0.01714189 0.03887371
v 0.00225369 -0.01714603 0.03954561
v 0.00492186 -0.01522671 0.04053935
v 0.00598549 -0.01435316 0.03887371
v 0.00432035 -0.01563179 0.03887371
v 0.00491883 -0.01521293 0.03954561
v 0.00433398 -0.01563868 0.03954561
v 0.00565065 -0.01461633 0.03887371
v 0.00490368 -0.01520190 0.03887371
f 1 2 8
f 1 8 9
f 1 9 3
f 1 3 4
f 1 4 5
f 1 5 6
f 1 6 7
f 1 7 2
f 2 7 13
f 2 13 12
f 2 12 17
f 2 17 23
f 2 23 22
f 2 22 30
f 2 30 29
f 2 29 38
f 2 38 45
f 2 45 50
f 2 50 57
f 2 57 53
f 2 53 59
f 2 59 65
f 2 65 69
f 2 69 70
f 2 70 66
f 2 66 62
f 2 62 55
f 2 55 46
f 2 46 41
f 2 41 40
f 2 40 39
f 2 39 32
f 2 32 26
f 2 26 19
f 2 19 14
f 2 14 8
f 3 9 15
f 3 15 20
f 3 20 27
f 3 27 34
f 3 34 42
f 3 42 48
f 3 48 47
f 3 47 56
f 3 56 64
f 3 64 61
f 3 61 60
f 3 60 58
f 3 58 51
f 3 51 44
f 3 44 37
f 3 37 36
f 3 36 35
f 3 35 31
f 3 31 24
f 3 24 18
f 3 18 11
f 3 11 5
f 3 5 4
f 5 10 6
f 5 11 10
f 6 10 12
f 6 12 13
f 6 13 7
f 8 14 15
f 8 15 9
f 10 11 16
f 10 16 17
f 10 17 12
f 11 18 16
f 14 19 25
f 14 25 20
f 14 20 15
f 16 18 21
f 16 21 22
f 16 22 23
f 16 23 17
f 18 24 21
f 19 26 25
f 20 25 33
f 20 33 27
f 21 24 28
f 21 28 29
f 21 29 30
f 21 30 22
f 24 31 28
f 25 26 32
f 25 32 33
f 27 33 34
f 28 31 35
f 28 35 36
f 28 36 37
f 28 37 29
f 29 37 38
f 32 39 33
f 33 39 34
f 34 40 41
f 34 41 42
f 34 39 40
f 37 43 38
f 37 44 43
f 38 43 45
f 41 46 47
f 41 47 48
f 41 48 42
f 43 44 49
f 43 49 50
f 43 50 45
f 44 51 52
f 44 52 53
f 44 53 49
f 46 54 47
f 46 55 54
f 47 54 56
f 49 53 57
f 49 57 50
f 51 58 52
f 52 59 53
f 52 58 60
f 52 60 61
f 52 61 59
f 54 55 62
f 54 62 63
f 54 63 64
f 54 64 56
f 59 61 65
f 61 64 65
f 62 66 67
f 62 67 68
f 62 68 64
f 62 64 63
f 64 68 67
f 64 67 65
f 65 67 69
f 66 70 67
f 67 70 69

