# https://github.com/mikedh/trimesh
v 0.00794366 -0.04068645 0.08338708
v 0.00794366 -0.04186275 0.08338708
v 0.00794366 -0.03981088 0.08338392
v -0.00770685 -0.03981088 0.08338392
v -0.00770685 -0.04098667 0.08338708
v 0.00764187 -0.04216348 0.08338708
v 0.00794366 -0.04216348 0.08338392
v 0.00794366 -0.03951015 0.08334609
v -0.00770685 -0.03856502 0.08312227
v -0.00770685 -0.04216348 0.08338392
v -0.00765016 -0.04216348 0.08338708
v 0.00237345 -0.04272657 0.08337762
v 0.00355000 -0.04272657 0.08337447
v 0.00472655 -0.04272657 0.08336816
v 0.00590309 -0.04272657 0.08335555
v 0.00707964 -0.04272657 0.08333979
v 0.00794366 -0.04272657 0.08331142
v 0.00794366 -0.03857985 0.08314433
v 0.00794366 -0.03841722 0.08309074
v 0.00794366 -0.03820344 0.08300247
v -0.00770685 -0.03852871 0.08310650
v -0.00770685 -0.04272657 0.08330826
v -0.00765016 -0.04272657 0.08331457
v -0.00647362 -0.04272657 0.08333979
v -0.00529707 -0.04272657 0.08335555
v -0.00412053 -0.04272657 0.08336816
v -0.00294398 -0.04272657 0.08337447
v -0.00176743 -0.04272657 0.08337762
v 0.00794366 -0.04272657 0.07884746
v 0.00794366 -0.03803569 0.08292050
v -0.00730700 -0.03812365 0.08281962
v -0.00770685 -0.03784901 0.08242241
v -0.00770685 -0.04272657 0.06439318
v 0.00785328 -0.04272657 0.06585910
v 0.00794366 -0.04244528 0.06585910
v 0.00794366 -0.03795539 0.08275342
v 0.00794366 -0.03777690 0.08237197
v -0.00770685 -0.03783214 0.08238458
v -0.00770685 -0.04194049 0.05118100
v -0.00749237 -0.04272657 0.06363343
v 0.00782417 -0.04272657 0.06509304
v 0.00794366 -0.04189037 0.05118100
v 0.00794366 -0.03771399 0.08209454
v -0.00770685 -0.03755647 0.08115194
v -0.00770685 -0.03755698 0.05118100
v -0.00765016 -0.04195174 0.05118100
v -0.00707108 -0.04272657 0.06337492
v -0.00703278 -0.04205403 0.05118100
v -0.00647362 -0.04214609 0.05118100
v -0.00529707 -0.04229338 0.05118100
v -0.00412053 -0.04241152 0.05118100
v -0.00350315 -0.04246625 0.05118100
v -0.00294398 -0.04251534 0.05118100
v -0.00232660 -0.04254961 0.05118100
v -0.00176743 -0.04258030 0.05118100
v -0.00115159 -0.04259973 0.05118100
v -0.00059089 -0.04261661 0.05118100
v 0.00779813 -0.04272657 0.06468321
v 0.00764187 -0.04195174 0.05118100
v 0.00794366 -0.03750277 0.05118100
v 0.00760357 -0.04272657 0.06397705
v 0.00794366 -0.03750328 0.08115194
v -0.00770685 -0.03755545 0.08002965
v -0.00770685 -0.03755647 0.05409392
v -0.00574287 -0.04272657 0.06264354
v 0.00058412 -0.04261661 0.05118100
v -0.00059089 -0.04272657 0.06186802
v -0.00176743 -0.04272657 0.06190585
v -0.00294398 -0.04272657 0.06197520
v -0.00412053 -0.04272657 0.06214544
v -0.00492327 -0.04272657 0.06232513
v 0.00708270 -0.04204380 0.05118100
v 0.00748408 -0.04272657 0.06363343
v -0.00770685 -0.03755596 0.06468321
v -0.00770685 -0.03755545 0.07644524
v 0.00794366 -0.03750226 0.07967341
v 0.00794366 -0.03750226 0.07997605
v 0.00119997 -0.04259769 0.05118100
v 0.00635502 -0.04272657 0.06273181
v 0.00411376 -0.04272657 0.06214544
v 0.00293722 -0.04272657 0.06197520
v 0.00188782 -0.04272657 0.06191215
v 0.00176067 -0.04272657 0.06190585
v 0.00058412 -0.04272657 0.06186802
v 0.00646532 -0.04214506 0.05118100
v 0.00176067 -0.04258030 0.05118100
v 0.00293722 -0.04251790 0.05118100
v 0.00411376 -0.04241306 0.05118100
v 0.00528878 -0.04229134 0.05118100
v 0.00590616 -0.04221462 0.05118100
f 1 2 7
f 1 7 17
f 1 17 29
f 1 29 35
f 1 35 42
f 1 42 60
f 1 60 76
f 1 76 77
f 1 77 62
f 1 62 43
f 1 43 37
f 1 37 36
f 1 36 30
f 1 30 20
f 1 20 19
f 1 19 18
f 1 18 8
f 1 8 3
f 1 3 4
f 1 4 5
f 1 5 11
f 1 11 6
f 1 6 2
f 2 6 7
f 3 8 4
f 4 8 9
f 4 9 21
f 4 21 32
f 4 32 38
f 4 38 44
f 4 44 63
f 4 63 75
f 4 75 74
f 4 74 64
f 4 64 45
f 4 45 39
f 4 39 33
f 4 33 22
f 4 22 10
f 4 10 5
f 5 10 11
f 6 11 28
f 6 28 12
f 6 12 13
f 6 13 14
f 6 14 7
f 7 14 15
f 7 15 16
f 7 16 17
f 8 18 9
f 9 18 19
f 9 19 20
f 9 20 21
f 10 22 23
f 10 23 11
f 11 24 25
f 11 25 26
f 11 26 27
f 11 27 28
f 11 23 24
f 12 28 27
f 12 27 26
f 12 26 25
f 12 25 24
f 12 24 23
f 12 23 22
f 12 22 33
f 12 33 40
f 12 40 47
f 12 47 65
f 12 65 71
f 12 71 70
f 12 70 69
f 12 69 68
f 12 68 67
f 12 67 84
f 12 84 83
f 12 83 82
f 12 82 81
f 12 81 80
f 12 80 79
f 12 79 73
f 12 73 61
f 12 61 58
f 12 58 41
f 12 41 34
f 12 34 29
f 12 29 17
f 12 17 16
f 12 16 15
f 12 15 14
f 12 14 13
f 20 30 21
f 21 30 31
f 21 31 32
f 29 34 35
f 30 36 32
f 30 32 31
f 32 36 37
f 32 37 38
f 33 39 40
f 34 41 42
f 34 42 35
f 37 43 38
f 38 43 44
f 39 45 60
f 39 60 42
f 39 42 59
f 39 59 72
f 39 72 85
f 39 85 90
f 39 90 89
f 39 89 88
f 39 88 87
f 39 87 86
f 39 86 78
f 39 78 66
f 39 66 57
f 39 57 56
f 39 56 55
f 39 55 54
f 39 54 53
f 39 53 52
f 39 52 51
f 39 51 50
f 39 50 49
f 39 49 48
f 39 48 46
f 39 46 40
f 40 46 48
f 40 48 49
f 40 49 50
f 40 50 51
f 40 51 52
f 40 52 53
f 40 53 54
f 40 54 55
f 40 55 56
f 40 56 57
f 40 57 47
f 41 58 42
f 42 58 61
f 42 61 59
f 43 62 44
f 44 62 63
f 45 64 60
f 47 57 65
f 57 66 84
f 57 84 67
f 57 67 68
f 57 68 69
f 57 69 70
f 57 70 71
f 57 71 65
f 59 61 73
f 59 73 72
f 60 64 74
f 60 74 75
f 60 75 76
f 62 77 63
f 63 77 76
f 63 76 75
f 66 78 73
f 66 73 79
f 66 79 80
f 66 80 81
f 66 81 82
f 66 82 83
f 66 83 84
f 72 73 85
f 73 78 86
f 73 86 87
f 73 87 88
f 73 88 89
f 73 89 90
f 73 90 85

