# https://github.com/mikedh/trimesh
v 0.03921001 0.01932681 0.05856713
v 0.03921001 0.01949968 0.05856713
v 0.03921001 0.01874488 0.05890723
v 0.02633888 0.01966606 0.06234254
v 0.02633888 0.01975940 0.06231025
v 0.02633888 0.02022608 0.06215887
v 0.02633888 0.02141672 0.06207308
v 0.03921001 0.01995256 0.05860346
v 0.03921001 0.01871404 0.05892842
v 0.02633888 0.01461294 0.06619061
v 0.03921001 0.01461294 0.06175721
v 0.02633888 0.02167157 0.06213767
v 0.03921001 0.02027315 0.05870236
v 0.02633888 0.02209361 0.06226685
v 0.02633888 0.01461294 0.06876710
v 0.03921001 0.01461294 0.06663567
v 0.03921001 0.02060916 0.05900512
v 0.02633888 0.02254162 0.06292687
v 0.02680379 0.02258058 0.06292687
v 0.02680379 0.02211633 0.06224869
v 0.03921001 0.02118378 0.05955513
v 0.02642330 0.01461294 0.06875902
v 0.02633888 0.01510803 0.06882967
v 0.03921001 0.01557227 0.06673356
v 0.03883833 0.01557227 0.06692329
v 0.03871360 0.01461294 0.06687889
v 0.02633888 0.02271368 0.06339110
v 0.03921001 0.02187366 0.06092058
v 0.03921001 0.02171945 0.06048662
v 0.03921001 0.02132014 0.05976908
v 0.03185472 0.01461294 0.06822919
v 0.02680379 0.01557227 0.06884178
v 0.02633888 0.01557227 0.06887306
v 0.03921001 0.01609901 0.06669017
v 0.03872495 0.01674100 0.06685769
v 0.03814035 0.01674100 0.06710091
v 0.03825374 0.01557227 0.06713724
v 0.03823484 0.01461294 0.06705852
v 0.02633888 0.02290441 0.06409451
v 0.03921001 0.02186798 0.06173702
v 0.02680379 0.02289548 0.06409451
v 0.02797297 0.02282650 0.06409451
v 0.03249727 0.01461294 0.06816360
v 0.03230072 0.01482559 0.06821002
v 0.02680379 0.01674100 0.06884783
v 0.03307934 0.01517702 0.06817066
v 0.03267365 0.01556903 0.06824938
v 0.03339432 0.01595617 0.06820296
v 0.03031008 0.01674100 0.06854407
v 0.02633888 0.01627757 0.06887609
v 0.03921001 0.01674100 0.06662356
v 0.03798160 0.01744061 0.06705045
v 0.03732394 0.01674100 0.06735927
v 0.03732394 0.01557227 0.06743798
v 0.03749024 0.01461294 0.06731789
v 0.03812901 0.01461294 0.06709687
v 0.02633888 0.02285653 0.06455874
v 0.03921001 0.02180873 0.06213868
v 0.02914216 0.02269988 0.06409451
v 0.03031008 0.02256678 0.06409451
v 0.02633888 0.02269745 0.06526316
v 0.02797297 0.02252457 0.06526316
v 0.02914216 0.02240040 0.06526316
v 0.03381260 0.01461294 0.06802534
v 0.02633888 0.01791054 0.06875701
v 0.02633888 0.01674100 0.06887104
v 0.02914216 0.01791054 0.06857636
v 0.03379748 0.01556903 0.06813029
v 0.03147927 0.01674100 0.06841892
v 0.03498557 0.01557227 0.06798396
v 0.03337290 0.01674100 0.06820296
v 0.03264845 0.01674100 0.06828672
v 0.03325699 0.01735296 0.06819185
v 0.03921001 0.01732130 0.06648126
v 0.03770317 0.01822058 0.06692935
v 0.03731764 0.01786265 0.06716449
v 0.03921001 0.01789836 0.06632988
v 0.03615475 0.01674100 0.06768726
v 0.03615475 0.01557227 0.06775891
v 0.03732394 0.01461294 0.06737138
v 0.03921001 0.02152304 0.06292687
v 0.03384410 0.02211309 0.06412781
v 0.03347369 0.02204004 0.06475654
v 0.03425230 0.02197430 0.06453856
v 0.02633888 0.02250185 0.06566280
v 0.03064522 0.02197592 0.06580611
v 0.03027733 0.02223077 0.06535500
v 0.03402678 0.01461294 0.06799809
v 0.02633888 0.01907845 0.06851884
v 0.03031008 0.01791054 0.06844718
v 0.03031008 0.01870998 0.06826351
v 0.02914216 0.01891207 0.06833415
v 0.03498557 0.01674100 0.06792946
v 0.03498557 0.01461294 0.06787396
v 0.03615475 0.01461294 0.06768019
v 0.03615475 0.01791054 0.06746422
v 0.03371433 0.01780990 0.06796882
v 0.03264845 0.01808909 0.06809194
v 0.03921001 0.01859392 0.06607859
v 0.03921001 0.01879114 0.06599685
v 0.03692329 0.01863125 0.06708678
v 0.03921001 0.02131040 0.06339110
v 0.03384410 0.02168618 0.06519353
v 0.03498557 0.02139724 0.06526316
v 0.03732394 0.02099305 0.06492407
v 0.03807736 0.02088755 0.06476663
v 0.03847675 0.02111723 0.06414093
v 0.02633888 0.02224213 0.06619162
v 0.03027733 0.02161313 0.06632787
v 0.03031008 0.02095004 0.06712917
v 0.03563441 0.02085265 0.06587070
v 0.02633888 0.01950212 0.06838360
v 0.03031008 0.01929353 0.06802433
v 0.02914216 0.01949644 0.06812323
v 0.03264845 0.01907845 0.06771955
v 0.02680379 0.01978131 0.06824938
v 0.03615475 0.01881305 0.06717761
v 0.03921001 0.01910199 0.06582932
v 0.03850194 0.01910199 0.06615630
v 0.03731764 0.01904355 0.06669521
v 0.03615475 0.01939823 0.06685467
v 0.03921001 0.02103526 0.06389973
v 0.03607664 0.02110181 0.06529041
v 0.03885724 0.02074308 0.06456177
v 0.03921001 0.02084859 0.06420653
v 0.03732394 0.02054342 0.06550840
v 0.02633888 0.02205871 0.06642374
v 0.02633888 0.02177302 0.06677696
v 0.02914216 0.02101903 0.06719376
v 0.02633888 0.02040788 0.06790928
v 0.02914216 0.02024799 0.06771450
v 0.03031008 0.02024799 0.06755202
v 0.03520731 0.01956218 0.06695660
v 0.03607664 0.02029182 0.06619970
v 0.03732394 0.01995906 0.06609676
v 0.02633888 0.01982352 0.06827057
v 0.03921001 0.01935116 0.06569409
v 0.03889755 0.01950699 0.06575363
v 0.03811767 0.01978862 0.06594538
v 0.03848683 0.02026585 0.06526013
v 0.03921001 0.02008486 0.06509261
v 0.03921001 0.02066110 0.06446287
v 0.02633888 0.02118784 0.06732495
v 0.03921001 0.01969609 0.06544078
f 1 2 8
f 1 8 13
f 1 13 17
f 1 17 21
f 1 21 30
f 1 30 29
f 1 29 28
f 1 28 40
f 1 40 58
f 1 58 81
f 1 81 102
f 1 102 122
f 1 122 125
f 1 125 142
f 1 142 141
f 1 141 144
f 1 144 137
f 1 137 118
f 1 118 100
f 1 100 99
f 1 99 77
f 1 77 74
f 1 74 51
f 1 51 34
f 1 34 24
f 1 24 16
f 1 16 11
f 1 11 9
f 1 9 3
f 1 3 4
f 1 4 5
f 1 5 6
f 1 6 7
f 1 7 2
f 2 7 8
f 3 9 4
f 4 10 15
f 4 15 23
f 4 23 33
f 4 33 50
f 4 50 66
f 4 66 65
f 4 65 89
f 4 89 112
f 4 112 136
f 4 136 130
f 4 130 143
f 4 143 128
f 4 128 127
f 4 127 108
f 4 108 85
f 4 85 61
f 4 61 57
f 4 57 39
f 4 39 27
f 4 27 18
f 4 18 14
f 4 14 12
f 4 12 7
f 4 7 6
f 4 6 5
f 4 9 11
f 4 11 10
f 7 12 8
f 8 12 14
f 8 14 13
f 10 11 16
f 10 16 26
f 10 26 38
f 10 38 56
f 10 56 55
f 10 55 80
f 10 80 95
f 10 95 94
f 10 94 88
f 10 88 64
f 10 64 43
f 10 43 31
f 10 31 22
f 10 22 15
f 13 14 17
f 14 18 19
f 14 19 20
f 14 20 21
f 14 21 17
f 15 22 23
f 16 24 25
f 16 25 26
f 18 27 19
f 19 27 28
f 19 28 29
f 19 29 30
f 19 30 21
f 19 21 20
f 22 31 23
f 23 32 33
f 23 31 32
f 24 34 25
f 25 35 36
f 25 36 37
f 25 37 38
f 25 38 26
f 25 34 35
f 27 39 28
f 28 39 41
f 28 41 42
f 28 42 40
f 31 43 44
f 31 44 32
f 32 45 33
f 32 44 46
f 32 46 47
f 32 47 48
f 32 48 49
f 32 49 45
f 33 45 50
f 34 51 35
f 35 52 36
f 35 51 52
f 36 52 53
f 36 53 54
f 36 54 37
f 37 54 55
f 37 55 56
f 37 56 38
f 39 57 41
f 40 42 59
f 40 59 60
f 40 60 58
f 41 57 42
f 42 57 61
f 42 61 62
f 42 62 63
f 42 63 59
f 43 64 44
f 44 64 46
f 45 65 66
f 45 66 50
f 45 49 67
f 45 67 65
f 46 64 68
f 46 68 47
f 47 68 48
f 48 69 49
f 48 68 70
f 48 70 71
f 48 71 72
f 48 72 69
f 49 69 73
f 49 73 67
f 51 74 52
f 52 75 76
f 52 76 53
f 52 74 77
f 52 77 75
f 53 76 78
f 53 78 54
f 54 78 79
f 54 79 80
f 54 80 55
f 58 60 82
f 58 82 83
f 58 83 84
f 58 84 81
f 59 63 83
f 59 83 60
f 60 83 82
f 61 85 62
f 62 85 86
f 62 86 63
f 63 86 87
f 63 87 83
f 64 88 70
f 64 70 68
f 65 67 89
f 67 90 91
f 67 91 92
f 67 92 89
f 67 73 90
f 69 72 73
f 70 93 71
f 70 88 94
f 70 94 95
f 70 95 79
f 70 79 93
f 71 93 73
f 71 73 72
f 73 93 78
f 73 78 96
f 73 96 97
f 73 97 98
f 73 98 91
f 73 91 90
f 75 77 99
f 75 99 100
f 75 100 101
f 75 101 76
f 76 101 96
f 76 96 78
f 78 93 79
f 79 95 80
f 81 84 102
f 83 103 104
f 83 104 84
f 83 87 86
f 83 86 103
f 84 104 105
f 84 105 106
f 84 106 107
f 84 107 102
f 85 108 86
f 86 108 109
f 86 109 110
f 86 110 111
f 86 111 104
f 86 104 103
f 89 92 112
f 91 113 114
f 91 114 92
f 91 98 115
f 91 115 113
f 92 114 116
f 92 116 112
f 96 101 98
f 96 98 97
f 98 101 117
f 98 117 115
f 100 118 119
f 100 119 101
f 101 119 120
f 101 120 121
f 101 121 117
f 102 107 122
f 104 111 123
f 104 123 105
f 105 123 106
f 106 124 125
f 106 125 122
f 106 122 107
f 106 123 111
f 106 111 126
f 106 126 124
f 108 127 109
f 109 127 128
f 109 128 110
f 110 128 129
f 110 129 130
f 110 130 131
f 110 131 132
f 110 132 133
f 110 133 121
f 110 121 134
f 110 134 111
f 111 134 135
f 111 135 126
f 112 116 136
f 113 132 114
f 113 115 132
f 114 132 131
f 114 131 116
f 115 117 132
f 116 130 136
f 116 131 130
f 117 121 133
f 117 133 132
f 118 137 119
f 119 137 138
f 119 138 139
f 119 139 120
f 120 139 121
f 121 139 135
f 121 135 134
f 124 126 140
f 124 140 141
f 124 141 142
f 124 142 125
f 126 135 139
f 126 139 140
f 128 143 129
f 129 143 130
f 137 144 138
f 138 144 139
f 139 144 141
f 139 141 140

