# https://github.com/mikedh/trimesh
v 0.02215891 0.01455079 0.01177110
v 0.02215891 0.01455079 0.01459692
v 0.02215891 0.01557472 0.01177749
v 0.02397730 0.01535150 0.01205228
v 0.02397730 0.01466168 0.01205228
v 0.02378679 0.01455079 0.01203055
v 0.02215891 0.01803156 0.01704826
v 0.03798238 0.01455079 0.02010413
v 0.03798238 0.01698532 0.02381821
v 0.03798238 0.01714373 0.02403293
v 0.03798238 0.01775866 0.02455055
v 0.03798238 0.01791491 0.02467580
v 0.02215891 0.01674122 0.01189252
v 0.02386578 0.01613132 0.01207528
v 0.02680403 0.01557256 0.01257501
v 0.02680403 0.01455079 0.01257373
v 0.02411825 0.01455079 0.01208934
v 0.02215891 0.01805748 0.01706232
v 0.03798238 0.01455079 0.01663800
v 0.03798238 0.01907637 0.02482789
v 0.02215891 0.01908069 0.01742146
v 0.02215891 0.01756280 0.01201393
v 0.02279550 0.01739215 0.01205739
v 0.02363965 0.01674122 0.01211874
v 0.02680403 0.01674122 0.01269643
v 0.02797344 0.01557256 0.01281784
v 0.02797344 0.01455079 0.01280762
v 0.02782475 0.01455079 0.01277694
v 0.03733184 0.01455079 0.01623285
v 0.03798238 0.01520533 0.01668529
v 0.02215891 0.01910661 0.01742402
v 0.03798238 0.02001029 0.02413389
v 0.02215891 0.02118254 0.01703037
v 0.02215891 0.02024575 0.01740357
v 0.02215891 0.01811869 0.01215708
v 0.02323074 0.01783355 0.01223376
v 0.02446521 0.01791059 0.01245104
v 0.02797344 0.01674122 0.01294181
v 0.02563462 0.01791059 0.01267342
v 0.02979649 0.01512324 0.01322682
v 0.02981508 0.01455079 0.01322171
v 0.03720329 0.01455079 0.01615489
v 0.03798238 0.01522909 0.01669168
v 0.03637153 0.01557256 0.01579064
v 0.03739225 0.01558408 0.01641306
v 0.03709332 0.01674122 0.01652425
v 0.03798238 0.02042864 0.02322007
v 0.02215891 0.02180108 0.01613444
v 0.02215891 0.01814605 0.01216475
v 0.02446521 0.01907853 0.01275522
v 0.02862553 0.01740223 0.01322171
v 0.02882069 0.01674122 0.01316548
v 0.02569348 0.01916422 0.01301722
v 0.02680403 0.01791059 0.01293159
v 0.03027664 0.01455079 0.01333418
v 0.03023483 0.01553656 0.01339425
v 0.03147859 0.01557256 0.01373933
v 0.03147859 0.01455079 0.01367543
v 0.03645982 0.01455079 0.01572546
v 0.03767725 0.01674122 0.01691918
v 0.03798238 0.01626886 0.01700609
v 0.03578760 0.01557256 0.01546984
v 0.03562961 0.01628326 0.01554780
v 0.03607260 0.01670017 0.01591205
v 0.03690126 0.01757144 0.01664056
v 0.03798238 0.02071811 0.02197395
v 0.03740000 0.02074259 0.02193433
v 0.03706234 0.02085060 0.02149467
v 0.03661316 0.02085060 0.02149467
v 0.02215891 0.02181332 0.01610504
v 0.02215891 0.01907853 0.01244848
v 0.02534188 0.01975539 0.01318593
v 0.02612097 0.01961065 0.01326389
v 0.02215891 0.02034727 0.01289197
v 0.02680403 0.01874730 0.01315525
v 0.02816860 0.01818133 0.01333929
v 0.02906541 0.01783931 0.01347988
v 0.03221121 0.01749008 0.01435281
v 0.03147859 0.01674122 0.01393743
v 0.03245439 0.01674122 0.01425823
v 0.03275487 0.01566329 0.01417899
v 0.03336513 0.01533350 0.01435792
v 0.03249930 0.01455079 0.01400773
v 0.03638702 0.01455079 0.01568584
v 0.03798238 0.01672609 0.01714539
v 0.03587589 0.01455079 0.01542767
v 0.03577366 0.01455079 0.01537910
v 0.03498527 0.01557256 0.01509025
v 0.03501935 0.01670017 0.01535354
v 0.03543290 0.01706308 0.01565388
v 0.03658528 0.01834983 0.01682716
v 0.03730397 0.01794083 0.01711983
v 0.03798238 0.01791563 0.01763234
v 0.03798238 0.01725390 0.01736011
v 0.03465226 0.01766937 0.01545706
v 0.03435642 0.01844776 0.01560148
v 0.03798238 0.02060218 0.02084030
v 0.03757502 0.02073899 0.02084030
v 0.03698954 0.02084844 0.02084030
v 0.02563462 0.02176723 0.01616511
v 0.02446521 0.02185076 0.01616511
v 0.02215891 0.02190620 0.01499696
v 0.02215891 0.02040704 0.01291753
v 0.02215891 0.02092044 0.01316548
v 0.02569348 0.02018598 0.01359747
v 0.02635640 0.02088084 0.01435920
v 0.02960907 0.01961281 0.01444994
v 0.03030917 0.01880347 0.01423267
v 0.03030917 0.01791059 0.01388503
v 0.03262012 0.01789187 0.01467744
v 0.03390725 0.01799916 0.01524874
v 0.03381586 0.01674122 0.01481803
v 0.03303832 0.01674122 0.01449339
v 0.03143676 0.01789187 0.01424417
v 0.03179766 0.01826846 0.01450362
v 0.03321489 0.01611332 0.01441927
v 0.03377869 0.01566329 0.01458030
v 0.03391809 0.01455079 0.01453941
v 0.03342709 0.01455079 0.01433108
v 0.03266039 0.01455079 0.01406268
v 0.03498527 0.01455079 0.01500974
v 0.03626156 0.01915342 0.01726426
v 0.03671538 0.01964810 0.01793524
v 0.03732410 0.01879843 0.01766685
v 0.03793591 0.01852552 0.01789562
v 0.03798238 0.01837215 0.01785728
v 0.03101856 0.01856729 0.01437198
v 0.03357733 0.01868826 0.01544045
v 0.03390725 0.01907853 0.01589928
v 0.03449892 0.01971146 0.01669935
v 0.03527802 0.01943784 0.01692173
v 0.03798238 0.02014206 0.01973221
v 0.03721413 0.02050209 0.01977950
v 0.03675101 0.02083548 0.02024216
v 0.02680403 0.02156994 0.01616511
v 0.02563462 0.02143745 0.01499696
v 0.02446521 0.02160738 0.01499696
v 0.02215891 0.02190692 0.01497906
v 0.03550260 0.02082035 0.01917370
v 0.02215891 0.02132872 0.01372527
v 0.02563462 0.02097733 0.01425440
v 0.02676841 0.02112710 0.01495350
v 0.02878816 0.02089884 0.01549412
v 0.02956725 0.02077787 0.01567433
v 0.03381586 0.01986195 0.01654726
v 0.03030917 0.02004269 0.01518867
v 0.03732410 0.01992532 0.01874171
v 0.03798238 0.01974674 0.01898710
v 0.03732410 0.01938311 0.01815891
v 0.03593629 0.01984251 0.01770136
v 0.03798238 0.01912173 0.01843880
v 0.03798238 0.01857305 0.01797231
v 0.03798238 0.01848808 0.01791479
v 0.03264800 0.02066122 0.01706871
v 0.03615469 0.02073755 0.01943314
v 0.03264800 0.02093484 0.01765279
v 0.03331402 0.02086212 0.01784578
v 0.03184877 0.02077715 0.01685783
v 0.03625691 0.02016294 0.01839535
f 1 2 7
f 1 7 18
f 1 18 21
f 1 21 31
f 1 31 34
f 1 34 33
f 1 33 48
f 1 48 70
f 1 70 102
f 1 102 138
f 1 138 140
f 1 140 104
f 1 104 103
f 1 103 74
f 1 74 71
f 1 71 49
f 1 49 35
f 1 35 22
f 1 22 13
f 1 13 3
f 1 3 4
f 1 4 5
f 1 5 6
f 1 6 17
f 1 17 16
f 1 16 28
f 1 28 27
f 1 27 41
f 1 41 55
f 1 55 58
f 1 58 83
f 1 83 120
f 1 120 119
f 1 119 118
f 1 118 121
f 1 121 87
f 1 87 86
f 1 86 84
f 1 84 59
f 1 59 42
f 1 42 29
f 1 29 19
f 1 19 8
f 1 8 2
f 2 8 9
f 2 9 10
f 2 10 11
f 2 11 12
f 2 12 7
f 3 13 14
f 3 14 4
f 4 14 15
f 4 15 16
f 4 16 5
f 5 17 6
f 5 16 17
f 7 12 18
f 8 19 30
f 8 30 43
f 8 43 61
f 8 61 85
f 8 85 94
f 8 94 93
f 8 93 126
f 8 126 153
f 8 153 152
f 8 152 151
f 8 151 148
f 8 148 132
f 8 132 97
f 8 97 66
f 8 66 47
f 8 47 32
f 8 32 20
f 8 20 12
f 8 12 11
f 8 11 10
f 8 10 9
f 12 20 21
f 12 21 18
f 13 22 23
f 13 23 14
f 14 23 24
f 14 24 25
f 14 25 15
f 15 25 26
f 15 26 27
f 15 27 28
f 15 28 16
f 19 29 30
f 20 31 21
f 20 32 33
f 20 33 34
f 20 34 31
f 22 35 23
f 23 35 36
f 23 36 37
f 23 37 25
f 23 25 24
f 25 38 26
f 25 37 39
f 25 39 38
f 26 38 40
f 26 40 41
f 26 41 27
f 29 42 30
f 30 42 44
f 30 44 45
f 30 45 46
f 30 46 43
f 32 47 48
f 32 48 33
f 35 49 50
f 35 50 36
f 36 50 37
f 37 50 39
f 38 51 52
f 38 52 40
f 38 39 51
f 39 50 53
f 39 53 54
f 39 54 51
f 40 55 41
f 40 52 56
f 40 56 57
f 40 57 58
f 40 58 55
f 42 59 44
f 43 60 61
f 43 46 60
f 44 46 45
f 44 59 62
f 44 62 63
f 44 63 64
f 44 64 46
f 46 64 65
f 46 65 60
f 47 66 67
f 47 67 68
f 47 68 69
f 47 69 70
f 47 70 48
f 49 71 50
f 50 72 73
f 50 73 53
f 50 71 74
f 50 74 72
f 51 54 75
f 51 75 76
f 51 76 77
f 51 77 78
f 51 78 79
f 51 79 52
f 52 79 57
f 52 57 56
f 53 73 75
f 53 75 54
f 57 79 80
f 57 80 81
f 57 81 82
f 57 82 83
f 57 83 58
f 59 84 62
f 60 85 61
f 60 65 85
f 62 86 87
f 62 87 88
f 62 88 63
f 62 84 86
f 63 88 89
f 63 89 90
f 63 90 64
f 64 90 65
f 65 91 92
f 65 92 93
f 65 93 94
f 65 94 85
f 65 90 95
f 65 95 96
f 65 96 91
f 66 97 98
f 66 98 99
f 66 99 68
f 66 68 67
f 68 99 100
f 68 100 101
f 68 101 69
f 69 101 70
f 70 101 102
f 72 74 103
f 72 103 104
f 72 104 73
f 73 104 105
f 73 105 106
f 73 106 107
f 73 107 108
f 73 108 109
f 73 109 77
f 73 77 76
f 73 76 75
f 77 109 78
f 78 110 96
f 78 96 111
f 78 111 95
f 78 95 112
f 78 112 113
f 78 113 80
f 78 80 79
f 78 109 114
f 78 114 115
f 78 115 110
f 80 113 116
f 80 116 81
f 81 116 82
f 82 117 88
f 82 88 118
f 82 118 119
f 82 119 120
f 82 120 83
f 82 116 117
f 87 121 88
f 88 121 118
f 88 117 116
f 88 116 112
f 88 112 89
f 89 112 95
f 89 95 90
f 91 122 123
f 91 123 124
f 91 124 125
f 91 125 92
f 91 96 122
f 92 125 93
f 93 125 126
f 95 111 96
f 96 110 115
f 96 115 127
f 96 127 108
f 96 108 128
f 96 128 129
f 96 129 130
f 96 130 131
f 96 131 122
f 97 132 133
f 97 133 134
f 97 134 98
f 98 134 99
f 99 134 100
f 100 135 136
f 100 136 137
f 100 137 138
f 100 138 101
f 100 134 139
f 100 139 135
f 101 138 102
f 104 140 141
f 104 141 106
f 104 106 105
f 106 141 136
f 106 136 142
f 106 142 143
f 106 143 144
f 106 144 145
f 106 145 146
f 106 146 107
f 107 146 145
f 107 145 130
f 107 130 129
f 107 129 128
f 107 128 108
f 108 127 115
f 108 115 109
f 109 115 114
f 112 116 113
f 122 131 123
f 123 147 148
f 123 148 149
f 123 149 124
f 123 131 130
f 123 130 150
f 123 150 147
f 124 149 125
f 125 151 152
f 125 152 153
f 125 153 126
f 125 149 151
f 130 145 154
f 130 154 150
f 132 148 147
f 132 147 133
f 133 147 155
f 133 155 134
f 134 155 139
f 135 139 156
f 135 156 136
f 136 143 142
f 136 141 140
f 136 140 137
f 136 156 157
f 136 157 158
f 136 158 143
f 137 140 138
f 139 155 157
f 139 157 156
f 143 158 144
f 144 158 154
f 144 154 145
f 147 150 159
f 147 159 155
f 148 151 149
f 150 154 159
f 154 158 157
f 154 157 159
f 155 159 157

