# https://github.com/mikedh/trimesh
v 0.02198467 0.00741139 0.07763976
v 0.02331862 0.00741139 0.07752574
v 0.02198467 0.00741139 0.08106951
v 0.02198467 0.01418824 0.07727033
v 0.02333940 0.00741139 0.07752574
v 0.02221668 0.00741139 0.08107293
v 0.02198467 0.00830479 0.08108243
v 0.02198467 0.01529611 0.07727489
v 0.02446467 0.01323466 0.07739880
v 0.02389843 0.00788046 0.07753220
v 0.02336061 0.00741139 0.07752802
v 0.02230872 0.00741139 0.08107369
v 0.02295470 0.00855784 0.08109535
v 0.02207077 0.00845446 0.08108585
v 0.02329614 0.01440426 0.08115274
v 0.02247584 0.01440426 0.08111131
v 0.02248008 0.01557076 0.08110675
v 0.02256448 0.02317466 0.08107407
v 0.02198467 0.02317466 0.08096005
v 0.02521753 0.01440426 0.07744820
v 0.02198467 0.01907800 0.07738663
v 0.02418855 0.02237693 0.07750712
v 0.02453296 0.02138941 0.07750712
v 0.02517469 0.01323466 0.07746873
v 0.02450836 0.00855784 0.07783740
v 0.02443116 0.00741139 0.07803617
v 0.02509156 0.01247860 0.07751244
v 0.02247160 0.00741139 0.08106989
v 0.02331650 0.00980767 0.08109193
v 0.02329614 0.01206507 0.08112500
v 0.02278037 0.00741139 0.08106228
v 0.02389419 0.01024896 0.08105202
v 0.02395951 0.01323466 0.08107901
v 0.02399429 0.01440426 0.08108737
v 0.02400701 0.01557076 0.08108623
v 0.02329614 0.01557076 0.08114704
v 0.02328257 0.02317466 0.08107483
v 0.02198467 0.02317466 0.07762000
v 0.02505805 0.02098206 0.07753372
v 0.02519548 0.01557076 0.07746835
v 0.02577995 0.01557076 0.07793659
v 0.02198467 0.02141564 0.07751966
v 0.02379409 0.02237693 0.07750712
v 0.02390861 0.02317466 0.07761126
v 0.02448418 0.02317466 0.07762912
v 0.02496813 0.02176127 0.07755044
v 0.02580201 0.01440426 0.07802211
v 0.02582746 0.01327015 0.07821176
v 0.02524595 0.00855784 0.07842194
v 0.02515603 0.00768604 0.07854546
v 0.02445279 0.00741139 0.07805252
v 0.02326730 0.00741139 0.08092318
v 0.02448206 0.01089702 0.08074341
v 0.02451005 0.01206507 0.08078103
v 0.02457834 0.01440426 0.08083196
v 0.02459107 0.01557076 0.08085819
v 0.02445322 0.00741139 0.08025350
v 0.02451938 0.00748082 0.08022499
v 0.02435609 0.00980767 0.08069438
v 0.02389631 0.02258523 0.08105316
v 0.02388698 0.02317466 0.08104898
v 0.02543258 0.02138941 0.07801337
v 0.02629105 0.01674036 0.07857169
v 0.02631735 0.01557076 0.07852114
v 0.02538083 0.02317466 0.07823533
v 0.02623803 0.01368368 0.07866025
v 0.02513694 0.00772616 0.07929230
v 0.02503091 0.00741139 0.07929230
v 0.02449606 0.00741139 0.07808672
v 0.02623803 0.01368368 0.07877123
v 0.02531848 0.01089702 0.08015924
v 0.02537786 0.01206507 0.08019649
v 0.02541985 0.01323466 0.08022081
v 0.02548983 0.01557076 0.08027364
v 0.02547456 0.01674036 0.08026604
v 0.02451938 0.01907800 0.08080118
v 0.02450157 0.00741139 0.08022233
v 0.02505975 0.00793138 0.07988863
v 0.02448036 0.02258523 0.08070502
v 0.02440953 0.02317466 0.08072174
v 0.02629105 0.01674036 0.07892135
v 0.02582831 0.02141564 0.07929230
v 0.02631735 0.01557076 0.07899851
v 0.02548983 0.02317466 0.07877579
v 0.02528794 0.00855784 0.07929230
v 0.02498043 0.00741139 0.07949678
v 0.02602384 0.01327015 0.07921325
v 0.02584866 0.01206507 0.07929230
v 0.02602935 0.01440426 0.07943673
v 0.02607431 0.01557076 0.07958267
v 0.02535623 0.02141564 0.08018357
v 0.02485361 0.02317466 0.08039754
v 0.02605904 0.01674036 0.07950552
v 0.02557678 0.02317466 0.07929230
v 0.02524510 0.02317466 0.08010717
f 1 2 5
f 1 5 11
f 1 11 26
f 1 26 51
f 1 51 69
f 1 69 68
f 1 68 86
f 1 86 77
f 1 77 57
f 1 57 52
f 1 52 31
f 1 31 28
f 1 28 12
f 1 12 6
f 1 6 3
f 1 3 7
f 1 7 19
f 1 19 38
f 1 38 42
f 1 42 21
f 1 21 8
f 1 8 4
f 1 4 2
f 2 4 5
f 3 6 7
f 4 8 9
f 4 9 10
f 4 10 5
f 5 10 11
f 6 12 13
f 6 13 14
f 6 14 7
f 7 14 15
f 7 15 16
f 7 16 17
f 7 17 18
f 7 18 19
f 8 20 9
f 8 21 22
f 8 22 23
f 8 23 20
f 9 20 24
f 9 24 10
f 10 25 26
f 10 26 11
f 10 24 27
f 10 27 25
f 12 28 13
f 13 29 30
f 13 30 15
f 13 15 14
f 13 28 31
f 13 31 32
f 13 32 29
f 15 30 32
f 15 32 33
f 15 33 34
f 15 34 35
f 15 35 36
f 15 36 18
f 15 18 17
f 15 17 16
f 18 37 61
f 18 61 80
f 18 80 92
f 18 92 95
f 18 95 94
f 18 94 84
f 18 84 65
f 18 65 45
f 18 45 44
f 18 44 38
f 18 38 19
f 18 36 37
f 20 23 39
f 20 39 40
f 20 40 41
f 20 41 24
f 21 42 43
f 21 43 22
f 22 43 44
f 22 44 45
f 22 45 46
f 22 46 39
f 22 39 23
f 24 41 47
f 24 47 48
f 24 48 27
f 25 49 50
f 25 50 51
f 25 51 26
f 25 27 49
f 27 48 49
f 29 32 30
f 31 52 32
f 32 53 54
f 32 54 55
f 32 55 56
f 32 56 34
f 32 34 33
f 32 52 57
f 32 57 58
f 32 58 59
f 32 59 53
f 34 56 35
f 35 56 60
f 35 60 36
f 36 60 61
f 36 61 37
f 38 44 43
f 38 43 42
f 39 46 62
f 39 62 63
f 39 63 41
f 39 41 40
f 41 63 64
f 41 64 47
f 45 65 46
f 46 65 62
f 47 66 48
f 47 64 66
f 48 66 49
f 49 66 50
f 50 67 68
f 50 68 69
f 50 69 51
f 50 66 70
f 50 70 67
f 53 59 71
f 53 71 72
f 53 72 54
f 54 72 73
f 54 73 74
f 54 74 55
f 55 74 56
f 56 74 75
f 56 75 76
f 56 76 61
f 56 61 60
f 57 77 58
f 58 77 78
f 58 78 71
f 58 71 59
f 61 79 80
f 61 76 79
f 62 65 63
f 63 81 83
f 63 83 64
f 63 65 82
f 63 82 81
f 64 83 70
f 64 70 66
f 65 84 82
f 67 70 85
f 67 85 78
f 67 78 68
f 68 78 86
f 70 87 88
f 70 88 78
f 70 78 85
f 70 83 87
f 71 88 87
f 71 87 89
f 71 89 90
f 71 90 72
f 71 78 88
f 72 90 73
f 73 90 74
f 74 90 75
f 75 90 91
f 75 91 76
f 76 91 79
f 77 86 78
f 79 91 80
f 80 91 92
f 81 93 83
f 81 82 93
f 82 84 94
f 82 94 95
f 82 95 91
f 82 91 93
f 83 90 87
f 83 93 90
f 87 90 89
f 90 93 91
f 91 95 92

