# https://github.com/mikedh/trimesh
v -0.04973986 -0.00885147 0.04173141
v -0.04973986 -0.01247173 0.04173141
v -0.04973986 -0.00901046 0.04600500
v -0.03936433 -0.01435449 0.04173141
v -0.04943374 -0.01276226 0.04173141
v -0.04972539 -0.01248431 0.04600500
v -0.04973986 -0.01247058 0.04597613
v -0.04973986 -0.01246944 0.04600500
v -0.03742879 -0.01788667 0.04600500
v -0.03786628 -0.01519521 0.04173141
v -0.03860868 -0.01476741 0.04173141
v -0.03866291 -0.01473653 0.04173141
v -0.04884922 -0.01329987 0.04173141
v -0.04884801 -0.01330101 0.04188369
v -0.04942048 -0.01276112 0.04600500
v -0.03742879 -0.02053581 0.04600500
v -0.03742879 -0.01603593 0.04173141
v -0.04827675 -0.01380773 0.04173141
v -0.04818877 -0.01388551 0.04188369
v -0.04818636 -0.01388322 0.04305260
v -0.04883596 -0.01326898 0.04600500
v -0.03742879 -0.02052780 0.04539042
v -0.03828327 -0.02018121 0.04600500
v -0.03742879 -0.02047747 0.04173141
v -0.04818636 -0.01388437 0.04173141
v -0.04760425 -0.01437851 0.04188369
v -0.04786698 -0.01409141 0.04600500
v -0.04847440 -0.01357668 0.04600500
v -0.04760184 -0.01437622 0.04305260
v -0.03820252 -0.02014232 0.04173141
v -0.03749387 -0.02045002 0.04173141
v -0.03859060 -0.02003022 0.04600500
v -0.04062858 -0.01902479 0.04305260
v -0.04062617 -0.01901907 0.04188369
v -0.04760184 -0.01437622 0.04173141
v -0.04684498 -0.01494700 0.04173141
v -0.04684498 -0.01494928 0.04188369
v -0.04627613 -0.01541941 0.04539042
v -0.04627974 -0.01542169 0.04600500
v -0.04658707 -0.01516661 0.04600500
v -0.04062256 -0.01901678 0.04173141
v -0.03933179 -0.01966534 0.04600500
v -0.03983195 -0.01941598 0.04600500
v -0.04020074 -0.01923182 0.04600500
v -0.04060809 -0.01902136 0.04600500
v -0.04121310 -0.01871023 0.04305260
v -0.04121069 -0.01871138 0.04188369
v -0.04112994 -0.01875027 0.04173141
v -0.04624359 -0.01539424 0.04173141
v -0.04616766 -0.01544914 0.04173141
v -0.04425863 -0.01681718 0.04173141
v -0.04596157 -0.01564932 0.04600500
v -0.04281119 -0.01777800 0.04600500
v -0.04283529 -0.01779859 0.04422151
v -0.04285096 -0.01781003 0.04305260
v -0.04217003 -0.01819207 0.04305260
v -0.04120708 -0.01870795 0.04173141
v -0.04217003 -0.01816348 0.04188369
v -0.04350900 -0.01732504 0.04173141
v -0.04427189 -0.01682175 0.04600500
v -0.04311851 -0.01758584 0.04600500
v -0.04280998 -0.01778144 0.04188369
v -0.04339571 -0.01740626 0.04600500
v -0.04218449 -0.01814518 0.04173141
v -0.04280034 -0.01777457 0.04173141
f 1 2 7
f 1 7 8
f 1 8 3
f 1 3 4
f 1 4 12
f 1 12 11
f 1 11 10
f 1 10 17
f 1 17 24
f 1 24 31
f 1 31 30
f 1 30 41
f 1 41 48
f 1 48 57
f 1 57 64
f 1 64 65
f 1 65 59
f 1 59 51
f 1 51 50
f 1 50 49
f 1 49 36
f 1 36 35
f 1 35 25
f 1 25 18
f 1 18 13
f 1 13 5
f 1 5 2
f 2 5 6
f 2 6 7
f 3 8 6
f 3 6 15
f 3 15 21
f 3 21 28
f 3 28 27
f 3 27 40
f 3 40 39
f 3 39 52
f 3 52 60
f 3 60 63
f 3 63 61
f 3 61 53
f 3 53 45
f 3 45 44
f 3 44 43
f 3 43 42
f 3 42 32
f 3 32 23
f 3 23 16
f 3 16 9
f 3 9 10
f 3 10 11
f 3 11 12
f 3 12 4
f 5 13 14
f 5 14 6
f 6 8 7
f 6 14 15
f 9 16 22
f 9 22 24
f 9 24 17
f 9 17 10
f 13 18 14
f 14 18 19
f 14 19 20
f 14 20 15
f 15 20 21
f 16 23 22
f 18 25 19
f 19 26 29
f 19 29 20
f 19 25 26
f 20 27 28
f 20 28 21
f 20 29 27
f 22 23 24
f 23 30 31
f 23 31 24
f 23 32 33
f 23 33 34
f 23 34 30
f 25 35 26
f 26 35 36
f 26 36 37
f 26 37 38
f 26 38 39
f 26 39 29
f 27 29 40
f 29 39 40
f 30 34 41
f 32 42 33
f 33 42 43
f 33 43 44
f 33 44 45
f 33 45 46
f 33 46 47
f 33 47 34
f 34 47 48
f 34 48 41
f 36 49 37
f 37 49 38
f 38 49 50
f 38 50 51
f 38 51 52
f 38 52 39
f 45 53 54
f 45 54 55
f 45 55 56
f 45 56 46
f 46 56 47
f 47 57 48
f 47 56 55
f 47 55 58
f 47 58 57
f 51 59 55
f 51 55 52
f 52 55 60
f 53 61 54
f 54 61 55
f 55 59 62
f 55 62 58
f 55 61 63
f 55 63 60
f 57 58 64
f 58 62 64
f 59 65 62
f 62 65 64

