# https://github.com/mikedh/trimesh
v -0.06743136 0.01224666 0.07866729
v -0.06743136 0.01224666 0.07921200
v -0.06742928 0.01224666 0.07850544
v -0.06741888 0.01206321 0.07851673
v -0.06727748 0.01224666 0.07978843
v -0.06741888 0.01206321 0.07917328
v -0.06726709 0.01206321 0.07975778
v -0.06693646 0.01224666 0.07801182
v -0.06683666 0.01206321 0.07793223
v -0.06735858 0.01119266 0.07861782
v -0.06616501 0.01020538 0.07752249
v -0.06670981 0.01224666 0.08036970
v -0.06639374 0.00855768 0.08016698
v -0.06659961 0.01089581 0.08031163
v -0.06735858 0.01119266 0.07895497
v -0.06719639 0.01083911 0.07932384
v -0.06627730 0.00759374 0.08003954
v -0.06683250 0.01224666 0.07792094
v -0.06620452 0.01089581 0.07750045
v -0.06633968 0.01224666 0.07753970
v -0.06621284 0.00647303 0.07858341
v -0.06210397 0.01224332 0.07577653
v -0.06174216 0.00972507 0.07577653
v -0.06154253 0.00863105 0.07577653
v -0.06499016 0.00553244 0.07752303
v -0.06657673 0.01224666 0.08046918
v -0.06534157 0.00504881 0.08029227
v -0.06362816 0.00154328 0.08097302
v -0.06464290 0.00504881 0.08087677
v -0.06562021 0.00855768 0.08075148
v -0.06649148 0.00972507 0.08024334
v -0.06621284 0.00647303 0.07907703
v -0.06669526 0.00855768 0.07929212
v -0.06695726 0.00972507 0.07929212
v -0.06635840 0.00727687 0.07939697
v -0.06496936 0.00211697 0.07988146
v -0.06518770 0.00388141 0.08013902
v -0.06625027 0.01206321 0.07748109
v -0.06624819 0.01224666 0.07748324
v -0.06459508 0.00271067 0.07787900
v -0.06510660 0.00271067 0.07846350
v -0.06501719 0.00199356 0.07860814
v -0.06210397 0.01224666 0.07578567
v -0.06197505 0.01224666 0.07577653
v -0.06124102 0.00745698 0.07577653
v -0.06391511 0.00174674 0.07747517
v -0.06377788 0.00096958 0.07754185
v -0.06583647 0.01224666 0.08096280
v -0.06441001 0.00165334 0.08028904
v -0.06342230 0.00037254 0.08080202
v -0.06268620 -0.00033457 0.08107519
v -0.06283799 0.00037254 0.08112411
v -0.06373837 0.00227707 0.08102733
v -0.06499640 0.00782055 0.08106120
v -0.06567428 0.00972507 0.08082783
v -0.06500680 0.00202024 0.07929212
v -0.06439545 0.00037254 0.07929212
v -0.06399621 -0.00063142 0.07929212
v -0.06390056 -0.00040461 0.08002018
v -0.06405651 0.00037254 0.08021753
v -0.06413345 0.00037254 0.07825003
v -0.06395670 -0.00058139 0.07848447
v -0.05947354 0.01224666 0.07577653
v -0.06122023 0.00738361 0.07577653
v -0.06012439 0.00392143 0.07577653
v -0.05966901 0.00270400 0.07577653
v -0.06087297 0.00620954 0.07577653
v -0.06047165 0.00498210 0.07577653
v -0.06265501 -0.00146862 0.07752303
v -0.06245955 -0.00224577 0.07762412
v -0.06300019 -0.00190222 0.07805752
v -0.06525216 0.01224666 0.08110583
v -0.06503590 0.00855768 0.08107519
v -0.06508997 0.00972507 0.08109024
v -0.06274442 -0.00275943 0.08003094
v -0.06101021 -0.00430373 0.08076546
v -0.06031154 -0.00492745 0.08105744
v -0.05970436 -0.00430373 0.08121445
v -0.06204159 0.00037254 0.08123704
v -0.06304177 0.00154328 0.08116498
v -0.06383818 0.00305756 0.08106981
v -0.05967733 -0.00537773 0.08113595
v -0.06391719 0.00388141 0.08110368
v -0.06405859 0.00504881 0.08113648
v -0.06336408 -0.00196559 0.07929212
v -0.06284007 -0.00286282 0.07840327
v -0.04619042 -0.01229207 0.07577653
v -0.05947354 0.01224666 0.07578567
v -0.05927184 0.00180344 0.07577653
v -0.05815521 -0.00060140 0.07577653
v -0.06149887 -0.00381342 0.07751120
v -0.05862100 0.00037254 0.07577653
v -0.06033441 -0.00612820 0.07750744
v -0.06438090 0.01206321 0.08113595
v -0.06438090 0.01224666 0.08113487
v -0.06204159 0.00154328 0.08126930
v -0.06287542 -0.00294287 0.07929212
v -0.06155501 -0.00503752 0.07999760
v -0.06174216 -0.00430373 0.08018096
v -0.06080227 -0.00537106 0.08045466
v -0.06004746 -0.00570794 0.08091172
v -0.05904727 -0.00715552 0.08103109
v -0.05926769 -0.00637503 0.08110207
v -0.05860852 -0.00671524 0.08114509
v -0.05730890 -0.00890995 0.08111282
v -0.05506317 -0.01130145 0.08115584
v -0.05853574 -0.00546779 0.08123596
v -0.06162155 -0.00516427 0.07846242
v -0.04619042 -0.01239547 0.07640620
v -0.04619042 -0.01550075 0.07577653
v -0.05961078 0.01224666 0.07695466
v -0.04619042 -0.01248886 0.07695466
v -0.05746485 -0.00196559 0.07577653
v -0.05619435 -0.00430706 0.07577653
v -0.05573689 -0.00507421 0.07577653
v -0.05909718 -0.00836961 0.07754723
v -0.05697828 -0.00290618 0.07577653
v -0.05665598 -0.00349989 0.07577653
v -0.06368430 0.01224666 0.08107465
v -0.04619042 -0.01832919 0.08120854
v -0.05386128 -0.01131479 0.08122521
v -0.04684751 -0.01832919 0.08122091
v -0.06165274 -0.00520763 0.07929212
v -0.06031570 -0.00726892 0.07991318
v -0.05968772 -0.00771920 0.08023312
v -0.05967733 -0.00671524 0.08074449
v -0.05928848 -0.00868981 0.08005944
v -0.05853158 -0.00897332 0.08050144
v -0.05881022 -0.00780592 0.08087946
v -0.05766032 -0.00925350 0.08094398
v -0.05800134 -0.00847635 0.08106766
v -0.05469511 -0.01222870 0.08111713
v -0.05392574 -0.01256558 0.08115530
v -0.06039056 -0.00738566 0.07854362
v -0.04619042 -0.02075405 0.07759347
v -0.04918474 -0.01913637 0.07743753
v -0.04987717 -0.01899295 0.07748916
v -0.04692028 -0.01489370 0.07577653
v -0.05987902 0.01224666 0.07794191
v -0.04619042 -0.01281240 0.07794299
v -0.05535220 -0.00566792 0.07577653
v -0.05813026 -0.01096124 0.07844683
v -0.05914292 -0.00960038 0.07866729
v -0.05477205 -0.00652846 0.07577653
v -0.05436657 -0.00710882 0.07577653
v -0.05697620 -0.01089786 0.07746173
v -0.05555182 -0.01297250 0.07756390
v -0.06310000 0.01224666 0.08091010
v -0.04619042 -0.01729521 0.08112197
v -0.04619042 -0.01948659 0.08114993
v -0.04798285 -0.01830918 0.08113272
v -0.04684751 -0.01927645 0.08112734
v -0.05914292 -0.00960038 0.07884098
v -0.06038432 -0.00737899 0.07929212
v -0.05906182 -0.00947030 0.07962013
v -0.05799302 -0.01078112 0.07992125
v -0.05823007 -0.01014406 0.08012558
v -0.05583878 -0.01340277 0.08006159
v -0.05512347 -0.01373631 0.08035034
v -0.05506317 -0.01256558 0.08088860
v -0.05435825 -0.01300919 0.08103109
v -0.04878965 -0.01790559 0.08108863
v -0.04619042 -0.02095418 0.07770048
v -0.04874807 -0.01320931 0.07577653
v -0.04619042 -0.02160458 0.07829734
v -0.04886451 -0.02023039 0.07844575
v -0.05030137 -0.01916638 0.07819464
v -0.05098549 -0.01894958 0.07863126
v -0.05451836 -0.01546740 0.07861944
v -0.05566411 -0.01430000 0.07863180
v -0.05495712 -0.01474028 0.07837961
v -0.05329777 -0.01542404 0.07752895
v -0.05110193 -0.01090120 0.07577653
v -0.05051762 -0.01149157 0.07577653
v -0.04993747 -0.01205526 0.07577653
v -0.05993309 0.01224666 0.07814033
v -0.04619042 -0.01314261 0.07857642
v -0.05592403 -0.01365293 0.07837746
v -0.05435825 -0.00711883 0.07577653
v -0.05371364 -0.00788931 0.07577653
v -0.05477205 -0.01343612 0.07744722
v -0.05441855 -0.01421328 0.07754562
v -0.05510891 -0.01375632 0.07774618
v -0.06204159 0.01224666 0.08049123
v -0.04619042 -0.01671151 0.08100851
v -0.04626112 -0.02008029 0.08104561
v -0.04619042 -0.02001025 0.08106282
v -0.04757321 -0.01900962 0.08108056
v -0.05811778 -0.01094123 0.07929212
v -0.05874992 -0.01005067 0.07925501
v -0.05566411 -0.01430000 0.07895551
v -0.05557469 -0.01418326 0.07973519
v -0.05479492 -0.01460352 0.08010622
v -0.05396317 -0.01492373 0.08035949
v -0.05392574 -0.01369295 0.08092731
v -0.04956735 -0.01754203 0.08099023
v -0.04835090 -0.01868275 0.08097141
v -0.04619042 -0.02177803 0.07883936
v -0.04656679 -0.02147450 0.07841779
v -0.04619042 -0.02182806 0.07929212
v -0.05098549 -0.01894958 0.07881732
v -0.05451836 -0.01546740 0.07901251
v -0.06019093 0.01224666 0.07877430
v -0.04619042 -0.01370296 0.07928351
v -0.06123063 0.01224666 0.08004223
v -0.04619042 -0.01596771 0.08072890
v -0.04684751 -0.01986015 0.08093753
v -0.04619042 -0.02017035 0.08101872
v -0.05504653 -0.01484034 0.07937385
v -0.05441855 -0.01538068 0.07979219
v -0.05363879 -0.01570088 0.08008525
v -0.05036375 -0.01834921 0.08023205
v -0.04918058 -0.01830918 0.08080310
v -0.05036999 -0.01715512 0.08084074
v -0.04997906 -0.01906299 0.07999223
v -0.04798285 -0.01943655 0.08068964
v -0.04619042 -0.02150786 0.08006428
v -0.04645034 -0.02138778 0.08001642
v -0.04862330 -0.02009363 0.07989113
v -0.04881669 -0.02020371 0.07929212
v -0.04940099 -0.01984014 0.07929212
v -0.05036375 -0.01920975 0.07924103
v -0.05075883 -0.01875279 0.07959647
v -0.06022420 0.01224666 0.07883614
v -0.04619042 -0.01418660 0.07986694
v -0.06063384 0.01224666 0.07940988
v -0.04619042 -0.01487703 0.08021914
v -0.04619042 -0.01423996 0.07991264
v -0.04619042 -0.02069401 0.08066706
v -0.04908285 -0.01946991 0.08014386
v -0.04801612 -0.02027708 0.08007181
f 1 2 5
f 1 5 12
f 1 12 26
f 1 26 48
f 1 48 72
f 1 72 95
f 1 95 119
f 1 119 148
f 1 148 184
f 1 184 205
f 1 205 226
f 1 226 224
f 1 224 203
f 1 203 176
f 1 176 139
f 1 139 111
f 1 111 88
f 1 88 63
f 1 63 44
f 1 44 43
f 1 43 39
f 1 39 20
f 1 20 18
f 1 18 8
f 1 8 3
f 1 3 4
f 1 4 6
f 1 6 2
f 2 6 7
f 2 7 5
f 3 8 9
f 3 9 4
f 4 10 15
f 4 15 6
f 4 9 11
f 4 11 10
f 5 7 13
f 5 13 14
f 5 14 12
f 6 15 7
f 7 15 16
f 7 16 17
f 7 17 13
f 8 18 9
f 9 19 11
f 9 18 20
f 9 20 19
f 10 11 21
f 10 21 32
f 10 32 15
f 11 19 22
f 11 22 23
f 11 23 24
f 11 24 25
f 11 25 21
f 12 14 26
f 13 17 27
f 13 27 28
f 13 28 29
f 13 29 30
f 13 30 31
f 13 31 14
f 14 31 30
f 14 30 26
f 15 32 33
f 15 33 34
f 15 34 16
f 16 34 17
f 17 34 33
f 17 33 35
f 17 35 36
f 17 36 37
f 17 37 27
f 19 20 38
f 19 38 22
f 20 39 38
f 21 25 40
f 21 40 41
f 21 41 42
f 21 42 32
f 22 39 43
f 22 43 44
f 22 44 63
f 22 63 87
f 22 87 110
f 22 110 138
f 22 138 164
f 22 164 175
f 22 175 174
f 22 174 173
f 22 173 180
f 22 180 179
f 22 179 145
f 22 145 144
f 22 144 141
f 22 141 115
f 22 115 114
f 22 114 118
f 22 118 117
f 22 117 113
f 22 113 90
f 22 90 92
f 22 92 89
f 22 89 66
f 22 66 65
f 22 65 68
f 22 68 67
f 22 67 64
f 22 64 45
f 22 45 24
f 22 24 23
f 22 38 39
f 24 45 46
f 24 46 25
f 25 46 47
f 25 47 40
f 26 30 48
f 27 37 49
f 27 49 28
f 28 49 50
f 28 50 51
f 28 51 52
f 28 52 53
f 28 53 29
f 29 54 30
f 29 53 54
f 30 54 55
f 30 55 48
f 32 35 33
f 32 42 56
f 32 56 36
f 32 36 35
f 36 56 57
f 36 57 58
f 36 58 59
f 36 59 60
f 36 60 49
f 36 49 37
f 40 47 41
f 41 47 42
f 42 47 61
f 42 61 62
f 42 62 58
f 42 58 57
f 42 57 56
f 45 64 46
f 46 65 66
f 46 66 47
f 46 64 67
f 46 67 68
f 46 68 65
f 47 66 69
f 47 69 70
f 47 70 71
f 47 71 62
f 47 62 61
f 48 55 54
f 48 54 73
f 48 73 74
f 48 74 72
f 49 60 50
f 50 60 59
f 50 59 75
f 50 75 76
f 50 76 77
f 50 77 51
f 51 77 52
f 52 78 79
f 52 79 80
f 52 80 81
f 52 81 53
f 52 77 82
f 52 82 78
f 53 81 54
f 54 81 83
f 54 83 84
f 54 84 73
f 58 62 85
f 58 85 59
f 59 85 75
f 62 71 86
f 62 86 85
f 63 88 87
f 66 89 69
f 69 90 91
f 69 91 70
f 69 89 92
f 69 92 90
f 70 91 93
f 70 93 86
f 70 86 71
f 72 94 95
f 72 74 84
f 72 84 96
f 72 96 94
f 73 84 74
f 75 85 97
f 75 97 98
f 75 98 99
f 75 99 76
f 76 99 77
f 77 99 98
f 77 98 100
f 77 100 101
f 77 101 102
f 77 102 103
f 77 103 82
f 78 82 104
f 78 104 105
f 78 105 106
f 78 106 107
f 78 107 79
f 79 96 80
f 79 107 96
f 80 83 81
f 80 96 84
f 80 84 83
f 82 103 105
f 82 105 104
f 85 86 97
f 86 93 108
f 86 108 97
f 87 109 112
f 87 112 140
f 87 140 177
f 87 177 204
f 87 204 225
f 87 225 228
f 87 228 227
f 87 227 206
f 87 206 185
f 87 185 149
f 87 149 120
f 87 120 150
f 87 150 187
f 87 187 208
f 87 208 229
f 87 229 217
f 87 217 200
f 87 200 198
f 87 198 165
f 87 165 163
f 87 163 135
f 87 135 110
f 87 88 109
f 88 111 112
f 88 112 109
f 90 113 93
f 90 93 91
f 93 114 115
f 93 115 116
f 93 116 108
f 93 113 117
f 93 117 118
f 93 118 114
f 94 96 95
f 95 96 120
f 95 120 119
f 96 107 121
f 96 121 122
f 96 122 120
f 97 108 123
f 97 123 98
f 98 123 124
f 98 124 125
f 98 125 126
f 98 126 100
f 100 126 101
f 101 126 102
f 102 126 125
f 102 125 127
f 102 127 128
f 102 128 129
f 102 129 130
f 102 130 131
f 102 131 103
f 103 131 105
f 105 131 132
f 105 132 106
f 106 132 133
f 106 133 121
f 106 121 107
f 108 116 134
f 108 134 123
f 110 135 136
f 110 136 137
f 110 137 138
f 111 139 140
f 111 140 112
f 115 141 116
f 116 142 143
f 116 143 134
f 116 141 144
f 116 144 145
f 116 145 146
f 116 146 147
f 116 147 142
f 119 120 149
f 119 149 148
f 120 122 150
f 121 133 122
f 122 133 151
f 122 151 152
f 122 152 150
f 123 134 143
f 123 143 153
f 123 153 154
f 123 154 124
f 124 154 155
f 124 155 127
f 124 127 125
f 127 155 156
f 127 156 157
f 127 157 128
f 128 157 130
f 128 130 129
f 130 157 158
f 130 158 159
f 130 159 160
f 130 160 161
f 130 161 131
f 131 161 132
f 132 161 162
f 132 162 151
f 132 151 133
f 135 163 137
f 135 137 136
f 137 164 138
f 137 163 165
f 137 165 166
f 137 166 167
f 137 167 168
f 137 168 169
f 137 169 170
f 137 170 171
f 137 171 172
f 137 172 173
f 137 173 174
f 137 174 175
f 137 175 164
f 139 176 140
f 140 176 177
f 142 147 178
f 142 178 170
f 142 170 143
f 143 170 191
f 143 191 153
f 145 179 146
f 146 179 180
f 146 180 181
f 146 181 147
f 147 181 182
f 147 182 183
f 147 183 178
f 148 149 185
f 148 185 184
f 150 152 186
f 150 186 187
f 151 162 188
f 151 188 152
f 152 188 186
f 153 189 190
f 153 190 155
f 153 155 154
f 153 191 189
f 155 190 189
f 155 189 156
f 156 189 192
f 156 192 158
f 156 158 157
f 158 192 193
f 158 193 159
f 159 193 194
f 159 194 195
f 159 195 161
f 159 161 160
f 161 195 196
f 161 196 162
f 162 196 197
f 162 197 188
f 165 198 199
f 165 199 166
f 166 199 198
f 166 198 200
f 166 200 201
f 166 201 168
f 166 168 167
f 168 201 202
f 168 202 169
f 169 202 191
f 169 191 170
f 170 178 183
f 170 183 171
f 171 183 172
f 172 183 182
f 172 182 181
f 172 181 173
f 173 181 180
f 176 203 177
f 177 203 204
f 184 185 205
f 185 206 205
f 186 207 208
f 186 208 187
f 186 188 197
f 186 197 207
f 189 191 192
f 191 202 209
f 191 209 192
f 192 209 210
f 192 210 193
f 193 210 211
f 193 211 194
f 194 211 212
f 194 212 213
f 194 213 214
f 194 214 195
f 195 214 196
f 196 214 197
f 197 213 212
f 197 212 215
f 197 215 216
f 197 216 207
f 197 214 213
f 200 217 218
f 200 218 219
f 200 219 220
f 200 220 201
f 201 220 221
f 201 221 222
f 201 222 223
f 201 223 210
f 201 210 202
f 202 210 209
f 203 224 225
f 203 225 204
f 205 206 227
f 205 227 228
f 205 228 226
f 207 229 208
f 207 216 230
f 207 230 229
f 210 223 215
f 210 215 211
f 211 215 212
f 215 223 219
f 215 219 217
f 215 217 231
f 215 231 230
f 215 230 216
f 217 219 218
f 217 229 230
f 217 230 231
f 219 221 220
f 219 223 222
f 219 222 221
f 224 226 228
f 224 228 225

