# https://github.com/mikedh/trimesh
v 0.01984982 0.00757940 0.01576286
v 0.01742265 0.00154333 0.01616502
v 0.01777861 0.00271209 0.01032278
v 0.01800759 0.00337062 0.00915288
v 0.01982900 0.00757940 0.01499877
v 0.01953341 0.00757940 0.04053934
v 0.01950011 0.00741728 0.04053934
v 0.01949386 0.00738838 0.04053934
v 0.01932317 0.00660921 0.04053934
v 0.01929194 0.00646845 0.04053934
v 0.01930027 0.00645212 0.03954492
v 0.01913582 0.00588408 0.04053934
v 0.01893807 0.00517277 0.04053934
v 0.01860085 0.00405679 0.04053934
v 0.01854464 0.00388085 0.04053934
v 0.01824489 0.00307277 0.04053934
v 0.01819493 0.00293830 0.04053934
v 0.01678984 -0.00002255 0.01967475
v 0.01703339 0.00063472 0.01616502
v 0.01702090 0.00065860 0.01499877
v 0.01672947 0.00015339 0.01148904
v 0.01759959 0.00154333 0.03720510
v 0.01708127 0.00052287 0.02551698
v 0.01671282 0.00018481 0.01032278
v 0.01773281 0.00271209 0.00915288
v 0.01797636 0.00347116 0.00798297
v 0.01816995 0.00405679 0.00798297
v 0.01847803 0.00504961 0.00798297
v 0.01906297 0.00757940 0.00696295
v 0.01676070 0.00757940 0.04053934
v 0.01761832 0.00154333 0.04053934
v 0.01642556 -0.00079418 0.01967475
v 0.01627360 -0.00079418 0.01032278
v 0.01685437 -0.00018341 0.03603519
v 0.01656919 -0.00079418 0.03603519
v 0.01643805 -0.00079418 0.02084466
v 0.01717910 0.00050779 0.04053934
v 0.01613829 -0.00079418 0.00798297
v 0.01666911 0.00024388 0.00915288
v 0.01668576 0.00045501 0.00788791
v 0.01765787 0.00271209 0.00798297
v 0.01756836 0.00271209 0.00681306
v 0.01792640 0.00365338 0.00681306
v 0.01834689 0.00504961 0.00681306
v 0.01884232 0.00738838 0.00564680
v 0.01888811 0.00757940 0.00563218
v 0.01160453 0.00504961 0.04044794
v 0.01160453 0.00442627 0.04053934
v 0.01043466 0.00757940 0.03989955
v 0.01043466 0.00738838 0.03993611
v 0.01043466 0.00657779 0.04008600
v 0.01043466 0.00599341 0.04018837
v 0.01591556 -0.00180082 0.01967475
v 0.01584270 -0.00165756 0.01032278
v 0.01593430 -0.00178951 0.02084466
v 0.01581356 -0.00161985 0.00915288
v 0.01709584 0.00031802 0.04053934
v 0.01599466 -0.00193529 0.03603519
v 0.01599674 -0.00197928 0.04053934
v 0.01570948 -0.00257120 0.04053934
v 0.01577817 -0.00153314 0.00798297
v 0.01597593 -0.00090603 0.00671800
v 0.01657543 0.00037458 0.00681306
v 0.01677527 0.00118894 0.00564680
v 0.01700633 0.00177332 0.00564680
v 0.01737477 0.00271209 0.00564680
v 0.01782857 0.00396128 0.00570530
v 0.01805130 0.00440491 0.00613670
v 0.01850717 0.00621962 0.00564680
v 0.01857587 0.00738838 0.00447690
v 0.01861958 0.00757940 0.00447690
v 0.00975606 0.00576846 0.04015181
v 0.01043466 0.00504961 0.04032730
v 0.01104249 0.00388085 0.04053934
v 0.00945838 0.00757940 0.03972041
v 0.01560956 -0.00238646 0.01967475
v 0.01560956 -0.00235881 0.01850484
v 0.01557418 -0.00229346 0.01382886
v 0.01552422 -0.00224193 0.01032278
v 0.01551797 -0.00220423 0.00915288
v 0.01538267 -0.00313798 0.04053934
v 0.01477900 -0.00412200 0.03603519
v 0.01534936 -0.00313170 0.03603519
v 0.01545969 -0.00211752 0.00798297
v 0.01573654 -0.00145145 0.00703973
v 0.01569283 -0.00137102 0.00626101
v 0.01641307 0.00037458 0.00564680
v 0.01665245 0.00156973 0.00446958
v 0.01691890 0.00197691 0.00485712
v 0.01708959 0.00266308 0.00446958
v 0.01752881 0.00388085 0.00447690
v 0.01797844 0.00466631 0.00535798
v 0.01823032 0.00621837 0.00449152
v 0.01810542 0.00660795 0.00372011
v 0.01820950 0.00738838 0.00347516
v 0.01822824 0.00757940 0.00342398
v 0.00955830 0.00504961 0.04019934
v 0.01043466 0.00388085 0.04045526
v 0.00926687 0.00757940 0.03968385
v 0.00926687 0.00738838 0.03972041
v 0.00932516 0.00618192 0.03996170
v 0.00809909 0.00621962 0.03961438
v 0.00809909 0.00504961 0.03981181
v 0.00897545 0.00504961 0.04005310
v 0.01053458 0.00271209 0.04053934
v 0.01466243 -0.00391715 0.01499877
v 0.01510581 -0.00313170 0.01382886
v 0.01498300 -0.00313170 0.00915288
v 0.01473737 -0.00420494 0.04053934
v 0.01441263 -0.00470638 0.03603519
v 0.01441055 -0.00469633 0.03486894
v 0.01436267 -0.00459956 0.02434707
v 0.01442096 -0.00471518 0.03954492
v 0.01482479 -0.00302739 0.00681306
v 0.01546385 -0.00189005 0.00671800
v 0.01474985 -0.00291805 0.00564680
v 0.01528067 -0.00196294 0.00564680
v 0.01564079 -0.00126168 0.00564680
v 0.01591764 -0.00067731 0.00564680
v 0.01580524 -0.00045109 0.00473281
v 0.01604670 0.00028409 0.00439647
v 0.01583854 0.00067116 0.00330699
v 0.01681482 0.00224082 0.00407839
v 0.01698343 0.00301999 0.00361774
v 0.01711665 0.00386326 0.00325946
v 0.01709792 0.00390221 0.00319000
v 0.01801383 0.00710562 0.00319000
v 0.01808877 0.00738838 0.00319000
v 0.01810959 0.00747384 0.00319000
v 0.01813248 0.00757940 0.00319000
v 0.00877769 0.00428300 0.04010428
v 0.00859243 0.00350383 0.04015547
v 0.00920859 0.00388839 0.04024686
v 0.00926687 0.00271209 0.04033827
v 0.00829060 0.00757940 0.03940234
v 0.00809909 0.00738838 0.03938406
v -0.00141599 -0.00525808 0.03830555
v 0.00816154 0.00388839 0.03998364
v 0.01093841 -0.00525808 0.04053934
v 0.00926687 0.00154333 0.04033461
v 0.01385268 -0.00525808 0.01967475
v 0.01383186 -0.00525808 0.01850484
v 0.01366117 -0.00525808 0.01032278
v 0.01422529 -0.00440853 0.01032278
v 0.01464369 -0.00389830 0.01382886
v 0.01459373 -0.00382416 0.01032278
v 0.01457708 -0.00379399 0.00915288
v 0.01455002 -0.00375126 0.00840340
v 0.01404002 -0.00525808 0.04053934
v 0.01404419 -0.00525808 0.04038214
v 0.01405459 -0.00525808 0.03603519
v 0.01405251 -0.00525808 0.03571712
v 0.01406084 -0.00525808 0.03954492
v 0.01446259 -0.00361302 0.00681306
v 0.01390680 -0.00430046 0.00564680
v 0.01440014 -0.00350243 0.00564680
v 0.01339264 -0.00494139 0.00493755
v 0.01365909 -0.00434821 0.00452077
v 0.01463745 -0.00274337 0.00478400
v 0.01491222 -0.00203834 0.00442571
v 0.01553671 -0.00082183 0.00439647
v 0.01517451 -0.00079418 0.00330699
v 0.01581356 0.00071892 0.00319000
v 0.01688768 0.00326128 0.00319000
v 0.01706669 0.00379791 0.00319000
v 0.01409831 0.00757940 0.00319000
v 0.00847794 0.00271209 0.04018471
v 0.00839260 0.00154333 0.04019203
v 0.00809492 0.00757940 0.03934019
v 0.00741423 0.00757940 0.03908427
v 0.00727893 0.00738838 0.03907330
v -0.00138476 -0.00525808 0.03831286
v -0.00141599 -0.00446257 0.03813372
v -0.00141599 -0.00525808 0.00671434
v -0.00104129 -0.00525808 0.03837867
v 0.01362370 -0.00525808 0.00956966
v 0.01419823 -0.00437837 0.00915288
v 0.01344052 -0.00525808 0.00681306
v 0.01351338 -0.00514246 0.00681306
v 0.01345092 -0.00503313 0.00564680
v 0.01330313 -0.00525808 0.00564680
v 0.01307832 -0.00525808 0.00464141
v 0.01301795 -0.00525808 0.00444399
v 0.01327399 -0.00477047 0.00415882
v 0.01354876 -0.00399004 0.00353731
v 0.01431272 -0.00313295 0.00442571
v 0.01471447 -0.00165756 0.00330699
v 0.01468741 -0.00161734 0.00319000
v 0.01511830 -0.00079418 0.00319000
v 0.00353826 -0.00442613 0.00319000
v 0.01152959 0.00757940 0.00372011
v 0.00732681 0.00757940 0.03904771
v -0.00141599 -0.00356024 0.03787780
v 0.00674812 0.00757940 0.03876986
v -0.00141599 -0.00478932 0.00647305
v -0.00141390 -0.00525808 0.00619155
v 0.01360288 -0.00525808 0.00915288
v 0.01360080 -0.00525808 0.00911997
v 0.01351546 -0.00525808 0.00784770
v 0.01257665 -0.00525808 0.00337280
v 0.01314701 -0.00431931 0.00319000
v 0.01345509 -0.00384678 0.00319000
v 0.01084474 0.00757940 0.00392485
v 0.01098005 0.00757940 0.00387366
v 0.00298455 -0.00525808 0.00319000
v 0.00833015 0.00757940 0.00529583
v 0.00903165 0.00757940 0.00483883
v 0.00920859 0.00757940 0.00472550
v 0.01048462 0.00757940 0.00409302
v 0.00597376 0.00757940 0.03837501
v -0.00141599 -0.00305629 0.03772790
v -0.00141599 0.00034693 0.00935761
v 0.00723105 0.00757940 0.00613670
v 0.00731640 0.00757940 0.00606724
v 0.00801166 0.00757940 0.00553713
v 0.00463528 0.00757940 0.00825351
v 0.01246632 -0.00525808 0.00319000
v 0.00575935 0.00757940 0.03826168
v 0.00504119 0.00757940 0.03787049
v -0.00141599 -0.00215396 0.03743908
v -0.00141599 0.00135231 0.01000471
v 0.00402536 0.00757940 0.00879094
v 0.00422728 0.00757940 0.00861179
v 0.00463319 0.00757940 0.03762188
v -0.00141599 -0.00078664 0.03696381
v -0.00141599 0.00157475 0.01015827
v 0.00354243 0.00757940 0.00926256
v 0.00446042 0.00757940 0.03751220
v -0.00141599 0.00001641 0.03666036
v -0.00141599 0.00243058 0.01076150
v 0.00282427 0.00757940 0.01000471
v 0.00370271 0.00757940 0.03701499
v 0.00349247 0.00757940 0.03687606
v 0.00298247 0.00757940 0.03651047
v 0.00281802 0.00757940 0.03638251
v 0.00243293 0.00757940 0.03608272
v 0.00203950 0.00757940 0.03577562
v 0.00164816 0.00757940 0.03546852
v -0.00141599 0.00044872 0.03642638
v -0.00141599 0.00312933 0.01133914
v 0.00141293 0.00757940 0.01162797
v 0.00178554 0.00757940 0.01118194
v 0.00240586 0.00757940 0.01046171
v 0.00126722 0.00757940 0.03505905
v -0.00141599 0.00213525 0.03544658
v -0.00141599 0.00125177 0.03596939
v -0.00141599 0.00360311 0.01175592
v 0.00031592 0.00757940 0.01300992
v 0.00078220 0.00757940 0.01240669
v 0.00109653 0.00757940 0.03487260
v 0.00053657 0.00757940 0.03424011
v -0.00141599 0.00484099 0.03365150
v -0.00141599 0.00444512 0.01252002
v -0.00026901 0.00757940 0.01381058
v 0.00002658 0.00757940 0.03359666
v -0.00044803 0.00757940 0.03297881
v -0.00055003 0.00757940 0.03284353
v -0.00079983 0.00757940 0.03251084
v -0.00141599 0.00694601 0.03213793
v -0.00141599 0.00482717 0.01287099
v -0.00141599 0.00602986 0.01401531
v -0.00093097 0.00757940 0.01480500
v -0.00141599 0.00572573 0.01371918
v -0.00141599 0.00757940 0.03164803
v -0.00141599 0.00692842 0.01490371
v -0.00112248 0.00757940 0.01511210
v -0.00141599 0.00757940 0.01563125
v -0.00141599 0.00719484 0.01518888
v -0.00119533 0.00757940 0.01524006
f 1 2 3
f 1 3 4
f 1 4 5
f 1 5 29
f 1 29 46
f 1 46 71
f 1 71 96
f 1 96 130
f 1 130 166
f 1 166 191
f 1 191 204
f 1 204 203
f 1 203 209
f 1 209 208
f 1 208 207
f 1 207 206
f 1 206 215
f 1 215 214
f 1 214 213
f 1 213 216
f 1 216 223
f 1 223 222
f 1 222 227
f 1 227 231
f 1 231 243
f 1 243 242
f 1 242 241
f 1 241 249
f 1 249 248
f 1 248 254
f 1 254 262
f 1 262 266
f 1 266 269
f 1 269 267
f 1 267 264
f 1 264 258
f 1 258 257
f 1 257 256
f 1 256 255
f 1 255 251
f 1 251 250
f 1 250 244
f 1 244 238
f 1 238 237
f 1 237 236
f 1 236 235
f 1 235 234
f 1 234 233
f 1 233 232
f 1 232 228
f 1 228 224
f 1 224 219
f 1 219 218
f 1 218 210
f 1 210 194
f 1 194 192
f 1 192 170
f 1 170 169
f 1 169 135
f 1 135 99
f 1 99 75
f 1 75 49
f 1 49 30
f 1 30 6
f 1 6 7
f 1 7 8
f 1 8 9
f 1 9 10
f 1 10 11
f 1 11 12
f 1 12 13
f 1 13 14
f 1 14 15
f 1 15 16
f 1 16 17
f 1 17 2
f 2 18 19
f 2 19 20
f 2 20 21
f 2 21 3
f 2 17 22
f 2 22 23
f 2 23 18
f 3 21 24
f 3 24 25
f 3 25 4
f 4 25 26
f 4 26 5
f 5 26 27
f 5 27 28
f 5 28 29
f 6 30 48
f 6 48 74
f 6 74 105
f 6 105 139
f 6 139 149
f 6 149 109
f 6 109 81
f 6 81 60
f 6 60 59
f 6 59 57
f 6 57 37
f 6 37 31
f 6 31 17
f 6 17 16
f 6 16 15
f 6 15 14
f 6 14 13
f 6 13 12
f 6 12 10
f 6 10 9
f 6 9 8
f 6 8 7
f 10 12 11
f 17 31 22
f 18 32 33
f 18 33 19
f 18 23 34
f 18 34 35
f 18 35 36
f 18 36 32
f 19 33 21
f 19 21 20
f 21 33 24
f 22 31 37
f 22 37 34
f 22 34 23
f 24 33 38
f 24 38 39
f 24 39 40
f 24 40 25
f 25 40 41
f 25 41 26
f 26 41 42
f 26 42 43
f 26 43 27
f 27 43 28
f 28 43 44
f 28 44 29
f 29 44 45
f 29 45 46
f 30 47 48
f 30 49 50
f 30 50 51
f 30 51 52
f 30 52 47
f 32 53 54
f 32 54 33
f 32 36 55
f 32 55 53
f 33 54 56
f 33 56 38
f 34 37 57
f 34 57 35
f 35 58 36
f 35 57 59
f 35 59 60
f 35 60 58
f 36 58 55
f 38 40 39
f 38 56 61
f 38 61 62
f 38 62 63
f 38 63 40
f 40 63 41
f 41 63 42
f 42 63 64
f 42 64 65
f 42 65 66
f 42 66 43
f 43 66 67
f 43 67 68
f 43 68 44
f 44 68 69
f 44 69 45
f 45 69 70
f 45 70 46
f 46 70 71
f 47 52 72
f 47 72 73
f 47 73 48
f 48 73 74
f 49 75 72
f 49 72 50
f 50 72 51
f 51 72 52
f 53 76 77
f 53 77 78
f 53 78 54
f 53 55 76
f 54 79 80
f 54 80 56
f 54 78 79
f 55 58 60
f 55 60 76
f 56 80 61
f 60 81 82
f 60 82 83
f 60 83 76
f 61 80 84
f 61 84 85
f 61 85 62
f 62 85 86
f 62 86 87
f 62 87 63
f 63 87 64
f 64 87 88
f 64 88 89
f 64 89 65
f 65 89 66
f 66 89 90
f 66 90 91
f 66 91 67
f 67 91 92
f 67 92 68
f 68 92 69
f 69 92 70
f 70 92 93
f 70 93 91
f 70 91 94
f 70 94 95
f 70 95 71
f 71 95 96
f 72 97 98
f 72 98 73
f 72 75 99
f 72 99 100
f 72 100 101
f 72 101 102
f 72 102 103
f 72 103 104
f 72 104 97
f 73 98 74
f 74 98 105
f 76 106 107
f 76 107 77
f 76 83 82
f 76 82 106
f 77 107 78
f 78 107 79
f 79 107 80
f 80 107 108
f 80 108 84
f 81 109 82
f 82 110 111
f 82 111 112
f 82 112 106
f 82 109 113
f 82 113 110
f 84 108 114
f 84 114 115
f 84 115 85
f 85 115 86
f 86 116 117
f 86 117 118
f 86 118 119
f 86 119 87
f 86 115 116
f 87 119 120
f 87 120 88
f 88 121 122
f 88 122 123
f 88 123 90
f 88 90 89
f 88 120 121
f 90 123 124
f 90 124 91
f 91 93 92
f 91 124 94
f 94 124 125
f 94 125 126
f 94 126 127
f 94 127 95
f 95 127 128
f 95 128 129
f 95 129 130
f 95 130 96
f 97 104 131
f 97 131 132
f 97 132 133
f 97 133 98
f 98 133 134
f 98 134 105
f 99 102 100
f 99 135 102
f 100 102 101
f 102 135 136
f 102 136 137
f 102 137 103
f 103 138 131
f 103 131 104
f 103 137 138
f 105 134 140
f 105 140 139
f 106 141 142
f 106 142 143
f 106 143 144
f 106 144 145
f 106 145 107
f 106 112 141
f 107 145 108
f 108 146 147
f 108 147 148
f 108 148 114
f 108 145 146
f 109 149 150
f 109 150 113
f 110 151 152
f 110 152 111
f 110 113 151
f 111 152 112
f 112 152 141
f 113 150 153
f 113 153 151
f 114 154 155
f 114 155 156
f 114 156 116
f 114 116 115
f 114 148 154
f 116 156 157
f 116 157 158
f 116 158 159
f 116 159 117
f 117 159 160
f 117 160 161
f 117 161 118
f 118 161 120
f 118 120 119
f 120 161 121
f 121 161 162
f 121 162 122
f 122 162 163
f 122 163 124
f 122 124 123
f 124 163 164
f 124 164 165
f 124 165 125
f 125 165 126
f 126 165 164
f 126 164 163
f 126 163 189
f 126 189 188
f 126 188 202
f 126 202 201
f 126 201 217
f 126 217 205
f 126 205 190
f 126 190 166
f 126 166 130
f 126 130 129
f 126 129 128
f 126 128 127
f 131 138 132
f 132 167 134
f 132 134 133
f 132 138 137
f 132 137 167
f 134 167 168
f 134 168 140
f 135 169 136
f 136 169 170
f 136 170 171
f 136 171 137
f 137 172 167
f 137 171 173
f 137 173 193
f 137 193 211
f 137 211 220
f 137 220 225
f 137 225 229
f 137 229 239
f 137 239 246
f 137 246 245
f 137 245 252
f 137 252 259
f 137 259 264
f 137 264 267
f 137 267 268
f 137 268 265
f 137 265 261
f 137 261 263
f 137 263 260
f 137 260 253
f 137 253 247
f 137 247 240
f 137 240 230
f 137 230 226
f 137 226 221
f 137 221 212
f 137 212 195
f 137 195 174
f 137 174 196
f 137 196 205
f 137 205 217
f 137 217 200
f 137 200 183
f 137 183 182
f 137 182 181
f 137 181 178
f 137 178 199
f 137 199 198
f 137 198 197
f 137 197 176
f 137 176 143
f 137 143 142
f 137 142 141
f 137 141 152
f 137 152 151
f 137 151 153
f 137 153 150
f 137 150 149
f 137 149 139
f 137 139 175
f 137 175 172
f 139 140 168
f 139 168 175
f 143 176 177
f 143 177 144
f 144 177 147
f 144 147 146
f 144 146 145
f 147 177 148
f 148 177 178
f 148 178 179
f 148 179 154
f 154 179 155
f 155 179 180
f 155 180 157
f 155 157 156
f 157 180 181
f 157 181 182
f 157 182 183
f 157 183 184
f 157 184 158
f 158 184 185
f 158 185 186
f 158 186 159
f 159 186 160
f 160 186 185
f 160 185 187
f 160 187 162
f 160 162 161
f 162 187 188
f 162 188 189
f 162 189 163
f 166 190 191
f 167 172 168
f 168 172 175
f 170 192 171
f 171 192 173
f 173 192 194
f 173 194 193
f 174 195 196
f 176 197 177
f 177 197 198
f 177 198 199
f 177 199 178
f 178 181 180
f 178 180 179
f 183 200 184
f 184 200 185
f 185 200 201
f 185 201 202
f 185 202 188
f 185 188 187
f 190 203 204
f 190 204 191
f 190 205 206
f 190 206 207
f 190 207 208
f 190 208 209
f 190 209 203
f 193 194 210
f 193 210 211
f 195 212 196
f 196 213 214
f 196 214 215
f 196 215 206
f 196 206 205
f 196 212 216
f 196 216 213
f 200 217 201
f 210 218 211
f 211 218 219
f 211 219 220
f 212 221 222
f 212 222 223
f 212 223 216
f 219 224 225
f 219 225 220
f 221 226 227
f 221 227 222
f 224 228 229
f 224 229 225
f 226 230 231
f 226 231 227
f 228 232 229
f 229 232 233
f 229 233 234
f 229 234 235
f 229 235 236
f 229 236 237
f 229 237 238
f 229 238 239
f 230 240 241
f 230 241 242
f 230 242 243
f 230 243 231
f 238 244 245
f 238 245 246
f 238 246 239
f 240 247 248
f 240 248 249
f 240 249 241
f 244 250 245
f 245 250 251
f 245 251 252
f 247 253 248
f 248 253 254
f 251 255 252
f 252 255 256
f 252 256 257
f 252 257 258
f 252 258 259
f 253 260 254
f 254 261 262
f 254 260 263
f 254 263 261
f 258 264 259
f 261 265 262
f 262 265 266
f 265 268 266
f 266 268 269
f 267 269 268

