# https://github.com/mikedh/trimesh
v 0.03617225 0.02539560 0.07758064
v 0.03570184 0.02606521 0.07758064
v 0.03085917 0.02539560 0.07758064
v 0.03616936 0.02539560 0.00809448
v 0.03528337 0.02665410 0.07758064
v 0.03570184 0.02605787 0.00809448
v 0.00668910 0.03975277 0.07758064
v 0.00668910 0.03966838 0.00809448
v 0.03073218 0.02539560 0.00809448
v 0.03485336 0.02725216 0.07758064
v 0.03527760 0.02664676 0.00809448
v 0.00668910 0.04413550 0.07758064
v 0.00668910 0.04410982 0.00809448
v 0.03483316 0.02727968 0.07758064
v 0.03483893 0.02725216 0.00809448
v 0.03478409 0.02732737 0.00809448
v 0.00882184 0.04374841 0.07758064
v 0.00882184 0.04373557 0.00809448
v 0.00775980 0.04392269 0.00809448
v 0.00764436 0.04394288 0.00809448
v 0.03427328 0.02803734 0.07758064
v 0.03426462 0.02803184 0.00809448
v 0.00999643 0.04351543 0.07758064
v 0.00893728 0.04371172 0.00809448
v 0.03381152 0.02860422 0.07758064
v 0.03383461 0.02856386 0.00809448
v 0.03378843 0.02862073 0.00809448
v 0.01003395 0.04350625 0.07758064
v 0.01009456 0.04346773 0.00809448
v 0.00999643 0.04349158 0.00809448
v 0.03320547 0.02932703 0.07758064
v 0.03319969 0.02932520 0.00809448
v 0.01104404 0.04325859 0.07758064
v 0.01098632 0.04324391 0.00809448
v 0.03270908 0.02989391 0.07758064
v 0.03268888 0.02991225 0.00809448
v 0.01162990 0.04309715 0.07758064
v 0.01165010 0.04305862 0.00809448
v 0.03210302 0.03055985 0.07758064
v 0.03263116 0.02997646 0.00809448
v 0.01239468 0.04286599 0.07758064
v 0.01235139 0.04285866 0.00809448
v 0.03152294 0.03117075 0.07758064
v 0.03210014 0.03055985 0.00809448
v 0.03154314 0.03114874 0.00809448
v 0.01352598 0.04250275 0.07758064
v 0.01352598 0.04248808 0.00809448
v 0.03095440 0.03173579 0.07758064
v 0.03095440 0.03173579 0.00809448
v 0.01463420 0.04213217 0.07758064
v 0.01362988 0.04245322 0.00809448
v 0.03035989 0.03232468 0.07758064
v 0.03035989 0.03232468 0.00809448
v 0.01519985 0.04193955 0.07758064
v 0.01459091 0.04212117 0.00809448
v 0.02977115 0.03289889 0.07758064
v 0.02977115 0.03289889 0.00809448
v 0.01522005 0.04193221 0.07758064
v 0.01517676 0.04191570 0.00809448
v 0.02914201 0.03348779 0.07758064
v 0.02920261 0.03342908 0.00809448
v 0.01588094 0.04167170 0.07758064
v 0.01588094 0.04165152 0.00809448
v 0.01524603 0.04189002 0.00809448
v 0.02855327 0.03399229 0.07758064
v 0.02913912 0.03348595 0.00809448
v 0.02908140 0.03353548 0.00809448
v 0.01705553 0.04117821 0.07758064
v 0.01705553 0.04115803 0.00809448
v 0.02784332 0.03458118 0.07758064
v 0.02855038 0.03398678 0.00809448
v 0.01708151 0.04116720 0.07758064
v 0.01712768 0.04112684 0.00809448
v 0.02725458 0.03506550 0.07758064
v 0.02777983 0.03462337 0.00809448
v 0.01777991 0.04085166 0.07758064
v 0.01776837 0.04083515 0.00809448
v 0.02654751 0.03563237 0.07758064
v 0.02724881 0.03505816 0.00809448
v 0.02658792 0.03558834 0.00809448
v 0.01941049 0.04008849 0.07758064
v 0.01941049 0.04007748 0.00809448
v 0.01829939 0.04059299 0.00809448
v 0.02593280 0.03611669 0.07758064
v 0.02592703 0.03611119 0.00809448
v 0.02018682 0.03971057 0.07758064
v 0.02018393 0.03970323 0.00809448
v 0.02528923 0.03656799 0.07758064
v 0.02535272 0.03652029 0.00809448
v 0.02077556 0.03938219 0.07758064
v 0.02077267 0.03938035 0.00809448
v 0.02448115 0.03712753 0.07758064
v 0.02528923 0.03656432 0.00809448
v 0.02178277 0.03881715 0.07758064
v 0.02087080 0.03932532 0.00809448
v 0.02391262 0.03751095 0.07758064
v 0.02457350 0.03705965 0.00809448
v 0.02449558 0.03711285 0.00809448
v 0.02240036 0.03846125 0.07758064
v 0.02175968 0.03881715 0.00809448
v 0.02302374 0.03807782 0.07758064
v 0.02443786 0.03715138 0.00809448
v 0.02390684 0.03750545 0.00809448
v 0.02296890 0.03811268 0.07758064
v 0.02291984 0.03812919 0.00809448
v 0.02238882 0.03845024 0.00809448
v 0.02306991 0.03803563 0.00809448
f 1 2 5
f 1 5 10
f 1 10 14
f 1 14 21
f 1 21 25
f 1 25 31
f 1 31 35
f 1 35 39
f 1 39 43
f 1 43 48
f 1 48 52
f 1 52 56
f 1 56 60
f 1 60 65
f 1 65 70
f 1 70 74
f 1 74 78
f 1 78 84
f 1 84 88
f 1 88 92
f 1 92 96
f 1 96 101
f 1 101 104
f 1 104 99
f 1 99 94
f 1 94 90
f 1 90 86
f 1 86 81
f 1 81 76
f 1 76 72
f 1 72 68
f 1 68 62
f 1 62 58
f 1 58 54
f 1 54 50
f 1 50 46
f 1 46 41
f 1 41 37
f 1 37 33
f 1 33 28
f 1 28 23
f 1 23 17
f 1 17 12
f 1 12 7
f 1 7 3
f 1 3 9
f 1 9 4
f 1 4 2
f 2 4 6
f 2 6 5
f 3 7 8
f 3 8 9
f 4 9 8
f 4 8 13
f 4 13 20
f 4 20 19
f 4 19 18
f 4 18 24
f 4 24 30
f 4 30 29
f 4 29 34
f 4 34 38
f 4 38 42
f 4 42 47
f 4 47 51
f 4 51 55
f 4 55 59
f 4 59 64
f 4 64 63
f 4 63 69
f 4 69 73
f 4 73 77
f 4 77 83
f 4 83 82
f 4 82 87
f 4 87 91
f 4 91 95
f 4 95 100
f 4 100 106
f 4 106 105
f 4 105 107
f 4 107 103
f 4 103 102
f 4 102 98
f 4 98 97
f 4 97 93
f 4 93 89
f 4 89 85
f 4 85 80
f 4 80 79
f 4 79 75
f 4 75 71
f 4 71 67
f 4 67 66
f 4 66 61
f 4 61 57
f 4 57 53
f 4 53 49
f 4 49 45
f 4 45 44
f 4 44 40
f 4 40 36
f 4 36 32
f 4 32 27
f 4 27 26
f 4 26 22
f 4 22 16
f 4 16 15
f 4 15 11
f 4 11 6
f 5 6 10
f 6 11 10
f 7 12 13
f 7 13 8
f 10 11 15
f 10 15 16
f 10 16 14
f 12 17 18
f 12 18 19
f 12 19 20
f 12 20 13
f 14 16 22
f 14 22 21
f 17 23 18
f 18 23 24
f 21 22 26
f 21 26 27
f 21 27 25
f 23 28 29
f 23 29 30
f 23 30 24
f 25 27 32
f 25 32 31
f 28 33 29
f 29 33 34
f 31 32 36
f 31 36 35
f 33 37 34
f 34 37 38
f 35 36 40
f 35 40 39
f 37 41 42
f 37 42 38
f 39 40 44
f 39 44 45
f 39 45 43
f 41 46 47
f 41 47 42
f 43 45 49
f 43 49 48
f 46 50 47
f 47 50 51
f 48 49 53
f 48 53 52
f 50 54 51
f 51 54 55
f 52 53 57
f 52 57 56
f 54 58 59
f 54 59 55
f 56 57 60
f 57 61 60
f 58 62 63
f 58 63 64
f 58 64 59
f 60 61 66
f 60 66 67
f 60 67 65
f 62 68 69
f 62 69 63
f 65 67 71
f 65 71 70
f 68 72 69
f 69 72 73
f 70 71 75
f 70 75 74
f 72 76 73
f 73 76 77
f 74 75 79
f 74 79 80
f 74 80 78
f 76 81 82
f 76 82 83
f 76 83 77
f 78 80 85
f 78 85 84
f 81 86 87
f 81 87 82
f 84 85 89
f 84 89 88
f 86 90 91
f 86 91 87
f 88 89 93
f 88 93 92
f 90 94 95
f 90 95 91
f 92 93 97
f 92 97 98
f 92 98 96
f 94 99 100
f 94 100 95
f 96 98 102
f 96 102 103
f 96 103 101
f 99 104 105
f 99 105 106
f 99 106 100
f 101 103 104
f 103 107 104
f 104 107 105

