# https://github.com/mikedh/trimesh
v -0.01470078 -0.01830012 0.00319000
v -0.01470078 -0.01370792 0.00319000
v -0.00644734 -0.01830012 0.00319000
v -0.01470078 -0.01830012 0.03989364
v -0.01177482 -0.01133848 0.00319000
v -0.01470078 -0.00698189 0.00951203
v -0.00644734 -0.01629076 0.00319000
v -0.00644734 -0.01830012 0.04133879
v -0.01417554 -0.01830012 0.04002061
v -0.01470078 -0.01719541 0.03985630
v -0.01060557 -0.01108064 0.00319000
v -0.01470078 -0.00639953 0.01009830
v -0.01470078 -0.00586385 0.01068084
v -0.00644734 -0.00103160 0.01170402
v -0.00644734 -0.00158062 0.01110654
v -0.00644734 -0.00218298 0.01055014
v -0.00947511 -0.01132292 0.00319000
v -0.00644734 -0.01248319 0.00354848
v -0.00644734 -0.00999371 0.03898623
v -0.00826869 -0.01131403 0.03929244
v -0.00943713 -0.01248319 0.03957624
v -0.00707519 -0.01830012 0.04130891
v -0.01361799 -0.01830012 0.04015131
v -0.01294407 -0.01830012 0.04030814
v -0.01177482 -0.01830012 0.04057701
v -0.01470078 -0.01599069 0.03977788
v -0.00958662 -0.01127624 0.00319000
v -0.00644734 -0.00284092 0.01000121
v -0.00644734 -0.00340327 0.00956431
v -0.01470078 -0.00526149 0.01147623
v -0.00644734 0.00058878 0.01368315
v -0.00644734 0.00004199 0.01297365
v -0.00644734 -0.00046924 0.01236124
v -0.00644734 -0.01104063 0.00407501
v -0.00644734 -0.01162521 0.00375759
v -0.00644734 -0.01216978 0.00362316
v -0.00644734 -0.00973588 0.03891155
v -0.00943713 -0.01131403 0.03924389
v -0.01060557 -0.01248319 0.03952022
v -0.00939026 -0.01830012 0.04104752
v -0.01177482 -0.01248319 0.03945674
v -0.01177482 -0.01365236 0.03975548
v -0.01294407 -0.01365236 0.03965465
v -0.01060557 -0.01830012 0.04083094
v -0.01470078 -0.01482152 0.03966212
v -0.00644734 -0.01066276 0.00433640
v -0.01470078 -0.00467913 0.01229402
v -0.00644734 0.00102889 0.01429557
v -0.00644734 -0.00933356 0.03878832
v -0.00826869 -0.01047383 0.03904598
v -0.00943713 -0.01058941 0.03901237
v -0.01411252 -0.01365236 0.03952022
v -0.01470078 -0.01365236 0.03944927
v -0.01294407 -0.01248319 0.03935592
v -0.01470078 -0.00441018 0.01267491
v -0.00644734 0.00149344 0.01495652
v -0.00644734 -0.00832443 0.03845597
v -0.00644734 -0.00718861 0.03804894
v -0.01294407 -0.01164522 0.03906838
v -0.01470078 -0.01307222 0.03929617
v -0.01411252 -0.01248319 0.03921028
v -0.01411252 -0.01180303 0.03900117
v -0.01470078 -0.01188972 0.03896382
v -0.01470078 -0.00405009 0.01321264
v -0.01470078 -0.00387005 0.01348524
v -0.01470078 -0.00352552 0.01401923
v -0.00644734 0.00201134 0.01576685
v -0.00644734 -0.00682185 0.03790704
v -0.01470078 -0.01247874 0.03913560
v -0.00644734 -0.00645732 0.03776141
v -0.01470078 -0.01133403 0.03871363
v -0.00644734 -0.00629062 0.03768672
v -0.01470078 -0.00296094 0.01500133
v -0.00644734 0.00237587 0.01642781
v -0.01470078 -0.01009818 0.03815350
v -0.00644734 -0.00599277 0.03754109
v -0.01470078 -0.00231635 0.01627844
v -0.00644734 0.00255369 0.01679749
v -0.01470078 -0.00946692 0.03784356
v -0.00644734 -0.00484139 0.03696975
v -0.01470078 -0.00190069 0.01735763
v -0.00644734 0.00280708 0.01733522
v -0.00644734 -0.00449686 0.03678304
v -0.00644734 -0.00410121 0.03655899
v -0.01470078 -0.00893124 0.03752241
v -0.00644734 0.00289822 0.01760408
v -0.01470078 -0.00162063 0.01850403
v -0.00644734 0.00316495 0.01850030
v -0.00644734 -0.00364110 0.03627519
v -0.01470078 -0.00841557 0.03720874
v -0.01470078 -0.00129833 0.01998652
v -0.00644734 0.00380510 0.02142046
v -0.00644734 -0.00268755 0.03566277
v -0.01470078 -0.00789322 0.03688013
v -0.01470078 -0.00112273 0.02084165
v -0.00644734 0.00417407 0.02317554
v -0.00644734 0.00400959 0.02238389
v -0.00644734 -0.00245860 0.03550967
v -0.01470078 -0.00756203 0.03665981
v -0.01470078 -0.00102271 0.02144286
v -0.00644734 0.00440524 0.02434809
v -0.00644734 0.00420741 0.02333985
v -0.00644734 -0.00234080 0.03542378
v -0.01470078 -0.00710414 0.03634614
v -0.01470078 -0.00736198 0.03652538
v -0.01470078 -0.00092268 0.02204781
v -0.01470078 -0.00076265 0.02316434
v -0.01470078 -0.00064262 0.02434809
v -0.01470078 -0.00063373 0.02484474
v -0.01470078 -0.00062484 0.02551690
v -0.00644734 0.00440524 0.02435182
v -0.00644734 -0.00145614 0.03471428
v -0.01470078 -0.00625728 0.03569638
v -0.01470078 -0.00064484 0.02600608
v -0.01470078 -0.00067596 0.02668571
v -0.00644734 0.00434523 0.02551316
v -0.00644734 -0.00115830 0.03443795
v -0.01470078 -0.00509256 0.03467321
v -0.01470078 -0.00541041 0.03496074
v -0.01470078 -0.00590831 0.03540511
v -0.01470078 -0.00600833 0.03549100
v -0.01470078 -0.00087378 0.02780598
v -0.00644734 0.00402293 0.02668571
v -0.00644734 -0.00092046 0.03421016
v -0.01470078 -0.00478360 0.03438194
v -0.01470078 -0.00110050 0.02851174
v -0.00644734 0.00369841 0.02785452
v -0.00644734 -0.00059594 0.03388902
v -0.01470078 -0.00461911 0.03421390
v -0.01470078 -0.00141613 0.02949384
v -0.00644734 0.00353615 0.02834370
v -0.00644734 -0.00033143 0.03360895
v -0.01470078 -0.00421013 0.03377699
v -0.01470078 -0.00145837 0.02959840
v -0.00644734 0.00343390 0.02859389
v -0.00644734 0.00073548 0.03245134
v -0.01470078 -0.00395229 0.03349319
v -0.01470078 -0.00175399 0.03020708
v -0.00644734 0.00325830 0.02894865
v -0.00644734 0.00104445 0.03208166
v -0.01470078 -0.00367000 0.03317205
v -0.01470078 -0.00195626 0.03060291
v -0.01470078 -0.00230968 0.03123025
v -0.01470078 -0.00247638 0.03152526
v -0.01470078 -0.00263420 0.03180159
v -0.00644734 0.00239810 0.03027803
v -0.00644734 0.00122004 0.03186881
v -0.00644734 0.00159124 0.03139456
v -0.01470078 -0.00316766 0.03252603
v -0.01470078 -0.00280535 0.03204805
f 1 2 5
f 1 5 11
f 1 11 27
f 1 27 17
f 1 17 7
f 1 7 3
f 1 3 8
f 1 8 22
f 1 22 40
f 1 40 44
f 1 44 25
f 1 25 24
f 1 24 23
f 1 23 9
f 1 9 4
f 1 4 10
f 1 10 26
f 1 26 45
f 1 45 53
f 1 53 60
f 1 60 69
f 1 69 63
f 1 63 71
f 1 71 75
f 1 75 79
f 1 79 85
f 1 85 90
f 1 90 94
f 1 94 99
f 1 99 105
f 1 105 104
f 1 104 113
f 1 113 121
f 1 121 120
f 1 120 119
f 1 119 118
f 1 118 125
f 1 125 129
f 1 129 133
f 1 133 137
f 1 137 141
f 1 141 149
f 1 149 150
f 1 150 145
f 1 145 144
f 1 144 143
f 1 143 142
f 1 142 138
f 1 138 134
f 1 134 130
f 1 130 126
f 1 126 122
f 1 122 115
f 1 115 114
f 1 114 110
f 1 110 109
f 1 109 108
f 1 108 107
f 1 107 106
f 1 106 100
f 1 100 95
f 1 95 91
f 1 91 87
f 1 87 81
f 1 81 77
f 1 77 73
f 1 73 66
f 1 66 65
f 1 65 64
f 1 64 55
f 1 55 47
f 1 47 30
f 1 30 13
f 1 13 12
f 1 12 6
f 1 6 2
f 2 6 5
f 3 7 18
f 3 18 36
f 3 36 35
f 3 35 34
f 3 34 46
f 3 46 29
f 3 29 28
f 3 28 16
f 3 16 15
f 3 15 14
f 3 14 33
f 3 33 32
f 3 32 31
f 3 31 48
f 3 48 56
f 3 56 67
f 3 67 74
f 3 74 78
f 3 78 82
f 3 82 86
f 3 86 88
f 3 88 92
f 3 92 97
f 3 97 96
f 3 96 102
f 3 102 101
f 3 101 111
f 3 111 116
f 3 116 123
f 3 123 127
f 3 127 131
f 3 131 135
f 3 135 139
f 3 139 146
f 3 146 148
f 3 148 147
f 3 147 140
f 3 140 136
f 3 136 132
f 3 132 128
f 3 128 124
f 3 124 117
f 3 117 112
f 3 112 103
f 3 103 98
f 3 98 93
f 3 93 89
f 3 89 84
f 3 84 83
f 3 83 80
f 3 80 76
f 3 76 72
f 3 72 70
f 3 70 68
f 3 68 58
f 3 58 57
f 3 57 49
f 3 49 37
f 3 37 19
f 3 19 8
f 4 9 10
f 5 6 12
f 5 12 13
f 5 13 14
f 5 14 15
f 5 15 16
f 5 16 11
f 7 17 18
f 8 19 20
f 8 20 21
f 8 21 22
f 9 23 10
f 10 23 24
f 10 24 25
f 10 25 26
f 11 16 28
f 11 28 29
f 11 29 27
f 13 30 31
f 13 31 32
f 13 32 33
f 13 33 14
f 17 27 34
f 17 34 35
f 17 35 36
f 17 36 18
f 19 37 38
f 19 38 20
f 20 38 21
f 21 38 39
f 21 39 22
f 22 39 41
f 22 41 42
f 22 42 43
f 22 43 40
f 25 44 26
f 26 44 45
f 27 46 34
f 27 29 46
f 30 47 48
f 30 48 31
f 37 49 50
f 37 50 38
f 38 41 39
f 38 50 51
f 38 51 41
f 40 43 52
f 40 52 53
f 40 53 45
f 40 45 44
f 41 54 43
f 41 43 42
f 41 51 54
f 43 54 52
f 47 55 48
f 48 55 56
f 49 57 51
f 49 51 50
f 51 57 58
f 51 58 59
f 51 59 54
f 52 54 53
f 53 54 60
f 54 61 60
f 54 59 62
f 54 62 63
f 54 63 61
f 55 64 56
f 56 64 65
f 56 65 66
f 56 66 67
f 58 68 59
f 59 68 62
f 60 61 69
f 61 63 69
f 62 68 70
f 62 70 63
f 63 70 72
f 63 72 71
f 66 73 67
f 67 73 74
f 71 72 75
f 72 76 75
f 73 77 74
f 74 77 78
f 75 76 79
f 76 80 79
f 77 81 82
f 77 82 78
f 79 80 83
f 79 83 84
f 79 84 85
f 81 86 82
f 81 87 88
f 81 88 86
f 84 89 90
f 84 90 85
f 87 91 92
f 87 92 88
f 89 93 94
f 89 94 90
f 91 95 96
f 91 96 97
f 91 97 92
f 93 98 99
f 93 99 94
f 95 100 101
f 95 101 102
f 95 102 96
f 98 103 104
f 98 104 105
f 98 105 99
f 100 106 101
f 101 106 107
f 101 107 108
f 101 108 109
f 101 109 110
f 101 110 111
f 103 112 113
f 103 113 104
f 110 114 111
f 111 114 115
f 111 115 116
f 112 117 118
f 112 118 119
f 112 119 120
f 112 120 121
f 112 121 113
f 115 122 116
f 116 122 123
f 117 124 125
f 117 125 118
f 122 126 127
f 122 127 123
f 124 128 125
f 125 128 129
f 126 130 127
f 127 130 131
f 128 132 129
f 129 132 133
f 130 134 131
f 131 134 135
f 132 136 133
f 133 136 137
f 134 138 135
f 135 138 139
f 136 140 141
f 136 141 137
f 138 142 139
f 139 142 143
f 139 143 144
f 139 144 145
f 139 145 146
f 140 147 141
f 141 147 148
f 141 148 149
f 145 150 146
f 146 150 148
f 148 150 149

