# https://github.com/mikedh/trimesh
v -0.03282568 -0.01987254 0.07577447
v -0.03282568 -0.02252280 0.07577447
v -0.03282568 -0.01983384 0.07462344
v -0.04619042 -0.01215297 0.07434369
v -0.04619042 -0.01216826 0.07461469
v -0.04619042 -0.01229455 0.07577447
v -0.03399261 -0.02211741 0.07577447
v -0.03298528 -0.02228344 0.05123855
v -0.03282568 -0.02234353 0.05240707
v -0.03282568 -0.01978189 0.06994646
v -0.04619042 -0.01214075 0.07344618
v -0.04619042 -0.01550094 0.07577447
v -0.03515692 -0.02169370 0.07577447
v -0.03577178 -0.02126591 0.04600500
v -0.03282568 -0.02229261 0.04656158
v -0.03282568 -0.02233437 0.05123855
v -0.04619042 -0.01213770 0.07314021
v -0.03282568 -0.01966068 0.05241290
v -0.04572077 -0.01590734 0.07577447
v -0.04619042 -0.01549177 0.04656158
v -0.03602427 -0.02137286 0.07577447
v -0.03829533 -0.02018625 0.04656158
v -0.03828356 -0.02018116 0.04600500
v -0.03344185 -0.02206649 0.04600500
v -0.03661820 -0.02112433 0.07577447
v -0.03749470 -0.02075358 0.07577447
v -0.03282568 -0.02225899 0.04600500
v -0.04619042 -0.01211835 0.06995229
v -0.03282568 -0.01966068 0.05240707
v -0.04566190 -0.01595725 0.07577447
v -0.04619042 -0.01548770 0.04600500
v -0.04567629 -0.01585947 0.04656158
v -0.04491621 -0.01646143 0.05708113
v -0.04449235 -0.01682505 0.07577447
v -0.03887880 -0.01991430 0.04773009
v -0.03888011 -0.01990004 0.04656158
v -0.03851380 -0.02029218 0.07577447
v -0.03933144 -0.01966578 0.04600500
v -0.03282568 -0.01969124 0.04600500
v -0.03282568 -0.01967392 0.04601083
v -0.04619042 -0.01230677 0.05076940
v -0.04619042 -0.01242187 0.04600500
v -0.04596148 -0.01565066 0.04600500
v -0.04487173 -0.01642578 0.04656158
v -0.04428696 -0.01683320 0.04656158
v -0.04428827 -0.01683931 0.04773009
v -0.04291334 -0.01786499 0.07577447
v -0.03983118 -0.01942336 0.04656158
v -0.03909334 -0.02000801 0.07577447
v -0.03910773 -0.02000087 0.07577447
v -0.04019879 -0.01923187 0.04600500
v -0.04619042 -0.01231798 0.05006712
v -0.04427126 -0.01682301 0.04600500
v -0.04340130 -0.01741682 0.04656158
v -0.04339476 -0.01740664 0.04600500
v -0.04217681 -0.01833351 0.07577447
v -0.03983118 -0.01961892 0.07577447
v -0.04067105 -0.01905668 0.05591262
v -0.04060695 -0.01902103 0.04600500
v -0.04311742 -0.01758590 0.04600500
v -0.04280999 -0.01777841 0.04600500
v -0.04281784 -0.01778146 0.04656158
v -0.04217027 -0.01833759 0.07577447
v -0.04137226 -0.01879695 0.07577447
f 1 2 9
f 1 9 16
f 1 16 15
f 1 15 27
f 1 27 39
f 1 39 40
f 1 40 29
f 1 29 18
f 1 18 10
f 1 10 3
f 1 3 4
f 1 4 5
f 1 5 6
f 1 6 12
f 1 12 19
f 1 19 30
f 1 30 34
f 1 34 47
f 1 47 56
f 1 56 63
f 1 63 64
f 1 64 57
f 1 57 50
f 1 50 49
f 1 49 37
f 1 37 26
f 1 26 25
f 1 25 21
f 1 21 13
f 1 13 7
f 1 7 2
f 2 7 8
f 2 8 9
f 3 10 11
f 3 11 4
f 4 11 17
f 4 17 28
f 4 28 41
f 4 41 52
f 4 52 42
f 4 42 31
f 4 31 20
f 4 20 12
f 4 12 6
f 4 6 5
f 7 13 14
f 7 14 8
f 8 14 15
f 8 15 16
f 8 16 9
f 10 17 11
f 10 18 17
f 12 20 19
f 13 21 14
f 14 22 23
f 14 23 38
f 14 38 51
f 14 51 59
f 14 59 61
f 14 61 60
f 14 60 55
f 14 55 53
f 14 53 43
f 14 43 31
f 14 31 42
f 14 42 39
f 14 39 27
f 14 27 24
f 14 24 15
f 14 21 25
f 14 25 26
f 14 26 22
f 15 24 27
f 17 18 28
f 18 29 28
f 19 20 30
f 20 31 32
f 20 32 33
f 20 33 34
f 20 34 30
f 22 35 36
f 22 36 23
f 22 26 37
f 22 37 35
f 23 36 38
f 28 29 40
f 28 40 41
f 31 43 32
f 32 43 44
f 32 44 33
f 33 44 45
f 33 45 46
f 33 46 34
f 34 46 47
f 35 48 36
f 35 37 49
f 35 49 50
f 35 50 48
f 36 48 51
f 36 51 38
f 39 42 40
f 40 42 52
f 40 52 41
f 43 53 45
f 43 45 44
f 45 54 46
f 45 53 55
f 45 55 54
f 46 54 47
f 47 54 56
f 48 50 51
f 50 57 58
f 50 58 51
f 51 58 59
f 54 55 60
f 54 60 61
f 54 61 62
f 54 62 56
f 56 62 63
f 57 64 58
f 58 62 59
f 58 64 62
f 59 62 61
f 62 64 63

