# https://github.com/mikedh/trimesh
v -0.03514244 0.05640644 0.04096426
v -0.03515626 0.05640223 0.04096426
v -0.03514244 0.05199292 0.04096426
v -0.03514244 0.05647793 0.03720509
v -0.03535889 0.05633074 0.04096426
v -0.03515626 0.05647372 0.03720509
v -0.03622697 0.05607631 0.03837526
v -0.05174886 0.03499909 0.04096426
v -0.05035118 0.03499909 0.04070097
v -0.04962816 0.03499909 0.04055836
v -0.04918376 0.03499909 0.04047059
v -0.04848606 0.03499909 0.04032067
v -0.04807160 0.03499909 0.04022559
v -0.04769397 0.03499909 0.04013783
v -0.04754660 0.03499909 0.04009760
v -0.04726108 0.03499909 0.04001350
v -0.04612359 0.03499909 0.03964051
v -0.04567918 0.03499909 0.03946864
v -0.03514244 0.04563653 0.03887990
v -0.03514244 0.05647793 0.03719046
v -0.03609572 0.05605739 0.04096426
v -0.03681184 0.05586394 0.03837526
v -0.03515626 0.05647162 0.03603492
v -0.03624309 0.05609103 0.03720509
v -0.05865900 0.03499909 0.04096426
v -0.04507821 0.03499909 0.03921998
v -0.03514244 0.04481438 0.03859101
v -0.03514244 0.05647582 0.03602030
v -0.03655625 0.05585553 0.04096426
v -0.03682795 0.05587236 0.03720509
v -0.03749571 0.05557798 0.03720509
v -0.03852267 0.05495138 0.04096426
v -0.03771906 0.05532986 0.04096426
v -0.03685328 0.05572517 0.04096426
v -0.03514244 0.05642536 0.03252807
v -0.03613947 0.05607001 0.03252807
v -0.05844946 0.03544696 0.04096426
v -0.05866360 0.03499909 0.04071194
v -0.04480189 0.03499909 0.03909930
v -0.03514244 0.04281684 0.03787428
v -0.03514244 0.04363057 0.03816682
v -0.03672434 0.05581979 0.03252807
v -0.03749571 0.05556116 0.03603492
v -0.03856872 0.05502287 0.03720509
v -0.03925721 0.05458972 0.04096426
v -0.03898089 0.05472640 0.04096426
v -0.03857333 0.05502708 0.03603492
v -0.03514244 0.05593333 0.01032046
v -0.03550165 0.05581558 0.01149063
v -0.03632599 0.05547705 0.01149063
v -0.05836887 0.03561517 0.04096426
v -0.05845176 0.03544696 0.04071194
v -0.05791065 0.03499909 0.01060569
v -0.04373348 0.03499909 0.03859467
v -0.03514244 0.04224071 0.03764756
v -0.03809439 0.05474111 0.01315446
v -0.03855261 0.05501446 0.03486841
v -0.04139863 0.05346900 0.04096426
v -0.04127429 0.05353628 0.04096426
v -0.04138942 0.05345217 0.03603492
v -0.04217001 0.05304215 0.04096426
v -0.04282165 0.05243448 0.01967450
v -0.03514244 0.05589759 0.00915395
v -0.03632599 0.05543500 0.01032046
v -0.03735755 0.05494087 0.00915395
v -0.03740360 0.05496190 0.01032046
v -0.05805341 0.03622705 0.04096426
v -0.05801426 0.03615556 0.03720509
v -0.05680539 0.03724475 0.01181974
v -0.05771953 0.03535024 0.01030949
v -0.05761131 0.03544696 0.00915395
v -0.05782775 0.03499909 0.00915395
v -0.04260060 0.03499909 0.03804615
v -0.03514244 0.04222388 0.03764025
v -0.03798847 0.05469065 0.01032046
v -0.03866313 0.05427852 0.00798378
v -0.04032331 0.05351525 0.01032046
v -0.03869307 0.05445095 0.01382731
v -0.04049831 0.05361198 0.01733416
v -0.04355157 0.05218006 0.03486841
v -0.04357690 0.05219057 0.03720509
v -0.04299204 0.05253120 0.03720509
v -0.04300355 0.05255223 0.04096426
v -0.04046838 0.05359726 0.01616765
v -0.04100259 0.05311995 0.00915395
v -0.04190751 0.05260690 0.00915395
v -0.04280092 0.05241976 0.01889561
v -0.04401670 0.05128852 0.01032046
v -0.04340651 0.05202446 0.01967450
v -0.04510123 0.05123175 0.03648471
v -0.03632599 0.05539084 0.00915395
v -0.03514244 0.05586815 0.00849573
v -0.03730459 0.05491143 0.00798378
v -0.03788946 0.05464650 0.00798378
v -0.03794242 0.05466752 0.00915395
v -0.05781394 0.03668543 0.04096426
v -0.05764124 0.03701556 0.04096426
v -0.05770572 0.03674011 0.03720509
v -0.05587744 0.03877339 0.01149063
v -0.05584521 0.03874185 0.01032046
v -0.05578994 0.03866195 0.00798378
v -0.05628500 0.03778514 0.00798378
v -0.05669257 0.03703869 0.00798378
v -0.05705638 0.03649620 0.00915395
v -0.05714158 0.03778514 0.03720509
v -0.05680309 0.03840542 0.03720509
v -0.05674322 0.03829609 0.03252807
v -0.05700802 0.03645414 0.00798378
v -0.05752611 0.03544696 0.00798378
v -0.05778170 0.03499909 0.00841894
v -0.04238876 0.03499909 0.03793645
v -0.03514244 0.04130922 0.03721240
v -0.03866313 0.05420493 0.00681361
v -0.03957497 0.05375075 0.00681361
v -0.03964405 0.05378019 0.00798378
v -0.04450946 0.05161654 0.04096426
v -0.04358842 0.05219267 0.04096426
v -0.04100259 0.05304005 0.00798378
v -0.04185916 0.05256064 0.00798378
v -0.04244402 0.05220739 0.00798378
v -0.04345487 0.05155135 0.00792161
v -0.04456012 0.05085958 0.00915395
v -0.04459926 0.05087640 0.01032046
v -0.04391999 0.05122334 0.00749377
v -0.04537984 0.05027503 0.00915395
v -0.04550189 0.05035704 0.01499748
v -0.04639299 0.05015939 0.03252807
v -0.04641141 0.05017200 0.03369824
v -0.04643214 0.05019933 0.03603492
v -0.04648510 0.05023298 0.04071194
v -0.04648740 0.05023508 0.04096426
v -0.04569070 0.05081962 0.04096426
v -0.04556636 0.05091004 0.04096426
v -0.04510814 0.05123595 0.04096426
v -0.03632599 0.05533617 0.00798378
v -0.03514244 0.05583871 0.00798378
v -0.03536580 0.05574409 0.00798378
v -0.03720328 0.05486307 0.00681361
v -0.03778814 0.05460234 0.00681361
v -0.05714388 0.03794284 0.04096426
v -0.05460180 0.04093915 0.01616765
v -0.05549521 0.03935794 0.01149063
v -0.05547448 0.03932640 0.01032046
v -0.05645079 0.03898787 0.03720509
v -0.05586593 0.03992566 0.03720509
v -0.05542153 0.03924439 0.00798378
v -0.05537778 0.03916659 0.00681361
v -0.05573929 0.03858205 0.00681361
v -0.05619750 0.03778514 0.00681361
v -0.05665572 0.03694827 0.00681361
v -0.05684454 0.03847271 0.04096426
v -0.05656822 0.03893320 0.04096426
v -0.05774946 0.03499909 0.00798378
v -0.04201804 0.03499909 0.03773167
v -0.03514244 0.04043871 0.03676993
v -0.03705131 0.05479789 0.00586650
v -0.03866313 0.05401359 0.00564710
v -0.03941148 0.05365403 0.00564710
v -0.03999635 0.05333863 0.00564710
v -0.04169337 0.05245761 0.00592136
v -0.04178087 0.05250387 0.00681361
v -0.04236573 0.05216113 0.00681361
v -0.04328447 0.05157659 0.00681361
v -0.04534531 0.05024139 0.00798378
v -0.04386933 0.05118970 0.00681361
v -0.04593017 0.04980403 0.00798378
v -0.04596471 0.04982506 0.00915395
v -0.04608675 0.04991547 0.01499748
v -0.04972948 0.04768664 0.04071194
v -0.04744989 0.04890409 0.01775469
v -0.04960283 0.04778546 0.04096426
v -0.03632599 0.05523735 0.00681361
v -0.03514244 0.05571886 0.00670391
v -0.05419654 0.04152369 0.01616765
v -0.05450509 0.04079407 0.01032046
v -0.05495179 0.04012331 0.01032046
v -0.05547909 0.04051020 0.03720509
v -0.05443371 0.04186012 0.03252807
v -0.05590277 0.03996981 0.04096426
v -0.05447515 0.04075411 0.00915395
v -0.05445443 0.04072257 0.00845185
v -0.05411134 0.04118516 0.00803132
v -0.05479291 0.04002449 0.00681361
v -0.05469390 0.03989622 0.00564710
v -0.05533633 0.03889955 0.00556665
v -0.05567251 0.03847271 0.00590307
v -0.05694355 0.03636373 0.00681361
v -0.05593731 0.03788817 0.00556665
v -0.05655902 0.03677165 0.00564710
v -0.05685375 0.03618710 0.00564710
v -0.05760440 0.03499909 0.00681361
v -0.04152297 0.03499909 0.03744644
v -0.03514244 0.03986258 0.03645545
v -0.03643651 0.05500395 0.00554471
v -0.03689933 0.05472850 0.00508395
v -0.03746117 0.05455187 0.00554471
v -0.03928254 0.05358254 0.00500351
v -0.04155751 0.05237771 0.00514246
v -0.04110160 0.05272044 0.00557762
v -0.04211935 0.05213380 0.00557762
v -0.04316704 0.05149668 0.00564710
v -0.04526702 0.05017621 0.00681361
v -0.04585188 0.04974936 0.00681361
v -0.04375190 0.05110349 0.00564710
v -0.04658641 0.04916482 0.00681361
v -0.04665549 0.04921949 0.00798378
v -0.04669233 0.04924051 0.00915395
v -0.04860120 0.04772238 0.00970978
v -0.05030973 0.04710209 0.04071194
v -0.04986072 0.04756048 0.04096426
v -0.04972717 0.04768453 0.04096426
v -0.04975941 0.04654068 0.00915395
v -0.03514244 0.05560111 0.00595061
v -0.05361398 0.04231430 0.01616765
v -0.05359095 0.04229117 0.01499748
v -0.05346200 0.04212296 0.00798378
v -0.05454193 0.04201151 0.04071194
v -0.05398470 0.04246149 0.03252807
v -0.05502318 0.04129240 0.04096426
v -0.05340214 0.04203885 0.00681361
v -0.05428404 0.04048077 0.00564710
v -0.05413897 0.04027050 0.00447693
v -0.05454193 0.03968595 0.00447693
v -0.05560113 0.03834655 0.00512418
v -0.05680079 0.03606725 0.00500351
v -0.05742480 0.03499909 0.00564710
v -0.04047529 0.03499909 0.03682479
v -0.03514244 0.03886801 0.03585574
v -0.03514244 0.05555275 0.00564710
v -0.03610954 0.05488830 0.00447693
v -0.03669210 0.05463388 0.00447693
v -0.03749571 0.05426591 0.00447693
v -0.03514244 0.05554854 0.00562881
v -0.03864932 0.05374655 0.00455738
v -0.03903155 0.05346479 0.00422462
v -0.03973615 0.05321878 0.00455738
v -0.04081147 0.05262372 0.00447693
v -0.04217001 0.05184573 0.00447693
v -0.04298513 0.05137473 0.00447693
v -0.04517261 0.05011102 0.00593599
v -0.04560781 0.04971151 0.00558494
v -0.04646437 0.04905338 0.00564710
v -0.04461077 0.05046007 0.00558494
v -0.04356999 0.05096891 0.00447693
v -0.04506899 0.05003743 0.00515709
v -0.04716897 0.04867069 0.00681361
v -0.04793114 0.04814292 0.00798378
v -0.04704694 0.04856135 0.00564710
v -0.04851600 0.04764458 0.00798378
v -0.04914461 0.04706004 0.00798378
v -0.04972948 0.04651124 0.00798378
v -0.05089920 0.04650914 0.04096426
v -0.05088538 0.04532954 0.00915395
v -0.05050776 0.04609701 0.01850433
v -0.05314194 0.04287571 0.01499748
v -0.05341135 0.04321845 0.03252807
v -0.05301760 0.04270750 0.00798378
v -0.05454193 0.04201151 0.04096426
v -0.05397318 0.04276007 0.04096426
v -0.05409752 0.04259606 0.04071194
v -0.05363931 0.04137020 0.00565441
v -0.05243274 0.04346657 0.00798378
v -0.05295083 0.04262339 0.00681361
v -0.05224623 0.04322686 0.00564710
v -0.05289096 0.04237528 0.00565441
v -0.05322714 0.04181176 0.00527411
v -0.05355411 0.04108003 0.00447693
v -0.05445213 0.03955349 0.00387356
v -0.05549060 0.03816362 0.00447693
v -0.05581758 0.03757907 0.00447693
v -0.05569093 0.03733727 0.00370169
v -0.05687447 0.03503063 0.00365416
v -0.05697348 0.03543014 0.00456104
v -0.05718072 0.03499909 0.00456835
v -0.04009766 0.03499909 0.03657978
v -0.03514244 0.03829819 0.03549372
v -0.03515626 0.05526048 0.00447693
v -0.03585165 0.05478107 0.00380043
v -0.03814965 0.05367296 0.00360662
v -0.03825096 0.05364562 0.00366147
v -0.03514244 0.05526468 0.00447693
v -0.04058121 0.05249125 0.00370901
v -0.04283316 0.05127380 0.00380043
v -0.04634694 0.04895455 0.00487918
v -0.04434367 0.05038437 0.00447693
v -0.04785285 0.04808615 0.00681361
v -0.04771699 0.04797681 0.00564710
v -0.04843771 0.04756679 0.00681361
v -0.04964428 0.04643555 0.00681361
v -0.05021763 0.04585100 0.00681361
v -0.05080249 0.04522861 0.00681361
v -0.05027289 0.04592670 0.00798378
v -0.05197912 0.04524122 0.03954543
v -0.05199524 0.04525384 0.04071194
v -0.05186860 0.04540313 0.04096426
v -0.05104196 0.04551457 0.01850433
v -0.05085545 0.04529590 0.00798378
v -0.05138275 0.04471135 0.00798378
v -0.05141038 0.04474499 0.00915395
v -0.05252024 0.04356539 0.01266080
v -0.05346891 0.04329835 0.03720509
v -0.05306135 0.04393967 0.04071194
v -0.05296464 0.04381982 0.03369824
v -0.05306365 0.04394387 0.04096426
v -0.05351266 0.04335512 0.04071194
v -0.05196761 0.04405111 0.00798378
v -0.05236597 0.04336984 0.00681361
v -0.05199524 0.04407845 0.00915395
v -0.05178570 0.04381141 0.00564710
v -0.05215642 0.04311752 0.00493037
v -0.05094756 0.04422563 0.00387356
v -0.05340444 0.04087817 0.00363221
v -0.05339753 0.04086976 0.00360662
v -0.05411825 0.03982053 0.00360662
v -0.05437154 0.03942733 0.00360662
v -0.05454193 0.03915398 0.00360662
v -0.05567021 0.03729942 0.00360662
v -0.05686526 0.03501171 0.00360662
v -0.05688138 0.03499909 0.00363953
v -0.03913056 0.03499909 0.03592156
v -0.03514244 0.03778514 0.03513901
v -0.03514244 0.05526048 0.00446230
v -0.03549474 0.05482522 0.00360662
v -0.03604046 0.05460865 0.00360662
v -0.03752104 0.05395682 0.00360662
v -0.03823024 0.05363511 0.00360662
v -0.04039009 0.05254171 0.00360662
v -0.04053515 0.05246181 0.00360662
v -0.04250388 0.05134529 0.00360662
v -0.04273415 0.05121282 0.00360662
v -0.04303119 0.05101307 0.00360662
v -0.04411111 0.05022457 0.00360662
v -0.04573445 0.04929308 0.00448424
v -0.04616273 0.04880106 0.00410028
v -0.04756502 0.04784013 0.00476948
v -0.04492853 0.04992809 0.00447693
v -0.04830186 0.04744273 0.00564710
v -0.04891896 0.04685818 0.00564710
v -0.04950152 0.04629887 0.00564710
v -0.05010480 0.04571643 0.00564710
v -0.05068966 0.04511086 0.00564710
v -0.05130216 0.04464406 0.00681361
v -0.05120084 0.04452632 0.00564710
v -0.05247649 0.04466930 0.04071194
v -0.05205050 0.04414994 0.01266080
v -0.05247879 0.04466930 0.04096426
v -0.05210116 0.04512768 0.04096426
v -0.05188702 0.04395439 0.00681361
v -0.05105348 0.04434338 0.00447693
v -0.04875777 0.04670679 0.00472559
v -0.04738312 0.04767612 0.00399058
v -0.04726568 0.04756679 0.00360662
v -0.04846995 0.04641662 0.00360662
v -0.05085084 0.04412260 0.00360662
v -0.05106959 0.04384925 0.00360662
v -0.05686987 0.03499909 0.00360662
v -0.03835228 0.03499909 0.03536208
v -0.03514244 0.03692304 0.03450639
v -0.03514244 0.05520160 0.00430506
v -0.03514244 0.05493877 0.00360662
v -0.04543971 0.04914169 0.00360662
v -0.04601306 0.04867069 0.00360662
v -0.05340214 0.03499909 0.00360662
v -0.03778354 0.03499909 0.03493789
v -0.03690164 0.03499909 0.03427967
v -0.03514244 0.03634691 0.03399078
v -0.03514244 0.05175111 0.00360662
v -0.05278274 0.03548481 0.00360662
v -0.04568609 0.03499909 0.00821782
v -0.03674967 0.03499909 0.03414803
v -0.03515626 0.03632588 0.03398347
v -0.03514244 0.03633219 0.03397616
v -0.04449334 0.03499909 0.00901865
v -0.04500912 0.03499909 0.00863835
v -0.04521406 0.03499909 0.00850670
v -0.03514244 0.04217552 0.01117615
v -0.04311638 0.03499909 0.01006449
v -0.04372197 0.03499909 0.00959276
v -0.03567665 0.03499909 0.03313875
v -0.03514244 0.03575605 0.03340204
v -0.03514244 0.04140805 0.01182705
v -0.04242330 0.03499909 0.01067517
v -0.03539573 0.03499909 0.03285718
v -0.03514244 0.03503904 0.03264143
v -0.03514244 0.04029153 0.01281804
v -0.04187758 0.03499909 0.01119077
v -0.03529211 0.03499909 0.03275114
v -0.03514244 0.03499909 0.03259755
v -0.03514244 0.03929065 0.01377246
v -0.04128120 0.03499909 0.01176489
v -0.03514244 0.03499909 0.01919546
v -0.04011608 0.03499909 0.01293871
v -0.04069173 0.03499909 0.01235363
v -0.03514244 0.03903833 0.01402478
v -0.03540955 0.03499909 0.01869448
v -0.03514244 0.03537126 0.01845679
v -0.03953352 0.03499909 0.01354574
v -0.03514244 0.03812367 0.01495360
v -0.03576645 0.03499909 0.01811671
v -0.03514244 0.03538808 0.01842754
v -0.03514244 0.03793653 0.01514741
v -0.03898320 0.03499909 0.01413814
v -0.03588849 0.03499909 0.01794850
v -0.03514244 0.03612402 0.01733416
v -0.03788024 0.03499909 0.01537779
v -0.03841445 0.03499909 0.01477442
v -0.03514244 0.03704289 0.01616034
v -0.03633980 0.03499909 0.01733416
v -0.03682795 0.03499909 0.01667228
v -0.03514244 0.03683893 0.01640900
v -0.03731841 0.03499909 0.01606160
f 1 2 5
f 1 5 21
f 1 21 29
f 1 29 34
f 1 34 33
f 1 33 32
f 1 32 46
f 1 46 45
f 1 45 59
f 1 59 58
f 1 58 61
f 1 61 83
f 1 83 117
f 1 117 116
f 1 116 134
f 1 134 133
f 1 133 132
f 1 132 131
f 1 131 171
f 1 171 211
f 1 211 210
f 1 210 252
f 1 252 295
f 1 295 347
f 1 347 346
f 1 346 304
f 1 304 259
f 1 259 258
f 1 258 219
f 1 219 179
f 1 179 152
f 1 152 151
f 1 151 140
f 1 140 97
f 1 97 96
f 1 96 67
f 1 67 51
f 1 51 37
f 1 37 25
f 1 25 8
f 1 8 3
f 1 3 19
f 1 19 27
f 1 27 41
f 1 41 40
f 1 40 55
f 1 55 74
f 1 74 112
f 1 112 155
f 1 155 193
f 1 193 228
f 1 228 276
f 1 276 321
f 1 321 358
f 1 358 366
f 1 366 372
f 1 372 380
f 1 380 384
f 1 384 388
f 1 388 391
f 1 391 396
f 1 396 400
f 1 400 404
f 1 404 410
f 1 410 407
f 1 407 401
f 1 401 398
f 1 398 394
f 1 394 389
f 1 389 385
f 1 385 381
f 1 381 376
f 1 376 367
f 1 367 360
f 1 360 359
f 1 359 322
f 1 322 281
f 1 281 233
f 1 233 229
f 1 229 213
f 1 213 173
f 1 173 136
f 1 136 92
f 1 92 63
f 1 63 48
f 1 48 35
f 1 35 28
f 1 28 20
f 1 20 4
f 1 4 6
f 1 6 2
f 2 6 7
f 2 7 5
f 3 8 9
f 3 9 10
f 3 10 11
f 3 11 12
f 3 12 13
f 3 13 14
f 3 14 15
f 3 15 16
f 3 16 17
f 3 17 18
f 3 18 19
f 4 20 6
f 5 7 22
f 5 22 21
f 6 20 28
f 6 28 23
f 6 23 24
f 6 24 7
f 7 24 22
f 8 25 38
f 8 38 53
f 8 53 72
f 8 72 110
f 8 110 153
f 8 153 191
f 8 191 226
f 8 226 274
f 8 274 319
f 8 319 356
f 8 356 363
f 8 363 369
f 8 369 375
f 8 375 374
f 8 374 373
f 8 373 378
f 8 378 377
f 8 377 382
f 8 382 386
f 8 386 390
f 8 390 393
f 8 393 392
f 8 392 397
f 8 397 402
f 8 402 406
f 8 406 405
f 8 405 411
f 8 411 409
f 8 409 408
f 8 408 403
f 8 403 399
f 8 399 395
f 8 395 391
f 8 391 388
f 8 388 387
f 8 387 383
f 8 383 379
f 8 379 370
f 8 370 365
f 8 365 364
f 8 364 357
f 8 357 320
f 8 320 275
f 8 275 227
f 8 227 192
f 8 192 154
f 8 154 111
f 8 111 73
f 8 73 54
f 8 54 39
f 8 39 26
f 8 26 18
f 8 18 17
f 8 17 16
f 8 16 15
f 8 15 14
f 8 14 13
f 8 13 12
f 8 12 11
f 8 11 10
f 8 10 9
f 18 26 27
f 18 27 19
f 21 22 29
f 22 24 30
f 22 30 31
f 22 31 32
f 22 32 33
f 22 33 34
f 22 34 29
f 23 28 35
f 23 35 36
f 23 36 24
f 24 36 30
f 25 37 38
f 26 39 40
f 26 40 41
f 26 41 27
f 30 36 42
f 30 42 43
f 30 43 31
f 31 44 45
f 31 45 46
f 31 46 32
f 31 43 47
f 31 47 44
f 35 48 36
f 36 48 49
f 36 49 50
f 36 50 42
f 37 51 52
f 37 52 38
f 38 52 53
f 39 54 55
f 39 55 40
f 42 50 56
f 42 56 43
f 43 57 47
f 43 56 57
f 44 58 59
f 44 59 45
f 44 47 58
f 47 60 61
f 47 61 58
f 47 57 62
f 47 62 60
f 48 63 50
f 48 50 49
f 50 63 64
f 50 64 65
f 50 65 66
f 50 66 56
f 51 67 52
f 52 67 68
f 52 68 53
f 53 68 69
f 53 69 70
f 53 70 71
f 53 71 72
f 54 73 74
f 54 74 55
f 56 66 75
f 56 75 76
f 56 76 77
f 56 77 78
f 56 78 79
f 56 79 57
f 57 79 62
f 60 80 81
f 60 81 82
f 60 82 61
f 60 62 80
f 61 82 81
f 61 81 83
f 62 79 84
f 62 84 77
f 62 77 85
f 62 85 86
f 62 86 87
f 62 87 88
f 62 88 89
f 62 89 90
f 62 90 80
f 63 91 64
f 63 92 91
f 64 91 65
f 65 91 93
f 65 93 94
f 65 94 95
f 65 95 75
f 65 75 66
f 67 96 68
f 68 96 97
f 68 97 98
f 68 98 69
f 69 99 100
f 69 100 101
f 69 101 102
f 69 102 103
f 69 103 104
f 69 104 71
f 69 71 70
f 69 98 105
f 69 105 106
f 69 106 107
f 69 107 99
f 71 104 108
f 71 108 109
f 71 109 110
f 71 110 72
f 73 111 112
f 73 112 74
f 75 95 76
f 76 94 113
f 76 113 114
f 76 114 115
f 76 115 77
f 76 95 94
f 77 84 78
f 77 115 85
f 78 84 79
f 80 90 81
f 81 90 116
f 81 116 117
f 81 117 83
f 85 115 114
f 85 114 118
f 85 118 119
f 85 119 86
f 86 88 87
f 86 119 120
f 86 120 121
f 86 121 88
f 88 122 123
f 88 123 89
f 88 121 124
f 88 124 122
f 89 123 125
f 89 125 126
f 89 126 90
f 90 127 128
f 90 128 129
f 90 129 130
f 90 130 131
f 90 131 132
f 90 132 133
f 90 133 134
f 90 134 116
f 90 126 127
f 91 92 135
f 91 135 93
f 92 136 137
f 92 137 135
f 93 135 138
f 93 138 139
f 93 139 94
f 94 139 113
f 97 140 98
f 98 140 105
f 99 141 142
f 99 142 143
f 99 143 100
f 99 107 144
f 99 144 145
f 99 145 141
f 100 143 146
f 100 146 101
f 101 146 147
f 101 147 148
f 101 148 149
f 101 149 102
f 102 149 150
f 102 150 103
f 103 150 108
f 103 108 104
f 105 140 106
f 106 140 151
f 106 151 152
f 106 152 144
f 106 144 107
f 108 150 109
f 109 150 153
f 109 153 110
f 111 154 155
f 111 155 112
f 113 139 156
f 113 156 157
f 113 157 158
f 113 158 114
f 114 119 118
f 114 158 159
f 114 159 160
f 114 160 161
f 114 161 119
f 119 161 162
f 119 162 120
f 120 162 163
f 120 163 124
f 120 124 121
f 122 125 123
f 122 124 164
f 122 164 125
f 124 163 165
f 124 165 164
f 125 164 166
f 125 166 167
f 125 167 168
f 125 168 126
f 126 168 127
f 127 169 128
f 127 168 170
f 127 170 169
f 128 169 129
f 129 169 130
f 130 169 131
f 131 169 171
f 135 137 172
f 135 172 138
f 136 172 137
f 136 173 172
f 138 172 156
f 138 156 139
f 141 174 175
f 141 175 176
f 141 176 142
f 141 145 177
f 141 177 178
f 141 178 174
f 142 176 143
f 143 176 146
f 144 152 145
f 145 152 179
f 145 179 177
f 146 176 180
f 146 180 181
f 146 181 182
f 146 182 147
f 147 182 183
f 147 183 184
f 147 184 185
f 147 185 186
f 147 186 148
f 148 186 149
f 149 186 150
f 150 187 153
f 150 186 188
f 150 188 189
f 150 189 190
f 150 190 187
f 153 187 191
f 154 192 193
f 154 193 155
f 156 173 194
f 156 194 195
f 156 195 196
f 156 196 157
f 156 172 173
f 157 196 195
f 157 195 197
f 157 197 158
f 158 197 159
f 159 197 198
f 159 198 199
f 159 199 160
f 160 199 198
f 160 198 200
f 160 200 201
f 160 201 162
f 160 162 161
f 162 201 163
f 163 201 165
f 164 165 202
f 164 202 203
f 164 203 166
f 165 201 204
f 165 204 202
f 166 203 205
f 166 205 206
f 166 206 207
f 166 207 167
f 167 207 168
f 168 207 208
f 168 208 170
f 169 209 210
f 169 210 211
f 169 211 171
f 169 170 208
f 169 208 212
f 169 212 209
f 173 213 194
f 174 214 215
f 174 215 216
f 174 216 175
f 174 178 214
f 175 180 176
f 175 216 180
f 177 179 217
f 177 217 178
f 178 217 218
f 178 218 214
f 179 219 217
f 180 216 182
f 180 182 181
f 182 216 183
f 183 216 220
f 183 220 184
f 184 221 222
f 184 222 223
f 184 223 224
f 184 224 185
f 184 220 221
f 185 224 186
f 186 224 188
f 187 190 191
f 188 224 189
f 189 224 225
f 189 225 190
f 190 226 191
f 190 225 226
f 192 227 193
f 193 227 228
f 194 213 229
f 194 229 195
f 195 230 231
f 195 231 232
f 195 232 197
f 195 229 233
f 195 233 230
f 197 232 234
f 197 234 235
f 197 235 236
f 197 236 237
f 197 237 198
f 198 237 238
f 198 238 239
f 198 239 200
f 200 239 201
f 201 239 204
f 202 204 240
f 202 240 203
f 203 240 241
f 203 241 242
f 203 242 205
f 204 243 240
f 204 239 244
f 204 244 245
f 204 245 243
f 205 246 247
f 205 247 206
f 205 242 248
f 205 248 246
f 206 247 208
f 206 208 207
f 208 247 249
f 208 249 250
f 208 250 251
f 208 251 212
f 209 252 210
f 209 212 252
f 212 251 253
f 212 253 254
f 212 254 252
f 214 255 215
f 214 218 256
f 214 256 255
f 215 255 257
f 215 257 216
f 216 257 220
f 217 219 258
f 217 258 259
f 217 259 260
f 217 260 256
f 217 256 218
f 220 261 221
f 220 257 262
f 220 262 263
f 220 263 264
f 220 264 265
f 220 265 266
f 220 266 261
f 221 261 266
f 221 266 267
f 221 267 222
f 222 267 268
f 222 268 223
f 223 268 224
f 224 268 269
f 224 269 270
f 224 270 225
f 225 270 271
f 225 271 272
f 225 272 273
f 225 273 274
f 225 274 226
f 227 275 276
f 227 276 228
f 230 277 278
f 230 278 231
f 230 233 277
f 231 278 279
f 231 279 280
f 231 280 232
f 232 280 235
f 232 235 234
f 233 281 277
f 235 280 282
f 235 282 236
f 236 282 237
f 237 282 283
f 237 283 238
f 238 283 239
f 239 283 244
f 240 243 245
f 240 245 241
f 241 245 242
f 242 245 284
f 242 284 248
f 244 285 245
f 244 283 285
f 245 285 284
f 246 286 249
f 246 249 247
f 246 248 286
f 248 287 286
f 248 284 287
f 249 286 288
f 249 288 250
f 250 288 289
f 250 289 251
f 251 289 290
f 251 290 291
f 251 291 292
f 251 292 253
f 252 293 294
f 252 294 295
f 252 254 296
f 252 296 293
f 253 292 297
f 253 297 298
f 253 298 299
f 253 299 296
f 253 296 254
f 255 300 262
f 255 262 257
f 255 256 300
f 256 260 301
f 256 301 302
f 256 302 303
f 256 303 300
f 259 304 260
f 260 304 305
f 260 305 301
f 262 306 307
f 262 307 263
f 262 300 308
f 262 308 306
f 263 307 264
f 264 307 309
f 264 309 310
f 264 310 266
f 264 266 265
f 266 310 267
f 267 311 312
f 267 312 268
f 267 310 311
f 268 271 269
f 268 312 313
f 268 313 314
f 268 314 315
f 268 315 316
f 268 316 317
f 268 317 271
f 269 271 270
f 271 317 318
f 271 318 272
f 272 274 273
f 272 318 319
f 272 319 274
f 275 320 321
f 275 321 276
f 277 281 322
f 277 322 278
f 278 322 323
f 278 323 324
f 278 324 325
f 278 325 279
f 279 325 324
f 279 324 323
f 279 323 360
f 279 360 367
f 279 367 368
f 279 368 363
f 279 363 356
f 279 356 318
f 279 318 317
f 279 317 316
f 279 316 315
f 279 315 314
f 279 314 313
f 279 313 355
f 279 355 354
f 279 354 353
f 279 353 352
f 279 352 362
f 279 362 361
f 279 361 332
f 279 332 331
f 279 331 330
f 279 330 329
f 279 329 328
f 279 328 327
f 279 327 326
f 279 326 280
f 280 326 282
f 282 326 327
f 282 327 328
f 282 328 283
f 283 328 329
f 283 329 330
f 283 330 331
f 283 331 332
f 283 332 285
f 284 333 334
f 284 334 335
f 284 335 287
f 284 285 336
f 284 336 333
f 285 332 336
f 286 287 288
f 287 337 288
f 287 335 337
f 288 337 289
f 289 337 338
f 289 338 339
f 289 339 340
f 289 340 290
f 290 340 341
f 290 341 291
f 291 342 306
f 291 306 298
f 291 298 297
f 291 297 292
f 291 341 343
f 291 343 342
f 293 303 344
f 293 344 294
f 293 296 299
f 293 299 345
f 293 345 303
f 294 344 346
f 294 346 347
f 294 347 295
f 298 306 299
f 299 306 308
f 299 308 345
f 300 345 308
f 300 303 345
f 301 305 302
f 302 305 304
f 302 304 344
f 302 344 303
f 304 346 344
f 306 342 348
f 306 348 307
f 307 348 343
f 307 343 309
f 309 343 349
f 309 349 310
f 310 349 311
f 311 349 340
f 311 340 350
f 311 350 351
f 311 351 352
f 311 352 353
f 311 353 354
f 311 354 355
f 311 355 313
f 311 313 312
f 318 356 319
f 320 357 358
f 320 358 321
f 322 359 323
f 323 359 360
f 332 361 334
f 332 334 336
f 333 336 334
f 334 351 335
f 334 361 362
f 334 362 351
f 335 351 350
f 335 350 337
f 337 350 338
f 338 350 339
f 339 350 340
f 340 349 341
f 341 349 343
f 342 343 348
f 351 362 352
f 357 364 358
f 358 365 366
f 358 364 365
f 363 368 369
f 365 370 366
f 366 370 371
f 366 371 372
f 367 373 374
f 367 374 375
f 367 375 369
f 367 369 368
f 367 376 377
f 367 377 378
f 367 378 373
f 370 379 380
f 370 380 371
f 371 380 372
f 376 381 382
f 376 382 377
f 379 383 380
f 380 383 384
f 381 385 382
f 382 385 386
f 383 387 384
f 384 387 388
f 385 389 390
f 385 390 386
f 389 392 393
f 389 393 390
f 389 394 392
f 391 395 396
f 392 394 397
f 394 398 397
f 395 399 396
f 396 399 400
f 397 398 401
f 397 401 402
f 399 403 404
f 399 404 400
f 401 405 406
f 401 406 402
f 401 407 405
f 403 408 404
f 404 408 409
f 404 409 410
f 405 407 410
f 405 410 411
f 409 411 410

