# https://github.com/mikedh/trimesh
v 0.01927863 -0.00687149 0.07929237
v 0.01920045 -0.00687149 0.07952380
v 0.01913313 -0.00711514 0.07929237
v 0.01815592 -0.00856961 0.07849696
v 0.01840131 -0.00780889 0.07826492
v 0.01869882 -0.00687149 0.07798634
v 0.01862715 -0.00687149 0.08033224
v 0.01828187 -0.00780889 0.08010764
v 0.01804734 -0.00841151 0.07989172
v 0.01673571 -0.01057089 0.07953931
v 0.01687904 -0.01074759 0.07875941
v 0.01687904 -0.01074759 0.07868496
v 0.01706796 -0.01014683 0.07845788
v 0.01745233 -0.00895833 0.07805769
v 0.01854898 -0.00687149 0.07787032
v 0.01776721 -0.00780889 0.07768108
v 0.01847732 -0.00687149 0.08043523
v 0.01700282 -0.00979158 0.08003070
v 0.01456414 -0.01312272 0.07991530
v 0.01422754 -0.01388158 0.07929237
v 0.01468140 -0.01331987 0.07847773
v 0.01392787 -0.01364722 0.07806079
v 0.01315913 -0.01397643 0.07764385
v 0.01660976 -0.00934706 0.07761904
v 0.01700499 -0.00856775 0.07749371
v 0.01792791 -0.00716722 0.07754893
v 0.01321776 -0.00687149 0.07478858
v 0.01767383 -0.00687149 0.08091856
v 0.01739153 -0.00778285 0.08073491
v 0.01631877 -0.01016729 0.08030804
v 0.01389312 -0.01356911 0.08012997
v 0.01346966 -0.01434842 0.07996866
v 0.01232959 -0.01555923 0.08001581
v 0.01364339 -0.01449907 0.07929237
v 0.01362602 -0.01447675 0.07842251
v 0.01209288 -0.01528024 0.07760291
v 0.01224707 -0.00826644 0.07478858
v 0.01011458 -0.00687149 0.07478858
v 0.01750011 -0.00687149 0.08099859
v 0.01662496 -0.00815484 0.08099921
v 0.01625362 -0.00898437 0.08086272
v 0.01384752 -0.01240293 0.08068713
v 0.01274002 -0.01477248 0.08020442
v 0.01156302 -0.01596656 0.08023048
v 0.01114608 -0.01669380 0.07998789
v 0.01068788 -0.01745079 0.07929237
v 0.01129157 -0.01686491 0.07929237
v 0.01012761 -0.01801435 0.07833503
v 0.00980187 -0.01770746 0.07755637
v 0.01210809 -0.00844499 0.07478858
v 0.00999297 -0.01088336 0.07478858
v 0.01057713 -0.01022681 0.07478858
v 0.01154782 -0.00910899 0.07478858
v 0.01018190 -0.00687149 0.07547789
v -0.00290401 -0.01772792 0.07478858
v -0.00290401 -0.01773350 0.07578563
v -0.00290401 -0.01780232 0.07695454
v 0.01709837 -0.00687149 0.08108049
v 0.01696373 -0.00737553 0.08106932
v 0.01339583 -0.01195654 0.08105878
v 0.01300278 -0.01273585 0.08094772
v 0.01156519 -0.01480596 0.08081990
v 0.00922206 -0.01713460 0.08074731
v 0.00926549 -0.01806829 0.08015355
v 0.00867266 -0.01890526 0.07986194
v 0.00928504 -0.01863371 0.07940033
v 0.01010155 -0.01798459 0.07929237
v 0.00890718 -0.01905405 0.07908266
v 0.00890718 -0.01905405 0.07848890
v 0.00702877 -0.01382392 0.07478858
v 0.00768459 -0.01323990 0.07478858
v 0.00818188 -0.01276004 0.07478858
v 0.00887027 -0.01209232 0.07478858
v 0.00953694 -0.01138182 0.07478858
v 0.00543701 -0.02141989 0.07846346
v 0.00279203 -0.02237031 0.07756258
v 0.00177790 -0.01781534 0.07478858
v 0.00236206 -0.01741359 0.07478858
v 0.00248150 -0.01732617 0.07478858
v 0.00316554 -0.01682213 0.07478858
v 0.00644462 -0.01431308 0.07478858
v 0.01021447 -0.00687149 0.07578563
v -0.00290401 -0.02024813 0.07478858
v -0.00290401 -0.01823382 0.07816875
v 0.01087898 -0.00687149 0.07801364
v 0.01043380 -0.00687149 0.07694586
v 0.01697676 -0.00687149 0.08108545
v 0.01267704 -0.01240293 0.08108111
v 0.01115042 -0.01440422 0.08107801
v 0.01065747 -0.01518353 0.08099487
v 0.00880295 -0.01672913 0.08107677
v 0.00809936 -0.01746381 0.08098494
v 0.00283763 -0.02125063 0.08104575
v 0.00820794 -0.01844027 0.08044330
v 0.00789523 -0.01916379 0.08012253
v 0.00523288 -0.02128225 0.07991282
v 0.00541529 -0.02140129 0.07929237
v 0.00406240 -0.02245215 0.07882270
v 0.00406240 -0.02245215 0.07865332
v 0.00342396 -0.02262884 0.07839211
v 0.00132187 -0.02338583 0.07777725
v 0.00054228 -0.02360717 0.07752597
v 0.00201244 -0.02260652 0.07744593
v 0.00107214 -0.01822266 0.07478858
v -0.00290401 -0.02487192 0.07748626
v -0.00277372 -0.02018861 0.07478858
v -0.00189423 -0.02472313 0.07755203
v -0.00267382 -0.02483845 0.07749805
v -0.00290401 -0.01844585 0.07851744
v 0.01112219 -0.00687149 0.07845850
v 0.01093109 -0.00687149 0.07812346
v 0.01627534 -0.00687149 0.08109724
v 0.01160428 -0.01248476 0.08109972
v 0.00809936 -0.01687979 0.08108732
v 0.00237074 -0.02078379 0.08110531
v 0.00205804 -0.02136781 0.08107491
v -0.00132093 -0.02299525 0.08110159
v -0.00175525 -0.02362205 0.08105878
v -0.00097565 -0.02337654 0.08098742
v 0.00001893 -0.02299525 0.08089684
v -0.00008313 -0.02398473 0.08027702
v 0.00080070 -0.02375968 0.08007909
v 0.00225348 -0.02275532 0.08020566
v 0.00306999 -0.02253956 0.08002077
v 0.00344567 -0.02188487 0.08032541
v 0.00384959 -0.02230521 0.07960259
v 0.00344567 -0.02265860 0.07924460
v 0.00180831 -0.02366482 0.07894741
v 0.00180831 -0.02366482 0.07855591
v 0.00099397 -0.02380432 0.07814890
v -0.00054785 -0.02481798 0.07857762
v -0.00125361 -0.02497422 0.07832758
v -0.00125361 -0.02457619 0.07774375
v -0.00039367 -0.01905591 0.07478858
v -0.00290401 -0.02540386 0.07804404
v -0.00290401 -0.02582421 0.07860368
v -0.00290401 -0.01872484 0.07891390
v 0.01149136 -0.00687149 0.07894306
v 0.01606904 -0.00687149 0.08109600
v 0.00108517 -0.02066661 0.08112702
v -0.00242192 -0.02300455 0.08111896
v -0.00242192 -0.02368715 0.08107305
v -0.00290401 -0.02397544 0.08102279
v -0.00290401 -0.02431766 0.08086644
v -0.00242192 -0.02427116 0.08080687
v -0.00124710 -0.02417259 0.08051713
v -0.00242192 -0.02509697 0.08022242
v -0.00152072 -0.02489796 0.08004621
v -0.00074112 -0.02472499 0.07974840
v 0.00157812 -0.02352719 0.07972730
v 0.00114815 -0.02389546 0.07931905
v -0.00012874 -0.02453156 0.07933208
v -0.00054785 -0.02481798 0.07896912
v -0.00290401 -0.02587257 0.07882208
v -0.00290401 -0.01889410 0.07911306
v 0.01220146 -0.00687149 0.07966402
v 0.01155216 -0.00687149 0.07901379
v 0.01551529 -0.00687149 0.08106436
v -0.00290401 -0.02225128 0.08107615
v -0.00290401 -0.02248377 0.08108918
v -0.00242192 -0.02213782 0.08109166
v -0.00290401 -0.02299711 0.08110531
v -0.00290401 -0.02333376 0.08110283
v -0.00290401 -0.02373364 0.08107615
v -0.00290401 -0.02474731 0.08060399
v -0.00290401 -0.02522903 0.08026275
v -0.00290401 -0.02557312 0.07977260
v -0.00290401 -0.02575725 0.07937055
v -0.00117978 -0.02501514 0.07933208
v -0.00290401 -0.01950787 0.07976081
v 0.01268355 -0.00687149 0.08002574
v 0.01538499 -0.00687149 0.08104637
v -0.00290401 -0.02201879 0.08103272
v -0.00290401 -0.01985010 0.08006048
v 0.01290723 -0.00687149 0.08016968
v 0.01482255 -0.00687149 0.08092476
v -0.00290401 -0.02169330 0.08095144
v -0.00290401 -0.02013839 0.08023483
v 0.01366728 -0.00687149 0.08053884
v 0.01395610 -0.00687149 0.08065425
v -0.00290401 -0.02117066 0.08075042
v -0.00290401 -0.02066661 0.08054132
f 1 2 3
f 1 3 4
f 1 4 5
f 1 5 6
f 1 6 15
f 1 15 27
f 1 27 38
f 1 38 54
f 1 54 82
f 1 82 86
f 1 86 85
f 1 85 111
f 1 111 110
f 1 110 138
f 1 138 157
f 1 157 156
f 1 156 171
f 1 171 175
f 1 175 179
f 1 179 180
f 1 180 176
f 1 176 172
f 1 172 158
f 1 158 139
f 1 139 112
f 1 112 87
f 1 87 58
f 1 58 39
f 1 39 28
f 1 28 17
f 1 17 7
f 1 7 2
f 2 7 8
f 2 8 9
f 2 9 3
f 3 9 10
f 3 10 11
f 3 11 12
f 3 12 4
f 4 12 13
f 4 13 14
f 4 14 5
f 5 14 6
f 6 14 16
f 6 16 15
f 7 17 18
f 7 18 8
f 8 18 9
f 9 18 10
f 10 18 19
f 10 19 20
f 10 20 11
f 11 20 12
f 12 20 21
f 12 21 13
f 13 21 22
f 13 22 23
f 13 23 24
f 13 24 14
f 14 24 25
f 14 25 16
f 15 16 26
f 15 26 27
f 16 25 26
f 17 28 29
f 17 29 18
f 18 29 30
f 18 30 19
f 19 30 31
f 19 31 32
f 19 32 20
f 20 32 33
f 20 33 34
f 20 34 35
f 20 35 21
f 21 35 36
f 21 36 22
f 22 36 23
f 23 36 25
f 23 25 24
f 25 36 37
f 25 37 27
f 25 27 26
f 27 37 50
f 27 50 53
f 27 53 52
f 27 52 51
f 27 51 74
f 27 74 73
f 27 73 72
f 27 72 71
f 27 71 70
f 27 70 81
f 27 81 80
f 27 80 79
f 27 79 78
f 27 78 77
f 27 77 104
f 27 104 134
f 27 134 106
f 27 106 83
f 27 83 55
f 27 55 38
f 28 39 40
f 28 40 29
f 29 40 41
f 29 41 30
f 30 41 42
f 30 42 31
f 31 42 43
f 31 43 32
f 32 43 33
f 33 43 44
f 33 44 45
f 33 45 46
f 33 46 47
f 33 47 34
f 34 47 48
f 34 48 35
f 35 48 49
f 35 49 36
f 36 50 37
f 36 49 51
f 36 51 52
f 36 52 53
f 36 53 50
f 38 55 56
f 38 56 57
f 38 57 54
f 39 58 59
f 39 59 40
f 40 59 60
f 40 60 41
f 41 60 42
f 42 60 61
f 42 61 62
f 42 62 43
f 43 62 44
f 44 62 63
f 44 63 64
f 44 64 45
f 45 64 65
f 45 65 66
f 45 66 67
f 45 67 46
f 46 67 48
f 46 48 47
f 48 67 68
f 48 68 69
f 48 69 49
f 49 70 71
f 49 71 72
f 49 72 73
f 49 73 74
f 49 74 51
f 49 69 75
f 49 75 76
f 49 76 77
f 49 77 78
f 49 78 79
f 49 79 80
f 49 80 81
f 49 81 70
f 54 57 82
f 55 83 105
f 55 105 135
f 55 135 136
f 55 136 154
f 55 154 168
f 55 168 167
f 55 167 166
f 55 166 165
f 55 165 144
f 55 144 143
f 55 143 164
f 55 164 163
f 55 163 162
f 55 162 160
f 55 160 159
f 55 159 173
f 55 173 177
f 55 177 181
f 55 181 182
f 55 182 178
f 55 178 174
f 55 174 170
f 55 170 155
f 55 155 137
f 55 137 109
f 55 109 84
f 55 84 57
f 55 57 56
f 57 84 85
f 57 85 86
f 57 86 82
f 58 87 88
f 58 88 59
f 59 88 89
f 59 89 60
f 60 89 62
f 60 62 61
f 62 89 90
f 62 90 91
f 62 91 63
f 63 91 92
f 63 92 93
f 63 93 94
f 63 94 64
f 64 94 95
f 64 95 65
f 65 68 66
f 65 95 96
f 65 96 68
f 66 68 67
f 68 96 97
f 68 97 98
f 68 98 99
f 68 99 69
f 69 99 75
f 75 99 76
f 76 99 100
f 76 100 101
f 76 101 102
f 76 102 103
f 76 103 77
f 77 103 102
f 77 102 104
f 83 106 102
f 83 102 107
f 83 107 108
f 83 108 105
f 84 109 110
f 84 110 111
f 84 111 85
f 87 112 113
f 87 113 88
f 88 113 89
f 89 114 91
f 89 91 90
f 89 113 114
f 91 114 115
f 91 115 93
f 91 93 92
f 93 115 116
f 93 116 117
f 93 117 118
f 93 118 119
f 93 119 120
f 93 120 121
f 93 121 122
f 93 122 123
f 93 123 124
f 93 124 125
f 93 125 96
f 93 96 95
f 93 95 94
f 96 125 124
f 96 124 126
f 96 126 97
f 97 126 98
f 98 126 127
f 98 127 128
f 98 128 129
f 98 129 99
f 99 129 101
f 99 101 100
f 101 129 130
f 101 130 102
f 102 130 131
f 102 131 132
f 102 132 133
f 102 133 107
f 102 106 134
f 102 134 104
f 105 108 135
f 107 136 135
f 107 135 108
f 107 133 132
f 107 132 136
f 109 137 138
f 109 138 110
f 112 139 140
f 112 140 113
f 113 140 114
f 114 140 115
f 115 140 141
f 115 141 117
f 115 117 116
f 117 141 142
f 117 142 118
f 118 142 143
f 118 143 144
f 118 144 145
f 118 145 146
f 118 146 119
f 119 146 121
f 119 121 120
f 121 146 147
f 121 147 148
f 121 148 122
f 122 148 149
f 122 149 150
f 122 150 124
f 122 124 123
f 124 150 126
f 126 150 127
f 127 150 128
f 128 150 151
f 128 151 152
f 128 152 153
f 128 153 131
f 128 131 129
f 129 131 130
f 131 153 154
f 131 154 136
f 131 136 132
f 137 155 156
f 137 156 157
f 137 157 138
f 139 158 159
f 139 159 160
f 139 160 161
f 139 161 141
f 139 141 140
f 141 161 160
f 141 160 162
f 141 162 163
f 141 163 164
f 141 164 142
f 142 164 143
f 144 165 145
f 145 165 147
f 145 147 146
f 147 165 166
f 147 166 167
f 147 167 148
f 148 167 149
f 149 167 168
f 149 168 169
f 149 169 153
f 149 153 152
f 149 152 151
f 149 151 150
f 153 169 168
f 153 168 154
f 155 170 156
f 156 170 171
f 158 172 159
f 159 172 173
f 170 174 171
f 171 174 175
f 172 176 177
f 172 177 173
f 174 178 175
f 175 178 179
f 176 180 177
f 177 180 181
f 178 182 179
f 179 182 180
f 180 182 181

