# https://github.com/mikedh/trimesh
v -0.06206491 0.01224666 0.04600500
v -0.05957127 0.01224666 0.04600500
v -0.06207046 0.01224666 0.04656074
v -0.06215137 0.01323499 0.04600500
v -0.05795923 0.02971520 0.04600500
v -0.05795876 0.02971520 0.04603701
v -0.05780205 0.02971520 0.06409412
v -0.05953059 0.01224666 0.05105611
v -0.06207508 0.01224666 0.04773041
v -0.06224614 0.01323499 0.07572970
v -0.06234276 0.01557245 0.04773041
v -0.06233721 0.01557245 0.04656074
v -0.06233259 0.01557245 0.04600500
v -0.06058833 0.02971520 0.04600500
v -0.05774565 0.02971520 0.07227597
v -0.05948343 0.01224666 0.05806829
v -0.06209912 0.01224666 0.07572970
v -0.06224105 0.01317857 0.07572970
v -0.06224197 0.01318712 0.07572970
v -0.06229606 0.01434815 0.07572970
v -0.06237188 0.01674204 0.04773041
v -0.06246850 0.01907950 0.07572970
v -0.06233952 0.01618802 0.04600500
v -0.06062300 0.02959892 0.04600500
v -0.06061098 0.02971520 0.04656074
v -0.05776830 0.02971520 0.07344564
v -0.05945107 0.01224666 0.07461531
v -0.05941316 0.01224666 0.07110922
v -0.05943165 0.01224666 0.06625015
v -0.05947418 0.01224666 0.07572970
v -0.06231363 0.01907950 0.04890008
v -0.06230439 0.01907950 0.04773041
v -0.06229422 0.01907950 0.04656074
v -0.06228913 0.01907950 0.04600500
v -0.06234507 0.01674204 0.04600500
v -0.06244354 0.02017727 0.07572970
v -0.06077972 0.02904491 0.04600500
v -0.06064565 0.02959892 0.04656074
v -0.06061422 0.02971520 0.04670913
v -0.05782239 0.02971520 0.07572970
v -0.06223319 0.02024908 0.04890008
v -0.06243938 0.02030551 0.07572970
v -0.06221331 0.02024908 0.04656074
v -0.06224660 0.01969507 0.04600500
v -0.06093737 0.02843105 0.04600500
v -0.06094615 0.02843105 0.04656074
v -0.06065767 0.02959892 0.04773041
v -0.06062485 0.02971520 0.04773041
v -0.06057400 0.02971520 0.07572970
v -0.06212686 0.02141696 0.04773041
v -0.06211715 0.02141696 0.04656074
v -0.06184394 0.02492400 0.07572970
v -0.06202331 0.02258483 0.04773041
v -0.06215321 0.02086294 0.04600500
v -0.06220361 0.02024908 0.04600500
v -0.06119949 0.02726146 0.04600500
v -0.06121197 0.02726146 0.04656074
v -0.06122029 0.02726146 0.04773041
v -0.06149536 0.02675704 0.07572970
v -0.06097851 0.02843105 0.07572970
v -0.06199603 0.02258483 0.04656074
v -0.06210190 0.02141696 0.04600500
v -0.06163451 0.02614318 0.07572970
v -0.06169970 0.02492400 0.05123650
v -0.06185226 0.02375442 0.04773041
v -0.06139550 0.02635008 0.04600500
v -0.06141076 0.02637230 0.04656074
v -0.06163405 0.02492400 0.04600500
v -0.06197939 0.02258483 0.04600500
v -0.06203810 0.02203082 0.04600500
v -0.06150553 0.02576528 0.04600500
f 1 2 8
f 1 8 16
f 1 16 29
f 1 29 28
f 1 28 27
f 1 27 30
f 1 30 17
f 1 17 9
f 1 9 3
f 1 3 4
f 1 4 13
f 1 13 23
f 1 23 35
f 1 35 34
f 1 34 44
f 1 44 55
f 1 55 54
f 1 54 62
f 1 62 70
f 1 70 69
f 1 69 68
f 1 68 71
f 1 71 66
f 1 66 56
f 1 56 45
f 1 45 37
f 1 37 24
f 1 24 14
f 1 14 5
f 1 5 2
f 2 5 6
f 2 6 7
f 2 7 8
f 3 9 4
f 4 9 10
f 4 10 11
f 4 11 12
f 4 12 13
f 5 14 25
f 5 25 39
f 5 39 48
f 5 48 49
f 5 49 40
f 5 40 26
f 5 26 15
f 5 15 7
f 5 7 6
f 7 15 8
f 8 15 16
f 9 17 18
f 9 18 19
f 9 19 10
f 10 19 18
f 10 18 17
f 10 17 30
f 10 30 40
f 10 40 49
f 10 49 60
f 10 60 59
f 10 59 63
f 10 63 52
f 10 52 42
f 10 42 36
f 10 36 22
f 10 22 20
f 10 20 11
f 11 21 12
f 11 20 22
f 11 22 21
f 12 21 13
f 13 21 23
f 14 24 38
f 14 38 25
f 15 26 27
f 15 27 28
f 15 28 29
f 15 29 16
f 21 31 32
f 21 32 33
f 21 33 34
f 21 34 35
f 21 35 23
f 21 22 36
f 21 36 31
f 24 37 38
f 25 38 39
f 26 40 30
f 26 30 27
f 31 41 32
f 31 36 42
f 31 42 41
f 32 43 33
f 32 41 43
f 33 43 44
f 33 44 34
f 37 45 46
f 37 46 38
f 38 46 47
f 38 47 48
f 38 48 39
f 41 50 51
f 41 51 43
f 41 42 50
f 42 52 53
f 42 53 50
f 43 51 54
f 43 54 55
f 43 55 44
f 45 56 57
f 45 57 46
f 46 57 58
f 46 58 59
f 46 59 47
f 47 59 48
f 48 59 60
f 48 60 49
f 50 53 51
f 51 53 61
f 51 61 62
f 51 62 54
f 52 63 64
f 52 64 65
f 52 65 53
f 53 65 61
f 56 66 67
f 56 67 57
f 57 67 58
f 58 67 63
f 58 63 59
f 61 65 68
f 61 68 69
f 61 69 70
f 61 70 62
f 63 67 64
f 64 67 71
f 64 71 65
f 65 71 68
f 66 71 67

