# https://github.com/mikedh/trimesh
v 0.00003764 0.04992252 0.04188398
v 0.00003764 0.04992252 0.04216722
v 0.00003764 0.04993405 0.04121480
v 0.01198963 0.03630664 0.04121480
v 0.00003764 0.04993240 0.04305304
v 0.00003764 0.05306591 0.04121480
v 0.01310796 0.03630335 0.04121480
v 0.01242779 0.03630335 0.04158151
v 0.01338635 0.03630335 0.04600453
v 0.00003764 0.05010035 0.04600453
v 0.00003764 0.05009541 0.04595858
v 0.00003764 0.05309555 0.04290345
v 0.00046472 0.05283045 0.04121480
v 0.01616872 0.03630335 0.04121480
v 0.01619719 0.03630335 0.04600453
v 0.00003764 0.05311531 0.04600453
v 0.00003764 0.05311202 0.04406876
v 0.00112432 0.05246325 0.04121480
v 0.01618454 0.03630335 0.04305304
v 0.01598049 0.03665737 0.04121480
v 0.01572424 0.03725180 0.04448658
v 0.01572424 0.03725180 0.04517780
v 0.01544742 0.03768650 0.04600453
v 0.00087440 0.05262462 0.04600453
v 0.00003764 0.05311696 0.04592622
v 0.00003764 0.05311367 0.04422116
v 0.00145966 0.05226895 0.04121480
v 0.00003764 0.05312519 0.04539022
v 0.01537783 0.03772438 0.04121480
v 0.01476725 0.03879139 0.04121480
v 0.01462489 0.03904002 0.04121480
v 0.01443192 0.03937594 0.04121480
v 0.01481629 0.03878151 0.04539022
v 0.01545850 0.03769803 0.04549667
v 0.01480205 0.03878151 0.04600453
v 0.00087282 0.05262791 0.04539022
v 0.00118285 0.05243691 0.04600453
v 0.00145966 0.05227389 0.04188398
v 0.00295129 0.05130733 0.04422116
v 0.00225372 0.05174533 0.04188398
v 0.00225372 0.05173050 0.04121480
v 0.01416301 0.03980241 0.04121480
v 0.01395896 0.04012185 0.04121480
v 0.01393998 0.04012185 0.04600453
v 0.01461066 0.03908942 0.04600453
v 0.00145966 0.05226072 0.04600453
v 0.00225372 0.05175850 0.04422116
v 0.00257957 0.05152797 0.04600453
v 0.00293705 0.05129086 0.04600453
v 0.00324392 0.05108009 0.04600453
v 0.00352073 0.05088908 0.04600453
v 0.00353655 0.05088744 0.04422116
v 0.00352232 0.05088744 0.04305304
v 0.00293864 0.05129745 0.04305304
v 0.00183771 0.05201372 0.04600453
v 0.00292124 0.05128262 0.04188398
v 0.00350492 0.05087591 0.04188398
v 0.00315218 0.05109820 0.04121480
v 0.01347177 0.04086283 0.04121480
v 0.01346386 0.04084307 0.04600453
v 0.00390195 0.05061245 0.04600453
v 0.00434485 0.05030289 0.04422116
v 0.00433536 0.05030289 0.04305304
v 0.00431479 0.05029136 0.04188398
v 0.00348752 0.05085286 0.04121480
v 0.01329303 0.04111147 0.04121480
v 0.01304785 0.04144903 0.04188398
v 0.01246259 0.04222623 0.04188398
v 0.01092193 0.04409514 0.04600453
v 0.00431796 0.05030454 0.04600453
v 0.00493011 0.04986324 0.04422116
v 0.00492062 0.04985172 0.04305304
v 0.00489847 0.04983525 0.04188398
v 0.00486842 0.04981549 0.04121480
v 0.00428316 0.05026831 0.04121480
v 0.01244519 0.04221800 0.04121480
v 0.01199754 0.04280090 0.04121480
v 0.01199912 0.04281078 0.04188398
v 0.01092351 0.04409843 0.04539022
v 0.01033666 0.04471262 0.04600453
v 0.00490164 0.04983031 0.04600453
v 0.00491271 0.04984678 0.04539022
v 0.00561344 0.04926223 0.04539022
v 0.00562293 0.04927869 0.04422116
v 0.00561344 0.04926717 0.04305304
v 0.00560079 0.04925070 0.04188398
v 0.00528917 0.04948123 0.04121480
v 0.01166379 0.04320432 0.04121480
v 0.01141386 0.04349577 0.04121480
v 0.01090294 0.04408032 0.04121480
v 0.01031926 0.04471427 0.04121480
v 0.00977829 0.04530705 0.04305304
v 0.01003929 0.04501889 0.04600453
v 0.00523539 0.04955368 0.04600453
v 0.00590924 0.04898889 0.04600453
v 0.00618605 0.04874848 0.04600453
v 0.00619712 0.04875507 0.04539022
v 0.00620661 0.04876330 0.04422116
v 0.00619870 0.04876001 0.04305304
v 0.00618447 0.04874519 0.04188398
v 0.00558971 0.04923094 0.04121480
v 0.00617339 0.04873696 0.04121480
v 0.01008516 0.04496291 0.04121480
v 0.00977038 0.04530211 0.04188398
v 0.00943188 0.04563473 0.04121480
v 0.00743250 0.04764360 0.04188398
v 0.00743408 0.04763866 0.04305304
v 0.00859670 0.04646462 0.04600453
v 0.00887351 0.04618799 0.04600453
v 0.00948724 0.04557380 0.04600453
v 0.00682984 0.04816393 0.04600453
v 0.00713670 0.04788401 0.04600453
v 0.00684882 0.04816064 0.04188398
v 0.00708451 0.04793176 0.04121480
v 0.00976564 0.04529717 0.04121480
v 0.00776784 0.04729946 0.04121480
v 0.00741984 0.04763372 0.04121480
v 0.00741352 0.04762549 0.04600453
v 0.00801460 0.04704094 0.04600453
v 0.00831988 0.04673961 0.04600453
f 1 2 5
f 1 5 11
f 1 11 10
f 1 10 16
f 1 16 25
f 1 25 28
f 1 28 26
f 1 26 17
f 1 17 12
f 1 12 6
f 1 6 3
f 1 3 4
f 1 4 2
f 2 4 5
f 3 6 13
f 3 13 18
f 3 18 27
f 3 27 41
f 3 41 58
f 3 58 65
f 3 65 75
f 3 75 74
f 3 74 87
f 3 87 101
f 3 101 102
f 3 102 114
f 3 114 117
f 3 117 116
f 3 116 105
f 3 105 115
f 3 115 103
f 3 103 91
f 3 91 90
f 3 90 89
f 3 89 88
f 3 88 77
f 3 77 76
f 3 76 66
f 3 66 59
f 3 59 43
f 3 43 42
f 3 42 32
f 3 32 31
f 3 31 30
f 3 30 29
f 3 29 20
f 3 20 14
f 3 14 7
f 3 7 4
f 4 7 8
f 4 8 9
f 4 9 10
f 4 10 11
f 4 11 5
f 6 12 13
f 7 14 19
f 7 19 15
f 7 15 9
f 7 9 8
f 9 15 23
f 9 23 35
f 9 35 45
f 9 45 44
f 9 44 60
f 9 60 69
f 9 69 80
f 9 80 93
f 9 93 110
f 9 110 109
f 9 109 108
f 9 108 120
f 9 120 119
f 9 119 118
f 9 118 112
f 9 112 111
f 9 111 96
f 9 96 95
f 9 95 94
f 9 94 81
f 9 81 70
f 9 70 61
f 9 61 51
f 9 51 50
f 9 50 49
f 9 49 48
f 9 48 55
f 9 55 46
f 9 46 37
f 9 37 24
f 9 24 16
f 9 16 10
f 12 17 18
f 12 18 13
f 14 20 21
f 14 21 19
f 15 19 21
f 15 21 22
f 15 22 23
f 16 24 25
f 17 26 18
f 18 26 28
f 18 28 27
f 20 29 21
f 21 29 30
f 21 30 31
f 21 31 32
f 21 32 33
f 21 33 22
f 22 33 34
f 22 34 23
f 23 34 35
f 24 36 28
f 24 28 25
f 24 37 36
f 27 28 38
f 27 38 39
f 27 39 40
f 27 40 41
f 28 36 38
f 32 42 33
f 33 42 43
f 33 43 44
f 33 44 45
f 33 45 35
f 33 35 34
f 36 37 38
f 37 46 38
f 38 46 47
f 38 47 39
f 39 48 49
f 39 49 50
f 39 50 51
f 39 51 52
f 39 52 53
f 39 53 54
f 39 54 40
f 39 47 46
f 39 46 55
f 39 55 48
f 40 54 41
f 41 54 56
f 41 56 57
f 41 57 58
f 43 59 44
f 44 59 60
f 51 61 62
f 51 62 52
f 52 62 63
f 52 63 53
f 53 57 54
f 53 63 57
f 54 57 56
f 57 63 64
f 57 64 58
f 58 64 65
f 59 66 67
f 59 67 60
f 60 67 68
f 60 68 69
f 61 70 62
f 62 71 63
f 62 70 71
f 63 71 72
f 63 72 64
f 64 72 73
f 64 73 74
f 64 74 75
f 64 75 65
f 66 76 68
f 66 68 67
f 68 76 77
f 68 77 78
f 68 78 69
f 69 78 79
f 69 79 80
f 70 81 82
f 70 82 71
f 71 82 83
f 71 83 84
f 71 84 85
f 71 85 72
f 72 85 86
f 72 86 73
f 73 86 87
f 73 87 74
f 77 88 78
f 78 88 79
f 79 88 89
f 79 89 90
f 79 90 91
f 79 91 92
f 79 92 80
f 80 92 93
f 81 94 82
f 82 94 83
f 83 94 95
f 83 95 96
f 83 96 97
f 83 97 84
f 84 98 99
f 84 99 85
f 84 97 98
f 85 99 100
f 85 100 86
f 86 101 87
f 86 100 102
f 86 102 101
f 91 103 92
f 92 103 104
f 92 104 105
f 92 105 106
f 92 106 107
f 92 107 108
f 92 108 109
f 92 109 110
f 92 110 93
f 96 111 97
f 97 111 112
f 97 112 98
f 98 106 99
f 98 112 107
f 98 107 106
f 99 106 113
f 99 113 100
f 100 113 102
f 102 113 114
f 103 115 104
f 104 115 105
f 105 116 106
f 106 116 117
f 106 117 114
f 106 114 113
f 107 112 118
f 107 118 119
f 107 119 120
f 107 120 108

