# https://github.com/mikedh/trimesh
v 0.01696228 0.00758066 0.04088460
v 0.01696228 0.01898227 0.03760278
v 0.01394193 0.01898227 0.03829427
v 0.01384672 0.01898227 0.03831256
v 0.01277308 0.01898227 0.03847720
v 0.01160424 0.01898227 0.03851013
v 0.01150700 0.01898227 0.03850281
v 0.01043539 0.01898227 0.03839671
v 0.01043539 0.00758066 0.03990042
v 0.01696228 0.00758066 0.00351138
v 0.01696228 0.01898227 0.00351138
v 0.00926655 0.01898227 0.03818085
v 0.00945900 0.00758066 0.03972114
v 0.01267382 0.00758066 0.00351138
v 0.01249556 0.01898227 0.00351138
v 0.00919768 0.01898227 0.03816256
v 0.00926655 0.00758066 0.03968456
v 0.01163057 0.00855944 0.00351138
v 0.01153131 0.00758066 0.00371992
v 0.01233350 0.01796554 0.00351138
v 0.00813012 0.00758066 0.00544315
v 0.00731375 0.00758066 0.00606878
v 0.00463372 0.00758066 0.00825300
v 0.00422655 0.00758066 0.00861155
v 0.00402600 0.00758066 0.00879083
v 0.00725096 0.01898227 0.00832617
v 0.00838941 0.01898227 0.03792474
v 0.00829015 0.00758066 0.03939918
v 0.01160626 0.00859292 0.00351138
v 0.01098032 0.00758066 0.00387358
v 0.01128417 0.01095114 0.00351138
v 0.00832864 0.00758066 0.00529315
v 0.00354388 0.00758066 0.00926279
v 0.00666755 0.01898227 0.00887132
v 0.00732388 0.00758066 0.03904795
v 0.00741099 0.00758066 0.03908454
v 0.00809163 0.00758066 0.03934064
v 0.00834080 0.01898227 0.03790279
v 0.01084459 0.00758066 0.00392481
v 0.01126999 0.00972906 0.00351138
v 0.01128012 0.01085181 0.00351138
v 0.00920578 0.00758066 0.00472605
v 0.00903157 0.00758066 0.00483581
v 0.00310025 0.00758066 0.00972013
v 0.00607604 0.01898227 0.00945670
v 0.00780600 0.01898227 0.03764668
v 0.00674655 0.00758066 0.03876989
v 0.01048401 0.00758066 0.00409310
v 0.00282475 0.00758066 0.01000550
v 0.00240542 0.00758066 0.01046283
v 0.00178555 0.00758066 0.01118359
v 0.00549263 0.01898227 0.01014453
v 0.00772903 0.01898227 0.03760644
v 0.00597475 0.00758066 0.03837476
v 0.00141282 0.00758066 0.01162995
v 0.00078079 0.00758066 0.01240924
v 0.00031690 0.00758066 0.01300926
v 0.00504697 0.01898227 0.01072626
v 0.00692887 0.01898227 0.03717472
v 0.00575800 0.00758066 0.03826134
v 0.00025208 0.00758066 0.01309707
v 0.00406652 0.01898227 0.01208362
v -0.00026853 0.00758066 0.01381051
v 0.00686809 0.01898227 0.03714179
v 0.00512800 0.00758066 0.03791742
v 0.00367960 0.01898227 0.01263974
v -0.00093095 0.00758066 0.01480566
v 0.00304960 0.01898227 0.01355074
v 0.00310227 0.01898227 0.01347391
v 0.00616517 0.01898227 0.03673568
v 0.00504089 0.00758066 0.03786986
v -0.00112136 0.00758066 0.01510933
v 0.00266269 0.01898227 0.01413613
v 0.00463372 0.00758066 0.03762473
v 0.00557973 0.01898227 0.03635518
v -0.00119429 0.00758066 0.01523739
v 0.00216841 0.01898227 0.01499591
v 0.00445951 0.00758066 0.03751131
v 0.00551288 0.01898227 0.03630761
v 0.00349324 0.00758066 0.03687471
v 0.00370391 0.00758066 0.03701374
v -0.00171895 0.00758066 0.01616669
v 0.00175922 0.01898227 0.01575326
v 0.00478970 0.01898227 0.03576979
v 0.00298275 0.00758066 0.03650884
v -0.00216664 0.00758066 0.01716550
v 0.00146346 0.01898227 0.01633864
v 0.00281867 0.00758066 0.03638445
v 0.00474108 0.01898227 0.03572955
v 0.00164983 0.00758066 0.03546978
v -0.00220918 0.00758066 0.01730819
v 0.00043642 0.01898227 0.01890336
v 0.00064304 0.01898227 0.01831798
v 0.00067343 0.01898227 0.01823383
v 0.00102185 0.01898227 0.01733746
v 0.00105832 0.01898227 0.01725331
v 0.00420629 0.01898227 0.03524294
v 0.00126697 0.00758066 0.03506001
v -0.00254342 0.00758066 0.01844969
v -0.00260217 0.00758066 0.01866555
v -0.00283513 0.00758066 0.01967534
v -0.00287969 0.00758066 0.01987657
v 0.00027234 0.01898227 0.01967534
v 0.00109681 0.00758066 0.03486976
v 0.00370391 0.01898227 0.03465756
v 0.00053568 0.00758066 0.03423681
v -0.00307821 0.00758066 0.02084246
v 0.00009205 0.01898227 0.02084246
v -0.00355021 0.00758066 0.02319132
v 0.00311848 0.01898227 0.03393680
v 0.00307999 0.01898227 0.03388924
v 0.00030475 0.00758066 0.03394778
v -0.00005988 0.01898227 0.02191444
v -0.00360085 0.00758066 0.02354255
v 0.00265054 0.01898227 0.03335142
v 0.00002722 0.00758066 0.03359655
v -0.00007204 0.01898227 0.02201323
v -0.00371429 0.00758066 0.02434745
v 0.00203269 0.01898227 0.03244407
v -0.00193368 0.00758066 0.03089646
v -0.00150828 0.00758066 0.03151843
v -0.00089246 0.00758066 0.03238187
v -0.00079927 0.00758066 0.03250992
v -0.00050959 0.00758066 0.03289774
v -0.00018548 0.01898227 0.02308156
v -0.00371834 0.00758066 0.02448648
v -0.00023612 0.01898227 0.02424867
v -0.00019156 0.01898227 0.02317668
v 0.00198205 0.01898227 0.03235626
v -0.00234288 0.00758066 0.03024887
v -0.00225374 0.00758066 0.03039156
v -0.00373050 0.00758066 0.02551456
v -0.00025638 0.01898227 0.02551456
v -0.00023815 0.01898227 0.02434745
v 0.00159311 0.01898227 0.03157331
v -0.00237124 0.00758066 0.03019399
v -0.00372239 0.00758066 0.02566457
v -0.00016117 0.01898227 0.02668534
v 0.00149587 0.01898227 0.03137574
v -0.00286754 0.00758066 0.02914030
v -0.00362516 0.00758066 0.02665973
v -0.00357046 0.00758066 0.02695608
v -0.00335574 0.00758066 0.02782684
v 0.00016497 0.01898227 0.02785245
v 0.00144523 0.01898227 0.03125134
v -0.00291818 0.00758066 0.02902322
v -0.00307416 0.00758066 0.02860247
f 1 2 3
f 1 3 4
f 1 4 5
f 1 5 6
f 1 6 7
f 1 7 8
f 1 8 9
f 1 9 13
f 1 13 17
f 1 17 28
f 1 28 37
f 1 37 36
f 1 36 35
f 1 35 47
f 1 47 54
f 1 54 60
f 1 60 65
f 1 65 71
f 1 71 74
f 1 74 78
f 1 78 81
f 1 81 80
f 1 80 85
f 1 85 88
f 1 88 90
f 1 90 98
f 1 98 104
f 1 104 106
f 1 106 112
f 1 112 116
f 1 116 124
f 1 124 123
f 1 123 122
f 1 122 121
f 1 121 120
f 1 120 131
f 1 131 130
f 1 130 136
f 1 136 140
f 1 140 146
f 1 146 147
f 1 147 143
f 1 143 142
f 1 142 141
f 1 141 137
f 1 137 132
f 1 132 126
f 1 126 118
f 1 118 114
f 1 114 109
f 1 109 107
f 1 107 102
f 1 102 101
f 1 101 100
f 1 100 99
f 1 99 91
f 1 91 86
f 1 86 82
f 1 82 76
f 1 76 72
f 1 72 67
f 1 67 63
f 1 63 61
f 1 61 57
f 1 57 56
f 1 56 55
f 1 55 51
f 1 51 50
f 1 50 49
f 1 49 44
f 1 44 33
f 1 33 25
f 1 25 24
f 1 24 23
f 1 23 22
f 1 22 21
f 1 21 32
f 1 32 43
f 1 43 42
f 1 42 48
f 1 48 39
f 1 39 30
f 1 30 19
f 1 19 14
f 1 14 10
f 1 10 11
f 1 11 2
f 2 11 15
f 2 15 26
f 2 26 34
f 2 34 45
f 2 45 52
f 2 52 58
f 2 58 62
f 2 62 66
f 2 66 69
f 2 69 68
f 2 68 73
f 2 73 77
f 2 77 83
f 2 83 87
f 2 87 96
f 2 96 95
f 2 95 94
f 2 94 93
f 2 93 92
f 2 92 103
f 2 103 108
f 2 108 113
f 2 113 117
f 2 117 125
f 2 125 128
f 2 128 127
f 2 127 134
f 2 134 133
f 2 133 138
f 2 138 144
f 2 144 145
f 2 145 139
f 2 139 135
f 2 135 129
f 2 129 119
f 2 119 115
f 2 115 111
f 2 111 110
f 2 110 105
f 2 105 97
f 2 97 89
f 2 89 84
f 2 84 79
f 2 79 75
f 2 75 70
f 2 70 64
f 2 64 59
f 2 59 53
f 2 53 46
f 2 46 38
f 2 38 27
f 2 27 16
f 2 16 12
f 2 12 8
f 2 8 7
f 2 7 6
f 2 6 5
f 2 5 4
f 2 4 3
f 8 12 13
f 8 13 9
f 10 14 18
f 10 18 29
f 10 29 40
f 10 40 41
f 10 41 31
f 10 31 20
f 10 20 15
f 10 15 11
f 12 16 17
f 12 17 13
f 14 19 18
f 15 20 21
f 15 21 22
f 15 22 23
f 15 23 24
f 15 24 25
f 15 25 26
f 16 27 28
f 16 28 17
f 18 19 29
f 19 30 29
f 20 31 32
f 20 32 21
f 25 33 34
f 25 34 26
f 27 35 36
f 27 36 37
f 27 37 28
f 27 38 35
f 29 30 39
f 29 39 40
f 31 41 42
f 31 42 43
f 31 43 32
f 33 44 45
f 33 45 34
f 35 38 46
f 35 46 47
f 39 48 40
f 40 48 42
f 40 42 41
f 44 49 45
f 45 49 50
f 45 50 51
f 45 51 52
f 46 53 54
f 46 54 47
f 51 55 52
f 52 55 56
f 52 56 57
f 52 57 58
f 53 59 60
f 53 60 54
f 57 61 58
f 58 61 63
f 58 63 62
f 59 64 60
f 60 64 65
f 62 63 66
f 63 67 68
f 63 68 69
f 63 69 66
f 64 70 71
f 64 71 65
f 67 72 73
f 67 73 68
f 70 74 71
f 70 75 74
f 72 76 77
f 72 77 73
f 74 75 78
f 75 79 80
f 75 80 81
f 75 81 78
f 76 82 77
f 77 82 83
f 79 84 85
f 79 85 80
f 82 86 87
f 82 87 83
f 84 88 85
f 84 89 90
f 84 90 88
f 86 91 92
f 86 92 93
f 86 93 94
f 86 94 95
f 86 95 96
f 86 96 87
f 89 97 90
f 90 97 98
f 91 99 92
f 92 99 100
f 92 100 101
f 92 101 102
f 92 102 103
f 97 104 98
f 97 105 106
f 97 106 104
f 102 107 103
f 103 107 109
f 103 109 108
f 105 110 106
f 106 110 111
f 106 111 112
f 108 109 114
f 108 114 113
f 111 115 112
f 112 115 116
f 113 114 118
f 113 118 117
f 115 119 120
f 115 120 121
f 115 121 122
f 115 122 123
f 115 123 124
f 115 124 116
f 117 118 125
f 118 126 127
f 118 127 128
f 118 128 125
f 119 129 130
f 119 130 131
f 119 131 120
f 126 132 133
f 126 133 134
f 126 134 127
f 129 135 136
f 129 136 130
f 132 137 133
f 133 137 138
f 135 139 136
f 136 139 140
f 137 141 138
f 138 141 142
f 138 142 143
f 138 143 144
f 139 145 146
f 139 146 140
f 143 147 144
f 144 147 146
f 144 146 145

