# https://github.com/mikedh/trimesh
v 0.01139748 0.03630499 0.00351138
v 0.01079428 0.03670769 0.00351138
v 0.01472775 0.03630499 0.00351138
v 0.00246309 0.03630499 0.00840509
v 0.00003764 0.04811301 0.00351138
v 0.01460774 0.03655154 0.00351138
v 0.01508462 0.03630499 0.00440450
v 0.00198305 0.03630499 0.00869664
v 0.00003764 0.05178493 0.00351138
v 0.00192936 0.03630499 0.00872986
v 0.00139722 0.03630499 0.00908415
v 0.00046714 0.03630499 0.00971524
v 0.00003764 0.03861268 0.00875200
v 0.01437088 0.03695588 0.00351138
v 0.01450036 0.03714654 0.00397270
v 0.01488092 0.03670111 0.00440819
v 0.01524253 0.03630499 0.00489166
v 0.00003764 0.05217941 0.00441926
v 0.00053978 0.05148250 0.00351138
v 0.00023028 0.03630499 0.00991084
v 0.00003764 0.03701834 0.00964881
v 0.01328763 0.03872774 0.00351138
v 0.01347554 0.03856173 0.00367376
v 0.01221702 0.04074615 0.00384722
v 0.01323868 0.03934082 0.00419782
v 0.01338869 0.03958737 0.00497654
v 0.01462669 0.03736186 0.00475510
v 0.01544149 0.03630499 0.00562608
v 0.00003764 0.05219913 0.00447462
v 0.00010869 0.05215640 0.00447462
v 0.00111140 0.05153345 0.00451152
v 0.00151881 0.05112747 0.00414616
v 0.00073874 0.05138717 0.00357043
v 0.00080191 0.05131649 0.00351138
v 0.00003764 0.03635430 0.01004739
v 0.00003764 0.03643319 0.00999573
v 0.00003764 0.03630499 0.01008061
v 0.01235440 0.04023333 0.00351138
v 0.01179383 0.04108638 0.00351138
v 0.01117010 0.04206929 0.00361840
v 0.01233545 0.04089901 0.00447462
v 0.01293708 0.04003444 0.00454105
v 0.01248073 0.04113076 0.00564453
v 0.01306499 0.04026949 0.00564453
v 0.01345975 0.03968434 0.00564453
v 0.01389873 0.03895292 0.00564453
v 0.01473091 0.03754595 0.00564453
v 0.01535148 0.03650716 0.00573311
v 0.01550781 0.03630499 0.00593240
v 0.00003764 0.05238158 0.00520536
v 0.00034871 0.05230597 0.00564453
v 0.00108456 0.05186712 0.00564453
v 0.00175093 0.05127704 0.00492487
v 0.00289892 0.05010183 0.00379924
v 0.00245520 0.05024647 0.00351138
v 0.00003764 0.03630499 0.03806996
v 0.01132643 0.04175864 0.00351138
v 0.01007264 0.04330039 0.00355566
v 0.00972209 0.04407948 0.00425688
v 0.01086218 0.04285824 0.00447462
v 0.01132327 0.04227310 0.00447462
v 0.01190752 0.04148415 0.00447462
v 0.01100430 0.04218599 0.00351138
v 0.01206543 0.04171426 0.00564453
v 0.01216333 0.04183753 0.00681445
v 0.01356397 0.03981091 0.00681445
v 0.01419244 0.03883786 0.00692516
v 0.01447352 0.03827738 0.00661146
v 0.01558519 0.03630499 0.00643801
v 0.00003764 0.05249006 0.00564453
v 0.00003764 0.05253937 0.00594716
v 0.00055715 0.05243089 0.00718350
v 0.00100245 0.05209558 0.00679969
v 0.00188357 0.05137073 0.00564453
v 0.00305840 0.05022510 0.00447462
v 0.00246941 0.05096804 0.00564453
v 0.00416533 0.04901702 0.00365162
v 0.00320841 0.04970406 0.00351138
v 0.00364266 0.04977310 0.00447462
v 0.00437219 0.04918796 0.00447462
v 0.00495645 0.04871623 0.00447462
v 0.00105929 0.03630499 0.03846116
v 0.00003764 0.03656469 0.03815484
v 0.00860252 0.04529085 0.00411294
v 0.01012475 0.04320834 0.00351138
v 0.00895466 0.04450847 0.00351138
v 0.01019739 0.04366528 0.00457795
v 0.01097903 0.04299302 0.00522381
v 0.01142117 0.04254595 0.00562608
v 0.01107535 0.04311137 0.00600252
v 0.01361450 0.03989145 0.00798436
v 0.01168803 0.04246048 0.00681445
v 0.01118589 0.04325272 0.00798436
v 0.01123800 0.04331847 0.00915427
v 0.01182225 0.04252787 0.00915427
v 0.01452878 0.03837106 0.00739017
v 0.01562466 0.03630499 0.00681445
v 0.00003764 0.05266593 0.00677016
v 0.00003764 0.05267415 0.00682552
v 0.00003764 0.05276455 0.00782935
v 0.00003764 0.05284673 0.00894391
v 0.00060294 0.05246048 0.00798436
v 0.00118720 0.05208079 0.00798436
v 0.00200358 0.05145784 0.00681445
v 0.00327315 0.05038454 0.00564453
v 0.00385899 0.04994568 0.00564453
v 0.00258942 0.05104857 0.00681445
v 0.00396479 0.05002622 0.00651182
v 0.00540332 0.04793221 0.00353721
v 0.00534964 0.04796344 0.00351138
v 0.00431534 0.04881649 0.00351138
v 0.00383215 0.04920768 0.00351138
v 0.00511593 0.04883622 0.00525333
v 0.00635393 0.04772675 0.00504297
v 0.00578072 0.04805384 0.00458165
v 0.00205727 0.03630499 0.03883022
v 0.00108456 0.03661564 0.03856450
v 0.00003764 0.03778099 0.03850176
v 0.00739611 0.04644634 0.00416461
v 0.00756034 0.04659591 0.00494332
v 0.00873675 0.04543714 0.00489166
v 0.00849041 0.04501143 0.00351138
v 0.00799458 0.04554726 0.00351138
v 0.00985789 0.04422248 0.00503928
v 0.00994000 0.04431452 0.00564453
v 0.01059847 0.04355186 0.00562608
v 0.01006790 0.04445752 0.00681445
v 0.01065216 0.04376883 0.00681445
v 0.01113062 0.04318369 0.00681445
v 0.01419876 0.03896278 0.00798436
v 0.01223439 0.04194273 0.00915427
v 0.01268917 0.04129184 0.00915427
v 0.01322763 0.04052097 0.00915427
v 0.01363503 0.03993747 0.00915427
v 0.01421929 0.03901373 0.00915427
v 0.01072006 0.04383622 0.00798436
v 0.01077059 0.04390361 0.00915427
v 0.01080849 0.04394799 0.01032050
v 0.01125853 0.04336284 0.01032050
v 0.01184278 0.04255417 0.01032050
v 0.01544781 0.03674878 0.00798436
v 0.01569098 0.03630499 0.00798436
v 0.01564835 0.03630499 0.00717243
v 0.01459984 0.03848119 0.01032050
v 0.01498672 0.03778428 0.01032050
v 0.00003764 0.05285660 0.00915427
v 0.00064558 0.05249006 0.00915427
v 0.00273153 0.05115377 0.00915427
v 0.00208095 0.05149565 0.00798436
v 0.00266679 0.05110775 0.00798436
v 0.00467221 0.04929808 0.00564453
v 0.00524068 0.04894141 0.00603204
v 0.00351475 0.05038947 0.00686611
v 0.00402322 0.05006896 0.00729053
v 0.00448430 0.04966133 0.00686611
v 0.00531016 0.04900058 0.00681445
v 0.00769140 0.04582833 0.00351138
v 0.00543175 0.04789111 0.00351138
v 0.00568282 0.04846639 0.00564453
v 0.00645499 0.04781551 0.00564453
v 0.00703924 0.04728789 0.00564453
v 0.00263047 0.03630499 0.03901844
v 0.00003764 0.03904825 0.03878593
v 0.00766614 0.04670440 0.00564453
v 0.00825039 0.04612912 0.00564453
v 0.00884254 0.04554562 0.00564453
v 0.00942680 0.04489637 0.00564453
v 0.00955155 0.04504102 0.00681445
v 0.00962103 0.04512320 0.00798436
v 0.01013581 0.04453970 0.00798436
v 0.01225334 0.04197067 0.01032050
v 0.01326237 0.04056699 0.01266032
v 0.01445931 0.03941807 0.03603645
v 0.01422402 0.03906633 0.01032050
v 0.01018476 0.04459723 0.00915427
v 0.01022423 0.04462846 0.01032050
v 0.01092534 0.04410578 0.03370032
v 0.01137538 0.04352064 0.03370032
v 0.01347554 0.04085791 0.03954250
v 0.01395874 0.04012320 0.03603645
v 0.01585047 0.03630499 0.01296664
v 0.01586152 0.03633622 0.01383024
v 0.01570835 0.03721722 0.03296958
v 0.00003764 0.05288454 0.01012490
v 0.00128194 0.05214983 0.01383024
v 0.00124089 0.05212681 0.01032050
v 0.00218991 0.05156468 0.01383024
v 0.00277417 0.05118336 0.01383024
v 0.00413217 0.05014950 0.01032050
v 0.00468642 0.04970242 0.00915427
v 0.00660342 0.04793056 0.00681445
v 0.00718768 0.04742925 0.00681445
v 0.00538595 0.04906633 0.00798436
v 0.00545228 0.04911728 0.00915427
v 0.00459168 0.03630499 0.03955726
v 0.00003764 0.04993418 0.04121433
v 0.00781615 0.04684411 0.00681445
v 0.00840041 0.04627376 0.00681445
v 0.00896729 0.04569026 0.00681445
v 0.00903519 0.04576587 0.00798436
v 0.00966840 0.04517908 0.00915427
v 0.01347554 0.04086120 0.04071242
v 0.01396506 0.04012320 0.04071242
v 0.01416402 0.03980269 0.04121433
v 0.01443088 0.03937534 0.04121433
v 0.01571309 0.03722708 0.03954250
v 0.01571309 0.03722708 0.03837628
v 0.00969209 0.04521031 0.01032050
v 0.00975841 0.04527935 0.02785444
v 0.00977262 0.04530071 0.03720637
v 0.00976630 0.04529743 0.04121433
v 0.01008370 0.04496377 0.04121433
v 0.01031898 0.04471393 0.04121433
v 0.01090323 0.04407948 0.04121433
v 0.01141328 0.04349598 0.04121433
v 0.01166435 0.04320341 0.04121433
v 0.01199753 0.04280236 0.04121433
v 0.00910783 0.04582504 0.01032050
v 0.01244599 0.04221722 0.04121433
v 0.01329237 0.04111268 0.04121433
v 0.01587731 0.03630499 0.01383024
v 0.01616313 0.03630499 0.03723589
v 0.01615365 0.03630499 0.03370770
v 0.01614418 0.03630499 0.03293637
v 0.00003764 0.05288618 0.01032050
v 0.00069611 0.05251636 0.01383024
v 0.00145880 0.05226488 0.04071242
v 0.00415901 0.05017580 0.01499646
v 0.00225465 0.05172905 0.04121433
v 0.00285312 0.05123595 0.02942293
v 0.00425060 0.05023825 0.02902066
v 0.00423007 0.05022346 0.02551461
v 0.00471643 0.04970900 0.01032050
v 0.00667448 0.04798644 0.00798436
v 0.00725873 0.04749664 0.00798436
v 0.00789510 0.04691150 0.00798436
v 0.00547438 0.04912386 0.01032050
v 0.00605864 0.04865706 0.01032050
v 0.00603653 0.04862583 0.00915427
v 0.00576177 0.03630499 0.03983775
v 0.01198964 0.03630663 0.04121433
v 0.00003764 0.05306698 0.04121433
v 0.00847778 0.04634937 0.00798436
v 0.00908256 0.04580367 0.00915427
v 0.01347081 0.04086120 0.04121433
v 0.01395874 0.04012320 0.04121433
v 0.01476723 0.03879020 0.04121433
v 0.01570677 0.03721722 0.04027324
v 0.01616944 0.03630499 0.04121433
v 0.00917415 0.04587435 0.02785444
v 0.00861832 0.04648743 0.03954250
v 0.00853778 0.04640854 0.01032050
v 0.00943154 0.04563438 0.04121433
v 0.00851568 0.04638717 0.00915427
v 0.00003764 0.05308671 0.03837628
v 0.00145880 0.05226817 0.04121433
v 0.00315314 0.05109788 0.04121433
v 0.00483486 0.04978625 0.02902066
v 0.00481433 0.04977310 0.02551461
v 0.00348791 0.05085298 0.04121433
v 0.00428376 0.05026948 0.04121433
v 0.00671553 0.04804069 0.00915427
v 0.00729979 0.04752458 0.00915427
v 0.00793300 0.04693944 0.00915427
v 0.00675501 0.04806863 0.01149041
v 0.00674238 0.04807192 0.01032050
v 0.00553754 0.04920275 0.02902066
v 0.00558965 0.04923069 0.04121433
v 0.00617391 0.04873760 0.04121433
v 0.01198016 0.03630499 0.04120326
v 0.01310920 0.03630499 0.04121433
v 0.00003764 0.05309328 0.03954250
v 0.00046398 0.05283030 0.04121433
v 0.01537675 0.03772511 0.04121433
v 0.01598153 0.03665673 0.04121433
v 0.01604785 0.03653346 0.04121433
v 0.00858674 0.04645785 0.02785444
v 0.00859621 0.04646771 0.03136049
v 0.00741980 0.04763306 0.04121433
v 0.00776878 0.04729940 0.04121433
v 0.00795511 0.04696081 0.01032050
v 0.00733927 0.04755745 0.01149041
v 0.00795511 0.04697231 0.01149041
v 0.00112404 0.05246212 0.04121433
v 0.00486802 0.04981583 0.04121433
v 0.00528963 0.04948053 0.04121433
v 0.00732821 0.04754430 0.01032050
v 0.00683554 0.04815246 0.04121433
f 1 2 5
f 1 5 9
f 1 9 19
f 1 19 34
f 1 34 55
f 1 55 78
f 1 78 112
f 1 112 111
f 1 111 110
f 1 110 158
f 1 158 157
f 1 157 123
f 1 123 122
f 1 122 86
f 1 86 85
f 1 85 63
f 1 63 57
f 1 57 39
f 1 39 38
f 1 38 22
f 1 22 14
f 1 14 6
f 1 6 3
f 1 3 7
f 1 7 17
f 1 17 28
f 1 28 49
f 1 49 69
f 1 69 97
f 1 97 143
f 1 143 142
f 1 142 181
f 1 181 221
f 1 221 224
f 1 224 223
f 1 223 222
f 1 222 249
f 1 249 271
f 1 271 270
f 1 270 240
f 1 240 195
f 1 195 162
f 1 162 116
f 1 116 82
f 1 82 56
f 1 56 37
f 1 37 20
f 1 20 12
f 1 12 11
f 1 11 10
f 1 10 8
f 1 8 4
f 1 4 2
f 2 4 5
f 3 6 7
f 4 8 5
f 5 8 10
f 5 10 11
f 5 11 12
f 5 12 13
f 5 13 21
f 5 21 36
f 5 36 35
f 5 35 37
f 5 37 56
f 5 56 83
f 5 83 118
f 5 118 163
f 5 163 196
f 5 196 242
f 5 242 272
f 5 272 255
f 5 255 225
f 5 225 184
f 5 184 146
f 5 146 101
f 5 101 100
f 5 100 99
f 5 99 98
f 5 98 71
f 5 71 70
f 5 70 50
f 5 50 29
f 5 29 18
f 5 18 9
f 6 14 15
f 6 15 7
f 7 15 16
f 7 16 17
f 9 18 19
f 12 20 21
f 12 21 13
f 14 22 15
f 15 23 24
f 15 24 25
f 15 25 26
f 15 26 27
f 15 27 16
f 15 22 23
f 16 27 17
f 17 27 28
f 18 29 30
f 18 30 31
f 18 31 32
f 18 32 33
f 18 33 19
f 19 33 34
f 20 35 36
f 20 36 21
f 20 37 35
f 22 38 24
f 22 24 23
f 24 38 39
f 24 39 40
f 24 40 41
f 24 41 42
f 24 42 25
f 25 42 26
f 26 42 41
f 26 41 43
f 26 43 44
f 26 44 45
f 26 45 46
f 26 46 47
f 26 47 27
f 27 47 48
f 27 48 28
f 28 48 49
f 29 50 51
f 29 51 52
f 29 52 30
f 30 52 53
f 30 53 31
f 31 53 54
f 31 54 32
f 32 54 33
f 33 54 55
f 33 55 34
f 39 57 40
f 40 58 59
f 40 59 60
f 40 60 61
f 40 61 62
f 40 62 41
f 40 57 63
f 40 63 58
f 41 62 64
f 41 64 43
f 43 64 65
f 43 65 66
f 43 66 44
f 44 66 45
f 45 66 67
f 45 67 46
f 46 67 68
f 46 68 47
f 47 68 49
f 47 49 48
f 49 68 69
f 50 70 51
f 51 70 71
f 51 71 72
f 51 72 52
f 52 72 73
f 52 73 74
f 52 74 53
f 53 75 54
f 53 74 76
f 53 76 75
f 54 77 78
f 54 78 55
f 54 75 79
f 54 79 80
f 54 80 81
f 54 81 77
f 56 82 83
f 58 84 59
f 58 63 85
f 58 85 86
f 58 86 84
f 59 84 87
f 59 87 60
f 60 87 88
f 60 88 61
f 61 88 64
f 61 64 62
f 64 88 89
f 64 89 90
f 64 90 65
f 65 91 66
f 65 90 92
f 65 92 93
f 65 93 94
f 65 94 95
f 65 95 91
f 66 91 67
f 67 91 96
f 67 96 68
f 68 96 69
f 69 96 97
f 71 98 72
f 72 98 99
f 72 99 100
f 72 100 101
f 72 101 102
f 72 102 103
f 72 103 104
f 72 104 73
f 73 104 74
f 74 104 76
f 75 76 105
f 75 105 106
f 75 106 79
f 76 104 107
f 76 107 108
f 76 108 105
f 77 81 109
f 77 109 110
f 77 110 111
f 77 111 112
f 77 112 78
f 79 106 113
f 79 113 80
f 80 113 81
f 81 113 114
f 81 114 115
f 81 115 109
f 82 116 117
f 82 117 83
f 83 117 118
f 84 119 120
f 84 120 121
f 84 121 87
f 84 86 122
f 84 122 123
f 84 123 119
f 87 121 124
f 87 124 88
f 88 125 126
f 88 126 90
f 88 90 89
f 88 124 125
f 90 126 125
f 90 125 127
f 90 127 128
f 90 128 129
f 90 129 92
f 91 130 96
f 91 95 131
f 91 131 132
f 91 132 133
f 91 133 134
f 91 134 135
f 91 135 130
f 92 129 93
f 93 129 136
f 93 136 94
f 94 137 138
f 94 138 139
f 94 139 95
f 94 136 137
f 95 139 140
f 95 140 131
f 96 141 142
f 96 142 143
f 96 143 97
f 96 130 144
f 96 144 145
f 96 145 141
f 101 146 147
f 101 147 102
f 102 147 148
f 102 148 103
f 103 149 104
f 103 148 149
f 104 149 150
f 104 150 107
f 105 108 106
f 106 151 113
f 106 108 152
f 106 152 151
f 107 153 108
f 107 150 154
f 107 154 153
f 108 153 154
f 108 154 155
f 108 155 156
f 108 156 152
f 109 115 119
f 109 119 157
f 109 157 158
f 109 158 110
f 113 151 152
f 113 152 159
f 113 159 160
f 113 160 114
f 114 160 161
f 114 161 120
f 114 120 119
f 114 119 115
f 116 118 117
f 116 162 118
f 118 162 163
f 119 123 157
f 120 161 164
f 120 164 121
f 121 164 165
f 121 165 166
f 121 166 167
f 121 167 124
f 124 167 125
f 125 167 127
f 127 168 169
f 127 169 170
f 127 170 128
f 127 167 168
f 128 170 136
f 128 136 129
f 130 135 144
f 131 140 171
f 131 171 132
f 132 171 133
f 133 171 134
f 134 171 172
f 134 172 173
f 134 173 174
f 134 174 144
f 134 144 135
f 136 170 137
f 137 175 138
f 137 170 175
f 138 175 176
f 138 176 177
f 138 177 178
f 138 178 139
f 139 178 179
f 139 179 180
f 139 180 140
f 140 180 173
f 140 173 171
f 141 145 142
f 142 145 181
f 144 182 145
f 144 174 173
f 144 173 183
f 144 183 182
f 145 182 181
f 146 184 147
f 147 184 185
f 147 185 186
f 147 186 148
f 148 186 185
f 148 185 187
f 148 187 188
f 148 188 189
f 148 189 190
f 148 190 154
f 148 154 150
f 148 150 149
f 152 160 159
f 152 156 191
f 152 191 192
f 152 192 160
f 154 193 155
f 154 190 194
f 154 194 193
f 155 193 156
f 156 193 191
f 160 192 161
f 161 192 164
f 162 195 196
f 162 196 163
f 164 192 197
f 164 197 198
f 164 198 165
f 165 198 166
f 166 198 199
f 166 199 168
f 166 168 167
f 168 199 169
f 169 199 200
f 169 200 201
f 169 201 175
f 169 175 170
f 171 173 172
f 173 180 179
f 173 179 202
f 173 202 203
f 173 203 204
f 173 204 205
f 173 205 206
f 173 206 207
f 173 207 183
f 175 201 176
f 176 201 208
f 176 208 177
f 177 209 210
f 177 210 211
f 177 211 212
f 177 212 213
f 177 213 214
f 177 214 215
f 177 215 216
f 177 216 217
f 177 217 178
f 177 208 218
f 177 218 209
f 178 217 179
f 179 217 219
f 179 219 220
f 179 220 202
f 181 182 221
f 182 183 221
f 183 207 222
f 183 222 223
f 183 223 224
f 183 224 221
f 184 225 226
f 184 226 185
f 185 226 227
f 185 227 187
f 187 227 188
f 188 228 189
f 188 227 229
f 188 229 230
f 188 230 231
f 188 231 232
f 188 232 228
f 189 233 190
f 189 228 233
f 190 233 194
f 191 193 234
f 191 234 235
f 191 235 192
f 192 235 236
f 192 236 197
f 193 194 234
f 194 233 237
f 194 237 238
f 194 238 239
f 194 239 235
f 194 235 234
f 195 240 196
f 196 240 241
f 196 241 271
f 196 271 249
f 196 249 276
f 196 276 275
f 196 275 274
f 196 274 247
f 196 247 205
f 196 205 204
f 196 204 246
f 196 246 245
f 196 245 220
f 196 220 219
f 196 219 217
f 196 217 216
f 196 216 215
f 196 215 214
f 196 214 213
f 196 213 212
f 196 212 211
f 196 211 253
f 196 253 280
f 196 280 279
f 196 279 288
f 196 288 269
f 196 269 268
f 196 268 286
f 196 286 285
f 196 285 261
f 196 261 260
f 196 260 257
f 196 257 229
f 196 229 256
f 196 256 284
f 196 284 273
f 196 273 242
f 197 236 243
f 197 243 198
f 198 243 199
f 199 243 200
f 200 243 244
f 200 244 201
f 201 244 208
f 202 220 245
f 202 245 203
f 203 245 246
f 203 246 204
f 205 247 248
f 205 248 206
f 206 248 249
f 206 249 207
f 207 249 222
f 208 244 218
f 209 250 251
f 209 251 210
f 209 218 252
f 209 252 250
f 210 251 211
f 211 251 253
f 218 244 254
f 218 254 252
f 225 255 227
f 225 227 226
f 227 255 256
f 227 256 229
f 228 232 233
f 229 257 230
f 230 257 231
f 231 258 259
f 231 259 232
f 231 257 260
f 231 260 261
f 231 261 258
f 232 259 233
f 233 259 237
f 235 239 262
f 235 262 263
f 235 263 236
f 236 263 264
f 236 264 254
f 236 254 243
f 237 259 258
f 237 258 238
f 238 265 266
f 238 266 239
f 238 258 267
f 238 267 268
f 238 268 269
f 238 269 265
f 239 266 262
f 240 270 241
f 241 270 271
f 242 273 272
f 243 254 244
f 247 274 248
f 248 274 275
f 248 275 276
f 248 276 249
f 250 277 278
f 250 278 251
f 250 252 277
f 251 279 280
f 251 280 253
f 251 278 279
f 252 254 264
f 252 264 281
f 252 281 282
f 252 282 283
f 252 283 277
f 255 272 256
f 256 272 284
f 258 261 285
f 258 285 286
f 258 286 267
f 262 266 263
f 263 266 287
f 263 287 264
f 264 287 281
f 265 282 266
f 265 269 282
f 266 282 287
f 267 286 268
f 269 288 282
f 272 273 284
f 277 283 278
f 278 283 282
f 278 282 279
f 279 282 288
f 281 287 282

