# https://github.com/mikedh/trimesh
v -0.03188603 -0.01951401 0.00350755
v -0.03188603 -0.01493096 0.00350755
v -0.02608778 -0.01951401 0.00350755
v -0.03188603 -0.01951401 0.04024050
v -0.03188603 -0.01463542 0.00357946
v -0.03161417 -0.01485502 0.00350755
v -0.02608778 -0.01501922 0.00350755
v -0.02608778 -0.01951401 0.03780985
v -0.02608778 -0.01925746 0.03790334
v -0.02608778 -0.01863558 0.03811548
v -0.02608778 -0.01744517 0.03848583
v -0.02608778 -0.01715989 0.03856853
v -0.02608778 -0.01602490 0.03885978
v -0.02608778 -0.01561852 0.03895326
v -0.02608778 -0.01542149 0.03897843
v -0.02609913 -0.01482218 0.03899641
v -0.03188603 -0.01482218 0.04020454
v -0.03188603 -0.01387191 0.00383475
v -0.03066406 -0.01469494 0.00350755
v -0.02700496 -0.01486528 0.00350755
v -0.03188603 -0.01155474 0.00503569
v -0.03188603 -0.01100264 0.00538087
v -0.03188603 -0.01005853 0.00600651
v -0.03188603 -0.00964599 0.00628697
v -0.03188603 -0.00895638 0.00677598
v -0.03188603 -0.00752174 0.00784388
v -0.02608778 -0.00834065 0.00852705
v -0.02608778 -0.01482218 0.03899281
v -0.02608778 -0.01477293 0.03899281
v -0.03188603 -0.01471341 0.04020094
v -0.02608778 -0.01355584 0.03895326
v -0.02962258 -0.01462310 0.00350755
v -0.03188603 -0.01323567 0.00411521
v -0.02807937 -0.01471546 0.00350755
v -0.03188603 -0.01167994 0.00496018
v -0.03188603 -0.00631697 0.00877515
v -0.02608778 -0.00829550 0.00856300
v -0.03188603 -0.01365231 0.04016139
v -0.02608778 -0.01334444 0.03893528
v -0.03188603 -0.01226693 0.00462219
v -0.03188603 -0.00564172 0.00935045
v -0.02608778 -0.00782960 0.00895133
v -0.03188603 -0.01269383 0.04005352
v -0.02608778 -0.01277798 0.03884180
v -0.03188603 -0.00543854 0.00954102
v -0.02608778 -0.00708252 0.00959854
v -0.03188603 -0.01241470 0.03999959
v -0.02608778 -0.01246806 0.03877708
v -0.03188603 -0.00505268 0.00990777
v -0.03188603 -0.00493364 0.01003362
v -0.03188603 -0.00451290 0.01049386
v -0.02608778 -0.00694090 0.00975675
v -0.03188603 -0.01157116 0.03981262
v -0.03188603 -0.01131461 0.03975149
v -0.02608778 -0.01131461 0.03842111
v -0.03188603 -0.00434254 0.01069521
v -0.02608778 -0.00643806 0.01035363
v -0.03188603 -0.01008521 0.03933799
v -0.02608778 -0.01057368 0.03812267
v -0.03188603 -0.00383149 0.01131007
v -0.02608778 -0.00631697 0.01050105
v -0.03188603 -0.00946538 0.03907911
v -0.02608778 -0.01026787 0.03799682
v -0.03188603 -0.00346206 0.01178109
v -0.02608778 -0.00602963 0.01086780
v -0.03188603 -0.00930939 0.03900720
v -0.02608778 -0.00970141 0.03771637
v -0.03188603 -0.00885376 0.03878427
v -0.03188603 -0.00332044 0.01196807
v -0.03188603 -0.00279297 0.01268719
v -0.02608778 -0.00561299 0.01143951
v -0.02608778 -0.00899332 0.03731365
v -0.03188603 -0.00779061 0.03820178
v -0.03188603 -0.00248100 0.01314743
v -0.02608778 -0.00546316 0.01165884
v -0.02608778 -0.00840428 0.03695409
v -0.03188603 -0.00694090 0.03769839
v -0.03188603 -0.00736986 0.03795727
v -0.02608778 -0.00495622 0.01240673
v -0.03188603 -0.00204794 0.01378745
v -0.02608778 -0.00814567 0.03679588
v -0.03188603 -0.00660431 0.03748984
v -0.02608778 -0.00466888 0.01285619
v -0.03188603 -0.00188375 0.01404634
v -0.02608778 -0.00451084 0.01310428
v -0.02608778 -0.00756073 0.03631407
v -0.03188603 -0.00572177 0.03687499
v -0.03188603 -0.00589417 0.03700083
v -0.03188603 -0.00147737 0.01470434
v -0.03188603 -0.00133575 0.01493446
v -0.02608778 -0.00404494 0.01387015
v -0.03188603 -0.00451290 0.03579990
v -0.03188603 -0.00514709 0.03637520
v -0.02608778 -0.00694296 0.03572798
v -0.02608778 -0.00372066 0.01442388
v -0.02608778 -0.00397311 0.01398881
v -0.03188603 -0.00072619 0.01609585
v -0.03188603 -0.00392180 0.03523538
v -0.02608778 -0.00635802 0.03515628
v -0.02608778 -0.00347027 0.01496682
v -0.03188603 -0.00057841 0.01640867
v -0.02608778 -0.00592085 0.03471401
v -0.02608778 -0.00578539 0.03457019
v -0.03188603 -0.00358315 0.03485065
v -0.02608778 -0.00338201 0.01520413
v -0.03188603 -0.00031365 0.01703071
v -0.02608778 -0.00520045 0.03390500
v -0.03188603 -0.00340459 0.03463851
v -0.02608778 -0.00303515 0.01617855
v -0.03188603 -0.00024592 0.01722847
v -0.02608778 -0.00423992 0.03274361
v -0.03188603 -0.00278886 0.03384387
v -0.02608778 -0.00368782 0.03206404
v -0.02608778 -0.00228602 0.01849054
v -0.03188603 -0.00011867 0.01763478
v -0.02608778 -0.00190017 0.01969867
v -0.03188603 -0.00094374 0.03137727
v -0.02608778 -0.00363446 0.03198853
v -0.03188603 0.00015225 0.01853728
v -0.02608778 -0.00145274 0.02114771
v -0.02608778 -0.00182628 0.01993598
v -0.03188603 -0.00032596 0.03048556
v -0.02608778 -0.00331223 0.03142761
v -0.03188603 0.00001884 0.02995340
v -0.03188603 0.00025282 0.01888965
v -0.02608778 -0.00137270 0.02142097
v -0.02608778 -0.00274576 0.03039566
v -0.02608778 -0.00243380 0.02980958
v -0.02608778 -0.00208283 0.02902213
v -0.03188603 0.00024871 0.02942485
v -0.03188603 0.00078850 0.02083129
v -0.02608778 -0.00132344 0.02164750
v -0.03188603 0.00110457 0.02200706
v -0.03188603 0.00136523 0.02317564
v -0.03188603 0.00039648 0.02906528
v -0.02608778 -0.00166004 0.02788591
v -0.02608778 -0.00123724 0.02205381
v -0.02608778 -0.00107715 0.02317564
v -0.02608778 -0.00119414 0.02230190
v -0.03188603 0.00145143 0.02439456
v -0.03188603 0.00126876 0.02567820
v -0.02608778 -0.00143632 0.02699420
v -0.02608778 -0.00106278 0.02346329
v -0.02608778 -0.00111204 0.02467861
v -0.02608778 -0.00108331 0.02434062
v -0.03188603 0.00130571 0.02543729
v -0.02608778 -0.00121056 0.02551640
v -0.02608778 -0.00135833 0.02654834
f 1 2 6
f 1 6 19
f 1 19 32
f 1 32 34
f 1 34 20
f 1 20 7
f 1 7 3
f 1 3 8
f 1 8 4
f 1 4 17
f 1 17 30
f 1 30 38
f 1 38 43
f 1 43 47
f 1 47 53
f 1 53 54
f 1 54 58
f 1 58 62
f 1 62 66
f 1 66 68
f 1 68 73
f 1 73 78
f 1 78 77
f 1 77 82
f 1 82 88
f 1 88 87
f 1 87 93
f 1 93 92
f 1 92 98
f 1 98 104
f 1 104 108
f 1 108 112
f 1 112 117
f 1 117 122
f 1 122 124
f 1 124 130
f 1 130 135
f 1 135 141
f 1 141 146
f 1 146 140
f 1 140 134
f 1 134 133
f 1 133 131
f 1 131 125
f 1 125 119
f 1 119 115
f 1 115 110
f 1 110 106
f 1 106 101
f 1 101 97
f 1 97 90
f 1 90 89
f 1 89 84
f 1 84 80
f 1 80 74
f 1 74 70
f 1 70 69
f 1 69 64
f 1 64 60
f 1 60 56
f 1 56 51
f 1 51 50
f 1 50 49
f 1 49 45
f 1 45 41
f 1 41 36
f 1 36 26
f 1 26 25
f 1 25 24
f 1 24 23
f 1 23 22
f 1 22 21
f 1 21 35
f 1 35 40
f 1 40 33
f 1 33 18
f 1 18 5
f 1 5 2
f 2 5 6
f 3 7 27
f 3 27 37
f 3 37 42
f 3 42 46
f 3 46 52
f 3 52 57
f 3 57 61
f 3 61 65
f 3 65 71
f 3 71 75
f 3 75 79
f 3 79 83
f 3 83 85
f 3 85 91
f 3 91 96
f 3 96 95
f 3 95 100
f 3 100 105
f 3 105 109
f 3 109 114
f 3 114 116
f 3 116 121
f 3 121 120
f 3 120 126
f 3 126 132
f 3 132 137
f 3 137 139
f 3 139 138
f 3 138 143
f 3 143 145
f 3 145 144
f 3 144 147
f 3 147 148
f 3 148 142
f 3 142 136
f 3 136 129
f 3 129 128
f 3 128 127
f 3 127 123
f 3 123 118
f 3 118 113
f 3 113 111
f 3 111 107
f 3 107 103
f 3 103 102
f 3 102 99
f 3 99 94
f 3 94 86
f 3 86 81
f 3 81 76
f 3 76 72
f 3 72 67
f 3 67 63
f 3 63 59
f 3 59 55
f 3 55 48
f 3 48 44
f 3 44 39
f 3 39 31
f 3 31 29
f 3 29 28
f 3 28 15
f 3 15 14
f 3 14 13
f 3 13 12
f 3 12 11
f 3 11 10
f 3 10 9
f 3 9 8
f 4 8 9
f 4 9 10
f 4 10 11
f 4 11 12
f 4 12 13
f 4 13 14
f 4 14 15
f 4 15 16
f 4 16 17
f 5 18 19
f 5 19 6
f 7 20 21
f 7 21 22
f 7 22 23
f 7 23 24
f 7 24 25
f 7 25 26
f 7 26 27
f 15 28 16
f 16 28 29
f 16 29 17
f 17 29 31
f 17 31 30
f 18 32 19
f 18 33 32
f 20 34 35
f 20 35 21
f 26 36 27
f 27 36 37
f 30 31 38
f 31 39 38
f 32 33 34
f 33 40 34
f 34 40 35
f 36 41 42
f 36 42 37
f 38 39 43
f 39 44 43
f 41 45 46
f 41 46 42
f 43 44 47
f 44 48 47
f 45 49 46
f 46 49 50
f 46 50 51
f 46 51 52
f 47 48 53
f 48 54 53
f 48 55 54
f 51 56 52
f 52 56 57
f 54 55 58
f 55 59 58
f 56 60 57
f 57 60 61
f 58 59 63
f 58 63 62
f 60 64 61
f 61 64 65
f 62 63 66
f 63 67 68
f 63 68 66
f 64 69 65
f 65 69 70
f 65 70 71
f 67 72 73
f 67 73 68
f 70 74 79
f 70 79 75
f 70 75 71
f 72 76 77
f 72 77 78
f 72 78 73
f 74 80 79
f 76 81 77
f 77 81 82
f 79 80 83
f 80 84 85
f 80 85 83
f 81 86 87
f 81 87 88
f 81 88 82
f 84 89 85
f 85 89 90
f 85 90 91
f 86 92 93
f 86 93 87
f 86 94 92
f 90 95 96
f 90 96 91
f 90 97 95
f 92 94 98
f 94 99 98
f 95 97 101
f 95 101 100
f 98 99 102
f 98 102 103
f 98 103 104
f 100 101 106
f 100 106 105
f 103 107 104
f 104 107 108
f 105 106 109
f 106 110 109
f 107 111 108
f 108 111 113
f 108 113 112
f 109 110 114
f 110 115 116
f 110 116 114
f 112 113 117
f 113 118 117
f 115 119 120
f 115 120 121
f 115 121 116
f 117 118 122
f 118 123 124
f 118 124 122
f 119 125 126
f 119 126 120
f 123 127 124
f 124 127 128
f 124 128 129
f 124 129 130
f 125 131 126
f 126 131 133
f 126 133 134
f 126 134 132
f 129 135 130
f 129 136 135
f 132 134 137
f 134 138 139
f 134 139 137
f 134 140 138
f 135 136 141
f 136 142 141
f 138 140 143
f 140 144 145
f 140 145 143
f 140 146 147
f 140 147 144
f 141 142 148
f 141 148 146
f 146 148 147

