# https://github.com/mikedh/trimesh
v 0.03766756 0.01183749 0.00810129
v 0.03073374 0.02539376 0.00810129
v 0.04225619 0.01183749 0.00810129
v 0.03780544 0.01183749 0.07760492
v 0.03086146 0.02539376 0.07725788
v 0.03617229 0.02539376 0.00810129
v 0.04220194 0.01202859 0.00810129
v 0.04227880 0.01183749 0.07760492
v 0.03086598 0.02538845 0.07760492
v 0.03112254 0.02539376 0.07760492
v 0.03623559 0.02530352 0.00810129
v 0.03617342 0.02539376 0.07760492
v 0.04188435 0.01313273 0.00810129
v 0.04156564 0.01430987 0.07760492
v 0.03629323 0.02522124 0.00810129
v 0.03629210 0.02522256 0.07760492
v 0.03629323 0.02522124 0.07644131
v 0.04154303 0.01430987 0.00810129
v 0.04128647 0.01519371 0.07760492
v 0.04151704 0.01439480 0.00810129
v 0.04127291 0.01517513 0.00810129
v 0.03633052 0.02516417 0.00810129
v 0.03667976 0.02463466 0.07760492
v 0.04106947 0.01577631 0.07760492
v 0.04107965 0.01570597 0.00810129
v 0.03667071 0.02463334 0.00810129
v 0.03723808 0.02372958 0.07760492
v 0.04072589 0.01667475 0.07760492
v 0.04102540 0.01585062 0.00810129
v 0.03722565 0.02372029 0.00810129
v 0.03724373 0.02372029 0.07760492
v 0.04027268 0.01784525 0.07760492
v 0.04071346 0.01666281 0.00810129
v 0.03757262 0.02313903 0.00810129
v 0.03762348 0.02308594 0.07760492
v 0.04002290 0.01847296 0.07760492
v 0.04066825 0.01677826 0.00810129
v 0.04024895 0.01783861 0.00810129
v 0.04022521 0.01789833 0.00810129
v 0.03796028 0.02248742 0.00810129
v 0.03796480 0.02250335 0.07760492
v 0.03920124 0.02019818 0.07760492
v 0.04000595 0.01844908 0.00810129
v 0.03973244 0.01903565 0.00810129
v 0.03967932 0.01914846 0.00810129
v 0.03918655 0.02019022 0.00810129
v 0.03849148 0.02155049 0.00810129
v 0.03855590 0.02145627 0.07760492
v 0.03887575 0.02087367 0.07760492
v 0.03915491 0.02025658 0.00810129
v 0.03854912 0.02144831 0.00810129
v 0.03886218 0.02086041 0.00810129
v 0.03857963 0.02139124 0.00810129
f 1 2 6
f 1 6 11
f 1 11 15
f 1 15 22
f 1 22 26
f 1 26 30
f 1 30 34
f 1 34 40
f 1 40 47
f 1 47 51
f 1 51 53
f 1 53 52
f 1 52 50
f 1 50 46
f 1 46 45
f 1 45 44
f 1 44 43
f 1 43 39
f 1 39 38
f 1 38 37
f 1 37 33
f 1 33 29
f 1 29 25
f 1 25 21
f 1 21 20
f 1 20 18
f 1 18 13
f 1 13 7
f 1 7 3
f 1 3 8
f 1 8 4
f 1 4 5
f 1 5 2
f 2 5 10
f 2 10 12
f 2 12 6
f 3 7 8
f 4 8 14
f 4 14 19
f 4 19 24
f 4 24 28
f 4 28 32
f 4 32 36
f 4 36 42
f 4 42 49
f 4 49 48
f 4 48 41
f 4 41 35
f 4 35 31
f 4 31 27
f 4 27 23
f 4 23 16
f 4 16 12
f 4 12 10
f 4 10 9
f 4 9 5
f 5 9 10
f 6 12 11
f 7 13 8
f 8 13 14
f 11 12 15
f 12 16 17
f 12 17 15
f 13 18 14
f 14 18 20
f 14 20 21
f 14 21 19
f 15 17 23
f 15 23 22
f 16 23 17
f 19 21 25
f 19 25 24
f 22 23 26
f 23 27 26
f 24 25 29
f 24 29 28
f 26 27 31
f 26 31 30
f 28 29 33
f 28 33 32
f 30 31 35
f 30 35 34
f 32 33 37
f 32 37 38
f 32 38 39
f 32 39 36
f 34 35 40
f 35 41 40
f 36 39 43
f 36 43 44
f 36 44 45
f 36 45 46
f 36 46 42
f 40 41 47
f 41 48 47
f 42 46 50
f 42 50 49
f 47 48 51
f 48 49 51
f 49 50 52
f 49 52 53
f 49 53 51

