# https://github.com/mikedh/trimesh
v -0.02113149 0.05765462 0.00360617
v -0.01995871 0.05764322 0.00360617
v -0.02113149 0.05754822 0.00330555
v -0.02229974 0.05752542 0.00330555
v -0.02229974 0.05762422 0.00360617
v -0.01909384 0.05760902 0.00360617
v -0.01995871 0.05753302 0.00330555
v -0.02113149 0.05718722 0.00250971
v -0.02229974 0.05718342 0.00252223
v -0.01995871 0.05718342 0.00250658
v -0.02346799 0.05743802 0.00330555
v -0.02259860 0.05760902 0.00360617
v -0.01879046 0.05748362 0.00330555
v -0.01675282 0.05748362 0.00360617
v -0.01645396 0.05736582 0.00330555
v -0.01580191 0.05708842 0.00268999
v -0.01995871 0.05685662 0.00192189
v -0.02229974 0.05681102 0.00193799
v -0.02346799 0.05675782 0.00203238
v -0.02346799 0.05713022 0.00261707
v -0.02113149 0.05684142 0.00192502
v -0.01879046 0.05683762 0.00196976
v -0.02500755 0.05705042 0.00276425
v -0.02697274 0.05719862 0.00360215
v -0.02580449 0.05731642 0.00360617
v -0.02499396 0.05739622 0.00360617
v -0.02376685 0.05751402 0.00360617
v -0.02346799 0.05754062 0.00360617
v -0.01645396 0.05746462 0.00360617
v -0.01536269 0.05725562 0.00327871
v -0.01470158 0.05723282 0.00345452
v -0.01470158 0.05695162 0.00292620
v -0.01470158 0.05675402 0.00260231
v -0.01470158 0.05646522 0.00213125
v -0.01470158 0.05619922 0.00174965
v -0.01470158 0.05598642 0.00144814
v -0.01528571 0.05604343 0.00138372
v -0.01645396 0.05615362 0.00127010
v -0.01645396 0.05673502 0.00208204
v -0.01995871 0.05627142 0.00113991
v -0.01879046 0.05625242 0.00113947
v -0.02229974 0.05622583 0.00119270
v -0.02346799 0.05617263 0.00122670
v -0.02463624 0.05612322 0.00128217
v -0.02113149 0.05625622 0.00115647
v -0.02462266 0.05676542 0.00223593
v -0.01762221 0.05619922 0.00118331
v -0.02580449 0.05655262 0.00213617
v -0.02697274 0.05692882 0.00301745
v -0.02774705 0.05709602 0.00360617
v -0.02698180 0.05719862 0.00360617
v -0.01534005 0.05735822 0.00360617
v -0.01479215 0.05729362 0.00360617
v -0.01470158 0.05728222 0.00360617
v -0.01470158 0.05543543 0.00086211
v -0.01528571 0.05549622 0.00079948
v -0.01645396 0.05557222 0.00068585
v -0.01762221 0.05563682 0.00059862
v -0.01995871 0.05566723 0.00055522
v -0.01879046 0.05567862 0.00055522
v -0.02346799 0.05559123 0.00064201
v -0.02463624 0.05552283 0.00069748
v -0.02835834 0.05471343 0.00039865
v -0.02580449 0.05604343 0.00138014
v -0.02113149 0.05564443 0.00057222
v -0.02229974 0.05562163 0.00060846
v -0.02704972 0.05629802 0.00203104
v -0.02931377 0.05613082 0.00234285
v -0.02823608 0.05687942 0.00332613
v -0.02800968 0.05705422 0.00360617
v -0.01470158 0.05380903 0.00360617
v -0.01470158 0.05506683 0.00049841
v -0.01528571 0.05491103 0.00025192
v -0.01645396 0.05498703 0.00020360
v -0.01879046 0.05509723 0.00016603
v -0.01995871 0.05508203 0.00016827
v -0.02113149 0.05505923 0.00017676
v -0.02229974 0.05503643 0.00018526
v -0.01762221 0.05505163 0.00018437
v -0.02346799 0.05500603 0.00021255
v -0.02463624 0.05494143 0.00025058
v -0.02580449 0.05486163 0.00028771
v -0.02804137 0.05425363 0.00012308
v -0.02931377 0.05398763 0.00014321
v -0.03281852 0.05285524 0.00010563
v -0.03398677 0.05266144 0.00021479
v -0.02931377 0.05457283 0.00050199
v -0.03048202 0.05506303 0.00124504
v -0.02931377 0.05516563 0.00108668
v -0.02697274 0.05414723 -0.00004154
v -0.02671011 0.05596743 0.00147632
v -0.02931377 0.05575083 0.00175861
v -0.03048202 0.05564822 0.00193665
v -0.03048202 0.05600923 0.00252134
v -0.02845343 0.05696682 0.00360617
v -0.03048202 0.05639682 0.00330555
v -0.01762221 0.02843274 0.00358604
v -0.01470158 0.02726235 0.00349478
v -0.05682652 0.01883398 0.00360617
v -0.01470158 0.05485023 0.00029621
v -0.01528571 0.05414723 -0.00014086
v -0.01645396 0.05414723 -0.00023927
v -0.01470158 0.05460703 0.00017095
v -0.01470158 0.05419663 -0.00004020
v -0.01879046 0.05414723 -0.00027461
v -0.01995871 0.05414723 -0.00028043
v -0.02113149 0.05414723 -0.00027954
v -0.02229974 0.05414723 -0.00027819
v -0.01762221 0.05414723 -0.00026477
v -0.02346799 0.05414723 -0.00025404
v -0.02580449 0.05414723 -0.00011983
v -0.02814552 0.05298064 -0.00046206
v -0.02931377 0.05298064 -0.00033546
v -0.03281852 0.05181024 -0.00038601
v -0.03398677 0.05181024 -0.00021512
v -0.03798509 0.05119464 0.00040670
v -0.03477919 0.05249044 0.00031902
v -0.03398677 0.05324283 0.00064648
v -0.03281852 0.05343663 0.00048365
v -0.03165027 0.05486923 0.00141190
v -0.02697274 0.05298064 -0.00055063
v -0.03229326 0.05475523 0.00152822
v -0.03273702 0.05505543 0.00210754
v -0.03158688 0.05550762 0.00223504
v -0.03193554 0.05583823 0.00289041
v -0.03048202 0.05651842 0.00360617
v -0.03158688 0.05609663 0.00329034
v -0.02346799 0.02025138 0.00355607
v -0.01528571 0.01883398 0.00341202
v -0.01470158 0.02667715 0.00349209
v -0.02371251 0.01883398 0.00347644
v -0.06096068 0.01883398 0.00360617
v -0.01470158 0.05356583 -0.00030862
v -0.01645396 0.05299204 -0.00064413
v -0.01762221 0.05306044 -0.00065084
v -0.01470158 0.05292744 -0.00053900
v -0.02113149 0.05308324 -0.00065755
v -0.02346799 0.05305284 -0.00066829
v -0.01879046 0.05310224 -0.00064189
v -0.02463624 0.05304903 -0.00063250
v -0.03107973 0.05122884 -0.00078728
v -0.03154160 0.05169624 -0.00057211
v -0.03395055 0.05055625 -0.00064771
v -0.03515955 0.05063985 -0.00045445
v -0.03865978 0.04947325 -0.00022854
v -0.03755945 0.05073865 0.00007835
v -0.03865978 0.05040425 0.00017542
v -0.03944314 0.05016485 0.00030963
v -0.04022197 0.04992545 0.00046710
v -0.04100080 0.05037765 0.00125220
v -0.03865978 0.05163544 0.00116183
v -0.03727418 0.05258924 0.00136941
v -0.03632780 0.05281344 0.00117123
v -0.03491051 0.05369503 0.00140564
v -0.03398677 0.05385464 0.00123073
v -0.02575921 0.05287424 -0.00063652
v -0.02533810 0.05241444 -0.00079131
v -0.03568934 0.05353923 0.00158279
v -0.03398677 0.05488443 0.00252313
v -0.03232043 0.05599782 0.00360617
v -0.03284116 0.05571282 0.00329034
v -0.03253325 0.05593322 0.00360617
v -0.03160499 0.05620682 0.00360617
v -0.02020776 0.01883398 0.00345944
v -0.01995871 0.01908098 0.00347152
v -0.01995871 0.01883398 0.00345765
v -0.01470158 0.01883398 0.00337891
v -0.01470158 0.01966238 0.00339234
v -0.06095162 0.01908098 0.00360617
v -0.06085653 0.01883398 0.00330555
v -0.01538986 0.05286664 -0.00060879
v -0.01584719 0.05240304 -0.00078818
v -0.01762221 0.05247524 -0.00080965
v -0.01879046 0.05251704 -0.00082217
v -0.01470158 0.05246004 -0.00067187
v -0.02463624 0.05246384 -0.00080294
v -0.03048202 0.05126685 -0.00079668
v -0.03048202 0.05063985 -0.00085886
v -0.03154160 0.05060945 -0.00082754
v -0.03353849 0.05011165 -0.00079802
v -0.03515955 0.04968605 -0.00072107
v -0.03629611 0.04940105 -0.00064547
v -0.03749605 0.04947325 -0.00045714
v -0.03982803 0.04830286 -0.00036319
v -0.04333731 0.04596587 -0.00038645
v -0.04450556 0.04596587 -0.00007107
v -0.04216906 0.04812426 0.00018347
v -0.04292072 0.04788866 0.00030873
v -0.04216906 0.04870945 0.00048633
v -0.04307468 0.04913505 0.00128754
v -0.04214641 0.04950365 0.00111084
v -0.04173889 0.05016105 0.00145753
v -0.03951559 0.05139605 0.00139714
v -0.03804848 0.05238024 0.00156759
v -0.03632780 0.05339863 0.00175413
v -0.03760926 0.05304524 0.00206862
v -0.03716550 0.05368363 0.00256965
v -0.03460260 0.05474383 0.00269939
v -0.03398677 0.05527963 0.00330555
v -0.03549463 0.05482363 0.00360617
v -0.03301323 0.05576983 0.00360617
v -0.01470158 0.01883398 0.00071627
v -0.06093804 0.01938118 0.00360617
v -0.06084748 0.01908098 0.00330555
v -0.06077503 0.01883398 0.00311721
v -0.01645396 0.05181024 -0.00087407
v -0.01762221 0.05181024 -0.00089733
v -0.01470158 0.05217124 -0.00073897
v -0.01470158 0.05195084 -0.00078505
v -0.01470158 0.05165824 -0.00084589
v -0.01879046 0.05181024 -0.00090404
v -0.02814552 0.05063985 -0.00089733
v -0.03048202 0.04947325 -0.00092641
v -0.03165027 0.04947325 -0.00089912
v -0.03629611 0.04831046 -0.00083783
v -0.03395055 0.04948085 -0.00083023
v -0.03588405 0.04896405 -0.00080025
v -0.03666288 0.04870186 -0.00075999
v -0.03759114 0.04831046 -0.00072063
v -0.03865978 0.04830286 -0.00056316
v -0.04100080 0.04713246 -0.00049248
v -0.04333731 0.04479547 -0.00065129
v -0.04450556 0.04479547 -0.00042269
v -0.04509421 0.04655487 0.00037986
v -0.04450556 0.04672586 0.00026221
v -0.04684206 0.04245848 -0.00045221
v -0.04684206 0.04362508 -0.00008717
v -0.04744882 0.04422927 0.00037315
v -0.04252225 0.04991405 0.00172729
v -0.04520741 0.04782026 0.00145709
v -0.04208755 0.05059425 0.00219746
v -0.04100080 0.05095905 0.00186149
v -0.04029895 0.05115664 0.00162798
v -0.03865978 0.05221684 0.00174518
v -0.03865978 0.05271844 0.00232987
v -0.03943408 0.05250184 0.00257323
v -0.03793981 0.05349744 0.00287967
v -0.03604253 0.05460703 0.00360617
v -0.01470158 0.04889185 -0.00091567
v -0.05338517 0.01883398 -0.00077431
v -0.06088823 0.02025138 0.00360617
v -0.06078409 0.02025138 0.00330555
v -0.06045806 0.01908098 0.00243813
v -0.06046259 0.01883398 0.00243187
v -0.01470158 0.05118324 -0.00089375
v -0.01470158 0.05063985 -0.00094341
v -0.01528571 0.05063985 -0.00095101
v -0.01645396 0.05063985 -0.00096354
v -0.01762221 0.05063985 -0.00096220
v -0.04567381 0.03895110 -0.00092283
v -0.03749605 0.04596587 -0.00091343
v -0.03632780 0.04713246 -0.00091031
v -0.03865978 0.04596587 -0.00090091
v -0.03759114 0.04723886 -0.00085886
v -0.03865978 0.04688546 -0.00083291
v -0.03804395 0.04769866 -0.00078326
v -0.03980538 0.04706406 -0.00068573
v -0.04333731 0.04399748 -0.00076357
v -0.04403463 0.04317668 -0.00079981
v -0.04563758 0.04239768 -0.00069155
v -0.04017669 0.04632687 -0.00076492
v -0.04642094 0.04668786 0.00142711
v -0.04554249 0.04701086 0.00105313
v -0.04791974 0.04470807 0.00100973
v -0.04879820 0.04440787 0.00139446
v -0.04761184 0.04555547 0.00140341
v -0.04793333 0.04004169 -0.00066918
v -0.04801484 0.04128809 -0.00042314
v -0.04918309 0.04128809 -0.00006257
v -0.04977174 0.04188088 0.00037897
v -0.04303845 0.05024465 0.00250658
v -0.04719978 0.04633447 0.00178992
v -0.04598625 0.04746686 0.00183644
v -0.04555607 0.04820026 0.00225785
v -0.04512590 0.04891845 0.00267970
v -0.04381729 0.04999005 0.00283046
v -0.04165285 0.05126304 0.00266807
v -0.03986878 0.05183304 0.00210083
v -0.04021744 0.05227004 0.00292798
v -0.03982803 0.05269184 0.00331271
v -0.04038498 0.05253984 0.00360617
v -0.03830205 0.05359624 0.00360617
v -0.03814810 0.05367224 0.00360617
v -0.03753228 0.05383943 0.00328363
v -0.03752322 0.05395723 0.00360617
v -0.01470158 0.04947325 -0.00094386
v -0.05354365 0.01883398 -0.00077923
v -0.06057126 0.02375876 0.00360617
v -0.06051693 0.02375876 0.00346749
v -0.06036297 0.02121657 0.00259023
v -0.06040825 0.02025138 0.00249897
v -0.06004600 0.02025138 0.00191428
v -0.06006412 0.01908098 0.00185344
v -0.06006864 0.01883398 0.00184763
v -0.01470158 0.05006225 -0.00094878
v -0.05410513 0.01883398 -0.00079220
v -0.05439493 0.01883398 -0.00079220
v -0.05451266 0.01883398 -0.00079176
v -0.05268784 0.02726235 -0.00083559
v -0.05035134 0.03194013 -0.00086378
v -0.05035134 0.03311052 -0.00085573
v -0.05009776 0.03544751 -0.00082888
v -0.04684206 0.03895110 -0.00088122
v -0.04567381 0.04012149 -0.00088391
v -0.04450556 0.04128809 -0.00088212
v -0.04333731 0.04245848 -0.00087317
v -0.03939786 0.04662706 -0.00079936
v -0.04445575 0.04239768 -0.00082262
v -0.04522100 0.04196828 -0.00079712
v -0.04599983 0.04154649 -0.00076223
v -0.04957703 0.04401268 0.00178365
v -0.04839067 0.04518687 0.00179350
v -0.04994834 0.04323368 0.00138999
v -0.04749411 0.03960089 -0.00079399
v -0.04987589 0.03625311 -0.00080965
v -0.05030153 0.03663311 -0.00066918
v -0.04918309 0.03895110 -0.00056092
v -0.04918309 0.04012149 -0.00036275
v -0.05151959 0.03778450 -0.00008852
v -0.05217164 0.03845710 0.00034542
v -0.04998003 0.04128809 0.00027473
v -0.05056416 0.04128809 0.00065230
v -0.05103961 0.04201008 0.00145217
v -0.05024719 0.04233688 0.00103210
v -0.04755750 0.04666506 0.00256921
v -0.04635302 0.04780126 0.00261573
v -0.04658396 0.04800646 0.00330555
v -0.04591833 0.04859166 0.00330555
v -0.04533420 0.04908946 0.00330555
v -0.04412067 0.05021425 0.00360617
v -0.04302939 0.05101224 0.00360617
v -0.04273054 0.05120984 0.00360617
v -0.04243169 0.05102365 0.00302103
v -0.04052988 0.05246004 0.00360617
v -0.04249961 0.05134664 0.00360617
v -0.06043089 0.02448076 0.00360617
v -0.06024071 0.02539656 0.00360617
v -0.06000525 0.02604635 0.00339592
v -0.06009129 0.02492536 0.00310737
v -0.06020449 0.02375876 0.00288280
v -0.05971545 0.02375876 0.00213617
v -0.05921736 0.02375876 0.00144635
v -0.05946188 0.02025138 0.00120389
v -0.05994639 0.01883398 0.00170313
v -0.05492925 0.01883398 -0.00075597
v -0.05468020 0.02400956 -0.00080249
v -0.05468020 0.02445796 -0.00080249
v -0.05268784 0.02843274 -0.00083425
v -0.05343045 0.02843274 -0.00081681
v -0.05209013 0.03249112 -0.00078505
v -0.05334441 0.02917754 -0.00080070
v -0.05072717 0.04278908 0.00182213
v -0.05030605 0.04357568 0.00219253
v -0.04988494 0.04431667 0.00256294
v -0.05146978 0.03432652 -0.00071794
v -0.05035134 0.03778450 -0.00047145
v -0.05151959 0.03544751 -0.00056092
v -0.05268784 0.03544751 -0.00024598
v -0.05263803 0.03888270 0.00098782
v -0.05343498 0.03628351 0.00028234
v -0.05294594 0.03778450 0.00063038
v -0.05339422 0.03852930 0.00142667
v -0.05319499 0.04058509 0.00285149
v -0.04779749 0.04689686 0.00330555
v -0.04717261 0.04748206 0.00330555
v -0.05084943 0.04411908 0.00360617
v -0.04600888 0.04867145 0.00360617
v -0.04726317 0.04756566 0.00360617
v -0.06014562 0.02584875 0.00360617
v -0.06007770 0.02615655 0.00360617
v -0.05964300 0.02726235 0.00330555
v -0.05923547 0.02726235 0.00256921
v -0.05938943 0.02609575 0.00235358
v -0.05944830 0.02487976 0.00207175
v -0.05914944 0.02445796 0.00151793
v -0.05844758 0.02379296 0.00077979
v -0.05882342 0.02025138 0.00061920
v -0.05773215 0.02609575 0.00053912
v -0.05785440 0.02492536 0.00044831
v -0.05948452 0.01883398 0.00116944
v -0.05887776 0.01883398 0.00058520
v -0.05935773 0.01883398 0.00104687
v -0.05506962 0.01883398 -0.00074344
v -0.05510132 0.01908098 -0.00074165
v -0.05505151 0.02367516 -0.00074523
v -0.05505151 0.02487976 -0.00070452
v -0.05349837 0.02726235 -0.00082039
v -0.05268784 0.03311052 -0.00058239
v -0.05378364 0.02958034 -0.00067589
v -0.05385609 0.03076973 -0.00054079
v -0.05101244 0.04313868 0.00260141
v -0.05066378 0.04391768 0.00309172
v -0.05268784 0.03427712 -0.00045087
v -0.05502887 0.03076973 -0.00016501
v -0.05396476 0.03437212 0.00006358
v -0.05367497 0.03544751 0.00016424
v -0.05442663 0.03482811 0.00039507
v -0.05425909 0.03544751 0.00052883
v -0.05391948 0.03671291 0.00089655
v -0.05362515 0.03778450 0.00121507
v -0.05464851 0.03635951 0.00134436
v -0.05440399 0.03714230 0.00159443
v -0.05420928 0.03778450 0.00184986
v -0.05468020 0.03778450 0.00243411
v -0.05446738 0.03840390 0.00268552
v -0.05551337 0.03702831 0.00292217
v -0.05437229 0.03942609 0.00360617
v -0.05411872 0.03981749 0.00360617
v -0.05339875 0.04086629 0.00360617
v -0.05106677 0.04384548 0.00360617
v -0.04846764 0.04641806 0.00360617
v -0.05976074 0.02725855 0.00360617
v -0.05924000 0.02903314 0.00360617
v -0.05902718 0.02866834 0.00290830
v -0.05823477 0.02952334 0.00211291
v -0.05797213 0.02908254 0.00152822
v -0.05894115 0.02609575 0.00176889
v -0.05835702 0.02609575 0.00112381
v -0.05800383 0.02342816 0.00034497
v -0.05823929 0.02025138 0.00019287
v -0.05714802 0.02609575 0.00017184
v -0.05741518 0.02952334 0.00113678
v -0.05664993 0.02960314 0.00046620
v -0.05675407 0.02891154 0.00039955
v -0.05828457 0.01908098 0.00016737
v -0.05829363 0.01883398 0.00017095
v -0.05619712 0.01883398 -0.00055421
v -0.05619712 0.02025138 -0.00056003
v -0.05619712 0.02375876 -0.00047234
v -0.05619712 0.02492536 -0.00041285
v -0.05502887 0.02960314 -0.00030772
v -0.05619712 0.02609575 -0.00026656
v -0.05619712 0.02726235 -0.00011580
v -0.05606580 0.02960314 0.00015619
v -0.05586656 0.03076973 0.00023716
v -0.05459417 0.03404912 0.00029084
v -0.05503339 0.03533731 0.00119718
v -0.05570356 0.03152593 0.00031723
v -0.05645069 0.03076973 0.00063977
v -0.05692614 0.03171593 0.00140967
v -0.05676766 0.03249872 0.00156579
v -0.05561752 0.03487752 0.00154477
v -0.05542734 0.03565651 0.00178231
v -0.05507868 0.03669391 0.00207801
v -0.05572619 0.03624931 0.00256160
v -0.05573978 0.03716891 0.00360617
v -0.05566733 0.03730190 0.00360617
v -0.05671785 0.03470652 0.00287296
v -0.05919925 0.02915854 0.00360617
v -0.05797666 0.03143473 0.00267389
v -0.05768234 0.03076973 0.00192547
v -0.05783629 0.02986154 0.00170761
v -0.05709821 0.03076973 0.00122447
v -0.05727028 0.02492536 0.00009892
v -0.05736537 0.02025138 -0.00021556
v -0.05736537 0.01908098 -0.00022988
v -0.05736537 0.01883398 -0.00022630
v -0.05712085 0.01883398 -0.00029788
v -0.05575336 0.03427712 0.00140341
v -0.05737895 0.03196673 0.00211962
v -0.05704840 0.03311052 0.00233972
v -0.05687180 0.03392752 0.00258844
v -0.05638730 0.03429992 0.00217375
v -0.05588015 0.03533731 0.00215764
v -0.05686275 0.03501051 0.00360617
v -0.05783176 0.03221373 0.00293201
v -0.05800836 0.03262032 0.00360617
v -0.05813062 0.03187173 0.00331494
f 1 2 3
f 1 3 4
f 1 4 5
f 1 5 12
f 1 12 28
f 1 28 27
f 1 27 26
f 1 26 25
f 1 25 51
f 1 51 50
f 1 50 70
f 1 70 95
f 1 95 126
f 1 126 163
f 1 163 160
f 1 160 162
f 1 162 201
f 1 201 200
f 1 200 238
f 1 238 285
f 1 285 283
f 1 283 282
f 1 282 281
f 1 281 334
f 1 334 335
f 1 335 332
f 1 332 331
f 1 331 330
f 1 330 367
f 1 367 368
f 1 368 411
f 1 411 366
f 1 366 410
f 1 410 409
f 1 409 408
f 1 408 407
f 1 407 447
f 1 447 446
f 1 446 465
f 1 465 467
f 1 467 449
f 1 449 413
f 1 413 412
f 1 412 370
f 1 370 369
f 1 369 337
f 1 337 336
f 1 336 288
f 1 288 241
f 1 241 203
f 1 203 169
f 1 169 132
f 1 132 99
f 1 99 71
f 1 71 54
f 1 54 53
f 1 53 52
f 1 52 29
f 1 29 14
f 1 14 6
f 1 6 2
f 2 6 7
f 2 7 3
f 3 8 9
f 3 9 4
f 3 7 10
f 3 10 8
f 4 9 11
f 4 11 12
f 4 12 5
f 6 13 7
f 6 14 15
f 6 15 13
f 7 13 16
f 7 16 10
f 8 10 17
f 8 17 9
f 9 18 19
f 9 19 20
f 9 20 11
f 9 17 21
f 9 21 18
f 10 22 17
f 10 16 22
f 11 20 23
f 11 23 24
f 11 24 25
f 11 25 26
f 11 26 27
f 11 27 28
f 11 28 12
f 13 15 16
f 14 29 15
f 15 29 30
f 15 30 16
f 16 30 31
f 16 31 32
f 16 32 33
f 16 33 34
f 16 34 35
f 16 35 36
f 16 36 37
f 16 37 38
f 16 38 39
f 16 39 22
f 17 40 21
f 17 22 41
f 17 41 40
f 18 42 43
f 18 43 44
f 18 44 19
f 18 21 45
f 18 45 42
f 19 44 46
f 19 46 20
f 20 46 23
f 21 40 45
f 22 39 47
f 22 47 41
f 23 46 48
f 23 48 49
f 23 49 24
f 24 49 50
f 24 50 51
f 24 51 25
f 29 52 30
f 30 52 53
f 30 53 31
f 31 53 54
f 31 54 71
f 31 71 98
f 31 98 130
f 31 130 168
f 31 168 167
f 31 167 202
f 31 202 239
f 31 239 286
f 31 286 295
f 31 295 246
f 31 246 245
f 31 245 210
f 31 210 209
f 31 209 208
f 31 208 175
f 31 175 136
f 31 136 133
f 31 133 104
f 31 104 103
f 31 103 100
f 31 100 72
f 31 72 55
f 31 55 36
f 31 36 35
f 31 35 34
f 31 34 33
f 31 33 32
f 36 55 56
f 36 56 37
f 37 56 38
f 38 57 58
f 38 58 47
f 38 47 39
f 38 56 57
f 40 59 45
f 40 41 60
f 40 60 59
f 41 47 58
f 41 58 60
f 42 61 43
f 42 45 61
f 43 61 44
f 44 62 63
f 44 63 64
f 44 64 48
f 44 48 46
f 44 61 62
f 45 65 66
f 45 66 61
f 45 59 65
f 48 64 67
f 48 67 49
f 49 67 68
f 49 68 69
f 49 69 70
f 49 70 50
f 55 72 56
f 56 73 57
f 56 72 73
f 57 73 58
f 58 73 74
f 58 74 60
f 59 60 75
f 59 75 76
f 59 76 77
f 59 77 78
f 59 78 65
f 60 74 79
f 60 79 75
f 61 80 81
f 61 81 82
f 61 82 63
f 61 63 62
f 61 66 80
f 63 83 84
f 63 84 85
f 63 85 86
f 63 86 87
f 63 87 88
f 63 88 89
f 63 89 64
f 63 82 90
f 63 90 83
f 64 91 67
f 64 89 91
f 65 78 80
f 65 80 66
f 67 92 68
f 67 91 92
f 68 92 93
f 68 93 94
f 68 94 69
f 69 95 70
f 69 94 96
f 69 96 95
f 71 97 98
f 71 99 97
f 72 100 73
f 73 101 102
f 73 102 74
f 73 100 103
f 73 103 104
f 73 104 101
f 74 102 79
f 75 105 106
f 75 106 107
f 75 107 108
f 75 108 76
f 75 79 102
f 75 102 109
f 75 109 105
f 76 108 77
f 77 108 78
f 78 108 110
f 78 110 80
f 80 110 111
f 80 111 81
f 81 111 90
f 81 90 82
f 83 112 113
f 83 113 84
f 83 90 112
f 84 113 85
f 85 114 115
f 85 115 86
f 85 113 114
f 86 115 116
f 86 116 117
f 86 117 118
f 86 118 119
f 86 119 87
f 87 119 88
f 88 119 118
f 88 118 120
f 88 120 93
f 88 93 92
f 88 92 89
f 89 92 91
f 90 111 121
f 90 121 112
f 93 120 122
f 93 122 123
f 93 123 124
f 93 124 125
f 93 125 94
f 94 125 96
f 95 96 126
f 96 125 127
f 96 127 126
f 97 128 129
f 97 129 130
f 97 130 98
f 97 99 128
f 99 131 128
f 99 132 170
f 99 170 205
f 99 205 244
f 99 244 294
f 99 294 344
f 99 344 380
f 99 380 382
f 99 382 381
f 99 381 426
f 99 426 457
f 99 457 458
f 99 458 427
f 99 427 383
f 99 383 345
f 99 345 298
f 99 298 297
f 99 297 296
f 99 296 287
f 99 287 240
f 99 240 202
f 99 202 167
f 99 167 129
f 99 129 166
f 99 166 164
f 99 164 131
f 101 104 133
f 101 133 102
f 102 134 135
f 102 135 109
f 102 133 136
f 102 136 134
f 105 109 135
f 105 135 106
f 106 137 138
f 106 138 107
f 106 135 139
f 106 139 137
f 107 138 108
f 108 138 110
f 110 138 140
f 110 140 121
f 110 121 111
f 112 121 141
f 112 141 142
f 112 142 113
f 113 142 114
f 114 142 141
f 114 141 143
f 114 143 144
f 114 144 115
f 115 144 145
f 115 145 146
f 115 146 116
f 116 146 147
f 116 147 148
f 116 148 149
f 116 149 150
f 116 150 151
f 116 151 152
f 116 152 153
f 116 153 118
f 116 118 117
f 118 153 154
f 118 154 155
f 118 155 120
f 120 155 122
f 121 140 156
f 121 156 157
f 121 157 141
f 122 155 154
f 122 154 123
f 123 154 158
f 123 158 159
f 123 159 125
f 123 125 124
f 125 160 127
f 125 159 161
f 125 161 162
f 125 162 160
f 126 127 163
f 127 160 163
f 128 131 164
f 128 164 165
f 128 165 129
f 129 165 166
f 129 167 168
f 129 168 130
f 132 169 204
f 132 204 170
f 134 136 171
f 134 171 172
f 134 172 173
f 134 173 135
f 135 173 174
f 135 174 137
f 135 137 139
f 136 175 172
f 136 172 171
f 137 174 138
f 138 174 176
f 138 176 140
f 140 176 157
f 140 157 156
f 141 177 178
f 141 178 179
f 141 179 180
f 141 180 143
f 141 157 176
f 141 176 177
f 143 180 181
f 143 181 182
f 143 182 183
f 143 183 144
f 144 183 145
f 145 183 184
f 145 184 185
f 145 185 186
f 145 186 187
f 145 187 147
f 145 147 146
f 147 187 188
f 147 188 148
f 148 188 189
f 148 189 149
f 149 189 190
f 149 190 191
f 149 191 150
f 150 191 192
f 150 192 193
f 150 193 151
f 151 193 194
f 151 194 152
f 152 195 158
f 152 158 153
f 152 194 196
f 152 196 195
f 153 158 154
f 158 195 197
f 158 197 159
f 159 198 161
f 159 197 198
f 161 198 199
f 161 199 200
f 161 200 201
f 161 201 162
f 164 166 165
f 169 203 204
f 170 204 205
f 172 206 207
f 172 207 173
f 172 175 208
f 172 208 209
f 172 209 210
f 172 210 206
f 173 207 174
f 174 207 211
f 174 211 176
f 176 212 178
f 176 178 177
f 176 211 212
f 178 212 213
f 178 213 214
f 178 214 215
f 178 215 179
f 179 215 216
f 179 216 180
f 180 216 215
f 180 215 217
f 180 217 181
f 181 217 182
f 182 217 218
f 182 218 183
f 183 218 219
f 183 219 220
f 183 220 221
f 183 221 184
f 184 221 185
f 185 221 222
f 185 222 223
f 185 223 186
f 186 224 225
f 186 225 187
f 186 223 226
f 186 226 227
f 186 227 228
f 186 228 224
f 187 225 188
f 188 225 224
f 188 224 189
f 189 224 190
f 190 229 192
f 190 192 191
f 190 224 230
f 190 230 229
f 192 229 231
f 192 231 232
f 192 232 233
f 192 233 193
f 193 233 234
f 193 234 194
f 194 234 196
f 195 196 197
f 196 234 235
f 196 235 197
f 197 235 236
f 197 236 237
f 197 237 238
f 197 238 200
f 197 200 199
f 197 199 198
f 202 240 239
f 203 241 242
f 203 242 204
f 204 242 243
f 204 243 205
f 205 243 244
f 206 210 245
f 206 245 246
f 206 246 207
f 207 246 247
f 207 247 248
f 207 248 211
f 211 248 249
f 211 249 212
f 212 249 213
f 213 249 250
f 213 250 251
f 213 251 252
f 213 252 214
f 214 252 215
f 215 252 253
f 215 253 254
f 215 254 255
f 215 255 217
f 217 255 256
f 217 256 218
f 218 256 219
f 219 256 257
f 219 257 221
f 219 221 220
f 221 257 222
f 222 258 259
f 222 259 260
f 222 260 226
f 222 226 223
f 222 257 261
f 222 261 258
f 224 262 263
f 224 263 230
f 224 228 264
f 224 264 265
f 224 265 266
f 224 266 262
f 226 267 268
f 226 268 269
f 226 269 227
f 226 260 267
f 227 269 270
f 227 270 228
f 228 270 265
f 228 265 264
f 229 230 271
f 229 271 231
f 230 263 262
f 230 262 272
f 230 272 273
f 230 273 274
f 230 274 275
f 230 275 276
f 230 276 271
f 231 277 232
f 231 271 277
f 232 277 236
f 232 236 278
f 232 278 234
f 232 234 233
f 234 278 236
f 234 236 235
f 236 277 279
f 236 279 237
f 237 279 280
f 237 280 281
f 237 281 282
f 237 282 283
f 237 283 284
f 237 284 238
f 238 284 285
f 239 240 286
f 240 287 286
f 241 288 242
f 242 288 289
f 242 289 290
f 242 290 291
f 242 291 243
f 243 291 292
f 243 292 293
f 243 293 244
f 244 293 294
f 246 295 247
f 247 295 248
f 248 295 286
f 248 286 296
f 248 296 250
f 248 250 249
f 250 296 297
f 250 297 298
f 250 298 299
f 250 299 300
f 250 300 301
f 250 301 302
f 250 302 303
f 250 303 304
f 250 304 305
f 250 305 253
f 250 253 252
f 250 252 251
f 253 255 254
f 253 305 306
f 253 306 259
f 253 259 255
f 255 307 256
f 255 259 307
f 256 307 261
f 256 261 257
f 258 261 307
f 258 307 259
f 259 306 305
f 259 305 308
f 259 308 309
f 259 309 310
f 259 310 260
f 260 310 267
f 262 266 272
f 265 311 312
f 265 312 272
f 265 272 266
f 265 270 313
f 265 313 311
f 267 314 315
f 267 315 316
f 267 316 317
f 267 317 318
f 267 318 268
f 267 310 314
f 268 318 269
f 269 318 319
f 269 319 320
f 269 320 321
f 269 321 270
f 270 321 320
f 270 320 322
f 270 322 323
f 270 323 324
f 270 324 313
f 271 276 277
f 272 312 325
f 272 325 326
f 272 326 273
f 273 326 274
f 274 326 275
f 275 326 327
f 275 327 328
f 275 328 329
f 275 329 330
f 275 330 276
f 276 330 331
f 276 331 332
f 276 332 333
f 276 333 277
f 277 333 279
f 279 334 280
f 279 333 335
f 279 335 334
f 280 334 281
f 283 285 284
f 286 287 296
f 288 336 289
f 289 336 337
f 289 337 338
f 289 338 339
f 289 339 340
f 289 340 290
f 290 340 341
f 290 341 292
f 290 292 291
f 292 341 342
f 292 342 343
f 292 343 293
f 293 343 344
f 293 344 294
f 298 345 346
f 298 346 299
f 299 346 347
f 299 347 348
f 299 348 300
f 300 348 301
f 301 348 349
f 301 349 302
f 302 350 315
f 302 315 303
f 302 349 351
f 302 351 350
f 303 315 314
f 303 314 308
f 303 308 304
f 304 308 305
f 308 314 309
f 309 314 310
f 311 325 312
f 311 313 352
f 311 352 353
f 311 353 354
f 311 354 325
f 313 324 323
f 313 323 352
f 315 350 355
f 315 355 316
f 316 356 317
f 316 355 357
f 316 357 356
f 317 356 318
f 318 356 358
f 318 358 319
f 319 358 320
f 320 359 323
f 320 323 322
f 320 358 360
f 320 360 361
f 320 361 362
f 320 362 359
f 323 359 362
f 323 362 363
f 323 363 352
f 325 364 365
f 325 365 326
f 325 354 366
f 325 366 364
f 326 365 327
f 327 367 328
f 327 365 368
f 327 368 367
f 328 367 329
f 329 367 330
f 332 335 333
f 337 369 338
f 338 369 370
f 338 370 371
f 338 371 372
f 338 372 373
f 338 373 339
f 339 373 340
f 340 373 341
f 341 373 374
f 341 374 375
f 341 375 342
f 342 376 377
f 342 377 343
f 342 375 378
f 342 378 379
f 342 379 376
f 343 380 344
f 343 377 381
f 343 381 382
f 343 382 380
f 345 383 346
f 346 383 384
f 346 384 347
f 347 384 385
f 347 385 386
f 347 386 351
f 347 351 349
f 347 349 387
f 347 387 348
f 348 387 349
f 350 388 355
f 350 351 389
f 350 389 390
f 350 390 388
f 351 386 389
f 352 391 353
f 352 363 391
f 353 391 392
f 353 392 354
f 354 392 366
f 355 388 393
f 355 393 357
f 356 357 393
f 356 393 358
f 358 393 394
f 358 394 395
f 358 395 396
f 358 396 360
f 360 396 397
f 360 397 398
f 360 398 361
f 361 398 399
f 361 399 400
f 361 400 362
f 362 400 401
f 362 401 402
f 362 402 403
f 362 403 404
f 362 404 363
f 363 404 405
f 363 405 406
f 363 406 407
f 363 407 408
f 363 408 409
f 363 409 410
f 363 410 366
f 363 366 391
f 364 411 368
f 364 368 365
f 364 366 411
f 366 392 391
f 370 412 371
f 371 412 413
f 371 413 414
f 371 414 372
f 372 414 415
f 372 415 416
f 372 416 373
f 373 416 417
f 373 417 375
f 373 375 374
f 375 417 416
f 375 416 418
f 375 418 378
f 376 379 419
f 376 419 377
f 377 420 381
f 377 419 420
f 378 421 379
f 378 418 416
f 378 416 422
f 378 422 423
f 378 423 424
f 378 424 421
f 379 421 419
f 381 420 425
f 381 425 426
f 383 427 384
f 384 427 428
f 384 428 385
f 385 428 429
f 385 429 386
f 386 429 430
f 386 430 389
f 388 390 393
f 389 430 390
f 390 430 431
f 390 431 394
f 390 394 393
f 394 431 430
f 394 430 432
f 394 432 433
f 394 433 434
f 394 434 435
f 394 435 436
f 394 436 395
f 395 436 396
f 396 436 397
f 397 437 398
f 397 436 438
f 397 438 439
f 397 439 440
f 397 440 441
f 397 441 437
f 398 437 401
f 398 401 399
f 399 401 400
f 401 437 442
f 401 442 443
f 401 443 444
f 401 444 402
f 402 444 403
f 403 444 404
f 404 444 445
f 404 445 406
f 404 406 405
f 406 446 447
f 406 447 407
f 406 445 448
f 406 448 446
f 413 449 414
f 414 449 450
f 414 450 415
f 415 450 451
f 415 451 452
f 415 452 416
f 416 452 440
f 416 440 453
f 416 453 422
f 419 421 454
f 419 454 420
f 420 454 430
f 420 430 455
f 420 455 425
f 421 424 434
f 421 434 433
f 421 433 432
f 421 432 430
f 421 430 454
f 422 453 423
f 423 453 439
f 423 439 438
f 423 438 435
f 423 435 424
f 424 435 434
f 425 455 456
f 425 456 426
f 426 456 457
f 427 458 428
f 428 458 456
f 428 456 455
f 428 455 429
f 429 455 430
f 435 438 436
f 437 441 459
f 437 459 442
f 439 453 440
f 440 452 451
f 440 451 441
f 441 451 460
f 441 460 461
f 441 461 462
f 441 462 463
f 441 463 442
f 441 442 459
f 442 463 464
f 442 464 443
f 443 464 445
f 443 445 444
f 445 464 448
f 446 448 465
f 448 463 462
f 448 462 466
f 448 466 467
f 448 467 465
f 448 464 463
f 449 468 450
f 449 467 468
f 450 466 460
f 450 460 451
f 450 468 466
f 456 458 457
f 460 466 461
f 461 466 462
f 466 468 467

