# https://github.com/mikedh/trimesh
v -0.04896520 0.04445892 0.07461736
v -0.04896520 0.04446233 0.07471412
v -0.04896520 0.04813335 0.07461736
v -0.03518361 0.05350264 0.07461736
v -0.03518361 0.05352992 0.07578564
v -0.04896520 0.04450666 0.07578564
v -0.04839855 0.04869433 0.07461736
v -0.04896520 0.05415739 0.07797051
v -0.04829602 0.05437052 0.07767043
v -0.03518361 0.05658030 0.07461736
v -0.03518361 0.05357084 0.07636879
v -0.04896520 0.04451007 0.07584251
v -0.04781302 0.04923142 0.07461736
v -0.04896520 0.05459559 0.07828301
v -0.04885187 0.05493490 0.07844906
v -0.04793040 0.05525205 0.07811760
v -0.04751621 0.05478997 0.07751549
v -0.03626563 0.05616085 0.07461736
v -0.03657593 0.06039967 0.07759721
v -0.03579612 0.06059064 0.07753314
v -0.03518361 0.06062303 0.07751941
v -0.03518361 0.05361517 0.07695456
v -0.04896520 0.04464306 0.07695456
v -0.04711281 0.04981627 0.07461736
v -0.04896520 0.05484624 0.07929242
v -0.04885457 0.05493831 0.07929242
v -0.04756343 0.05599887 0.07856543
v -0.04684568 0.05552827 0.07774757
v -0.04609420 0.05573629 0.07756975
v -0.04376017 0.05230056 0.07461736
v -0.04460744 0.05171060 0.07461736
v -0.04468838 0.05165263 0.07461736
v -0.04516868 0.05129286 0.07461736
v -0.03866307 0.05507643 0.07461736
v -0.04063823 0.05834505 0.07749718
v -0.03749471 0.06016096 0.07774561
v -0.03983279 0.05978243 0.07831112
v -0.03838245 0.06070147 0.07853536
v -0.03749471 0.06084981 0.07832942
v -0.03618873 0.06109364 0.07813068
v -0.03931471 0.05477122 0.07461736
v -0.03580287 0.06177567 0.07866415
v -0.03518361 0.06185069 0.07855693
v -0.03518361 0.06123345 0.07799731
v -0.03518361 0.06120447 0.07797182
v -0.03518361 0.05365098 0.07719253
v -0.04896520 0.04499260 0.07815094
v -0.03518361 0.05386582 0.07808753
v -0.04868592 0.05480532 0.07995533
v -0.04896520 0.05467403 0.07970886
v -0.04797762 0.05557601 0.07934667
v -0.04756343 0.05599887 0.07899364
v -0.04684568 0.05618131 0.07833204
v -0.04450760 0.05773123 0.07929242
v -0.04374533 0.05814897 0.07929242
v -0.04530765 0.05721459 0.07852947
v -0.04450760 0.05745330 0.07830196
v -0.04216952 0.05859400 0.07828039
v -0.04105242 0.05884635 0.07804504
v -0.04156914 0.05355550 0.07461736
v -0.04308829 0.05838427 0.07848763
v -0.03899901 0.06045424 0.07929242
v -0.03841348 0.06072022 0.07929242
v -0.03580287 0.06177567 0.07886812
v -0.03519035 0.06187627 0.07927149
v -0.03518361 0.06187286 0.07914270
v -0.04896520 0.04592699 0.07939048
v -0.03518361 0.05387946 0.07811499
v -0.03518361 0.05438928 0.07900214
v -0.04801404 0.05505085 0.08016126
v -0.04659204 0.05610629 0.08011812
v -0.04737050 0.05586246 0.07977293
v -0.04896520 0.05435518 0.08011419
v -0.04520376 0.05715150 0.07996841
v -0.04296147 0.05833142 0.07998475
v -0.04058561 0.05949257 0.07997429
v -0.03822190 0.06064350 0.07995925
v -0.03560319 0.06170576 0.07964741
v -0.03518361 0.06187627 0.07928326
v -0.03518361 0.06187627 0.07926692
v -0.04896520 0.04596109 0.07943493
v -0.03518361 0.05440803 0.07902502
v -0.04896520 0.05423923 0.08019526
v -0.04803293 0.05413693 0.08077318
v -0.04588238 0.05559136 0.08089740
v -0.04450760 0.05667237 0.08075750
v -0.04450760 0.05735100 0.08017303
v -0.04216952 0.05852409 0.08018414
v -0.03983279 0.05966990 0.08017107
v -0.03560994 0.06047810 0.08102096
v -0.03749471 0.06076967 0.08010896
v -0.03518361 0.06176714 0.07983046
v -0.03863204 0.06003649 0.08031817
v -0.04896520 0.04606680 0.07954346
v -0.03518361 0.05503721 0.07960949
v -0.04896520 0.04645727 0.07991937
v -0.04896520 0.05334407 0.08080064
v -0.04713710 0.05451886 0.08095689
v -0.04510257 0.05590850 0.08104907
v -0.04358073 0.05692302 0.08095951
v -0.04124670 0.05805690 0.08095755
v -0.03518361 0.06057529 0.08105626
v -0.03521734 0.06118060 0.08050514
v -0.03632499 0.06098110 0.08032078
v -0.03983279 0.05894865 0.08075553
v -0.04046689 0.05825980 0.08105626
v -0.03518361 0.06123345 0.08046199
v -0.03518361 0.05560500 0.08006778
v -0.04896520 0.04710349 0.08025214
v -0.03518361 0.05562034 0.08007823
v -0.03518361 0.05646095 0.08055025
v -0.04896520 0.05323153 0.08086079
v -0.04843633 0.05340716 0.08099089
v -0.04896520 0.05281890 0.08106542
v -0.04450760 0.05608753 0.08111576
v -0.04765652 0.05373965 0.08110660
v -0.03518361 0.06006718 0.08113668
v -0.03518361 0.06118400 0.08051102
v -0.04091481 0.05766302 0.08113406
v -0.03518361 0.06120106 0.08049534
v -0.04216952 0.05723676 0.08110726
v -0.04896520 0.04720920 0.08030313
v -0.03518361 0.05648652 0.08056333
v -0.04896520 0.05265692 0.08110660
v -0.04450760 0.05531855 0.08123735
v -0.04325019 0.05651380 0.08115237
v -0.04896520 0.05203798 0.08119225
v -0.04678631 0.05413693 0.08114844
v -0.03518361 0.06005695 0.08113798
v -0.04216952 0.05648652 0.08122951
v -0.04896520 0.04830045 0.08078822
v -0.03518361 0.05751980 0.08093859
v -0.04333788 0.05531855 0.08129489
v -0.04896520 0.05181291 0.08120271
v -0.03518361 0.06005013 0.08113864
v -0.04896520 0.04868580 0.08092551
v -0.03518361 0.05754367 0.08094513
v -0.04896520 0.04902341 0.08103600
v -0.04450760 0.05414886 0.08126808
v -0.04333788 0.05414886 0.08121840
v -0.04100115 0.05648652 0.08126482
v -0.04896520 0.05086148 0.08122493
v -0.03518361 0.05882589 0.08115237
v -0.03518361 0.05811487 0.08106476
v -0.04896520 0.04971567 0.08113733
v -0.03518361 0.05812851 0.08106738
v -0.03518361 0.05880713 0.08115040
f 1 2 6
f 1 6 12
f 1 12 23
f 1 23 47
f 1 47 67
f 1 67 81
f 1 81 94
f 1 94 96
f 1 96 109
f 1 109 122
f 1 122 131
f 1 131 136
f 1 136 138
f 1 138 145
f 1 145 142
f 1 142 134
f 1 134 127
f 1 127 124
f 1 124 114
f 1 114 112
f 1 112 97
f 1 97 83
f 1 83 73
f 1 73 50
f 1 50 25
f 1 25 14
f 1 14 8
f 1 8 3
f 1 3 7
f 1 7 13
f 1 13 24
f 1 24 33
f 1 33 32
f 1 32 31
f 1 31 30
f 1 30 60
f 1 60 41
f 1 41 34
f 1 34 18
f 1 18 10
f 1 10 4
f 1 4 5
f 1 5 2
f 2 5 6
f 3 8 9
f 3 9 7
f 4 10 21
f 4 21 45
f 4 45 44
f 4 44 43
f 4 43 66
f 4 66 80
f 4 80 79
f 4 79 92
f 4 92 107
f 4 107 120
f 4 120 118
f 4 118 102
f 4 102 117
f 4 117 129
f 4 129 135
f 4 135 143
f 4 143 147
f 4 147 146
f 4 146 144
f 4 144 137
f 4 137 132
f 4 132 123
f 4 123 111
f 4 111 110
f 4 110 108
f 4 108 95
f 4 95 82
f 4 82 69
f 4 69 68
f 4 68 48
f 4 48 46
f 4 46 22
f 4 22 11
f 4 11 5
f 5 11 12
f 5 12 6
f 7 9 13
f 8 14 9
f 9 14 15
f 9 15 16
f 9 16 17
f 9 17 13
f 10 18 19
f 10 19 20
f 10 20 21
f 11 22 12
f 12 22 23
f 13 17 24
f 14 25 15
f 15 25 26
f 15 26 27
f 15 27 16
f 16 27 28
f 16 28 17
f 17 28 29
f 17 29 30
f 17 30 31
f 17 31 32
f 17 32 33
f 17 33 24
f 18 34 19
f 19 35 36
f 19 36 37
f 19 37 38
f 19 38 39
f 19 39 40
f 19 40 20
f 19 34 41
f 19 41 35
f 20 40 42
f 20 42 43
f 20 43 44
f 20 44 45
f 20 45 21
f 22 46 23
f 23 46 48
f 23 48 47
f 25 49 26
f 25 50 49
f 26 49 51
f 26 51 52
f 26 52 27
f 27 53 28
f 27 52 54
f 27 54 55
f 27 55 56
f 27 56 57
f 27 57 53
f 28 53 57
f 28 57 29
f 29 57 58
f 29 58 59
f 29 59 35
f 29 35 41
f 29 41 60
f 29 60 30
f 35 59 37
f 35 37 36
f 37 59 58
f 37 58 61
f 37 61 38
f 38 62 63
f 38 63 42
f 38 42 39
f 38 61 55
f 38 55 62
f 39 42 40
f 42 64 65
f 42 65 66
f 42 66 43
f 42 63 64
f 47 48 68
f 47 68 69
f 47 69 67
f 49 70 71
f 49 71 72
f 49 72 51
f 49 50 73
f 49 73 70
f 51 72 52
f 52 72 74
f 52 74 54
f 54 74 55
f 55 61 56
f 55 74 75
f 55 75 76
f 55 76 62
f 56 61 57
f 57 61 58
f 62 76 77
f 62 77 63
f 63 77 78
f 63 78 64
f 64 78 79
f 64 79 65
f 65 79 80
f 65 80 66
f 67 69 81
f 69 82 81
f 70 73 83
f 70 83 84
f 70 84 85
f 70 85 71
f 71 85 86
f 71 86 87
f 71 87 74
f 71 74 72
f 74 87 75
f 75 87 88
f 75 88 89
f 75 89 76
f 76 89 77
f 77 90 91
f 77 91 92
f 77 92 78
f 77 89 93
f 77 93 90
f 78 92 79
f 81 82 94
f 82 95 96
f 82 96 94
f 83 97 84
f 84 98 85
f 84 97 98
f 85 99 86
f 85 98 99
f 86 99 100
f 86 100 87
f 87 100 88
f 88 100 101
f 88 101 89
f 89 101 93
f 90 102 103
f 90 103 104
f 90 104 91
f 90 93 105
f 90 105 101
f 90 101 106
f 90 106 102
f 91 104 92
f 92 104 107
f 93 101 105
f 95 108 96
f 96 108 110
f 96 110 111
f 96 111 109
f 97 112 98
f 98 112 113
f 98 113 114
f 98 114 99
f 99 115 100
f 99 114 116
f 99 116 115
f 100 106 101
f 100 115 106
f 102 118 103
f 102 106 119
f 102 119 117
f 103 118 120
f 103 120 107
f 103 107 104
f 106 121 119
f 106 115 121
f 109 111 123
f 109 123 122
f 112 114 113
f 114 124 116
f 115 125 126
f 115 126 121
f 115 116 125
f 116 124 127
f 116 127 128
f 116 128 125
f 117 119 130
f 117 130 129
f 119 121 126
f 119 126 130
f 122 123 131
f 123 132 131
f 125 133 130
f 125 130 126
f 125 128 127
f 125 127 133
f 127 134 133
f 129 130 135
f 130 133 135
f 131 132 136
f 132 137 138
f 132 138 136
f 133 139 140
f 133 140 141
f 133 141 135
f 133 134 142
f 133 142 139
f 135 141 143
f 137 144 138
f 138 144 146
f 138 146 145
f 139 142 140
f 140 147 143
f 140 143 141
f 140 142 145
f 140 145 147
f 145 146 147

