# https://github.com/mikedh/trimesh
v -0.03188603 -0.02256054 0.03720506
v -0.03188603 -0.02252587 0.04220570
v -0.03216219 -0.02245365 0.04220570
v -0.03230109 -0.02244209 0.03720506
v -0.03281814 -0.02220230 0.02201371
v -0.03188603 -0.02247098 0.02317674
v -0.03188603 -0.01988238 0.04220570
v -0.03234775 -0.02239875 0.04220570
v -0.03398681 -0.02187294 0.04071308
v -0.03398681 -0.02188450 0.03603824
v -0.03398681 -0.02182094 0.02201371
v -0.03398681 -0.02174005 0.01616827
v -0.03281814 -0.02204918 0.01266024
v -0.03205043 -0.02238431 0.01850569
v -0.03188603 -0.02241320 0.01820262
v -0.03515548 -0.01131341 0.04062216
v -0.03632469 -0.01131341 0.04088735
v -0.03742879 -0.01140297 0.04109950
v -0.03742879 -0.01179300 0.04118284
v -0.03742879 -0.01237081 0.04129649
v -0.03739678 -0.01715799 0.04220570
v -0.03188603 -0.01131341 0.03975084
v -0.03398681 -0.02183828 0.04220570
v -0.03398681 -0.02184694 0.04187990
v -0.03509254 -0.02145114 0.04220570
v -0.03511804 -0.02145692 0.04071308
v -0.03574578 -0.02125468 0.03783014
v -0.03574578 -0.02125468 0.03743615
v -0.03572787 -0.02124602 0.03135961
v -0.03563890 -0.02121424 0.02201371
v -0.03562262 -0.02120846 0.02084311
v -0.03496721 -0.02139914 0.01616827
v -0.03547721 -0.02117379 0.01266024
v -0.03398681 -0.02171982 0.01499766
v -0.03281814 -0.02202318 0.01148964
v -0.03188603 -0.02233808 0.01266024
v -0.03436986 -0.01053914 0.04018650
v -0.03518912 -0.01014912 0.04028121
v -0.03632469 -0.01014623 0.04055397
v -0.03742879 -0.01014623 0.04076233
v -0.03742879 -0.01714354 0.04220570
v -0.03740275 -0.01715510 0.04220570
v -0.03188603 -0.01008556 0.03933791
v -0.03482235 -0.00975909 0.04006527
v -0.03567687 -0.02122579 0.04220570
v -0.03568176 -0.02122868 0.04187990
v -0.03570292 -0.02123735 0.04071308
v -0.03742879 -0.02051219 0.03960688
v -0.03742879 -0.02053242 0.03259462
v -0.03632469 -0.02098889 0.04071308
v -0.03742879 -0.02053242 0.03253021
v -0.03632469 -0.02100623 0.03135961
v -0.03632469 -0.02100333 0.03019279
v -0.03632469 -0.02086755 0.01616827
v -0.03632469 -0.02080977 0.01266024
v -0.03632469 -0.02078954 0.01148964
v -0.03542784 -0.02115646 0.01148964
v -0.03472035 -0.02130380 0.00798540
v -0.03281814 -0.02198273 0.01032282
v -0.03188603 -0.02217341 0.00798540
v -0.03560146 -0.00946730 0.04016377
v -0.03632469 -0.00922462 0.04024711
v -0.03697141 -0.00842435 0.04011452
v -0.03741414 -0.00887793 0.04034940
v -0.03742879 -0.01009423 0.04074718
v -0.03742879 -0.02047175 0.04220570
v -0.03188603 -0.00946441 0.03907651
v -0.03398681 -0.00897616 0.03950460
v -0.03518912 -0.00903683 0.03987964
v -0.03632469 -0.00863814 0.04003497
v -0.03712062 -0.02060465 0.04220570
v -0.03742879 -0.02050353 0.04071308
v -0.03742879 -0.02052953 0.03135961
v -0.03742879 -0.02052086 0.03019279
v -0.03742879 -0.02036774 0.01616827
v -0.03742879 -0.02035330 0.01499766
v -0.03742879 -0.02027240 0.01041753
v -0.03737996 -0.02029263 0.01032282
v -0.03632469 -0.02066243 0.00798540
v -0.03530468 -0.02108423 0.00798540
v -0.03464385 -0.02127780 0.00716711
v -0.03398681 -0.02153204 0.00798540
v -0.03188603 -0.02210985 0.00686404
v -0.03632469 -0.00780609 0.03968265
v -0.03742879 -0.00657823 0.03942883
v -0.03742879 -0.00782920 0.03995920
v -0.03742879 -0.00784942 0.03996678
v -0.03742879 -0.00885193 0.04034182
v -0.03188603 -0.00930840 0.03900832
v -0.03193595 -0.00936618 0.03904999
v -0.03508549 -0.00772519 0.03927729
v -0.03742879 -0.02026951 0.01032282
v -0.03742879 -0.02023196 0.00933405
v -0.03732896 -0.02026951 0.00915221
v -0.03726602 -0.02024640 0.00798540
v -0.03717053 -0.02020306 0.00681479
v -0.03632469 -0.02057286 0.00681479
v -0.03508223 -0.02106690 0.00679206
v -0.03451309 -0.02123157 0.00638670
v -0.03188603 -0.02207229 0.00654961
v -0.03742879 -0.00579819 0.03908788
v -0.03188603 -0.00885193 0.03878481
v -0.03464982 -0.00728028 0.03893255
v -0.03542893 -0.00703471 0.03906136
v -0.03742879 -0.02018573 0.00827710
v -0.03742879 -0.02017128 0.00798540
v -0.03742879 -0.02008461 0.00681479
v -0.03703598 -0.02013951 0.00589043
v -0.03642832 -0.02033885 0.00556084
v -0.03515548 -0.02086466 0.00564418
v -0.03433513 -0.02117379 0.00564418
v -0.03188603 -0.02195673 0.00564418
v -0.03742879 -0.00521460 0.03878102
v -0.03681624 -0.00599464 0.03899317
v -0.03188603 -0.00798810 0.03831126
v -0.03188603 -0.00779164 0.03820140
v -0.03740166 -0.00420342 0.03821276
v -0.03742879 -0.00420631 0.03822413
v -0.03742879 -0.02002683 0.00639429
v -0.03742879 -0.01989393 0.00554190
v -0.03688786 -0.02007306 0.00511382
v -0.03612394 -0.02023485 0.00447737
v -0.03515548 -0.02061331 0.00447737
v -0.03353540 -0.02129513 0.00489409
v -0.03188603 -0.02191628 0.00541688
v -0.03188603 -0.00736984 0.03795894
v -0.03742879 -0.00414564 0.03819003
v -0.03742879 -0.01968303 0.00454556
v -0.03670827 -0.02000083 0.00447737
v -0.03588305 -0.02013951 0.00374243
v -0.03394992 -0.02105245 0.00449252
v -0.03248230 -0.02135291 0.00355680
v -0.03285070 -0.02143381 0.00449252
v -0.03188603 -0.02174583 0.00448116
v -0.03188603 -0.00693937 0.03769755
v -0.03695134 -0.00374984 0.03776952
v -0.03742879 -0.00313447 0.03756495
v -0.03742879 -0.01966570 0.00447737
v -0.03742879 -0.01940568 0.00363635
v -0.03742879 -0.01936524 0.00350755
v -0.03611797 -0.01995172 0.00350755
v -0.03545497 -0.02021751 0.00350755
v -0.03253656 -0.02131247 0.00350755
v -0.03236565 -0.02136736 0.00350755
v -0.03188603 -0.02148870 0.00350755
v -0.03188603 -0.02168804 0.00421598
v -0.03188603 -0.00660424 0.03748918
v -0.03188603 -0.00589353 0.03700049
v -0.03740166 -0.00310269 0.03753086
v -0.03742879 -0.00293801 0.03742857
v -0.03742879 -0.01088583 0.00350755
v -0.03188603 -0.01493052 0.00350755
v -0.03188603 -0.00572018 0.03687547
v -0.03742879 -0.00186906 0.03666332
v -0.03742879 -0.01057092 0.00354543
v -0.03742879 -0.01003933 0.00360983
v -0.03188603 -0.01463584 0.00357953
v -0.03188603 -0.00514815 0.03637541
v -0.03742879 0.00188095 0.03376522
v -0.03742879 0.00164115 0.03396222
v -0.03742879 0.00042486 0.03494719
v -0.03742879 -0.00089833 0.03595111
v -0.03742879 -0.00119013 0.03616705
v -0.03742879 -0.00993533 0.00363635
v -0.03742879 -0.00943263 0.00378031
v -0.03188603 -0.01387312 0.00383335
v -0.03188603 -0.00451255 0.03579957
v -0.03742879 0.00317814 0.03257189
v -0.03691770 -0.00957419 0.00389396
v -0.03742879 -0.00289757 0.00884157
v -0.03188603 -0.01323464 0.00411748
v -0.03188603 -0.00392318 0.03523511
v -0.03742879 0.00418931 0.03135203
v -0.03188603 -0.00358227 0.03484869
v -0.03188603 -0.00340604 0.03463655
v -0.03188603 -0.01005956 0.00600787
v -0.03188603 -0.01015490 0.00594347
v -0.03188603 -0.01100428 0.00538279
v -0.03188603 -0.01155609 0.00503426
v -0.03188603 -0.01226680 0.00462133
v -0.03188603 -0.00631822 0.00877338
v -0.03188603 -0.00752296 0.00784523
v -0.03188603 -0.00880570 0.00688677
v -0.03188603 -0.00895305 0.00677691
v -0.03188603 -0.00964642 0.00628821
v -0.03742879 -0.00216952 0.00941740
v -0.03742879 0.00563962 0.02909038
v -0.03188603 -0.00279067 0.03384478
v -0.03188603 -0.00094456 0.03137476
v -0.03188603 -0.00032630 0.03048450
v -0.03188603 0.00001750 0.02995413
v -0.03742879 -0.00158015 0.00990989
v -0.03188603 -0.00564218 0.00934921
v -0.03188983 0.00002328 0.02995034
v -0.03742879 0.00619143 0.02817359
v -0.03188603 0.00024862 0.02942376
v -0.03742879 -0.00096478 0.01048193
v -0.03188603 -0.00505281 0.00990610
v -0.03742879 0.00637633 0.02783264
v -0.03188603 0.00039597 0.02906386
v -0.03742879 -0.00036963 0.01111458
v -0.03188603 -0.00493436 0.01003112
v -0.03742879 0.00684725 0.02665825
v -0.03188603 0.00126847 0.02567706
v -0.03742879 -0.00010962 0.01141766
v -0.03188603 -0.00451255 0.01049329
v -0.03188603 0.00130602 0.02543461
v -0.03188603 0.00145048 0.02439659
v -0.03742879 0.00689348 0.02616576
v -0.03742879 0.00006084 0.01161844
v -0.03188603 -0.00434210 0.01069408
v -0.03742879 0.00695415 0.02549522
v -0.03188603 0.00136669 0.02317674
v -0.03742879 0.00076288 0.01250492
v -0.03188603 -0.00383073 0.01131158
v -0.03742879 0.00676636 0.02434735
v -0.03188603 0.00110379 0.02201371
v -0.03742879 0.00632433 0.02208190
v -0.03742879 0.00649190 0.02287367
v -0.03742879 0.00655546 0.02317674
v -0.03742879 0.00669124 0.02392305
v -0.03742879 0.00088422 0.01266024
v -0.03188603 -0.00346382 0.01178134
v -0.03188603 0.00078888 0.02083174
v -0.03742879 0.00626944 0.02192658
v -0.03188603 0.00015329 0.01853599
v -0.03188603 -0.00012118 0.01763436
v -0.03188603 -0.00024540 0.01722901
v -0.03188603 -0.00031474 0.01703201
v -0.03742879 0.00166427 0.01367552
v -0.03188603 -0.00331937 0.01196697
v -0.03742879 0.00597764 0.02121437
v -0.03188603 -0.00057765 0.01640693
v -0.03742879 0.00171049 0.01373613
v -0.03188603 -0.00279356 0.01268676
v -0.03742879 0.00579563 0.02083932
v -0.03188603 -0.00072499 0.01609629
v -0.03742879 0.00217274 0.01437637
v -0.03188603 -0.00248154 0.01314515
v -0.03188603 -0.00133458 0.01493705
v -0.03188603 -0.00147615 0.01470596
v -0.03188603 -0.00188350 0.01404678
v -0.03188603 -0.00204818 0.01378917
f 1 2 3
f 1 3 4
f 1 4 5
f 1 5 6
f 1 6 15
f 1 15 36
f 1 36 60
f 1 60 83
f 1 83 100
f 1 100 112
f 1 112 125
f 1 125 134
f 1 134 146
f 1 146 145
f 1 145 152
f 1 152 157
f 1 157 166
f 1 166 171
f 1 171 180
f 1 180 179
f 1 179 178
f 1 178 177
f 1 177 176
f 1 176 185
f 1 185 184
f 1 184 183
f 1 183 182
f 1 182 181
f 1 181 193
f 1 193 198
f 1 198 202
f 1 202 206
f 1 206 211
f 1 211 215
f 1 215 223
f 1 223 231
f 1 231 235
f 1 235 239
f 1 239 243
f 1 243 242
f 1 242 241
f 1 241 240
f 1 240 237
f 1 237 233
f 1 233 229
f 1 229 228
f 1 228 227
f 1 227 226
f 1 226 224
f 1 224 217
f 1 217 213
f 1 213 208
f 1 208 207
f 1 207 204
f 1 204 200
f 1 200 196
f 1 196 191
f 1 191 190
f 1 190 189
f 1 189 188
f 1 188 175
f 1 175 174
f 1 174 172
f 1 172 167
f 1 167 158
f 1 158 153
f 1 153 148
f 1 148 147
f 1 147 135
f 1 135 126
f 1 126 116
f 1 116 115
f 1 115 102
f 1 102 89
f 1 89 67
f 1 67 43
f 1 43 22
f 1 22 7
f 1 7 2
f 2 7 21
f 2 21 42
f 2 42 41
f 2 41 66
f 2 66 71
f 2 71 45
f 2 45 25
f 2 25 23
f 2 23 8
f 2 8 3
f 3 8 4
f 4 8 9
f 4 9 10
f 4 10 11
f 4 11 5
f 5 11 12
f 5 12 13
f 5 13 14
f 5 14 6
f 6 14 15
f 7 16 17
f 7 17 18
f 7 18 19
f 7 19 20
f 7 20 21
f 7 22 16
f 8 23 24
f 8 24 9
f 9 24 25
f 9 25 26
f 9 26 27
f 9 27 10
f 10 27 28
f 10 28 29
f 10 29 11
f 11 30 31
f 11 31 32
f 11 32 33
f 11 33 12
f 11 29 30
f 12 33 34
f 12 34 13
f 13 35 36
f 13 36 14
f 13 34 35
f 14 36 15
f 16 37 38
f 16 38 39
f 16 39 17
f 16 22 37
f 17 39 40
f 17 40 18
f 18 40 65
f 18 65 88
f 18 88 87
f 18 87 86
f 18 86 85
f 18 85 101
f 18 101 113
f 18 113 118
f 18 118 127
f 18 127 137
f 18 137 150
f 18 150 154
f 18 154 163
f 18 163 162
f 18 162 161
f 18 161 160
f 18 160 159
f 18 159 168
f 18 168 173
f 18 173 187
f 18 187 195
f 18 195 199
f 18 199 203
f 18 203 209
f 18 209 212
f 18 212 216
f 18 216 221
f 18 221 220
f 18 220 219
f 18 219 218
f 18 218 225
f 18 225 232
f 18 232 236
f 18 236 238
f 18 238 234
f 18 234 230
f 18 230 222
f 18 222 214
f 18 214 210
f 18 210 205
f 18 205 201
f 18 201 197
f 18 197 192
f 18 192 186
f 18 186 170
f 18 170 165
f 18 165 164
f 18 164 156
f 18 156 155
f 18 155 151
f 18 151 140
f 18 140 139
f 18 139 138
f 18 138 128
f 18 128 120
f 18 120 119
f 18 119 107
f 18 107 106
f 18 106 105
f 18 105 93
f 18 93 92
f 18 92 77
f 18 77 76
f 18 76 75
f 18 75 74
f 18 74 73
f 18 73 51
f 18 51 49
f 18 49 48
f 18 48 72
f 18 72 66
f 18 66 41
f 18 41 20
f 18 20 19
f 20 41 42
f 20 42 21
f 22 43 44
f 22 44 37
f 23 25 24
f 25 45 46
f 25 46 47
f 25 47 27
f 25 27 26
f 27 48 49
f 27 49 51
f 27 51 28
f 27 47 50
f 27 50 48
f 28 51 52
f 28 52 53
f 28 53 29
f 29 53 30
f 30 54 31
f 30 53 54
f 31 54 33
f 31 33 32
f 33 54 55
f 33 55 56
f 33 56 57
f 33 57 58
f 33 58 35
f 33 35 34
f 35 58 59
f 35 59 36
f 36 59 60
f 37 44 38
f 38 44 61
f 38 61 39
f 39 61 62
f 39 62 63
f 39 63 64
f 39 64 65
f 39 65 40
f 43 67 68
f 43 68 44
f 44 68 69
f 44 69 70
f 44 70 61
f 45 71 50
f 45 50 46
f 46 50 47
f 48 50 72
f 50 71 66
f 50 66 72
f 51 73 52
f 52 73 53
f 53 73 74
f 53 74 54
f 54 75 76
f 54 76 55
f 54 74 75
f 55 76 56
f 56 76 77
f 56 77 78
f 56 78 79
f 56 79 80
f 56 80 57
f 57 80 58
f 58 80 81
f 58 81 82
f 58 82 59
f 59 82 60
f 60 82 83
f 61 63 62
f 61 70 63
f 63 70 84
f 63 84 85
f 63 85 86
f 63 86 87
f 63 87 64
f 64 87 88
f 64 88 65
f 67 89 90
f 67 90 68
f 68 90 91
f 68 91 84
f 68 84 69
f 69 84 70
f 77 92 78
f 78 92 93
f 78 93 94
f 78 94 79
f 79 95 96
f 79 96 97
f 79 97 80
f 79 94 95
f 80 97 81
f 81 97 98
f 81 98 99
f 81 99 83
f 81 83 82
f 83 99 100
f 84 91 101
f 84 101 85
f 89 91 90
f 89 102 103
f 89 103 91
f 91 103 104
f 91 104 101
f 93 105 94
f 94 105 95
f 95 105 106
f 95 106 107
f 95 107 96
f 96 107 108
f 96 108 97
f 97 108 109
f 97 109 110
f 97 110 98
f 98 110 99
f 99 110 111
f 99 111 112
f 99 112 100
f 101 104 114
f 101 114 113
f 102 115 103
f 103 113 114
f 103 114 104
f 103 115 116
f 103 116 117
f 103 117 118
f 103 118 113
f 107 119 108
f 108 120 121
f 108 121 109
f 108 119 120
f 109 121 110
f 110 121 122
f 110 122 123
f 110 123 111
f 111 123 124
f 111 124 125
f 111 125 112
f 116 126 127
f 116 127 117
f 117 127 118
f 120 128 121
f 121 128 129
f 121 129 122
f 122 129 130
f 122 130 123
f 123 131 124
f 123 130 132
f 123 132 131
f 124 131 132
f 124 132 133
f 124 133 134
f 124 134 125
f 126 135 136
f 126 136 127
f 127 136 137
f 128 138 129
f 129 138 139
f 129 139 140
f 129 140 130
f 130 140 141
f 130 141 142
f 130 142 132
f 132 142 143
f 132 143 144
f 132 144 145
f 132 145 146
f 132 146 134
f 132 134 133
f 135 147 136
f 136 147 137
f 137 147 148
f 137 148 149
f 137 149 150
f 140 151 152
f 140 152 145
f 140 145 144
f 140 144 143
f 140 143 142
f 140 142 141
f 148 153 154
f 148 154 150
f 148 150 149
f 151 155 152
f 152 155 156
f 152 156 157
f 153 158 159
f 153 159 160
f 153 160 161
f 153 161 162
f 153 162 163
f 153 163 154
f 156 164 157
f 157 164 165
f 157 165 166
f 158 167 159
f 159 167 168
f 165 169 166
f 165 170 169
f 166 169 171
f 167 172 168
f 168 172 174
f 168 174 175
f 168 175 173
f 169 176 177
f 169 177 178
f 169 178 179
f 169 179 180
f 169 180 171
f 169 170 181
f 169 181 182
f 169 182 183
f 169 183 184
f 169 184 185
f 169 185 176
f 170 186 181
f 173 175 188
f 173 188 189
f 173 189 190
f 173 190 191
f 173 191 187
f 181 186 192
f 181 192 193
f 187 191 194
f 187 194 195
f 191 196 194
f 192 197 193
f 193 197 198
f 194 196 199
f 194 199 195
f 196 200 199
f 197 201 202
f 197 202 198
f 199 200 203
f 200 204 203
f 201 205 206
f 201 206 202
f 203 204 207
f 203 207 208
f 203 208 209
f 205 210 211
f 205 211 206
f 208 212 209
f 208 213 212
f 210 214 215
f 210 215 211
f 212 213 216
f 213 217 218
f 213 218 219
f 213 219 220
f 213 220 221
f 213 221 216
f 214 222 215
f 215 222 223
f 217 224 218
f 218 224 226
f 218 226 227
f 218 227 228
f 218 228 229
f 218 229 225
f 222 230 231
f 222 231 223
f 225 229 232
f 229 233 232
f 230 234 231
f 231 234 235
f 232 233 237
f 232 237 236
f 234 238 235
f 235 238 239
f 236 237 240
f 236 240 238
f 238 240 241
f 238 241 242
f 238 242 243
f 238 243 239

