# https://github.com/mikedh/trimesh
v -0.03742879 0.00361388 0.03202777
v -0.03742879 0.00418952 0.03134970
v -0.04045938 0.01168075 0.02950687
v -0.04078168 0.01168075 0.03022237
v -0.04152008 0.01168075 0.03184473
v -0.04165959 0.01168075 0.03209848
v -0.03769577 0.00361388 0.03251031
v -0.03742879 0.00361388 0.01726847
v -0.03742879 0.00564323 0.02909088
v -0.04019240 0.01168075 0.02889121
v -0.04196264 0.01168075 0.03252279
v -0.04256395 0.01168075 0.03336309
v -0.03790743 0.00361388 0.03278487
v -0.03851355 0.00361388 0.01510117
v -0.04269383 0.01168075 0.01549220
v -0.04236191 0.01168075 0.01617026
v -0.04133488 0.01168075 0.01861628
v -0.04117373 0.01168075 0.01904475
v -0.04094042 0.01168075 0.01968121
v -0.03742879 0.00579642 0.02083766
v -0.03742879 0.00619203 0.02817571
v -0.03742879 0.00637838 0.02783044
v -0.03993263 0.01168075 0.02783044
v -0.04271308 0.01168075 0.03355445
v -0.04303297 0.01168075 0.03394964
v -0.03847747 0.00361388 0.03344213
v -0.04289347 0.01168075 0.01511365
v -0.03906435 0.00361388 0.01414855
v -0.04058204 0.01168075 0.02094165
v -0.03742879 0.00597883 0.02121621
v -0.03742879 0.00684979 0.02665735
v -0.03922790 0.01035259 0.02734373
v -0.03987972 0.01168075 0.02668231
v -0.04361744 0.01168075 0.03462354
v -0.03892003 0.00361388 0.03389556
v -0.04414178 0.01168075 0.03521008
v -0.04475752 0.01168075 0.03587983
v -0.04527946 0.01168075 0.03642477
v -0.04300652 0.01168075 0.01492229
v -0.03931449 0.00361388 0.01373672
v -0.04043773 0.01168075 0.02153236
v -0.03742879 0.00627178 0.02192755
v -0.04032228 0.01168075 0.02201075
v -0.03742879 0.00689480 0.02616648
v -0.03742879 0.00695481 0.02549674
v -0.03989896 0.01168075 0.02591689
v -0.03965603 0.00361388 0.03461938
v -0.04582544 0.01168075 0.03695724
v -0.04342021 0.01168075 0.01424839
v -0.04362225 0.01168075 0.01394472
v -0.03988934 0.00361388 0.01293802
v -0.04429331 0.01168075 0.01297962
v -0.04401190 0.01168075 0.01337065
v -0.04388202 0.01168075 0.01355785
v -0.04006973 0.01168075 0.02320880
v -0.03742879 0.00632547 0.02208147
v -0.03742879 0.00676846 0.02434861
v -0.03995428 0.01168075 0.02434861
v -0.03993504 0.01168075 0.02469388
v -0.03987972 0.00361388 0.03483569
v -0.04656385 0.01168075 0.03756874
v -0.04101980 0.00361388 0.03587151
v -0.04076725 0.00361388 0.03565519
v -0.04004087 0.00361388 0.01274251
v -0.04502931 0.01168075 0.01198957
v -0.04501969 0.01168075 0.01200205
v -0.04455308 0.01168075 0.01262603
v -0.04001681 0.01168075 0.02363310
v -0.03742879 0.00649445 0.02288016
v -0.03742879 0.00669265 0.02392430
v -0.04176301 0.00361388 0.03648301
v -0.04714832 0.01168075 0.03798057
v -0.04049786 0.00361388 0.01218092
v -0.04529148 0.01168075 0.01165262
v -0.03742879 0.00655684 0.02317968
v -0.04234989 0.00361388 0.03688236
v -0.04804066 0.01168075 0.03856712
v -0.04097650 0.00361388 0.01161518
v -0.04588557 0.01168075 0.01092464
v -0.04331438 0.00361388 0.03749386
v -0.05948714 0.01168075 0.04600500
v -0.04103663 0.00361388 0.01154862
v -0.04607799 0.01168075 0.01070416
v -0.05743067 0.00361388 0.04600500
v -0.06199339 0.01168075 0.04600500
v -0.04159705 0.00361388 0.01092880
v -0.04664322 0.01168075 0.01012178
v -0.06004275 0.00361388 0.04600500
v -0.06188034 0.01089506 0.04600500
v -0.06199820 0.01168075 0.04422041
v -0.06189477 0.01089506 0.04422041
v -0.04198429 0.00361388 0.01056689
v -0.04722769 0.01168075 0.00955187
v -0.04703527 0.01168075 0.00973491
v -0.06023276 0.00414136 0.04600500
v -0.06004275 0.00361388 0.04305148
v -0.06177451 0.01034074 0.04600500
v -0.06199579 0.01168075 0.04383354
v -0.06166868 0.00972641 0.04422041
v -0.06188034 0.01089506 0.04305148
v -0.06149791 0.00895889 0.03837576
v -0.06167349 0.00972641 0.04305148
v -0.04284296 0.00361388 0.00981395
v -0.04767747 0.01168075 0.00916085
v -0.06031213 0.00439246 0.04600500
v -0.06012453 0.00385235 0.04305148
v -0.06028087 0.00449432 0.03720683
v -0.05995616 0.00361388 0.03693644
v -0.06164704 0.00972641 0.04600500
v -0.06148108 0.01168075 0.00951859
v -0.06145943 0.01147149 0.00969747
v -0.06137044 0.00837141 0.04422041
v -0.06136562 0.00842589 0.04600500
v -0.06150513 0.00894468 0.04305148
v -0.06137044 0.00837456 0.03837576
v -0.06114675 0.00972641 0.01149038
v -0.06089660 0.00855776 0.01149038
v -0.04314361 0.00361388 0.00958099
v -0.04848563 0.01168075 0.00847862
v -0.04829321 0.01168075 0.00863253
v -0.06113472 0.00738911 0.04600500
v -0.06084129 0.00622045 0.04305148
v -0.06049734 0.00505101 0.04305148
v -0.06030011 0.00443273 0.04188255
v -0.06111308 0.00738911 0.03720683
v -0.06073786 0.00622045 0.03486897
v -0.06024960 0.00462540 0.03370004
v -0.05999945 0.00388236 0.03370004
v -0.05990324 0.00361388 0.03370004
v -0.06146183 0.01168075 0.00900277
v -0.06144259 0.01156704 0.00891541
v -0.06135119 0.01100719 0.00924404
v -0.06111789 0.00972641 0.01032145
v -0.06113232 0.00738911 0.04305148
v -0.06078837 0.00855776 0.00798359
v -0.06052139 0.00738911 0.00798359
v -0.04324463 0.00361388 0.00950611
v -0.04892338 0.01168075 0.00815831
v -0.06032897 0.00667923 0.00798359
v -0.06015339 0.00609411 0.00798359
v -0.05983349 0.00505101 0.00798359
v -0.05941017 0.00388236 0.00798359
v -0.05930194 0.00361388 0.00798359
v -0.06145222 0.01168075 0.00878229
v -0.06143057 0.01168075 0.00839126
v -0.06126701 0.01089506 0.00798359
v -0.06107940 0.00972641 0.00915253
v -0.06070419 0.00855776 0.00681466
v -0.06041796 0.00731014 0.00679802
v -0.06030732 0.00673845 0.00718073
v -0.04417546 0.00361388 0.00886133
v -0.04972432 0.01168075 0.00758841
v -0.06014377 0.00629705 0.00679802
v -0.05975412 0.00505101 0.00681466
v -0.05930194 0.00377576 0.00679802
v -0.05923459 0.00361388 0.00665659
v -0.05928510 0.00361388 0.00763000
v -0.06140411 0.01168075 0.00798359
v -0.06129347 0.01168075 0.00679802
v -0.06114675 0.01089506 0.00681466
v -0.06055025 0.00855776 0.00564573
v -0.06027606 0.00686795 0.00639868
v -0.04432217 0.00361388 0.00876565
v -0.04989028 0.01168075 0.00748025
v -0.05958335 0.00505101 0.00564573
v -0.05926586 0.00406318 0.00564573
v -0.05917446 0.00361388 0.00609500
v -0.06112751 0.01168075 0.00564573
v -0.06076913 0.00972641 0.00564573
v -0.06030732 0.00789684 0.00500095
v -0.06035302 0.00767100 0.00564573
v -0.06022074 0.00708747 0.00564573
v -0.05995375 0.00622045 0.00564573
v -0.04529629 0.00361388 0.00814999
v -0.05044108 0.01168075 0.00712666
v -0.05918649 0.00430086 0.00475968
v -0.05907104 0.00361388 0.00550014
v -0.05909749 0.00361388 0.00564573
v -0.06104332 0.01168075 0.00526302
v -0.06037708 0.00855776 0.00475136
v -0.06020631 0.00855776 0.00416481
v -0.06006921 0.00746017 0.00455584
v -0.05909749 0.00454723 0.00398178
v -0.04626079 0.00361388 0.00755097
v -0.05107846 0.01168075 0.00672731
v -0.05895559 0.00389973 0.00441441
v -0.05884975 0.00361388 0.00442689
v -0.06086293 0.01168075 0.00447681
v -0.06027846 0.00922500 0.00392770
v -0.05976855 0.00766390 0.00350755
v -0.05970361 0.00740095 0.00350755
v -0.05925624 0.00578142 0.00350755
v -0.05897723 0.00485360 0.00350755
v -0.05871988 0.00408213 0.00350755
v -0.05853227 0.00361388 0.00350755
v -0.05875595 0.00361388 0.00413569
v -0.04701363 0.00361388 0.00708921
v -0.05244463 0.01168075 0.00589533
v -0.06076672 0.01168075 0.00417313
v -0.06055266 0.01168075 0.00350755
v -0.06017504 0.00953848 0.00350755
v -0.06002351 0.00877491 0.00350755
v -0.05467428 0.00361388 0.00350755
v -0.04782900 0.00361388 0.00661499
v -0.05652871 0.01168075 0.00350755
v -0.05327684 0.01168075 0.00540030
v -0.05008510 0.00361388 0.00548350
v -0.04799256 0.00361388 0.00652347
v -0.04856981 0.00361388 0.00621148
v -0.04895945 0.00361388 0.00600765
v -0.04916871 0.00361388 0.00590365
f 1 2 3
f 1 3 4
f 1 4 5
f 1 5 6
f 1 6 7
f 1 7 13
f 1 13 26
f 1 26 35
f 1 35 47
f 1 47 60
f 1 60 63
f 1 63 62
f 1 62 71
f 1 71 76
f 1 76 80
f 1 80 84
f 1 84 88
f 1 88 96
f 1 96 108
f 1 108 129
f 1 129 143
f 1 143 157
f 1 157 156
f 1 156 167
f 1 167 178
f 1 178 177
f 1 177 187
f 1 187 196
f 1 196 195
f 1 195 203
f 1 203 207
f 1 207 211
f 1 211 210
f 1 210 209
f 1 209 208
f 1 208 204
f 1 204 197
f 1 197 184
f 1 184 174
f 1 174 163
f 1 163 151
f 1 151 137
f 1 137 118
f 1 118 103
f 1 103 92
f 1 92 86
f 1 86 82
f 1 82 78
f 1 78 73
f 1 73 64
f 1 64 51
f 1 51 40
f 1 40 28
f 1 28 14
f 1 14 8
f 1 8 20
f 1 20 30
f 1 30 42
f 1 42 56
f 1 56 69
f 1 69 75
f 1 75 70
f 1 70 57
f 1 57 45
f 1 45 44
f 1 44 31
f 1 31 22
f 1 22 21
f 1 21 9
f 1 9 2
f 2 9 10
f 2 10 3
f 3 10 23
f 3 23 33
f 3 33 46
f 3 46 59
f 3 59 58
f 3 58 68
f 3 68 55
f 3 55 43
f 3 43 41
f 3 41 29
f 3 29 19
f 3 19 18
f 3 18 17
f 3 17 16
f 3 16 15
f 3 15 27
f 3 27 39
f 3 39 49
f 3 49 50
f 3 50 54
f 3 54 53
f 3 53 52
f 3 52 67
f 3 67 66
f 3 66 65
f 3 65 74
f 3 74 79
f 3 79 83
f 3 83 87
f 3 87 94
f 3 94 93
f 3 93 104
f 3 104 120
f 3 120 119
f 3 119 138
f 3 138 152
f 3 152 164
f 3 164 175
f 3 175 185
f 3 185 198
f 3 198 206
f 3 206 205
f 3 205 200
f 3 200 199
f 3 199 188
f 3 188 179
f 3 179 168
f 3 168 159
f 3 159 158
f 3 158 145
f 3 145 144
f 3 144 130
f 3 130 110
f 3 110 98
f 3 98 90
f 3 90 85
f 3 85 81
f 3 81 77
f 3 77 72
f 3 72 61
f 3 61 48
f 3 48 38
f 3 38 37
f 3 37 36
f 3 36 34
f 3 34 25
f 3 25 24
f 3 24 12
f 3 12 11
f 3 11 6
f 3 6 5
f 3 5 4
f 6 11 7
f 7 11 12
f 7 12 13
f 8 14 15
f 8 15 16
f 8 16 17
f 8 17 18
f 8 18 19
f 8 19 20
f 9 21 10
f 10 21 22
f 10 22 23
f 12 24 13
f 13 24 25
f 13 25 34
f 13 34 26
f 14 27 15
f 14 28 27
f 19 29 20
f 20 29 30
f 22 31 23
f 23 31 32
f 23 32 33
f 26 34 36
f 26 36 37
f 26 37 38
f 26 38 35
f 27 28 39
f 28 40 39
f 29 41 30
f 30 41 43
f 30 43 42
f 31 44 32
f 32 44 45
f 32 45 33
f 33 45 46
f 35 38 47
f 38 48 47
f 39 40 49
f 40 50 49
f 40 51 52
f 40 52 53
f 40 53 54
f 40 54 50
f 42 43 55
f 42 55 56
f 45 57 58
f 45 58 59
f 45 59 46
f 47 48 60
f 48 61 62
f 48 62 63
f 48 63 60
f 51 64 65
f 51 65 66
f 51 66 67
f 51 67 52
f 55 68 56
f 56 68 69
f 57 70 68
f 57 68 58
f 61 71 62
f 61 72 71
f 64 73 74
f 64 74 65
f 68 70 75
f 68 75 69
f 71 72 76
f 72 77 76
f 73 78 79
f 73 79 74
f 76 77 81
f 76 81 80
f 78 82 83
f 78 83 79
f 80 81 84
f 81 85 89
f 81 89 97
f 81 97 109
f 81 109 113
f 81 113 121
f 81 121 105
f 81 105 95
f 81 95 88
f 81 88 84
f 82 86 83
f 83 86 87
f 85 90 91
f 85 91 89
f 86 92 93
f 86 93 94
f 86 94 87
f 88 95 96
f 89 91 97
f 90 98 91
f 91 99 97
f 91 98 100
f 91 100 101
f 91 101 102
f 91 102 99
f 92 103 93
f 93 103 104
f 95 105 106
f 95 106 96
f 96 106 107
f 96 107 108
f 97 99 109
f 98 110 111
f 98 111 100
f 99 112 113
f 99 113 109
f 99 102 114
f 99 114 112
f 100 111 101
f 101 115 114
f 101 114 102
f 101 111 116
f 101 116 117
f 101 117 115
f 103 118 119
f 103 119 120
f 103 120 104
f 105 121 122
f 105 122 123
f 105 123 124
f 105 124 106
f 106 124 107
f 107 125 126
f 107 126 127
f 107 127 128
f 107 128 129
f 107 129 108
f 107 124 123
f 107 123 122
f 107 122 125
f 110 130 111
f 111 130 131
f 111 131 132
f 111 132 133
f 111 133 116
f 112 121 113
f 112 114 115
f 112 115 121
f 115 125 122
f 115 122 134
f 115 134 121
f 115 117 125
f 116 133 117
f 117 133 135
f 117 135 136
f 117 136 125
f 118 137 119
f 119 137 138
f 121 134 122
f 125 136 139
f 125 139 126
f 126 139 127
f 127 139 140
f 127 140 141
f 127 141 128
f 128 141 129
f 129 141 142
f 129 142 143
f 130 144 131
f 131 144 145
f 131 145 146
f 131 146 132
f 132 146 135
f 132 135 147
f 132 147 133
f 133 147 135
f 135 146 148
f 135 148 136
f 136 148 149
f 136 149 150
f 136 150 139
f 137 151 152
f 137 152 138
f 139 150 140
f 140 150 141
f 141 150 153
f 141 153 154
f 141 154 155
f 141 155 142
f 142 155 156
f 142 156 157
f 142 157 143
f 145 158 146
f 146 158 159
f 146 159 160
f 146 160 148
f 148 160 159
f 148 159 161
f 148 161 162
f 148 162 149
f 149 162 150
f 150 162 153
f 151 163 152
f 152 163 164
f 153 162 154
f 154 162 165
f 154 165 166
f 154 166 167
f 154 167 156
f 154 156 155
f 159 168 169
f 159 169 161
f 161 169 170
f 161 170 171
f 161 171 162
f 162 171 172
f 162 172 173
f 162 173 165
f 163 174 175
f 163 175 164
f 165 173 176
f 165 176 166
f 166 176 177
f 166 177 178
f 166 178 167
f 168 179 180
f 168 180 170
f 168 170 169
f 170 172 171
f 170 180 181
f 170 181 182
f 170 182 183
f 170 183 172
f 172 183 176
f 172 176 173
f 174 184 185
f 174 185 175
f 176 183 186
f 176 186 187
f 176 187 177
f 179 188 180
f 180 188 189
f 180 189 181
f 181 189 190
f 181 190 182
f 182 190 191
f 182 191 183
f 183 191 192
f 183 192 193
f 183 193 194
f 183 194 195
f 183 195 196
f 183 196 187
f 183 187 186
f 184 197 185
f 185 197 198
f 188 199 189
f 189 199 200
f 189 200 201
f 189 201 202
f 189 202 190
f 190 202 201
f 190 201 200
f 190 200 205
f 190 205 203
f 190 203 195
f 190 195 194
f 190 194 193
f 190 193 192
f 190 192 191
f 197 204 205
f 197 205 206
f 197 206 198
f 203 205 207
f 204 208 205
f 205 209 210
f 205 210 211
f 205 211 207
f 205 208 209

