# https://github.com/mikedh/trimesh
v -0.02957502 -0.02490081 0.08115291
v -0.02957502 -0.02490081 0.07761173
v -0.02969214 -0.02490081 0.08193872
v -0.00770685 -0.03755580 0.08115291
v -0.00770685 -0.03755387 0.08003244
v -0.03511564 -0.02490081 0.07761173
v -0.00770685 -0.03755387 0.07761173
v -0.02992337 -0.02490081 0.08232879
v -0.00770685 -0.03783040 0.08238702
v -0.00770685 -0.03756740 0.08120832
v -0.03454206 -0.02564533 0.07761173
v -0.03649404 -0.02631057 0.07937554
v -0.03751807 -0.02494335 0.07948012
v -0.03753309 -0.02490081 0.07947108
v -0.00770685 -0.04195720 0.07761173
v -0.03040687 -0.02490081 0.08294895
v -0.00770685 -0.03784781 0.08242320
v -0.03407959 -0.02623902 0.07761173
v -0.03616971 -0.02709377 0.07975091
v -0.03649103 -0.02747667 0.08053445
v -0.03668623 -0.02676889 0.08007654
v -0.03784541 -0.02538813 0.08026479
v -0.03758714 -0.02490081 0.07952648
v -0.03356307 -0.02687718 0.07761173
v -0.03301651 -0.02754049 0.07761173
v -0.03538591 -0.02756756 0.07934275
v -0.03392643 -0.02960002 0.07954287
v -0.03504957 -0.02835270 0.07963615
v -0.00770685 -0.04391230 0.07939250
v -0.00807322 -0.04387363 0.07941624
v -0.00882999 -0.04174835 0.07761173
v -0.03047293 -0.02490081 0.08301509
v -0.00809424 -0.03801605 0.08294443
v -0.00770685 -0.03852658 0.08310837
v -0.03577631 -0.02791565 0.08008558
v -0.03650305 -0.02749214 0.08115291
v -0.03698353 -0.02686945 0.08115291
v -0.03754210 -0.02612686 0.08115291
v -0.03794751 -0.02553897 0.08115291
v -0.03838595 -0.02490081 0.08115291
v -0.03538291 -0.02873560 0.08042025
v -0.03434986 -0.03006414 0.08115291
v -0.03493846 -0.02937956 0.08115291
v -0.03542795 -0.02879168 0.08115291
v -0.03831989 -0.02490081 0.08087534
v -0.03804361 -0.02490081 0.08009746
v -0.03249098 -0.02812257 0.07761173
v -0.03352102 -0.03038709 0.07993012
v -0.03427178 -0.02997712 0.08032698
v -0.03465918 -0.02916877 0.07998156
v -0.03189637 -0.02877427 0.07761173
v -0.03134682 -0.02935636 0.07761173
v -0.03275524 -0.03079706 0.07953383
v -0.00770685 -0.04420238 0.07983288
v -0.00949666 -0.04160331 0.07761173
v -0.00770685 -0.04423525 0.07988320
v -0.00882999 -0.04418111 0.08010198
v -0.01000718 -0.04405734 0.08029871
v -0.00882999 -0.04376533 0.07951348
v -0.01289010 -0.04271913 0.07940324
v -0.03117264 -0.02490081 0.08320052
v -0.00770685 -0.03856333 0.08312194
v -0.03649404 -0.02748441 0.08179004
v -0.03785441 -0.02539974 0.08212358
v -0.03810067 -0.02490081 0.08229657
v -0.03379430 -0.03065396 0.08115291
v -0.03427779 -0.02998292 0.08204556
v -0.03538591 -0.02874140 0.08193193
v -0.03158406 -0.03198057 0.07952422
v -0.03311561 -0.03116062 0.08031793
v -0.03075221 -0.02996745 0.07761173
v -0.01119338 -0.04116820 0.07761173
v -0.00770685 -0.04464136 0.08110317
v -0.00770685 -0.04465489 0.08115291
v -0.01078797 -0.04397419 0.08046322
v -0.01399222 -0.04035212 0.07761173
v -0.01398021 -0.04035599 0.07761173
v -0.01339762 -0.04054164 0.07761173
v -0.01235856 -0.04085298 0.07761173
v -0.01244265 -0.04314070 0.07986794
v -0.01353576 -0.04300147 0.08011837
v -0.01447871 -0.04285836 0.08034676
v -0.01640366 -0.04152789 0.07941228
v -0.03235584 -0.02490081 0.08336673
v -0.00770685 -0.03980871 0.08338481
v -0.03582436 -0.02797367 0.08225304
v -0.03625980 -0.02720207 0.08257470
v -0.03674028 -0.02683464 0.08224116
v -0.03742798 -0.02575363 0.08244129
v -0.03764120 -0.02509226 0.08290825
v -0.03786943 -0.02490081 0.08272678
v -0.03320570 -0.03125344 0.08115291
v -0.03312462 -0.03116836 0.08205856
v -0.03358108 -0.03044897 0.08244412
v -0.03403754 -0.02972185 0.08283023
v -0.03471323 -0.02923259 0.08238080
v -0.03514867 -0.02846292 0.08271604
v -0.03116363 -0.03273476 0.07993803
v -0.03194442 -0.03234026 0.08030889
v -0.03011857 -0.03055727 0.07761173
v -0.02952997 -0.03109294 0.07761173
v -0.02888132 -0.03167502 0.07761173
v -0.02828371 -0.03220682 0.07761173
v -0.03035882 -0.03313119 0.07956775
v -0.03262612 -0.03184133 0.08115291
v -0.00770685 -0.04438802 0.08233275
v -0.01000718 -0.04406894 0.08209362
v -0.01081200 -0.04398192 0.08188671
v -0.00882999 -0.04444217 0.08115291
v -0.01090509 -0.04400319 0.08115291
v -0.01149369 -0.04385816 0.08115291
v -0.01235856 -0.04361256 0.08115291
v -0.01000718 -0.04419851 0.08115291
v -0.01472496 -0.04007752 0.07761173
v -0.01353576 -0.04325867 0.08115291
v -0.01466490 -0.04291638 0.08115291
v -0.01525350 -0.04273653 0.08115291
v -0.01783311 -0.04164779 0.08041686
v -0.01706434 -0.04180056 0.08017717
v -0.01596222 -0.04199974 0.07987359
v -0.01891421 -0.04043334 0.07936367
v -0.01666193 -0.03930785 0.07761173
v -0.01588714 -0.03962500 0.07761173
v -0.03353303 -0.02490081 0.08338708
v -0.00882999 -0.03980871 0.08338708
v -0.00770685 -0.04098642 0.08338708
v -0.03657211 -0.02641887 0.08298513
v -0.03683338 -0.02569368 0.08308180
v -0.03744900 -0.02490081 0.08302018
v -0.03195343 -0.03234606 0.08206931
v -0.03170418 -0.03210046 0.08285341
v -0.03287236 -0.03091309 0.08284267
v -0.03325375 -0.03012989 0.08305014
v -0.03436488 -0.02893865 0.08304053
v -0.03547600 -0.02767779 0.08301792
v -0.03074621 -0.03347928 0.08035185
v -0.03141889 -0.03302097 0.08115291
v -0.03203752 -0.03243115 0.08115291
v -0.02834377 -0.03459897 0.07934331
v -0.02765007 -0.03273863 0.07761173
v -0.02912757 -0.03425668 0.07964293
v -0.00770685 -0.04402253 0.08299813
v -0.00844259 -0.04396452 0.08295121
v -0.00883299 -0.04415983 0.08240624
v -0.00922639 -0.04386783 0.08285002
v -0.01000718 -0.04376727 0.08268212
v -0.01119639 -0.04366477 0.08229883
v -0.01235856 -0.04333409 0.08232936
v -0.01352675 -0.04298406 0.08237967
v -0.01449073 -0.04286223 0.08202069
v -0.01784513 -0.04165166 0.08193645
v -0.01588714 -0.04249867 0.08115291
v -0.01706434 -0.04203842 0.08115291
v -0.01793222 -0.04168646 0.08115291
v -0.01851781 -0.04144473 0.08115291
v -0.01941872 -0.04103476 0.08115291
v -0.02024756 -0.04051456 0.08034902
v -0.01934965 -0.04067120 0.07996460
v -0.01912142 -0.03820170 0.07761173
v -0.01825054 -0.03861747 0.07761173
v -0.01725953 -0.03904872 0.07761173
v -0.01969801 -0.04020708 0.07956436
v -0.02126860 -0.03925951 0.07936253
v -0.03471023 -0.02490081 0.08338708
v -0.00770685 -0.04216219 0.08338651
v -0.01235856 -0.04098642 0.08338708
v -0.03587541 -0.02683464 0.08311233
v -0.03708564 -0.02490081 0.08315360
v -0.03588742 -0.02569368 0.08331641
v -0.03075522 -0.03348895 0.08201617
v -0.03047593 -0.03323562 0.08280027
v -0.02845188 -0.03468406 0.08301792
v -0.02969214 -0.03357211 0.08303601
v -0.03091738 -0.03245049 0.08305014
v -0.03208857 -0.03131533 0.08305240
v -0.03360210 -0.02928674 0.08316490
v -0.03243092 -0.03047218 0.08317169
v -0.03473725 -0.02806069 0.08314568
v -0.02951496 -0.03459897 0.08042704
v -0.03083330 -0.03355664 0.08115291
v -0.02698940 -0.03328590 0.07761173
v -0.02705547 -0.03568579 0.07939137
v -0.02877321 -0.03484844 0.08001153
v -0.00770685 -0.04334376 0.08323105
v -0.01000718 -0.04317938 0.08313946
v -0.01118137 -0.04304208 0.08310498
v -0.01235856 -0.04290091 0.08302979
v -0.01312734 -0.04279842 0.08295913
v -0.01391114 -0.04266305 0.08280536
v -0.01481505 -0.04256636 0.08237967
v -0.01588714 -0.04220860 0.08232936
v -0.01701929 -0.04178896 0.08232879
v -0.01737966 -0.04144087 0.08272112
v -0.01944575 -0.04072148 0.08237910
v -0.02026258 -0.04052036 0.08201956
v -0.02037970 -0.04057644 0.08115291
v -0.02096829 -0.04029217 0.08115291
v -0.02254789 -0.03933299 0.08035807
v -0.02170404 -0.03950123 0.07997026
v -0.02059592 -0.03744751 0.07761173
v -0.02142175 -0.03701046 0.07761173
v -0.02205239 -0.03902164 0.07957340
v -0.02352689 -0.03803926 0.07939080
v -0.03471023 -0.02569368 0.08338708
v -0.03588742 -0.02490081 0.08336107
v -0.00882999 -0.04216219 0.08338538
v -0.01353576 -0.04098642 0.08338312
v -0.01588714 -0.03980871 0.08338708
v -0.03471023 -0.02686945 0.08334468
v -0.02952097 -0.03460477 0.08192458
v -0.02999845 -0.03392213 0.08236271
v -0.02923568 -0.03435724 0.08270869
v -0.02883627 -0.03395114 0.08314286
v -0.02716358 -0.03576314 0.08296817
v -0.02647287 -0.03601454 0.08306654
v -0.02759301 -0.03508630 0.08310159
v -0.03125973 -0.03165568 0.08317169
v -0.03005250 -0.03280631 0.08316208
v -0.03353303 -0.02804715 0.08336163
v -0.03235584 -0.02922292 0.08336899
v -0.02956901 -0.03464538 0.08115291
v -0.03015761 -0.03414452 0.08115291
v -0.02776719 -0.03550207 0.07986115
v -0.02745187 -0.03597586 0.08017603
v -0.02613053 -0.03704333 0.08028458
v -0.02823566 -0.03568965 0.08068539
v -0.02501640 -0.03474594 0.07761173
v -0.02417254 -0.03532609 0.07761173
v -0.02569809 -0.03671652 0.07950047
v -0.01000718 -0.04216219 0.08337408
v -0.01118137 -0.04216219 0.08333959
v -0.01235856 -0.04216219 0.08326440
v -0.01471295 -0.04193786 0.08311968
v -0.01588714 -0.04174061 0.08303318
v -0.01659286 -0.04161684 0.08295347
v -0.01985416 -0.04030377 0.08280423
v -0.02220555 -0.03912220 0.08279179
v -0.02179713 -0.03955345 0.08237175
v -0.02255390 -0.03933686 0.08200768
v -0.02177011 -0.03987446 0.08115291
v -0.02264700 -0.03939101 0.08115291
v -0.02475814 -0.03807600 0.08050279
v -0.02200434 -0.03666817 0.07761173
v -0.02357494 -0.03572253 0.07761173
v -0.02294730 -0.03610736 0.07761173
v -0.03117865 -0.03039869 0.08337068
v -0.02882726 -0.03157639 0.08338708
v -0.01471295 -0.04098642 0.08335429
v -0.01706434 -0.03980871 0.08337634
v -0.02059592 -0.03745717 0.08338708
v -0.01941872 -0.03863294 0.08337973
v -0.02824167 -0.03569545 0.08174933
v -0.02874017 -0.03503602 0.08222929
v -0.02795037 -0.03546726 0.08253344
v -0.02584524 -0.03683448 0.08288450
v -0.02647287 -0.03510370 0.08330115
v -0.02765007 -0.03392987 0.08334468
v -0.02505844 -0.03707621 0.08303884
v -0.02538878 -0.03637810 0.08317282
v -0.02882726 -0.03275216 0.08335824
v -0.03000446 -0.03157639 0.08336899
v -0.02871315 -0.03532223 0.08110769
v -0.02824167 -0.03569545 0.08147006
v -0.02625665 -0.03713616 0.08115291
v -0.02684525 -0.03671072 0.08115291
v -0.02776719 -0.03603774 0.08110769
v -0.01588714 -0.04098642 0.08326779
v -0.01824153 -0.04067120 0.08308406
v -0.01907037 -0.04050489 0.08299757
v -0.02142175 -0.03933299 0.08299870
v -0.02365302 -0.03811274 0.08296874
v -0.02443681 -0.03786135 0.08261541
v -0.02476715 -0.03807987 0.08183074
v -0.02323259 -0.03903905 0.08115291
v -0.02479117 -0.03809341 0.08115291
v -0.02537977 -0.03772404 0.08115291
v -0.02647287 -0.03392987 0.08338708
v -0.01824153 -0.03980871 0.08331867
v -0.02059592 -0.03863294 0.08332320
v -0.02294730 -0.03627947 0.08338708
v -0.02177011 -0.03745717 0.08337690
v -0.02613954 -0.03704914 0.08210040
v -0.02294730 -0.03745717 0.08329775
v -0.02412149 -0.03627947 0.08336051
v -0.02529868 -0.03510370 0.08338086
v -0.02294730 -0.03831580 0.08306315
v -0.02407344 -0.03746298 0.08311459
v -0.01944575 -0.03987060 0.08314738
v -0.02059592 -0.03952831 0.08308858
v -0.02179713 -0.03869096 0.08314625
f 1 2 6
f 1 6 14
f 1 14 23
f 1 23 46
f 1 46 45
f 1 45 40
f 1 40 65
f 1 65 91
f 1 91 129
f 1 129 168
f 1 168 205
f 1 205 164
f 1 164 124
f 1 124 84
f 1 84 61
f 1 61 32
f 1 32 16
f 1 16 8
f 1 8 3
f 1 3 4
f 1 4 5
f 1 5 7
f 1 7 2
f 2 7 15
f 2 15 31
f 2 31 55
f 2 55 72
f 2 72 79
f 2 79 78
f 2 78 77
f 2 77 76
f 2 76 114
f 2 114 123
f 2 123 122
f 2 122 161
f 2 161 160
f 2 160 159
f 2 159 200
f 2 200 201
f 2 201 243
f 2 243 245
f 2 245 244
f 2 244 228
f 2 228 227
f 2 227 181
f 2 181 140
f 2 140 103
f 2 103 102
f 2 102 101
f 2 101 100
f 2 100 71
f 2 71 52
f 2 52 51
f 2 51 47
f 2 47 25
f 2 25 24
f 2 24 18
f 2 18 11
f 2 11 6
f 3 8 9
f 3 9 10
f 3 10 4
f 4 10 9
f 4 9 17
f 4 17 34
f 4 34 62
f 4 62 85
f 4 85 126
f 4 126 165
f 4 165 184
f 4 184 142
f 4 142 106
f 4 106 74
f 4 74 73
f 4 73 56
f 4 56 54
f 4 54 29
f 4 29 15
f 4 15 7
f 4 7 5
f 6 11 12
f 6 12 13
f 6 13 14
f 8 16 9
f 9 16 17
f 11 18 12
f 12 19 20
f 12 20 21
f 12 21 22
f 12 22 23
f 12 23 13
f 12 18 24
f 12 24 25
f 12 25 26
f 12 26 27
f 12 27 28
f 12 28 19
f 13 23 14
f 15 29 30
f 15 30 31
f 16 32 17
f 17 33 34
f 17 32 33
f 19 28 35
f 19 35 20
f 20 36 37
f 20 37 38
f 20 38 39
f 20 39 40
f 20 40 22
f 20 22 21
f 20 35 41
f 20 41 42
f 20 42 43
f 20 43 44
f 20 44 36
f 22 40 45
f 22 45 46
f 22 46 23
f 25 47 27
f 25 27 26
f 27 48 49
f 27 49 50
f 27 50 28
f 27 47 51
f 27 51 52
f 27 52 53
f 27 53 48
f 28 50 41
f 28 41 35
f 29 54 30
f 30 55 31
f 30 54 56
f 30 56 57
f 30 57 58
f 30 58 59
f 30 59 60
f 30 60 55
f 32 61 34
f 32 34 33
f 34 61 62
f 36 44 63
f 36 63 37
f 37 63 38
f 38 63 39
f 39 63 40
f 40 63 64
f 40 64 65
f 41 50 49
f 41 49 42
f 42 49 66
f 42 66 67
f 42 67 68
f 42 68 63
f 42 63 43
f 43 63 44
f 48 53 69
f 48 69 70
f 48 70 49
f 49 70 66
f 52 71 53
f 53 71 69
f 55 60 72
f 56 73 57
f 57 73 58
f 58 73 74
f 58 74 75
f 58 75 60
f 58 60 59
f 60 76 77
f 60 77 78
f 60 78 79
f 60 79 72
f 60 75 80
f 60 80 81
f 60 81 82
f 60 82 83
f 60 83 76
f 61 84 62
f 62 84 85
f 63 68 86
f 63 86 87
f 63 87 88
f 63 88 64
f 64 88 89
f 64 89 90
f 64 90 91
f 64 91 65
f 66 92 93
f 66 93 67
f 66 70 92
f 67 93 94
f 67 94 95
f 67 95 96
f 67 96 68
f 68 96 97
f 68 97 86
f 69 98 99
f 69 99 70
f 69 71 100
f 69 100 101
f 69 101 102
f 69 102 103
f 69 103 104
f 69 104 98
f 70 99 105
f 70 105 92
f 74 106 107
f 74 107 108
f 74 108 109
f 74 109 75
f 75 110 111
f 75 111 112
f 75 112 82
f 75 82 81
f 75 81 80
f 75 109 113
f 75 113 110
f 76 83 114
f 82 112 115
f 82 115 116
f 82 116 117
f 82 117 118
f 82 118 119
f 82 119 120
f 82 120 83
f 83 120 119
f 83 119 121
f 83 121 122
f 83 122 123
f 83 123 114
f 84 124 85
f 85 125 126
f 85 124 125
f 86 97 87
f 87 127 90
f 87 90 88
f 87 97 127
f 88 90 89
f 90 127 128
f 90 128 129
f 90 129 91
f 92 105 93
f 93 105 130
f 93 130 131
f 93 131 132
f 93 132 94
f 94 132 95
f 95 132 133
f 95 133 134
f 95 134 135
f 95 135 127
f 95 127 97
f 95 97 96
f 98 104 136
f 98 136 99
f 99 137 138
f 99 138 105
f 99 136 137
f 103 139 104
f 103 140 139
f 104 139 141
f 104 141 136
f 105 138 130
f 106 142 143
f 106 143 144
f 106 144 107
f 107 144 145
f 107 145 146
f 107 146 108
f 108 147 148
f 108 148 149
f 108 149 150
f 108 150 112
f 108 112 111
f 108 111 110
f 108 110 113
f 108 113 109
f 108 146 147
f 112 150 115
f 115 150 116
f 116 150 117
f 117 150 151
f 117 151 152
f 117 152 118
f 118 152 153
f 118 153 154
f 118 154 155
f 118 155 156
f 118 156 157
f 118 157 158
f 118 158 121
f 118 121 119
f 121 159 160
f 121 160 161
f 121 161 122
f 121 158 162
f 121 162 163
f 121 163 159
f 124 164 204
f 124 204 247
f 124 247 277
f 124 277 280
f 124 280 250
f 124 250 208
f 124 208 166
f 124 166 126
f 124 126 125
f 126 166 165
f 127 135 167
f 127 167 128
f 128 168 129
f 128 167 169
f 128 169 168
f 130 138 137
f 130 137 170
f 130 170 131
f 131 170 171
f 131 171 172
f 131 172 173
f 131 173 174
f 131 174 175
f 131 175 133
f 131 133 132
f 133 176 134
f 133 175 177
f 133 177 176
f 134 176 178
f 134 178 167
f 134 167 135
f 136 179 180
f 136 180 137
f 136 141 179
f 137 180 170
f 139 140 181
f 139 181 182
f 139 182 141
f 141 182 183
f 141 183 179
f 142 184 185
f 142 185 186
f 142 186 143
f 143 145 144
f 143 186 187
f 143 187 188
f 143 188 145
f 145 188 146
f 146 188 147
f 147 188 148
f 148 188 189
f 148 189 149
f 149 189 150
f 150 189 190
f 150 190 191
f 150 191 192
f 150 192 151
f 151 192 193
f 151 193 194
f 151 194 195
f 151 195 156
f 151 156 155
f 151 155 154
f 151 154 153
f 151 153 152
f 156 195 196
f 156 196 157
f 157 162 158
f 157 196 197
f 157 197 198
f 157 198 199
f 157 199 162
f 159 163 200
f 162 199 163
f 163 201 200
f 163 199 202
f 163 202 203
f 163 203 201
f 164 205 204
f 165 206 184
f 165 166 206
f 166 207 206
f 166 208 207
f 167 178 169
f 168 169 205
f 169 178 176
f 169 176 209
f 169 209 205
f 170 210 211
f 170 211 171
f 170 180 210
f 171 211 212
f 171 212 172
f 172 213 173
f 172 212 214
f 172 214 215
f 172 215 216
f 172 216 213
f 173 213 174
f 174 217 175
f 174 213 218
f 174 218 217
f 175 217 177
f 176 177 219
f 176 219 209
f 177 217 220
f 177 220 219
f 179 221 222
f 179 222 180
f 179 183 223
f 179 223 224
f 179 224 225
f 179 225 226
f 179 226 221
f 180 222 210
f 181 227 182
f 182 224 223
f 182 223 183
f 182 227 228
f 182 228 203
f 182 203 229
f 182 229 225
f 182 225 224
f 184 206 230
f 184 230 231
f 184 231 185
f 185 231 186
f 186 231 232
f 186 232 233
f 186 233 187
f 187 233 234
f 187 234 188
f 188 234 235
f 188 235 189
f 189 235 191
f 189 191 190
f 191 235 192
f 192 235 193
f 193 235 236
f 193 236 194
f 194 236 195
f 195 236 237
f 195 237 238
f 195 238 239
f 195 239 197
f 195 197 196
f 197 239 240
f 197 240 198
f 198 202 199
f 198 240 241
f 198 241 242
f 198 242 203
f 198 203 202
f 201 203 243
f 203 242 225
f 203 225 229
f 203 228 244
f 203 244 245
f 203 245 243
f 204 205 219
f 204 219 220
f 204 220 246
f 204 246 247
f 205 209 219
f 206 207 230
f 207 248 230
f 207 208 249
f 207 249 248
f 208 250 251
f 208 251 249
f 210 222 221
f 210 221 252
f 210 252 253
f 210 253 212
f 210 212 211
f 212 253 254
f 212 254 255
f 212 255 214
f 213 216 256
f 213 256 257
f 213 257 218
f 214 255 258
f 214 258 215
f 215 258 259
f 215 259 216
f 216 259 256
f 217 218 257
f 217 257 260
f 217 260 261
f 217 261 246
f 217 246 220
f 221 226 262
f 221 262 263
f 221 263 252
f 225 242 226
f 226 242 264
f 226 264 265
f 226 265 266
f 226 266 263
f 226 263 262
f 230 248 231
f 231 248 232
f 232 248 267
f 232 267 233
f 233 267 268
f 233 268 234
f 234 268 235
f 235 268 269
f 235 269 236
f 236 270 237
f 236 269 270
f 237 239 238
f 237 270 271
f 237 271 255
f 237 255 272
f 237 272 239
f 239 241 240
f 239 272 273
f 239 273 241
f 241 273 274
f 241 274 242
f 242 274 275
f 242 275 276
f 242 276 264
f 246 261 277
f 246 277 247
f 248 249 278
f 248 278 267
f 249 251 279
f 249 279 278
f 250 280 251
f 251 280 281
f 251 281 279
f 252 263 265
f 252 265 264
f 252 264 273
f 252 273 282
f 252 282 255
f 252 255 254
f 252 254 253
f 255 282 273
f 255 273 272
f 255 271 258
f 256 259 283
f 256 283 284
f 256 284 257
f 257 284 285
f 257 285 260
f 258 271 286
f 258 286 287
f 258 287 259
f 259 287 283
f 260 285 261
f 261 285 277
f 263 266 265
f 264 276 273
f 267 278 268
f 268 278 288
f 268 288 289
f 268 289 269
f 269 289 270
f 270 289 286
f 270 286 271
f 273 276 275
f 273 275 274
f 277 285 280
f 278 279 288
f 279 289 288
f 279 281 284
f 279 284 283
f 279 283 290
f 279 290 289
f 280 285 281
f 281 285 284
f 283 287 290
f 286 289 290
f 286 290 287

