# https://github.com/mikedh/trimesh
v -0.00770685 -0.04321264 0.06585955
v -0.00770685 -0.04321264 0.06720000
v -0.00770685 -0.04301354 0.06468308
v -0.00765049 -0.06430745 0.06253703
v -0.00770685 -0.04320766 0.06821058
v -0.00770685 -0.04272733 0.06439230
v -0.00763526 -0.06548463 0.06253703
v -0.00764135 -0.06451650 0.06350566
v -0.00765049 -0.06333932 0.06350566
v -0.00770685 -0.04272733 0.06916491
v -0.00770685 -0.04306331 0.06854521
v -0.00765049 -0.06195307 0.06253703
v -0.00294398 -0.04272733 0.06197644
v -0.00749361 -0.04272733 0.06363246
v -0.00764592 -0.06077837 0.06253703
v -0.00761089 -0.06569120 0.06253703
v -0.00749208 -0.06451650 0.06468308
v -0.00763373 -0.06333932 0.06468308
v -0.00764897 -0.06098494 0.06585955
v -0.00765049 -0.06216213 0.06468308
v -0.00749817 -0.06569120 0.06350566
v -0.00763830 -0.05510647 0.06821058
v -0.00761698 -0.05628117 0.06821058
v -0.00765201 -0.04272733 0.06938704
v -0.00764897 -0.05863305 0.06703411
v -0.00385939 -0.04272733 0.06210706
v -0.00176811 -0.04272733 0.06190494
v -0.00738699 -0.06685346 0.06253703
v -0.00707017 -0.04272733 0.06337505
v -0.00755910 -0.05960119 0.06253703
v -0.00412137 -0.04272733 0.06214615
v -0.00720573 -0.06451650 0.06554780
v -0.00736718 -0.06342145 0.06594917
v -0.00760632 -0.06216213 0.06585955
v -0.00719812 -0.06558916 0.06458679
v -0.00762003 -0.05980775 0.06703411
v -0.00721335 -0.06658467 0.06350566
v -0.00732301 -0.05628117 0.06919923
v -0.00734434 -0.05510647 0.06929647
v -0.00756519 -0.05745587 0.06821058
v -0.00747076 -0.04272733 0.06999339
v -0.00059224 -0.04272733 0.06186776
v -0.00711739 -0.06755529 0.06253703
v -0.00735957 -0.06693808 0.06253703
v -0.00574199 -0.04272733 0.06264381
v -0.00492254 -0.04272733 0.06232443
v -0.00707931 -0.06512874 0.06529420
v -0.00720116 -0.06308297 0.06665562
v -0.00729407 -0.06210986 0.06704174
v -0.00751341 -0.06098494 0.06703411
v -0.00708693 -0.06631339 0.06413012
v -0.00703819 -0.06744081 0.06289836
v -0.00701382 -0.05393177 0.06994763
v -0.00706103 -0.05332948 0.06997432
v -0.00726970 -0.05745587 0.06907243
v -0.00734129 -0.04272733 0.07025462
v -0.00745553 -0.05863305 0.06821058
v 0.00058210 -0.04272733 0.06186776
v -0.00529723 -0.06815260 0.06253703
v -0.00643045 -0.06792612 0.06253703
v -0.00668786 -0.06782408 0.06253703
v -0.00647310 -0.06529300 0.06543625
v -0.00654926 -0.06449659 0.06608264
v -0.00699249 -0.06386942 0.06640202
v -0.00647310 -0.06588035 0.06488234
v -0.00711587 -0.06168677 0.06768241
v -0.00722096 -0.06098494 0.06784639
v -0.00728493 -0.05972313 0.06823632
v -0.00647310 -0.06646023 0.06429410
v -0.00625529 -0.06760507 0.06310048
v -0.00657667 -0.06711976 0.06349804
v -0.00642588 -0.05393177 0.07015070
v -0.00689349 -0.05510647 0.06988471
v -0.00630403 -0.05510647 0.07010589
v -0.00647462 -0.04272733 0.07058353
v -0.00716156 -0.05863305 0.06891798
v 0.00067349 -0.04272733 0.06186967
v 0.00667924 -0.06782408 0.06253703
v 0.00642183 -0.06792612 0.06253703
v 0.00550033 -0.06812273 0.06253703
v 0.00528861 -0.06815260 0.06253703
v -0.00529723 -0.06767973 0.06319105
v -0.00529723 -0.06544232 0.06556782
v -0.00620807 -0.06409092 0.06657363
v -0.00529723 -0.06602967 0.06502820
v -0.00654926 -0.06342145 0.06687871
v -0.00647310 -0.06253047 0.06748029
v -0.00647310 -0.06194312 0.06783304
v -0.00638171 -0.06088539 0.06840506
v -0.00671528 -0.06005912 0.06864532
v -0.00708083 -0.05927515 0.06881883
v -0.00529723 -0.06659214 0.06443997
v -0.00529723 -0.06717700 0.06377928
v -0.00529723 -0.05393177 0.07032612
v -0.00058006 -0.04272733 0.07160746
v -0.00529723 -0.04272733 0.07081234
v -0.00611364 -0.05604722 0.07004583
v -0.00649290 -0.05637574 0.06981988
v -0.00529723 -0.05510647 0.07023745
v 0.00175797 -0.04272733 0.06190494
v 0.00729307 -0.06707745 0.06253703
v 0.00702957 -0.06744081 0.06289836
v 0.00624667 -0.06760507 0.06310048
v 0.00528861 -0.06767973 0.06319105
v 0.00528861 -0.06544232 0.06556782
v -0.00529723 -0.06476040 0.06615605
v -0.00529723 -0.06417056 0.06663750
v -0.00529723 -0.06333932 0.06721430
v -0.00529723 -0.06273455 0.06761281
v 0.00528861 -0.06602967 0.06502820
v -0.00529723 -0.06214720 0.06795316
v -0.00593086 -0.06042746 0.06881216
v -0.00638171 -0.05972313 0.06891894
v -0.00647310 -0.05863305 0.06926406
v -0.00647310 -0.05745587 0.06958153
v 0.00528861 -0.06659214 0.06443997
v 0.00528861 -0.06717700 0.06377928
v 0.00528861 -0.04272733 0.07080948
v 0.00528861 -0.05510647 0.07023745
v 0.00528861 -0.05393177 0.07032612
v -0.00529723 -0.05622393 0.07008110
v -0.00529723 -0.05745587 0.06981797
v -0.00529723 -0.05681127 0.06996384
v 0.00188591 -0.04272733 0.06191162
v 0.00735247 -0.06693808 0.06253703
v 0.00720473 -0.06658467 0.06350566
v 0.00707983 -0.06631339 0.06413108
v 0.00646600 -0.06646023 0.06429410
v 0.00656958 -0.06711976 0.06349804
v 0.00646600 -0.06529300 0.06543625
v 0.00620098 -0.06409092 0.06657363
v 0.00528861 -0.06476040 0.06615605
v 0.00528861 -0.06417056 0.06663750
v 0.00528861 -0.06333932 0.06721430
v 0.00528861 -0.06273455 0.06761281
v 0.00646600 -0.06588035 0.06488329
v 0.00528861 -0.06214720 0.06795316
v -0.00529723 -0.06102974 0.06854140
v -0.00529723 -0.06044239 0.06881883
v -0.00529723 -0.05980775 0.06906957
v -0.00529723 -0.05863305 0.06949096
v 0.00610807 -0.04272733 0.07066552
v 0.00641726 -0.05393177 0.07015070
v 0.00528861 -0.05622393 0.07008110
v 0.00610654 -0.05604722 0.07004583
v 0.00629694 -0.05510647 0.07010589
v 0.00528861 -0.05745587 0.06981797
v 0.00528861 -0.05681127 0.06996384
v 0.00293536 -0.04272733 0.06197644
v 0.00760379 -0.06569120 0.06253703
v 0.00748956 -0.06569120 0.06350566
v 0.00718950 -0.06558916 0.06458679
v 0.00707222 -0.06512874 0.06529420
v 0.00654216 -0.06449659 0.06608264
v 0.00698540 -0.06386942 0.06640202
v 0.00654216 -0.06342145 0.06687871
v 0.00646600 -0.06253047 0.06748029
v 0.00646600 -0.06194312 0.06783304
v 0.00592224 -0.06042746 0.06881216
v 0.00528861 -0.06102974 0.06854140
v 0.00528861 -0.06044239 0.06881883
v 0.00528861 -0.05980775 0.06906957
v 0.00528861 -0.05863305 0.06949096
v 0.00646448 -0.04272733 0.07058258
v 0.00700672 -0.05393177 0.06994763
v 0.00705241 -0.05332948 0.06997432
v 0.00646600 -0.05863305 0.06926406
v 0.00646600 -0.05745587 0.06958153
v 0.00648581 -0.05637574 0.06981988
v 0.00688487 -0.05510647 0.06988471
v 0.00411122 -0.04272733 0.06214615
v 0.00763730 -0.06098494 0.06253703
v 0.00764187 -0.06216213 0.06253703
v 0.00764187 -0.06333932 0.06253703
v 0.00763882 -0.06451650 0.06253703
v 0.00763273 -0.06451650 0.06350566
v 0.00748346 -0.06451650 0.06468308
v 0.00719711 -0.06451650 0.06554780
v 0.00719254 -0.06308297 0.06665562
v 0.00710725 -0.06168677 0.06768241
v 0.00637462 -0.06088539 0.06840506
v 0.00670666 -0.06005912 0.06864532
v 0.00637462 -0.05972313 0.06891894
v 0.00707069 -0.04272733 0.07036616
v 0.00726261 -0.05745587 0.06907243
v 0.00731439 -0.05628117 0.06919923
v 0.00733724 -0.05510647 0.06929647
v 0.00733115 -0.04272733 0.07025557
v 0.00707374 -0.05927515 0.06881883
v 0.00715446 -0.05863305 0.06891798
v 0.00635329 -0.04272733 0.06273247
v 0.00755962 -0.05980775 0.06253703
v 0.00748499 -0.04272733 0.06363341
v 0.00760379 -0.04272733 0.06397663
v 0.00779875 -0.04272733 0.06468308
v 0.00782313 -0.04272733 0.06509113
v 0.00785359 -0.04272733 0.06585955
v 0.00785359 -0.04272733 0.06703411
v 0.00785206 -0.04272733 0.06821058
v 0.00764035 -0.06098494 0.06585955
v 0.00762512 -0.06333932 0.06468308
v 0.00759922 -0.06216213 0.06585955
v 0.00736009 -0.06342145 0.06594917
v 0.00728546 -0.06210986 0.06704174
v 0.00721234 -0.06098494 0.06784639
v 0.00744843 -0.05863305 0.06821058
v 0.00755657 -0.05745587 0.06821058
v 0.00760989 -0.05628117 0.06821058
v 0.00764492 -0.04272733 0.06938704
v 0.00727632 -0.05972313 0.06823632
v 0.00764035 -0.05863305 0.06703411
v 0.00761293 -0.05980775 0.06703411
v 0.00750631 -0.06098494 0.06703411
f 1 2 5
f 1 5 11
f 1 11 10
f 1 10 6
f 1 6 3
f 1 3 4
f 1 4 2
f 2 4 5
f 3 6 4
f 4 7 8
f 4 8 9
f 4 9 10
f 4 10 11
f 4 11 5
f 4 6 12
f 4 12 13
f 4 13 7
f 6 10 24
f 6 24 41
f 6 41 56
f 6 56 75
f 6 75 96
f 6 96 95
f 6 95 118
f 6 118 142
f 6 142 164
f 6 164 184
f 6 184 188
f 6 188 209
f 6 209 199
f 6 199 198
f 6 198 197
f 6 197 196
f 6 196 195
f 6 195 194
f 6 194 193
f 6 193 191
f 6 191 171
f 6 171 149
f 6 149 124
f 6 124 100
f 6 100 77
f 6 77 58
f 6 58 42
f 6 42 27
f 6 27 13
f 6 13 26
f 6 26 31
f 6 31 46
f 6 46 45
f 6 45 29
f 6 29 14
f 6 14 15
f 6 15 12
f 7 16 8
f 7 13 16
f 8 17 18
f 8 18 19
f 8 19 20
f 8 20 9
f 8 16 21
f 8 21 17
f 9 20 10
f 10 22 23
f 10 23 24
f 10 20 19
f 10 19 25
f 10 25 22
f 12 15 13
f 13 27 28
f 13 28 16
f 13 15 26
f 14 29 30
f 14 30 15
f 15 30 31
f 15 31 26
f 16 28 21
f 17 32 33
f 17 33 34
f 17 34 18
f 17 21 35
f 17 35 32
f 18 34 19
f 19 34 36
f 19 36 25
f 21 28 37
f 21 37 35
f 22 25 23
f 23 38 39
f 23 39 24
f 23 25 36
f 23 36 40
f 23 40 38
f 24 39 41
f 27 42 43
f 27 43 44
f 27 44 28
f 28 44 37
f 29 45 30
f 30 45 46
f 30 46 31
f 32 35 47
f 32 47 48
f 32 48 33
f 33 48 49
f 33 49 50
f 33 50 34
f 34 50 36
f 35 37 51
f 35 51 47
f 36 50 40
f 37 44 43
f 37 43 52
f 37 52 51
f 38 53 54
f 38 54 39
f 38 40 55
f 38 55 53
f 39 54 56
f 39 56 41
f 40 50 57
f 40 57 55
f 42 58 81
f 42 81 59
f 42 59 60
f 42 60 61
f 42 61 43
f 43 61 52
f 47 62 63
f 47 63 64
f 47 64 48
f 47 51 65
f 47 65 62
f 48 64 66
f 48 66 49
f 49 66 67
f 49 67 50
f 50 67 68
f 50 68 57
f 51 52 69
f 51 69 65
f 52 61 60
f 52 60 70
f 52 70 71
f 52 71 69
f 53 72 54
f 53 55 73
f 53 73 74
f 53 74 72
f 54 72 75
f 54 75 56
f 55 57 76
f 55 76 73
f 57 68 76
f 58 77 78
f 58 78 79
f 58 79 80
f 58 80 81
f 59 81 104
f 59 104 82
f 59 82 70
f 59 70 60
f 62 83 84
f 62 84 63
f 62 65 85
f 62 85 83
f 63 84 64
f 64 86 87
f 64 87 66
f 64 84 86
f 65 69 85
f 66 87 88
f 66 88 89
f 66 89 90
f 66 90 91
f 66 91 67
f 67 91 68
f 68 91 76
f 69 92 85
f 69 71 70
f 69 70 92
f 70 82 93
f 70 93 92
f 72 74 94
f 72 94 95
f 72 95 96
f 72 96 75
f 73 97 74
f 73 76 91
f 73 91 98
f 73 98 97
f 74 97 99
f 74 99 94
f 77 100 101
f 77 101 78
f 78 101 102
f 78 102 79
f 79 102 103
f 79 103 80
f 80 103 104
f 80 104 81
f 82 104 117
f 82 117 93
f 83 105 132
f 83 132 106
f 83 106 84
f 83 85 110
f 83 110 105
f 84 106 107
f 84 107 108
f 84 108 109
f 84 109 87
f 84 87 86
f 85 92 116
f 85 116 110
f 87 109 88
f 88 111 112
f 88 112 89
f 88 109 111
f 89 112 90
f 90 112 113
f 90 113 91
f 91 114 115
f 91 115 98
f 91 113 114
f 92 93 117
f 92 117 116
f 94 99 95
f 95 99 119
f 95 119 120
f 95 120 118
f 97 121 99
f 97 98 115
f 97 115 114
f 97 114 122
f 97 122 123
f 97 123 121
f 99 121 144
f 99 144 119
f 100 124 125
f 100 125 101
f 101 125 102
f 102 125 126
f 102 126 127
f 102 127 128
f 102 128 129
f 102 129 103
f 103 129 128
f 103 128 116
f 103 116 117
f 103 117 104
f 105 130 131
f 105 131 132
f 105 110 130
f 106 132 133
f 106 133 107
f 107 133 134
f 107 134 108
f 108 134 135
f 108 135 109
f 109 135 137
f 109 137 111
f 110 136 130
f 110 116 128
f 110 128 136
f 111 137 160
f 111 160 138
f 111 138 112
f 112 138 139
f 112 139 140
f 112 140 141
f 112 141 114
f 112 114 113
f 114 141 122
f 118 120 143
f 118 143 142
f 119 144 145
f 119 145 146
f 119 146 120
f 120 146 143
f 121 123 148
f 121 148 144
f 122 141 163
f 122 163 147
f 122 147 148
f 122 148 123
f 124 149 150
f 124 150 125
f 125 150 151
f 125 151 126
f 126 151 152
f 126 152 127
f 127 152 153
f 127 153 136
f 127 136 128
f 130 153 154
f 130 154 131
f 130 136 153
f 131 155 156
f 131 156 157
f 131 157 135
f 131 135 134
f 131 134 133
f 131 133 132
f 131 154 155
f 135 157 158
f 135 158 137
f 137 158 159
f 137 159 160
f 138 160 161
f 138 161 139
f 139 161 162
f 139 162 140
f 140 162 163
f 140 163 141
f 142 143 164
f 143 146 165
f 143 165 166
f 143 166 164
f 144 148 145
f 145 148 147
f 145 147 167
f 145 167 168
f 145 168 169
f 145 169 170
f 145 170 146
f 146 170 165
f 147 163 167
f 149 171 172
f 149 172 173
f 149 173 174
f 149 174 175
f 149 175 150
f 150 175 176
f 150 176 151
f 151 176 177
f 151 177 152
f 152 177 178
f 152 178 153
f 153 178 179
f 153 179 155
f 153 155 154
f 155 179 180
f 155 180 157
f 155 157 156
f 157 180 158
f 158 180 181
f 158 181 159
f 159 161 160
f 159 181 182
f 159 182 183
f 159 183 167
f 159 167 163
f 159 163 162
f 159 162 161
f 164 166 184
f 165 170 185
f 165 185 186
f 165 186 166
f 166 186 187
f 166 187 188
f 166 188 184
f 167 183 189
f 167 189 168
f 168 189 169
f 169 189 170
f 170 189 190
f 170 190 185
f 171 191 192
f 171 192 172
f 172 192 193
f 172 193 194
f 172 194 195
f 172 195 173
f 173 195 174
f 174 195 196
f 174 196 175
f 175 196 197
f 175 197 198
f 175 198 199
f 175 199 176
f 176 200 201
f 176 201 177
f 176 199 200
f 177 201 202
f 177 202 203
f 177 203 178
f 178 203 179
f 179 203 204
f 179 204 180
f 180 204 205
f 180 205 189
f 180 189 182
f 180 182 181
f 182 189 183
f 185 190 206
f 185 206 207
f 185 207 186
f 186 208 187
f 186 207 208
f 187 208 209
f 187 209 188
f 189 210 190
f 189 205 210
f 190 210 206
f 191 193 192
f 199 209 208
f 199 208 211
f 199 211 200
f 200 211 212
f 200 212 202
f 200 202 201
f 202 212 213
f 202 213 203
f 203 213 204
f 204 213 205
f 205 213 210
f 206 210 213
f 206 213 207
f 207 213 212
f 207 212 208
f 208 212 211

