# https://github.com/mikedh/trimesh
v 0.02215891 0.01440043 0.01177153
v 0.02215891 0.01437363 0.01177426
v 0.02215891 0.01455079 0.01177153
v 0.02378679 0.01455079 0.01203063
v 0.02385339 0.01388200 0.01207836
v 0.02215891 0.01319360 0.01193517
v 0.02215891 0.01455079 0.01459705
v 0.02411825 0.01455079 0.01208927
v 0.02680403 0.01440239 0.01257473
v 0.02680403 0.01323348 0.01265792
v 0.02680403 0.01206457 0.01285428
v 0.02215891 0.01204234 0.01218472
v 0.02215891 0.01141605 0.01671755
v 0.03798238 0.01069038 0.02532092
v 0.03798238 0.01455079 0.02010353
v 0.02680403 0.01455079 0.01257473
v 0.02797344 0.01440239 0.01280656
v 0.02797344 0.01323348 0.01289110
v 0.02797035 0.01208745 0.01309702
v 0.02757848 0.01135329 0.01318702
v 0.02680403 0.01116043 0.01311611
v 0.02566095 0.01083290 0.01304247
v 0.02446521 0.01089631 0.01285292
v 0.02215891 0.01089631 0.01258155
v 0.02215891 0.01091854 0.01700119
v 0.03798238 0.00972740 0.02570138
v 0.03798238 0.01455079 0.01663846
v 0.02782475 0.01455079 0.01277792
v 0.02797344 0.01455079 0.01280792
v 0.02981972 0.01440239 0.01322111
v 0.02978100 0.01374864 0.01322929
v 0.02870452 0.01249212 0.01320338
v 0.03022553 0.01330866 0.01342839
v 0.03147859 0.01323348 0.01379112
v 0.03241566 0.01227704 0.01430113
v 0.02835912 0.01171285 0.01330429
v 0.02948516 0.01296936 0.01330702
v 0.02990181 0.01022229 0.01435841
v 0.02797035 0.01093750 0.01349657
v 0.02680403 0.01057597 0.01337111
v 0.02528922 0.01020856 0.01318838
v 0.03204238 0.01149776 0.01441705
v 0.03158236 0.01087147 0.01455887
v 0.02215891 0.01087408 0.01259110
v 0.02215891 0.00975943 0.01723984
v 0.02215891 0.00972740 0.01724529
v 0.02215891 0.00889190 0.01697801
v 0.03798238 0.00947701 0.02559638
v 0.03798238 0.01440239 0.01662073
v 0.03732410 0.01440239 0.01620754
v 0.03733184 0.01455079 0.01623345
v 0.02981508 0.01455079 0.01322248
v 0.03040211 0.01440239 0.01336157
v 0.03147859 0.01440239 0.01366567
v 0.03337443 0.01348910 0.01435295
v 0.03274248 0.01315307 0.01419886
v 0.03319631 0.01270982 0.01442250
v 0.03274248 0.01195866 0.01450296
v 0.03158236 0.01195866 0.01415113
v 0.03029833 0.00979081 0.01477705
v 0.02741739 0.00913248 0.01440205
v 0.02914131 0.01007127 0.01425204
v 0.03067936 0.01046549 0.01447841
v 0.03264800 0.01089631 0.01487797
v 0.03339611 0.01019026 0.01550116
v 0.03264800 0.01001244 0.01535798
v 0.02566095 0.00978232 0.01354976
v 0.02446521 0.00954762 0.01353339
v 0.02446521 0.01013207 0.01314066
v 0.02680403 0.00972740 0.01386340
v 0.02215891 0.00997256 0.01304247
v 0.02215891 0.00886379 0.01696438
v 0.03798238 0.00891021 0.02520637
v 0.03798238 0.01363227 0.01667255
v 0.03647221 0.01440239 0.01571662
v 0.03720329 0.01455079 0.01615436
v 0.03027664 0.01455079 0.01333430
v 0.03147859 0.01455079 0.01367521
v 0.03264800 0.01440239 0.01404613
v 0.03343793 0.01440239 0.01432705
v 0.03402186 0.01440239 0.01457250
v 0.03498527 0.01440239 0.01499797
v 0.03588828 0.01440239 0.01542207
v 0.03576282 0.01345510 0.01548343
v 0.03378488 0.01315307 0.01459023
v 0.03483503 0.01206457 0.01535389
v 0.03381586 0.01206457 0.01487933
v 0.03102476 0.00909130 0.01552707
v 0.02680403 0.00904619 0.01432023
v 0.02787277 0.00970517 0.01415522
v 0.03030917 0.00897624 0.01540434
v 0.03379728 0.01090285 0.01532525
v 0.03264800 0.00942798 0.01587208
v 0.03460270 0.01129641 0.01549025
v 0.03417520 0.01051779 0.01570571
v 0.03646447 0.01057597 0.01687846
v 0.03568537 0.01023667 0.01669437
v 0.03614230 0.00972479 0.01733802
v 0.03659922 0.00921355 0.01799394
v 0.02563462 0.00892328 0.01418249
v 0.02215891 0.00938810 0.01343112
v 0.02215891 0.00833556 0.01619254
v 0.03798238 0.00867878 0.02488455
v 0.03798238 0.01359174 0.01667800
v 0.03638702 0.01455079 0.01568526
v 0.03645982 0.01455079 0.01572617
v 0.03249930 0.01455079 0.01400795
v 0.03266039 0.01455079 0.01406249
v 0.03342709 0.01455079 0.01433114
v 0.03391809 0.01455079 0.01453841
v 0.03498527 0.01455079 0.01501024
v 0.03587589 0.01455079 0.01542752
v 0.03509370 0.01313280 0.01522706
v 0.03739535 0.01322302 0.01642164
v 0.03615314 0.01313280 0.01576299
v 0.03541896 0.01206457 0.01566071
v 0.03143986 0.00878011 0.01611754
v 0.03264800 0.00890694 0.01645709
v 0.02914131 0.00884353 0.01524888
v 0.02680403 0.00854215 0.01499660
v 0.03030917 0.00845258 0.01616527
v 0.03341625 0.00905796 0.01663300
v 0.03615469 0.01206457 0.01605754
v 0.03682071 0.01135459 0.01669301
v 0.03498992 0.01090285 0.01591572
v 0.03734733 0.01085512 0.01731211
v 0.03787551 0.01035500 0.01794485
v 0.03709641 0.00999282 0.01765848
v 0.03618721 0.00875265 0.01843168
v 0.03582013 0.00905011 0.01779757
v 0.03742013 0.00965287 0.01819713
v 0.03794366 0.00912137 0.01906033
v 0.03732410 0.00896185 0.01883123
v 0.02561448 0.00827476 0.01510161
v 0.02446521 0.00886968 0.01411840
v 0.02215891 0.00936980 0.01344748
v 0.02215891 0.00831987 0.01616527
v 0.03798238 0.00820023 0.02406771
v 0.03783214 0.01282685 0.01680483
v 0.03798238 0.01292491 0.01688392
v 0.03703601 0.01206457 0.01656209
v 0.03256745 0.00828064 0.01743757
v 0.02599086 0.00798842 0.01572617
v 0.03147859 0.00814401 0.01724256
v 0.03761994 0.01206457 0.01695210
v 0.03798238 0.01145331 0.01747302
v 0.03798238 0.01107021 0.01764484
v 0.03798238 0.01042757 0.01798440
v 0.03798238 0.01024125 0.01812213
v 0.03798238 0.00973459 0.01855441
v 0.03732410 0.00850030 0.01967125
v 0.03613610 0.00812113 0.01972444
v 0.03290512 0.00802045 0.01812622
v 0.03798238 0.00917694 0.01904124
v 0.03798238 0.00910699 0.01911624
v 0.03798238 0.00894878 0.01938216
v 0.02521022 0.00796423 0.01556116
v 0.02215891 0.00878796 0.01403931
v 0.02215891 0.00880365 0.01401477
v 0.02215891 0.00825580 0.01502797
v 0.02329734 0.00814139 0.01616527
v 0.03798238 0.00800280 0.02360816
v 0.03798238 0.01267844 0.01697256
v 0.03212447 0.00796553 0.01789712
v 0.03798238 0.01209007 0.01720711
v 0.03732410 0.00809694 0.02061355
v 0.03798238 0.00877031 0.01970807
v 0.03798238 0.00837805 0.02043763
v 0.03798238 0.00797273 0.02137856
v 0.03796844 0.00796292 0.02139220
v 0.03651403 0.00799822 0.02037491
v 0.02491128 0.00796423 0.01556116
v 0.02215891 0.00825972 0.01499660
v 0.03147859 0.00795311 0.01782758
v 0.03256745 0.00794069 0.01851077
v 0.03732410 0.00788251 0.02200994
v 0.03798238 0.00787205 0.02272586
v 0.02491128 0.00796423 0.01577662
v 0.02516531 0.00798319 0.01655528
v 0.03798238 0.00789166 0.02304360
v 0.03344413 0.00793742 0.01890351
v 0.03732410 0.00792500 0.02119719
v 0.03798238 0.00796096 0.02141129
v 0.02557731 0.00795769 0.01614072
v 0.02594440 0.00795115 0.01680892
v 0.03798238 0.00790277 0.02201812
v 0.03798238 0.00791977 0.02169766
f 1 2 6
f 1 6 12
f 1 12 24
f 1 24 44
f 1 44 71
f 1 71 101
f 1 101 136
f 1 136 159
f 1 159 158
f 1 158 173
f 1 173 160
f 1 160 137
f 1 137 102
f 1 102 72
f 1 72 47
f 1 47 46
f 1 46 45
f 1 45 25
f 1 25 13
f 1 13 7
f 1 7 3
f 1 3 4
f 1 4 5
f 1 5 2
f 2 5 6
f 3 7 15
f 3 15 27
f 3 27 51
f 3 51 76
f 3 76 106
f 3 106 105
f 3 105 112
f 3 112 111
f 3 111 110
f 3 110 109
f 3 109 108
f 3 108 107
f 3 107 78
f 3 78 77
f 3 77 52
f 3 52 29
f 3 29 28
f 3 28 16
f 3 16 8
f 3 8 4
f 4 8 5
f 5 8 9
f 5 9 10
f 5 10 11
f 5 11 6
f 6 11 12
f 7 13 14
f 7 14 15
f 8 16 9
f 9 16 17
f 9 17 10
f 10 17 18
f 10 18 11
f 11 18 19
f 11 19 20
f 11 20 21
f 11 21 22
f 11 22 12
f 12 22 23
f 12 23 24
f 13 25 14
f 14 26 48
f 14 48 73
f 14 73 103
f 14 103 138
f 14 138 162
f 14 162 180
f 14 180 177
f 14 177 186
f 14 186 187
f 14 187 183
f 14 183 169
f 14 169 168
f 14 168 167
f 14 167 156
f 14 156 155
f 14 155 154
f 14 154 150
f 14 150 149
f 14 149 148
f 14 148 147
f 14 147 146
f 14 146 165
f 14 165 163
f 14 163 140
f 14 140 104
f 14 104 74
f 14 74 49
f 14 49 27
f 14 27 15
f 14 25 26
f 16 28 17
f 17 28 29
f 17 29 30
f 17 30 31
f 17 31 18
f 18 31 19
f 19 32 33
f 19 33 34
f 19 34 35
f 19 35 36
f 19 36 20
f 19 31 37
f 19 37 32
f 20 38 39
f 20 39 40
f 20 40 41
f 20 41 21
f 20 36 42
f 20 42 43
f 20 43 38
f 21 41 22
f 22 41 23
f 23 41 24
f 24 41 44
f 25 45 26
f 26 46 47
f 26 47 48
f 26 45 46
f 27 49 50
f 27 50 51
f 29 52 30
f 30 52 53
f 30 53 31
f 31 53 54
f 31 54 34
f 31 34 33
f 31 33 37
f 32 37 33
f 34 54 55
f 34 55 56
f 34 56 57
f 34 57 35
f 35 57 58
f 35 58 42
f 35 42 59
f 35 59 36
f 36 59 42
f 38 60 61
f 38 61 62
f 38 62 41
f 38 41 40
f 38 40 39
f 38 43 63
f 38 63 64
f 38 64 65
f 38 65 66
f 38 66 60
f 41 67 68
f 41 68 69
f 41 69 44
f 41 62 70
f 41 70 67
f 42 58 64
f 42 64 43
f 43 64 63
f 44 69 71
f 47 72 48
f 48 72 73
f 49 74 50
f 50 75 76
f 50 76 51
f 50 74 75
f 52 77 53
f 53 77 54
f 54 78 79
f 54 79 55
f 54 77 78
f 55 80 81
f 55 81 82
f 55 82 83
f 55 83 84
f 55 84 85
f 55 85 57
f 55 57 56
f 55 79 80
f 57 85 86
f 57 86 87
f 57 87 58
f 58 87 64
f 60 88 61
f 60 66 88
f 61 89 67
f 61 67 70
f 61 70 90
f 61 90 62
f 61 88 91
f 61 91 89
f 62 90 70
f 64 87 92
f 64 92 65
f 65 93 66
f 65 92 94
f 65 94 95
f 65 95 96
f 65 96 97
f 65 97 98
f 65 98 99
f 65 99 93
f 66 93 88
f 67 100 68
f 67 89 100
f 68 100 101
f 68 101 69
f 69 101 71
f 72 102 103
f 72 103 73
f 74 104 75
f 75 83 105
f 75 105 106
f 75 106 76
f 75 104 84
f 75 84 83
f 78 107 79
f 79 107 108
f 79 108 109
f 79 109 80
f 80 109 81
f 81 110 82
f 81 109 110
f 82 110 111
f 82 111 112
f 82 112 83
f 83 112 105
f 84 86 113
f 84 113 85
f 84 104 114
f 84 114 115
f 84 115 86
f 85 113 86
f 86 94 87
f 86 115 116
f 86 116 94
f 87 94 92
f 88 117 91
f 88 93 118
f 88 118 117
f 89 91 119
f 89 119 120
f 89 120 100
f 91 117 121
f 91 121 119
f 93 99 122
f 93 122 118
f 94 116 123
f 94 123 124
f 94 124 96
f 94 96 125
f 94 125 95
f 95 125 96
f 96 124 126
f 96 126 127
f 96 127 128
f 96 128 97
f 97 128 98
f 98 128 99
f 99 129 130
f 99 130 122
f 99 128 131
f 99 131 132
f 99 132 133
f 99 133 129
f 100 134 135
f 100 135 136
f 100 136 101
f 100 120 134
f 102 137 138
f 102 138 103
f 104 139 114
f 104 140 139
f 114 139 141
f 114 141 123
f 114 123 115
f 115 123 116
f 117 118 142
f 117 142 121
f 118 122 130
f 118 130 129
f 118 129 142
f 119 121 120
f 120 121 134
f 121 143 134
f 121 142 144
f 121 144 143
f 123 141 124
f 124 141 145
f 124 145 146
f 124 146 147
f 124 147 126
f 126 147 127
f 127 147 148
f 127 148 149
f 127 149 128
f 128 149 150
f 128 150 131
f 129 133 151
f 129 151 152
f 129 152 153
f 129 153 142
f 131 150 154
f 131 154 132
f 132 154 155
f 132 155 156
f 132 156 133
f 133 156 151
f 134 143 157
f 134 157 158
f 134 158 159
f 134 159 135
f 135 159 136
f 137 160 161
f 137 161 162
f 137 162 138
f 139 140 163
f 139 163 145
f 139 145 141
f 142 153 144
f 143 144 164
f 143 164 157
f 144 153 164
f 145 163 165
f 145 165 146
f 151 166 152
f 151 156 167
f 151 167 168
f 151 168 169
f 151 169 166
f 152 166 170
f 152 170 171
f 152 171 153
f 153 171 170
f 153 170 164
f 157 172 173
f 157 173 158
f 157 164 174
f 157 174 175
f 157 175 176
f 157 176 177
f 157 177 172
f 160 173 172
f 160 172 178
f 160 178 161
f 161 178 179
f 161 179 162
f 162 179 180
f 164 181 174
f 164 170 182
f 164 182 181
f 166 169 170
f 169 183 170
f 170 183 182
f 172 184 185
f 172 185 178
f 172 177 184
f 174 181 175
f 175 181 176
f 176 182 186
f 176 186 177
f 176 181 182
f 177 180 185
f 177 185 184
f 178 185 179
f 179 185 180
f 182 183 187
f 182 187 186

