# https://github.com/mikedh/trimesh
v -0.04362537 0.00019265 0.00703276
v -0.04358711 -0.00093910 0.00825413
v -0.04362537 0.00019265 0.00825413
v -0.04362537 0.00023677 0.00825413
v -0.04361341 0.00136853 0.00703276
v -0.04359548 0.00136853 0.00585670
v -0.04360624 0.00019265 0.00585670
v -0.04358472 -0.00098514 0.00703276
v -0.04358472 -0.00098514 0.00825413
v -0.04361341 0.00136853 0.00825413
v -0.04358831 0.00254440 0.00703276
v -0.04357038 0.00254440 0.00585670
v -0.04353690 0.00317741 0.00525687
v -0.04354408 0.00254440 0.00521606
v -0.04355603 0.00136853 0.00514567
v -0.04356081 0.00019265 0.00512432
v -0.04355005 -0.00064753 0.00518124
v -0.04356440 -0.00101775 0.00591136
v -0.04353810 -0.00162007 0.00634008
v -0.04353930 -0.00164501 0.00703276
v -0.04353810 -0.00166803 0.00825413
v -0.04358831 0.00254440 0.00825413
v -0.04358711 0.00258468 0.00825413
v -0.04355484 0.00358983 0.00703276
v -0.04354647 0.00339417 0.00585670
v -0.04351897 0.00398307 0.00585670
v -0.04344605 0.00489807 0.00585670
v -0.04330499 0.00489807 0.00468026
v -0.04342453 0.00363012 0.00479109
v -0.04343290 0.00254440 0.00462784
v -0.04344605 0.00136853 0.00455745
v -0.04344844 0.00019265 0.00453610
v -0.04344127 -0.00101775 0.00474541
v -0.04335281 -0.00216101 0.00468026
v -0.04328228 -0.00309327 0.00468026
v -0.04352495 -0.00143209 0.00555566
v -0.04349267 -0.00207277 0.00591136
v -0.04341497 -0.00309327 0.00586718
v -0.04341856 -0.00309327 0.00611617
v -0.04343171 -0.00309327 0.00703276
v -0.04349865 -0.00223390 0.00703276
v -0.04349865 -0.00223390 0.00825413
v -0.04355484 0.00358983 0.00825413
v -0.04352973 0.00415571 0.00825413
v -0.04352853 0.00417873 0.00703276
v -0.04346637 0.00489807 0.00703276
v -0.04331814 0.00607394 0.00585670
v -0.04317708 0.00607394 0.00468026
v -0.04312328 0.00582265 0.00442902
v -0.04322370 0.00489807 0.00442902
v -0.04324522 0.00464678 0.00442902
v -0.04331216 0.00365697 0.00442902
v -0.04336954 0.00254440 0.00442902
v -0.04340301 0.00136853 0.00442902
v -0.04340421 0.00122466 0.00442902
v -0.04341258 0.00019265 0.00442902
v -0.04340780 0.00006989 0.00442902
v -0.04334324 -0.00100816 0.00442902
v -0.04327271 -0.00216101 0.00442902
v -0.04320218 -0.00309327 0.00442902
v -0.04343171 -0.00309327 0.00825413
v -0.04343529 -0.00306066 0.00825413
v -0.04352853 0.00417873 0.00825413
v -0.04346637 0.00489807 0.00825413
v -0.04346159 0.00494219 0.00825413
v -0.04333846 0.00607394 0.00703276
v -0.04316751 0.00724981 0.00585670
v -0.04303363 0.00724981 0.00468026
v -0.04309579 0.00607394 0.00442902
v -0.04298342 0.00699852 0.00442902
v -0.03478871 -0.00309327 0.00442902
v -0.03902892 -0.00309327 0.00825413
v -0.04333846 0.00607394 0.00825413
v -0.04333248 0.00611998 0.00825413
v -0.04318545 0.00724981 0.00703276
v -0.04299657 0.00842569 0.00703276
v -0.04297385 0.00842569 0.00585670
v -0.04283997 0.00842569 0.00468026
v -0.04276705 0.00842569 0.00442902
v -0.04294995 0.00725940 0.00442902
v -0.03141400 0.01650143 0.00442902
v -0.03606065 0.01650143 0.00825413
v -0.04318545 0.00724981 0.00825413
v -0.04299657 0.00842569 0.00825413
v -0.04277900 0.00960156 0.00703276
v -0.04275150 0.00960156 0.00585670
v -0.04235940 0.01137208 0.00525949
v -0.04261283 0.00960156 0.00468026
v -0.04239168 0.01046093 0.00442902
v -0.04255187 0.00960156 0.00442902
v -0.04053278 0.01650143 0.00442902
v -0.04078382 0.01650143 0.00825413
v -0.04277900 0.00960156 0.00825413
v -0.04253513 0.01077935 0.00703276
v -0.04251122 0.01077935 0.00585670
v -0.04213346 0.01184013 0.00479221
v -0.04228289 0.01101913 0.00447507
v -0.04241558 0.01068728 0.00479221
v -0.04236896 0.01140661 0.00585670
v -0.04220041 0.01199551 0.00585670
v -0.04187405 0.01313110 0.00585670
v -0.04153336 0.01430889 0.00585670
v -0.04123569 0.01504357 0.00498766
v -0.04137078 0.01438178 0.00462934
v -0.04174255 0.01313110 0.00468026
v -0.04227094 0.01100187 0.00442902
v -0.04060809 0.01650143 0.00464656
v -0.04107790 0.01515867 0.00442902
v -0.04078382 0.01650143 0.00703276
v -0.04105399 0.01579744 0.00825413
v -0.04253513 0.01077935 0.00825413
v -0.04237853 0.01143922 0.00703276
v -0.04127155 0.01458895 0.00442902
v -0.04220997 0.01202812 0.00703276
v -0.04189318 0.01313110 0.00703276
v -0.04155248 0.01430889 0.00703276
v -0.04127155 0.01514716 0.00585670
v -0.04105518 0.01573413 0.00585670
v -0.04076230 0.01650143 0.00585670
v -0.04061646 0.01650143 0.00467352
v -0.04100736 0.01545599 0.00462934
v -0.04118070 0.01488628 0.00442902
v -0.04106713 0.01576291 0.00703276
v -0.04106713 0.01576291 0.00825413
v -0.04237853 0.01143922 0.00825413
v -0.04220997 0.01202812 0.00825413
v -0.04189318 0.01313110 0.00825413
v -0.04155248 0.01430889 0.00825413
v -0.04128112 0.01517401 0.00703276
v -0.04107550 0.01573989 0.00825413
v -0.04128112 0.01517401 0.00825413
f 1 2 3
f 1 3 4
f 1 4 5
f 1 5 6
f 1 6 7
f 1 7 8
f 1 8 2
f 2 8 9
f 2 9 21
f 2 21 42
f 2 42 62
f 2 62 61
f 2 61 72
f 2 72 82
f 2 82 92
f 2 92 110
f 2 110 124
f 2 124 130
f 2 130 131
f 2 131 128
f 2 128 127
f 2 127 126
f 2 126 125
f 2 125 111
f 2 111 93
f 2 93 84
f 2 84 83
f 2 83 74
f 2 74 73
f 2 73 65
f 2 65 64
f 2 64 63
f 2 63 44
f 2 44 43
f 2 43 23
f 2 23 22
f 2 22 10
f 2 10 4
f 2 4 3
f 4 10 5
f 5 10 22
f 5 22 11
f 5 11 12
f 5 12 6
f 6 12 13
f 6 13 14
f 6 14 15
f 6 15 7
f 7 15 16
f 7 16 17
f 7 17 18
f 7 18 8
f 8 18 19
f 8 19 20
f 8 20 21
f 8 21 9
f 11 22 23
f 11 23 24
f 11 24 25
f 11 25 12
f 12 25 13
f 13 25 26
f 13 26 27
f 13 27 28
f 13 28 29
f 13 29 30
f 13 30 14
f 14 30 31
f 14 31 15
f 15 31 16
f 16 31 32
f 16 32 17
f 17 32 33
f 17 33 34
f 17 34 35
f 17 35 36
f 17 36 18
f 18 36 19
f 19 36 37
f 19 37 38
f 19 38 39
f 19 39 40
f 19 40 41
f 19 41 20
f 20 41 21
f 21 41 42
f 23 43 24
f 24 43 44
f 24 44 45
f 24 45 25
f 25 45 26
f 26 45 27
f 27 46 66
f 27 66 47
f 27 47 48
f 27 48 28
f 27 45 46
f 28 48 49
f 28 49 50
f 28 50 51
f 28 51 52
f 28 52 29
f 29 52 30
f 30 52 53
f 30 53 31
f 31 54 55
f 31 55 32
f 31 53 54
f 32 55 56
f 32 56 57
f 32 57 34
f 32 34 33
f 34 57 58
f 34 58 59
f 34 59 60
f 34 60 35
f 35 60 71
f 35 71 72
f 35 72 61
f 35 61 40
f 35 40 39
f 35 39 38
f 35 38 36
f 36 38 37
f 40 61 62
f 40 62 41
f 41 62 42
f 44 63 45
f 45 63 64
f 45 64 46
f 46 64 65
f 46 65 66
f 47 66 67
f 47 67 68
f 47 68 48
f 48 69 49
f 48 68 70
f 48 70 69
f 49 69 70
f 49 70 80
f 49 80 79
f 49 79 90
f 49 90 89
f 49 89 106
f 49 106 113
f 49 113 122
f 49 122 108
f 49 108 91
f 49 91 81
f 49 81 71
f 49 71 60
f 49 60 59
f 49 59 58
f 49 58 57
f 49 57 56
f 49 56 55
f 49 55 54
f 49 54 53
f 49 53 52
f 49 52 51
f 49 51 50
f 65 73 66
f 66 73 74
f 66 74 75
f 66 75 67
f 67 75 76
f 67 76 77
f 67 77 78
f 67 78 68
f 68 78 79
f 68 79 80
f 68 80 70
f 71 81 72
f 72 81 82
f 74 83 75
f 75 83 84
f 75 84 76
f 76 84 93
f 76 93 85
f 76 85 77
f 77 85 86
f 77 86 87
f 77 87 78
f 78 88 89
f 78 89 90
f 78 90 79
f 78 87 88
f 81 91 107
f 81 107 120
f 81 120 119
f 81 119 109
f 81 109 92
f 81 92 82
f 85 93 111
f 85 111 94
f 85 94 95
f 85 95 86
f 86 95 87
f 87 96 97
f 87 97 98
f 87 98 88
f 87 95 99
f 87 99 100
f 87 100 101
f 87 101 102
f 87 102 103
f 87 103 104
f 87 104 105
f 87 105 96
f 88 98 89
f 89 98 97
f 89 97 106
f 91 108 107
f 92 109 110
f 94 111 125
f 94 125 112
f 94 112 99
f 94 99 95
f 96 105 113
f 96 113 97
f 97 113 106
f 99 112 114
f 99 114 100
f 100 114 115
f 100 115 101
f 101 115 116
f 101 116 102
f 102 116 117
f 102 117 103
f 103 117 118
f 103 118 119
f 103 119 120
f 103 120 121
f 103 121 122
f 103 122 113
f 103 113 104
f 104 113 105
f 107 108 120
f 108 122 121
f 108 121 120
f 109 119 123
f 109 123 110
f 110 123 124
f 112 125 126
f 112 126 114
f 114 126 127
f 114 127 115
f 115 127 128
f 115 128 116
f 116 128 131
f 116 131 129
f 116 129 117
f 117 129 123
f 117 123 118
f 118 123 119
f 123 129 130
f 123 130 124
f 129 131 130

