# https://github.com/mikedh/trimesh
v 0.03086289 0.02539376 0.07762360
v 0.03086289 0.02539376 0.08078715
v 0.03112304 0.02539376 0.07761173
v 0.03086591 0.02538818 0.07761173
v 0.03909551 -0.00309240 0.07761173
v 0.03909399 -0.00309240 0.08115291
v 0.03086440 0.02539376 0.08115291
v 0.03617333 0.02539376 0.07761173
v 0.04346517 -0.00309240 0.07761173
v 0.03915147 -0.00309240 0.08139657
v 0.03115934 0.02539376 0.08228865
v 0.03937381 -0.00309240 0.08232936
v 0.03853437 0.02539376 0.07948464
v 0.03865839 0.02527106 0.07951574
v 0.03629282 0.02522086 0.07761173
v 0.04556756 -0.00309240 0.07973508
v 0.04355592 -0.00208012 0.07761173
v 0.04560689 -0.00216099 0.07965085
v 0.03163578 0.02539376 0.08298909
v 0.03945700 -0.00309240 0.08247351
v 0.03982605 -0.00309240 0.08305297
v 0.03862663 0.02539376 0.07957679
v 0.03911517 0.02539376 0.08019978
v 0.03934356 0.02479977 0.08002735
v 0.03972774 0.02372056 0.07969212
v 0.03992739 0.02303734 0.07942698
v 0.03892308 0.02448745 0.07933201
v 0.03668153 0.02463246 0.07761173
v 0.04599107 -0.00309240 0.08032302
v 0.04603493 -0.00216099 0.08023879
v 0.04355894 -0.00204386 0.07761173
v 0.04363608 -0.00098417 0.07761173
v 0.04563563 -0.00098417 0.07959658
v 0.04606972 -0.00098417 0.08018508
v 0.03235272 0.02539376 0.08319882
v 0.03997428 -0.00309240 0.08310159
v 0.04058534 -0.00309240 0.08328758
v 0.03927096 0.02539376 0.08066617
v 0.04000907 0.02432849 0.08053841
v 0.04017091 0.02372056 0.08028062
v 0.04137638 0.02136694 0.08023257
v 0.04113287 0.02071997 0.07940889
v 0.03887619 0.02087335 0.07761173
v 0.03854798 0.02147290 0.07761173
v 0.03796566 0.02250192 0.07761173
v 0.03761778 0.02309869 0.07761173
v 0.03724570 0.02372056 0.07761173
v 0.04610904 -0.00309240 0.08115291
v 0.04619828 -0.00216099 0.08115291
v 0.04627239 -0.00098417 0.08115291
v 0.04367692 0.00019264 0.07761173
v 0.04564773 0.00019264 0.07957736
v 0.04566134 0.00136945 0.07955983
v 0.04608333 0.00019264 0.08016586
v 0.04630113 0.00019264 0.08115291
v 0.03352794 0.02489738 0.08335372
v 0.03352794 0.02539376 0.08336785
v 0.04082885 -0.00309240 0.08331358
v 0.03937079 0.02539376 0.08115291
v 0.04001814 0.02434523 0.08115291
v 0.04035392 0.02372056 0.08115291
v 0.04092111 0.02264972 0.08115291
v 0.04122967 0.02206131 0.08115291
v 0.04120698 0.02201948 0.08049375
v 0.03965816 0.02493363 0.08115291
v 0.04236254 0.01963239 0.08053502
v 0.04249262 0.01901331 0.08030889
v 0.04223095 0.01823248 0.07946825
v 0.04242153 0.01744887 0.07934218
v 0.04002268 0.01846952 0.07761173
v 0.03920441 0.02019012 0.07761173
v 0.04602888 -0.00309240 0.08184939
v 0.04604250 -0.00216099 0.08215976
v 0.04599712 -0.00309240 0.08205743
v 0.04608182 -0.00098417 0.08222873
v 0.04367692 0.00020380 0.07761173
v 0.04609241 0.00136945 0.08014834
v 0.04366633 0.00138061 0.07761173
v 0.04362852 0.00370078 0.07761173
v 0.04362701 0.00377886 0.07761173
v 0.04564924 0.00254627 0.07957905
v 0.04631324 0.00136945 0.08115291
v 0.04609694 0.00019264 0.08225360
v 0.03470316 0.02489738 0.08338708
v 0.03470316 0.02539376 0.08338708
v 0.04176207 -0.00309240 0.08338708
v 0.03915752 0.02539376 0.08218181
v 0.04001361 0.02433686 0.08178495
v 0.04121454 0.02203343 0.08184600
v 0.04158813 0.02136694 0.08115291
v 0.04237313 0.01965749 0.08115291
v 0.04313695 0.01783649 0.08115291
v 0.04345458 0.01705288 0.08115291
v 0.04361339 0.01632504 0.08038973
v 0.04211903 0.02024589 0.08115291
v 0.04270588 0.01783928 0.07990694
v 0.04331997 0.01548286 0.07957792
v 0.04072600 0.01667362 0.07761173
v 0.04027527 0.01783649 0.07761173
v 0.04346063 0.01477733 0.07942415
v 0.04128563 0.01519006 0.07761173
v 0.04106329 0.01578962 0.07761173
v 0.04575058 -0.00216099 0.08274826
v 0.04570067 -0.00309240 0.08264594
v 0.04578990 -0.00098417 0.08281723
v 0.04582620 0.00136945 0.08286245
v 0.04580805 0.00019264 0.08284210
v 0.04607879 0.00254627 0.08016699
v 0.04561294 0.00372308 0.07963728
v 0.04349239 0.00497798 0.07761173
v 0.04475232 0.00935339 0.07935179
v 0.04557966 0.00489711 0.07970230
v 0.04604401 0.00372308 0.08022522
v 0.04609997 0.00136945 0.08227395
v 0.04628449 0.00254627 0.08115291
v 0.04608484 0.00254627 0.08225021
v 0.03587990 0.02539376 0.08338708
v 0.04293730 -0.00309240 0.08338708
v 0.03879603 0.02539376 0.08284210
v 0.03979278 0.02397991 0.08256962
v 0.04016183 0.02363970 0.08223834
v 0.04002873 0.02319630 0.08294443
v 0.04137185 0.02130838 0.08227452
v 0.04236708 0.01964354 0.08179004
v 0.04366331 0.01646447 0.08115291
v 0.04362247 0.01634177 0.08197264
v 0.04375103 0.01548286 0.08016586
v 0.04398850 0.01548286 0.08115291
v 0.04435906 0.01430884 0.08115291
v 0.04474929 0.01272488 0.08046322
v 0.04389926 0.01435346 0.07988037
v 0.04484155 0.01195521 0.08028910
v 0.04468123 0.01013700 0.07939872
v 0.04359827 0.01399372 0.07934049
v 0.04156545 0.01430884 0.07761173
v 0.04523481 -0.00309240 0.08305806
v 0.04516221 -0.00216099 0.08314681
v 0.04511230 -0.00309240 0.08314060
v 0.04522120 0.00254627 0.08315021
v 0.04523783 0.00136945 0.08315134
v 0.04521969 0.00019264 0.08315077
v 0.04520153 -0.00098417 0.08314964
v 0.04580957 0.00254627 0.08283815
v 0.04512591 0.00489711 0.08314342
v 0.04335173 0.00608787 0.07761173
v 0.04553126 0.00607392 0.07981592
v 0.04318535 0.00725074 0.07761173
v 0.04600771 0.00489711 0.08029080
v 0.04621795 0.00372308 0.08115291
v 0.04601678 0.00489711 0.08209927
v 0.04605308 0.00372308 0.08217898
v 0.03705664 0.02489738 0.08338086
v 0.03705664 0.02539376 0.08335259
v 0.03705664 0.02372056 0.08338708
v 0.03823337 0.02254375 0.08338651
v 0.04318082 -0.00309240 0.08338595
v 0.04411403 -0.00098417 0.08338425
v 0.04411403 0.00019264 0.08338538
v 0.04411403 0.00136945 0.08338595
v 0.04293730 0.00960437 0.08338708
v 0.03874309 0.02539376 0.08288281
v 0.04018301 0.02254375 0.08303262
v 0.04122059 0.02087613 0.08295630
v 0.04099674 0.02166253 0.08263067
v 0.03900929 0.02463246 0.08303092
v 0.04235195 0.01843327 0.08292012
v 0.04193904 0.02009809 0.08224116
v 0.04247144 0.01889897 0.08224116
v 0.04340769 0.01578962 0.08275674
v 0.04373591 0.01543267 0.08235084
v 0.04475232 0.01273882 0.08187992
v 0.04462224 0.01341368 0.08115291
v 0.04477501 0.01282527 0.08115291
v 0.04498827 0.01195521 0.08115291
v 0.04526657 0.01078118 0.08115291
v 0.04550404 0.00960437 0.08115291
v 0.04590183 0.00681850 0.08051014
v 0.04497919 0.01078118 0.08007880
v 0.04505028 0.00968803 0.07986511
v 0.04595174 0.00607392 0.08040443
v 0.04299780 0.00843871 0.07761173
v 0.04279058 0.00960437 0.07761173
v 0.04256219 0.01078118 0.07761173
v 0.04239431 0.01148114 0.07761173
v 0.04433184 -0.00309240 0.08332659
v 0.04517128 0.00372308 0.08314794
v 0.04411403 0.00607392 0.08336729
v 0.04411403 0.00489711 0.08337803
v 0.04411403 -0.00216099 0.08338142
v 0.04411403 0.00372308 0.08338255
v 0.04411403 0.00254627 0.08338481
v 0.04411403 -0.00309240 0.08337520
v 0.04575965 0.00372308 0.08276748
v 0.04491416 0.00842755 0.08307502
v 0.04499281 0.00725074 0.08310950
v 0.04506995 0.00607392 0.08313268
v 0.04411403 0.00725074 0.08334411
v 0.04614534 0.00489711 0.08115291
v 0.04595779 0.00607392 0.08195907
v 0.04565831 0.00607392 0.08254700
v 0.04571428 0.00489711 0.08268777
v 0.03823337 0.02372056 0.08335429
v 0.03940860 0.02136694 0.08336446
v 0.03818649 0.02539376 0.08313438
v 0.03831959 0.02497267 0.08316830
v 0.03940860 0.02019012 0.08338708
v 0.04293730 0.01078118 0.08338538
v 0.04176207 0.01430884 0.08338708
v 0.03940406 0.02363970 0.08309537
v 0.04059744 0.02130838 0.08311063
v 0.04135974 0.02019012 0.08304053
v 0.04245934 0.01783649 0.08299531
v 0.04355894 0.01500600 0.08294612
v 0.04407925 0.01430884 0.08232936
v 0.04455115 0.01195521 0.08268946
v 0.04485063 0.01195521 0.08210096
v 0.04590637 0.00684638 0.08182113
v 0.04443015 0.01313202 0.08229487
v 0.04569310 0.00842755 0.08115291
v 0.04591695 0.00691889 0.08115291
v 0.04603039 0.00607392 0.08115291
v 0.04293730 0.01195521 0.08337408
v 0.04482794 0.00960437 0.08302018
v 0.04396278 0.01195521 0.08313946
v 0.04411403 0.00960437 0.08325479
v 0.04411403 0.00842755 0.08330963
v 0.04523330 0.00960437 0.08232936
v 0.04541329 0.00842755 0.08232936
v 0.04475383 0.01044654 0.08296308
v 0.03940860 0.02254375 0.08326723
v 0.04058534 0.01783649 0.08338595
v 0.04058534 0.01901331 0.08336277
v 0.04058534 0.02019012 0.08327514
v 0.04176207 0.01548286 0.08337916
v 0.04176207 0.01783649 0.08322935
v 0.04176510 0.01889897 0.08308745
v 0.04266353 0.01665968 0.08310328
v 0.04365725 0.01430884 0.08301622
v 0.04465552 0.01123016 0.08286641
v 0.04496407 0.01081465 0.08241641
v 0.04293730 0.01313202 0.08333563
v 0.04381153 0.01313202 0.08310102
v 0.04176207 0.01665968 0.08333789
v 0.04293730 0.01430884 0.08325083
f 1 2 7
f 1 7 11
f 1 11 19
f 1 19 35
f 1 35 57
f 1 57 85
f 1 85 117
f 1 117 153
f 1 153 204
f 1 204 161
f 1 161 119
f 1 119 87
f 1 87 59
f 1 59 38
f 1 38 23
f 1 23 22
f 1 22 13
f 1 13 8
f 1 8 3
f 1 3 4
f 1 4 5
f 1 5 6
f 1 6 2
f 2 6 7
f 3 8 15
f 3 15 28
f 3 28 47
f 3 47 46
f 3 46 45
f 3 45 44
f 3 44 43
f 3 43 71
f 3 71 70
f 3 70 99
f 3 99 98
f 3 98 102
f 3 102 101
f 3 101 135
f 3 135 184
f 3 184 183
f 3 183 182
f 3 182 181
f 3 181 147
f 3 147 145
f 3 145 110
f 3 110 80
f 3 80 79
f 3 79 78
f 3 78 76
f 3 76 51
f 3 51 32
f 3 32 31
f 3 31 17
f 3 17 9
f 3 9 5
f 3 5 4
f 5 9 16
f 5 16 29
f 5 29 48
f 5 48 72
f 5 72 74
f 5 74 104
f 5 104 136
f 5 136 138
f 5 138 185
f 5 185 192
f 5 192 156
f 5 156 118
f 5 118 86
f 5 86 58
f 5 58 37
f 5 37 36
f 5 36 21
f 5 21 20
f 5 20 12
f 5 12 10
f 5 10 6
f 6 10 7
f 7 10 12
f 7 12 11
f 8 13 14
f 8 14 15
f 9 17 18
f 9 18 16
f 11 12 20
f 11 20 21
f 11 21 19
f 13 22 14
f 14 22 23
f 14 23 24
f 14 24 25
f 14 25 26
f 14 26 27
f 14 27 28
f 14 28 15
f 16 18 30
f 16 30 29
f 17 31 18
f 18 31 32
f 18 32 33
f 18 33 34
f 18 34 30
f 19 21 36
f 19 36 37
f 19 37 35
f 23 38 39
f 23 39 24
f 24 39 25
f 25 39 40
f 25 40 26
f 26 41 42
f 26 42 43
f 26 43 44
f 26 44 45
f 26 45 46
f 26 46 47
f 26 47 27
f 26 40 41
f 27 47 28
f 29 30 49
f 29 49 48
f 30 34 50
f 30 50 49
f 32 51 33
f 33 51 52
f 33 52 53
f 33 53 54
f 33 54 34
f 34 54 55
f 34 55 50
f 35 56 57
f 35 37 56
f 37 58 56
f 38 59 39
f 39 60 61
f 39 61 62
f 39 62 63
f 39 63 64
f 39 64 40
f 39 59 65
f 39 65 60
f 40 64 41
f 41 64 66
f 41 66 42
f 42 66 67
f 42 67 68
f 42 68 69
f 42 69 70
f 42 70 71
f 42 71 43
f 48 49 72
f 49 50 73
f 49 73 74
f 49 74 72
f 50 75 73
f 50 55 75
f 51 76 53
f 51 53 52
f 53 77 54
f 53 76 78
f 53 78 79
f 53 79 80
f 53 80 81
f 53 81 77
f 54 77 55
f 55 77 82
f 55 82 83
f 55 83 75
f 56 58 57
f 57 84 85
f 57 58 86
f 57 86 84
f 59 87 88
f 59 88 65
f 60 88 61
f 60 65 88
f 61 88 62
f 62 88 63
f 63 89 90
f 63 90 64
f 63 88 89
f 64 90 66
f 66 91 92
f 66 92 93
f 66 93 94
f 66 94 67
f 66 90 95
f 66 95 91
f 67 94 96
f 67 96 68
f 68 96 97
f 68 97 69
f 69 98 99
f 69 99 70
f 69 97 100
f 69 100 101
f 69 101 102
f 69 102 98
f 73 75 105
f 73 105 103
f 73 103 74
f 74 103 104
f 75 83 106
f 75 106 107
f 75 107 105
f 77 81 108
f 77 108 82
f 80 109 81
f 80 110 111
f 80 111 112
f 80 112 109
f 81 109 113
f 81 113 108
f 82 114 83
f 82 108 115
f 82 115 116
f 82 116 114
f 83 114 106
f 84 86 118
f 84 118 160
f 84 160 208
f 84 208 206
f 84 206 154
f 84 154 117
f 84 117 85
f 87 119 88
f 88 120 121
f 88 121 89
f 88 119 120
f 89 121 122
f 89 122 123
f 89 123 124
f 89 124 90
f 90 124 95
f 91 124 92
f 91 95 124
f 92 124 93
f 93 125 94
f 93 124 126
f 93 126 125
f 94 127 100
f 94 100 97
f 94 97 96
f 94 125 128
f 94 128 129
f 94 129 130
f 94 130 127
f 100 127 131
f 100 131 132
f 100 132 133
f 100 133 134
f 100 134 135
f 100 135 101
f 103 105 136
f 103 136 104
f 105 137 138
f 105 138 136
f 105 107 137
f 106 139 140
f 106 140 141
f 106 141 142
f 106 142 137
f 106 137 107
f 106 114 116
f 106 116 143
f 106 143 144
f 106 144 139
f 108 113 115
f 109 112 113
f 110 145 111
f 111 133 146
f 111 146 112
f 111 145 147
f 111 147 133
f 112 146 148
f 112 148 113
f 113 148 115
f 115 148 149
f 115 149 150
f 115 150 151
f 115 151 116
f 116 151 143
f 117 152 153
f 117 154 155
f 117 155 152
f 118 156 157
f 118 157 158
f 118 158 159
f 118 159 160
f 119 161 122
f 119 122 120
f 120 122 121
f 122 162 163
f 122 163 164
f 122 164 123
f 122 161 165
f 122 165 162
f 123 164 163
f 123 163 166
f 123 166 167
f 123 167 124
f 124 167 166
f 124 166 168
f 124 168 126
f 125 126 128
f 126 129 128
f 126 168 166
f 126 166 169
f 126 169 170
f 126 170 171
f 126 171 129
f 127 130 131
f 129 172 130
f 129 171 172
f 130 173 174
f 130 174 175
f 130 175 176
f 130 176 177
f 130 177 132
f 130 132 131
f 130 172 173
f 132 177 178
f 132 178 133
f 133 178 179
f 133 179 180
f 133 180 146
f 133 147 181
f 133 181 182
f 133 182 183
f 133 183 184
f 133 184 134
f 134 184 135
f 137 142 185
f 137 185 138
f 139 144 186
f 139 186 187
f 139 187 188
f 139 188 140
f 140 159 158
f 140 158 157
f 140 157 189
f 140 189 141
f 140 188 190
f 140 190 191
f 140 191 159
f 141 189 142
f 142 189 192
f 142 192 185
f 143 151 150
f 143 150 193
f 143 193 194
f 143 194 195
f 143 195 196
f 143 196 144
f 144 196 197
f 144 197 187
f 144 187 186
f 146 180 148
f 148 180 198
f 148 198 149
f 149 198 150
f 150 198 199
f 150 199 200
f 150 200 201
f 150 201 193
f 152 202 153
f 152 155 203
f 152 203 202
f 153 202 205
f 153 205 204
f 154 206 155
f 155 206 203
f 156 192 189
f 156 189 157
f 159 191 160
f 160 191 207
f 160 207 208
f 161 204 165
f 162 165 209
f 162 209 210
f 162 210 211
f 162 211 163
f 163 211 166
f 165 204 209
f 166 212 213
f 166 213 169
f 166 211 212
f 169 213 170
f 170 213 214
f 170 214 171
f 171 215 216
f 171 216 217
f 171 217 176
f 171 176 175
f 171 175 174
f 171 174 173
f 171 173 172
f 171 214 218
f 171 218 215
f 176 219 177
f 176 217 219
f 177 220 221
f 177 221 198
f 177 198 180
f 177 180 179
f 177 179 178
f 177 219 220
f 187 197 222
f 187 222 207
f 187 207 188
f 188 207 190
f 190 207 191
f 193 201 194
f 194 223 224
f 194 224 225
f 194 225 195
f 194 201 223
f 195 225 226
f 195 226 196
f 196 226 197
f 197 226 222
f 198 221 217
f 198 217 199
f 199 217 227
f 199 227 228
f 199 228 200
f 200 228 227
f 200 227 229
f 200 229 223
f 200 223 201
f 202 203 230
f 202 230 205
f 203 206 231
f 203 231 232
f 203 232 233
f 203 233 230
f 204 205 209
f 205 230 209
f 206 208 231
f 207 222 234
f 207 234 208
f 208 234 231
f 209 230 210
f 210 230 233
f 210 233 211
f 211 233 235
f 211 235 236
f 211 236 237
f 211 237 212
f 212 237 213
f 213 238 229
f 213 229 239
f 213 239 215
f 213 215 218
f 213 218 214
f 213 237 238
f 215 239 216
f 216 239 240
f 216 240 227
f 216 227 217
f 217 221 220
f 217 220 219
f 222 226 241
f 222 241 234
f 223 229 242
f 223 242 224
f 224 242 241
f 224 241 225
f 225 241 226
f 227 240 229
f 229 240 239
f 229 238 242
f 231 234 232
f 232 234 243
f 232 243 233
f 233 243 235
f 234 241 243
f 235 243 244
f 235 244 237
f 235 237 236
f 237 244 242
f 237 242 238
f 241 242 244
f 241 244 243

