# https://github.com/mikedh/trimesh
v 0.02992794 -0.03433347 0.08115282
v 0.03015286 -0.03414083 0.08115282
v 0.02992794 -0.03430289 0.08142394
v 0.02992794 -0.03386868 0.07999961
v 0.03074207 -0.03347729 0.08035199
v 0.03082602 -0.03355373 0.08115282
v 0.03075158 -0.03348646 0.08201617
v 0.02992794 -0.03401240 0.08230263
v 0.02992794 -0.03386257 0.07999335
v 0.02993111 -0.03386563 0.07999733
v 0.03035401 -0.03312870 0.07956765
v 0.03115864 -0.03273119 0.07993822
v 0.03194110 -0.03233674 0.08030880
v 0.03141365 -0.03301862 0.08115282
v 0.03047122 -0.03323267 0.08280052
v 0.02999288 -0.03392067 0.08236231
v 0.03194585 -0.03234285 0.08206903
v 0.03169717 -0.03209823 0.08285338
v 0.02992794 -0.03395736 0.08239186
v 0.02992794 -0.03072223 0.07758120
v 0.03157679 -0.03197898 0.07952445
v 0.02993586 -0.03071611 0.07758120
v 0.03234499 -0.03156923 0.07992117
v 0.03311002 -0.03115949 0.08031789
v 0.03262218 -0.03183832 0.08115282
v 0.03203296 -0.03242847 0.08115282
v 0.02992794 -0.03346506 0.08296307
v 0.03311794 -0.03116561 0.08205823
v 0.03091313 -0.03244987 0.08305003
v 0.03357569 -0.03044703 0.08244415
v 0.03286610 -0.03091181 0.08284258
v 0.03324782 -0.03012596 0.08305003
v 0.03208206 -0.03131238 0.08305231
v 0.02992794 -0.02448130 0.07758120
v 0.03011326 -0.03055405 0.07758120
v 0.03072465 -0.02998836 0.07758120
v 0.03074682 -0.02996696 0.07758120
v 0.03275047 -0.03079256 0.07953355
v 0.03351392 -0.03038587 0.07993026
v 0.03320030 -0.03125122 0.08115282
v 0.03426628 -0.02997613 0.08032698
v 0.03378952 -0.03065190 0.08115282
v 0.02992794 -0.03305532 0.08312108
v 0.03427103 -0.02998225 0.08204573
v 0.03125209 -0.03165179 0.08317166
v 0.03004673 -0.03280458 0.08316200
v 0.02992794 -0.03291466 0.08316030
v 0.03403186 -0.02971928 0.08283007
v 0.03242419 -0.03046843 0.08317166
v 0.03435815 -0.02893649 0.08304037
v 0.03359470 -0.02928507 0.08316484
v 0.02992794 -0.02448130 0.08001325
v 0.03909404 -0.00309519 0.08115282
v 0.03909563 -0.00309519 0.07758120
v 0.03133445 -0.02935846 0.07758120
v 0.03391940 -0.02959697 0.07954264
v 0.03434547 -0.03006175 0.08115282
v 0.03465434 -0.02916582 0.07998142
v 0.03537660 -0.02873467 0.08042020
v 0.03470661 -0.02923003 0.08238106
v 0.03538135 -0.02874079 0.08193149
v 0.03117448 -0.03039810 0.08337059
v 0.02999764 -0.03157229 0.08336889
v 0.02992794 -0.03164262 0.08336832
v 0.02992794 -0.03279846 0.08318076
v 0.03514218 -0.02845947 0.08271583
v 0.03656612 -0.02641687 0.08298524
v 0.03546847 -0.02767668 0.08301821
v 0.03352659 -0.02804361 0.08336150
v 0.03235133 -0.02922086 0.08336889
v 0.03586920 -0.02683273 0.08311255
v 0.03473195 -0.02805890 0.08314552
v 0.03588029 -0.02569218 0.08331660
v 0.03470344 -0.02686637 0.08334502
v 0.02992794 -0.02448742 0.08116874
v 0.03915107 -0.00309519 0.08139608
v 0.02992794 -0.02472592 0.08209631
v 0.04346406 -0.00309519 0.07758120
v 0.03187140 -0.02879277 0.07758120
v 0.03247962 -0.02812617 0.07758120
v 0.03299281 -0.02756048 0.07758120
v 0.03303241 -0.02751462 0.07758120
v 0.03537977 -0.02756660 0.07934314
v 0.03648851 -0.02630679 0.07937554
v 0.03504398 -0.02834939 0.07963585
v 0.03648376 -0.02747487 0.08053501
v 0.03493311 -0.02937681 0.08115282
v 0.03649009 -0.02748098 0.08179053
v 0.03616381 -0.02709264 0.07975123
v 0.03625409 -0.02719967 0.08257431
v 0.02999764 -0.03039810 0.08338708
v 0.02992794 -0.03046537 0.08338708
v 0.02992794 -0.03157229 0.08337002
v 0.03470344 -0.02569218 0.08338708
v 0.03763526 -0.02508980 0.08290794
v 0.03788393 -0.02430395 0.08304492
v 0.03682905 -0.02569218 0.08308186
v 0.03588029 -0.02451494 0.08338310
v 0.03825774 -0.02332546 0.08313074
v 0.03823239 -0.02216044 0.08331660
v 0.03705713 -0.02333769 0.08336491
v 0.03937440 -0.00309519 0.08232934
v 0.02992794 -0.02479625 0.08220260
v 0.04556750 -0.00309519 0.07973531
v 0.04345456 -0.00324808 0.07758120
v 0.03358044 -0.02684496 0.07758120
v 0.03668016 -0.02676546 0.08007690
v 0.03407779 -0.02623035 0.07758120
v 0.03452129 -0.02566466 0.07758120
v 0.03455930 -0.02561574 0.07758120
v 0.03512634 -0.02487881 0.07758120
v 0.03554767 -0.02428866 0.07758120
v 0.03556825 -0.02425808 0.07758120
v 0.03884537 -0.02279341 0.07937213
v 0.03751330 -0.02493997 0.07948012
v 0.03783800 -0.02538640 0.08026446
v 0.03753706 -0.02612333 0.08115282
v 0.03697635 -0.02686637 0.08115282
v 0.03649643 -0.02749016 0.08115282
v 0.03542095 -0.02878971 0.08115282
v 0.03888814 -0.02403181 0.08043384
v 0.03784750 -0.02539863 0.08212359
v 0.03673401 -0.02683273 0.08224125
v 0.03889289 -0.02403792 0.08191500
v 0.02992794 -0.02928813 0.08338708
v 0.03705713 -0.02216044 0.08338708
v 0.03742143 -0.02575028 0.08244131
v 0.03866797 -0.02371074 0.08269935
v 0.03891981 -0.02292795 0.08298922
v 0.03823239 -0.02098626 0.08338025
v 0.03940766 -0.01863482 0.08338423
v 0.03913523 -0.02216044 0.08308186
v 0.03948369 -0.02104130 0.08315973
v 0.04037385 -0.01980901 0.08310687
v 0.03940766 -0.01980901 0.08334161
v 0.03945676 -0.00309519 0.08247314
v 0.02992794 -0.02487881 0.08232139
v 0.02992794 -0.02519682 0.08271186
v 0.04345297 -0.00326948 0.07758120
v 0.04599040 -0.00309519 0.08032358
v 0.04555641 -0.00333981 0.07975691
v 0.04472486 -0.00760236 0.07937156
v 0.04478029 -0.00686849 0.07933462
v 0.03613530 -0.02341413 0.07758120
v 0.03652177 -0.02282704 0.07758120
v 0.03695418 -0.02216044 0.07758120
v 0.03748954 -0.02131650 0.07758120
v 0.03782692 -0.02074775 0.07758120
v 0.03783959 -0.02072635 0.07758120
v 0.03785859 -0.02069271 0.07758120
v 0.04006973 -0.02053982 0.07934371
v 0.03982106 -0.02132567 0.07953809
v 0.04013626 -0.02181492 0.08032244
v 0.03905920 -0.02324596 0.08001552
v 0.03857294 -0.02357925 0.07964949
v 0.03820547 -0.02448742 0.07995698
v 0.03794254 -0.02553623 0.08115282
v 0.03892615 -0.02408685 0.08115282
v 0.03852859 -0.02467700 0.08115282
v 0.04021387 -0.02194334 0.08115282
v 0.03987016 -0.02253349 0.08115282
v 0.03938707 -0.02333769 0.08115282
v 0.04014576 -0.02182715 0.08205425
v 0.03910989 -0.02332546 0.08231627
v 0.02992794 -0.02811394 0.08338594
v 0.04176135 -0.00309519 0.08338708
v 0.04058451 -0.01510615 0.08338708
v 0.03992560 -0.02146939 0.08283860
v 0.04014735 -0.02068660 0.08301707
v 0.04058451 -0.01628033 0.08338196
v 0.04176135 -0.01275166 0.08338594
v 0.04130835 -0.01837491 0.08301309
v 0.04151585 -0.01745758 0.08310175
v 0.04058451 -0.01745758 0.08333649
v 0.03982581 -0.00309519 0.08305288
v 0.02992794 -0.02577780 0.08309550
v 0.04329616 -0.00451706 0.07758120
v 0.04610920 -0.00309519 0.08115282
v 0.04597931 -0.00333981 0.08034517
v 0.04550414 -0.00451706 0.07988934
v 0.04550256 -0.00559645 0.08008770
v 0.04588428 -0.00513778 0.08055319
v 0.04523487 -0.00686849 0.07997687
v 0.04498937 -0.00801516 0.07988877
v 0.04492918 -0.00922298 0.08013999
v 0.04461873 -0.00838515 0.07943749
v 0.04269745 -0.00804573 0.07758120
v 0.04292870 -0.00686849 0.07758120
v 0.04293662 -0.00682568 0.07758120
v 0.04311718 -0.00569430 0.07758120
v 0.03834485 -0.01980901 0.07758120
v 0.03873767 -0.01906291 0.07758120
v 0.03903386 -0.01850028 0.07758120
v 0.03906395 -0.01844218 0.07758120
v 0.04123550 -0.01820062 0.07934769
v 0.04102167 -0.01898035 0.07950740
v 0.04033900 -0.02095262 0.07994845
v 0.04132419 -0.01954299 0.08029175
v 0.04112462 -0.02029826 0.08115282
v 0.04075399 -0.02098626 0.08115282
v 0.04132895 -0.01955216 0.08209063
v 0.04039444 -0.02104130 0.08239982
v 0.02992794 -0.02693670 0.08332398
v 0.04082843 -0.00309519 0.08331376
v 0.04058451 -0.00309519 0.08328761
v 0.04293820 -0.00309519 0.08338708
v 0.04293820 -0.00804573 0.08338708
v 0.04113412 -0.01915465 0.08287497
v 0.04176135 -0.01392890 0.08336775
v 0.04293820 -0.00922298 0.08338366
v 0.04243610 -0.01595009 0.08298638
v 0.04257549 -0.01510615 0.08306765
v 0.04183580 -0.01631703 0.08314268
v 0.04176135 -0.01510615 0.08330239
v 0.03997312 -0.00309519 0.08310119
v 0.02992794 -0.02581755 0.08310914
v 0.04608544 -0.00333981 0.08115282
v 0.04591754 -0.00451706 0.08047760
v 0.04603000 -0.00309519 0.08184907
v 0.04592388 -0.00451706 0.08186840
v 0.04588745 -0.00516836 0.08176780
v 0.04596189 -0.00451706 0.08115282
v 0.04588903 -0.00517754 0.08115282
v 0.04580509 -0.00576463 0.08115282
v 0.04561976 -0.00686849 0.08115282
v 0.04539485 -0.00804573 0.08115282
v 0.04516201 -0.00922298 0.08115282
v 0.04471060 -0.01101790 0.08054581
v 0.04479138 -0.01040022 0.08038325
v 0.04450469 -0.00922298 0.07955173
v 0.04355751 -0.01228993 0.07936531
v 0.04231572 -0.00966941 0.07758120
v 0.04245352 -0.00910067 0.07758120
v 0.03954388 -0.01745758 0.07758120
v 0.03955655 -0.01743006 0.07758120
v 0.03990501 -0.01666256 0.07758120
v 0.04236799 -0.01575134 0.07937497
v 0.04217634 -0.01653413 0.07953980
v 0.04150318 -0.01861036 0.07993026
v 0.04247570 -0.01714263 0.08032414
v 0.04140339 -0.01971116 0.08115282
v 0.04248045 -0.01715180 0.08204914
v 0.04098682 -0.01988851 0.08242142
v 0.04318054 -0.00309519 0.08338594
v 0.04411505 -0.00309519 0.08337514
v 0.04227929 -0.01673289 0.08283348
v 0.04293820 -0.01157441 0.08330580
v 0.04293820 -0.01040022 0.08336150
v 0.04411505 -0.00451706 0.08335923
v 0.04411505 -0.00333981 0.08337343
v 0.04352583 -0.01333875 0.08291704
v 0.04362404 -0.01255596 0.08299604
v 0.04280515 -0.01392890 0.08313302
v 0.04599674 -0.00309519 0.08205766
v 0.04598565 -0.00333981 0.08203095
v 0.04562610 -0.00451706 0.08245666
v 0.04559284 -0.00561480 0.08222760
v 0.04534258 -0.00686849 0.08232934
v 0.04513350 -0.00804573 0.08232934
v 0.04490226 -0.00917405 0.08238334
v 0.04480088 -0.01040022 0.08198775
v 0.04471852 -0.01104236 0.08178371
v 0.04488958 -0.01040022 0.08115282
v 0.04367472 -0.01392890 0.08028777
v 0.04381886 -0.01271191 0.07990980
v 0.04472010 -0.01105153 0.08115282
v 0.04455063 -0.01163862 0.08115282
v 0.04421959 -0.01275166 0.08115282
v 0.04355434 -0.01459550 0.08050204
v 0.04340387 -0.01307578 0.07947273
v 0.04119748 -0.01338767 0.07758120
v 0.04141923 -0.01270885 0.07758120
v 0.04177561 -0.01157441 0.07758120
v 0.04212090 -0.01040022 0.07758120
v 0.04016635 -0.01607241 0.07758120
v 0.04018061 -0.01603877 0.07758120
v 0.04055916 -0.01510615 0.07758120
v 0.04118956 -0.01340908 0.07758120
v 0.04260083 -0.01619777 0.07995016
v 0.04296038 -0.01628033 0.08115282
v 0.04254222 -0.01728634 0.08115282
v 0.04226821 -0.01787650 0.08115282
v 0.04191183 -0.01863482 0.08115282
v 0.04355910 -0.01460773 0.08183145
v 0.04264835 -0.01631703 0.08239641
v 0.04433204 -0.00309519 0.08332626
v 0.04374600 -0.01157441 0.08307106
v 0.04390281 -0.01040022 0.08312676
v 0.04411505 -0.00804573 0.08322168
v 0.04411505 -0.00686849 0.08328931
v 0.04411505 -0.00569430 0.08333422
v 0.04510024 -0.00333981 0.08313870
v 0.04511291 -0.00309519 0.08314040
v 0.04368106 -0.01392890 0.08210256
v 0.04461873 -0.00953487 0.08281132
v 0.04472486 -0.00874902 0.08293806
v 0.04570055 -0.00309519 0.08264592
v 0.04568787 -0.00333981 0.08261921
v 0.04382995 -0.01392890 0.08115282
v 0.04357176 -0.01464442 0.08115282
v 0.04335477 -0.01523152 0.08115282
v 0.04478346 -0.00804573 0.08298694
v 0.04488166 -0.00686849 0.08305458
v 0.04496878 -0.00569430 0.08309948
v 0.04503689 -0.00451706 0.08312506
v 0.04523487 -0.00309519 0.08305799
f 1 2 3
f 1 3 8
f 1 8 19
f 1 19 27
f 1 27 43
f 1 43 47
f 1 47 65
f 1 65 64
f 1 64 93
f 1 93 92
f 1 92 125
f 1 125 165
f 1 165 203
f 1 203 216
f 1 216 176
f 1 176 138
f 1 138 137
f 1 137 103
f 1 103 77
f 1 77 75
f 1 75 52
f 1 52 34
f 1 34 20
f 1 20 9
f 1 9 4
f 1 4 5
f 1 5 2
f 2 6 3
f 2 5 6
f 3 6 7
f 3 7 8
f 4 9 10
f 4 10 5
f 5 11 12
f 5 12 13
f 5 13 14
f 5 14 6
f 5 10 11
f 6 14 7
f 7 15 16
f 7 16 8
f 7 14 17
f 7 17 18
f 7 18 15
f 8 16 19
f 9 11 10
f 9 20 11
f 11 21 12
f 11 20 22
f 11 22 21
f 12 21 13
f 13 21 23
f 13 23 24
f 13 24 25
f 13 25 26
f 13 26 14
f 14 26 17
f 15 27 19
f 15 19 16
f 15 18 27
f 17 26 25
f 17 25 28
f 17 28 18
f 18 29 27
f 18 28 30
f 18 30 31
f 18 31 32
f 18 32 33
f 18 33 29
f 20 34 54
f 20 54 78
f 20 78 105
f 20 105 139
f 20 139 177
f 20 177 190
f 20 190 189
f 20 189 188
f 20 188 187
f 20 187 233
f 20 233 232
f 20 232 274
f 20 274 273
f 20 273 272
f 20 272 271
f 20 271 278
f 20 278 277
f 20 277 276
f 20 276 275
f 20 275 236
f 20 236 235
f 20 235 234
f 20 234 194
f 20 194 193
f 20 193 192
f 20 192 191
f 20 191 150
f 20 150 149
f 20 149 148
f 20 148 147
f 20 147 146
f 20 146 145
f 20 145 144
f 20 144 113
f 20 113 112
f 20 112 111
f 20 111 110
f 20 110 109
f 20 109 108
f 20 108 106
f 20 106 82
f 20 82 81
f 20 81 80
f 20 80 79
f 20 79 55
f 20 55 37
f 20 37 36
f 20 36 35
f 20 35 22
f 21 22 35
f 21 35 36
f 21 36 37
f 21 37 38
f 21 38 23
f 23 38 39
f 23 39 24
f 24 40 25
f 24 39 41
f 24 41 42
f 24 42 40
f 25 40 28
f 27 29 43
f 28 40 42
f 28 42 44
f 28 44 30
f 29 33 45
f 29 45 46
f 29 46 47
f 29 47 43
f 30 44 48
f 30 48 31
f 31 48 32
f 32 49 33
f 32 48 50
f 32 50 51
f 32 51 49
f 33 49 45
f 34 52 53
f 34 53 54
f 37 55 56
f 37 56 38
f 38 56 39
f 39 56 41
f 41 57 42
f 41 56 58
f 41 58 59
f 41 59 57
f 42 57 44
f 44 60 48
f 44 57 61
f 44 61 60
f 45 49 62
f 45 62 63
f 45 63 64
f 45 64 65
f 45 65 46
f 46 65 47
f 48 60 66
f 48 66 67
f 48 67 68
f 48 68 50
f 49 51 69
f 49 69 70
f 49 70 62
f 50 68 71
f 50 71 72
f 50 72 51
f 51 72 73
f 51 73 74
f 51 74 69
f 52 75 53
f 53 76 102
f 53 102 136
f 53 136 175
f 53 175 215
f 53 215 205
f 53 205 204
f 53 204 166
f 53 166 206
f 53 206 244
f 53 244 245
f 53 245 286
f 53 286 293
f 53 293 306
f 53 306 297
f 53 297 254
f 53 254 219
f 53 219 178
f 53 178 140
f 53 140 104
f 53 104 78
f 53 78 54
f 53 75 77
f 53 77 76
f 55 79 56
f 56 79 80
f 56 80 81
f 56 81 82
f 56 82 83
f 56 83 84
f 56 84 85
f 56 85 58
f 57 59 86
f 57 86 87
f 57 87 88
f 57 88 61
f 58 85 59
f 59 85 89
f 59 89 86
f 60 61 66
f 61 88 90
f 61 90 66
f 62 91 92
f 62 92 93
f 62 93 63
f 62 70 94
f 62 94 91
f 63 93 64
f 66 90 67
f 67 71 68
f 67 90 95
f 67 95 96
f 67 96 97
f 67 97 71
f 69 74 98
f 69 98 70
f 70 98 94
f 71 97 73
f 71 73 72
f 73 97 99
f 73 99 100
f 73 100 101
f 73 101 74
f 74 101 98
f 76 77 102
f 77 103 102
f 78 104 105
f 82 106 84
f 82 84 83
f 84 107 86
f 84 86 89
f 84 89 85
f 84 106 108
f 84 108 109
f 84 109 110
f 84 110 111
f 84 111 112
f 84 112 113
f 84 113 114
f 84 114 115
f 84 115 116
f 84 116 107
f 86 117 118
f 86 118 119
f 86 119 120
f 86 120 87
f 86 107 116
f 86 116 121
f 86 121 117
f 87 120 88
f 88 122 123
f 88 123 90
f 88 120 119
f 88 119 118
f 88 118 117
f 88 117 124
f 88 124 122
f 90 123 95
f 91 94 126
f 91 126 167
f 91 167 207
f 91 207 206
f 91 206 166
f 91 166 125
f 91 125 92
f 94 98 126
f 95 123 127
f 95 127 122
f 95 122 124
f 95 124 128
f 95 128 129
f 95 129 96
f 96 129 99
f 96 99 97
f 98 101 130
f 98 130 131
f 98 131 126
f 99 129 132
f 99 132 100
f 100 132 133
f 100 133 134
f 100 134 135
f 100 135 101
f 101 135 130
f 102 103 137
f 102 137 138
f 102 138 136
f 104 139 105
f 104 140 179
f 104 179 141
f 104 141 142
f 104 142 143
f 104 143 139
f 113 144 114
f 114 144 145
f 114 145 146
f 114 146 147
f 114 147 148
f 114 148 149
f 114 149 150
f 114 150 151
f 114 151 152
f 114 152 153
f 114 153 154
f 114 154 155
f 114 155 115
f 115 155 156
f 115 156 116
f 116 156 121
f 117 121 157
f 117 157 124
f 121 158 159
f 121 159 157
f 121 156 155
f 121 155 154
f 121 154 153
f 121 153 160
f 121 160 161
f 121 161 162
f 121 162 158
f 122 127 123
f 124 158 162
f 124 162 161
f 124 161 160
f 124 160 163
f 124 163 164
f 124 164 128
f 124 157 159
f 124 159 158
f 125 166 165
f 126 131 167
f 128 164 168
f 128 168 129
f 129 168 169
f 129 169 132
f 130 135 131
f 131 135 170
f 131 170 171
f 131 171 167
f 132 169 134
f 132 134 133
f 134 169 172
f 134 172 173
f 134 173 174
f 134 174 135
f 135 174 170
f 136 138 175
f 138 176 175
f 139 143 177
f 140 178 179
f 141 179 180
f 141 180 142
f 142 180 181
f 142 181 182
f 142 182 183
f 142 183 184
f 142 184 185
f 142 185 186
f 142 186 187
f 142 187 188
f 142 188 189
f 142 189 190
f 142 190 177
f 142 177 143
f 150 191 151
f 151 191 192
f 151 192 193
f 151 193 194
f 151 194 195
f 151 195 196
f 151 196 152
f 152 196 197
f 152 197 153
f 153 197 198
f 153 198 199
f 153 199 200
f 153 200 160
f 160 200 163
f 163 168 164
f 163 200 199
f 163 199 201
f 163 201 202
f 163 202 168
f 165 166 204
f 165 204 205
f 165 205 203
f 167 171 207
f 168 202 208
f 168 208 169
f 169 208 172
f 170 174 209
f 170 209 171
f 171 209 210
f 171 210 207
f 172 208 211
f 172 211 173
f 173 211 212
f 173 212 213
f 173 213 214
f 173 214 174
f 174 214 209
f 175 176 216
f 175 216 203
f 175 203 215
f 178 217 182
f 178 182 218
f 178 218 179
f 178 219 220
f 178 220 221
f 178 221 217
f 179 218 181
f 179 181 180
f 181 218 182
f 182 217 222
f 182 222 223
f 182 223 224
f 182 224 225
f 182 225 226
f 182 226 227
f 182 227 228
f 182 228 229
f 182 229 185
f 182 185 184
f 182 184 183
f 185 230 186
f 185 229 231
f 185 231 230
f 186 230 231
f 186 231 232
f 186 232 233
f 186 233 187
f 194 234 195
f 195 234 235
f 195 235 236
f 195 236 237
f 195 237 238
f 195 238 196
f 196 239 198
f 196 198 197
f 196 238 240
f 196 240 239
f 198 239 240
f 198 240 199
f 199 240 241
f 199 241 242
f 199 242 201
f 201 208 243
f 201 243 202
f 201 242 208
f 202 243 208
f 203 205 215
f 206 207 244
f 207 210 245
f 207 245 244
f 208 242 246
f 208 246 211
f 209 214 247
f 209 247 248
f 209 248 210
f 210 249 250
f 210 250 245
f 210 248 249
f 211 246 251
f 211 251 212
f 212 214 213
f 212 251 252
f 212 252 253
f 212 253 214
f 214 253 247
f 217 221 222
f 219 254 255
f 219 255 220
f 220 256 221
f 220 255 298
f 220 298 256
f 221 223 222
f 221 256 257
f 221 257 258
f 221 258 259
f 221 259 260
f 221 260 261
f 221 261 262
f 221 262 227
f 221 227 226
f 221 226 225
f 221 225 224
f 221 224 223
f 227 263 228
f 227 262 263
f 228 264 265
f 228 265 229
f 228 263 266
f 228 266 267
f 228 267 268
f 228 268 269
f 228 269 264
f 229 265 231
f 231 265 270
f 231 270 237
f 231 237 271
f 231 271 272
f 231 272 273
f 231 273 274
f 231 274 232
f 236 275 237
f 237 275 276
f 237 276 277
f 237 277 278
f 237 278 271
f 237 270 264
f 237 264 279
f 237 279 238
f 238 279 240
f 240 279 264
f 240 264 269
f 240 269 280
f 240 280 281
f 240 281 282
f 240 282 283
f 240 283 241
f 241 283 242
f 242 281 280
f 242 280 284
f 242 284 285
f 242 285 246
f 242 283 282
f 242 282 281
f 245 250 286
f 246 285 251
f 247 287 288
f 247 288 289
f 247 289 290
f 247 290 248
f 247 253 287
f 248 290 291
f 248 291 249
f 249 292 293
f 249 293 286
f 249 286 250
f 249 291 292
f 251 285 284
f 251 284 294
f 251 294 262
f 251 262 261
f 251 261 295
f 251 295 296
f 251 296 252
f 252 287 253
f 252 296 287
f 254 297 255
f 255 297 298
f 256 298 296
f 256 296 257
f 257 296 258
f 258 296 259
f 259 296 260
f 260 296 295
f 260 295 261
f 262 268 267
f 262 267 266
f 262 266 263
f 262 294 284
f 262 284 268
f 264 270 265
f 268 299 269
f 268 284 299
f 269 300 301
f 269 301 280
f 269 299 300
f 280 301 284
f 284 301 300
f 284 300 299
f 287 296 288
f 288 296 302
f 288 302 303
f 288 303 289
f 289 303 304
f 289 304 290
f 290 304 291
f 291 304 305
f 291 305 292
f 292 305 306
f 292 306 293
f 296 298 302
f 297 306 304
f 297 304 303
f 297 303 302
f 297 302 298
f 304 306 305

