# https://github.com/mikedh/trimesh
v -0.06055397 0.01168075 0.00350755
v -0.06062006 0.01202530 0.00350755
v -0.05852810 0.01168075 0.00350755
v -0.06076692 0.01168075 0.00417313
v -0.06065029 0.01228680 0.00350755
v -0.06093798 0.01206530 0.00448097
v -0.05852810 0.01883495 0.00350755
v -0.05793286 0.01883495 0.00360739
v -0.05852810 0.01168075 0.04190335
v -0.06086368 0.01168075 0.00448097
v -0.06075828 0.01323587 0.00350755
v -0.06107318 0.01323587 0.00448097
v -0.06104424 0.01168075 0.00526302
v -0.06120622 0.01206530 0.00564573
v -0.06137123 0.01315589 0.00566653
v -0.06092718 0.01883495 0.00350755
v -0.05793286 0.02739508 0.00360739
v -0.05793286 0.01883495 0.03996484
v -0.05868015 0.02739508 0.04600500
v -0.05948790 0.01168075 0.04600500
v -0.06077210 0.01343738 0.00350755
v -0.06114963 0.01440337 0.00448097
v -0.06139369 0.01440337 0.00532542
v -0.06112933 0.01168075 0.00564573
v -0.06145114 0.01271442 0.00638204
v -0.06149520 0.01349429 0.00607837
v -0.06153321 0.01440337 0.00591197
v -0.06095180 0.01907953 0.00360739
v -0.06093884 0.01938101 0.00360739
v -0.06089046 0.02024702 0.00360739
v -0.06057081 0.02375414 0.00360739
v -0.06043345 0.02447710 0.00360739
v -0.06014923 0.02584610 0.00360739
v -0.06007838 0.02615220 0.00360739
v -0.05976176 0.02725510 0.00360739
v -0.05972073 0.02739508 0.00360739
v -0.06095223 0.01811199 0.00350755
v -0.06116950 0.01883495 0.00423137
v -0.05793286 0.02739508 0.04129600
v -0.05793286 0.02739200 0.04131264
v -0.06116950 0.02739508 0.04600500
v -0.06199324 0.01168075 0.04600500
v -0.06089435 0.01557241 0.00350755
v -0.06122177 0.01557241 0.00448097
v -0.06141961 0.01557241 0.00523806
v -0.06129434 0.01168075 0.00679802
v -0.06140449 0.01168075 0.00798359
v -0.06141961 0.01176996 0.00798359
v -0.06150341 0.01235448 0.00798359
v -0.06161139 0.01323587 0.00798359
v -0.06152846 0.01315589 0.00678970
v -0.06165761 0.01440337 0.00681466
v -0.06154444 0.01557241 0.00582461
v -0.06170772 0.01557241 0.00681466
v -0.06173537 0.01674145 0.00681466
v -0.06124294 0.01907953 0.00448097
v -0.06119326 0.02024702 0.00448097
v -0.06099499 0.02258510 0.00448097
v -0.06089089 0.02375414 0.00448097
v -0.06031034 0.02561998 0.00384866
v -0.06023734 0.02639986 0.00408994
v -0.06005333 0.02739508 0.00448097
v -0.06095396 0.01791049 0.00350755
v -0.06127015 0.01674145 0.00448097
v -0.06118073 0.02739508 0.04187839
v -0.06140838 0.02643831 0.04070946
v -0.06119931 0.02726125 0.04600500
v -0.06205026 0.01206530 0.04600500
v -0.06200015 0.01168075 0.04422041
v -0.06095136 0.01674145 0.00350755
v -0.06143602 0.01674145 0.00517567
v -0.06143041 0.01168075 0.00839126
v -0.06145287 0.01168075 0.00878229
v -0.06151852 0.01200223 0.00924820
v -0.06172240 0.01440337 0.00798359
v -0.06164681 0.01323587 0.00915669
v -0.06187661 0.01557241 0.00915669
v -0.06182478 0.01557241 0.00798359
v -0.06188007 0.01674145 0.00798359
v -0.06155222 0.01674145 0.00575805
v -0.06172975 0.01791049 0.00681466
v -0.06139714 0.01883495 0.00504255
v -0.06143559 0.01907953 0.00519647
v -0.06152155 0.02001783 0.00587453
v -0.06042395 0.02604299 0.00448097
v -0.06123862 0.02258510 0.00564573
v -0.06111940 0.02375414 0.00564573
v -0.06090471 0.02492318 0.00564573
v -0.06033885 0.02682748 0.00487199
v -0.06008875 0.02739508 0.00463488
v -0.06115827 0.02739508 0.03499793
v -0.06152975 0.02585379 0.04070946
v -0.06139542 0.02634910 0.04600500
v -0.06118808 0.02726125 0.03486481
v -0.06215134 0.01323587 0.04600500
v -0.06215393 0.01323587 0.04538934
v -0.06205155 0.01206530 0.04422041
v -0.06199583 0.01168075 0.04383354
v -0.06146366 0.01168075 0.00900277
v -0.06148310 0.01168075 0.00952275
v -0.06173061 0.01323587 0.01266347
v -0.06185718 0.01440337 0.01266347
v -0.06221829 0.01440337 0.04071362
v -0.06230943 0.01557241 0.04305148
v -0.06202262 0.01674145 0.01616610
v -0.06192629 0.01674145 0.00915669
v -0.06185934 0.01791049 0.00798359
v -0.06170686 0.01883495 0.00681466
v -0.06153580 0.01907953 0.00577885
v -0.06170038 0.01907953 0.00681882
v -0.06149304 0.02221747 0.00718073
v -0.06065980 0.02609221 0.00564573
v -0.06123732 0.02375414 0.00681882
v -0.06102394 0.02492318 0.00681882
v -0.06039976 0.02707359 0.00564573
v -0.06030646 0.02739508 0.00564573
v -0.06115611 0.02739508 0.03486481
v -0.06167316 0.02492318 0.04070946
v -0.06150557 0.02576458 0.04600500
v -0.06145632 0.02549231 0.02992286
v -0.06181441 0.02375414 0.03369588
v -0.06067621 0.02726125 0.00915253
v -0.06095180 0.02609221 0.00915253
v -0.06233232 0.01557241 0.04600500
v -0.06223038 0.01440337 0.04188255
v -0.06211419 0.01323587 0.04071362
v -0.06232066 0.01557241 0.04422041
v -0.06233837 0.01674145 0.04305148
v -0.06226019 0.01791049 0.03486897
v -0.06202348 0.01791049 0.01500133
v -0.06199108 0.01791049 0.01266347
v -0.06196905 0.01791049 0.01149038
v -0.06191981 0.01907953 0.01032561
v -0.06179368 0.01907953 0.00798775
v -0.06152716 0.02244051 0.00798775
v -0.06077772 0.02609221 0.00681882
v -0.06045289 0.02739508 0.00675226
v -0.06045030 0.02739508 0.00672731
v -0.06044641 0.02739508 0.00669403
v -0.06143516 0.02302503 0.00798775
v -0.06111292 0.02492318 0.00798775
v -0.06088009 0.02609221 0.00798775
v -0.06064295 0.02739508 0.00915253
v -0.06198503 0.02258510 0.04187839
v -0.06197899 0.02258510 0.04600500
v -0.06163386 0.02492318 0.04600500
v -0.06197769 0.02258510 0.03369588
v -0.06179713 0.02375414 0.03252695
v -0.06117210 0.02492318 0.00915253
v -0.06057643 0.02739508 0.00798775
v -0.06060883 0.02726125 0.00798775
v -0.06233924 0.01618616 0.04600500
v -0.06234572 0.01674145 0.04422041
v -0.06232023 0.01791049 0.04188255
v -0.06225544 0.01907953 0.03486481
v -0.06225673 0.01883495 0.03486481
v -0.06194961 0.01907953 0.01149454
v -0.06195393 0.01883495 0.01149038
v -0.06181355 0.02024702 0.01032561
v -0.06153278 0.02269124 0.00916500
v -0.06145546 0.02314962 0.00878229
v -0.06212240 0.02141606 0.04187839
v -0.06203773 0.02203135 0.04600500
v -0.06208568 0.02141606 0.03369588
v -0.06223514 0.02024702 0.04187839
v -0.06234485 0.01674145 0.04600500
v -0.06229950 0.01883495 0.04188255
v -0.06229950 0.01883495 0.04187839
v -0.06218762 0.02024702 0.03486481
v -0.06229388 0.01907953 0.04187839
v -0.06210166 0.02141606 0.04600500
v -0.06228913 0.01907953 0.04600500
v -0.06224680 0.01969327 0.04600500
v -0.06220361 0.02024702 0.04600500
v -0.06215307 0.02086231 0.04600500
f 1 2 5
f 1 5 11
f 1 11 21
f 1 21 43
f 1 43 70
f 1 70 63
f 1 63 37
f 1 37 16
f 1 16 7
f 1 7 3
f 1 3 9
f 1 9 20
f 1 20 42
f 1 42 69
f 1 69 98
f 1 98 100
f 1 100 99
f 1 99 73
f 1 73 72
f 1 72 47
f 1 47 46
f 1 46 24
f 1 24 13
f 1 13 10
f 1 10 4
f 1 4 2
f 2 4 6
f 2 6 5
f 3 7 17
f 3 17 8
f 3 8 18
f 3 18 9
f 4 10 6
f 5 6 12
f 5 12 11
f 6 10 13
f 6 13 14
f 6 14 15
f 6 15 12
f 7 16 36
f 7 36 17
f 8 17 39
f 8 39 40
f 8 40 18
f 9 18 19
f 9 19 20
f 11 12 21
f 12 22 21
f 12 15 23
f 12 23 22
f 13 24 14
f 14 24 25
f 14 25 15
f 15 25 26
f 15 26 27
f 15 27 23
f 16 28 29
f 16 29 30
f 16 30 31
f 16 31 32
f 16 32 33
f 16 33 34
f 16 34 35
f 16 35 36
f 16 37 38
f 16 38 28
f 17 36 62
f 17 62 90
f 17 90 116
f 17 116 139
f 17 139 138
f 17 138 137
f 17 137 150
f 17 150 143
f 17 143 117
f 17 117 91
f 17 91 65
f 17 65 41
f 17 41 19
f 17 19 39
f 18 40 19
f 19 41 67
f 19 67 93
f 19 93 119
f 19 119 146
f 19 146 145
f 19 145 163
f 19 163 171
f 19 171 175
f 19 175 174
f 19 174 173
f 19 173 172
f 19 172 166
f 19 166 152
f 19 152 124
f 19 124 95
f 19 95 68
f 19 68 42
f 19 42 20
f 19 40 39
f 21 22 44
f 21 44 43
f 22 23 44
f 23 27 45
f 23 45 44
f 24 46 25
f 25 46 47
f 25 47 48
f 25 48 49
f 25 49 50
f 25 50 51
f 25 51 52
f 25 52 26
f 26 52 27
f 27 53 45
f 27 52 54
f 27 54 55
f 27 55 53
f 28 38 56
f 28 56 57
f 28 57 29
f 29 57 30
f 30 57 58
f 30 58 59
f 30 59 31
f 31 59 60
f 31 60 32
f 32 60 33
f 33 60 34
f 34 60 61
f 34 61 35
f 35 61 36
f 36 61 62
f 37 63 64
f 37 64 38
f 38 64 56
f 41 65 66
f 41 66 67
f 42 68 69
f 43 44 70
f 44 64 70
f 44 45 64
f 45 53 71
f 45 71 64
f 47 72 48
f 48 72 49
f 49 72 73
f 49 73 74
f 49 74 50
f 50 75 52
f 50 52 51
f 50 74 76
f 50 76 77
f 50 77 75
f 52 75 78
f 52 78 79
f 52 79 54
f 53 55 80
f 53 80 71
f 54 79 55
f 55 79 81
f 55 81 80
f 56 82 83
f 56 83 57
f 56 64 82
f 57 83 84
f 57 84 58
f 58 84 59
f 59 85 61
f 59 61 60
f 59 84 86
f 59 86 87
f 59 87 88
f 59 88 85
f 61 85 89
f 61 89 62
f 62 89 90
f 63 70 64
f 64 71 83
f 64 83 82
f 65 91 66
f 66 92 93
f 66 93 67
f 66 91 94
f 66 94 92
f 68 95 96
f 68 96 97
f 68 97 69
f 69 97 98
f 71 80 83
f 73 99 74
f 74 99 100
f 74 100 101
f 74 101 102
f 74 102 76
f 75 77 78
f 76 102 77
f 77 102 103
f 77 103 104
f 77 104 105
f 77 105 106
f 77 106 79
f 77 79 78
f 79 107 81
f 79 106 107
f 80 81 83
f 81 107 108
f 81 108 109
f 81 109 83
f 83 109 84
f 84 109 110
f 84 110 111
f 84 111 86
f 85 88 112
f 85 112 89
f 86 111 87
f 87 111 113
f 87 113 114
f 87 114 88
f 88 114 112
f 89 112 115
f 89 115 116
f 89 116 90
f 91 117 94
f 92 118 119
f 92 119 93
f 92 94 120
f 92 120 121
f 92 121 118
f 94 117 122
f 94 122 123
f 94 123 120
f 95 124 96
f 96 124 125
f 96 125 97
f 97 125 103
f 97 103 126
f 97 126 102
f 97 102 101
f 97 101 100
f 97 100 98
f 102 126 103
f 103 125 104
f 104 125 127
f 104 127 128
f 104 128 105
f 105 129 130
f 105 130 106
f 105 128 129
f 106 130 131
f 106 131 132
f 106 132 133
f 106 133 107
f 107 134 110
f 107 110 108
f 107 133 134
f 108 110 109
f 110 134 111
f 111 134 135
f 111 135 113
f 112 114 136
f 112 136 137
f 112 137 138
f 112 138 139
f 112 139 115
f 113 135 140
f 113 140 141
f 113 141 114
f 114 141 142
f 114 142 136
f 115 139 116
f 117 143 122
f 118 144 145
f 118 145 146
f 118 146 119
f 118 121 147
f 118 147 144
f 120 148 121
f 120 123 149
f 120 149 148
f 121 148 147
f 122 143 150
f 122 150 151
f 122 151 123
f 123 151 142
f 123 142 141
f 123 141 149
f 124 152 153
f 124 153 128
f 124 128 127
f 124 127 125
f 128 153 154
f 128 154 155
f 128 155 156
f 128 156 129
f 129 156 130
f 130 157 131
f 130 156 155
f 130 155 157
f 131 157 158
f 131 158 132
f 132 158 133
f 133 158 157
f 133 157 159
f 133 159 135
f 133 135 134
f 135 159 160
f 135 160 161
f 135 161 140
f 136 142 151
f 136 151 150
f 136 150 137
f 140 161 141
f 141 161 149
f 144 147 162
f 144 162 145
f 145 162 163
f 147 148 160
f 147 160 159
f 147 159 157
f 147 157 164
f 147 164 165
f 147 165 162
f 148 149 161
f 148 161 160
f 152 166 153
f 153 167 154
f 153 166 167
f 154 167 168
f 154 168 155
f 155 169 157
f 155 168 170
f 155 170 165
f 155 165 169
f 157 169 164
f 162 165 171
f 162 171 163
f 164 169 165
f 165 170 172
f 165 172 173
f 165 173 174
f 165 174 175
f 165 175 171
f 166 172 170
f 166 170 167
f 167 170 168

