# https://github.com/mikedh/trimesh
v -0.02229739 0.06424047 0.07844706
v -0.02112785 0.06422575 0.07846008
v -0.02112785 0.06357419 0.07787606
v -0.02229739 0.06358049 0.07786368
v -0.02346693 0.06419948 0.07851803
v -0.02346693 0.06419948 0.07923097
v -0.02241275 0.06422050 0.07940872
v -0.02106574 0.06420894 0.07939569
v -0.01705310 0.06412486 0.07929803
v -0.01705310 0.06412907 0.07900569
v -0.01705310 0.06413222 0.07862090
v -0.01705310 0.06386424 0.07833768
v -0.01705310 0.06301194 0.07748605
v -0.01737433 0.06301930 0.07748150
v -0.01879055 0.05897433 0.07461671
v -0.01996009 0.05897433 0.07461671
v -0.02112785 0.05897328 0.07461671
v -0.02229739 0.05893755 0.07461671
v -0.02463469 0.05884612 0.07461671
v -0.02580423 0.05878096 0.07461671
v -0.02697199 0.05864119 0.07461671
v -0.02348113 0.06343231 0.07787085
v -0.02697199 0.06336505 0.07821658
v -0.02813976 0.06327678 0.07827713
v -0.02441108 0.06413327 0.07863327
v -0.02441108 0.06413327 0.07901611
v -0.02473585 0.06403659 0.07936054
v -0.02346693 0.06407547 0.07981500
v -0.02287772 0.06408598 0.07987620
v -0.02209862 0.06410490 0.07990420
v -0.02141358 0.06410490 0.07990420
v -0.01705310 0.06409018 0.07988206
v -0.01705310 0.05888080 0.07461671
v -0.01762101 0.05892704 0.07461671
v -0.02814153 0.05845623 0.07461671
v -0.02813976 0.06256426 0.07769375
v -0.02930929 0.06250435 0.07780314
v -0.02930929 0.06315697 0.07838651
v -0.03136974 0.06296045 0.07863783
v -0.02813976 0.06357103 0.07929217
v -0.02697199 0.06328624 0.08031764
v -0.02930929 0.06310653 0.08011645
v -0.02813976 0.06321162 0.08022844
v -0.02452289 0.06333878 0.08054226
v -0.02405613 0.06291841 0.08104686
v -0.02061851 0.06292682 0.08105141
v -0.01995831 0.06292787 0.08105207
v -0.01816940 0.06291947 0.08104686
v -0.01705310 0.06405235 0.07991917
v -0.01705310 0.05608746 0.07461671
v -0.02901292 0.05830700 0.07461671
v -0.03190038 0.06167098 0.07755247
v -0.03281614 0.06221535 0.07820095
v -0.03136974 0.06296045 0.07900569
v -0.03515521 0.06185489 0.07855188
v -0.03518361 0.06185069 0.07855709
v -0.03281614 0.06259263 0.07929217
v -0.02930929 0.06334719 0.07929217
v -0.03023037 0.06300564 0.08000381
v -0.03164837 0.06164786 0.08101300
v -0.03281614 0.06212602 0.08032741
v -0.02813976 0.06254429 0.08081247
v -0.02697199 0.06263887 0.08090231
v -0.03016648 0.06179499 0.08107095
v -0.02930929 0.06185909 0.08110220
v -0.02813976 0.06195998 0.08113736
v -0.02697199 0.06205456 0.08115233
v -0.02357341 0.06241082 0.08115754
v -0.01995831 0.06233306 0.08116535
v -0.01879055 0.06233306 0.08116210
v -0.01771507 0.06241608 0.08113605
v -0.01705310 0.06227000 0.08114257
v -0.01739030 0.06286167 0.08102928
v -0.01705310 0.06314857 0.08073043
v -0.01705310 0.05609797 0.07518381
v -0.03518361 0.05350431 0.07461671
v -0.02959857 0.05816617 0.07461671
v -0.03164837 0.05765228 0.07461671
v -0.03281614 0.06152595 0.07761692
v -0.03518361 0.06120542 0.07797177
v -0.03398567 0.06201883 0.07836046
v -0.03171404 0.06284275 0.07935403
v -0.03518361 0.06187275 0.07914307
v -0.03518361 0.06187696 0.07926678
v -0.03518361 0.06187591 0.07928306
v -0.03518361 0.06176766 0.07983062
v -0.03482156 0.06182021 0.07998884
v -0.03100947 0.06290160 0.07978505
v -0.03398567 0.06195893 0.08014250
v -0.03281614 0.06150283 0.08091143
v -0.03482866 0.06065579 0.08108592
v -0.03398567 0.06075458 0.08113150
v -0.03398567 0.06133994 0.08072717
v -0.03281614 0.06091747 0.08115233
v -0.02930929 0.06116339 0.08122916
v -0.02813976 0.06116339 0.08126041
v -0.02229739 0.06221956 0.08117642
v -0.02229739 0.06116339 0.08126823
v -0.01879055 0.06116339 0.08124934
v -0.01705310 0.06116339 0.08123763
v -0.01705310 0.06281122 0.08100714
v -0.01705310 0.05612845 0.07578606
v -0.03518361 0.05353164 0.07578606
v -0.03518361 0.05658245 0.07461671
v -0.03291374 0.05732754 0.07461671
v -0.03518361 0.06062216 0.07751926
v -0.03518361 0.06123380 0.08046218
v -0.03518361 0.06120122 0.08049539
v -0.03518361 0.06057487 0.08105662
v -0.03518361 0.06006833 0.08113671
v -0.03398567 0.05999477 0.08122135
v -0.03518361 0.06118441 0.08051101
v -0.03281614 0.05999477 0.08125390
v -0.03164837 0.05999477 0.08126757
v -0.03047883 0.05999477 0.08126627
v -0.01705310 0.06021126 0.08113019
v -0.03281614 0.05882615 0.08116535
v -0.01705310 0.05617049 0.07635316
v -0.03518361 0.05357157 0.07636879
v -0.03515521 0.05659295 0.07461671
v -0.03518361 0.06005677 0.08113801
v -0.03518361 0.06005047 0.08113866
v -0.03518361 0.05882615 0.08115233
v -0.03398567 0.05882615 0.08116145
v -0.01705310 0.05962695 0.08099347
v -0.03281614 0.05818824 0.08106379
v -0.03518361 0.05812939 0.08106704
v -0.03398567 0.05815041 0.08107160
v -0.01705310 0.05623564 0.07695477
v -0.03518361 0.05361571 0.07695477
v -0.03518361 0.05880828 0.08115038
v -0.01705310 0.05920343 0.08082223
v -0.03518361 0.05752196 0.08093877
v -0.03518361 0.05648892 0.08056375
v -0.03518361 0.05754508 0.08094463
v -0.03518361 0.05811573 0.08106509
v -0.01705310 0.05633653 0.07752186
v -0.03518361 0.05365249 0.07719241
v -0.01705310 0.05882615 0.08066206
v -0.03518361 0.05646159 0.08055073
v -0.01705310 0.05644688 0.07812347
v -0.03518361 0.05386793 0.07808766
v -0.01705310 0.05833747 0.08039186
v -0.03518361 0.05562191 0.08007869
v -0.01705310 0.05683467 0.07905583
v -0.03518361 0.05388159 0.07811500
v -0.01705310 0.05789294 0.08013012
v -0.03518361 0.05560614 0.08006762
v -0.01705310 0.05730863 0.07963986
v -0.03518361 0.05439023 0.07900179
v -0.03518361 0.05503970 0.07960990
v -0.03518361 0.05441021 0.07902523
f 1 2 3
f 1 3 4
f 1 4 5
f 1 5 6
f 1 6 7
f 1 7 8
f 1 8 2
f 2 8 9
f 2 9 10
f 2 10 11
f 2 11 12
f 2 12 13
f 2 13 14
f 2 14 3
f 3 14 4
f 4 14 15
f 4 15 16
f 4 16 17
f 4 17 18
f 4 18 19
f 4 19 20
f 4 20 21
f 4 21 22
f 4 22 5
f 5 22 23
f 5 23 24
f 5 24 25
f 5 25 26
f 5 26 6
f 6 26 27
f 6 27 28
f 6 28 7
f 7 28 29
f 7 29 30
f 7 30 31
f 7 31 32
f 7 32 8
f 8 32 9
f 9 32 49
f 9 49 74
f 9 74 101
f 9 101 72
f 9 72 100
f 9 100 116
f 9 116 125
f 9 125 132
f 9 132 139
f 9 139 143
f 9 143 147
f 9 147 149
f 9 149 145
f 9 145 141
f 9 141 137
f 9 137 129
f 9 129 118
f 9 118 102
f 9 102 75
f 9 75 50
f 9 50 33
f 9 33 13
f 9 13 12
f 9 12 11
f 9 11 10
f 13 33 34
f 13 34 14
f 14 34 15
f 15 34 33
f 15 33 50
f 15 50 76
f 15 76 104
f 15 104 120
f 15 120 105
f 15 105 78
f 15 78 77
f 15 77 51
f 15 51 35
f 15 35 21
f 15 21 20
f 15 20 19
f 15 19 18
f 15 18 17
f 15 17 16
f 21 35 36
f 21 36 22
f 22 36 24
f 22 24 23
f 24 36 37
f 24 37 38
f 24 38 25
f 25 38 39
f 25 39 40
f 25 40 26
f 26 40 27
f 27 40 28
f 28 41 29
f 28 40 42
f 28 42 43
f 28 43 41
f 29 41 44
f 29 44 45
f 29 45 30
f 30 45 46
f 30 46 47
f 30 47 31
f 31 47 48
f 31 48 32
f 32 48 49
f 35 51 36
f 36 51 37
f 37 51 52
f 37 52 53
f 37 53 38
f 38 53 39
f 39 54 40
f 39 53 55
f 39 55 56
f 39 56 57
f 39 57 54
f 40 54 58
f 40 58 59
f 40 59 42
f 41 45 44
f 41 43 45
f 42 60 43
f 42 59 61
f 42 61 60
f 43 60 62
f 43 62 63
f 43 63 45
f 45 63 60
f 45 60 64
f 45 64 65
f 45 65 66
f 45 66 67
f 45 67 68
f 45 68 46
f 46 68 47
f 47 68 69
f 47 69 70
f 47 70 48
f 48 70 71
f 48 71 72
f 48 72 73
f 48 73 49
f 49 73 74
f 50 75 76
f 51 77 52
f 52 77 78
f 52 78 79
f 52 79 53
f 53 79 80
f 53 80 81
f 53 81 55
f 54 57 82
f 54 82 58
f 55 81 80
f 55 80 56
f 56 80 106
f 56 106 104
f 56 104 76
f 56 76 103
f 56 103 119
f 56 119 130
f 56 130 138
f 56 138 142
f 56 142 146
f 56 146 150
f 56 150 152
f 56 152 151
f 56 151 148
f 56 148 144
f 56 144 140
f 56 140 134
f 56 134 133
f 56 133 135
f 56 135 136
f 56 136 127
f 56 127 131
f 56 131 123
f 56 123 122
f 56 122 121
f 56 121 110
f 56 110 109
f 56 109 112
f 56 112 108
f 56 108 107
f 56 107 86
f 56 86 85
f 56 85 84
f 56 84 83
f 56 83 57
f 57 83 84
f 57 84 85
f 57 85 86
f 57 86 87
f 57 87 88
f 57 88 82
f 58 82 88
f 58 88 59
f 59 88 87
f 59 87 89
f 59 89 61
f 60 63 62
f 60 61 90
f 60 90 91
f 60 91 92
f 60 92 64
f 61 89 93
f 61 93 90
f 64 92 65
f 65 92 94
f 65 94 66
f 66 94 95
f 66 95 96
f 66 96 67
f 67 96 68
f 68 97 69
f 68 96 97
f 69 97 98
f 69 98 70
f 70 99 100
f 70 100 72
f 70 72 71
f 70 98 99
f 72 101 73
f 73 101 74
f 75 102 103
f 75 103 76
f 78 105 79
f 79 105 106
f 79 106 80
f 86 107 87
f 87 107 89
f 89 107 108
f 89 108 93
f 90 93 91
f 91 93 109
f 91 109 110
f 91 110 92
f 92 110 111
f 92 111 94
f 93 108 112
f 93 112 109
f 94 111 95
f 95 111 113
f 95 113 96
f 96 113 114
f 96 114 98
f 96 98 97
f 98 114 115
f 98 115 99
f 99 115 100
f 100 115 117
f 100 117 116
f 102 118 119
f 102 119 103
f 104 106 120
f 105 120 106
f 110 121 111
f 111 121 122
f 111 122 123
f 111 123 113
f 113 123 114
f 114 123 124
f 114 124 117
f 114 117 115
f 116 117 126
f 116 126 125
f 117 124 127
f 117 127 128
f 117 128 126
f 118 129 130
f 118 130 119
f 123 131 124
f 124 131 127
f 125 126 133
f 125 133 134
f 125 134 132
f 126 128 135
f 126 135 133
f 127 136 128
f 128 136 135
f 129 137 138
f 129 138 130
f 132 134 139
f 134 140 139
f 137 141 138
f 138 141 142
f 139 140 143
f 140 144 143
f 141 145 142
f 142 145 146
f 143 144 147
f 144 148 147
f 145 149 150
f 145 150 146
f 147 148 151
f 147 151 149
f 149 151 152
f 149 152 150

