# https://github.com/mikedh/trimesh
v -0.02608778 -0.02063075 0.00350755
v -0.02608778 -0.01501798 0.00350755
v -0.01470270 -0.02063075 0.00350755
v -0.02608778 -0.02063075 0.03823866
v -0.01470270 -0.01364123 0.00350755
v -0.02608778 -0.00833985 0.00852475
v -0.01470270 -0.02063075 0.04067267
v -0.02608778 -0.01561921 0.03895176
v -0.02608778 -0.00829480 0.00856113
v -0.02608778 -0.00782871 0.00895407
v -0.02608778 -0.00708256 0.00959805
v -0.01470270 -0.00698464 0.00951073
v -0.01470270 -0.01482214 0.03966123
v -0.02608778 -0.01277758 0.03883898
v -0.02608778 -0.01334551 0.03893357
v -0.02608778 -0.01355702 0.03895176
v -0.02608778 -0.01378028 0.03896268
v -0.02608778 -0.01482214 0.03899542
v -0.02608778 -0.01542141 0.03897723
v -0.02608778 -0.00693959 0.00975813
v -0.01470270 -0.00586443 0.01068226
v -0.01470270 -0.00639908 0.01009649
v -0.01470270 -0.01365298 0.03945021
v -0.02608778 -0.01246815 0.03877712
v -0.02608778 -0.00643824 0.01035481
v -0.02608778 -0.00631682 0.01050398
v -0.02608778 -0.00602894 0.01086781
v -0.01470270 -0.00526125 0.01147540
v -0.01470270 -0.01307133 0.03929740
v -0.02608778 -0.01131465 0.03842057
v -0.01470270 -0.01247990 0.03913368
v -0.01470270 -0.01189042 0.03896268
v -0.02608778 -0.00561376 0.01144266
v -0.01470270 -0.00467960 0.01229402
v -0.02608778 -0.01057634 0.03812223
v -0.01470270 -0.01133424 0.03871527
v -0.02608778 -0.01027083 0.03799489
v -0.02608778 -0.00546296 0.01166096
v -0.01470270 -0.00440934 0.01267604
v -0.01470270 -0.01010045 0.03815134
v -0.01470270 -0.00971464 0.03796215
v -0.01470270 -0.00946984 0.03784208
v -0.02608778 -0.00970485 0.03771474
v -0.02608778 -0.00495574 0.01240681
v -0.01470270 -0.00404900 0.01321087
v -0.01470270 -0.00928771 0.03773657
v -0.02608778 -0.00899395 0.03731453
v -0.02608778 -0.00923288 0.03744915
v -0.02608778 -0.00466785 0.01285795
v -0.01470270 -0.00352415 0.01401857
v -0.01470270 -0.00387079 0.01348374
v -0.01470270 -0.00893324 0.03752191
v -0.01470270 -0.00841818 0.03720902
v -0.02608778 -0.00840447 0.03695434
v -0.02608778 -0.00451118 0.01310536
v -0.02608778 -0.00404508 0.01386940
v -0.02608778 -0.00397262 0.01398946
v -0.02608778 -0.00371999 0.01442242
v -0.01470270 -0.00296209 0.01500091
v -0.01470270 -0.00789529 0.03688158
v -0.02608778 -0.00814597 0.03679426
v -0.01470270 -0.00274471 0.01543022
v -0.02608778 -0.00347127 0.01496816
v -0.01470270 -0.00231582 0.01627795
v -0.01470270 -0.00756236 0.03665964
v -0.01470270 -0.00736457 0.03652502
v -0.01470270 -0.00710606 0.03634675
v -0.01470270 -0.00625611 0.03569549
v -0.01470270 -0.00600740 0.03549175
v -0.02608778 -0.00756040 0.03631400
v -0.02608778 -0.00338119 0.01520465
v -0.01470270 -0.00190259 0.01735852
v -0.01470270 -0.00541008 0.03496056
v -0.01470270 -0.00509282 0.03467313
v -0.01470270 -0.00478144 0.03438207
v -0.02608778 -0.00694351 0.03572824
v -0.02608778 -0.00303455 0.01617971
v -0.02608778 -0.00228644 0.01849002
v -0.02608778 -0.00189868 0.01969794
v -0.02608778 -0.00145216 0.02114598
v -0.02608778 -0.00137383 0.02142249
v -0.01470270 -0.00162059 0.01850458
v -0.01470270 -0.00461889 0.03421471
v -0.02608778 -0.00592123 0.03471316
v -0.02608778 -0.00635795 0.03515339
v -0.02608778 -0.00650091 0.03529528
v -0.02608778 -0.00132291 0.02164806
v -0.01470270 -0.00129745 0.01998536
v -0.01470270 -0.00420959 0.03377812
v -0.02608778 -0.00578610 0.03457126
v -0.02608778 -0.00123870 0.02205555
v -0.01470270 -0.00112119 0.02084400
v -0.01470270 -0.00395108 0.03349433
v -0.02608778 -0.00520054 0.03390546
v -0.02608778 -0.00119561 0.02229931
v -0.01470270 -0.00102132 0.02144068
v -0.01470270 -0.00367103 0.03317052
v -0.02608778 -0.00483432 0.03346522
v -0.01470270 -0.00092340 0.02204827
v -0.02608778 -0.00107811 0.02317614
v -0.01470270 -0.00076281 0.02316523
v -0.01470270 -0.00316772 0.03252654
v -0.02608778 -0.00368865 0.03206448
v -0.02608778 -0.00423896 0.03274484
v -0.02608778 -0.00106244 0.02345993
v -0.01470270 -0.00064335 0.02434767
v -0.01470270 -0.00280542 0.03204993
v -0.02608778 -0.00363382 0.03198808
v -0.02608778 -0.00108203 0.02434039
v -0.01470270 -0.00062572 0.02551556
v -0.01470270 -0.00063355 0.02484248
v -0.01470270 -0.00263308 0.03180252
v -0.02608778 -0.00331068 0.03142778
v -0.02608778 -0.00111140 0.02467875
v -0.01470270 -0.00067468 0.02668345
v -0.01470270 -0.00064530 0.02600673
v -0.01470270 -0.00230994 0.03123131
v -0.01470270 -0.00195547 0.03060189
v -0.02608778 -0.00274471 0.03039451
v -0.02608778 -0.00120932 0.02551556
v -0.02608778 -0.00135816 0.02654884
v -0.02608778 -0.00143650 0.02699634
v -0.01470270 -0.00087248 0.02780404
v -0.01470270 -0.00175376 0.03020895
v -0.02608778 -0.00243528 0.02980874
v -0.02608778 -0.00165975 0.02788409
v -0.01470270 -0.00109965 0.02851351
v -0.01470270 -0.00145804 0.02959772
v -0.02608778 -0.00208277 0.02902287
v -0.01470270 -0.00141496 0.02949221
f 1 2 5
f 1 5 3
f 1 3 7
f 1 7 4
f 1 4 8
f 1 8 19
f 1 19 18
f 1 18 17
f 1 17 16
f 1 16 15
f 1 15 14
f 1 14 24
f 1 24 30
f 1 30 35
f 1 35 37
f 1 37 43
f 1 43 48
f 1 48 47
f 1 47 54
f 1 54 61
f 1 61 70
f 1 70 76
f 1 76 86
f 1 86 85
f 1 85 84
f 1 84 90
f 1 90 94
f 1 94 98
f 1 98 104
f 1 104 103
f 1 103 108
f 1 108 113
f 1 113 119
f 1 119 125
f 1 125 129
f 1 129 126
f 1 126 122
f 1 122 121
f 1 121 120
f 1 120 114
f 1 114 109
f 1 109 105
f 1 105 100
f 1 100 95
f 1 95 91
f 1 91 87
f 1 87 81
f 1 81 80
f 1 80 79
f 1 79 78
f 1 78 77
f 1 77 71
f 1 71 63
f 1 63 58
f 1 58 57
f 1 57 56
f 1 56 55
f 1 55 49
f 1 49 44
f 1 44 38
f 1 38 33
f 1 33 27
f 1 27 26
f 1 26 25
f 1 25 20
f 1 20 11
f 1 11 10
f 1 10 9
f 1 9 6
f 1 6 2
f 2 6 5
f 3 5 12
f 3 12 22
f 3 22 21
f 3 21 28
f 3 28 34
f 3 34 39
f 3 39 45
f 3 45 51
f 3 51 50
f 3 50 59
f 3 59 62
f 3 62 64
f 3 64 72
f 3 72 82
f 3 82 88
f 3 88 92
f 3 92 96
f 3 96 99
f 3 99 101
f 3 101 106
f 3 106 111
f 3 111 110
f 3 110 116
f 3 116 115
f 3 115 123
f 3 123 127
f 3 127 130
f 3 130 128
f 3 128 124
f 3 124 118
f 3 118 117
f 3 117 112
f 3 112 107
f 3 107 102
f 3 102 97
f 3 97 93
f 3 93 89
f 3 89 83
f 3 83 75
f 3 75 74
f 3 74 73
f 3 73 69
f 3 69 68
f 3 68 67
f 3 67 66
f 3 66 65
f 3 65 60
f 3 60 53
f 3 53 52
f 3 52 46
f 3 46 42
f 3 42 41
f 3 41 40
f 3 40 36
f 3 36 32
f 3 32 31
f 3 31 29
f 3 29 23
f 3 23 13
f 3 13 7
f 4 7 8
f 5 6 9
f 5 9 10
f 5 10 11
f 5 11 12
f 7 13 14
f 7 14 15
f 7 15 16
f 7 16 17
f 7 17 18
f 7 18 19
f 7 19 8
f 11 20 21
f 11 21 22
f 11 22 12
f 13 23 14
f 14 23 24
f 20 25 21
f 21 25 26
f 21 26 27
f 21 27 28
f 23 29 24
f 24 29 31
f 24 31 32
f 24 32 30
f 27 33 28
f 28 33 34
f 30 32 35
f 32 36 37
f 32 37 35
f 33 38 39
f 33 39 34
f 36 40 37
f 37 40 41
f 37 41 42
f 37 42 43
f 38 44 39
f 39 44 45
f 42 46 47
f 42 47 48
f 42 48 43
f 44 49 50
f 44 50 51
f 44 51 45
f 46 52 47
f 47 52 53
f 47 53 54
f 49 55 50
f 50 55 56
f 50 56 57
f 50 57 58
f 50 58 59
f 53 60 61
f 53 61 54
f 58 62 59
f 58 63 64
f 58 64 62
f 60 65 61
f 61 65 66
f 61 66 67
f 61 67 68
f 61 68 69
f 61 69 70
f 63 71 72
f 63 72 64
f 69 73 70
f 70 73 74
f 70 74 75
f 70 75 76
f 71 77 72
f 72 78 79
f 72 79 80
f 72 80 81
f 72 81 82
f 72 77 78
f 75 83 84
f 75 84 85
f 75 85 86
f 75 86 76
f 81 87 82
f 82 87 88
f 83 89 90
f 83 90 84
f 87 91 88
f 88 91 92
f 89 93 90
f 90 93 94
f 91 95 92
f 92 95 96
f 93 97 94
f 94 97 98
f 95 99 96
f 95 100 101
f 95 101 99
f 97 102 103
f 97 103 104
f 97 104 98
f 100 105 106
f 100 106 101
f 102 107 103
f 103 107 108
f 105 109 110
f 105 110 111
f 105 111 106
f 107 112 108
f 108 112 113
f 109 114 115
f 109 115 116
f 109 116 110
f 112 117 113
f 113 117 118
f 113 118 119
f 114 120 115
f 115 120 121
f 115 121 122
f 115 122 123
f 118 124 125
f 118 125 119
f 122 126 123
f 123 126 127
f 124 128 125
f 125 128 129
f 126 129 130
f 126 130 127
f 128 130 129

