# https://github.com/mikedh/trimesh
v -0.01645094 0.06413284 0.07861856
v -0.01574561 0.06410592 0.07881279
v -0.01574561 0.06410592 0.07866940
v -0.01350120 0.06292467 0.07753403
v -0.01645094 0.06357923 0.07803458
v -0.01705310 0.06386361 0.07833765
v -0.01705310 0.06413116 0.07862117
v -0.01705310 0.06412779 0.07900572
v -0.01705310 0.06412443 0.07929836
v -0.01655200 0.06412443 0.07923840
v -0.01700889 0.06408909 0.07988234
v -0.01411178 0.06374078 0.07929249
v -0.01294325 0.06354895 0.07929249
v -0.00987139 0.06297852 0.07895944
v -0.01304431 0.06323429 0.07806521
v -0.00987139 0.06297852 0.07859901
v -0.01060409 0.06306265 0.07847127
v -0.00783120 0.05701842 0.07460303
v -0.00784173 0.05702178 0.07460303
v -0.00842705 0.05720688 0.07460303
v -0.00943556 0.05752154 0.07460303
v -0.01059146 0.05784798 0.07460303
v -0.01060409 0.05785135 0.07460303
v -0.01179788 0.05811890 0.07460303
v -0.01410125 0.05853621 0.07460303
v -0.01528031 0.05872972 0.07460303
v -0.01646568 0.05883236 0.07460303
v -0.01705310 0.05887948 0.07460303
v -0.01705310 0.06301049 0.07748645
v -0.00826703 0.06209342 0.07828160
v -0.00295918 0.05942972 0.07752947
v -0.01705310 0.06409919 0.07972266
v -0.01705310 0.06408909 0.07988234
v -0.01705310 0.06405207 0.07991884
v -0.01705310 0.06314847 0.08073029
v -0.01655200 0.06357587 0.08028513
v -0.01294325 0.06315688 0.08013849
v -0.01177472 0.06304919 0.08002964
v -0.01096623 0.06296505 0.07993644
v -0.01018510 0.06287251 0.07973830
v -0.01058725 0.06306265 0.07932638
v -0.00646687 0.06176698 0.07990515
v -0.00636791 0.06180063 0.07929249
v -0.00636370 0.06179895 0.07862573
v -0.00709850 0.06191506 0.07846866
v -0.00709850 0.05677274 0.07460303
v -0.01705310 0.05608621 0.07460303
v -0.00476145 0.06091722 0.07830051
v -0.00379083 0.06073885 0.07845888
v -0.00125586 0.05964847 0.07839045
v 0.00024954 0.05811722 0.07757704
v -0.00510885 0.05601048 0.07460303
v -0.00592155 0.05634197 0.07460303
v -0.00592998 0.05634534 0.07460303
v -0.00708377 0.05676770 0.07460303
v -0.01705310 0.06281193 0.08100664
v -0.01294325 0.06242659 0.08072247
v -0.00943556 0.06146241 0.08092321
v -0.01058725 0.06242323 0.08034118
v -0.00943556 0.06216578 0.08033858
v -0.00826703 0.06200928 0.08020171
v -0.00709850 0.06186626 0.08002182
v -0.00476145 0.06083813 0.08017433
v -0.00391084 0.06069510 0.08001595
v -0.00064528 0.05942131 0.07989277
v -0.00368766 0.06078597 0.07929249
v -0.00050842 0.05949030 0.07857816
v -0.01705310 0.05608621 0.07461672
v 0.00445624 0.04694246 0.07460303
v 0.00108330 0.05794726 0.07775237
v -0.00359292 0.05532731 0.07460303
v -0.00451090 0.05574967 0.07460303
v -0.00452985 0.05575808 0.07460303
v 0.00189390 0.05719342 0.07747993
v -0.01705310 0.06227010 0.08114286
v -0.01294325 0.06184270 0.08109397
v -0.01060409 0.06159029 0.08099686
v -0.00668583 0.06051337 0.08102945
v -0.00826703 0.06129414 0.08078634
v -0.00708587 0.06106866 0.08068467
v -0.00602051 0.06118476 0.08027275
v -0.00242439 0.05909318 0.08086390
v -0.00592998 0.06034678 0.08093429
v -0.00242439 0.05977130 0.08027992
v -0.00125586 0.05953573 0.08004398
v -0.00053158 0.05948020 0.07929249
v -0.00018840 0.05882227 0.08024016
v 0.00085591 0.05843020 0.08009938
v 0.00311507 0.05723885 0.08006027
v 0.00163493 0.05821986 0.07981651
v 0.00183284 0.05832082 0.07903765
v 0.00183284 0.05832082 0.07856512
v 0.00108330 0.05850087 0.07833635
v -0.01705310 0.05609630 0.07518376
v 0.00445624 0.04787803 0.07460303
v 0.00445624 0.04708380 0.07694809
v -0.01705310 0.05612659 0.07578599
v 0.00225393 0.05765111 0.07808738
v 0.00267292 0.05692587 0.07760963
v -0.00271705 0.05488981 0.07460303
v 0.00116331 0.05269558 0.07460303
v 0.00008531 0.05331650 0.07460303
v -0.00125586 0.05408548 0.07460303
v -0.00212120 0.05457010 0.07460303
v -0.01705310 0.06116289 0.08123737
v -0.01645094 0.06116289 0.08123606
v -0.01411178 0.06116289 0.08122954
v -0.01645094 0.06213549 0.08114873
v -0.01294325 0.06116289 0.08120217
v -0.00943556 0.06087852 0.08112526
v -0.00826703 0.06071025 0.08109332
v -0.00746485 0.06061433 0.08106334
v -0.00592998 0.05976121 0.08113895
v -0.00242439 0.05850760 0.08113569
v -0.00156536 0.05834606 0.08108811
v -0.00078424 0.05814246 0.08102293
v -0.00120744 0.05877178 0.08069835
v 0.00225183 0.05747443 0.08024603
v 0.00338456 0.05645640 0.08050022
v 0.00445624 0.05536770 0.08082414
v 0.00445624 0.05612827 0.08028318
v 0.00445624 0.05623260 0.08020888
v 0.00445624 0.05669198 0.07929249
v 0.00333193 0.05738861 0.07929249
v 0.00223499 0.05801457 0.07937331
v 0.00321613 0.05732804 0.07838849
v 0.00445624 0.05038861 0.07461672
v 0.00445414 0.05038861 0.07460303
v 0.00445624 0.04738669 0.07807173
v -0.01705310 0.05644462 0.07812322
v -0.01705310 0.05633524 0.07752164
v -0.01705310 0.05623429 0.07695460
v -0.01705310 0.05617034 0.07635303
v 0.00217182 0.05205784 0.07460303
v 0.00445624 0.05624438 0.07811019
v 0.00445624 0.05621746 0.07808412
v 0.00445624 0.05574294 0.07763831
v 0.00401199 0.05590616 0.07753728
v -0.00709850 0.05882563 0.08125952
v -0.00592998 0.05882563 0.08126083
v -0.01705310 0.06021049 0.08112982
v 0.00445624 0.05206962 0.08111874
v 0.00445624 0.05298164 0.08121520
v -0.00826703 0.05999342 0.08120021
v -0.00242439 0.05765616 0.08122694
v 0.00225183 0.05532058 0.08120282
v 0.00332772 0.05529871 0.08112461
v 0.00427728 0.05489486 0.08109789
v 0.00287715 0.05592298 0.08105487
v 0.00365617 0.05567226 0.08093951
v 0.00445624 0.05509510 0.08094928
v 0.00445624 0.05626289 0.07815842
v 0.00442466 0.05041217 0.07460303
v 0.00445624 0.04745736 0.07822555
v -0.01705310 0.05683332 0.07905525
v 0.00310454 0.05141337 0.07460303
v 0.00368354 0.05100279 0.07460303
v 0.00342036 0.05415111 0.08122433
v -0.01705310 0.05962659 0.08099295
v 0.00342036 0.05228837 0.08107638
v 0.00445624 0.05148573 0.08096492
v 0.00445624 0.05419991 0.08116567
v 0.00445624 0.05455496 0.08112656
v 0.00445624 0.04817250 0.07910804
v 0.00414253 0.04781745 0.07852471
v -0.01705310 0.05730616 0.07963988
v -0.01705310 0.05920255 0.08082284
v 0.00445624 0.05063428 0.08063057
v 0.00445624 0.04834582 0.07928989
v -0.01705310 0.05789174 0.08013001
v 0.00445624 0.04856289 0.07948933
v -0.01705310 0.05882563 0.08066185
v 0.00445624 0.04951024 0.08011372
v -0.01705310 0.05833597 0.08039202
v 0.00422885 0.04904077 0.07978523
v 0.00445624 0.04928308 0.07999510
f 1 2 3
f 1 3 4
f 1 4 5
f 1 5 6
f 1 6 7
f 1 7 8
f 1 8 9
f 1 9 10
f 1 10 2
f 2 10 11
f 2 11 12
f 2 12 13
f 2 13 14
f 2 14 16
f 2 16 3
f 3 15 4
f 3 16 17
f 3 17 15
f 4 18 19
f 4 19 20
f 4 20 21
f 4 21 22
f 4 22 23
f 4 23 24
f 4 24 25
f 4 25 26
f 4 26 27
f 4 27 28
f 4 28 29
f 4 29 5
f 4 15 17
f 4 17 16
f 4 16 30
f 4 30 31
f 4 31 18
f 5 29 6
f 6 29 28
f 6 28 47
f 6 47 68
f 6 68 94
f 6 94 97
f 6 97 133
f 6 133 132
f 6 132 131
f 6 131 130
f 6 130 155
f 6 155 166
f 6 166 170
f 6 170 174
f 6 174 172
f 6 172 167
f 6 167 159
f 6 159 141
f 6 141 105
f 6 105 75
f 6 75 56
f 6 56 35
f 6 35 34
f 6 34 33
f 6 33 32
f 6 32 9
f 6 9 8
f 6 8 7
f 9 32 10
f 10 32 11
f 11 32 33
f 11 33 34
f 11 34 35
f 11 35 36
f 11 36 37
f 11 37 38
f 11 38 39
f 11 39 13
f 11 13 12
f 13 39 40
f 13 40 41
f 13 41 14
f 14 41 40
f 14 40 42
f 14 42 43
f 14 43 16
f 16 43 44
f 16 44 45
f 16 45 30
f 18 46 55
f 18 55 54
f 18 54 53
f 18 53 52
f 18 52 73
f 18 73 72
f 18 72 71
f 18 71 100
f 18 100 104
f 18 104 103
f 18 103 102
f 18 102 101
f 18 101 134
f 18 134 156
f 18 156 157
f 18 157 153
f 18 153 128
f 18 128 95
f 18 95 69
f 18 69 47
f 18 47 28
f 18 28 27
f 18 27 26
f 18 26 25
f 18 25 24
f 18 24 23
f 18 23 22
f 18 22 21
f 18 21 20
f 18 20 19
f 18 31 46
f 30 45 31
f 31 48 49
f 31 49 50
f 31 50 51
f 31 51 52
f 31 52 53
f 31 53 54
f 31 54 55
f 31 55 46
f 31 45 48
f 35 56 37
f 35 37 36
f 37 56 57
f 37 57 58
f 37 58 59
f 37 59 38
f 38 59 60
f 38 60 39
f 39 60 61
f 39 61 62
f 39 62 42
f 39 42 40
f 42 62 63
f 42 63 64
f 42 64 65
f 42 65 66
f 42 66 43
f 43 66 44
f 44 66 67
f 44 67 49
f 44 49 45
f 45 49 48
f 47 69 68
f 49 67 50
f 50 67 70
f 50 70 51
f 51 71 72
f 51 72 73
f 51 73 52
f 51 70 74
f 51 74 71
f 56 75 76
f 56 76 77
f 56 77 57
f 57 77 58
f 58 77 78
f 58 78 79
f 58 79 61
f 58 61 60
f 58 60 59
f 61 79 80
f 61 80 62
f 62 80 81
f 62 81 63
f 63 82 64
f 63 81 78
f 63 78 83
f 63 83 82
f 64 82 84
f 64 84 85
f 64 85 65
f 65 86 66
f 65 85 87
f 65 87 88
f 65 88 89
f 65 89 90
f 65 90 91
f 65 91 86
f 66 86 67
f 67 86 91
f 67 91 92
f 67 92 93
f 67 93 70
f 68 69 94
f 69 95 127
f 69 127 137
f 69 137 136
f 69 136 135
f 69 135 152
f 69 152 123
f 69 123 122
f 69 122 121
f 69 121 120
f 69 120 151
f 69 151 163
f 69 163 162
f 69 162 143
f 69 143 142
f 69 142 161
f 69 161 168
f 69 168 173
f 69 173 176
f 69 176 171
f 69 171 169
f 69 169 164
f 69 164 154
f 69 154 129
f 69 129 96
f 69 96 97
f 69 97 94
f 70 93 98
f 70 98 99
f 70 99 74
f 71 74 100
f 74 99 101
f 74 101 102
f 74 102 103
f 74 103 104
f 74 104 100
f 75 105 106
f 75 106 107
f 75 107 108
f 75 108 76
f 76 108 109
f 76 109 110
f 76 110 111
f 76 111 112
f 76 112 77
f 77 112 78
f 78 113 114
f 78 114 115
f 78 115 82
f 78 82 83
f 78 81 80
f 78 80 79
f 78 112 113
f 82 115 116
f 82 116 117
f 82 117 84
f 84 117 85
f 85 117 87
f 87 117 116
f 87 116 88
f 88 118 89
f 88 116 118
f 89 118 116
f 89 116 119
f 89 119 120
f 89 120 121
f 89 121 122
f 89 122 123
f 89 123 124
f 89 124 90
f 90 124 125
f 90 125 91
f 91 125 124
f 91 124 123
f 91 123 92
f 92 123 126
f 92 126 98
f 92 98 93
f 95 128 127
f 96 129 130
f 96 130 131
f 96 131 132
f 96 132 133
f 96 133 97
f 98 126 99
f 99 134 101
f 99 126 135
f 99 135 136
f 99 136 137
f 99 137 138
f 99 138 134
f 105 139 140
f 105 140 106
f 105 141 142
f 105 142 143
f 105 143 139
f 106 140 107
f 107 109 108
f 107 140 109
f 109 140 144
f 109 144 110
f 110 144 113
f 110 113 111
f 111 113 112
f 113 144 140
f 113 140 114
f 114 145 146
f 114 146 147
f 114 147 115
f 114 140 145
f 115 147 148
f 115 148 149
f 115 149 116
f 116 149 150
f 116 150 119
f 119 150 120
f 120 150 151
f 123 152 126
f 126 152 135
f 127 128 137
f 128 153 137
f 129 154 155
f 129 155 130
f 134 138 156
f 137 153 157
f 137 157 138
f 138 157 156
f 139 143 140
f 140 143 158
f 140 158 145
f 141 159 142
f 142 160 161
f 142 159 160
f 143 162 158
f 145 158 146
f 146 158 162
f 146 162 163
f 146 163 147
f 147 163 148
f 148 150 149
f 148 163 151
f 148 151 150
f 154 164 165
f 154 165 155
f 155 165 166
f 159 167 168
f 159 168 161
f 159 161 160
f 164 169 166
f 164 166 165
f 166 169 171
f 166 171 170
f 167 172 168
f 168 172 173
f 170 171 175
f 170 175 176
f 170 176 174
f 171 176 175
f 172 174 176
f 172 176 173

