# https://github.com/mikedh/trimesh
v -0.02364507 0.02684902 0.00442939
v -0.00917592 0.03469620 0.00442939
v -0.00917592 0.03915560 0.00820895
v -0.02364507 0.03232245 0.00820895
v -0.02364507 0.03742057 0.00442939
v -0.00917592 0.04343887 0.00442939
v -0.00917592 0.04366275 0.00820895
v -0.02364507 0.03767736 0.00820895
v -0.02364507 0.03750123 0.00468028
v -0.02294534 0.03794075 0.00468028
v -0.02294250 0.03785186 0.00442939
v -0.00996630 0.04327755 0.00442939
v -0.00917592 0.04350801 0.00466806
v -0.00917592 0.04366275 0.00703260
v -0.01000455 0.04349155 0.00820895
v -0.02298783 0.03809384 0.00820895
v -0.02364507 0.03767736 0.00703260
v -0.02364507 0.03765267 0.00583035
v -0.02235609 0.03842636 0.00528122
v -0.02224560 0.03836216 0.00468028
v -0.02159120 0.03866011 0.00442939
v -0.01006687 0.04330389 0.00463772
v -0.01028076 0.04320512 0.00442939
v -0.00917592 0.04355246 0.00502811
v -0.00917592 0.04365122 0.00620483
v -0.01000455 0.04349155 0.00703260
v -0.01099324 0.04324298 0.00820895
v -0.02298642 0.03809384 0.00703260
v -0.02239858 0.03845105 0.00820895
v -0.02239858 0.03845105 0.00703260
v -0.02284477 0.03815145 0.00574672
v -0.02238442 0.03844282 0.00606532
v -0.02188582 0.03871773 0.00574672
v -0.02075832 0.03936631 0.00585662
v -0.02010108 0.03965603 0.00501146
v -0.02165777 0.03869797 0.00468028
v -0.02022857 0.03945520 0.00442939
v -0.01057680 0.04312775 0.00442939
v -0.01078502 0.04318537 0.00500147
v -0.01000455 0.04346686 0.00585662
v -0.00917592 0.04364299 0.00585662
v -0.01099182 0.04324298 0.00703260
v -0.01158107 0.04308001 0.00703260
v -0.01158107 0.04308001 0.00820895
v -0.02176826 0.03881650 0.00820895
v -0.02176826 0.03881650 0.00703260
v -0.02077957 0.03938112 0.00703260
v -0.02017049 0.03969225 0.00585662
v -0.01941552 0.04005769 0.00585662
v -0.01770585 0.04080504 0.00514319
v -0.01949625 0.03987168 0.00464364
v -0.01972714 0.03971694 0.00442939
v -0.01998352 0.03959348 0.00442939
v -0.02053310 0.03933174 0.00464364
v -0.01084168 0.04305532 0.00442939
v -0.01235871 0.04269646 0.00468028
v -0.01093658 0.04322652 0.00585662
v -0.01235871 0.04283474 0.00585662
v -0.01152441 0.04306520 0.00585662
v -0.01235871 0.04285943 0.00703260
v -0.01235871 0.04285943 0.00820895
v -0.02077957 0.03938112 0.00820895
v -0.02019032 0.03970212 0.00703260
v -0.01941552 0.04007744 0.00703260
v -0.01834184 0.04055647 0.00585662
v -0.01775259 0.04082644 0.00585662
v -0.01706277 0.04113921 0.00585662
v -0.01588711 0.04162976 0.00585662
v -0.01588711 0.04148654 0.00468028
v -0.01710952 0.04098941 0.00472246
v -0.01745088 0.04077541 0.00442939
v -0.01765202 0.04068322 0.00442939
v -0.01815345 0.04051203 0.00472246
v -0.01237004 0.04260922 0.00442939
v -0.01353437 0.04226188 0.00442939
v -0.01353437 0.04233266 0.00468028
v -0.01353437 0.04246929 0.00585662
v -0.01353437 0.04248904 0.00703260
v -0.01353437 0.04248904 0.00820895
v -0.02019032 0.03970212 0.00820895
v -0.01941552 0.04007744 0.00820895
v -0.01836167 0.04056635 0.00703260
v -0.01777384 0.04083632 0.00703260
v -0.01706277 0.04115896 0.00703260
v -0.01588711 0.04165116 0.00703260
v -0.01518596 0.04191619 0.00703260
v -0.01515338 0.04190466 0.00585662
v -0.01495366 0.04183059 0.00468028
v -0.01428793 0.04201495 0.00442939
v -0.01589136 0.04139930 0.00442939
v -0.01699053 0.04096142 0.00442939
v -0.01436441 0.04204294 0.00468028
v -0.01456555 0.04211208 0.00585662
v -0.01459671 0.04212196 0.00703260
v -0.01459671 0.04212196 0.00820895
v -0.01836167 0.04056635 0.00820895
v -0.01777384 0.04083632 0.00820895
v -0.01706277 0.04115896 0.00820895
v -0.01588711 0.04165116 0.00820895
v -0.01518596 0.04191619 0.00820895
f 1 2 3
f 1 3 4
f 1 4 8
f 1 8 17
f 1 17 18
f 1 18 9
f 1 9 5
f 1 5 11
f 1 11 21
f 1 21 37
f 1 37 53
f 1 53 52
f 1 52 72
f 1 72 71
f 1 71 91
f 1 91 90
f 1 90 89
f 1 89 75
f 1 75 74
f 1 74 55
f 1 55 38
f 1 38 23
f 1 23 12
f 1 12 6
f 1 6 2
f 2 6 13
f 2 13 24
f 2 24 41
f 2 41 25
f 2 25 14
f 2 14 7
f 2 7 3
f 3 7 15
f 3 15 27
f 3 27 44
f 3 44 61
f 3 61 79
f 3 79 95
f 3 95 100
f 3 100 99
f 3 99 98
f 3 98 97
f 3 97 96
f 3 96 81
f 3 81 80
f 3 80 62
f 3 62 45
f 3 45 29
f 3 29 16
f 3 16 8
f 3 8 4
f 5 9 10
f 5 10 11
f 6 12 13
f 7 14 26
f 7 26 15
f 8 16 17
f 9 18 19
f 9 19 10
f 10 19 20
f 10 20 11
f 11 20 21
f 12 22 13
f 12 23 22
f 13 22 24
f 14 25 26
f 15 26 27
f 16 28 17
f 16 29 30
f 16 30 28
f 17 28 18
f 18 28 31
f 18 31 19
f 19 31 32
f 19 32 33
f 19 33 34
f 19 34 35
f 19 35 36
f 19 36 20
f 20 36 37
f 20 37 21
f 22 23 38
f 22 38 39
f 22 39 40
f 22 40 24
f 24 40 41
f 25 41 40
f 25 40 26
f 26 40 42
f 26 42 27
f 27 42 43
f 27 43 44
f 28 30 32
f 28 32 31
f 29 45 46
f 29 46 30
f 30 46 32
f 32 46 47
f 32 47 34
f 32 34 33
f 34 47 48
f 34 48 35
f 35 48 49
f 35 49 50
f 35 50 51
f 35 51 52
f 35 52 53
f 35 53 54
f 35 54 36
f 36 54 37
f 37 54 53
f 38 55 56
f 38 56 39
f 39 57 40
f 39 56 58
f 39 58 59
f 39 59 57
f 40 57 42
f 42 57 59
f 42 59 58
f 42 58 43
f 43 58 60
f 43 60 61
f 43 61 44
f 45 62 47
f 45 47 46
f 47 62 80
f 47 80 63
f 47 63 48
f 48 63 64
f 48 64 49
f 49 64 65
f 49 65 50
f 50 66 67
f 50 67 68
f 50 68 69
f 50 69 70
f 50 70 71
f 50 71 72
f 50 72 73
f 50 73 51
f 50 65 66
f 51 73 72
f 51 72 52
f 55 74 56
f 56 74 75
f 56 75 76
f 56 76 58
f 58 76 77
f 58 77 60
f 60 77 78
f 60 78 79
f 60 79 61
f 63 80 81
f 63 81 64
f 64 81 96
f 64 96 82
f 64 82 65
f 65 82 83
f 65 83 66
f 66 83 84
f 66 84 67
f 67 84 85
f 67 85 68
f 68 85 86
f 68 86 87
f 68 87 69
f 69 87 88
f 69 88 89
f 69 89 90
f 69 90 91
f 69 91 71
f 69 71 70
f 75 89 76
f 76 89 92
f 76 92 93
f 76 93 77
f 77 93 94
f 77 94 78
f 78 94 95
f 78 95 79
f 82 96 97
f 82 97 83
f 83 97 98
f 83 98 84
f 84 98 99
f 84 99 85
f 85 99 100
f 85 100 86
f 86 100 95
f 86 95 94
f 86 94 93
f 86 93 87
f 87 93 92
f 87 92 88
f 88 92 89

