# https://github.com/mikedh/trimesh
v 0.00980478 -0.00687149 0.04600500
v 0.01702534 0.00741139 0.05235662
v 0.01709461 0.00741139 0.04600500
v 0.01302057 -0.00687149 0.04600500
v 0.00988931 -0.00687149 0.07110848
v 0.01725428 0.00740999 0.07577022
v 0.01728598 0.00741139 0.07577022
v 0.01962709 0.00741139 0.04600500
v 0.01306518 -0.00681277 0.04600500
v 0.01348667 -0.00687149 0.07577022
v 0.01009477 -0.00687149 0.07460187
v 0.01018283 -0.00687149 0.07547595
v 0.01021335 -0.00687149 0.07577022
v 0.01986307 0.00741139 0.07577022
v 0.01962239 0.00738762 0.04600500
v 0.02179795 0.00741139 0.06409256
v 0.01347611 -0.00622836 0.04600500
v 0.01365222 -0.00663940 0.07577022
v 0.01932065 0.00517864 0.07577022
v 0.01921381 0.00559527 0.04600500
v 0.01930774 0.00512691 0.07577022
v 0.01916215 0.00463898 0.07577022
v 0.01896725 0.00403081 0.07577022
v 0.01894495 0.00396370 0.07577022
v 0.01795403 0.00118430 0.07577022
v 0.01757715 0.00037341 0.07577022
v 0.01707230 -0.00068354 0.07577022
v 0.01649348 -0.00188310 0.07577022
v 0.01593932 -0.00294006 0.07577022
v 0.01593462 -0.00294845 0.07577022
v 0.01465136 -0.00448215 0.04600500
v 0.01573151 -0.00260172 0.04600500
v 0.01607316 -0.00196280 0.04600500
v 0.01662380 -0.00088067 0.04600500
v 0.01677643 -0.00057449 0.04600500
v 0.01722962 0.00037341 0.04600500
v 0.01745974 0.00092845 0.04600500
v 0.01867139 0.00388122 0.04600500
v 0.01887568 0.00447540 0.04600500
v 0.01908701 0.00514369 0.04600500
v 0.01919150 0.00551418 0.04600500
v 0.01373088 -0.00586346 0.04600500
v 0.01368627 -0.00658907 0.07577022
v 0.01446937 -0.00478973 0.04600500
v 0.01512686 -0.00430180 0.07577022
v 0.01465370 -0.00507354 0.07577022
v 0.01465723 -0.00506795 0.07577022
f 1 2 3
f 1 3 8
f 1 8 15
f 1 15 20
f 1 20 41
f 1 41 40
f 1 40 39
f 1 39 38
f 1 38 37
f 1 37 36
f 1 36 35
f 1 35 34
f 1 34 33
f 1 33 32
f 1 32 31
f 1 31 44
f 1 44 42
f 1 42 17
f 1 17 9
f 1 9 4
f 1 4 10
f 1 10 13
f 1 13 12
f 1 12 11
f 1 11 5
f 1 5 2
f 2 5 6
f 2 6 7
f 2 7 14
f 2 14 16
f 2 16 8
f 2 8 3
f 4 9 10
f 5 11 6
f 6 11 12
f 6 12 13
f 6 13 10
f 6 10 18
f 6 18 43
f 6 43 46
f 6 46 47
f 6 47 45
f 6 45 30
f 6 30 29
f 6 29 28
f 6 28 27
f 6 27 26
f 6 26 25
f 6 25 24
f 6 24 23
f 6 23 22
f 6 22 21
f 6 21 19
f 6 19 14
f 6 14 7
f 8 16 15
f 9 17 18
f 9 18 10
f 14 19 16
f 15 16 20
f 16 19 21
f 16 21 22
f 16 22 23
f 16 23 24
f 16 24 25
f 16 25 26
f 16 26 27
f 16 27 28
f 16 28 29
f 16 29 30
f 16 30 31
f 16 31 32
f 16 32 33
f 16 33 34
f 16 34 35
f 16 35 36
f 16 36 37
f 16 37 38
f 16 38 39
f 16 39 40
f 16 40 41
f 16 41 20
f 17 42 18
f 18 42 44
f 18 44 43
f 30 45 44
f 30 44 31
f 43 44 46
f 44 45 47
f 44 47 46

