# https://github.com/mikedh/trimesh
v -0.00919184 0.04368201 0.07763633
v -0.01002239 0.04351853 0.07763633
v -0.00919184 0.04061582 0.07763633
v -0.00919184 0.04365976 0.01578063
v -0.00924561 0.04364976 0.00821006
v -0.01105527 0.04326273 0.07763633
v -0.01000541 0.04349183 0.00821006
v -0.00999268 0.03905881 0.07763633
v -0.00919184 0.03925344 0.07762954
v -0.00919184 0.03924232 0.01578063
v -0.00924561 0.03913889 0.00821006
v -0.01163538 0.04310481 0.07763633
v -0.01099443 0.04324382 0.00821006
v -0.02364649 0.03245711 0.07763633
v -0.02364649 0.03244265 0.07052109
v -0.02364649 0.03232142 0.00821006
v -0.00919184 0.03923787 0.03410220
v -0.00919184 0.03924121 0.01726212
v -0.00919184 0.03923787 0.03255955
v -0.01237396 0.04287904 0.07763633
v -0.01158161 0.04307922 0.00821006
v -0.01235840 0.04285902 0.00821006
v -0.02364649 0.03769643 0.07763633
v -0.02364649 0.03767864 0.00821006
v -0.01355257 0.04250313 0.07763633
v -0.01353559 0.04248868 0.00821006
v -0.02299704 0.03811015 0.07763633
v -0.02298573 0.03809347 0.00821006
v -0.01464629 0.04213724 0.07763633
v -0.01459818 0.04212167 0.00821006
v -0.01522640 0.04194039 0.07763633
v -0.02241694 0.03846715 0.07763633
v -0.02239854 0.03845047 0.00821006
v -0.01518678 0.04191592 0.00821006
v -0.01590555 0.04167014 0.07763633
v -0.01588858 0.04165123 0.00821006
v -0.02178164 0.03883194 0.07763633
v -0.02176749 0.03881637 0.00821006
v -0.01707568 0.04118079 0.07763633
v -0.01706294 0.04115855 0.00821006
v -0.02077848 0.03939246 0.07763633
v -0.02077848 0.03938134 0.00821006
v -0.01779162 0.04085716 0.07763633
v -0.01777323 0.04083603 0.00821006
v -0.02019695 0.03971609 0.07763633
v -0.02019129 0.03970164 0.00821006
v -0.01943008 0.04008866 0.07763633
v -0.01836041 0.04056577 0.00821006
v -0.01941593 0.04007643 0.00821006
f 1 2 6
f 1 6 12
f 1 12 20
f 1 20 25
f 1 25 29
f 1 29 31
f 1 31 35
f 1 35 39
f 1 39 43
f 1 43 47
f 1 47 45
f 1 45 41
f 1 41 37
f 1 37 32
f 1 32 27
f 1 27 23
f 1 23 14
f 1 14 8
f 1 8 3
f 1 3 9
f 1 9 17
f 1 17 19
f 1 19 18
f 1 18 10
f 1 10 4
f 1 4 5
f 1 5 2
f 2 5 7
f 2 7 6
f 3 8 9
f 4 10 11
f 4 11 5
f 5 11 16
f 5 16 24
f 5 24 28
f 5 28 33
f 5 33 38
f 5 38 42
f 5 42 46
f 5 46 49
f 5 49 48
f 5 48 44
f 5 44 40
f 5 40 36
f 5 36 34
f 5 34 30
f 5 30 26
f 5 26 22
f 5 22 21
f 5 21 13
f 5 13 7
f 6 7 13
f 6 13 12
f 8 14 9
f 9 14 15
f 9 15 16
f 9 16 11
f 9 11 17
f 10 18 11
f 11 18 19
f 11 19 17
f 12 13 21
f 12 21 22
f 12 22 20
f 14 23 24
f 14 24 16
f 14 16 15
f 20 22 26
f 20 26 25
f 23 27 24
f 24 27 28
f 25 26 29
f 26 30 31
f 26 31 29
f 27 32 28
f 28 32 33
f 30 34 31
f 31 34 36
f 31 36 35
f 32 37 38
f 32 38 33
f 35 36 39
f 36 40 39
f 37 41 42
f 37 42 38
f 39 40 43
f 40 44 43
f 41 45 42
f 42 45 46
f 43 44 48
f 43 48 49
f 43 49 47
f 45 47 46
f 46 47 49

