# https://github.com/mikedh/trimesh
v 0.00794366 -0.03750315 0.05118100
v -0.00770685 -0.03755663 0.05118100
v 0.00794366 -0.04188966 0.05118100
v 0.00794366 -0.03738067 0.00809448
v -0.00770685 -0.03743261 0.00809448
v -0.00770685 -0.04194005 0.05118100
v 0.00783489 -0.04191214 0.05118100
v 0.00729871 -0.04529950 0.01972649
v 0.00739829 -0.04529950 0.01943126
v 0.00759284 -0.04529950 0.01879863
v 0.00761429 -0.04529950 0.01840640
v 0.00764187 -0.04529950 0.01762193
v 0.00794366 -0.04244544 0.01762193
v 0.00794366 -0.04188811 0.00809448
v -0.00770685 -0.04193772 0.00809448
v -0.00765016 -0.04195167 0.05118100
v -0.00770685 -0.04321050 0.01762193
v -0.00765016 -0.04529950 0.01762193
v -0.00760114 -0.04529950 0.01879863
v -0.00730700 -0.04529950 0.01972649
v 0.00764187 -0.04195167 0.05118100
v 0.00669205 -0.04529950 0.02013981
v 0.00646532 -0.04214468 0.05118100
v 0.00590616 -0.04221444 0.05118100
v 0.00528878 -0.04229119 0.05118100
v 0.00472961 -0.04234932 0.05118100
v 0.00411376 -0.04241288 0.05118100
v 0.00293722 -0.04251753 0.05118100
v 0.00764187 -0.04529950 0.01605300
v 0.00794366 -0.04244544 0.01644523
v 0.00764187 -0.04194857 0.00809448
v 0.00794366 -0.04244311 0.01526854
v 0.00763421 -0.04529950 0.01526854
v 0.00732322 -0.04529950 0.01411715
v 0.00719147 -0.04529950 0.01388940
v 0.00694482 -0.04529950 0.01356465
v 0.00638413 -0.04529950 0.01336642
v -0.00765629 -0.04194780 0.00809448
v -0.00639242 -0.04529950 0.01336642
v -0.00662835 -0.04529950 0.01344656
v -0.00695312 -0.04529950 0.01356465
v -0.00733152 -0.04529950 0.01411715
v -0.00744794 -0.04529950 0.01454312
v -0.00764404 -0.04529950 0.01526854
v -0.00770685 -0.04320817 0.01526854
v -0.00703278 -0.04205399 0.05118100
v -0.00770685 -0.04321050 0.01644523
v -0.00765016 -0.04529950 0.01644523
v -0.00642613 -0.04529950 0.02031695
v -0.00294398 -0.04251520 0.05118100
v -0.00412053 -0.04241133 0.05118100
v -0.00467969 -0.04235552 0.05118100
v -0.00529707 -0.04229351 0.05118100
v -0.00585624 -0.04222375 0.05118100
v -0.00647362 -0.04214623 0.05118100
v 0.00641783 -0.04529950 0.02031695
v 0.00237652 -0.04254776 0.05118100
v 0.00646532 -0.04213228 0.00809448
v 0.00596437 -0.04529950 0.01329051
v 0.00411376 -0.04242528 0.00809448
v 0.00517388 -0.04230049 0.00809448
v 0.00528878 -0.04228653 0.00809448
v -0.00658851 -0.04211445 0.00809448
v -0.00529707 -0.04529950 0.01320194
v -0.00647362 -0.04213151 0.00809448
v -0.00529707 -0.04228653 0.00809448
v -0.00412053 -0.04242606 0.00809448
v -0.00603241 -0.04529950 0.02039286
v -0.00059089 -0.04261674 0.05118100
v -0.00115159 -0.04259969 0.05118100
v -0.00176743 -0.04258031 0.05118100
v 0.00528878 -0.04529950 0.02052361
v 0.00176067 -0.04258031 0.05118100
v 0.00058412 -0.04261674 0.05118100
v 0.00528878 -0.04529950 0.01320194
v 0.00293722 -0.04252527 0.00809448
v 0.00399733 -0.04243536 0.00809448
v -0.00294398 -0.04252527 0.00809448
v -0.00176743 -0.04258031 0.00809448
v -0.00059089 -0.04261674 0.00809448
v -0.00529707 -0.04529950 0.02052361
v 0.00058412 -0.04261674 0.00809448
v 0.00164577 -0.04258419 0.00809448
v 0.00176067 -0.04258031 0.00809448
f 1 2 6
f 1 6 16
f 1 16 46
f 1 46 55
f 1 55 54
f 1 54 53
f 1 53 52
f 1 52 51
f 1 51 50
f 1 50 71
f 1 71 70
f 1 70 69
f 1 69 74
f 1 74 73
f 1 73 57
f 1 57 28
f 1 28 27
f 1 27 26
f 1 26 25
f 1 25 24
f 1 24 23
f 1 23 21
f 1 21 7
f 1 7 3
f 1 3 13
f 1 13 30
f 1 30 32
f 1 32 14
f 1 14 4
f 1 4 5
f 1 5 2
f 2 5 15
f 2 15 45
f 2 45 47
f 2 47 17
f 2 17 6
f 3 7 8
f 3 8 9
f 3 9 10
f 3 10 11
f 3 11 12
f 3 12 13
f 4 14 31
f 4 31 58
f 4 58 62
f 4 62 61
f 4 61 60
f 4 60 77
f 4 77 76
f 4 76 84
f 4 84 83
f 4 83 82
f 4 82 80
f 4 80 79
f 4 79 78
f 4 78 67
f 4 67 66
f 4 66 65
f 4 65 63
f 4 63 38
f 4 38 15
f 4 15 5
f 6 17 18
f 6 18 19
f 6 19 20
f 6 20 16
f 7 21 8
f 8 22 56
f 8 56 72
f 8 72 81
f 8 81 68
f 8 68 49
f 8 49 20
f 8 20 19
f 8 19 18
f 8 18 48
f 8 48 44
f 8 44 43
f 8 43 42
f 8 42 41
f 8 41 40
f 8 40 39
f 8 39 64
f 8 64 75
f 8 75 59
f 8 59 37
f 8 37 36
f 8 36 35
f 8 35 34
f 8 34 33
f 8 33 29
f 8 29 12
f 8 12 11
f 8 11 10
f 8 10 9
f 8 21 23
f 8 23 24
f 8 24 25
f 8 25 26
f 8 26 27
f 8 27 28
f 8 28 22
f 12 29 30
f 12 30 13
f 14 32 29
f 14 29 33
f 14 33 34
f 14 34 35
f 14 35 36
f 14 36 37
f 14 37 31
f 15 38 39
f 15 39 40
f 15 40 41
f 15 41 42
f 15 42 43
f 15 43 44
f 15 44 45
f 16 20 46
f 17 47 48
f 17 48 18
f 20 49 50
f 20 50 51
f 20 51 52
f 20 52 53
f 20 53 54
f 20 54 55
f 20 55 46
f 22 28 56
f 28 57 56
f 29 32 30
f 31 37 58
f 37 59 60
f 37 60 61
f 37 61 62
f 37 62 58
f 38 63 39
f 39 63 65
f 39 65 66
f 39 66 67
f 39 67 64
f 44 48 45
f 45 48 47
f 49 68 69
f 49 69 70
f 49 70 71
f 49 71 50
f 56 57 73
f 56 73 74
f 56 74 72
f 59 75 76
f 59 76 77
f 59 77 60
f 64 67 78
f 64 78 79
f 64 79 80
f 64 80 82
f 64 82 75
f 68 81 69
f 69 81 72
f 69 72 74
f 75 82 83
f 75 83 84
f 75 84 76

