# https://github.com/mikedh/trimesh
v 0.01321898 -0.00687149 0.07478858
v 0.01011659 -0.00687149 0.07478858
v 0.01321306 -0.00688034 0.07478858
v 0.01304301 -0.00687149 0.04889857
v 0.01009293 -0.00687149 0.07459980
v -0.00188630 -0.01713629 0.07478858
v 0.01224745 -0.00826577 0.07478858
v 0.01249736 -0.00765972 0.05006784
v 0.01301935 -0.00687149 0.04600500
v 0.00988739 -0.00687149 0.07110892
v -0.00188630 -0.01975532 0.07478858
v -0.00188630 -0.01701610 0.07227818
v 0.01210697 -0.00844417 0.07478858
v 0.01206557 -0.00824426 0.05006784
v 0.01249144 -0.00764707 0.04889857
v 0.01275761 -0.00720930 0.04600500
v 0.00980310 -0.00687149 0.04600500
v 0.01205965 -0.00823161 0.04889857
v -0.00188630 -0.01688957 0.06526261
v -0.00188630 -0.01699079 0.07160762
v -0.00188630 -0.01675925 0.04600500
v -0.00126227 -0.01946937 0.07478858
v -0.00188630 -0.01978062 0.07227818
v 0.01154949 -0.00910841 0.07478858
v 0.01042121 -0.01014716 0.04600500
v 0.01096834 -0.00949684 0.04600500
v -0.00188630 -0.01960222 0.04600500
v -0.00039278 -0.01905564 0.07478858
v -0.00188630 -0.01979707 0.06993966
v -0.00125340 -0.01949721 0.06993966
v 0.01057796 -0.01022687 0.07478858
v 0.00988887 -0.01077598 0.04600500
v -0.00178427 -0.01955414 0.04600500
v -0.00188630 -0.01960855 0.04624731
v 0.00107265 -0.01822439 0.07478858
v -0.00042827 -0.01906703 0.06993966
v -0.00188630 -0.01978568 0.06643187
v -0.00188630 -0.01972369 0.05747504
v -0.00188630 -0.01966295 0.04934656
v -0.00058058 -0.01897087 0.04600500
v 0.00999386 -0.01088353 0.07478858
v 0.00934321 -0.01136052 0.04600500
v 0.00953841 -0.01138203 0.07478858
v -0.00125340 -0.01930363 0.04600500
v -0.00188630 -0.01961614 0.04656005
v 0.00177653 -0.01781572 0.07478858
v 0.00015583 -0.01872795 0.06643187
v -0.00125340 -0.01931628 0.04656005
v 0.00150740 -0.01764491 0.04600500
v 0.00155767 -0.01767528 0.04772931
v 0.00167006 -0.01774487 0.05415884
v 0.00903564 -0.01168442 0.04600500
v 0.00887002 -0.01209182 0.07478858
v 0.00236211 -0.01741338 0.07478858
v 0.00174547 -0.01778915 0.06760114
v 0.00175139 -0.01779294 0.06877040
v 0.00232957 -0.01741591 0.06760114
v 0.00225416 -0.01714009 0.04600500
v 0.00294325 -0.01665550 0.04600500
v 0.00435396 -0.01566736 0.04772931
v 0.00437171 -0.01567242 0.04889857
v 0.00312809 -0.01678835 0.06292409
v 0.00314583 -0.01683264 0.06760114
v 0.00876059 -0.01197795 0.04656005
v 0.00875764 -0.01197163 0.04600500
v 0.00818093 -0.01275986 0.07478858
v 0.00248188 -0.01732608 0.07478858
v 0.00490997 -0.01521821 0.04600500
v 0.00495581 -0.01523971 0.04889857
v 0.00371219 -0.01635564 0.06292409
v 0.00449296 -0.01577111 0.06292409
v 0.00506819 -0.01532448 0.06175482
v 0.00511107 -0.01535738 0.06993966
v 0.00316654 -0.01682252 0.07478858
v 0.00758056 -0.01312931 0.04889857
v 0.00768259 -0.01323938 0.07478858
v 0.00666227 -0.01380494 0.04600500
v 0.00531218 -0.01491075 0.04600500
v 0.00567004 -0.01463367 0.04600500
v 0.00644194 -0.01431104 0.07478858
v 0.00626005 -0.01416680 0.04656005
v 0.00625414 -0.01416174 0.04600500
v 0.00702604 -0.01382265 0.07478858
f 1 2 6
f 1 6 11
f 1 11 22
f 1 22 28
f 1 28 35
f 1 35 46
f 1 46 54
f 1 54 67
f 1 67 74
f 1 74 80
f 1 80 83
f 1 83 76
f 1 76 66
f 1 66 53
f 1 53 43
f 1 43 41
f 1 41 31
f 1 31 24
f 1 24 13
f 1 13 7
f 1 7 3
f 1 3 4
f 1 4 9
f 1 9 17
f 1 17 10
f 1 10 5
f 1 5 2
f 2 5 6
f 3 7 4
f 4 8 9
f 4 7 8
f 5 10 6
f 6 10 12
f 6 12 20
f 6 20 19
f 6 19 21
f 6 21 27
f 6 27 34
f 6 34 45
f 6 45 39
f 6 39 38
f 6 38 37
f 6 37 29
f 6 29 23
f 6 23 11
f 7 13 14
f 7 14 8
f 8 14 18
f 8 18 15
f 8 15 9
f 9 16 26
f 9 26 25
f 9 25 32
f 9 32 42
f 9 42 52
f 9 52 65
f 9 65 77
f 9 77 82
f 9 82 79
f 9 79 78
f 9 78 68
f 9 68 59
f 9 59 58
f 9 58 49
f 9 49 40
f 9 40 44
f 9 44 33
f 9 33 27
f 9 27 21
f 9 21 17
f 9 15 18
f 9 18 16
f 10 19 20
f 10 20 12
f 10 17 21
f 10 21 19
f 11 23 22
f 13 24 14
f 14 25 26
f 14 26 18
f 14 24 25
f 16 18 26
f 22 23 29
f 22 29 30
f 22 30 28
f 24 31 32
f 24 32 25
f 27 33 34
f 28 30 36
f 28 36 35
f 29 37 30
f 30 37 38
f 30 38 39
f 30 39 40
f 30 40 36
f 31 41 32
f 32 41 43
f 32 43 42
f 33 44 34
f 34 44 45
f 35 36 47
f 35 47 46
f 36 40 47
f 39 45 48
f 39 48 40
f 40 48 44
f 40 49 50
f 40 50 51
f 40 51 47
f 42 43 53
f 42 53 52
f 44 48 45
f 46 47 55
f 46 55 56
f 46 56 57
f 46 57 54
f 47 51 55
f 49 58 50
f 50 58 59
f 50 59 51
f 51 59 60
f 51 60 61
f 51 61 62
f 51 62 63
f 51 63 57
f 51 57 55
f 52 53 64
f 52 64 65
f 53 66 64
f 54 57 63
f 54 63 67
f 55 57 56
f 59 68 60
f 60 68 69
f 60 69 61
f 61 69 70
f 61 70 62
f 62 70 63
f 63 70 71
f 63 71 72
f 63 72 73
f 63 73 74
f 63 74 67
f 64 75 65
f 64 66 76
f 64 76 75
f 65 75 77
f 68 78 69
f 69 78 79
f 69 79 72
f 69 72 71
f 69 71 70
f 72 80 73
f 72 79 81
f 72 81 75
f 72 75 80
f 73 80 74
f 75 81 82
f 75 82 77
f 75 76 83
f 75 83 80
f 79 82 81

