# https://github.com/mikedh/trimesh
v 0.01305705 0.03630267 0.04217511
v 0.01321105 0.03591377 0.04217511
v 0.01338731 0.03630267 0.04600500
v 0.01617404 0.03630267 0.04217511
v 0.01344938 0.03531348 0.04217511
v 0.01619687 0.03630267 0.04600500
v 0.01393540 0.03416236 0.04217511
v 0.01644516 0.02938174 0.04600500
v 0.01618458 0.03630267 0.04305282
v 0.01660970 0.03548286 0.04217511
v 0.01619687 0.03630267 0.04588615
v 0.01626890 0.03617326 0.04600500
v 0.01427738 0.03344148 0.04217511
v 0.01635674 0.02938174 0.04423759
v 0.01903923 0.02938174 0.04600500
v 0.01692005 0.03496049 0.04600500
v 0.01681641 0.03504382 0.04217511
v 0.01629408 0.02938174 0.04217511
v 0.01629818 0.02938174 0.04285298
v 0.01878744 0.03015547 0.04600500
v 0.01902108 0.02938174 0.04217511
v 0.01895784 0.02960058 0.04217511
v 0.01861001 0.03076999 0.04422147
v 0.01723802 0.03427619 0.04600500
v 0.01731414 0.03398485 0.04217511
v 0.01717770 0.03427619 0.04217511
v 0.01859186 0.03076999 0.04539049
v 0.01858015 0.03076999 0.04600500
v 0.01858073 0.03076999 0.04217511
v 0.01859830 0.03076999 0.04305282
v 0.01821943 0.03188181 0.04305282
v 0.01822880 0.03186894 0.04422147
v 0.01801390 0.03246652 0.04305282
v 0.01779138 0.03294756 0.04217511
v 0.01770706 0.03310678 0.04600500
v 0.01800746 0.03245297 0.04422147
v 0.01840565 0.03126594 0.04600500
v 0.01830786 0.03158573 0.04217511
v 0.01821358 0.03186284 0.04217511
v 0.01816263 0.03200851 0.04217511
v 0.01822412 0.03181541 0.04539049
v 0.01800687 0.03244687 0.04217511
v 0.01821592 0.03178967 0.04600500
f 1 2 3
f 1 3 6
f 1 6 11
f 1 11 9
f 1 9 4
f 1 4 10
f 1 10 17
f 1 17 26
f 1 26 25
f 1 25 34
f 1 34 42
f 1 42 40
f 1 40 39
f 1 39 38
f 1 38 29
f 1 29 22
f 1 22 21
f 1 21 18
f 1 18 13
f 1 13 7
f 1 7 5
f 1 5 2
f 2 5 3
f 3 5 7
f 3 7 8
f 3 8 15
f 3 15 20
f 3 20 28
f 3 28 37
f 3 37 43
f 3 43 35
f 3 35 24
f 3 24 16
f 3 16 12
f 3 12 6
f 4 9 10
f 6 12 11
f 7 13 8
f 8 14 19
f 8 19 18
f 8 18 21
f 8 21 15
f 8 13 14
f 9 11 12
f 9 12 16
f 9 16 10
f 10 16 17
f 13 18 19
f 13 19 14
f 15 21 22
f 15 22 23
f 15 23 20
f 16 24 25
f 16 25 26
f 16 26 17
f 20 27 28
f 20 23 27
f 22 29 30
f 22 30 23
f 23 30 31
f 23 31 32
f 23 32 27
f 24 33 34
f 24 34 25
f 24 35 36
f 24 36 33
f 27 32 28
f 28 32 37
f 29 38 30
f 30 38 39
f 30 39 31
f 31 39 40
f 31 40 33
f 31 33 32
f 32 33 36
f 32 36 41
f 32 41 37
f 33 40 42
f 33 42 34
f 35 43 41
f 35 41 36
f 37 41 43

