# https://github.com/mikedh/trimesh
v -0.01470270 -0.02116729 0.04600500
v -0.03188603 -0.01992433 0.04600500
v -0.01470270 -0.02377221 0.04600500
v -0.01470270 -0.02063096 0.04067618
v -0.02608649 -0.01951651 0.03781002
v -0.03188603 -0.01989027 0.04554325
v -0.03188603 -0.02256876 0.04600500
v -0.01528299 -0.02386214 0.04600500
v -0.01470270 -0.02359965 0.01893659
v -0.01470270 -0.02063096 0.00350755
v -0.03188603 -0.01951651 0.04023939
v -0.02608649 -0.01951651 0.00350755
v -0.03167242 -0.02262325 0.04600500
v -0.03188603 -0.02256013 0.03720683
v -0.03047820 -0.02296885 0.03370004
v -0.01583805 -0.02391436 0.04600500
v -0.01762097 -0.02394570 0.02201075
v -0.01645198 -0.02382217 0.01967289
v -0.01528299 -0.02372635 0.02551338
v -0.01528299 -0.02367957 0.01967289
v -0.01546296 -0.02366459 0.01616610
v -0.01578927 -0.02360237 0.00942292
v -0.01535363 -0.02352744 0.00907764
v -0.01470270 -0.02341799 0.00912341
v -0.01470270 -0.02257058 0.00350755
v -0.03188603 -0.01951651 0.00350755
v -0.03047820 -0.02288483 0.04600500
v -0.03047820 -0.02292298 0.04305148
v -0.02930921 -0.02318002 0.04422041
v -0.03188603 -0.02247157 0.02317968
v -0.03047820 -0.02295750 0.03253111
v -0.02930921 -0.02321363 0.03370004
v -0.02930921 -0.02321862 0.03486897
v -0.01762097 -0.02405105 0.04600500
v -0.01878996 -0.02403652 0.02435277
v -0.01762097 -0.02390891 0.01850396
v -0.01762097 -0.02382353 0.01149038
v -0.01645198 -0.02380628 0.01850396
v -0.01590533 -0.02358738 0.00864085
v -0.01528299 -0.02345069 0.00798359
v -0.01470270 -0.02335396 0.00798359
v -0.01531831 -0.02266958 0.00350755
v -0.01470270 -0.02285532 0.00448097
v -0.01528299 -0.02295432 0.00448097
v -0.03188603 -0.02149019 0.00350755
v -0.02726557 -0.02354379 0.04600500
v -0.02731435 -0.02355196 0.04538934
v -0.03188603 -0.02241481 0.01820445
v -0.03156645 -0.02255967 0.02317968
v -0.03131415 -0.02248520 0.01266347
v -0.02930921 -0.02303970 0.01967289
v -0.02930921 -0.02305604 0.02084182
v -0.02814022 -0.02341935 0.03486897
v -0.02814022 -0.02329265 0.02084182
v -0.01817603 -0.02408920 0.04600500
v -0.01995896 -0.02407694 0.02435277
v -0.01995896 -0.02407104 0.02317968
v -0.01878996 -0.02412644 0.04538934
v -0.01995896 -0.02386350 0.00915669
v -0.01878996 -0.02381672 0.00915669
v -0.01878996 -0.02377994 0.00798359
v -0.01762097 -0.02378493 0.01032561
v -0.01995896 -0.02403879 0.02084182
v -0.01762097 -0.02374043 0.00915669
v -0.01617613 -0.02357194 0.00798359
v -0.01528299 -0.02335214 0.00681466
v -0.01470270 -0.02330491 0.00739705
v -0.01625014 -0.02281354 0.00350755
v -0.01470270 -0.02297748 0.00505919
v -0.01470270 -0.02309873 0.00564573
v -0.01528299 -0.02319501 0.00564573
v -0.01645198 -0.02335078 0.00564573
v -0.01645198 -0.02310373 0.00448097
v -0.01645198 -0.02283942 0.00350755
v -0.03141003 -0.02161553 0.00350755
v -0.03047820 -0.02214596 0.00448097
v -0.03188603 -0.02169001 0.00421473
v -0.02668192 -0.02363870 0.04600500
v -0.02673070 -0.02364506 0.04538934
v -0.03188603 -0.02233806 0.01266347
v -0.02814022 -0.02321681 0.01500133
v -0.02930921 -0.02296249 0.01500133
v -0.03112241 -0.02244160 0.00798359
v -0.02463324 -0.02393843 0.03720683
v -0.02644644 -0.02359965 0.02551338
v -0.02589474 -0.02367140 0.02439437
v -0.02697122 -0.02341481 0.01500133
v -0.02613022 -0.02355741 0.01616610
v -0.01878996 -0.02412372 0.04600500
v -0.02112795 -0.02404606 0.02084182
v -0.01995896 -0.02415551 0.04600500
v -0.02229694 -0.02411781 0.04071362
v -0.02112795 -0.02385078 0.00915669
v -0.02112795 -0.02380446 0.00798359
v -0.01995896 -0.02381127 0.00798359
v -0.01995896 -0.02371727 0.00681466
v -0.01869241 -0.02366232 0.00670235
v -0.01762097 -0.02357285 0.00651931
v -0.01655963 -0.02352698 0.00692282
v -0.01470270 -0.02325178 0.00681466
v -0.01823827 -0.02358920 0.00624476
v -0.01762097 -0.02344660 0.00564573
v -0.01762097 -0.02320273 0.00448097
v -0.01762097 -0.02294296 0.00350755
v -0.01741913 -0.02292571 0.00350755
v -0.02911073 -0.02219955 0.00350755
v -0.02873732 -0.02242389 0.00388610
v -0.02901485 -0.02249746 0.00448097
v -0.02987940 -0.02241707 0.00508415
v -0.03051688 -0.02234396 0.00554174
v -0.03164719 -0.02182398 0.00448097
v -0.03188603 -0.02174677 0.00448513
v -0.02624292 -0.02369138 0.04600500
v -0.02346425 -0.02402154 0.04422041
v -0.02346425 -0.02401018 0.04538934
v -0.03188603 -0.02217457 0.00798359
v -0.02930921 -0.02285032 0.00915669
v -0.02814022 -0.02306785 0.00798359
v -0.02524381 -0.02359647 0.00849942
v -0.03108372 -0.02242843 0.00731801
v -0.02930921 -0.02282535 0.00798359
v -0.02346425 -0.02404333 0.03720683
v -0.02346425 -0.02403607 0.04188255
v -0.02463324 -0.02383398 0.02317968
v -0.02346425 -0.02383988 0.01616610
v -0.02229694 -0.02390891 0.01616610
v -0.02112795 -0.02414279 0.04600500
v -0.02168133 -0.02412553 0.04600500
v -0.02229694 -0.02408920 0.04600500
v -0.02229694 -0.02376904 0.00798359
v -0.02112795 -0.02372362 0.00681466
v -0.02112795 -0.02363280 0.00591197
v -0.01995896 -0.02362280 0.00606173
v -0.01869241 -0.02351744 0.00571229
v -0.01878996 -0.02328584 0.00448097
v -0.01878996 -0.02300473 0.00350755
v -0.02814022 -0.02239119 0.00350755
v -0.02716465 -0.02258147 0.00350755
v -0.02697122 -0.02261599 0.00350755
v -0.02697122 -0.02290346 0.00448097
v -0.02814022 -0.02267185 0.00448097
v -0.02814022 -0.02288529 0.00564573
v -0.02941685 -0.02259737 0.00554174
v -0.03015357 -0.02247839 0.00586621
v -0.03093234 -0.02239074 0.00654011
v -0.03164719 -0.02203515 0.00564573
v -0.03188603 -0.02191617 0.00541694
v -0.02346425 -0.02400065 0.04600500
v -0.02285032 -0.02405015 0.04600500
v -0.03188603 -0.02211144 0.00686458
v -0.02930921 -0.02276540 0.00681466
v -0.02814022 -0.02300382 0.00681466
v -0.02697122 -0.02308647 0.00564573
v -0.02485190 -0.02356013 0.00772568
v -0.02346425 -0.02362735 0.00712249
v -0.02237263 -0.02367231 0.00672315
v -0.02203286 -0.02361509 0.00595773
v -0.02112795 -0.02354424 0.00532958
v -0.01995896 -0.02334033 0.00448097
v -0.01995896 -0.02305196 0.00350755
v -0.02692076 -0.02262371 0.00350755
v -0.02608649 -0.02296794 0.00423969
v -0.02608649 -0.02303788 0.00448097
v -0.03188603 -0.02207239 0.00655259
v -0.03188603 -0.02195749 0.00564573
v -0.02580223 -0.02308057 0.00448097
v -0.02580223 -0.02322090 0.00564573
v -0.02346425 -0.02345614 0.00564573
v -0.02237263 -0.02354742 0.00559582
v -0.02229694 -0.02333398 0.00448097
v -0.02112795 -0.02336213 0.00448097
v -0.02112795 -0.02304378 0.00350755
v -0.02608649 -0.02273361 0.00350755
v -0.02584596 -0.02276494 0.00350755
v -0.02463324 -0.02289982 0.00350755
v -0.02463324 -0.02318684 0.00448097
v -0.02346425 -0.02326949 0.00448097
v -0.02443140 -0.02291435 0.00350755
v -0.02326241 -0.02297385 0.00350755
f 1 2 7
f 1 7 13
f 1 13 27
f 1 27 46
f 1 46 78
f 1 78 113
f 1 113 148
f 1 148 149
f 1 149 129
f 1 129 128
f 1 128 127
f 1 127 91
f 1 91 89
f 1 89 55
f 1 55 34
f 1 34 16
f 1 16 8
f 1 8 3
f 1 3 9
f 1 9 24
f 1 24 41
f 1 41 67
f 1 67 100
f 1 100 70
f 1 70 69
f 1 69 43
f 1 43 25
f 1 25 10
f 1 10 4
f 1 4 5
f 1 5 2
f 2 5 6
f 2 6 11
f 2 11 26
f 2 26 45
f 2 45 77
f 2 77 112
f 2 112 147
f 2 147 165
f 2 165 164
f 2 164 150
f 2 150 116
f 2 116 80
f 2 80 48
f 2 48 30
f 2 30 14
f 2 14 7
f 3 8 9
f 4 10 12
f 4 12 5
f 5 11 6
f 5 12 26
f 5 26 11
f 7 14 15
f 7 15 13
f 8 16 17
f 8 17 18
f 8 18 19
f 8 19 9
f 9 19 20
f 9 20 21
f 9 21 22
f 9 22 23
f 9 23 24
f 10 25 42
f 10 42 68
f 10 68 74
f 10 74 105
f 10 105 104
f 10 104 136
f 10 136 160
f 10 160 172
f 10 172 179
f 10 179 178
f 10 178 175
f 10 175 174
f 10 174 173
f 10 173 161
f 10 161 139
f 10 139 138
f 10 138 137
f 10 137 106
f 10 106 75
f 10 75 45
f 10 45 26
f 10 26 12
f 13 15 28
f 13 28 29
f 13 29 27
f 14 30 15
f 15 31 32
f 15 32 33
f 15 33 29
f 15 29 28
f 15 30 31
f 16 34 17
f 17 35 36
f 17 36 18
f 17 34 35
f 18 36 37
f 18 37 38
f 18 38 21
f 18 21 20
f 18 20 19
f 21 38 22
f 22 37 39
f 22 39 23
f 22 38 37
f 23 39 40
f 23 40 41
f 23 41 24
f 25 43 44
f 25 44 42
f 27 29 46
f 29 33 47
f 29 47 46
f 30 48 49
f 30 49 31
f 31 49 48
f 31 48 50
f 31 50 51
f 31 51 52
f 31 52 32
f 32 53 33
f 32 52 54
f 32 54 53
f 33 53 47
f 34 55 35
f 35 56 57
f 35 57 37
f 35 37 36
f 35 55 58
f 35 58 56
f 37 59 60
f 37 60 61
f 37 61 62
f 37 62 39
f 37 57 63
f 37 63 59
f 39 62 64
f 39 64 61
f 39 61 65
f 39 65 40
f 40 65 66
f 40 66 67
f 40 67 41
f 42 44 68
f 43 69 44
f 44 69 70
f 44 70 71
f 44 71 72
f 44 72 73
f 44 73 74
f 44 74 68
f 45 75 76
f 45 76 77
f 46 47 78
f 47 53 79
f 47 79 78
f 48 80 50
f 50 81 82
f 50 82 51
f 50 80 83
f 50 83 81
f 51 82 81
f 51 81 52
f 52 81 54
f 53 84 79
f 53 54 85
f 53 85 86
f 53 86 84
f 54 81 87
f 54 87 88
f 54 88 85
f 55 89 58
f 56 90 57
f 56 58 91
f 56 91 92
f 56 92 90
f 57 90 63
f 58 89 91
f 59 63 90
f 59 90 93
f 59 93 94
f 59 94 95
f 59 95 61
f 59 61 60
f 61 95 96
f 61 96 97
f 61 97 98
f 61 98 99
f 61 99 65
f 61 64 62
f 65 99 66
f 66 100 67
f 66 99 72
f 66 72 71
f 66 71 70
f 66 70 100
f 72 99 98
f 72 98 101
f 72 101 102
f 72 102 103
f 72 103 73
f 73 103 104
f 73 104 105
f 73 105 74
f 75 106 107
f 75 107 76
f 76 108 109
f 76 109 110
f 76 110 111
f 76 111 77
f 76 107 108
f 77 111 112
f 78 79 113
f 79 114 115
f 79 115 113
f 79 84 114
f 80 116 83
f 81 83 117
f 81 117 118
f 81 118 119
f 81 119 87
f 83 116 120
f 83 120 121
f 83 121 117
f 84 122 123
f 84 123 114
f 84 86 124
f 84 124 122
f 85 88 86
f 86 88 124
f 87 119 88
f 88 119 124
f 90 92 122
f 90 122 124
f 90 124 125
f 90 125 126
f 90 126 93
f 91 127 92
f 92 127 128
f 92 128 129
f 92 129 123
f 92 123 122
f 93 126 130
f 93 130 94
f 94 130 131
f 94 131 95
f 95 131 96
f 96 131 132
f 96 132 133
f 96 133 97
f 97 133 101
f 97 101 98
f 101 133 134
f 101 134 102
f 102 134 135
f 102 135 103
f 103 135 104
f 104 135 136
f 106 137 107
f 107 137 138
f 107 138 139
f 107 139 140
f 107 140 141
f 107 141 108
f 108 141 142
f 108 142 143
f 108 143 109
f 109 143 110
f 110 143 144
f 110 144 145
f 110 145 146
f 110 146 111
f 111 146 147
f 111 147 112
f 113 115 148
f 114 123 129
f 114 129 149
f 114 149 115
f 115 149 148
f 116 150 120
f 117 121 118
f 118 121 120
f 118 120 151
f 118 151 152
f 118 152 119
f 119 125 124
f 119 152 153
f 119 153 154
f 119 154 155
f 119 155 130
f 119 130 125
f 120 150 145
f 120 145 151
f 125 130 126
f 130 155 156
f 130 156 131
f 131 156 157
f 131 157 132
f 132 157 158
f 132 158 133
f 133 158 134
f 134 158 159
f 134 159 135
f 135 159 136
f 136 159 160
f 139 161 162
f 139 162 140
f 140 162 163
f 140 163 153
f 140 153 142
f 140 142 141
f 142 153 152
f 142 152 151
f 142 151 145
f 142 145 144
f 142 144 143
f 145 150 164
f 145 164 165
f 145 165 146
f 146 165 147
f 153 163 166
f 153 166 167
f 153 167 154
f 154 167 168
f 154 168 155
f 155 168 169
f 155 169 156
f 156 169 157
f 157 169 158
f 158 170 171
f 158 171 159
f 158 169 170
f 159 171 160
f 160 171 172
f 161 173 162
f 162 166 163
f 162 173 174
f 162 174 166
f 166 174 175
f 166 175 176
f 166 176 168
f 166 168 167
f 168 176 169
f 169 176 177
f 169 177 170
f 170 177 178
f 170 178 179
f 170 179 172
f 170 172 171
f 175 178 176
f 176 178 177

