# https://github.com/mikedh/trimesh
v -0.03235656 -0.02000622 0.07577447
v -0.03235656 -0.02170191 0.07577447
v -0.03235656 -0.02005047 0.07621025
v -0.01705310 -0.02173016 0.07695453
v -0.01705310 -0.02163318 0.07578580
v -0.01705310 -0.02163412 0.07577447
v -0.03235656 -0.02266227 0.07577878
v -0.03165543 -0.02286281 0.07577447
v -0.03235656 -0.02012392 0.07667623
v -0.01705310 -0.02214819 0.07823813
v -0.03235656 -0.02017758 0.07695453
v -0.03235656 -0.02051935 0.07809629
v -0.01705310 -0.02416117 0.07577447
v -0.03218727 -0.02704413 0.07754617
v -0.03235656 -0.02701494 0.07756181
v -0.03164794 -0.02286563 0.07577447
v -0.01705310 -0.02240617 0.07867499
v -0.03235656 -0.02101365 0.07906763
v -0.01705310 -0.02841498 0.07746312
v -0.01761041 -0.02421390 0.07577447
v -0.03170487 -0.02768060 0.07809198
v -0.03235656 -0.02758174 0.07814915
v -0.03140824 -0.02716181 0.07749871
v -0.02814081 -0.02805062 0.07761467
v -0.02930935 -0.02849313 0.07835409
v -0.03047940 -0.02317069 0.07577447
v -0.01705310 -0.02276207 0.07921702
v -0.03235656 -0.02126693 0.07942197
v -0.01878944 -0.02429770 0.07577447
v -0.01763138 -0.02421578 0.07577447
v -0.01705310 -0.02899873 0.07803049
v -0.01878944 -0.02898084 0.07793180
v -0.02112803 -0.02903263 0.07789135
v -0.02112803 -0.02844794 0.07745664
v -0.02112803 -0.02443704 0.07577447
v -0.03235656 -0.02774462 0.07862106
v -0.03122397 -0.02831048 0.07863778
v -0.02926441 -0.02346633 0.07577447
v -0.02814530 -0.02370642 0.07577447
v -0.02463517 -0.02839333 0.07746258
v -0.02540221 -0.02832648 0.07750141
v -0.02463517 -0.02897802 0.07802456
v -0.02814081 -0.02860141 0.07819930
v -0.02526588 -0.02944784 0.07868470
v -0.01705310 -0.02307277 0.07959294
v -0.03235656 -0.02143169 0.07965173
v -0.01705310 -0.02948173 0.07861459
v -0.01878944 -0.02954387 0.07851643
v -0.01995949 -0.02954953 0.07849432
v -0.02112803 -0.02955611 0.07847598
v -0.02346662 -0.02951846 0.07856227
v -0.02229658 -0.02442104 0.07577447
v -0.02113852 -0.02443704 0.07577447
v -0.03235656 -0.02794422 0.07929846
v -0.03122397 -0.02831048 0.07893010
v -0.02697226 -0.02393238 0.07577447
v -0.02580222 -0.02409997 0.07577447
v -0.02230856 -0.02442009 0.07577447
v -0.02463517 -0.02949115 0.07860866
v -0.02526588 -0.02944784 0.07879796
v -0.01705310 -0.02342961 0.08001901
v -0.03235656 -0.02201638 0.08018404
v -0.01705310 -0.02948173 0.07870897
v -0.01878944 -0.02956459 0.07929199
v -0.02112803 -0.02962485 0.07929199
v -0.03079401 -0.02822668 0.07970943
v -0.03235656 -0.02746875 0.08029622
v -0.02814081 -0.02883773 0.07929199
v -0.02456775 -0.02948644 0.07922943
v -0.02491083 -0.02938476 0.07957730
v -0.01705310 -0.02379680 0.08027303
v -0.03235656 -0.02305394 0.08077839
v -0.01705310 -0.02417530 0.08051681
v -0.01705310 -0.02947608 0.07901423
v -0.01816023 -0.02944219 0.07988633
v -0.01878944 -0.02945631 0.07990521
v -0.02112803 -0.02950339 0.07995806
v -0.02197298 -0.02949397 0.07994782
v -0.02413329 -0.02944690 0.07989442
v -0.02930935 -0.02837638 0.08002548
v -0.03235656 -0.02720607 0.08052598
v -0.02814081 -0.02850255 0.08019645
v -0.02814081 -0.02787643 0.08078109
v -0.03235656 -0.02360191 0.08102864
v -0.01705310 -0.02503114 0.08095960
v -0.01705310 -0.02461687 0.08075681
v -0.01705310 -0.02940359 0.07931896
v -0.01771079 -0.02892906 0.08030108
v -0.01705310 -0.02935369 0.07949855
v -0.01705310 -0.02914844 0.07982754
v -0.01705310 -0.02882926 0.08033020
v -0.01878944 -0.02885091 0.08041973
v -0.02112803 -0.02885091 0.08050872
v -0.02399397 -0.02827187 0.08104913
v -0.02408385 -0.02827187 0.08104913
v -0.02449884 -0.02882831 0.08044832
v -0.03235656 -0.02678521 0.08088086
v -0.02994606 -0.02710533 0.08105021
v -0.03072659 -0.02700082 0.08101030
v -0.03235656 -0.02365181 0.08104374
v -0.03233559 -0.02362921 0.08103781
v -0.01705310 -0.02533243 0.08105507
v -0.01762090 -0.02810240 0.08098441
v -0.01705310 -0.02806286 0.08096338
v -0.02354902 -0.02775592 0.08115430
v -0.02453779 -0.02773520 0.08115969
v -0.01762090 -0.02751865 0.08116671
v -0.02814081 -0.02729175 0.08113219
v -0.02930935 -0.02717500 0.08108527
v -0.03235656 -0.02620052 0.08113866
v -0.03235656 -0.02418660 0.08114729
v -0.01705310 -0.02561583 0.08113812
v -0.01705310 -0.02777946 0.08106154
v -0.02229658 -0.02758739 0.08116994
v -0.02463517 -0.02651310 0.08128428
v -0.02697226 -0.02651310 0.08126756
v -0.02580222 -0.02746122 0.08117264
v -0.02697226 -0.02737178 0.08115376
v -0.01705310 -0.02747817 0.08115538
v -0.01705310 -0.02703000 0.08119853
v -0.01762090 -0.02651310 0.08126271
v -0.02346662 -0.02651310 0.08128158
v -0.02814081 -0.02651310 0.08124814
v -0.03164794 -0.02628808 0.08115700
v -0.03235656 -0.02534373 0.08124653
v -0.01705310 -0.02607718 0.08120015
v -0.01705310 -0.02651310 0.08124760
f 1 2 7
f 1 7 15
f 1 15 22
f 1 22 36
f 1 36 54
f 1 54 67
f 1 67 81
f 1 81 97
f 1 97 110
f 1 110 125
f 1 125 111
f 1 111 100
f 1 100 84
f 1 84 72
f 1 72 62
f 1 62 46
f 1 46 28
f 1 28 18
f 1 18 12
f 1 12 11
f 1 11 9
f 1 9 3
f 1 3 4
f 1 4 5
f 1 5 6
f 1 6 13
f 1 13 20
f 1 20 30
f 1 30 29
f 1 29 35
f 1 35 53
f 1 53 52
f 1 52 58
f 1 58 57
f 1 57 56
f 1 56 39
f 1 39 38
f 1 38 26
f 1 26 16
f 1 16 8
f 1 8 2
f 2 8 7
f 3 9 4
f 4 10 17
f 4 17 27
f 4 27 45
f 4 45 61
f 4 61 71
f 4 71 73
f 4 73 86
f 4 86 85
f 4 85 102
f 4 102 112
f 4 112 126
f 4 126 127
f 4 127 120
f 4 120 119
f 4 119 113
f 4 113 104
f 4 104 91
f 4 91 90
f 4 90 89
f 4 89 87
f 4 87 74
f 4 74 63
f 4 63 47
f 4 47 31
f 4 31 19
f 4 19 13
f 4 13 6
f 4 6 5
f 4 9 11
f 4 11 12
f 4 12 10
f 7 14 15
f 7 8 16
f 7 16 14
f 10 12 18
f 10 18 17
f 13 19 20
f 14 21 22
f 14 22 15
f 14 16 23
f 14 23 24
f 14 24 25
f 14 25 21
f 16 26 23
f 17 18 27
f 18 28 27
f 19 29 30
f 19 30 20
f 19 31 32
f 19 32 33
f 19 33 34
f 19 34 35
f 19 35 29
f 21 25 22
f 22 25 37
f 22 37 36
f 23 26 38
f 23 38 39
f 23 39 40
f 23 40 24
f 24 40 41
f 24 41 42
f 24 42 43
f 24 43 25
f 25 43 44
f 25 44 37
f 27 28 46
f 27 46 45
f 31 47 48
f 31 48 32
f 32 48 33
f 33 48 49
f 33 49 50
f 33 50 51
f 33 51 42
f 33 42 40
f 33 40 34
f 34 52 53
f 34 53 35
f 34 40 52
f 36 37 54
f 37 55 54
f 37 44 60
f 37 60 55
f 39 56 40
f 40 42 41
f 40 56 57
f 40 57 58
f 40 58 52
f 42 51 59
f 42 59 43
f 43 59 44
f 44 59 60
f 45 46 61
f 46 62 61
f 47 63 64
f 47 64 48
f 48 64 65
f 48 65 50
f 48 50 49
f 50 65 51
f 51 65 59
f 54 55 66
f 54 66 67
f 55 60 68
f 55 68 66
f 59 65 69
f 59 69 60
f 60 69 70
f 60 70 68
f 61 62 71
f 62 72 73
f 62 73 71
f 63 74 64
f 64 74 75
f 64 75 76
f 64 76 65
f 65 76 77
f 65 77 78
f 65 78 79
f 65 79 69
f 66 68 70
f 66 70 79
f 66 79 80
f 66 80 67
f 67 80 82
f 67 82 83
f 67 83 81
f 69 79 70
f 72 84 85
f 72 85 86
f 72 86 73
f 74 87 75
f 75 88 76
f 75 87 89
f 75 89 90
f 75 90 91
f 75 91 88
f 76 88 92
f 76 92 77
f 77 93 94
f 77 94 95
f 77 95 78
f 77 92 93
f 78 95 79
f 79 95 96
f 79 96 82
f 79 82 80
f 81 83 97
f 82 96 95
f 82 95 83
f 83 98 99
f 83 99 97
f 83 95 98
f 84 100 101
f 84 101 85
f 85 101 102
f 88 103 92
f 88 91 103
f 91 104 103
f 92 103 93
f 93 103 94
f 94 105 106
f 94 106 95
f 94 103 107
f 94 107 105
f 95 106 108
f 95 108 109
f 95 109 98
f 97 99 110
f 98 110 99
f 98 109 110
f 100 111 112
f 100 112 101
f 101 112 102
f 103 104 113
f 103 113 107
f 105 107 106
f 106 107 114
f 106 114 115
f 106 115 116
f 106 116 117
f 106 117 118
f 106 118 108
f 107 113 119
f 107 119 120
f 107 120 121
f 107 121 122
f 107 122 115
f 107 115 114
f 108 118 123
f 108 123 124
f 108 124 110
f 108 110 109
f 110 124 125
f 111 125 121
f 111 121 126
f 111 126 112
f 115 125 116
f 115 122 125
f 116 123 117
f 116 125 123
f 117 123 118
f 120 127 121
f 121 127 126
f 121 125 122
f 123 125 124

