# https://github.com/mikedh/trimesh
v -0.06004366 0.00361231 0.04305260
v -0.06004265 0.00361231 0.04600500
v -0.06000130 0.00361231 0.04188369
v -0.05973406 0.00271171 0.04305260
v -0.05992063 0.00327537 0.04600500
v -0.05743271 0.00361231 0.04600500
v -0.05999425 0.00361231 0.04173141
v -0.05961405 0.00258575 0.04173141
v -0.05928125 0.00172608 0.04173141
v -0.05904527 0.00114195 0.04173141
v -0.05931352 0.00168672 0.04305260
v -0.05931756 0.00167412 0.04422151
v -0.05950917 0.00221889 0.04600500
v -0.05520902 0.00361231 0.04173141
v -0.04974207 -0.00901031 0.04600500
v -0.05900190 0.00103961 0.04173141
v -0.05871852 0.00037360 0.04173141
v -0.05877802 0.00037360 0.04422151
v -0.05877802 0.00037360 0.04539042
v -0.05893131 0.00075620 0.04600500
v -0.05906947 0.00109471 0.04600500
v -0.04974207 -0.00884972 0.04173141
v -0.04974207 -0.01246788 0.04600500
v -0.05864087 0.00019568 0.04173141
v -0.05813562 -0.00095054 0.04173141
v -0.05812856 -0.00096628 0.04173141
v -0.05794502 -0.00136620 0.04173141
v -0.05825059 -0.00073798 0.04422151
v -0.05824454 -0.00075530 0.04539042
v -0.05876390 0.00037360 0.04600500
v -0.05808621 -0.00107492 0.04600500
v -0.05823042 -0.00076790 0.04600500
v -0.04974207 -0.01247103 0.04173141
v -0.05004461 -0.01217502 0.04600500
v -0.04974207 -0.01246945 0.04597613
v -0.05672174 -0.00360197 0.04173141
v -0.05673787 -0.00363346 0.04305260
v -0.05705454 -0.00304932 0.04305260
v -0.05705857 -0.00304775 0.04422151
v -0.05735405 -0.00248094 0.04600500
v -0.05006579 -0.01217502 0.04422151
v -0.05005167 -0.01217660 0.04173141
v -0.05035220 -0.01186328 0.04600500
v -0.05064970 -0.01160664 0.04422151
v -0.05005268 -0.01217975 0.04539042
v -0.05628809 -0.00430261 0.04173141
v -0.05634154 -0.00430261 0.04305260
v -0.05635163 -0.00430261 0.04422151
v -0.05673787 -0.00363661 0.04539042
v -0.05705353 -0.00305247 0.04539042
v -0.05705050 -0.00303515 0.04600500
v -0.05064163 -0.01160506 0.04305260
v -0.05055994 -0.01165702 0.04173141
v -0.05062953 -0.01158144 0.04600500
v -0.05119932 -0.01099731 0.04600500
v -0.05150690 -0.01067769 0.04600500
v -0.05178423 -0.01038799 0.04600500
v -0.05120436 -0.01102250 0.04422151
v -0.05120436 -0.01102093 0.04305260
v -0.05439821 -0.00715557 0.04173141
v -0.05580201 -0.00514968 0.04305260
v -0.05581411 -0.00517015 0.04422151
v -0.05632944 -0.00430261 0.04539042
v -0.05631532 -0.00430261 0.04600500
v -0.05672779 -0.00361929 0.04600500
v -0.05063659 -0.01157672 0.04173141
v -0.05204039 -0.01011088 0.04600500
v -0.05232377 -0.00980385 0.04539042
v -0.05117713 -0.01099101 0.04173141
v -0.05290869 -0.00913942 0.04539042
v -0.05178928 -0.01035020 0.04305260
v -0.05182961 -0.01025730 0.04173141
v -0.05176104 -0.01033445 0.04173141
v -0.05432963 -0.00724217 0.04173141
v -0.05339477 -0.00853010 0.04422151
v -0.05340788 -0.00855529 0.04539042
v -0.05440930 -0.00717289 0.04422151
v -0.05394540 -0.00780741 0.04539042
v -0.05393330 -0.00780741 0.04600500
v -0.05578587 -0.00512449 0.04600500
v -0.05232175 -0.00980228 0.04600500
v -0.05262934 -0.00945432 0.04600500
v -0.05290667 -0.00913942 0.04600500
v -0.05226528 -0.00974875 0.04173141
v -0.05387077 -0.00780741 0.04173141
v -0.05380018 -0.00789401 0.04173141
v -0.05333325 -0.00846082 0.04173141
v -0.05285019 -0.00904495 0.04173141
v -0.05340586 -0.00855371 0.04600500
f 1 2 6
f 1 6 14
f 1 14 7
f 1 7 3
f 1 3 4
f 1 4 2
f 2 4 5
f 2 5 13
f 2 13 21
f 2 21 20
f 2 20 30
f 2 30 32
f 2 32 31
f 2 31 40
f 2 40 51
f 2 51 65
f 2 65 64
f 2 64 80
f 2 80 79
f 2 79 89
f 2 89 83
f 2 83 82
f 2 82 81
f 2 81 67
f 2 67 57
f 2 57 56
f 2 56 55
f 2 55 54
f 2 54 43
f 2 43 34
f 2 34 23
f 2 23 15
f 2 15 6
f 3 7 4
f 4 7 8
f 4 8 9
f 4 9 10
f 4 10 11
f 4 11 12
f 4 12 5
f 5 12 13
f 6 15 14
f 7 14 22
f 7 22 33
f 7 33 42
f 7 42 53
f 7 53 66
f 7 66 69
f 7 69 73
f 7 73 72
f 7 72 84
f 7 84 88
f 7 88 87
f 7 87 86
f 7 86 85
f 7 85 74
f 7 74 60
f 7 60 46
f 7 46 36
f 7 36 27
f 7 27 26
f 7 26 25
f 7 25 24
f 7 24 17
f 7 17 16
f 7 16 10
f 7 10 9
f 7 9 8
f 10 16 11
f 11 16 17
f 11 17 18
f 11 18 12
f 12 18 19
f 12 19 20
f 12 20 21
f 12 21 13
f 14 15 22
f 15 23 35
f 15 35 33
f 15 33 22
f 17 24 18
f 18 24 25
f 18 25 26
f 18 26 27
f 18 27 28
f 18 28 29
f 18 29 19
f 19 30 20
f 19 29 31
f 19 31 32
f 19 32 30
f 23 34 35
f 27 31 29
f 27 29 28
f 27 36 37
f 27 37 38
f 27 38 39
f 27 39 40
f 27 40 31
f 33 35 41
f 33 41 42
f 34 43 44
f 34 44 45
f 34 45 35
f 35 45 41
f 36 46 47
f 36 47 37
f 37 47 48
f 37 48 49
f 37 49 39
f 37 39 38
f 39 50 40
f 39 49 50
f 40 50 49
f 40 49 51
f 41 45 44
f 41 44 42
f 42 44 52
f 42 52 53
f 43 54 44
f 44 54 55
f 44 55 56
f 44 56 57
f 44 57 58
f 44 58 59
f 44 59 52
f 46 60 61
f 46 61 47
f 47 61 62
f 47 62 48
f 48 63 49
f 48 62 63
f 49 63 64
f 49 64 65
f 49 65 51
f 52 59 53
f 53 59 66
f 57 67 58
f 58 67 68
f 58 68 59
f 59 69 66
f 59 68 70
f 59 70 71
f 59 71 72
f 59 72 73
f 59 73 69
f 60 74 75
f 60 75 76
f 60 76 77
f 60 77 62
f 60 62 61
f 62 77 78
f 62 78 79
f 62 79 80
f 62 80 64
f 62 64 63
f 67 81 68
f 68 81 82
f 68 82 83
f 68 83 70
f 70 72 71
f 70 83 76
f 70 76 75
f 70 75 72
f 72 75 84
f 74 85 75
f 75 85 86
f 75 86 87
f 75 87 88
f 75 88 84
f 76 89 77
f 76 83 89
f 77 89 78
f 78 89 79

