# https://github.com/mikedh/trimesh
v -0.01470264 0.03830939 0.02665669
v -0.02544895 0.03838978 0.02668594
v -0.02544895 0.03842260 0.02551588
v -0.01470264 0.03845213 0.02551588
v -0.01470264 0.03833400 0.02785233
v -0.01470264 0.03836025 0.02847393
v -0.02544895 0.03845049 0.02785233
v -0.02544895 0.03858339 0.02426539
v -0.01470264 0.03861129 0.02434583
v -0.01470264 0.03836681 0.02850683
v -0.02544895 0.03862441 0.02903336
v -0.02544895 0.03880653 0.02317577
v -0.01470264 0.03899194 0.02201303
v -0.01470264 0.03888529 0.02255784
v -0.01470264 0.03878521 0.02316846
v -0.01470264 0.03849807 0.02914671
v -0.02544895 0.03870481 0.02939534
v -0.02544895 0.03913468 0.02199109
v -0.01470264 0.03927743 0.02087954
v -0.01470264 0.03913961 0.02142435
v -0.01470264 0.03878028 0.03019976
v -0.02544895 0.03891646 0.03019244
v -0.02544895 0.03943002 0.02117206
v -0.01470264 0.03950057 0.02017020
v -0.01470264 0.03946448 0.02027258
v -0.01470264 0.03923969 0.03132959
v -0.02544895 0.03900835 0.03045205
v -0.02544895 0.03966629 0.02060897
v -0.01470264 0.03975489 0.01958151
v -0.02544895 0.03930860 0.03118699
v -0.01470264 0.03964988 0.03221079
v -0.02544895 0.04007319 0.01967292
v -0.01470264 0.04004366 0.01891970
v -0.01470264 0.03981559 0.03256546
v -0.02544895 0.03940705 0.03136615
v -0.02544895 0.04054081 0.01861256
v -0.01470264 0.04024383 0.01846996
v -0.02544895 0.03963675 0.03177202
v -0.01470264 0.04040626 0.03359657
v -0.02544895 0.04097724 0.01770577
v -0.02544895 0.04112983 0.01739497
v -0.01470264 0.04047189 0.01800560
v -0.02544895 0.03983036 0.03206819
v -0.01470264 0.04081153 0.03414503
v -0.02544895 0.04062448 0.03320899
v -0.02544895 0.04033735 0.03281410
v -0.02544895 0.04015359 0.03255449
v -0.01470264 0.04073277 0.01748639
v -0.01470264 0.04060479 0.01773868
v -0.02544895 0.04167128 0.01644796
v -0.01470264 0.04176644 0.01562527
v -0.01470264 0.04147111 0.01614814
v -0.01470264 0.04125289 0.01654303
v -0.01470264 0.04109374 0.03450336
v -0.01470264 0.04136282 0.03483975
v -0.01470264 0.04188622 0.03544306
v -0.02544895 0.04075574 0.03335890
v -0.02544895 0.04195677 0.01604210
v -0.01470264 0.04251955 0.01451006
v -0.01470264 0.04221109 0.01494883
v -0.01470264 0.04183208 0.01551192
v -0.02544895 0.04172543 0.03444486
v -0.02544895 0.04131852 0.03399512
v -0.02544895 0.04111671 0.03376842
v -0.01470264 0.04247525 0.03601712
v -0.02544895 0.04208475 0.01586293
v -0.01470264 0.04280996 0.01411882
v -0.02544895 0.04192560 0.03463865
v -0.01470264 0.04308068 0.03659118
v -0.02544895 0.04271972 0.01502196
v -0.02544895 0.04312334 0.01451372
v -0.01470264 0.04328578 0.01353380
v -0.02544895 0.04237844 0.03505914
v -0.02544895 0.04293138 0.03553447
v -0.02544895 0.04256385 0.03522733
v -0.01470264 0.04364018 0.03701532
v -0.02544895 0.04368776 0.01385922
v -0.01470264 0.04436703 0.01225039
v -0.01470264 0.04390926 0.01278789
v -0.01470264 0.04358111 0.01317912
v -0.02544895 0.04307084 0.03563685
v -0.01470264 0.04406513 0.03732246
v -0.02544895 0.04359752 0.03602078
v -0.02544895 0.04466729 0.01280617
v -0.01470264 0.04493801 0.01162149
v -0.01470264 0.04457212 0.01202369
v -0.01470264 0.04448680 0.03761498
v -0.02544895 0.04433094 0.03654364
v -0.02544895 0.04386332 0.03621091
v -0.02544895 0.04480675 0.01265625
v -0.01470264 0.04549915 0.01102549
v -0.01470264 0.04477722 0.03780145
v -0.02544895 0.04450814 0.03665699
v -0.02544895 0.04512014 0.01232718
v -0.02544895 0.04583878 0.01159224
v -0.01470264 0.04565994 0.01086461
v -0.01470264 0.04507255 0.03798427
v -0.01470264 0.04599137 0.03854736
v -0.02544895 0.04491504 0.03689832
v -0.02544895 0.05396705 0.00360662
v -0.01470264 0.04639664 0.01013698
v -0.01470264 0.04608817 0.01044046
v -0.01470264 0.04650657 0.03884719
v -0.02544895 0.04521366 0.03707017
v -0.02544895 0.05506963 0.00360662
v -0.01470264 0.05381118 0.00360662
v -0.01470264 0.04686425 0.00970187
v -0.01470264 0.04668705 0.00986275
v -0.01470264 0.04664111 0.03892032
v -0.02544895 0.04624076 0.03762229
v -0.01470264 0.05506963 0.00360662
v -0.02544895 0.05506963 0.03990755
v -0.01470264 0.04692988 0.03904098
v -0.02544895 0.04656235 0.03778683
v -0.01470264 0.05506963 0.04096060
v -0.02544895 0.05015723 0.03895322
v -0.01470264 0.05006535 0.04012694
v -0.01470264 0.05052640 0.04021469
v -0.01470264 0.04721045 0.03915799
v -0.02544895 0.04707262 0.03799524
v -0.02544895 0.05012606 0.03894591
v -0.02544895 0.04954359 0.03880697
v -0.01470264 0.04941233 0.03996605
v -0.01470264 0.04783885 0.03941393
v -0.02544895 0.04830319 0.03845230
v -0.01470264 0.04830319 0.03959675
v -0.02544895 0.04865923 0.03855467
v -0.01470264 0.04888729 0.03979420
f 1 2 3
f 1 3 4
f 1 4 9
f 1 9 15
f 1 15 14
f 1 14 13
f 1 13 20
f 1 20 19
f 1 19 25
f 1 25 24
f 1 24 29
f 1 29 33
f 1 33 37
f 1 37 42
f 1 42 49
f 1 49 48
f 1 48 53
f 1 53 52
f 1 52 51
f 1 51 61
f 1 61 60
f 1 60 59
f 1 59 67
f 1 67 72
f 1 72 80
f 1 80 79
f 1 79 78
f 1 78 86
f 1 86 85
f 1 85 91
f 1 91 96
f 1 96 102
f 1 102 101
f 1 101 108
f 1 108 107
f 1 107 106
f 1 106 111
f 1 111 115
f 1 115 118
f 1 118 117
f 1 117 123
f 1 123 128
f 1 128 126
f 1 126 124
f 1 124 119
f 1 119 113
f 1 113 109
f 1 109 103
f 1 103 98
f 1 98 97
f 1 97 92
f 1 92 87
f 1 87 82
f 1 82 76
f 1 76 69
f 1 69 65
f 1 65 56
f 1 56 55
f 1 55 54
f 1 54 44
f 1 44 39
f 1 39 34
f 1 34 31
f 1 31 26
f 1 26 21
f 1 21 16
f 1 16 10
f 1 10 6
f 1 6 5
f 1 5 2
f 2 5 6
f 2 6 7
f 2 7 11
f 2 11 17
f 2 17 22
f 2 22 27
f 2 27 30
f 2 30 35
f 2 35 38
f 2 38 43
f 2 43 47
f 2 47 46
f 2 46 45
f 2 45 57
f 2 57 64
f 2 64 63
f 2 63 62
f 2 62 68
f 2 68 73
f 2 73 75
f 2 75 74
f 2 74 81
f 2 81 83
f 2 83 89
f 2 89 88
f 2 88 93
f 2 93 99
f 2 99 104
f 2 104 110
f 2 110 114
f 2 114 120
f 2 120 125
f 2 125 127
f 2 127 122
f 2 122 121
f 2 121 116
f 2 116 112
f 2 112 105
f 2 105 100
f 2 100 95
f 2 95 94
f 2 94 90
f 2 90 84
f 2 84 77
f 2 77 71
f 2 71 70
f 2 70 66
f 2 66 58
f 2 58 50
f 2 50 41
f 2 41 40
f 2 40 36
f 2 36 32
f 2 32 28
f 2 28 23
f 2 23 18
f 2 18 12
f 2 12 8
f 2 8 3
f 3 8 4
f 4 8 9
f 6 10 11
f 6 11 7
f 8 12 13
f 8 13 14
f 8 14 15
f 8 15 9
f 10 16 11
f 11 16 17
f 12 18 19
f 12 19 20
f 12 20 13
f 16 21 22
f 16 22 17
f 18 23 24
f 18 24 25
f 18 25 19
f 21 26 27
f 21 27 22
f 23 28 24
f 24 28 29
f 26 30 27
f 26 31 30
f 28 32 29
f 29 32 33
f 30 31 34
f 30 34 35
f 32 36 33
f 33 36 37
f 34 38 35
f 34 39 38
f 36 40 37
f 37 40 41
f 37 41 42
f 38 39 43
f 39 44 45
f 39 45 46
f 39 46 47
f 39 47 43
f 41 48 49
f 41 49 42
f 41 50 51
f 41 51 52
f 41 52 53
f 41 53 48
f 44 54 45
f 45 54 55
f 45 55 56
f 45 56 57
f 50 58 59
f 50 59 60
f 50 60 61
f 50 61 51
f 56 62 63
f 56 63 64
f 56 64 57
f 56 65 62
f 58 66 59
f 59 66 67
f 62 65 68
f 65 69 68
f 66 70 67
f 67 70 71
f 67 71 72
f 68 69 73
f 69 74 75
f 69 75 73
f 69 76 74
f 71 77 78
f 71 78 79
f 71 79 80
f 71 80 72
f 74 76 81
f 76 82 83
f 76 83 81
f 77 84 85
f 77 85 86
f 77 86 78
f 82 87 88
f 82 88 89
f 82 89 83
f 84 90 85
f 85 90 91
f 87 92 88
f 88 92 93
f 90 94 91
f 91 94 95
f 91 95 96
f 92 97 93
f 93 97 98
f 93 98 99
f 95 100 101
f 95 101 102
f 95 102 96
f 98 103 99
f 99 103 104
f 100 105 111
f 100 111 106
f 100 106 107
f 100 107 108
f 100 108 101
f 103 109 104
f 104 109 110
f 105 112 115
f 105 115 111
f 109 113 114
f 109 114 110
f 112 116 117
f 112 117 118
f 112 118 115
f 113 119 114
f 114 119 120
f 116 121 117
f 117 121 122
f 117 122 123
f 119 124 120
f 120 124 126
f 120 126 125
f 122 127 123
f 123 127 125
f 123 125 128
f 125 126 128

