# https://github.com/mikedh/trimesh
v 0.01709535 0.00741139 0.04600500
v 0.01784520 0.02317466 0.04600500
v 0.01962786 0.00741139 0.04600500
v 0.01702643 0.00741139 0.05235715
v 0.02035927 0.02317466 0.04600500
v 0.01796508 0.02317466 0.07578457
v 0.01989479 0.00855784 0.04600500
v 0.02198467 0.00772770 0.06320731
v 0.02198467 0.00742373 0.06409318
v 0.02179781 0.00741139 0.06409318
v 0.01725454 0.00741139 0.07578457
v 0.02040392 0.02317466 0.04648570
v 0.02044080 0.02254666 0.04600500
v 0.01801361 0.02317466 0.07645068
v 0.01998555 0.00911332 0.04600500
v 0.02014717 0.01028291 0.04600500
v 0.02041411 0.01234744 0.04600500
v 0.02050972 0.01323466 0.04600500
v 0.02061164 0.01440426 0.04600500
v 0.02198467 0.00782646 0.06313177
v 0.02198467 0.00741139 0.07763871
v 0.01739626 0.00741139 0.07695199
v 0.02198467 0.02315151 0.06358157
v 0.02198467 0.02317466 0.06365711
v 0.02054078 0.02141564 0.04600500
v 0.02198467 0.02273645 0.06307683
v 0.01803448 0.02317466 0.07652622
v 0.02065775 0.01495819 0.04600500
v 0.02198467 0.00855321 0.06268197
v 0.02070434 0.01557076 0.04600500
v 0.02198467 0.00741139 0.08106887
v 0.01740160 0.00741139 0.07696915
v 0.01817475 0.02317466 0.07703096
v 0.02198467 0.02317466 0.08095899
v 0.02066212 0.01963348 0.04600500
v 0.02198467 0.02171344 0.06245535
v 0.02072618 0.01846388 0.04600500
v 0.02198467 0.00877231 0.06265793
v 0.02073589 0.01612624 0.04600500
v 0.02076453 0.01674036 0.04600500
v 0.02198467 0.00830479 0.08108260
v 0.02147312 0.00741139 0.08106200
v 0.01780103 0.00741139 0.07814001
v 0.01855234 0.02317466 0.07812284
v 0.02197933 0.02317466 0.08095899
v 0.02198467 0.02159154 0.06239355
v 0.02075530 0.01790995 0.04600500
v 0.02198467 0.00972743 0.06256866
v 0.02198467 0.02129991 0.06235921
v 0.02090042 0.00741139 0.08092122
v 0.01804807 0.00741139 0.07865505
v 0.01899934 0.02317466 0.07900528
v 0.02095769 0.02317466 0.08063623
v 0.02088004 0.00741139 0.08091435
v 0.01846692 0.00741139 0.07922159
v 0.01921871 0.02317466 0.07929713
v 0.02003312 0.02317466 0.08013836
v 0.01978705 0.00741139 0.08042678
v 0.01981568 0.00741139 0.08044052
v 0.01849022 0.00741139 0.07925249
v 0.01944925 0.02317466 0.07958899
v 0.01909592 0.00741139 0.07997355
v 0.01910612 0.00741139 0.07998041
f 1 2 5
f 1 5 13
f 1 13 25
f 1 25 35
f 1 35 37
f 1 37 47
f 1 47 40
f 1 40 39
f 1 39 30
f 1 30 28
f 1 28 19
f 1 19 18
f 1 18 17
f 1 17 16
f 1 16 15
f 1 15 7
f 1 7 3
f 1 3 10
f 1 10 21
f 1 21 31
f 1 31 42
f 1 42 50
f 1 50 54
f 1 54 59
f 1 59 58
f 1 58 63
f 1 63 62
f 1 62 60
f 1 60 55
f 1 55 51
f 1 51 43
f 1 43 32
f 1 32 22
f 1 22 11
f 1 11 4
f 1 4 2
f 2 4 6
f 2 6 14
f 2 14 27
f 2 27 33
f 2 33 44
f 2 44 52
f 2 52 56
f 2 56 61
f 2 61 57
f 2 57 53
f 2 53 45
f 2 45 34
f 2 34 24
f 2 24 12
f 2 12 5
f 3 7 8
f 3 8 9
f 3 9 10
f 4 11 6
f 5 12 13
f 6 11 14
f 7 15 8
f 8 15 16
f 8 16 17
f 8 17 18
f 8 18 19
f 8 19 20
f 8 20 29
f 8 29 38
f 8 38 48
f 8 48 49
f 8 49 46
f 8 46 36
f 8 36 26
f 8 26 23
f 8 23 24
f 8 24 34
f 8 34 41
f 8 41 31
f 8 31 21
f 8 21 9
f 9 21 10
f 11 22 14
f 12 23 13
f 12 24 23
f 13 23 26
f 13 26 25
f 14 22 27
f 19 28 20
f 20 28 30
f 20 30 29
f 22 32 33
f 22 33 27
f 25 26 35
f 26 36 37
f 26 37 35
f 29 30 39
f 29 39 40
f 29 40 38
f 31 41 42
f 32 43 33
f 33 43 44
f 34 45 41
f 36 46 47
f 36 47 37
f 38 40 48
f 40 47 49
f 40 49 48
f 41 45 42
f 42 45 50
f 43 51 44
f 44 51 52
f 45 53 50
f 46 49 47
f 50 53 54
f 51 55 52
f 52 55 56
f 53 57 58
f 53 58 59
f 53 59 54
f 55 60 56
f 56 60 61
f 57 61 62
f 57 62 63
f 57 63 58
f 60 62 61

