# https://github.com/mikedh/trimesh
v -0.03742879 -0.01714359 0.04220949
v -0.03742879 -0.02047190 0.04220949
v -0.03742879 -0.01788817 0.04600500
v -0.03188603 -0.01992382 0.04600500
v -0.03188603 -0.01988983 0.04554505
v -0.03188603 -0.01988505 0.04547186
v -0.03188603 -0.01987974 0.04539050
v -0.03188603 -0.01986806 0.04445722
v -0.03188603 -0.01986700 0.04422130
v -0.03188603 -0.01988399 0.04220949
v -0.03742879 -0.02052820 0.04539050
v -0.03716728 -0.02058502 0.04220949
v -0.03575500 -0.02125950 0.04471469
v -0.03577399 -0.02126800 0.04539050
v -0.03742879 -0.02053563 0.04600500
v -0.03188603 -0.02256863 0.04600500
v -0.03188603 -0.02252720 0.04220949
v -0.03712062 -0.02060520 0.04220949
v -0.03567687 -0.02122711 0.04220949
v -0.03509254 -0.02145175 0.04220949
v -0.03398681 -0.02184051 0.04220949
v -0.03515548 -0.02148203 0.04539050
v -0.03577128 -0.02126641 0.04600500
v -0.03213018 -0.02250596 0.04600500
v -0.03188603 -0.02254632 0.04305285
v -0.03188603 -0.02254314 0.04275489
v -0.03226148 -0.02243267 0.04228416
v -0.03216219 -0.02245604 0.04220949
v -0.03234775 -0.02240028 0.04220949
v -0.03231845 -0.02245551 0.04600500
f 1 2 11
f 1 11 15
f 1 15 3
f 1 3 4
f 1 4 5
f 1 5 6
f 1 6 7
f 1 7 8
f 1 8 9
f 1 9 10
f 1 10 17
f 1 17 28
f 1 28 29
f 1 29 21
f 1 21 20
f 1 20 19
f 1 19 18
f 1 18 12
f 1 12 2
f 2 12 13
f 2 13 14
f 2 14 11
f 3 15 23
f 3 23 30
f 3 30 24
f 3 24 16
f 3 16 4
f 4 16 25
f 4 25 26
f 4 26 17
f 4 17 10
f 4 10 9
f 4 9 8
f 4 8 7
f 4 7 6
f 4 6 5
f 11 14 15
f 12 18 13
f 13 19 20
f 13 20 14
f 13 18 19
f 14 20 21
f 14 21 22
f 14 22 23
f 14 23 15
f 16 24 25
f 17 26 27
f 17 27 28
f 21 29 27
f 21 27 22
f 22 30 23
f 22 27 30
f 24 30 25
f 25 30 27
f 25 27 26
f 27 29 28

