# https://github.com/mikedh/trimesh
v -0.03514011 0.03333553 0.03010561
v -0.03514266 0.03499834 0.03259572
v -0.03514266 0.03464107 0.03218901
v -0.03514266 0.03414237 0.03152912
v -0.03514266 0.03411334 0.03148762
v -0.03514266 0.03406645 0.03141707
v -0.03514266 0.03366228 0.03076549
v -0.03985331 0.02739508 0.03119711
v -0.03950409 0.02739508 0.03018446
v -0.03931291 0.02739508 0.02937517
v -0.03923644 0.02739508 0.02902241
v -0.03514266 0.03305492 0.02915106
v -0.03514266 0.03304003 0.02905561
v -0.03514266 0.03285990 0.02785205
v -0.03514266 0.03274900 0.02668585
v -0.03514266 0.03280631 0.02551549
v -0.03514266 0.03302812 0.02428704
v -0.03514266 0.03327375 0.02326194
v -0.03514266 0.03342931 0.02275976
v -0.03514266 0.03367196 0.02201273
v -0.03514266 0.03419299 0.02087142
v -0.03514266 0.03422350 0.02080502
v -0.03514266 0.03475570 0.01967202
v -0.03514266 0.03499834 0.01919475
v -0.03518599 0.03499834 0.03264138
v -0.04273630 0.02739508 0.03546766
v -0.04217296 0.02739508 0.03481608
v -0.04165550 0.02739508 0.03418940
v -0.04133432 0.02739508 0.03374948
v -0.04129863 0.02739508 0.03369968
v -0.04127569 0.02739508 0.03366647
v -0.04060019 0.02739508 0.03265383
v -0.04053901 0.02739508 0.03255007
v -0.04030704 0.02739508 0.03214335
v -0.03995528 0.02739508 0.03144197
v -0.03918801 0.02739508 0.02869454
v -0.03907075 0.02739508 0.02785205
v -0.03906566 0.02739508 0.02778980
v -0.03898664 0.02739508 0.02668585
v -0.03891271 0.02739508 0.02550304
v -0.03891016 0.02739508 0.02434929
v -0.03905546 0.02739508 0.02325779
v -0.03912173 0.02739508 0.02300047
v -0.03938174 0.02739508 0.02211648
v -0.03982017 0.02739508 0.02083822
v -0.03986606 0.02739508 0.02070957
v -0.04065881 0.02739508 0.01852241
v -0.04067666 0.02739508 0.01847676
v -0.04116608 0.02739508 0.01727736
v -0.04126039 0.02739508 0.01709475
v -0.04137255 0.02739508 0.01687894
v -0.04163510 0.02739508 0.01638091
v -0.03541031 0.03499834 0.01869257
v -0.03539756 0.03499834 0.03285719
v -0.04330474 0.02739508 0.03600303
v -0.03567541 0.03499834 0.03313940
v -0.04180079 0.02739508 0.01608625
v -0.03576718 0.03499834 0.01811570
v -0.04395474 0.02739508 0.03659651
v -0.03674856 0.03499834 0.03414790
v -0.04248394 0.02739508 0.01498645
v -0.04321042 0.02739508 0.01396135
v -0.04331748 0.02739508 0.01381194
v -0.03633817 0.03499834 0.01733546
v -0.04435749 0.02739508 0.03691193
v -0.03690151 0.03499834 0.03428070
v -0.04396749 0.02739508 0.01297776
v -0.03683013 0.03499834 0.01667558
v -0.04440593 0.02739508 0.03694928
v -0.03835192 0.03499834 0.03535975
v -0.04526241 0.02739508 0.03759256
v -0.04423514 0.02739508 0.01263744
v -0.03731955 0.03499834 0.01606135
v -0.03913193 0.03499834 0.03592418
v -0.04581556 0.02739508 0.03797023
v -0.04489025 0.02739508 0.01182400
v -0.03788034 0.03499834 0.01537657
v -0.04494378 0.02739508 0.01175760
v -0.04009802 0.03499834 0.03657991
v -0.05867810 0.02739508 0.04600500
v -0.04047528 0.03499834 0.03682477
v -0.03841310 0.03499834 0.01477479
v -0.04537967 0.02739508 0.01123882
v -0.05578237 0.03499834 0.04600500
v -0.06116852 0.02739508 0.04600500
v -0.03898409 0.03499834 0.01413981
v -0.04597360 0.02739508 0.01057894
v -0.05865006 0.03499834 0.04600500
v -0.06093656 0.02843192 0.04600500
v -0.06118127 0.02739508 0.04187971
v -0.03953468 0.03499834 0.01354633
v -0.04651910 0.02739508 0.01000622
v -0.05905790 0.03409548 0.04600500
v -0.05866280 0.03499834 0.04071350
v -0.05893810 0.03441182 0.04071350
v -0.06077852 0.02904599 0.04600500
v -0.06067146 0.02960051 0.03954315
v -0.06094166 0.02843192 0.04187971
v -0.06115833 0.02739508 0.03499869
v -0.04011587 0.03499834 0.01293625
v -0.04709009 0.02739508 0.00944179
v -0.04128078 0.03499834 0.01176590
v -0.04069195 0.03499834 0.01235108
v -0.05917516 0.03381859 0.04600500
v -0.05915732 0.03376872 0.03720659
v -0.05791083 0.03499834 0.01060384
v -0.05796691 0.03489488 0.01069100
v -0.05945556 0.03310702 0.03954315
v -0.05917261 0.03382752 0.04071350
v -0.05946575 0.03310702 0.04600500
v -0.06062303 0.02960051 0.04600500
v -0.06020498 0.03104599 0.04600500
v -0.06039871 0.03048923 0.03954315
v -0.06065616 0.02960051 0.03837280
v -0.06092381 0.02843192 0.03603624
v -0.06090852 0.02843192 0.03486588
v -0.06115578 0.02739508 0.03486588
v -0.04311611 0.03499834 0.01006432
v -0.04242276 0.03499834 0.01067440
v -0.04187726 0.03499834 0.01118902
v -0.04777833 0.02739508 0.00884831
v -0.05985066 0.03193769 0.03720659
v -0.05987870 0.03193769 0.03837280
v -0.05943262 0.03310702 0.03837280
v -0.05873672 0.03310702 0.01032163
v -0.05906555 0.03236865 0.01149199
v -0.05782671 0.03499834 0.00915128
v -0.05817083 0.03414833 0.00798507
v -0.05820397 0.03421829 0.00915128
v -0.05989400 0.03193769 0.03954315
v -0.05991184 0.03193769 0.04600500
v -0.05967733 0.03255250 0.04600500
v -0.06019224 0.03103110 0.03720659
v -0.06035537 0.03036121 0.03369968
v -0.06041910 0.02828157 0.00915128
v -0.06064087 0.02739508 0.00915128
v -0.04372278 0.03499834 0.00959535
v -0.04835952 0.02739508 0.00838764
v -0.05868574 0.03310702 0.00915128
v -0.05925418 0.03168908 0.00915128
v -0.05904771 0.03232399 0.01032163
v -0.05962634 0.03076984 0.01032163
v -0.05778083 0.03499834 0.00842084
v -0.05788534 0.03473262 0.00798507
v -0.05860163 0.03310702 0.00798507
v -0.05809946 0.03399797 0.00681472
v -0.05847672 0.03310702 0.00681472
v -0.06002910 0.02960051 0.01032163
v -0.06024322 0.02886660 0.00915128
v -0.06038596 0.02816992 0.00798507
v -0.06057459 0.02739508 0.00798507
v -0.04449260 0.03499834 0.00901847
v -0.04924914 0.02739508 0.00775266
v -0.04500750 0.03499834 0.00864080
v -0.05922614 0.03159530 0.00798507
v -0.05959321 0.03076984 0.00915128
v -0.05999851 0.02960051 0.00915128
v -0.05775024 0.03499834 0.00798507
v -0.05760495 0.03499834 0.00681472
v -0.05742396 0.03499834 0.00564436
v -0.05772220 0.03438428 0.00564436
v -0.05800260 0.03379924 0.00564436
v -0.05830339 0.03310702 0.00564436
v -0.05911398 0.03133925 0.00626689
v -0.05917261 0.03147025 0.00704713
v -0.06020498 0.02875421 0.00798507
v -0.06016929 0.02839843 0.00671096
v -0.06033244 0.02798607 0.00703468
v -0.06044969 0.02739508 0.00672341
v -0.06045224 0.02739508 0.00674831
v -0.04940208 0.02739508 0.00764891
v -0.04521398 0.03499834 0.00850800
v -0.05011326 0.02739508 0.00717578
v -0.05952438 0.03076984 0.00798507
v -0.05718180 0.03499834 0.00456946
v -0.05795162 0.03369429 0.00505918
v -0.05809946 0.03308618 0.00459021
v -0.05876222 0.03193769 0.00564436
v -0.05961360 0.02960051 0.00564436
v -0.05980223 0.02960051 0.00681472
v -0.05934595 0.03087777 0.00671926
v -0.06028655 0.02783572 0.00625444
v -0.06043694 0.02739508 0.00662796
v -0.04568555 0.03499834 0.00821748
v -0.05396744 0.03195927 0.00360662
v -0.05375842 0.03267680 0.00360662
v -0.05582060 0.02739508 0.00361077
v -0.05409744 0.03161390 0.00360662
v -0.05688101 0.03499834 0.00363982
v -0.05803573 0.03268201 0.00371452
v -0.05850221 0.03193769 0.00447816
v -0.06001380 0.02843192 0.00564436
v -0.05974615 0.02843192 0.00447816
v -0.06030439 0.02739508 0.00564436
v -0.05350861 0.03380892 0.00360662
v -0.05340155 0.03499834 0.00360662
v -0.05606531 0.02739508 0.00360662
v -0.05686826 0.03499834 0.00360662
v -0.05792612 0.03278919 0.00360662
v -0.05800769 0.03261874 0.00360662
v -0.05806123 0.03246690 0.00360662
v -0.05922105 0.02921644 0.00368962
v -0.06008772 0.02739508 0.00463171
v -0.06005204 0.02739508 0.00447816
v -0.05971811 0.02739508 0.00360662
v -0.05920065 0.02915912 0.00360662
v -0.05975890 0.02739508 0.00371037
v -0.05923889 0.02903184 0.00360662
v -0.05966968 0.02756404 0.00360662
f 1 2 3
f 1 3 4
f 1 4 5
f 1 5 6
f 1 6 7
f 1 7 8
f 1 8 9
f 1 9 10
f 1 10 11
f 1 11 12
f 1 12 13
f 1 13 14
f 1 14 15
f 1 15 16
f 1 16 17
f 1 17 18
f 1 18 19
f 1 19 20
f 1 20 21
f 1 21 22
f 1 22 23
f 1 23 24
f 1 24 2
f 2 25 26
f 2 26 27
f 2 27 28
f 2 28 29
f 2 29 30
f 2 30 31
f 2 31 32
f 2 32 3
f 2 24 53
f 2 53 58
f 2 58 64
f 2 64 68
f 2 68 73
f 2 73 77
f 2 77 82
f 2 82 86
f 2 86 91
f 2 91 100
f 2 100 103
f 2 103 102
f 2 102 120
f 2 120 119
f 2 119 118
f 2 118 137
f 2 137 152
f 2 152 154
f 2 154 172
f 2 172 184
f 2 184 196
f 2 196 198
f 2 198 189
f 2 189 175
f 2 175 160
f 2 160 159
f 2 159 158
f 2 158 143
f 2 143 127
f 2 127 106
f 2 106 94
f 2 94 88
f 2 88 84
f 2 84 81
f 2 81 79
f 2 79 74
f 2 74 70
f 2 70 66
f 2 66 60
f 2 60 56
f 2 56 54
f 2 54 25
f 3 32 33
f 3 33 34
f 3 34 4
f 4 34 5
f 5 35 6
f 5 34 35
f 6 35 7
f 7 35 8
f 8 35 34
f 8 34 33
f 8 33 32
f 8 32 31
f 8 31 30
f 8 30 29
f 8 29 28
f 8 28 27
f 8 27 26
f 8 26 55
f 8 55 59
f 8 59 65
f 8 65 69
f 8 69 71
f 8 71 75
f 8 75 80
f 8 80 85
f 8 85 90
f 8 90 99
f 8 99 117
f 8 117 136
f 8 136 151
f 8 151 170
f 8 170 169
f 8 169 183
f 8 183 194
f 8 194 203
f 8 203 204
f 8 204 207
f 8 207 205
f 8 205 197
f 8 197 187
f 8 187 173
f 8 173 171
f 8 171 153
f 8 153 138
f 8 138 121
f 8 121 101
f 8 101 92
f 8 92 87
f 8 87 83
f 8 83 78
f 8 78 76
f 8 76 72
f 8 72 67
f 8 67 63
f 8 63 62
f 8 62 61
f 8 61 57
f 8 57 52
f 8 52 51
f 8 51 50
f 8 50 49
f 8 49 48
f 8 48 47
f 8 47 46
f 8 46 45
f 8 45 44
f 8 44 43
f 8 43 42
f 8 42 41
f 8 41 40
f 8 40 39
f 8 39 38
f 8 38 37
f 8 37 36
f 8 36 11
f 8 11 10
f 8 10 9
f 11 36 12
f 12 36 37
f 12 37 13
f 13 37 14
f 14 37 38
f 14 38 39
f 14 39 15
f 15 39 40
f 15 40 41
f 15 41 16
f 16 41 17
f 17 41 42
f 17 42 18
f 18 42 19
f 19 42 20
f 20 42 43
f 20 43 44
f 20 44 21
f 21 44 22
f 22 44 23
f 23 44 45
f 23 45 24
f 24 45 46
f 24 46 47
f 24 47 48
f 24 48 49
f 24 49 50
f 24 50 51
f 24 51 52
f 24 52 53
f 25 54 26
f 26 54 56
f 26 56 55
f 52 57 53
f 53 57 58
f 55 56 60
f 55 60 59
f 57 61 58
f 58 61 62
f 58 62 63
f 58 63 64
f 59 60 66
f 59 66 65
f 63 67 68
f 63 68 64
f 65 66 69
f 66 70 71
f 66 71 69
f 67 72 68
f 68 72 73
f 70 74 71
f 71 74 75
f 72 76 73
f 73 76 78
f 73 78 77
f 74 79 75
f 75 79 81
f 75 81 80
f 77 78 83
f 77 83 82
f 80 84 88
f 80 88 93
f 80 93 104
f 80 104 110
f 80 110 132
f 80 132 131
f 80 131 112
f 80 112 111
f 80 111 96
f 80 96 89
f 80 89 85
f 80 81 84
f 82 83 86
f 83 87 86
f 85 89 90
f 86 87 91
f 87 92 91
f 88 94 95
f 88 95 93
f 89 96 97
f 89 97 98
f 89 98 90
f 90 98 97
f 90 97 99
f 91 92 100
f 92 101 102
f 92 102 103
f 92 103 100
f 93 95 104
f 94 105 95
f 94 106 107
f 94 107 105
f 95 105 108
f 95 108 109
f 95 109 110
f 95 110 104
f 96 111 97
f 97 111 112
f 97 112 113
f 97 113 114
f 97 114 116
f 97 116 115
f 97 115 99
f 99 115 116
f 99 116 117
f 101 118 119
f 101 119 120
f 101 120 102
f 101 121 118
f 105 122 123
f 105 123 124
f 105 124 108
f 105 107 125
f 105 125 126
f 105 126 122
f 106 127 107
f 107 127 128
f 107 128 129
f 107 129 125
f 108 124 123
f 108 123 130
f 108 130 131
f 108 131 132
f 108 132 110
f 108 110 109
f 112 131 113
f 113 131 130
f 113 130 133
f 113 133 134
f 113 134 114
f 114 134 116
f 116 134 135
f 116 135 136
f 116 136 117
f 118 121 138
f 118 138 137
f 122 133 123
f 122 126 133
f 123 133 130
f 125 129 139
f 125 139 140
f 125 140 141
f 125 141 126
f 126 141 140
f 126 140 142
f 126 142 134
f 126 134 133
f 127 143 144
f 127 144 128
f 128 145 139
f 128 139 129
f 128 144 146
f 128 146 147
f 128 147 145
f 134 142 148
f 134 148 149
f 134 149 135
f 135 149 150
f 135 150 136
f 136 150 151
f 137 138 152
f 138 153 154
f 138 154 152
f 139 145 155
f 139 155 140
f 140 155 156
f 140 156 142
f 142 156 157
f 142 157 148
f 143 158 144
f 144 159 146
f 144 158 159
f 145 147 155
f 146 160 161
f 146 161 162
f 146 162 163
f 146 163 147
f 146 159 160
f 147 163 164
f 147 164 165
f 147 165 155
f 148 157 149
f 149 157 166
f 149 166 150
f 150 166 167
f 150 167 168
f 150 168 169
f 150 169 170
f 150 170 151
f 153 171 154
f 154 171 173
f 154 173 172
f 155 174 156
f 155 165 174
f 156 174 157
f 157 174 166
f 160 175 176
f 160 176 161
f 161 176 162
f 162 176 163
f 163 176 177
f 163 177 178
f 163 178 164
f 164 178 179
f 164 179 180
f 164 180 181
f 164 181 165
f 165 181 174
f 166 174 180
f 166 180 167
f 167 180 182
f 167 182 168
f 168 182 169
f 169 182 183
f 172 173 185
f 172 185 186
f 172 186 184
f 173 187 188
f 173 188 185
f 174 181 180
f 175 189 190
f 175 190 176
f 176 190 177
f 177 190 191
f 177 191 178
f 178 191 179
f 179 192 180
f 179 191 193
f 179 193 192
f 180 192 182
f 182 192 194
f 182 194 183
f 184 186 195
f 184 195 196
f 185 188 197
f 185 197 205
f 185 205 209
f 185 209 208
f 185 208 206
f 185 206 201
f 185 201 200
f 185 200 199
f 185 199 198
f 185 198 196
f 185 196 195
f 185 195 186
f 187 197 188
f 189 198 190
f 190 198 199
f 190 199 200
f 190 200 201
f 190 201 202
f 190 202 193
f 190 193 191
f 192 193 203
f 192 203 194
f 193 202 204
f 193 204 203
f 201 206 202
f 202 207 204
f 202 206 208
f 202 208 209
f 202 209 207
f 205 207 209

