# https://github.com/mikedh/trimesh
v 0.04316996 0.00664302 0.05707969
v 0.04423034 0.00668681 0.05591297
v 0.04405030 0.00669285 0.05707969
v 0.04317938 0.00669738 0.05829510
v 0.04194000 0.00673211 0.05936848
v 0.04110572 0.00674570 0.05941718
v 0.04129414 0.00675779 0.05863802
v 0.04606011 0.00679554 0.04600500
v 0.04617525 0.00679554 0.04600500
v 0.04614699 0.00678195 0.04889846
v 0.04612501 0.00678799 0.05006721
v 0.04610512 0.00679705 0.05076521
v 0.04390166 0.00672456 0.05793596
v 0.04150977 0.00677289 0.06013142
v 0.04112456 0.00677289 0.06013142
v 0.03966326 0.00697674 0.06058796
v 0.04575340 0.00689671 0.04600500
v 0.03921001 0.00710359 0.06058796
v 0.04645265 0.00681819 0.04600500
v 0.04676040 0.00688614 0.04600500
v 0.04783544 0.00750979 0.04600500
v 0.04774856 0.00750526 0.04656097
v 0.04768156 0.00758832 0.04772971
v 0.04757793 0.00767741 0.04889846
v 0.04746907 0.00776348 0.05006721
v 0.04667771 0.00734067 0.05127654
v 0.04481445 0.00685141 0.05591297
v 0.04463440 0.00701751 0.05707969
v 0.04436433 0.00733161 0.05829916
v 0.04357506 0.00685594 0.05871512
v 0.04194000 0.00714436 0.06054738
v 0.04083146 0.00732859 0.06175671
v 0.03966326 0.00713681 0.06175671
v 0.03921001 0.00712624 0.06175671
v 0.04547601 0.00699788 0.04600500
v 0.03921001 0.00755811 0.05948211
v 0.04116120 0.00989568 0.04600500
v 0.04136113 0.00958914 0.04600500
v 0.04154431 0.00931129 0.04600500
v 0.04182171 0.00902136 0.04600500
v 0.04212842 0.00871331 0.04600500
v 0.04248641 0.00840525 0.04600500
v 0.04284232 0.00812891 0.04600500
v 0.04311972 0.00797338 0.04600500
v 0.04342642 0.00781180 0.04600500
v 0.04433921 0.00741919 0.04600500
v 0.04836720 0.00806247 0.04600500
v 0.04826671 0.00821348 0.04772971
v 0.04736963 0.00785409 0.05100870
v 0.04626632 0.00778764 0.05474422
v 0.04557126 0.00749922 0.05590282
v 0.04523734 0.00760191 0.05707969
v 0.04615118 0.00790090 0.05550716
v 0.04400110 0.00769100 0.05941718
v 0.04504055 0.00780727 0.05788523
v 0.04378965 0.00793563 0.06004822
v 0.04262773 0.00793865 0.06121494
v 0.04190755 0.00775140 0.06166540
v 0.04145534 0.00794469 0.06237557
v 0.04083146 0.00783596 0.06253384
v 0.03921001 0.00790996 0.06339417
v 0.03956486 0.00772422 0.06294168
v 0.03921001 0.00763815 0.06293560
v 0.03921001 0.00804737 0.05886933
v 0.04025783 0.01248542 0.04600500
v 0.04034471 0.01205808 0.04600500
v 0.04068177 0.01089684 0.04600500
v 0.04089532 0.01044987 0.04600500
v 0.04848863 0.00825576 0.04600500
v 0.04870112 0.00869519 0.04656097
v 0.04863099 0.00879787 0.04772971
v 0.04724925 0.00799301 0.05178786
v 0.04853364 0.00895492 0.04866309
v 0.04716550 0.00813043 0.05240673
v 0.04704722 0.00855475 0.05364447
v 0.04723773 0.00920709 0.05408072
v 0.04600463 0.00816516 0.05628632
v 0.04482596 0.00815308 0.05866440
v 0.04582668 0.00855626 0.05707563
v 0.04524153 0.00854871 0.05826467
v 0.04456845 0.00854871 0.05940704
v 0.04396865 0.00855928 0.06032824
v 0.04375406 0.00914367 0.06117030
v 0.04349446 0.00855928 0.06091261
v 0.04169296 0.00855928 0.06259674
v 0.04129518 0.00927656 0.06342663
v 0.04051534 0.00893226 0.06368635
v 0.03921001 0.00917085 0.06466437
v 0.03921001 0.00899720 0.06450813
v 0.03988936 0.00815157 0.06334344
v 0.03921001 0.00798697 0.06349968
v 0.03921001 0.00817875 0.05873136
v 0.04023899 0.01260170 0.04600500
v 0.04869380 0.00859552 0.04600500
v 0.04895340 0.00918595 0.04600500
v 0.04914600 0.00972806 0.04656097
v 0.04899736 0.00972806 0.04772971
v 0.04871578 0.00962689 0.04899180
v 0.04858807 0.00995457 0.05006721
v 0.04734450 0.00894283 0.05330155
v 0.04848025 0.01019920 0.05079565
v 0.04840384 0.01163224 0.05288356
v 0.04725448 0.01033057 0.05531034
v 0.04716236 0.01059785 0.05591297
v 0.04680122 0.00972806 0.05591297
v 0.04635739 0.00971296 0.05707563
v 0.04619619 0.01009350 0.05787103
v 0.04503008 0.00893226 0.05901137
v 0.04500286 0.01016900 0.06011315
v 0.04581621 0.00971296 0.05825655
v 0.04478304 0.00938981 0.05979053
v 0.04473803 0.01089684 0.06093087
v 0.04489086 0.01155372 0.06112972
v 0.04409322 0.01097235 0.06176685
v 0.04378546 0.01141177 0.06237557
v 0.04265076 0.01137704 0.06357678
v 0.04517035 0.01089684 0.06034650
v 0.04159037 0.01005574 0.06366201
v 0.04142917 0.01146463 0.06468872
v 0.04031226 0.01023997 0.06472118
v 0.03988518 0.00946078 0.06446552
v 0.03956277 0.00980055 0.06488554
v 0.03921001 0.00928109 0.06473741
v 0.03921001 0.00859703 0.05830525
v 0.04023061 0.01274062 0.04600500
v 0.04918683 0.00972806 0.04600500
v 0.04932186 0.01018561 0.04600500
v 0.04946004 0.01099651 0.04646966
v 0.04926743 0.01089684 0.04772971
v 0.04909052 0.01089684 0.04889846
v 0.04887280 0.01089684 0.05006721
v 0.04886337 0.01206563 0.05123596
v 0.04857656 0.01203845 0.05245949
v 0.04846769 0.01241143 0.05312502
v 0.04756956 0.01206563 0.05591297
v 0.04726913 0.01145406 0.05651764
v 0.04692370 0.01099651 0.05697621
v 0.04633855 0.01091195 0.05825655
v 0.04616060 0.01131211 0.05897281
v 0.04599835 0.01053292 0.05865019
v 0.04521327 0.00975826 0.05940704
v 0.04576701 0.01091195 0.05938472
v 0.04536191 0.01199163 0.06067927
v 0.04504055 0.01233291 0.06132451
v 0.04456636 0.01199163 0.06173033
v 0.04391736 0.01206563 0.06251152
v 0.04277428 0.01206563 0.06370665
v 0.04214621 0.01206563 0.06429102
v 0.04596799 0.01206563 0.05977836
v 0.04156211 0.01206563 0.06478611
v 0.04083146 0.01206563 0.06523048
v 0.03999927 0.01206563 0.06570731
v 0.03921001 0.01135288 0.06590210
v 0.03921001 0.01131060 0.06588384
v 0.03961197 0.01092403 0.06548209
v 0.03921001 0.01073376 0.06561803
v 0.03921001 0.00979451 0.06506612
v 0.03921001 0.00972806 0.05802524
v 0.04020654 0.01325555 0.04600500
v 0.04948411 0.01086513 0.04600500
v 0.04960554 0.01144801 0.04600500
v 0.04960449 0.01145255 0.04601921
v 0.04927581 0.01206563 0.04889846
v 0.04908738 0.01206563 0.05006721
v 0.04900573 0.01323441 0.05123596
v 0.04875556 0.01323441 0.05240673
v 0.04851480 0.01323441 0.05326300
v 0.04774332 0.01323441 0.05591297
v 0.04733089 0.01206563 0.05669214
v 0.04710375 0.01206563 0.05727651
v 0.04669655 0.01206563 0.05824844
v 0.04626946 0.01206563 0.05919398
v 0.04513999 0.01323441 0.06144626
v 0.04464591 0.01323441 0.06203063
v 0.04606639 0.01290673 0.05995286
v 0.04406286 0.01323441 0.06267385
v 0.04351121 0.01323441 0.06325822
v 0.04292711 0.01323441 0.06386491
v 0.04233463 0.01323441 0.06444929
v 0.04175053 0.01323441 0.06494032
v 0.04077389 0.01319666 0.06557136
v 0.04019712 0.01278290 0.06581891
v 0.03941517 0.01206563 0.06602993
v 0.03921001 0.01140573 0.06592036
v 0.03921001 0.01949963 0.05856700
v 0.04021072 0.01430202 0.04600500
v 0.04978872 0.01318458 0.04600500
v 0.04970603 0.01313173 0.04666242
v 0.04956367 0.01206563 0.04686736
v 0.04944643 0.01206563 0.04772971
v 0.04959612 0.01267267 0.04712099
v 0.04963485 0.01345186 0.04734013
v 0.04937525 0.01323441 0.04889846
v 0.04919102 0.01323441 0.05006721
v 0.04903923 0.01440168 0.05123596
v 0.04879324 0.01440168 0.05240673
v 0.04982641 0.01440168 0.04656097
v 0.04962647 0.01588758 0.04843786
v 0.04853678 0.01440168 0.05337054
v 0.04787731 0.01557046 0.05591297
v 0.04782183 0.01440168 0.05591297
v 0.04741150 0.01323441 0.05690925
v 0.04719691 0.01323441 0.05749362
v 0.04690067 0.01323441 0.05824844
v 0.04578271 0.01327065 0.06048245
v 0.04515883 0.01440168 0.06151119
v 0.04472024 0.01440168 0.06209556
v 0.04368079 0.01557046 0.06343069
v 0.04413613 0.01440168 0.06276110
v 0.04360647 0.01440168 0.06334547
v 0.04633018 0.01327065 0.05950443
v 0.04610407 0.01368592 0.06002388
v 0.04302132 0.01440168 0.06395216
v 0.04243094 0.01440168 0.06453654
v 0.04184579 0.01440168 0.06503569
v 0.04103768 0.01440168 0.06562006
v 0.04034680 0.01356209 0.06590210
v 0.03975014 0.01319666 0.06614559
v 0.03921001 0.01324498 0.06639720
v 0.03921001 0.01206563 0.06611921
v 0.03921001 0.01995264 0.05860149
v 0.04025678 0.01488188 0.04600500
v 0.03921001 0.02027277 0.05870092
v 0.04984525 0.01378860 0.04600500
v 0.04989759 0.01440168 0.04600500
v 0.04904970 0.01557046 0.05123596
v 0.04879114 0.01557046 0.05240673
v 0.04854516 0.01557046 0.05340504
v 0.04990387 0.01557046 0.04600500
v 0.04962647 0.01645385 0.04843786
v 0.04784381 0.01674076 0.05591297
v 0.04748791 0.01557046 0.05704519
v 0.04745651 0.01440168 0.05699041
v 0.04695719 0.01440168 0.05824844
v 0.04722622 0.01440168 0.05757478
v 0.04610407 0.01414950 0.06002388
v 0.04581202 0.01448322 0.06048245
v 0.04512638 0.01674076 0.06146858
v 0.04475582 0.01557046 0.06208947
v 0.04417277 0.01557046 0.06284632
v 0.04365776 0.01674076 0.06339417
v 0.04307261 0.01674076 0.06402318
v 0.04250002 0.01674076 0.06460755
v 0.04309564 0.01557046 0.06399274
v 0.04635111 0.01448322 0.05953284
v 0.04247071 0.01557046 0.06457712
v 0.04188556 0.01557046 0.06507018
v 0.04111304 0.01557046 0.06565456
v 0.04052790 0.01557046 0.06600964
v 0.04045357 0.01440168 0.06596298
v 0.03966326 0.01440168 0.06639923
v 0.03921001 0.01440168 0.06661634
v 0.04039077 0.01554026 0.04600500
v 0.03921001 0.02060952 0.05900325
v 0.03921001 0.02118334 0.05955313
v 0.04900364 0.01674076 0.05123596
v 0.04874299 0.01674076 0.05240673
v 0.04852108 0.01674076 0.05329141
v 0.04985362 0.01674076 0.04600500
v 0.04980233 0.01674076 0.04656097
v 0.04968091 0.01680267 0.04780479
v 0.04958984 0.01723303 0.04824307
v 0.04766272 0.01790954 0.05591297
v 0.04746174 0.01674076 0.05697012
v 0.04799246 0.01790954 0.05474422
v 0.04724610 0.01557046 0.05762957
v 0.04697080 0.01557046 0.05824844
v 0.04640136 0.01557046 0.05938877
v 0.04608942 0.01492718 0.05999750
v 0.04567489 0.01674076 0.06058796
v 0.04506567 0.01769662 0.06136306
v 0.04470767 0.01674076 0.06205295
v 0.04412462 0.01674076 0.06280979
v 0.04290722 0.01790954 0.06390144
v 0.04234301 0.01790954 0.06448581
v 0.04191592 0.01674076 0.06505801
v 0.04107013 0.01674076 0.06564238
v 0.04048498 0.01674076 0.06597921
v 0.03966326 0.01557046 0.06650068
v 0.03921001 0.01557046 0.06673402
v 0.04058338 0.01618506 0.04600500
v 0.03921001 0.02131924 0.05976821
v 0.04075295 0.01674076 0.04600500
v 0.04909681 0.01790954 0.05006721
v 0.04846455 0.01749125 0.05311894
v 0.04973639 0.01790954 0.04600500
v 0.04960868 0.01851809 0.04718795
v 0.04963590 0.01790954 0.04741724
v 0.04728902 0.01858151 0.05656227
v 0.04736544 0.01790954 0.05673272
v 0.04738009 0.01901490 0.05582572
v 0.04720842 0.01674076 0.05755449
v 0.04882569 0.01790954 0.05123596
v 0.04837976 0.01827044 0.05277399
v 0.04766377 0.01907832 0.05474422
v 0.04689753 0.01674076 0.05824844
v 0.04636472 0.01674076 0.05935022
v 0.04605592 0.01674076 0.05993460
v 0.04597427 0.01790954 0.05978039
v 0.04538284 0.01801524 0.06069753
v 0.04491493 0.01847581 0.06116016
v 0.04382838 0.01867816 0.06243441
v 0.04397493 0.01790954 0.06260486
v 0.04273345 0.01871742 0.06367824
v 0.04152443 0.01862228 0.06475365
v 0.04175891 0.01790954 0.06492003
v 0.04036565 0.01753807 0.06590413
v 0.03966326 0.01674076 0.06640329
v 0.03921001 0.01609747 0.06668938
v 0.03921001 0.02171941 0.06048448
v 0.04119679 0.01768907 0.04600500
v 0.04963066 0.01859057 0.04600500
v 0.04962124 0.01855735 0.04656097
v 0.04941084 0.01917496 0.04600500
v 0.04938048 0.01914174 0.04656097
v 0.04931663 0.01897564 0.04763841
v 0.04903714 0.01907832 0.04889846
v 0.04871369 0.01918402 0.05016663
v 0.04856923 0.01884426 0.05123596
v 0.04846979 0.01859208 0.05199483
v 0.04714666 0.01936221 0.05615849
v 0.04603603 0.01949661 0.05868672
v 0.04616374 0.01871742 0.05898296
v 0.04626109 0.01790954 0.05919601
v 0.04727646 0.01968385 0.05537730
v 0.04579946 0.01909493 0.05939080
v 0.04518396 0.01907832 0.06039114
v 0.04478723 0.01907832 0.06097551
v 0.04415812 0.01907228 0.06180337
v 0.04364938 0.01945734 0.06222542
v 0.04245710 0.01949661 0.06338402
v 0.04199024 0.01905869 0.06409826
v 0.04080948 0.01903755 0.06499714
v 0.04013431 0.01831725 0.06579862
v 0.04118422 0.01940147 0.06452030
v 0.04078540 0.01792011 0.06554296
v 0.03921001 0.01789746 0.06633024
v 0.03921001 0.01732062 0.06648039
v 0.03921001 0.01674076 0.06662242
v 0.03921001 0.02187343 0.06091870
v 0.04274183 0.01954040 0.04600500
v 0.04215459 0.01895450 0.04600500
v 0.04157049 0.01827346 0.04600500
v 0.04909681 0.01972311 0.04600500
v 0.04879638 0.02015348 0.04656097
v 0.04872415 0.02003570 0.04772971
v 0.04863308 0.01992697 0.04889846
v 0.04852422 0.01980466 0.04984401
v 0.04842163 0.01964459 0.05062317
v 0.04633960 0.02024710 0.05702084
v 0.04619410 0.01985600 0.05790755
v 0.04582772 0.02024710 0.05827887
v 0.04525514 0.02021086 0.05939283
v 0.04501124 0.01979560 0.06014156
v 0.04722831 0.02078921 0.05286936
v 0.04612606 0.02086321 0.05659271
v 0.04397179 0.01994509 0.06144626
v 0.04287058 0.01996623 0.06260486
v 0.04167726 0.01993452 0.06374114
v 0.04040438 0.01977295 0.06479220
v 0.03971141 0.01910097 0.06559571
v 0.03935551 0.01872648 0.06596298
v 0.03921001 0.01859359 0.06607863
v 0.03921001 0.02186739 0.06173641
v 0.03992495 0.02206974 0.06131437
v 0.03992495 0.02206974 0.06080101
v 0.04548752 0.02107461 0.04600500
v 0.04486888 0.02086019 0.04600500
v 0.04433188 0.02054458 0.04600500
v 0.04332593 0.01994811 0.04600500
v 0.04304853 0.01975483 0.04600500
v 0.04879324 0.02024861 0.04600500
v 0.04836929 0.02079223 0.04600500
v 0.04731100 0.02087982 0.05208817
v 0.04596485 0.02063519 0.05737187
v 0.04505520 0.02092663 0.05898702
v 0.04554823 0.02110632 0.05702084
v 0.04521955 0.02104139 0.05824844
v 0.04677296 0.02112142 0.05244934
v 0.04363787 0.02072428 0.06101406
v 0.04325370 0.02034526 0.06184193
v 0.04247595 0.02074693 0.06223962
v 0.04113398 0.02071371 0.06336576
v 0.03966326 0.01997076 0.06498699
v 0.03921001 0.01969593 0.06543947
v 0.03921001 0.01935013 0.06569311
v 0.03921001 0.01910097 0.06582906
v 0.03921001 0.01878990 0.06599544
v 0.03921001 0.02180850 0.06213817
v 0.04052057 0.02206974 0.06131437
v 0.04667561 0.02127696 0.04600500
v 0.04606115 0.02119995 0.04600500
v 0.04052057 0.02206974 0.06080101
v 0.04782183 0.02103233 0.04600500
v 0.04433921 0.02146723 0.05824844
v 0.04200071 0.02171941 0.06058796
v 0.04321706 0.02115465 0.06060825
v 0.04285907 0.02098552 0.06145843
v 0.04433921 0.02164692 0.05707969
v 0.04667561 0.02121807 0.05123596
v 0.04550636 0.02148535 0.05357548
v 0.04169610 0.02097193 0.06258660
v 0.04077912 0.02108669 0.06295589
v 0.03966326 0.02098401 0.06374925
v 0.03921001 0.02084810 0.06420580
v 0.03921001 0.02066086 0.06446146
v 0.03921001 0.02008402 0.06509250
v 0.03921001 0.02152310 0.06292545
v 0.04087857 0.02174961 0.06172424
v 0.04205200 0.02122109 0.06181149
v 0.04316996 0.02178132 0.05824844
v 0.03921001 0.02131018 0.06339011
v 0.03921001 0.02103535 0.06389941
v 0.04550636 0.02148837 0.05240673
v 0.04667561 0.02127998 0.04656097
v 0.04728379 0.02115918 0.04600500
v 0.04433921 0.02163937 0.05591297
f 1 2 3
f 1 3 4
f 1 4 5
f 1 5 6
f 1 6 7
f 1 7 8
f 1 8 9
f 1 9 10
f 1 10 2
f 2 10 11
f 2 11 12
f 2 12 3
f 3 13 4
f 3 12 13
f 4 14 5
f 4 13 14
f 5 14 15
f 5 15 6
f 6 15 16
f 6 16 7
f 7 16 8
f 8 17 35
f 8 35 46
f 8 46 45
f 8 45 44
f 8 44 43
f 8 43 42
f 8 42 41
f 8 41 40
f 8 40 39
f 8 39 38
f 8 38 37
f 8 37 68
f 8 68 67
f 8 67 66
f 8 66 65
f 8 65 93
f 8 93 125
f 8 125 159
f 8 159 186
f 8 186 222
f 8 222 253
f 8 253 281
f 8 281 283
f 8 283 311
f 8 311 343
f 8 343 342
f 8 342 341
f 8 341 371
f 8 371 370
f 8 370 369
f 8 369 368
f 8 368 367
f 8 367 392
f 8 392 391
f 8 391 416
f 8 416 394
f 8 394 373
f 8 373 372
f 8 372 344
f 8 344 314
f 8 314 312
f 8 312 286
f 8 286 259
f 8 259 229
f 8 229 225
f 8 225 224
f 8 224 187
f 8 187 161
f 8 161 160
f 8 160 127
f 8 127 126
f 8 126 95
f 8 95 94
f 8 94 69
f 8 69 47
f 8 47 21
f 8 21 20
f 8 20 19
f 8 19 9
f 8 16 18
f 8 18 17
f 9 19 10
f 10 19 11
f 11 19 20
f 11 20 12
f 12 20 21
f 12 21 22
f 12 22 23
f 12 23 24
f 12 24 25
f 12 25 26
f 12 26 27
f 12 27 13
f 13 27 28
f 13 28 29
f 13 29 30
f 13 30 14
f 14 30 31
f 14 31 32
f 14 32 33
f 14 33 34
f 14 34 15
f 15 34 16
f 16 34 18
f 17 18 35
f 18 34 63
f 18 63 61
f 18 61 91
f 18 91 89
f 18 89 88
f 18 88 123
f 18 123 157
f 18 157 156
f 18 156 154
f 18 154 153
f 18 153 184
f 18 184 220
f 18 220 219
f 18 219 252
f 18 252 280
f 18 280 309
f 18 309 339
f 18 339 338
f 18 338 337
f 18 337 363
f 18 363 388
f 18 388 387
f 18 387 386
f 18 386 385
f 18 385 407
f 18 407 406
f 18 406 405
f 18 405 413
f 18 413 412
f 18 412 408
f 18 408 389
f 18 389 364
f 18 364 340
f 18 340 310
f 18 310 282
f 18 282 255
f 18 255 254
f 18 254 223
f 18 223 221
f 18 221 185
f 18 185 158
f 18 158 124
f 18 124 92
f 18 92 64
f 18 64 36
f 18 36 37
f 18 37 38
f 18 38 39
f 18 39 40
f 18 40 41
f 18 41 42
f 18 42 43
f 18 43 44
f 18 44 45
f 18 45 46
f 18 46 35
f 21 47 23
f 21 23 22
f 23 47 48
f 23 48 24
f 24 48 25
f 25 49 26
f 25 48 49
f 26 49 50
f 26 50 27
f 27 51 28
f 27 50 51
f 28 52 29
f 28 51 53
f 28 53 52
f 29 54 30
f 29 52 55
f 29 55 54
f 30 54 56
f 30 56 57
f 30 57 58
f 30 58 31
f 31 58 59
f 31 59 32
f 32 59 60
f 32 60 61
f 32 61 62
f 32 62 63
f 32 63 33
f 33 63 34
f 36 64 65
f 36 65 66
f 36 66 67
f 36 67 68
f 36 68 37
f 47 69 48
f 48 69 70
f 48 70 71
f 48 71 49
f 49 72 53
f 49 53 50
f 49 71 73
f 49 73 72
f 50 53 51
f 52 53 55
f 53 72 74
f 53 74 75
f 53 75 76
f 53 76 77
f 53 77 55
f 54 55 78
f 54 78 56
f 55 77 79
f 55 79 80
f 55 80 78
f 56 78 81
f 56 81 82
f 56 82 83
f 56 83 84
f 56 84 57
f 57 84 59
f 57 59 58
f 59 85 86
f 59 86 87
f 59 87 88
f 59 88 89
f 59 89 90
f 59 90 91
f 59 91 60
f 59 84 83
f 59 83 85
f 60 91 61
f 61 63 62
f 64 92 93
f 64 93 65
f 69 94 70
f 70 94 95
f 70 95 96
f 70 96 71
f 71 97 73
f 71 96 97
f 72 73 74
f 73 97 98
f 73 98 99
f 73 99 100
f 73 100 74
f 74 100 75
f 75 100 76
f 76 100 99
f 76 99 101
f 76 101 102
f 76 102 103
f 76 103 104
f 76 104 105
f 76 105 77
f 77 105 106
f 77 106 107
f 77 107 79
f 78 80 108
f 78 108 109
f 78 109 81
f 79 107 80
f 80 110 108
f 80 107 110
f 81 109 111
f 81 111 83
f 81 83 82
f 83 112 113
f 83 113 114
f 83 114 115
f 83 115 116
f 83 116 86
f 83 86 85
f 83 111 109
f 83 109 117
f 83 117 112
f 86 116 118
f 86 118 119
f 86 119 120
f 86 120 121
f 86 121 87
f 87 121 88
f 88 121 122
f 88 122 123
f 89 91 90
f 92 124 93
f 93 124 125
f 95 126 96
f 96 126 127
f 96 127 128
f 96 128 97
f 97 129 130
f 97 130 131
f 97 131 98
f 97 128 129
f 98 131 99
f 99 131 102
f 99 102 101
f 102 131 132
f 102 132 133
f 102 133 134
f 102 134 135
f 102 135 136
f 102 136 103
f 103 136 104
f 104 136 137
f 104 137 106
f 104 106 105
f 106 137 107
f 107 137 138
f 107 138 139
f 107 139 140
f 107 140 110
f 108 110 140
f 108 140 141
f 108 141 109
f 109 141 142
f 109 142 117
f 112 117 113
f 113 117 143
f 113 143 144
f 113 144 145
f 113 145 115
f 113 115 114
f 115 145 146
f 115 146 116
f 116 147 148
f 116 148 119
f 116 119 118
f 116 146 147
f 117 142 149
f 117 149 143
f 119 148 150
f 119 150 151
f 119 151 152
f 119 152 153
f 119 153 154
f 119 154 155
f 119 155 120
f 120 155 156
f 120 156 122
f 120 122 121
f 122 156 157
f 122 157 123
f 124 158 159
f 124 159 125
f 127 160 128
f 128 160 161
f 128 161 162
f 128 162 129
f 129 163 130
f 129 162 163
f 130 163 164
f 130 164 131
f 131 164 132
f 132 164 165
f 132 165 166
f 132 166 133
f 133 166 134
f 134 166 167
f 134 167 168
f 134 168 135
f 135 168 169
f 135 169 136
f 136 169 170
f 136 170 171
f 136 171 139
f 136 139 137
f 137 139 138
f 139 171 172
f 139 172 149
f 139 149 142
f 139 142 140
f 140 142 141
f 143 149 144
f 144 173 174
f 144 174 146
f 144 146 145
f 144 149 175
f 144 175 173
f 146 174 176
f 146 176 177
f 146 177 147
f 147 177 178
f 147 178 179
f 147 179 148
f 148 179 150
f 149 172 175
f 150 180 181
f 150 181 182
f 150 182 151
f 150 179 180
f 151 182 152
f 152 182 183
f 152 183 184
f 152 184 153
f 154 156 155
f 158 185 186
f 158 186 159
f 161 187 162
f 162 187 188
f 162 188 189
f 162 189 190
f 162 190 163
f 163 190 191
f 163 191 192
f 163 192 193
f 163 193 194
f 163 194 165
f 163 165 164
f 165 195 196
f 165 196 166
f 165 194 197
f 165 197 198
f 165 198 195
f 166 196 199
f 166 199 200
f 166 200 167
f 167 200 201
f 167 201 168
f 168 201 202
f 168 202 169
f 169 202 203
f 169 203 170
f 170 203 204
f 170 204 171
f 171 204 172
f 172 204 175
f 173 175 205
f 173 205 206
f 173 206 207
f 173 207 174
f 174 207 208
f 174 208 209
f 174 209 210
f 174 210 176
f 175 204 211
f 175 211 212
f 175 212 205
f 176 210 177
f 177 210 178
f 178 210 213
f 178 213 214
f 178 214 179
f 179 214 215
f 179 215 180
f 180 215 216
f 180 216 181
f 181 216 217
f 181 217 182
f 182 217 218
f 182 218 183
f 183 218 219
f 183 219 220
f 183 220 184
f 185 221 186
f 186 221 223
f 186 223 222
f 187 224 188
f 188 192 191
f 188 191 189
f 188 224 225
f 188 225 197
f 188 197 192
f 189 191 190
f 192 197 193
f 193 197 194
f 195 226 196
f 195 198 226
f 196 227 228
f 196 228 199
f 196 226 227
f 197 225 198
f 198 225 229
f 198 229 230
f 198 230 226
f 199 228 200
f 200 231 232
f 200 232 233
f 200 233 201
f 200 228 231
f 201 233 202
f 202 233 203
f 203 233 204
f 204 234 211
f 204 233 235
f 204 235 234
f 205 212 206
f 206 212 236
f 206 236 237
f 206 237 238
f 206 238 239
f 206 239 207
f 207 239 240
f 207 240 208
f 208 210 209
f 208 240 241
f 208 241 242
f 208 242 243
f 208 243 244
f 208 244 214
f 208 214 213
f 208 213 210
f 211 234 212
f 212 234 245
f 212 245 236
f 214 244 246
f 214 246 215
f 215 247 248
f 215 248 216
f 215 246 247
f 216 248 249
f 216 249 250
f 216 250 217
f 217 250 251
f 217 251 218
f 218 251 252
f 218 252 219
f 222 223 254
f 222 254 255
f 222 255 253
f 226 256 227
f 226 230 256
f 227 257 228
f 227 256 257
f 228 257 258
f 228 258 231
f 229 259 260
f 229 260 261
f 229 261 230
f 230 261 262
f 230 262 256
f 231 263 264
f 231 264 232
f 231 258 265
f 231 265 263
f 232 264 266
f 232 266 234
f 232 234 235
f 232 235 233
f 234 266 267
f 234 267 245
f 236 245 268
f 236 268 269
f 236 269 270
f 236 270 237
f 237 270 238
f 238 270 271
f 238 271 272
f 238 272 239
f 239 272 273
f 239 273 240
f 240 273 241
f 241 274 242
f 241 273 271
f 241 271 274
f 242 274 275
f 242 275 243
f 243 246 244
f 243 275 276
f 243 276 247
f 243 247 246
f 245 267 268
f 247 276 248
f 248 276 277
f 248 277 249
f 249 277 278
f 249 278 279
f 249 279 250
f 250 279 251
f 251 279 280
f 251 280 252
f 253 255 281
f 255 282 283
f 255 283 281
f 256 284 257
f 256 262 284
f 257 284 285
f 257 285 258
f 258 285 265
f 259 286 287
f 259 287 288
f 259 288 260
f 260 288 261
f 261 288 262
f 262 288 287
f 262 287 284
f 263 289 290
f 263 290 264
f 263 265 291
f 263 291 289
f 264 290 292
f 264 292 266
f 265 285 293
f 265 293 294
f 265 294 295
f 265 295 291
f 266 292 267
f 267 296 297
f 267 297 268
f 267 292 296
f 268 297 298
f 268 298 269
f 269 298 270
f 270 298 299
f 270 299 271
f 271 299 300
f 271 300 301
f 271 301 302
f 271 302 303
f 271 303 274
f 271 273 272
f 274 304 275
f 274 303 302
f 274 302 304
f 275 304 305
f 275 305 306
f 275 306 276
f 276 306 277
f 277 306 307
f 277 307 278
f 278 307 308
f 278 308 279
f 279 308 280
f 280 308 309
f 282 310 311
f 282 311 283
f 284 294 293
f 284 293 285
f 284 287 294
f 286 312 313
f 286 313 287
f 287 313 314
f 287 314 315
f 287 315 316
f 287 316 317
f 287 317 318
f 287 318 319
f 287 319 320
f 287 320 294
f 289 291 321
f 289 321 322
f 289 322 323
f 289 323 324
f 289 324 290
f 290 324 296
f 290 296 292
f 291 295 325
f 291 325 321
f 294 320 295
f 295 320 319
f 295 319 318
f 295 318 325
f 296 324 297
f 297 299 298
f 297 324 299
f 299 324 323
f 299 323 326
f 299 326 300
f 300 326 327
f 300 327 301
f 301 327 328
f 301 328 329
f 301 329 302
f 302 329 330
f 302 330 304
f 304 331 332
f 304 332 305
f 304 330 331
f 305 333 334
f 305 334 306
f 305 332 335
f 305 335 333
f 306 334 336
f 306 336 307
f 307 337 338
f 307 338 339
f 307 339 308
f 307 336 334
f 307 334 337
f 308 339 309
f 310 340 341
f 310 341 342
f 310 342 343
f 310 343 311
f 312 314 313
f 314 344 315
f 315 345 346
f 315 346 347
f 315 347 316
f 315 344 345
f 316 347 348
f 316 348 317
f 317 348 349
f 317 349 318
f 318 349 325
f 321 350 351
f 321 351 322
f 321 325 350
f 322 352 353
f 322 353 354
f 322 354 326
f 322 326 323
f 322 351 352
f 325 349 348
f 325 348 355
f 325 355 356
f 325 356 350
f 326 354 327
f 327 354 328
f 328 357 330
f 328 330 329
f 328 354 357
f 330 357 358
f 330 358 331
f 331 359 332
f 331 358 359
f 332 359 335
f 333 335 360
f 333 360 361
f 333 361 334
f 334 361 362
f 334 362 363
f 334 363 337
f 335 359 360
f 340 364 365
f 340 365 366
f 340 366 367
f 340 367 368
f 340 368 369
f 340 369 370
f 340 370 371
f 340 371 341
f 344 372 345
f 345 372 373
f 345 373 346
f 346 373 347
f 347 373 374
f 347 374 355
f 347 355 348
f 350 356 375
f 350 375 352
f 350 352 351
f 352 376 353
f 352 375 376
f 353 376 354
f 354 376 357
f 355 374 356
f 356 377 378
f 356 378 376
f 356 376 375
f 356 374 379
f 356 379 377
f 357 380 381
f 357 381 358
f 357 376 380
f 358 381 382
f 358 382 359
f 359 383 360
f 359 382 383
f 360 384 385
f 360 385 386
f 360 386 361
f 360 383 384
f 361 386 387
f 361 387 362
f 362 387 388
f 362 388 363
f 364 389 365
f 365 390 393
f 365 393 366
f 365 389 390
f 366 391 392
f 366 392 367
f 366 393 391
f 373 394 379
f 373 379 374
f 376 378 395
f 376 395 396
f 376 396 397
f 376 397 398
f 376 398 380
f 377 399 395
f 377 395 378
f 377 379 399
f 379 394 400
f 379 400 401
f 379 401 399
f 380 398 382
f 380 382 381
f 382 402 383
f 382 398 402
f 383 403 404
f 383 404 405
f 383 405 406
f 383 406 384
f 383 402 403
f 384 406 407
f 384 407 385
f 389 408 390
f 390 409 410
f 390 410 396
f 390 396 395
f 390 395 399
f 390 399 411
f 390 411 393
f 390 408 412
f 390 412 413
f 390 413 409
f 391 414 415
f 391 415 416
f 391 393 414
f 393 411 414
f 394 416 401
f 394 401 400
f 396 410 397
f 397 410 398
f 398 410 402
f 399 417 411
f 399 401 414
f 399 414 417
f 401 416 415
f 401 415 414
f 402 410 409
f 402 409 403
f 403 409 404
f 404 409 413
f 404 413 405
f 411 417 414

