# https://github.com/mikedh/trimesh
v -0.04611758 -0.00309519 0.08115291
v -0.04609330 -0.00334063 0.08115291
v -0.04589576 -0.00516756 0.08176799
v -0.04593138 -0.00451661 0.08186861
v -0.04599291 -0.00334063 0.08203086
v -0.04600424 -0.00309519 0.08205800
v -0.04603339 -0.00309519 0.08051127
v -0.04589252 -0.00513982 0.08055254
v -0.04597024 -0.00451661 0.08115291
v -0.04563346 -0.00451661 0.08245712
v -0.04589738 -0.00517823 0.08115291
v -0.04581319 -0.00576729 0.08115291
v -0.04562699 -0.00686858 0.08115291
v -0.04540193 -0.00804669 0.08115291
v -0.04517039 -0.00922267 0.08115291
v -0.04472675 -0.01104107 0.08178382
v -0.04480932 -0.01039866 0.08198790
v -0.04490971 -0.00917359 0.08238306
v -0.04514125 -0.00804669 0.08232936
v -0.04535173 -0.00686858 0.08232936
v -0.04560108 -0.00561362 0.08222760
v -0.04569661 -0.00334063 0.08261937
v -0.04570956 -0.00309519 0.08264594
v -0.04594434 -0.00309519 0.08217954
v -0.04599939 -0.00309519 0.08032245
v -0.04598806 -0.00334063 0.08034450
v -0.04592491 -0.00451661 0.08047679
v -0.04551041 -0.00559655 0.08008728
v -0.04473322 -0.00760276 0.07937158
v -0.04524325 -0.00686858 0.07997704
v -0.04499876 -0.00801468 0.07988829
v -0.04493724 -0.00922267 0.08013985
v -0.04479961 -0.01039866 0.08038351
v -0.04471865 -0.01101759 0.08054576
v -0.04473322 -0.00875100 0.08293821
v -0.04489838 -0.01039866 0.08115291
v -0.04472837 -0.01104961 0.08115291
v -0.04455836 -0.01163867 0.08115291
v -0.04422805 -0.01275275 0.08115291
v -0.04356745 -0.01460530 0.08183187
v -0.04368888 -0.01392874 0.08210266
v -0.04353345 -0.01333968 0.08291729
v -0.04462636 -0.00953428 0.08281158
v -0.04479313 -0.00804669 0.08298739
v -0.04512020 -0.00309519 0.08314060
v -0.04488866 -0.00686858 0.08305466
v -0.04497610 -0.00569259 0.08309989
v -0.04504572 -0.00451661 0.08312476
v -0.04510724 -0.00334063 0.08313890
v -0.04566423 -0.00309519 0.07985606
v -0.04556546 -0.00334063 0.07975600
v -0.04551203 -0.00451661 0.07988885
v -0.04312381 -0.00570540 0.07761173
v -0.04293761 -0.00686858 0.07761173
v -0.04270607 -0.00804669 0.07761173
v -0.04462798 -0.00838817 0.07943716
v -0.04478828 -0.00686858 0.07933427
v -0.04345411 -0.00334063 0.07761173
v -0.04330353 -0.00451661 0.07761173
v -0.04451302 -0.00922267 0.07955135
v -0.04356583 -0.01229175 0.07936536
v -0.04382813 -0.01271007 0.07990977
v -0.04368241 -0.01392874 0.08028740
v -0.04356259 -0.01459249 0.08050223
v -0.04363221 -0.01255427 0.08299587
v -0.04375365 -0.01157464 0.08307162
v -0.04383784 -0.01392874 0.08115291
v -0.04358040 -0.01463945 0.08115291
v -0.04336344 -0.01522851 0.08115291
v -0.04296837 -0.01627857 0.08115291
v -0.04248910 -0.01715148 0.08204952
v -0.04265750 -0.01631485 0.08239663
v -0.04228671 -0.01673103 0.08283363
v -0.04244377 -0.01594562 0.08298626
v -0.04258464 -0.01510258 0.08306767
v -0.04391070 -0.01039866 0.08312646
v -0.04412281 -0.00451661 0.08335938
v -0.04412281 -0.00334063 0.08337351
v -0.04412281 -0.00309519 0.08337520
v -0.04412281 -0.00804669 0.08322200
v -0.04412281 -0.00686858 0.08328928
v -0.04412281 -0.00569259 0.08333450
v -0.04557517 -0.00309519 0.07973452
v -0.04246644 -0.00908395 0.07761173
v -0.04232719 -0.00966660 0.07761173
v -0.04486599 -0.00569259 0.07928791
v -0.04346220 -0.00326593 0.07761173
v -0.04178478 -0.01157464 0.07761173
v -0.04141400 -0.01275275 0.07761173
v -0.04120513 -0.01338877 0.07761173
v -0.04237577 -0.01574927 0.07937497
v -0.04341201 -0.01307503 0.07947277
v -0.04212804 -0.01041146 0.07761173
v -0.04260892 -0.01619533 0.07994990
v -0.04248425 -0.01714081 0.08032415
v -0.04281293 -0.01392874 0.08313325
v -0.04294570 -0.01157464 0.08330624
v -0.04255063 -0.01728594 0.08115291
v -0.04227700 -0.01787286 0.08115291
v -0.04141238 -0.01971260 0.08115291
v -0.04113389 -0.02029953 0.08115291
v -0.04133790 -0.01955253 0.08209079
v -0.04114199 -0.01915556 0.08287546
v -0.04131685 -0.01837228 0.08301283
v -0.04152410 -0.01745668 0.08310215
v -0.04184469 -0.01631485 0.08314286
v -0.04176859 -0.01510258 0.08330228
v -0.04294570 -0.01039866 0.08336107
v -0.04294570 -0.00922267 0.08338369
v -0.04294570 -0.00309519 0.08338708
v -0.04294570 -0.00804669 0.08338708
v -0.04347354 -0.00309519 0.07762416
v -0.04347354 -0.00309946 0.07761173
v -0.04098655 -0.01397782 0.07761173
v -0.04056395 -0.01511325 0.07761173
v -0.04017374 -0.01607154 0.07761173
v -0.03991468 -0.01666060 0.07761173
v -0.04124399 -0.01819727 0.07934784
v -0.04218471 -0.01653254 0.07954005
v -0.04103027 -0.01898268 0.07950726
v -0.04133304 -0.01954400 0.08029136
v -0.04176859 -0.01392874 0.08336785
v -0.04076311 -0.02098463 0.08115291
v -0.04015431 -0.02182766 0.08205461
v -0.04014460 -0.02181486 0.08032189
v -0.04099464 -0.01988975 0.08242150
v -0.04040366 -0.02104225 0.08239945
v -0.03993249 -0.02147124 0.08283871
v -0.04015593 -0.02068583 0.08301735
v -0.04038261 -0.01980865 0.08310724
v -0.04059310 -0.01745668 0.08333676
v -0.04176859 -0.01275275 0.08338651
v -0.04176859 -0.00309519 0.08338708
v -0.04059310 -0.01510258 0.08338708
v -0.04325495 -0.00309519 0.07761173
v -0.03955200 -0.01745668 0.07761173
v -0.03905330 -0.01847686 0.07761173
v -0.04007821 -0.02054070 0.07934331
v -0.03982887 -0.02132611 0.07953778
v -0.04034861 -0.02095475 0.07994878
v -0.04059310 -0.01627857 0.08338199
v -0.04022232 -0.02194505 0.08115291
v -0.03911807 -0.02332592 0.08231635
v -0.03890110 -0.02403663 0.08191497
v -0.03885253 -0.02279449 0.07937214
v -0.03906788 -0.02324695 0.08001548
v -0.03889625 -0.02403023 0.08043382
v -0.03867443 -0.02371222 0.08269964
v -0.03892701 -0.02292681 0.08298909
v -0.03914236 -0.02216274 0.08308237
v -0.03949047 -0.02104225 0.08315982
v -0.03824050 -0.02216274 0.08331698
v -0.03941599 -0.01980865 0.08334185
v -0.03941599 -0.01863266 0.08338425
v -0.04059310 -0.00309519 0.08328758
v -0.03353529 -0.02451471 0.08338708
v -0.03235818 -0.02489888 0.08336673
v -0.03235818 -0.02451471 0.08335712
v -0.03706500 -0.02216274 0.08338708
v -0.03909702 -0.00309519 0.07761173
v -0.03875052 -0.01905952 0.07761173
v -0.03835384 -0.01980865 0.07761173
v -0.03784705 -0.02072852 0.07761173
v -0.03987744 -0.02253411 0.08115291
v -0.03893511 -0.02408786 0.08115291
v -0.03853680 -0.02467691 0.08115291
v -0.03838460 -0.02489888 0.08115291
v -0.03809963 -0.02489888 0.08229657
v -0.03786972 -0.02489888 0.08272678
v -0.03939656 -0.02333873 0.08115291
v -0.03858213 -0.02357990 0.07964915
v -0.03750055 -0.02131117 0.07761173
v -0.03695814 -0.02216915 0.07761173
v -0.03653069 -0.02282650 0.07761173
v -0.03614372 -0.02341556 0.07761173
v -0.03555597 -0.02429061 0.07761173
v -0.03753617 -0.02489888 0.07947108
v -0.03758799 -0.02489888 0.07952648
v -0.03821297 -0.02448696 0.07995725
v -0.03804458 -0.02489888 0.08009746
v -0.03832145 -0.02489888 0.08087534
v -0.03789076 -0.02430555 0.08304505
v -0.03826640 -0.02332592 0.08313099
v -0.03717672 -0.02462569 0.08317847
v -0.03706500 -0.02333873 0.08336503
v -0.03824050 -0.02098463 0.08338029
v -0.03983373 -0.00309519 0.08305297
v -0.03117622 -0.02489888 0.08320052
v -0.03047675 -0.02489888 0.08301509
v -0.03353529 -0.02489888 0.08338708
v -0.03588790 -0.02451471 0.08338312
v -0.03471240 -0.02489888 0.08338708
v -0.02957651 -0.02489888 0.07997704
v -0.02957813 -0.02489888 0.07761173
v -0.03909702 -0.00309519 0.07762360
v -0.03745036 -0.02489888 0.08302018
v -0.03512852 -0.02488607 0.07761173
v -0.03511881 -0.02489888 0.07761173
v -0.03708929 -0.02489888 0.08315360
v -0.03588790 -0.02489888 0.08336107
v -0.03938198 -0.00309519 0.08232936
v -0.03041036 -0.02489888 0.08294895
v -0.02992624 -0.02489888 0.08232879
v -0.02957813 -0.02489888 0.08115291
v -0.03909864 -0.00309519 0.07880060
v -0.03910026 -0.00309519 0.07997704
v -0.03910188 -0.00309519 0.08115291
v -0.02969309 -0.02489888 0.08193872
f 1 2 3
f 1 3 4
f 1 4 5
f 1 5 6
f 1 6 24
f 1 24 23
f 1 23 45
f 1 45 79
f 1 79 110
f 1 110 133
f 1 133 155
f 1 155 187
f 1 187 201
f 1 201 207
f 1 207 206
f 1 206 205
f 1 205 195
f 1 195 160
f 1 160 135
f 1 135 112
f 1 112 83
f 1 83 50
f 1 50 25
f 1 25 7
f 1 7 8
f 1 8 2
f 2 8 9
f 2 9 3
f 3 10 4
f 3 9 11
f 3 11 12
f 3 12 13
f 3 13 14
f 3 14 15
f 3 15 16
f 3 16 17
f 3 17 18
f 3 18 19
f 3 19 20
f 3 20 21
f 3 21 10
f 4 10 22
f 4 22 5
f 5 22 23
f 5 23 24
f 5 24 6
f 7 25 26
f 7 26 8
f 8 26 27
f 8 27 28
f 8 28 29
f 8 29 30
f 8 30 31
f 8 31 32
f 8 32 33
f 8 33 34
f 8 34 15
f 8 15 14
f 8 14 13
f 8 13 12
f 8 12 11
f 8 11 9
f 10 21 35
f 10 35 22
f 15 34 36
f 15 36 16
f 16 36 37
f 16 37 38
f 16 38 39
f 16 39 40
f 16 40 41
f 16 41 42
f 16 42 17
f 17 42 43
f 17 43 18
f 18 43 35
f 18 35 19
f 19 35 20
f 20 35 21
f 22 35 44
f 22 44 23
f 23 44 46
f 23 46 47
f 23 47 48
f 23 48 49
f 23 49 45
f 25 50 51
f 25 51 26
f 26 51 52
f 26 52 28
f 26 28 27
f 28 52 29
f 29 53 54
f 29 54 55
f 29 55 56
f 29 56 32
f 29 32 31
f 29 31 30
f 29 52 51
f 29 51 57
f 29 57 58
f 29 58 59
f 29 59 53
f 32 56 60
f 32 60 61
f 32 61 33
f 33 61 62
f 33 62 34
f 34 62 63
f 34 63 64
f 34 64 39
f 34 39 38
f 34 38 37
f 34 37 36
f 35 43 42
f 35 42 65
f 35 65 66
f 35 66 44
f 39 64 67
f 39 67 40
f 40 42 41
f 40 67 68
f 40 68 69
f 40 69 70
f 40 70 71
f 40 71 72
f 40 72 42
f 42 72 73
f 42 73 74
f 42 74 75
f 42 75 65
f 44 66 76
f 44 76 46
f 45 49 77
f 45 77 78
f 45 78 79
f 46 76 80
f 46 80 47
f 47 80 81
f 47 81 82
f 47 82 48
f 48 82 49
f 49 82 77
f 50 83 51
f 51 83 57
f 53 59 58
f 53 58 87
f 53 87 113
f 53 113 135
f 53 135 160
f 53 160 194
f 53 194 198
f 53 198 197
f 53 197 176
f 53 176 175
f 53 175 174
f 53 174 173
f 53 173 172
f 53 172 163
f 53 163 162
f 53 162 161
f 53 161 137
f 53 137 136
f 53 136 117
f 53 117 116
f 53 116 115
f 53 115 114
f 53 114 90
f 53 90 89
f 53 89 88
f 53 88 93
f 53 93 85
f 53 85 84
f 53 84 55
f 53 55 54
f 55 84 56
f 56 84 85
f 56 85 61
f 56 61 60
f 57 86 87
f 57 87 58
f 57 83 86
f 61 88 89
f 61 89 90
f 61 90 91
f 61 91 92
f 61 92 62
f 61 85 93
f 61 93 88
f 62 92 63
f 63 92 91
f 63 91 94
f 63 94 95
f 63 95 64
f 64 68 67
f 64 95 70
f 64 70 69
f 64 69 68
f 65 75 96
f 65 96 66
f 66 96 97
f 66 97 76
f 70 95 98
f 70 98 71
f 71 98 99
f 71 99 100
f 71 100 101
f 71 101 102
f 71 102 103
f 71 103 73
f 71 73 72
f 73 103 74
f 74 103 104
f 74 104 105
f 74 105 75
f 75 105 106
f 75 106 107
f 75 107 96
f 76 97 80
f 77 82 108
f 77 108 109
f 77 109 78
f 78 109 79
f 79 109 111
f 79 111 110
f 80 97 81
f 81 97 108
f 81 108 82
f 83 112 113
f 83 113 87
f 83 87 86
f 90 114 91
f 91 115 116
f 91 116 117
f 91 117 118
f 91 118 119
f 91 119 94
f 91 114 115
f 94 119 95
f 95 119 120
f 95 120 121
f 95 121 101
f 95 101 100
f 95 100 99
f 95 99 98
f 96 107 97
f 97 107 122
f 97 122 108
f 101 123 124
f 101 124 102
f 101 121 125
f 101 125 123
f 102 126 103
f 102 124 127
f 102 127 126
f 103 126 127
f 103 127 128
f 103 128 129
f 103 129 104
f 104 129 130
f 104 130 105
f 105 131 107
f 105 107 106
f 105 130 131
f 107 131 122
f 108 122 109
f 109 122 132
f 109 132 111
f 110 111 134
f 110 134 159
f 110 159 192
f 110 192 190
f 110 190 156
f 110 156 133
f 111 132 134
f 112 135 113
f 117 136 118
f 118 136 137
f 118 137 138
f 118 138 120
f 118 120 119
f 120 138 139
f 120 139 140
f 120 140 121
f 121 140 125
f 122 131 141
f 122 141 132
f 123 125 142
f 123 142 124
f 124 143 128
f 124 128 127
f 124 142 144
f 124 144 143
f 125 139 145
f 125 145 146
f 125 146 147
f 125 147 142
f 125 140 139
f 128 143 148
f 128 148 149
f 128 149 129
f 129 149 150
f 129 150 130
f 130 150 151
f 130 151 152
f 130 152 153
f 130 153 131
f 131 153 141
f 132 141 154
f 132 154 134
f 133 156 157
f 133 157 158
f 133 158 155
f 134 154 159
f 137 161 138
f 138 161 162
f 138 162 163
f 138 163 145
f 138 145 139
f 141 153 154
f 142 147 164
f 142 164 144
f 143 144 148
f 144 165 166
f 144 166 167
f 144 167 168
f 144 168 169
f 144 169 148
f 144 164 170
f 144 170 165
f 145 171 146
f 145 163 172
f 145 172 173
f 145 173 174
f 145 174 175
f 145 175 176
f 145 176 177
f 145 177 178
f 145 178 171
f 146 171 147
f 147 179 180
f 147 180 181
f 147 181 167
f 147 167 166
f 147 166 165
f 147 165 170
f 147 170 164
f 147 171 179
f 148 169 149
f 149 169 182
f 149 182 183
f 149 183 150
f 150 183 152
f 150 152 151
f 152 183 184
f 152 184 185
f 152 185 153
f 153 186 154
f 153 185 186
f 154 186 159
f 155 158 188
f 155 188 189
f 155 189 187
f 156 190 157
f 157 190 192
f 157 192 200
f 157 200 199
f 157 199 196
f 157 196 169
f 157 169 168
f 157 168 167
f 157 167 181
f 157 181 180
f 157 180 178
f 157 178 177
f 157 177 198
f 157 198 194
f 157 194 193
f 157 193 204
f 157 204 208
f 157 208 203
f 157 203 202
f 157 202 189
f 157 189 188
f 157 188 158
f 159 191 192
f 159 186 191
f 160 193 194
f 160 195 193
f 169 196 182
f 171 178 179
f 176 197 177
f 177 197 198
f 178 180 179
f 182 196 199
f 182 199 183
f 183 199 184
f 184 199 200
f 184 200 185
f 185 200 191
f 185 191 186
f 187 189 202
f 187 202 203
f 187 203 201
f 191 200 192
f 193 195 205
f 193 205 206
f 193 206 207
f 193 207 204
f 201 203 208
f 201 208 207
f 204 207 208

