# https://github.com/mikedh/trimesh
v 0.10889121 -0.11685453 0.19321856
v 0.10889121 -0.11792422 0.19284343
v 0.10889121 -0.11526084 0.19240010
v -0.00002717 -0.11564681 0.19260471
v -0.00002717 -0.11685453 0.19321856
v 0.10889121 -0.11990131 0.19211023
v -0.00002717 -0.11840220 0.19265587
v -0.00002717 -0.11990131 0.19211023
v 0.10889121 -0.11439946 0.19193972
v -0.00002717 -0.11439946 0.19193972
v -0.00002717 -0.12047386 0.19060972
v 0.10889121 -0.12029750 0.19107010
v 0.10889121 -0.11390487 0.19013228
v -0.00002717 -0.11363777 0.18914332
v 0.10889121 -0.12102853 0.18914332
v -0.00002717 -0.12102853 0.18914332
v 0.10889121 -0.11363777 0.18914332
v 0.10889121 -0.10828672 0.01905730
v -0.00002717 -0.11071751 0.01905730
v 0.09314410 -0.12134163 0.03334623
v 0.09652381 -0.12133653 0.03334623
v 0.09991419 -0.12114866 0.05029515
v 0.09991419 -0.12107709 0.03334623
v 0.10668426 -0.12076397 0.09092823
v 0.10889121 -0.12058250 0.09652104
v -0.00002717 -0.12134163 0.03334623
v 0.10889121 -0.11731589 0.01905730
v -0.00002717 -0.11913706 0.01905730
v 0.09314410 -0.12111927 0.02997009
v 0.09652381 -0.12109626 0.02997009
v 0.09991419 -0.12080998 0.02997009
v 0.10330455 -0.12054800 0.03334623
v 0.10330455 -0.12081382 0.05029515
v 0.10668426 -0.12064512 0.07399636
v 0.10889121 -0.12056078 0.09312784
v -0.00002717 -0.12111927 0.02997009
v 0.10205716 -0.11841498 0.01905730
v 0.10889121 -0.11758044 0.01980756
v 0.09314410 -0.11913706 0.01905730
v -0.00002717 -0.11931726 0.01980756
v 0.09314410 -0.12056844 0.02657689
v 0.09652381 -0.12051732 0.02657689
v 0.09991419 -0.12020677 0.02657689
v 0.10889121 -0.11886868 0.02666214
v 0.10889121 -0.11940161 0.02997009
v 0.10889121 -0.11964699 0.03334623
v 0.10668426 -0.12059272 0.07060317
v 0.10889121 -0.12051604 0.08975170
v -0.00002717 -0.12056844 0.02657689
v 0.10053256 -0.11862586 0.01905730
v 0.10668426 -0.11793061 0.01980756
v 0.10889121 -0.11808398 0.02238229
v 0.09652381 -0.11902971 0.01905730
v 0.09314410 -0.11931726 0.01980756
v -0.00002717 -0.11994349 0.02318369
v 0.09314410 -0.11994349 0.02318369
v 0.09652381 -0.11986042 0.02318369
v 0.09652381 -0.11920607 0.01980756
v 0.09945574 -0.11875622 0.01905730
v 0.09989287 -0.11884184 0.01972230
f 1 2 6
f 1 6 12
f 1 12 15
f 1 15 25
f 1 25 35
f 1 35 48
f 1 48 46
f 1 46 45
f 1 45 44
f 1 44 52
f 1 52 38
f 1 38 27
f 1 27 18
f 1 18 17
f 1 17 13
f 1 13 9
f 1 9 3
f 1 3 4
f 1 4 5
f 1 5 2
f 2 5 7
f 2 7 8
f 2 8 6
f 3 9 10
f 3 10 4
f 4 10 14
f 4 14 19
f 4 19 28
f 4 28 40
f 4 40 55
f 4 55 49
f 4 49 36
f 4 36 26
f 4 26 16
f 4 16 11
f 4 11 8
f 4 8 7
f 4 7 5
f 6 8 11
f 6 11 12
f 9 13 10
f 10 13 14
f 11 15 12
f 11 16 15
f 13 17 14
f 14 17 18
f 14 18 19
f 15 16 26
f 15 26 20
f 15 20 21
f 15 21 22
f 15 22 23
f 15 23 24
f 15 24 25
f 18 27 37
f 18 37 50
f 18 50 59
f 18 59 53
f 18 53 39
f 18 39 28
f 18 28 19
f 20 26 36
f 20 36 29
f 20 29 21
f 21 29 30
f 21 30 23
f 21 23 22
f 23 30 31
f 23 31 32
f 23 32 33
f 23 33 34
f 23 34 35
f 23 35 25
f 23 25 24
f 27 38 37
f 28 39 54
f 28 54 40
f 29 36 49
f 29 49 41
f 29 41 30
f 30 41 42
f 30 42 31
f 31 42 43
f 31 43 44
f 31 44 45
f 31 45 32
f 32 45 46
f 32 46 47
f 32 47 33
f 33 47 34
f 34 47 46
f 34 46 48
f 34 48 35
f 37 38 51
f 37 51 50
f 38 52 51
f 39 53 54
f 40 54 56
f 40 56 55
f 41 49 55
f 41 55 56
f 41 56 42
f 42 56 54
f 42 54 57
f 42 57 43
f 43 52 44
f 43 57 58
f 43 58 59
f 43 59 60
f 43 60 50
f 43 50 51
f 43 51 52
f 50 60 59
f 53 59 58
f 53 58 54
f 54 58 57

