# https://github.com/mikedh/trimesh
v 0.13242874 0.04575947 0.03095035
v 0.13047098 0.09304434 0.03095035
v 0.14080680 0.04575947 0.03095035
v 0.15156487 0.04575947 0.16207867
v 0.13914974 0.09304434 0.03095035
v 0.15168643 0.09304434 0.17559590
v 0.14080680 0.08298097 0.03095035
v 0.16314827 0.04911547 0.18916090
v 0.16314188 0.04575947 0.18914498
v 0.15406645 0.04575947 0.17898715
v 0.13996228 0.08975777 0.03095035
v 0.16126089 0.09304434 0.18914498
v 0.16267483 0.08855887 0.19056198
v 0.15368577 0.09304434 0.18904945
v 0.14065645 0.08537414 0.03095035
v 0.16310349 0.08298097 0.18932011
v 0.16314827 0.07959256 0.18916090
v 0.16314827 0.04575947 0.19174016
v 0.15589305 0.04575947 0.19025947
v 0.14014781 0.08876254 0.03095035
v 0.16053793 0.09304434 0.19215411
v 0.16267483 0.08855887 0.19105554
v 0.16289236 0.08636937 0.18995697
v 0.14059247 0.08636937 0.03095035
v 0.15370177 0.09304434 0.18914498
v 0.16310349 0.08298097 0.19170831
v 0.16314827 0.07959256 0.19177200
v 0.16314827 0.04575947 0.19177200
v 0.15758850 0.04575947 0.19234517
v 0.15486938 0.09304434 0.19226556
v 0.15749893 0.09304434 0.19360296
v 0.16088661 0.08636937 0.19287057
v 0.16289236 0.08636937 0.19140581
v 0.16088661 0.08298097 0.19320492
v 0.16088661 0.07959256 0.19326861
v 0.16088661 0.04575947 0.19326861
f 1 2 5
f 1 5 11
f 1 11 20
f 1 20 24
f 1 24 15
f 1 15 7
f 1 7 3
f 1 3 9
f 1 9 18
f 1 18 28
f 1 28 36
f 1 36 29
f 1 29 19
f 1 19 10
f 1 10 4
f 1 4 2
f 2 4 6
f 2 6 14
f 2 14 25
f 2 25 30
f 2 30 31
f 2 31 21
f 2 21 12
f 2 12 5
f 3 7 17
f 3 17 8
f 3 8 9
f 4 10 6
f 5 12 13
f 5 13 11
f 6 10 14
f 7 15 16
f 7 16 17
f 8 17 27
f 8 27 28
f 8 28 18
f 8 18 9
f 10 19 14
f 11 13 20
f 12 21 22
f 12 22 13
f 13 22 33
f 13 33 23
f 13 23 24
f 13 24 20
f 14 19 25
f 15 24 16
f 16 23 33
f 16 33 26
f 16 26 27
f 16 27 17
f 16 24 23
f 19 29 30
f 19 30 25
f 21 31 32
f 21 32 33
f 21 33 22
f 26 33 32
f 26 32 34
f 26 34 27
f 27 34 35
f 27 35 36
f 27 36 28
f 29 36 31
f 29 31 30
f 31 36 35
f 31 35 34
f 31 34 32

