# https://github.com/mikedh/trimesh
v -0.11468457 0.10472591 0.01802544
v -0.12636211 0.08903147 0.01802544
v -0.12886577 0.10472591 0.01802544
v -0.14553661 0.10472591 0.18585199
v -0.15452363 0.08903147 0.18913462
v -0.13592366 0.08903147 0.01802544
v -0.13172442 0.10099858 0.01802544
v -0.13186923 0.10131969 0.01871291
v -0.12959911 0.10472591 0.01981285
v -0.14628864 0.10472591 0.18918618
v -0.15463107 0.08903147 0.18963302
v -0.13872160 0.08903147 0.02527816
v -0.13587695 0.08931725 0.01802544
v -0.13285014 0.09942837 0.01802544
v -0.13316310 0.10008288 0.01983003
v -0.13550327 0.10163311 0.02823424
v -0.13262593 0.10472591 0.02758115
v -0.14672304 0.10472591 0.19011425
v -0.15528967 0.08903147 0.19190165
v -0.13908126 0.08903147 0.02627497
v -0.13862818 0.08975820 0.02551877
v -0.13534446 0.09762001 0.02187522
v -0.13490071 0.09650765 0.01995033
v -0.13525103 0.09314599 0.01878165
v -0.13518097 0.09217497 0.01802544
v -0.13401789 0.09665822 0.01802544
v -0.13575084 0.09870626 0.02412666
v -0.13503617 0.10096324 0.02596562
v -0.13563406 0.10179291 0.02997008
v -0.13422808 0.10348756 0.02997008
v -0.13319580 0.10472591 0.02997008
v -0.13604978 0.09986778 0.02689370
v -0.13674576 0.09991849 0.02997008
v -0.15958701 0.09885836 0.18913462
v -0.15610243 0.10472591 0.19023456
v -0.14783941 0.10472591 0.19198758
v -0.15570540 0.08903147 0.19221101
v -0.13930080 0.08903147 0.02699681
v -0.13924008 0.08975820 0.02722024
v -0.13897850 0.09188920 0.02795925
v -0.13729227 0.09653377 0.02658433
v -0.13454571 0.09468700 0.01802544
v -0.13345737 0.10472591 0.03175748
v -0.13813305 0.09653377 0.02997008
v -0.13884305 0.09811935 0.03863210
v -0.13898785 0.09847118 0.04088354
v -0.16043713 0.09653377 0.18913462
v -0.15967108 0.09899356 0.19148917
v -0.15610243 0.10472591 0.19062985
v -0.14878763 0.10472591 0.19250318
v -0.15749906 0.08903147 0.19331095
v -0.13995942 0.08903147 0.02997008
v -0.13981929 0.08975820 0.02997008
v -0.13913732 0.09253603 0.02997008
v -0.13871225 0.09422915 0.02997008
v -0.16239895 0.08903147 0.19004550
v -0.16239895 0.08903147 0.19033767
v -0.16012884 0.09653377 0.19195321
v -0.15769057 0.10004140 0.19229694
v -0.15543447 0.10472591 0.19174697
v -0.15607441 0.10472591 0.19119700
v -0.15055327 0.10472591 0.19291565
v -0.15411258 0.09991849 0.19339688
v -0.15749906 0.08975820 0.19341406
v -0.15822307 0.08903147 0.19329376
v -0.16204862 0.08903147 0.19147199
v -0.16051653 0.09314599 0.19215945
v -0.15749906 0.09653377 0.19343125
v -0.15411258 0.10330627 0.19301878
v -0.15408922 0.10472591 0.19252037
v -0.15268792 0.10472591 0.19317345
v -0.15749906 0.09314599 0.19360312
v -0.16109106 0.08903147 0.19224538
v -0.16150211 0.08903147 0.19193603
f 1 2 6
f 1 6 13
f 1 13 25
f 1 25 42
f 1 42 26
f 1 26 14
f 1 14 7
f 1 7 3
f 1 3 9
f 1 9 17
f 1 17 31
f 1 31 43
f 1 43 35
f 1 35 49
f 1 49 61
f 1 61 60
f 1 60 70
f 1 70 71
f 1 71 62
f 1 62 50
f 1 50 36
f 1 36 18
f 1 18 10
f 1 10 4
f 1 4 5
f 1 5 2
f 2 5 11
f 2 11 19
f 2 19 37
f 2 37 51
f 2 51 65
f 2 65 73
f 2 73 74
f 2 74 66
f 2 66 57
f 2 57 56
f 2 56 52
f 2 52 38
f 2 38 20
f 2 20 12
f 2 12 6
f 3 7 8
f 3 8 9
f 4 10 11
f 4 11 5
f 6 12 13
f 7 14 8
f 8 14 15
f 8 15 16
f 8 16 9
f 9 16 17
f 10 18 19
f 10 19 11
f 12 20 21
f 12 21 22
f 12 22 23
f 12 23 13
f 13 23 24
f 13 24 25
f 14 26 22
f 14 22 27
f 14 27 15
f 15 27 28
f 15 28 16
f 16 29 30
f 16 30 31
f 16 31 17
f 16 28 27
f 16 27 32
f 16 32 33
f 16 33 34
f 16 34 35
f 16 35 29
f 18 36 19
f 19 36 37
f 20 38 39
f 20 39 40
f 20 40 21
f 21 40 22
f 22 40 41
f 22 41 27
f 22 26 23
f 23 26 42
f 23 42 25
f 23 25 24
f 27 41 32
f 29 43 30
f 29 35 43
f 30 43 31
f 32 41 44
f 32 44 33
f 33 44 45
f 33 45 46
f 33 46 34
f 34 47 48
f 34 48 35
f 34 46 45
f 34 45 47
f 35 48 49
f 36 50 51
f 36 51 37
f 38 52 39
f 39 52 53
f 39 53 40
f 40 53 54
f 40 54 55
f 40 55 44
f 40 44 41
f 44 55 47
f 44 47 45
f 47 56 57
f 47 57 48
f 47 55 54
f 47 54 53
f 47 53 56
f 48 57 58
f 48 58 59
f 48 59 60
f 48 60 61
f 48 61 49
f 50 62 63
f 50 63 64
f 50 64 51
f 51 64 65
f 52 56 53
f 57 66 58
f 58 66 67
f 58 67 68
f 58 68 59
f 59 68 69
f 59 69 70
f 59 70 60
f 62 71 63
f 63 68 72
f 63 72 64
f 63 71 68
f 64 72 65
f 65 72 73
f 66 74 67
f 67 73 68
f 67 74 73
f 68 71 69
f 68 73 72
f 69 71 70

