# https://github.com/mikedh/trimesh
v -0.13996476 -0.08297631 0.02697798
v -0.13986455 -0.08297631 0.02656654
v -0.13967327 -0.08489185 0.02640196
v -0.13977803 -0.08489185 0.02683316
v -0.13980990 -0.08489185 0.02697798
v -0.13996476 0.06335951 0.02697798
v -0.13907205 -0.08297631 0.02435133
v -0.13902650 -0.08489185 0.02447312
v -0.13926334 -0.08489185 0.02514131
v -0.13986455 0.06335951 0.02656654
v -0.13923602 0.06335951 0.02480886
v -0.13105131 -0.08489185 0.02697798
v -0.13126082 0.06335951 0.02697798
v -0.13729573 -0.08297631 0.01979256
v -0.13907205 0.06335951 0.02435133
v -0.13605687 -0.08297631 0.01662280
v -0.13599766 -0.08489185 0.01676762
v -0.09343445 -0.08489185 0.00114928
v -0.09343445 0.06335951 0.00110978
v -0.13729573 0.06335951 0.01979256
v -0.13631193 0.06335951 0.01727452
v -0.13538279 -0.08297631 0.01492766
v -0.13605687 0.06335951 0.01662280
v -0.13552398 0.06335951 0.01527656
v -0.13531902 -0.08489185 0.01507578
v -0.09343445 -0.08489185 -0.00653975
v -0.09343445 0.06335951 -0.00664838
v -0.13387063 -0.08297631 0.01301856
v -0.13359281 -0.08489185 0.01285399
v -0.13428511 -0.08489185 0.01372954
v -0.13538279 0.06335951 0.01492766
v -0.13418491 0.06335951 0.01341356
v -0.09653617 -0.08489185 -0.00630935
v -0.09343445 -0.08297631 -0.00664838
v -0.09653617 0.06335951 -0.00641468
v -0.13227651 -0.08297631 0.01113252
v -0.13260445 -0.08489185 0.01162295
v -0.13387063 0.06335951 0.01301856
v -0.10146430 -0.08489185 -0.00562800
v -0.10166471 -0.08474674 -0.00561484
v -0.09653617 -0.08297631 -0.00641468
v -0.09723304 0.06335951 -0.00630935
v -0.12743948 -0.08297631 0.00592201
v -0.13223097 -0.08489185 0.01118189
v -0.13227651 0.06335951 0.01113252
v -0.12936153 0.06335951 0.00799239
v -0.10181046 -0.08489185 -0.00557534
v -0.10669760 -0.08489185 -0.00472283
v -0.10669760 -0.08297631 -0.00482816
v -0.09992027 -0.08297631 -0.00589790
v -0.09992027 0.06335951 -0.00589790
v -0.12574514 -0.08297631 0.00414129
v -0.12641923 -0.08489185 0.00498392
v -0.12743948 0.06335951 0.00592201
v -0.11008170 -0.08489185 -0.00401515
v -0.11008170 -0.08297631 -0.00412047
v -0.10739446 0.06335951 -0.00468333
v -0.10669760 0.06335951 -0.00482816
v -0.12362724 -0.08297631 0.00265680
v -0.12362724 -0.08489185 0.00276872
v -0.12455183 -0.08489185 0.00341715
v -0.12567682 -0.08489185 0.00420712
v -0.12574514 0.06335951 0.00414129
v -0.12406448 0.06335951 0.00296291
v -0.11308777 -0.08489185 -0.00289603
v -0.11318341 -0.08297631 -0.00294869
v -0.11008170 0.06335951 -0.00412047
v -0.12153209 -0.08297631 0.00137639
v -0.12143644 -0.08489185 0.00142577
v -0.12235193 -0.08489185 0.00198532
v -0.12362724 0.06335951 0.00265680
v -0.11478210 -0.08489185 -0.00202377
v -0.11564748 -0.08489185 -0.00157612
v -0.11353412 0.06335951 -0.00276766
v -0.11318341 0.06335951 -0.00294869
v -0.11685447 -0.08489185 -0.00095073
v -0.11974211 -0.08489185 0.00054692
v -0.12153209 0.06335951 0.00137639
v -0.11528766 0.06335951 -0.00185919
f 1 2 3
f 1 3 4
f 1 4 5
f 1 5 12
f 1 12 13
f 1 13 6
f 1 6 10
f 1 10 2
f 2 7 8
f 2 8 9
f 2 9 3
f 2 10 11
f 2 11 7
f 3 9 8
f 3 8 17
f 3 17 25
f 3 25 30
f 3 30 29
f 3 29 37
f 3 37 44
f 3 44 53
f 3 53 62
f 3 62 61
f 3 61 60
f 3 60 70
f 3 70 69
f 3 69 77
f 3 77 76
f 3 76 73
f 3 73 72
f 3 72 65
f 3 65 55
f 3 55 48
f 3 48 47
f 3 47 39
f 3 39 33
f 3 33 26
f 3 26 18
f 3 18 12
f 3 12 5
f 3 5 4
f 6 13 19
f 6 19 27
f 6 27 35
f 6 35 42
f 6 42 51
f 6 51 58
f 6 58 57
f 6 57 67
f 6 67 75
f 6 75 74
f 6 74 79
f 6 79 78
f 6 78 71
f 6 71 64
f 6 64 63
f 6 63 54
f 6 54 46
f 6 46 45
f 6 45 38
f 6 38 32
f 6 32 31
f 6 31 24
f 6 24 23
f 6 23 21
f 6 21 20
f 6 20 15
f 6 15 11
f 6 11 10
f 7 14 8
f 7 11 15
f 7 15 20
f 7 20 14
f 8 14 16
f 8 16 17
f 12 18 19
f 12 19 13
f 14 20 21
f 14 21 16
f 16 22 17
f 16 21 23
f 16 23 24
f 16 24 22
f 17 22 25
f 18 26 34
f 18 34 27
f 18 27 19
f 22 28 29
f 22 29 30
f 22 30 25
f 22 24 31
f 22 31 32
f 22 32 28
f 26 33 34
f 27 34 41
f 27 41 35
f 28 36 37
f 28 37 29
f 28 32 38
f 28 38 45
f 28 45 36
f 33 39 40
f 33 40 41
f 33 41 34
f 35 41 42
f 36 43 44
f 36 44 37
f 36 45 46
f 36 46 43
f 39 47 40
f 40 47 48
f 40 48 49
f 40 49 50
f 40 50 41
f 41 50 42
f 42 50 51
f 43 52 53
f 43 53 44
f 43 46 54
f 43 54 63
f 43 63 52
f 48 55 56
f 48 56 49
f 49 56 57
f 49 57 58
f 49 58 51
f 49 51 50
f 52 59 60
f 52 60 61
f 52 61 62
f 52 62 53
f 52 63 64
f 52 64 59
f 55 65 56
f 56 65 66
f 56 66 75
f 56 75 67
f 56 67 57
f 59 68 69
f 59 69 70
f 59 70 60
f 59 64 71
f 59 71 78
f 59 78 68
f 65 72 66
f 66 72 73
f 66 73 68
f 66 68 74
f 66 74 75
f 68 73 76
f 68 76 77
f 68 77 69
f 68 78 79
f 68 79 74

