# https://github.com/mikedh/trimesh
v 0.13802619 0.09712649 0.03095035
v 0.12872192 0.09712649 0.03095035
v 0.13827455 0.09651421 0.03095035
v 0.13800398 0.09712649 0.03077253
v 0.12017887 0.09712649 0.01514505
v 0.12017887 -0.05180316 0.01021350
v 0.13242707 -0.05180316 0.03095035
v 0.13813725 0.09652879 0.02995455
v 0.13898530 0.09368607 0.03095035
v 0.13871675 0.09424003 0.02995455
v 0.13789495 0.09712649 0.02995455
v 0.12017887 0.09712649 0.00335257
v 0.12017887 -0.05180316 0.00067341
v 0.14080456 -0.05180316 0.03095035
v 0.13728920 0.09652879 0.02656707
v 0.13706912 0.09712649 0.02662338
v 0.13776573 0.09712649 0.02940924
v 0.13897722 0.09187838 0.02795408
v 0.13995853 0.08974999 0.03095035
v 0.13982930 0.08974999 0.02995455
v 0.13914077 0.09253439 0.02995455
v 0.12084519 0.09712649 0.00366376
v 0.12017887 0.09684950 0.00321032
v 0.12017887 0.08297118 0.00067341
v 0.12118643 -0.05180316 0.00119502
v 0.14067533 -0.05180316 0.02995455
v 0.14080456 0.08297118 0.03095035
v 0.13564763 0.09712649 0.02240014
v 0.13687124 0.09712649 0.02590617
v 0.13924172 0.08974999 0.02721018
v 0.13885809 0.08797146 0.02490741
v 0.13863194 0.08974999 0.02551496
v 0.14014429 0.08875867 0.03095035
v 0.14046130 0.08636787 0.02995455
v 0.12216370 0.09712649 0.00439283
v 0.12254330 0.09587277 0.00412906
v 0.12053425 0.09680577 0.00337333
v 0.12017887 0.09677662 0.00317772
v 0.12017887 0.08636787 0.00084531
v 0.12136815 0.08636787 0.00146175
v 0.12153373 0.08297118 0.00137581
v 0.12153373 -0.05180316 0.00137581
v 0.14050975 -0.05180316 0.02925809
v 0.14067533 0.08297118 0.02995455
v 0.14065513 0.08537655 0.03095035
v 0.13514486 0.09712649 0.02101018
v 0.13950018 0.08664485 0.02624996
v 0.13595252 0.08636787 0.01688177
v 0.13572436 0.08905023 0.01746265
v 0.13489650 0.09649963 0.01993732
v 0.13900548 0.08571186 0.02452806
v 0.14059052 0.08636787 0.03095035
v 0.13986564 0.08297118 0.02656707
v 0.12323184 0.09712649 0.00531453
v 0.12365586 0.09680577 0.00553385
v 0.12478861 0.09313210 0.00505966
v 0.12309454 0.09313210 0.00374972
v 0.12017887 0.09308837 0.00205449
v 0.12017887 0.09421088 0.00239235
v 0.12017887 0.08974999 0.00135505
v 0.12087548 0.08974999 0.00171662
v 0.12362961 0.08636787 0.00285468
v 0.12362961 0.08297118 0.00265611
v 0.12319953 -0.05180316 0.00239235
v 0.13986564 -0.05180316 0.02656707
v 0.13312368 0.09680577 0.01609639
v 0.13286523 0.09712649 0.01577632
v 0.13527206 0.08636787 0.01519247
v 0.13605954 0.08297118 0.01662393
v 0.13538514 0.08297118 0.01493167
v 0.13501967 0.09001239 0.01636312
v 0.13422615 0.09313210 0.01640758
v 0.13907414 0.08297118 0.02435320
v 0.13841388 0.08297118 0.02265798
v 0.13970411 -0.05180316 0.02611362
v 0.12563059 0.09712649 0.00759360
v 0.12576789 0.09652879 0.00743652
v 0.12635951 0.09313210 0.00675488
v 0.12513388 0.09081419 0.00473365
v 0.13123780 0.09712649 0.01355355
v 0.12544887 0.08855458 0.00443136
v 0.12385575 0.08970625 0.00356596
v 0.12017887 0.09247609 0.00192112
v 0.12017887 0.09046431 0.00150324
v 0.12563059 0.08636787 0.00425650
v 0.12574972 0.08297118 0.00414091
v 0.12362961 -0.05180316 0.00265611
v 0.13220295 0.09712649 0.01459678
v 0.13335386 0.08649906 0.01271780
v 0.13323676 0.08974999 0.01338463
v 0.13276831 0.09313210 0.01393884
v 0.13238669 0.09585820 0.01438339
v 0.13605954 -0.05180316 0.01662393
v 0.13592022 -0.05180316 0.01627421
v 0.13387279 0.08297118 0.01302306
v 0.13538514 -0.05180316 0.01493167
v 0.13907414 -0.05180316 0.02435320
v 0.13841388 -0.05180316 0.02265798
v 0.12892182 0.09712649 0.01109075
v 0.13176277 0.08974999 0.01168940
v 0.13204545 0.08772363 0.01138415
v 0.12874211 0.08816098 0.00790775
v 0.12732264 0.08636787 0.00605841
v 0.12744380 0.08297118 0.00592209
v 0.12709448 -0.05180316 0.00555459
v 0.12574972 -0.05180316 0.00414091
v 0.13221506 0.08546403 0.01120040
v 0.13227564 0.08297118 0.01113520
v 0.13387279 -0.05180316 0.01302306
v 0.12901470 0.08297118 0.00761435
v 0.12744380 -0.05180316 0.00592209
v 0.13227564 -0.05180316 0.01113520
v 0.13195258 -0.05180316 0.01078548
v 0.12901470 -0.05180316 0.00761435
f 1 2 7
f 1 7 14
f 1 14 27
f 1 27 45
f 1 45 52
f 1 52 33
f 1 33 19
f 1 19 9
f 1 9 3
f 1 3 4
f 1 4 11
f 1 11 17
f 1 17 16
f 1 16 29
f 1 29 28
f 1 28 46
f 1 46 67
f 1 67 88
f 1 88 80
f 1 80 99
f 1 99 76
f 1 76 54
f 1 54 35
f 1 35 22
f 1 22 12
f 1 12 5
f 1 5 2
f 2 5 6
f 2 6 7
f 3 8 4
f 3 9 10
f 3 10 8
f 4 8 11
f 5 12 23
f 5 23 38
f 5 38 59
f 5 59 58
f 5 58 83
f 5 83 84
f 5 84 60
f 5 60 39
f 5 39 24
f 5 24 13
f 5 13 6
f 6 13 25
f 6 25 42
f 6 42 64
f 6 64 87
f 6 87 106
f 6 106 105
f 6 105 111
f 6 111 114
f 6 114 113
f 6 113 112
f 6 112 109
f 6 109 96
f 6 96 94
f 6 94 93
f 6 93 98
f 6 98 97
f 6 97 75
f 6 75 65
f 6 65 43
f 6 43 26
f 6 26 14
f 6 14 7
f 8 15 16
f 8 16 17
f 8 17 11
f 8 10 18
f 8 18 15
f 9 19 20
f 9 20 21
f 9 21 10
f 10 21 18
f 12 22 23
f 13 24 25
f 14 26 44
f 14 44 27
f 15 28 29
f 15 29 16
f 15 18 28
f 18 21 20
f 18 20 30
f 18 30 31
f 18 31 32
f 18 32 28
f 19 33 20
f 20 33 34
f 20 34 30
f 22 35 36
f 22 36 37
f 22 37 38
f 22 38 23
f 24 39 40
f 24 40 41
f 24 41 25
f 25 41 42
f 26 43 44
f 27 44 45
f 28 32 46
f 30 34 47
f 30 47 31
f 31 48 49
f 31 49 50
f 31 50 46
f 31 46 32
f 31 47 51
f 31 51 48
f 33 52 34
f 34 52 45
f 34 45 44
f 34 44 53
f 34 53 47
f 35 54 36
f 36 38 37
f 36 54 55
f 36 55 56
f 36 56 57
f 36 57 58
f 36 58 59
f 36 59 38
f 39 60 40
f 40 60 61
f 40 61 62
f 40 62 63
f 40 63 41
f 41 63 64
f 41 64 42
f 43 65 53
f 43 53 44
f 46 50 66
f 46 66 67
f 47 53 51
f 48 68 49
f 48 51 69
f 48 69 70
f 48 70 68
f 49 68 71
f 49 71 50
f 50 71 72
f 50 72 66
f 51 53 73
f 51 73 74
f 51 74 69
f 53 65 75
f 53 75 73
f 54 76 55
f 55 76 77
f 55 77 56
f 56 78 79
f 56 79 57
f 56 77 80
f 56 80 78
f 57 79 81
f 57 81 82
f 57 82 61
f 57 61 58
f 58 61 83
f 60 84 61
f 61 84 83
f 61 82 62
f 62 82 81
f 62 81 85
f 62 85 86
f 62 86 63
f 63 86 106
f 63 106 87
f 63 87 64
f 66 72 71
f 66 71 67
f 67 71 88
f 68 89 90
f 68 90 91
f 68 91 92
f 68 92 88
f 68 88 71
f 68 70 89
f 69 74 98
f 69 98 93
f 69 93 94
f 69 94 70
f 70 95 89
f 70 94 96
f 70 96 109
f 70 109 95
f 73 75 97
f 73 97 98
f 73 98 74
f 76 99 77
f 77 99 80
f 78 100 101
f 78 101 79
f 78 80 88
f 78 88 92
f 78 92 100
f 79 101 102
f 79 102 81
f 81 102 101
f 81 101 103
f 81 103 85
f 85 104 86
f 85 103 104
f 86 104 105
f 86 105 106
f 89 101 90
f 89 95 107
f 89 107 101
f 90 101 100
f 90 100 91
f 91 100 92
f 95 108 107
f 95 109 112
f 95 112 108
f 101 107 103
f 103 107 104
f 104 107 110
f 104 110 114
f 104 114 111
f 104 111 105
f 107 108 110
f 108 112 113
f 108 113 110
f 110 113 114

