# https://github.com/mikedh/trimesh
v -0.00003632 -0.08294836 0.00105843
v -0.00003632 -0.11112322 0.01987852
v -0.00003632 -0.08294836 -0.00666990
v -0.09343445 -0.08294836 0.00111046
v -0.00003632 -0.11112322 0.00479383
v -0.09343445 -0.11112322 0.01990453
v -0.00003632 -0.08298421 -0.00666990
v -0.09314187 -0.08294836 -0.00666990
v -0.09343445 -0.08294836 -0.00664649
v -0.00003632 -0.10969172 0.00352183
v -0.09314187 -0.11112322 0.00479383
v -0.09343445 -0.11112322 0.00481465
v -0.00003632 -0.08637126 -0.00648000
v -0.09314187 -0.08298421 -0.00666990
v -0.09343445 -0.08298421 -0.00664649
v -0.00003632 -0.10746587 0.00182841
v -0.09314187 -0.10969172 0.00352183
v -0.09343445 -0.11099083 0.00469499
v -0.00003632 -0.08963972 -0.00594935
v -0.09314187 -0.08637126 -0.00648000
v -0.09343445 -0.08608441 -0.00647481
v -0.00003632 -0.10341685 -0.00108240
v -0.09314187 -0.10746587 0.00182841
v -0.09343445 -0.10968069 0.00353483
v -0.00003632 -0.09653242 -0.00445103
v -0.08974973 -0.08963972 -0.00594935
v -0.09314187 -0.08963695 -0.00594935
v -0.09343445 -0.08958731 -0.00593634
v -0.09343445 -0.08637126 -0.00645660
v -0.00003632 -0.10172333 -0.00229978
v -0.08974973 -0.10341685 -0.00108240
v -0.09343445 -0.10744931 0.00184141
v -0.09343445 -0.10316309 -0.00125408
v -0.09314187 -0.10577234 0.00061102
v -0.00003632 -0.09991671 -0.00323104
v -0.08974973 -0.09653242 -0.00445103
v -0.09314187 -0.09133324 -0.00557997
v -0.09343445 -0.09128084 -0.00556957
v -0.09343445 -0.09113741 -0.00560079
v -0.08974973 -0.10172333 -0.00229978
v -0.09343445 -0.10171505 -0.00229459
v -0.09314187 -0.10341409 -0.00108240
v -0.08974973 -0.09991671 -0.00323104
v -0.09314187 -0.09991671 -0.00322584
v -0.09314187 -0.09653242 -0.00444323
v -0.09314187 -0.09314536 -0.00518459
v -0.09343445 -0.09653242 -0.00442241
v -0.09314187 -0.10172057 -0.00229719
v -0.09343445 -0.09993602 -0.00319462
v -0.09343445 -0.09962986 -0.00330908
f 1 2 5
f 1 5 10
f 1 10 16
f 1 16 22
f 1 22 30
f 1 30 35
f 1 35 25
f 1 25 19
f 1 19 13
f 1 13 7
f 1 7 3
f 1 3 8
f 1 8 9
f 1 9 4
f 1 4 2
f 2 4 6
f 2 6 12
f 2 12 11
f 2 11 5
f 3 7 14
f 3 14 8
f 4 9 15
f 4 15 21
f 4 21 29
f 4 29 28
f 4 28 39
f 4 39 38
f 4 38 47
f 4 47 50
f 4 50 49
f 4 49 41
f 4 41 33
f 4 33 32
f 4 32 24
f 4 24 18
f 4 18 12
f 4 12 6
f 5 11 17
f 5 17 10
f 7 13 20
f 7 20 14
f 8 14 15
f 8 15 9
f 10 17 23
f 10 23 16
f 11 12 18
f 11 18 17
f 13 19 26
f 13 26 20
f 14 20 21
f 14 21 15
f 16 23 31
f 16 31 22
f 17 18 24
f 17 24 23
f 19 25 36
f 19 36 26
f 20 26 27
f 20 27 28
f 20 28 29
f 20 29 21
f 22 31 40
f 22 40 30
f 23 24 32
f 23 32 33
f 23 33 34
f 23 34 40
f 23 40 31
f 25 35 43
f 25 43 36
f 26 36 27
f 27 37 38
f 27 38 39
f 27 39 28
f 27 36 37
f 30 40 43
f 30 43 35
f 33 41 34
f 34 42 40
f 34 41 42
f 36 43 44
f 36 44 45
f 36 45 46
f 36 46 37
f 37 46 38
f 38 46 47
f 40 42 48
f 40 48 43
f 41 49 44
f 41 44 48
f 41 48 42
f 43 48 44
f 44 49 50
f 44 50 45
f 45 50 47
f 45 47 46

