# https://github.com/mikedh/trimesh
v -0.00002717 0.09712804 -0.00423450
v -0.00002717 0.09712804 0.00422094
v -0.00002717 0.09825435 -0.00383170
v 0.08975455 0.09712804 -0.00423450
v -0.00002717 0.11295213 0.02790998
v 0.09368044 0.09712804 0.00432793
v -0.00002717 0.09991980 -0.00323067
v 0.08975455 0.09991980 -0.00323067
v 0.09313927 0.09712804 -0.00423135
v -0.00002717 0.11295213 0.00738976
v 0.08636986 0.11295213 0.02790998
v 0.09368044 0.09712804 -0.00419044
v 0.09368044 0.11295213 0.02789426
v 0.08975455 0.11295213 0.02790684
v -0.00002717 0.10172468 -0.00229922
v 0.08975455 0.10172468 -0.00229922
v 0.09313927 0.10172313 -0.00229607
v 0.09313927 0.09991980 -0.00322438
v 0.09368044 0.09938530 -0.00337857
v -0.00002717 0.11253538 0.00671949
v 0.09313927 0.11295213 0.00738976
v 0.09368044 0.11295213 0.00743696
v -0.00002717 0.10577288 0.00061157
v 0.09313927 0.10577288 0.00061157
v 0.09313927 0.10341647 -0.00108141
v 0.09368044 0.10295014 -0.00140238
v 0.09368044 0.10171228 -0.00228978
v 0.09368044 0.09995388 -0.00317088
v -0.00002717 0.11196990 0.00588559
v 0.09313927 0.11253538 0.00671949
v 0.09368044 0.11287311 0.00730794
v -0.00002717 0.10746622 0.00182938
v 0.09313927 0.10746622 0.00182938
v 0.09368044 0.10743523 0.00185140
v -0.00002717 0.11138583 0.00502652
v 0.09313927 0.11138583 0.00502652
v 0.09368044 0.11252144 0.00674467
v -0.00002717 0.10969250 0.00352235
v 0.09313927 0.10969250 0.00352235
v 0.09368044 0.10967080 0.00354438
v 0.09368044 0.11136414 0.00504854
v 0.09368044 0.11109612 0.00480939
f 1 2 5
f 1 5 10
f 1 10 20
f 1 20 29
f 1 29 35
f 1 35 38
f 1 38 32
f 1 32 23
f 1 23 15
f 1 15 7
f 1 7 3
f 1 3 4
f 1 4 9
f 1 9 12
f 1 12 6
f 1 6 2
f 2 6 5
f 3 7 8
f 3 8 4
f 4 8 9
f 5 6 11
f 5 11 14
f 5 14 13
f 5 13 22
f 5 22 21
f 5 21 10
f 6 12 19
f 6 19 28
f 6 28 27
f 6 27 26
f 6 26 34
f 6 34 40
f 6 40 42
f 6 42 41
f 6 41 37
f 6 37 31
f 6 31 22
f 6 22 13
f 6 13 14
f 6 14 11
f 7 15 16
f 7 16 8
f 8 16 17
f 8 17 18
f 8 18 9
f 9 18 19
f 9 19 12
f 10 21 30
f 10 30 20
f 15 23 24
f 15 24 16
f 16 24 25
f 16 25 17
f 17 25 26
f 17 26 27
f 17 27 18
f 18 27 28
f 18 28 19
f 20 30 29
f 21 22 31
f 21 31 30
f 23 32 33
f 23 33 24
f 24 33 26
f 24 26 25
f 26 33 34
f 29 30 36
f 29 36 35
f 30 31 37
f 30 37 36
f 32 38 39
f 32 39 33
f 33 39 40
f 33 40 34
f 35 36 39
f 35 39 38
f 36 37 41
f 36 41 42
f 36 42 39
f 39 42 40

