# https://github.com/mikedh/trimesh
v 0.13242862 -0.05180316 0.03095035
v 0.13242862 0.04575485 0.03095035
v 0.14080808 -0.05180316 0.03095035
v 0.15564109 -0.05180316 0.18857585
v 0.15229605 -0.04095489 0.17820354
v 0.15246500 -0.03894949 0.18034953
v 0.15561480 -0.02463474 0.20849995
v 0.14762954 -0.02200862 0.14849622
v 0.14080808 0.04575485 0.03095035
v 0.14763329 0.02201471 0.14849622
v 0.15557726 0.02201471 0.20858411
v 0.15561480 0.02447849 0.20845788
v 0.15246500 0.03894603 0.18034953
v 0.15229605 0.04089413 0.17820354
v 0.15156398 0.04575485 0.16204545
v 0.15922263 -0.02387078 0.14668685
v 0.15729670 -0.03894949 0.13835534
v 0.15923765 -0.04076390 0.15323004
v 0.16314581 -0.05180316 0.18914391
v 0.15589262 -0.05180316 0.19025898
v 0.15575371 -0.03402193 0.20477601
v 0.15275783 -0.03894949 0.18236929
v 0.15922639 -0.02539871 0.23128538
v 0.16043901 -0.02200862 0.23995351
v 0.16036392 -0.01862809 0.23995351
v 0.15561106 -0.02200862 0.20849995
v 0.16314205 0.04575485 0.18914391
v 0.15923765 0.04074134 0.15323004
v 0.15775472 0.03894603 0.14172161
v 0.15725916 0.03894603 0.13835534
v 0.15922263 0.02382912 0.14668685
v 0.16036392 0.01862463 0.23995351
v 0.15991341 0.02201471 0.23656620
v 0.15923014 0.02539525 0.23128538
v 0.15575371 0.03398982 0.20475498
v 0.15589262 0.04575485 0.19025898
v 0.15406805 0.04575485 0.17898199
v 0.16691507 -0.02200862 0.20608045
v 0.16274786 -0.03894949 0.17938173
v 0.16269155 -0.04086895 0.17982355
v 0.16312704 -0.03894949 0.18236929
v 0.16676115 -0.02539871 0.20608045
v 0.16599903 -0.03394554 0.20414484
v 0.16945294 -0.02724177 0.23071732
v 0.16952051 -0.02730861 0.23317890
v 0.16314581 -0.05180316 0.19175277
v 0.15758954 -0.05180316 0.19234186
v 0.16247381 -0.02713672 0.23835454
v 0.16201579 -0.02429096 0.24224679
v 0.16062296 -0.02539871 0.23656620
v 0.15905745 -0.02749005 0.22909730
v 0.16174548 -0.02181763 0.24336186
v 0.16116357 -0.01862809 0.24334082
v 0.16098337 -0.01523801 0.24334082
v 0.16097586 -0.01184792 0.24334082
v 0.16314581 0.04575485 0.19173173
v 0.16943040 0.02720011 0.23078044
v 0.16599903 0.03393253 0.20414484
v 0.16269155 0.04083684 0.17982355
v 0.16274786 0.03894603 0.17938173
v 0.16690381 0.02201471 0.20608045
v 0.16049531 0.02201471 0.23995351
v 0.16097586 0.01185401 0.24334082
v 0.16099088 0.01523455 0.24334082
v 0.15905745 0.02740065 0.22907626
v 0.16160282 0.02483182 0.23995351
v 0.16209087 0.02416336 0.24212055
v 0.16201203 0.02733380 0.23574568
v 0.15590764 0.04575485 0.19028003
v 0.17078194 0.01862463 0.23995351
v 0.17077818 -0.01862809 0.23995351
v 0.17033143 -0.02200862 0.23656620
v 0.16950173 -0.02539871 0.23033861
v 0.17059422 -0.02200862 0.23995351
v 0.16947922 -0.02722267 0.23545113
v 0.16088575 -0.05180316 0.19326759
v 0.16965567 -0.02402358 0.24195223
v 0.16765840 -0.02690753 0.23782856
v 0.16347618 -0.02713672 0.23835454
v 0.16447105 -0.02636321 0.23968001
v 0.16427208 -0.02449150 0.24243614
v 0.16241373 -0.02056664 0.24515019
v 0.16215845 -0.01862809 0.24538163
v 0.16197824 -0.01523801 0.24554994
v 0.16197073 -0.01184792 0.24554994
v 0.16314581 0.04575485 0.19175277
v 0.16943416 0.02719056 0.23317890
v 0.17053041 0.02201471 0.23995351
v 0.17033143 0.02201471 0.23656620
v 0.16948673 0.02539525 0.23038069
v 0.16121989 0.01862463 0.24334082
v 0.16182432 0.02175687 0.24327770
v 0.16197073 0.01185401 0.24554994
v 0.16198575 0.01523455 0.24552889
v 0.16247756 0.02045814 0.24510811
v 0.16427208 0.02430660 0.24226782
v 0.16427208 0.02583452 0.23995351
v 0.16427208 0.02692317 0.23772336
v 0.15758954 0.04575485 0.19234186
v 0.17005736 0.01841454 0.24348810
v 0.17032016 0.01523455 0.24334082
v 0.17034645 0.01185401 0.24334082
v 0.17034645 -0.01184792 0.24334082
v 0.17033894 -0.01523801 0.24334082
v 0.17007238 -0.01848485 0.24353017
v 0.16999355 -0.02200862 0.24254133
v 0.16988092 -0.02461564 0.23995351
v 0.16765840 -0.02579979 0.23995351
v 0.16573624 -0.02707942 0.23820726
v 0.16945294 -0.01726251 0.24508707
v 0.16765840 -0.01967854 0.24483460
v 0.16765840 -0.02200862 0.24371953
v 0.16765840 -0.02430051 0.24222575
v 0.16454990 -0.02181763 0.24430863
v 0.16360758 -0.02056664 0.24515019
v 0.16454990 -0.01893367 0.24542370
v 0.16427208 -0.01523801 0.24586552
v 0.16427208 -0.01184792 0.24588657
v 0.16088575 0.04575485 0.19326759
v 0.16938536 0.02712371 0.23498827
v 0.16976453 0.02550029 0.23629270
v 0.16981710 0.02442119 0.23995351
v 0.16957308 0.02392462 0.24184704
v 0.16992973 0.02201471 0.24241510
v 0.16221476 0.01862463 0.24531851
v 0.16427208 0.01185401 0.24588657
v 0.16427208 0.01523455 0.24584448
v 0.16429836 0.01880607 0.24538163
v 0.16318336 0.02045814 0.24510811
v 0.16765840 0.02412516 0.24205744
v 0.16429836 0.02175687 0.24414031
v 0.16765840 0.02541434 0.23995351
v 0.16765840 0.02669398 0.23717635
v 0.16942665 0.01714445 0.24506604
v 0.16949422 0.01523455 0.24510811
v 0.16952051 0.01185401 0.24512916
v 0.16952051 -0.01184792 0.24512916
v 0.16951300 -0.01523801 0.24512916
v 0.16765840 -0.01523801 0.24544474
v 0.16765840 -0.01798827 0.24523435
v 0.16586764 -0.02026106 0.24502395
v 0.16765840 -0.01184792 0.24546578
v 0.16765840 0.02201471 0.24348810
v 0.16765840 0.01943634 0.24475045
v 0.16765840 0.01185401 0.24546578
v 0.16765840 0.01523455 0.24542370
v 0.16765840 0.01774607 0.24521331
v 0.16544340 0.02005706 0.24496084
f 1 2 9
f 1 9 3
f 1 3 19
f 1 19 46
f 1 46 76
f 1 76 47
f 1 47 20
f 1 20 4
f 1 4 5
f 1 5 6
f 1 6 7
f 1 7 8
f 1 8 2
f 2 8 10
f 2 10 11
f 2 11 12
f 2 12 13
f 2 13 14
f 2 14 15
f 2 15 37
f 2 37 36
f 2 36 69
f 2 69 99
f 2 99 119
f 2 119 86
f 2 86 56
f 2 56 27
f 2 27 9
f 3 9 31
f 3 31 16
f 3 16 17
f 3 17 18
f 3 18 19
f 4 20 5
f 5 20 21
f 5 21 22
f 5 22 6
f 6 22 7
f 7 22 21
f 7 21 23
f 7 23 24
f 7 24 25
f 7 25 26
f 7 26 8
f 8 26 11
f 8 11 10
f 9 27 28
f 9 28 29
f 9 29 30
f 9 30 31
f 11 26 25
f 11 25 32
f 11 32 33
f 11 33 12
f 12 33 34
f 12 34 35
f 12 35 13
f 13 35 14
f 14 35 36
f 14 36 37
f 14 37 15
f 16 31 38
f 16 38 39
f 16 39 18
f 16 18 17
f 18 39 40
f 18 40 19
f 19 40 41
f 19 41 42
f 19 42 43
f 19 43 44
f 19 44 45
f 19 45 46
f 20 47 48
f 20 48 49
f 20 49 50
f 20 50 51
f 20 51 21
f 21 51 23
f 23 51 24
f 24 51 50
f 24 50 49
f 24 49 52
f 24 52 53
f 24 53 54
f 24 54 25
f 25 54 55
f 25 55 63
f 25 63 32
f 27 56 57
f 27 57 58
f 27 58 59
f 27 59 28
f 28 59 60
f 28 60 31
f 28 31 29
f 29 31 30
f 31 60 61
f 31 61 38
f 32 62 33
f 32 63 64
f 32 64 62
f 33 62 34
f 34 62 65
f 34 65 35
f 35 65 36
f 36 65 66
f 36 66 67
f 36 67 68
f 36 68 69
f 38 61 70
f 38 70 71
f 38 71 72
f 38 72 73
f 38 73 42
f 38 42 39
f 39 42 41
f 39 41 40
f 42 73 44
f 42 44 43
f 44 73 72
f 44 72 74
f 44 74 45
f 45 74 75
f 45 75 46
f 46 75 77
f 46 77 78
f 46 78 76
f 47 76 48
f 48 79 80
f 48 80 81
f 48 81 49
f 48 76 79
f 49 81 82
f 49 82 52
f 52 82 83
f 52 83 53
f 53 83 84
f 53 84 54
f 54 84 85
f 54 85 55
f 55 85 93
f 55 93 63
f 56 86 87
f 56 87 57
f 57 87 88
f 57 88 89
f 57 89 90
f 57 90 61
f 57 61 58
f 58 61 60
f 58 60 59
f 61 90 89
f 61 89 70
f 62 64 91
f 62 91 92
f 62 92 67
f 62 67 66
f 62 66 65
f 63 93 64
f 64 93 94
f 64 94 91
f 67 92 95
f 67 95 96
f 67 96 97
f 67 97 68
f 68 97 98
f 68 98 99
f 68 99 69
f 70 89 88
f 70 88 100
f 70 100 101
f 70 101 102
f 70 102 103
f 70 103 71
f 71 103 104
f 71 104 74
f 71 74 72
f 74 104 105
f 74 105 106
f 74 106 77
f 74 77 107
f 74 107 75
f 75 107 77
f 76 78 108
f 76 108 109
f 76 109 80
f 76 80 79
f 77 106 110
f 77 110 111
f 77 111 112
f 77 112 113
f 77 113 108
f 77 108 78
f 80 109 108
f 80 108 113
f 80 113 81
f 81 113 114
f 81 114 82
f 82 114 115
f 82 115 116
f 82 116 83
f 83 116 117
f 83 117 84
f 84 117 118
f 84 118 85
f 85 118 126
f 85 126 93
f 86 119 120
f 86 120 87
f 87 120 121
f 87 121 88
f 88 121 120
f 88 120 122
f 88 122 123
f 88 123 124
f 88 124 100
f 91 94 125
f 91 125 95
f 91 95 92
f 93 126 94
f 94 126 127
f 94 127 125
f 95 125 127
f 95 127 128
f 95 128 129
f 95 129 96
f 96 130 97
f 96 129 131
f 96 131 130
f 97 130 132
f 97 132 98
f 98 119 99
f 98 132 133
f 98 133 119
f 100 134 101
f 100 124 134
f 101 134 135
f 101 135 136
f 101 136 102
f 102 136 137
f 102 137 103
f 103 137 138
f 103 138 104
f 104 138 110
f 104 110 105
f 105 110 106
f 110 138 139
f 110 139 117
f 110 117 140
f 110 140 141
f 110 141 111
f 111 141 112
f 112 141 114
f 112 114 113
f 114 141 115
f 115 141 116
f 116 141 140
f 116 140 117
f 117 139 142
f 117 142 118
f 118 142 145
f 118 145 126
f 119 133 120
f 120 133 123
f 120 123 122
f 123 133 132
f 123 132 130
f 123 130 143
f 123 143 144
f 123 144 134
f 123 134 124
f 126 145 146
f 126 146 127
f 127 146 134
f 127 134 147
f 127 147 128
f 128 147 148
f 128 148 129
f 129 148 143
f 129 143 131
f 130 131 143
f 134 144 147
f 134 146 135
f 135 146 145
f 135 145 136
f 136 145 142
f 136 142 137
f 137 142 138
f 138 142 139
f 143 148 144
f 144 148 147

