# https://github.com/mikedh/trimesh
v -0.00002717 -0.11685480 0.19322949
v -0.14056423 -0.11346790 0.19332176
v -0.12700325 -0.11685480 0.19328484
v -0.00002717 -0.11990070 0.19212223
v -0.00002717 -0.11564684 0.19260204
v -0.14402066 -0.11112597 0.19291577
v -0.13040085 -0.11685480 0.19328484
v -0.14733001 -0.11112597 0.19267585
v -0.14419717 -0.11374890 0.19236213
v -0.13716664 -0.11685480 0.19263895
v -0.13378374 -0.11685480 0.19308185
v -0.12362036 -0.11990070 0.19212223
v -0.00002717 -0.12047368 0.19060898
v -0.00002717 -0.11439987 0.19193768
v -0.00002717 -0.11402489 0.19057206
v -0.00002717 -0.11363790 0.18913263
v -0.14069661 -0.11112597 0.19243595
v -0.12700325 -0.11976469 0.19208531
v -0.15002162 -0.11112597 0.19164241
v -0.14733001 -0.11276193 0.19182696
v -0.14322641 -0.11580983 0.19156859
v -0.14029948 -0.11690380 0.19188232
v -0.13716664 -0.11879673 0.19131024
v -0.13378374 -0.11912972 0.19173469
v -0.13040085 -0.11946271 0.19197459
v -0.12362036 -0.12100166 0.18913263
v -0.12023747 -0.12102866 0.18913263
v -0.00002717 -0.12102866 0.18913263
v -0.13772554 -0.11112597 0.19160551
v -0.00002717 -0.11112597 0.01988811
v -0.12700325 -0.12067267 0.18913263
v -0.15028637 -0.11112597 0.18929872
v -0.14946270 -0.11205895 0.19129179
v -0.13900516 -0.11860273 0.19095960
v -0.09991071 -0.12108165 0.03335976
v -0.09652782 -0.12133665 0.03335976
v -0.09314493 -0.12134064 0.03335976
v -0.00002717 -0.12134064 0.03335976
v -0.00002717 -0.11112597 0.00479247
v -0.13900516 -0.11860273 0.19055361
v -0.11007408 -0.11946371 0.03335976
v -0.10669120 -0.12000969 0.03335976
v -0.10329360 -0.12055668 0.03335976
v -0.14946270 -0.11205895 0.18999998
v -0.12810637 -0.11112597 0.03335976
v -0.09991071 -0.12081067 0.02996416
v -0.09652782 -0.12109665 0.02996416
v -0.09314493 -0.12111866 0.02996416
v -0.00002717 -0.12122865 0.03162505
v -0.00002717 -0.11138697 0.00503238
v -0.09314493 -0.11112597 0.00479247
v -0.14328525 -0.11584083 0.18913263
v -0.12845937 -0.11160596 0.04013249
v -0.12629726 -0.11232794 0.03335976
v -0.12362036 -0.11380189 0.03335976
v -0.11685458 -0.11748278 0.03335976
v -0.11511902 -0.11854074 0.03516828
v -0.11526609 -0.11859874 0.03743816
v -0.11378057 -0.11885873 0.03647854
v -0.11320694 -0.11886973 0.03335976
v -0.11254507 -0.11874973 0.02996416
v -0.11007408 -0.11921671 0.02996416
v -0.12798870 -0.11124298 0.03335976
v -0.12822404 -0.11143497 0.03673689
v -0.12807695 -0.11112597 0.03315676
v -0.11200087 -0.11861274 0.02789728
v -0.11076537 -0.11841575 0.02564585
v -0.09991071 -0.12020669 0.02658702
v -0.09652782 -0.12051767 0.02658702
v -0.09314493 -0.12056867 0.02658702
v -0.00002717 -0.12083966 0.02824791
v -0.00002717 -0.12111866 0.02996416
v -0.00002717 -0.11195295 0.00586283
v -0.09314493 -0.11138697 0.00503238
v -0.09361559 -0.11112597 0.00482939
v -0.12595897 -0.11214595 0.02996416
v -0.12362036 -0.11342691 0.02996416
v -0.12116409 -0.11474986 0.02996416
v -0.11685458 -0.11706779 0.02996416
v -0.11489838 -0.11847574 0.03335976
v -0.11423652 -0.11826275 0.02996416
v -0.12785633 -0.11112597 0.03199414
v -0.12741508 -0.11112597 0.02996416
v -0.11325107 -0.11793176 0.02669774
v -0.11007408 -0.11738978 0.01979584
v -0.10980934 -0.11814775 0.02346824
v -0.10669120 -0.11793075 0.01979584
v -0.10099912 -0.11846774 0.01855939
v -0.09988129 -0.11884173 0.01972202
v -0.09873406 -0.11861674 0.01793195
v -0.09652782 -0.11920672 0.01979584
v -0.09314493 -0.11994370 0.02319142
v -0.09314493 -0.11931772 0.01979584
v -0.00002717 -0.12025069 0.02485232
v -0.00002717 -0.12056867 0.02658702
v -0.00002717 -0.11253693 0.00673017
v -0.09314493 -0.11253693 0.00673017
v -0.09652782 -0.11244694 0.00687781
v -0.09652782 -0.11124698 0.00518001
v -0.09652782 -0.11112597 0.00506929
v -0.12560597 -0.11194095 0.02760201
v -0.11898727 -0.11539984 0.02741747
v -0.11710462 -0.11612282 0.02640247
v -0.11345698 -0.11704578 0.02319142
v -0.12729742 -0.11112597 0.02955817
v -0.11372173 -0.11605682 0.01962974
v -0.11276570 -0.11566284 0.01730450
v -0.11004467 -0.11600782 0.01627106
v -0.10669120 -0.11677179 0.01641869
v -0.09652782 -0.11871373 0.01769204
v -0.09988129 -0.11787176 0.01665861
v -0.09652782 -0.11796275 0.01599425
v -0.00002717 -0.11931772 0.01979584
v -0.09314493 -0.11877673 0.01754440
v -0.00002717 -0.11336991 0.00805889
v -0.09314493 -0.11422987 0.00944296
v -0.09571887 -0.11524384 0.01121457
v -0.09991071 -0.11224494 0.00720999
v -0.09671902 -0.11609782 0.01270937
v -0.09798393 -0.11513985 0.01138067
v -0.10329360 -0.11201895 0.00756062
v -0.10549983 -0.11186195 0.00781898
v -0.09991071 -0.11112597 0.00573365
v -0.09793980 -0.11112597 0.00532765
v -0.09673373 -0.11112597 0.00510619
v -0.12634138 -0.11112597 0.02695611
v -0.12587072 -0.11112597 0.02568276
v -0.12509118 -0.11165496 0.02535058
v -0.12382628 -0.11261393 0.02651321
v -0.12229662 -0.11196396 0.02079237
v -0.11501605 -0.11508486 0.01837486
v -0.11942851 -0.11221794 0.01743368
v -0.12032572 -0.11112597 0.01645560
v -0.11372173 -0.11447388 0.01627106
v -0.11114779 -0.11493585 0.01503462
v -0.10888273 -0.11532284 0.01446254
v -0.10669120 -0.11553684 0.01411190
v -0.10329360 -0.11580383 0.01366900
v -0.10329360 -0.11726478 0.01641869
v -0.09314493 -0.11803176 0.01584661
v -0.09991071 -0.11606982 0.01326300
v -0.09314493 -0.11646081 0.01302310
v -0.00002717 -0.11877673 0.01754440
v -0.00002717 -0.11839774 0.01667706
v -0.00002717 -0.11586383 0.01206348
v -0.09991071 -0.11379089 0.00964595
v -0.09991071 -0.11501385 0.01158366
v -0.10669120 -0.11450187 0.01241411
v -0.10664707 -0.11265393 0.00940605
v -0.10776490 -0.11165596 0.00811425
v -0.10745602 -0.11112597 0.00743144
v -0.10329360 -0.11112597 0.00645336
v -0.12551772 -0.11112597 0.02477850
v -0.12459110 -0.11135498 0.02319142
v -0.12167888 -0.11164197 0.01854094
v -0.12067872 -0.11112597 0.01676933
v -0.11645745 -0.11112597 0.01350291
v -0.11257449 -0.11112597 0.01055021
v -0.11025059 -0.11112597 0.00887088
v -0.11007408 -0.11118298 0.00883396
v -0.00002717 -0.11723378 0.01440717
v -0.00002717 -0.11803176 0.01584661
v -0.00002717 -0.11646081 0.01302310
v -0.11007408 -0.11112597 0.00876015
v -0.10832381 -0.11112597 0.00778207
v -0.12487056 -0.11112597 0.02319142
v -0.12472348 -0.11112597 0.02285925
v -0.12404690 -0.11112597 0.02147517
v -0.12294379 -0.11112597 0.01935293
v -0.12207600 -0.11112597 0.01811649
f 1 2 3
f 1 3 4
f 1 4 13
f 1 13 28
f 1 28 38
f 1 38 49
f 1 49 72
f 1 72 71
f 1 71 95
f 1 95 94
f 1 94 113
f 1 113 143
f 1 143 144
f 1 144 162
f 1 162 161
f 1 161 163
f 1 163 145
f 1 145 115
f 1 115 96
f 1 96 73
f 1 73 50
f 1 50 39
f 1 39 30
f 1 30 16
f 1 16 15
f 1 15 14
f 1 14 5
f 1 5 6
f 1 6 2
f 2 7 3
f 2 6 8
f 2 8 9
f 2 9 10
f 2 10 11
f 2 11 7
f 3 7 12
f 3 12 4
f 4 12 13
f 5 14 6
f 6 14 15
f 6 15 16
f 6 16 17
f 6 17 29
f 6 29 30
f 6 30 39
f 6 39 51
f 6 51 75
f 6 75 100
f 6 100 125
f 6 125 124
f 6 124 123
f 6 123 152
f 6 152 151
f 6 151 165
f 6 165 164
f 6 164 159
f 6 159 158
f 6 158 157
f 6 157 133
f 6 133 156
f 6 156 170
f 6 170 169
f 6 169 168
f 6 168 167
f 6 167 166
f 6 166 153
f 6 153 127
f 6 127 126
f 6 126 105
f 6 105 83
f 6 83 82
f 6 82 65
f 6 65 45
f 6 45 32
f 6 32 19
f 6 19 8
f 7 11 18
f 7 18 12
f 8 19 20
f 8 20 9
f 9 20 21
f 9 21 22
f 9 22 10
f 10 22 23
f 10 23 24
f 10 24 11
f 11 24 25
f 11 25 18
f 12 18 26
f 12 26 27
f 12 27 13
f 13 27 28
f 16 29 17
f 16 30 29
f 18 25 31
f 18 31 26
f 19 32 33
f 19 33 20
f 20 33 21
f 21 33 34
f 21 34 22
f 22 34 23
f 23 34 31
f 23 31 24
f 24 31 25
f 26 31 35
f 26 35 36
f 26 36 27
f 27 36 37
f 27 37 38
f 27 38 28
f 31 34 40
f 31 40 41
f 31 41 42
f 31 42 43
f 31 43 35
f 32 44 33
f 32 45 44
f 33 44 40
f 33 40 34
f 35 43 46
f 35 46 47
f 35 47 36
f 36 47 48
f 36 48 37
f 37 48 49
f 37 49 38
f 39 50 74
f 39 74 51
f 40 44 52
f 40 52 53
f 40 53 54
f 40 54 55
f 40 55 56
f 40 56 57
f 40 57 58
f 40 58 59
f 40 59 41
f 41 59 60
f 41 60 61
f 41 61 62
f 41 62 42
f 42 62 43
f 43 62 46
f 44 45 63
f 44 63 64
f 44 64 53
f 44 53 52
f 45 65 63
f 46 62 66
f 46 66 67
f 46 67 68
f 46 68 69
f 46 69 47
f 47 69 70
f 47 70 48
f 48 71 72
f 48 72 49
f 48 70 71
f 50 73 74
f 51 74 75
f 53 64 54
f 54 64 63
f 54 63 76
f 54 76 55
f 55 76 77
f 55 77 56
f 56 77 78
f 56 78 79
f 56 79 80
f 56 80 57
f 57 80 60
f 57 60 58
f 58 60 59
f 60 80 61
f 61 81 66
f 61 66 62
f 61 80 81
f 63 65 82
f 63 82 83
f 63 83 76
f 66 81 84
f 66 84 85
f 66 85 67
f 67 85 86
f 67 86 87
f 67 87 68
f 68 87 88
f 68 88 89
f 68 89 90
f 68 90 91
f 68 91 69
f 69 92 70
f 69 91 93
f 69 93 92
f 70 92 94
f 70 94 95
f 70 95 71
f 73 96 97
f 73 97 74
f 74 97 98
f 74 98 99
f 74 99 75
f 75 99 100
f 76 83 101
f 76 101 77
f 77 101 78
f 78 101 79
f 79 81 80
f 79 101 102
f 79 102 103
f 79 103 104
f 79 104 81
f 81 104 84
f 83 105 101
f 84 104 85
f 85 88 87
f 85 87 86
f 85 104 106
f 85 106 107
f 85 107 108
f 85 108 109
f 85 109 88
f 88 90 89
f 88 109 90
f 90 110 91
f 90 109 111
f 90 111 112
f 90 112 110
f 91 110 93
f 92 93 94
f 93 113 94
f 93 110 114
f 93 114 143
f 93 143 113
f 96 115 97
f 97 115 116
f 97 116 117
f 97 117 98
f 98 118 99
f 98 117 119
f 98 119 120
f 98 120 118
f 99 118 121
f 99 121 122
f 99 122 123
f 99 123 124
f 99 124 125
f 99 125 100
f 101 105 126
f 101 126 127
f 101 127 128
f 101 128 129
f 101 129 102
f 102 129 128
f 102 128 130
f 102 130 103
f 103 130 131
f 103 131 106
f 103 106 104
f 106 131 107
f 107 132 133
f 107 133 134
f 107 134 135
f 107 135 108
f 107 131 132
f 108 135 136
f 108 136 109
f 109 136 137
f 109 137 138
f 109 138 139
f 109 139 111
f 110 112 140
f 110 140 114
f 111 139 141
f 111 141 112
f 112 141 119
f 112 119 142
f 112 142 140
f 114 140 144
f 114 144 143
f 115 145 142
f 115 142 116
f 116 142 117
f 117 142 119
f 118 120 146
f 118 146 121
f 119 141 120
f 120 141 147
f 120 147 146
f 121 146 147
f 121 147 141
f 121 141 122
f 122 141 138
f 122 138 148
f 122 148 149
f 122 149 150
f 122 150 151
f 122 151 152
f 122 152 123
f 127 153 128
f 128 153 154
f 128 154 130
f 130 154 155
f 130 155 131
f 131 155 132
f 132 156 133
f 132 155 156
f 133 157 134
f 134 157 158
f 134 158 135
f 135 158 159
f 135 159 160
f 135 160 150
f 135 150 136
f 136 148 137
f 136 150 148
f 137 148 138
f 138 141 139
f 140 161 162
f 140 162 144
f 140 142 161
f 142 145 163
f 142 163 161
f 148 150 149
f 150 164 165
f 150 165 151
f 150 160 164
f 153 166 154
f 154 166 167
f 154 167 168
f 154 168 169
f 154 169 155
f 155 169 170
f 155 170 156
f 159 164 160

