# https://github.com/mikedh/trimesh
v 0.15274502 -0.10908010 0.19130444
v 0.15266346 -0.10908010 0.19152477
v 0.14946510 -0.11205929 0.19128607
v 0.14946510 -0.11205929 0.19000076
v 0.15250890 -0.10908010 0.18911940
v 0.15066717 -0.10908010 0.19242448
v 0.15064571 -0.11008721 0.19203889
v 0.13900287 -0.11860251 0.19095556
v 0.14733574 -0.11276227 0.19181856
v 0.14323585 -0.11580814 0.19156150
v 0.13900287 -0.11860251 0.19056997
v 0.14328307 -0.11583854 0.18913776
v 0.12629535 -0.11231194 0.03335820
v 0.12820149 -0.11141479 0.03673673
v 0.12799112 -0.11123466 0.03335820
v 0.12969118 -0.10954096 0.03335820
v 0.13007327 -0.10908010 0.03335820
v 0.14833603 -0.10908010 0.19325076
v 0.14733574 -0.11008135 0.19319567
v 0.14030368 -0.11690413 0.19187365
v 0.13717402 -0.11879668 0.19130444
v 0.12701659 -0.12067168 0.18913776
v 0.14420179 -0.11374831 0.19233268
v 0.11008469 -0.11945521 0.03335820
v 0.11378962 -0.11885048 0.03647967
v 0.11526643 -0.11859783 0.03743447
v 0.11512906 -0.11854051 0.03517600
v 0.11685917 -0.11746558 0.03335820
v 0.12362936 -0.11376937 0.03335820
v 0.12598196 -0.11214936 0.02996132
v 0.12767343 -0.11094575 0.02996132
v 0.12943360 -0.10925205 0.02996132
v 0.12997453 -0.10908010 0.03267883
v 0.10889121 -0.11685383 0.19323239
v 0.14056127 -0.11346876 0.19330584
v 0.14483717 -0.10908010 0.19293861
v 0.13717402 -0.11685383 0.19262646
v 0.13378678 -0.11912887 0.19174511
v 0.13040383 -0.11946223 0.19196544
v 0.12701659 -0.11976518 0.19207561
v 0.12362936 -0.12100153 0.18913776
v 0.10889121 -0.11964704 0.03335820
v 0.11008469 -0.11921426 0.02996132
v 0.11255321 -0.11874872 0.02996132
v 0.11320146 -0.11886452 0.03335820
v 0.11489294 -0.11847268 0.03335820
v 0.11685917 -0.11707841 0.02996132
v 0.11948654 -0.11566543 0.02996132
v 0.12362936 -0.11343484 0.02996132
v 0.12562563 -0.11195168 0.02755595
v 0.12714110 -0.11025096 0.02630737
v 0.12875529 -0.10908010 0.02713364
v 0.12929193 -0.10908010 0.02885962
v 0.12957527 -0.10908010 0.02996132
v 0.12701659 -0.11685383 0.19326912
v 0.10889121 -0.11439983 0.19194708
v 0.10889121 -0.11990086 0.19211234
v 0.13040383 -0.11685383 0.19326912
v 0.13378678 -0.11685383 0.19306714
v 0.14203808 -0.10908010 0.19192872
v 0.12362936 -0.11990086 0.19211234
v 0.12024212 -0.12102961 0.18913776
v 0.10889121 -0.12058162 0.09652201
v 0.10889121 -0.12056056 0.09312512
v 0.10889121 -0.12051612 0.08974659
v 0.10889121 -0.11940141 0.02996132
v 0.11200799 -0.11861304 0.02790482
v 0.11424468 -0.11826682 0.02996132
v 0.11715969 -0.11614618 0.02630737
v 0.11902288 -0.11541278 0.02726217
v 0.12385689 -0.11264765 0.02649098
v 0.12513193 -0.11166394 0.02529748
v 0.12663022 -0.10966728 0.02318590
v 0.12599055 -0.10908010 0.01982573
v 0.10889121 -0.11390506 0.19012929
v 0.10889121 -0.12102961 0.18913776
v 0.14143275 -0.10908010 0.19156150
v 0.10889121 -0.11363720 0.18913776
v 0.10889121 -0.11886920 0.02665624
v 0.10981852 -0.11873819 0.02669296
v 0.11077158 -0.11841536 0.02564635
v 0.11008469 -0.11739072 0.01980736
v 0.11327016 -0.11794749 0.02669296
v 0.11347193 -0.11707373 0.02318590
v 0.11848625 -0.11512854 0.02500369
v 0.11372522 -0.11606897 0.01962375
v 0.11631394 -0.11574497 0.02318590
v 0.12295105 -0.11231311 0.02318590
v 0.12019060 -0.11455540 0.02630737
v 0.12235002 -0.11199261 0.02076217
v 0.12464252 -0.11136099 0.02318590
v 0.12353920 -0.11089078 0.01969720
v 0.12414882 -0.10908010 0.01699805
v 0.14020923 -0.10908010 0.18930302
v 0.14017059 -0.10908010 0.18913776
v 0.10889121 -0.10908010 0.02056019
v 0.10889121 -0.11808317 0.02237799
v 0.10981852 -0.11814867 0.02347968
v 0.10889121 -0.11758021 0.01980736
v 0.10889121 -0.11716497 0.01861387
v 0.11003317 -0.11599879 0.01626358
v 0.11276786 -0.11566192 0.01729183
v 0.11800542 -0.11488525 0.02318590
v 0.11502603 -0.11508410 0.01835681
v 0.11563134 -0.11539757 0.02061528
v 0.12169318 -0.11164172 0.01850370
v 0.12350915 -0.10929298 0.01659409
v 0.12309701 -0.10908010 0.01578618
v 0.10889121 -0.10908010 0.00572405
v 0.10889121 -0.11625495 0.01631867
v 0.10889121 -0.11532155 0.01450088
v 0.11113220 -0.11493555 0.01503336
v 0.11943501 -0.11221836 0.01743873
v 0.11441641 -0.10908010 0.00869862
v 0.11649855 -0.10908010 0.01027772
v 0.11919031 -0.10908010 0.01233421
v 0.11998024 -0.10908010 0.01294014
v 0.12028934 -0.10908010 0.01319720
v 0.12043530 -0.11100190 0.01635539
v 0.10944072 -0.10908010 0.00596275
v 0.10889121 -0.11141714 0.00847828
v 0.11008469 -0.11118320 0.00882715
v 0.11183197 -0.10908010 0.00717461
v 0.11008469 -0.10948949 0.00673394
f 1 2 3
f 1 3 4
f 1 4 5
f 1 5 17
f 1 17 33
f 1 33 54
f 1 54 53
f 1 53 52
f 1 52 74
f 1 74 93
f 1 93 108
f 1 108 118
f 1 118 117
f 1 117 116
f 1 116 115
f 1 115 114
f 1 114 123
f 1 123 120
f 1 120 109
f 1 109 96
f 1 96 95
f 1 95 94
f 1 94 77
f 1 77 60
f 1 60 36
f 1 36 18
f 1 18 6
f 1 6 2
f 2 6 7
f 2 7 3
f 3 8 11
f 3 11 4
f 3 7 9
f 3 9 10
f 3 10 8
f 4 11 12
f 4 12 13
f 4 13 14
f 4 14 15
f 4 15 5
f 5 15 16
f 5 16 17
f 6 18 7
f 7 18 19
f 7 19 9
f 8 10 20
f 8 20 21
f 8 21 22
f 8 22 11
f 9 19 23
f 9 23 10
f 10 23 20
f 11 22 24
f 11 24 25
f 11 25 26
f 11 26 27
f 11 27 28
f 11 28 29
f 11 29 13
f 11 13 12
f 13 29 30
f 13 30 15
f 13 15 14
f 15 30 31
f 15 31 32
f 15 32 16
f 16 32 33
f 16 33 17
f 18 34 35
f 18 35 19
f 18 36 34
f 19 35 37
f 19 37 20
f 19 20 23
f 20 37 21
f 21 37 38
f 21 38 22
f 22 38 39
f 22 39 40
f 22 40 41
f 22 41 42
f 22 42 24
f 24 42 43
f 24 43 44
f 24 44 45
f 24 45 25
f 25 45 26
f 26 45 27
f 27 45 46
f 27 46 28
f 28 46 47
f 28 47 48
f 28 48 49
f 28 49 29
f 29 49 30
f 30 49 50
f 30 50 31
f 31 50 51
f 31 51 52
f 31 52 53
f 31 53 32
f 32 54 33
f 32 53 54
f 34 55 35
f 34 36 56
f 34 56 75
f 34 75 78
f 34 78 96
f 34 96 109
f 34 109 121
f 34 121 111
f 34 111 110
f 34 110 100
f 34 100 99
f 34 99 97
f 34 97 79
f 34 79 66
f 34 66 42
f 34 42 65
f 34 65 64
f 34 64 63
f 34 63 76
f 34 76 57
f 34 57 55
f 35 55 58
f 35 58 59
f 35 59 37
f 36 60 56
f 37 59 38
f 38 59 39
f 39 59 40
f 40 59 58
f 40 58 61
f 40 61 41
f 41 61 62
f 41 62 63
f 41 63 64
f 41 64 65
f 41 65 42
f 42 66 43
f 43 66 67
f 43 67 44
f 44 67 68
f 44 68 46
f 44 46 45
f 46 68 47
f 47 68 69
f 47 69 70
f 47 70 50
f 47 50 48
f 48 50 49
f 50 70 71
f 50 71 72
f 50 72 51
f 51 72 73
f 51 73 52
f 52 73 74
f 55 57 61
f 55 61 58
f 56 60 75
f 57 76 62
f 57 62 61
f 60 77 78
f 60 78 75
f 62 76 63
f 66 79 67
f 67 79 80
f 67 80 81
f 67 81 82
f 67 82 83
f 67 83 68
f 68 83 84
f 68 84 69
f 69 85 70
f 69 84 86
f 69 86 87
f 69 87 85
f 70 85 88
f 70 88 89
f 70 89 71
f 71 89 88
f 71 88 72
f 72 88 90
f 72 90 91
f 72 91 74
f 72 74 73
f 74 92 93
f 74 91 92
f 77 94 78
f 78 94 95
f 78 95 96
f 79 81 80
f 79 97 81
f 81 97 98
f 81 98 82
f 82 97 99
f 82 99 100
f 82 100 101
f 82 101 102
f 82 102 86
f 82 86 84
f 82 84 83
f 82 98 97
f 85 87 103
f 85 103 90
f 85 90 88
f 86 102 104
f 86 104 105
f 86 105 87
f 87 105 103
f 90 103 105
f 90 105 104
f 90 104 106
f 90 106 92
f 90 92 91
f 92 106 93
f 93 106 107
f 93 107 108
f 100 110 101
f 101 110 111
f 101 111 112
f 101 112 102
f 102 113 106
f 102 106 104
f 102 112 114
f 102 114 115
f 102 115 116
f 102 116 117
f 102 117 118
f 102 118 113
f 106 113 119
f 106 119 118
f 106 118 108
f 106 108 107
f 109 120 121
f 111 121 112
f 112 121 122
f 112 122 114
f 113 118 119
f 114 122 123
f 120 123 124
f 120 124 121
f 121 124 122
f 122 124 123

