# https://github.com/mikedh/trimesh
v -0.09314566 0.08957281 -0.00595750
v -0.09351757 0.08957281 -0.00593402
v -0.09314566 0.08963809 -0.00594811
v -0.09311222 0.08957281 -0.00595750
v -0.09653472 0.08957281 -0.00570628
v -0.09653472 0.09653303 -0.00419429
v -0.09314566 0.09314638 -0.00518507
v -0.09311222 0.09131435 -0.00558420
v -0.09311222 0.08963809 -0.00594811
v -0.09311222 0.08957281 0.00200394
v -0.09976498 0.08957281 -0.00521089
v -0.10669773 0.08975825 -0.00411447
v -0.10844450 0.09826270 -0.00223856
v -0.09991961 0.09938713 -0.00280204
v -0.09640099 0.10013923 -0.00289595
v -0.09314566 0.09991819 -0.00322464
v -0.09314566 0.09653303 -0.00444551
v -0.10669773 0.09849411 -0.00236064
v -0.09311222 0.09314638 -0.00518507
v -0.09311222 0.10472597 0.00976817
v -0.12624232 0.08957281 0.01802544
v -0.10669773 0.08957281 -0.00414264
v -0.11008261 0.08957281 -0.00339603
v -0.11008261 0.08975825 -0.00336552
v -0.11239353 0.08975825 -0.00253908
v -0.11192550 0.09177422 -0.00229725
v -0.11129449 0.09403198 -0.00202491
v -0.11060915 0.09653303 -0.00169857
v -0.11347168 0.09653303 -0.00031570
v -0.11524353 0.09829088 0.00112351
v -0.11347168 0.09896733 0.00066334
v -0.10997397 0.09983513 -0.00048943
v -0.10925102 0.10225161 0.00074081
v -0.10669773 0.10449159 0.00152733
v -0.10669773 0.10279751 0.00037690
v -0.10669773 0.10018669 -0.00131587
v -0.09991961 0.10107972 -0.00190047
v -0.09744154 0.10141497 -0.00210473
v -0.09518495 0.10168346 -0.00227143
v -0.09314566 0.10172055 -0.00229725
v -0.09311222 0.10170275 -0.00230665
v -0.09311222 0.09991819 -0.00322464
v -0.09311222 0.09653303 -0.00444551
v -0.11467938 0.10472597 0.01802544
v -0.09311222 0.10472597 0.00954982
v -0.13580357 0.08957281 0.01802544
v -0.11226817 0.08957281 -0.00261656
v -0.11242696 0.08957281 -0.00255552
v -0.12076381 0.08975825 0.00174569
v -0.11996147 0.09295057 0.00200629
v -0.11818127 0.09395040 0.00134420
v -0.11579513 0.09653303 0.00085821
v -0.11748758 0.09653303 0.00172455
v -0.12052980 0.09681636 0.00340090
v -0.12185450 0.09813216 0.00460297
v -0.11939314 0.10472597 0.00743679
v -0.11834007 0.10472597 0.00688740
v -0.11017037 0.10472597 0.00295950
v -0.10672280 0.10472597 0.00169637
v -0.10490917 0.10472597 0.00135594
v -0.10419877 0.10472597 0.00122446
v -0.10320837 0.10353181 0.00025952
v -0.10229320 0.10472597 0.00090047
v -0.10157861 0.10472597 0.00078543
v -0.09902951 0.10472597 0.00041682
v -0.09648875 0.10472597 0.00007874
v -0.09515987 0.10472597 -0.00001049
v -0.09314566 0.10472597 -0.00013962
v -0.09311222 0.10471410 -0.00014900
v -0.09314566 0.10341462 -0.00108108
v -0.09311222 0.10172055 -0.00229725
v -0.12886247 0.10472597 0.01802544
v -0.13517674 0.09217474 0.01802544
v -0.13556119 0.08957281 0.01741265
v -0.12079307 0.08957281 0.00173159
v -0.12372663 0.08957281 0.00346898
v -0.12386035 0.08975231 0.00358167
v -0.12310398 0.09314638 0.00377889
v -0.12253983 0.09587587 0.00414749
v -0.12221806 0.10201724 0.00764340
v -0.12365141 0.09681636 0.00551862
v -0.12536058 0.09827159 0.00789696
v -0.12345918 0.09960817 0.00708697
v -0.12128618 0.10427500 0.00859191
v -0.12104380 0.10472597 0.00883608
v -0.12881650 0.10472597 0.01786813
v -0.13171663 0.10099813 0.01802544
v -0.13534389 0.08957281 0.01686796
v -0.13453737 0.09468617 0.01802544
v -0.13502629 0.09001339 0.01636318
v -0.12384782 0.08957281 0.00354176
v -0.12411109 0.08957281 0.00371315
v -0.12514326 0.09087823 0.00471097
v -0.12479642 0.09314638 0.00502793
v -0.12872039 0.09824044 0.01131303
v -0.13205930 0.09812326 0.01476197
v -0.12579100 0.09653303 0.00741566
v -0.12165809 0.10472597 0.00942304
v -0.13266942 0.09906226 0.01702057
v -0.12739568 0.10472597 0.01614953
v -0.13284493 0.09942867 0.01802544
v -0.13505555 0.08957281 0.01622232
v -0.13401501 0.09665912 0.01802544
v -0.13423649 0.09314638 0.01640779
v -0.13312909 0.09681043 0.01609787
v -0.13239361 0.09586697 0.01435580
v -0.12695272 0.08957281 0.00626758
v -0.12643872 0.09314638 0.00671835
v -0.12813116 0.09314638 0.00858956
v -0.12963555 0.09314638 0.01028234
v -0.13132800 0.09314638 0.01219581
v -0.12879142 0.10170275 0.01462815
v -0.12263595 0.10472597 0.01055469
v -0.13278224 0.09314638 0.01389093
v -0.13324192 0.08975825 0.01333216
v -0.13325027 0.08957281 0.01329458
v -0.12848219 0.09055187 0.00819044
v -0.12987793 0.08957281 0.00944886
v -0.13182111 0.08975825 0.01163937
v -0.13312909 0.08957281 0.01313728
v -0.13003255 0.08957281 0.00961791
v -0.13184618 0.08957281 0.01161120
f 1 2 3
f 1 3 9
f 1 9 4
f 1 4 10
f 1 10 21
f 1 21 46
f 1 46 74
f 1 74 88
f 1 88 102
f 1 102 116
f 1 116 120
f 1 120 122
f 1 122 121
f 1 121 118
f 1 118 107
f 1 107 92
f 1 92 91
f 1 91 76
f 1 76 75
f 1 75 48
f 1 48 47
f 1 47 23
f 1 23 22
f 1 22 11
f 1 11 5
f 1 5 2
f 2 5 3
f 3 5 6
f 3 6 7
f 3 7 8
f 3 8 9
f 4 9 8
f 4 8 19
f 4 19 43
f 4 43 42
f 4 42 41
f 4 41 71
f 4 71 69
f 4 69 45
f 4 45 20
f 4 20 10
f 5 11 12
f 5 12 13
f 5 13 6
f 6 14 15
f 6 15 16
f 6 16 17
f 6 17 7
f 6 13 18
f 6 18 14
f 7 17 43
f 7 43 19
f 7 19 8
f 10 20 21
f 11 22 12
f 12 22 23
f 12 23 24
f 12 24 13
f 13 24 25
f 13 25 26
f 13 26 27
f 13 27 28
f 13 28 29
f 13 29 30
f 13 30 31
f 13 31 32
f 13 32 33
f 13 33 34
f 13 34 35
f 13 35 36
f 13 36 37
f 13 37 38
f 13 38 18
f 14 18 15
f 15 39 16
f 15 18 39
f 16 40 41
f 16 41 42
f 16 42 43
f 16 43 17
f 16 39 40
f 18 38 39
f 20 44 21
f 20 45 68
f 20 68 67
f 20 67 66
f 20 66 65
f 20 65 64
f 20 64 63
f 20 63 61
f 20 61 60
f 20 60 59
f 20 59 58
f 20 58 57
f 20 57 56
f 20 56 85
f 20 85 98
f 20 98 113
f 20 113 100
f 20 100 86
f 20 86 72
f 20 72 44
f 21 44 72
f 21 72 87
f 21 87 101
f 21 101 103
f 21 103 89
f 21 89 73
f 21 73 46
f 23 47 24
f 24 47 25
f 25 47 48
f 25 48 49
f 25 49 50
f 25 50 51
f 25 51 26
f 26 29 27
f 26 51 29
f 27 29 28
f 29 51 52
f 29 52 30
f 30 52 53
f 30 53 54
f 30 54 55
f 30 55 56
f 30 56 57
f 30 57 31
f 31 33 32
f 31 57 33
f 33 58 59
f 33 59 34
f 33 57 58
f 34 59 60
f 34 60 61
f 34 61 35
f 35 61 62
f 35 62 37
f 35 37 36
f 37 62 38
f 38 62 63
f 38 63 64
f 38 64 39
f 39 64 65
f 39 65 66
f 39 66 67
f 39 67 68
f 39 68 69
f 39 69 70
f 39 70 40
f 40 70 69
f 40 69 71
f 40 71 41
f 45 69 68
f 46 73 74
f 48 75 49
f 49 75 76
f 49 76 77
f 49 77 78
f 49 78 50
f 50 78 79
f 50 79 51
f 51 79 53
f 51 53 52
f 53 79 54
f 54 79 55
f 55 80 56
f 55 79 81
f 55 81 82
f 55 82 83
f 55 83 80
f 56 80 84
f 56 84 85
f 61 63 62
f 72 86 87
f 73 88 74
f 73 89 90
f 73 90 88
f 76 91 77
f 77 91 92
f 77 92 78
f 78 92 93
f 78 93 94
f 78 94 79
f 79 94 81
f 80 83 82
f 80 82 95
f 80 95 96
f 80 96 84
f 81 94 97
f 81 97 82
f 82 97 95
f 84 96 98
f 84 98 85
f 86 96 99
f 86 99 87
f 86 100 96
f 87 99 101
f 88 90 102
f 89 103 104
f 89 104 90
f 90 104 105
f 90 105 96
f 90 96 106
f 90 106 102
f 92 107 93
f 93 107 108
f 93 108 94
f 94 108 97
f 95 97 96
f 96 97 108
f 96 108 109
f 96 109 110
f 96 110 111
f 96 111 106
f 96 105 103
f 96 103 99
f 96 100 112
f 96 112 113
f 96 113 98
f 99 103 101
f 100 113 112
f 102 106 114
f 102 114 115
f 102 115 116
f 103 105 104
f 106 111 114
f 107 117 108
f 107 118 117
f 108 117 119
f 108 119 109
f 109 119 110
f 110 119 111
f 111 119 114
f 114 119 115
f 115 119 120
f 115 120 116
f 117 118 121
f 117 121 122
f 117 122 119
f 119 122 120

