# https://github.com/mikedh/trimesh
v -0.00003628 0.10472744 0.00808790
v -0.00003628 0.10472744 -0.00013985
v -0.00004540 0.10472744 0.00975340
v -0.00003628 0.10471935 0.00974857
v -0.00003628 0.10172284 -0.00229937
v -0.09163613 0.10472744 -0.00013985
v -0.00003628 0.06335951 0.00105738
v -0.09311222 0.10472744 0.00976950
v -0.09311222 0.06335951 0.00109922
v -0.00003628 0.09991684 -0.00323108
v -0.08975001 0.10172284 -0.00229937
v -0.09311222 0.10171879 -0.00229776
v -0.09311222 0.10339521 -0.00109409
v -0.09311222 0.10471124 -0.00014789
v -0.09311222 0.10472744 0.00955064
v -0.00003628 0.06335951 -0.00666829
v -0.09311222 0.06335951 -0.00666829
v -0.00003628 0.09825257 -0.00383131
v -0.08975001 0.09991684 -0.00323108
v -0.09311222 0.10170259 -0.00230742
v -0.00003628 0.08298660 -0.00666829
v -0.09311222 0.08298660 -0.00666829
v -0.00003628 0.09653160 -0.00445084
v -0.08975001 0.09653160 -0.00445084
v -0.09311222 0.09991684 -0.00322625
v -0.00003628 0.08470351 -0.00657336
v -0.09311222 0.08636779 -0.00648002
v -0.00003628 0.09225146 -0.00538095
v -0.09311222 0.08963560 -0.00594899
v -0.09311222 0.09131202 -0.00558371
v -0.09311222 0.09314231 -0.00518463
v -0.09311222 0.09649921 -0.00445245
v -0.09311222 0.09653160 -0.00444441
v -0.00003628 0.08636779 -0.00648002
v -0.00003628 0.08963560 -0.00594899
f 1 2 6
f 1 6 15
f 1 15 8
f 1 8 3
f 1 3 4
f 1 4 7
f 1 7 16
f 1 16 21
f 1 21 26
f 1 26 34
f 1 34 35
f 1 35 28
f 1 28 23
f 1 23 18
f 1 18 10
f 1 10 5
f 1 5 2
f 2 5 11
f 2 11 6
f 3 7 4
f 3 8 9
f 3 9 7
f 5 10 19
f 5 19 11
f 6 11 12
f 6 12 13
f 6 13 14
f 6 14 15
f 7 9 17
f 7 17 16
f 8 15 14
f 8 14 13
f 8 13 12
f 8 12 20
f 8 20 25
f 8 25 33
f 8 33 32
f 8 32 31
f 8 31 30
f 8 30 29
f 8 29 27
f 8 27 22
f 8 22 17
f 8 17 9
f 10 18 19
f 11 19 20
f 11 20 12
f 16 17 22
f 16 22 21
f 18 23 24
f 18 24 19
f 19 24 25
f 19 25 20
f 21 22 26
f 22 27 26
f 23 28 24
f 24 29 30
f 24 30 31
f 24 31 32
f 24 32 33
f 24 33 25
f 24 28 29
f 26 27 34
f 27 29 35
f 27 35 34
f 28 35 29

