# https://github.com/mikedh/trimesh
v 0.13941114 -0.09143212 0.02997639
v 0.13913924 -0.09254203 0.02997639
v 0.13941114 -0.09141829 0.02995360
v 0.13931253 -0.09141829 0.02997639
v 0.13871797 -0.09422420 0.02997639
v 0.13897791 -0.09188854 0.02795482
v 0.13903468 -0.09141829 0.02778881
v 0.13067195 -0.09141829 0.02997639
v 0.13813237 -0.09653220 0.02997639
v 0.13812939 -0.09653392 0.02995360
v 0.13890022 -0.09141829 0.02741770
v 0.13728983 -0.09653392 0.02656806
v 0.13533883 -0.09762137 0.02186736
v 0.11492648 -0.10908010 0.02997639
v 0.10889121 -0.09141829 0.00523914
v 0.13812640 -0.09655294 0.02997639
v 0.13674307 -0.09992072 0.02995360
v 0.13604692 -0.09987058 0.02688057
v 0.13842517 -0.09141829 0.02612207
v 0.13574515 -0.09870707 0.02412330
v 0.13267076 -0.09906321 0.01702017
v 0.13205826 -0.09812446 0.01476098
v 0.13312788 -0.09681054 0.01609891
v 0.13489663 -0.09650799 0.01993696
v 0.12957544 -0.10908010 0.02997639
v 0.10889121 -0.10908010 0.02054570
v 0.10889121 -0.09141829 -0.00328006
v 0.13673709 -0.09993282 0.02997639
v 0.13563162 -0.10179305 0.02995360
v 0.13550016 -0.10163400 0.02821851
v 0.13731671 -0.09141829 0.02318252
v 0.13315776 -0.10008323 0.01981650
v 0.13186406 -0.10132108 0.01869992
v 0.12872991 -0.10502771 0.01806839
v 0.12230324 -0.10549968 0.01085133
v 0.12128741 -0.10427566 0.00859538
v 0.12221959 -0.10201780 0.00764808
v 0.12872094 -0.09824202 0.01131684
v 0.12579295 -0.09653392 0.00741695
v 0.12643830 -0.09314540 0.00672032
v 0.12813235 -0.09314540 0.00859213
v 0.12963819 -0.09314540 0.01028491
v 0.13239588 -0.09586660 0.01435407
v 0.13467255 -0.09141829 0.01638213
v 0.12553002 -0.10861677 0.01783401
v 0.13423933 -0.09314540 0.01640818
v 0.13512370 -0.09141829 0.01744337
v 0.13524620 -0.09314540 0.01877154
v 0.13113206 -0.10720950 0.02997639
v 0.12957245 -0.10908010 0.02995360
v 0.10889121 -0.10908010 0.00572418
v 0.11010723 -0.09141829 -0.00300986
v 0.10889121 -0.09661172 -0.00240112
v 0.13563162 -0.10179478 0.02997639
v 0.13112309 -0.10721642 0.02995360
v 0.12928862 -0.10908010 0.02885004
v 0.12908545 -0.10883634 0.02728749
v 0.12832058 -0.10788893 0.02318252
v 0.12767523 -0.10711787 0.01979372
v 0.13543742 -0.09141829 0.01822465
v 0.12230025 -0.10867036 0.01424338
v 0.12108125 -0.10775754 0.01198744
v 0.11902867 -0.10543052 0.00763506
v 0.12185807 -0.09813483 0.00460435
v 0.12346250 -0.09960953 0.00709142
v 0.12536271 -0.09827314 0.00789874
v 0.12365670 -0.09681573 0.00551910
v 0.12479802 -0.09314540 0.00502754
v 0.12545234 -0.09141829 0.00519031
v 0.12669525 -0.09141829 0.00651523
v 0.12836540 -0.09141829 0.00832519
v 0.13158023 -0.09141829 0.01191582
v 0.13132925 -0.09314540 0.01219904
v 0.13278130 -0.09314540 0.01388855
v 0.13301734 -0.09141829 0.01360534
v 0.12598118 -0.10907492 0.01979372
v 0.12597520 -0.10908010 0.01979372
v 0.12414669 -0.10908010 0.01697786
v 0.10889121 -0.10873261 0.00530099
v 0.10943797 -0.10908010 0.00595531
v 0.11160111 -0.09141829 -0.00248575
v 0.11192677 -0.09177443 -0.00229695
v 0.11129337 -0.09403229 -0.00202350
v 0.11060917 -0.09653392 -0.00169797
v 0.10889121 -0.09872609 -0.00172401
v 0.12875082 -0.10908010 0.02711820
v 0.12598715 -0.10908010 0.01981976
v 0.12028651 -0.10908010 0.01319190
v 0.11997878 -0.10908010 0.01293474
v 0.11882251 -0.10851132 0.01110850
v 0.12309500 -0.10908010 0.01578315
v 0.11685656 -0.10783015 0.00866374
v 0.10889121 -0.10814134 0.00473456
v 0.10924974 -0.10225292 0.00074028
v 0.10997576 -0.09983601 -0.00049024
v 0.11346846 -0.09896986 0.00066215
v 0.11524915 -0.09829216 0.00112440
v 0.11509080 -0.10834362 0.00799641
v 0.12254525 -0.09587524 0.00414860
v 0.12053449 -0.09681573 0.00339988
v 0.12310695 -0.09314540 0.00377750
v 0.12506095 -0.09141829 0.00478665
v 0.13229131 -0.09141829 0.01274593
v 0.11183117 -0.10908010 0.00717281
v 0.11200744 -0.09141829 -0.00233926
v 0.11346846 -0.09653392 -0.00031445
v 0.11818313 -0.09395104 0.00134577
v 0.10889121 -0.10232899 0.00068819
v 0.11685358 -0.10908010 0.01054533
v 0.11441557 -0.10908010 0.00868328
v 0.11579890 -0.09653392 0.00085746
v 0.11749296 -0.09653392 0.00172339
v 0.11996384 -0.09295177 0.00200659
v 0.12349237 -0.09141829 0.00367658
v 0.12191484 -0.09141829 0.00274230
v 0.12034926 -0.09141829 0.00188290
f 1 2 3
f 1 3 4
f 1 4 8
f 1 8 14
f 1 14 25
f 1 25 49
f 1 49 54
f 1 54 28
f 1 28 16
f 1 16 9
f 1 9 5
f 1 5 2
f 2 5 6
f 2 6 3
f 3 6 7
f 3 7 11
f 3 11 19
f 3 19 31
f 3 31 60
f 3 60 47
f 3 47 44
f 3 44 75
f 3 75 103
f 3 103 72
f 3 72 71
f 3 71 70
f 3 70 69
f 3 69 102
f 3 102 114
f 3 114 115
f 3 115 116
f 3 116 105
f 3 105 81
f 3 81 52
f 3 52 27
f 3 27 15
f 3 15 8
f 3 8 4
f 5 9 10
f 5 10 6
f 6 11 7
f 6 10 12
f 6 12 13
f 6 13 11
f 8 15 14
f 9 16 10
f 10 16 17
f 10 17 18
f 10 18 12
f 11 13 19
f 12 18 20
f 12 20 13
f 13 20 21
f 13 21 22
f 13 22 23
f 13 23 24
f 13 24 19
f 14 15 26
f 14 26 51
f 14 51 80
f 14 80 104
f 14 104 110
f 14 110 109
f 14 109 89
f 14 89 88
f 14 88 91
f 14 91 78
f 14 78 77
f 14 77 87
f 14 87 86
f 14 86 56
f 14 56 50
f 14 50 25
f 15 27 53
f 15 53 85
f 15 85 108
f 15 108 93
f 15 93 79
f 15 79 51
f 15 51 26
f 16 28 17
f 17 29 30
f 17 30 18
f 17 28 29
f 18 30 20
f 19 24 31
f 20 32 21
f 20 30 32
f 21 32 33
f 21 33 34
f 21 34 22
f 22 35 36
f 22 36 37
f 22 37 38
f 22 38 39
f 22 39 40
f 22 40 41
f 22 41 42
f 22 42 43
f 22 43 44
f 22 44 23
f 22 34 45
f 22 45 35
f 23 44 46
f 23 46 24
f 24 46 44
f 24 44 47
f 24 47 48
f 24 48 31
f 25 50 49
f 27 52 53
f 28 54 29
f 29 55 30
f 29 54 49
f 29 49 55
f 30 55 50
f 30 50 56
f 30 56 57
f 30 57 58
f 30 58 59
f 30 59 34
f 30 34 33
f 30 33 32
f 31 48 60
f 34 59 45
f 35 61 62
f 35 62 36
f 35 45 61
f 36 62 63
f 36 63 37
f 37 63 64
f 37 64 65
f 37 65 66
f 37 66 38
f 38 66 39
f 39 67 68
f 39 68 40
f 39 66 67
f 40 68 69
f 40 69 70
f 40 70 71
f 40 71 41
f 41 71 72
f 41 72 42
f 42 72 73
f 42 73 43
f 43 73 74
f 43 74 44
f 44 74 75
f 45 59 76
f 45 76 77
f 45 77 78
f 45 78 61
f 47 60 48
f 49 50 55
f 51 79 80
f 52 81 53
f 53 81 82
f 53 82 83
f 53 83 84
f 53 84 85
f 56 86 57
f 57 86 87
f 57 87 58
f 58 87 59
f 59 87 76
f 61 88 89
f 61 89 90
f 61 90 62
f 61 78 91
f 61 91 88
f 62 90 92
f 62 92 63
f 63 93 94
f 63 94 95
f 63 95 96
f 63 96 97
f 63 97 64
f 63 92 98
f 63 98 93
f 64 99 67
f 64 67 66
f 64 66 65
f 64 97 100
f 64 100 99
f 67 99 68
f 68 99 101
f 68 101 102
f 68 102 69
f 72 103 74
f 72 74 73
f 74 103 75
f 76 87 77
f 79 93 98
f 79 98 80
f 80 98 104
f 81 105 82
f 82 106 83
f 82 105 107
f 82 107 106
f 83 106 84
f 84 106 97
f 84 97 85
f 85 97 96
f 85 96 95
f 85 95 94
f 85 94 108
f 89 109 90
f 90 109 110
f 90 110 98
f 90 98 92
f 93 108 94
f 97 106 111
f 97 111 112
f 97 112 100
f 98 110 104
f 99 100 112
f 99 112 107
f 99 107 113
f 99 113 101
f 101 114 102
f 101 113 115
f 101 115 114
f 105 116 113
f 105 113 107
f 106 107 111
f 107 112 111
f 113 116 115

