# https://github.com/mikedh/trimesh
v 0.10889121 -0.09323581 0.00570640
v 0.10889121 -0.10828382 0.01903787
v 0.10889121 -0.09323581 -0.00292611
v -0.00002717 -0.09323581 0.00276571
v -0.00002717 -0.11071533 0.01903787
v 0.10889121 -0.11731516 0.01903787
v 0.10889121 -0.09661305 -0.00240242
v 0.10674824 -0.09323581 -0.00342610
v -0.00002717 -0.09323581 -0.00516540
v -0.00002717 -0.11913816 0.01903787
v 0.10889121 -0.11716303 0.01860424
v 0.10205716 -0.11841555 0.01903787
v 0.10100167 -0.11846626 0.01854262
v 0.10889121 -0.09872764 -0.00172472
v 0.10843276 -0.09826364 -0.00223893
v 0.10668426 -0.09323581 -0.00343795
v -0.00002717 -0.09481287 -0.00482418
v 0.08983902 -0.09323581 -0.00516540
v 0.09314410 -0.11913816 0.01903787
v -0.00002717 -0.11877559 0.01752606
v 0.10889121 -0.11625534 0.01630808
v 0.10668426 -0.11674721 0.01640760
v 0.10053256 -0.11862599 0.01903787
v 0.09874142 -0.11861586 0.01793126
v 0.10889121 -0.10233054 0.00068993
v 0.10668426 -0.09849691 -0.00235978
v 0.09652381 -0.09653446 -0.00419386
v 0.09652381 -0.09323581 -0.00490474
v 0.10668426 -0.09653446 -0.00281948
v 0.10828350 -0.10835227 0.00458083
v 0.10668426 -0.10449329 0.00152640
v 0.10668426 -0.10279959 0.00037713
v 0.10668426 -0.10018807 -0.00131714
v 0.09991419 -0.10108308 -0.00190007
v 0.09743005 -0.10141777 -0.00210385
v -0.00002717 -0.09653446 -0.00444978
v 0.08975372 -0.09653446 -0.00444978
v 0.09314410 -0.09323581 -0.00516303
v 0.09314410 -0.11877559 0.01752606
v 0.09652381 -0.11871220 0.01768483
v 0.09652381 -0.11902913 0.01903787
v -0.00002717 -0.11839780 0.01666589
v 0.10889121 -0.11532227 0.01449769
v 0.09989287 -0.11785014 0.01664456
v 0.10330455 -0.11723656 0.01640760
v 0.10668426 -0.11551244 0.01414698
v 0.09945574 -0.11875530 0.01903787
v 0.09652381 -0.11795156 0.01599291
v 0.10889121 -0.10813929 0.00473249
v 0.09518045 -0.10168653 -0.00226972
v 0.09639587 -0.10013989 -0.00289531
v 0.09991419 -0.09938939 -0.00280052
v 0.09314410 -0.09992184 -0.00322468
v 0.09314410 -0.09653446 -0.00444504
v 0.09322939 -0.09323581 -0.00515829
v 0.10697213 -0.10701102 0.00334153
v 0.10889121 -0.10873260 0.00529883
v 0.10767579 -0.11165345 0.00810920
v 0.10603391 -0.10869456 0.00431307
v 0.10426410 -0.10481276 0.00129418
v 0.10319794 -0.10353234 0.00025866
v 0.10200385 -0.10509927 0.00109987
v -0.00002717 -0.09820026 -0.00385027
v 0.08975372 -0.09992184 -0.00322942
v 0.09314410 -0.11803016 0.01583415
v -0.00002717 -0.11803016 0.01583415
v 0.10889121 -0.11197292 0.00932481
v 0.10886989 -0.11530960 0.01446925
v 0.09991419 -0.11604489 0.01332947
v 0.10659897 -0.11261440 0.00939590
v 0.09664110 -0.11608799 0.01272048
v 0.09314410 -0.11646070 0.01301905
v 0.09991419 -0.10530971 0.00094821
v 0.09991419 -0.10700087 0.00215198
v 0.09652381 -0.10562411 0.00072073
v 0.09652381 -0.10731527 0.00193398
v 0.09314410 -0.10746486 0.00182971
v 0.09314410 -0.10577370 0.00061173
v 0.09314410 -0.10341571 -0.00108255
v 0.09314410 -0.10172202 -0.00229816
v 0.10889121 -0.11141512 0.00846938
v 0.10541554 -0.11183348 0.00783907
v 0.10330455 -0.11068490 0.00591256
v 0.10330455 -0.10899121 0.00407611
v 0.10319794 -0.10641264 0.00221359
v -0.00002717 -0.09992184 -0.00322942
v 0.08975372 -0.10172456 -0.00229816
v -0.00002717 -0.10080925 -0.00277209
v -0.00002717 -0.11723402 0.01440290
v 0.09784585 -0.11511944 0.01139111
v 0.09558559 -0.11524115 0.01119444
v 0.09652381 -0.11243184 0.00688174
v 0.09314410 -0.11422949 0.00943618
v -0.00002717 -0.11646070 0.01301905
v 0.09991419 -0.10928279 0.00384626
v 0.09652381 -0.10956169 0.00362825
v 0.09314410 -0.10969100 0.00352399
v -0.00002717 -0.10856018 0.00266144
v -0.00002717 -0.10746486 0.00182971
v 0.08975372 -0.10341826 -0.00108255
v -0.00002717 -0.10577370 0.00061173
v -0.00002717 -0.10255872 -0.00170102
v 0.10330455 -0.11197800 0.00760447
v 0.09652381 -0.11125538 0.00518746
v 0.09991419 -0.11097649 0.00553816
v -0.00002717 -0.10172456 -0.00229816
v 0.09991419 -0.11220872 0.00723007
v 0.09314410 -0.11253580 0.00671823
v 0.09314410 -0.11138469 0.00502395
v -0.00002717 -0.11422949 0.00943618
v -0.00002717 -0.11052517 0.00426094
v -0.00002717 -0.10969100 0.00352399
v -0.00002717 -0.11253580 0.00671823
v -0.00002717 -0.11138469 0.00502395
f 1 2 6
f 1 6 11
f 1 11 21
f 1 21 43
f 1 43 67
f 1 67 81
f 1 81 57
f 1 57 49
f 1 49 25
f 1 25 14
f 1 14 7
f 1 7 3
f 1 3 8
f 1 8 16
f 1 16 28
f 1 28 55
f 1 55 38
f 1 38 18
f 1 18 9
f 1 9 4
f 1 4 5
f 1 5 2
f 2 5 10
f 2 10 19
f 2 19 41
f 2 41 47
f 2 47 23
f 2 23 12
f 2 12 6
f 3 7 8
f 4 9 17
f 4 17 36
f 4 36 63
f 4 63 86
f 4 86 88
f 4 88 106
f 4 106 102
f 4 102 101
f 4 101 99
f 4 99 98
f 4 98 112
f 4 112 111
f 4 111 114
f 4 114 113
f 4 113 110
f 4 110 94
f 4 94 89
f 4 89 66
f 4 66 42
f 4 42 20
f 4 20 10
f 4 10 5
f 6 12 13
f 6 13 11
f 7 14 15
f 7 15 8
f 8 15 16
f 9 18 17
f 10 20 39
f 10 39 19
f 11 13 22
f 11 22 21
f 12 23 13
f 13 23 24
f 13 24 22
f 14 25 15
f 15 26 27
f 15 27 28
f 15 28 29
f 15 29 16
f 15 25 30
f 15 30 31
f 15 31 32
f 15 32 33
f 15 33 34
f 15 34 35
f 15 35 26
f 16 29 28
f 17 18 37
f 17 37 36
f 18 38 37
f 19 39 40
f 19 40 41
f 20 42 39
f 21 22 43
f 22 24 44
f 22 44 45
f 22 45 46
f 22 46 43
f 23 47 24
f 24 47 41
f 24 41 40
f 24 40 48
f 24 48 44
f 25 49 30
f 26 35 50
f 26 50 51
f 26 51 52
f 26 52 27
f 27 52 51
f 27 51 53
f 27 53 54
f 27 54 55
f 27 55 28
f 30 56 31
f 30 49 57
f 30 57 58
f 30 58 59
f 30 59 56
f 31 59 60
f 31 60 32
f 31 56 59
f 32 60 61
f 32 61 34
f 32 34 33
f 34 61 35
f 35 61 62
f 35 62 50
f 36 37 63
f 37 38 54
f 37 54 53
f 37 53 64
f 37 64 63
f 38 55 54
f 39 65 40
f 39 42 65
f 40 65 48
f 42 66 65
f 43 46 68
f 43 68 58
f 43 58 67
f 44 48 69
f 44 69 45
f 45 69 46
f 46 70 58
f 46 58 68
f 46 69 70
f 48 71 69
f 48 65 72
f 48 72 71
f 50 73 74
f 50 74 75
f 50 75 76
f 50 76 77
f 50 77 78
f 50 78 79
f 50 79 80
f 50 80 53
f 50 53 51
f 50 62 73
f 53 80 64
f 57 81 58
f 58 81 67
f 58 70 82
f 58 82 83
f 58 83 59
f 59 83 84
f 59 84 85
f 59 85 60
f 60 85 62
f 60 62 61
f 62 85 74
f 62 74 73
f 63 64 86
f 64 80 87
f 64 87 88
f 64 88 86
f 65 66 89
f 65 89 72
f 69 71 90
f 69 90 82
f 69 82 70
f 71 72 91
f 71 91 92
f 71 92 90
f 72 93 91
f 72 89 94
f 72 94 110
f 72 110 93
f 74 76 75
f 74 85 84
f 74 84 76
f 76 84 95
f 76 95 96
f 76 96 77
f 77 96 97
f 77 97 98
f 77 98 99
f 77 99 101
f 77 101 78
f 78 100 79
f 78 101 102
f 78 102 100
f 79 100 87
f 79 87 80
f 82 103 104
f 82 104 105
f 82 105 83
f 82 90 103
f 83 105 84
f 84 105 104
f 84 104 95
f 87 100 102
f 87 102 106
f 87 106 88
f 90 107 103
f 90 92 107
f 91 93 108
f 91 108 92
f 92 108 109
f 92 109 104
f 92 104 107
f 93 110 113
f 93 113 108
f 95 104 96
f 96 104 109
f 96 109 97
f 97 109 111
f 97 111 112
f 97 112 98
f 103 107 104
f 108 113 114
f 108 114 109
f 109 114 111

