# https://github.com/mikedh/trimesh
v 0.09368478 0.09712804 -0.00418880
v 0.09368478 0.09947516 -0.00334601
v 0.09594209 0.09712804 -0.00402368
v 0.09368478 0.09712804 0.00432509
v 0.09368478 0.09995388 -0.00317057
v 0.09637185 0.10011965 -0.00289537
v 0.09650642 0.09712804 -0.00397896
v 0.09368478 0.11295213 0.02789567
v 0.12872086 0.09712804 0.03095035
v 0.09368478 0.10171228 -0.00228994
v 0.09513901 0.10168440 -0.00226930
v 0.09992278 0.09934503 -0.00280249
v 0.10669471 0.09848674 -0.00235875
v 0.10844413 0.09826364 -0.00223834
v 0.10669471 0.09712804 -0.00267866
v 0.09368478 0.11295213 0.00743825
v 0.10033083 0.11295213 0.03095035
v 0.13802793 0.09712804 0.03095035
v 0.09368478 0.10295014 -0.00140244
v 0.09368478 0.10743523 0.00185177
v 0.09653247 0.10727102 0.00195840
v 0.10330874 0.10896435 0.00411869
v 0.10602620 0.10867309 0.00433885
v 0.10669471 0.10275494 0.00040010
v 0.10669471 0.10018007 -0.00129236
v 0.10987665 0.09712804 -0.00189435
v 0.10876536 0.09712804 -0.00235186
v 0.10828785 0.10835239 0.00458308
v 0.10925155 0.10225452 0.00074066
v 0.10997649 0.09983614 -0.00048741
v 0.11347098 0.09897010 0.00066497
v 0.11525079 0.09829153 0.00112593
v 0.11564582 0.09712804 0.00093329
v 0.09368478 0.11287311 0.00730753
v 0.09658890 0.11295213 0.00768592
v 0.12469243 0.11295213 0.03095035
v 0.13789336 0.09712804 0.02995620
v 0.13689060 0.09991980 0.03095035
v 0.09368478 0.10967080 0.00354422
v 0.09653247 0.10955151 0.00365086
v 0.09653247 0.11124640 0.00517820
v 0.09992278 0.11095514 0.00550843
v 0.10689874 0.11016347 0.00619299
v 0.10697254 0.10701073 0.00338254
v 0.10669471 0.10444827 0.00155936
v 0.10330874 0.11065923 0.00586620
v 0.10777127 0.11165385 0.00811248
v 0.11008502 0.10948800 0.00672962
v 0.11509018 0.10834310 0.00799553
v 0.11902744 0.10543049 0.00763433
v 0.12185343 0.09813660 0.00460373
v 0.12084197 0.09712804 0.00366118
v 0.11676146 0.09712804 0.00150777
v 0.09368478 0.11252144 0.00674338
v 0.09992278 0.11295213 0.00831888
v 0.09653247 0.11244552 0.00687065
v 0.12528281 0.11262988 0.03095035
v 0.12449274 0.11295213 0.02995620
v 0.13776747 0.09712804 0.02940925
v 0.13675602 0.09991980 0.02995620
v 0.13610487 0.10125371 0.03095035
v 0.09368478 0.11109612 0.00480668
v 0.09368478 0.11136414 0.00505092
v 0.09992278 0.11224412 0.00720433
v 0.10330874 0.11201793 0.00755864
v 0.10551396 0.11185990 0.00780633
v 0.10666433 0.11265157 0.00939903
v 0.10666867 0.11295213 0.00988750
v 0.11007199 0.11295213 0.01151460
v 0.11008502 0.11118133 0.00882456
v 0.11495995 0.11295213 0.01503367
v 0.11881908 0.10851196 0.01110868
v 0.11685261 0.10783029 0.00866288
v 0.11286759 0.11295213 0.01345129
v 0.11333207 0.11295213 0.01379185
v 0.12107639 0.10775748 0.01198587
v 0.12128476 0.10427785 0.00859407
v 0.12221806 0.10201904 0.00764809
v 0.12322952 0.09712804 0.00531580
v 0.12216164 0.09712804 0.00439045
v 0.12345959 0.09960994 0.00709081
v 0.12536094 0.09827294 0.00789921
v 0.10152026 0.11295213 0.00865599
v 0.12606852 0.11219764 0.03095035
v 0.12596868 0.11214497 0.02995620
v 0.12560838 0.11194047 0.02758951
v 0.12425833 0.11295213 0.02920285
v 0.13706857 0.09712804 0.02662288
v 0.13604845 0.09987951 0.02687400
v 0.13550148 0.10163792 0.02820870
v 0.13564039 0.10180679 0.02995620
v 0.13570984 0.10189200 0.03095035
v 0.10330874 0.11295213 0.00905503
v 0.10386005 0.11295213 0.00917887
v 0.10618681 0.11295213 0.00976366
v 0.11661820 0.11295213 0.01633741
v 0.11943116 0.11221623 0.01742789
v 0.12006494 0.10912392 0.01307978
v 0.12229621 0.10866999 0.01424248
v 0.12230055 0.10550022 0.01085413
v 0.13205908 0.09811956 0.01476192
v 0.12872086 0.09824196 0.01131508
v 0.12562574 0.09712804 0.00759305
v 0.12656340 0.11188004 0.03095035
v 0.12766600 0.11095359 0.02995620
v 0.12510048 0.11165385 0.02533290
v 0.12383292 0.11261284 0.02650249
v 0.12317308 0.11295213 0.02648185
v 0.12340750 0.11295213 0.02705287
v 0.12714942 0.11024868 0.02625825
v 0.13686890 0.09712804 0.02590394
v 0.13574458 0.09872223 0.02412547
v 0.13506738 0.10098104 0.02595210
v 0.13188544 0.10134666 0.01861467
v 0.13234558 0.10193228 0.02087128
v 0.13281875 0.10251480 0.02317949
v 0.13146436 0.10420814 0.02317949
v 0.13189412 0.10475502 0.02543610
v 0.12869048 0.10836479 0.02492698
v 0.13229783 0.10524149 0.02769271
v 0.12944147 0.10926026 0.02995620
v 0.13113445 0.10723228 0.02995620
v 0.13254093 0.10553895 0.02995620
v 0.13530180 0.10238931 0.03095035
v 0.13220667 0.10612766 0.03095035
v 0.11673974 0.11295213 0.01644405
v 0.11856296 0.11295213 0.01813995
v 0.12168847 0.11163991 0.01852523
v 0.12043392 0.11100161 0.01634086
v 0.12350734 0.10929279 0.01658509
v 0.12553024 0.10861732 0.01783380
v 0.12873388 0.10503699 0.01806083
v 0.13267116 0.09908940 0.01701853
v 0.13534086 0.09762070 0.02186542
v 0.13286216 0.09712804 0.01577326
v 0.13220233 0.09712804 0.01459336
v 0.13123429 0.09712804 0.01354761
v 0.12892055 0.09712804 0.01108804
v 0.12776151 0.11103725 0.03095035
v 0.12902039 0.10984123 0.03095035
v 0.12909419 0.10884506 0.02718360
v 0.12668494 0.10965996 0.02317949
v 0.12458825 0.11135330 0.02317949
v 0.12230923 0.11196215 0.02078184
v 0.12289526 0.11226426 0.02317949
v 0.12205745 0.11295213 0.02417019
v 0.13564473 0.09712804 0.02239861
v 0.13318339 0.10009951 0.01976361
v 0.13462026 0.09987951 0.02306941
v 0.13092608 0.10315929 0.01976361
v 0.12909419 0.10548318 0.01979458
v 0.12977138 0.10628723 0.02317949
v 0.12837793 0.10798057 0.02317949
v 0.12600774 0.10907589 0.01979458
v 0.12951961 0.10934391 0.03095035
v 0.13001881 0.10875675 0.03095035
v 0.13121259 0.10732369 0.03095035
v 0.11975673 0.11295213 0.01969137
v 0.12351169 0.11089007 0.01970857
v 0.12770507 0.10717650 0.01979458
v 0.13539730 0.09712804 0.02171062
v 0.13514118 0.09712804 0.02100887
v 0.12107639 0.11295213 0.02220942
f 1 2 3
f 1 3 7
f 1 7 15
f 1 15 27
f 1 27 26
f 1 26 33
f 1 33 53
f 1 53 52
f 1 52 80
f 1 80 79
f 1 79 103
f 1 103 138
f 1 138 137
f 1 137 136
f 1 136 135
f 1 135 162
f 1 162 161
f 1 161 147
f 1 147 111
f 1 111 88
f 1 88 59
f 1 59 37
f 1 37 18
f 1 18 9
f 1 9 4
f 1 4 8
f 1 8 16
f 1 16 34
f 1 34 54
f 1 54 63
f 1 63 62
f 1 62 39
f 1 39 20
f 1 20 19
f 1 19 10
f 1 10 5
f 1 5 2
f 2 5 6
f 2 6 7
f 2 7 3
f 4 9 8
f 5 10 11
f 5 11 6
f 6 12 7
f 6 11 13
f 6 13 12
f 7 12 13
f 7 13 14
f 7 14 15
f 8 9 17
f 8 17 36
f 8 36 58
f 8 58 87
f 8 87 109
f 8 109 108
f 8 108 146
f 8 146 163
f 8 163 158
f 8 158 127
f 8 127 126
f 8 126 96
f 8 96 71
f 8 71 75
f 8 75 74
f 8 74 69
f 8 69 68
f 8 68 95
f 8 95 94
f 8 94 93
f 8 93 83
f 8 83 55
f 8 55 35
f 8 35 16
f 9 18 38
f 9 38 61
f 9 61 92
f 9 92 124
f 9 124 125
f 9 125 157
f 9 157 156
f 9 156 155
f 9 155 140
f 9 140 139
f 9 139 104
f 9 104 84
f 9 84 57
f 9 57 36
f 9 36 17
f 10 19 11
f 11 19 20
f 11 20 21
f 11 21 22
f 11 22 23
f 11 23 24
f 11 24 25
f 11 25 14
f 11 14 13
f 14 26 27
f 14 27 15
f 14 25 24
f 14 24 28
f 14 28 29
f 14 29 30
f 14 30 31
f 14 31 32
f 14 32 33
f 14 33 26
f 16 35 34
f 18 37 60
f 18 60 38
f 20 39 40
f 20 40 21
f 21 40 22
f 22 40 41
f 22 41 42
f 22 42 23
f 23 43 28
f 23 28 44
f 23 44 45
f 23 45 24
f 23 42 46
f 23 46 43
f 24 45 28
f 28 45 44
f 28 43 47
f 28 47 48
f 28 48 49
f 28 49 50
f 28 50 29
f 29 31 30
f 29 50 31
f 31 50 32
f 32 50 51
f 32 51 52
f 32 52 53
f 32 53 33
f 34 35 54
f 35 55 56
f 35 56 54
f 36 57 58
f 37 59 60
f 38 60 61
f 39 62 40
f 40 62 41
f 41 62 63
f 41 63 56
f 41 56 64
f 41 64 65
f 41 65 66
f 41 66 42
f 42 66 46
f 43 46 47
f 46 66 47
f 47 66 67
f 47 67 68
f 47 68 69
f 47 69 70
f 47 70 49
f 47 49 48
f 49 71 72
f 49 72 73
f 49 73 50
f 49 70 74
f 49 74 75
f 49 75 71
f 50 73 76
f 50 76 77
f 50 77 78
f 50 78 51
f 51 79 80
f 51 80 52
f 51 78 81
f 51 81 82
f 51 82 79
f 54 56 63
f 55 83 65
f 55 65 64
f 55 64 56
f 57 84 85
f 57 85 58
f 58 85 86
f 58 86 87
f 59 88 89
f 59 89 60
f 60 89 90
f 60 90 61
f 61 91 92
f 61 90 91
f 65 93 94
f 65 94 66
f 65 83 93
f 66 94 95
f 66 95 68
f 66 68 67
f 69 74 70
f 71 96 72
f 72 96 97
f 72 97 98
f 72 98 99
f 72 99 76
f 72 76 73
f 76 99 100
f 76 100 77
f 77 100 101
f 77 101 102
f 77 102 78
f 78 102 82
f 78 82 81
f 79 82 103
f 82 102 103
f 84 104 85
f 85 104 105
f 85 105 86
f 86 106 107
f 86 107 108
f 86 108 109
f 86 109 87
f 86 105 110
f 86 110 106
f 88 111 112
f 88 112 89
f 89 112 90
f 90 112 113
f 90 113 114
f 90 114 115
f 90 115 116
f 90 116 117
f 90 117 118
f 90 118 119
f 90 119 120
f 90 120 121
f 90 121 122
f 90 122 123
f 90 123 91
f 91 124 92
f 91 123 125
f 91 125 124
f 96 126 97
f 97 126 127
f 97 127 128
f 97 128 129
f 97 129 98
f 98 129 99
f 99 129 128
f 99 128 130
f 99 130 131
f 99 131 100
f 100 131 101
f 101 131 132
f 101 132 133
f 101 133 134
f 101 134 135
f 101 135 136
f 101 136 137
f 101 137 138
f 101 138 103
f 101 103 102
f 104 139 105
f 105 139 140
f 105 140 121
f 105 121 141
f 105 141 110
f 106 110 142
f 106 142 143
f 106 143 144
f 106 144 145
f 106 145 107
f 107 145 146
f 107 146 108
f 110 141 142
f 111 147 134
f 111 134 112
f 112 134 133
f 112 133 148
f 112 148 149
f 112 149 113
f 113 149 148
f 113 148 114
f 114 150 115
f 114 148 133
f 114 133 132
f 114 132 150
f 115 150 116
f 116 150 151
f 116 151 117
f 117 152 118
f 117 151 152
f 118 152 153
f 118 153 119
f 119 153 154
f 119 154 141
f 119 141 120
f 120 141 121
f 121 140 155
f 121 155 156
f 121 156 122
f 122 156 157
f 122 157 125
f 122 125 123
f 127 158 128
f 128 144 143
f 128 143 159
f 128 159 131
f 128 131 130
f 128 158 144
f 131 154 160
f 131 160 132
f 131 159 154
f 132 160 151
f 132 151 150
f 134 147 161
f 134 161 162
f 134 162 135
f 141 154 142
f 142 154 143
f 143 154 159
f 144 158 163
f 144 163 146
f 144 146 145
f 151 160 152
f 152 160 153
f 153 160 154

