# https://github.com/mikedh/trimesh
v 0.14075744 -0.05180316 0.03057384
v 0.14067634 -0.05180316 0.02995474
v 0.13248519 -0.05180316 0.03057384
v 0.14075744 -0.08298030 0.03057384
v 0.13986533 -0.05180316 0.02656846
v 0.14067634 -0.08298030 0.02995474
v 0.10889121 -0.05180316 0.00382914
v 0.13235419 -0.05181479 0.03057384
v 0.14053597 -0.08636945 0.03057384
v 0.14045799 -0.08636945 0.02995474
v 0.13970314 -0.05180316 0.02611353
v 0.13986533 -0.08298030 0.02656846
v 0.10889121 -0.05180316 -0.00436633
v 0.10889121 -0.09141829 0.00523837
v 0.13079768 -0.09141829 0.03057384
v 0.14042056 -0.08698602 0.03057384
v 0.13982166 -0.08975473 0.02995474
v 0.13924149 -0.08975473 0.02720808
v 0.13950038 -0.08665253 0.02625035
v 0.13907305 -0.05180316 0.02435199
v 0.13907305 -0.08298030 0.02435199
v 0.13900442 -0.08571023 0.02452644
v 0.11008276 -0.05180316 -0.00412006
v 0.10889121 -0.08298030 -0.00436633
v 0.10889121 -0.09141829 -0.00327861
v 0.13949102 -0.09141829 0.03057384
v 0.13989964 -0.08975473 0.03057384
v 0.13941304 -0.09141829 0.02995474
v 0.13903562 -0.09141829 0.02778957
v 0.13885781 -0.08797097 0.02490953
v 0.13890148 -0.09141829 0.02741673
v 0.13818406 -0.05180316 0.02207054
v 0.13605985 -0.08298030 0.01662171
v 0.13595067 -0.08636945 0.01688167
v 0.11254697 -0.05180316 -0.00318968
v 0.11008276 -0.08298030 -0.00412006
v 0.10889121 -0.08636945 -0.00417820
v 0.10889121 -0.08975473 -0.00362750
v 0.10912827 -0.09141829 -0.00322730
v 0.13572298 -0.08905286 0.01746316
v 0.13863012 -0.08975473 0.02551495
v 0.13543600 -0.09141829 0.01822591
v 0.13842424 -0.09141829 0.02612038
v 0.13605985 -0.05180316 0.01662171
v 0.13538610 -0.08298030 0.01492858
v 0.13527381 -0.08636945 0.01518854
v 0.11318329 -0.05180316 -0.00294683
v 0.11318329 -0.08298030 -0.00294683
v 0.11298678 -0.08636945 -0.00284421
v 0.11008276 -0.08636945 -0.00392509
v 0.11008276 -0.08975473 -0.00336413
v 0.11010772 -0.09141829 -0.00300840
v 0.13502427 -0.09001067 0.01636176
v 0.13512408 -0.09141829 0.01744263
v 0.13731691 -0.09141829 0.02318219
v 0.13538610 -0.05180316 0.01492858
v 0.13335547 -0.08659437 0.01270184
v 0.13387014 -0.08298030 0.01302337
v 0.13507417 -0.05180316 0.01453522
v 0.13467179 -0.09141829 0.01638228
v 0.13301547 -0.09141829 0.01360485
v 0.13324317 -0.08975473 0.01333122
v 0.11453081 -0.05180316 -0.00225247
v 0.11487704 -0.08298030 -0.00207119
v 0.11685777 -0.08636945 -0.00084323
v 0.12076930 -0.08975473 0.00174607
v 0.11239413 -0.08975473 -0.00253979
v 0.11160183 -0.09141829 -0.00248507
v 0.13207034 -0.08787403 0.01135760
v 0.13221694 -0.08561717 0.01120026
v 0.13227620 -0.08298030 0.01113527
v 0.13354262 -0.05180316 0.01263344
v 0.13387014 -0.05180316 0.01302337
v 0.13229180 -0.09141829 0.01274632
v 0.13182079 -0.08975473 0.01164150
v 0.12118728 -0.05180316 0.00119537
v 0.12153352 -0.08298030 0.00137666
v 0.12134012 -0.08636945 0.00147584
v 0.12386359 -0.08975086 0.00358286
v 0.12349241 -0.09141829 0.00367863
v 0.12191406 -0.09141829 0.00274142
v 0.12035133 -0.09141829 0.00188289
v 0.11200733 -0.09141829 -0.00233798
v 0.12848008 -0.09054967 0.00819366
v 0.12876705 -0.08829282 0.00787898
v 0.12733220 -0.08636945 0.00603876
v 0.12890430 -0.08636945 0.00773189
v 0.12744137 -0.08298030 0.00592246
v 0.13035787 -0.05180316 0.00906588
v 0.13227620 -0.05180316 0.01113527
v 0.13158061 -0.09141829 0.01191514
v 0.12836467 -0.09141829 0.00832706
v 0.12153352 -0.05180316 0.00137666
v 0.12362965 -0.08298030 0.00265591
v 0.12362965 -0.08636945 0.00285772
v 0.12319919 -0.05180316 0.00239253
v 0.12546065 -0.08861855 0.00441746
v 0.12506139 -0.09141829 0.00478687
v 0.12514249 -0.09087541 0.00471162
v 0.12669588 -0.09141829 0.00651421
v 0.12697036 -0.08958412 0.00629530
v 0.12563844 -0.08636945 0.00424643
v 0.12574762 -0.08298030 0.00414040
v 0.12744137 -0.05180316 0.00592246
v 0.12868907 -0.05180316 0.00726672
v 0.12362965 -0.05180316 0.00265591
v 0.12545129 -0.09141829 0.00519048
v 0.12574762 -0.05180316 0.00414040
f 1 2 5
f 1 5 11
f 1 11 20
f 1 20 32
f 1 32 44
f 1 44 56
f 1 56 59
f 1 59 73
f 1 73 72
f 1 72 90
f 1 90 89
f 1 89 105
f 1 105 104
f 1 104 108
f 1 108 106
f 1 106 96
f 1 96 93
f 1 93 76
f 1 76 63
f 1 63 47
f 1 47 35
f 1 35 23
f 1 23 13
f 1 13 7
f 1 7 3
f 1 3 8
f 1 8 15
f 1 15 26
f 1 26 27
f 1 27 16
f 1 16 9
f 1 9 4
f 1 4 6
f 1 6 2
f 2 6 12
f 2 12 5
f 3 7 8
f 4 9 10
f 4 10 6
f 5 12 11
f 6 10 12
f 7 13 24
f 7 24 37
f 7 37 38
f 7 38 25
f 7 25 14
f 7 14 15
f 7 15 8
f 9 16 10
f 10 16 17
f 10 17 18
f 10 18 19
f 10 19 12
f 11 12 21
f 11 21 20
f 12 19 22
f 12 22 21
f 13 23 36
f 13 36 24
f 14 25 39
f 14 39 52
f 14 52 68
f 14 68 83
f 14 83 82
f 14 82 81
f 14 81 80
f 14 80 98
f 14 98 107
f 14 107 100
f 14 100 92
f 14 92 91
f 14 91 74
f 14 74 61
f 14 61 60
f 14 60 54
f 14 54 42
f 14 42 55
f 14 55 43
f 14 43 31
f 14 31 29
f 14 29 28
f 14 28 26
f 14 26 15
f 16 27 17
f 17 27 26
f 17 26 28
f 17 28 29
f 17 29 18
f 18 30 19
f 18 29 31
f 18 31 30
f 19 30 22
f 20 21 32
f 21 22 33
f 21 33 32
f 22 30 34
f 22 34 33
f 23 35 36
f 24 36 37
f 25 38 39
f 30 40 34
f 30 31 41
f 30 41 42
f 30 42 40
f 31 43 41
f 32 33 44
f 33 34 45
f 33 45 56
f 33 56 44
f 34 46 45
f 34 40 46
f 35 47 48
f 35 48 36
f 36 48 49
f 36 49 50
f 36 50 37
f 37 50 38
f 38 50 51
f 38 51 39
f 39 51 52
f 40 53 46
f 40 42 54
f 40 54 53
f 41 43 55
f 41 55 42
f 45 46 57
f 45 57 58
f 45 58 59
f 45 59 56
f 46 53 60
f 46 60 61
f 46 61 62
f 46 62 57
f 47 63 48
f 48 64 65
f 48 65 49
f 48 63 64
f 49 65 66
f 49 66 67
f 49 67 50
f 50 67 51
f 51 67 68
f 51 68 52
f 53 54 60
f 57 62 69
f 57 69 70
f 57 70 58
f 58 70 71
f 58 71 72
f 58 72 73
f 58 73 59
f 61 74 75
f 61 75 62
f 62 75 69
f 63 76 77
f 63 77 64
f 64 77 78
f 64 78 65
f 65 78 66
f 66 78 79
f 66 79 80
f 66 80 81
f 66 81 82
f 66 82 67
f 67 82 83
f 67 83 68
f 69 75 84
f 69 84 85
f 69 85 86
f 69 86 87
f 69 87 70
f 70 88 71
f 70 87 86
f 70 86 88
f 71 88 89
f 71 89 90
f 71 90 72
f 74 91 75
f 75 91 92
f 75 92 84
f 76 93 77
f 77 94 95
f 77 95 78
f 77 93 96
f 77 96 94
f 78 95 79
f 79 95 97
f 79 97 80
f 80 97 99
f 80 99 98
f 84 92 100
f 84 100 101
f 84 101 85
f 85 101 97
f 85 97 86
f 86 97 102
f 86 102 88
f 88 102 103
f 88 103 108
f 88 108 104
f 88 104 105
f 88 105 89
f 94 103 102
f 94 102 95
f 94 96 106
f 94 106 108
f 94 108 103
f 95 102 97
f 97 101 100
f 97 100 107
f 97 107 99
f 98 99 107

